<?xml version="1.0" encoding="iso-8859-1"?>
<!-- Generator: Adobe Illustrator 12.0.1, SVG Export Plug-In . SVG Version: 6.00 Build 51448)  -->
<!DOCTYPE svg PUBLIC "-//W3C//DTD SVG 1.1//EN" "http://www.w3.org/Graphics/SVG/1.1/DTD/svg11.dtd" [
	<!ENTITY ns_svg "http://www.w3.org/2000/svg">
	<!ENTITY ns_xlink "http://www.w3.org/1999/xlink">
]>
<svg  version="1.1" id="Layer_1" xmlns="&ns_svg;" xmlns:xlink="&ns_xlink;" width="83.147" height="73.4"
	 viewBox="0 0 83.147 73.4" style="overflow:visible;enable-background:new 0 0 83.147 73.4;" xml:space="preserve">
<g>
	<path style="fill:#BE3689;" d="M78.747,5.8c0-0.2,0-0.3,0-0.4c0-1-0.5-1.8-1.4-2.3c-0.2-0.1-0.3-0.2-0.4-0.3
		c-1.5,0-2.9-0.1-4.3-0.2c-3,0.9-5.9,2.3-8.6,4c-0.1,0.7-0.3,1.2-0.6,1.7c-0.1,0-0.1,0.1,0,0.2c4.4-0.6,9-1,14-1.2
		C78.047,6.9,78.447,6.4,78.747,5.8z M77.047,4.8l0.2,0.3c-3.1,1.5-6,1.7-8.7,0.7c0.1-0.1,0.1-0.2,0.3-0.2c1.4-0.6,2.8-1.1,4.3-1.5
		c0.1,0,0.1,0,0.1,0C74.847,3.5,76.047,3.8,77.047,4.8z"/>
	<path style="fill:#BE3689;" d="M75.747,17.6c0.2-0.2,0.4-0.5,0.6-0.8c0,0,0.1-0.1,0.1-0.3c0-0.1-0.1-0.2-0.1-0.3
		c-1-2.3-2.9-3.3-5.7-3.2c-3,0-5.5,1-7.5,3c0.4,0.1,0.7,0.1,1,0.1c0.2,0,0.4,0,0.5-0.1c0,0.2,0.2,0.2,0.3,0.3
		c0.2,0.1,0.5,0.2,0.7,0.2c3,0.1,6.3,0.6,9.5,1.5C75.347,17.9,75.547,17.7,75.747,17.6z M74.547,16.3c-0.3,0-0.5,0-0.7,0
		c-1.9-0.4-3.6-0.9-5.2-1.7C71.147,14,73.047,14.5,74.547,16.3z"/>
	<path style="fill:#BE3689;" d="M82.047,58.1c0.2-1,0.1-2-0.1-3c-0.4-0.3-0.8-0.6-1.3-0.7c-4.4-0.9-8-1.7-11-2.3
		c-0.6,0.1-1.3,0.2-2,0.3c1.9-3.6,2.6-7.9,1.9-12.7c0.7,0,1.3-0.2,1.9-0.9c1.3-1.3,1.7-2.9,1.2-4.8c-0.1-0.1-0.3-0.2-0.5-0.2
		c-1.2-0.3-2.3-0.5-3.5-0.7c0,0.1,0,0.1,0,0.1c-0.3,0.1-0.5,0.1-0.6,0.3c-0.4-0.8-0.7-1.5-1.1-2.2c0,0,0,0,0-0.1
		c-0.1-0.6-0.3-1.2-0.5-1.8c-0.5-0.9-1-1.6-1.6-2.3c-0.3-0.2-0.5-0.4-0.8-0.6c-0.5-0.4-0.8-1-0.9-1.6c-0.3-0.1-0.5-0.3-0.8-0.5
		c-7.7-6-16.8-8.6-27.2-7.5c-2.5,0.5-5.1,1.2-7.8,2.1c-1.6,0.5-2.9,1.4-4,2.6c0,0,0,0,0-0.1c-0.2,0.1-0.3,0.1-0.4,0.2
		c-0.2,0.4-0.4,0.8-0.7,1.3c-0.2,0.2-0.4,0.4-0.6,0.6c0,0.1,0,0.1,0.1,0.1c-0.9,0.8-1.8,1.5-2.6,2c0.1,0.1,0.2,0.1,0.4,0.2
		c-1.8,1.8-3.1,3.8-4.2,6.1c-1.2-0.5-2.6-0.7-4.2-0.5c-0.1,0.1-0.2,0.2-0.3,0.4c-1.2,1.6-1.3,3.3-0.1,5c0.6,0.9,1.1,1.8,1.7,2.6
		c0.1,0.2,0.2,0.2,0.4,0.3c0.1,0,0.2,0,0.2,0.1c-0.1,1.1-0.2,2.3-0.3,3.5c0,1.6,0.1,3.3,0.4,4.9c-3.1-1.4-6.6-2.3-10.5-2.8
		c-0.1,0.1-0.2,0.2-0.4,0.2c-0.3,0.2-0.7,0.4-1,0.6c-0.3,0.2-0.6,0.5-0.8,0.7c-0.5,1.9-0.6,3.9-0.2,6c1.2,6,3.6,10.4,7.4,13.2
		c-2,0.5-3.5,1.5-4.4,2.9c0.1,0.2,0.1,0.2,0.1,0.2c2.2-0.5,3.9-1.4,5-2.6c0.7,0.5,1.6,0.9,2.4,1.3c-1.8,0.5-3.1,1.4-4,2.8
		c0.2,0,0.3,0.1,0.4,0.1c2.9-0.7,4.4-1.5,4.6-2.4c1.1,0.3,2.2,0.6,3.4,0.9c-1.4,0.3-2.3,1-2.9,2.1c0.2,0.1,0.4,0.1,0.6,0.1
		c1.6-0.7,3.3-1.3,5-1.8c1.4,0.1,2.9,0.1,4.4,0.1c-1,0.7-2,1.4-3,2.2c3.5-0.9,7.2-2.3,11.3-4.1c1.9-0.9,3.1-1.7,3.6-2.6
		c1.2,0.2,2.3,0.3,3.5,0.4c-4.2,1.4-7.6,3.5-10.2,6.3c1.2,0.1,2.6-0.2,4-0.9c3.7-1.7,6.1-3.5,7.4-5.3c0.3,0,0.7,0,1,0.1
		c0.2,0,0.3,0,0.4,0c1.4-0.1,2.7-0.3,4.1-0.6c-3.5,1.5-6,3.6-7.4,6.5c0.2,0,0.4,0,0.6-0.1c3.4-2.5,7-4.9,10.8-7
		c0.4-0.1,0.7-0.1,1.1,0c0.2-0.1,0.5-0.2,0.8-0.2c-0.3,0.5-0.1,1,0.4,1.3c1.3,0.8,2.5,1.5,3.8,2c-1.9,0.8-3.5,1.8-4.7,3.2
		c0.8,0.6,1.7,0.6,2.9,0c1.9-1,3-1.8,3.3-2.6c1,0.4,2,0.7,3.1,1c-0.9,0.6-1.5,1.3-1.9,2.1c0.2,0.1,0.3,0.1,0.4,0.1
		c1.3-0.6,2.5-1.2,3.5-2c2.6,0.3,5.1,0.1,7.8-0.5c-1.9,0.9-3.7,2-5.4,3.2c3.1-1.2,6.4-2.4,9.9-3.6c4.7-1.5,7.9-3.3,9.8-5.3
		c-0.1,0.1-0.2,0.1-0.3,0.2c-2.3,0.6-4.5,1.3-6.7,2.1c1-0.6,1.9-1.3,2.9-2C80.747,62.2,81.747,60.3,82.047,58.1z M79.547,56
		c0.7,0.8,0.8,1.6,0.1,2.5c-4.7,6.1-10.3,9.2-16.7,9.4c0.1-0.1,0.2-0.2,0.3-0.4c-0.2,0-0.4,0-0.6,0c-0.3,0.1-0.6,0.3-0.9,0.4
		c-3.2-0.1-6.7-1-10.3-2.5c0-0.1,0-0.2,0-0.3c3.3-5.1,7.7-8.3,13.4-9.5c0.1,0.1,0.3,0.2,0.4,0.3c0.2-0.2,0.3-0.4,0.4-0.5
		c2.4-0.5,4.9-0.6,7.6-0.4c1.9,0,3.8,0.2,5.6,0.6C79.147,55.7,79.347,55.8,79.547,56z M23.247,24.8c0,0,0.1,0,0.2,0
		c0-0.1,0-0.1,0-0.2c0.3-0.3,0.6-0.5,1-0.8c-0.1-0.1-0.2-0.2-0.3-0.3c9.2-5.7,19.1-6.3,29.8-1.9c3.7,1.6,6.9,3.6,9.6,6.1
		c-0.1,0-0.2,0.1-0.2,0.2c0.3,0.4,0.7,0.9,1.1,1.4c0.1,0.1,0.1,0.2,0.1,0.3c-0.5-0.4-0.9-0.8-1.4-1.2c0.4,0.4,0.8,0.9,1.2,1.4
		c2.4,3.4,3.7,7.9,3.7,13.4c0,3.7-1.2,7.1-3.6,10c-5.4,1.5-9.8,4.7-13.1,9.5c0-0.1,0-0.2,0-0.3c-6.8,2.5-14.4,2.4-22.9-0.3
		c-3.3-5.8-7.7-10.1-13.3-12.9c-1.1-3.1-1.4-6.4-0.8-9.8c0.1,0,0.1,0,0.1,0s0,0,0-0.1c0.3-1.8,0.9-3.7,1.7-5.7
		c0.1-0.1,0.2-0.2,0.4-0.4c0.1-0.1,0.2-0.2,0.4-0.3c0-0.2,0.1-0.3,0.2-0.4c0-0.1,0-0.2,0-0.4c0-0.1,0-0.2,0.1-0.3
		c0-0.2,0.1-0.3,0.2-0.4c0.8-0.7,1.5-1.5,2.1-2.4C20.647,27.4,21.847,26,23.247,24.8z M14.747,33.4c-0.6,1.4-1,2.9-1.3,4.6
		c-0.5-0.6-0.9-1.3-1.2-2c-0.5-0.8-0.7-1.7-0.7-2.6c0.1-0.1,0.2-0.2,0.3-0.2C12.947,33.5,13.947,33.6,14.747,33.4z M29.347,64
		L29.347,64c0.7,0.2,1.4,0.4,2,0.7c0.1,0,0.2,0,0.3,0.1c-0.8,0.3-1.5,0.6-2.3,1c0.1-0.5,0.1-0.9,0.2-1.4
		C29.447,64.3,29.447,64.2,29.347,64z M26.947,64c0.3,0.8,0.3,1.3-0.3,1.5c-7.7,4.4-14.7,3.2-20.9-3.5c-4.5-4.9-5.3-9.8-2.6-14.7
		c3.7,0.6,7.3,1.9,10.9,3.7C19.947,53.9,24.247,58.2,26.947,64z M70.347,37.1c-0.4,0.3-0.7,0.7-1,1.1v-0.1c-0.2-1.2-0.5-2.2-0.8-3.3
		c0.6,0.1,1.3,0.1,2,0c0.2-0.1,0.4,0,0.6,0.1C71.547,35.6,71.247,36.4,70.347,37.1z"/>
	<path style="fill:#BE3689;" d="M47.647,26c-2.3-0.3-4.4-0.7-6.5-1.4c-0.9,0.1-1.9,0.3-3.1,0.6c-6.4,1.8-9.8,5.8-10.1,12.2
		c0,0.1,0.1,0.2,0.3,0.3c0.2,0.2,0.4,0.4,0.5,0.5c0.6,0.5,1.2,0.8,1.9,0.9c7.7-1.6,15.4-1.7,23.1-0.2c1-1.5,1.2-3.1,0.6-4.6
		c-1.1-3.2-3.1-5.9-6.1-8.2C48.047,26.1,47.847,26,47.647,26z M29.447,36.1c0-0.1,0-0.2,0-0.3c1.6-4.6,4.9-7.6,10-8.9
		c3.9-0.5,7.4,0.6,10.2,3.1c0.7,1.1,1.3,2.1,1.9,3.1c0.7,1.3,1,2.5,0.9,3.7c-1.8-0.2-3.6-0.4-5.4-0.5c-1.2-3.6-3.9-5.2-8.4-4.7
		c-1.4,0.6-2.6,1.6-3.6,3c-0.4,0.5-0.6,1-0.5,1.4C32.847,36,31.147,36,29.447,36.1z M43.647,33.6c0.9,0.8,1.6,1.6,2,2.6
		c-3.3-0.2-6.5-0.3-9.7-0.3c0.5-0.5,1-1.1,1.5-1.6c0.2-0.3,0.5-0.5,0.8-0.8c1.1-0.1,2.2-0.1,3.2,0
		C42.147,33.6,42.847,33.7,43.647,33.6z"/>
	<path style="fill:#BE3689;" d="M80.947,67.3c-0.1,0-0.2,0-0.3,0c-3.8,1-6.9,3.1-9.2,6.1c0.2,0,0.4,0,0.6-0.1
		C75.947,71.5,78.847,69.5,80.947,67.3z"/>
	<path style="fill:#BE3689;" d="M62.647,1.8c-0.1-0.2-0.2-0.3-0.4-0.4c-1.2-0.8-2.6-1.3-4.1-1.4c-2,1-3.6,2.4-4.7,4.5
		c-1.7,2.9-2.2,5.9-1.5,9.1c0.2,0,0.3-0.1,0.5-0.2c0.1-0.1,0.2-0.4,0.3-0.6c0-0.3,0-0.5,0-0.8c0.3-0.2,0.5-0.4,0.8-0.6
		c2.9-3,6.2-5.5,9.9-7.4c-0.1-0.2-0.3-0.5-0.3-0.7c-0.1-0.3-0.2-0.5-0.2-0.8C62.847,2.3,62.647,2,62.647,1.8z M58.147,2
		c0.1,0,0.2,0,0.4-0.1c1.4-0.2,2.3,0.2,2.9,1.4c-2.1,1.7-4.6,3.1-7.5,4.3c0.2-0.2,0.4-0.5,0.6-0.7c0.3-0.5,0.4-1,0.5-1.5
		c0.1-0.1,0.2-0.3,0.3-0.4C56.047,3.8,56.947,2.8,58.147,2z"/>
	<path style="fill:#BE3689;" d="M33.447,11.8c0.1-0.2,0.1-0.3,0.2-0.4c0-4.9-2.3-7.8-7-8.8c0,0.1,0,0.2,0,0.2
		c-0.9,0.2-1.4,0.8-1.2,1.9c0.1,0.3,0.1,0.7,0.1,1.1C29.047,7.2,31.747,9.2,33.447,11.8z M28.647,4.1c0.8,0.8,1.5,1.5,2.3,2.3
		c-0.2,0-0.2,0.1-0.3,0.1c-2.5,0-3.6-0.8-3.5-2.4C27.647,4.1,28.147,4.1,28.647,4.1z"/>
	<path style="fill:#BE3689;" d="M10.947,6.1c0,0.4,0,0.8,0,1.2c-0.1,0.8,0.1,1.5,0.5,2.2c0.1,0.1,0.1,0.3,0.3,0.4
		c1.6,0.7,3.1,0.6,4.4-0.4c1.5-1.1,3.2-1.7,5-1.7c0.5,0.7,1.2,1,2,1c0.1,0,0.2-0.1,0.4-0.2c0,0,0-0.1-0.1-0.2
		c-2.3-3.5-5.9-4.8-10.8-3.9c-0.1,0.1-0.2,0.1-0.3,0.2c-0.4,0.3-0.8,0.7-1.2,1.1C11.047,5.9,10.947,6,10.947,6.1z M13.147,6.3
		c1.8-1.2,3.4-1.1,4.6,0.1c-1.2,1-2.7,1.9-4.5,2.4c-0.1-0.1-0.2-0.2-0.3-0.3C12.047,7.6,12.147,6.8,13.147,6.3z"/>
	<path style="fill:#BE3689;" d="M19.447,12.1c-0.3,0.3-0.5,0.6-0.7,0.8c-0.1,0.1-0.2,0.2-0.2,0.4c0,0.3,0,0.7,0,1.1s0,0.7,0.1,1.1
		c0.1,0.1,0.1,0.3,0.3,0.4c0.7,0.1,1.4,0.1,2.1,0c2.2-0.6,4.2-0.9,6-0.8c0-0.1,0-0.2-0.1-0.3c-1.4-2.5-3.7-3.5-6.8-3.2
		C19.947,11.7,19.647,11.9,19.447,12.1z M20.647,13.1c2.1-0.1,3,0.1,2.6,0.7c-0.2,0.1-0.4,0.2-0.6,0.3
		C19.847,15.4,19.147,15.1,20.647,13.1z"/>
	<path style="fill:#BE3689;" d="M5.647,72.6c-0.2,0-0.4-0.1-0.7-0.1c0,0-0.1,0.1-0.2,0.1c0.1,0.2,0.1,0.2,0.1,0.2
		C5.147,72.8,5.447,72.7,5.647,72.6z"/>
	<path style="fill:#BE3689;" d="M50.647,66.3L50.647,66.3c-2.7,1-5,2.5-7,4.5c1,0.4,2,0.3,3.2-0.3
		C49.847,69,51.147,67.5,50.647,66.3z"/>
</g>
</svg>
