<?xml version="1.0" encoding="iso-8859-1"?>
<!-- Generator: Adobe Illustrator 12.0.1, SVG Export Plug-In . SVG Version: 6.00 Build 51448)  -->
<!DOCTYPE svg PUBLIC "-//W3C//DTD SVG 1.1//EN" "http://www.w3.org/Graphics/SVG/1.1/DTD/svg11.dtd" [
	<!ENTITY ns_svg "http://www.w3.org/2000/svg">
	<!ENTITY ns_xlink "http://www.w3.org/1999/xlink">
]>
<svg  version="1.1" id="Layer_1" xmlns="&ns_svg;" xmlns:xlink="&ns_xlink;" width="88.147" height="79.9"
	 viewBox="0 0 88.147 79.9" style="overflow:visible;enable-background:new 0 0 88.147 79.9;" xml:space="preserve">
<g>
	<path style="fill:#BE3689;" d="M87.947,10.4c-0.2-0.1-0.3-0.2-0.4-0.3c-1.9-1.3-4-1.8-6.4-1.3c-1.2,0.2-2.6,0.6-4,1.1
		c-0.6,0.2-1.2,0.4-1.9,0.5c0,0.1-0.1,0.2-0.1,0.2c-0.5,0.6-1,1.2-1.5,1.7c-0.1,0-0.1,0.1-0.1,0.2c4.2-0.7,7.9,0,11.2,2.3
		c0.5,0,1,0,1.4,0c0.2,0,0.4,0,0.5,0c0.3-0.2,0.5-0.4,0.7-0.7c0.3-0.2,0.5-0.5,0.6-0.7c0.1-0.1,0.2-0.2,0.2-0.4c0-0.3,0-0.7,0-1.1
		s0-0.8-0.1-1.1C88.047,10.6,87.947,10.5,87.947,10.4z M87.047,12.6c-0.1,0.2-0.2,0.3-0.4,0.4c-0.5,0.8-1.1,0.8-1.8,0.3
		c-2.3-1.7-4.8-2.5-7.6-2.4c0.5-0.1,0.9-0.1,1.4-0.2c1-0.2,1.9-0.4,2.9-0.7c2.1-0.6,3.9-0.2,5.4,1.1c0.2,0.4,0.3,0.7,0.2,1.2
		C87.147,12.4,87.147,12.5,87.047,12.6z"/>
	<path style="fill:#BE3689;" d="M83.747,26.4c0-0.3,0-0.5,0-0.8c-0.1-0.1-0.2-0.2-0.3-0.3c-2.9-3-6.5-4.4-10.8-4.2
		c-0.9,0.7-0.7,1.1,0.6,1.3c1.1,0.2,2.1,0.6,3,1.4c0.7,1,1.4,2,2.1,2.9c0.5,0.7,1.2,1.2,1.9,1.6c1.2-0.2,2.4-0.3,3.5-0.4
		c0-0.1,0-0.2,0-0.4c0-0.2,0-0.5,0-0.7S83.747,26.5,83.747,26.4z M80.647,26.9c-0.1-0.1-0.2-0.2-0.3-0.3c-0.8-1.1-1.6-2-2.6-3l0,0
		c2,0.3,3.6,1.3,4.8,2.9C82.447,27.4,81.847,27.5,80.647,26.9z"/>
	<path style="fill:#BE3689;" d="M74.647,50c-0.1-0.4-0.1-0.9-0.2-1.5c0-0.3,0-0.8-0.2-1.1c-0.1-0.1-0.2-0.2-0.3-0.4
		c-1.3-1.6-2.9-2.7-4.8-3.3c-0.2-1.3-0.6-2.5-1-3.6c0-0.1,0-0.2,0-0.2s0,0-0.1,0c-0.4-1-0.8-1.9-1.2-2.9c-0.2-0.4-0.3-0.8-0.4-1.1
		c-0.5-0.9-1-1.6-1.6-2.3c-0.2-0.1-0.3-0.2-0.4-0.3c-0.4-0.5-0.8-1-1.2-1.4c-0.1-0.2-0.1-0.4-0.1-0.5c-0.1-0.1-0.3-0.2-0.5-0.2
		c-0.1-0.1-0.2-0.2-0.2-0.3c-0.1,0-0.1,0-0.1,0c-7.8-6.1-16.8-8.6-27.2-7.5c-2.5,0.5-5.1,1.2-7.8,2.1c-1.6,0.5-2.9,1.4-4,2.6
		c0,0,0,0,0-0.1c-0.2,0.1-0.3,0.1-0.4,0.2c-0.1,0.2-0.2,0.4-0.3,0.6c-0.2,0.1-0.3,0.2-0.4,0.4c-0.9,0.8-1.7,1.7-2.5,2.6
		c-0.2,0.1-0.4,0.2-0.6,0.4c0.1,0,0.2,0.1,0.2,0.1c-0.8,1-1.6,2.1-2.3,3.1c-0.6,1-1.2,2-1.7,3.1c-0.1-0.1-0.3-0.2-0.5-0.2
		c0.1,0.3,0.1,0.6,0.2,1c-0.4,0.8-0.7,1.7-1,2.5c-3.2,0.7-5.2,2.4-6,5.2c0,0.2,0,0.3,0,0.4c0.3,0.8,0.7,1.3,1.2,1.9
		c1.5,0.6,2.7,0.7,3.5,0.5c0,0,0,0,0,0.1c0,1.6,0.1,3.3,0.4,4.9c-3.1-1.4-6.6-2.3-10.5-2.8c-0.1,0.1-0.2,0.2-0.4,0.2
		c-0.3,0.2-0.7,0.4-1,0.6c-0.3,0.2-0.6,0.5-0.8,0.7c-0.5,1.9-0.6,3.9-0.2,6c1.2,6,3.6,10.4,7.4,13.2c-2,0.5-3.5,1.5-4.4,2.9
		c0.1,0.2,0.1,0.2,0.1,0.2c2.2-0.5,3.9-1.4,5-2.6c0.7,0.5,1.6,0.9,2.4,1.3c-1.8,0.5-3.1,1.4-4,2.8c0.2,0,0.3,0.1,0.4,0.1
		c2.9-0.7,4.4-1.5,4.6-2.4c1.1,0.3,2.2,0.6,3.4,0.9c-1.4,0.3-2.3,1-2.9,2.1c0.2,0.1,0.4,0.1,0.6,0.1c1.6-0.7,3.3-1.3,5-1.8
		c1.4,0.1,2.9,0.1,4.4,0.1c-1,0.7-2,1.4-3,2.2c3.5-0.9,7.2-2.3,11.3-4.1c1.9-0.9,3.1-1.7,3.6-2.6c1.2,0.2,2.3,0.3,3.5,0.4
		c-4.2,1.4-7.6,3.5-10.2,6.3c1.2,0.1,2.6-0.2,4-0.9c3.7-1.7,6.1-3.5,7.4-5.3c0.3,0,0.7,0,1,0.1c0.2,0,0.3,0,0.4,0
		c1.4-0.1,2.7-0.3,4.1-0.6c-3.5,1.5-6,3.6-7.4,6.5c0.2,0,0.4,0,0.6-0.1c3.4-2.5,7-4.9,10.8-7c0.4-0.1,0.7-0.1,1.1,0
		c0.2-0.1,0.5-0.2,0.8-0.2c-0.3,0.5-0.1,1,0.4,1.3c1.3,0.8,2.5,1.5,3.8,2c-1.9,0.8-3.5,1.8-4.7,3.2c0.8,0.6,1.7,0.6,2.9,0
		c1.9-1,3-1.8,3.3-2.6c1,0.4,2,0.7,3.1,1c-0.9,0.6-1.5,1.3-1.9,2.1c0.2,0.1,0.3,0.1,0.4,0.1c1.3-0.6,2.5-1.2,3.5-2
		c2.6,0.3,5.1,0.1,7.8-0.5c-1.9,0.9-3.7,2-5.4,3.2c3.1-1.2,6.4-2.4,9.9-3.6c4.7-1.5,7.9-3.3,9.8-5.3c-0.1,0.1-0.2,0.1-0.3,0.2
		c-2.3,0.6-4.5,1.3-6.7,2.1c1-0.6,1.9-1.3,2.9-2c1.7-1.6,2.7-3.5,3-5.7c0.2-1,0.1-2-0.1-3c-0.4-0.3-0.8-0.6-1.3-0.7
		c-4.4-0.9-8-1.7-11-2.3c-0.6,0.1-1.3,0.2-2,0.3c1.3-2.4,2-5.1,2.1-8.2C71.447,51.6,73.047,51.3,74.647,50z M79.547,62.5
		c0.7,0.8,0.8,1.6,0.1,2.5c-4.7,6.1-10.3,9.2-16.7,9.4c0.1-0.1,0.2-0.2,0.3-0.4c-0.2,0-0.4,0-0.6,0c-0.3,0.1-0.6,0.3-0.9,0.4
		c-3.2-0.1-6.7-1-10.3-2.5c0-0.1,0-0.2,0-0.3c3.3-5.1,7.7-8.3,13.4-9.5c0.1,0.1,0.3,0.2,0.4,0.3c0.2-0.2,0.3-0.4,0.4-0.5
		c2.4-0.5,4.9-0.6,7.6-0.4c1.9,0,3.8,0.2,5.6,0.6C79.147,62.2,79.347,62.3,79.547,62.5z M23.247,31.3c0,0,0.1,0,0.2,0
		c0-0.1,0-0.1,0-0.2c0.3-0.3,0.6-0.5,1-0.8c-0.1-0.1-0.2-0.2-0.3-0.3c9.2-5.7,19.1-6.3,29.8-1.9c3.7,1.6,6.9,3.6,9.6,6.1
		c-0.1,0-0.2,0.1-0.2,0.2c0.3,0.4,0.7,0.9,1.1,1.4c0.1,0.1,0.1,0.2,0.1,0.3c-0.5-0.4-0.9-0.8-1.4-1.2c0.4,0.4,0.8,0.9,1.2,1.4
		c0.7,1,1.3,2.1,1.8,3.3c0,0,0,0,0,0.1c0.4,0.9,0.8,1.8,1,2.8c0.2,0.7,0.3,1.3,0.5,2c0.2,1.6,0.4,3.3,0.4,5.2c0,3.7-1.2,7.1-3.6,10
		c-5.4,1.5-9.8,4.7-13.1,9.5c0-0.1,0-0.2,0-0.3c-6.8,2.5-14.4,2.4-22.9-0.3c-3.3-5.8-7.7-10.1-13.3-12.9c-0.8-2.2-1.1-4.4-1.1-6.6
		c0.5-3.5,1.4-6.7,2.9-9.7c0-0.2,0.1-0.3,0.2-0.4c0-0.1,0-0.1,0-0.1c0.3-0.5,0.5-1,0.8-1.5c0.6-0.6,1.2-1.2,1.6-1.9
		C20.647,33.9,21.847,32.5,23.247,31.3z M13.647,43.8c-0.1,0.4-0.2,0.8-0.3,1.2c0,0.1-0.1,0.2-0.2,0.3c-0.1,0.3-0.3,0.6-0.5,0.9
		c0,0.1,0.1,0.1,0.2,0.1c0.1,0,0.2,0,0.2,0.1c-0.1,0.8-0.1,1.4-0.2,2.2c-1-0.4-2-0.9-3.1-1.4c-0.2-0.7,0.1-1.2,0.8-1.5
		C11.947,45,12.947,44.4,13.647,43.8z M29.347,70.5L29.347,70.5c0.7,0.2,1.4,0.4,2,0.7c0.1,0,0.2,0,0.3,0.1c-0.8,0.3-1.5,0.6-2.3,1
		c0.1-0.5,0.1-0.9,0.2-1.4C29.447,70.8,29.447,70.7,29.347,70.5z M26.947,70.5c0.3,0.8,0.3,1.3-0.3,1.5c-7.7,4.4-14.7,3.2-20.9-3.5
		c-4.5-4.9-5.3-9.8-2.6-14.7c3.7,0.6,7.3,1.9,10.9,3.7C19.947,60.4,24.247,64.7,26.947,70.5z M69.547,45.6c0.1,0,0.3,0,0.5,0
		c0.3,0.4,0.7,0.8,1.2,1.1c0.8,0.7,1.3,1.5,1.7,2.3c-0.9,0.2-1.8,0.4-2.7,0.5c-0.1-0.1-0.2-0.2-0.3-0.2c-0.1-0.1-0.1-0.1-0.1-0.1
		c-0.1-0.8-0.1-1.6-0.2-2.4l-0.1-0.6c0.1,0,0.1,0,0.1,0s0-0.2-0.1-0.2C69.547,45.8,69.547,45.7,69.547,45.6z"/>
	<path style="fill:#BE3689;" d="M24.547,41.9c-0.1,0.1-0.1,0.2-0.1,0.4c-1.1,2.7-1.6,5.6-1.6,8.6c0,0.9,0.2,1.8,0.6,2.6
		c11.7-2,23.2-1.4,34.3,1.8c2.2-4.3,2.3-8.7,0.4-13.4c-3.4-8.1-10-11.8-20-10.9c-3.1,0.7-5.9,2.1-8.4,4.2
		C27.647,37.2,25.847,39.4,24.547,41.9z M45.047,32.6c0.4,0.3,0.8,0.5,1.3,0.7c9.6,3.8,13.1,10.5,10.3,20.1
		c-2.2-0.7-4.5-1.2-6.8-1.7c-2.1-4.3-6-6-11.7-5c-1.3,0.2-2.7,0.7-4,1.5c-0.2,0.1-0.4,0.2-0.6,0.3c-0.2,0.5-0.4,0.9-0.8,1.3
		c-0.3,0.4-0.5,0.7-0.4,1.1c-2.6,0.3-5.1,0.6-7.6,1.1c0-0.1-0.1-0.2-0.1-0.3c-0.2-9.7,4.5-16,14-18.9
		C40.747,32.7,42.847,32.7,45.047,32.6z M49.047,51.5c-5-0.8-10-1.1-15.1-0.8C39.147,47.3,44.147,47.5,49.047,51.5z"/>
	<path style="fill:#BE3689;" d="M80.947,73.8c-0.1,0-0.2,0-0.3,0c-3.8,1-6.9,3.1-9.2,6.1c0.2,0,0.4,0,0.6-0.1
		C75.947,78,78.847,76,80.947,73.8z"/>
	<path style="fill:#BE3689;" d="M72.647,2.4c0-0.1,0-0.2,0-0.4c0-0.1-0.1-0.2-0.2-0.3c-1.1-1.1-2.5-1.5-4.3-0.9
		c-0.8,0.4-1.7,0.9-2.7,1.5c-2.7,1.7-4.7,3.6-6,5.8c3.5-2.3,7.4-3.3,11.6-2.8c0.4-0.4,0.8-0.8,1.1-1.3c0.1-0.2,0.2-0.3,0.4-0.5
		c0-0.1,0-0.2,0.1-0.4C72.647,2.9,72.647,2.6,72.647,2.4z M65.547,3.4c0.1-0.1,0.4-0.2,0.6-0.3c0.9-0.2,1.6-0.6,2.4-1.1
		c1.5-0.7,2.5-0.5,3.1,0.6C70.147,4.3,68.047,4.5,65.547,3.4z"/>
	<path style="fill:#BE3689;" d="M52.347,20c-0.2-0.1-0.3-0.2-0.5-0.2c0,0.1,0,0.2,0.1,0.3C52.047,20.1,52.147,20,52.347,20z"/>
	<path style="fill:#BE3689;" d="M65.447,12.4c-0.3-0.1-0.5-0.1-0.8-0.2c-0.6-0.2-1.3-0.3-2-0.4c-2,0.5-3.5,1.5-4.7,3.1
		c-1.5,2.1-2.6,4.2-3.3,6.4c0.4,0.4,0.9,0.4,1.3-0.1c0.2-0.1,0.5-0.3,0.7-0.4c0.2-0.4,0.4-0.8,0.5-1.1c0.7-1.1,1.5-1.9,2.5-2.7
		c2.3-0.4,4.4-0.8,6.5-1.2c0-0.7,0-1.3-0.2-1.9C65.947,13.4,65.647,12.9,65.447,12.4z M63.647,13c0.7,0.3,1.2,0.6,1.5,1.3
		c-1.5,1.1-3.5,1.5-5.6,1.1c0-0.1,0.1-0.2,0.1-0.3c1-1,2.1-1.7,3.4-2.1C63.147,13,63.447,13,63.647,13z"/>
	<path style="fill:#BE3689;" d="M22.647,0c0,0.1,0,0.1,0,0.1c-0.9,0.3-1.8,0.8-2.6,1.4c0,0.5-0.1,0.9-0.3,1.2
		c-0.1,0.4-0.2,0.7-0.2,1.1c3.9,1.4,6.5,4,7.6,7.5c0.2-0.2,0.4-0.4,0.6-0.6c0.5-0.4,0.8-0.8,0.9-1.3s0.1-1,0-1.5
		c-0.3-1.1-0.6-2.2-1-3.4c-0.2-0.2-0.5-0.5-0.6-0.8c-0.6-1.1-1.3-2.1-2.1-2.9c-0.4-0.1-0.7-0.3-0.9-0.4
		C23.647,0.1,23.147,0,22.647,0z M22.147,1.9c0.2-0.1,0.4-0.1,0.6-0.1c0.6,0,1.1,0.2,1.5,0.5c0.5,0.5,1,1.1,1.4,1.8
		c0.6,0.9,1,1.9,1.3,2.9c-0.3-0.1-0.4-0.3-0.5-0.6c-0.2-0.3-0.4-0.7-0.8-1c-0.3-0.1-0.6-0.2-0.9-0.3
		C21.547,4.4,20.647,3.3,22.147,1.9z"/>
	<path style="fill:#BE3689;" d="M18.847,8.4c0.1-0.2,0.1-0.5,0.2-0.8c0-0.1,0.1-0.2,0.1-0.3c-0.1-0.2-0.2-0.3-0.2-0.4
		c-0.2-0.3-0.3-0.5-0.4-0.7c-0.1-0.2-0.2-0.3-0.3-0.4c-0.1-0.2-0.2-0.3-0.4-0.4c-2.5-1.7-5.2-2.8-8.2-3.3c0,0.1,0,0.1-0.1,0.1
		c-0.2,0.1-0.4,0.2-0.6,0.4c-0.4,0.2-0.8,0.4-1.2,0.7c-0.2,0.3-0.4,0.7-0.3,1.1c0,0.4,0.1,0.8,0.2,1.1c0.1,0.3,0.2,0.5,0.4,0.8
		c4.1,0.2,7.7,1.1,10.9,2.7C18.847,8.8,18.847,8.6,18.847,8.4z M16.147,6c-0.3,0-0.6,0-0.9,0c-2-0.2-4-0.6-5.9-1.3
		c-0.8-0.4-0.5-0.7,0.8-1.1c0.1,0,0.2,0,0.4,0c0.6,0.1,1.3,0.3,1.9,0.6C13.747,4.7,14.947,5.3,16.147,6z"/>
	<path style="fill:#BE3689;" d="M7.647,15.6c-0.9,0.2-1.9,0.4-3,0.7c-3.2,1.1-4.6,3.4-4.5,6.7c0.3,0.3,0.6,0.5,0.8,0.8
		c0.2,0.1,0.3,0.2,0.5,0.3c0.5,0,1,0,1.4-0.1c0.2,0,0.4-0.1,0.6-0.2c0.7-1,1.3-2.1,1.7-3.4c0.5-1.4,1.4-2.5,2.6-3.4
		c0.7-0.1,1.4-0.2,2.1-0.5c0.1,0,0.2-0.1,0.3-0.2c-0.1-0.2-0.2-0.2-0.3-0.3C9.047,15.9,8.447,15.8,7.647,15.6z M5.647,17.3
		c0.3,0,0.2,0.3-0.2,0.8c-1.2,1.3-2,2.7-2.5,4.3c-0.2,0.2-0.4,0.3-0.6,0.3c-0.2,0.1-0.5,0-0.9-0.2c-0.1-0.1-0.1-0.2-0.1-0.3
		C1.647,19.5,3.147,17.9,5.647,17.3z"/>
	<path style="fill:#BE3689;" d="M12.047,25.5c0.1,0.3,0.2,0.5,0.2,0.8c0.2,0.5,0.5,0.9,0.9,1.1c0.9,0.6,1.8,0.8,2.9,0.4
		c0.2-0.2,0.4-0.4,0.6-0.7c0.2-0.2,0.4-0.5,0.6-0.7c0-0.7,0.1-1.3,0.2-1.9c0.3-1.1,0.7-2.1,1.5-3c0.2-0.1,0.5-0.1,0.8,0
		c1,0.1,1.4-0.2,1.3-1c-0.1-0.1-0.2-0.2-0.3-0.2c-0.5-0.3-1-0.5-1.6-0.7c0,0.1,0,0.2,0,0.2c-1.4,0.7-2.9,1.2-4.5,1.6
		c-0.3,0.4-0.7,0.7-1.1,1.1C12.547,23.3,12.047,24.3,12.047,25.5z M15.947,25.6c-0.7,1-1.4,1.1-2.3,0.4c-0.1-0.1-0.1-0.2-0.1-0.3
		c0.3-1.3,1-2.3,2.1-3.1c0.3,0,0.4,0.1,0.5,0.1C16.347,23.7,16.247,24.7,15.947,25.6z"/>
	<path style="fill:#BE3689;" d="M27.247,15c-0.5,0-1-0.1-1.6-0.1c-0.4,0.2-0.7,0.6-1,1.1c-0.2,0.2-0.3,0.4-0.4,0.6
		c-0.1,0.5,0,0.9,0.4,1.2c0.2,0.2,0.5,0.5,0.8,0.7c0.9,0.2,1.8,0.3,2.8,0.4c0.4,0.3,0.7,0.6,1,0.9c0.1,0.1,0.3,0.1,0.7,0.1
		c-0.3-0.5-0.5-0.9-0.6-1.5C29.147,17.1,28.447,15.9,27.247,15z M25.947,15.9c0-0.1,0-0.1,0.1-0.1c0.8,0.1,1.5,0.5,2.1,1.5l0.1,0.2
		C25.647,18.1,24.947,17.5,25.947,15.9z"/>
	<path style="fill:#BE3689;" d="M5.647,79.1c-0.2,0-0.4-0.1-0.7-0.1c0,0-0.1,0.1-0.2,0.1c0.1,0.2,0.1,0.2,0.1,0.2
		C5.147,79.3,5.447,79.2,5.647,79.1z"/>
	<path style="fill:#BE3689;" d="M50.647,72.8L50.647,72.8c-2.7,1-5,2.5-7,4.5c1,0.4,2,0.3,3.2-0.3
		C49.847,75.5,51.147,74,50.647,72.8z"/>
</g>
</svg>
