<?xml version="1.0" encoding="iso-8859-1"?>
<!-- Generator: Adobe Illustrator 12.0.1, SVG Export Plug-In . SVG Version: 6.00 Build 51448)  -->
<!DOCTYPE svg PUBLIC "-//W3C//DTD SVG 1.1//EN" "http://www.w3.org/Graphics/SVG/1.1/DTD/svg11.dtd" [
	<!ENTITY ns_svg "http://www.w3.org/2000/svg">
	<!ENTITY ns_xlink "http://www.w3.org/1999/xlink">
]>
<svg  version="1.1" id="Layer_1" xmlns="&ns_svg;" xmlns:xlink="&ns_xlink;" width="86" height="92.84" viewBox="0 0 86 92.84"
	 style="overflow:visible;enable-background:new 0 0 86 92.84;" xml:space="preserve">
<g>
	<path style="fill:#BE3689;" d="M85.4,56.2c0.2-0.2,0.3-0.4,0.4-0.5c0.1-0.1,0.2-0.2,0.2-0.3c0-0.2,0-0.3,0-0.4
		c-1-4.9-4.2-7-9.7-6.2c-2.9,0.9-5.5,2.3-7.9,4.1c0.3-8.6-2.7-14.9-9.2-19.1c-1.2-1.5-2-3.4-2.3-5.3c0.4-0.5,0.6-1,0.9-1.6
		c1.6-0.6,2.6-1.3,3.2-2.1c-0.9-0.6-1.7-1.3-2.3-2c-0.2-0.3-0.2-0.5-0.2-0.8c-0.1-0.7-0.1-1.5-0.2-2.3c0.1-0.1,0.2-0.2,0.2-0.2
		c0.1-0.1,0.2-0.1,0.3-0.1c1.8,1.7,3.8,2.8,6,3.1c0.4-0.2,0.7-0.6,0.8-1c1.4-3.6,1.1-7.2-0.8-10.6c-0.3-0.3-0.6-0.5-0.9-0.7
		c-0.2-0.3-0.4-0.5-0.7-0.7c-0.4,0-0.8,0-1.2,0c0,0,0,0-0.1,0c-1.9,1.1-3.2,2.6-4.1,4.6c-4.1-0.1-7.1,1.1-8.9,3.8
		c-0.4-1.2-1.1-2.4-1.9-3.4c-0.2-0.1-0.3-0.1-0.4-0.1c-1,0-1.9,0.2-2.8,0.3c-4,1.5-6.5,4.2-7.6,7.9c-0.1-0.1-0.1-0.2-0.1-0.2
		c-0.1-0.4,0-0.7,0.2-1c-0.1-0.4-0.2-0.8-0.2-1.1C36,20.1,36,20,36,19.9c-0.2,0.2-0.4,0.4-0.5,0.5c-0.1-0.5,0-1,0.1-1.6
		c0.2-1.4,0.5-2.9,0.8-4.3c0.5-0.6,1-1.3,1.4-1.8c0.4-0.6,0.9-1.2,1.3-1.8c3.7,0.7,6.5-0.1,8.4-2.4c0-0.2,0-0.3-0.1-0.4
		c-1.3-4.8-4.5-7.6-9.6-8.1c-1.1,0.6-1.7,1.7-1.8,3.2c0,1.1-0.1,2.3,0,3.4c-1.7,1.3-2.9,2.8-3.5,4.6c-1.2,3.2-1.4,6.2-0.7,8.8
		c-0.4-0.6-0.7-1.2-1.2-1.8c-0.3-0.4-0.7-0.6-1.1-0.9c-1.5-0.9-3.1-1.7-4.7-2.2c-0.9-0.3-1.7-0.5-2.6-0.6c-0.7-0.2-1.5-0.3-2.4-0.3
		c-0.1-0.2-0.3-0.3-0.5-0.4c-1.4-0.9-3-1.5-4.7-1.6c-1.6,1.5-2.5,3.5-2.6,5.9c-0.1,2.2,0.6,3.8,2.1,5.2c0.4,0.3,0.9,0.7,1.4,1
		c0.4,0,0.8,0,1.2-0.1c0.2-0.3,0.5-0.6,0.8-0.9c-0.2,0.7-0.2,1.5-0.2,2.3c0.5,0.8,0.9,1.8,1.2,2.9c-0.1,0-0.2,0-0.3-0.1
		c-0.1,0.1-0.3,0.2-0.5,0.3c-3.3,0.9-6.2,2.7-8.6,5.1c-1.8-0.1-3.6,0.2-5.4,0.8c-0.4,0.8-0.6,1.6-0.4,2.6c1.1,5.7,4.7,8,10.6,6.8
		c-0.1-0.8-0.2-1.7-0.1-2.6c0-1.2-0.2-2.3-0.7-3.3c0-0.1,0.1-0.2,0.1-0.3c0.1-0.2,0.3-0.4,0.4-0.5c0.4,0.1,0.8,0.2,1.3,0.4
		c0,0.5-0.1,0.9-0.3,1.4c-0.4,1-0.5,2.1-0.2,3.1c0.9-0.8,1.9-1.5,3-2.2c-0.1,0.1-0.2,0.3-0.3,0.5c-0.2,0.5-0.5,1.1-0.6,1.7
		c-2.5,4.4-3.8,9.3-3.9,14.8c-0.2,9.2,3.9,15.1,12.1,17.6c0.2,0.1,0.4,0.1,0.6,0.2c0,0,0,0,0,0.1c0.2,0,0.4,0,0.7,0
		c0.1,0.1,0.3,0.1,0.5,0.1c0,0.3,0,0.5-0.1,0.8c-0.2,1-0.3,2.2-0.3,3.3c-0.5-0.1-0.9-0.2-1.3-0.4c-0.2-0.1-0.3-0.2-0.4-0.3
		c-0.4,0-0.8-0.2-1.2-0.4c0.1,0.2,0.1,0.3,0.1,0.4c0,0-0.1,0-0.2,0c-2.6-0.9-5.4-1.3-8.6-1.1c-1.3,0.4-2.6,0.7-3.9,1.1
		c-1.2,0.2-2.9,1.3-5,3.3c-2.2,2-3.5,3.4-4,4.1c-0.7,0.8-0.9,1.8-0.5,2.8c0.1,0.3,0.2,0.5,0.3,0.8c0.5,0.1,1.1,0.2,1.7,0.2
		c-1.4,0.3-2.5,1-3.1,2.2c0.1,0.1,0.2,0.2,0.2,0.1c2.6-0.2,4.1-0.9,4.3-2.1c1.1,0.2,2.2,0.3,3.4,0.4c-1.4,0.4-2.6,1-3.8,1.9
		c0.1,0.2,0.1,0.2,0.1,0.2c2.7-0.4,4.6-1,5.7-2c1.2,0.1,2.4,0.1,3.6,0.2c-1.2,0.4-2.4,1-3.5,1.8c0.4,0.6,1.1,0.7,1.9,0.3
		c0,0,0.2-0.1,0.3-0.1c2-0.6,3.5-1.2,4.5-2c1.3,0,2.6,0,3.9,0c-1,0.5-2,1-3,1.6c0.3,0.2,0.6,0.2,0.8,0.2c1.9-0.6,3.8-1.3,5.6-2
		c1.8-0.2,3.5-0.4,5.3-0.6c-1.7,0.8-3.2,1.7-4.8,2.6c0.1,0.1,0.2,0.2,0.3,0.2c0.4,0.2,0.8,0.3,1.2,0.3c0.1-0.2,0.3-0.3,0.4-0.3
		c2.7-1.3,5.5-2.5,8.3-3.7c0.8-0.1,1.7-0.3,2.6-0.5c0-0.2,0-0.4-0.1-0.6c1.9-0.8,3.7-1.6,5.6-2.4c-0.2-0.2-0.4-0.3-0.6-0.3l0,0
		c1-0.6,2.1-1,3.1-1.4c0.7,0,1.4,0,2.1-0.1c-1.2,0.6-2.3,1.2-3.3,1.9c-4.1,1.7-7.6,4-10.3,6.7c0.2,0.1,0.4,0.1,0.6,0
		c4.4-2.2,8.3-4.4,11.5-6.8c0-0.1,0-0.2,0-0.3c1.6-0.8,3.2-1.3,4.7-1.6c0.1-0.1,0.1-0.2,0-0.2c0-0.1-0.1-0.1-0.1-0.1
		c1.3-0.4,2.6-0.8,3.9-1.3c0.2-0.2,0.3-0.5,0.5-0.7c0.2-0.5,0.4-1,0.7-1.5c-0.1-0.1-0.3-0.2-0.3-0.4c0.2-0.3,0.3-0.7,0.3-1.2
		c-0.2-1.5-0.8-2.9-1.8-4.1c-0.3-0.1-0.6-0.3-0.9-0.5c-0.1-0.1-0.3-0.2-0.5-0.4c0.2-0.1,0.4-0.2,0.6-0.2c0.2-0.1,0.3-0.2,0.5-0.2
		c0.1-0.1,0.2-0.1,0.3-0.1c0,0,0.1,0.1,0.1,0.2l0.5-0.6l1.5,0.1c0,0,0,0,0-0.1c-0.2,0-0.3-0.1-0.4-0.2c0.1,0,0.2-0.1,0.4-0.1
		c0.1-0.1,0.3-0.2,0.4-0.3c0,0.1,0,0.1,0.1,0.2c0.3-0.1,0.7-0.2,1.1-0.2c-0.1-0.1-0.3-0.2-0.4-0.3c0.6-0.4,1.2-0.8,1.8-1.1
		c0.1,1.3,0.6,2.7,1.1,4c1,0.8,1.9,1.6,2.8,2.5c0.4,0.1,0.8,0.2,1.2,0.2c0.7,0.3,1.4,0.5,2.2,0.5c8,0.3,13.8-3.3,17.4-10.9
		c0-0.1,0-0.2,0-0.3c0-0.2,0-0.3,0-0.4s0-0.2,0-0.4c0.1-0.1,0.2-0.3,0.3-0.4s0.2-0.2,0.3-0.4c0-0.1,0.1-0.3,0.3-0.4
		c0-1.9,0.3-3.7,0.7-5.4C85.4,57.8,85.5,57,85.4,56.2z M76.4,50.5c1.5-0.4,2.9-0.4,4.4,0.1c0.8,0.5,1.5,1.1,2.2,1.9
		c0.6,0.8,1.1,1.7,1.5,2.7c-0.1,1.2-0.3,2.3-0.5,3.5c-0.3,1.6-0.6,3.3-1,5c-0.2,0.1-0.3,0.2-0.4,0.3c-0.1,0.2-0.2,0.3-0.3,0.4
		c-0.8,3.1-2.5,5.7-5,7.9c-0.1,0-0.2,0-0.2,0.1c-4.1,2.8-8.6,3.8-13.4,2.8c-0.2-0.2-0.4-0.4-0.7-0.5c-1-0.9-1.7-2-2.5-3.4
		c-0.3-1-0.5-1.9-0.6-2.7c0.7-5.2,2.8-9.4,6.1-12.5c0,0,0,0.1,0,0.2c0.8-0.7,1.5-1.3,2.3-1.9v-0.1C70.6,52.7,73.3,51.4,76.4,50.5z
		 M61.2,15c-0.2-0.1-0.2-0.2-0.4-0.2c-0.6-0.1-1.2-0.2-1.8-0.3c0.9-2,2.2-3.2,3.9-3.6c0.3,0.2,0.5,0.4,0.7,0.6
		c0.2,0.2,0.4,0.3,0.6,0.4c-0.2,0.7-0.2,1.3,0.1,1.7c0.4,0.9,0.8,1.8,1.2,2.7c0.1,0.5,0.2,1,0.1,1.3c-0.3,1.3-0.8,2.6-1.4,3.7
		c-0.2,0-0.4,0-0.5,0c-1.3-0.9-2.3-1.9-3.1-3.1c0.4,0,0.8-0.1,1.2-0.1c0-0.1-0.1-0.2-0.2-0.2c-0.4-0.2-0.9-0.3-1.3-0.4
		c-0.2-0.2-0.4-0.3-0.8-0.4c0,0.1,0,0.1,0,0.1c-0.1,0.1-0.2,0.1-0.3,0.1c-0.2,0-0.2,0-0.3,0c0,0-0.1,0-0.1-0.1
		c-3.8-0.5-6.8,0.5-9.2,3c-0.3-0.6-0.4-1.1-0.4-1.7c0,0,0,0,0,0.1c-0.1-0.1-0.1-0.1-0.1-0.1c2.2-1.3,5.3-2.4,9.2-3.2
		C59.2,16.1,60.1,16,61.2,15z M57.4,18.7c-0.1,0.1-0.3,0.3-0.4,0.5c0,0.5,0,1,0,1.5c0,1.2,0.2,2.4,0.9,3.3l0.1,0.3
		c-0.2,0.2-0.5,0.5-0.6,0.8c-2.1-0.5-4.2-0.5-6.3-0.2C50.9,25,50.8,25,50.7,25c-0.5,0.1-0.9,0.3-1.2,0.5c0.2-1,0.3-2,0.3-3
		c0.2,0,0.4-0.1,0.6-0.1c-0.1-0.1-0.1-0.2-0.1-0.3c-0.2,0-0.3,0.2-0.5,0.2c0,0,0-0.2,0-0.3c0,0,0,0,0.1,0c0.4-0.3,0.8-0.7,1.1-1.2
		C53,19.3,55.1,18.6,57.4,18.7z M44.7,5.2c0.2,0.2,0.3,0.4,0.4,0.7c0.2,0.5,0.4,1,0.5,1.5c0.1,0.1,0.1,0.2,0.1,0.3
		c-1.6,0.8-3.5,1.3-5.6,1.5c-0.2,0-0.3-0.1-0.4-0.1c0.5-0.6,0.8-1.2,1.2-1.8c-0.2,0-0.3,0-0.4,0.1c-0.8,0.4-1.5,0.8-1.9,1.4
		c-0.1-0.1-0.2-0.1-0.2-0.1c-0.2,0.1-0.2,0.2-0.2,0.3c0,0,0,0.1,0.1,0.2C38.1,9.4,38,9.6,38,9.8c-0.5,0.5-0.9,1.1-1.3,1.7
		c-0.3,0.7-0.8,1.3-1.4,1.8c-0.3,1.4-0.6,2.7-0.9,4c-0.4,1.7-0.3,3,0.2,4c0,0.1,0,0.3,0.1,0.6c0,0,0,0.1,0.1,0.2
		c-0.5-0.1-1-0.1-1.5-0.1c0-0.2,0-0.4,0-0.5c-0.2,0-0.4,0-0.6,0.1c0.1-1.2,0.2-2.4,0.2-3.6c0.2-3.2,1.1-6.2,2.8-8.7
		c0.1,0,0.1,0,0.1,0c2.3-1.8,2.9-3.1,1.9-3.6c-0.1,0-0.2,0.1-0.4,0.2c0-0.8,0.1-1.5,0.1-2.1c0.1-0.9,0.4-1.7,1-2.3
		c0.8-0.2,1.6-0.1,2.4,0.4C42.2,2.8,43.5,3.9,44.7,5.2z M42.4,21.5c-0.7-0.1-1.4-0.1-2-0.1c-0.2,0.1-0.3,0.2-0.5,0.3
		c-1.6,0.4-2.5,1.2-2.8,2.6c-0.1,0-0.1,0-0.1,0c-0.1,0-0.2,0.1-0.3,0.1c-0.1-0.3-0.2-0.7-0.3-1.1l0,0c0-0.1,0-0.1,0-0.1
		c-0.1-0.1-0.1-0.2-0.1-0.3c2.6-3.4,6-5.7,10.3-6.9c0.3,0.7,0.6,1.4,0.8,2.1c1,2.9,1,5.7,0.2,8.4c-0.3,0.3-0.6,0.7-0.9,1
		c-0.1,0.2-0.2,0.4-0.2,0.5c-0.7,0.3-1.4,0.8-2.2,1.3c-0.3-0.1-0.6-0.1-0.9-0.2c-2.4-0.4-4.4-1.3-6.2-2.7c0,0,0,0-0.1,0
		c-0.1-0.5-0.2-0.9-0.3-1.3c0.8,0,1.6-0.1,2.3-0.2c0.7,0.4,1.4,0.7,2.1,0.9c0.9,0.3,1.6,0.1,2-0.6c-0.1-0.7-0.5-0.9-1.4-0.8
		c-0.8,0-1.5-0.1-2.2-0.6c-0.4,0-0.8,0.1-1.3,0.2c1.5-1,2.9-1.7,4.4-2.3C42.6,21.6,42.5,21.6,42.4,21.5z M49.3,26.4
		c0.1-0.1,0.2-0.1,0.2-0.1c0.2,0,0.3,0,0.5,0s0.4,0.1,0.7,0.2c-0.1-0.2-0.1-0.2-0.1-0.4c2.4-0.3,4.5-0.5,6.4-0.6
		c-0.5,0.8-1,1.6-1.4,2.4c0,0.3,0,0.5,0.1,0.8c0,1.4,0.2,2.6,0.7,3.6c-0.5-0.3-1.1-0.6-1.7-0.9c-0.3-0.1-0.6-0.4-0.9-0.5
		c0.2-0.3,0.4-0.5,0.6-0.6c-0.6-0.2-1.1-0.4-1.5-0.6c-0.1,0.1-0.1,0.3-0.2,0.6c-1.4-0.9-2.9-1.5-4.3-2.1c0-0.1,0.1-0.2,0.3-0.3
		C48.9,27.4,49.2,26.9,49.3,26.4z M46.8,30.1c0.6,0.2,1.2,0.4,1.8,0.7c-0.3,0-0.5,0-0.8,0.1c3.3,0.9,6.7,2.4,10.2,4.5
		c5.2,3.2,8.1,7.5,8.7,13.1c0.3,1.9,0.2,3.9-0.2,5.9c-1.3,1.2-2.5,2.5-3.6,3.9c-1.6,2.1-2.7,4.1-3.2,6.1c0,0.1-0.1,0.1-0.1,0.1
		c-0.2,0.2-0.5,0.4-0.7,0.7c-0.1,0.2-0.1,0.5-0.1,0.8c-0.1,0.7-0.2,1.5-0.1,2.2c-1.3,1.1-2.6,2.1-4.2,2.9C54.3,71,54.1,71,53.8,71
		c-0.1,0.1-0.1,0.2-0.2,0.4c0,0,0,0.1,0,0.2c-3.6,1.7-7.8,2.7-12.9,3.2c-0.7,0-1.4,0.1-2.1,0.1c-3.9,0.2-7.5-0.1-10.9-1
		c-0.1,0-0.1-0.1-0.2-0.1l0,0c-0.2,0-0.3,0-0.4-0.1c-0.1,0-0.1,0-0.2,0c-3.8-1.1-7.2-2.8-10.3-5.3c-1-1.5-1.6-3.2-1.9-5.1
		c-1.6-9.7,0.3-18,5.5-24.9c0.1,0,0.1,0,0.2,0c-0.1,0-0.1,0-0.1,0c0-0.1,0.1-0.2,0.2-0.3c1-1,2-1.8,3.2-2.7c1.1,0.7,2.4,0.8,4.1,0.5
		c0.1-0.1,0.2-0.2,0.3-0.2c0.4-0.3,0.8-0.6,1.2-0.9c1.9-1.4,3-3,3.3-4.7c1.8-0.8,3.7-1.3,5.6-1.5c0-0.1,0-0.1-0.1-0.1
		c0-0.1,0-0.1-0.1-0.2c2,2,4.7,2.8,8.1,2.6c0.1-0.1,0.2-0.2,0.3-0.3C46.5,30.4,46.7,30.3,46.8,30.1z M36.2,22.7l-0.1-0.1h0.1V22.7z
		 M35.4,25.2c0.2,0.6,0.2,1.1,0.1,1.6c-0.1,0.1-0.1,0.2-0.2,0.3c-0.9,0.2-1.8,0.3-2.8,0.6c-0.1-0.1-0.4-0.1-0.6-0.1l-0.1-0.2
		c-0.1-0.3-0.2-0.6-0.2-1c-0.2-0.5-0.3-1-0.5-1.5c0-0.1,0-0.2,0-0.4c0.1-1,0.9-1.3,2.2-0.9c0.6,0.2,1.2,0.4,1.8,0.5
		C35.2,24.5,35.3,24.8,35.4,25.2z M16.6,13.9c0.1,0.1,0.2,0.2,0.4,0.3c0.7,0.7,1.8,1.3,3.2,1.7c0-0.1,0-0.3-0.1-0.3
		c-0.1-0.3-0.3-0.5-0.4-0.7c0.5,0.1,1.1,0.3,1.7,0.5c1.3,0.3,2.5,0.8,3.7,1.3c1.7,0.7,3.4,1.6,5,2.6c0.5,0.7,0.8,1.3,0.9,2
		c0.1,0.3,0.3,0.6,0.5,0.9c-0.2,0-0.3,0-0.4,0.1c-1.5-2.2-3.3-3.6-5.6-4.1c-1.7-0.3-3.7-0.3-5.9,0.3c-0.5,0.6-1,1.2-1.5,1.9
		c-0.7,0.8-1.4,1.5-2.2,2.1c-0.1-0.1-0.3-0.2-0.4-0.2c0-0.2-0.1-0.3-0.2-0.3c-0.4-0.4-0.8-0.8-1.3-1.2c-0.4-0.5-0.7-1.1-0.8-1.8
		c-0.1-0.1,0-0.2,0-0.3c0.4-0.7,0.6-1.4,0.7-2.3c0.1-1.1,0.6-2,1.4-2.6C15.7,13.8,16.1,13.8,16.6,13.9z M19.7,20.8
		c0.3-0.4,0.6-0.7,0.9-1.1c1.1,0,2.1,0.1,3,0.4c0.9,0.2,1.7,0.4,2.5,0.7c1.4,0.5,2.6,0.9,3.7,1.3c0,0.2,0.1,0.3,0.2,0.5
		c0,0-0.1,0-0.1,0.1c-0.1,0.1-0.1,0.1-0.1,0.1c-1.2-0.7-2.4-1.3-3.7-1.7C24.1,20.5,21.9,20.4,19.7,20.8z M10,35.2
		c0.2-0.2,0.4-0.4,0.6-0.7c2.5-2.2,5.2-3.8,8.1-4.7c0,0.4,0,0.8,0.1,1.3c0.2,0.4,0.4,0.7,0.7,1.1c-3.2-0.4-5.9,1.3-7.9,5
		c0,0.2,0,0.5,0,0.7c-0.1,0.7,0,1.4,0.3,2c0.3,0.9,0.5,1.9,0.7,2.9c-1,0.7-2.2,0.7-3.7,0c-2.6-1.3-4.1-3.4-4.5-6.1
		C5.8,35.3,7.7,34.8,10,35.2z M29.5,23.9c-0.1,0.6-0.1,1.2,0.1,1.9c-0.8-0.5-1.7-0.7-2.5-0.8c-1.4-0.2-2.8,0.1-4.2,0.7l-0.3,0.2
		c1.5,0.1,3.1,0.2,4.7,0.4c0.3,0,0.7,0,1.1,0c-0.4,0-0.7,0.1-1,0.3c0,0-0.1,0-0.2,0.1c-0.6,0.5-1.1,1.1-1.7,1.8
		c-0.1,0.1-0.2,0.3-0.1,0.6l0.1,0.2c0.7-0.7,1.5-1.1,2.2-1.4c0.8-0.4,1.6-0.6,2.3-0.6c0.1,0.3,0.3,0.6,0.5,1c-0.1,0-0.2,0-0.2,0.1
		c-0.2,0-0.2,0.1-0.3,0.1c0.2,0,0.4,0.1,0.6,0.2c0.3,0.3,0.4,0.6,0.5,1c0,0.1,0,0.2,0.1,0.3c-0.7,1-1.6,1.8-2.4,2.5
		c-0.8,0.7-1.7,1.2-2.5,1.7c-1.1-0.2-2.1-0.6-3-1.1c-0.2-0.1-0.3-0.1-0.4,0C22.8,33,22.7,33,22.6,33c-0.1,0-0.3-0.1-0.4-0.2
		c-1-1-1.8-2.2-2.3-3.5H20c0-0.1,0-0.2-0.1-0.2c0,0-0.1,0-0.2-0.1c-0.2-0.6-0.4-1.2-0.5-2c-0.3-1.5-0.3-2.9-0.1-4.2
		c0-0.2,0-0.2,0.1-0.2c0.6-0.3,1.3-0.7,2.1-0.8c1.5,0.2,3,0.7,4.4,1.3c0.4,0.2,0.7,0.3,1,0.4C27.8,23.9,28.8,24.1,29.5,23.9z
		 M18.7,33.4c0.1,0.2,0.1,0.3,0.1,0.5c0.5-0.3,1-0.6,1.6-0.8C20.3,33,20.2,33,20.2,33c-0.1,0-0.2,0-0.3,0c0.1-0.1,0.2-0.1,0.3-0.1
		c0.2,0.2,0.5,0.4,0.8,0.6c-0.3,0-0.6,0-0.9,0.1c-0.5,0.4-0.9,0.9-1.3,1.3c-0.4,0.4-0.9,0.8-1.4,1.1c-0.1,0.6-0.3,1.1-0.6,1.5
		c-0.3,0.5-0.6,0.9-0.7,1.4c-0.1,0-0.1,0-0.1,0c-0.1-0.5-0.2-1-0.3-1.5c0-0.2-0.1-0.5-0.3-0.7c-0.2-0.1-0.4-0.2-0.5-0.3
		c-0.2,0-0.3,0-0.5-0.1C15.7,35,17.1,34,18.7,33.4L18.7,33.4z M22.2,34c-0.6,0.5-1.1,1.1-1.7,1.6c-0.6,0.7-1.2,1.4-1.7,2.1
		c-0.4-0.1-0.7-0.2-1-0.3c-0.1,0.3-0.3,0.6-0.4,0.9c-0.1,0-0.2,0-0.2,0c-0.1,0-0.1,0-0.1,0.1c1.2-2,2.6-3.6,4.3-4.7
		C21.6,33.8,21.9,33.9,22.2,34z M2.1,87.5c0.3-0.8,0.7-1.5,1.4-2.1c5-5.2,10.5-7.3,16.5-6.5c2.5,0.7,5,1.5,7.4,2.3
		c0.4,0.2,0.7,0.4,1.1,0.6c0.8,0.7,1.7,1.1,2.8,1.5c0-0.2-0.1-0.3-0.2-0.3c-0.1-0.2-0.2-0.3-0.3-0.5c0.2,0.1,0.5,0.2,0.8,0.4
		c0-0.1-0.1-0.2-0.2-0.3c-0.9-1-2-1.8-3.1-2.4c-0.2-0.2-0.2-0.3-0.3-0.4c0,0.1,0,0.1,0,0.2c-0.1,0-0.1,0-0.2-0.1
		c-0.2-0.8-0.4-1.5-0.3-2.4c0.1,0.1,0.3,0.1,0.4,0.1c-0.1,0-0.3-0.1-0.4-0.1c0-0.4,0-0.8,0.1-1.2c0.1-0.2,0.2-0.3,0.3-0.4
		c0.2-0.2,0.3-0.4,0.4-0.5c0.3,0.1,0.8,0.2,1.2,0.3c0.7,0.2,1.5,0.3,2.3,0.4c0,0.1-0.1,0.2-0.2,0.3c-0.1,0-0.3-0.1-0.5-0.1l0,0h-0.2
		l0.1,0.1c0.1,0.1,0.4,0.2,0.6,0.3c-0.2,0.4-0.2,0.8-0.2,1.3c0.2,1.2,0.6,2.2,1,3.3c-0.2-0.1-0.5-0.2-0.8-0.3c0.4,0.5,0.9,1,1.5,1.5
		c0,0.1,0.1,0.3,0.2,0.5c0.2,0.5,0.4,1,0.7,1.5c-0.2,0-0.3,0.1-0.5,0.1c0,0.5,0.2,0.8,0.5,1.2c0.4,0.3,0.7,0.7,1.1,1.1
		c0,0.1,0,0.1,0,0.1c-0.3,0.1-0.7,0.3-1,0.5c-2.1,0.2-4.2,0.5-6.3,0.6C27.5,88,27.3,88,27,87.9c0,0.1,0,0.1,0,0.1
		c-0.4,0.1-0.6,0.2-1,0.3c-7,0.6-14.2,0.8-21.4,0.7C3.4,89,2.6,88.5,2.1,87.5z M33,76.3c-0.1,0-0.1,0.1-0.1,0.1v-0.1
		C32.9,76.3,32.9,76.3,33,76.3z M51.1,73.9c0,0,0.1-0.1,0.2-0.1c0.4,0.8,0.9,1.5,1.6,2.2l-0.4,0.3c0.2,0.2,0.5,0.5,0.9,0.7
		c-0.1,0.4,0,0.7,0.2,1.1c0.4,0.5,0.4,1.2,0.3,1.9c-2.4,1.1-4.9,1.9-7.5,2.4c0.1-0.1,0.1-0.2,0.2-0.3c-0.3,0.1-0.6,0.2-0.9,0.3
		c-0.1,0-0.1,0-0.2,0c0,0,0,0-0.1,0.1c-0.8,0.2-1.8,0.3-2.9,0.2c-1.6,0-3.1-0.1-4.6-0.1c-0.9-0.1-1.9-0.1-2.7-0.1
		c-0.1,0-0.2,0-0.3,0c-0.7-1.1-1.2-2.3-1.5-3.5c0.5-0.8,0.9-1.7,1.1-2.6c0.1,0,0.2,0,0.3,0c0.6,0.1,1.2,0.1,1.8,0.1
		c-0.2,0-0.4,0.1-0.6,0.1c-0.4,0.1-0.8,0.2-1.2,0.3l4,0.2c0.1-0.1,0.2-0.2,0.3-0.2c0.1-0.1,0.2-0.1,0.2-0.2c0.2-0.1,0.3-0.2,0.4-0.3
		c1,0,1.9-0.1,2.9-0.3c0.3,0,0.6-0.1,0.9-0.1C46,75.5,48.6,74.9,51.1,73.9z M35.3,83.2c0,0,0.1,0,0.2,0c0.3,0.1,0.6,0.2,1,0.2
		c-0.2,0.1-0.3,0.2-0.4,0.3c-0.1,0-0.2,0.1-0.3,0.2C35.6,83.6,35.4,83.4,35.3,83.2z M42.2,83.8c-0.3,0.2-0.6,0.3-0.9,0.5
		s-0.6,0.4-0.9,0.6c-0.4,0.2-0.9,0.4-1.4,0.5c-0.8,0.3-1.6,0.6-2.3,1c-0.3-0.5-0.6-0.8-0.9-1.1c-0.1-0.1-0.1-0.2-0.1-0.2
		c0.6-0.2,1.2-0.5,1.8-0.8c0.3-0.2,0.6-0.4,0.8-0.6C39.6,83.9,40.9,83.9,42.2,83.8z"/>
	<path style="fill:#BE3689;" d="M45.3,32.8h-0.2c0.2,1.8-0.4,2.9-1.6,3.4c-0.1,0-0.1,0-0.1,0.1c0-0.1,0-0.2,0-0.2
		c0.2-1.3,0-2.4-0.5-3.3c-0.7,0.6-1,1.8-0.9,3.5c-0.1,0-0.1,0-0.1,0c-1,0.1-1.9,0.3-2.9,0.6c-0.2,0.2-0.5,0.4-0.8,0.7
		c-0.7,0.6-1.1,1.3-1.2,2.2c-0.1,0.1-0.1,0.1-0.2,0.2c-2.4-1.3-4.5-1.5-6.4-0.7c-0.2,0.1-0.3,0.1-0.5,0.2c-0.4-0.2-1.1-0.3-2-0.1
		c0-0.2-0.1-0.3-0.1-0.4c0-0.7-0.2-1.2-0.7-1.4c-0.4,0-0.6,0.1-0.6,0.5c0.1,0.9,0.4,1.8,0.9,2.4c0.2,0.1,0.5,0.2,0.7,0.3
		c-0.2,0.2-0.5,0.5-0.7,0.8c-0.8,0-1.5-0.1-2.2-0.3c0-0.1,0-0.2-0.1-0.4c0-0.4-0.3-0.7-0.6-0.9c-0.2,0-0.3,0.1-0.3,0.2
		c-0.2,0.9,0,1.6,0.6,2.1c0.5,0.4,1,0.5,1.6,0.6c-0.1,0.1-0.3,0.3-0.3,0.4c-1,0.3-2,0-2.9-0.6c-0.4-0.1-0.6,0.1-0.5,0.5
		c0.2,0.9,0.8,1.4,1.9,1.5c0.2,0,0.4,0,0.7-0.1c-3.3,5.7-2,10.4,3.8,14.1c2,0,3.9-0.3,5.6-0.9c2.3-0.8,4.3-2.3,5.9-4.5
		c3,1.6,6.1,1.3,9.2-0.8c4.7-3.2,5.6-7.2,2.6-11.9c-0.2,0-0.3-0.1-0.4-0.3c-1.2-1.2-2.4-2.2-3.8-2.8c0.2-0.2,0.4-0.3,0.5-0.4
		c0.1-0.2,0.2-0.4,0.3-0.5c0.6-1.1,0.6-2-0.3-2.6l0,0c-0.5,1.2-1.2,2.1-2.2,2.8c-0.4-0.2-0.8-0.3-1.2-0.3c0.3-0.6,0.6-1.1,0.9-1.7
		c0-0.1,0-0.2-0.1-0.3C46.1,33.8,45.8,33.2,45.3,32.8z M37,41.8c0-0.1,0.1-0.1,0.1-0.1c0.6,0,1.1,0,1.5,0c0.2-0.3,0.2-0.7,0.2-1
		c0.1-0.6,0.2-1.2,0.3-1.7c4.6-1.8,8.6-0.9,12,2.9c0.3,0.6,0.5,1.2,0.8,1.8c1.2,2.7,0.5,5.2-1.9,7.3c-3.5,2.1-6.8,2.2-10.1,0.1
		c-1.9,2.6-3.7,4.4-5.6,5.3c-3.2,1.5-6.3,0.3-9.2-3.6C25,52.7,25,52.6,25,52.4c-0.4-4.8,1.5-8.7,5.6-11.8c0.6-0.2,1.2-0.4,1.9-0.5
		c0.2,0,0.4,0.1,0.6,0.2C34.5,40.8,35.8,41.3,37,41.8z"/>
	<path style="fill:#BE3689;" d="M42.6,43c-0.5,0.3-1,0.7-1.4,1.3c-1.1,1.2-1.3,2.5-0.7,3.7c0.5-0.2,0.9-0.6,1-1.2
		c0.1-1,0.6-1.9,1.4-2.6c0.3-0.2,0.6-0.3,0.9-0.4c0.5,0.1,0.9,0.4,1.2,0.7c1.5,1.2,2.6,1.6,3.5,1.1c-0.1-0.1-0.2-0.2-0.2-0.3
		C46.9,43.2,45,42.5,42.6,43z"/>
	<path style="fill:#BE3689;" d="M33.1,46.3c-0.1,0.1-0.3,0.2-0.4,0.4c-0.2,0.1-0.4,0.3-0.5,0.4c-0.1,0.1-0.1,0.1-0.1,0.1
		c-0.3,0.7-0.5,1.3-0.7,2c-0.3,0.7,0,1.2,0.7,1.3c0.3-0.2,0.5-0.5,0.7-0.8c0.1-0.4,0.3-0.7,0.4-1.1c0-0.3,0.1-0.6,0.3-0.8
		c0-0.2,0.2-0.3,0.3-0.3c0.3-0.2,0.7-0.3,1.1-0.5c0.3,0.2,0.7,0.3,1.1,0.4c0.2,0.1,0.4,0.2,0.5,0.2c0.5,0.5,0.9,0.8,1.4,1
		c0.2,0.1,0.5,0.1,0.8,0c0-0.1,0-0.2,0-0.3C37.4,46.2,35.5,45.5,33.1,46.3z"/>
	<path style="fill:#BE3689;" d="M26.1,60.7C25.4,60,25,60.2,25,61c0,0.4,0.1,0.7,0.6,0.7c0.3,0.6,0.5,1.2,0.5,1.9
		C29,68.5,33,71.4,38,72.3c2.1,0.3,4.3,0.3,6.7,0c1.6-0.2,3.1-0.8,4.4-1.5c7.8-4.9,10.5-11.5,8.1-19.8c0.2-0.1,0.4-0.3,0.6-0.5
		c-0.1-0.1-0.3-0.2-0.3-0.2c-0.2,0-0.3,0-0.5,0c0,0,0,0,0-0.1c0,0.1,0,0.1,0,0.1c-0.3,0-0.5,0-0.8,0.1c-0.2,0.2-0.6,0.4-0.9,0.7
		c-6.4,4.3-13.1,7.1-20.2,8.6C32.2,60.3,29.2,60.7,26.1,60.7L26.1,60.7z M57,51.2c0.1,4.1-0.7,8.2-2.4,12.6
		c-0.5,1.3-1.2,2.4-2.1,3.4c-2.1-2.3-4.9-2.6-8.3-1c-1.3,0.5-2.3,1.3-3.2,2.5c-0.2,0.1-0.3,0.3-0.3,0.4c-0.1,0.2-0.2,0.3-0.2,0.5
		c0,0.5,0,1,0,1.5c-1,0-1.9-0.1-2.8-0.3c-4.7-0.8-8.4-3.8-11.1-9c3.1,0.1,6-0.1,8.8-0.6C43.5,59.9,50.7,56.6,57,51.2z M48.9,66.4
		c1.1,0.5,2.2,0.9,3.2,1.2c-0.9,0.8-1.9,1.4-3.1,1.8c-2.7,1-5.3,1.5-7.7,1.7C42.4,68,44.9,66.5,48.9,66.4z"/>
	<path style="fill:#BE3689;" d="M44.2,73.4c2.9,0.3,5.4-0.4,7.6-2.3c0-0.1-0.1-0.1-0.2-0.1c-0.5-0.1-1,0-1.6,0
		c-0.4,0.7-1.2,1.1-2.2,1.4c-1.2,0.2-2.4,0.5-3.7,0.9C44.2,73.4,44.2,73.4,44.2,73.4z"/>
	<path style="fill:#BE3689;" d="M47.7,79.8v-0.1V79.8z"/>
	<path style="fill:#BE3689;" d="M81.1,87.1c-0.1,0.1-0.3,0.1-0.5,0.2c-2.8,0.9-5.4,2.2-8,3.8c0.1,0.2,0.1,0.2,0.1,0.2
		C75.9,90.6,78.7,89.2,81.1,87.1z"/>
	<path style="fill:#BE3689;" d="M47,9.9c0.1,0,0.2-0.1,0.4-0.2c0.1-0.2,0.1-0.5,0.2-0.8C47.4,9.3,47.2,9.6,47,9.9z"/>
	<path style="fill:#BE3689;" d="M40.4,92.5c0.2,0.1,0.3,0.1,0.5,0c1.7-1,3.5-2,5.3-3v-0.1c0.3,0.1,0.7,0,1.1-0.4
		c0.2-0.1,0.4-0.3,0.7-0.5c0.3-0.1,0.7-0.2,1-0.4c0.1-0.1,0.3-0.1,0.4-0.3c1.5-0.9,3.1-1.6,4.9-1.9c-0.1-0.1-0.1-0.1-0.2-0.2
		c-0.4-0.1-0.9-0.2-1.3-0.3c1.5-0.8,3.1-1.5,4.7-2.1c-0.1-0.2-0.2-0.2-0.3-0.3c-0.5-0.1-1.1-0.2-1.7-0.2c-0.6,0.3-1.3,0.6-2,0.8
		c-3.1,1-5.4,2.5-7.2,4.6c-0.1,0.1-0.2,0.2-0.3,0.3c-0.1-0.1-0.1-0.2-0.1-0.3C43.6,89.3,41.7,90.7,40.4,92.5z"/>
	<path style="fill:#BE3689;" d="M47.1,92.1l0.1,0.2c0.2,0,0.4-0.1,0.6-0.2c-0.1-0.1-0.2-0.2-0.3-0.3C47.4,91.9,47.3,92,47.1,92.1z"
		/>
	<path style="fill:#BE3689;" d="M57.6,91.1c0.3,0.5,0.7,0.5,1.4,0.1c2.8-1.8,5.5-3.1,8.1-4.1c-0.2,0-0.4-0.1-0.6-0.1
		c-0.5-0.1-1-0.1-1.5-0.1c-0.7,0.3-1.6,0.6-2.5,1.1C60.6,88.9,59,89.9,57.6,91.1z"/>
	<path style="fill:#BE3689;" d="M61.5,84.4c-0.1,0.1-0.2,0.2-0.4,0.2c-0.7,0.5-1.5,1-2.1,1.5c-4.5,1.4-8.2,3.4-11.4,6.2
		c2.4-1,5.4-2.2,9.1-3.5c2.8-1.1,4.1-1.9,3.7-2.4C61,85.7,61.4,85,61.5,84.4z"/>
	<path style="fill:#BE3689;" d="M67.2,91.6c4.1-1.5,5.7-3,4.8-4.3c-2.1,1.3-4.4,2.3-6.9,3.1C65,90.5,65,90.5,65,90.6
		c-0.8,0.4-1,0.9-0.7,1.5C65.2,92.1,66.2,91.9,67.2,91.6z"/>
</g>
</svg>
