<?xml version="1.0" encoding="iso-8859-1"?>
<!-- Generator: Adobe Illustrator 12.0.1, SVG Export Plug-In . SVG Version: 6.00 Build 51448)  -->
<!DOCTYPE svg PUBLIC "-//W3C//DTD SVG 1.1//EN" "http://www.w3.org/Graphics/SVG/1.1/DTD/svg11.dtd" [
	<!ENTITY ns_svg "http://www.w3.org/2000/svg">
	<!ENTITY ns_xlink "http://www.w3.org/1999/xlink">
]>
<svg  version="1.1" id="Layer_1" xmlns="&ns_svg;" xmlns:xlink="&ns_xlink;" width="90.077" height="91.979"
	 viewBox="0 0 90.077 91.979" style="overflow:visible;enable-background:new 0 0 90.077 91.979;" xml:space="preserve">
<g>
	<path style="fill:#BE3689;" d="M81.478,33.1c-0.2-0.4-0.4-0.9-0.7-1.3l-0.2-0.1c-0.3-0.4-0.6-0.7-1-1c-0.4-0.1-0.6-0.3-0.7-0.3
		c-1.4-2.2-3.7-3.8-7.1-4.6c-0.4,0.1-1,0.1-1.5-0.1c-0.2-0.1-0.5-0.1-0.7-0.1c0.2-1.4,0.3-3,0.2-4.6c-0.1-0.2-0.2-0.3-0.3-0.3
		c-0.9-0.4-1.7-0.8-2.5-1.1c-4.3-0.7-7.8,0.3-10.7,3c0,0,0-0.1,0-0.2c0.1-0.3,0.4-0.7,0.8-0.8c0.1-0.4,0.2-0.8,0.3-1.2
		c0.2-0.4,0.3-0.9,0.5-1.4c0.2-0.2,0.4-0.4,0.6-0.6c1.7-1.9,3.8-3.3,6.2-4.4c0.1,0.1,0.4,0.1,0.6,0c1.8,2,4.2,3,7.2,3.1
		c0.2-0.2,0.4-0.4,0.6-0.6c1.8-3.6,1.7-7-0.3-10.3c-0.5-0.1-0.9-0.3-1.2-0.4c0,0,0,0-0.1,0.1c-2.3,0.6-4.1,1.6-5.3,3.1
		c-0.3-0.2-0.4-0.2-0.5,0.1c0,0.2-0.1,0.4-0.1,0.6c0,0.1,0,0.2-0.1,0.3c-0.2-0.2-0.5-0.3-0.8-0.4c-1.7,0.4-3.4,1.1-5.1,2.1
		c-2.4,1.5-4.1,3.2-5,5.1c0.2-3.3-0.6-6.4-2.2-9.4c0.3-0.7,0.5-1.4,0.7-2.2c0.3-1.6,0.2-3.1-0.6-4.5c-0.7-0.2-1.4-0.5-2.1-0.7h-0.1
		c-0.2,0-0.4,0-0.8,0c-5,0.3-7.5,2.9-7.5,7.9c1.7,1.4,3.6,2,5.8,1.8c0.3,0.5,0.7,1,1.1,1.6c0-0.2,0-0.3,0-0.4c-0.1,0-0.1-0.1,0-0.1
		c1.6,2.7,2.3,5.6,2.1,8.6c0,0-0.1,0-0.2,0c0,0,0,0.1-0.1,0.2c-1.9-3.8-4.9-6.3-9.1-7.5c-1.4,0.9-2.5,2.3-3.3,4.1
		c-1.5-2-3.9-2.6-7.3-1.8c-0.1-0.1-0.3-0.2-0.5-0.3c-0.1,0.1-0.2,0.1-0.3,0.1c-0.3,0-0.4,0-0.6-0.1c0,0,0,0-0.1-0.1
		c-1.1-1.1-2.4-2-3.9-2.5c-0.7,0-1.1,0.4-1.3,1.2c-0.3,1.5-0.6,2.9-0.6,4.4c-0.2,1.7,0.1,3.3,0.8,5c0.2,0.2,0.4,0.4,0.6,0.6
		c1.2,1.5,2.7,2,4.5,1.4c0.1-0.2,0.2-0.4,0.3-0.7c0.3-0.7,0.5-1.3,1-1.8c0-0.1,0-0.2,0.1-0.2c0.1,0.2,0.2,0.2,0.4,0.4
		c-0.1,0.3-0.2,0.8-0.3,1.1c-0.2,0.3-0.2,0.7-0.3,1c-0.1,0-0.1,0-0.1,0.1c-0.2,0.1-0.4,0.1-0.5,0.2c-1.2,0.5-1.8,1.2-2,2.1
		c1.6,0.3,3.1,0.6,4.3,1c-0.6,0.3-1.1,0.6-1.6,1l0,0l0,0c-0.6,0.4-1.1,0.8-1.5,1.2c-4.4,2.6-8,6.1-10.8,10.7
		c-1.3,2.2-2.2,4.2-2.7,6.3c-2.9-2.1-6.2-3.4-10.1-4.2c-2.6,1.5-4.2,3.7-4.9,6.8c-1.6,7-1,13.8,1.7,20.2c3.5,6.5,9.1,9.1,16.7,8
		c1.7-0.3,3-1.1,3.9-2.4c1.6-2.5,2.5-5.1,2.7-7.9c1.5,1.5,3.2,2.6,5,3.4c0.7,0.2,1.4,0.5,2,0.7c1.6,0.8,3.3,1.5,5.1,2
		c-0.6,0.1-1.1,0.4-1.7,0.7c-3.2,1.5-4.9,3.9-4.9,6.8c0-0.1,0.1-0.1,0.2-0.1c-0.1,0.2-0.1,0.4,0,0.7c0.3,0.1,0.7,0.2,1,0.4
		c-1.7,0.9-3.2,2.1-4.5,3.5c-0.7,0.2-1.2,0.6-1.8,0.9c-3.2,1.4-6.4,3.1-9.4,4.9c2,0.1,4.1-0.5,6.4-1.7c2-1,3.3-1.9,4-2.9
		c2.6-1.4,4.6-2.9,6.1-4.5c0.7,0.3,1.5,0.5,2.3,0.6c-3.2,1.5-5.9,3.3-8.3,5.4l0.1,0.2c3.8-1.6,6.7-3.5,8.6-5.5
		c1.1,0.3,2.3,0.4,3.5,0.5h-0.1c-3.1,1.3-5.8,2.9-8.1,4.8c0.2,0.1,0.4,0.1,0.5,0c3-1.5,6.2-3,9.3-4.5c0,0.1,0,0.2,0,0.4
		c0.3-0.2,0.6-0.4,0.9-0.7c1.3,0.2,2.6,0.2,3.9,0.1c-0.7,0.3-1.2,0.7-1.8,1.1c-0.4,0.2-0.9,0.4-1.4,0.5c-0.6,0.3-1.2,0.5-1.9,0.8
		c0,0.1,0,0.2,0,0.3c-2.4,1.1-4.7,2.3-7,3.6c0,0.2,0.1,0.2,0.2,0.3c0.3,0.1,0.8,0.2,1.2,0.2c2.3-0.8,4.5-1.7,6.6-2.6
		c1.8-0.9,2.9-1.6,3.2-2.1c0.5-0.2,1-0.4,1.5-0.6c-0.2-0.2-0.4-0.3-0.6-0.3l0,0c1.5-0.8,3-1.4,4.4-1.9c0.3-0.1,0.6-0.2,0.9-0.3
		c-0.1,0.3-0.3,0.6-0.4,0.9c-0.1,0.2-0.2,0.4-0.2,0.6c-4.4,1.5-8.2,3.6-11.2,6.1c-0.7,0.5-1.3,1.1-1.8,1.6c-0.1,0.1-0.1,0.1-0.1,0.1
		c0.2,0.1,0.4,0.1,0.6,0c4.8-2.4,8.9-4.8,12.3-7.4c-0.1,0.5-0.3,1-0.3,1.6l0,0c0,0.2,0,0.3,0,0.5c-0.1,0.9,0.3,1.2,1.1,0.7
		c0.1-0.1,0.2-0.2,0.3-0.4c0.1,0.1,0.3,0.2,0.5,0.3c-3.5,1-6.1,2.7-7.9,5.1c0.2,0.1,0.3,0.1,0.5,0c2.7-1.7,5.6-3.2,8.7-4.5
		c0.9,0.3,1.8,0.6,2.8,0.8c-1.9,1-3.6,2.1-5.3,3.3l0.1,0.2c2.4-0.8,4.7-1.9,6.8-3.3c1.3,0.5,2.6,0.8,4,1c-0.7,0.3-1.5,0.6-2.4,0.9
		c0,0.1-0.1,0.1-0.1,0.2c-0.8,0.4-1,0.9-0.7,1.5c0.8,0.2,1.6,0,2.4-0.4c1.7-0.8,2.7-1.5,3.1-2.1c0.7,0.1,1.4,0.1,2.1,0
		c0.7,0.1,1.5,0.2,2.3,0.2c-0.8,0.5-1.6,1.1-2.2,1.7v0.3c2.4-0.3,3.7-1,4-1.9c1.5,0,3,0,4.5-0.1c-0.5,0.4-1,0.8-1.2,1.3
		c0.2,0.1,0.4,0.2,0.7,0.1c1.7-0.3,2.9-0.9,3.8-1.7c1.4-0.2,2.9-0.4,4.4-0.7c-1.1,0.6-2,1.5-2.7,2.5c0.7,0.5,1.4,0.4,2.4-0.1
		c2.3-1.3,3.8-2.4,4.4-3.4c1.1-0.3,2.3-0.8,3.5-1.2c0-0.1-1.5-1.5-4.5-4.4c-3-2.8-8.8-4.6-17.3-5.3c-1.5,0.2-3.1,0.6-4.6,1
		c0-0.2,0.1-0.4,0.2-0.5c-0.3,0.1-0.6,0.3-0.8,0.5c-0.4,0.1-0.7,0.2-1,0.2c-0.4-1.3-0.9-2.5-1.5-3.7c-0.2-0.1-0.3-0.3-0.4-0.4
		c-0.1-0.2-0.3-0.3-0.4-0.5c0.9-0.7,1.9-1.3,3-1.8c1.8-1.3,3.4-2.9,4.9-4.9c6.6-9.3,6.7-18.3,0.1-27c-0.1-0.4-0.3-0.7-0.5-1
		c1.6-0.6,3-0.1,4.4,1.6c0.4,0.6,1,0.7,1.6,0.2c-0.1-0.8-0.3-1.7-0.7-2.6c-0.1-0.4-0.3-0.8-0.3-1.2s0.2-0.7,0.4-1
		c0.1-0.1,0.3-0.2,0.4-0.2c1.1,0,2.1,0,3.1,0c0.1,0.2,0.2,0.4,0.3,0.6c-0.1,0.4-0.2,0.8-0.3,1.1c-0.1,0.2-0.2,0.5-0.3,0.7
		c-0.3,0.7-0.3,1.3-0.1,1.9c5.3,3.1,9,2.1,11.2-2.9C85.478,35.1,83.677,33.9,81.478,33.1z M84.978,37.7c-0.1,0.1-0.2,0.2-0.3,0.3
		c-0.2,0.1-0.4,0.3-0.6,0.5c-0.8,0.4-1.6,0.9-2.3,1.3c-1.8,0.2-3.4-0.2-4.8-1c0-0.3,0.1-0.5,0.2-0.8c0.1-0.2,0.2-0.4,0.2-0.7
		c0.1-0.3,0.2-0.6,0.3-1c0.1,0.4,0.7,0.8,1.9,1.3c-0.1-0.2-0.1-0.3-0.1-0.4c-0.2-0.7-0.5-1.3-0.8-1.8c-0.1-0.1-0.2,0-0.2,0
		c-0.3,0.2-0.5,0.3-0.7,0.5c0.1-0.1,0.1-0.2,0.2-0.3c-2.1-4.3-5.4-6.4-9.8-6.4c0.5-0.7,0.8-1.5,1.1-2.3c3.9,0.6,7.2,2.5,9.8,5.6
		c0.1,0.5,0.2,1,0.4,1.5c0.3,0.1,0.7,0.2,1,0.3c0.3,0.7,0.7,1.1,1.5,1.4c0-0.1,0-0.3,0-0.4c0-0.1,0-0.2,0-0.4
		C83.278,35.6,84.378,36.5,84.978,37.7z M67.778,9.9h-0.1c1.1-0.9,2.3-1.7,3.7-2.2c0.4,0.3,0.7,0.8,0.9,1.3c0.8,2,0.7,4.1-0.1,6.2
		c-1.4-0.4-2.7-0.8-4-1.2c0.5-0.1,1-0.2,1.4-0.4c0-0.1-0.1-0.2-0.3-0.3c-0.3-0.4-0.7-0.7-1.2-1c-0.3,0-0.7,0.1-1.1,0.1
		c-0.7-0.1-1.2,0-1.7,0.2c-0.1-0.1-0.2-0.1-0.2,0c-0.3,0-0.4,0.1-0.6,0.2c-0.2-0.1-0.2-0.1-0.3-0.1c0,0,0,0.1,0.1,0.2
		c-4.2,1.4-7.2,4.2-8.9,8.2c0,0.1,0,0.2,0,0.3c-0.4-0.3-0.8-0.6-1.2-0.8c0.3-0.6,0.6-1.1,0.9-1.7c2.2-4,5.3-6.4,9.3-7.3
		c0.3,0.1,0.5,0.1,0.8,0.1c0.2,0.1,0.5,0.1,0.8,0c2.1,0,3-0.6,2.8-1.8C68.478,10,68.177,10,67.778,9.9z M50.278,5.5
		c-0.1,0.1-0.1,0.1-0.1,0.2c-0.1,0.7,0,1.5,0.5,2.4c0,0.5,0.2,0.9,0.4,1.3c0.2,0.6,0.4,1.1,0.7,1.6c1.1,3,1.6,6,1.3,9.1
		c0-0.1-0.1-0.2-0.2-0.2c-0.4-0.1-0.8-0.3-1.3-0.3c1.1-4.3-0.1-7.9-3.5-11V8.5c-0.1-0.1-0.1-0.2-0.1-0.2c-0.1-0.1-0.1-0.1-0.2-0.1
		c-0.5-0.7-1.1-1.3-1.9-1.8l-0.2,0.1c0.2,0.3,0.4,0.7,0.7,1.1c-0.2,0.1-0.3,0.2-0.3,0.4c0,0,0,0.1,0.1,0.2c-0.9-0.5-1.8-0.9-2.7-1.3
		c1-4.1,3.4-5.7,7.1-4.8c0.3,0.1,0.6,0.2,0.9,0.3c0.1,0.8,0.1,1.6,0.2,2.4c0,0.2,0,0.5,0,0.8c-0.2,0.2-0.3,0.5-0.5,0.8
		c-0.1,0-0.1,0-0.1,0.1C50.778,6.1,50.578,5.8,50.278,5.5z M47.078,8.8c0.1,0,0.1,0,0.1,0H47.078L47.078,8.8z M41.478,14
		c0.1-0.1,0.2-0.2,0.2-0.1c0.8,0,1.5,0.2,2.2,0.3c1.2,1.1,2.2,2.2,3.1,3.5c1,1.4,2,2.3,2.9,2.6c-0.3,0.4-0.6,0.9-0.8,1.6
		c-1.3-1.9-3.2-3.1-5.8-3.4h-0.3c1.5,1.1,3.1,2.1,4.7,3.2c-0.3-0.1-0.7-0.1-1.1-0.1c-0.8,0.1-1.6,0.3-2.4,0.6
		c-0.2,0.1-0.4,0.2-0.4,0.4v0.2c1.8-0.2,3.5,0,4.9,0.6c-0.1,0.4-0.1,0.8-0.2,1.2c0,0-0.1,0-0.2-0.1c-0.1,0-0.2,0-0.3,0
		c0.2,0.1,0.4,0.3,0.5,0.5c0.1,0.3,0,0.7-0.1,1.1c0,0.1-0.1,0.2-0.1,0.4c-2,0.7-4.2,1.1-6.4,1.1c-0.8-0.8-1.4-1.6-2-2.5
		c-0.1-0.1-0.2-0.2-0.3-0.3c0,0-0.1-0.1-0.2-0.2c-0.1,0-0.2-0.2-0.3-0.3c-0.5-2.2-0.4-4.4,0.3-6.6
		C39.878,16.3,40.578,15.1,41.478,14z M56.177,23.1c0,0,0-0.2,0.1-0.2c3.9-1.7,8-1.9,12.4-0.8c-0.1,0.8-0.2,1.5-0.4,2.3
		c-0.6,2.9-2,5.4-4.1,7.3c-0.4,0.1-0.9,0.3-1.3,0.5c-0.1,0-0.3,0.1-0.4,0.2c-0.8-0.1-1.6-0.1-2.5,0c-0.2-0.2-0.5-0.3-0.7-0.6
		c-1.9-1.5-3.2-3.4-4-5.5c0,0,0,0-0.1,0c0.2-0.5,0.3-0.9,0.5-1.2c0.6,0.3,1.3,0.6,2.1,1c0.3,0.6,0.8,1.2,1.2,1.7
		c0.7,0.8,1.4,0.9,2.1,0.5c0.2-0.6,0-1-0.8-1.4c-0.7-0.3-1.2-0.8-1.5-1.6c-0.5-0.2-0.9-0.3-1.3-0.5c1.8-0.1,3.4-0.1,5,0.3
		c-0.1-0.2-0.2-0.3-0.2-0.4c-0.6-0.4-1.2-0.7-1.7-1.1c-0.2,0-0.4,0-0.6,0c-1.6-0.5-2.8-0.2-3.7,0.8c-0.1,0-0.1,0-0.1,0
		c-0.1,0-0.2,0-0.3,0c0.1-0.3,0.2-0.8,0.3-1.2l0,0C56.177,23.2,56.177,23.2,56.177,23.1z M53.078,21.7c0.1,0.1,0.2,0.2,0.3,0.3
		c0.3,0.4,0.8,0.9,1.3,1.3c-0.2,0.3-0.3,0.8-0.3,1.1c-0.1,0.5-0.4,1-0.7,1.3h-0.1c-0.1,0.1-0.2,0.2-0.3,0.3
		c-0.9-0.4-1.8-0.7-2.7-0.9c-0.1-0.2-0.3-0.3-0.5-0.4v-0.1c0.1-0.4,0.2-0.8,0.3-1.2c0.2-0.4,0.3-0.9,0.5-1.3c0-0.2,0-0.3,0.1-0.5
		C51.478,20.9,52.278,20.9,53.078,21.7z M55.078,28.7l-0.1-0.1c0,0,0-0.1,0.1-0.2c0.7,2.7,2.6,4.8,5.7,6.3c0.1,0,0.2-0.1,0.3-0.1
		c0.2-0.1,0.4-0.2,0.6-0.2c0.4,0.5,0.8,1,1.2,1.5c-0.2-0.1-0.5-0.2-0.7-0.3c2.4,2.4,4.6,5.5,6.5,9.1c2.9,5.3,3.1,10.6,0.9,15.7
		c-1.9,4.3-5.4,7.7-10.2,10.4c-0.9,0.4-1.8,0.8-2.8,1.3c-4.6,1.9-9.9,2.1-15.8,0.4c-1.6-0.4-3.1-1-4.7-1.6c-0.3-0.2-0.7-0.3-0.9-0.4
		c-0.3-0.2-0.5-0.3-0.8-0.4c-3-1.4-5.8-3.1-8.5-5c-0.1-1.1-0.3-2.3-0.6-3.4c-1.5-6.3-4.3-11.1-8.3-14.4c0-0.2,0.1-0.4,0.2-0.5
		c3.5-9.2,9.3-15.4,17.4-18.7c0,0,0,0,0.1,0c0,0,0,0-0.1,0c0.1,0,0.2-0.1,0.3-0.2c1.4-0.2,2.7-0.5,4.1-0.6c0.7,1.1,1.8,1.9,3.4,2.5
		c0.1-0.1,0.2-0.1,0.3-0.1c3.2-0.1,5.4-0.9,6.7-2.6c1.6,0.2,3.1,0.6,4.6,1.1C54.278,28.4,54.677,28.6,55.078,28.7z M66.278,31.9
		c0-0.1,0-0.1,0-0.1c0.7-0.7,1.3-1.6,1.8-2.4c3.4,0.7,5.9,2.3,7.6,5.1c-0.7-0.3-1.4-0.5-2-0.7c0,0,0,0-0.1,0c-0.1,0-0.3,0.1-0.4,0.2
		c-0.4,0-0.6,0.2-0.9,0.4c-0.2,0.1-0.3,0.2-0.5,0.2c-0.1,0.6-0.3,1.2-0.5,1.9l0,0C69.978,34.6,68.278,33,66.278,31.9z M67.778,36.8
		c-0.5,0.2-0.8,0.4-1,0.7c-0.9-1.5-1.8-2.8-2.8-4c0.2,0,0.3,0,0.4,0c0.6-0.4,1.2-0.8,1.6-1.3c1.5,1.8,3.3,3.5,5.2,4.9
		c0,0.2,0,0.3,0,0.5c0.1,0.1,0.1,0.3,0.1,0.4c-0.3,0-0.6-0.1-0.9-0.3c-0.6-0.2-1.2-0.5-1.9-0.7C68.278,36.9,68.078,36.8,67.778,36.8
		z M24.778,17.5c0-1.5,0.3-3,1-4.5c0.5,0.3,1,0.7,1.4,1.1c0.2,0.3,0.5,0.5,0.9,0.8c-0.3,0.2-0.4,0.5-0.4,0.9c0.4,0.1,0.7,0.1,1,0
		c0.1-0.1,0.3-0.1,0.5-0.1c0.3,0.1,0.7,0.3,1,0.4c2.7-0.6,5.4-0.4,7.9,0.6c-0.2,0.4-0.3,0.8-0.5,1.2c-0.1,0.4-0.2,0.7-0.2,1
		c-0.1,0-0.1-0.1-0.2-0.2c-0.6-0.3-1.3-0.6-1.9-0.9c-0.4-0.2-0.7-0.4-1-0.6c-0.8-0.1-1.5,0-2.3,0.2c-0.1-0.1-0.2-0.2-0.3-0.3
		c-0.2,0-0.4,0-0.6,0.1c-1.1,0.5-2,1.1-2.6,2.1c0.4,0.3,0.9,0.5,1.6,0.4c0,0.1-0.1,0.2-0.2,0.4c0,0,0,0,0,0.1l0,0
		c-0.2,0.4-0.4,0.7-0.5,1.1c-0.2,0.4-0.4,0.8-0.5,1.3c-0.5,0.1-0.8,0-1.1-0.2C25.778,21.3,24.778,19.6,24.778,17.5z M31.677,19.3
		c0.2-0.1,0.3-0.1,0.5-0.2c1.3-0.4,2.6-0.2,3.8,0.6c0.1,0,0.1,0.1,0.1,0.1c0.1,0.1,0.1,0.3,0.2,0.3c0.1,0.2,0.1,0.4,0.2,0.5
		c0.2,0.1,0.4,0.1,0.6,0.2c-0.2,1.8,0.3,3.3,1.4,4.5c-0.8,0.1-1.5,0.3-2.3,0.6c-0.9,0.2-1.8,0.5-2.5,0.8c-0.7-0.8-1.4-1.4-2.2-1.8
		c0-0.1,0-0.1,0.1-0.2c0.2-0.1,0.5-0.1,0.7-0.3c1.6-0.8,3.3-1.2,5.1-0.8c-0.1-0.1-0.1-0.2-0.1-0.2c-0.8-0.4-1.6-0.8-2.4-1.1
		c-1,0.1-2,0.4-2.9,0.8c0.2-0.5,0.3-1,0.4-1.5c0-0.1,0-0.2,0-0.3c-0.4-0.3-0.7-0.7-0.9-1C31.578,19.9,31.677,19.6,31.677,19.3z
		 M19.078,51.9c0.9,1.4,2.2,3.8,4,7.2c1.7,3.3,1.5,8.3-0.8,15c-6.6,4.3-12.4,2.8-17.7-4.7c-5.2-7.5-4.6-16,1.7-25.3
		c3.9-0.4,6.6,0.7,8.1,3.3C16.677,48.9,18.278,50.4,19.078,51.9z M35.778,76.8c0.2,0.1,0.4,0.2,0.6,0.2c-0.3-0.2-0.5-0.5-0.6-0.9
		c1.3-1,2.8-1.8,4.5-2.3h0.1c1.1,0.2,2.2,0.5,3.4,0.7c-0.1,0-0.1,0.1-0.1,0.3c0.4,0,0.8,0,1.2,0.1c0-0.1-0.1-0.2-0.1-0.3
		c0.7,0.1,1.5,0.2,2.3,0.2c0,0.1,0.1,0.1,0.1,0.2c0.1,0,0.2,0.1,0.2,0.1c1.2,0.1,2.4,0.1,3.6,0.1c-0.1,0-0.2-0.1-0.4-0.2
		c0.6,0,1.3,0,1.9,0c0.2,0,0.4,0,0.6,0c-0.1,0-0.2,0.1-0.3,0.1c0.4,0,0.8,0,1.1,0c0.1-0.1,0.1-0.2,0.2-0.2l0,0
		c0,0.3,0.1,0.9,0.6,1.5c-0.5,0.9-1,1.8-1.4,2.8c-0.1,0-0.1,0-0.1,0c-0.1,0-0.1,0-0.1,0c-0.1,0-0.2,0.1-0.3,0.2
		c0.1-0.1,0.2-0.1,0.4-0.1c-0.1,0.2-0.2,0.4-0.3,0.5c-0.2,0.2-0.4,0.5-0.6,0.8c-0.2-0.1-0.4-0.1-0.5-0.2c-0.4,0.2-0.6,0.4-0.9,0.7
		c0,0,0,0-0.1,0c-0.3,0.2-0.7,0.4-1.2,0.6c-6.3,0.4-11.9-0.2-16.7-1.9c0-0.1,0.1-0.2,0.2-0.3c0.8-0.9,1.4-1.8,1.8-2.7
		c0.1,0,0.2-0.1,0.3-0.2C35.378,76.7,35.578,76.8,35.778,76.8z M56.978,74.7c-0.3-0.1-0.5-0.1-0.7-0.2c0.8-0.2,1.6-0.4,2.4-0.7
		c0.7,1.7,1,3.4,1,5.1c0,0.1,0,0.1,0,0.2c-0.9,0.7-1.9,1.4-3,2.1c-0.1,0-0.2,0.1-0.3,0.1c-0.2,0.3-0.4,0.5-0.6,0.8
		c0.1,0.1,0.2,0.2,0.2,0.1c0.7-0.1,1.2-0.2,1.7-0.3c0,0.1,0,0.2,0,0.3c1.2-0.7,2.5-1.3,3.8-1.7c0.2-0.1,0.6-0.2,0.9-0.3v-0.1
		c9.4-3.3,17.8-1.4,25.2,5.7c-8.7,2.1-17.6,2.8-26.5,2c-3.5-0.7-6.4-1.6-8.8-2.9c0.1-0.2,0.2-0.4,0.3-0.6c0.2-0.5,0.4-0.9,0.7-1.3
		c0.6-0.8,1.2-1.8,1.6-2.8c0-0.1,0.1-0.2,0.1-0.3c0.5-0.5,1-0.8,1.6-1.1c0,0,0,0-0.1,0c-0.3,0.1-0.7,0.2-1,0.2
		c0.6-1.3,0.6-2.7,0-4.1C55.978,74.9,56.478,74.8,56.978,74.7z"/>
	<path style="fill:#BE3689;" d="M40.878,30.9c-0.3-0.2-0.6-0.2-0.7,0.1c-0.5,0.8-0.6,1.7-0.5,2.6c0.2,0.2,0.3,0.4,0.5,0.6
		c-0.3,0-0.7,0.1-1.1,0.3c-0.6-0.4-1.2-0.9-1.7-1.4c0-0.1,0.1-0.2,0.1-0.4c0.2-0.3,0.1-0.7-0.1-1.1c-0.1,0-0.2,0-0.3,0.1
		c-0.6,0.6-0.8,1.3-0.6,2.1c0.3,0.5,0.7,1,1.1,1.3c-0.1,0-0.3,0.1-0.5,0.2c-1-0.3-1.7-1-2.1-2c-0.4-0.2-0.6-0.2-0.7,0.2
		c-0.4,0.9,0,1.6,0.9,2.2c0.2,0.1,0.4,0.2,0.5,0.3c-5.6,3.3-6.9,8-3.8,14c4.2,2.6,8.4,3,12.7,1.3c1.8,2.8,4.6,4.2,8.3,3.9
		c1.7-0.1,3.2-0.5,4.4-1c2.7-1.4,4-4,3.9-7.9c-0.1-0.1-0.1-0.3-0.2-0.5c-0.4-1.6-1-3.1-1.8-4.4c0.2,0,0.4,0,0.6-0.1
		c0.2,0,0.3-0.1,0.5-0.2c1-0.6,1.4-1.4,1-2.4l0,0c-0.9,0.8-2,1.2-3.2,1.3c-0.3-0.3-0.6-0.6-0.9-0.9c0.6-0.3,1.1-0.6,1.6-0.9
		c0.1-0.2,0.1-0.3,0.1-0.4c0.3-0.6,0.4-1.2,0.2-1.9h-0.2c-0.8,1.6-1.9,2.3-3.2,2.1c-0.1,0-0.1,0-0.1-0.1c0.1,0,0.1,0,0.2-0.1
		c0.7-0.9,1.2-2,1.2-3.2c-0.7,0.2-1.4,0.8-2,1.7c-0.2,0.3-0.4,0.6-0.6,1c0-0.1,0-0.1-0.1-0.1c-0.8-0.4-1.7-0.7-2.7-0.9
		c-0.3,0-0.7,0.1-1.1,0.2c-0.9,0.1-1.6,0.6-2.2,1.3c0,0-0.1,0.1-0.2,0.1c-1.6-2.5-3.5-3.8-5.7-3.9c-0.3-0.5-0.9-0.8-1.7-1.2
		c0-0.1,0.1-0.3,0.1-0.3C41.177,31.8,41.177,31.3,40.878,30.9z M44.278,35.7c0.2,0.2,0.3,0.4,0.4,0.5c1,1.2,1.8,2.3,2.6,3.3
		c0,0,0.1,0,0.2,0c0.4,0.3,0.9,0.5,1.3,0.8c0.2-0.3,0.5-0.5,0.7-0.8c0.3-0.5,0.6-1,1.1-1.3c1.9,0.3,3.5,0.9,4.9,1.9
		c2,1.4,3.3,3.7,3.9,6.6c0,0.7-0.1,1.3-0.2,2c-0.2,1.7-0.9,3-2.1,4c-0.9,0.6-1.9,1.1-3.3,1.3c-4,0.1-6.9-1.6-8.6-5
		c-8.3,3.6-12.8,1.6-13.8-6.1c0-0.1,0.1-0.2,0.2-0.3c2.1-4.3,5.7-6.8,10.9-7.3C43.078,35.4,43.677,35.5,44.278,35.7z"/>
	<path style="fill:#BE3689;" d="M40.278,41.7c-0.5,0.4-1.1,0.8-1.6,1.3c-0.6,0.5-0.6,1,0,1.5c0.7-0.2,1.3-0.5,1.9-1.1
		c0.1-0.2,0.4-0.4,0.7-0.5c0.1-0.1,0.2-0.1,0.4-0.1c0.4,0,0.7,0.1,1.1,0.1c0.3,0.3,0.5,0.6,0.8,0.9c0.1,0.2,0.2,0.4,0.4,0.5
		c0.1,0.6,0.3,1.1,0.7,1.6c0.1,0.1,0.3,0.3,0.6,0.4c0.1-0.1,0.1-0.2,0.2-0.3c-0.1-2.5-1.3-4-3.8-4.6c-0.2,0.1-0.4,0.1-0.6,0.1
		C40.778,41.6,40.578,41.6,40.278,41.7z"/>
	<path style="fill:#BE3689;" d="M51.177,44.5c0.3,0.1,0.7,0.1,1,0.2c0.3,0.3,0.5,0.7,0.7,1.2c0.6,1.8,1.4,2.7,2.4,2.7
		c0-0.1,0-0.3,0-0.4c-0.1-2.5-1.4-4.1-3.7-4.9c-0.7,0.1-1.3,0.2-2,0.4c-1.5,0.6-2.3,1.5-2.4,2.9c0.6,0.1,1.1,0,1.4-0.5
		C49.278,45.3,50.078,44.8,51.177,44.5z"/>
	<path style="fill:#BE3689;" d="M28.378,50.3L28.378,50.3c-0.3-1-0.7-1.1-1.1-0.3c-0.3,0.3-0.3,0.6,0.1,0.9c0,0.7-0.2,1.3-0.5,1.9
		c0,8,3.8,13.6,11.6,16.9c1.5,0.7,3.1,1,4.6,0.9c7.3-0.2,12.4-2.9,15.2-8.1c0.8-1.5,1.4-3,1.8-4.8c0.3,0,0.5-0.1,0.8-0.1
		c-0.1-0.2-0.2-0.3-0.2-0.3c-0.2-0.1-0.3-0.2-0.4-0.3v-0.1c0,0,0,0-0.1,0.1c-0.2-0.2-0.4-0.3-0.6-0.3c-0.4,0-0.8,0-1.2,0.1
		c-0.3,0-0.5,0-0.8,0C47.177,57.4,37.378,55.2,28.378,50.3z M36.278,65.3c-0.3,0.4-0.5,0.8-0.8,1.3c-5.2-3.1-7.6-8.1-7.2-15
		c9.3,5.6,19.2,7.9,29.5,6.5c0.6-0.1,1.3-0.1,2-0.3c-0.5,0.9-1.1,1.8-1.7,2.7c-1.8,2.5-4.1,4.8-6.7,6.9c-1.2,0.9-2.3,1.5-3.6,1.8
		c-0.6-3-2.8-4.7-6.6-5c-1.4-0.2-2.7,0-4.1,0.5c-0.1,0.1-0.3,0.1-0.5,0.2C36.478,65,36.278,65.1,36.278,65.3z M47.278,69.4
		c-1.2,0.2-2.4,0.2-3.6,0c-2.9-0.6-5.4-1.4-7.5-2.5c2.5-2,5.5-2.1,8.9-0.2C45.878,67.8,46.578,68.7,47.278,69.4z"/>
	<path style="fill:#BE3689;" d="M37.478,70.3c0,0.1,0,0.1,0.1,0.1c2.2,1.8,4.8,2.4,7.7,1.9c-0.1-0.1-0.1-0.2-0.2-0.2
		c-0.4-0.3-0.9-0.6-1.4-0.8c-0.7,0.4-1.5,0.4-2.6,0C39.978,70.9,38.778,70.5,37.478,70.3z"/>
	<path style="fill:#BE3689;" d="M40.778,77.9c0,0-0.1,0-0.1-0.1c-0.8-0.1-1.5-0.3-2.3-0.3c0.8,0.2,1.7,0.4,2.5,0.5
		C40.878,78,40.878,78,40.778,77.9z"/>
	<path style="fill:#BE3689;" d="M11.478,88.4c3.1-1.6,4.2-2.8,3.3-3.7c0,0,0,0.1-0.1,0.1c-3.3,1.5-6.4,3.5-9.1,5.9
		C7.578,90.1,9.578,89.4,11.478,88.4z"/>
	<path style="fill:#BE3689;" d="M9.578,91.3c1.5,0.4,2,0.2,1.6-0.7c3-1.6,6.1-3.1,9.1-4.7c0.1,0,0.2,0,0.3-0.1
		c0.9-0.4,1.5-0.8,1.6-1c2-0.9,3.9-1.7,5.7-2.4c-0.2,0-0.4-0.1-0.6-0.1c-0.5-0.1-1-0.1-1.5-0.1c-0.5,0.2-1.1,0.5-1.9,0.8
		c-1,0.3-1.9,0.7-2.8,1.2c-0.1,0-0.2,0-0.3,0C16.578,86.3,12.878,88.7,9.578,91.3z"/>
</g>
</svg>
