<?xml version="1.0" encoding="iso-8859-1"?>
<!-- Generator: Adobe Illustrator 12.0.1, SVG Export Plug-In . SVG Version: 6.00 Build 51448)  -->
<!DOCTYPE svg PUBLIC "-//W3C//DTD SVG 1.1//EN" "http://www.w3.org/Graphics/SVG/1.1/DTD/svg11.dtd" [
	<!ENTITY ns_svg "http://www.w3.org/2000/svg">
	<!ENTITY ns_xlink "http://www.w3.org/1999/xlink">
]>
<svg  version="1.1" id="Layer_1" xmlns="&ns_svg;" xmlns:xlink="&ns_xlink;" width="91.962" height="89.678"
	 viewBox="0 0 91.962 89.678" style="overflow:visible;enable-background:new 0 0 91.962 89.678;" xml:space="preserve">
<g>
	<path style="fill:#BE3689;" d="M83.462,37c-0.4-0.7-1-1.4-1.9-1.9c-1.2-0.8-2.4-1.4-3.6-1.8c0-0.4,0-0.8-0.3-1
		c-0.2-0.4-0.4-0.7-0.4-1.2c0-0.1,0-0.2-0.1-0.3c-0.1-0.2-0.2-0.3-0.3-0.4c-2-2.5-4.5-3.9-7.4-4.3c-0.6-0.2-1.2-0.3-1.8-0.3
		c0.1-0.4,0.3-0.7,0.5-1c-0.1,0-0.2,0-0.3,0c0.1-1,0.1-2-0.1-3.2c1.1,0.9,2.4,1.4,3.9,1.8c0.7-0.6,1.3-1.1,1.8-1.9
		c2.4-3,2.5-6.1,0.5-9.2c-1-0.1-1.9-0.1-2.8-0.2c-0.5,0.3-1.1,0.6-1.8,0.9c-0.8,0.3-1.7,0.4-2.4,0.3c-6.7-0.7-11.3,1-13.9,5.2
		c0-0.2,0-0.5,0-0.7c0.2-3.4-0.5-6.6-1.9-9.4c0.5-1.5,1-3,1.5-4.4c0.4-1,0.4-2.1,0.1-3.1c-0.2-0.1-0.4-0.2-0.6-0.2
		c-1.7-0.3-3.3-0.5-5-0.7c-1.3,0.6-2.5,1.3-3.7,2.3c-1.7,1.6-2.4,3.5-1.9,5.8c0.5,0.7,1.1,1.2,1.9,1.5c1.3,0.7,2.6,1.1,3.8,1.4
		c0.8,1.4,1.4,2.7,1.8,4.1c0.5,1.4,0.5,2.8,0.2,4.2c-0.3-0.3-0.6-0.6-0.9-1c0.2,0.8,0.3,1.6,0.4,2.5c-0.1,0-0.2,0-0.2,0
		c-0.1,0-0.1,0-0.1,0c-2.4-3.5-5.7-5.6-10-6.4c-0.5,0.5-0.9,1-1.3,1.6c-1.8-2.2-4.1-3.5-7-4.1c-0.3-0.2-0.6-0.5-0.8-0.8
		c-0.9-1.6-2-3-3.4-4.3c-0.5-0.1-0.9-0.1-1.3-0.2c-0.1,0.1-0.3,0.2-0.5,0.3c-1.3,1.1-2.6,2.3-3.6,3.7c0,0.9,0,1.8-0.1,2.7
		c0,2.2,0.6,4.2,1.8,6c1,0.7,2,1,3,0.7c0.2-0.1,0.4-0.2,0.5-0.3c0.6-0.4,1-0.7,1.5-1.1c-0.2,1.4-0.4,2.8-0.7,4.1
		c-0.5,0.9-1.4,1.7-2.5,2.4c2.3,1.4,3.7,3.4,4,6c-0.3,1.2-0.9,2-1.8,2.7c0,0.1-0.1,0.2-0.2,0.4c-0.1,0.2-0.1,0.5,0,0.7
		c-3,2.7-5.5,6.1-7.3,10.1c-1.3,2.7-2,5.2-2.2,7.7c-3.1-2.1-6.6-3.1-10.4-3.2c-6.5,5.3-7.9,11.9-4,19.7c4.1,8.2,10.7,11.5,19.9,10
		c1.8-0.2,3-1.3,3.4-3.1c0.7-2.3,0.9-4.7,0.8-6.9c3.1,2.2,6.1,3.7,9.1,4.6c0.1,0,0.2,0,0.4,0.1c-1.8,1.5-2.5,3.1-2.3,5
		c0.3,0.1,0.7,0.2,1,0.4c-1.7,0.9-3.2,2.1-4.5,3.5c-0.7,0.2-1.2,0.6-1.8,0.9c-3.2,1.4-6.4,3.1-9.4,4.9c2,0.1,4.1-0.5,6.4-1.7
		c2-1,3.3-1.9,4-2.9c2.6-1.4,4.6-2.9,6.1-4.5c0.7,0.3,1.5,0.5,2.3,0.6c-3.2,1.5-5.9,3.3-8.3,5.4l0.1,0.2c3.8-1.6,6.7-3.5,8.6-5.5
		c1.1,0.3,2.3,0.4,3.5,0.5h-0.1c-3.1,1.3-5.8,2.9-8.1,4.8c0.2,0.1,0.4,0.1,0.5,0c3-1.5,6.2-3,9.3-4.5c0,0.1,0,0.2,0,0.4
		c0.3-0.2,0.6-0.4,0.9-0.7c1.3,0.2,2.6,0.2,3.9,0.1c-0.7,0.3-1.2,0.7-1.8,1.1c-0.4,0.2-0.9,0.4-1.4,0.5c-0.6,0.3-1.2,0.5-1.9,0.8
		c0,0.1,0,0.2,0,0.3c-2.4,1.1-4.7,2.3-7,3.6c0,0.2,0.1,0.2,0.2,0.3c0.3,0.1,0.8,0.2,1.2,0.2c2.3-0.8,4.5-1.7,6.6-2.6
		c1.8-0.9,2.9-1.6,3.2-2.1c0.5-0.2,1-0.4,1.5-0.6c-0.2-0.2-0.4-0.3-0.6-0.3l0,0c1.5-0.8,3-1.4,4.4-1.9c0.3-0.1,0.6-0.2,0.9-0.3
		c-0.1,0.3-0.3,0.6-0.4,0.9c-0.1,0.2-0.2,0.4-0.2,0.6c-4.4,1.5-8.2,3.6-11.2,6.1c-0.7,0.5-1.3,1.1-1.8,1.6c-0.1,0.1-0.1,0.1-0.1,0.1
		c0.2,0.1,0.4,0.1,0.6,0c4.8-2.4,8.9-4.8,12.3-7.4c-0.1,0.5-0.3,1-0.3,1.6l0,0c0,0.2,0,0.3,0,0.5c-0.1,0.9,0.3,1.2,1.1,0.7
		c0.1-0.1,0.2-0.2,0.3-0.4c0.1,0.1,0.3,0.2,0.5,0.3c-3.5,1-6.1,2.7-7.9,5.1c0.2,0.1,0.3,0.1,0.5,0c2.7-1.7,5.6-3.2,8.7-4.5
		c0.9,0.3,1.8,0.6,2.8,0.8c-1.9,1-3.6,2.1-5.3,3.3l0.1,0.2c2.4-0.8,4.7-1.9,6.8-3.3c1.3,0.5,2.6,0.8,4,1c-0.7,0.3-1.5,0.6-2.4,0.9
		c0,0.1-0.1,0.1-0.1,0.2c-0.8,0.4-1,0.9-0.7,1.5c0.8,0.2,1.6,0,2.4-0.4c1.7-0.8,2.7-1.5,3.1-2.1c0.7,0.1,1.4,0.1,2.1,0
		c0.7,0.1,1.5,0.2,2.3,0.2c-0.8,0.5-1.6,1.1-2.2,1.7v0.3c2.4-0.3,3.7-1,4-1.9c1.5,0,3,0,4.5-0.1c-0.5,0.4-1,0.8-1.2,1.3
		c0.2,0.1,0.4,0.2,0.7,0.1c1.7-0.3,2.9-0.9,3.8-1.7c1.4-0.2,2.9-0.4,4.4-0.7c-1.1,0.6-2,1.5-2.7,2.5c0.7,0.5,1.4,0.4,2.4-0.1
		c2.3-1.3,3.8-2.4,4.4-3.4c1.1-0.3,2.3-0.8,3.5-1.2c0-0.1-1.5-1.5-4.5-4.4c-3-2.8-8.8-4.6-17.3-5.3c-1.5,0.2-3.1,0.6-4.6,1
		c0.3-0.6,0.5-1.5,0.5-2.5c-0.1-0.1-0.2-0.2-0.3-0.4c-0.1-0.2-0.3-0.3-0.5-0.5c2-1.6,3.7-3.6,5.2-6.2c5.6-9.9,4.7-18.9-2.8-26.9
		c-0.1-0.1-0.2-0.2-0.3-0.4c0.5,0.4,1.1,0.6,1.8,0.6c0.1,0,0.2-0.1,0.4-0.2c0-0.2,0-0.3,0-0.5c0,0.2,0.1,0.3,0.1,0.5
		c0-0.3,0-0.7-0.1-1.1c-0.1-0.4-0.2-0.8-0.4-1.3c0.1,0,0.1-0.1,0.2-0.2c0.8-1.2,2-1.6,3.3-1.2c0.3,0.9,0.5,0.9,0.7,0.3
		c0.1-0.1,0.1-0.2,0.1-0.4c0,0,0-0.1,0-0.2c0.1,0.2,0.2,0.3,0.4,0.4c-0.1,0.1-0.2,0.3-0.2,0.5c-0.3,0.7-0.6,1.5-1,2.2
		c-0.1,0.4-0.2,0.7-0.1,1.1c0.2,0.3,0.5,0.5,0.8,0.6C77.562,41.8,80.862,40.9,83.462,37z M64.662,14.7c2.2,0.5,3.4,0.8,3.8,1
		c0.4,0.2,1,0,1.7-0.6c0-0.1,0-0.2-0.1-0.2c-0.2-0.2-0.4-0.3-0.7-0.5c1.3-0.6,2.6-0.8,4.1-0.5c0.5,0.9,0.7,1.9,0.7,3
		c0,0.7-0.1,1.4-0.4,1.9c-0.5,0.6-0.9,1.2-1.3,1.8c-0.4,0.5-0.8,0.8-1.3,0.9c-0.7-0.2-1.5-0.5-2.1-0.9c-0.8-0.5-1.4-1.1-1.8-1.8
		c0.5,0.1,1.1,0.1,1.8,0c-0.5-0.5-0.9-0.9-1.4-1.2c-0.1,0-0.2-0.1-0.2-0.2c-0.8-0.1-1.5-0.1-2.3-0.1c-5.3-0.7-8.8,0.5-10.5,3.6
		c-0.4,0.1-0.8,0.1-1.1,0.1c-0.1,0.3-0.2,0.6-0.3,0.9c0,0.1,0,0.2,0,0.4c-0.4-0.4-0.9-0.6-1.3-0.8c0-0.1,0-0.2,0.1-0.2
		c0.5,0.2,1-0.2,1.5-1c0.4-0.9,0.9-1.7,1.4-2.5C59.362,15.2,62.662,14.1,64.662,14.7z M48.962,5.4h-0.4c0.2,1,0.4,1.9,0.9,2.7
		c0.7,1.5,1.2,3,1.6,4.5c0.5,2.2,0.7,4.4,0.6,6.8c-0.1,0.1-0.2,0.2-0.2,0.4c-0.2,0.2-0.2,0.5-0.3,0.7c-0.1,0-0.2-0.1-0.3-0.1
		c0,0.2,0,0.4,0,0.7c-0.2-0.1-0.4-0.1-0.7-0.2c0.4-1,0.6-2,0.5-3.1c0-2-0.3-3.9-0.9-5.7c-0.1-0.2-0.3-0.5-0.5-0.7
		c-0.4-1.7-1.5-2.9-3.1-3.5c-0.1,0-0.1,0.1-0.1,0.1c-0.1,0.5,0,0.8,0.4,1.1c-0.7-0.3-1.4-0.5-2.1-0.8c-0.8-0.4-1.3-0.9-1.4-1.7
		c1.3-4.2,4.1-5.6,8.3-4.1c-0.4,1.3-0.9,2.6-1.4,3.8C49.662,6,49.262,5.7,48.962,5.4z M58.662,23.8c-0.2,0.1-0.4,0.1-0.5,0.1
		c-1.7-0.3-2.9,0.1-3.7,1.2c-0.1,0-0.1,0-0.1,0c-0.1,0-0.2,0-0.3,0c0-0.3,0.1-0.8,0.2-1.1c0-0.1,0-0.1,0-0.1s0,0,0-0.1v-0.2
		c3.8-2.1,7.9-2.8,12.3-2.1c-0.1,0.8-0.1,1.5-0.1,2.3c-0.3,2.3-1,4.5-2.3,6.3c0-0.1,0-0.1,0-0.1c0,0.1,0,0.1,0,0.1
		c-0.3,0.5-0.6,1-1,1.4c-0.4,0.2-0.9,0.3-1.2,0.6c-0.2,0.1-0.3,0.2-0.5,0.3c-0.7,0-1.5,0.1-2.4,0.2c-0.3-0.1-0.6-0.3-0.8-0.5
		c-2-1.3-3.5-3-4.5-5c-0.1,0-0.1,0-0.1,0c0.1-0.5,0.2-0.8,0.3-1.3c0.7,0.3,1.4,0.5,2.2,0.7c0.4,0.7,0.9,1.3,1.4,1.8
		c0.8,0.6,1.5,0.7,2.1,0.1c0.2-0.6-0.1-1-0.9-1.2c-0.8-0.3-1.4-0.8-1.7-1.5c-0.5-0.1-0.9-0.2-1.3-0.3c1.7-0.4,3.3-0.5,4.9-0.3
		c0-0.2-0.1-0.3-0.2-0.3C59.862,24.4,59.262,24.1,58.662,23.8z M54.262,23.1L54.262,23.1c2.9-3.5,6.7-4.8,11.3-4
		c0,0.2,0.1,0.3,0.2,0.4c-0.4-0.1-0.8-0.2-1.2-0.3c-4.3-0.3-7.7,1.1-10.3,4.1C54.262,23.3,54.262,23.2,54.262,23.1z M51.362,23
		c0.4,0.4,0.8,0.8,1.4,1.1c-0.1,0.4-0.1,0.8-0.2,1.2c0,0.5-0.2,1-0.5,1.4c-0.2,0.1-0.3,0.2-0.3,0.3h-0.1c-0.9-0.2-1.8-0.5-2.8-0.6
		c-0.1-0.1-0.3-0.2-0.5-0.3v-0.2c0.1-0.4,0.1-0.8,0.2-1.1c0.1-0.5,0.2-1,0.3-1.5c0-0.1,0-0.2,0-0.4C49.462,22,50.262,22,51.362,23z
		 M53.762,29.5l-0.1-0.1c0-0.1,0-0.1,0-0.1c1,2.5,3.1,4.4,6.4,5.6c0.1-0.1,0.2-0.1,0.3-0.2c0.2-0.1,0.4-0.2,0.6-0.3
		c0.5,0.5,0.9,0.9,1.4,1.4c-0.3-0.1-0.5-0.2-0.8-0.2c2.6,2.1,5.1,4.9,7.5,8.3c3.4,5,4.3,10.2,2.6,15.5c-1.7,5.3-5.6,9.6-11.6,13.1
		c-6.1,3.4-13.7,3.5-22.9,0.2c-1.1-0.3-2.2-0.7-3.2-1.2c0,0.1,0,0.1,0.1,0.1c-2.8-1.2-5.4-2.6-8-4.1c-0.6-4.6-2.8-8.8-6.6-12.9
		c-0.4-0.1-0.7-0.2-0.9-0.5c-0.3-0.2-0.6-0.4-0.9-0.7c0.1-0.6,0.2-1.2,0.4-1.8c2.5-9.5,7.6-16.3,15.2-20.5c0,0,0.1,0,0.2,0.1
		c-0.1-0.1-0.1-0.1-0.2-0.1c0.2,0,0.3-0.1,0.4-0.1c1.3-0.5,2.6-0.8,4-1.2c0.7,1.1,2,1.8,3.6,2.2c0.1-0.1,0.2-0.1,0.3-0.1
		c3.1-0.5,5.2-1.6,6.4-3.3C49.962,28.6,51.962,28.9,53.762,29.5z M47.662,21.7c-0.3,0.4-0.5,1.1-0.6,1.7c-1.5-1.8-3.5-2.7-6.1-2.8
		l-0.4,0.1c1.7,0.9,3.4,1.8,5.1,2.7c-0.3-0.1-0.7-0.1-1.1-0.1c-0.8,0.3-1.6,0.6-2.4,1c-0.1,0-0.3,0.1-0.3,0.4v0.2
		c1.8-0.5,3.5-0.4,5,0c-0.1,0.4-0.1,0.9-0.1,1.2c-0.1,0-0.2,0-0.2,0c-0.1,0-0.2,0-0.3,0c0.2,0.2,0.4,0.3,0.6,0.4c0,0.4,0,0.8,0,1.1
		c-0.1,0.2-0.1,0.3-0.1,0.4c-2,1-4.1,1.6-6.2,1.8c-0.9-0.7-1.6-1.4-2.3-2.3c-0.1,0-0.2-0.1-0.3-0.1c-0.1-0.1-0.2-0.1-0.2-0.2
		c-0.2-0.1-0.3-0.2-0.4-0.4c-0.8-2-0.9-4.2-0.4-6.5c0.3-1.5,0.9-2.8,1.7-3.9c0-0.2,0.1-0.2,0.2-0.2c0.7,0,1.4,0,2.2,0.1
		c1.3,1,2.4,2,3.5,3.2C45.662,20.8,46.762,21.5,47.662,21.7z M67.162,28.5c-0.1,0-0.2,0-0.3,0.1c0.1-0.3,0.2-0.5,0.3-0.7
		c0-0.5,0-1,0.2-1.4c1.1,0.4,2,0.7,2.8,0.7c2.8,1.1,5,3.1,6.8,5.9c-0.5,1.6-0.3,2.8,0.5,3.5c0-0.1,0-0.2,0-0.3
		c-0.1-0.5,0.3-0.9,1.3-1.3c-0.1,0.1,0.3,0.3,1.1,0.5c0.9,0.2,1.6,1,2.3,2.3c-1.2,0.3-2.2,0.6-3,1c-2.1,0.9-3.7,0.6-4.9-0.9
		c0.2-0.3,0.3-0.5,0.3-0.8c0.1-0.5,0.2-1,0.3-1.5c0.1-0.1,0.2-0.2,0.2-0.5c0-0.1,0-0.2-0.1-0.3c0,0-0.1-0.1-0.1-0.2
		c-0.1-3.8-2.7-5.8-7.7-5.8C67.162,28.7,67.162,28.6,67.162,28.5z M65.862,30.5c0.3,0.1,0.6,0.1,0.8,0.1c3.4-0.6,5.7,0.5,7,3.2
		c-0.3,0-0.6,0-0.9,0.1c-0.5-0.4-1.2-0.5-2.1-0.1c-0.5,0.2-1.1,0.5-1.7,0.9v0.1c0-0.1-0.1-0.2-0.1-0.3c-0.8-1.5-1.9-2.7-3.2-3.6
		C65.662,30.7,65.762,30.6,65.862,30.5z M65.062,31.8c0.2,0.2,0.5,0.5,0.9,0.8c0-0.1,0-0.3,0.1-0.4c0.8,1,1.5,2.2,2.1,3.4
		c-0.1,0.4-0.1,0.9,0,1.4c-0.2,0.1-0.5,0.1-0.8,0.1c-0.2-0.2-0.4-0.4-0.6-0.6c-0.1,0.1-0.3,0.3-0.4,0.4c-1-1.3-2-2.5-3.2-3.6
		c0.1,0,0.2-0.1,0.4-0.1C64.062,32.8,64.562,32.3,65.062,31.8z M65.562,31.6c-0.1-0.1-0.2-0.1-0.4-0.2c0.1,0,0.1,0,0.1,0
		s0,0,0.1-0.1C65.362,31.4,65.462,31.5,65.562,31.6z M28.362,11.8c0,0-0.1,0-0.2,0c-1.1,0.6-1.1,1.1,0,1.3c0.5,0.1,0.9,0.2,1.3,0.3
		c2.8,1.2,5.2,2.2,7.3,3.2c-0.3,0.4-0.5,0.9-0.7,1.4c-0.5-0.4-1-0.7-1.4-1.1c-0.1,0.2-0.1,0.5-0.1,0.7c0.4,0.3,0.9,0.5,1.3,0.8
		c-0.1,0.1-0.1,0.4-0.2,0.5c-0.1-0.1-0.4-0.4-0.5-0.5c0,0.3,0,0.6-0.1,0.9c0.2,0,0.3,0,0.5,0.1c-0.1,0.3-0.3,0.6-0.3,1
		c-0.3-0.6-0.6-1-1-1.4c0,0.2-0.1,0.4-0.2,0.6c-1.5-2.5-3.9-4-7.4-4.3l-0.6-0.1c0.8,0.2,1.5,0.4,2.2,0.7c-0.2,0.1-0.3,0.2-0.4,0.2
		c-0.1,0-0.1,0-0.1-0.1c-0.2-0.1-0.4,0-0.4,0.3c0,0,0,0,0,0.1c-1,0.5-2.1,1.2-3.1,2c-0.3-0.2-0.6-0.5-0.8-0.7
		c-0.3-0.4-0.7-0.7-1-1.1c-0.3-0.7-0.5-1.5-0.5-2.2c-0.1-1-0.2-2-0.2-3c0.2-0.3,0.4-0.5,0.6-0.7c0.8-1.2,1.8-2,3.1-2.3
		c0.2,0.2,0.5,0.5,0.7,0.7C26.962,10,27.762,10.9,28.362,11.8z M28.362,17.3c0.2-0.3,0.3-0.7,0.5-1.1c2.8,1.3,4.6,3.8,5.3,7.3
		c0.1,0.2,0.3,0.3,0.4,0.5c0.2,0.2,0.3,0.3,0.5,0.4c0,0.5,0.2,1.1,0.4,1.5c-2.5-1.4-5.3-1.9-8.4-1.6c0.7-1.1,1.1-2.2,1.2-3.2
		l-0.1-0.1C28.662,19.8,28.662,18.5,28.362,17.3z M30.862,30.5c0.1,0,0.2,0,0.3,0.1c-0.5,0.3-1.1,0.7-1.5,1.2v-0.1v0.1
		c-0.4,0.3-0.7,0.6-1.1,1c1.4-2.4,0.8-5-1.8-8c0.1,0,0.1-0.1,0.2-0.2c3.1,0.5,6.1,1.3,9.1,2.4c0.2,0.3,0.5,0.6,0.8,0.9
		c-0.7,0.3-1.4,0.5-2.2,0.9c-0.9,0.3-1.6,0.6-2.4,1.1c0-0.1,0-0.1,0-0.1C31.762,30.1,31.362,30.3,30.862,30.5z M24.762,66.9
		c0,0.1,0,0.2,0,0.4c-0.1,0.2-0.1,0.5-0.1,0.7c0.2,0.2,0.3,0.3,0.3,0.4c0.1,2.4-0.2,4.6-0.9,6.7c-0.2,0.2-0.3,0.3-0.4,0.4
		c-0.4,0.4-0.7,0.9-0.9,1.3c-1.4,0.8-2.9,1.4-4.4,1.7c-4.7,0.1-8.7-1.9-11.9-6.1c-5.9-7.7-5.8-14.7,0.2-21.1
		c8.6,1,14.2,5.6,16.9,13.8c0.2,0.2,0.4,0.4,0.6,0.6C24.362,66.1,24.562,66.5,24.762,66.9z M34.762,77.5c0-0.1,0.1-0.2,0.2-0.3
		c0.8-1,1.5-2,2-2.9c2.9,1,6,1.6,9.2,1.9v-0.1c0.2,0.1,0.4,0.1,0.6,0.1c0.2,0,0.5,0,0.8,0v0.1c0.3,0.1,0.7,0.1,1.1,0.2
		c-0.1-0.1-0.1-0.1-0.1-0.2c0.7,0,1.5,0,2.3,0c0,0.1,0.1,0.1,0.1,0.1c0.6,0.2,1.2,0.4,1.7,0.5c0,0.1,0,0.2,0.1,0.2
		c0.3,0,0.6,0,0.9,0c0.5,0,1.1,0,1.6-0.1c-0.4,0.4-0.8,0.8-1.1,1.3c-0.2-0.1-0.4-0.1-0.5-0.2c-0.4,0.2-0.6,0.4-0.9,0.7
		c0,0,0,0-0.1,0c-0.3,0.2-0.7,0.4-1.2,0.6C45.162,79.8,39.562,79.2,34.762,77.5z M25.162,75.3c0.1-0.3,0.2-0.6,0.3-0.9
		C25.362,74.7,25.262,75,25.162,75.3c0,0.1,0,0.1-0.1,0.1C25.162,75.4,25.162,75.4,25.162,75.3z M57.762,75.5c0.4,0,0.7-0.1,1-0.2
		c-0.4,0.2-0.8,0.4-1.2,0.6C57.662,75.8,57.762,75.7,57.762,75.5z M56.262,75.9c0.2-0.1,0.4-0.1,0.6-0.2c-0.3,0.3-0.7,0.5-1,0.8
		c-0.5-0.1-1-0.3-1.5-0.4C55.062,76,55.662,75.9,56.262,75.9z M58.262,79c-0.2,0.3-0.4,0.5-0.6,0.8c0.1,0.1,0.2,0.2,0.2,0.1
		c0.7-0.1,1.2-0.2,1.7-0.3c0,0.1,0,0.2,0,0.3c11.3-5.9,21.2-4.6,29.9,3.6c-8.7,2.1-17.6,2.8-26.5,2c-3.5-0.7-6.4-1.6-8.8-2.9
		c0.1-0.2,0.2-0.4,0.3-0.6c0.7-1.5,1.4-2.8,2-4c1.2-1.3,2.9-2.1,5-2.6c-0.1-0.1-0.2-0.2-0.2-0.2c-0.4-0.1-0.8-0.2-1.3-0.3
		c1.4-0.5,2.7-1.1,3.9-1.9c0.2,0.3,0.4,0.5,0.7,0.8c-0.1,0.1-0.1,0.2-0.2,0.3c-0.8,0.8-1.6,1.7-2.4,2.5c-0.1,0.1-0.2,0.1-0.3,0.2
		c-1,0.7-2,1.4-3.1,2.1C58.462,78.9,58.362,79,58.262,79z"/>
	<path style="fill:#BE3689;" d="M41.662,36.1c-0.3-0.4-0.9-0.7-1.7-0.9c-0.1-0.2,0-0.3,0-0.4c0.3-0.6,0.3-1.2,0-1.6
		c-0.4-0.1-0.6-0.1-0.8,0.2c-0.4,0.9-0.4,1.8-0.2,2.6c0.2,0.2,0.4,0.4,0.6,0.6c-0.3,0.1-0.7,0.2-1.1,0.4c-0.6-0.3-1.2-0.7-1.8-1.2
		c0-0.1,0-0.2,0.1-0.4c0-0.4,0-0.8-0.2-1.1c-0.3,0-0.3,0-0.4,0.1c-0.5,0.7-0.7,1.4-0.4,2.2c0.4,0.5,0.9,0.9,1.3,1.2
		c-0.1,0-0.3,0.1-0.4,0.2c-1.1-0.2-1.9-0.8-2.4-1.7c-0.4-0.2-0.6-0.1-0.7,0.3c-0.2,0.8,0.2,1.5,1.2,2c0.2,0.1,0.4,0.2,0.5,0.3
		c-5.2,3.9-5.9,8.7-2.2,14.3c4.4,2.2,8.7,2.1,12.7-0.1c2.2,2.7,5.1,3.7,8.7,3.1c5.7-1.1,8.1-4.4,7.3-9.9c-0.1-0.1-0.2-0.3-0.2-0.4
		c-0.6-1.6-1.4-3-2.3-4.2c0.2,0,0.4-0.1,0.6-0.1c0.1-0.2,0.3-0.3,0.4-0.3c1.1-0.7,1.3-1.6,0.8-2.5v-0.1c-0.9,0.9-1.9,1.5-3.1,1.7
		c-0.3-0.3-0.6-0.5-0.9-0.8c0.5-0.3,1-0.7,1.4-1.1c0.1-0.1,0.1-0.2,0.1-0.4c0.2-0.6,0.2-1.2,0-1.8l-0.2-0.1c-0.6,1.7-1.6,2.5-3,2.5
		c0,0,0,0-0.1-0.1c0.1,0,0.1-0.1,0.2-0.1c0.6-1.1,0.9-2.2,0.9-3.3c-1,0.3-1.7,1.3-2.3,2.9c-0.1,0-0.1,0-0.1,0
		c-0.9-0.3-1.9-0.5-2.9-0.7c-0.3,0.1-0.6,0.2-1,0.4c-0.9,0.2-1.6,0.7-2,1.5c-0.1,0-0.2,0.1-0.3,0.1
		C46.062,37.1,43.962,36,41.662,36.1z M43.762,37.6c0.2,0.2,0.4,0.4,0.5,0.5c1.1,1.1,2,2.1,2.9,3c0.1,0,0.1,0,0.2,0
		c0.5,0.2,0.9,0.4,1.4,0.6c0.2-0.3,0.4-0.5,0.6-0.9c0.2-0.5,0.6-1,1-1.4c4.9,0.2,8.1,2.7,9.7,7.5c0,0.7,0,1.4,0,2
		c-0.1,3-1.7,5-4.8,5.9c-4,0.6-7-0.8-9.1-4c-7.8,4.5-12.6,3-14.4-4.6c0-0.1,0.1-0.2,0.2-0.3c1.6-4.5,4.9-7.4,10-8.5
		C42.562,37.5,43.162,37.6,43.762,37.6z"/>
	<path style="fill:#BE3689;" d="M39.062,45.5c-0.6,0.6-0.5,1.1,0.1,1.6c0.7-0.3,1.3-0.8,1.8-1.4c0.1-0.2,0.3-0.4,0.6-0.6
		c0.1-0.1,0.3-0.1,0.4-0.1c0.4,0,0.7,0,1.2,0c0.2,0.3,0.5,0.6,0.8,0.8c0.2,0.2,0.3,0.3,0.5,0.4c0.1,0.6,0.4,1.1,0.8,1.5
		c0.2,0.2,0.4,0.3,0.7,0.3c0.1-0.1,0.1-0.2,0.1-0.2c-0.3-2.5-1.7-3.9-4.2-4.2c-0.2,0.1-0.4,0.1-0.6,0.2c-0.3,0.1-0.5,0.2-0.8,0.2
		C39.962,44.5,39.462,45,39.062,45.5z"/>
	<path style="fill:#BE3689;" d="M52.662,45.7c0.3,0.3,0.6,0.7,0.8,1.1c0.8,1.8,1.7,2.6,2.7,2.5c0-0.2,0-0.3,0-0.4
		c-0.5-2.5-1.9-3.9-4.3-4.5c-0.6,0.1-1.2,0.3-1.9,0.7c-1.4,0.7-2.1,1.7-2.1,3c0.6,0.1,1-0.1,1.4-0.6c0.5-0.8,1.3-1.5,2.4-1.8
		C51.962,45.7,52.262,45.7,52.662,45.7z"/>
	<path style="fill:#BE3689;" d="M28.462,53.7c-0.3,0.4-0.2,0.7,0.2,1c0.1,0.6,0,1.2-0.3,1.8c0.8,8,5.3,13.2,13.4,15.6
		c1.6,0.5,3.1,0.6,4.7,0.4c9.1-1.2,14.2-6.1,15.5-14.7c0.2-0.1,0.5-0.1,0.7-0.2c-0.1-0.2-0.2-0.3-0.2-0.3c-0.2-0.1-0.3-0.1-0.5-0.2
		c0-0.1,0-0.1,0.1-0.1c-0.1,0-0.1,0-0.1,0.1c-0.2-0.2-0.4-0.2-0.7-0.3c-0.3,0.1-0.7,0.2-1.1,0.3c-10.7,1.9-20.8,0.8-30.6-3.2l0,0
		C29.162,53,28.762,52.9,28.462,53.7z M39.362,67.6c-0.1,0.1-0.3,0.2-0.3,0.3c-0.2,0.5-0.4,0.9-0.6,1.4c-5.5-2.5-8.5-7.2-8.8-14.1
		c10.5,4.9,21.2,5.8,32,2.7c-1.6,3.8-4.1,7.2-7.4,10.5c-1,1-2.1,1.8-3.3,2.2c-0.9-2.9-3.3-4.4-7.1-4.3c-1.4,0-2.7,0.3-4,1
		C39.662,67.3,39.562,67.4,39.362,67.6z M48.062,68.4c0.8,1,1.6,1.8,2.4,2.4c-1.2,0.4-2.3,0.5-3.6,0.4c-2.9-0.2-5.5-0.8-7.7-1.6
		C41.462,67.3,44.362,66.9,48.062,68.4z"/>
	<path style="fill:#BE3689;" d="M48.762,74c0-0.2-0.1-0.2-0.1-0.3c-0.5-0.2-1-0.4-1.5-0.6c-0.7,0.5-1.6,0.6-2.6,0.3
		c-1.2-0.3-2.4-0.5-3.7-0.6c0,0.1,0,0.1,0,0.1C43.362,74.4,45.962,74.7,48.762,74z"/>
	<path style="fill:#BE3689;" d="M11.462,89c1.5,0.4,2,0.2,1.6-0.7c3-1.6,6.1-3.1,9.1-4.7c0.1,0,0.2,0,0.3-0.1c0.9-0.4,1.5-0.8,1.6-1
		c2-0.9,3.9-1.7,5.7-2.4c-0.2,0-0.4-0.1-0.6-0.1h-0.1c-0.2,0-0.3,0.1-0.5,0.1c-1.3,0.5-2.5,0.8-3.6,0.9c-0.7,0.2-1.3,0.6-2,0.9
		c-0.1,0-0.2,0-0.3,0C18.462,84,14.762,86.4,11.462,89z"/>
	<path style="fill:#BE3689;" d="M13.362,86.1c3.1-1.6,4.2-2.8,3.3-3.7c0,0,0,0.1-0.1,0.1c-3.3,1.5-6.4,3.5-9.1,5.9
		C9.462,87.8,11.462,87.1,13.362,86.1z"/>
	<path style="fill:#BE3689;" d="M31.062,77.9c-0.1,0.1-0.1,0.1-0.1,0.2c0.4-0.3,0.8-0.5,1.2-0.7c0.4-0.3,0.8-0.6,1-0.9
		C32.662,77,31.962,77.5,31.062,77.9z"/>
</g>
</svg>
