<?xml version="1.0" encoding="iso-8859-1"?>
<!-- Generator: Adobe Illustrator 12.0.1, SVG Export Plug-In . SVG Version: 6.00 Build 51448)  -->
<!DOCTYPE svg PUBLIC "-//W3C//DTD SVG 1.1//EN" "http://www.w3.org/Graphics/SVG/1.1/DTD/svg11.dtd" [
	<!ENTITY ns_svg "http://www.w3.org/2000/svg">
	<!ENTITY ns_xlink "http://www.w3.org/1999/xlink">
]>
<svg  version="1.1" id="Layer_1" xmlns="&ns_svg;" xmlns:xlink="&ns_xlink;" width="94.247" height="95.833"
	 viewBox="0 0 94.247 95.833" style="overflow:visible;enable-background:new 0 0 94.247 95.833;" xml:space="preserve">
<g>
	<path style="fill:#BE3689;" d="M82.2,23.293c0.6-1.2,0.7-2,0.2-2.5c1-0.2,2-0.2,3.1-0.2c0.1,0,0.1,0,0.1,0.1
		c0.7-0.2,1.4-0.3,2.1-0.5c4.7-1.3,6.9-4.3,6.5-9.1c-0.7-8.4-6.1-12-16-10.9c-2.7-0.3-5.3,0.2-7.7,1.6c-1.5,0.9-2.7,1.9-3.8,3.2
		c-1.2,3.2-0.9,6.2,0.8,8.9c2.3,3.6,5.2,5.8,8.9,6.8c-0.4,0.6-0.5,1.4-0.4,2.3c1.4,1.3,3,1.8,4.9,1.3c0.3-0.2,0.7-0.4,1.1-0.7
		C82.1,23.493,82.1,23.393,82.2,23.293z M80.2,21.293c0.4-0.1,0.8-0.2,1.3-0.3c-0.2,0.9-0.7,1.6-1.6,2c-0.7,0-1.4-0.1-2.1-0.1
		c-0.2-0.1-0.3-0.3-0.3-0.4c-0.2-0.5-0.3-1.1-0.3-1.6c1,0.2,2.1,0.3,3.2,0.3C80.3,21.293,80.3,21.293,80.2,21.293z M83.3,2.093
		c8.6,1.3,11.6,5.7,9,13.2c-1.2,1.6-2.7,2.6-4.6,3.2c-9.2,2.7-15.9,0.6-19.9-6.3c-0.1-1-0.1-1.8-0.3-2.7c-0.1-1.1-0.1-2.3,0.3-3.3
		c0.1-0.2,0.2-0.3,0.3-0.4c1.4-2.1,3.5-3.5,6.1-4C77.2,1.593,80.3,1.693,83.3,2.093z"/>
	<path style="fill:#BE3689;" d="M90.6,6.293c-0.1-0.1-0.1-0.2-0.2-0.4c0-0.1-0.1-0.2-0.2-0.3c-0.1-0.2-0.2-0.3-0.3-0.4
		c-0.1-0.2-0.3-0.2-0.5-0.3c-2.9-0.8-5.8-1.2-8.7-1.2c-3.4,0.1-6.7,0.5-10,1.2c-0.6,0.6-1,1.3-1.3,2c-0.1,0.2-0.1,0.4-0.1,0.6
		c0,0.2,0,0.3,0,0.4c0,0.2,0,0.3,0,0.4s0.1,0.2,0.2,0.2c0.5,0.3,1,0.5,1.5,0.7c0.1,0,0.2,0.1,0.2,0.2c0,0.2,0,0.3,0,0.4
		c0,1.1,0,2.2,0,3.4c0,0.5,0,1,0,1.5c0,0.2,0,0.5,0,0.7c1.6,1,3.4,1.8,5.3,2.6c1.2,0.4,2.2,0.5,3.2,0.2c0-0.2,0-0.3,0-0.4
		c3.4-1.6,6.7-3.3,9.7-5c-0.1-0.1-0.1-0.2-0.2-0.4c-0.4-1.4-0.8-2.8-1.1-4.2c0.9-0.2,1.8-0.3,2.7-0.4
		C91,7.193,90.9,6.693,90.6,6.293z M78.9,10.693c2.4-1,5-1.7,7.7-2.2c-0.3,1-0.1,2.2,0.7,3.7c-2.8,1.1-5.3,2.5-7.6,4.1
		c-0.2-1.5-0.4-3-0.7-4.5C78.9,11.493,78.9,11.093,78.9,10.693z M81.4,7.793c-0.1-0.1-0.2-0.2-0.3-0.3c-1.1-1.1-1.3-1.7-0.4-2.1
		c2.7-0.2,5.4,0.1,8,1C86.1,6.693,83.7,7.193,81.4,7.793z M72.2,8.393c-0.2-0.1-0.2-0.2-0.3-0.2c-2.3-0.4-2.4-1-0.2-1.8
		c2.8-0.4,5.5,0.1,8,1.5c-0.9,0.4-1.6,0.8-2.3,1.3c0,0.6,0,1.2,0.1,1.8c0.1,2,0.4,3.9,0.9,5.7c-2.4-0.3-4.5-1-6.2-2.3
		c0-0.7,0-1.5,0-2.2C72.2,10.893,72.2,9.693,72.2,8.393z"/>
	<path style="fill:#BE3689;" d="M89.8,90.093c0-0.1-1.5-1.5-4.5-4.4c-3-2.8-8.8-4.6-17.3-5.3c-2.5,0.5-5,1.1-7.6,2
		c-0.8,0.2-1.5,0.6-2,1.1c0,0,0,0-0.1,0c-0.2-1.1-0.7-2.1-1.5-2.8c0.9-0.3,1.8-0.5,2.7-0.8c5.9-2,10-6.1,12.2-12.4
		c3.7-10.8,1.2-19.5-7.7-26c-0.2-0.2-0.4-0.5-0.6-0.8c1.3-1,2.8-0.9,4.5,0.3c0.6,0.5,1.1,0.4,1.6-0.2c-0.2-0.9-0.7-1.6-1.4-2.4
		c-0.2-0.3-0.4-0.6-0.6-1c0-0.4,0-0.8,0.1-1.1c0.1-0.2,0.2-0.2,0.3-0.3c1.1-0.3,2.1-0.6,3.1-0.8c0.1,0.1,0.2,0.3,0.4,0.4
		c0,0.4,0,0.8,0,1.2c0,0.2,0,0.5-0.1,0.7c-0.1,0.8,0.1,1.4,0.5,1.9c5.9,1.4,9.2-0.6,9.8-6c-1.8-1.1-3.9-1.8-6.2-2
		c-0.3-0.3-0.7-0.6-1.1-1h-0.2c-0.4-0.4-0.8-0.6-1.3-0.8c-0.4,0-0.6,0-0.8,0c-1.9-1.8-4.6-2.6-8-2.5c-0.4,0.3-0.9,0.4-1.5,0.4
		c-0.3,0-0.5,0.1-0.7,0.1c-0.1-0.5-0.2-1.1-0.3-1.6c0.5,0.3,1,0.6,1.5,0.9c0.2-0.1,0.3-0.1,0.5-0.3c4.1-2.6,5.8-6.1,5.1-10.4v-0.1
		c-0.1,0-0.2-0.1-0.3-0.2c0,0,0,0-0.1,0c-0.4-0.1-0.8-0.2-1.2-0.3c-2.8-0.3-5.3,0.3-7.5,1.9c-7.1-0.4-12,2.4-14.6,8.3
		c-0.1,0-0.2-0.2-0.2-0.3c-3.7-4.7-8.5-7.3-14.4-7.7c-0.2-0.2-0.2-0.3-0.3-0.4c-1.3-1.7-2.9-2.6-5-2.8c0,0.1,0,0.1,0,0.1
		c-1.4,0.8-2.2,1.9-2.6,3.3c-0.3,1.2-0.6,2.4-1,3.6c0,0.2,0,0.3,0.1,0.3c0.4,0.5,0.6,1,0.8,1.5c0.2,0.9,0.6,1.7,1.3,2.4
		c1.7-0.2,3.3-0.3,4.9-0.4c0.4-0.3,0.6-0.5,0.9-0.8c0.2-0.3,0.5-0.5,0.7-0.7c-0.5,1.1-0.9,2.3-1,3.6c-2-1.4-4.5-1.3-7.5,0.4
		c-0.2-0.1-0.4-0.1-0.6-0.1c-0.1,0-0.2,0.1-0.3,0.2c-0.2,0-0.4,0-0.6,0c0,0,0,0-0.1-0.1c-1.4-0.8-2.9-1.2-4.5-1.3
		c-0.6,0.2-0.9,0.7-0.8,1.6c0,1.5,0.2,2.9,0.6,4.4c0.3,1.7,1.1,3.2,2.2,4.5c0.3,0.2,0.5,0.3,0.7,0.5c1.7,1.1,3.3,1.1,4.8,0
		c0.1-0.2,0.1-0.5,0.1-0.7c0-0.8,0.1-1.5,0.4-2.1c0,0,0-0.2,0.1-0.2c0.1,0.1,0.3,0.2,0.4,0.3c0,0.4,0,0.8,0,1.1c0,0.4,0,0.7,0,1.1
		c0,0,0,0,0,0.1c-0.2,0.1-0.3,0.2-0.5,0.3c-0.9,0.8-1.3,1.7-1.2,2.6c1.6-0.2,3.1-0.3,4.4-0.3c-0.4,0.5-0.9,0.9-1.3,1.5l0,0
		c-0.4,0.5-0.8,1-1.1,1.5c-3.4,3.7-5.9,8.2-7.3,13.4c-2.3,9,0.2,15.7,7.6,20.1c2.6,1.5,5.3,2.8,8,3.7c-0.2,0.2-0.3,0.4-0.6,0.5
		c0,0.3,0,0.5-0.1,0.7c-0.3,0.7-0.5,1.4-0.4,2.3c-0.3-0.1-0.6-0.3-0.9-0.5c-0.2-0.1-0.3-0.1-0.2,0.1c0,0,0.1,0.1,0.2,0.3
		c-3.6-2.4-7.8-3.4-12.6-3.1c-1.3,0.4-2.6,0.7-3.9,1.1c-1.2,0.2-2.9,1.3-5,3.3c-2.2,2-3.5,3.4-4,4.1c-0.7,0.8-0.9,1.8-0.5,2.8
		c0.1,0.3,0.2,0.5,0.3,0.8c0.5,0.1,1.1,0.2,1.7,0.2c-1.4,0.3-2.5,1-3.1,2.2c0.1,0.1,0.2,0.2,0.2,0.1c2.6-0.2,4.1-0.9,4.3-2.1
		c1.1,0.2,2.2,0.3,3.4,0.4c-1.4,0.4-2.6,1-3.8,1.9c0.1,0.2,0.1,0.2,0.1,0.2c2.7-0.4,4.6-1,5.7-2c1.2,0.1,2.4,0.1,3.6,0.2
		c-1.2,0.4-2.4,1-3.5,1.8c0.4,0.6,1.1,0.7,1.9,0.3c0,0,0.2-0.1,0.3-0.1c2-0.6,3.5-1.2,4.5-2c1.3,0,2.6,0,3.9,0c-1,0.5-2,1-3,1.6
		c0.3,0.2,0.6,0.2,0.8,0.2c1.9-0.6,3.8-1.3,5.6-2c1.8-0.2,3.5-0.4,5.3-0.6c-1.7,0.8-3.2,1.7-4.8,2.6c0.1,0.1,0.2,0.2,0.3,0.2
		c0.4,0.2,0.8,0.3,1.2,0.3c0.1-0.2,0.3-0.3,0.4-0.3c2.7-1.3,5.5-2.5,8.3-3.7c0.8-0.1,1.7-0.3,2.6-0.5c0-0.2,0-0.4-0.1-0.6
		c1.9-0.8,3.7-1.6,5.6-2.4c-0.2-0.2-0.4-0.3-0.6-0.3l0,0c1.5-0.8,3-1.4,4.4-1.9c0.4-0.1,0.8-0.2,1.1-0.3c-0.3,0.4-0.6,0.9-0.8,1.5
		c-5.4,1.8-9.8,4.5-13.1,7.8c0.2,0.1,0.4,0.1,0.6,0c4.8-2.4,8.9-4.8,12.3-7.4c-0.1,0.5-0.3,1-0.3,1.6c0.6,0.4,1.2,0.8,1.9,1.1
		c-3.5,1-6.1,2.7-7.9,5.1c0.2,0.1,0.3,0.1,0.5,0c2.7-1.7,5.6-3.2,8.7-4.5c0.9,0.3,1.8,0.6,2.8,0.8c-1.9,1-3.6,2.1-5.3,3.3l0.1,0.2
		c2.4-0.8,4.7-1.9,6.8-3.3c1.3,0.5,2.6,0.8,4,1c-0.7,0.3-1.5,0.6-2.4,0.9c0,0.1-0.1,0.1-0.1,0.2c-0.8,0.4-1,0.9-0.7,1.5
		c0.8,0.2,1.6,0,2.4-0.4c1.7-0.8,2.7-1.5,3.1-2.1c0.7,0.1,1.4,0.1,2.1,0c0.7,0.1,1.5,0.2,2.3,0.2c-0.8,0.5-1.6,1.1-2.2,1.7v0.3
		c2.4-0.3,3.7-1,4-1.9c1.5,0,3,0,4.5-0.1c-0.5,0.4-1,0.8-1.2,1.3c0.2,0.1,0.4,0.2,0.7,0.1c1.7-0.3,2.9-0.9,3.8-1.7
		c1.4-0.2,2.9-0.4,4.4-0.7c-1.1,0.6-2,1.5-2.7,2.5c0.7,0.5,1.4,0.4,2.4-0.1c2.3-1.3,3.8-2.4,4.4-3.4
		C87.4,90.993,88.6,90.493,89.8,90.093z M80,34.793c-0.1,0.1-0.2,0.2-0.2,0.4c-0.2,0.2-0.3,0.4-0.5,0.6c-0.6,0.7-1.2,1.3-1.8,2
		c-1.6,0.6-3.2,0.8-4.9,0.3c0-0.2,0-0.5,0-0.7c0-0.3,0-0.5,0-0.8c0-0.3,0-0.7,0-1c0.2,0.4,0.9,0.6,2.2,0.7c-0.1-0.2-0.2-0.3-0.3-0.4
		c-0.3-0.6-0.7-1.1-1.2-1.5c-0.1,0-0.2,0-0.3,0.1c-0.2,0.3-0.3,0.4-0.4,0.6c0-0.1,0-0.2,0-0.3c-3.2-3.5-6.9-4.5-11.1-3.3
		c0.2-0.9,0.3-1.7,0.3-2.6c4-0.5,7.7,0.4,11.1,2.7c0.2,0.4,0.5,0.8,0.7,1.3c0.4-0.1,0.8-0.1,1.1,0c0.5,0.5,1.1,0.9,1.8,0.9
		c0-0.2,0-0.3,0-0.4c-0.1-0.1-0.1-0.2-0.2-0.4C77.8,33.293,79.1,33.793,80,34.793z M60.7,21.293c0-0.4,0-0.8-0.1-1.2c0,0,0,0,0,0.1
		c-0.2,0.3-0.4,0.6-0.4,1c-0.1-0.1-0.1-0.1-0.2-0.1c-0.1,0.1-0.1,0.1-0.1,0.2c-0.6-0.4-1.2-0.6-1.9-0.7c-2.8-0.2-5.4,0.5-7.8,2
		c-1.8,1.2-2.8,2.7-3,4.3c-0.1-0.1-0.2-0.1-0.2-0.1c-0.1,0.2-0.1,0.4-0.1,0.6c0,0.1,0,0.2,0.1,0.3c-0.5-0.3-1-0.4-1.5-0.5
		c0-0.1,0-0.1,0.1-0.2c-0.1,0-0.1,0-0.1,0c2.7-6.1,7.7-8.9,14.9-8.4c2.1-1.8,4.6-2.2,7.5-1.1c0,0.5-0.1,0.9-0.2,1.2
		c-0.2,0.5-0.3,1-0.4,1.4c-1.1,2.4-2.7,4-4.8,4.9c-0.2-0.2-0.5-0.5-0.7-0.7s-0.3-0.4-0.5-0.5c0-0.2-0.1-0.4-0.1-0.5
		c0-0.2,0-0.4,0-0.5C61.4,21.993,61.2,21.593,60.7,21.293z M59.8,22.093c0,0.2,0,0.5,0,0.8c-0.7-0.1-1.5-0.2-2.3-0.3
		c-4.2,0.5-7.4,2.5-9.3,5.9c-0.1,0-0.1-0.1-0.1-0.1c0-0.5,0.2-0.8,0.5-1.1c0-0.2,0-0.3,0-0.4c0,0.1,0,0.1-0.1,0.1h-0.1
		c0.5-0.9,1.4-1.7,2.4-2.2C53.9,23.093,56.8,22.193,59.8,22.093z M54.8,29.093c-0.1-0.1-0.2-0.2-0.3-0.2c-0.7-0.3-1.3-0.5-2-0.6
		c-0.1,0-0.3,0.1-0.5,0.1c-1.6,0.1-2.8,0.7-3.4,1.9c0,0,0,0-0.1,0c0,0-0.1,0-0.2,0.1c-0.1-0.4-0.1-0.8-0.1-1.2c0.1,0,0.1,0,0.1-0.1
		c-0.1,0-0.1,0-0.1,0c0-0.1,0-0.2,0-0.3c3.3-2.7,7.2-4.1,11.7-4.3c0.1,0.8,0.2,1.5,0.3,2.3c0.2,3-0.4,5.7-1.8,8.2
		c-0.4,0.3-0.8,0.5-1.1,0.8c-0.2,0.1-0.3,0.2-0.4,0.4c-0.8,0.1-1.6,0.3-2.4,0.7c-0.3-0.1-0.6-0.2-0.9-0.4c-2.1-0.9-3.9-2.3-5.3-4.1
		c-0.1,0-0.1,0-0.1,0c0-0.5,0-0.9,0-1.4c0.8,0.2,1.6,0.3,2.3,0.4c0.6,0.5,1.2,1,1.8,1.4c0.8,0.5,1.5,0.5,2.1-0.2
		c0.1-0.6-0.3-1-1.2-1.1c-0.8-0.1-1.4-0.5-1.9-1.1c-0.5,0-0.9,0-1.3-0.1C51.6,29.693,53.2,29.293,54.8,29.093z M48.8,34.793
		c-0.1,0-0.1-0.1-0.2-0.2v-0.1c1.5,2.3,3.9,3.8,7.3,4.4c0.1-0.1,0.2-0.2,0.3-0.2c0.2-0.2,0.4-0.3,0.5-0.4c0.6,0.4,1.1,0.7,1.6,1.1
		c-0.3-0.1-0.5-0.1-0.8-0.1c3,1.7,6,4,8.9,6.9c4.3,4.3,6.1,9.2,5.3,14.8c-0.7,5.5-3.8,10.5-9.1,14.9c-5.3,4.5-12.8,6-22.5,4.4
		c-9.7-1.6-17-5.5-21.9-12c-0.6-1.7-0.8-3.5-0.7-5.4c0.8-9.8,4.6-17.4,11.4-22.9H29c0,0,0,0-0.1,0c0.1-0.1,0.2-0.2,0.2-0.2
		c1.3-0.7,2.5-1.3,3.8-1.9c1,0.9,2.2,1.4,4,1.5c0.1-0.1,0.2-0.1,0.3-0.2c3-0.9,4.9-2.4,5.7-4.3C44.9,34.493,46.9,34.393,48.8,34.793
		z M42.9,26.893h-0.1c-0.2,0-0.4-0.1-0.7-0.1c0.1,0,0.1,0.1,0.1,0.2c0,0-0.1,0-0.2,0c0,0.1,0,0.1-0.1,0.2c-1.1-1.2-2.3-2.1-3.5-2.8
		c-2.4-2-5.1-2.7-8.1-2.3c-0.2,0.2-0.2,0.3-0.3,0.4c0.1-0.6,0.2-1.2,0.1-1.9c-0.2,0-0.3,0-0.4,0.2c-0.1,0.6-0.3,1.2-0.6,1.7
		c-0.3,0.2-0.6,0.3-1,0.4c-0.5,0.4-0.8,0.9-0.9,1.5c-1,0.4-2,0.4-2.9-0.1c-0.5-0.6-0.9-1.2-1.2-1.9c-0.1-0.2-0.2-0.5-0.3-0.8
		c0.3-0.6,0.6-1.4,0.7-2.2c0.1-1.3,0.9-2.5,2.1-3.4c0.7,0.2,1.3,0.6,1.8,1c0.7,0.8,1.5,1.5,2.2,2.3c1.8,0.2,3.5,0.6,5,1.2
		c4.5,1.6,7.8,3.8,9.9,6.6C43.9,27.093,43.4,26.993,42.9,26.893z M42.8,29.493c0-0.1,0-0.2,0-0.4c0.3-1,1.1-1.1,2.4-0.3
		c0.5,0.3,1,0.6,1.6,0.8c0,0.4,0,0.8,0,1.2c0.1,0.5,0,1-0.3,1.5c-0.1,0.1-0.2,0.2-0.2,0.3v0.1c-1-0.1-1.9-0.2-2.9-0.2
		c-0.1,0-0.4-0.1-0.6-0.2v-0.2c0-0.3,0-0.7,0-1.1C42.8,30.493,42.8,29.993,42.8,29.493z M39.7,30.193c-0.3-0.1-0.7,0-1.2,0.1
		c-0.7,0.3-1.4,0.8-2.1,1.3c-0.1,0.2-0.2,0.3-0.3,0.5l0.1,0.2c1.7-0.7,3.4-1,4.9-0.8c0.1,0.4,0.1,0.8,0.2,1.1c-0.1,0-0.2,0-0.3,0
		c-0.1,0.1-0.2,0.1-0.2,0.2c0.2,0,0.4,0.1,0.6,0.2c0.1,0.4,0.2,0.8,0.2,1.1c0,0.2,0,0.3,0,0.4c-1.7,1.4-3.7,2.3-5.8,2.9
		c-1-0.5-1.9-1.1-2.7-1.9c-0.1,0-0.2,0-0.3,0c-0.1-0.1-0.2-0.1-0.3-0.2c-0.1,0-0.2-0.1-0.4-0.3c-1.1-1.9-1.6-4-1.5-6.4
		c0-1.4,0.4-2.8,0.9-4.1c0.1-0.1,0.1-0.2,0.1-0.2c0.8-0.1,1.5-0.2,2.3-0.3c1.4,0.7,2.7,1.5,4,2.5c1.3,1,2.5,1.6,3.5,1.6
		c-0.2,0.5-0.3,1.2-0.4,1.8c-1.7-1.5-3.9-2-6.5-1.6l-0.4,0.1C36,28.993,37.8,29.593,39.7,30.193z M68,34.293L68,34.293
		c-0.2,0.1-0.3,0.2-0.5,0.3c-0.2,0.2-0.5,0.4-0.6,0.7c-0.2,0.1-0.3,0.2-0.4,0.3c0,0.7,0,1.3,0,1.9c0,0.1,0,0.1,0,0.1
		c-1.8-1.4-3.8-2.5-6.1-3c0-0.1,0-0.1,0-0.1c0.5-0.9,0.8-1.9,1.1-2.8c3.3-0.3,6.2,0.6,8.7,2.7C69.4,34.293,68.7,34.293,68,34.293z
		 M58.7,36.793c0.1,0,0.2-0.1,0.3-0.2c0.5-0.5,0.9-1,1.2-1.6c2,1.3,4.1,2.4,6.4,3.2c0.1,0.2,0.1,0.3,0.2,0.4c0,0.2,0.1,0.3,0.2,0.4
		c-0.3,0.1-0.6,0.1-1,0c-0.6-0.1-1.3-0.1-2-0.2c-0.3,0-0.5,0-0.7,0.1c-0.4,0.2-0.7,0.6-0.9,0.9C61.3,38.693,60,37.693,58.7,36.793z
		 M16.5,32.593c-0.4-1.4-0.6-2.9-0.4-4.6c0.6,0.2,1.2,0.4,1.7,0.7c0.3,0.2,0.7,0.4,1.1,0.6c-0.2,0.2-0.2,0.5-0.1,0.8
		c0.3,0,0.7-0.1,0.9-0.2s0.4-0.2,0.5-0.3c0.4,0.1,0.7,0.2,1.1,0.2c2.4-1.4,5-2,7.7-1.8c0,0.5-0.1,0.9-0.1,1.4c0,0.4,0,0.7,0.1,1
		c-0.1,0-0.2-0.1-0.2-0.1c-0.8-0.1-1.5-0.2-2.1-0.4c-0.4,0-0.8-0.1-1.2-0.3c-0.7,0.2-1.5,0.5-2.1,0.9c-0.1-0.1-0.2-0.2-0.4-0.2
		s-0.4,0.1-0.5,0.3c-1,0.7-1.6,1.7-2,2.7c0.6,0.2,1.1,0.2,1.7,0c0,0.1,0,0.2,0,0.3c-0.1,0-0.1,0.2-0.1,0.2h0.1
		c-0.1,0.4-0.2,0.8-0.2,1.1c-0.1,0.5-0.1,1-0.1,1.5c-0.4,0.1-0.8,0.2-1.2,0.1C18.5,35.993,17.1,34.693,16.5,32.593z M28.6,32.293
		c0.2,0,0.4,0,0.5,0c0.5,1.8,1.4,3.1,2.7,3.9c-0.7,0.3-1.3,0.7-2,1.2c-0.8,0.5-1.5,1-2.1,1.6c-0.9-0.6-1.8-1-2.7-1.2
		c0-0.1,0-0.1,0-0.2c0.3-0.1,0.5-0.3,0.7-0.5c1.2-1.3,2.8-2,4.6-2.2c-0.1-0.1-0.2-0.1-0.2-0.2c-0.8-0.2-1.7-0.3-2.6-0.3
		c-0.9,0.4-1.7,0.9-2.5,1.6c0-0.6,0-1.1,0-1.6c0-0.1-0.1-0.2-0.2-0.3c-0.4-0.2-0.7-0.4-1.1-0.7c0-0.4,0-0.6-0.1-1
		c0.2-0.1,0.3-0.2,0.4-0.3c1.2-0.8,2.5-1,3.9-0.6c0,0.1,0.1,0.1,0.1,0.1c0.1,0.2,0.2,0.2,0.3,0.3
		C28.4,31.993,28.5,32.093,28.6,32.293z M5.6,90.493c0.3-0.8,0.7-1.5,1.4-2.1c7.4-7.5,15.7-8.7,25-3.6c0.8,0.7,1.7,1.1,2.8,1.5
		c0-0.2-0.1-0.3-0.2-0.3c-0.5-0.6-1-1.2-1.7-1.6c0.1-0.2,0.1-0.3,0.1-0.5c0-0.1-0.1-0.2,0-0.4c0.3-1.3,0.5-2.4,0.3-3.2
		c1.2,0.3,2.4,0.7,3.6,1c-0.6,2.4-0.4,4.5,0.6,6.2c-0.2,0-0.3,0.1-0.5,0.1c0,0.5,0.2,0.8,0.5,1.2c0.4,0.3,0.7,0.7,1.1,1.1
		c0,0.1,0,0.1,0,0.1c-0.3,0.1-0.7,0.3-1,0.5c-2.1,0.2-4.2,0.5-6.3,0.6c-0.3-0.1-0.5-0.1-0.8-0.2c0,0.1,0,0.1,0,0.1
		c-0.4,0.1-0.6,0.2-1,0.3c-7,0.6-14.2,0.8-21.4,0.7C6.9,91.993,6.1,91.493,5.6,90.493z M50.6,84.793c0,0,0,0-0.1,0
		c-0.4,0.2-0.8,0.5-1.3,0.6c-0.1,0-0.1,0-0.2,0c0,0,0,0-0.1,0.1c-0.8,0.2-1.8,0.3-2.9,0.2c-3-0.1-5.7-0.2-8.1-0.3
		c-0.3-1.3-0.4-2.7-0.4-4c4.4,1,8.9,1.1,13.5,0.5c0.1,0.6,0.3,1.3,0.6,2.2C51.2,84.193,50.9,84.393,50.6,84.793z M57.5,83.893
		c-0.8,0.4-1.5,1-2,1.9c0.1,0.1,0.2,0.2,0.2,0.1c0.7-0.1,1.2-0.2,1.7-0.3c0,0.1,0,0.2,0,0.3c11.3-5.9,21.2-4.6,29.9,3.6
		c-8.7,2.1-17.6,2.8-26.5,2c-3.7-0.7-6.7-1.8-9.2-3.1c0-0.1,0.1-0.2,0.1-0.3c1.8-2.4,1.9-4.5,0.3-6.4c1.3-0.2,2.7-0.5,4-0.8
		C56.2,82.193,56.7,83.193,57.5,83.893z M38,86.393c0-0.1,0-0.2,0-0.4c0,0,0,0,0-0.1c0.6,0.2,1.3,0.4,2,0.5c-0.5,0.3-0.9,0.6-1.3,1
		C38.5,86.993,38.3,86.693,38,86.393z M45.7,86.793c-0.7,0.3-1.2,0.7-1.8,1.1c-0.4,0.2-0.9,0.4-1.4,0.5c-0.8,0.3-1.6,0.6-2.3,1
		c-0.3-0.5-0.6-0.8-0.9-1.1c-0.1-0.1-0.1-0.2-0.1-0.2c0.9-0.3,1.8-0.8,2.6-1.4C43.1,86.893,44.4,86.893,45.7,86.793z"/>
	<path style="fill:#BE3689;" d="M46.5,43.493c-0.8,0.4-1.3,1-1.7,1.9c0,0-0.1,0.1-0.2,0.1c-2.1-1.9-4.3-2.6-6.5-2.1
		c-0.4-0.3-1.1-0.5-2-0.6c0-0.2,0-0.3,0-0.4c0.2-0.7,0.1-1.2-0.3-1.5c-0.4-0.1-0.7,0-0.7,0.3c-0.2,0.9-0.1,1.8,0.3,2.6
		c0.2,0.1,0.4,0.3,0.6,0.4c-0.3,0.2-0.6,0.4-1,0.7c-0.6-0.3-1.4-0.5-2-0.9c0-0.1,0-0.2,0-0.4c0.1-0.4-0.1-0.7-0.4-1.1
		c-0.1,0.1-0.2,0.1-0.3,0.2c-0.4,0.8-0.4,1.5,0.1,2.2c0.4,0.4,0.9,0.8,1.4,0.9c-0.2,0.1-0.2,0.2-0.4,0.4c-1,0-1.9-0.5-2.6-1.3
		c-0.5-0.2-0.7,0-0.7,0.4c0,0.9,0.5,1.5,1.5,1.8c0.3,0.1,0.5,0.1,0.7,0.2c-4.5,4.7-4.4,9.6,0.3,14.5c4.8,1.4,8.9,0.5,12.5-2.4
		c2.6,2.3,5.6,2.8,9.1,1.4c5.4-2,7.2-5.7,5.4-10.9c-0.1-0.1-0.2-0.3-0.3-0.4c-0.8-1.5-1.8-2.8-3-3.7c0.2-0.1,0.4-0.2,0.6-0.3
		c0.1-0.1,0.2-0.2,0.4-0.4c0.9-0.8,1-1.7,0.3-2.6l0,0c-0.7,1.1-1.6,1.8-2.7,2.2c-0.4-0.2-0.8-0.4-1.1-0.6c0.4-0.4,0.8-0.9,1.2-1.3
		c0-0.2,0-0.3,0-0.4c0.1-0.7,0-1.3-0.4-1.9h-0.2c-0.2,1.8-1.1,2.8-2.4,3c-0.1,0-0.1,0-0.1,0c0-0.1,0-0.2,0.1-0.2
		c0.5-1.2,0.6-2.3,0.3-3.4c-0.9,0.5-1.4,1.6-1.8,3.2c0,0,0,0,0,0.1c-1-0.2-1.9-0.2-3-0.2C47.3,43.193,46.9,43.293,46.5,43.493z
		 M38.5,44.593c0.6,0,1.2,0,1.9-0.1c0.2,0.2,0.4,0.3,0.6,0.4c1.7,1.3,3.2,2.4,4.5,3.2c0.5-0.4,0.8-0.9,0.9-1.4
		c0.2-0.6,0.4-1.1,0.7-1.6c4.9-0.6,8.5,1.2,10.9,5.7c0.2,0.6,0.3,1.3,0.4,1.9c0.5,3-0.7,5.2-3.6,6.7c-3.9,1.2-7.1,0.5-9.8-2.4
		c-6.8,5.9-11.9,5.2-14.9-1.9c0-0.1,0-0.2,0-0.3C30.9,49.993,33.7,46.593,38.5,44.593z"/>
	<path style="fill:#BE3689;" d="M53.6,53.393c0-0.1-0.1-0.2-0.1-0.4c-0.6-0.8-1.4-1.1-2.5-0.9c0,0.1,0,0.1,0,0.1
		c-0.7,0.2-0.9,0.7-0.7,1.6c0,0.3,0.1,0.7,0.1,1.1c0.8,0.9,1.8,0.9,2.7,0c0.4-0.3,0.6-0.7,0.6-1.1
		C53.6,53.593,53.6,53.493,53.6,53.393z"/>
	<path style="fill:#BE3689;" d="M43.5,55.293c0.6-0.2,0.9-0.6,1-1.2c0.1-0.2,0.1-0.5,0.1-0.7c0-0.1-0.1-0.2-0.1-0.4
		c-0.6-0.8-1.4-1.1-2.5-0.9c0,0.1,0,0.1,0,0.1c-0.2,0.1-0.3,0.2-0.5,0.2c-0.1,0.1-0.2,0.2-0.4,0.2c-0.3,0.3-0.6,0.7-0.7,1.2
		c0,0.1,0,0.2,0,0.3C40.8,55.493,41.9,55.793,43.5,55.293z"/>
	<path style="fill:#BE3689;" d="M61.8,68.593c-0.1-0.1-0.3-0.2-0.3-0.3c-1.6-1-3.4-1.4-5.5-1c-2.6,0.4-5.3,1.2-7.9,2.3
		c-2.9,1.2-5.9,2.4-9,3.5c1,1,2.1,1,3.5,0.3C48.9,69.793,55.3,68.293,61.8,68.593z"/>
	<path style="fill:#BE3689;" d="M46.1,72.593c0.1,0.2,0.1,0.2,0.2,0.3c4.1,0.9,6.3-0.1,6.5-3c-0.3,0-0.4,0-0.4,0.1
		c-0.2,0.5-0.5,0.8-0.9,1C49.8,71.893,48,72.393,46.1,72.593z"/>
	<path style="fill:#BE3689;" d="M72,23.293c-0.4,0.2-0.6,0.6-0.6,1.1c0,0.4,0,0.8,0,1.1c0.1,0.8,0.4,1.4,1.1,1.8l1.5,0.5l0.3,0.3
		c0.6,0,1.2-0.3,1.8-0.7c0.3-0.5,0.4-1,0.5-1.5c0.1-0.6,0.1-1.3-0.1-1.9c-0.1-0.1-0.3-0.2-0.5-0.4c-0.2-0.2-0.5-0.5-0.7-0.7
		c-0.5-0.1-0.9-0.1-1.3-0.2c-0.3,0-0.6-0.1-1-0.1C72.7,22.793,72.4,22.993,72,23.293z M73.5,23.993c0.2,0,0.3,0,0.5,0
		c0.7,0.3,1.2,0.9,1.3,2c-1.1,0.9-1.9,0.7-2.7-0.5c0-0.1,0-0.2,0.1-0.3C72.8,24.793,73,24.293,73.5,23.993z"/>
	<path style="fill:#BE3689;" d="M73.8,28.493c0,0,0,0,0-0.1l-0.3-0.1c0,0,0,0,0,0.1C73.5,28.393,73.7,28.493,73.8,28.493z"/>
	<path style="fill:#BE3689;" d="M14.3,54.993c-0.3-0.2-0.6-0.3-0.9-0.3c-0.5-0.1-1-0.1-1.4-0.1c-0.1,0-0.2-0.1-0.3-0.2
		c-0.6-0.3-1.1-0.9-1.4-1.5c-0.4,0-0.8,0-1.2,0c0,0-0.1,0-0.2,0c-0.3-0.2-0.5-0.4-0.7-0.6c-0.6-0.6-1.1-1.2-1.4-1.9
		c-0.3-0.1-0.5-0.2-0.8-0.2c-0.3-0.1-0.6-0.1-0.9-0.2c-0.2,0-0.3,0-0.3,0.2c-0.3,0.9,0.2,1.4,1.3,1.4c0.2,0.3,0.2,0.5,0.4,0.8
		c0.9,1.5,1.9,2.1,3,1.9c0.8,0.6,1.6,1.1,2.5,1.5c0.4-0.1,0.7-0.1,1-0.3c0.2-0.1,0.4-0.2,0.6-0.4c0,0.7,0.1,0.8,0.5,0.5
		C14.2,55.393,14.3,55.293,14.3,54.993z"/>
	<path style="fill:#BE3689;" d="M8.5,59.293c-0.1-0.2-0.2-0.2-0.2-0.2c-1,0-2,0.4-2.8,1c-0.1,0-0.2-0.1-0.2-0.2
		c-0.8-0.9-1.7-1.4-2.8-1.6c-0.1,0-0.2,0.1-0.3,0.1c-0.1,0.1-0.2,0.2-0.3,0.4c-0.1,0.1-0.2,0.2-0.4,0.3c-0.3,0.2-0.6,0.2-0.9,0.3
		c-0.4,0-0.6,0.3-0.6,0.9c0.1,0.1,0.2,0.2,0.3,0.2c0.9,0.4,1.6,0.3,2.1-0.5c0.2-0.1,0.5-0.1,0.6-0.1c0.7,0.3,1.2,0.7,1.8,1.2
		c0.6,0,1.3,0,2,0c0.3-0.5,0.7-0.7,1.2-0.7c0,0.1,0.1,0.1,0.1,0.2c0.7,1.8,1.8,2.1,3.3,1.1c0-0.2,0-0.3,0-0.4
		c0.2-0.8-0.4-0.8-1.8-0.2c-0.2-0.1-0.4-0.4-0.5-0.7C8.9,59.993,8.7,59.593,8.5,59.293z"/>
	<path style="fill:#BE3689;" d="M13.8,67.293c-0.3-0.1-0.5-0.3-0.7-0.4c-0.5-0.2-1-0.4-1.6-0.6c-0.3,0-0.6,0.2-0.7,0.7
		c-0.1,0.8-0.7,0.8-1.5-0.2c-0.4,0-0.8,0-1.2,0c-0.4,0.2-0.7,0.6-0.7,1.1c0,0.2,0,0.5,0,0.7c-1.1,0.5-2.1,1.1-3,1.8
		c2.1,1.2,3.5,0.9,4.2-1.1c-0.1-0.5,0-0.7,0.2-0.6c0.5,0.1,0.9,0.3,1.3,0.6c0.6-0.1,1.2-0.2,1.7-0.4c0.1-0.1,0.2-0.2,0.2-0.4
		c0-0.3,0.1-0.6,0.2-0.6C12.7,67.693,13.2,67.493,13.8,67.293z"/>
</g>
</svg>
