<?xml version="1.0" encoding="iso-8859-1"?>
<!-- Generator: Adobe Illustrator 12.0.1, SVG Export Plug-In . SVG Version: 6.00 Build 51448)  -->
<!DOCTYPE svg PUBLIC "-//W3C//DTD SVG 1.1//EN" "http://www.w3.org/Graphics/SVG/1.1/DTD/svg11.dtd" [
	<!ENTITY ns_svg "http://www.w3.org/2000/svg">
	<!ENTITY ns_xlink "http://www.w3.org/1999/xlink">
]>
<svg  version="1.1" id="Layer_1" xmlns="&ns_svg;" xmlns:xlink="&ns_xlink;" width="76.3" height="86" viewBox="0 0 76.3 86"
	 style="overflow:visible;enable-background:new 0 0 76.3 86;" xml:space="preserve">
<g>
	<path style="fill:#BE3689;" d="M76.3,79.9c0-0.1,0-0.2,0-0.3C73,72.1,67,68.8,58.4,69.7c-0.7,0.1-1.5,0.4-2.1,0.7
		c-0.8-0.6-1.6-1.1-2.3-1.6c0.2-0.4,0.4-1,0.5-1.6c0-0.2,0-0.3,0-0.4c-0.1-0.9-0.3-1.6-0.8-2.3c5.5-2.1,9.2-6.1,11.4-12.1
		c3.7-10.8,1.2-19.5-7.7-26c-0.2-0.2-0.4-0.5-0.6-0.8c1.3-1,2.8-0.9,4.5,0.3c0.6,0.5,1.1,0.4,1.6-0.2c-0.2-0.9-0.7-1.6-1.4-2.4
		c-0.2-0.3-0.4-0.6-0.6-1c0-0.4,0-0.8,0.1-1.1c0.1-0.2,0.2-0.2,0.3-0.3c1.1-0.3,2.1-0.6,3.1-0.8c0.1,0.1,0.2,0.3,0.4,0.4
		c0,0.4,0,0.8,0,1.2c0,0.2,0,0.5-0.1,0.7c-0.1,0.8,0.1,1.4,0.5,1.9c5.9,1.4,9.2-0.6,9.8-6c-1.8-1.1-3.9-1.8-6.2-2
		c-0.3-0.3-0.7-0.6-1.1-1h-0.2c-0.4-0.4-0.8-0.6-1.3-0.8c-0.4,0-0.6,0-0.8,0c-1.9-1.8-4.6-2.6-8-2.5c-0.4,0.3-0.9,0.4-1.5,0.4
		c-0.3,0-0.5,0.1-0.7,0.1c-0.1,0-0.1-0.1-0.1-0.2c0.3,0.1,0.5,0,0.8,0c0.1-0.1,0.2-0.1,0.4-0.1c0.1-0.7,0.2-1.3,0.5-1.8
		c1.5-3.5,1.1-6.6-1.1-9.4c-0.8,0-1.5,0-2.3-0.1C53.2,1,53,1.1,52.7,1.3c-1.4,0.9-2.7,1.8-3.9,3c-3-0.2-5.5,0.6-7.7,2.3
		c-1.5,1.2-2.5,2.3-2.8,3.4c-1.1-2.8-3.3-4.5-6.6-5.2c-0.1,0-0.2,0-0.3,0C31.3,4.9,31.1,4.9,31,5c-0.2-0.1-0.3-0.1-0.4-0.1
		c-1.1-2.4-3-4-5.7-4.9c-0.1,0.1-0.4,0.2-0.6,0.4c-0.6,0.3-1.1,0.7-1.5,1.1c-0.4,0.8-0.6,1.6-0.9,2.3c-1.1,3.3-0.8,5.6,1,6.8
		c-0.2,0.6-0.4,1.2-0.4,1.8c-2-1.4-4.5-1.3-7.5,0.4c-0.2-0.1-0.4-0.1-0.6-0.1c-0.1,0-0.2,0.1-0.3,0.2c-0.2,0-0.4,0-0.6,0
		c0,0,0,0-0.1-0.1c-1.4-0.8-2.9-1.2-4.5-1.3c-0.6,0.2-0.9,0.7-0.8,1.6c0,1.5,0.2,2.9,0.6,4.4c0.3,1.7,1.1,3.2,2.2,4.5
		c0.3,0.2,0.5,0.3,0.7,0.5c1.7,1.1,3.3,1.1,4.8,0c0.1-0.2,0.1-0.5,0.1-0.7c0-0.8,0.1-1.5,0.4-2.1c0,0,0-0.2,0.1-0.2
		c0.1,0.1,0.3,0.2,0.4,0.3c0,0.4,0,0.8,0,1.1c0,0.4,0,0.8,0,1.1c0,0,0,0,0,0.1c-0.2,0.1-0.3,0.2-0.5,0.3c-0.9,0.8-1.3,1.7-1.2,2.6
		c1.6-0.2,3.1-0.3,4.4-0.3c-0.4,0.5-0.9,0.9-1.3,1.5l0,0c-0.4,0.5-0.8,1-1.1,1.5c-3.4,3.7-5.9,8.2-7.3,13.4
		c-2.3,9,0.2,15.7,7.6,20.1c1.7,0.9,3.3,1.8,5,2.6c-0.7,2.2-0.5,4,1,5.2c-1.8,1.9-4.1,2.5-6.8,1.9c-0.1,0-0.2,0-0.3,0
		c0,0.2,0,0.5-0.1,0.9c-1.7-0.5-3.5-0.7-5.4-0.6c-2.4,0.4-4.6,1.5-6.6,3.1c-2,1.8-3.4,3.7-4,5.8c0,0,0,0-0.1,0v0.1
		c0,0,0,0.2,0.1,0.2c-0.1,0.1-0.1,0.2-0.1,0.4c0-0.1,0.1-0.1,0.2-0.2c0.2,0.3,0.4,0.4,0.7,0.5c-0.1,0.3-0.1,0.6-0.1,0.8
		c0.5,0.4,1,0.7,1.5,0.9c-0.2,0.1-0.4,0.1-0.6,0.1c-1.2,0-2,0.6-2.4,1.5c0.2,0.1,0.4,0.1,0.6,0.1c1.3-0.5,2.5-0.9,3.8-1.4
		c1.5,0.2,3.1,0.4,4.6,0.6c-0.5,0.2-1,0.5-1.5,0.8c0.1,0.2,0.1,0.2,0.1,0.2c1.7-0.1,2.9-0.4,3.6-0.9c1.3,0.1,2.6,0.1,4,0.1
		c-0.9,0.6-1.1,1.3-0.8,2.1c0.1,0,0.1,0,0.1-0.1c2.1-0.7,3.4-1.5,3.9-2.1c1.6-0.1,3.1-0.2,4.6-0.4c-0.7,0.6-1.2,1.3-1.3,2.1
		c0.7,0.3,1.3,0.2,1.8,0c2.5-1.2,3.6-2.1,3.5-2.7c0.6-0.1,1.3-0.2,1.9-0.4c0.2-0.3,0.4-0.6,0.6-0.9c0.5-0.8,0.7-1.5,0.7-2.3
		c0-0.2,0-0.4,0-0.7c0.2,0.1,0.4,0.1,0.6,0c1.2-0.6,2.3-1.1,3.2-1.8c0,0.1,0,0.2,0,0.2c0.4-0.2,0.8-0.5,1.2-0.8
		c1.3,0.2,2.6,0.2,3.9,0.1c-0.7,0.3-1.2,0.7-1.8,1.1c-0.4,0.2-0.9,0.4-1.4,0.5c-0.7,0.3-1.5,0.6-2.3,0.9c0,0.1,0,0.1,0,0.2
		c-0.1,0.1-0.1,0.2-0.1,0.4c-1.9,1.2-3.5,2.6-4.8,4.1c1-0.3,2-0.7,3.1-1.3c0.8-0.5,1.4-0.9,2-1.3c0.1-0.1,0.2-0.1,0.4-0.1
		c0-0.1,0-0.2,0-0.3c0.2-0.2,0.4-0.4,0.6-0.5c1.5-0.7,3-1.4,4.6-2.1c-2.1,1.2-4,2.6-5.9,4.2c-1,0.8-2,1.7-2.8,2.5
		c0.2,0.1,0.4,0.1,0.6,0c1.2-0.6,2.3-1.2,3.3-1.7c0.6,0.1,1.2-0.2,1.8-0.8c1.6-1.1,3.3-2.1,5-2.9c2.6-1.2,3.7-2.5,3.5-3.8v0.1
		c-1.9,0.6-3.6,1.4-5.2,2.3c-0.2-0.2-0.4-0.3-0.6-0.3l0,0c0.6-0.4,1.3-0.7,2-1c0-0.2,0.1-0.5,0.1-0.7c1.3-0.3,2.5-0.8,3.8-1.3
		c0.6,1.4,1.3,2.8,2.1,4.4c0.1,0,0.1,0.1,0.1,0.2c-1.8,0.6-3.5,1.4-5.1,2.2c0-0.1,0-0.1-0.1-0.2c-1.9,1-3.5,2.3-4.7,3.9
		c0.2,0.1,0.3,0.1,0.5,0c0.4-0.2,0.9-0.6,1.4-0.8c0.4,0.1,0.9,0.2,1.5,0.1c0.1-0.2,0.2-0.3,0.4-0.3c3-1.2,5.2-2.6,6.5-4.3
		c0.4,0.6,0.9,1.1,1.4,1.7c0.2,0,0.4,0.1,0.6,0.2c-1.9,0.5-3.5,1.4-5.1,2.5c0.1,0.1,0.1,0.1,0.1,0.1c-0.2,0.2-0.4,0.3-0.6,0.4
		l0.1,0.2c0.3,0,0.6-0.2,0.9-0.3c0.5,0.3,1.2,0.3,1.9-0.1c2.4-1.1,3.5-1.9,3.4-2.6c1.2,0.4,2.4,0.7,3.7,1c-1.2,0.5-2.1,1.1-2.6,2
		c0.1,0.1,0.2,0.2,0.2,0.1c2.6-0.4,4-1,4.1-1.8c1.7,0.3,3.2,0.5,4.9,0.5c-0.4,0.4-0.8,0.8-1.1,1.4c0.1,0.2,0.1,0.3,0.1,0.2
		c1.8-0.2,2.8-0.7,3.1-1.6c1.4,0,2.9-0.2,4.3-0.4c-0.3,0.3-0.6,0.7-0.8,1.2c0.9,0.4,1.9,0.3,2.8-0.2c1.6-0.8,2.8-1.7,3.6-2.5
		C73.8,81.1,75,80.6,76.3,79.9z M73.2,20.1c-0.2,0.2-0.3,0.4-0.5,0.6c-0.6,0.7-1.2,1.3-1.8,2c-1.6,0.6-3.2,0.8-4.9,0.3
		c0-0.2,0-0.5,0-0.7c0-0.3,0-0.5,0-0.8c0-0.3,0-0.7,0-1c0.2,0.4,0.9,0.7,2.2,0.7c-0.1-0.2-0.2-0.3-0.3-0.4c-0.3-0.6-0.7-1.1-1.2-1.5
		c-0.1,0-0.2,0-0.3,0.1c-0.2,0.3-0.3,0.4-0.4,0.6c0-0.1,0-0.2,0-0.3c-3.2-3.5-6.9-4.5-11.1-3.3c0.2-0.9,0.3-1.7,0.3-2.6
		c4-0.5,7.7,0.4,11.1,2.7c0.2,0.4,0.5,0.8,0.7,1.3c0.4-0.1,0.8-0.1,1.1,0c0.5,0.5,1.1,0.9,1.8,0.9c0-0.2,0-0.3,0-0.4
		c-0.1-0.1-0.1-0.2-0.2-0.4c1.5,0.3,2.8,0.8,3.7,1.8C73.3,19.8,73.2,19.9,73.2,20.1z M73.8,78.9c0,0.1,0.1,0.2,0.1,0.3
		c-0.1,0-0.3,0.1-0.4,0.1c0-0.1,0-0.2-0.1-0.3C73.4,79.1,73.5,79,73.8,78.9z M52.4,5.9c0.1-0.1,0.1-0.2,0-0.2
		c-0.5-0.4-1.1-0.7-1.7-0.9c1.2-1.2,2.6-1.9,4.2-2.1c0.4,0.7,0.7,1.5,0.9,2.3c0.6,2,0.4,4-0.6,5.8c-0.1-0.1-0.3-0.1-0.3-0.1
		C54.7,9.8,54.4,8.9,54,8c-0.1-0.1-0.2-0.1-0.4-0.2c-0.9-0.1-1.8-0.2-2.7-0.3C50,7.6,49.2,7.8,48.4,8c-0.9-0.4-1.9-0.6-3-0.5
		c-1.1,0.2-2.1,0.7-3,1.5c-0.7,0.6-1.2,1.3-1.4,1.9c-0.2,0.1-0.4,0.2-0.5,0.2c-0.1,0.4-0.2,0.8-0.2,1.2c0,0.1,0,0.2,0.1,0.3
		c-0.5-0.3-1-0.4-1.5-0.5c0.1-0.3,0.2-0.6,0.3-0.8h-0.1c1.7-3.6,4.6-5.5,8.8-5.7C48.9,6.3,50.4,6.4,52.4,5.9z M53.3,9.4
		c0.1,0.8,0.2,1.5,0.3,2.3c0.2,3-0.4,5.7-1.8,8.2c-0.4,0.3-0.8,0.5-1.1,0.8c-0.2,0.1-0.3,0.2-0.4,0.4c-0.8,0.1-1.6,0.3-2.4,0.7
		c-0.3-0.1-0.6-0.2-0.9-0.4c-2.1-0.9-3.9-2.3-5.3-4.1c-0.1,0-0.1,0-0.1,0c0-0.5,0-0.9,0-1.4c0.8,0.2,1.6,0.3,2.3,0.4
		c0.6,0.5,1.2,1,1.8,1.4c0.8,0.5,1.5,0.5,2.1-0.2c0.1-0.6-0.3-1-1.2-1.1c-0.8-0.1-1.4-0.5-1.9-1.1c-0.5,0-0.9,0-1.3-0.1
		c1.6-0.6,3.2-1,4.8-1.2c-0.1-0.1-0.2-0.2-0.3-0.2c-0.7-0.3-1.3-0.5-2-0.6c-0.1,0-0.3,0.1-0.5,0.1c-1.6,0.1-2.8,0.7-3.4,1.9
		c0,0,0,0-0.1,0c0,0-0.1,0-0.2,0.1c-0.1-0.4-0.1-0.8-0.1-1.2c0.1,0,0.1,0,0.1-0.1c-0.1,0-0.1,0-0.1,0c0-0.1,0-0.2,0-0.3
		C44.9,11,48.8,9.6,53.3,9.4z M35.4,11.9c0,0.1,0,0.1-0.1,0.2C32.4,9,28.8,7.5,24.4,7.5c-0.4,0.6-0.7,1.1-1,1.7
		c-1.5-3.1-0.9-5.7,2.1-7.7C25.8,1.7,26,1.8,26.3,2c1,1,1.9,1.8,2.8,2.6c-0.7-0.1-1.4-0.1-2.1-0.1c-0.2,0-0.3,0-0.2,0
		c1.5,1.2,3.2,1.8,5,1.7c2.8,1,4.9,2.6,6.3,5c-0.1-0.1-0.3-0.1-0.4-0.2c-0.1,0-0.1,0-0.1,0c0.1,0.3,0.2,0.6,0.2,0.9
		c-0.5-0.1-1-0.1-1.6-0.1c0-0.2,0-0.4,0-0.5c-0.3,0-0.5-0.1-0.8-0.2c0.1,0.3,0.2,0.6,0.2,0.8C35.6,11.9,35.5,11.9,35.4,11.9z
		 M31.3,11.4c1.3,1,2.5,1.6,3.5,1.6c-0.2,0.5-0.3,1.2-0.4,1.8c-1.7-1.5-3.9-2-6.5-1.6l-0.4,0.1c1.9,0.6,3.7,1.2,5.6,1.8
		c-0.3-0.1-0.7,0-1.2,0.1c-0.7,0.3-1.4,0.8-2.1,1.3c-0.1,0.2-0.2,0.3-0.3,0.5l0.1,0.2c1.7-0.7,3.4-1,4.9-0.8
		c0.1,0.4,0.1,0.8,0.2,1.1c-0.1,0-0.2,0-0.3,0c-0.1,0.1-0.2,0.1-0.2,0.2c0.2,0,0.4,0.1,0.6,0.2c0.1,0.4,0.2,0.8,0.2,1.1
		c0,0.2,0,0.3,0,0.4c-1.7,1.4-3.7,2.3-5.8,2.9c-1-0.5-1.9-1.1-2.7-1.9c-0.1,0-0.2,0-0.3,0c-0.1-0.1-0.2-0.1-0.3-0.2
		c-0.1,0-0.2-0.1-0.4-0.3c-1.1-1.9-1.6-4-1.5-6.4c0-1.4,0.4-2.8,0.9-4.1C25,9.3,25,9.2,25,9.2c0.8-0.1,1.5-0.2,2.3-0.3
		C28.7,9.6,30,10.4,31.3,11.4z M41.6,12.8c0.3-0.1,0.6-0.4,0.8-0.7c0.7-1.5,1.8-2.4,3.3-2.9c-1.7,1-3.1,2.4-4.1,4.2
		c-0.1,0-0.1-0.1-0.1-0.1C41.5,13.1,41.6,12.9,41.6,12.8z M42.2,19.7c-0.1,0-0.1-0.1-0.2-0.2v-0.1c1.5,2.3,3.9,3.8,7.3,4.4
		c0.1-0.1,0.2-0.1,0.3-0.2c0.2-0.2,0.4-0.3,0.5-0.4c0.6,0.4,1.1,0.7,1.6,1.1c-0.3-0.1-0.5-0.1-0.8-0.1c3,1.7,6,4,8.9,6.9
		c4.3,4.3,6.1,9.2,5.3,14.8c-0.7,5.5-3.8,10.5-9.1,14.9c-2.8,2.4-6.2,3.9-10.3,4.5c-0.1,0-0.2-0.1-0.3-0.1s-0.2,0.1-0.2,0.2l0,0
		c-3.5,0.5-7.4,0.4-11.7-0.2c-9.7-1.6-17-5.5-21.9-12c-0.6-1.7-0.8-3.5-0.7-5.4c0.8-9.8,4.6-17.4,11.4-22.9h0.1c0,0,0,0-0.1,0
		c0.1-0.1,0.2-0.2,0.2-0.2c1.3-0.7,2.5-1.3,3.8-1.9c0.5,0.5,1.1,0.9,1.7,1.1c0.7,0.3,1.4,0.3,2.3,0.4c0.1-0.1,0.2-0.1,0.3-0.1
		c0.4-0.2,0.8-0.4,1.2-0.5c2.3-1,3.8-2.3,4.5-3.9C38.3,19.4,40.3,19.3,42.2,19.7z M40.2,14.5c0,0.4,0,0.8,0,1.2c0.1,0.5,0,1-0.3,1.5
		c-0.1,0.1-0.2,0.2-0.2,0.3v0.1c-1-0.1-1.9-0.2-2.9-0.2c-0.1,0-0.4-0.1-0.6-0.2V17c0-0.3,0-0.7,0-1.1c0-0.5,0-1,0-1.5
		c0-0.1,0-0.2,0-0.4c0.3-1,1.1-1.1,2.4-0.3C39.1,14,39.6,14.3,40.2,14.5z M61.4,19.2L61.4,19.2c-0.2,0.1-0.3,0.2-0.5,0.3
		c-0.2,0.2-0.5,0.4-0.6,0.7c-0.2,0.1-0.3,0.2-0.4,0.3c0,0.7,0,1.3,0,1.9c0,0.1,0,0.1,0,0.1c-1.8-1.4-3.8-2.5-6.1-3
		c0-0.1,0-0.1,0-0.1c0.5-0.9,0.8-1.9,1.1-2.8c3.3-0.3,6.2,0.6,8.7,2.7C62.8,19.2,62.1,19.2,61.4,19.2z M52.1,21.7
		c0.1,0,0.2-0.1,0.3-0.2c0.5-0.5,0.9-1,1.2-1.6c2,1.3,4.1,2.4,6.4,3.3c0.1,0.1,0.1,0.2,0.2,0.3c0,0.2,0.1,0.3,0.2,0.4
		c-0.3,0.1-0.6,0.1-1,0c-0.6-0.1-1.3-0.1-2-0.2c-0.3,0-0.5,0-0.7,0.1c-0.4,0.2-0.7,0.6-0.9,0.9C54.7,23.6,53.4,22.6,52.1,21.7z
		 M21.4,16.5c0.1,0.2,0.2,0.2,0.3,0.3c0.1,0.1,0.2,0.2,0.3,0.4c0.2,0,0.4,0,0.5,0c0.5,1.8,1.4,3.1,2.7,3.9c-0.7,0.3-1.3,0.7-2,1.2
		c-0.8,0.5-1.5,1-2.1,1.6c-0.9-0.6-1.8-1-2.7-1.2c0,0,0-0.1,0-0.2c0.3-0.1,0.5-0.3,0.7-0.5c1.2-1.3,2.8-2,4.6-2.2
		c-0.1-0.1-0.2-0.1-0.2-0.2c-0.8-0.2-1.7-0.3-2.6-0.3c-0.9,0.4-1.7,0.9-2.5,1.6c0-0.6,0-1.1,0-1.6c0-0.1-0.1-0.2-0.2-0.3
		c-0.4-0.2-0.7-0.4-1.1-0.7c0-0.4,0-0.6-0.1-1c0.2-0.1,0.3-0.2,0.4-0.3c1.2-0.8,2.5-1,3.9-0.6C21.3,16.5,21.4,16.5,21.4,16.5z
		 M22.3,14.3c0,0.4,0,0.7,0.1,1c-0.1,0-0.2-0.1-0.2-0.1c-0.8-0.1-1.5-0.2-2.1-0.4c-0.4,0-0.8-0.1-1.2-0.3c-0.7,0.2-1.5,0.5-2.1,0.9
		c-0.1-0.1-0.2-0.2-0.4-0.2s-0.4,0.1-0.5,0.3c-1,0.7-1.6,1.7-2,2.7c0.6,0.2,1.1,0.2,1.7,0c0,0.1,0,0.2,0,0.3c-0.1,0-0.1,0.2-0.1,0.2
		h0.1c-0.1,0.4-0.2,0.8-0.2,1.1c-0.1,0.5-0.1,1-0.1,1.5c-0.4,0.1-0.8,0.2-1.2,0.1c-2.2-0.5-3.6-1.8-4.2-3.9
		c-0.4-1.4-0.6-2.9-0.4-4.6c0.6,0.2,1.2,0.4,1.7,0.7c0.3,0.2,0.7,0.4,1.1,0.6c-0.2,0.2-0.2,0.5-0.1,0.8c0.3,0,0.7-0.1,0.9-0.2
		s0.4-0.2,0.5-0.3c0.4,0.1,0.7,0.2,1.1,0.2c2.4-1.4,5-2,7.7-1.8C22.4,13.4,22.3,13.8,22.3,14.3z M2.9,79.8c-0.1-0.3-0.2-0.6-0.2-0.8
		c0.5-0.6,1.1-1.2,1.7-1.8c3.5-3.7,7.6-5.3,12.2-4.6c0,0.1-0.1,0.2-0.1,0.3c0,0,0,0,0.1,0.1c1.2,0.5,2.4,1.2,3.6,2
		c0.8,0.4,1.4,0.3,1.6-0.2c0-0.1-0.1-0.2-0.1-0.3c-0.3-0.3-0.6-0.6-1-0.8c0.1,0,0.2,0,0.3,0.1c0-0.1-0.1-0.2-0.2-0.3
		c0,0-0.1,0-0.2-0.1c1.4-0.8,2.7-1.7,3.8-2.9c0.1-0.1,0.1-0.2,0.1-0.3c0.2-0.3,0.3-0.5,0.3-0.7c0.5,0.3,1.1,0.6,1.7,0.8
		c0-0.1,0-0.2-0.1-0.3c-1.6-1.8-2.6-3.8-2.7-6c0.7,0.3,1.5,0.6,2.3,0.9c-0.1,0.1-0.1,0.2-0.2,0.3c0.3,0,0.6,0.1,0.9,0.2
		c0-0.1,0-0.2,0-0.2c0.2,0,0.3,0.1,0.5,0.1c-0.5,0.9-0.6,1.9-0.4,3.1c0.5,0.9,1.2,1.5,1.8,1.9c0.4,0.5,0.8,0.9,1.2,1.2
		c-0.3,0.8-0.5,1.6-0.6,2.3c-0.4,2.1-0.8,4.2-1.2,6.4c-0.7,0.2-2.9,0.7-6.5,1.4c-3.7,0.8-7.6,0.9-11.7,0.3c-4-0.6-6.2-1-6.5-1.2
		c-0.1-0.3-0.2-0.6-0.2-1C3,79.8,2.9,79.8,2.9,79.8z M2.1,79.5c0,0.2,0,0.4,0,0.5c-0.2,0-0.4,0-0.6,0.1C1.7,79.9,1.9,79.7,2.1,79.5z
		 M28.7,65.8c0.6,0.1,1.1,0.2,1.6,0.4v0.1c0.2,0.1,0.4,0.2,0.6,0.2c0-0.1,0-0.2,0-0.2c0.2,0,0.3,0,0.5,0.1c-0.9,1-1.2,1.9-1,2.9
		c-0.3-0.2-0.6-0.3-0.9-0.3c-0.5-0.7-1-1.3-1.5-2c0-0.1,0-0.2,0.1-0.3C28.4,66.4,28.6,66,28.7,65.8z M47.4,67.1
		c-0.2-0.4-0.4-0.7-0.6-0.9c0.3-0.1,0.6-0.2,0.9-0.3c0.1,0.2,0.2,0.4,0.3,0.5C47.8,66.7,47.6,66.9,47.4,67.1z M48.4,69.2
		c0.1-0.2,0.2-0.3,0.4-0.4c1-1.4,1.2-2.5,0.5-3.3c0.7-0.2,1.4-0.4,2.1-0.6c0.5-0.1,0.9-0.1,1.2,0c0,0.4,0.2,1,0.7,1.6
		c-0.4,0.5-0.7,1-0.9,1.5c-0.2,0-0.2,0.1-0.2,0.2l0,0c-0.5,0.9-0.9,1.7-1.2,2.5c0.8-0.1,1.5-0.4,2.1-0.8c0.4,0.6,1,1,1.6,1.3
		c-0.9,0.6-1.7,1.2-2.4,2.1c-0.3,0.3-0.3,0.6,0,1c8.7-6.1,15.9-4.5,21.4,4.6c-1,0.4-2.7,1.1-5,2.2c-5,2.2-11.5,1.5-19.7-2.1
		c-0.7-2.1-1.7-4.2-3-6.1c0-0.1,0-0.4,0-0.6c-0.5-1-0.2-1.9,0.9-2.6C47.4,69.5,47.9,69.3,48.4,69.2z M44.4,67.2
		c0.2-0.2,0.4-0.4,0.6-0.7c0.2,0,0.3,0,0.5-0.1c0.2,0.7,0.5,1.3,0.9,1.7c-0.7,0.7-1.5,1.4-2.2,2.1c0,0.2,0,0.5-0.1,0.7
		c-0.1,0.5,0,1,0.2,1.4c-0.1,0-0.1,0-0.1,0c0.2,0.5,0.4,1.1,0.7,1.7c-4.7,0.9-9.3,0.9-13.8-0.2c0.2-0.6,0.4-1.2,0.7-1.8
		c0-0.1,0-0.2,0-0.3c0-0.6-0.1-1-0.3-1.4c0-1.5,0.5-2.7,1.3-3.7c3.8,0.6,7.6,0.7,11.6,0.2C44.4,66.9,44.4,67,44.4,67.2z M33.4,75.5
		L33.4,75.5c-1.8,0.7-2.8,1.7-3.2,2.9c0.1-1.4,0.3-2.7,0.8-4.1C31.7,74.8,32.6,75.2,33.4,75.5z"/>
	<path style="fill:#BE3689;" d="M48,24.4h-0.2c-0.2,1.8-1.1,2.8-2.4,3c-0.1,0-0.1,0-0.1,0c0-0.1,0-0.2,0.1-0.2
		c0.5-1.2,0.6-2.3,0.3-3.4c-0.9,0.5-1.4,1.6-1.8,3.2c0,0,0,0,0,0.1c-1-0.2-1.9-0.2-3-0.2c-0.2,0.2-0.6,0.3-1,0.5
		c-0.8,0.4-1.3,1-1.7,1.9c0,0-0.1,0.1-0.2,0.1c-2.1-1.9-4.3-2.6-6.5-2.1c-0.4-0.3-1.1-0.5-2-0.6c0-0.2,0-0.3,0-0.4
		c0.2-0.7,0.1-1.1-0.3-1.5c-0.4-0.1-0.7,0-0.7,0.3c-0.2,0.9-0.1,1.8,0.3,2.6c0.2,0.1,0.4,0.3,0.6,0.4c-0.3,0.2-0.6,0.4-1,0.7
		c-0.6-0.3-1.4-0.5-2-0.9c0-0.1,0-0.2,0-0.4c0.1-0.4-0.1-0.7-0.4-1.1c-0.1,0.1-0.2,0.1-0.3,0.2c-0.4,0.8-0.4,1.5,0.1,2.2
		c0.4,0.4,0.9,0.8,1.4,0.9c-0.2,0.1-0.2,0.2-0.4,0.4c-1,0-1.9-0.5-2.6-1.3c-0.5-0.2-0.7,0-0.7,0.4c0,0.9,0.5,1.5,1.5,1.8
		c0.3,0.1,0.5,0.1,0.7,0.2c-4.5,4.7-4.4,9.6,0.3,14.5c4.8,1.3,8.9,0.5,12.5-2.4c2.6,2.2,5.6,2.7,9.1,1.4c5.4-2,7.2-5.7,5.4-10.9
		c-0.1-0.1-0.2-0.3-0.3-0.4c-0.8-1.5-1.8-2.8-3-3.7c0.2-0.1,0.4-0.2,0.6-0.3c0.1-0.1,0.2-0.2,0.4-0.4c0.9-0.8,1-1.7,0.3-2.6l0,0
		c-0.7,1.1-1.6,1.8-2.7,2.2c-0.4-0.2-0.8-0.4-1.1-0.6c0.4-0.4,0.8-0.9,1.2-1.3c0-0.2,0-0.3,0-0.4C48.5,25.6,48.4,25,48,24.4z
		 M39.2,31.8c0.3-0.4,0.5-0.8,0.6-1.2c0.2-0.6,0.4-1.1,0.7-1.6c4.9-0.6,8.5,1.2,10.9,5.7c0.2,0.6,0.3,1.3,0.4,1.9
		c0.5,3-0.7,5.2-3.6,6.7c-3.9,1.2-7.1,0.5-9.8-2.4c-6.8,5.9-11.9,5.2-14.9-1.9c0-0.1,0-0.2,0-0.3c0.8-4.8,3.6-8.2,8.4-10.2
		c0.6,0,1.2,0,1.9-0.1c0.2,0.2,0.4,0.3,0.6,0.4c1.2,1,2.4,1.8,3.5,2.5C38.3,31.5,38.8,31.6,39.2,31.8z"/>
	<path style="fill:#BE3689;" d="M36.9,40L36.9,40L36.9,40z"/>
	<path style="fill:#BE3689;" d="M25,49c0.5,0.3,1,0.5,1.5,0.7c1.5,3.6,3.9,6.5,7.3,9c2.6,1.8,5.4,2.2,8.3,1
		c5.8-2.3,8.9-6.2,9.6-11.7c-0.2,0-0.3,0.1-0.3,0.1c0.1-0.3,0.1-0.7,0-1.1c-5.4,2.3-11.3,3.5-17.5,3.5C31,49.8,28,49.3,25,49z
		 M35.7,55.9c-0.2,0-0.3,0.2-0.4,0.3c-0.3,0.4-0.5,0.9-0.6,1.3c-0.4-0.3-0.7-0.6-1-0.9c-2.6-2.6-4.9-4.9-6.9-6.7
		c5.7,2.4,12,2.9,18.8,1.4c3.1-0.7,5-1.6,5.6-2.9c-1.5,3.6-3.7,6.4-6.6,8.4c-1.6-2.1-3.8-2.7-6.7-2.1C37.2,55.1,36.5,55.4,35.7,55.9
		z M35.5,58.1c0.1-0.1,0.2-0.2,0.4-0.4c1.2-1.6,3.1-2.3,5.5-1.9c0.8,0.8,1.6,1.3,2.6,1.4c-1.5,1-3.2,1.7-5,2.2
		C37.7,59.2,36.6,58.7,35.5,58.1z"/>
	<path style="fill:#BE3689;" d="M35.5,61.2c0,0.1,0.1,0.2,0.1,0.2c3.8,2.5,6.5,2.1,8.1-1.1c-1.5,0.6-3.1,1.2-4.7,1.7
		C37.7,61.3,36.5,61,35.5,61.2z"/>
	<g>
		<path style="fill:#BE3689;" d="M33.4,35c0,0.1,0,0.1,0,0.1c-0.6,0.2-1.2,0.4-1.9,0.6c-0.1,0.3-0.3,0.6-0.5,1
			c-0.6,1.4-0.4,2.4,0.7,3c0.1-0.3,0.1-0.5,0.2-0.8c0-0.7,0.2-1.3,0.6-1.9c0.9-0.3,1.8-0.3,2.5,0c0.2,0.1,0.2,0.2,0.3,0.3
			c0.2,1,0.8,1.1,1.6,0.4c-0.1-0.3-0.3-0.6-0.4-0.8c-0.2-0.5-0.5-0.8-0.8-1.1c-0.3-0.1-0.5-0.2-0.8-0.3C34.5,35.2,34,35.1,33.4,35z"
			/>
		<path style="fill:#BE3689;" d="M39.3,35.8c0,0.4-0.1,0.7-0.2,1.1c-0.2,0.9,0.1,1.5,0.8,1.8c0.5-0.2,0.7-0.6,0.7-1.1
			c0-0.4,0-0.8-0.1-1.2c0.2-0.1,0.3-0.2,0.4-0.3c1.2-0.5,2.2-0.4,3,0.4c0.3,0.4,0.5,0.7,0.6,1.2c0.4,1.1,0.9,1.2,1.5,0.3
			c0.1-0.3,0-0.7-0.1-1.1c-0.4-0.8-0.9-1.6-1.7-2.2c-0.4-0.1-0.8-0.2-1.2-0.3c-0.3-0.1-0.7-0.2-1.1-0.4c-0.1,0.1-0.3,0.2-0.5,0.2
			C40.4,34.5,39.7,35,39.3,35.8z"/>
		<path style="fill:#BE3689;" d="M36.9,40L36.9,40c0.1-0.2,0.2-0.4,0.1-0.6c-0.2,0.2-0.4,0.4-0.6,0.6C36.6,40,36.7,40,36.9,40z"/>
	</g>
</g>
</svg>
