<?xml version="1.0" encoding="iso-8859-1"?>
<!-- Generator: Adobe Illustrator 12.0.1, SVG Export Plug-In . SVG Version: 6.00 Build 51448)  -->
<!DOCTYPE svg PUBLIC "-//W3C//DTD SVG 1.1//EN" "http://www.w3.org/Graphics/SVG/1.1/DTD/svg11.dtd" [
	<!ENTITY ns_svg "http://www.w3.org/2000/svg">
	<!ENTITY ns_xlink "http://www.w3.org/1999/xlink">
]>
<svg  version="1.1" id="Layer_1" xmlns="&ns_svg;" xmlns:xlink="&ns_xlink;" width="86.3" height="87.84" viewBox="0 0 86.3 87.84"
	 style="overflow:visible;enable-background:new 0 0 86.3 87.84;" xml:space="preserve">
<g>
	<g>
		<path style="fill:#BE3689;" d="M75,23.6c0-0.5,0.1-1.1,0.2-1.5c0.4-1.3,0.5-2.7,0.3-4.1c-0.1-0.1-0.3-0.2-0.5-0.2
			c-0.7-0.3-1.3-0.5-2-0.7c0,0.1,0,0.2,0,0.2c-1.6,0.3-3,1-4.1,2.2c-4.1-1.2-7.4-0.9-10.2,0.9c0-0.3,0-0.6,0-0.9
			c-0.2,0-0.3,0.1-0.4,0.1c-0.2-1.5-0.5-3-1.2-4.5C57,15,56.9,15,56.7,14.9c-0.9-0.1-1.8-0.2-2.7-0.3c-4.2,0.5-7.4,2.5-9.3,5.9
			c-0.1,0-0.1-0.1-0.1-0.1c0-0.5,0.2-0.8,0.5-1.1c0-0.4,0-0.8,0-1.2c0-0.5,0-1,0-1.5c0.2-0.2,0.3-0.5,0.5-0.7c1.1-2.3,2.6-4.3,4.7-6
			c0.2-0.1,0.4-0.1,0.5-0.1c2.4,1.3,5,1.6,7.8,0.8c0.2-0.2,0.4-0.5,0.4-0.7c0.8-4-0.3-7.2-3.2-9.8c-0.5,0-0.9,0-1.3-0.1
			c0,0.1,0,0.1,0,0.1c-2.1,1.3-3.5,2.8-4.2,4.5c-0.4,0-0.5,0-0.5,0.3c0.1,0.2,0.1,0.4,0.2,0.6c-0.1,0.1-0.1,0.2-0.1,0.3
			c-0.3-0.1-0.6-0.1-0.9-0.2c-1.5,0.9-2.9,2.1-4.3,3.5c-1.9,2.1-3,4.2-3.4,6.3C40.6,12.3,39,9.5,36.5,7c0.2-0.7,0.2-1.5,0.1-2.2
			c-0.1-1.7-0.7-3-1.8-4.2c-0.8,0-1.5,0-2.3-0.1c-0.2,0.1-0.4,0.2-0.8,0.3c-4.8,1.7-6.4,5-4.9,9.7c2,0.9,4,0.9,6,0.1
			c0.5,0.4,1,0.8,1.5,1.2c0-0.2-0.1-0.3-0.1-0.4c-0.1,0-0.1,0-0.1-0.1c2.4,2.2,3.9,4.7,4.6,7.7c0,0-0.1,0-0.2,0c0,0.1,0,0.1-0.1,0.2
			c-2.9-3.1-6.5-4.6-10.9-4.6c-1,1.4-1.7,3-1.9,4.9c-0.2-0.1-0.4-0.2-0.6-0.3c0.1,0.2,0.1,0.4,0.1,0.6c-1.9-1-3.9-1.8-6.1-2.5
			c-0.3-0.5-0.6-1-0.8-1.5c-0.6-1-1.4-1.9-2.4-2.7c-0.6,0-1.2,0-1.8-0.1c-1.6,1.1-2.6,2.6-3.1,4.7c-0.6,3.2,0.1,5.9,2.2,8.2
			c0.7,0,1.3,0.1,1.9,0.1c0.1,0,0.2-0.1,0.4-0.1c0.3-0.4,0.6-0.6,1-1c0.8-0.8,1.6-1.6,2.5-2.4c0.1,0.4,0.3,0.8,0.6,1.4
			c-0.5,1.8-1.5,3.3-3,4.5c0.9,1.1,2.3,1.5,4.4,1.1c0.5,0.5,1.1,1,1.7,1.3c-0.1,0.1-0.2,0.2-0.2,0.3c0,0.1,0,0.1,0,0.2s0,0.2,0,0.3
			c0,0.1,0,0.2,0,0.2c0.1,0,0.3,0,0.5,0c0,0.1,0,0.2,0,0.2s0,0,0.1,0.1c-0.4,0.3-0.8,0.7-1.1,1.2l0,0c-0.4,0.5-0.8,1-1.1,1.5
			c-3.4,3.7-5.9,8.2-7.3,13.4c-2.3,9,0.2,15.7,7.6,20.1c2.6,1.5,5.3,2.8,8,3.7c-0.2,0.2-0.3,0.4-0.6,0.5c0,0.3,0,0.5-0.1,0.7
			c-0.3,0.7-0.5,1.4-0.4,2.3c-0.3-0.1-0.6-0.3-0.9-0.5c-0.2-0.1-0.3-0.1-0.2,0.1c0,0,0.1,0.1,0.2,0.3c-3.6-2.4-7.8-3.4-12.6-3.1
			c-1.3,0.4-2.6,0.7-3.9,1.1c-1.2,0.2-2.9,1.3-5,3.3c-2.2,2-3.5,3.4-4,4.1c-0.7,0.8-0.9,1.8-0.5,2.8c0.1,0.3,0.2,0.5,0.3,0.8
			c0.5,0.1,1.1,0.2,1.7,0.2c-1.4,0.3-2.5,1-3.1,2.2c0.1,0.1,0.2,0.2,0.2,0.1c2.6-0.2,4.1-0.9,4.3-2.1c1.1,0.2,2.2,0.3,3.4,0.4
			c-1.4,0.4-2.6,1-3.8,1.9c0.1,0.2,0.1,0.2,0.1,0.2c2.7-0.4,4.6-1,5.7-2c1.2,0.1,2.4,0.1,3.6,0.2c-1.2,0.4-2.4,1-3.5,1.8
			c0.4,0.6,1.1,0.7,1.9,0.3c0,0,0.2-0.1,0.3-0.1c2-0.6,3.5-1.2,4.5-2c1.3,0,2.6,0,3.9,0c-1,0.5-2,1-3,1.6c0.3,0.2,0.6,0.2,0.8,0.2
			c1.9-0.6,3.8-1.3,5.6-2c1.8-0.2,3.5-0.4,5.3-0.6c-1.7,0.8-3.2,1.7-4.8,2.6c0.1,0.1,0.2,0.2,0.3,0.2c0.4,0.2,0.8,0.3,1.2,0.3
			c0.1-0.2,0.3-0.3,0.4-0.3c2.7-1.3,5.5-2.5,8.3-3.7c0.8-0.1,1.7-0.3,2.6-0.5c0-0.2,0-0.4-0.1-0.6c1.9-0.8,3.7-1.6,5.6-2.4
			c-0.2-0.2-0.4-0.3-0.6-0.3l0,0c1.5-0.8,3-1.4,4.4-1.9c0.4-0.1,0.8-0.2,1.1-0.3c-0.3,0.4-0.6,0.9-0.8,1.5
			c-5.4,1.8-9.8,4.5-13.1,7.8c0.2,0.1,0.4,0.1,0.6,0c4.8-2.4,8.9-4.8,12.3-7.4c-0.1,0.5-0.3,1-0.3,1.6c0.6,0.4,1.2,0.8,1.9,1.1
			c-3.5,1-6.1,2.7-7.9,5.1c0.2,0.1,0.3,0.1,0.5,0c2.7-1.7,5.6-3.2,8.7-4.5c0.9,0.3,1.8,0.6,2.8,0.8c-1.9,1-3.6,2.1-5.3,3.3l0.1,0.2
			c2.4-0.8,4.7-1.9,6.8-3.3c1.3,0.5,2.6,0.8,4,1c-0.7,0.3-1.5,0.6-2.4,0.9c0,0.1-0.1,0.1-0.1,0.2c-0.8,0.4-1,0.9-0.7,1.5
			c0.8,0.2,1.6,0,2.4-0.4c1.7-0.8,2.7-1.5,3.1-2.1c0.7,0.1,1.4,0.1,2.1,0c0.7,0.1,1.5,0.2,2.3,0.2c-0.8,0.5-1.6,1.1-2.2,1.7v0.3
			c2.4-0.3,3.7-1,4-1.9c1.5,0,3,0,4.5-0.1c-0.5,0.4-1,0.8-1.2,1.3c0.2,0.1,0.4,0.2,0.7,0.1c1.7-0.3,2.9-0.9,3.8-1.7
			c1.4-0.2,2.9-0.4,4.4-0.7c-1.1,0.6-2,1.5-2.7,2.5c0.7,0.5,1.4,0.4,2.4-0.1c2.3-1.3,3.8-2.4,4.4-3.4c1.1-0.3,2.3-0.8,3.5-1.2
			c0-0.1-1.5-1.5-4.5-4.4c-3-2.8-8.8-4.6-17.3-5.3c-2.5,0.5-5,1.1-7.6,2c-0.8,0.2-1.5,0.6-2,1.1c0,0,0,0-0.1,0
			c-0.2-1.1-0.7-2.1-1.5-2.8c0.9-0.3,1.8-0.5,2.7-0.8c5.9-2,10-6.1,12.2-12.4c3.7-10.8,1.2-19.5-7.7-26c-0.2-0.2-0.4-0.5-0.6-0.8
			c0.1-0.1,0.4-0.3,0.6-0.4l0,0c0-0.2,0-0.3,0-0.4c0-0.2,0-0.3,0.1-0.4c0.2-0.2,0.4-0.4,0.8-0.5c1.5,0.3,2.7,0.2,3.5-0.4
			c-0.4-0.6-0.7-1.2-0.9-1.8c-0.2-0.7-0.4-1.3-0.5-1.9c0-0.4,0.2-0.8,0.4-1.1c0.1-0.3,0.3-0.5,0.5-0.8c0.3-0.1,0.6-0.3,1-0.5
			c0.5-0.2,1-0.4,1.5-0.7c0.3,0.1,0.6,0.2,0.9,0.3c0,0.5,0,1,0,1.5c0,1.1,0.5,2,1.3,2.7C71.7,27.6,73.6,26.1,75,23.6z M54.9,1.9
			c0.5,0.2,0.9,0.6,1.2,1c1.3,1.7,1.9,3.7,1.7,6c-1.5,0-2.8,0-4.1,0c0.4-0.2,0.8-0.5,1.2-0.8c-0.1-0.1-0.2-0.2-0.3-0.2
			c-0.5-0.3-1-0.5-1.6-0.6c-0.2,0.1-0.6,0.3-1,0.4c-0.7,0.1-1.2,0.3-1.6,0.7c-0.1,0-0.1,0-0.2,0c-0.1,0.2-0.3,0.3-0.5,0.4
			c-0.1,0-0.2,0-0.3,0c0,0,0.1,0.1,0.2,0.1c-3.7,2.6-5.7,6.1-6.2,10.5c0,0.1,0,0.2,0.1,0.3c-0.5-0.3-1-0.4-1.5-0.5
			c0.2-0.6,0.3-1.2,0.5-1.9c0.9-4.4,3.2-7.6,6.8-9.6c0.3,0,0.5-0.1,0.8-0.2c0.3,0.1,0.5,0,0.8-0.2c1.9-0.6,2.6-1.5,2.1-2.5
			c-0.2,0.2-0.5,0.3-1,0.3l0,0C52.7,3.9,53.7,2.8,54.9,1.9z M35.1,4.8c0.1,0.2,0.2,0.5,0.3,0.7c-0.1,0.4-0.2,0.7-0.3,1.1
			c-0.4-0.3-0.7-0.5-1.1-0.7V6c0.1,0.7,0.5,1.5,1.1,2.2c0.2,0.4,0.5,0.8,0.8,1.2c2.6,2.9,4.3,6.1,5,9.6c-0.5-0.1-1-0.1-1.6-0.1
			c-0.2-4.3-2.4-7.5-6.5-9.5l0,0c-0.1-0.1-0.2-0.2-0.2-0.2c-0.1,0-0.1,0-0.2-0.1C31.7,8.6,30.9,8.3,30,8l-0.1,0.1
			c0.3,0.3,0.6,0.6,1,0.9c-0.2,0.1-0.3,0.3-0.2,0.4c0.1,0.1,0.1,0.2,0.1,0.2c-0.9-0.2-1.9-0.3-2.9-0.5c-0.2-4.5,1.9-6.7,6.4-6.6
			C34.6,3.3,34.9,4,35.1,4.8z M51.3,21.1c-0.1-0.1-0.2-0.2-0.3-0.2c-0.7-0.3-1.3-0.5-2-0.6c-0.1,0-0.3,0.1-0.5,0.1
			c-1.6,0.1-2.8,0.7-3.4,1.9c0,0,0,0-0.1,0c0,0-0.1,0-0.2,0.1c-0.1-0.4-0.1-0.8-0.1-1.2c0.1,0,0.1,0,0.1-0.1c-0.1,0-0.1,0-0.1,0
			c0-0.1,0-0.2,0-0.3c3.3-2.7,7.2-4.1,11.7-4.3c0.1,0.8,0.2,1.5,0.3,2.3c0.2,3-0.4,5.7-1.8,8.2c-0.4,0.3-0.8,0.5-1.1,0.8
			c-0.2,0.1-0.3,0.2-0.4,0.4c-0.8,0.1-1.6,0.3-2.4,0.7c-0.3-0.1-0.6-0.2-0.9-0.4c-2.1-0.9-3.9-2.3-5.3-4.1c-0.1,0-0.1,0-0.1,0
			c0-0.5,0-0.9,0-1.4c0.8,0.2,1.6,0.3,2.3,0.4c0.6,0.5,1.2,1,1.8,1.4c0.8,0.5,1.5,0.5,2.1-0.2c0.1-0.6-0.3-1-1.2-1.1
			c-0.8-0.1-1.4-0.5-1.9-1.1c-0.5,0-0.9,0-1.3-0.1C48.1,21.7,49.7,21.3,51.3,21.1z M45.3,26.8c-0.1,0-0.1-0.1-0.2-0.2v-0.1
			c1.5,2.3,3.9,3.8,7.3,4.4c0.1-0.1,0.2-0.2,0.3-0.2c0.2-0.2,0.4-0.3,0.5-0.4c0.6,0.4,1.1,0.7,1.6,1.1c-0.3-0.1-0.5-0.1-0.8-0.1
			c3,1.7,6,4,8.9,6.9c4.3,4.3,6.1,9.2,5.3,14.8c-0.7,5.5-3.8,10.5-9.1,14.9c-5.3,4.5-12.8,6-22.5,4.4c-9.7-1.6-17-5.5-21.9-12
			c-0.6-1.7-0.8-3.5-0.7-5.4c0.8-9.8,4.6-17.4,11.4-22.9h0.1c0,0,0,0-0.1,0c0.1-0.1,0.2-0.2,0.2-0.2c1.3-0.7,2.5-1.3,3.8-1.9
			c1,0.9,2.2,1.4,4,1.5c0.1-0.1,0.2-0.1,0.3-0.2c3-0.9,4.9-2.4,5.7-4.3C41.4,26.5,43.4,26.4,45.3,26.8z M39.3,21.5
			c0-0.1,0-0.2,0-0.4c0.3-1,1.1-1.1,2.4-0.3c0.5,0.3,1,0.6,1.6,0.8c0,0.4,0,0.8,0,1.2c0.1,0.5,0,1-0.3,1.5c-0.1,0.1-0.2,0.2-0.2,0.3
			v0.1c-1-0.1-1.9-0.2-2.9-0.2c-0.1,0-0.4-0.1-0.6-0.2v-0.2c0-0.3,0-0.7,0-1.1C39.3,22.5,39.3,22,39.3,21.5z M36.2,22.2
			c-0.3-0.1-0.7,0-1.2,0.1c-0.7,0.3-1.4,0.8-2.1,1.3c-0.1,0.2-0.2,0.3-0.3,0.5l0.1,0.2c1.7-0.7,3.4-1,4.9-0.8
			c0.1,0.4,0.1,0.8,0.2,1.1c-0.1,0-0.2,0-0.3,0c-0.1,0.1-0.2,0.1-0.2,0.2c0.2,0,0.4,0.1,0.6,0.2c0.1,0.4,0.2,0.8,0.2,1.1
			c0,0.2,0,0.3,0,0.4c-1.7,1.4-3.7,2.3-5.8,2.9c-1-0.5-1.9-1.1-2.7-1.9c-0.1,0-0.2,0-0.3,0c-0.1-0.1-0.2-0.1-0.3-0.2
			c-0.1,0-0.2-0.1-0.4-0.3c-1.1-1.9-1.6-4-1.5-6.4c0-1.4,0.4-2.8,0.9-4.1c0.1-0.1,0.1-0.2,0.1-0.2c0.8-0.1,1.5-0.2,2.3-0.3
			c1.4,0.7,2.7,1.5,4,2.5c1.3,1,2.5,1.6,3.5,1.6c-0.2,0.5-0.3,1.2-0.4,1.8c-1.7-1.5-3.9-2-6.5-1.6l-0.4,0.1
			C32.5,21,34.3,21.6,36.2,22.2z M74.4,19.3c0,0.2,0,0.5-0.1,0.7c-0.4,3.3-1.9,5.3-4.5,6.3c-0.4-0.5-0.5-1-0.5-1.5
			c0.2-0.9,0-1.6-0.5-2.3c-4.8-1.3-8.3-1-10.7,1c0,0,0,0,0.1-0.1c-0.1,0-0.2,0-0.2,0.1c0-0.4,0.2-0.8,0.2-1.2c0,0,0,0,0.1,0
			c3.4-2,7.1-2.3,11.1-1C70.7,19.3,72.4,18.6,74.4,19.3z M56.6,27.1c0.1,0,0.2,0,0.2-0.1c0.3,0.3,0.6,0.4,0.9,0.6
			c0-0.2-0.2-0.4-0.2-0.6c1.7,0.7,3.3,1.5,5,2.5c-0.5,0.3-1.2,0.4-2,0.5c-0.4,0.4-0.8,0.7-1.1,1c-0.3,0.2-0.4,0.4-0.4,0.8
			c-0.1,0-0.1,0-0.1,0c-1.1-1.1-2.4-2.1-3.7-3c0.1,0,0.2-0.1,0.3-0.2C56,28.2,56.3,27.7,56.6,27.1z M57.8,26.4
			c0.7-0.5,1.5-1.3,2.2-2.1c1.7-0.7,3.3-0.9,4.9-0.8c-0.4,0.2-0.6,0.4-0.9,0.7c-1.6,1.4-2,3.1-1,4.9c0,0.1-0.1,0.1-0.1,0.2
			C61.5,27.6,59.8,26.7,57.8,26.4z M15,14.8c0.5,0.5,1,1,1.4,1.5c0.6,0.7,1,1.5,1.4,2.2c2.9,1.5,5.5,2.2,7.7,2
			c-0.1,0.3-0.1,0.6-0.1,0.9c0,0.4,0,0.6,0.1,0.9c-1.7-1.4-3.8-1.9-6.3-1.5c-0.1,0-0.1,0-0.2,0c-0.1-0.1-0.2-0.2-0.4-0.3
			c0,0.1-0.1,0.3-0.1,0.4c-0.2,0-0.5,0.1-0.7,0.1c-0.4,0.4-0.8,0.8-1.1,1.3c-0.7,1-1.7,1.6-2.8,1.8c-0.9-1-1.4-2.1-1.5-3.3
			C12,18.1,12.9,16.1,15,14.8z M31.9,9.9c0.1,0,0.1,0,0.1,0H31.9L31.9,9.9z M24.6,23.9c0.4,0.6,0.9,1,1.3,1.2
			c0.2,0.7,0.5,1.2,0.9,1.7c-0.1,0-0.1,0-0.2,0v-0.1c-0.5-0.1-1-0.2-1.5-0.2c0,0,0,0.1-0.1,0.1c-0.9-0.1-1.9-0.2-3-0.1
			c-0.1,0-0.3,0-0.5,0c-0.7,0.4-1.6,0.7-2.5,1c0,0,0,0-0.1,0.1c1.6-1.7,2-3.4,1.4-5.3c0.4-0.1,0.7-0.1,1.1-0.2
			c0.2,0.2,0.4,0.3,0.6,0.4c0.6,0.3,1.2,0.4,1.9,0.6C24.1,23.4,24.4,23.7,24.6,23.9z M24.7,27.4c0.2-0.1,0.5-0.2,0.8-0.3
			c0.6,0,1.1,0.1,1.6,0.2c0.4,0.3,0.8,0.6,1.2,0.9c-0.7,0.3-1.3,0.7-2,1.2c-0.8,0.5-1.5,1-2.1,1.6c-0.1-0.1-0.2-0.1-0.2-0.2
			c-0.6-1.3-1.6-2.2-2.9-2.6c1.1-0.6,2.4-0.9,3.7-1.1C24.8,27.3,24.7,27.3,24.7,27.4z M26.8,26.9c0-0.1,0-0.1-0.1-0.1
			c0.1,0,0.1,0,0.1,0c0.1,0.1,0.1,0.2,0.1,0.2c-0.1,0-0.3-0.1-0.3-0.1S26.7,26.9,26.8,26.9z M2.1,82.5c0.3-0.8,0.7-1.5,1.4-2.1
			c7.4-7.5,15.7-8.7,25-3.6c0.8,0.7,1.7,1.1,2.8,1.5c0-0.2-0.1-0.3-0.2-0.3c-0.5-0.6-1-1.2-1.7-1.6c0.1-0.2,0.1-0.3,0.1-0.5
			c0-0.1-0.1-0.2,0-0.4c0.3-1.3,0.5-2.4,0.3-3.2c1.2,0.3,2.4,0.7,3.6,1c-0.6,2.4-0.4,4.5,0.6,6.2c-0.2,0-0.3,0.1-0.5,0.1
			c0,0.5,0.2,0.8,0.5,1.2c0.4,0.3,0.7,0.7,1.1,1.1c0,0.1,0,0.1,0,0.1c-0.3,0.1-0.7,0.3-1,0.5c-2.1,0.2-4.2,0.5-6.3,0.6
			C27.5,83,27.3,83,27,82.9c0,0.1,0,0.1,0,0.1c-0.4,0.1-0.6,0.2-1,0.3c-7,0.6-14.2,0.8-21.4,0.7C3.4,84,2.6,83.5,2.1,82.5z
			 M47.1,76.8c0,0,0,0-0.1,0c-0.4,0.2-0.8,0.5-1.3,0.6c-0.1,0-0.1,0-0.2,0c0,0,0,0-0.1,0.1c-0.8,0.2-1.8,0.3-2.9,0.2
			c-3-0.1-5.7-0.2-8.1-0.3c-0.3-1.3-0.4-2.7-0.4-4c4.4,1,8.9,1.1,13.5,0.5c0.1,0.6,0.3,1.3,0.6,2.2C47.7,76.2,47.4,76.4,47.1,76.8z
			 M52.5,72.9c0.2,1.3,0.7,2.3,1.5,3c-0.8,0.4-1.5,1-2,1.9c0.1,0.1,0.2,0.2,0.2,0.1c0.7-0.1,1.2-0.2,1.7-0.3c0,0.1,0,0.2,0,0.3
			c11.3-5.9,21.2-4.6,29.9,3.6c-8.7,2.1-17.6,2.8-26.5,2c-3.7-0.7-6.7-1.8-9.2-3.1c0-0.1,0.1-0.2,0.1-0.3c1.8-2.4,1.9-4.5,0.3-6.4
			C49.8,73.5,51.2,73.2,52.5,72.9z M34.5,78.4c0-0.1,0-0.2,0-0.4c0,0,0,0,0-0.1c0.6,0.2,1.3,0.4,2,0.5c-0.5,0.3-0.9,0.6-1.3,1
			C35,79,34.8,78.7,34.5,78.4z M42.2,78.8c-0.7,0.3-1.2,0.7-1.8,1.1c-0.4,0.2-0.9,0.4-1.4,0.5c-0.8,0.3-1.6,0.6-2.3,1
			c-0.3-0.5-0.6-0.8-0.9-1.1c-0.1-0.1-0.1-0.2-0.1-0.2c0.9-0.3,1.8-0.8,2.6-1.4C39.6,78.9,40.9,78.9,42.2,78.8z"/>
		<path style="fill:#BE3689;" d="M41.3,37.4c0,0-0.1,0.1-0.2,0.1c-2.1-1.9-4.3-2.6-6.5-2.1c-0.4-0.3-1.1-0.5-2-0.6
			c0-0.2,0-0.3,0-0.4c0.2-0.7,0.1-1.2-0.3-1.5c-0.4-0.1-0.7,0-0.7,0.3c-0.2,0.9-0.1,1.8,0.3,2.6c0.2,0.1,0.4,0.3,0.6,0.4
			c-0.3,0.2-0.6,0.4-1,0.7c-0.6-0.3-1.4-0.5-2-0.9c0-0.1,0-0.2,0-0.4c0.1-0.4-0.1-0.7-0.4-1.1c-0.1,0.1-0.2,0.1-0.3,0.2
			c-0.4,0.8-0.4,1.5,0.1,2.2c0.4,0.4,0.9,0.8,1.4,0.9c-0.2,0.1-0.2,0.2-0.4,0.4c-1,0-1.9-0.5-2.6-1.3c-0.5-0.2-0.7,0-0.7,0.4
			c0,0.9,0.5,1.5,1.5,1.8c0.3,0.1,0.5,0.1,0.7,0.2c-4.5,4.7-4.4,9.6,0.3,14.5c4.8,1.4,8.9,0.5,12.5-2.4c2.6,2.3,5.6,2.8,9.1,1.4
			c5.4-2,7.2-5.7,5.4-10.9c-0.1-0.1-0.2-0.3-0.3-0.4c-0.8-1.5-1.8-2.8-3-3.7c0.2-0.1,0.4-0.2,0.6-0.3c0.1-0.1,0.2-0.2,0.4-0.4
			c0.9-0.8,1-1.7,0.3-2.6l0,0c-0.7,1.1-1.6,1.8-2.7,2.2c-0.4-0.2-0.8-0.4-1.1-0.6c0.4-0.4,0.8-0.9,1.2-1.3c0-0.2,0-0.3,0-0.4
			c0.1-0.7,0-1.3-0.4-1.9h-0.2c-0.2,1.8-1.1,2.8-2.4,3c-0.1,0-0.1,0-0.1,0c0-0.1,0-0.2,0.1-0.2c0.5-1.2,0.6-2.3,0.3-3.4
			c-0.9,0.5-1.4,1.6-1.8,3.2c0,0,0,0,0,0.1C46,35,45.1,35,44,35c-0.2,0.2-0.6,0.3-1,0.5C42.2,35.9,41.7,36.5,41.3,37.4z M36.9,36.5
			c0.2,0.2,0.4,0.3,0.6,0.4c1.2,1,2.4,1.8,3.5,2.5c0.4,0.2,0.9,0.3,1.3,0.5c0.3-0.4,0.5-0.8,0.6-1.2c0.2-0.6,0.4-1.1,0.7-1.6
			c4.9-0.6,8.5,1.2,10.9,5.7c0.2,0.6,0.3,1.3,0.4,1.9c0.5,3-0.7,5.2-3.6,6.7c-3.9,1.2-7.1,0.5-9.8-2.4c-6.8,5.9-11.9,5.2-14.9-1.9
			c0-0.1,0-0.2,0-0.3c0.8-4.8,3.6-8.2,8.4-10.2C35.6,36.6,36.2,36.6,36.9,36.5z"/>
		<path style="fill:#BE3689;" d="M49.1,46.1c0.1-0.3,0-0.7-0.1-1.1c-0.4-0.8-0.9-1.6-1.7-2.2c-0.4-0.1-0.8-0.2-1.2-0.3
			c-0.3-0.1-0.7-0.2-1.1-0.4c-0.1,0.1-0.3,0.2-0.5,0.2c-1,0.3-1.7,0.8-2.1,1.6c0,0.4-0.1,0.7-0.2,1.1c-0.2,0.9,0.1,1.5,0.8,1.8
			c0.5-0.2,0.7-0.6,0.7-1.1c0-0.4,0-0.8-0.1-1.2c0.2-0.1,0.3-0.2,0.4-0.3c1.2-0.5,2.2-0.4,3,0.4c0.3,0.4,0.5,0.7,0.6,1.2
			C48,46.9,48.5,47,49.1,46.1z"/>
		<path style="fill:#BE3689;" d="M40,45.8c-0.1-0.3-0.3-0.6-0.4-0.8c-0.2-0.5-0.5-0.8-0.8-1.1c-0.3-0.1-0.5-0.2-0.8-0.3
			c-0.4-0.3-0.9-0.4-1.5-0.5c0,0.1,0,0.1,0,0.1c-0.6,0.2-1.2,0.4-1.9,0.6c-0.1,0.3-0.3,0.6-0.5,1c-0.6,1.4-0.4,2.4,0.7,3
			c0.1-0.3,0.1-0.5,0.2-0.8c0-0.7,0.2-1.3,0.6-1.9c0.9-0.3,1.8-0.3,2.5,0c0.2,0.1,0.2,0.2,0.3,0.3C38.6,46.4,39.2,46.5,40,45.8z"/>
		<path style="fill:#BE3689;" d="M39.5,48.1c0.2,0,0.4,0,0.5,0c0.1-0.2,0.2-0.4,0.1-0.6C39.9,47.7,39.7,47.9,39.5,48.1z"/>
		<path style="fill:#BE3689;" d="M28.1,57.2c0.5,0.2,1,0.4,1.5,0.6c1.5,3.6,3.9,6.5,7.3,9c2.6,1.8,5.4,2.2,8.3,1
			c5.8-2.3,8.9-6.2,9.6-11.6c-0.2,0-0.3,0-0.3,0c0.1-0.3,0.1-0.7,0-1c-5.4,2.2-11.3,3.4-17.5,3.5C34.1,57.9,31.1,57.4,28.1,57.2z
			 M37.8,65.6c-0.4-0.3-0.7-0.6-1-0.9c-2.6-2.6-4.9-4.9-6.9-6.7c5.7,2.4,12,2.9,18.8,1.4c3.1-0.7,5-1.6,5.6-2.9
			c-1.5,3.6-3.7,6.4-6.6,8.4c-1.6-2.1-3.8-2.8-6.7-2.1c-0.7,0.3-1.4,0.7-2.2,1.2c-0.2,0-0.3,0.1-0.4,0.3
			C38.1,64.7,37.9,65.1,37.8,65.6z M44.5,63.9c0.8,0.7,1.6,1.2,2.6,1.4c-1.5,1-3.2,1.7-5,2.2c-1.3-0.2-2.4-0.7-3.5-1.3
			c0.1-0.1,0.2-0.2,0.4-0.4C40.2,64.2,42.1,63.5,44.5,63.9z"/>
		<path style="fill:#BE3689;" d="M42.1,70.1c-1.3-0.7-2.5-1-3.5-0.8c0,0.1,0.1,0.2,0.1,0.2c3.8,2.5,6.5,2.1,8.1-1.1
			C45.3,69,43.7,69.6,42.1,70.1z"/>
	</g>
</g>
</svg>
