<?xml version="1.0" encoding="iso-8859-1"?>
<!-- Generator: Adobe Illustrator 12.0.1, SVG Export Plug-In . SVG Version: 6.00 Build 51448)  -->
<!DOCTYPE svg PUBLIC "-//W3C//DTD SVG 1.1//EN" "http://www.w3.org/Graphics/SVG/1.1/DTD/svg11.dtd" [
	<!ENTITY ns_svg "http://www.w3.org/2000/svg">
	<!ENTITY ns_xlink "http://www.w3.org/1999/xlink">
]>
<svg  version="1.1" id="Layer_1" xmlns="&ns_svg;" xmlns:xlink="&ns_xlink;" width="88.117" height="89.655"
	 viewBox="0 0 88.117 89.655" style="overflow:visible;enable-background:new 0 0 88.117 89.655;" xml:space="preserve">
<g>
	<g>
		<path style="fill:#BE3689;" d="M76.517,40.755c0-0.1,0-0.2-0.1-0.4c-0.1-2.1-1-3.7-2.7-4.6c-1.3,0.2-2.5,0.7-3.2,1.5
			c-3-2.8-6.7-4.3-11.2-4.2c0.3-1.2,0.4-2.3,0.3-3.5c0-0.2,0.1-0.5,0.2-0.7c-0.1-0.3-0.1-0.5-0.1-0.7c0.6,0.4,1.3,0.7,2,1
			c0.5-0.3,1.1-0.6,1.6-1.1c2.8-2.6,3.6-5.8,2.3-9.4c-0.1-0.1-0.2-0.1-0.3-0.2c-0.7-0.2-1.4-0.3-2.1-0.3c-2,0.4-3.9,1.1-5.6,2.1
			c-1.8-0.7-3.8-1.1-5.9-0.9c-3.6,0.4-6.3,2.1-8.2,5c-0.6,1-0.9,1.9-1.1,2.8c-0.1-0.3-0.2-0.6-0.4-1c-2.8-4.8-7-6.9-12.8-6.4
			c-0.1-0.1-0.2-0.2-0.4-0.4c-0.1-0.1-0.2-0.2-0.3-0.3c-0.4-0.1-0.8-0.2-1.2-0.3c-1.3-0.5-2.6-0.8-4.1-0.9c-1.8,2-2.2,4.4-1.2,7.3
			c0.9,2.5,2.6,3.9,5.1,4.1c0.2,1,0.2,2,0.1,3.1c-5.7,1.5-10.8,4.2-15.5,8c0,0.2,0,0.3,0,0.4c0,0.5,0,1,0,1.5c2.1,3.2,5.1,4.2,9,2.9
			c-2.5,3.3-4.3,7-5.5,11.3c-0.8,3.3-1.1,6.3-0.6,8.9c-3.8-2.1-7.9-3.6-12.4-4.6c-2.8,4.2-3,8.9-0.3,14c2.5,5,6,8.6,10.2,10.7
			c-0.2,0.1-0.5,0.1-0.8,0.2c-2.1,0.3-3.9,1.1-5.3,2.5c0.2,0,0.4,0,0.6-0.1c1.8-1,3.8-1.8,6-2.4c0.6,0.3,1.3,0.6,2,0.8
			c-1.1,0.4-2,1.1-2.8,1.9c0.3,0.5,0.7,0.5,1.5,0.1c0.6-0.4,1.3-0.8,1.9-1.3c0.4-0.1,0.7-0.1,1.1-0.2c1.1,0.2,2.3,0.5,3.6,0.6
			c-0.8,0.4-1.4,0.8-1.9,1.3c0.1,0,0.3,0,0.5,0c1.4-0.3,2.7-0.7,4.1-1.1c0.6,0,1.3,0,2.1-0.1c-0.3,0.2-0.6,0.4-0.9,0.6l0.1,0.2
			c0.6-0.3,1.3-0.6,2-0.9c0.2,0,0.5,0,0.7-0.1c1.7-0.2,3-0.8,3.7-1.8c2.8-1.2,5.6-2.3,8.5-3.3c0.2,0.1,0.4,0.2,0.5,0.4
			c-3.5,1.4-6.6,3.2-9.5,5.5v0.2c3.7-1.6,7.4-3.2,10.9-4.9c0.4,0.2,0.8,0.3,1.2,0.5c-2.8,1-5.1,2.6-6.9,4.7c1.2-0.3,2.5-0.7,3.8-1.2
			c2.7-1.1,4.8-2.1,6.2-3.2c2-0.1,4-0.9,6.2-2.3c-0.1-0.2-0.1-0.2-0.2-0.2c-0.2,0.1-0.5,0.2-0.7,0.3c-0.1-0.1-0.1-0.1-0.1-0.2
			c0.5-0.1,1-0.2,1.5-0.2c0.3-0.2,0.7-0.3,1-0.5c0.1,0,0.2,0,0.2,0c0.9-0.4,1.8-0.7,2.7-0.9c-0.2,1.4-0.1,3,0.3,4.6
			c-3.1,0.8-5.4,2.3-6.9,4.7c0.2-0.1,0.4-0.3,0.7-0.4c1.9-1.6,4-2.8,6.4-3.6c0.2,0.6,0.4,1.3,0.7,2c0.2,0,0.3,0.1,0.4,0.1
			c-0.6,0.4-1.1,0.9-1.5,1.5v0.2c1.5-0.1,2.6-0.5,3.5-1.1c3.3,0.8,6.7,0.6,10.2-0.5c-0.5,0.2-1,0.5-1.4,0.8c0.7,0.1,1.5,0.2,2.2,0.2
			c0,0,0.2,0,0.3-0.1c3.8-1.8,7.4-3.8,10.8-5.9c0,0,0,0-0.1,0.1c-1.5,0.4-3.1,1-4.6,1.5c6.4-4,10.2-9.9,11.5-17.7
			c-0.1-0.1-0.1-0.2-0.2-0.3c-1.9-3.1-4.8-4.5-8.7-4.4c-3,0.4-5.8,1.3-8.5,2.8c2.3-9.2-0.2-16.7-7.7-22.5c1-0.2,2,0.1,3.1,0.9
			c0.5,0.4,0.9,0.4,1.2,0.2c0,0.4-0.1,0.7-0.1,1.1c0.5,0.6,1.3,1.1,2.1,1.5C73.317,46.155,75.717,44.455,76.517,40.755z
			 M80.717,64.355c3,0.2,4.8,1.6,5.6,4.3c-0.3,2-1.1,4-2.3,5.7c-6.5,9.6-15.3,13.5-26.4,11.5c-0.2-0.1-0.4-0.4-0.5-0.6
			c0.1,0,0.2,0,0.4-0.1c-0.1-0.1-0.1-0.1-0.2-0.2c-0.1,0-0.3,0-0.5-0.1c-0.3-0.6-0.4-1.2-0.2-1.9c0.1-0.9,0.2-1.8,0.4-2.7
			c0.4-0.6,0.8-1.3,1.2-1.9c2.9-5,7-8.6,12.5-10.6c0,0,0,0,0.1-0.1c2.7-1.8,5.7-2.9,9-3.4
			C80.117,64.355,80.417,64.355,80.717,64.355z M46.417,31.355c0-0.1,0-0.2,0-0.3c3.3-2.7,7.2-4.1,11.7-4.3c0,0.3,0,0.4,0.1,0.6
			c0,1.4,0.1,2.7,0.2,3.9c-0.1,2.2-0.8,4.2-1.8,6c-0.4,0.3-0.8,0.5-1.1,0.8c-0.2,0.1-0.3,0.2-0.4,0.4c-0.8,0.1-1.6,0.3-2.4,0.7
			c-0.3-0.1-0.6-0.2-0.9-0.4c-2.1-0.9-3.9-2.3-5.3-4.1c-0.1,0-0.1,0-0.1,0c0-0.5,0-0.9,0-1.4c0.8,0.2,1.6,0.3,2.3,0.4
			c0.6,0.5,1.2,1,1.8,1.4c0.8,0.5,1.5,0.5,2.1-0.2c0.1-0.6-0.3-1-1.2-1.1c-0.8-0.1-1.4-0.5-1.9-1.1c-0.5,0-0.9,0-1.3-0.1
			c1.6-0.6,3.2-1,4.8-1.2c-0.1-0.1-0.2-0.2-0.3-0.2c-0.7-0.3-1.3-0.5-2-0.6c-0.1,0-0.3,0.1-0.5,0.1c-1.6,0.1-2.8,0.7-3.4,1.9
			c0,0,0,0-0.1,0c0,0-0.1,0-0.2,0.1c-0.1-0.4-0.1-0.8-0.1-1.2c0.1,0,0.1,0,0.1-0.1C46.417,31.355,46.417,31.355,46.417,31.355z
			 M46.317,30.655c0-0.1,0-0.3,0.1-0.4c0.3,0,0.4-0.1,0.4-0.5c0.1,0,0.2-0.1,0.4-0.2c-0.3,0.4-0.6,0.8-0.8,1.2
			C46.317,30.755,46.317,30.655,46.317,30.655z M53.717,22.355c-2,0.6-3.8,1.5-5.3,2.9c-1.6,1.3-2.5,2.6-3,3.8c-0.1,0-0.2,0-0.2,0
			c-0.1,0.2-0.1,0.5-0.1,0.6s0,0.2,0.1,0.3c-0.5-0.2-0.9-0.4-1.4-0.5c0.1-0.1,0.1-0.2,0.2-0.4c-0.3,0-0.5,0-0.7,0
			c0.2-0.4,0.3-0.8,0.5-1.3c0.3-0.7,0.6-1.5,0.9-2.2c0.1-0.3,0.1-0.5,0.1-0.8c0.2-0.5,1.3-1.5,3.4-2.9c2-1.3,5.8-1.5,11.4-0.3
			c-0.2-0.2-0.3-0.3-0.4-0.4c-0.5-0.3-1-0.6-1.5-0.8c2.4-0.3,4.8-0.6,7.4-1c0.1,0.3,0.1,0.6,0.1,0.8c0.5,3.3-0.7,5.7-3.5,7.2
			c-1.5-1.7-3-3-4.3-3.7c0.6,0,1.3,0,1.9,0.1c0-0.1-0.1-0.2-0.1-0.2C57.517,22.355,55.717,22.055,53.717,22.355z M55.717,24.855
			c-2.5,0.3-4.6,1.2-6.3,2.5c2-2.2,4.3-3.3,6.8-3.7c0.2,0.5,0.3,0.9,0.6,1.4C56.417,24.955,56.117,24.955,55.717,24.855z
			 M37.117,25.355c-0.2-0.2-0.5-0.3-0.8-0.6c-0.4-0.1-0.8-0.2-1.2-0.3c-1.3-0.5-2.8-0.8-4.3-0.8c-0.2-0.8-0.5-0.9-1-0.2
			c-0.2,0.4-0.5,0.8-0.8,1.3c-0.7,1.2-1.5,2.1-2.5,2.9c-1.2-0.3-2.1-0.9-2.7-2c-0.6-0.9-0.9-1.9-0.9-3s0.2-2.1,0.4-3
			c0.4-0.1,0.7-0.1,1-0.1c1.8,0,3.3,0.7,4.5,2c2.8-0.8,5.3-0.5,7.6,1c1.9,1.1,3.4,2.6,4.7,4.5c0,0.1,0,0.2,0,0.3
			c0,0.5,0.1,0.9,0.4,1.3c0.2,0.2,0.4,0.4,0.5,0.5c-0.3,0-0.6,0-1,0c0-0.1,0-0.4,0-0.6c-0.3,0-0.6-0.1-0.8-0.2c0,0.2,0,0.2,0.1,0.4
			c-0.2,0.3-0.2,0.5-0.1,0.6l-0.1,0.1c0-0.3,0-0.7-0.2-1.1c0-0.2-0.1-0.4-0.2-0.7l0.1-0.1c0,0-0.1,0-0.2,0c-0.1-0.3-0.2-0.5-0.3-0.8
			c-0.4-0.1-0.7-0.3-1.1-0.6C37.917,25.755,37.517,25.555,37.117,25.355z M38.717,28.055c0.1,0,0.2,0.1,0.3,0.3
			c-2.2-2-4.9-3.1-8-3.3c-0.2,0-0.3,0-0.5,0c0.1-0.3,0.2-0.7,0.3-1c0.7,0.7,2.4,1.2,5,1.5
			C36.917,26.255,37.917,27.055,38.717,28.055z M36.117,28.755c1.3,1,2.5,1.6,3.5,1.6c-0.2,0.5-0.3,1.1-0.4,1.8
			c-1.7-1.5-3.9-2-6.5-1.6l-0.4,0.1c1.9,0.6,3.7,1.2,5.6,1.8c-0.3-0.1-0.7,0-1.2,0.1c-0.7,0.3-1.4,0.8-2.1,1.3
			c-0.1,0.1-0.2,0.3-0.3,0.5l0.1,0.2c1.7-0.7,3.4-1,4.9-0.8c0.1,0.4,0.1,0.8,0.2,1.1c-0.1,0-0.2,0-0.3,0c-0.1,0.1-0.2,0.1-0.2,0.1
			c0.2,0.1,0.4,0.2,0.6,0.3c0.1,0.4,0.2,0.8,0.2,1.1c0,0.2,0,0.3,0,0.4c-1.7,1.4-3.7,2.3-5.8,2.9c-1-0.5-1.9-1.1-2.7-1.9
			c-0.1,0-0.2,0-0.3,0c-0.1-0.1-0.2-0.1-0.3-0.2c-0.1,0-0.2-0.1-0.4-0.3c-0.2-0.4-0.5-0.8-0.6-1.2l0,0l0,0c-0.7-1.6-1-3.3-0.9-5.2
			c0-1.4,0.4-2.8,0.9-4.1c0.1-0.1,0.1-0.2,0.1-0.2c0.8-0.1,1.5-0.2,2.3-0.3C33.517,26.955,34.817,27.755,36.117,28.755z
			 M42.417,29.155h0.1c0,0,0,0,0,0.1C42.517,29.155,42.517,29.155,42.417,29.155z M41.017,31.355c0.3-1,1.1-1.1,2.4-0.3
			c0.5,0.3,1,0.6,1.6,0.8c0,0.4,0,0.8,0,1.2c0.1,0.5,0,1-0.3,1.5c-0.1,0.1-0.2,0.2-0.2,0.3v0.1c-1-0.1-1.9-0.2-2.9-0.2
			c-0.1,0-0.4-0.1-0.6-0.2v-0.2c0-0.3,0-0.7,0-1.1c0-0.5,0-1,0-1.5C41.017,31.655,41.017,31.555,41.017,31.355z M46.817,36.855v-0.1
			c1.5,2.3,3.9,3.8,7.3,4.4c0.1-0.1,0.2-0.2,0.3-0.2c0.2-0.2,0.4-0.3,0.5-0.4c0.6,0.4,1.1,0.7,1.6,1.1c-0.3-0.1-0.5-0.1-0.8-0.1
			c0.9,0.5,1.7,1,2.6,1.6c1.1,0.1,2.2,0.3,3.3,0.6c1,0.8,2,1.7,3,2.7c4.3,4.3,6.1,9.2,5.3,14.8c-0.2,1.6-0.7,3.3-1.3,4.9
			c-1.9,1.1-3.8,2.4-5.6,3.6c-4,2.9-6.4,6-7.2,9.5c-1.1,0.4-2.2,0.8-3.3,1c-0.1,0.1-0.2,0.1-0.3,0.1c-4,1-8.6,1-13.9,0.2
			c-2.7-0.4-5.1-1-7.5-1.8c-0.6-0.4-1.3-0.6-2.1-0.7l-0.2,0.1c-0.1,0-0.1-0.2-0.2-0.2c-0.2-0.5-0.5-0.9-0.6-1.4
			c-0.1-0.2-0.2-0.3-0.4-0.4c-3.4-4.2-7.2-7.5-11.5-10.1c-0.2-0.9-0.2-1.9-0.1-2.9c0.7-8.6,3.7-15.5,9-20.7l3-0.9h0.6
			c0.9-0.5,1.9-0.9,2.8-1.4c1,0.9,2.2,1.4,4,1.5c0.1-0.1,0.2-0.1,0.3-0.2c3-0.9,4.9-2.4,5.7-4.3c2-0.4,4-0.5,5.9-0.1
			C46.917,36.955,46.917,36.955,46.817,36.855z M59.217,33.455c0-0.1,0-0.1,0-0.1c4.5,1.2,8.8,3.2,12.9,5.9c0-0.1-0.1-0.2-0.1-0.3
			c-0.3-0.3-0.6-0.6-0.8-0.9c1,0.1,2.1,0.1,3.1,0.1c0.2,0.3,0.2,0.7,0.2,1.1c-0.1,0.7-0.1,1.3,0.1,1.9c-0.1,0.1-0.1,0.2-0.1,0.4
			c-0.4,1-0.9,1.8-1.8,2.6c-0.8,0.2-1.6,0.5-2.4,0.6c-1.1-0.2-1.8-0.7-2.2-1.2c0-0.3,0-0.5,0.1-0.8c0-0.4,0-0.8-0.1-1.1
			c0.6,0.5,1.3,1,2,1.5c0-0.1-0.1-0.2-0.1-0.3c-2.8-3.9-6.4-6.1-11.1-6.7c0.2-0.6,0.4-1.1,0.6-1.6
			C59.417,34.155,59.217,33.755,59.217,33.455z M58.617,36.855c0.1,0,0.2,0,0.3,0.1C58.817,36.855,58.717,36.855,58.617,36.855z
			 M61.017,41.555c-0.4,0-0.8-0.1-1.1-0.1c-0.9-0.9-2-1.7-3-2.4c0.1,0,0.2-0.1,0.3-0.2c0.5-0.5,0.9-1,1.2-1.6c2,1.3,4.1,2.4,6.4,3.2
			c0.1,0.2,0.1,0.3,0.2,0.4c0,0.2,0.1,0.3,0.2,0.4c-0.3,0.1-0.6,0.1-1,0c-0.6-0.1-1.3-0.1-2-0.2c-0.3,0-0.5,0-0.7,0.1
			C61.217,41.255,61.117,41.455,61.017,41.555z M64.717,39.655c0,0.1,0,0.1,0,0.1c0,0.1,0,0.1,0,0.1c-0.2-0.2-0.5-0.4-0.8-0.6
			c-0.8-0.1-1.5-0.5-2.2-1.2C62.717,38.555,63.717,39.155,64.717,39.655z M66.317,40.655c-0.1,0-0.1-0.1-0.1-0.1
			c0.5,0.2,0.9,0.5,1.3,0.8c-0.1-0.1-0.2-0.1-0.3-0.1c-0.1,0.1-0.1,0.2-0.2,0.3C66.817,41.255,66.617,40.955,66.317,40.655z
			 M14.117,43.355c-0.2-0.2-0.5-0.5-0.6-0.7c-0.4-0.5-0.6-1-0.8-1.5c0.8-0.6,1.7-1.2,2.5-1.8c0.8-0.3,1.5-0.5,2.3-0.7
			c-0.1-0.1-0.2-0.2-0.2-0.2c-0.2-0.1-0.3-0.1-0.4-0.1c1.7-1,3.6-1.9,5.6-2.6c2.1-0.7,3.6-1.6,4.6-2.5c0,0.4-0.1,0.8-0.2,1.3
			c0.2,0,0.3,0,0.4,0c0.2,0.4,0.3,0.8,0.4,1.1c-3.2,0.1-6,1.5-8.2,4.1c0,0.2,0,0.3,0,0.4c0.1,0.6,0.2,1.2,0.1,1.9c0,0.6,0,1.2,0,1.8
			C17.817,44.755,16.017,44.655,14.117,43.355z M24.517,40.455c-0.3-0.1-0.6-0.2-0.9-0.3c-0.3,0.3-0.7,0.6-1,0.9c0-0.2,0-0.4,0-0.5
			c0-0.2-0.1-0.3-0.1-0.3c-0.2-0.2-0.3-0.4-0.5-0.5c0.1-0.1,0.2-0.1,0.3-0.2c1.1-0.6,2.2-1.2,3.3-1.8c-0.1,0.2-0.2,0.3-0.2,0.4
			c0.9-0.5,1.9-0.9,3.1-1c-0.1-0.1-0.2-0.2-0.2-0.2c-0.2-0.1-0.4-0.1-0.6-0.1c0.1-0.1,0.3-0.2,0.5-0.2c0.4,0.7,1.1,1.3,1.8,1.8
			c-0.7,0.3-1.2,0.7-1.8,1.1h-0.5L24.517,40.455z M21.317,40.355h0.1c-0.2,0.3-0.4,0.6-0.5,1c0-0.3,0-0.5,0.1-0.7
			C21.117,40.555,21.217,40.455,21.317,40.355z M20.817,43.055c0.6-0.1,1.1-0.4,1.4-0.9c0.3,0,0.6,0,1-0.1c-0.3,0.4-0.5,0.7-0.7,1
			c-0.6,0.7-1.1,1.3-1.7,2c0-0.1,0-0.2,0-0.3C20.817,44.255,20.817,43.655,20.817,43.055z M27.117,40.255c0.1-0.1,0.2-0.2,0.2-0.2
			c0.2-0.1,0.3-0.2,0.5-0.2C27.517,39.955,27.317,40.055,27.117,40.255z M1.317,67.055c0-0.2,0-0.3,0.1-0.4c0.1-1.2,0.3-2.3,0.6-3.4
			c0.1-0.1,0.2-0.2,0.3-0.4c0.2-0.1,0.3-0.2,0.4-0.3c12.3,3,21.2,10.1,26.8,21.3c-0.3,0.5-0.5,0.9-0.8,1.3c-0.7,0.3-1.4,0.7-1.9,1.1
			c-1.4,0.1-2.7,0.1-4,0C10.517,85.255,3.417,78.855,1.317,67.055z M29.917,81.055c-0.3-0.8-0.6-1.6-1.1-2.4c0.4,0.4,0.7,0.7,1,0.9
			c0,0.2,0,0.3,0,0.4c0.4,0.1,0.7,0.2,1,0.3c1.4,0.2,2.8,0.6,4.1,1.2c0.1,0,0.2,0,0.2,0.1l0,0c0.2,0.1,0.4,0.2,0.6,0.3
			c0-0.1,0-0.2,0-0.2c0.5,0.1,0.9,0.2,1.4,0.2c-2.2,0.6-4.3,1.3-6.3,2.2c0.1-0.6,0.1-1.2,0-1.9
			C30.417,81.855,30.117,81.455,29.917,81.055z M42.617,82.755c0.1-0.1,0.3-0.2,0.5-0.3c2,0.1,4-0.1,6.1-0.3c0,0,0,0.1,0,0.3
			c-0.8,0.2-1.7,0.3-2.5,0.4c0,0,0,0,0-0.1c0,0.1-0.1,0.1-0.1,0.1C45.217,82.955,43.917,82.955,42.617,82.755z"/>
		<path style="fill:#BE3689;" d="M35.117,23.455c0,0,0,0-0.1,0.1c0.1,0,0.1,0,0.1,0S35.117,23.555,35.117,23.455z"/>
		<path style="fill:#BE3689;" d="M25.317,25.655c0-0.1,0-0.1,0-0.1s0,0-0.1,0C25.317,25.555,25.317,25.555,25.317,25.655z"/>
		<path style="fill:#BE3689;" d="M35.317,43.455c-0.3-0.1-0.6,0-0.7,0.3c-0.3,0.9-0.2,1.8,0.1,2.6c0.2,0.2,0.4,0.3,0.6,0.5
			c-0.3,0.1-0.7,0.3-1,0.5c-0.7-0.2-1.3-0.6-2-0.9c0-0.2,0-0.3,0-0.4c0.1-0.4,0-0.8-0.2-1.2c-0.3,0.1-0.3,0.1-0.4,0.2
			c-0.5,0.8-0.5,1.5-0.1,2.2c0.4,0.4,0.9,0.8,1.4,1c-0.2,0.1-0.3,0.2-0.5,0.3c-1,0-1.8-0.5-2.5-1.5c-0.4-0.1-0.7,0-0.7,0.4
			c-0.1,0.9,0.4,1.5,1.4,1.9c0.2,0.1,0.4,0.2,0.6,0.2c-4.8,4.4-5.1,9.3-0.8,14.5c4.6,1.7,8.8,1.3,12.7-1.4c2.3,2.5,5.3,3.2,8.9,2.2
			c5.6-1.6,7.6-5.1,6.3-10.5c-0.2-0.1-0.2-0.3-0.3-0.4c-0.7-1.6-1.6-2.9-2.7-4c0.2,0,0.4-0.1,0.6-0.2c0.1-0.1,0.3-0.2,0.4-0.3
			c1-0.8,1.2-1.7,0.6-2.6h-0.1c-0.7,1-1.7,1.6-2.9,2c-0.3-0.3-0.7-0.5-1-0.7c0.4-0.4,0.9-0.8,1.4-1.3c0-0.1,0-0.2,0-0.4
			c0.1-0.6,0.1-1.3-0.3-1.8h-0.2c-0.4,1.7-1.3,2.6-2.6,2.7c-0.1,0-0.1,0-0.1,0c0-0.1,0-0.1,0.1-0.2c0.6-1.1,0.8-2.2,0.6-3.4
			c-0.9,0.5-1.6,1.5-2,3.1c-0.1,0-0.1,0-0.1,0.1c-1-0.2-1.9-0.3-2.9-0.4c-0.3,0.1-0.7,0.3-1.1,0.4c-0.8,0.4-1.4,0.9-1.8,1.7
			c-0.1,0.1-0.1,0.1-0.2,0.2c-2-2.1-4.1-3-6.4-2.7c-0.4-0.3-1-0.6-1.9-0.7c0-0.2,0-0.3,0.1-0.4
			C35.817,44.355,35.717,43.855,35.317,43.455z M28.617,57.255c0-0.1,0-0.2,0.1-0.3c0.2-1.1,0.5-2.1,1-2.9c4.5,0.7,9,0.2,13.5-1.4
			c4.4,2.5,9,3.8,13.7,3.9c0,0.2,0,0.4,0,0.5c0.3,3-1.1,5.1-4.1,6.4c-3.9,0.9-7-0.1-9.4-3c0.8,0.5,1.8,0.5,2.8,0
			c0.4-0.4,0.6-0.8,0.5-1.2c0-0.2,0-0.5-0.1-0.7c-0.1-0.1-0.2-0.3-0.3-0.4c-0.5-0.7-1.2-1-2.1-0.9c-0.1,0.1-0.3,0.2-0.5,0.3
			c-0.4,0.2-0.8,0.5-1.1,0.7c0,0.2,0,0.4,0,0.6c-0.4-0.8-1-1.3-1.9-1.4c-0.2,0-0.5,0.2-0.7,0.5c-0.4,0.3-0.6,0.8-0.4,1.5
			c0.8,1.5,1.8,1.5,3.1,0c0,0.2,0.1,0.5,0.3,0.7c0.1,0,0.2,0.1,0.3,0.2C36.017,65.555,31.117,64.555,28.617,57.255z M56.717,55.155
			c0.1,0.2,0.1,0.5,0.1,0.8c-5-1.1-9.8-2.6-14.6-4.6c-4.4,1.2-8.5,2-12.4,2.3c1.6-2.9,4.3-5,8-6.2c0.6,0,1.2,0,1.8,0
			c0.2,0.2,0.4,0.3,0.6,0.5c1.1,1,2.2,1.9,3.1,2.6c0.1,0,0.2,0,0.2,0c0.5,0.2,1,0.4,1.4,0.5c0.2-0.2,0.4-0.6,0.6-0.9
			c0.2-0.6,0.5-1.1,0.8-1.5C51.217,48.355,54.717,50.455,56.717,55.155z"/>
		<path style="fill:#BE3689;" d="M31.317,73.755c1-1.2,2.3-1.7,3.9-1.6c4.2,1.6,8.4,1.3,12.9-0.9c0.2,0.2,0.4,0.3,0.6,0.3
			c2.7,1,5,0.4,7-1.7c0.6,0,1.2,0,1.9-0.1c0.6,0.6,1.3,0.8,2.1,0.8c0.2,0,0.4-0.1,0.5-0.2c0-0.1,0-0.2,0-0.2c-1-1.7-2.7-2.3-5-1.8
			c0,0.1,0,0.1,0,0.1c-1,0.4-1.8,1-2.6,1.8c-0.2,0.2-0.3,0.3-0.4,0.4c-0.6,0-1.2,0.1-1.9,0.1c-2.5-1.2-5-1.1-7.5,0.3
			c-0.6,0.4-1.3,0.5-1.9,0.4c-4.5-1.2-8.2-0.4-11.1,2.4C30.117,74.455,30.617,74.455,31.317,73.755z"/>
		<path style="fill:#BE3689;" d="M48.317,72.855c-0.1,0-0.2,0.1-0.3,0.1c-2.5,1.2-5,1.7-7.7,1.4c0.1,0.2,0.1,0.2,0.2,0.3
			C44.117,75.955,46.717,75.355,48.317,72.855z"/>
		<path style="fill:#BE3689;" d="M82.717,84.655c-1,0.3-2.1,0.7-3.1,1.3c-0.8,0.3-1.3,0.9-1.6,1.7c0.7,0.1,1.3-0.1,1.9-0.5
			c1.4-1.2,3.1-1.8,5.1-2c-0.1-0.1-0.2-0.2-0.2-0.2C84.117,84.755,83.417,84.655,82.717,84.655z"/>
		<path style="fill:#BE3689;" d="M38.417,0.555c0,0-0.1,0.1-0.1,0.2c6.9-0.7,11.2,1.9,12.8,7.8c-1,1.1-2.2,1.4-3.9,0.8v-0.1
			c-0.4-0.8-1-1.4-1.9-1.9c-2.8-1.7-4.3-1.4-4.6,0.8c1,1.2,2.4,1.8,4.3,1.9c1,0.1,1.4,0.5,1.2,1.3c0,0.2,0,0.3-0.1,0.4
			c-0.5,0.7-1.1,1.3-1.7,1.8c-0.2,0.1-0.4,0.2-0.6,0.2c-0.1-0.1-0.3-0.2-0.4-0.3c-0.2-0.1-0.3-0.2-0.4-0.3c-2.1-0.9-3.2-0.7-3.3,0.7
			c0,0.2,0,0.3,0,0.4c0.7,1.4,1.9,1.8,3.8,1.4c0.1-0.1,0.1,0,0.2,0.1c0,0.3,0,0.5,0,0.8s0,0.7,0,1.1c-0.1,0.1-0.1,0.2-0.1,0.4
			c-0.3,0.5-0.6,1-1.1,1.2c-0.1,0-0.2,0.1-0.3,0.3c0.5,0.1,1,0.3,1.5,0.3c0.1,0,0.2,0,0.4-0.1c0.1-0.5,0.3-1,0.4-1.5
			c0.1-0.9,0.3-1.7,0.3-2.6c0-0.2,0.1-0.5,0.2-0.8c0.3-0.4,0.7-0.7,1.1-1.1c0.7-0.4,1-1.1,1.1-1.9c0-0.1,0-0.2,0-0.3
			c0.2-1.2,1.4-1.7,3.5-1.6c0.6,0,1.1-0.3,1.4-0.8c0-0.1,0-0.2,0-0.4c-0.9-6.3-4.9-9.2-11.9-8.7
			C39.617-0.045,39.017,0.055,38.417,0.555z M45.517,9.155c-1.4-0.1-2.6-0.6-3.8-1.4c0.7,0,1.4-0.1,2-0.1c0.1,0.1,0.2,0.1,0.3,0.2
			c0.7,0.3,1.3,0.8,1.7,1.4C45.617,9.255,45.517,9.255,45.517,9.155z"/>
		<path style="fill:#BE3689;" d="M1.517,87.655c0.3,0,0.6-0.1,0.8-0.2c1.9-1,3.9-1.7,6.2-2.3c-0.1-0.1-0.1-0.1-0.2-0.2
			c-0.5-0.1-1-0.1-1.6-0.2c-0.2,0.3-0.5,0.5-1,0.6C3.817,85.855,2.417,86.655,1.517,87.655z"/>
		<path style="fill:#BE3689;" d="M41.017,89.155c0.3,0,0.7-0.1,1-0.2c2.6-0.9,5.2-2,7.7-3c2-0.9,3.4-1.8,4.4-2.7
			c0.7-0.7,1.1-1.4,1.1-2.1c0,0.1,0,0.1,0,0.1c-0.6,0.2-1.2,0.5-1.8,0.8c-0.1,0-0.1,0-0.2,0
			C48.917,84.055,44.817,86.355,41.017,89.155z"/>
	</g>
</g>
</svg>
