<?xml version="1.0" encoding="iso-8859-1"?>
<!-- Generator: Adobe Illustrator 12.0.1, SVG Export Plug-In . SVG Version: 6.00 Build 51448)  -->
<!DOCTYPE svg PUBLIC "-//W3C//DTD SVG 1.1//EN" "http://www.w3.org/Graphics/SVG/1.1/DTD/svg11.dtd" [
	<!ENTITY ns_svg "http://www.w3.org/2000/svg">
	<!ENTITY ns_xlink "http://www.w3.org/1999/xlink">
]>
<svg  version="1.1" id="Layer_1" xmlns="&ns_svg;" xmlns:xlink="&ns_xlink;" width="88.117" height="93.008"
	 viewBox="0 0 88.117 93.008" style="overflow:visible;enable-background:new 0 0 88.117 93.008;" xml:space="preserve">
<g>
	<g>
		<path style="fill:#BE3689;" d="M87.917,69.808c-1.9-3.1-4.8-4.5-8.7-4.4c-3,0.4-5.8,1.3-8.5,2.8c1.4-5.4,1-10.2-1-14.5
			c0.2-0.1,0.3-0.3,0.5-0.5c0.9-1,1.7-2,2.5-3c0-0.5,0.1-1.1,0.2-1.5c0.4-1.4,0.5-2.7,0.3-4.1c-0.1-0.1-0.3-0.2-0.5-0.3
			c-0.7-0.2-1.3-0.4-2-0.6c-0.9-0.3-1.6-0.3-2.2,0c-0.3-0.3-0.8-0.5-1.2-0.7c-1.9-1.9-4.3-2.8-7.3-2.7c0-0.1,0-0.1,0-0.1
			c-0.1-0.1-0.1-0.1-0.1,0c0-0.1,0-0.1,0-0.2c0,0-0.2,0-0.2,0.1c0.2-0.9,0.3-1.7,0.3-2.6c0,0,0,0,0.1,0l0,0c0.1,0,0.4,0.1,0.6,0.1
			c1.2-0.6,2.3-1.3,3.4-2.1c0.1-0.3,0.2-0.5,0.4-0.7c0.5-0.9,1-1.8,1.3-2.7c-0.1-0.3-0.1-0.7,0-1.1c0.1-0.2,0.1-0.5,0.3-0.8
			c-0.4-0.3-0.4-0.6-0.4-1.1c0.2-0.8,0-1.6-0.4-2.2c-0.1-0.2-0.2-0.2-0.4-0.3c-0.4-0.1-0.8-0.2-1.2-0.2c-2.3,0-4.2,0.7-5.7,2.1
			c-1.7-0.1-3.5-0.2-5.3-0.3c-3.2,0.7-5.8,2.3-7.9,4.7c-0.7,0.8-1.1,1.7-1.3,2.5c-0.3,0-0.6,0-0.9,0.1c-0.1-0.4-0.3-0.8-0.6-1.1
			c-2.8-2.5-6-4.2-9.5-5.1c0-0.1,0-0.1,0-0.1c-2.2-0.5-4.6-0.8-7-0.8c-0.2-0.2-0.4-0.3-0.5-0.4c-1.2-1.2-2.6-1.7-4.3-1.5
			c-2.3,1.6-2.9,4.2-1.9,7.6c1,3.5,3.4,4.9,7,4.4c0.3-0.4,0.5-0.7,0.7-1c0.2-0.4,0.4-0.8,0.6-1.1c0-0.1,0-0.2,0.1-0.2
			c0.2-0.2,0.4-0.3,0.6-0.5c0,0,0,0,0.1,0c0.1,0.9-0.1,2-0.2,3.2c-0.3,0.1-0.6,0.2-0.8,0.2c0.1,0.1,0.2,0.3,0.3,0.4
			c-1-0.3-1.9-0.4-3-0.3c-1.3,0.4-2.5,1.2-3.5,2.3c-0.1,0.1-0.2,0.2-0.3,0.3c0-0.1-0.1-0.2-0.2-0.3c0,0.1-0.1,0.2-0.2,0.3
			c-0.5,0.8-0.8,1.6-1,2.3c-0.6-0.1-1.2-0.2-1.8-0.2c-0.1,0-0.3,0.1-0.5,0.1c-1.4,0.3-2.6,0.9-3.5,1.7c0,0.3,0,0.5,0,0.8
			c0,0.5,0.1,1,0.2,1.4c0.2,0.7,0.5,1.3,0.8,2c0.6,0.3,1,0.7,1.5,1.3c0.7,0.8,1.5,1.3,2.4,1.4c-1.2,2.2-2.2,4.6-2.9,7.2
			c-0.8,3.3-1.1,6.3-0.6,8.9c-3.8-2.1-7.9-3.6-12.4-4.6c-2.8,4.2-3,8.9-0.3,14c2.5,5,6,8.6,10.2,10.7c-0.2,0.1-0.5,0.1-0.8,0.2
			c-2.1,0.3-3.9,1.1-5.3,2.5c0.2,0,0.4,0,0.6-0.1c1.8-1,3.8-1.8,6-2.4c0.6,0.3,1.3,0.6,2,0.8c-1.1,0.4-2,1.1-2.8,1.9
			c0.3,0.5,0.7,0.5,1.5,0.1c0.6-0.4,1.3-0.8,1.9-1.3c0.4-0.1,0.7-0.1,1.1-0.2c1.1,0.2,2.3,0.5,3.6,0.6c-0.8,0.4-1.4,0.8-1.9,1.3
			c0.1,0,0.3,0,0.5,0c1.4-0.3,2.7-0.7,4.1-1.1c0.6,0,1.3,0,2.1-0.1c-0.3,0.2-0.6,0.4-0.9,0.6l0.1,0.2c0.6-0.3,1.3-0.6,2-0.9
			c0.2,0,0.5,0,0.7-0.1c1.7-0.2,3-0.8,3.7-1.8c2.8-1.2,5.6-2.3,8.5-3.3c0.2,0.1,0.4,0.2,0.5,0.4c-3.5,1.4-6.6,3.2-9.5,5.5v0.2
			c3.7-1.6,7.4-3.2,10.9-4.9c0.4,0.2,0.8,0.3,1.2,0.5c-2.8,1-5.1,2.6-6.9,4.7c1.2-0.3,2.5-0.7,3.8-1.2c2.7-1.1,4.8-2.1,6.2-3.2
			c2-0.1,4-0.9,6.2-2.3c-0.1-0.2-0.1-0.2-0.2-0.2c-0.2,0.1-0.5,0.2-0.7,0.3c-0.1-0.1-0.1-0.1-0.1-0.2c0.5-0.1,1-0.2,1.5-0.2
			c0.3-0.2,0.7-0.3,1-0.5c0.1,0,0.2,0,0.2,0c0.9-0.4,1.8-0.7,2.7-0.9c-0.2,1.4-0.1,3,0.3,4.6c-3.1,0.8-5.4,2.3-6.9,4.7
			c0.2-0.1,0.4-0.3,0.7-0.4c1.9-1.6,4-2.8,6.4-3.6c0.2,0.6,0.4,1.3,0.7,2c0.2,0,0.3,0.1,0.4,0.1c-0.6,0.4-1.1,0.9-1.5,1.5v0.2
			c1.5-0.1,2.6-0.5,3.5-1.1c3.3,0.8,6.7,0.6,10.2-0.5c-0.5,0.2-1,0.5-1.4,0.8c0.7,0.1,1.5,0.2,2.2,0.2c0,0,0.2,0,0.3-0.1
			c3.8-1.8,7.4-3.8,10.8-5.9c0,0,0,0-0.1,0.1c-1.5,0.4-3.1,1-4.6,1.5c6.4-4,10.2-9.9,11.5-17.7
			C88.017,70.008,88.017,69.908,87.917,69.808z M79.817,67.608c0.3,0.1,0.6,0.1,0.9,0.1c3,0.2,4.8,1.6,5.6,4.3c-0.3,2-1.1,4-2.3,5.7
			c-6.5,9.6-15.3,13.5-26.4,11.5c-0.2-0.1-0.4-0.4-0.5-0.6c0.1,0,0.2,0,0.4-0.1c-0.1-0.1-0.1-0.1-0.2-0.2c-0.1,0-0.3,0-0.5-0.1
			c-0.3-0.6-0.4-1.2-0.2-1.9c0.1-0.9,0.2-1.8,0.4-2.7c0.4-0.6,0.8-1.3,1.2-1.9c2.9-5,7-8.6,12.5-10.6c0,0,0,0,0.1-0.1
			C73.517,69.208,76.517,68.108,79.817,67.608z M46.617,33.408c0.1-0.2,0.2-0.3,0.2-0.4c3.1-2.6,6.6-3.7,10.8-3.4
			c0.6,0.6,1.3,0.8,2.1,0.8c0.2,0,0.4,0,0.5-0.2c0-0.1,0-0.2,0-0.3c-0.1-0.3-0.3-0.5-0.5-0.7c-0.2-0.2-0.3-0.3-0.5-0.5
			c0,0-0.1,0-0.2,0c1.7-0.5,3.5-0.8,5.5-1c0.4,3.9-1,6.9-4.4,8.9c0-0.2,0-0.3,0-0.4h-0.1c-0.1,0-0.1-0.1-0.1-0.2
			c0.1,0.1,0.2,0.2,0.3,0.2c-0.2-0.7-0.2-1.4,0-2.1c-0.2-0.1-0.5-0.1-0.6-0.1c-0.2-0.7-0.4-1.5-0.8-2.3c-0.1-0.1-0.2-0.1-0.4-0.2
			c-0.2,0-0.4,0-0.6-0.1c-0.1-0.1-0.2-0.3-0.3-0.4c-0.5,0.1-0.9,0.1-1.4,0.2v0.1c0-0.1-0.1-0.1-0.2-0.1c-1,0.2-2,0.4-3,0.7
			c-1.5,0.4-2.8,1.1-3.9,2.1c0.3-0.6,0.8-1.1,1.2-1.5c-0.7,0.2-1.5,0.5-2.3,0.7c-0.3,0.4-0.8,0.7-1.4,1c-0.2,0.4-0.3,0.8-0.4,1.2
			c-0.4,0.1-0.7,0.2-1,0.3c0,0.1,0,0.2,0,0.3s0,0.2,0.1,0.3c-0.2-0.1-0.3-0.2-0.5-0.2C45.417,35.308,46.017,34.408,46.617,33.408z
			 M41.017,35.508c0,0,0-0.1,0-0.2c-0.2-0.1-0.5-0.2-0.8-0.3c0,0,0,0,0.1,0.1c-0.2,0.2-0.2,0.5-0.1,0.6l-0.1,0.1
			c-2.8-2.9-6.3-4.5-10.4-4.6c-0.3,0.2-0.5,0.3-0.8,0.5c-0.1,0.2-0.2,0.3-0.3,0.5c-0.1,0-0.1,0-0.1,0c-0.1,0.4-0.2,0.8-0.2,1.2
			c0,0,0,0-0.1,0c-0.5-0.1-1-0.2-1.5-0.2c-0.4,0.2-0.5,0.3-0.3,0.6c-0.4,0.1-0.7,0.4-1,1s-0.6,1.3-0.8,1.9c-0.5,0-0.9-0.1-1.4-0.3
			c-0.4-0.1-0.9-0.3-1.4-0.5c-0.4-0.6-0.8-1.2-1.2-1.9c-0.3-0.8-0.5-1.5-0.5-2.3c-0.1-1.3,0.3-2.3,1.4-3.2c0.2,0.1,0.5,0.2,0.7,0.2
			c0.3,0.1,0.5,0.2,0.8,0.2c0.3,0.3,0.7,0.7,1.2,1c0.4,0.3,1,0.6,1.5,0.8c1.9-0.6,3.9-0.7,5.9-0.1c3.9,1.1,7.3,2.7,10.1,4.5
			c0.2,0.3,0.4,0.5,0.6,0.6c-0.3,0-0.6-0.1-0.8-0.2C41.317,35.508,41.217,35.508,41.017,35.508z M41.017,38.108c0-0.1,0-0.2,0-0.4
			c0.3-1,1.1-1.1,2.4-0.3c0.5,0.3,1,0.6,1.6,0.8c0,0.4,0,0.8,0,1.2c0.1,0.5,0,1-0.3,1.5c-0.1,0.1-0.2,0.2-0.2,0.3v0.1
			c-1-0.1-1.9-0.2-2.9-0.2c-0.1,0-0.4-0.1-0.6-0.2v-0.2c0-0.3,0-0.7,0-1.1C41.017,39.108,41.017,38.608,41.017,38.108z
			 M37.917,38.808c-0.3-0.1-0.7,0-1.2,0.1c-0.7,0.3-1.4,0.8-2.1,1.3c-0.1,0.1-0.2,0.3-0.3,0.5l0.1,0.2c1.7-0.7,3.4-1,4.9-0.8
			c0.1,0.4,0.1,0.8,0.2,1.1c-0.1,0-0.2,0-0.3,0c-0.1,0.1-0.2,0.1-0.2,0.1c0.2,0.1,0.4,0.2,0.6,0.3c0.1,0.4,0.2,0.8,0.2,1.1
			c0,0.2,0,0.3,0,0.4c-1.7,1.4-3.7,2.3-5.8,2.9c-1-0.5-1.9-1.1-2.7-1.9c-0.1,0-0.2,0-0.3,0c-0.1-0.1-0.2-0.1-0.3-0.2
			c-0.1,0-0.2-0.1-0.4-0.3c-1.1-1.9-1.6-4-1.5-6.4c0-1.4,0.3-2.7,0.9-3.9c0-0.1,0.1-0.2,0.1-0.3s0-0.1,0-0.1
			c0.8-0.1,1.5-0.2,2.3-0.3c1.4,0.7,2.7,1.5,4,2.5c1.3,1,2.5,1.6,3.5,1.6c-0.2,0.5-0.3,1.1-0.4,1.8c-1.7-1.5-3.9-2-6.5-1.6l-0.4,0.1
			C34.217,37.608,36.017,38.208,37.917,38.808z M53.017,37.708c-0.1-0.1-0.2-0.2-0.3-0.2c-0.7-0.3-1.3-0.5-2-0.6
			c-0.1,0-0.3,0.1-0.5,0.1c-1.6,0.1-2.8,0.7-3.4,1.9c0,0,0,0-0.1,0c0,0-0.1,0-0.2,0.1c-0.1-0.4-0.1-0.8-0.1-1.2c0.1,0,0.1,0,0.1-0.1
			c0.5-0.2,1-0.7,1.3-1.3c3-2.1,6.4-3.2,10.3-3.3c0.1,0.8,0.2,1.5,0.3,2.3c0.1,1.8,0,3.5-0.5,5.1c0,0.1,0,0.1,0,0.2
			c-0.3,0.7-0.6,1.5-1,2.3c-0.6,0.5-1.2,1-1.9,1.5c0.1,0,0.2,0.1,0.2,0.1c0,0.1-0.1,0.1-0.1,0.2c-0.8,0.1-1.6,0.3-2.4,0.7
			c-0.3-0.1-0.6-0.2-0.9-0.4c-2.1-0.9-3.9-2.3-5.3-4.1c-0.1,0-0.1,0-0.1,0c0-0.5,0-0.9,0-1.4c0.8,0.2,1.6,0.3,2.3,0.4
			c0.6,0.5,1.2,1,1.8,1.4c0.8,0.5,1.5,0.5,2.1-0.2c0.1-0.6-0.3-1-1.2-1.1c-0.8-0.1-1.4-0.5-1.9-1.1c-0.5,0-0.9,0-1.3-0.1
			C49.817,38.308,51.417,37.908,53.017,37.708z M47.017,43.408c-0.1-0.1-0.1-0.1-0.2-0.2v-0.1c1.5,2.3,3.9,3.8,7.3,4.4
			c0.1-0.1,0.2-0.2,0.3-0.2c0.2-0.2,0.4-0.3,0.5-0.4c0.1,0,0.1,0,0.1,0.1c0.5-0.4,1-0.8,1.5-1.1c0.2,0.1,0.4,0.2,0.7,0.4
			c0.5-0.5,1.1-1,1.5-1.5c2,1.4,3.9,3,5.9,5c4.3,4.3,6.1,9.2,5.3,14.8c-0.2,1.6-0.7,3.3-1.3,4.9c-1.9,1.1-3.8,2.4-5.6,3.6
			c-4,2.9-6.4,6-7.2,9.5c-1.1,0.4-2.2,0.8-3.3,1c-0.1,0.1-0.2,0.1-0.3,0.1c-4,1-8.6,1-13.9,0.2c-2.7-0.4-5.1-1-7.5-1.8
			c-0.6-0.4-1.3-0.6-2.1-0.7l-0.2,0.1c-0.1,0-0.1-0.2-0.2-0.2c-0.2-0.5-0.5-0.9-0.6-1.4c-0.1-0.2-0.2-0.3-0.4-0.4
			c-3.4-4.2-7.2-7.5-11.5-10.1c-0.2-0.9-0.2-1.9-0.1-2.9c0.5-5.3,1.8-10,4-14.1l0,0c1.9-3.4,4.3-6.3,7.3-8.7c0,0,0,0,0.1,0.1
			c0.1-0.1,0.3-0.1,0.5-0.1v0.1c-0.1,0-0.3,0.1-0.4,0.2c0,0.1,0,0.1,0.1,0.2c0-0.2,0.3-0.4,0.5-0.6c0,0.1,0,0.1,0.1,0.1
			c0.1-0.2,0.2-0.3,0.6-0.2c0.4,0.3,0.8,0.8,1,1.3c0.1-0.1,0.2-0.1,0.3-0.2c0,0.1,0.2,0.1,0.2,0.2c-0.2,0-0.2,0.1-0.3,0.2
			c0.1,0.3,0.2,0.6,0.3,1c0.2,0.2,0.5,0.4,0.8,0.7c0.1-0.1,0.2-0.1,0.3-0.2c0.7,0.7,1.6,1.1,2.8,1.4c1-0.3,2.1-0.6,3.2-0.7
			c2-1,3.3-2.2,4-3.7C43.117,43.108,45.117,43.008,47.017,43.408z M60.217,42.008c0-0.1,0-0.2,0-0.3c-0.1,0-0.1,0-0.2,0
			c0-0.3-0.1-0.5-0.1-0.8c2.6,0.5,4.8,1.4,6.8,2.8c0.3,0.6,0.9,1.1,1.8,1.4c0.1,0.3,0.2,0.5,0.2,0.8c0.3,0.7,0.7,1,1.3,1
			c0-0.3,0-0.5-0.1-0.7c-0.2-0.6-0.4-1.1-0.7-1.7c1.1,0.3,2,0.7,2.9,1.5c0,0.1,0,0.2,0,0.4c-0.4,2.4-1.4,4.4-3.1,6
			c-0.4-0.8-0.9-1.5-1.4-2.2c-0.9-0.6-1.7-1.2-2.5-2.1c-0.9-0.8-1.5-1.6-2.1-2.5c-0.3-0.1-0.5-0.3-0.8-0.5c-0.2-0.2-0.4-0.5-0.6-0.8
			c0,0,0,0,0.1,0c-0.5-0.3-0.9-0.6-1.2-0.8c0.2,0,0.6,0,0.9,0C60.917,43.108,60.617,42.608,60.217,42.008z M18.617,45.008l0.1,0.1
			c-0.1,0.7-0.1,1.4,0,2c0.1-0.1,0.2-0.2,0.3-0.3c0.4-0.5,0.6-1.1,0.9-1.5c0-0.1,0-0.1,0-0.1c0.2,0,0.3-0.1,0.4-0.2
			c0-0.8,0.2-1.4,0.8-2c1.9-1.7,4-2.7,6.3-3c0.1,0.4,0.1,0.7,0,1.1c0.2,0.6,0.4,1.1,0.6,1.5c0,0,0,0-0.1,0c-0.2-0.3-0.5-0.7-0.7-1.1
			c-0.3,0.2-0.5,0.4-0.7,0.5c-0.5,0.8-1.2,1.4-2,1.9c-0.3,0.3-0.6,0.6-0.9,1l0,0c-0.4,0.5-0.8,1-1.1,1.5c-0.1,0.1-0.1,0.2-0.2,0.3
			c-0.5,0.5-1,1.1-1.5,1.7c-0.8,1-1.6,2.2-2.2,3.3c-0.9-0.5-1.8-1-2.6-1.6c-1.2-0.9-1.9-2.1-1.8-3.6c0.1-0.1,0.3-0.2,0.4-0.3
			c1.4-0.4,2.7-0.8,4-1.3C18.617,44.908,18.617,44.908,18.617,45.008z M27.217,36.008c0.2-0.6,0.2-1.1,0.1-1.7
			c0.2,0.2,0.5,0.2,0.7,0.2C27.817,35.108,27.617,35.608,27.217,36.008z M2.317,66.208c0.2-0.1,0.3-0.2,0.4-0.3
			c12.3,3,21.2,10.1,26.8,21.3c-0.3,0.5-0.5,0.9-0.8,1.3c-0.7,0.3-1.4,0.7-1.9,1.1c-1.4,0.1-2.7,0.1-4,0c-12.3-1-19.4-7.4-21.5-19.2
			c0-0.2,0-0.3,0.1-0.4c0.1-1.2,0.3-2.3,0.6-3.4C2.117,66.508,2.217,66.408,2.317,66.208z M28.817,82.008c0.4,0.4,0.7,0.7,1,0.9
			c0,0.2,0,0.3,0,0.4c0.4,0.1,0.7,0.2,1,0.3c1.4,0.2,2.8,0.6,4.1,1.2c0.1,0,0.2,0,0.2,0.1l0,0c0.2,0.1,0.4,0.2,0.6,0.3
			c0-0.1,0-0.2,0-0.2c0.5,0.1,0.9,0.2,1.4,0.2c-2.2,0.6-4.3,1.3-6.3,2.2c0.1-0.6,0.1-1.2,0-1.9c-0.4-0.3-0.7-0.7-0.9-1.1
			C29.617,83.608,29.317,82.808,28.817,82.008z M42.617,86.108c0.1-0.1,0.3-0.2,0.5-0.3c2,0.1,4-0.1,6.1-0.3c0,0,0,0.1,0,0.3
			c-0.8,0.2-1.7,0.3-2.5,0.4c0,0,0,0,0-0.1c0,0.1-0.1,0.1-0.1,0.1C45.217,86.308,43.917,86.308,42.617,86.108z"/>
		<path style="fill:#BE3689;" d="M32.317,50.908c0.1-0.4,0-0.8-0.2-1.2c-0.3,0.1-0.3,0.1-0.4,0.2c-0.5,0.8-0.5,1.5-0.1,2.2
			c0.4,0.4,0.9,0.8,1.4,1c-0.2,0.1-0.3,0.2-0.5,0.3c-1,0-1.8-0.5-2.5-1.5c-0.4-0.1-0.7,0-0.7,0.4c-0.1,0.9,0.4,1.5,1.4,1.9
			c0.2,0.1,0.4,0.2,0.6,0.2c-4.8,4.4-5.1,9.3-0.8,14.5c4.6,1.7,8.8,1.3,12.7-1.4c2.3,2.5,5.3,3.2,8.9,2.2c5.6-1.6,7.6-5.1,6.3-10.5
			c-0.2-0.1-0.2-0.3-0.3-0.4c-0.7-1.6-1.6-2.9-2.7-4c0.2,0,0.4-0.1,0.6-0.2c0.1-0.1,0.3-0.2,0.4-0.3c1-0.8,1.2-1.7,0.6-2.6h-0.1
			c-0.7,1-1.7,1.6-2.9,2c-0.3-0.3-0.7-0.5-1-0.7c0.4-0.4,0.9-0.8,1.4-1.3c0-0.1,0-0.2,0-0.4c0.1-0.6,0.1-1.3-0.3-1.8h-0.2
			c-0.4,1.7-1.3,2.6-2.6,2.7c-0.1,0-0.1,0-0.1,0c0-0.1,0-0.1,0.1-0.2c0.6-1.1,0.8-2.2,0.6-3.4c-0.9,0.5-1.6,1.5-2,3.1
			c-0.1,0-0.1,0-0.1,0.1c-1-0.2-1.9-0.3-2.9-0.4c-0.3,0.1-0.7,0.3-1.1,0.4c-0.8,0.4-1.4,0.9-1.8,1.7c-0.1,0.1-0.1,0.1-0.2,0.2
			c-2-2.1-4.1-3-6.4-2.7c-0.4-0.3-1-0.6-1.9-0.7c0-0.2,0-0.3,0.1-0.4c0.2-0.7,0.1-1.2-0.3-1.6c-0.3-0.1-0.6,0-0.7,0.3
			c-0.3,0.9-0.2,1.8,0.1,2.6c0.2,0.2,0.4,0.3,0.6,0.5c-0.3,0.1-0.7,0.3-1,0.5c-0.7-0.2-1.3-0.6-2-0.9
			C32.317,51.108,32.317,51.008,32.317,50.908z M28.717,61.808c0-0.1,0-0.2,0-0.3c0.1,0,0.1,0,0.2,0c3.9-0.6,7.6-1.6,10.9-3
			c0.1-0.2,0.3-0.3,0.4-0.4c0.2,0,0.3,0,0.5-0.1c1.2-0.5,2.3-1.2,3.5-1.8c0.7,0.8,1.4,1.6,2.2,2.3c-0.1,0-0.2,0-0.2,0
			c0.9,0.5,1.8,1.1,2.6,1.9c2.4,1.6,5.1,2.8,8.1,3.4c-0.4,2-1.7,3.5-4.1,4.5c-3.6,0.8-6.6,0-8.9-2.5c-0.3-0.2-0.5-0.4-0.7-0.5
			c-7.3,5.1-12.1,4.1-14.6-3.2C28.617,62.008,28.617,61.908,28.717,61.808z M56.917,61.908c0.1,0.5,0.1,0.9,0,1.3
			c-4.3-2.1-8.2-4.6-11.9-7.4c0.2-0.3,0.3-0.5,0.5-0.8c0.2-0.6,0.5-1.1,0.8-1.5c4.9-0.3,8.4,1.8,10.4,6.5
			C56.817,60.608,56.917,61.308,56.917,61.908z M37.817,52.308c0.6,0,1.2,0,1.8,0c0.2,0.2,0.4,0.3,0.6,0.5c1.1,1,2.2,1.9,3.1,2.6
			c0.1,0,0.1,0,0.2,0c0,0.1,0,0.1,0.1,0.1c0.1,0.1,0.2,0.2,0.3,0.4c-0.1-0.1-0.1-0.1-0.2-0.1c-0.5,0-1-0.1-1.5-0.1
			c0,0.1,0,0.1,0,0.1c-4.9,1.7-9.4,3.5-13.4,5.3C30.117,56.808,33.017,53.808,37.817,52.308z"/>
		<path style="fill:#BE3689;" d="M44.617,63.308c0,0.5,0,1,0,1.5c0,0.2,0,0.5,0,0.7c0.8,0.9,1.9,1,3.1,0.3c0.4-0.4,0.6-0.7,0.7-1.2
			c0.2-0.3,0.1-0.7-0.1-1.1c-0.1-0.1-0.2-0.2-0.4-0.2c-0.5-0.3-1.1-0.5-1.7-0.7c0,0.1,0,0.1,0,0.1
			C45.617,62.908,45.117,63.108,44.617,63.308z"/>
		<path style="fill:#BE3689;" d="M40.717,62.508c-0.8,0.1-1.2,0.5-1.1,1.3c0.4,2,1.5,2.3,3.4,1c0-0.2,0.1-0.3,0.1-0.4
			c-0.1-1.1-0.7-1.8-1.9-2C41.117,62.408,41.017,62.508,40.717,62.508z"/>
		<path style="fill:#BE3689;" d="M34.217,76.708c-0.6,0-1.4,0-2,0c-0.2,0.2-0.4,0.3-0.6,0.4c-1.1,0.5-1.9,1.2-2.4,2v0.1
			c0,0.1,0.1,0.2,0.2,0.3c0.8,0.3,1.4,0.2,1.9-0.5c0.2-0.1,0.4-0.2,0.5-0.4c0.3-0.1,0.6-0.2,0.9-0.2c0.5-0.1,0.9-0.2,1.4-0.2
			c0.2,0.2,0.4,0.3,0.6,0.4c1.5,1,3,1,4.5,0.3c0.5-0.5,1-0.8,1.7-1c1-0.3,2.1-0.5,3.2-0.7c0.7,0.5,1.4,0.9,2.1,1.4
			c0.2,0.2,0.4,0.3,0.6,0.4c0.5,0,1,0,1.4,0c1.1,0,2.1,0,3.1,0c0.2,0.1,0.3,0.2,0.4,0.4c0.9,0.8,1.8,1.1,2.9,1
			c0.1,0,0.2-0.1,0.4-0.2c0-0.2-0.1-0.4-0.2-0.5c-0.6-0.7-1.3-1.2-1.9-1.7c-0.4-0.3-0.7-0.5-0.9-0.8c-1.3,0-2.5,0-3.8,0
			c-0.9,0-1.8-0.4-2.5-1.1c-0.2-0.1-0.5-0.2-0.8-0.2c-1.2-0.2-2.4-0.2-3.7-0.3c0,0.1,0,0.1,0,0.1c-1,0.3-1.8,0.7-2.6,1.3
			c-0.1,0.1-0.3,0.2-0.4,0.4c-0.6,0-1.2,0-1.9,0.1C35.717,77.008,35.017,76.708,34.217,76.708z"/>
		<path style="fill:#BE3689;" d="M29.417,78.008c-0.1-0.1-0.2-0.2-0.2-0.3c0,0.1,0,0.1,0,0.2
			C29.317,77.908,29.317,77.908,29.417,78.008z"/>
		<path style="fill:#BE3689;" d="M39.017,80.608c0.2,0.2,0.5,0.3,0.7,0.4c2.1,0.8,3.9,0.6,5.5-0.6c-0.1-0.2-0.2-0.2-0.3-0.3
			c-0.5-0.1-1.1-0.1-1.7-0.2v0.1C41.117,79.608,39.717,79.908,39.017,80.608z"/>
		<path style="fill:#BE3689;" d="M27.117,41.308c-0.2-0.3-0.3-0.5-0.4-0.7c-0.1,0.3-0.3,0.5-0.4,0.8
			C26.517,41.408,26.817,41.308,27.117,41.308z"/>
		<path style="fill:#BE3689;" d="M84.817,88.308c-0.7-0.2-1.4-0.3-2.1-0.3c-1,0.3-2.1,0.7-3.1,1.3c-0.8,0.3-1.3,0.9-1.6,1.7
			c0.7,0.1,1.3-0.1,1.9-0.5c1.4-1.2,3.1-1.8,5.1-2C84.917,88.408,84.817,88.308,84.817,88.308z"/>
		<path style="fill:#BE3689;" d="M56.817,8.508c-0.1-0.1-0.2-0.2-0.3-0.3c-4.1-6.1-10.1-8.8-17.8-8.1c-5.9-0.1-10,2.1-12.3,6.9
			c-1.3,2.8-1.2,5.4,0.4,8c2.7,4,6.3,6.5,10.8,7.3c0,1.2,0.5,2.2,1.4,2.9c2.9,0.7,4.8-0.3,5.7-2.8c0.1,0,0.2,0,0.2,0
			c-0.1-0.1-0.2-0.1-0.3-0.1c0.3-0.1,0.7-0.2,1.1-0.2C53.917,20.608,57.617,16.108,56.817,8.508z M43.517,22.408v0.1
			c-0.3,0.2-0.5,0.6-0.8,1.1c-1.2,0.7-2.4,0.7-3.5,0.1c0-0.1,0-0.2-0.1-0.3c-0.1-0.3-0.3-0.5-0.4-0.8c0-0.1,0-0.1,0-0.2
			C40.217,22.608,41.817,22.608,43.517,22.408z M39.217,1.708c8.5-0.8,14.1,2.6,16.8,9.9c-0.4,1.8-1.2,3.3-2.6,4.5
			c-5.9,5.6-13.1,6.8-21.6,3.4c-1.6-1.1-2.8-2.3-3.8-3.7c-0.8-1.2-1.4-2.5-1.9-3.9c0-0.2,0-0.3,0.1-0.4
			C27.117,4.608,31.417,1.308,39.217,1.708z"/>
		<path style="fill:#BE3689;" d="M45.917,5.708c0-0.2-0.1-0.3-0.2-0.3c-2.8-1.6-5.9-2.1-9.2-1.7c-1.9,0-3.8,0.4-5.7,1
			c-1.6,0.6-2.7,1.5-3.5,2.9c0,0.2,0,0.4,0.2,0.6c0.2,0.4,0.3,0.7,0.3,1.1c0,0.1,0.1,0.2,0.2,0.3c0.5,0.5,1,0.7,1.5,0.8
			c0,0,0,0,0.1,0.1c0,0.6,0,1.1,0,1.7c-0.1,0.6-0.2,1.1-0.4,1.7c-0.1,0.1-0.1,0.2-0.1,0.3c0,0.1,0.1,0.2,0.1,0.3
			c0.2,0.3,0.3,0.6,0.4,1c0,0.1,0,0.2,0,0.3c1.1,0.6,2.3,1.1,3.6,1.7c1.7,0.8,3.2,0.8,4.3,0c0-0.1,0-0.1,0-0.2c2.5-1,5-1.9,7.7-2.7
			c-0.9-1.1-1.6-2.3-2.1-3.6c0-0.2,0-0.2,0.1-0.3c0.5-0.3,0.7-0.8,0.7-1.2c0.7-0.2,1.5-0.4,2.3-0.5c0.1-0.5,0.1-0.9,0.1-1.4
			c-0.1-0.5-0.1-1.1-0.2-1.6C46.117,5.908,46.017,5.808,45.917,5.708z M36.517,5.308c0.2,0,0.3,0,0.5-0.1c1.4,0,2.8-0.1,4.2-0.1
			c0.2,0.1,0.4,0.1,0.6,0.2c1.4,0.2,2.5,0.9,3.2,1.9c0.1,0.2,0.2,0.3,0.2,0.5c-0.1,0.2-0.1,0.2-0.1,0.2c-1.2,0.3-2.5,0.6-3.6,1.1
			c-1,0.3-1.5,0.2-1.7-0.4c-0.1-0.2-0.2-0.4-0.4-0.6c0-0.1,0-0.2,0-0.4c0-0.1,0-0.2-0.1-0.3c0-0.1-0.1-0.2-0.1-0.3
			c-0.2-0.1-0.3-0.2-0.4-0.4c-0.1-0.1-0.2-0.2-0.3-0.3c-0.2-0.1-0.3-0.2-0.4-0.3c-0.7-0.1-1.3-0.1-2,0c-0.1,0-0.3,0-0.5,0.1
			c-0.2,0-0.5,0-0.7,0.1c-0.1-0.1-0.2-0.1-0.4-0.1c-0.5-0.2-1-0.3-1.5-0.4C34.217,5.608,35.417,5.508,36.517,5.308z M37.917,8.008
			c0,0.2,0.1,0.4,0.2,0.6c-0.2,0.8-1.1,1.3-2.6,1.6c0,0.5,0,1.1,0,1.7c-0.2,1.8,0.1,3.4,0.8,4.9c-2.2-0.2-4.2-0.8-5.9-2
			c-0.2-0.4-0.2-0.9-0.2-1.3c0.1-1.6,0.3-3,0.3-4.3c-0.2-0.1-0.2-0.2-0.3-0.1c-1,0.1-1.5-0.1-1.5-0.8c-0.1-0.1-0.2-0.2-0.1-0.3
			c0.1-0.8,0.6-1.3,1.4-1.7c2.3,1,4.8,1.3,7.4,1.1C37.617,7.608,37.717,7.808,37.917,8.008z M42.817,9.808c-0.9,1.1-0.7,2.5,0.3,4
			c-2.4,0.6-4.3,1.6-5.7,2.9c-0.1-0.4-0.2-0.8-0.3-1.2c-0.5-1.1-0.6-2.4-0.4-3.6c0-0.2,0-0.3,0.1-0.4c0.6-0.1,1.2-0.3,1.8-0.5
			C40.017,10.508,41.417,10.108,42.817,9.808z"/>
		<path style="fill:#BE3689;" d="M51.217,5.708c-0.5-0.1-1-0.4-1.3-0.6c-0.4-0.1-0.7,0-0.8,0.4c-1.4,3.1-1.2,5.6,0.6,7.5
			c0.1-0.3,0.3-0.5,0.3-0.7c0.5-2.1,1-4.2,1.5-6.3C51.417,5.908,51.317,5.808,51.217,5.708z"/>
		<path style="fill:#BE3689;" d="M47.317,15.308c0.4,1.2,1.2,1.4,2.5,0.6c-0.1-0.1-0.1-0.2,0-0.3c0.3-1,0-1.6-1-1.8
			c-0.2,0.1-0.3,0.1-0.4,0.2C47.717,14.108,47.317,14.608,47.317,15.308z"/>
		<path style="fill:#BE3689;" d="M42.017,26.008c-0.3,0-0.5,0-0.8,0c-0.2,0.1-0.5,0.1-0.7,0.1c-0.1,0.1-0.2,0.2-0.3,0.3
			c-0.7,0.5-1,1.3-1,2.2c0.7,1.6,1.8,1.8,3.4,0.9c0.1-0.1,0.3-0.3,0.3-0.4c0.3-0.7,0.4-1.5,0.3-2.2c-0.1-0.2-0.2-0.3-0.3-0.3
			C42.617,26.408,42.317,26.108,42.017,26.008z M41.017,27.008c0-0.1,0-0.1,0.1-0.1c0.1,0,0.3,0,0.4,0.1c0.6,0.1,0.8,0.4,0.7,0.9
			c0,0.1,0,0.2-0.1,0.2C40.217,28.908,39.817,28.508,41.017,27.008z"/>
		<path style="fill:#BE3689;" d="M6.317,46.108L6.317,46.108c-0.2,1.7,0.8,3.7,3.2,6c0.9,0,1.5,0,1.7,0c0,0.3,0,0.5,0,0.8
			c0,0.5,0,1,0,1.5c1,0.7,2.1,0.8,3.3,0.1c-0.9-0.4-1.6-0.8-2.3-1.3c0-0.1,0-0.2,0-0.3c0.1-0.7,0-1.4-0.2-1.9
			c-0.9,0-1.7,0.1-2.4,0.2c0,0,0-0.1-0.1-0.2c-1.1-1.3-1.9-2.7-2.4-4.1c-0.2-0.2-0.3-0.3-0.4-0.4S6.517,46.308,6.317,46.108z"/>
		<path style="fill:#BE3689;" d="M5.417,56.908c0.4,0.6,0.9,1.2,1.6,1.7c0.5,0.1,1.1,0.1,1.7,0.1c0.1,0,0.1-0.1,0.2-0.1
			c0.3-0.6,0.9-0.8,1.6-0.7c0,0.2,0,0.3,0.1,0.3c0.9,0.5,1,0.3,0.4-0.3c0.1-0.8-0.3-1.1-1.3-0.9c-0.3,0.1-0.6,0.3-0.9,0.6
			c-0.9,0.5-1.5,0.5-1.7-0.1c-0.2-0.3-0.3-0.5-0.4-0.8c-0.5-1.3-1.2-1.5-2.2-0.6c-0.2,0.1-0.3,0.1-0.3,0c-1.2-0.8-2.3-1.5-3.5-2.1
			c-0.2,0.1-0.3,0.3-0.4,0.6c0,0.6,0.5,0.8,1.4,0.8c0.1,0,0.2,0.1,0.2,0.2c0.9,1.5,1.9,1.8,3.1,1
			C5.217,56.708,5.317,56.708,5.417,56.908z"/>
		<path style="fill:#BE3689;" d="M5.817,63.308c0.5,0.1,1,0.3,1.4,0.5c0.1-0.2,0.3-0.3,0.4-0.3c0.3-0.1,0.5-0.1,0.7-0.1
			c0.1,0,0.1,0.1,0.2,0.2c0.3,0.2,0.6,0.4,1,0.5c0.1,0,0.2,0,0.3-0.1c0.5-0.3,0.8-0.8,0.9-1.4c-0.2-0.4-0.8-0.3-1.6,0.3
			c0-0.1,0-0.1,0-0.1c-0.4-0.5-0.8-0.7-1.4-0.8c-0.1,0-0.2,0.1-0.2,0.1C7.017,62.608,6.517,63.008,5.817,63.308z"/>
		<path style="fill:#BE3689;" d="M1.517,91.008c0.3,0,0.6-0.1,0.8-0.2c1.9-1,3.9-1.7,6.2-2.3c-0.1-0.1-0.1-0.1-0.2-0.2
			c-0.5-0.1-1-0.1-1.6-0.2c-0.2,0.3-0.5,0.5-1,0.6C3.817,89.208,2.417,90.008,1.517,91.008z"/>
		<path style="fill:#BE3689;" d="M41.017,92.508c0.3,0,0.7-0.1,1-0.2c2.6-0.9,5.2-2,7.7-3c2-0.9,3.4-1.8,4.4-2.7
			c0.7-0.7,1.1-1.4,1.1-2.1c0,0.1,0,0.1,0,0.1c-0.6,0.2-1.2,0.5-1.8,0.8c-0.1,0-0.1,0-0.2,0
			C48.917,87.408,44.817,89.708,41.017,92.508z"/>
	</g>
</g>
</svg>
