<?xml version="1.0" encoding="iso-8859-1"?>
<!-- Generator: Adobe Illustrator 12.0.1, SVG Export Plug-In . SVG Version: 6.00 Build 51448)  -->
<!DOCTYPE svg PUBLIC "-//W3C//DTD SVG 1.1//EN" "http://www.w3.org/Graphics/SVG/1.1/DTD/svg11.dtd" [
	<!ENTITY ns_svg "http://www.w3.org/2000/svg">
	<!ENTITY ns_xlink "http://www.w3.org/1999/xlink">
]>
<svg  version="1.1" id="Layer_1" xmlns="&ns_svg;" xmlns:xlink="&ns_xlink;" width="86.3" height="85.84" viewBox="0 0 86.3 85.84"
	 style="overflow:visible;enable-background:new 0 0 86.3 85.84;" xml:space="preserve">
<g>
	<g>
		<path style="fill:#BE3689;" d="M82.8,81.3c1.1-0.3,2.3-0.8,3.5-1.2c0-0.1-1.5-1.5-4.5-4.4c-3-2.8-8.8-4.6-17.3-5.3
			c-2.5,0.5-5,1.1-7.6,2c-0.8,0.2-1.5,0.6-2,1.1c0,0,0,0-0.1,0c-0.2-1.1-0.7-2.1-1.5-2.8c0.9-0.3,1.8-0.5,2.7-0.8
			c5.9-2,10-6.1,12.2-12.4c2.9-8.3,2-15.4-2.6-21.2c0-0.2-0.1-0.3-0.1-0.3c-0.7-0.9-1.3-1.9-1.8-2.8c-0.7-0.5-1.4-1.2-2-2l0,0
			c-0.2-0.3-0.3-0.6-0.3-0.9c-0.6,0.5-1.2,1-1.9,1.5c0,0.1,0,0.3,0,0.5c0,0.3,0,0.6,0,0.8c1.1,1,2.2,2,3.4,3.1
			c4.3,4.3,6.1,9.2,5.3,14.8c-0.7,5.5-3.8,10.5-9.1,14.9c-5.3,4.5-12.8,6-22.5,4.4c-9.7-1.6-17-5.5-21.9-12
			c-0.6-1.7-0.8-3.5-0.7-5.4c0.6-7.1,2.7-13,6.4-17.8c-0.1,0-0.2,0.1-0.4,0.2L18.3,35c-0.2,0.4-0.4,0.8-0.7,1.3
			c0.2-0.1,0.4-0.2,0.6-0.2c-2.1,2.9-3.7,6.3-4.7,10.1c-2.3,9,0.2,15.7,7.6,20.1c2.6,1.5,5.3,2.8,8,3.7c-0.2,0.2-0.3,0.4-0.6,0.5
			c0,0.3,0,0.5-0.1,0.7c-0.3,0.7-0.5,1.4-0.4,2.3c-0.3-0.1-0.6-0.3-0.9-0.5c-0.2-0.1-0.3-0.1-0.2,0.1c0,0,0.1,0.1,0.2,0.3
			c-3.6-2.4-7.8-3.4-12.6-3.1c-1.3,0.4-2.6,0.7-3.9,1.1c-1.2,0.2-2.9,1.3-5,3.3c-2.2,2-3.5,3.4-4,4.1c-0.7,0.8-0.9,1.8-0.5,2.8
			c0.1,0.3,0.2,0.5,0.3,0.8c0.5,0.1,1.1,0.2,1.7,0.2c-1.4,0.3-2.5,1-3.1,2.2c0.1,0.1,0.2,0.2,0.2,0.1c2.6-0.2,4.1-0.9,4.3-2.1
			c1.1,0.2,2.2,0.3,3.4,0.4c-1.4,0.4-2.6,1-3.8,1.9c0.1,0.2,0.1,0.2,0.1,0.2c2.7-0.4,4.6-1,5.7-2c1.2,0.1,2.4,0.1,3.6,0.2
			c-1.2,0.4-2.4,1-3.5,1.8c0.4,0.6,1.1,0.7,1.9,0.3c0,0,0.2-0.1,0.3-0.1c2-0.6,3.5-1.2,4.5-2c1.3,0,2.6,0,3.9,0c-1,0.5-2,1-3,1.6
			c0.3,0.2,0.6,0.2,0.8,0.2c1.9-0.6,3.8-1.3,5.6-2c1.8-0.2,3.5-0.4,5.3-0.6c-1.7,0.8-3.2,1.7-4.8,2.6c0.1,0.1,0.2,0.2,0.3,0.2
			c0.4,0.2,0.8,0.3,1.2,0.3c0.1-0.2,0.3-0.3,0.4-0.3c2.7-1.3,5.5-2.5,8.3-3.7c0.8-0.1,1.7-0.3,2.6-0.5c0-0.2,0-0.4-0.1-0.6
			c1.9-0.8,3.7-1.6,5.6-2.4c-0.2-0.2-0.4-0.3-0.6-0.3l0,0c1.5-0.8,3-1.4,4.4-1.9c0.4-0.1,0.8-0.2,1.1-0.3c-0.3,0.4-0.6,0.9-0.8,1.5
			c-5.4,1.8-9.8,4.5-13.1,7.8c0.2,0.1,0.4,0.1,0.6,0c4.8-2.4,8.9-4.8,12.3-7.4c-0.1,0.5-0.3,1-0.3,1.6c0.6,0.4,1.2,0.8,1.9,1.1
			c-3.5,1-6.1,2.7-7.9,5.1c0.2,0.1,0.3,0.1,0.5,0c2.7-1.7,5.6-3.2,8.7-4.5c0.9,0.3,1.8,0.6,2.8,0.8c-1.9,1-3.6,2.1-5.3,3.3l0.1,0.2
			c2.4-0.8,4.7-1.9,6.8-3.3c1.3,0.5,2.6,0.8,4,1c-0.7,0.3-1.5,0.6-2.4,0.9c0,0.1-0.1,0.1-0.1,0.2c-0.8,0.4-1,0.9-0.7,1.5
			c0.8,0.2,1.6,0,2.4-0.4c1.7-0.8,2.7-1.5,3.1-2.1c0.7,0.1,1.4,0.1,2.1,0c0.7,0.1,1.5,0.2,2.3,0.2c-0.8,0.5-1.6,1.1-2.2,1.7v0.3
			c2.4-0.3,3.7-1,4-1.9c1.5,0,3,0,4.5-0.1c-0.5,0.4-1,0.8-1.2,1.3c0.2,0.1,0.4,0.2,0.7,0.1c1.7-0.3,2.9-0.9,3.8-1.7
			c1.4-0.2,2.9-0.4,4.4-0.7c-1.1,0.6-2,1.5-2.7,2.5c0.7,0.5,1.4,0.4,2.4-0.1C80.7,83.4,82.2,82.3,82.8,81.3z M2.1,80.5
			c0.3-0.8,0.7-1.5,1.4-2.1c7.4-7.5,15.7-8.7,25-3.6c0.8,0.7,1.7,1.1,2.8,1.5c0-0.2-0.1-0.3-0.2-0.3c-0.5-0.6-1-1.2-1.7-1.6
			c0.1-0.2,0.1-0.3,0.1-0.5c0-0.1-0.1-0.2,0-0.4c0.3-1.3,0.5-2.4,0.3-3.2c1.2,0.3,2.4,0.7,3.6,1c-0.6,2.4-0.4,4.5,0.6,6.2
			c-0.2,0-0.3,0.1-0.5,0.1c0,0.5,0.2,0.8,0.5,1.2c0.4,0.3,0.7,0.7,1.1,1.1c0,0.1,0,0.1,0,0.1c-0.3,0.1-0.7,0.3-1,0.5
			c-2.1,0.2-4.2,0.5-6.3,0.6C27.5,81,27.3,81,27,80.9c0,0.1,0,0.1,0,0.1c-0.4,0.1-0.6,0.2-1,0.3c-7,0.6-14.2,0.8-21.4,0.7
			C3.4,82,2.6,81.5,2.1,80.5z M47.5,71.9c0.1,0.6,0.3,1.3,0.6,2.2c-0.4,0.1-0.7,0.3-1,0.7c0,0,0,0-0.1,0c-0.4,0.2-0.8,0.5-1.3,0.6
			c-0.1,0-0.1,0-0.2,0c0,0,0,0-0.1,0.1c-0.8,0.2-1.8,0.3-2.9,0.2c-3-0.1-5.7-0.2-8.1-0.3c-0.3-1.3-0.4-2.7-0.4-4
			C38.4,72.4,42.9,72.5,47.5,71.9z M52.5,70.9c0.2,1.3,0.7,2.3,1.5,3c-0.8,0.4-1.5,1-2,1.9c0.1,0.1,0.2,0.2,0.2,0.1
			c0.7-0.1,1.2-0.2,1.7-0.3c0,0.1,0,0.2,0,0.3c11.3-5.9,21.2-4.6,29.9,3.6c-8.7,2.1-17.6,2.8-26.5,2c-3.7-0.7-6.7-1.8-9.2-3.1
			c0-0.1,0.1-0.2,0.1-0.3c1.8-2.4,1.9-4.5,0.3-6.4C49.8,71.5,51.2,71.2,52.5,70.9z M34.5,76.4c0-0.1,0-0.2,0-0.4c0,0,0,0,0-0.1
			c0.6,0.2,1.3,0.4,2,0.5c-0.5,0.3-0.9,0.6-1.3,1C35,77,34.8,76.7,34.5,76.4z M42.2,76.8c-0.7,0.3-1.2,0.7-1.8,1.1
			c-0.4,0.2-0.9,0.4-1.4,0.5c-0.8,0.3-1.6,0.6-2.3,1c-0.3-0.5-0.6-0.8-0.9-1.1c-0.1-0.1-0.1-0.2-0.1-0.2c0.9-0.3,1.8-0.8,2.6-1.4
			C39.6,76.9,40.9,76.9,42.2,76.8z"/>
		<path style="fill:#BE3689;" d="M41.3,35.4c0,0-0.1,0.1-0.2,0.1c-2.1-1.9-4.3-2.6-6.5-2.1c-0.4-0.3-1.1-0.5-2-0.6
			c0-0.2,0-0.3,0-0.4c0.2-0.7,0.1-1.2-0.3-1.5c-0.4-0.1-0.7,0-0.7,0.3c-0.2,0.9-0.1,1.8,0.3,2.6c0.2,0.1,0.4,0.3,0.6,0.4
			c-0.3,0.2-0.6,0.4-1,0.7c-0.6-0.3-1.4-0.5-2-0.9c0-0.1,0-0.2,0-0.4c0.1-0.4-0.1-0.7-0.4-1.1c-0.1,0.1-0.2,0.1-0.3,0.2
			c-0.4,0.8-0.4,1.5,0.1,2.2c0.4,0.4,0.9,0.8,1.4,0.9c-0.2,0.1-0.2,0.2-0.4,0.4c-1,0-1.9-0.5-2.6-1.3c-0.5-0.2-0.7,0-0.7,0.4
			c0,0.9,0.5,1.5,1.5,1.8c0.3,0.1,0.5,0.1,0.7,0.2c-4.5,4.7-4.4,9.6,0.3,14.5c4.8,1.4,8.9,0.5,12.5-2.4c2.6,2.3,5.6,2.8,9.1,1.4
			c5.4-2,7.2-5.7,5.4-10.9c-0.1-0.1-0.2-0.3-0.3-0.4c-0.8-1.5-1.8-2.8-3-3.7c0.2-0.1,0.4-0.2,0.6-0.3c0.1-0.1,0.2-0.2,0.4-0.4
			c0.9-0.8,1-1.7,0.3-2.6l0,0c-0.7,1.1-1.6,1.8-2.7,2.2c-0.4-0.2-0.8-0.4-1.1-0.6c0.4-0.4,0.8-0.9,1.2-1.3c0-0.2,0-0.3,0-0.4
			c0.1-0.5,0-1-0.1-1.4c-0.2-0.1-0.4-0.1-0.5-0.2c-0.3,1.6-1.1,2.5-2.4,2.7c-0.1,0-0.1,0-0.1,0c0-0.1,0-0.2,0.1-0.2
			c0.4-1.1,0.6-2.1,0.4-3.1c-0.1-0.1-0.1-0.2-0.1-0.3c-0.1,0-0.2,0.1-0.3,0.2c-0.7,0.5-1.2,1.6-1.5,3c0,0,0,0,0,0.1
			C46,33,45.1,33,44,33c-0.2,0.2-0.6,0.3-1,0.5C42.2,33.9,41.7,34.5,41.3,35.4z M35,34.6c0.6,0,1.2,0,1.9-0.1
			c0.2,0.2,0.4,0.3,0.6,0.4c0.9,0.8,1.9,1.4,2.7,2c0.1-0.1,0.2-0.1,0.3-0.1c0.8,0.2,1.4,0.5,2,0.8c0.2-0.3,0.3-0.6,0.4-0.9
			c0.2-0.6,0.4-1.1,0.7-1.6c4.9-0.6,8.5,1.2,10.9,5.7c0.2,0.6,0.3,1.3,0.4,1.9c0.5,3-0.7,5.2-3.6,6.7c-3.9,1.2-7.1,0.5-9.8-2.4
			c-6.8,5.9-11.9,5.2-14.9-1.9c0-0.1,0-0.2,0-0.3C27.4,40,30.2,36.6,35,34.6z"/>
		<path style="fill:#BE3689;" d="M47.2,41.4c-0.4-0.1-0.8-0.2-1.2-0.3c-0.4,0.1-0.7,0.4-0.9,0.8C45,42.3,45,42.7,45,43.1
			c0.5,1.4,1.4,1.8,2.6,1.2c0.3-0.4,0.5-0.7,0.5-1.2c0.1-0.5-0.1-1-0.5-1.5C47.5,41.5,47.4,41.4,47.2,41.4z"/>
		<path style="fill:#BE3689;" d="M34.9,43c0,0.5,0.1,0.8,0.4,1.1c0.4,0.3,0.8,0.3,1.2,0.3c0.7-0.1,1-0.5,1-1.3
			c0.1-0.1,0.1-0.1,0.1-0.2c-0.6-0.6-1.2-1-2.1-1C35.2,42.1,35,42.5,34.9,43z"/>
		<path style="fill:#BE3689;" d="M16.8,35c0.3,0.2,0.6,0.2,0.8,0.1c0.1-0.1,0.2-0.1,0.3-0.1L17,34.9C16.9,34.9,16.8,35,16.8,35z"/>
		<path style="fill:#BE3689;" d="M32.2,29.3c0.4,0,0.8,0.1,1.2,0.1c0.1-0.1,0.2-0.1,0.3-0.2c0.2,0,0.4-0.1,0.5-0.2
			C33.6,29.1,32.9,29.2,32.2,29.3z"/>
		<path style="fill:#BE3689;" d="M40.5,62.5c0,0.3,0,0.5,0,0.8c0,0.5,0,1,0,1.5c1.4,0.6,2.7,0.5,4-0.3c0.1-0.1,0.1-0.2,0-0.3
			c-0.7-1.1-1.5-2.3-2.2-3.4c-0.1,0-0.2,0-0.3,0C41.4,61.1,40.9,61.7,40.5,62.5z"/>
		<path style="fill:#BE3689;" d="M44.3,67.5c0-0.1,0.1-0.1,0.1-0.2c1.5-0.6,1.9-1.3,1.1-1.9c-0.1,0.1-0.2,0.1-0.4,0.2
			c-0.6,0.2-1.1,0.5-1.5,1c-0.5,0.1-1.1,0.1-1.7,0.2c-0.1-0.1-0.2-0.2-0.3-0.3c-0.7-0.6-1.4-0.7-2-0.2
			C40.8,67.6,42.3,68.1,44.3,67.5z"/>
	</g>
	<g>
		<path style="fill:#BE3689;" d="M56.6,6c0-0.1-0.1-0.2-0.2-0.4c-1.6-2.6-3.9-4.3-6.9-5.1c-1.1,0.2-1.7,0.8-1.7,2
			c-0.1,1.4-0.2,2.8-0.4,4.1c-0.5,0.5-1,1-1.7,1.5c-2.4,2-3.8,4.1-4.1,6.3c-0.1-0.3-0.3-0.5-0.3-0.8c-0.6-2.5-2-4.6-4-6.3
			c-0.1-0.6-0.1-1.1-0.2-1.6c-0.4-1.8-1-3.5-2-5.2c-0.1-0.1-0.2-0.2-0.4-0.2C34.2,0.1,33.6,0.1,33,0c-2.2,0.6-4.1,1.7-5.7,3.5
			c0,0.7-0.2,1.4-0.4,1.9C26.1,7.3,26,9.1,26.8,11c2.6,0.5,5.3,0.6,8.1,0.1c0.2,0.2,0.4,0.3,0.6,0.4c0.2,0.2,0.4,0.3,0.6,0.4
			c0.2,0.5,0.4,1,0.6,1.5c0.4,0.9,0.7,1.7,0.9,2.6c-0.3-0.3-0.6-0.6-0.8-1c0.3,0.8,0.6,1.4,1,2c0,0.2,0,0.4,0,0.6
			c-2.7-2.7-6.2-4-10.2-4c0,0.2-0.1,0.4-0.2,0.6c-0.4,0.8-0.8,1.7-1.3,2.6c-3-2.8-6.5-4.7-10.6-5.8c-1.6,1.2-2.2,3-2,5.3
			c0.2,1.5,0.6,3,1.1,4.5c0.3,0.2,0.5,0.5,0.8,0.7c0.2,0.3,0.5,0.5,0.7,0.8c0.7,0,1.4,0,2.2,0.1c0.5-0.5,1-1,1.6-1.3
			c0.4-0.3,0.8-0.5,1.1-0.8c0.1,0.7,0.2,1.5,0.4,2.2c-2.4,1.5-4.4,3-6,4.6c0.7,1,1.8,1.4,3.1,1.2c0.1,0,0.2,0.1,0.3,0.2
			c0.3,0.4,0.7,0.7,1,1.1c-0.2,2.5-1.1,4.6-2.8,6.3l0.9,0.1c0.2-0.1,0.4-0.2,0.5-0.3c0,0.1-0.1,0.2-0.1,0.3l1.7,0.3
			c0.2-0.1,0.3-0.2,0.4-0.2c1.4-1.9,3.1-3.6,5-5.1h0.1c0,0,0,0-0.1,0c0.1-0.1,0.2-0.2,0.2-0.2c1.3-0.7,2.5-1.3,3.8-1.9
			c0.7,0.7,1.7,1.2,2.8,1.4c0.7-0.1,1.4-0.2,2-0.3c2.7-0.9,4.4-2.3,5.2-4.1c2-0.4,4-0.5,5.9-0.1c-0.1,0-0.1-0.1-0.2-0.2v-0.1
			c1.5,2.3,3.9,3.8,7.3,4.4c0.1-0.1,0.2-0.2,0.3-0.2c0.2-0.2,0.4-0.3,0.5-0.4c0.6,0.4,1.1,0.7,1.6,1.1c-0.3-0.1-0.5-0.1-0.8-0.1
			c1.9,1.1,3.7,2.3,5.5,3.8c0-0.2,0-0.5,0-0.8c0-0.2,0-0.4,0-0.5c0.7-0.5,1.3-1,1.9-1.5c-0.1-0.3-0.2-0.7-0.3-1
			c0-0.2,0.1-0.3,0.1-0.4c0.3-0.4,0.6-1,0.9-1.5c0.8-0.2,1.4-0.5,2-0.9c0.1,0.1,0.2,0.1,0.3,0.1c0,0,0-0.1-0.1-0.2
			c0.3-0.2,0.6-0.5,0.8-0.8c-1.1-1-1.8-2.3-2-3.8c-0.1-0.6-0.1-1.2-0.2-1.7c1.5,0.5,3,0.8,4.6,1c0.5-0.5,0.8-1.2,1-1.8
			c1.3-3.4,0.9-6.4-1.2-9c-0.8-0.1-1.5-0.1-2.3-0.2c-0.6,0.3-1.3,0.7-2,1.3c-0.5,0.4-0.7,0.9-1,1.5c-0.5,0.1-1,0.2-1.5,0.4
			c-0.7,0.2-1.4,0.5-1.9,0.9c-0.1-0.4-0.2-0.9-0.3-1.3c-0.4-0.1-0.7-0.1-0.9,0.1c0-0.4,0-0.8-0.1-1.2c-0.1,0.4-0.3,0.8-0.4,1.2
			c-0.1-0.1-0.1-0.1-0.2-0.1c-0.9-0.1-1.8-0.2-2.7-0.3c-3.9,0.5-6.8,2.2-8.8,5.1c0.3-0.7,0.5-1.3,0.7-1.9c-0.1,0-0.2,0.1-0.3,0.2
			c-0.1,0.1-0.2,0.3-0.2,0.3c0.8-2.9,2.4-5.2,4.9-7c2.2,1.1,4.4,0.9,6.5-0.5c0-0.7,0-1.3,0-1.9C56.8,7.2,56.8,6.6,56.6,6z
			 M63.1,14.9c0.1-0.4,0.2-0.8,0.6-1.1c1-1.2,2.1-1.5,3.3-0.9c0.4,0.7,0.7,1.4,0.8,2.3c0.3,2.1-0.1,3.9-1.2,5.6
			c-0.2,0-0.4,0-0.6-0.1c-1.3-0.4-2.5-1.2-3.5-2.2c0-0.1,0-0.2,0-0.2l0,0c-0.1,0-0.2-0.1-0.2-0.2c-1,0.1-1.9,0.2-2.8,0.2
			c-0.2,0.1-0.3,0.2-0.5,0.4c0-0.7,0-1.4-0.1-2.1C60.2,16.3,61.6,15.7,63.1,14.9z M49.1,2.4c0.5,0,0.9,0.2,1.3,0.3
			c2.9,1.1,4.5,3.1,4.9,5.8c-2.5-0.4-4.3-0.1-5.6,0.8c0,0-0.1,0-0.2,0c-0.5,0.2-1.1,0.5-1.6,1c-2.3,2.2-3.7,4.8-4.3,7.8h-0.1
			c-0.1,0-0.1,0-0.1,0.1s0,0.1,0,0.2s0,0.2,0.1,0.3c-0.4-0.2-0.7-0.3-1.1-0.4c0.1-0.7,0.2-1.3,0.4-2c0.2-0.8,0.3-1.7,0.3-2.7
			c0.2-0.2,0.4-0.5,0.5-0.7c1.3-2.2,3-3.9,5-5.3c-0.1-0.9,0-1.8,0.2-2.6C49.1,4.1,49.2,3.3,49.1,2.4z M34.6,3.2
			c0.6,1.6,1.1,3.2,1.4,4.9c0.5,0.5,1,1.1,1.3,1.7c1.7,2.7,3,5.5,4,8c-0.3-0.1-0.5-0.2-0.8-0.3c0.1,0.2,0.2,0.3,0.4,0.5
			c-0.4-0.1-0.8-0.1-1.1-0.1c0-0.1,0-0.4-0.1-0.5c-0.2-3.9-2-6.6-5.2-8.4c-2.5,1-4.8,1-6.7,0c0-4.1,2.1-6.5,6.2-7.2
			C34.2,2.3,34.4,2.8,34.6,3.2z M51.3,20.1c-0.1-0.1-0.2-0.2-0.3-0.2c-0.7-0.3-1.3-0.5-2-0.6c-0.1,0-0.3,0.1-0.5,0.1
			c-1.6,0.1-2.8,0.7-3.4,1.9c0,0,0,0-0.1,0c0,0-0.1,0-0.2,0.1c-0.1-0.3-0.1-0.5,0-0.6c0.2-0.1,0.4-0.3,0.3-0.8
			c-0.1-0.1-0.1-0.2-0.2-0.4c3.3-2.6,7.1-3.9,11.5-4.1c0,0.1,0,0.1,0,0.1c0.1,0.4,0.1,0.7,0.2,1c0,0.4,0,0.8,0.1,1.2
			c0.2,2.5-0.2,5-1.3,7.2c-0.1,0.3-0.3,0.7-0.5,1c-0.4,0.3-0.8,0.5-1.1,0.8c-0.2,0.1-0.3,0.2-0.4,0.4c-0.8,0.1-1.6,0.3-2.4,0.7
			c-0.3-0.1-0.6-0.2-0.9-0.4c-2.1-0.9-3.9-2.3-5.3-4.1c-0.1,0-0.1,0-0.1,0c0-0.5,0-0.9,0-1.4c0.8,0.2,1.6,0.3,2.3,0.4
			c0.6,0.5,1.2,1,1.8,1.4c0.8,0.5,1.5,0.5,2.1-0.2c0.1-0.6-0.3-1-1.2-1.1c-0.8-0.1-1.4-0.5-1.9-1.1c-0.5,0-0.9,0-1.3-0.1
			C48.1,20.7,49.7,20.3,51.3,20.1z M42.2,18c-0.1,0-0.1,0-0.1,0c0-0.1,0-0.2,0-0.2S42.1,17.9,42.2,18z M39.3,20.1
			c0.1-0.4,0.4-0.7,0.7-0.8c0.1,0,0.1,0,0.1,0.1c0-0.1,0-0.1,0-0.1c0.4,0,0.9,0.1,1.6,0.5c0.5,0.3,1,0.6,1.6,0.8c0,0.4,0,0.8,0,1.2
			c0.1,0.5,0,1-0.3,1.5c-0.1,0.1-0.2,0.2-0.2,0.3v0.1c-1-0.1-1.9-0.2-2.9-0.2c-0.1,0-0.4-0.1-0.6-0.2v-0.2c0-0.3,0-0.7,0-1.1
			c0-0.5,0-1,0-1.5C39.3,20.4,39.3,20.3,39.3,20.1z M41.6,16c0,0,0-0.1-0.1-0.1c0-0.1,0-0.4,0.1-0.5C41.6,15.6,41.6,15.8,41.6,16z
			 M37.9,19.1c-0.2,0.5-0.3,1.2-0.4,1.8c-1.7-1.5-3.9-2-6.5-1.6l-0.4,0.1c1.9,0.6,3.7,1.2,5.6,1.8c-0.3-0.1-0.7,0-1.2,0.1
			c-0.7,0.3-1.4,0.8-2.1,1.3c-0.1,0.2-0.2,0.3-0.3,0.5l0.1,0.2c1.7-0.7,3.4-1,4.9-0.8c0.1,0.4,0.1,0.8,0.2,1.1c-0.1,0-0.2,0-0.3,0
			c-0.1,0.1-0.2,0.1-0.2,0.2c0.2,0,0.4,0.1,0.6,0.2c0.1,0.4,0.2,0.8,0.2,1.1c0,0.2,0,0.3,0,0.4c-1.7,1.4-3.7,2.3-5.8,2.9
			c-1-0.5-1.9-1.1-2.7-1.9c-0.1,0-0.2,0-0.3,0c-0.1-0.1-0.2-0.1-0.3-0.2c-0.1,0-0.2-0.1-0.4-0.3c-1.1-1.9-1.6-4-1.5-6.4
			c0-1.4,0.4-2.8,0.9-4.1c0.1-0.1,0.1-0.2,0.1-0.2c0.8-0.1,1.5-0.2,2.3-0.3c1.4,0.7,2.7,1.5,4,2.5C35.7,18.5,36.9,19.1,37.9,19.1z
			 M59.5,20.8c0.3-0.2,0.5-0.4,0.6-0.7c0.3,0.2,0.6,0.3,0.9,0.4c0,0.3,0,0.4,0,0.6c0,1.2,0.2,2.4,0.5,3.4c0.2,0.2,0.4,0.3,0.5,0.4
			c0.3,0.2,0.4,0.4,0.5,0.6c-1.1-0.6-2.5-0.7-4.2-0.4c-0.1-0.2-0.1-0.4-0.1-0.7c-0.2,0.1-0.4,0.2-0.5,0.4c0.5-1.2,0.8-2.4,1.1-3.5
			C59,21.3,59.2,21.2,59.5,20.8z M58,16.8c0,0.4,0.1,0.8,0.1,1.3c-0.1-0.3-0.2-0.7-0.2-1.1c-0.1-0.1-0.1-0.2-0.1-0.2
			C57.9,16.8,58,16.8,58,16.8z M57.9,16.1c-0.1,0.1-0.1,0.2-0.1,0.2c-0.1-0.3-0.1-0.6-0.2-0.9C57.7,15.6,57.8,15.9,57.9,16.1z
			 M58.6,26.1c-0.1-0.2-0.1-0.3-0.1-0.4c1.1,0.3,2.2,0.6,3.4,1c-0.8,0.8-1.5,1.7-2,2.7c0,0.1,0,0.2,0,0.4c-0.1,0.5-0.1,1.1,0,1.5
			c-0.4-0.2-0.6-0.5-0.9-0.7c0,0,0,0.1-0.1,0.2c-0.9-0.8-1.8-1.6-2.8-2.3c0.6-0.4,1.1-0.9,1.7-1.5C58,26.6,58.3,26.3,58.6,26.1z
			 M59.9,31.7L59.9,31.7v0.1C59.9,31.8,59.9,31.8,59.9,31.7z M15.9,12.9c0.5,0.2,1,0.4,1.6,0.7c3,1.4,5.8,2.7,8.4,3.7
			c-0.1,0.1-0.1,0.2-0.2,0.4c-0.1,0.2-0.1,0.4-0.1,0.6c-1.3-1-3-1.5-5.1-1.3c-0.1,0.1-0.3,0.2-0.5,0.3c-0.2,0.2-0.5,0.5-0.7,0.8
			c0,0.1,0,0.2,0,0.3c0.4,0.4,0.4,0.9,0,1.2c-0.6,0.6-1.3,1-2,1.3c-0.3-0.1-0.5-0.4-0.8-0.5c-0.3-0.3-0.6-0.5-0.9-0.8
			c-0.2-1.2-0.4-2.4-0.5-3.7C15.1,14.8,15.3,13.8,15.9,12.9z M24.5,19.5c0.2,0.2,0.3,0.3,0.5,0.5c0.1,1,0.2,1.9,0.2,2.9
			c0.4,1.2,0.8,2.5,1,3.9c-0.4-0.2-0.9-0.3-1.3-0.5c0,0.1,0,0.2-0.1,0.2c-1.5-0.6-3.2-0.9-5.2-0.6c1.1-0.8,2.1-1.6,3-2.6
			c0-0.2,0-0.3,0.1-0.4c0.2-1.6,0-2.8-0.7-3.8C22.9,18.9,23.8,19,24.5,19.5z M26.7,27.8c-0.1-0.1-0.1-0.2-0.2-0.2c0,0,0.1,0,0.2,0
			C26.7,27.6,26.7,27.7,26.7,27.8z M27.5,27.2v-0.1c0.1,0,0.1,0,0.2,0c0.1,0,0.2-0.1,0.3-0.1s0.2,0.1,0.3,0.2
			c-0.2,0-0.2,0.1-0.4,0.2C27.8,27.4,27.6,27.3,27.5,27.2z M21.9,32.3c-0.4,0.5-0.8,1-1.1,1.5c0,0,0,0,0,0.1c0-0.2,0-0.4,0-0.7
			c0.7-1.3,0.8-2.8,0.3-4.7c-0.5-0.6-1.1-1.3-1.7-1.9c2.4,0.4,4.7,1,6.8,1.9c-0.7,0.4-1.4,0.9-2,1.5c-0.1-0.1-0.1-0.1-0.1-0.1
			c-0.3,0.3-0.7,0.6-1.1,0.9c0.1,0,0.2,0,0.2,0C22.8,31.3,22.3,31.7,21.9,32.3L21.9,32.3z"/>
		<path style="fill:#BE3689;" d="M57.1,7.6c0,0.3,0,0.6,0.1,0.9c0,0.2,0,0.4,0.1,0.5c0-0.3,0-0.6,0.1-0.8C57.3,8,57.2,7.8,57.1,7.6z
			"/>
		<path style="fill:#BE3689;" d="M51.1,31.5h-0.2c0,0.1,0,0.2,0,0.3c0.1,0.1,0.3,0.1,0.5,0.2C51.3,31.8,51.2,31.7,51.1,31.5z"/>
	</g>
</g>
</svg>
