<?xml version="1.0" encoding="iso-8859-1"?>
<!-- Generator: Adobe Illustrator 12.0.1, SVG Export Plug-In . SVG Version: 6.00 Build 51448)  -->
<!DOCTYPE svg PUBLIC "-//W3C//DTD SVG 1.1//EN" "http://www.w3.org/Graphics/SVG/1.1/DTD/svg11.dtd" [
	<!ENTITY ns_svg "http://www.w3.org/2000/svg">
	<!ENTITY ns_xlink "http://www.w3.org/1999/xlink">
]>
<svg  version="1.1" id="Layer_1" xmlns="&ns_svg;" xmlns:xlink="&ns_xlink;" width="101" height="100" viewBox="0 0 101 100"
	 style="overflow:visible;enable-background:new 0 0 101 100;" xml:space="preserve">
<g>
	<g>
		<path style="fill:#FFFFFF;" d="M101,100V0H0v100H101z"/>
	</g>
</g>
<g>
	<path style="fill:#BE3689;" d="M90.3,91.5c1.1-0.4,2.3-0.8,3.5-1.2c0-0.1-1.5-1.5-4.5-4.4c-3-2.8-8.8-4.6-17.3-5.3
		c-2.5,0.4-5,1.1-7.6,2c-0.9,0.2-1.5,0.6-2,1.1c0,0,0,0-0.1,0c-0.2-1.1-0.7-2.1-1.5-2.8c0.9-0.3,1.8-0.5,2.7-0.8
		c5.9-2,10-6.1,12.2-12.4c3.7-10.8,1.2-19.5-7.7-26c-0.2-0.2-0.4-0.5-0.6-0.8c1.3-1,2.8-0.9,4.5,0.3c0.6,0.5,1.1,0.4,1.6-0.2
		c-0.2-0.9-0.7-1.6-1.4-2.4c-0.2-0.3-0.4-0.6-0.6-1c0-0.4,0-0.8,0.1-1.1c0.1-0.2,0.2-0.2,0.3-0.3c1.1-0.3,2.1-0.6,3.1-0.8
		c0.1,0.1,0.2,0.3,0.4,0.4c0,0.4,0,0.8,0,1.2c0,0.2,0,0.5-0.1,0.7c-0.1,0.8,0.1,1.4,0.5,1.9c5.9,1.4,9.2-0.6,9.8-6
		c-1.8-1.1-3.9-1.8-6.2-2c-0.3-0.3-0.7-0.6-1.1-1h-0.2c-0.4-0.4-0.8-0.6-1.3-0.8c-0.4,0-0.6,0-0.7,0c-2-1.8-4.7-2.6-8.1-2.5
		c-0.4,0.3-0.9,0.4-1.5,0.4c-0.3,0-0.5,0.1-0.7,0.1c-0.2-1.5-0.5-3-1.2-4.5c-0.1-0.1-0.2-0.1-0.4-0.2c-0.9-0.1-1.8-0.2-2.7-0.3
		c-4.2,0.5-7.4,2.5-9.3,5.9c-0.1,0-0.1-0.1-0.1-0.1c0-0.5,0.2-0.8,0.5-1.1c0-0.4,0-0.8,0-1.2c0-0.5,0-1,0-1.5
		c0.2-0.2,0.3-0.5,0.5-0.7c1.1-2.3,2.6-4.3,4.7-6C58,18,58.2,18,58.3,18c2.4,1.3,5,1.6,7.8,0.8c0.2-0.2,0.4-0.5,0.4-0.7
		c0.8-4-0.3-7.2-3.2-9.8c-0.5,0-0.9,0-1.3-0.1c0,0.1,0,0.1,0,0.1c-2.1,1.3-3.5,2.8-4.2,4.5c-0.4,0-0.5,0-0.5,0.3
		c0.1,0.2,0.1,0.4,0.2,0.6c-0.1,0.1-0.1,0.2-0.1,0.3c-0.3-0.1-0.6-0.1-0.9-0.2c-1.5,0.9-2.9,2.1-4.3,3.5c-1.9,2.1-3,4.2-3.4,6.3
		c-0.7-3.1-2.3-5.9-4.8-8.4c0.2-0.7,0.2-1.5,0.1-2.2c-0.1-1.7-0.7-3-1.8-4.2c-0.8,0-1.5,0-2.3-0.1c-0.2,0.1-0.4,0.2-0.8,0.3
		c-4.8,1.7-6.4,5-4.9,9.7c2,0.9,4,0.9,6,0.1c0.5,0.4,1,0.8,1.5,1.2c0-0.2-0.1-0.3-0.1-0.4c-0.1,0-0.1,0-0.1-0.1
		c2.4,2.2,3.9,4.7,4.6,7.7c0,0-0.1,0-0.2,0c0,0.1,0,0.1-0.1,0.2c-2.9-3.1-6.5-4.6-10.9-4.6c-1,1.4-1.7,3-1.9,4.9
		c-2-1.4-4.5-1.3-7.5,0.4C25.4,28,25.2,28,25,28c-0.1,0-0.2,0.1-0.3,0.2c-0.2,0-0.4,0-0.6,0c0,0,0,0-0.1-0.1
		c-1.4-0.8-2.9-1.2-4.5-1.3c-0.6,0.2-0.9,0.7-0.8,1.6c0,1.5,0.2,2.9,0.6,4.4c0.3,1.7,1.1,3.2,2.2,4.5c0.3,0.2,0.5,0.3,0.7,0.5
		c1.7,1.1,3.3,1.1,4.8,0c0.1-0.2,0.1-0.5,0.1-0.7c0-0.8,0.1-1.5,0.4-2.1c0,0,0-0.2,0.1-0.2c0.1,0.1,0.3,0.2,0.4,0.3
		c0,0.4,0,0.8,0,1.1c0,0.4,0,0.8,0,1.1c0,0,0,0,0,0.1c-0.2,0.1-0.3,0.2-0.5,0.3c-0.9,0.8-1.3,1.7-1.2,2.6c1.6-0.2,3.1-0.3,4.4-0.3
		c-0.4,0.5-0.9,0.9-1.3,1.5l0,0c-0.4,0.5-0.8,1-1.1,1.5c-3.4,3.7-5.9,8.2-7.3,13.4c-2.3,9,0.2,15.7,7.6,20.1c2.6,1.5,5.3,2.8,8,3.7
		c-0.2,0.2-0.3,0.4-0.6,0.5c0,0.3,0,0.5-0.1,0.7c-0.3,0.7-0.5,1.4-0.4,2.3c-0.3-0.1-0.6-0.3-0.9-0.5c-0.2-0.1-0.3-0.1-0.2,0.1
		c0,0,0.1,0.1,0.2,0.3c-3.6-2.4-7.8-3.4-12.6-3.1c-1.3,0.4-2.6,0.7-3.9,1c-1.2,0.3-2.9,1.4-5,3.4c-2.2,2-3.5,3.4-4,4.1
		c-0.7,0.8-0.9,1.8-0.5,2.8c0.1,0.3,0.2,0.5,0.3,0.8c0.5,0.1,1.1,0.2,1.7,0.2c-1.4,0.3-2.5,1-3.1,2.2c0.1,0.1,0.2,0.2,0.2,0.1
		c2.7-0.2,4.1-0.9,4.3-2.1c1.1,0.2,2.2,0.3,3.4,0.4c-1.4,0.4-2.6,1-3.8,1.9c0.1,0.2,0.1,0.2,0.1,0.2c2.7-0.4,4.6-1,5.7-2
		c1.2,0.1,2.4,0.1,3.6,0.2c-1.2,0.4-2.4,1-3.5,1.8c0.4,0.6,1.1,0.7,1.9,0.3c0.1,0,0.2-0.1,0.3-0.1c2-0.6,3.5-1.2,4.5-2
		c1.3,0,2.6,0,3.9,0c-1,0.5-2,1-3,1.6c0.3,0.2,0.6,0.2,0.8,0.1c1.9-0.5,3.8-1.2,5.6-1.9c1.8-0.2,3.5-0.4,5.3-0.6
		c-1.7,0.8-3.2,1.7-4.8,2.6c0.1,0.1,0.1,0.2,0.3,0.2c0.3,0.2,0.8,0.2,1.2,0.3c0.1-0.2,0.3-0.3,0.4-0.3c2.7-1.3,5.5-2.5,8.3-3.7
		c0.8-0.1,1.7-0.3,2.6-0.5c0-0.2,0-0.4-0.1-0.6c1.9-0.8,3.7-1.6,5.6-2.4c-0.2-0.2-0.4-0.3-0.6-0.3l0,0c1.5-0.8,3-1.4,4.4-1.9
		c0.4-0.1,0.8-0.2,1.1-0.3c-0.3,0.4-0.6,0.9-0.8,1.5c-5.4,1.8-9.8,4.5-13.1,7.8c0.2,0.1,0.4,0.1,0.6,0c4.8-2.4,8.9-4.8,12.3-7.4
		c-0.1,0.5-0.3,1-0.3,1.6c0.6,0.4,1.2,0.8,1.9,1.1c-3.5,1-6.1,2.7-7.9,5.1c0.2,0.1,0.3,0.1,0.5,0c2.7-1.7,5.6-3.2,8.7-4.5
		c0.9,0.3,1.8,0.6,2.8,0.8c-1.9,1-3.6,2.1-5.3,3.3l0.1,0.2c2.4-0.8,4.7-1.9,6.8-3.3c1.3,0.5,2.6,0.8,4,1c-0.7,0.3-1.5,0.6-2.4,0.9
		C63,94.2,63,94.2,63,94.3c-0.8,0.4-1,0.9-0.7,1.5c0.7,0.1,1.6,0,2.4-0.4c1.7-0.8,2.7-1.5,3.1-2.1c0.7,0.1,1.4,0.1,2.1,0
		c0.7,0.1,1.5,0.2,2.3,0.2c-0.8,0.5-1.6,1.1-2.2,1.7v0.2c2.4-0.2,3.7-0.9,4-1.8c1.5,0,3,0,4.5-0.1c-0.5,0.4-0.9,0.8-1.2,1.3
		c0.2,0.1,0.4,0.2,0.7,0.1c1.7-0.3,2.9-0.9,3.8-1.7c1.4-0.2,2.9-0.4,4.4-0.7c-1.1,0.6-2,1.5-2.7,2.5c0.7,0.4,1.4,0.4,2.4-0.1
		C88.2,93.6,89.7,92.5,90.3,91.5z M83.8,35.4c-0.2,0.2-0.3,0.4-0.5,0.6c-0.6,0.7-1.2,1.3-1.8,2c-1.6,0.6-3.2,0.8-4.9,0.3
		c0-0.2,0-0.5,0-0.7c0-0.3,0-0.5,0-0.8c0-0.3,0-0.7,0-1c0.2,0.4,0.9,0.7,2.2,0.7c-0.1-0.2-0.2-0.3-0.3-0.4c-0.3-0.6-0.7-1.1-1.2-1.5
		c-0.1,0-0.2,0-0.2,0.1c-0.3,0.3-0.4,0.4-0.5,0.6c0-0.1,0-0.2,0-0.3c-3.2-3.5-6.9-4.5-11.1-3.3c0.2-0.9,0.3-1.7,0.3-2.6
		c4-0.5,7.7,0.4,11.1,2.7c0.2,0.4,0.5,0.8,0.7,1.3c0.4-0.1,0.8-0.1,1.1,0c0.5,0.5,1.1,0.9,1.8,0.9c0-0.2,0-0.3,0-0.4
		c-0.1-0.1-0.1-0.2-0.2-0.4c1.5,0.3,2.8,0.8,3.7,1.8C83.9,35.1,83.8,35.2,83.8,35.4z M62.4,16.3c-0.1-0.1-0.2-0.2-0.3-0.2
		c-0.5-0.3-1-0.5-1.6-0.6c-0.2,0.1-0.6,0.3-1,0.4c-0.7,0.1-1.2,0.3-1.6,0.7c-0.1,0-0.1,0-0.2,0c-0.1,0.2-0.3,0.3-0.5,0.4
		c-0.1,0-0.2,0-0.3,0c0,0,0.1,0.1,0.2,0.1c-3.7,2.6-5.7,6.1-6.2,10.5c0,0.1,0,0.2,0.1,0.3c-0.5-0.3-1-0.4-1.5-0.5
		c0.2-0.6,0.3-1.2,0.5-1.9c0.9-4.4,3.2-7.6,6.8-9.6c0.3,0,0.5-0.1,0.8-0.2c0.3,0.1,0.5,0,0.8-0.2c1.9-0.6,2.6-1.5,2.1-2.5
		c-0.2,0.2-0.5,0.3-1,0.3l0,0c0.7-1.2,1.7-2.3,2.9-3.2c0.5,0.2,0.9,0.6,1.2,1c1.3,1.7,1.9,3.7,1.7,6c-1.5,0-2.8,0-4.1,0
		C61.6,16.9,62,16.6,62.4,16.3z M42.6,16.4c0.2,0.4,0.5,0.8,0.8,1.2c2.6,2.9,4.3,6.1,5,9.6c-0.5-0.1-1-0.1-1.6-0.1
		c-0.2-4.3-2.4-7.5-6.5-9.5l0,0c-0.1-0.1-0.2-0.2-0.2-0.2c-0.1,0-0.1,0-0.2-0.1c-0.7-0.5-1.5-0.8-2.4-1.1l-0.1,0.1
		c0.3,0.3,0.6,0.6,1,0.9c-0.2,0.1-0.2,0.3-0.2,0.4c0.1,0.1,0.1,0.2,0.1,0.2c-0.9-0.2-1.9-0.3-2.9-0.5c-0.2-4.5,1.9-6.7,6.4-6.6
		c0.3,0.8,0.6,1.5,0.8,2.3c0.1,0.2,0.2,0.5,0.3,0.7c-0.1,0.4-0.2,0.7-0.3,1.1c-0.4-0.3-0.7-0.5-1.1-0.7v0.1
		C41.6,14.9,42,15.7,42.6,16.4z M58.8,29.3c-0.1-0.1-0.2-0.2-0.3-0.2c-0.7-0.3-1.3-0.5-2-0.6c-0.1,0-0.3,0.1-0.5,0.1
		c-1.6,0.1-2.8,0.7-3.4,1.9c0,0,0,0-0.1,0c0,0-0.1,0-0.2,0.1c-0.1-0.4-0.1-0.8-0.1-1.2c0.1,0,0.1,0,0.1-0.1c-0.1,0-0.1,0-0.1,0
		c0-0.1,0-0.2,0-0.3c3.3-2.7,7.2-4.1,11.7-4.3c0.1,0.8,0.2,1.5,0.3,2.3c0.2,3-0.4,5.7-1.8,8.2c-0.4,0.3-0.8,0.5-1.1,0.8
		c-0.2,0.1-0.3,0.2-0.4,0.4c-0.8,0.1-1.6,0.3-2.4,0.7c-0.3-0.1-0.6-0.2-0.9-0.4c-2.1-0.9-3.9-2.3-5.3-4.1c-0.1,0-0.1,0-0.1,0
		c0-0.5,0-0.9,0-1.4c0.8,0.2,1.6,0.3,2.3,0.4c0.6,0.5,1.2,1,1.8,1.4c0.8,0.5,1.5,0.5,2.1-0.2c0.1-0.6-0.3-1-1.2-1.1
		c-0.8-0.1-1.4-0.5-1.9-1.1c-0.5,0-0.9,0-1.3-0.1C55.6,29.9,57.2,29.5,58.8,29.3z M52.6,34.8v-0.1c1.5,2.3,3.9,3.8,7.3,4.4
		c0.1-0.1,0.2-0.2,0.3-0.2c0.2-0.2,0.4-0.3,0.5-0.4c0.6,0.4,1.1,0.7,1.6,1.1c-0.3-0.1-0.5-0.1-0.8-0.1c3,1.7,6,4,8.9,6.9
		c4.3,4.3,6.1,9.2,5.3,14.8c-0.7,5.5-3.8,10.5-9.1,14.9c-5.3,4.5-12.8,6-22.5,4.4c-9.7-1.6-17-5.5-21.9-12c-0.6-1.7-0.8-3.5-0.7-5.4
		c0.8-9.8,4.6-17.4,11.4-22.9H33c0,0,0,0-0.1,0c0.1-0.1,0.2-0.2,0.2-0.2c1.3-0.7,2.5-1.3,3.8-1.9c1,0.9,2.3,1.4,4,1.5
		c0.1-0.1,0.2-0.1,0.3-0.2c3-0.9,4.9-2.4,5.7-4.3c2-0.4,4-0.5,5.9-0.1C52.7,35,52.7,34.9,52.6,34.8z M46.8,29.7c0-0.1,0-0.2,0-0.4
		c0.3-1,1.1-1.1,2.4-0.3c0.5,0.3,1,0.6,1.6,0.8c0,0.4,0,0.8,0,1.2c0.1,0.5,0,1-0.3,1.5c-0.1,0.1-0.2,0.2-0.2,0.3v0.1
		c-1-0.1-1.9-0.2-2.9-0.2c-0.1,0-0.4-0.1-0.6-0.2v-0.2c0-0.3,0-0.7,0-1.1C46.8,30.7,46.8,30.2,46.8,29.7z M41.9,26.7
		c1.3,1,2.5,1.6,3.5,1.6c-0.2,0.5-0.3,1.2-0.4,1.8c-1.7-1.5-3.9-2-6.5-1.6l-0.3,0.1c1.8,0.6,3.6,1.2,5.5,1.8c-0.3-0.1-0.7,0-1.2,0.1
		c-0.7,0.3-1.4,0.8-2.1,1.3c-0.1,0.2-0.2,0.3-0.3,0.5l0.1,0.2c1.7-0.7,3.4-1,4.9-0.8c0.1,0.4,0.1,0.8,0.2,1.1c-0.1,0-0.2,0-0.3,0
		c-0.1,0.1-0.2,0.1-0.2,0.2c0.2,0,0.4,0.1,0.6,0.2c0.1,0.4,0.2,0.8,0.2,1.1c0,0.2,0,0.3,0,0.4c-1.7,1.4-3.7,2.3-5.8,2.9
		c-1-0.5-1.9-1.1-2.7-1.9c-0.1,0-0.2,0-0.3,0c-0.1-0.1-0.2-0.1-0.3-0.2c-0.1,0-0.2-0.1-0.4-0.3c-1.1-1.9-1.6-4-1.5-6.4
		c0-1.4,0.4-2.8,0.9-4.1c0.1-0.1,0.1-0.2,0.1-0.2c0.8-0.1,1.5-0.2,2.3-0.3C39.3,24.9,40.6,25.7,41.9,26.7z M72,34.5L72,34.5
		c-0.2,0.1-0.3,0.2-0.5,0.3c-0.2,0.2-0.5,0.4-0.6,0.7c-0.2,0.1-0.3,0.2-0.4,0.3c0,0.7,0,1.3,0,1.9c0,0.1,0,0.1,0,0.1
		c-1.8-1.4-3.8-2.5-6.1-3c0-0.1,0-0.1,0-0.1c0.5-0.9,0.8-1.9,1.1-2.8c3.3-0.3,6.2,0.6,8.7,2.7C73.4,34.5,72.7,34.5,72,34.5z
		 M63,36.8c0.5-0.5,0.9-1,1.2-1.6c2,1.3,4.1,2.4,6.4,3.2c0.1,0.2,0.1,0.3,0.2,0.4c0,0.2,0.1,0.3,0.2,0.4c-0.3,0.1-0.6,0.1-1,0
		c-0.6-0.1-1.3-0.1-2-0.2c-0.3,0-0.5,0-0.7,0.1c-0.4,0.2-0.7,0.6-0.9,0.9c-1.1-1.1-2.4-2.1-3.7-3C62.8,37,62.9,36.9,63,36.8z
		 M39.5,18.1h-0.1l0,0C39.5,18.1,39.5,18.1,39.5,18.1z M20.5,32.8c-0.4-1.4-0.5-2.9-0.4-4.6c0.6,0.2,1.2,0.4,1.7,0.7
		c0.3,0.2,0.7,0.4,1.1,0.6c-0.2,0.2-0.2,0.5-0.1,0.8c0.3,0,0.7-0.1,0.9-0.2s0.4-0.2,0.5-0.3c0.4,0.1,0.7,0.2,1.1,0.2
		c2.4-1.4,5-2,7.7-1.8c0,0.5-0.1,0.9-0.1,1.4c0,0.4,0,0.7,0.1,1c-0.1,0-0.2-0.1-0.2-0.1c-0.8-0.1-1.5-0.2-2.1-0.4
		c-0.4,0-0.8-0.1-1.2-0.3c-0.7,0.2-1.5,0.5-2.1,0.9c-0.1-0.1-0.2-0.2-0.4-0.2s-0.4,0.1-0.5,0.3c-1,0.7-1.6,1.7-2,2.7
		c0.6,0.2,1.1,0.2,1.7,0c0,0.1,0,0.2,0,0.3c-0.1,0-0.1,0.2-0.1,0.2h0.1c-0.1,0.4-0.2,0.8-0.2,1.1c-0.1,0.5-0.1,1-0.1,1.5
		c-0.4,0.1-0.8,0.2-1.2,0.1C22.5,36.2,21.1,34.9,20.5,32.8z M32.6,32.5c0.2,0,0.4,0,0.5,0c0.5,1.8,1.4,3.1,2.7,3.9
		c-0.7,0.3-1.3,0.7-2,1.2c-0.8,0.5-1.5,1-2.2,1.6c-0.8-0.6-1.7-1-2.6-1.2c0-0.1,0-0.1,0-0.2c0.3-0.1,0.5-0.3,0.7-0.5
		c1.2-1.3,2.8-2,4.6-2.2c-0.1-0.1-0.2-0.1-0.2-0.2c-0.8-0.2-1.7-0.3-2.6-0.3c-0.9,0.4-1.7,0.9-2.5,1.6c0-0.6,0-1.1,0-1.6
		c0-0.1-0.1-0.2-0.2-0.3c-0.4-0.2-0.7-0.4-1.1-0.7c0-0.4,0-0.6-0.1-1c0.2-0.1,0.3-0.2,0.4-0.3c1.2-0.8,2.5-1,3.9-0.6
		c0,0.1,0.1,0.1,0.1,0.1c0.1,0.2,0.1,0.2,0.3,0.3C32.4,32.2,32.5,32.3,32.6,32.5z M9.6,90.7c0.3-0.8,0.8-1.5,1.4-2.1
		c7.4-7.6,15.7-8.7,25-3.6c0.8,0.7,1.7,1.1,2.8,1.5c0-0.2-0.1-0.3-0.1-0.3c-0.6-0.6-1.1-1.2-1.8-1.6c0.1-0.2,0.1-0.3,0.1-0.5
		c0-0.1-0.1-0.2,0-0.4c0.3-1.3,0.5-2.4,0.3-3.2c1.2,0.3,2.4,0.7,3.6,1c-0.6,2.4-0.4,4.5,0.6,6.2c-0.2,0-0.3,0.1-0.5,0.1
		c0,0.5,0.2,0.8,0.5,1.2c0.4,0.3,0.7,0.7,1.1,1.1c0,0.1,0,0.1,0,0.1c-0.3,0.1-0.7,0.3-1,0.4c-2.1,0.3-4.2,0.5-6.3,0.7
		c-0.3-0.1-0.5-0.2-0.8-0.2v0.1c-0.4,0.1-0.6,0.2-1,0.3c-7,0.6-14.2,0.8-21.4,0.7C10.9,92.2,10.1,91.7,9.6,90.7z M55.6,84.3
		c-0.4,0.1-0.7,0.3-1,0.7c0,0,0,0-0.1,0c-0.4,0.2-0.8,0.5-1.3,0.6c-0.1,0-0.1,0-0.2,0c0,0,0,0-0.1,0.1c-0.8,0.2-1.8,0.3-2.9,0.2
		c-3-0.1-5.7-0.2-8.1-0.3c-0.3-1.3-0.4-2.7-0.4-4c4.4,1,8.9,1.1,13.5,0.5C55.1,82.7,55.3,83.4,55.6,84.3z M61.5,84.1
		c-0.8,0.4-1.5,1-2,1.9c0.1,0.1,0.2,0.2,0.2,0.1c0.7-0.1,1.2-0.2,1.7-0.3c0,0.1,0,0.2,0,0.3c11.3-5.9,21.2-4.6,29.9,3.6
		c-8.7,2.1-17.6,2.8-26.5,2c-3.7-0.7-6.7-1.8-9.2-3.1c0-0.1,0.1-0.2,0.1-0.3c1.8-2.4,1.9-4.5,0.3-6.4c1.3-0.2,2.7-0.5,4-0.8
		C60.2,82.4,60.7,83.4,61.5,84.1z M42,86.2c0,0,0,0,0-0.1c0.6,0.2,1.3,0.4,2,0.5c-0.5,0.3-0.9,0.6-1.3,1c-0.2-0.4-0.4-0.7-0.7-1
		C42,86.5,42,86.4,42,86.2z M49.7,87c-0.7,0.3-1.2,0.7-1.8,1.1c-0.4,0.2-0.9,0.4-1.4,0.5c-0.8,0.3-1.6,0.6-2.3,1
		c-0.3-0.5-0.6-0.8-0.9-1.1c-0.1-0.1-0.1-0.2-0.1-0.2c0.9-0.3,1.8-0.8,2.6-1.4C47.1,87.1,48.4,87.1,49.7,87z"/>
	<path style="fill:#BE3689;" d="M48.8,45.6c0,0-0.1,0.1-0.2,0.1c-2.1-1.9-4.3-2.6-6.5-2.1c-0.4-0.3-1.1-0.5-2-0.6c0-0.2,0-0.3,0-0.4
		c0.2-0.7,0.1-1.2-0.3-1.5c-0.4-0.1-0.6,0-0.7,0.3c-0.2,0.9-0.1,1.8,0.3,2.6c0.2,0.1,0.4,0.3,0.6,0.4c-0.3,0.2-0.6,0.4-1,0.7
		c-0.6-0.3-1.3-0.5-2-0.9c0-0.1,0-0.2,0-0.4c0.1-0.4-0.1-0.7-0.4-1.1c-0.1,0.1-0.2,0.1-0.3,0.2c-0.4,0.8-0.4,1.5,0.1,2.2
		c0.4,0.4,0.9,0.8,1.4,0.9c-0.1,0.1-0.2,0.2-0.4,0.4c-1,0-1.9-0.5-2.6-1.3c-0.5-0.2-0.7,0-0.7,0.4c0,0.9,0.5,1.5,1.5,1.8
		c0.3,0.1,0.5,0.1,0.7,0.2c-4.5,4.7-4.4,9.6,0.3,14.5c4.8,1.4,8.9,0.5,12.5-2.4c2.6,2.2,5.6,2.7,9.1,1.4c5.4-2,7.2-5.7,5.4-10.9
		c-0.1-0.1-0.2-0.3-0.3-0.4c-0.8-1.5-1.8-2.8-3-3.7c0.2-0.1,0.4-0.2,0.6-0.3c0.1-0.1,0.2-0.2,0.4-0.4c0.9-0.8,1-1.7,0.3-2.6l0,0
		c-0.7,1.1-1.6,1.8-2.7,2.2c-0.4-0.2-0.8-0.4-1.1-0.6c0.4-0.4,0.8-0.9,1.2-1.3c0-0.2,0-0.3,0-0.4c0.1-0.7,0-1.3-0.4-1.9h-0.2
		c-0.2,1.8-1.1,2.8-2.4,3c-0.1,0-0.1,0-0.1,0c0-0.1,0-0.2,0.1-0.2c0.5-1.2,0.6-2.3,0.3-3.4c-0.9,0.5-1.4,1.6-1.8,3.2c0,0,0,0,0,0.1
		c-1-0.2-1.9-0.2-3-0.2c-0.2,0.2-0.6,0.3-1,0.5C49.7,44.1,49.2,44.7,48.8,45.6z M44.4,44.7c0.2,0.2,0.4,0.3,0.6,0.4
		c1.7,1.3,3.2,2.4,4.5,3.2c0.5-0.4,0.8-0.9,0.9-1.4c0.2-0.6,0.4-1.1,0.7-1.6C56,44.7,59.6,46.5,62,51c0.2,0.6,0.3,1.3,0.4,1.9
		c0.5,3-0.7,5.2-3.6,6.7c-3.9,1.2-7.1,0.5-9.8-2.4c-6.8,5.9-11.9,5.2-14.9-1.9c0-0.1,0-0.2,0-0.3c0.8-4.8,3.6-8.2,8.4-10.2
		C43.1,44.8,43.7,44.8,44.4,44.7z"/>
	<path style="fill:#BE3689;" d="M52.6,52.8c0-0.1,0-0.2,0-0.3c-0.4-0.7-1-1.2-1.8-1.5c-0.3-0.1-0.6-0.1-0.8,0
		c-1,0.3-1.3,0.9-1.1,1.8C50,54.6,51.3,54.6,52.6,52.8z"/>
	<path style="fill:#BE3689;" d="M47.6,54.1c0.4-0.3,0.6-0.7,0.6-1.1c-0.1-0.2-0.1-0.3-0.1-0.4S48,52.4,48,52.2
		c-0.6-0.8-1.4-1.1-2.5-0.9c-0.4,0.2-0.6,0.5-0.8,1c-0.2,0.9,0.1,1.6,0.9,2.2c0.6,0,1.1-0.1,1.6-0.2C47.4,54.3,47.5,54.2,47.6,54.1z
		"/>
	<path style="fill:#BE3689;" d="M50.8,66.5c-0.8-0.1-1.5-0.1-2.3-0.1c-0.6,0.4-1.2,1-1.8,1.6c-1.2,1.3-1.7,2.9-1.7,4.7
		c0.3,0.3,0.6,0.5,0.9,0.8c0.1,0.1,0.2,0.2,0.4,0.3c2.3,0.5,4.6,0.3,6.7-0.6c0.6-0.4,0.8-1,0.5-1.8C53,69.6,52,68,50.8,66.5z
		 M49,67.9c0.1-0.1,0.1-0.1,0.1-0.1c1.3,0.6,2.2,1.5,2.6,2.6c-1-0.6-2.3-0.7-3.7-0.4c-0.1,0-0.2,0.1-0.3,0.2c-0.5,0.5-0.9,1-1.4,1.6
		c0-0.1,0-0.2,0-0.3c0.2-0.7,0.4-1.5,0.7-2.3c0.1-0.1,0.1-0.1,0.2-0.1C47.9,68.9,48.5,68.5,49,67.9z M48.4,71.2
		c1.1-0.3,2.1-0.2,3,0.5c0.3,0.1,0.5,0.3,0.6,0.3c0,0,0,0,0,0.1c-1.8,0.5-3.5,0.7-4.9,0.3c0.3-0.2,0.6-0.5,0.8-0.8
		C48.1,71.5,48.2,71.4,48.4,71.2z"/>
	<path style="fill:#BE3689;" d="M50.5,76.8c0.1,0,0.2-0.1,0.3-0.1c1.4-0.5,1.7-1.1,0.7-1.6c-0.5,0.4-1.2,0.7-2,0.9
		c-1.5-0.7-2.6-0.7-3.2-0.3C47.4,76.3,48.9,76.7,50.5,76.8z"/>
	<path style="fill:#BE3689;" d="M24.5,54.2c0,0.2,0,0.3,0,0.4c0,0.4,0,0.8,0,1.1c1.3,1.6,2.8,1.7,4.4,0.4c0-0.1,0-0.2,0.1-0.4
		c0.4-2.4,0.5-4.8,0.3-7.1C28.1,50.2,26.5,52.1,24.5,54.2z M28.3,51.8c0.3-0.1,0.3,0,0.1,0.5c-0.4,0.9-0.5,1.9-0.4,3
		c-0.8,0.7-1.6,0.7-2.5-0.1c0.1-0.1,0.2-0.2,0.3-0.4C26.5,53.8,27.3,52.8,28.3,51.8z"/>
	<path style="fill:#BE3689;" d="M67.5,46.7c-0.7,0.5-0.6,1.1,0.5,1.9c0,0.4,0,0.7,0.1,1.1c0.3,1.1,0.6,2.3,0.9,3.4
		c0.8,1.1,1.7,1.2,2.8,0.2c0-0.2,0.1-0.5,0.1-0.7c0.1-0.4,0.1-0.8,0.1-1.1c-0.1-0.2-0.2-0.3-0.3-0.4c-1.3-1.5-2.6-3-3.9-4.5
		C67.7,46.6,67.5,46.6,67.5,46.7z M69.5,50.5v-0.1c1.2,0.7,1.5,1.5,1,2.3c-0.1,0-0.3,0-0.3-0.1C69.6,52,69.4,51.3,69.5,50.5z"/>
</g>
</svg>
