<?xml version="1.0" encoding="iso-8859-1"?>
<!-- Generator: Adobe Illustrator 12.0.1, SVG Export Plug-In . SVG Version: 6.00 Build 51448)  -->
<!DOCTYPE svg PUBLIC "-//W3C//DTD SVG 1.1//EN" "http://www.w3.org/Graphics/SVG/1.1/DTD/svg11.dtd" [
	<!ENTITY ns_svg "http://www.w3.org/2000/svg">
	<!ENTITY ns_xlink "http://www.w3.org/1999/xlink">
]>
<svg  version="1.1" id="Layer_1" xmlns="&ns_svg;" xmlns:xlink="&ns_xlink;" width="88.117" height="91.4"
	 viewBox="0 0 88.117 91.4" style="overflow:visible;enable-background:new 0 0 88.117 91.4;" xml:space="preserve">
<g>
	<path style="fill:#BE3689;" d="M76.517,42.5c0-0.1,0-0.2-0.1-0.4c-0.1-2.1-1-3.7-2.7-4.6c-1.3,0.2-2.5,0.7-3.2,1.5
		c-2.1-2-4.5-3.3-7.3-3.9c0-0.1-0.1-0.2-0.1-0.3c0.1-0.5,0.1-1.1,0-2c-0.1-0.3-0.2-0.6-0.2-1c-0.3-0.3-0.7-0.7-1-1
		c0.5-0.2,1-0.5,1.4-1c2.8-2.6,3.6-5.8,2.3-9.4c-0.1-0.1-0.2-0.1-0.3-0.2c-0.7-0.2-1.4-0.3-2.1-0.3c-2,0.4-3.9,1.1-5.6,2.1
		c-1.8-0.7-3.8-1.1-5.9-0.9c-3.6,0.4-6.3,2.1-8.2,5c-0.2,0-0.5,0-0.8,0c-0.6,0.1-1.2,0.2-1.8,0.2c-2.7-3.7-6.6-5.2-11.7-4.8
		c-0.1-0.1-0.2-0.2-0.4-0.4c-0.1-0.1-0.2-0.2-0.3-0.3c-0.4-0.1-0.8-0.2-1.2-0.3c-1.3-0.5-2.6-0.8-4.1-0.9c-1.8,2-2.2,4.4-1.2,7.3
		c0.9,2.5,2.6,3.9,5.1,4.1c0.1,0.3,0.1,0.6,0.1,0.9c-0.6,0.8-1.2,1.7-1.6,2.7c-5,1.6-9.7,4.1-13.9,7.5c0,0.2,0,0.3,0,0.4
		c0,0.5,0,1,0,1.5c2.1,3.2,5.1,4.2,9,2.9c-1,1.4-2,2.9-2.8,4.4c0,0-0.1,0-0.2,0l0,0c-1.2,0-2.2,0.5-2.8,1.4c-0.6,0.6-1,1.2-1.4,2
		c-0.9,1.9-0.6,3.7,0.7,5.2c0.2,0,0.4,0,0.6,0.1c-0.5,2.6-0.5,5-0.2,7.1c-3.8-2.1-7.9-3.6-12.4-4.6c-2.8,4.2-3,8.9-0.3,14
		c2.5,5,6,8.6,10.2,10.7c-0.2,0.1-0.5,0.1-0.8,0.2c-2.1,0.3-3.9,1.1-5.3,2.5c0.2,0,0.4,0,0.6-0.1c1.8-1,3.8-1.8,6-2.4
		c0.6,0.3,1.3,0.6,2,0.8c-1.1,0.4-2,1.1-2.8,1.9c0.3,0.5,0.7,0.5,1.5,0.1c0.6-0.4,1.3-0.8,1.9-1.3c0.4-0.1,0.7-0.1,1.1-0.2
		c1.1,0.2,2.3,0.5,3.6,0.6c-0.8,0.4-1.4,0.8-1.9,1.3c0.1,0,0.3,0,0.5,0c1.4-0.3,2.7-0.7,4.1-1.1c0.6,0,1.3,0,2.1-0.1
		c-0.3,0.2-0.6,0.4-0.9,0.6l0.1,0.2c0.6-0.3,1.3-0.6,2-0.9c0.2,0,0.5,0,0.7-0.1c1.7-0.2,3-0.8,3.7-1.8c2.8-1.2,5.6-2.3,8.5-3.3
		c0.2,0.1,0.4,0.2,0.5,0.4c-3.5,1.4-6.6,3.2-9.5,5.5v0.2c3.7-1.6,7.4-3.2,10.9-4.9c0.4,0.2,0.8,0.3,1.2,0.5c-2.8,1-5.1,2.6-6.9,4.7
		c1.2-0.3,2.5-0.7,3.8-1.2c2.7-1.1,4.8-2.1,6.2-3.2c2-0.1,4-0.9,6.2-2.3c-0.1-0.2-0.1-0.2-0.2-0.2c-0.2,0.1-0.5,0.2-0.7,0.3
		c-0.1-0.1-0.1-0.1-0.1-0.2c0.5-0.1,1-0.2,1.5-0.2c0.3-0.2,0.7-0.3,1-0.5c0.1,0,0.2,0,0.2,0c0.9-0.4,1.8-0.7,2.7-0.9
		c-0.2,1.4-0.1,3,0.3,4.6c-3.1,0.8-5.4,2.3-6.9,4.7c0.2-0.1,0.4-0.3,0.7-0.4c1.9-1.6,4-2.8,6.4-3.6c0.2,0.6,0.4,1.3,0.7,2
		c0.2,0,0.3,0.1,0.4,0.1c-0.6,0.4-1.1,0.9-1.5,1.5v0.2c1.5-0.1,2.6-0.5,3.5-1.1c3.3,0.8,6.7,0.6,10.2-0.5c-0.5,0.2-1,0.5-1.4,0.8
		c0.7,0.1,1.5,0.2,2.2,0.2c0,0,0.2,0,0.3-0.1c3.8-1.8,7.4-3.8,10.8-5.9c0,0,0,0-0.1,0.1c-1.5,0.4-3.1,1-4.6,1.5
		c6.4-4,10.2-9.9,11.5-17.7c-0.1-0.1-0.1-0.2-0.2-0.3c-1.9-3.1-4.8-4.5-8.7-4.4c-3,0.4-5.8,1.3-8.5,2.8c2.3-9.2-0.2-16.7-7.7-22.5
		c1-0.2,2,0.1,3.1,0.9c0.5,0.4,0.9,0.4,1.2,0.2c0,0.4-0.1,0.7-0.1,1.1c0.5,0.6,1.3,1.1,2.1,1.5C73.317,47.9,75.717,46.2,76.517,42.5
		z M79.817,66c0.3,0.1,0.6,0.1,0.9,0.1c3,0.2,4.8,1.6,5.6,4.3c-0.3,2-1.1,4-2.3,5.7c-6.5,9.6-15.3,13.5-26.4,11.5
		c-0.2-0.1-0.4-0.4-0.5-0.6c0.1,0,0.2,0,0.4-0.1c-0.1-0.1-0.1-0.1-0.2-0.2c-0.1,0-0.3,0-0.5-0.1c-0.3-0.6-0.4-1.2-0.2-1.9
		c0.1-0.9,0.2-1.8,0.4-2.7c0.4-0.6,0.8-1.3,1.2-1.9c2.9-5,7-8.6,12.5-10.6c0,0,0,0,0.1-0.1C73.517,67.6,76.517,66.5,79.817,66z
		 M54.217,26.9c-0.1,0-0.1,0-0.2,0c-0.2-0.1-0.4-0.1-0.6-0.1c-0.4,0-0.8,0-1.1,0h-0.1c1.3-0.8,2.6-1.2,4-1.4
		c0.2,0.5,0.3,0.9,0.6,1.4c-0.4-0.1-0.7-0.1-1.1-0.2C55.217,26.7,54.717,26.8,54.217,26.9z M47.017,28.3c1,0,2,0.1,2.9,0.2
		c0.1,0,0.2,0,0.3,0c1.6,0.1,3.3,0.3,4.9,0.3c0.2,0,0.4,0,0.6,0.1c1,0,1.8,0.2,2.5,0.6c0.4,0.3,0.8,0.6,1,1c0.1,0.1,0.1,0.2,0.1,0.3
		c0.1,0.8-0.1,1.5-0.6,2.1c-0.1,0.1-0.2,0.2-0.3,0.4c-0.3,0.3-0.5,0.6-0.7,0.9c-0.5,0.6-0.9,1.2-1.4,1.8c-0.3,0.8-0.6,1.6-0.8,2.4
		c-0.3,0.6-0.4,1.2-0.6,1.8c-0.1,0.6-0.2,1.2-0.3,1.7c-0.1,0.3-0.1,0.5-0.1,0.7c-0.1,0.7-0.1,1.4,0.1,2.1
		c-8.7-1.5-17.6-1.7-26.8-0.3c-0.1-0.2-0.2-0.3-0.4-0.4c-0.1,0-0.3-0.1-0.4-0.2c-0.1-0.1-0.2-0.2-0.3-0.2c0-0.1-0.1-0.1-0.1-0.2
		c-0.2-0.5-0.3-1.1-0.3-1.7s0.1-1.1,0.2-1.7c0-0.2,0-0.4,0.1-0.7c0.1-0.6,0.3-1.2,0.4-1.8c0.1-0.4,0.2-0.8,0.3-1.2
		c0.5-1.1,0.9-2.3,1.5-3.4c0.2-0.5,0.5-1,0.7-1.5c1.8-0.7,3.5-1.3,5.3-1.8c0.9-0.3,1.8-0.5,2.7-0.7c0.1,0,0.2,0,0.3-0.1
		c0.5,0,1-0.2,1.6-0.2c0.4-0.1,0.9-0.2,1.4-0.3c0.4,0,0.9,0,1.3-0.1c0.2-0.1,0.3-0.1,0.5-0.1c0.6,0,1.2-0.1,1.8-0.1
		c0.2,0,0.4,0,0.6,0c0.1,0,0.1,0,0.2,0c0,0-0.1,0.1-0.2,0.1C45.717,28.2,46.417,28.3,47.017,28.3z M53.717,24.1
		c-1.7,0.5-3.2,1.2-4.5,2.3c-1.4-0.1-2.8-0.2-4.1-0.2c0.4-0.6,1.4-1.4,3.1-2.6c2-1.3,5.8-1.5,11.4-0.3c-0.2-0.2-0.3-0.3-0.4-0.4
		c-0.5-0.3-1-0.6-1.5-0.8c2.4-0.3,4.8-0.6,7.4-1c0.1,0.3,0.1,0.6,0.1,0.8c0.5,3.3-0.7,5.7-3.5,7.2c-1.5-1.7-3-3-4.3-3.7
		c0.6,0,1.3,0,1.9,0.1c0-0.1-0.1-0.2-0.1-0.2C57.517,24.1,55.717,23.8,53.717,24.1z M39.217,26.4c-0.9,0.1-1.7,0.3-2.5,0.4
		c-0.1,0-0.2-0.2-0.4-0.3c-0.4-0.1-0.8-0.2-1.2-0.3c-1.3-0.5-2.8-0.8-4.3-0.8c-0.2-0.8-0.5-0.9-1-0.2c-0.2,0.4-0.5,0.8-0.8,1.3
		c-0.7,1.2-1.5,2.1-2.5,2.9c-1.2-0.3-2.1-0.9-2.7-2c-0.6-0.9-0.9-1.9-0.9-3s0.2-2.1,0.4-3c0.4-0.1,0.7-0.1,1-0.1
		c1.8,0,3.3,0.7,4.5,2c2.8-0.8,5.3-0.5,7.6,1C37.417,24.9,38.317,25.6,39.217,26.4z M60.717,33c0.2-0.2,0.2-0.3,0.3-0.5
		c0-0.2,0-0.4,0.2-0.6c0.1,0.1,0.2,0.2,0.4,0.2c0.2,0.6,0.4,1.1,0.5,1.7c-0.1,0-0.2,0-0.3-0.1c-0.3-0.1-0.7-0.2-1-0.3
		c-0.1-0.1-0.1-0.1-0.2-0.1C60.717,33.1,60.717,33,60.717,33z M63.017,38.9c0.2-0.6,0.3-1.3,0.5-2c0-0.1,0-0.2,0-0.4
		c3,1.2,5.8,2.7,8.6,4.5c0-0.1-0.1-0.2-0.1-0.3c-0.3-0.3-0.6-0.6-0.8-0.9c1,0.1,2.1,0.1,3.1,0.1c0.2,0.3,0.2,0.7,0.2,1.1
		c-0.1,0.7-0.1,1.3,0.1,1.9c-0.1,0.1-0.1,0.2-0.1,0.4c-0.4,1-0.9,1.8-1.8,2.6c-0.8,0.2-1.6,0.5-2.4,0.6c-1.1-0.2-1.8-0.7-2.2-1.2
		c0-0.3,0-0.5,0.1-0.8c0-0.4,0-0.8-0.1-1.1c0.6,0.5,1.3,1,2,1.5c0-0.1-0.1-0.2-0.1-0.3C68.117,41.9,65.717,40,63.017,38.9z
		 M61.417,35.7c0.1,0.9,0.1,1.8,0,2.7c-0.2,0.6-0.3,1.3-0.6,2c-0.1,0.1-0.1,0.2-0.1,0.3s0,0.2-0.1,0.3c-0.4,0.6-0.8,1.2-1.2,1.7
		c-0.4,0.6-0.9,1.1-1.3,1.7c-0.1,0-0.2,0.1-0.3,0.2c-0.7,0.3-1.2,0.3-1.6-0.2c0-0.3,0-0.5,0.1-0.8c0-0.1,0-0.2,0-0.2
		c0-0.1,0-0.1,0-0.1c0.4-3,1.4-5.9,3.1-8.5c0.2-0.3,0.3-0.4,0.4-0.2c-0.1,0.1-0.1,0.1-0.1,0.2c-0.1-0.1-0.2-0.1-0.3,0l0.3,0.1
		c0,0.1,0,0.2-0.1,0.3c0,0.3-0.1,0.6-0.2,0.8c-0.2,0.6-0.3,1.1-0.4,1.7c0,0,0,0.1,0,0.2c-0.1,0.2-0.2,0.5-0.2,0.7
		c-0.1,0.2-0.1,0.4-0.1,0.5c-0.2,0.9-0.4,1.8-0.5,2.6c-0.1,0.3-0.1,0.5-0.2,0.7c0,0.1,0.1,0.2,0.2,0.3c0.2-0.2,0.3-0.4,0.4-0.6
		c0.5-0.8,0.9-1.5,1.3-2.2c0.2-0.6,0.5-1.2,0.7-1.7c0.3-0.9,0.5-1.7,0.6-2.5c0-0.1,0-0.2,0.1-0.3
		C61.317,35.5,61.317,35.6,61.417,35.7z M64.817,42.2c0.1,0.2,0.1,0.3,0.2,0.4c0,0.2,0.1,0.3,0.2,0.4c-0.3,0.1-0.6,0.1-1,0
		c-0.6-0.1-1.3-0.1-2-0.2c-0.3,0-0.5,0-0.7,0.1s-0.3,0.2-0.5,0.4c0.5-0.7,0.8-1.4,1.2-2.2C63.017,41.5,63.917,41.9,64.817,42.2z
		 M64.717,41.5c0,0.1,0,0.1,0,0.1c-0.2-0.2-0.5-0.4-0.8-0.6c-0.5-0.1-1-0.2-1.4-0.5c0-0.1,0-0.2,0.1-0.2c0.7,0.3,1.4,0.7,2.1,1.1
		C64.717,41.5,64.717,41.5,64.717,41.5z M59.617,45.1c0.6,0.1,1.4,0.2,2,0.4c1,0.8,2,1.7,3,2.7c4.3,4.3,6.1,9.2,5.3,14.8
		c-0.2,1.6-0.7,3.3-1.3,4.9c-1.9,1.1-3.8,2.4-5.6,3.6c-4,2.9-6.4,6-7.2,9.5c-1.1,0.4-2.2,0.8-3.3,1c-0.1,0.1-0.2,0.1-0.3,0.1
		c-4,1-8.6,1-13.9,0.2c-2.7-0.4-5.1-1-7.5-1.8c-0.6-0.4-1.3-0.6-2.1-0.7l-0.2,0.1c-0.1,0-0.1-0.2-0.2-0.2c-0.2-0.5-0.5-0.9-0.6-1.4
		c-0.1-0.2-0.2-0.3-0.4-0.4c-3.4-4.2-7.2-7.5-11.5-10.1c-0.2-0.9-0.2-1.9-0.1-2.9c0.1-1.6,0.3-3.2,0.7-4.7c0.7,0.2,1.4,0.3,2.2,0.5
		c0.1,0,0.2,0,0.2,0.1c0.5,0.5,1,1,1.5,1.5c3.9,3.9,7.5,7.4,10.9,10.4c-0.5,0-0.9,0-1.5,0c-0.1,0.1-0.4,0.1-0.5,0.2
		c0,0.1-0.1,0.2-0.2,0.3c-0.3,0.5-0.6,1-0.7,1.5c-0.3,0.7-0.3,1.4,0,2.2c0,0.2,0.2,0.3,0.4,0.4c0.6-0.3,0.9-0.7,1-1.3
		c0.1-0.4,0.2-0.8,0.1-1.2c0-0.2,0.1-0.3,0.2-0.4c0.1-0.1,0.2-0.2,0.3-0.2c0.2-0.1,0.4,0,0.5,0c0.5,0.2,0.9,0.3,1.3,0.4
		c0.1,0.3,0.2,0.5,0.4,0.8c0.1,0.1,0.2,0.2,0.3,0.3c0.3,0.1,0.6,0.1,0.9,0.2c1.1-0.3,2.2-0.5,3.3-0.7c-0.2-0.3-0.3-0.5-0.5-0.7
		c0-0.1,0-0.1,0-0.1c0.1-0.3,0.1-0.5,0.2-0.8c0-0.2,0-0.4,0.1-0.7c0-0.1,0-0.3,0.1-0.4c-0.1-0.5-0.2-0.9-0.2-1.4
		c-0.4,0.2-0.7,0.3-1,0.5c0,0.2,0,0.3,0,0.4c0,0.1,0,0.1,0,0.1c-0.1-0.1-0.2-0.2-0.3-0.3c-4.6-4.8-9-9.7-13.1-14.8
		c0.7-1.4,0.7-2.7,0-4.1c-0.2-0.2-0.4-0.5-0.6-0.8c-0.2-0.1-0.5-0.1-0.8-0.2c-0.3,0-0.7,0-1.1-0.1c-0.1-0.1-0.3-0.1-0.5-0.2
		c1.4-2.8,3.2-5.3,5.4-7.4l0.2-0.1c0.1,0.1,0.1,0.2,0.2,0.3c0,0.1,0.1,0.2,0.3,0.3c0.1,0.1,0.2,0.2,0.3,0.3c0.2,0.1,0.3,0.2,0.5,0.3
		c0.1,0.1,0.3,0.2,0.4,0.3c2.7-0.2,5.6-0.4,8.3-0.4c-0.1,0-0.2,0.1-0.3,0.3c-0.3,0.9-0.2,1.8,0.1,2.6c0.2,0.2,0.4,0.3,0.6,0.5
		c-0.3,0.1-0.7,0.3-1,0.5c-0.7-0.2-1.3-0.6-2-0.9c0-0.2,0-0.3,0-0.4c0.1-0.4,0-0.8-0.2-1.2c-0.3,0.1-0.3,0.1-0.4,0.2
		c-0.5,0.8-0.5,1.5-0.1,2.2c0.4,0.4,0.9,0.8,1.4,1c-0.2,0.1-0.3,0.2-0.5,0.3c-1,0-1.8-0.5-2.5-1.5c-0.4-0.1-0.7,0-0.7,0.4
		c-0.1,0.9,0.4,1.5,1.4,1.9c0.2,0.1,0.4,0.2,0.6,0.2c-4.8,4.4-5.1,9.3-0.8,14.5c4.6,1.7,8.8,1.3,12.7-1.4c2.3,2.5,5.3,3.2,8.9,2.2
		c5.6-1.6,7.6-5.1,6.3-10.5c-0.2-0.1-0.2-0.3-0.3-0.4c-0.7-1.6-1.6-2.9-2.7-4c0.2,0,0.4-0.1,0.6-0.2c0.1-0.1,0.3-0.2,0.4-0.3
		c1-0.8,1.2-1.7,0.6-2.6h-0.1c-0.7,1-1.7,1.6-2.9,2c-0.3-0.3-0.7-0.5-1-0.7c0.4-0.4,0.9-0.8,1.4-1.3c0-0.1,0-0.2,0-0.4
		c0.1-0.6,0.1-1.3-0.3-1.8h-0.2c-0.4,1.7-1.3,2.6-2.6,2.7c-0.1,0-0.1,0-0.1,0c0-0.1,0-0.1,0.1-0.2c0.5-1,0.7-2.1,0.6-3.1
		c1,0.1,2,0.2,3.1,0.3c0,0.1,0.1,0.1,0.2,0.1c1.2,0,2.3-0.1,3.5-0.2C59.017,45.7,59.217,45.4,59.617,45.1z M66.317,42.4
		c-0.1,0-0.1-0.1-0.1-0.1c0.5,0.2,0.9,0.5,1.3,0.8c-0.1-0.1-0.2-0.1-0.3-0.1c-0.1,0.1-0.1,0.2-0.2,0.3
		C66.817,43,66.617,42.7,66.317,42.4z M14.117,45.1c-0.2-0.2-0.5-0.5-0.6-0.7c-0.4-0.5-0.6-1-0.8-1.5c0.8-0.6,1.7-1.2,2.5-1.8
		c0.8-0.3,1.5-0.5,2.3-0.7c-0.1-0.1-0.2-0.2-0.2-0.2c-0.2-0.1-0.3-0.1-0.4-0.1c1.7-1,3.6-1.9,5.6-2.6c0.9-0.3,1.7-0.7,2.5-1
		c-0.1,0.4-0.2,0.9-0.3,1.4c-2,0.6-3.7,1.8-5.2,3.6c0,0.2,0,0.3,0,0.4c0.1,0.6,0.2,1.2,0.1,1.9c0,0.6,0,1.2,0,1.8
		C17.817,46.5,16.017,46.4,14.117,45.1z M30.817,25.8c0.7,0.6,2.1,1.1,4.4,1.5c-0.3,0-0.5,0.1-0.8,0.1c-1.1-0.3-2.2-0.6-3.4-0.6
		c-0.2,0-0.3,0-0.5,0C30.617,26.5,30.717,26.1,30.817,25.8z M29.217,30c0.1-0.5,0.3-1,0.5-1.5c0.1-0.1,0.1-0.2,0.1-0.2
		c0.8-0.1,1.5-0.2,2.3-0.3c0.1,0.1,0.2,0.1,0.2,0.2C31.217,28.7,30.117,29.3,29.217,30z M24.617,40.1c-0.1,0.6,0,1.3,0.1,2.1h-0.2
		c-0.3-0.1-0.6-0.2-0.9-0.3c-0.3,0.3-0.7,0.6-1,0.9c0-0.2,0-0.4,0-0.5c0-0.2-0.1-0.3-0.1-0.3c-0.2-0.2-0.3-0.4-0.5-0.5
		c0.1-0.1,0.2-0.1,0.3-0.2C23.017,40.9,23.817,40.5,24.617,40.1z M21.317,42.1h0.1c-0.2,0.3-0.4,0.6-0.5,1c0-0.3,0-0.5,0.1-0.7
		C21.117,42.3,21.217,42.2,21.317,42.1z M20.817,44.8c0.6-0.1,1.1-0.4,1.4-0.9c0.3,0,0.6,0,1-0.1c-0.3,0.4-0.5,0.7-0.7,1
		c-0.6,0.7-1.1,1.3-1.7,2c0-0.1,0-0.2,0-0.3C20.817,46,20.817,45.4,20.817,44.8z M35.317,45.2c0,0-0.1,0-0.2,0
		c5.5-0.2,11,0,16.4,0.5c-0.7,0.6-1.2,1.5-1.6,2.9c-0.1,0-0.1,0-0.1,0.1c-1-0.2-1.9-0.3-2.9-0.4c-0.3,0.1-0.7,0.3-1.1,0.4
		c-0.8,0.4-1.4,0.9-1.8,1.7c-0.1,0.1-0.1,0.1-0.2,0.2c-2-2.1-4.1-3-6.4-2.7c-0.4-0.3-1-0.6-1.9-0.7c0-0.2,0-0.3,0.1-0.4
		C35.817,46.1,35.717,45.6,35.317,45.2z M34.617,56.1c-0.2,0.2-0.3,0.6-0.3,1c1.6,1.9,3.1,1.9,4.5,0c0-0.2-0.1-0.4-0.2-0.6
		c-0.3-0.2-0.5-0.5-0.7-0.7c1.8-0.3,3.6-0.8,5.3-1.4c4.4,2.5,9,3.8,13.7,3.9c0,0.2,0,0.4,0,0.5c0.3,3-1.1,5.1-4.1,6.4l0,0
		c0.1-0.2,0.1-0.4,0.1-0.7c0.1-0.1,0.1-0.2,0.1-0.3c0-0.2-0.1-0.3-0.1-0.4c-0.7-1-1.7-1.5-3.2-1.3c-0.7,0.3-0.9,0.9-0.7,1.8
		c0,0.2,0,0.5,0.1,0.7c0.2,0.2,0.4,0.4,0.7,0.5c-2.6-0.1-4.7-1.2-6.4-3.3c0.3,0.2,0.7,0.3,1,0.3c-0.1,0-0.2-0.1-0.2-0.2
		c-0.4-0.3-0.8-0.5-1.2-0.8c-0.1,0.1-0.1,0.1-0.2,0.1c0.1,0.1,0.1,0.2,0.2,0.3c0.1,0,0.2,0.1,0.3,0.2c-7.3,5.2-12.2,4.2-14.7-3.1
		c0-0.1,0-0.2,0.1-0.3c0.2-1.1,0.5-2.1,1-2.9C31.317,56,33.017,56.1,34.617,56.1z M16.417,53.4c0.2-0.2,0.5-0.4,0.9-0.6
		c1,0.1,2.1,0.2,3,0.4c0.1,0.1,0.2,0.1,0.3,0.1c0.2,0.1,0.3,0.3,0.5,0.5c0,0.1,0,0.2,0.1,0.3c0.2,1.1,0.1,2.2-0.5,3.5
		c-0.1,0.1,0.1,0.4,0.7,0.8c0.5,0.5,2.1,2.3,4.9,5.4c2.6,3,5.7,6.2,9.3,9.5c-0.1,0-0.1,0-0.1,0.1c-0.1,0.2-0.4,0.4-0.7,0.5
		c0,0,0,0,0,0.1c-0.5,0-1,0.1-1.5,0.1c-0.2-0.2-0.5-0.5-0.7-0.7c0-0.2-0.3-0.5-0.6-1c0.6,0.4,1.3,0.8,2,1.1
		c-0.1-0.1-0.2-0.2-0.2-0.3c-4.8-5.3-9.8-10.7-14.8-16c0.3-0.3,0.5-0.6,0.6-1.1c0.1-0.2,0.1-0.5,0.1-0.7c0-0.1-0.1-0.2-0.1-0.4
		c-0.5-0.9-1.3-1.2-2.4-0.9c-0.5,0.1-1,0.4-1.3,1c-0.2,0.4-0.2,0.7-0.1,1c0.1,0.2,0.2,0.3,0.3,0.4c0.5,0.7,1.1,1,1.8,1
		c0.1,0.3,0.3,0.6,0.7,0.9c0.1,0.2,0.3,0.3,0.4,0.4c-0.3,0-0.6,0-0.8,0.1c-0.5,0.3-1.2,0.3-2.2-0.4c-0.1,0-0.2-0.1-0.3-0.2
		c-0.2,0-0.3,0-0.5-0.1c0,0.1,0,0.2,0,0.4c-0.2-0.1-0.3-0.2-0.4-0.2c-0.7-1.3-0.7-2.5,0.2-3.6c0-0.1,0-0.2,0-0.3
		c0.3-0.3,0.7-0.6,1.2-0.9C16.217,53.5,16.317,53.5,16.417,53.4z M1.317,68.8c0-0.2,0-0.3,0.1-0.4c0.1-1.2,0.3-2.3,0.6-3.4
		c0.1-0.1,0.2-0.2,0.3-0.4c0.2-0.1,0.3-0.2,0.4-0.3c12.3,3,21.2,10.1,26.8,21.3c-0.3,0.5-0.5,0.9-0.8,1.3c-0.7,0.3-1.4,0.7-1.9,1.1
		c-1.4,0.1-2.7,0.1-4,0C10.517,87,3.417,80.6,1.317,68.8z M29.817,81.3c0,0.2,0,0.3,0,0.4c0.4,0.1,0.7,0.2,1,0.3
		c1.4,0.2,2.8,0.6,4.1,1.2c0.1,0,0.2,0,0.2,0.1l0,0c0.2,0.1,0.4,0.2,0.6,0.3c0-0.1,0-0.2,0-0.2c0.5,0.1,0.9,0.2,1.4,0.2
		c-2.2,0.6-4.3,1.3-6.3,2.2c0.1-0.6,0.1-1.2,0-1.9c-0.4-0.3-0.7-0.7-0.9-1.1c-0.3-0.8-0.6-1.6-1.1-2.4
		C29.217,80.8,29.517,81.1,29.817,81.3z M56.717,56.9c0.1,0.2,0.1,0.5,0.1,0.8c-5-1.1-9.8-2.6-14.6-4.6c-4.4,1.2-8.5,2-12.4,2.3
		c1.6-2.9,4.3-5,8-6.2c0.6,0,1.2,0,1.8,0c0.2,0.2,0.4,0.3,0.6,0.5c1.1,1,2.2,1.9,3.1,2.6c0.1,0,0.2,0,0.2,0c0.5,0.2,1,0.4,1.4,0.5
		c0.2-0.2,0.4-0.6,0.6-0.9c0.2-0.6,0.5-1.1,0.8-1.5C51.217,50.1,54.717,52.2,56.717,56.9z M42.617,84.5c0.1-0.1,0.3-0.2,0.5-0.3
		c2,0.1,4-0.1,6.1-0.3c0,0,0,0.1,0,0.3c-0.8,0.2-1.7,0.3-2.5,0.4c0,0,0,0,0-0.1c0,0.1-0.1,0.1-0.1,0.1
		C45.217,84.7,43.917,84.7,42.617,84.5z"/>
	<path style="fill:#FFFFFF;" d="M49.917,28.5c-0.9-0.1-1.9-0.2-2.9-0.2c-0.6,0-1.3-0.1-2-0.2V28c-0.2,0-0.4,0-0.6,0
		c-0.6,0-1.2,0.1-1.8,0.1c-0.2,0-0.3,0-0.5,0.1c-0.4,0.1-0.9,0.1-1.3,0.1c-0.5,0.1-1,0.2-1.4,0.3c-0.6,0-1.1,0.2-1.6,0.2
		c-0.1,0.1-0.2,0.1-0.3,0.1c-0.9,0.2-1.8,0.4-2.7,0.7c-1.8,0.5-3.5,1.1-5.3,1.8c-0.2,0.5-0.5,1-0.7,1.5c-0.6,1.1-1,2.3-1.5,3.4
		c-0.1,0.4-0.2,0.8-0.3,1.2c-0.1,0.6-0.3,1.2-0.4,1.8c-0.1,0.3-0.1,0.5-0.1,0.7c-0.1,0.6-0.2,1.1-0.2,1.7s0.1,1.2,0.3,1.7
		c0,0.1,0.1,0.1,0.1,0.2c0.1,0,0.2,0.1,0.3,0.2c0.1,0.1,0.3,0.2,0.4,0.2c0.2,0.1,0.3,0.2,0.4,0.4c9.2-1.4,18.1-1.2,26.8,0.3
		c-0.2-0.7-0.2-1.4-0.1-2.1c0-0.2,0-0.4,0.1-0.7c0.1-0.5,0.2-1.1,0.3-1.7c0.2-0.6,0.3-1.2,0.6-1.8c0.2-0.8,0.5-1.6,0.8-2.4
		c0.5-0.6,0.9-1.2,1.4-1.8c0.2-0.3,0.4-0.6,0.7-0.9c0.1-0.2,0.2-0.3,0.3-0.4c0.5-0.6,0.7-1.3,0.6-2.1c0-0.1,0-0.2-0.1-0.3
		c-0.2-0.4-0.6-0.7-1-1c-0.7-0.4-1.5-0.6-2.5-0.6c-0.2-0.1-0.4-0.1-0.6-0.1c-1.6,0-3.3-0.2-4.9-0.3
		C50.117,28.5,50.017,28.5,49.917,28.5z"/>
	<path style="fill:#BE3689;" d="M35.017,25.3c0.1,0,0.1,0,0.1,0s0,0,0-0.1C35.117,25.2,35.117,25.2,35.017,25.3z"/>
	<path style="fill:#BE3689;" d="M25.317,27.3c0,0,0,0-0.1,0c0.1,0,0.1,0,0.1,0.1C25.317,27.3,25.317,27.3,25.317,27.3z"/>
	<path style="fill:#FFFFFF;" d="M61.017,32.5c-0.1,0.2-0.1,0.3-0.3,0.5c0,0,0,0.1-0.1,0.3c0.1,0,0.1,0,0.2,0.1
		c0.3,0.1,0.7,0.2,1,0.3c0.1,0.1,0.2,0.1,0.3,0.1c-0.1-0.6-0.3-1.1-0.5-1.7c-0.2,0-0.3-0.1-0.4-0.2
		C61.017,32.1,61.017,32.3,61.017,32.5z"/>
	<path style="fill:#FFFFFF;" d="M61.417,38.4c0.1-0.9,0.1-1.8,0-2.7c-0.1-0.1-0.1-0.2-0.1-0.3c-0.1,0.1-0.1,0.2-0.1,0.3
		c-0.1,0.8-0.3,1.6-0.6,2.5c-0.2,0.5-0.5,1.1-0.7,1.7c-0.4,0.7-0.8,1.4-1.3,2.2c-0.1,0.2-0.2,0.4-0.4,0.6c-0.1-0.1-0.2-0.2-0.2-0.3
		c0.1-0.2,0.1-0.4,0.2-0.7c0.1-0.8,0.3-1.7,0.5-2.6c0-0.1,0-0.3,0.1-0.5c0-0.2,0.1-0.5,0.2-0.7c0-0.1,0-0.2,0-0.2
		c0.1-0.6,0.2-1.1,0.4-1.7c0.1-0.2,0.2-0.5,0.2-0.8c0.1-0.1,0.1-0.2,0.1-0.3l-0.3-0.1c-1.7,2.6-2.7,5.5-3.1,8.5c0,0,0,0,0,0.1
		c0,0,0,0.1,0,0.2c-0.1,0.3-0.1,0.5-0.1,0.8c0.4,0.5,0.9,0.5,1.6,0.2c0.1-0.1,0.2-0.2,0.3-0.2c0.4-0.6,0.9-1.1,1.3-1.7
		c0.4-0.5,0.8-1.1,1.2-1.7c0.1-0.1,0.1-0.2,0.1-0.3s0-0.2,0.1-0.3C61.117,39.7,61.217,39,61.417,38.4z"/>
	<path style="fill:#BE3689;" d="M79.617,87.7c-0.8,0.3-1.3,0.9-1.6,1.7c0.7,0.1,1.3-0.1,1.9-0.5c1.4-1.2,3.1-1.8,5.1-2
		c-0.1-0.1-0.2-0.2-0.2-0.2c-0.7-0.2-1.4-0.3-2.1-0.3C81.717,86.7,80.617,87.1,79.617,87.7z"/>
	<path style="fill:#BE3689;" d="M47.317,5.7c1.8-1.8,3.2-3.7,4-5.7c0,0,0,0-0.1,0.1c-1.6,1.1-3.2,2.3-4.9,3.7c0,0.1-0.1,0.2-0.1,0.4
		c-0.1,0.6-0.3,1.2-0.6,1.8c0,0.2,0,0.3,0,0.4c0.3,0.7,0.7,1.3,1.2,1.9c1.7,0.3,3.1,1.1,4.2,2.3c-2.4,0.9-3.9,2.4-4.4,4.5
		c0.4,1.2,1.3,1.7,2.7,1.7c-0.9,0.4-1.5,1.1-1.6,1.8c0.9,0.5,1.8,0.3,2.8-0.7c0-0.1,0.1-0.2,0.2-0.4c0.1-0.3,0.2-0.7,0.1-1.1
		c-1-0.9-1.9-1.6-2.5-2c1.6-1,2.9-2.1,4-3.4c-1-2.2-2.7-3.9-5.1-5C47.217,5.9,47.317,5.8,47.317,5.7z"/>
	<path style="fill:#BE3689;" d="M41.817,1c0,0,0,0-0.1,0c-3.8,1.2-6.2,3.5-7.1,6.9c2.4,1.3,4.2,3,5.5,4.9c-0.1,0.1-0.1,0.2-0.2,0.2
		c-1.6,0.8-2.6,2-2.8,3.5c0.4,0.9,1.1,1.7,2.1,2.3c-0.1,0.1-0.2,0.2-0.3,0.3c-0.4,0.3-0.5,0.7-0.1,1.2c0.3,0,0.6,0,0.8-0.1
		c0.7-0.3,1.1-0.8,1.2-1.7c0-0.1,0-0.2-0.1-0.3c-0.9-0.8-1.5-1.6-1.9-2.3c0.3-0.3,0.6-0.5,1-0.6c1.4-0.8,2.1-2,2-3.5
		c0-0.2-0.1-0.3-0.2-0.3c-1.9-1.6-3.7-3-5.4-4.5c0.1-0.1,0.1-0.2,0.2-0.3C38.517,4.9,40.317,3,41.817,1z"/>
	<path style="fill:#BE3689;" d="M1.517,89.4c0.3,0,0.6-0.1,0.8-0.2c1.9-1,3.9-1.7,6.2-2.3c-0.1-0.1-0.1-0.1-0.2-0.2
		c-0.5-0.1-1-0.1-1.6-0.2c-0.2,0.3-0.5,0.5-1,0.6C3.817,87.6,2.417,88.4,1.517,89.4z"/>
	<path style="fill:#BE3689;" d="M41.017,90.9c0.3,0,0.7-0.1,1-0.2c2.6-0.9,5.2-2,7.7-3c2-0.9,3.4-1.8,4.4-2.7
		c0.7-0.7,1.1-1.4,1.1-2.1c0,0.1,0,0.1,0,0.1c-0.6,0.2-1.2,0.5-1.8,0.8c-0.1,0-0.1,0-0.2,0C48.917,85.8,44.817,88.1,41.017,90.9z"/>
	<g>
		<path style="fill:#BE3689;" d="M38.217,70.3L38.217,70.3c-0.5,0.2-0.9,0.4-1.3,0.7c-0.1,0-0.2,0.1-0.2,0.1c0,0.5,0.1,0.9,0.2,1.4
			c0-0.2,0-0.3,0.1-0.4c0.2-0.1,0.5-0.1,0.7-0.2c3.7,0,7.4,0.2,11.1,0.6c0.1,0.1,0.1,0.2,0.1,0.3c0.1,0.2,0.2,0.5,0.3,0.7
			c0.1,0.3,0.3,0.5,0.4,0.8c0.2,0.2,0.3,0.5,0.5,0.7c0.4,0.3,0.8,0.5,1.3,0.7c0.4,0.2,0.8,0.4,1.2,0.6c0,0.2,0,0.4,0.2,0.5
			c0.2,0.1,0.5,0.1,0.8,0c0.1-0.1,0.2-0.3,0.2-0.5s0-0.3,0-0.4c-0.1-0.2-0.3-0.5-0.5-0.6c-0.7-0.6-1.6-1.2-2.5-1.7
			c0-0.1-0.1-0.2-0.1-0.3c-0.2-0.3-0.3-0.5-0.5-0.8c-0.1-0.2-0.2-0.5-0.4-0.7c-0.1-0.2-0.2-0.2-0.4-0.2
			C45.717,71.3,41.917,70.9,38.217,70.3z"/>
		<path style="fill:#BE3689;" d="M46.117,74.5c1.3-0.5,1.3-1,0.1-1.2c-1.2,0.7-2.8,0.8-4.9,0.1c-0.6-0.3-1.1-0.1-1.5,0.4
			C41.317,75.5,43.417,75.8,46.117,74.5z"/>
	</g>
</g>
</svg>
