<?xml version="1.0" encoding="iso-8859-1"?>
<!-- Generator: Adobe Illustrator 12.0.1, SVG Export Plug-In . SVG Version: 6.00 Build 51448)  -->
<!DOCTYPE svg PUBLIC "-//W3C//DTD SVG 1.1//EN" "http://www.w3.org/Graphics/SVG/1.1/DTD/svg11.dtd" [
	<!ENTITY ns_svg "http://www.w3.org/2000/svg">
	<!ENTITY ns_xlink "http://www.w3.org/1999/xlink">
]>
<svg  version="1.1" id="Layer_1" xmlns="&ns_svg;" xmlns:xlink="&ns_xlink;" width="88.117" height="90.6"
	 viewBox="0 0 88.117 90.6" style="overflow:visible;enable-background:new 0 0 88.117 90.6;" xml:space="preserve">
<g>
	<path style="fill:#BE3689;" d="M88.117,67.7c-0.1-0.1-0.1-0.2-0.2-0.3c-1.9-3.1-4.8-4.5-8.7-4.4c-3,0.4-5.8,1.3-8.5,2.8
		c1.4-5.5,1-10.4-1.1-14.7c0.1,0,0.3,0,0.5,0c1.4-0.9,2.4-2,2.8-3.4c0.7-1.9,0.7-3.7,0.1-5.5c-0.5-0.5-1-0.6-1.6-0.3
		c-0.7,0.4-1.3,0.5-2.1,0.3c-0.1-0.1-0.2-0.2-0.3-0.3c-1.8-1.6-3.8-2.7-6-3.2c0.1-1.1,0.2-2.2,0.3-3.3c-0.1-0.1-0.1-0.1-0.1-0.1
		c0-0.1-0.1-0.2-0.1-0.3c0.1-0.5,0.1-1.1,0-2c-0.1-0.1-0.1-0.2-0.1-0.3c0.6-0.3,1.2-0.6,1.9-1c1.1-0.7,2.1-1.6,2.9-2.6
		c0-0.1,0-0.2,0-0.4c0-0.3,0-0.7,0-1.1s0-0.8-0.1-1.1c0-0.2,0-0.3,0-0.4c-0.1-0.1-0.3-0.2-0.5-0.3c-4.7-1.8-9.5-2.8-14.5-2.8
		c-0.1,0-0.3,0.1-0.5,0.2c-1.8,0.3-3.5,1-5.1,1.9c-0.5,0.4-1,0.7-1.4,1.2v0.1c-0.2,0-0.4,0-0.6,0c0-0.2,0.1-0.3,0.3-0.4
		c-0.6,0.1-1.2,0.1-1.7,0.1c-0.1,0.1-0.1,0.2-0.2,0.2c-0.2,0-0.5,0-0.8,0c-0.6,0.1-1.2,0.2-1.8,0.2l0,0c-0.3,0-0.6,0-1,0
		c-2.6-1.2-5.5-1.5-8.7-1.2c-0.2,0.2-0.4,0.2-0.8,0.3c-0.1,0-0.1,0-0.1,0s0,0-0.1,0c0,0,0,0-0.1,0.1c-0.3,0-0.5,0.2-0.6,0.4
		c-1.7-1.6-3.7-2.2-6.3-1.9c-1.1,0.9-1.4,2.3-1,4.1c0.3,0.9,0.5,1.7,0.6,2.7c0.2,0.1,0.3,0.2,0.4,0.3c0.7,0.6,1.2,1.3,1.7,2
		c0.2,0.2,0.3,0.4,0.4,0.7c0.2,0,0.4,0,0.7,0c-0.2,0.3-0.3,0.5-0.4,0.8c-0.1,0-0.3,0.1-0.4,0.1c0,0.8,0,1.6-0.1,2.3
		c-0.1,0.1-0.3,0.2-0.4,0.2v0.1l-0.2,1.8c0.1-0.1,0.2-0.2,0.4-0.3c-0.2,0.4-0.3,0.8-0.4,1.3c0,0,0,0,0.1,0c-0.1,0.5,0,1,0,1.6
		c-0.1-0.2-0.2-0.4-0.2-0.6c-0.2,0-0.4-0.1-0.6-0.2c-0.3,0.7-0.6,1.3-1,2c0.1-0.1,0.2-0.1,0.4-0.1c-0.3,0.4-0.5,0.7-0.7,1
		c-0.5,0.6-1,1.1-1.5,1.7l-0.2,0.3c0,0,0,0.1-0.1,0.1c-0.1,0.2-0.3,0.4-0.4,0.6c-0.1,0-0.1,0.1-0.1,0.1l0,0
		c-0.1,0.1-0.2,0.2-0.2,0.3c-0.1,0-0.1,0-0.2,0c-0.2-0.1-0.4,0-0.6,0.1c-2.2-1-3.5-2.7-3.9-5c1.3-0.4,3.1-0.7,5.4-0.9
		c0.4-0.7,1-1.3,1.7-1.7c0.9-0.4,1.5-0.9,2.1-1.3l0.2-1.8c-1.9,0.7-3.5,1.9-4.7,3.6c-2.2-0.7-4-0.5-5.4,0.6
		c-0.5,0.7-0.7,1.4-0.5,2.3c0.5,2.5,2,4.5,4.5,5.9c-0.2,0.5-0.5,0.9-0.9,1.3c0,0.2,0,0.3-0.1,0.4c-0.3,0.7-0.5,1.5-0.4,2.4
		c-2.5,0.7-4.4,2.2-5.6,4.5c0,0.6,0,1.2-0.1,1.9c0,0.5,0.1,1,0.2,1.5c0.1,0.1,0.2,0.2,0.4,0.3c0.2,0.3,0.5,0.5,0.7,0.8
		c0.5,0.2,1,0.4,1.4,0.4c-0.2,0.8-0.1,1.5,0.2,2.4c0.1,0.5,0.1,1,0.2,1.5c-3.8-2.1-7.9-3.6-12.4-4.6c-2.8,4.2-3,8.9-0.3,14
		c2.5,5,6,8.6,10.2,10.7c-0.2,0.1-0.5,0.1-0.8,0.2c-2.1,0.3-3.9,1.1-5.3,2.5c0.2,0,0.4,0,0.6-0.1c1.8-1,3.8-1.8,6-2.4
		c0.6,0.3,1.3,0.6,2,0.8c-1.1,0.4-2,1.1-2.8,1.9c0.3,0.5,0.7,0.5,1.5,0.1c0.6-0.4,1.3-0.8,1.9-1.3c0.4-0.1,0.7-0.1,1.1-0.2
		c1.1,0.2,2.3,0.5,3.6,0.6c-0.8,0.4-1.4,0.8-1.9,1.3c0.1,0,0.3,0,0.5,0c1.4-0.3,2.7-0.7,4.1-1.1c0.6,0,1.3,0,2.1-0.1
		c-0.3,0.2-0.6,0.4-0.9,0.6l0.1,0.2c0.6-0.3,1.3-0.6,2-0.9c0.2,0,0.5,0,0.7-0.1c1.7-0.2,3-0.8,3.7-1.8c2.8-1.2,5.6-2.3,8.5-3.3
		c0.2,0.1,0.4,0.2,0.5,0.4c-3.5,1.4-6.6,3.2-9.5,5.5v0.2c3.7-1.6,7.4-3.2,10.9-4.9c0.4,0.2,0.8,0.3,1.2,0.5c-2.8,1-5.1,2.6-6.9,4.7
		c1.2-0.3,2.5-0.7,3.8-1.2c2.7-1.1,4.8-2.1,6.2-3.2c2-0.1,4-0.9,6.2-2.3c-0.1-0.2-0.1-0.2-0.2-0.2c-0.2,0.1-0.5,0.2-0.7,0.3
		c-0.1-0.1-0.1-0.1-0.1-0.2c0.5-0.1,1-0.2,1.5-0.2c0.3-0.2,0.7-0.3,1-0.5c0.1,0,0.2,0,0.2,0c0.9-0.4,1.8-0.7,2.7-0.9
		c-0.2,1.4-0.1,3,0.3,4.6c-3.1,0.8-5.4,2.3-6.9,4.7c0.2-0.1,0.4-0.3,0.7-0.4c1.9-1.6,4-2.8,6.4-3.6c0.2,0.6,0.4,1.3,0.7,2
		c0.2,0,0.3,0.1,0.4,0.1c-0.6,0.4-1.1,0.9-1.5,1.5v0.2c1.5-0.1,2.6-0.5,3.5-1.1c3.3,0.8,6.7,0.6,10.2-0.5c-0.5,0.2-1,0.5-1.4,0.8
		c0.7,0.1,1.5,0.2,2.2,0.2c0,0,0.2,0,0.3-0.1c3.8-1.8,7.4-3.8,10.8-5.9c0,0,0,0-0.1,0.1c-1.5,0.4-3.1,1-4.6,1.5
		C83.017,81.4,86.817,75.5,88.117,67.7z M80.717,65.3c3,0.2,4.8,1.6,5.6,4.3c-0.3,2-1.1,4-2.3,5.7c-6.5,9.6-15.3,13.5-26.4,11.5
		c-0.2-0.1-0.4-0.4-0.5-0.6c0.1,0,0.2,0,0.4-0.1c-0.1-0.1-0.1-0.1-0.2-0.2c-0.1,0-0.3,0-0.5-0.1c-0.3-0.6-0.4-1.2-0.2-1.9
		c0.1-0.9,0.2-1.8,0.4-2.7c0.4-0.6,0.8-1.3,1.2-1.9c2.9-5,7-8.6,12.5-10.6c0,0,0,0,0.1-0.1c2.7-1.8,5.7-2.9,9-3.4
		C80.117,65.3,80.417,65.3,80.717,65.3z M49.417,26.5c-0.1,0-0.2,0-0.2,0.1c-0.1-0.1-0.2-0.1-0.3-0.1c6.1-3,12-2.6,17.7,1.2
		c-0.7,1.7-1.9,2.9-3.7,3.6c-1.7,0.7-3.2,0.7-4.4-0.1c0-0.3,0-0.7,0-1.1c0-0.5,0-1,0.1-1.5c0-0.1,0-0.3,0.1-0.4
		c0.1-0.1,0.2-0.1,0.3-0.1c-0.1-0.1-0.2-0.1-0.2-0.1c-0.1,0-0.1,0-0.1-0.1c-0.1-0.7-0.3-1.1-0.8-1.4c-0.2,0-0.4,0-0.7,0
		c-0.1,0.2-0.2,0.5-0.3,0.8c-1.3-0.3-2.7-0.4-4.2-0.3h-0.1c-0.1,0-0.2,0-0.3,0C51.317,26.8,50.317,26.6,49.417,26.5z M47.017,28.5
		c1,0,2,0.1,2.9,0.2c0.1,0,0.2,0,0.3,0c1.5,0.1,3.1,0.3,4.7,0.3c-0.1,0-0.1-0.1-0.1-0.2c0.1-0.1,0.1-0.3,0.2-0.5
		c0.6,0.2,1.2,0.2,1.9,0.2c0.1,0.4,0.1,0.9,0.1,1.3c0,0.6,0,1.1,0,1.7c0,0.1,0,0.3,0,0.6c0,0.1,0,0.2,0,0.4c0,0.1,0.1,0.2,0.1,0.3
		c0.2,0.1,0.4,0.3,0.6,0.4c0.2,0.2,0.4,0.3,0.6,0.4c-0.2,0.2-0.4,0.5-0.6,0.8c-0.5,0.6-0.9,1.2-1.4,1.8c-0.3,0.8-0.6,1.6-0.8,2.4
		c-0.3,0.6-0.4,1.2-0.6,1.8c-0.1,0.6-0.2,1.2-0.3,1.7c-0.1,0.3-0.1,0.5-0.1,0.7c-0.1,0.7-0.1,1.4,0.1,2.1
		c-8.7-1.5-17.6-1.7-26.8-0.3c-0.1-0.2-0.2-0.3-0.4-0.4c-0.1,0-0.3-0.1-0.4-0.2c-0.1-0.1-0.2-0.2-0.3-0.2c0-0.1-0.1-0.1-0.1-0.2
		c-0.2-0.5-0.3-1.1-0.3-1.7s0.1-1.1,0.2-1.7c0-0.2,0-0.4,0.1-0.7c0.1-0.6,0.3-1.2,0.4-1.8c0.1-0.4,0.2-0.8,0.3-1.2
		c0.5-1.1,0.9-2.3,1.5-3.4c0.2-0.5,0.5-1,0.7-1.5c1.8-0.7,3.5-1.3,5.3-1.8c0.9-0.3,1.8-0.5,2.7-0.7c0.1,0,0.2,0,0.3-0.1
		c0.5,0,1-0.2,1.6-0.2c0.4-0.1,0.9-0.2,1.4-0.3c0.4,0,0.9,0,1.3-0.1c0.2-0.1,0.3-0.1,0.5-0.1c0.6,0,1.2-0.1,1.8-0.1
		c0.2,0,0.4,0,0.6,0c0.1,0,0.1,0,0.2,0c0,0-0.1,0.1-0.2,0.1C45.717,28.4,46.417,28.5,47.017,28.5z M62.117,34c-0.1,0-0.2,0-0.3-0.1
		c-0.3-0.1-0.7-0.2-1-0.3c-0.1-0.1-0.1-0.1-0.2-0.1c0-0.1,0-0.1,0.1-0.1c0.4-0.1,0.8-0.2,1.2-0.3C62.017,33.4,62.017,33.7,62.117,34
		z M61.417,35.9c0.1,0.9,0.1,1.8,0,2.7c-0.2,0.6-0.3,1.3-0.6,2c-0.1,0.1-0.1,0.2-0.1,0.3s0,0.2-0.1,0.3c-0.4,0.6-0.8,1.2-1.2,1.7
		c-0.4,0.6-0.9,1.1-1.3,1.7c-0.1,0-0.2,0.1-0.3,0.2c-0.7,0.3-1.2,0.3-1.6-0.2c0-0.3,0-0.5,0.1-0.8c0-0.1,0-0.2,0-0.2
		c0-0.1,0-0.1,0-0.1c0.4-3,1.4-5.9,3.1-8.5c0.2-0.3,0.3-0.4,0.4-0.2c-0.1,0.1-0.1,0.1-0.1,0.2c-0.1-0.1-0.2-0.1-0.3,0l0.3,0.1
		c0,0.1,0,0.2-0.1,0.3c0,0.3-0.1,0.6-0.2,0.8c-0.2,0.6-0.3,1.1-0.4,1.7c0,0,0,0.1,0,0.2c-0.1,0.2-0.2,0.5-0.2,0.7
		c-0.1,0.2-0.1,0.4-0.1,0.5c-0.2,0.9-0.4,1.8-0.5,2.6c-0.1,0.3-0.1,0.5-0.2,0.7c0,0.1,0.1,0.2,0.2,0.3c0.2-0.2,0.3-0.4,0.4-0.6
		c0.5-0.8,0.9-1.5,1.3-2.2c0.2-0.6,0.5-1.2,0.7-1.7c0.3-0.9,0.5-1.7,0.6-2.5c0-0.1,0-0.2,0.1-0.3
		C61.317,35.7,61.317,35.8,61.417,35.9z M62.717,40c0-0.1,0.2-0.2,0.2-0.2c0.9,0.7,1.9,1.4,3,2c0.6,0.5,1.3,1.1,2.2,1.6
		c0.1,0.5,0.6,0.9,1.5,1.1c0-0.1,0-0.1,0-0.1s0.1,0,0.1,0.1c0-0.2,0-0.3-0.1-0.4c0-0.1-0.1-0.3-0.2-0.5c-0.1-0.2-0.2-0.3-0.2-0.5
		c0.9,0.3,1.8,0.5,2.8,0.6c0,0.9-0.2,1.6-0.4,2.4c-0.6,1.5-1.4,2.8-2.6,3.9c-1.4-2.5-3.4-4.7-6-6.7c0.2-0.1,0.5-0.1,0.8-0.1
		c-0.4-0.3-0.8-0.7-1.1-1.1c-0.2-0.1-0.4-0.1-0.5-0.1c-0.2,0-0.5,0-0.6,0.1c0.3-0.6,0.6-1.1,0.9-1.6c0,0,0.1,0,0.2,0.1
		C62.717,40.4,62.717,40.2,62.717,40z M60.417,44.4c0.3,0.1,0.8,0.2,1.2,0.3c1,0.8,2,1.7,3,2.7c4.3,4.3,6.1,9.2,5.3,14.8
		c-0.2,1.6-0.7,3.3-1.3,4.9c-1.9,1.1-3.8,2.4-5.6,3.6c-4,2.9-6.4,6-7.2,9.5c-1.1,0.4-2.2,0.8-3.3,1c-0.1,0.1-0.2,0.1-0.3,0.1
		c-4,1-8.6,1-13.9,0.2c-2.7-0.4-5.1-1-7.5-1.8c-0.6-0.4-1.3-0.6-2.1-0.7l-0.2,0.1c-0.1,0-0.1-0.2-0.2-0.2c-0.2-0.5-0.5-0.9-0.6-1.4
		c-0.1-0.2-0.2-0.3-0.4-0.4c-3.4-4.2-7.2-7.5-11.5-10.1c-0.1-0.8-0.2-1.6-0.1-2.4c0.2-0.6,0.3-1.3,0.4-2.1c0-0.1,0-0.1,0-0.1l0,0
		c0.1,0,0.2,0,0.2,0.1c0.5-0.1,0.9-0.3,1.4-0.5l0,0c3.9,3.6,8,6.8,12.4,9.5c-0.3,0.1-0.5,0.1-0.8,0.1c-0.2,0.1-0.4,0.1-0.6,0.2
		c-0.5,0.2-0.8,0.6-0.9,1.2c0,0.2,0,0.5,0,0.7c-0.1,0.3-0.1,0.5,0,0.7c0,0.1,0,0.2,0,0.3c0.1,0.2,0.2,0.4,0.3,0.5
		c0,0.3,0.1,0.6,0.2,0.9c0,0.2,0.2,0.3,0.4,0.4c0.1-0.1,0.1-0.1,0.1-0.1c-0.2-0.3-0.4-0.7-0.6-1.1c0.3,0.3,0.6,0.4,1,0.5
		c0.1,0,0.1-0.1,0.1-0.1c0.2-0.4,0-0.7-0.5-1c0-0.1-0.1-0.2-0.1-0.4c0,0,0,0,0-0.1c0.1,0,0.1-0.1,0.1-0.2c0.2-0.3,0.3-0.5,0.5-0.7
		c0.1-0.2,0.3-0.3,0.4-0.5c1.1,0.1,2.1,0.5,3,1.3c1,0.7,2,0.8,3,0.2c0.3-0.2,0.6-0.4,0.9-0.7c0.4-0.3,0.7-0.7,0.9-1.1
		c0.2-0.3,0.3-0.5,0.5-0.8c0.1-0.1,0.2-0.2,0.3-0.4c0.1,0,0.2,0,0.3,0c-0.1-0.2-0.1-0.3,0-0.5c3.4,0,6.9,0.2,10.4,0.6
		c0.1,0.1,0.1,0.2,0.1,0.3c0.1,0.2,0.2,0.5,0.3,0.7c0.1,0.3,0.3,0.5,0.4,0.8c0.2,0.2,0.3,0.5,0.5,0.7c0.4,0.3,0.8,0.5,1.3,0.7
		c0.4,0.2,0.8,0.4,1.2,0.6c0,0.2,0,0.4,0.2,0.5c0.2,0.1,0.5,0.1,0.8,0c0.1-0.1,0.2-0.3,0.2-0.5c0-0.2,0-0.3,0-0.4
		c-0.1-0.2-0.3-0.5-0.5-0.6c-0.7-0.6-1.6-1.2-2.5-1.7c0-0.1-0.1-0.2-0.1-0.3c-0.2-0.3-0.3-0.5-0.5-0.8c-0.1-0.2-0.2-0.5-0.4-0.7
		c-0.1-0.2-0.2-0.2-0.4-0.2c-3.5-0.3-7.1-0.7-10.6-1.2c0.1-0.1,0.1-0.1,0.1-0.1c-0.1,0-0.2,0-0.4,0c-0.1,0-0.2,0-0.3,0l0,0
		c-0.5,0.2-0.9,0.4-1.3,0.7c-0.1,0-0.2,0.1-0.2,0.1c0,0.1,0,0.2,0,0.4c-0.1,0-0.2,0.1-0.3,0.2c-0.2,0.3-0.4,0.6-0.6,0.8
		c-4.7-4.7-9.6-8.8-14.9-12.4c0,0,0-0.1,0.1-0.1c0.3-0.8,0.5-1.5,0.6-2.4c0.1-0.5,0-0.9-0.2-1.3c-0.3-0.7-0.9-1.3-1.6-1.7
		c-0.4-0.1-0.8-0.2-1.2-0.3c-0.1-0.1-0.2-0.1-0.3-0.1c0.4-1.2,0.9-2.3,1.2-3.3c0.1,0,0.1,0,0.1,0c0.2-0.4,0.4-0.8,0.7-1.1
		c0.1-0.1,0.2-0.1,0.3-0.1c0-0.1,0-0.2-0.1-0.3c1.2-1.8,2.5-3.4,4-4.9l0.1-0.1c0.4,0.8,0.7,1.4,1.2,2.1c0,0,0.1,0,0.2,0.1
		s0.3,0.2,0.4,0.3c1.5-0.1,3-0.2,4.5-0.3c0.1,0,0.1,0,0.1,0c0.1,0,0.4,0,0.5,0s0.3,0,0.5,0c0.9-0.1,1.8-0.1,2.7-0.1
		c-0.1,0-0.2,0.1-0.3,0.2c0.4,0.1,0.7,0.1,1,0.2c-0.1-0.2-0.2-0.3-0.3-0.4c0,0-0.1,0-0.2,0c5.5-0.2,11,0,16.4,0.5
		c-0.2,0.2-0.4,0.3-0.5,0.6c-0.5,0.5-0.9,1.3-1.1,2.3c-0.1,0-0.1,0-0.1,0.1c-1-0.2-1.9-0.3-2.9-0.4c-0.3,0.1-0.7,0.3-1.1,0.4
		c-0.8,0.4-1.4,0.9-1.8,1.7c-0.1,0.1-0.1,0.1-0.2,0.2c-2-2.1-4.1-3-6.4-2.7c-0.4-0.3-1-0.6-1.9-0.7c0-0.2,0-0.3,0.1-0.4
		c0-0.3,0.1-0.5,0.1-0.7c0-0.1,0-0.2,0-0.2c-0.1-0.1-0.1-0.2-0.1-0.3c-0.4,0.1-0.7,0.1-1,0.1c-0.1,0-0.1,0.1-0.1,0.1
		c0,0.1,0,0.1,0,0.2c-0.1,0.7-0.1,1.4,0.2,2.1c0.2,0.2,0.4,0.3,0.6,0.5c-0.3,0.1-0.7,0.3-1,0.5c-0.7-0.2-1.3-0.6-2-0.9
		c0-0.2,0-0.3,0-0.4c0.1-0.4,0-0.8-0.2-1.2c-0.3,0.1-0.3,0.1-0.4,0.2c-0.5,0.8-0.5,1.5-0.1,2.2c0.4,0.4,0.9,0.8,1.4,1
		c-0.2,0.1-0.3,0.2-0.5,0.3c-1,0-1.8-0.5-2.5-1.5c-0.4-0.1-0.7,0-0.7,0.4c-0.1,0.9,0.4,1.5,1.4,1.9c0.2,0.1,0.4,0.2,0.6,0.2
		c-4.8,4.4-5.1,9.2-0.8,14.4c0.9,0.3,1.8,0.6,2.8,0.9c3.5,0.6,6.8-0.1,9.9-2.2c2.3,2.5,5.3,3.2,8.9,2.2c5.6-1.6,7.6-5.1,6.3-10.5
		c-0.2-0.1-0.2-0.3-0.3-0.4c-0.7-1.6-1.6-2.9-2.7-4c0.2,0,0.4-0.1,0.6-0.2c0.1-0.1,0.3-0.2,0.4-0.3c1-0.8,1.2-1.7,0.6-2.6h-0.1
		c-0.7,1-1.7,1.6-2.9,2c-0.3-0.3-0.7-0.5-1-0.7c0.4-0.4,0.9-0.8,1.4-1.3c0-0.1,0-0.2,0-0.4c0-0.3,0.1-0.6,0-0.9
		c-0.2-0.1-0.4-0.2-0.7-0.2c-0.4,1.2-1.3,1.9-2.4,2c-0.1,0-0.1,0-0.1,0c0-0.1,0-0.1,0.1-0.2c0.4-0.8,0.6-1.6,0.6-2.4
		c0-0.2,0-0.5,0-0.7c1,0.1,2,0.2,3.1,0.3c0,0.1,0.1,0.1,0.2,0.1c1.2,0,2.3-0.1,3.5-0.2c0.3-0.3,0.5-0.6,0.9-0.9c0.1,0,0.2,0,0.4,0.1
		C60.117,45,60.217,44.7,60.417,44.4z M30.517,27.5c0,0,0,0,0-0.1s0.1-0.1,0.2-0.1s0.1-0.1,0.1-0.1c1.7,0,3.2,0,4.6,0
		c-0.1,0.1-0.3,0.1-0.5,0.1c0,0,0,0,0,0.1c0.1,0,0.2,0,0.3,0.1c-0.2,0-0.3,0-0.4,0c0,0.1,0,0.2-0.1,0.2c-1.5,0.7-3,1.3-4.4,1.8
		c-0.4,0.2-0.7,0.5-1.1,0.7c0.1-0.2,0.1-0.3,0.1-0.5c-0.5,0.2-1.1,0.4-1.7,0.5c-0.3,0.4-0.6,0.8-1,1c0.2,0,0.3,0,0.5,0
		c0.1,0.3,0.1,0.6,0.1,0.9c-0.2,0.2-0.4,0.5-0.6,0.8c-0.4-0.6-0.9-1.3-1.5-1.9c-0.3-0.4-0.7-0.8-1.3-1.3c0.2-0.6,0.1-1.2-0.2-1.6
		c-0.2-0.4-0.3-0.9-0.3-1.4c0-0.1,0-0.2,0-0.4c0.8-0.1,1.5-0.2,2.3-0.2c0.5,0,1,0.1,1.5,0.2c0.4,0.4,0.8,0.8,1.3,1
		c-0.1,0.3-0.1,0.6,0.1,0.9c0.3,0,0.6-0.1,0.7-0.2s0.3-0.2,0.4-0.3c0.1,0,0.1,0,0.2,0C30.017,27.8,30.217,27.7,30.517,27.5z
		 M34.617,56.3c0,0,0,0-0.1,0.1c1.3-0.4,2.7-0.6,4.1-0.6c1.6-0.2,3.1-0.7,4.6-1.2c1.4,0.7,2.8,1.4,4.2,2c-0.2,0.2-0.4,0.4-0.5,0.8
		c-0.2,1-0.1,1.6,0.6,2.2c0.5,0.1,1.1,0.3,1.7,0.5c0.3-0.2,0.5-0.4,0.7-0.7c0.1-0.2,0.3-0.4,0.4-0.7c0.1-0.3,0-0.7-0.2-1
		c-0.1-0.1-0.2-0.2-0.3-0.3c2.3,0.7,4.7,1.1,7.1,1.1c0,0.2,0,0.4,0,0.5c0.3,3-1.1,5.1-4.1,6.4l0,0c0-0.2,0.1-0.4,0.1-0.5
		c-0.1,0-0.2,0.1-0.3,0.2c-0.5,0.1-0.9,0.1-1.2,0.2c-0.1,0-0.1,0-0.2,0h-0.1c-0.7,0.3-1.2,0.4-1.7,0.2c0.1,0.1,0.2,0.2,0.4,0.2
		c-2.6-0.1-4.7-1.2-6.4-3.3c0.3,0.2,0.7,0.3,1,0.3c-0.1,0-0.2-0.1-0.2-0.2c-0.4-0.3-0.8-0.5-1.2-0.8c-0.1,0.1-0.1,0.1-0.2,0.1
		c0.1,0.1,0.1,0.2,0.2,0.3c0.1,0,0.2,0.1,0.3,0.2c-1.3,0.8-2.4,1.5-3.5,2.1c0.1-0.4,0.1-0.7,0.1-1.2c-0.1-0.1-0.1-0.2-0.1-0.3
		c-0.1-0.2-0.2-0.2-0.4-0.3c-0.9-0.1-1.8-0.2-2.7-0.2c-0.6,0.3-0.8,1-0.5,1.9c0,0.3,0.1,0.5,0.3,0.8c0.1,0.1,0.2,0.2,0.4,0.3
		c-3.9,0.8-6.7-1.3-8.3-6.2c0-0.1,0-0.2,0.1-0.3c0.2-1.1,0.5-2.1,1-2.9C31.317,56.2,33.017,56.3,34.617,56.3z M18.817,57.4
		c-0.1-0.2-0.2-0.3-0.4-0.4c-0.7-0.7-1.6-0.9-2.7-0.7c-0.5,0.3-0.9,0.7-1.1,1.4c-0.1,0.8,0,1.4,0.4,1.9c0.1,0.1,0.2,0.2,0.4,0.3
		c0.7,0.1,1.5,0.1,2.3,0.2c0.2,0.1,0.4,0.3,0.6,0.4c5.2,4.6,10.5,8.5,15.9,11.8c-2.4-2.6-5.2-5.1-8.5-7.5c-2.2-1.6-4.1-3.4-5.4-5.3
		c0.2,0,0.4,0,0.5-0.1c4.5,4.7,9.5,8.8,14.9,12.3c-0.2,0.3-0.4,0.5-0.6,0.7c-0.2,0.3-0.4,0.5-0.6,0.7c-0.5-0.2-0.9-0.4-1.3-0.5
		c-0.4-0.3-0.9-0.5-1.4-0.8c-0.1-0.1-0.2-0.2-0.3-0.3c-0.1,0-0.1,0-0.1,0c-4.2-3.5-8.6-6.7-13.2-9.7c0-0.1,0-0.1,0-0.1l0.1-0.2
		c-0.1,0-0.1,0-0.1,0l0,0h-0.1c-0.3-0.1-0.5-0.1-0.7-0.1c0-0.1,0-0.1-0.1-0.2h-0.1c-0.7-0.1-1.3-0.3-2-0.3l0,0
		c-0.9-0.3-1.6-0.7-2.4-1.2c1-4.3,3.4-5.6,7.3-4c0,0.6-0.1,1.2-0.3,1.7c-0.2,0.4-0.3,0.7-0.3,1.1
		C19.317,58.1,19.017,57.7,18.817,57.4z M1.317,68c0-0.2,0-0.3,0.1-0.4c0.1-1.2,0.3-2.3,0.6-3.4c0.1-0.1,0.2-0.2,0.3-0.4
		c0.2-0.1,0.3-0.2,0.4-0.3c12.3,3,21.2,10.1,26.8,21.3c-0.3,0.5-0.5,0.9-0.8,1.3c-0.7,0.3-1.4,0.7-1.9,1.1c-1.4,0.1-2.7,0.1-4,0
		C10.517,86.2,3.417,79.8,1.317,68z M29.917,82c-0.3-0.8-0.6-1.6-1.1-2.4c0.4,0.4,0.7,0.7,1,0.9c0,0.2,0,0.3,0,0.4
		c0.4,0.1,0.7,0.2,1,0.3c1.4,0.2,2.8,0.6,4.1,1.2c0.1,0,0.2,0,0.2,0.1l0,0c0.2,0.1,0.4,0.2,0.6,0.3c0-0.1,0-0.2,0-0.2
		c0.5,0.1,0.9,0.2,1.4,0.2c-2.2,0.6-4.3,1.3-6.3,2.2c0.1-0.6,0.1-1.2,0-1.9C30.417,82.8,30.117,82.4,29.917,82z M56.717,57.1
		c0.1,0.3,0.1,0.5,0.1,0.8c-5-1.1-9.8-2.6-14.6-4.6c-4.4,1.2-8.5,2-12.4,2.3c1.6-2.9,4.3-5,8-6.2c0.6,0,1.2,0,1.8,0
		c0.2,0.2,0.4,0.3,0.6,0.5c1.1,1,2.2,1.9,3.1,2.6c0.1,0,0.2,0,0.2,0c0.5,0.2,1,0.4,1.4,0.5c0.2-0.2,0.4-0.6,0.6-0.9
		c0.2-0.6,0.5-1.1,0.8-1.5C51.217,50.3,54.717,52.4,56.717,57.1z M42.617,83.7c0.1-0.1,0.3-0.2,0.5-0.3c2,0.1,4-0.1,6.1-0.3
		c0,0,0,0.1,0,0.3c-0.8,0.2-1.7,0.3-2.5,0.4c0,0,0,0,0-0.1c0,0.1-0.1,0.1-0.1,0.1C45.217,83.9,43.917,83.9,42.617,83.7z"/>
	<path style="fill:#BE3689;" d="M57.617,26.1c0.1,0,0.3,0,0.4,0.1c0.2,0,0.4,0.1,0.5,0.1c-0.1-0.1-0.3-0.3-0.5-0.3
		c-0.2-0.1-0.3-0.1-0.5-0.1C57.517,26,57.517,26,57.617,26.1z"/>
	<path style="fill:#FFFFFF;" d="M49.917,28.7c-0.9-0.1-1.9-0.2-2.9-0.2c-0.6,0-1.3-0.1-2-0.2v-0.1c-0.2,0-0.4,0-0.6,0
		c-0.6,0-1.2,0.1-1.8,0.1c-0.2,0-0.3,0-0.5,0.1c-0.4,0.1-0.9,0.1-1.3,0.1c-0.5,0.1-1,0.2-1.4,0.3c-0.6,0-1.1,0.2-1.6,0.2
		c-0.1,0.1-0.2,0.1-0.3,0.1c-0.9,0.2-1.8,0.4-2.7,0.7c-1.8,0.5-3.5,1.1-5.3,1.8c-0.2,0.5-0.5,1-0.7,1.5c-0.6,1.1-1,2.3-1.5,3.4
		c-0.1,0.4-0.2,0.8-0.3,1.2c-0.1,0.6-0.3,1.2-0.4,1.8c-0.1,0.3-0.1,0.5-0.1,0.7c-0.1,0.6-0.2,1.1-0.2,1.7s0.1,1.2,0.3,1.7
		c0,0.1,0.1,0.1,0.1,0.2c0.1,0,0.2,0.1,0.3,0.2c0.1,0.1,0.3,0.2,0.4,0.2c0.2,0.1,0.3,0.2,0.4,0.4c9.2-1.4,18.1-1.2,26.8,0.3
		c-0.2-0.7-0.2-1.4-0.1-2.1c0-0.2,0-0.4,0.1-0.7c0.1-0.5,0.2-1.1,0.3-1.7c0.2-0.6,0.3-1.2,0.6-1.8c0.2-0.8,0.5-1.6,0.8-2.4
		c0.5-0.6,0.9-1.2,1.4-1.8c0.2-0.3,0.4-0.6,0.6-0.8c-0.2-0.1-0.4-0.2-0.6-0.4c-0.2-0.1-0.4-0.3-0.6-0.4c0-0.1-0.1-0.2-0.1-0.3
		c0-0.2,0-0.3,0-0.4c0-0.3,0-0.5,0-0.6c-0.3-0.2-0.6-0.3-0.9-0.4c-0.7-0.6-1.1-1.3-1.2-2.1c-1.6,0-3.2-0.2-4.7-0.3
		C50.117,28.7,50.017,28.7,49.917,28.7z"/>
	<path style="fill:#FFFFFF;" d="M61.817,33.9c0.1,0.1,0.2,0.1,0.3,0.1c-0.1-0.3-0.1-0.6-0.2-0.9c-0.4,0.1-0.8,0.2-1.2,0.3
		c-0.1,0-0.1,0-0.1,0.1c0.1,0,0.1,0,0.2,0.1C61.117,33.7,61.517,33.8,61.817,33.9z"/>
	<path style="fill:#FFFFFF;" d="M61.417,38.6c0.1-0.9,0.1-1.8,0-2.7c-0.1-0.1-0.1-0.2-0.1-0.3c-0.1,0.1-0.1,0.2-0.1,0.3
		c-0.1,0.8-0.3,1.6-0.6,2.5c-0.2,0.5-0.5,1.1-0.7,1.7c-0.4,0.7-0.8,1.4-1.3,2.2c-0.1,0.2-0.2,0.4-0.4,0.6c-0.1-0.1-0.2-0.2-0.2-0.3
		c0.1-0.2,0.1-0.4,0.2-0.7c0.1-0.8,0.3-1.7,0.5-2.6c0-0.1,0-0.3,0.1-0.5c0-0.2,0.1-0.5,0.2-0.7c0-0.1,0-0.2,0-0.2
		c0.1-0.6,0.2-1.1,0.4-1.7c0.1-0.2,0.2-0.5,0.2-0.8c0.1-0.1,0.1-0.2,0.1-0.3l-0.3-0.1c-1.7,2.6-2.7,5.5-3.1,8.5c0,0,0,0,0,0.1
		c0,0,0,0.1,0,0.2c-0.1,0.3-0.1,0.5-0.1,0.8c0.4,0.5,0.9,0.5,1.6,0.2c0.1-0.1,0.2-0.2,0.3-0.2c0.4-0.6,0.9-1.1,1.3-1.7
		c0.4-0.5,0.8-1.1,1.2-1.7c0.1-0.1,0.1-0.2,0.1-0.3s0-0.2,0.1-0.3C61.117,39.9,61.217,39.2,61.417,38.6z"/>
	<path style="fill:#BE3689;" d="M31.717,46.5c-0.1,0-0.4,0-0.5,0c0,0,0,0-0.1,0c0.4,0,0.7,0,1.1,0
		C32.017,46.5,31.817,46.5,31.717,46.5z"/>
	<path style="fill:#BE3689;" d="M54.417,46.5c0-0.1,0-0.1,0-0.1l-0.7-0.2v0.1C54.017,46.3,54.217,46.4,54.417,46.5z"/>
	<path style="fill:#BE3689;" d="M53.717,47.2l0.7,0.2c0-0.3-0.1-0.6-0.3-0.8h-0.2C53.917,46.8,53.817,47,53.717,47.2z"/>
	<path style="fill:#BE3689;" d="M46.317,73.4c1.3-0.5,1.3-1,0.1-1.2c-1.2,0.7-2.8,0.8-4.9,0.1c-0.6-0.3-1.1-0.1-1.5,0.4
		C41.517,74.4,43.617,74.7,46.317,73.4z"/>
	<path style="fill:#BE3689;" d="M79.917,88.1c1.4-1.2,3.1-1.8,5.1-2c-0.1-0.1-0.2-0.2-0.2-0.2c-0.7-0.2-1.4-0.3-2.1-0.3
		c-1,0.3-2.1,0.7-3.1,1.3c-0.8,0.3-1.3,0.9-1.6,1.7C78.717,88.7,79.317,88.5,79.917,88.1z"/>
	<path style="fill:#BE3689;" d="M50.517,7.2c0.9-3.5-0.6-5.9-4.5-7.2h-0.4c1.5,1.7,2.8,3.7,3.9,6.1c-0.1,0.1-0.2,0.2-0.3,0.3
		c-1.4,1-2.7,2.1-3.7,3.4c-0.1,0.4-0.1,0.8-0.1,1.2s0.2,0.8,0.6,1.1c0.5,0.2,1,0.4,1.6,0.6c0.3,0.4,0.6,0.7,1,1
		c0.3,0.4,0.4,0.7,0.4,1.1c0,0.2-0.1,0.3-0.1,0.3c-1,1.1-2.1,2-3.4,2.7c0,0.4,0,0.8,0,1.2c0,0.2,0,0.5,0,0.7
		c0.4,0.2,0.8,0.3,1.2,0.3c0.2,0,0.4-0.1,0.5-0.3c0-0.2,0-0.4,0.1-0.5c1.2-1,2.2-2.1,3.2-3.2c-0.1-0.4-0.1-0.8,0-1.1
		c0-0.4,0-0.8-0.3-1.2c-0.2-0.2-0.4-0.5-0.5-0.8c-0.4-0.5-0.8-1-1.2-1.4c-0.4-0.1-0.8-0.3-1.1-0.4c-0.2-0.1-0.3-0.3-0.4-0.5
		c0-0.1,0-0.2,0.1-0.3c1.1-0.9,2.2-1.9,3.4-2.7C50.517,7.5,50.517,7.4,50.517,7.2z"/>
	<path style="fill:#BE3689;" d="M36.317,0.7c-0.2-0.1-0.4,0-0.4,0.3c0,0.6,0.3,1.1,1.1,1.2c0,0.2,0.1,0.3,0.2,0.4
		c0.6,1,1.3,1.8,2.1,2.6c0,0.3,0,0.5,0.1,0.8c0,0.4-0.1,0.8-0.3,1.1c-0.2,0.1-0.3,0.2-0.4,0.4c-0.9,0.8-1.7,1.6-2.4,2.6
		c0,0.2,0,0.5,0,0.7c0,0.5,0,1,0,1.5c0.1,0.2,0.1,0.2,0.2,0.3c1,0.5,2,1.2,2.8,2c0,0.1,0.1,0.2,0.1,0.3c0.6,0.8,0.7,1.4,0.4,1.9
		c-0.2,0.2-0.4,0.3-0.6,0.4c-0.4,0.1-0.8,0.4-1.1,0.6c-0.2,0.2-0.3,0.3-0.3,0.5c-0.2,0.3-0.2,0.7-0.2,1c0.1,0.4,0.3,0.7,0.5,0.9
		c0.1,0.2,0.3,0.3,0.6,0.4c0.2,0,0.4,0,0.7,0c0.3-0.1,0.6-0.3,1.1-0.5c-0.9-0.6-1.2-1.1-1-1.5c0.2-0.1,0.4-0.3,0.6-0.4
		c0.6-0.5,0.9-1.1,1-1.9c0-0.1-0.1-0.2-0.1-0.3c-1.2-1.8-2.5-3.4-3.9-4.8c0-0.1,0-0.2,0.1-0.3c0.9-1.3,1.9-2.6,2.9-3.8
		c0-0.4,0-0.8,0-1.1c0-0.5,0-1,0-1.5c-0.2-0.2-0.3-0.3-0.4-0.4C38.617,2.9,37.517,1.8,36.317,0.7z"/>
	<path style="fill:#BE3689;" d="M39.417,21.6c-0.3,0-0.5,0-0.7,0c0.1,0,0.3,0,0.4,0C39.217,21.6,39.317,21.6,39.417,21.6z"/>
	<path style="fill:#BE3689;" d="M11.817,47.2c-0.2,0-0.3,0-0.3,0.2c-0.3,1.4-0.1,2.9,0.6,4.3c0.5,1,1,1.2,1.6,0.8
		c0-0.2,0-0.3-0.1-0.4C13.417,50.4,12.817,48.8,11.817,47.2z"/>
	<path style="fill:#BE3689;" d="M6.017,52h-0.4c0.2,2.1,1.9,2.9,5.1,2.5c-0.1-0.2-0.2-0.3-0.3-0.3C9.017,53.5,7.517,52.7,6.017,52z"
		/>
	<path style="fill:#BE3689;" d="M9.917,58.3c-1.4-0.2-2.8-0.4-4.2-0.4c-0.4,0-0.5,0-0.5,0.1c1.5,1.7,3.2,1.9,5,0.5
		C10.117,58.4,10.017,58.3,9.917,58.3z"/>
	<path style="fill:#BE3689;" d="M1.517,88.6c0.3,0,0.6-0.1,0.8-0.2c1.9-1,3.9-1.7,6.2-2.3c-0.1-0.1-0.1-0.1-0.2-0.2
		c-0.5-0.1-1-0.1-1.6-0.2c-0.2,0.3-0.5,0.5-1,0.6C3.817,86.8,2.417,87.6,1.517,88.6z"/>
	<path style="fill:#BE3689;" d="M41.017,90.1c0.3,0,0.7-0.1,1-0.2c2.6-0.9,5.2-2,7.7-3c2-0.9,3.4-1.8,4.4-2.7
		c0.7-0.7,1.1-1.4,1.1-2.1c0,0.1,0,0.1,0,0.1c-0.6,0.2-1.2,0.5-1.8,0.8c-0.1,0-0.1,0-0.2,0C48.917,85,44.817,87.3,41.017,90.1z"/>
</g>
</svg>
