<?xml version="1.0" encoding="iso-8859-1"?>
<!-- Generator: Adobe Illustrator 12.0.1, SVG Export Plug-In . SVG Version: 6.00 Build 51448)  -->
<!DOCTYPE svg PUBLIC "-//W3C//DTD SVG 1.1//EN" "http://www.w3.org/Graphics/SVG/1.1/DTD/svg11.dtd" [
	<!ENTITY ns_svg "http://www.w3.org/2000/svg">
	<!ENTITY ns_xlink "http://www.w3.org/1999/xlink">
]>
<svg  version="1.1" id="Layer_1" xmlns="&ns_svg;" xmlns:xlink="&ns_xlink;" width="90.268" height="81.256"
	 viewBox="0 0 90.268 81.256" style="overflow:visible;enable-background:new 0 0 90.268 81.256;" xml:space="preserve">
<g>
	<g>
		<path style="fill:#3172A1;" d="M89.9,33.641c0-0.4,0-0.8,0-1.2c0.1-0.4-0.1-0.8-0.5-1.1c-1.4-0.5-2-0.7-1.9-0.7
			c0.1-0.5,0.3-0.9,0.7-1.2c1.6-1.4,2.3-3.2,2-5.5c-0.1-0.1-0.2-0.2-0.4-0.2c-0.5-0.1-1.1-0.3-1.7-0.4c-3.6,1.9-7.2,3-10.7,3.3
			c-0.1,0.4-0.1,0.8,0,1.1c0.1,0.3,0.1,0.5,0.1,0.7c-0.2,0.3-0.3,0.5-0.4,0.8c-0.5,0.9-1.1,1.8-1.7,2.6c-0.3,0.2-0.6,0.3-0.8,0.3
			c-0.1,0-0.1,0-0.2,0.1c-0.4-1.4-1-2.6-1.6-3.9c-1.2-1.9-2.4-3.7-3.8-5.2c0.1,0,0.1,0,0.1,0c0.4,0.1,0.7,0.2,1.1,0.3
			c-0.2-0.3-0.4-0.5-0.7-0.7c0-0.1-0.1-0.1-0.1-0.1c-0.1-0.3-0.3-0.5-0.5-0.7c-0.3-0.2-0.6-0.5-0.8-0.8l-0.1-0.1
			c-0.3-0.4-0.5-1-0.5-1.6c1.6-0.3,3-0.4,4.3-0.5c-0.2-0.3-0.3-0.5-0.5-0.7c-1.3-1.1-1.9-2.2-2.1-3.4c0.1-0.2,0.1-0.2,0.2-0.3
			c0.9-0.4,1.6-0.8,2-1.3c0.4,1.4,1.3,2.6,2.7,3.6c0.9-0.2,1.9-0.3,2.9-0.4c0.1-0.1,0.2-0.3,0.3-0.4c1.9-6.1,0.2-10.3-5.3-12.5
			c0,0.1,0,0.1-0.1,0.1c-0.7,0.1-1.1,0.6-1.4,1.4c-0.1,0.2-0.2,0.5-0.3,0.8c0.1,0.7,0.1,1.5,0.1,2.2c0,0.5,0.2,0.8,0.6,1.1
			c-1.5-0.2-3-0.3-4.4-0.3c-3.7,0.2-6.9,1.5-9.7,3.8c-0.8,0.7-1.5,1.3-2.3,1.9c0,0.2,0,0.3,0,0.4c0,0.1-0.1,0.2-0.1,0.3s0,0.1,0,0.1
			c-0.2,0-0.3,0-0.4-0.1c0.1,0.2,0.1,0.3,0.1,0.4c-3.2-1.2-6.7-1.7-10.4-1.4c-0.3,0.3-0.7,0.4-1.2,0.6c0-0.2,0-0.3,0-0.5
			c-0.3,0.2-0.6,0.3-0.9,0.4c-3-4.8-7.7-6.8-14.1-6.1c-1.9,0.4-3.6,1-5.3,2c-0.3,0.1-0.6,0.3-0.8,0.4c-1.5-1.9-3.4-2.7-5.9-2.5
			c-0.8,0.8-1.1,1.8-0.7,3.3c1,4.5,3.8,7.4,8.2,8.8c0.6-0.3,1.2-0.7,1.7-1.1c0.1-0.1,0.2-0.2,0.4-0.4c0.3-1,0.3-2.1,0-3.1
			c-0.5-1.4-1.1-2.1-2-2l0.1-0.1c0.3-0.1,0.6-0.2,0.9-0.2c1.1,0.6,2.2,1.5,3.1,2.4c-0.1,0.2-0.2,0.3-0.4,0.4
			c-0.5,0.5-0.9,1.1-1.4,1.6c0,0.1-0.1,0.2-0.1,0.3c0.6,0.7,1.5,0.9,2.5,0.9c-0.8,1.2-1.8,2.3-3.1,3.1c0.2,0.2,0.4,0.4,0.6,0.5
			c-2.8,3-4.8,6.7-5.8,10.9c-0.1,0-0.1,0-0.1,0c-0.7-0.5-1.4-1.1-1.9-1.7c-0.2-0.7-0.4-1.3-0.6-2c-0.1-0.2-0.2-0.4-0.2-0.7
			c-0.2-0.1-0.2-0.2-0.4-0.3c-4.2-2.7-8.5-5.2-12.7-7.5c-0.9,0.7-1.2,1.8-0.8,3.5c0.6,2.2,1.8,4.2,3.4,6c-2.9-0.7-5,0.1-6.2,2.2
			c2.3,2.5,5.2,3.7,8.7,3.6c-0.7,0.7-1.3,1.4-1.9,2.1c-0.5,0.8-0.6,1.7-0.4,2.7c2.5,0.4,4.6,0.3,6.5-0.4c0,0.9,0,1.8,0,2.6
			c0,0.7,0.2,1.3,0.5,1.9c0.1,0.2,0.2,0.2,0.4,0.3c1.5,0.4,2.6,0,3.2-1.4c0.4-0.6,0.9-0.6,1.4-0.3c0.2,0.1,0.3,0.2,0.5,0.2
			c0.1,0.7,0.2,1.3,0.4,1.9c1.3,4.7,3.7,8.4,7.1,11.1c0.1-0.1,0.1-0.1,0.2-0.1c0.7,0.7,1.7,1.3,2.9,1.8c2.7,1.9,5.8,3.3,9.2,4.4
			c0.2,0.1,0.3,0.2,0.4,0.4c0.6,0.8,0.9,1.7,0.9,2.6c-0.1,0.2-0.2,0.5-0.4,0.6c-1,1.1-1.8,2.2-2.4,3.5c0.1,0.3,0.1,0.5,0.1,0.8
			c0.1,0.7,0.1,1.5,0.1,2.2c0.8,1.5,2,2,3.5,1.7c5.4-1.2,10.4-1.2,15,0.1c0.2,0.5,0.3,1.1,0.1,1.6c-0.4,1.4-0.6,2.7-0.5,4
			c1,0.1,2.1-0.3,3-1.2c4.5-4.2,4.9-8.2,1.1-11.8c-1.8-0.1-3.5-0.3-5.3-0.6c0,0-0.1-0.2-0.1-0.4c0.8-1.8,2.1-3.1,3.8-3.9
			c3.6-1.8,6.6-4.1,8.7-6.6c5.4-3.7,8.4-8.7,8.9-14.9c0.2,0.2,0.6,0.5,1,0.6c1.6,0.6,2.5,0.2,2.9-1c0.4-1.3,2-1.8,4.7-1.5
			c0.2-0.4,0.2-0.9,0.1-1.5c0-0.2,0-0.5-0.1-0.7c-0.1-0.1-0.2-0.2-0.3-0.4c-0.2-0.1-0.3-0.2-0.4-0.4c-0.2-0.1-0.3-0.2-0.4-0.3
			C86,36.641,88.2,35.641,89.9,33.641z M80.9,31.44c0.1,0.3,0.2,0.4,0.4,0.5c2.3,0.4,4.6,0.8,6.9,1c-3,1.4-6,2.5-8.8,3.3
			c1,0.6,2.1,1.4,3.1,2.2c-2.2-0.8-4.2-1.2-6.1-1.3c-0.1,0.2-0.1,0.4,0.1,0.5c0.6,0.9,1.1,1.8,1.2,2.8c-0.1,0-0.3,0-0.4-0.1
			c-0.6-0.5-1.2-0.7-1.7-0.6c0-1.5-0.2-3-0.5-4.6c-0.1-0.6-0.2-1.1-0.3-1.7c1.9-0.5,3.3-2.1,3.9-4.6c3.4-1.3,6.8-2.6,10.3-3.6
			C87.7,28.841,85,30.94,80.9,31.44z M72.1,5.741c0.4-0.2,0.8-0.4,1.2-0.6c0.7,0.6,1.3,1.3,1.9,2c1.4,2.1,1.9,4.4,1.6,6.9
			c0.1,0.6-0.2,1-0.8,1.2c-0.3,0-0.5,0.1-0.8,0.2c-0.6-0.3-1.1-0.7-1.2-1.4c-0.5-2-1.4-2.9-2.7-2.9c0,0.2,0,0.3,0,0.4
			c-1.2-0.1-2.2-0.2-3.3-0.2c-3,0.4-5.7,1.5-8.2,3.2c-1.1,0.7-1.8,1.7-1.8,3c-0.2,0.1-0.4,0.3-0.6,0.4c2,0.6,4,1.4,5.9,2.3
			c0.3,0.2,0.7,0.4,1,0.4c0.8,0.6,1.5,1.2,2.3,1.7c1.5,1,2.6,2.2,3.5,3.6c0.1,0.2,0.2,0.5,0.2,0.7l-0.2,0.2c1.4,1.9,2.4,4.2,3,6.8
			c0.7,1.2,0.9,2.5,0.6,4c0.1,0.8,0.1,1.6,0.1,2.5c0,4.3-1.5,7.9-4.4,11c-3,3.1-6.3,5.5-9.7,7.2c0.3,0,0.5,0.2,0.8,0.2
			c-0.2,0-0.3,0.1-0.4,0.1c-4.9,2.7-7.4,6.3-7.5,10.7c2.2,0.9,4.6,1.3,7.3,1.3c0.1,0.2,0.2,0.4,0.3,0.6c0.4,0.6,0.6,1.2,0.5,1.9
			c0,0.1-0.1,0.2-0.2,0.3c-0.8,1.1-1.6,2-2.5,2.8c-0.1-1.3-0.8-2.1-1.9-2.3c-5.3-0.9-10.5-0.9-15.7,0.2c-0.8-0.5-1.3-1.1-1.5-1.8
			c2.6-2.8,2.9-5.7,1.1-8.5c-1.3-1.8-2.9-3.3-5-4.4c-2.2-1.2-4.3-2.1-6.2-2.8c-0.3-0.1-0.5-0.4-0.7-0.5c-0.4-0.3-0.8-0.7-1.2-1
			c-0.9-0.8-1.6-1.6-2.3-2.5c-5.3-6.5-6.2-13.9-2.6-22c0.1-0.1,0.2-0.2,0.3-0.4c0.2-0.1,0.3-0.1,0.4-0.3c0.1-0.2,0.2-0.3,0.2-0.4
			c0.1-0.1,0.1-0.2,0.1-0.4c0-0.1,0-0.2,0-0.3c0.1-0.2,0.1-0.2,0.2-0.4c0.9-0.7,1.6-1.5,2.2-2.3c2.9-4.5,6.8-7.4,11.7-8.8l-0.1-0.1
			c0-0.2,0-0.3,0.1-0.5c0.1,0,0.2,0,0.3,0c0.3,0,0.7,0,1.1,0.1c-0.1-0.2-0.2-0.3-0.3-0.3c-0.2-0.1-0.4-0.2-0.6-0.3
			c0-0.1,0-0.1,0-0.2s-0.1-0.2-0.1-0.3c-2.3-3-5.4-4.2-9.5-3.6c-1.3-0.1-2.3,0.1-3.2,0.5c-0.2-0.1-0.5-0.2-0.8-0.2v0.1
			c-1.2,0.1-1.6,0.7-1.3,1.6c-0.1,0-0.3,0.1-0.5,0.2c0.4,1.1,0.8,2.2,1.3,3.3c0.2,0.5,0,0.8-0.5,1.2c-1.6-0.2-2.9-1.2-4-2.7
			c-1.2-1.7-2.1-3.5-2.8-5.5c0.4-0.6,1.1-0.6,1.9,0.1c0.7,0.6,1.4,0.9,2.2,1c-0.1,0.1-0.1,0.1,0,0.2c0,0.1,0.1,0.2,0.2,0.4
			c0.1,0.1,0.2,0.2,0.3,0.3c7.7-3.6,14.5-2.8,20.5,2.3c-0.6,0.2-1.2,0.4-1.8,0.5c0,0,0,0,0,0.1c-0.1,0.1-0.2,0.2-0.2,0.4
			c0,0.1,0.1,0.2,0.2,0.3c0.1,0.2,0.3,0.3,0.5,0.3c0.1,0.1,0.3,0,0.4-0.1c0.1,0,0.2-0.1,0.3-0.2c0.1-0.1,0.3-0.2,0.5-0.2
			c0.9,0,1.7,0,2.5,0.1c4,0.1,7.5,0.3,10.4,0.4c0.1,0,0.1,0,0.3,0.1c0,0,0,0,0.1,0c0,0,0,0,0.1-0.1l0,0h0.1c0.3,0,0.7,0,1.1,0
			c0-0.1-0.1-0.2-0.2-0.2c-0.2-0.1-0.4-0.2-0.5-0.3c0.7-0.7,1.5-1.5,2.5-2.2c3.9-2.9,8.5-4.4,13.9-4.5c-0.1-0.1-0.2-0.2-0.2-0.2
			c0.8-0.2,1-0.7,0.4-1.7c-0.1-0.2-0.1-0.4-0.1-0.6C71.6,6.341,71.8,6.041,72.1,5.741z M68.4,13.841c-0.4,0.5-0.5,1.1-0.4,1.8
			c0,0.2,0,0.3,0.1,0.3c0.3,0.3,0.5,0.7,0.8,1.1c-0.8-0.6-1.7-1.2-2.7-1.6c-1.8-0.4-3.3-0.3-4.5,0.3c2.8-2.2,5.9-3.5,9.5-3.8l0,0
			c-0.7,0.3-1.5,0.7-2.2,1.1C68.8,13.341,68.6,13.541,68.4,13.841z M60.3,16.94c0.1,0,0.1,0,0.2-0.1c-0.1,0.1-0.2,0.2-0.3,0.4
			c0-0.1-0.1-0.1-0.1-0.1C60.1,17.041,60.2,16.94,60.3,16.94z M68.5,17.341c-0.7,0.3-1.4,0.8-2,1.3c0,0.5,0,0.8,0,1.2v0.1
			c-0.2-0.1-0.4-0.2-0.5-0.3c0.1,0.4,0.2,0.8,0.4,1.1c-1.7-1.3-3.5-2.4-5.5-3.3C63.3,16.241,65.8,16.241,68.5,17.341z M28.6,15.141
			c0-0.1,0-0.2,0-0.3c-0.1-0.2-0.1-0.3-0.2-0.3c-0.8-0.6-1.6-1-2.4-1.2c3.1-0.4,6.1,0.3,8.9,2.1c-1.1-0.2-2.2-0.3-3.4-0.1
			c-0.7,0.3-1.5,0.5-2.4,0.7c-0.2,0-0.3,0-0.5,0.1C28.6,15.841,28.6,15.541,28.6,15.141z M29.7,18.741c0-0.1-0.1-0.2-0.1-0.3
			c0-0.1,0.1-0.2,0.1-0.3c-0.1,0-0.3,0-0.4,0.1c-0.4-0.3-0.8-0.5-1.3-0.6l0.1-0.2c0-0.1,0.1-0.1,0.1-0.1c2.3-0.6,4.5-0.8,6.7-0.8
			c-1.8,0.8-3.4,1.6-4.9,2.6l0,0C29.9,18.94,29.8,18.841,29.7,18.741z M15.4,30.341c0.1,0.7,0.3,1.3,0.5,1.9
			c0.7,1.7,1.8,2.8,3.2,3.1c-0.3,1.6-0.5,3.3-0.5,5.1c0,0.2,0,0.5,0,0.7c-0.3-0.5-0.8-0.7-1.5-0.5c-0.4,0.8-0.8,1.7-1.1,2.6
			c-0.1,0.8-0.5,1.2-1.1,1.2c-0.6-0.8-0.7-1.8-0.5-2.9c0.3-1.2,0.2-2.2,0-3.1c-0.3,0-0.5,0-0.7,0.1c-2,1.3-3.9,2-5.8,2.1
			c0.1-0.4,0.4-0.7,0.6-0.9c2-1.4,3.8-2.7,5.2-3.9c-4.6,0.1-8.6-0.8-11.8-2.6c3.2,0.3,6.2,0.1,9-0.5c-0.6-0.8-1.4-1.5-2.4-2
			c-2-1-3.3-2.6-3.9-4.9c-0.1-0.1-0.3-0.2-0.5-0.4c-0.1-0.1-0.2-0.2-0.2-0.3c-0.1-0.2-0.2-0.3-0.3-0.4c0-0.3,0-0.5,0-0.8
			c0-0.1,0-0.2,0-0.3c0-0.2,0-0.3,0-0.4l0.2-0.1C7.4,25.641,11.3,28.141,15.4,30.341z"/>
		<path style="fill:#3172A1;" d="M41.1,20.341c-0.4,0-0.9,0-1.4-0.1c-1,0.3-1.9,0.6-2.8,1.1c-1.9,1-3.4,2.7-4.3,4.9
			c-3,6.8-2.1,11.7,2.6,14.7c2,0.8,3.9,1.4,5.9,1.8c1.1-0.3,2.2-0.6,3.3-1c0.9-0.2,1.5-0.7,2.1-1.3c0.7,0.9,1.6,1.6,2.9,2
			c1.8,0.7,3.6,0.6,5.4-0.2c6.5-2.9,8.4-7.8,5.7-14.7c-1-1.2-2-2.3-3-3.4c-3.3-3-6.9-3.7-11-2.2c-0.5-0.3-1-0.7-1.5-1.2
			c-0.2-0.1-0.4-0.1-0.5-0.3C43.3,20.341,42.2,20.341,41.1,20.341z M48.8,23.041c3-0.2,5.7,0.7,7.9,2.6c0.2,0.3,0.4,0.5,0.6,0.8
			c4.1,5.7,3.5,10.6-1.8,14.6c-3.4,0.8-6.3,0.1-8.8-2.4c-3.3,2.8-6.9,3.3-10.8,1.4c-0.7-0.4-1.2-0.9-1.5-1.5
			c-3.7-7.5-1.7-13.1,5.8-16.8c2.2-0.6,4.1-0.1,5.6,1.3c0,0.4,0.1,0.7,0.3,1.1c0.1,0.2,0.3,0.5,0.6,0.6c0.6,0,1-0.3,1.2-0.8
			C48.1,23.641,48.4,23.241,48.8,23.041z"/>
		<path style="fill:#3172A1;" d="M50.7,32.341c0-0.8-0.6-1.1-1.6-0.9c-0.3,0.1-0.4,0.3-0.4,0.6c0.2,2,0.9,2.2,2,0.7
			C50.7,32.641,50.7,32.541,50.7,32.341z"/>
		<path style="fill:#3172A1;" d="M45.4,31.841c-0.3-0.7-0.9-1-1.8-0.9c-0.4,0.1-0.6,0.3-0.7,0.8c-0.1,0.6,0.1,1.1,0.5,1.5
			c0.1,0.1,0.2,0.2,0.4,0.2c0.9,0.2,1.5-0.2,1.7-1.2C45.5,32.141,45.5,32.041,45.4,31.841z"/>
		<path style="fill:#3172A1;" d="M57,51.94c0-0.1,0-0.1,0-0.2c-0.9-0.7-2-1-3.4-0.8c-1,0.6-1.9,1.5-2.7,2.6
			c-0.7,1.1-0.6,1.9,0.2,2.6c0.6-0.5,1.1-1,1.5-1.6C53.6,52.841,55.1,51.94,57,51.94z"/>
		<path style="fill:#009659;" d="M54.6,16.541L54.6,16.541L54.6,16.541L54.6,16.541z"/>
		<path d="M54.4,16.641c0,0.1,0,0.2,0.1,0.4c0-0.2,0.1-0.3,0.1-0.5l0,0c-0.1,0.1-0.1,0.1-0.1,0.1
			C54.4,16.641,54.4,16.641,54.4,16.641z"/>
		<path d="M70.1,26.841l0.2-0.2c-0.4-0.4-0.9-0.8-1.3-1.2C69.4,25.841,69.8,26.341,70.1,26.841z"/>
		<path d="M37.1,17.341L37.1,17.341c0,0,0-0.1-0.1-0.1L37.1,17.341z"/>
		<path style="fill:#3172A1;" d="M62.5,3.94c0-0.1,0-0.1-0.1-0.2c-5.1-3.1-11-4.3-17.8-3.5c-3,1-6.2,1.9-9.5,2.8
			c-0.9,0.3-1.4,0.8-1.7,1.6c0,0.2,0,0.4,0.1,0.7c0,0.1,0.1,0.3,0.2,0.4c0.2,0.1,0.3,0.2,0.4,0.4c0.1,0.1,0.2,0.2,0.4,0.3
			c0.1,0.2,0.2,0.3,0.4,0.4c0.1,0.2,0.2,0.3,0.3,0.4c3.6,0.5,7.2,1,10.8,1.4C53.2,9.541,58.7,8.041,62.5,3.94z M46.6,2.141
			c4.6,0.2,9.1,0.8,13.5,2c-8.1,2.7-16.3,3.1-24.7,1.1c0-0.1,0.1-0.2,0.3-0.3C39.2,3.541,42.9,2.541,46.6,2.141z"/>
	</g>
</g>
</svg>
