<?xml version="1.0" encoding="iso-8859-1"?>
<!-- Generator: Adobe Illustrator 12.0.1, SVG Export Plug-In . SVG Version: 6.00 Build 51448)  -->
<!DOCTYPE svg PUBLIC "-//W3C//DTD SVG 1.1//EN" "http://www.w3.org/Graphics/SVG/1.1/DTD/svg11.dtd" [
	<!ENTITY ns_svg "http://www.w3.org/2000/svg">
	<!ENTITY ns_xlink "http://www.w3.org/1999/xlink">
]>
<svg  version="1.1" id="Layer_1" xmlns="&ns_svg;" xmlns:xlink="&ns_xlink;" width="98.025" height="79.229"
	 viewBox="0 0 98.025 79.229" style="overflow:visible;enable-background:new 0 0 98.025 79.229;" xml:space="preserve">
<g>
	<g>
		<path style="fill:#3172A1;" d="M84.2,29.341c0,0.1,0,0.1,0,0.1c-2,1.3-4.1,2.1-6.5,2.3c-0.8-0.7-1.7-0.9-2.5-0.6
			c-0.4-0.9-0.8-1.9-1.3-2.8c-1.2-1.9-2.4-3.7-3.8-5.2c0.1,0,0.1,0,0.1,0c0.4,0.1,0.7,0.2,1.1,0.3c-0.2-0.3-0.4-0.5-0.7-0.7
			c0-0.1-0.1-0.1-0.1-0.1c-0.1-0.3-0.3-0.5-0.5-0.7c-0.3-0.2-0.6-0.5-0.8-0.8l-0.1-0.1c-0.3-0.4-0.5-1-0.5-1.6
			c1.6-0.3,3-0.4,4.3-0.5c-0.2-0.3-0.3-0.5-0.5-0.7c-1.3-1.1-1.9-2.2-2.1-3.4c0.1-0.2,0.1-0.2,0.2-0.3c0.9-0.4,1.6-0.8,2-1.3
			c0.4,1.4,1.3,2.6,2.7,3.6c0.9-0.2,1.9-0.2,2.9-0.4c0.1-0.1,0.2-0.3,0.3-0.4c1.9-6.1,0.2-10.3-5.3-12.5c0,0.1,0,0.1-0.1,0.1
			c-0.7,0.1-1.1,0.6-1.4,1.4c-0.1,0.2-0.2,0.5-0.3,0.8c0.1,0.7,0.1,1.5,0.1,2.2c0,0.5,0.2,0.8,0.6,1.1c-1.5-0.2-3-0.3-4.4-0.3
			c-3.7,0.2-6.9,1.5-9.7,3.8c-0.8,0.7-1.5,1.3-2.3,1.9c0,0.2,0,0.3,0,0.4c0,0.1-0.1,0.2-0.1,0.3s0,0.1,0,0.1c-0.2,0-0.3,0-0.4-0.1
			c0.1,0.2,0.1,0.3,0.1,0.4c-3.2-1.2-6.7-1.7-10.4-1.4c-0.3,0.3-0.7,0.4-1.2,0.6c0-0.2,0-0.3,0-0.5c-0.3,0.2-0.6,0.3-0.9,0.4
			c-3-4.8-7.7-6.8-14.1-6.1c-1.9,0.4-3.6,1-5.3,2c-0.3,0.1-0.6,0.3-0.8,0.4c-1.5-1.9-3.4-2.7-5.9-2.5c-0.8,0.8-1.1,1.8-0.7,3.3
			c1,4.5,3.8,7.4,8.2,8.8c0.6-0.3,1.2-0.7,1.7-1.1c0.1-0.1,0.2-0.2,0.4-0.4c0.3-1,0.3-2,0-3c-0.5-1.5-1.1-2.2-2-2.1l0.1-0.1
			c0.3-0.1,0.6-0.2,0.9-0.2c1.1,0.6,2.2,1.5,3.1,2.4c-0.1,0.2-0.2,0.3-0.4,0.5c-0.5,0.5-0.9,1-1.4,1.5c0,0.1-0.1,0.2-0.1,0.3
			c0.6,0.7,1.5,0.9,2.5,0.9c-0.8,1.2-1.8,2.3-3.1,3.1c0.2,0.2,0.4,0.4,0.6,0.5c-2.8,2.9-4.8,6.6-5.8,10.8c0,0.3,0,0.6,0,0.9
			c-0.1-0.1-0.2-0.1-0.4-0.1c-2.2,0-4.1-0.9-5.7-2.6c-0.6,0-1.2,0-1.8-0.1c-3.5,1.9-7.3,2.6-11.4,2.1c0,0.1-0.1,0.2-0.2,0.3
			c-0.3,0.5-0.4,1-0.5,1.5c-0.1,0.5-0.1,1-0.1,1.5c1.8,1.2,3.2,2,4.2,2.1c-0.5,0.2-1,0.3-1.5,0.4c-1.5,0.3-2.6,1.1-3.2,2.4
			c0,0.1,0,0.2,0,0.3c0,0.4,0,0.8,0,1.2c0,0.1,0,0.2,0.1,0.3c3.5,1.2,6.8,1.2,9.6,0.2c-0.1,0-0.1,0.1-0.1,0.2
			c-0.2,0.8-0.4,1.5-0.5,2.3c-0.2,0.6-0.2,1.2,0,1.8c1.1,1,2.2,1.1,3.4,0.4c0.5-0.5,0.9-1,1.4-1.5c1-1.3,2-2,3.1-2.4
			c0.1,0.3,0.2,0.5,0.5,0.6c0.7,0.5,1.3,0.5,1.8-0.1c0.3-0.2,0.5-0.5,0.6-0.8H20c0.1,0.7,0.2,1.3,0.4,1.9c1.3,4.7,3.7,8.4,7.1,11.1
			c0.1-0.1,0.1-0.1,0.2-0.1c0.5,0.6,1.3,1.1,2.1,1.5c0,0,0,0,0-0.1c0.9,0.6,1.9,1.1,3.1,1.3c2.4,1.5,4.7,2.9,6.9,4.4
			c-0.4,1.1-1.2,1.9-2.5,2.6c0,0.4,0,0.8,0,1.1c0,0.9,0,1.8,0,2.6c3.7,1.4,6,3.4,7.2,6.2c-0.2,0.1-0.3,0.2-0.4,0.2
			c-1.1,0.1-1.7,0.6-1.8,1.5c5.2,1.2,9.5-0.4,12.9-4.6c0-0.4,0-0.7-0.1-1c-0.8-2.7-0.2-5,1.6-6.7c3-2.9,6.2-5.4,9.6-7.5
			c2.4-1.5,3.8-3,4.4-4.5c3.6-3.4,5.6-7.6,6-12.7c0,0.1,0,0.2,0,0.3c0.1,0.1,0.2,0.2,0.4,0.3c0.2,0.3,0.5,0.5,0.7,0.8
			c0.6,0,1.2,0,1.8,0c0.1-0.1,0.2-0.2,0.2-0.2c0.6-0.4,0.8-0.9,0.7-1.6c0-0.5,0.1-0.5,0.4,0.1c0.2,0.2,0.3,0.4,0.5,0.7
			c0.8,1.2,1.8,2.2,2.9,3c0.9-0.1,1.7-0.2,2.5-0.4c0.2-0.5,0.2-1,0.2-1.5c0-0.1,0-0.2,0-0.4c0-0.2-0.1-0.4-0.1-0.7
			c-0.1-0.7-0.3-1.5-0.4-2.3c0.8,0.4,1.6,0.9,2.3,1.6c1.9,1.6,3.8,1.9,5.5,0.9c0.2-0.6,0.2-1.2,0-1.8c0-0.3-0.1-0.6-0.3-0.8
			c-0.6-1.2-1.3-2.1-2.3-3l-0.2-0.1c1.6-0.3,3.4-0.5,5.2-0.6c0.3-0.3,0.5-0.5,0.8-0.8c0.4-0.4,0.6-0.9,0.5-1.5
			c0-0.1-0.1-0.2-0.1-0.2C93.6,31.841,89.1,30.44,84.2,29.341z M86,34.641c0.1,0.4,0.4,0.7,0.9,1c1.5,0.7,2.9,1.7,4.1,3
			c0.7,0.8,1.3,1.7,1.6,2.6c-1.9-0.8-3.6-1.8-5.2-3.1c-1.5-1.1-2.9-1.6-4.3-1.4c-0.1,0.8,0.2,1.6,0.7,2.3c0.3,0.5,0.6,0.9,0.8,1.4
			c0.5,1,0.8,2,0.9,3c-0.7,0.1-1.3-0.2-1.8-0.8s-0.9-1.3-1.3-1.9c-0.6-1-1-2-1.4-3c-0.4-0.9-0.9-1-1.5-0.4c-0.4,0.3-0.6,0.7-0.6,1.1
			c0.1,0.2,0.1,0.3,0.1,0.4c0,0.3,0,0.5,0,0.8c0.2,0.9,0,1.5-0.5,2c-0.3-0.7-0.5-1.3-0.8-1.9c-0.1-0.3-0.2-0.7-0.2-1
			c-0.2-1-0.5-1.7-1-2.2c-0.1-0.5-0.2-1-0.3-1.4c-0.1-0.6-0.2-1.1-0.3-1.7c0.2,0,0.4-0.1,0.7-0.2c0-0.1,0-0.1,0-0.2
			c0,0.1,0.1,0.1,0.2,0.2c2.9,0.2,5.5-0.4,7.9-1.9c3.9,1.1,7.7,2,11.3,2.5c-0.1,0.3-0.2,0.4-0.2,0.4
			C91.5,33.741,88.2,33.841,86,34.641z M69.1,11.341c-3,0.4-5.7,1.5-8.2,3.2c-1.1,0.7-1.8,1.7-1.8,3c-0.2,0.1-0.4,0.3-0.6,0.4
			c2,0.6,4,1.4,5.9,2.3c0.3,0.2,0.7,0.4,1,0.4c0.8,0.6,1.5,1.2,2.3,1.7c1.5,1,2.6,2.2,3.5,3.6c0.1,0.2,0.2,0.5,0.2,0.7l-0.2,0.2
			c1.4,1.9,2.4,4.2,3,6.8c0.7,1.2,0.9,2.5,0.6,4c0.1,0.8,0.1,1.6,0.1,2.5c0,4.3-1.5,7.9-4.4,11c-2.8,2.9-5.7,5.1-8.8,6.7
			c0.1,0.1,0.2,0.2,0.3,0.2c-4.7,2.7-8,6.5-9.8,11.6c0.1,0.2,0.2,0.5,0.4,0.7c0.4,0.8,0.7,1.7,0.6,2.6c-1.9,2.7-4.1,3.9-6.6,3.8
			c0-0.4-0.1-0.7-0.3-0.9c-1.9-2.8-4.4-5-7.2-6.6c0-0.3,0-0.4,0.2-0.5c0.8-0.7,1.6-1.4,2.2-2.4c0.1-0.3,0.2-0.7,0.2-1.1
			c0-1-0.1-1.8-0.4-2.6c-1.4-0.9-2.9-1.7-4.4-2.5c-0.4-0.3-0.9-0.6-1.4-0.8c-2.5-1.5-5-2.9-7.5-4.3c-0.1-0.1-0.2-0.1-0.3-0.2
			c-0.7-0.6-1.4-1.4-2-2.2c-5.3-6.5-6.2-13.9-2.6-22c0.1-0.1,0.2-0.2,0.3-0.4c0.2-0.1,0.3-0.2,0.4-0.3c0.1-0.2,0.2-0.3,0.2-0.4
			c0.1-0.1,0.1-0.2,0.1-0.4c0-0.1,0-0.2,0-0.3c0.1-0.2,0.1-0.3,0.2-0.4c0.9-0.7,1.6-1.5,2.2-2.3c2.9-4.5,6.8-7.4,11.7-8.8l-0.1-0.1
			c0-0.1,0-0.3,0.1-0.5c0.1,0,0.2,0,0.3,0c0.3,0,0.7,0,1.1,0.1c-0.1-0.2-0.2-0.2-0.3-0.3c-0.2-0.1-0.4-0.2-0.6-0.3
			c0-0.1,0-0.1,0-0.1c0-0.2-0.1-0.3-0.1-0.4c-2.3-3-5.4-4.2-9.5-3.6c-1.3-0.1-2.3,0.1-3.2,0.5c-0.2-0.1-0.5-0.2-0.8-0.2v0.1
			c-1.2,0.1-1.6,0.7-1.3,1.6c-0.1,0-0.3,0.1-0.5,0.2c0.4,1.1,0.8,2.2,1.3,3.3c0.2,0.5,0,0.8-0.5,1.2c-1.6-0.2-2.9-1.2-4-2.7
			c-1.2-1.7-2.1-3.5-2.8-5.5c0.4-0.6,1.1-0.6,1.9,0.1c0.7,0.6,1.4,0.9,2.2,1c-0.1,0.1-0.1,0.1,0,0.2c0,0.1,0.1,0.2,0.2,0.4
			c0.1,0.1,0.2,0.2,0.3,0.3c7.7-3.6,14.5-2.8,20.5,2.3c-0.6,0.2-1.2,0.4-1.8,0.5c0,0,0,0,0,0.1c-0.1,0.1-0.2,0.2-0.2,0.4
			c0,0.2,0.1,0.2,0.2,0.3c0.1,0.2,0.3,0.3,0.5,0.4c0.1,0,0.3,0,0.4-0.2c0.1,0,0.2-0.1,0.3-0.2c0.1-0.1,0.3-0.1,0.5-0.2
			c0.9,0,1.7,0.1,2.5,0.1c4,0.1,7.5,0.3,10.4,0.4c0.1,0.1,0.1,0.1,0.3,0.1c0,0,0,0,0.1,0c0,0,0,0,0.1,0c0,0,0,0,0-0.1h0.1
			c0.3,0,0.7,0,1.1,0c0-0.1-0.1-0.2-0.2-0.2c-0.2-0.1-0.4-0.2-0.5-0.2c0.7-0.8,1.5-1.6,2.5-2.3c3.9-2.9,8.5-4.4,13.9-4.5
			c-0.1-0.1-0.2-0.2-0.2-0.2c0.8-0.2,1-0.7,0.4-1.7c-0.1-0.2-0.1-0.4-0.1-0.6c0-0.5,0.2-0.8,0.5-1.1c0.4-0.2,0.8-0.4,1.2-0.6
			c0.7,0.6,1.3,1.3,1.9,2c1.4,2.1,1.9,4.4,1.6,6.9c0.1,0.6-0.2,1-0.8,1.2c-0.3,0-0.5,0.1-0.8,0.2c-0.6-0.3-1.1-0.7-1.2-1.4
			c-0.5-2-1.4-2.9-2.7-2.9c0,0.2,0,0.3,0,0.4C71.2,11.44,70.2,11.341,69.1,11.341z M69.5,13.841c-0.4,0.5-0.5,1.1-0.4,1.8
			c0,0.2,0,0.3,0.1,0.3c0.3,0.3,0.5,0.7,0.8,1.2c-0.8-0.7-1.7-1.3-2.7-1.7c-1.8-0.4-3.3-0.3-4.5,0.3c2.8-2.2,5.9-3.5,9.5-3.8l0,0
			c-0.7,0.3-1.5,0.7-2.2,1.1C69.9,13.341,69.7,13.541,69.5,13.841z M69.6,17.341c-0.7,0.3-1.4,0.8-2,1.3c0,0.5,0,0.8,0,1.2v0.1
			c-0.2-0.1-0.4-0.2-0.5-0.3c0.1,0.4,0.2,0.8,0.4,1.1c-1.7-1.3-3.5-2.4-5.5-3.3C64.4,16.241,66.9,16.241,69.6,17.341z M61.4,16.94
			c0.1,0,0.1,0,0.2-0.1c-0.1,0.1-0.2,0.3-0.3,0.4c0-0.1-0.1-0.1-0.1-0.1S61.3,16.94,61.4,16.94z M29.7,14.841
			c-0.1-0.2-0.1-0.3-0.2-0.3c-0.8-0.6-1.6-1-2.4-1.2c3.1-0.4,6.1,0.3,8.9,2.1c-1.1-0.2-2.2-0.3-3.4-0.1c-0.7,0.3-1.5,0.5-2.4,0.7
			c-0.2,0.1-0.3,0.1-0.5,0.1c0-0.3,0-0.6,0-1C29.7,15.041,29.7,14.94,29.7,14.841z M2.3,35.841c4-0.2,7.8-0.8,11.7-2
			c1.6,1.5,3.5,2.4,5.7,2.5c0.2,0,0.3-0.1,0.5-0.2c0.1,0,0.2-0.1,0.4-0.2c-0.1,1.2-0.3,2.4-0.6,3.7c-0.1,0.5-0.2,1-0.3,1.5
			c-0.6,0.4-0.9,1-0.9,1.7c-0.1,0.9-0.4,1.2-0.8,1c-0.2-0.7-0.1-1.4,0.2-1.9c0.4-0.6,0.3-1.1-0.2-1.5c-1-0.2-1.7,0.2-2.1,1.2
			c-1.1,3.1-2.9,4.9-5.4,5.3c0-0.1,0.1-0.2,0.2-0.3c0.2-0.6,0.4-1.2,0.6-1.8c0.2-0.5,0.2-1.1,0.3-1.6c0.1-0.1,0.2-0.2,0.4-0.4
			c0.4-0.2,0.5-0.6,0.4-1.1c0-0.1,0-0.2-0.1-0.4c-3.2,1.3-6.8,1.8-10.7,1.4c3.1-1.2,6-2.5,8.9-4C6.8,38.541,4.1,37.541,2.3,35.841z
			 M30.4,18.241c-0.4-0.3-0.8-0.5-1.3-0.6l0.1-0.2c0-0.1,0.1-0.1,0.1-0.1c2.3-0.6,4.5-0.8,6.7-0.7c-1.8,0.7-3.4,1.5-4.9,2.5l0,0
			c-0.1-0.2-0.2-0.3-0.3-0.4c0-0.1-0.1-0.2-0.1-0.3c0-0.1,0.1-0.2,0.1-0.3C30.7,18.141,30.5,18.141,30.4,18.241z"/>
		<path style="fill:#3172A1;" d="M45.6,20.44c-1.2-0.1-2.3-0.1-3.4-0.1c-0.4,0-0.9,0-1.4-0.1c-1,0.3-1.9,0.6-2.8,1.1
			c-1.9,1-3.4,2.7-4.3,4.9c-3,6.8-2.1,11.7,2.6,14.7c2,0.8,3.9,1.4,5.9,1.8c1.1-0.3,2.2-0.6,3.3-1c0.9-0.2,1.5-0.7,2.1-1.3
			c0.7,0.9,1.6,1.6,2.9,2c1.8,0.7,3.6,0.6,5.4-0.2c6.5-2.9,8.4-7.8,5.7-14.7c-1-1.2-2-2.3-3-3.4c-3.3-3-6.9-3.7-11-2.2
			c-0.5-0.3-1-0.7-1.5-1.2C45.9,20.641,45.7,20.641,45.6,20.44z M57.8,25.641c0.2,0.3,0.4,0.5,0.6,0.8c4.1,5.7,3.5,10.6-1.8,14.6
			c-3.4,0.8-6.3,0.1-8.8-2.4c-3.3,2.8-6.9,3.3-10.8,1.4c-0.7-0.4-1.2-0.9-1.5-1.5c-3.7-7.5-1.7-13.1,5.8-16.8
			c2.2-0.6,4.1-0.1,5.6,1.3c0,0.4,0.1,0.7,0.3,1.1c0.1,0.2,0.3,0.5,0.6,0.6c0.6,0,1-0.3,1.2-0.8c0.2-0.3,0.5-0.7,0.9-0.9
			C52.9,22.841,55.6,23.741,57.8,25.641z"/>
		<path style="fill:#3172A1;" d="M46.6,32.241c0-0.1,0-0.2-0.1-0.4c-0.3-0.7-0.9-1-1.8-0.9c-0.4,0.1-0.6,0.3-0.7,0.8
			c-0.1,0.6,0.1,1.1,0.5,1.5c0.1,0.1,0.2,0.2,0.4,0.2C45.8,33.641,46.4,33.241,46.6,32.241z"/>
		<path style="fill:#3172A1;" d="M49.8,32.041c0.2,2,0.9,2.2,2,0.7c0-0.1,0-0.2,0-0.4c0-0.8-0.6-1.1-1.6-0.9
			C49.9,31.541,49.8,31.741,49.8,32.041z"/>
		<path style="fill:#3172A1;" d="M58.1,51.94c0-0.1,0-0.1,0-0.2c-0.9-0.7-2-1-3.4-0.8c-1,0.6-1.9,1.5-2.7,2.6
			c-0.7,1.1-0.6,2,0.2,2.6c0.6-0.5,1.1-1,1.5-1.6C54.7,52.841,56.2,51.94,58.1,51.94z"/>
		<path d="M55.7,16.641c-0.1,0-0.1,0-0.1,0c-0.1,0-0.1,0-0.1,0c0,0.1,0,0.2,0.1,0.4C55.6,16.841,55.7,16.741,55.7,16.641
			L55.7,16.641z"/>
		<path style="fill:#009659;" d="M55.7,16.641v-0.1C55.7,16.641,55.7,16.641,55.7,16.641L55.7,16.641z"/>
		<path d="M70.1,25.44c0.4,0.4,0.8,0.9,1.1,1.4l0.2-0.2C71,26.241,70.5,25.841,70.1,25.44z"/>
		<path d="M38.1,17.241l0.1,0.1l0,0C38.2,17.341,38.2,17.241,38.1,17.241z"/>
		<path style="fill:#3172A1;" d="M63.6,3.94c0-0.1,0-0.1-0.1-0.2c-5.1-3.1-11-4.3-17.8-3.5c-3,1-6.2,1.9-9.5,2.8
			c-0.9,0.3-1.4,0.8-1.7,1.6c0,0.2,0,0.4,0.1,0.7c0,0.1,0.1,0.3,0.2,0.4c0.2,0.1,0.3,0.2,0.4,0.4c0.1,0.1,0.2,0.2,0.4,0.3
			c0.1,0.2,0.2,0.3,0.4,0.4c0.1,0.2,0.2,0.3,0.3,0.4c3.6,0.5,7.2,1,10.8,1.4C54.3,9.541,59.8,8.041,63.6,3.94z M47.7,2.141
			c4.6,0.2,9.1,0.8,13.5,2c-8.1,2.7-16.3,3.1-24.7,1.1c0-0.1,0.1-0.2,0.3-0.3C40.3,3.541,44,2.541,47.7,2.141z"/>
	</g>
</g>
</svg>
