<?xml version="1.0" encoding="iso-8859-1"?>
<!-- Generator: Adobe Illustrator 12.0.1, SVG Export Plug-In . SVG Version: 6.00 Build 51448)  -->
<!DOCTYPE svg PUBLIC "-//W3C//DTD SVG 1.1//EN" "http://www.w3.org/Graphics/SVG/1.1/DTD/svg11.dtd" [
	<!ENTITY ns_svg "http://www.w3.org/2000/svg">
	<!ENTITY ns_xlink "http://www.w3.org/1999/xlink">
]>
<svg  version="1.1" id="Layer_1" xmlns="&ns_svg;" xmlns:xlink="&ns_xlink;" width="82.8" height="70.831"
	 viewBox="0 0 82.8 70.831" style="overflow:visible;enable-background:new 0 0 82.8 70.831;" xml:space="preserve">
<g>
	<path style="fill:#3172A1;" d="M80.4,66.3c0.2-0.2,0.5-0.4,0.7-0.7c0.6-0.1,1.1-0.1,1.7-0.2c-0.1-0.1-0.1-0.1-0.2-0.1
		c-0.3-0.1-0.7-0.1-1.1-0.2c0.3-0.3,0.4-0.7,0.5-1.1c-5.7-3.5-11.9-5.6-18.6-6.3c0.9-0.6,1.7-1.5,2.4-2.8c0-0.1,0-0.2-0.1-0.4
		C65,52.2,63.2,51,60.5,51l0,0c5.6-4.8,7.7-11.5,6.2-19.9c-0.4-2.4-1.2-4.5-2.2-6.5c0.2,0.2,0.5,0.5,0.8,0.8
		c-0.1-0.1-0.2-0.2-0.3-0.3c-0.4-0.7-0.9-1.4-1.5-2c-0.7-1.3-1.6-2.5-2.6-3.5c0.1-0.1,0.1-0.1,0.1-0.1c0-0.1-0.1-0.2-0.1-0.3
		c0.2,0.1,0.5,0.1,0.9,0.2c-0.3-0.3-0.5-0.5-0.8-0.7c-0.1-0.2-0.2-0.3-0.4-0.4c-0.1-0.1-0.3-0.1-0.6-0.1c-0.4-0.6-0.9-1.1-1.4-1.7
		c0.9-0.3,2.1-0.7,3.5-1.1c-0.2-0.5-0.6-0.9-1.1-1.2c-1.3-0.8-2.2-1.9-2.5-3.3c0.4-0.2,0.7-0.4,1-0.5c0.8-0.1,1.4-0.4,2-0.8
		c-0.2,0.9,0,1.7,0.4,2.4c0.1,0,0.1,0.1,0.1,0.3c0.5,0.6,1.2,0.6,2,0c3.5-2.4,5-5.8,4.6-10.2C68.5,2,68.4,2,68.2,1.9
		c-0.9-0.1-1.8-0.2-2.7-0.3c-0.6,0.4-1.2,0.8-1.8,1.5c-0.7,0.7-1.1,1.4-1.3,2.3l0,0C60,4.7,57.5,4.3,55,4.3c-0.1,0-0.3,0.1-0.5,0.1
		c-3.4,0.2-6,1.4-7.7,3.8c-0.6,0.8-1,1.6-1,2.4c-0.1,0-0.2-0.1-0.3-0.1c0,0.3,0.1,0.7,0.2,1.1c-3.3-1.2-6.8-1.7-10.4-1.3
		c-0.4,0.2-0.8,0.3-1.3,0.5c0-0.3,0-0.5-0.1-0.8c0-0.1,0-0.2,0-0.2c-0.1,0-0.2,0-0.2,0.1c-0.1-0.1-0.2-0.2-0.2-0.3
		C29.8,4.3,24.6,2.1,18,2.8c-0.2-0.5-0.5-1-1-1.5c-0.4-0.5-0.8-0.8-1.2-1.2c-0.8,0-1.5,0-2.3-0.1c-1.9,1.7-2.3,3.9-1.3,6.8
		c0.9,2.1,2.3,3.7,4.4,5c0.8,0,1.6,0,2.4-0.1c0.2,0,0.4,0,0.5-0.2c0.2-0.8,0.2-1.7,0.2-2.6c-0.1-0.4-0.1-0.8-0.1-1.1
		c0.2,0,0.4,0.2,0.5,0.3c0.2,0.3,0.3,0.5,0.5,0.7c0.4,0.5,0.6,1,0.4,1.6c0,0.1-0.1,0.2-0.2,0.3c-0.8,1-1.8,1.9-2.8,2.7
		c0.6,0.8,1.1,1.3,1.6,1.4c-0.8,1.4-1.9,2.6-3.3,3.6c0.1,0.2,0.3,0.4,0.6,0.5c-4.3,4.4-6.5,10.2-6.8,17.5c0,2.1,0.2,4.2,0.7,6.1
		c0.8,2.8,1.9,5.2,3.4,7.2c-0.5,0-1.1,0.1-1.7,0.3c-0.6,0.2-1.2,0.6-1.7,1c-0.2,0.2-0.3,0.3-0.4,0.4c-0.1,0.1-0.1,0.2-0.1,0.4
		c0,0.1,0,0.2,0,0.3c0,0.8,0,1.5,0.1,2.3c0,0.1,0,0.2,0.1,0.4c0.8,0.7,1.5,1.5,2.2,2.2c0.4,0.4,0.7,0.7,1.1,1
		c-4.6,0.3-8.7,1.9-12.3,4.7c0,0.2,0,0.3,0,0.4c-0.1,0.8,0,1.6,0.3,2.3c0,0.1,0,0.1,0.1,0.1C1.1,65.8,0.5,66.4,0,67
		c1.2,0.1,2.2-0.1,3.2-0.4C4.1,66.7,5,66.9,5.8,67c-1.3,0.5-2.6,1.2-3.7,2.1c0.1,0.2,0.1,0.2,0.1,0.2c2.2-0.5,4.3-1.1,6.6-1.9
		c1,0.1,2,0.2,2.9,0.3c-1.6,0.4-3.1,1-4.4,1.7c2.5-0.1,5.1-0.6,7.6-1.6c2,0,4-0.1,6.1-0.3c-2.3,0.8-4.5,1.5-6.7,2.4
		c0.2,0,0.4,0,0.7,0c8.4-1.9,16.7-4.1,24.8-6.5c1.6-0.1,3.2-0.2,4.8-0.5c-0.4,0.2-0.9,0.4-1.5,0.5c-5.7,1.3-11,3.2-16.1,5.6
		c6-1.1,12.4-2.8,19-5.2c1.5,0.7,3,1.3,4.5,1.9c-0.8-0.2-1.6-0.4-2.5-0.4c-0.5,0.3-1.1,0.5-2,0.7c-3.2,0.3-6.1,1.3-8.7,2.9
		c0.3,0,0.7-0.1,1.1-0.1c4.4-0.9,8.5-1.8,12.4-2.9c-0.1-0.1-0.1-0.1-0.2-0.2c0.9,0.3,1.7,0.6,2.6,0.8c-1.9,0.4-3.4,1.1-4.6,2.1
		c0.3,0.6,0.7,0.8,1.5,0.7c3.5-0.6,5.3-1.3,5.3-2.2c1.9,0.4,3.7,0.7,5.6,1C60.9,68,60.7,68,60.5,68c-0.9,0.3-2,0.6-3.2,0.9
		c-0.4,0.1-0.7,0.3-0.7,0.7c0.3,0.7,0.7,0.8,1.3,0.5c1.5-0.9,3.1-1.4,4.9-1.7c-0.1-0.1-0.1-0.1-0.2-0.1c-0.3-0.1-0.6-0.1-0.9-0.2
		c1.5,0.2,3.1,0.2,4.7,0.2c-1.4,0.7-2.5,1.4-3.6,2.2c0.5,0.4,1.1,0.4,1.7,0.2c2.1-0.9,4.4-1.8,6.6-2.6c3-0.3,6-0.8,9-1.6
		C80.2,66.4,80.3,66.3,80.4,66.3z M46.6,11.1V11c0.3-0.4,0.6-0.8,0.8-1.2C47.5,9.4,47.7,9,48,8.6c0.1-0.2,0.2-0.5,0.4-0.7
		c0.6-0.5,1.4-0.8,2.1-1c4.1-1.3,8.2-1.6,12.2-1.1c0.3,0.1,0.6,0,0.9-0.4C64.3,4.5,65,3.8,66,3.1c0.5,0,0.9,0.1,1.4,0.2v0.1
		c0.1,0.4,0.2,0.7,0.1,1.1c-0.3,3.5-1.9,5.6-4.7,6.4c-0.3-0.6-0.4-1.3-0.3-2.1l0,0l0,0c0-0.1,0-0.1,0-0.2c0-0.1,0-0.2,0-0.3
		c-4.7-2.4-9-1.7-13,1.8c0,0.7-0.1,1.4-0.4,1.9c-0.3,0.5-0.4,0.8-0.3,1.1c-0.2,0.1-0.1,0.3,0.2,0.7h0.1c-0.1,0.1-0.1,0.1-0.2,0.1
		C49,14,49.2,14,49.3,14c4.7,2.4,8.8,5.1,12.5,8.2c0,0.1,0,0.3,0.1,0.4l-0.2,0.2c2.4,3.4,3.7,7.9,3.7,13.4c0,4.2-1.5,7.8-4.5,10.9
		c-9.3,9.8-21.1,12.4-35.3,8c-3.9-1.2-7-3.4-9.5-6.5c-5.2-6.5-6.1-13.9-2.6-22c0.1-0.1,0.2-0.2,0.4-0.4c0.1-0.1,0.2-0.2,0.4-0.3
		c0-0.2,0.1-0.3,0.2-0.4c0-0.1,0-0.2,0-0.4c0-0.1,0-0.2,0.1-0.3c0-0.2,0.1-0.3,0.2-0.4c0.8-0.7,1.5-1.5,2.1-2.4
		c3-4.4,6.9-7.3,11.7-8.7v-0.1c0-0.3,0-0.6,0-0.8c0.1-0.1,0.2-0.2,0.3-0.3c-0.1,0-0.1-0.1-0.2-0.2c0-0.1,0-0.2,0-0.3
		c-0.1,0-0.1,0-0.2,0c0.1-0.5,0.1-1.1-0.2-1.7c-0.3-0.4-0.5-0.8-0.7-1.1c-0.1-0.2-0.2-0.3-0.4-0.4c-2-1.4-4.2-2.3-6.7-2.6l0,0
		C20.3,5.9,20.2,6,20,6.1c-0.4,0.2-0.8,0.4-1.2,0.7c0.2,0,0.4,0,0.7,0c-0.2,0-0.3,0.1-0.5,0.1c0,0,0,0-0.1,0.1
		c-0.1-0.1-0.3-0.1-0.4-0.1c-0.2-0.1-0.4,0-0.6,0.1c0.1,0.8,0.2,1.5,0.4,2.3c0,0.3,0.1,0.7,0.1,1.1c-2.1-0.4-3.6-1.6-4.5-3.6
		c-0.6-1.5-0.7-2.9-0.4-4.3c0-0.8,0.4-1.1,1.4-0.7c0.1,0,0.2,0,0.2,0.1c0.6,0.5,1.1,1.1,1.4,1.9c0.1,0.5,0.4,0.8,0.6,1.1
		c2.4-1,5-1,7.9,0c2.9,0.9,5.5,2.7,7.8,5.5c-0.2,0-0.4,0.1-0.5,0.2c0,0.1,0.1,0.2,0.1,0.2c-0.2,0-0.4,0-0.6,0.1
		c-0.2,0-0.3,0.1-0.5,0.3c-0.1,0.1-0.2,0.2-0.3,0.3c-0.1,0.1-0.1,0.2-0.1,0.4c0,0.1,0,0.2,0.1,0.3c0.2,0.2,0.4,0.3,0.5,0.3
		c0.2,0.1,0.3,0,0.4-0.1c0.1,0,0.2-0.1,0.3-0.2c0.2-0.1,0.3-0.2,0.6-0.2c0.8,0,1.6,0,2.5,0.1c4.1,0.1,7.6,0.3,10.6,0.4h0.3
		c0.4,0,0.8,0,1.2,0c-0.1-0.1-0.1-0.2-0.2-0.2c-0.3-0.2-0.6-0.3-0.9-0.4C46.4,11.6,46.5,11.3,46.6,11.1z M50.5,11.3
		c0-0.2,0-0.3,0-0.4c3.1-2.6,6.3-3.4,9.4-2.3c-0.8,0.2-1.5,0.7-2.1,1.3c-0.3,0.4-0.4,0.7-0.4,1.1c0.1,0.5,0.1,1,0.1,1.5
		c0.2,0.2,0.3,0.3,0.5,0.4c0.3,0.5,0.8,0.9,1.2,1.3c-2.4-1-5-1.7-7.7-1.9l0,0c-0.5,0.2-0.9,0.3-1.3,0.4c-0.1,0.1-0.1,0.1-0.2,0.1
		C50.2,12.3,50.4,11.8,50.5,11.3z M56.9,15.6c-0.1,0.4,0,0.8,0.1,1.2c-1.7-1.2-3.6-2.3-5.5-3.2c2.3,0.3,4.5,0.7,6.5,1
		C57.5,14.8,57.2,15.2,56.9,15.6z M23,10.8L23,10.8c-0.5,0.2-0.9,0.3-1.3,0.5c0.3-0.8,0.4-1.6,0.3-2.5c-0.1-0.2-0.2-0.3-0.2-0.4
		c-0.5-0.9-1.2-1.4-2.1-1.6c3.2,0.2,5.7,1.5,7.6,3.8c0,0.2,0.1,0.3,0.1,0.4c-0.1,0-0.1,0.1-0.1,0.2C26,10.6,24.6,10.5,23,10.8z
		 M20.7,13.3c-0.1-0.1-0.2-0.2-0.3-0.3c0.1,0,0.2-0.1,0.3-0.1c0.7-0.1,1.4-0.4,2-0.9c0.1-0.1,0.1-0.2,0.2-0.2
		c1.1,0.1,2.2,0.3,3.2,0.7c0,0,0.2,0,0.3,0.1c-2.1,0.8-3.9,1.8-5.6,3c0.1-0.3,0.1-0.5,0.2-0.7c0-0.1,0-0.2,0-0.3
		c0.1-0.2,0.2-0.4,0.3-0.6c-0.1-0.3-0.2-0.5-0.3-0.7C20.9,13.3,20.8,13.3,20.7,13.3z M23.1,57.1c0-0.1-0.1-0.2-0.2-0.2
		c0-0.2,0-0.4-0.1-0.5c0.4,0.1,0.8,0.3,1.3,0.5c-0.5,0.2-1,0.5-1.5,0.9c0,0.1-0.1,0.2-0.2,0.4c0,0.1,0,0.2,0,0.2h-0.1
		c0.1-0.4,0.3-0.7,0.6-1H23C23,57.3,23.1,57.2,23.1,57.1z M21.3,59.7c0,0.3,0.1,0.6,0.2,0.9c3.1,1,6.3,2,9.4,3.3
		C21.3,66.8,12,66.8,3,64c4.4-3.3,9.7-4.9,15.8-4.9c0-0.1,0-0.2,0-0.4c0.1-0.2,0.1-0.5,0.1-0.8c-0.3,0-0.5-0.1-0.7-0.2
		c-0.4-0.4-1.1-0.6-1.9-0.7c-0.4,0-0.8,0-1.2-0.1c-0.2-0.2-0.4-0.4-0.6-0.6c-0.7-0.6-1.4-1.2-2-1.8c-0.5-0.4-0.7-1-0.7-1.6
		c0-0.1,0-0.2,0-0.2c1.3-0.6,2.6-1,3.8-1.3c0.8,0.8,1.6,1.5,2.5,2.2c-0.9-0.3-1.7-0.6-2.6-0.7c-0.6,0-0.7,0.2-0.4,0.5
		c1.8,1.5,3.7,3,5.7,4.2c0,0.4-0.1,0.8-0.1,1.2C20.6,59.2,20.8,59.6,21.3,59.7z M24.6,59.2c-0.3,0-0.6-0.1-0.9-0.1
		c0.9-0.5,1.8-1,2.4-1.6c0.8,0.2,1.5,0.4,2.4,0.6c0.8,0.1,1.5,0.3,2.2,0.4c5.6,0.6,10.8,0.4,15.5-0.6c0.3,0,0.6-0.2,0.9-0.2
		c0.4,0.2,0.7,0.5,1.1,0.9c-0.1-0.1-0.3-0.1-0.5-0.1c0.2,0.1,0.5,0.2,0.7,0.2c0.3,0.2,0.5,0.4,0.8,0.7C47.9,60,46.9,60.9,46,62
		c-5.4,0.1-10.9-0.2-16.4-0.9C28.1,60.2,26.5,59.6,24.6,59.2z M50.5,58.7c-0.6-0.6-1.3-1.1-2-1.4c1.6-0.5,3.2-1.1,4.8-1.9
		c0.1,0.1,0.1,0.2,0.2,0.3c0.2-0.1,0.4-0.2,0.7-0.3c-0.1,0-0.2-0.2-0.3-0.2c0.5-0.3,1-0.5,1.5-0.8c0.1,0,0.2-0.1,0.3-0.2
		c0.3,0.5,0.7,0.8,1.2,0.9c-1.1,0.4-2.1,0.9-3.1,1.4c0,0.3-0.1,0.5-0.1,0.8c-0.1,0.6-0.1,0.9,0.2,1.2C52.7,58.6,51.6,58.6,50.5,58.7
		z M33.1,63.7c-0.6-0.6-1.3-1.1-1.9-1.6c1.6,0.5,3.3,0.9,5,1.1c-1,0.2-2,0.5-3,0.8C33.1,63.9,33.1,63.8,33.1,63.7z M58.4,54.6
		c-0.4-0.5-0.8-0.9-1.2-1.2c0.6-0.3,1.1-0.7,1.7-1.1c1.7,0.3,3.5,1.1,5.2,2.2c-1.8,1.1-3.6,2.1-5.3,3.1c-0.3,0-0.6,0.1-1,0.2
		c0.1,0.4,0.2,0.9,0.2,1.3c8.2,0.3,15.4,2,21.6,5.4c-11,3.3-21.8,2.7-32.3-1.6c2.4-1.8,5-2.8,8-3.3c0-0.1,0-0.2,0.1-0.4
		c0-0.3,0.1-0.6,0.1-1c-0.1,0.1-0.2,0.1-0.3,0.1c1.3-1.3,3-2.1,5.2-2.4c0.1,0,0.1-0.2,0.2-0.3c0.9-0.8,0.7-1.4-0.6-1.6
		C59.5,54.2,58.9,54.4,58.4,54.6z"/>
	<path style="fill:#3172A1;" d="M20.6,49.6c0.4-0.2,0.8-0.5,1.3-0.9c-0.3-0.2-0.6-0.5-0.8-0.8C20.8,48.5,20.7,49,20.6,49.6z"/>
	<path style="fill:#009659;" d="M46.2,12.5L46.2,12.5h-0.3H46.2z"/>
	<path d="M45.9,12.5c0,0.1,0.1,0.3,0.1,0.5c0.1-0.2,0.1-0.3,0.2-0.5H45.9z"/>
	<path d="M61.7,22.8l0.2-0.2c-0.5-0.4-0.9-0.8-1.4-1.2C60.9,21.8,61.3,22.3,61.7,22.8z"/>
	<path d="M28.6,13.2v0.1l0,0V13.2z"/>
	<path style="fill:#3172A1;" d="M24.6,59.2c0.2,0,0.4,0,0.6,0c-0.1-0.1-0.2-0.1-0.4-0.1L24.6,59.2z"/>
	<path style="fill:#3172A1;" d="M81.6,67.2c-0.4-0.1-0.7-0.2-1.1-0.3V67c-3.1,0.5-5.8,1.7-8.2,3.4c0.2,0.1,0.4,0.1,0.6,0
		c2.9-1.1,5.9-2.1,8.9-3C81.7,67.3,81.6,67.3,81.6,67.2z"/>
	<g>
		<path style="fill:#3172A1;" d="M38,19.4c-0.4-0.4-0.9-0.7-1.5-1.2c-0.1-0.1-0.3-0.2-0.5-0.3c-1.6-0.1-3.2-0.1-4.7-0.2
			c-3.4,0.8-5.8,2.8-7.2,6c-3.8,8.7-1.2,14.3,7.7,16.8c1.3-0.5,2.7-0.8,4.2-1.3c0.8-0.2,1.5-0.7,2-1.3c0.7,0.9,1.7,1.6,2.9,2
			c1.9,0.7,3.7,0.6,5.5-0.2c6.5-2.9,8.4-7.8,5.6-14.7c-0.9-1.2-1.9-2.3-3-3.4C45.8,18.6,42.1,17.9,38,19.4z M31.8,19.2
			c2.2-0.6,4-0.2,5.6,1.3c0,0.4,0.1,0.7,0.2,1c0.2,0.3,0.4,0.5,0.7,0.7c0.5,0,0.9-0.3,1.2-0.8c0.2-0.3,0.5-0.7,0.9-0.9
			c3-0.2,5.6,0.7,7.9,2.6c0.2,0.3,0.4,0.5,0.6,0.8c1.1,1.6,1.9,3.2,2.3,4.7c-4.3,0.2-8.3,1.6-12.2,4.2c-0.1-0.1-0.3-0.2-0.5-0.3
			c-0.9-0.8-1.9-1.5-2.8-2.3c-0.1,0-0.1,0-0.1-0.1c-0.1-0.1-0.2-0.2-0.4-0.2l0,0c-3.1-2.2-6.2-4.2-9.5-5.9
			C27,22.2,29,20.6,31.8,19.2z M27.5,37.5c-0.8-0.3-1.3-0.8-1.6-1.5c-2.3-4.6-2.4-8.4-0.4-11.6c2.5,1.8,5,3.6,7.5,5.6
			c-0.1,0-0.2,0.1-0.3,0.2c-0.1,0.1-0.2,0.2-0.3,0.3c-0.1,0.7-0.1,1.3,0.1,1.9c0,0.1,0,0.2,0,0.4c1,1,1.9,1,2.8,0
			c0.1-0.2,0.3-0.4,0.4-0.6c1,0.9,2,1.8,2.9,2.7c0.9-0.4,1.8-0.8,2.7-1.2c0,0,0,0,0.1,0.1c0.6,0.7,1.4,0.9,2.4,0.5
			c0.5-0.4,0.8-0.9,0.8-1.5c0-0.2,0-0.3,0-0.4s0-0.2,0-0.2c2.3-1.1,4.5-2.1,6.7-3.1c0.8,3.6-0.7,6.7-4.3,9.4
			c-3.4,0.8-6.3,0.1-8.7-2.3C34.9,38.9,31.3,39.4,27.5,37.5z"/>
		<path style="fill:#3172A1;" d="M21.9,50.2c1.1-0.8,2.4-1.9,3.8-3.3c1.1-0.9,2.2-1.3,3.4-0.9c6.9,1.7,13.8,1.7,20.8,0
			c1.4,0.7,2.4,1.7,2.9,3.1c0.5,1.5,1.3,2.1,2.3,1.8c-0.7-4.6-3.4-6.4-8-5.5C41,46.6,35,46,29,43.8c-0.1,0-0.4,0.1-0.5,0.1
			c-2,0.3-3.8,1.1-5.2,2.5c-1.1,0.9-1.8,1.9-2.2,3C21.3,49.7,21.6,50,21.9,50.2z"/>
		<path style="fill:#3172A1;" d="M57,47L57,47c0-0.1,0-0.2,0-0.2S57,46.9,57,47z"/>
	</g>
</g>
</svg>
