<?xml version="1.0" encoding="iso-8859-1"?>
<!-- Generator: Adobe Illustrator 12.0.1, SVG Export Plug-In . SVG Version: 6.00 Build 51448)  -->
<!DOCTYPE svg PUBLIC "-//W3C//DTD SVG 1.1//EN" "http://www.w3.org/Graphics/SVG/1.1/DTD/svg11.dtd" [
	<!ENTITY ns_svg "http://www.w3.org/2000/svg">
	<!ENTITY ns_xlink "http://www.w3.org/1999/xlink">
]>
<svg  version="1.1" id="Layer_1" xmlns="&ns_svg;" xmlns:xlink="&ns_xlink;" width="82.8" height="91.331"
	 viewBox="0 0 82.8 91.331" style="overflow:visible;enable-background:new 0 0 82.8 91.331;" xml:space="preserve">
<g>
	<path style="fill:#3172A1;" d="M80.5,87.4v0.1c-3.1,0.5-5.8,1.7-8.2,3.4c0.2,0.1,0.4,0.1,0.6,0c2.9-1.1,5.9-2.1,8.9-3
		c-0.1-0.1-0.2-0.1-0.2-0.2C81.2,87.6,80.9,87.5,80.5,87.4z"/>
	<path style="fill:#3172A1;" d="M80.4,86.8c0.2-0.2,0.5-0.4,0.7-0.7c0.6-0.1,1.1-0.1,1.7-0.2c-0.1-0.1-0.1-0.1-0.2-0.1
		c-0.3-0.1-0.7-0.1-1.1-0.2c0.3-0.3,0.4-0.7,0.5-1.1c-5.9-3.6-12.3-5.7-19.2-6.3c1.7-0.8,3.2-1.9,4.6-3.3c0-0.3,0-0.5,0-0.8
		c0-0.1,0-0.2,0-0.3c0-0.2,0-0.3,0-0.4s0-0.2,0-0.4c-0.2-0.3-0.4-0.7-0.4-1.1c-0.1-0.1-0.3-0.2-0.5-0.4c-0.1-0.1-0.2-0.2-0.4-0.4
		c-0.1-0.1-0.2-0.2-0.3-0.3c-0.9-0.1-1.8-0.3-2.6-0.5c-0.2-0.1-0.3-0.1-0.4-0.1c3.9-4.6,5.1-10.5,3.9-17.6c-0.3-1.4-0.6-2.6-1-3.9
		c0,0.1,0,0.1,0.1,0.2c0-0.1,0-0.2,0-0.4c-0.3-1-0.6-1.9-1-2.8c0.1-0.1,0.2-0.2,0.3-0.3C65,45.3,65,45.2,65,45.1
		c-0.3-0.3-0.5-0.6-0.7-0.8c0.1-0.6,0-1.1-0.4-1.5c-2-2.6-3-5.5-3.1-8.7c0-0.1,0.1-0.2,0.2-0.3c0.4-0.5,0.8-1,1-1.5
		c1.2,0,1.7-0.4,1.6-1.3c-3.1-0.8-4.8-2.8-5-6c0-0.1,0.1-0.2,0.1-0.2c0.5-0.5,0.8-1,1-1.4c0.3,0.4,0.6,0.7,0.9,1
		c0.4,0.1,0.8,0.2,1.2,0.4c0.7,0.5,1.5,0.5,2.2,0c0.1-0.2,0.2-0.3,0.4-0.4c0.2-0.3,0.5-0.5,0.6-0.8c0.1-0.1,0.2-0.2,0.3-0.3
		c0-0.2,0-0.3-0.1-0.4c-0.4-4.6-3-7.6-7.7-8.8c-0.1,0.1-0.2,0.2-0.3,0.2c-0.4,0.3-0.7,0.7-1,1C56,15.5,56,15.8,55.9,16
		c0,0.2,0,0.3,0,0.4c0.2,0.6,0.4,1.2,0.4,1.9c0.1,0.3,0.1,0.7,0.1,1.1c-0.4,0.4-0.9,0.9-1.5,1.2C49.9,23.3,47,27,46,32
		c-0.2-0.1-0.4-0.2-0.5-0.2c0,0.4,0.1,0.9,0.2,1.3c-3.3-1.2-6.8-1.7-10.4-1.4c-0.4,0.3-0.8,0.4-1.3,0.6c0-0.3,0-0.6-0.1-0.8
		c-0.4,0.1-0.8,0.3-1.3,0.3c0-0.2,0-0.4-0.1-0.6c-1.6-5.8-5.2-10.1-10.7-13.2c0-0.6,0-1.2,0-1.8c0.1-0.7,0-1.4-0.3-1.9
		c-0.1-0.2-0.2-0.3-0.4-0.4c-0.7-0.6-1.6-0.9-2.6-0.9c0,0.1,0,0.1,0,0.1c-2.3,1.2-4.2,2.8-5.7,4.9c0,0.8-0.1,1.4-0.2,2
		c-0.3,1.2-0.4,2.4-0.2,3.6c3.2,1.2,5.3,0.8,6.4-1c0,0,0,0,0.1,0c0.1,0.3,0.2,0.5,0.5,0.8c0.1,3-1.1,5.5-3.5,7.5
		c1.9,1.1,3.5,2.5,4.6,4.4c-0.2,0.2-0.5,0.5-0.7,0.7c0,0.1,0,0.1,0,0.1c-0.3,0.4-0.5,0.8-0.8,1.2c-0.8,1-1.7,1.8-2.7,2.6
		c0.1,0.2,0.3,0.4,0.6,0.5c-4.3,4.4-6.5,10.2-6.8,17.5c0,2.1,0.2,4.2,0.7,6.1c0.9,3,2.1,5.6,3.9,7.8c-0.3,0-0.5-0.1-0.7-0.2
		c-0.2,0.1-0.4,0.2-0.8,0.4c-0.7,0.2-1.3,0.6-1.8,1.1c0,0.4,0,0.8,0.1,1.1c0.5,1.9,1.3,3.3,2.6,4.2c-4.7,0.3-8.9,1.9-12.6,4.8
		c0,0.2,0,0.3,0,0.4c-0.1,0.8,0,1.6,0.3,2.3c0,0.1,0,0.1,0.1,0.1c-0.8,0.3-1.4,0.9-1.9,1.5c1.2,0.1,2.2-0.1,3.2-0.4
		c0.9,0.1,1.8,0.3,2.6,0.4c-1.3,0.5-2.6,1.2-3.7,2.1c0.1,0.2,0.1,0.2,0.1,0.2c2.2-0.5,4.3-1.1,6.6-1.9c1,0.1,2,0.2,2.9,0.3
		c-1.6,0.4-3.1,1-4.4,1.7c2.5-0.1,5.1-0.6,7.6-1.6c2,0,4-0.1,6.1-0.3c-2.3,0.8-4.5,1.5-6.7,2.4c0.2,0,0.4,0,0.7,0
		c8.4-1.9,16.7-4.1,24.8-6.5c1.6-0.1,3.2-0.2,4.8-0.5c-0.4,0.2-0.9,0.4-1.5,0.5c-5.7,1.3-11,3.2-16.1,5.6c6-1.1,12.4-2.8,19-5.2
		c1.5,0.7,3,1.3,4.5,1.9c-0.8-0.2-1.6-0.4-2.5-0.4c-0.5,0.3-1.1,0.5-2,0.7c-3.2,0.3-6.1,1.3-8.7,2.9c0.3,0,0.7-0.1,1.1-0.1
		c4.4-0.9,8.5-1.8,12.4-2.9c-0.1-0.1-0.1-0.1-0.2-0.2c0.9,0.3,1.7,0.6,2.6,0.8c-1.9,0.4-3.4,1.1-4.6,2.1c0.3,0.6,0.7,0.8,1.5,0.7
		c3.5-0.6,5.3-1.3,5.3-2.2c1.9,0.4,3.7,0.7,5.6,1c-0.1-0.1-0.3-0.1-0.5-0.1c-0.9,0.3-2,0.6-3.2,0.9c-0.4,0.1-0.7,0.3-0.7,0.7
		c0.3,0.7,0.7,0.8,1.3,0.5c1.5-0.9,3.1-1.4,4.9-1.7c-0.1-0.1-0.1-0.1-0.2-0.1c-0.3-0.1-0.6-0.1-0.9-0.2c1.5,0.2,3.1,0.2,4.7,0.2
		c-1.4,0.7-2.5,1.4-3.6,2.2c0.5,0.4,1.1,0.4,1.7,0.2c2.1-0.9,4.4-1.8,6.6-2.6c3-0.3,6-0.8,9-1.6C80.2,86.9,80.3,86.8,80.4,86.8z
		 M57.8,17.9c-0.1-0.7-0.2-1.3-0.3-1.9c0.2-0.1,0.4-0.1,0.6-0.1c0.4,0,0.9,0,1.3,0.1c0.6,0.8,1.3,1.5,1.9,2.2
		c1.4,1.4,2.2,3.1,2.3,4.8c-0.1,0.1-0.2,0.1-0.3,0.1c-0.6,0-1.1-0.1-1.7-0.2c-0.3-0.4-0.7-0.8-1.1-1.1c-0.5-0.8-1-0.9-1.6-0.4
		c0,0.1,0,0.2,0,0.3c-0.1,0.1-0.1,0.1-0.2,0.2c-0.5,0-1,0.1-1.6,0.2c-0.4,0.6-0.9,1-1.5,1.4c-4.1,2.8-6.1,6.5-6,11.1
		c0,0.1,0,0.2-0.1,0.4c-0.2,0.1-0.4,0.3-0.6,0.4c2.1,0.6,4,1.4,5.9,2.3c0.4,0.2,0.7,0.3,1.1,0.4c0.7,0.6,1.5,1.2,2.3,1.7
		c1.4,1,2.6,2.2,3.4,3.6c0.2,0.2,0.2,0.5,0.3,0.7l-0.2,0.2c2.4,3.4,3.7,7.9,3.7,13.4c0,4.2-1.5,7.8-4.5,10.9
		c-1.8,1.9-3.7,3.5-5.6,4.9c0.2-1,0.4-2.1,0.5-3.2c-1.5,1.7-2.9,3.7-4.2,6.1c-11.6,7-21.7,5.8-30.5-3.6c0.4,0.7,0.9,1.4,1.3,2
		c-0.9-0.6-2-1.1-3.2-1.6c-1.1-0.9-2.1-1.9-3.1-3.1c-5.2-6.5-6.1-13.9-2.6-22c0.1-0.1,0.2-0.2,0.4-0.4c0.1-0.1,0.2-0.2,0.4-0.3
		c0-0.2,0.1-0.3,0.2-0.4c0-0.1,0-0.2,0-0.4c0-0.1,0-0.2,0.1-0.3c0-0.2,0.1-0.3,0.2-0.4c0.8-0.7,1.5-1.5,2.1-2.4
		c3-4.4,6.9-7.3,11.7-8.7v-0.1c0-0.2,0-0.4,0-0.5c0-0.2,0.2-0.3,0.2-0.4c0.2,0,0.3,0,0.4,0c0.2-0.1,0.3-0.2,0.4-0.3
		c0-0.1,0.1-0.2,0.2-0.4c-0.1-0.1-0.2-0.2-0.3-0.3s-0.2-0.2-0.2-0.2c0-0.4,0-0.7-0.1-1.1c-0.1-1-0.3-2-0.7-3
		c-0.1-0.1-0.2-0.2-0.4-0.4c-2-3.3-4.8-5.5-8.5-6.3c-0.2-0.2-0.3-0.3-0.4-0.4c0-0.1,0-0.2,0.1-0.3c-0.1,0.1-0.1,0.1-0.2,0.2
		c0-0.1,0-0.1-0.1-0.2c-0.1,0.1-0.2,0.2-0.2,0.2c0,0.1,0,0.1,0,0.1c-0.4,0.2-0.7,0.3-1,0.4c-0.1,0-0.3,0.1-0.4,0.2
		c-1.2,0.3-2.4,0.5-3.6,0.4c0-0.3,0-0.5,0-0.7c0.7-4.5,2.8-6.4,6.5-5.8c0,0.7-0.1,1.3-0.3,1.9c-0.2,0.4-0.2,0.7-0.2,1.1
		c0.3,0.2,0.7,0.5,1,0.7c5.5,2.9,9,7.2,10.6,12.8c0,0,0,0.1,0.1,0.2c-0.1,0-0.1,0-0.2,0.1c-0.1,0.1-0.2,0.2-0.3,0.3
		c-0.1,0.1-0.1,0.2-0.1,0.4c0,0.1,0,0.2,0.1,0.3c0.2,0.2,0.4,0.3,0.5,0.3c0.2,0.1,0.3,0,0.4-0.1c0.1,0,0.2-0.1,0.3-0.2
		c0.2-0.1,0.3-0.2,0.6-0.2c0.8,0,1.6,0,2.5,0.1c4.1,0.1,7.6,0.3,10.6,0.4h0.3c0.4,0,0.8,0,1.2,0c-0.1-0.1-0.1-0.2-0.2-0.2
		c-0.3-0.2-0.6-0.3-0.9-0.4c0.1-0.3,0.2-0.6,0.3-0.9c0.2,0,0.3-0.1,0.4-0.2s0.1-0.1,0.1-0.3c0-0.9,0.2-1.7,0.8-2.4
		c0.8-1.2,1.6-2.3,2.4-3.6c0.1,0,0.3-0.1,0.4-0.2c2.3-2.2,4.7-4,7.3-5.3C58,19.7,57.9,18.8,57.8,17.9z M59,30.3
		c-0.6,0-1.3,0.1-2,0.3c-1,0.3-2,0.7-3,1.2c-1.3,0.5-2.1,1.2-2.7,1.9l0,0c0-1.9,0.9-3.8,2.6-5.6c1.6-1.8,3-3.4,4.1-4.8
		C57.3,25.9,57.6,28.2,59,30.3z M60.2,31.9c0,0.1-0.2,0.2-0.2,0.3c-0.5,0.3-0.7,0.7-0.7,1.2c0,0.9,0.1,1.7,0.2,2.6
		c0.3,1.2,0.6,2.5,1,3.7c-0.3-0.4-0.7-0.8-1-1.3c-0.6-0.2-1.2-0.4-1.8-0.8c0.1,0.2,0.1,0.4,0.2,0.6c-1.6-1.3-3.4-2.3-5.2-3.2
		c0.4-0.1,0.8-0.4,1.2-0.7C56,33,58,32.2,60.2,31.9z M60.9,40.7c0.1,0.2,0.2,0.4,0.3,0.6c-0.3-0.2-0.5-0.5-0.7-0.7
		C60.6,40.6,60.8,40.7,60.9,40.7z M27.4,30c0.1,0.5,0.2,0.9,0.4,1.4c-2.3-1.6-4.8-2.1-7.8-1.9c0,0.1,0,0.1,0,0.1
		c-0.5,0.2-1,0.3-1.5,0.6c-0.1,0.1-0.2,0.1-0.2,0.1l0,0c0.1-0.2,0.2-0.3,0.3-0.4c2.1-2.4,2.7-4.6,1.8-6.6c0.6,0.1,1.1,0.3,1.7,0.5
		c1.8,1.5,3.5,3.2,5,5.5C27.2,29.5,27.3,29.8,27.4,30z M18.7,31.2c0.1-0.1,0.2-0.1,0.2-0.1c3.3-0.5,6.2,0.2,8.6,2.2
		c-0.1,0.1-0.1,0.2,0,0.3c-2.5,1-4.7,2.1-6.6,3.4c0.2-0.2,0.4-0.5,0.6-0.7c0-0.3,0-0.5,0-0.8c0.1-0.5,0-1-0.1-1.5
		C20.2,33.1,19.3,32.1,18.7,31.2z M22.9,78.2c-0.1-0.2-0.1-0.3-0.1-0.3c0.5,0.1,0.9,0.3,1.4,0.5c-1.4-0.7-2.4-1.5-2.9-2.4
		c0.7,0.2,1.4,0.4,2.3,0.4c0.8,1,1.8,2,2.9,2.8c-0.4-0.1-0.7-0.2-0.9-0.3c-0.4,0.3-0.7,0.5-1,0.8c0.7-0.1,1.4-0.2,2.2-0.3
		C30,81.8,34,83,38.7,82.8c-3,0.3-5.7,0-8.1-1.1c-0.4,0-0.7-0.1-1-0.1c-1.5-0.9-3.1-1.5-5-1.9c-0.5-0.1-1-0.2-1.5-0.2
		c-0.6-0.7-1.2-1.3-1.9-1.9c0.3,0.1,0.6,0.1,0.9,0.1C22.3,77.9,22.6,78,22.9,78.2z M21.7,79.4c-0.2,0-0.4,0-0.6,0
		c0.1,0.6,0.2,1.2,0.4,1.7c3.1,1,6.3,2,9.4,3.3C21.3,87.3,12,87.3,3,84.5c4.4-3.3,9.5-4.9,15.4-4.9h0.1c0.1,0,0.2,0,0.3,0
		c0-0.1,0-0.2,0-0.4c0,0,0,0,0-0.1c-0.8-0.1-1.5-0.4-2.1-0.7c-0.1,0-0.1,0-0.1,0c-1.9-1-3.2-2.5-4-4.4c0.5-0.2,1-0.3,1.4-0.4
		c0.8,0,1.4-0.2,1.9-0.4c0.5,0.6,1.2,1.2,1.9,1.7c-0.1,0.1-0.1,0.1,0,0.3c-0.2-0.1-0.4-0.2-0.5-0.3h-0.4
		C17.9,76.9,19.5,78.4,21.7,79.4z M31.2,82.6c1.6,0.5,3.3,0.9,5,1.1c-1,0.2-2,0.5-3,0.8c-0.1-0.1-0.1-0.2-0.1-0.3
		C32.5,83.6,31.8,83.1,31.2,82.6z M42.2,82.5c0.8-0.2,1.6-0.3,2.4-0.5c0.8-0.2,1.7-0.4,2.4-0.6c-0.3,0.3-0.7,0.7-1,1.1
		C44.7,82.5,43.4,82.5,42.2,82.5z M61.9,71.2c0,0,0,0,0.1,0C61.9,71.2,61.9,71.2,61.9,71.2L61.9,71.2z M65.5,73.3
		c0,0.1,0,0.2,0.1,0.3c-0.6,1-1.6,1.6-2.7,2c-1.7,0.5-3.4,1-5,1.5c-0.1,0.1-0.2,0.3-0.2,0.3c-0.2,0.3-0.4,0.5-0.5,0.8
		c0,0.1-0.1,0.2-0.1,0.3c0.3,0.4,0.5,0.6,0.9,0.7c0,0.2,0,0.3,0,0.4c8.2,0.3,15.4,2,21.6,5.4c-11,3.3-21.8,2.7-32.3-1.6
		c2.4-1.8,5-2.8,8-3.3c0-0.1,0-0.2,0.1-0.4c0-0.4,0.1-0.8,0.1-1.1c0-0.1-0.1-0.1-0.2-0.1c0-0.1,0-0.3,0-0.5c0.1-0.7,0.6-1.1,1.5-1.3
		c3.7-0.7,4.9-1.7,3.7-3.1v0.1c-0.6,0.1-1.3,0.1-1.8,0.3c0.1-0.2,0.3-0.3,0.5-0.4c0.3,0,0.6-0.2,0.9-0.5c0.2-0.1,0.3-0.2,0.4-0.3
		C62.7,71.7,64.3,71.9,65.5,73.3z M53.4,77.1c0.1,0,0.1,0,0.1,0.1l0.3-0.3c0,0.1,0,0.2,0,0.4c0,0.5,0,1,0,1.5
		c-0.9,0-1.6,0.1-2.3,0.3h-0.1C52.2,78.5,52.9,77.9,53.4,77.1z"/>
	<path style="fill:#3172A1;" d="M36,40.9c-1.6-0.1-3.2-0.1-4.7-0.2c-3.4,0.8-5.8,2.8-7.2,6c-3.8,8.7-1.2,14.3,7.7,16.8
		c1.3-0.5,2.7-0.8,4.2-1.3c0.8-0.2,1.5-0.7,2-1.3c0.7,0.9,1.7,1.6,2.9,2c1.9,0.7,3.7,0.6,5.5-0.2c6.5-2.9,8.4-7.8,5.6-14.7
		c-0.9-1.2-1.9-2.3-3-3.4c-3.2-3-6.9-3.7-11-2.2c-0.4-0.4-0.9-0.7-1.5-1.2C36.4,41.1,36.2,41,36,40.9z M31.8,42.2
		c2.2-0.6,4-0.2,5.6,1.3c0,0.4,0.1,0.7,0.2,1c0.2,0.3,0.4,0.5,0.7,0.7c0.5,0,0.9-0.3,1.2-0.8c0.2-0.3,0.5-0.7,0.9-0.9
		c3-0.2,5.6,0.7,7.9,2.6c0.2,0.3,0.4,0.5,0.6,0.8c4,5.7,3.4,10.6-1.9,14.6c-3.4,0.8-6.3,0.1-8.7-2.3c-3.4,2.7-7,3.2-10.8,1.3
		c-0.8-0.3-1.3-0.8-1.6-1.5C22.3,51.5,24.2,45.9,31.8,42.2z"/>
	<path style="fill:#3172A1;" d="M28,54.5c0.4,0.5,0.8,1,1.1,1.4c0.5,0.5,1,0.9,1.5,1.3c3.7,0.7,5.8-0.5,6.5-3.9
		c-0.2-0.7-0.4-1.3-0.6-1.9c-0.3-1.2-1.1-2.2-2.2-3c-0.8-0.1-1.5-0.1-2.3-0.1l0,0c-0.7,0.3-1.4,0.6-2,0.9c-0.1,0.1-0.2,0.1-0.4,0.2
		c-0.5,0.7-1,1.6-1.3,2.6C28.1,52.8,28,53.6,28,54.5z M30.4,50.5c0.2-0.1,0.4-0.2,0.6-0.3c0.4-0.2,0.9-0.4,1.4-0.7c0,0,0,0,0.1,0
		c2.3,1,3.4,2.6,3,4.9C34.5,56,33,56.5,31,56c-0.1-0.1-0.2-0.2-0.4-0.2c-1-0.7-1.5-1.5-1.6-2.7c0.1-0.2,0.1-0.4,0.3-0.6
		C29.7,51.8,30,51.2,30.4,50.5z"/>
	<path style="fill:#3172A1;" d="M33,51.9c-1.1-0.1-1.7,0.4-1.6,1.5c0,0.1,0.1,0.2,0.2,0.2c2.1,0.8,2.7,0.2,1.7-1.7
		C33.2,51.9,33.1,51.9,33,51.9z"/>
	<path style="fill:#3172A1;" d="M44.6,52.6c-0.1-0.8-0.6-1.1-1.6-0.8c-0.2,0-0.4,0.2-0.6,0.5c-0.1,0.2-0.3,0.5-0.4,0.7
		c0,0.2,0.1,0.3,0.1,0.3c1.1,1.2,1.9,1.1,2.5-0.3C44.6,52.9,44.6,52.8,44.6,52.6z"/>
	<path style="fill:#3172A1;" d="M27.1,75c0-1.8,0.3-3.6,0.9-5.3c0.1-0.3,0.4-0.7,0.6-1.1c4.5-2.4,9.2-3.6,14.3-3.6
		c1.6,1.1,3,2.5,4,4.2c1,1.6,2,3,3,4.2c-1.5,1.1-3.1,1.9-4.7,2.6c-0.1-0.1-0.1-0.1-0.1-0.1c0-0.1,0-0.2-0.1-0.4
		c-0.1-0.1-0.2-0.2-0.4-0.3c-2.4-1.5-5.1-2-8.1-1.6c-0.1,0.1-0.2,0.1-0.4,0.2c-1.6,0.8-2.7,2-3.1,3.6c-2.7-0.5-5.5-1.5-8.4-3
		c5.6,4.8,12.5,6,20.7,3.6c3.9-1.1,6-3.1,6.5-5.9c-0.1,0-0.2,0.1-0.2,0.1c-0.3,0.2-0.5,0.4-0.8,0.6c-0.1-1-0.5-2-1.2-3
		c-1.4-2.1-3.1-4-5.1-5.7C44.3,64,44,64,43.7,63.9c-1.7-0.1-3.4-0.2-5.2-0.3c-0.1,0.1-0.3,0.2-0.5,0.2c-3.7,0.7-7.1,1.8-10.4,3.5
		c-0.8,1.7-1.4,3.6-1.7,5.5c-0.3,1.5,0.1,2.4,1.2,2.6C27.1,75.3,27.1,75.2,27.1,75z M36.1,75.5c0.3-0.1,0.6-0.2,0.9-0.3
		c2.6-0.6,4.8-0.2,6.8,1.3c-3.2,1.1-6.5,1.4-9.8,1c0.6-0.4,1.1-0.9,1.7-1.6C35.8,75.8,36,75.7,36.1,75.5z"/>
	<path style="fill:#009659;" d="M46.2,34L46.2,34h-0.3H46.2z"/>
	<path d="M45.9,34c0,0.1,0.1,0.3,0.1,0.5c0.1-0.2,0.1-0.3,0.2-0.5H45.9z"/>
	<path d="M61.9,44.1c-0.5-0.4-0.9-0.8-1.4-1.2c0.4,0.4,0.8,0.9,1.2,1.4L61.9,44.1z"/>
	<path d="M28.6,34.8L28.6,34.8v-0.1V34.8z"/>
	<path style="fill:#3172A1;" d="M39,0c-0.1,0.1-0.2,0.1-0.5,0.2c-8.8,0.5-12.3,5-10.2,13.3c0.3,0.4,0.6,0.8,0.8,1.2
		c0.1,0.4,0.4,0.8,0.7,1.2s0.6,0.7,0.8,1c0.8,0.3,1.6,0.7,2.5,1c1.2,0.5,2.2,1,3.2,1.5c0.4,0.5,0.6,1.1,0.4,1.9
		c-0.1,0.5,0,0.9,0.3,1.2c0.2,0.3,0.3,0.6,0.3,1c0.1,0.2,0.2,0.3,0.3,0.4c0.2,0.1,0.3,0.2,0.4,0.4s0.1,0.5,0.2,0.7
		c0,0.5,0.1,0.9,0.3,1.3c0.2,0.6,0.7,0.8,1.5,0.5c0.4-1.5,0.7-3,1-4.5c0.1-0.8,0.2-1.7,0.3-2.7c3.5-0.8,5.9-2.9,7.2-6.4
		C51.4,5.3,48.3,0.9,39,0z M31.9,3.8c0.2-0.2,0.5-0.3,0.8-0.3c2.5-0.9,5.1-1.3,7.8-1.4c2.1-0.2,3.9,0.3,5.4,1.8
		c1.6,1.5,2.5,3.3,2.7,5.5c-0.2,1-0.6,2-1.1,2.9c-1.7,3-4.3,5.1-7.7,6.2c0,0.7-0.1,1.3-0.4,1.8c-0.2,0.6-0.3,1.2-0.2,2
		c0,0.1,0,0.3-0.1,0.5c-0.3-0.4-0.5-0.8-0.7-1.4c-0.1-0.7-0.3-1.5-0.5-2.3c-0.1-0.3-0.2-0.7-0.3-1.1c-1.6-0.5-3.1-1.3-4.6-2.2
		c-2.1-1.3-3.4-3.2-3.7-5.7c-0.1-1.4,0.3-2.8,1-4C30.8,5.3,31.3,4.5,31.9,3.8z"/>
	<path style="fill:#3172A1;" d="M41.1,5c0-0.1,0-0.2,0-0.4c-0.1-0.1-0.2-0.1-0.4-0.2c-1.2-0.1-2.4-0.2-3.7-0.3
		c-0.8,0.7-1.1,1.6-0.9,2.8c0.4,2.2,1.3,3.8,2.8,4.6c0.6-0.4,1.1-1.1,1.3-2c0-0.1,0-0.2,0.1-0.4c-0.1-0.2-0.1-0.5-0.1-0.7
		c-0.1-0.1-0.1-0.2-0.1-0.4C40.6,7.1,40.9,6.1,41.1,5z"/>
	<path style="fill:#3172A1;" d="M39,12.6v0.1c-0.4,0.1-0.7,0.4-0.9,0.9c-0.1,0.6-0.2,1.2-0.2,1.8c1.7,1.1,2.9,0.8,3.7-0.8
		c0-0.1,0-0.2,0-0.3C41,13.3,40.2,12.8,39,12.6z"/>
</g>
</svg>
