<?xml version="1.0" encoding="iso-8859-1"?>
<!-- Generator: Adobe Illustrator 12.0.1, SVG Export Plug-In . SVG Version: 6.00 Build 51448)  -->
<!DOCTYPE svg PUBLIC "-//W3C//DTD SVG 1.1//EN" "http://www.w3.org/Graphics/SVG/1.1/DTD/svg11.dtd" [
	<!ENTITY ns_svg "http://www.w3.org/2000/svg">
	<!ENTITY ns_xlink "http://www.w3.org/1999/xlink">
]>
<svg  version="1.1" id="Layer_1" xmlns="&ns_svg;" xmlns:xlink="&ns_xlink;" width="87.447" height="81.4"
	 viewBox="0 0 87.447 81.4" style="overflow:visible;enable-background:new 0 0 87.447 81.4;" xml:space="preserve">
<g>
	<path style="fill:#3172A1;" d="M77.147,9.5c-0.5,0.4-1.1,0.6-2,0.6c-0.1,0-0.3,0.1-0.5,0.2c-0.2,0.2-0.4,0.5-0.5,0.8
		c-0.3,0.7-0.8,1.2-1.5,1.6c-0.1,0.1-0.1,0.1-0.1,0.2c0.4,0.7,1,0.9,1.7,0.7c1.1-0.2,2.1-0.4,3.3-0.5c1.1,0.7,2.2,1.3,3.3,2
		c2.1,1.2,4.2,1.5,6.4,1c0.2-0.1,0.2-0.2,0.2-0.3C87.247,10.5,83.847,8.4,77.147,9.5z M86.447,14.4c-0.1,0.1-0.2,0.2-0.3,0.2
		c-2.9-0.4-5.8-1.5-8.5-3.3C81.447,10.3,84.347,11.4,86.447,14.4z"/>
	<path style="fill:#3172A1;" d="M79.147,4c-0.2-0.1-0.5-0.2-0.8-0.2c-1.4-0.2-2.8-0.2-4.2-0.3c-0.5,0.3-1.1,0.6-1.8,0.9
		c-2.6,0.8-4.6,2.4-5.8,4.6c-0.1,0.7,0.3,1,1.1,1l0.2-0.1c0.2-0.1,0.3-0.2,0.4-0.4c3.6-1.4,7.4-1.9,11.5-1.4c0.9-1,0.9-2.1,0.1-3.3
		C79.647,4.5,79.447,4.3,79.147,4z M74.647,5.1c1.8-0.7,3.2-0.4,4.1,0.9c-2.6,1.2-4.9,1.3-6.7,0.3c0.1-0.1,0.2-0.2,0.3-0.2
		C73.047,5.8,73.847,5.5,74.647,5.1z"/>
	<path style="fill:#3172A1;" d="M81.147,28.5c0.1-0.1,0.1-0.2,0.1-0.4c0-0.3,0-0.7,0-1.1c0-0.2,0-0.5,0-0.7c0-0.3,0-0.5-0.1-0.8
		c-0.1-0.1-0.2-0.2-0.4-0.3c-2.5-2.3-5.6-3.4-9.1-3.6c-0.1,0.2-0.2,0.2-0.5,0.3c-0.1,0.1-0.3,0.2-0.4,0.3c-0.3,0.2-0.5,0.4-0.7,0.7
		c0.5,0.3,1.1,0.6,1.8,0.7c0.7,0.2,1.4,0.5,1.8,1.2c0.1,0.1,0.2,0.2,0.3,0.4c0.5,0.7,1,1.4,1.5,2.2c0.4,0.5,0.8,1,1.3,1.5
		c0.5,0,0.8,0.2,1.2,0.3C79.247,29.9,80.347,29.6,81.147,28.5z M79.947,26.4c0,0.1,0,0.2,0.1,0.4c0.1,0.4,0,0.8-0.4,1.1
		c-0.3,0-0.5,0-0.8-0.1c-1.6-0.9-2.8-2.1-3.4-3.8C76.947,24.1,78.447,24.8,79.947,26.4z"/>
	<path style="fill:#3172A1;" d="M81.947,63.1c-0.4-0.3-0.8-0.6-1.3-0.7c-4.4-0.9-8-1.7-11-2.3c-0.6,0.1-1.3,0.2-2,0.3
		c1.9-3.6,2.6-7.9,1.9-12.7c0.7,0,1.3-0.2,1.9-0.9c1.3-1.3,1.7-2.9,1.2-4.8c-0.1-0.1-0.3-0.2-0.5-0.2c-1.2-0.3-2.3-0.5-3.5-0.7
		c0,0.1,0,0.1,0,0.1c-0.3,0.1-0.5,0.1-0.6,0.3c-0.4-0.8-0.7-1.5-1.1-2.2c0,0,0,0,0-0.1c-0.1-0.6-0.3-1.2-0.5-1.8
		c-0.5-0.9-1-1.6-1.6-2.3c-0.3-0.2-0.5-0.4-0.8-0.6c-0.5-0.4-0.8-1-0.9-1.6c-0.3-0.1-0.5-0.3-0.8-0.5c-7.7-6-16.8-8.6-27.2-7.5
		c-2.5,0.5-5.1,1.2-7.8,2.1c-1.6,0.5-2.9,1.4-4,2.6c0,0,0,0,0-0.1c-0.2,0.1-0.3,0.1-0.4,0.2c-0.2,0.4-0.4,0.8-0.7,1.3
		c-0.2,0.2-0.4,0.4-0.6,0.6c0,0.1,0,0.1,0.1,0.1c-0.9,0.8-1.8,1.5-2.6,2c0.1,0.1,0.2,0.1,0.4,0.2c-1.8,1.8-3.1,3.8-4.2,6.1
		c-1.2-0.5-2.6-0.7-4.2-0.5c-0.1,0.1-0.2,0.2-0.3,0.4c-1.2,1.6-1.3,3.3-0.1,5c0.6,0.9,1.1,1.8,1.7,2.6c0.1,0.2,0.2,0.2,0.4,0.3
		c0.1,0,0.2,0,0.2,0.1c-0.1,1.1-0.2,2.3-0.3,3.5c0,1.6,0.1,3.3,0.4,4.9c-3.1-1.4-6.6-2.3-10.5-2.8c-0.1,0.1-0.2,0.2-0.4,0.2
		c-0.3,0.2-0.7,0.4-1,0.6c-0.3,0.2-0.6,0.5-0.8,0.7c-0.5,1.9-0.6,3.9-0.2,6c1.2,6,3.6,10.4,7.4,13.2c-2,0.5-3.5,1.5-4.4,2.9
		c0.1,0.2,0.1,0.2,0.1,0.2c2.2-0.5,3.9-1.4,5-2.6c0.7,0.5,1.6,0.9,2.4,1.3c-1.8,0.5-3.1,1.4-4,2.8c0.2,0,0.3,0.1,0.4,0.1
		c2.9-0.7,4.4-1.5,4.6-2.4c1.1,0.3,2.2,0.6,3.4,0.9c-1.4,0.3-2.3,1-2.9,2.1c0.2,0.1,0.4,0.1,0.6,0.1c1.6-0.7,3.3-1.3,5-1.8
		c1.4,0.1,2.9,0.1,4.4,0.1c-1,0.7-2,1.4-3,2.2c3.5-0.9,7.2-2.3,11.3-4.1c1.9-0.9,3.1-1.7,3.6-2.6c1.2,0.2,2.3,0.3,3.5,0.4
		c-4.2,1.4-7.6,3.5-10.2,6.3c1.2,0.1,2.6-0.2,4-0.9c3.7-1.7,6.1-3.5,7.4-5.3c0.3,0,0.7,0,1,0.1c0.2,0,0.3,0,0.4,0
		c1.4-0.1,2.7-0.3,4.1-0.6c-3.5,1.5-6,3.6-7.4,6.5c0.2,0,0.4,0,0.6-0.1c3.4-2.5,7-4.9,10.8-7c0.4-0.1,0.7-0.1,1.1,0
		c0.2-0.1,0.5-0.2,0.8-0.2c-0.3,0.5-0.1,1,0.4,1.3c1.3,0.8,2.5,1.5,3.8,2c-1.9,0.8-3.5,1.8-4.7,3.2c0.8,0.6,1.7,0.6,2.9,0
		c1.9-1,3-1.8,3.3-2.6c1,0.4,2,0.7,3.1,1c-0.9,0.6-1.5,1.3-1.9,2.1c0.2,0.1,0.3,0.1,0.4,0.1c1.3-0.6,2.5-1.2,3.5-2
		c2.6,0.3,5.1,0.1,7.8-0.5c-1.9,0.9-3.7,2-5.4,3.2c3.1-1.2,6.4-2.4,9.9-3.6c4.7-1.5,7.9-3.3,9.8-5.3c-0.1,0.1-0.2,0.1-0.3,0.2
		c-2.3,0.6-4.5,1.3-6.7,2.1c1-0.6,1.9-1.3,2.9-2c1.7-1.6,2.7-3.5,3-5.7C82.247,65.1,82.147,64.1,81.947,63.1z M78.847,63.6
		c0.3,0.1,0.5,0.2,0.7,0.4c0.7,0.8,0.8,1.6,0.1,2.5c-4.7,6.1-10.3,9.2-16.7,9.4c0.1-0.1,0.2-0.2,0.3-0.4c-0.2,0-0.4,0-0.6,0
		c-0.3,0.1-0.6,0.3-0.9,0.4c-3.2-0.1-6.7-1-10.3-2.5c0-0.1,0-0.2,0-0.3c3.3-5.1,7.7-8.3,13.4-9.5c0.1,0.1,0.3,0.2,0.4,0.3
		c0.2-0.2,0.3-0.4,0.4-0.5c2.4-0.5,4.9-0.6,7.6-0.4C75.147,63,77.047,63.2,78.847,63.6z M24.447,31.8c-0.1-0.1-0.2-0.2-0.3-0.3
		c9.2-5.7,19.1-6.3,29.8-1.9c3.7,1.6,6.9,3.6,9.6,6.1c-0.1,0-0.2,0.1-0.2,0.2c0.3,0.4,0.7,0.9,1.1,1.4c0.1,0.1,0.1,0.2,0.1,0.3
		l-0.2,0.2c2.4,3.4,3.7,7.9,3.7,13.4c0,3.7-1.2,7.1-3.6,10c-5.4,1.5-9.8,4.7-13.1,9.5c0-0.1,0-0.2,0-0.3c-6.8,2.5-14.4,2.4-22.9-0.3
		c-3.3-5.8-7.7-10.1-13.3-12.9c-1.1-3.1-1.4-6.4-0.8-9.8c0.1,0,0.1,0,0.1,0s0,0,0-0.1c0.3-1.8,0.9-3.7,1.7-5.7
		c0.1-0.1,0.2-0.2,0.4-0.4c0.1-0.1,0.2-0.2,0.4-0.3c0-0.2,0.1-0.3,0.2-0.4c0-0.1,0-0.2,0-0.4c0-0.1,0-0.2,0.1-0.3
		c0-0.2,0.1-0.3,0.2-0.4c0.8-0.7,1.5-1.5,2.1-2.4c1.1-1.6,2.3-3,3.7-4.2c0,0,0.1,0,0.2,0c0-0.1,0-0.1,0-0.2
		C23.747,32.3,24.047,32.1,24.447,31.8z M14.747,41.4c-0.6,1.4-1,2.9-1.3,4.6c-0.5-0.6-0.9-1.3-1.2-2c-0.5-0.8-0.7-1.7-0.7-2.6
		c0.1-0.1,0.2-0.2,0.3-0.2C12.947,41.5,13.947,41.6,14.747,41.4z M29.347,72L29.347,72c0.7,0.2,1.4,0.4,2,0.7c0.1,0,0.2,0,0.3,0.1
		c-0.8,0.3-1.5,0.6-2.3,1c0.1-0.5,0.1-0.9,0.2-1.4C29.447,72.3,29.447,72.2,29.347,72z M26.947,72c0.3,0.8,0.3,1.3-0.3,1.5
		c-7.7,4.4-14.7,3.2-20.9-3.5c-4.5-4.9-5.3-9.8-2.6-14.7c3.7,0.6,7.3,1.9,10.9,3.7C19.947,61.9,24.247,66.2,26.947,72z M69.347,46.2
		v-0.1c-0.2-1.2-0.5-2.2-0.8-3.3c0.6,0.1,1.3,0.1,2,0c0.2-0.1,0.4,0,0.6,0.1c0.4,0.7,0.1,1.5-0.8,2.2
		C69.947,45.4,69.647,45.8,69.347,46.2z"/>
	<path style="fill:#3172A1;" d="M24.447,45.8c0,0,0,0,0.1,0c0,0.3,0.1,0.6,0.1,1c0.3-0.5,0.6-1,0.9-1.5c11.1-4.8,21.8-3.5,31.9,3.9
		c0.4,0.7,1,1.4,1.7,1.8c0.2-0.6,0.2-1.3,0.3-1.9V49v-0.1c0-2.1-0.5-4.1-1.6-6c-1.2-2.2-2.7-4.1-4.6-5.8c-0.2,0-0.4-0.1-0.6-0.2
		c-0.1,0-0.2,0-0.4,0c0-0.1-0.1-0.2-0.2-0.2c-4.2-2.7-8.8-3.9-13.9-3.7c-2.8,0.6-5.5,1.7-8.1,3.3c-4.1,2.7-6,5.8-5.6,9.3
		C24.447,45.7,24.447,45.7,24.447,45.8z M26.747,43.4c0.2-0.3,0.4-0.5,0.5-0.7c6.4-8.6,14.5-10.1,24.3-4.6c0.4,0.7,1,1.2,1.5,1.7
		c1.9,1.6,2.9,3.6,3.3,6c0,0.2,0,0.4,0.1,0.5c-1.8-1.3-3.7-2.4-5.7-3.2c-2.3-3.4-5.6-4.8-10.1-4.3c-1.5,0.3-3,1-4.3,1.9
		c-0.1,0.1-0.2,0.2-0.3,0.2c-0.3,0.1-0.6,0.1-0.9,0.1C32.347,41.4,29.547,42.1,26.747,43.4z M38.147,40.8c3.9-1.1,7.8-0.5,11.4,1.8
		C46.047,41.3,42.147,40.7,38.147,40.8z"/>
	<path d="M64.347,37.8l0.2-0.2c-0.5-0.4-0.9-0.8-1.4-1.2C63.547,36.8,63.947,37.3,64.347,37.8z"/>
	<path style="fill:#3172A1;" d="M80.947,75.3c-0.1,0-0.2,0-0.3,0c-3.8,1-6.9,3.1-9.2,6.1c0.2,0,0.4,0,0.6-0.1
		C75.947,79.5,78.847,77.5,80.947,75.3z"/>
	<path style="fill:#3172A1;" d="M65.947,15.3c-0.4-0.1-0.8-0.2-1.2-0.3c-0.7-0.1-1.4-0.2-2.1-0.4c-1,0.4-2,1-3,1.9
		c-1.9,1.8-3.4,3.6-4.6,5.5l0.1,0.4c3.8-2,7.8-3.3,12.1-4.1c0.2-0.8,0-1.4-0.3-2C66.647,15.9,66.347,15.6,65.947,15.3z M61.647,16.7
		c0.5-0.2,1-0.4,1.5-0.6c0.1,0,0.2,0,0.4,0c0.9,0.2,1.7,0.6,2.4,1.3c-2.3,0.4-4.5,0.9-6.7,1.5c0.3-0.3,0.6-0.5,0.9-0.8
		c0.3-0.3,0.5-0.7,0.8-1.1C61.147,16.9,61.447,16.8,61.647,16.7z"/>
	<path style="fill:#3172A1;" d="M22.647,3.2c-0.2,0.9-0.1,1.7,0.1,2.6c0.3,0.2,0.5,0.5,0.8,0.7c0.2,0.3,0.5,0.5,0.7,0.8
		c0.5,0,0.9,0.1,1.3,0.2c0.3,0.4,0.6,0.7,0.9,1.1c0.6,1.1,1.3,1.5,2.2,1.4c0.1-0.1,0.3-0.2,0.3-0.4c0.3-4-1.5-6.7-5.3-8
		C23.247,1.9,22.847,2.4,22.647,3.2z M23.947,3.4c0.3-0.3,0.6-0.2,0.9,0.1c1.2,1.1,2,2.3,2.4,3.5c-0.1-0.1-0.2-0.1-0.4-0.2
		C24.747,6.3,23.847,5.1,23.947,3.4z"/>
	<path style="fill:#3172A1;" d="M19.447,5.8c-0.1-0.2-0.2-0.3-0.2-0.3c-3.4-3.1-7.2-4.9-11.6-5.5c-0.4,0.2-0.9,0.5-1.5,0.8
		c-0.1,0.1-0.2,0.2-0.3,0.4c-0.2,0.2-0.3,0.4-0.4,0.7c-0.2,0.6-0.1,1.1,0.3,1.5c0,0.1,0.1,0.2,0.2,0.3c0.2,0.3,0.5,0.6,0.7,0.8
		C11.547,5.5,15.847,5.9,19.447,5.8z M10.547,2.2c0,0.1,0.2,0.1,0.3,0.1c0.8,0.2,1.6,0.5,2.3,1c-1.8,0-3.6-0.2-5.4-0.4
		c-0.4-0.1-0.5-0.3-0.5-0.8C8.347,1.9,9.447,1.9,10.547,2.2z"/>
	<path style="fill:#3172A1;" d="M9.047,15.1c-0.1,0.1-0.2,0.2-0.3,0.2c-0.4,0.3-0.7,0.6-1.1,1c-0.1,0.1-0.2,0.2-0.2,0.3
		c0,0.3,0,0.5,0,0.8c0,0.2,0,0.5,0,0.7c0,0.2,0,0.3,0,0.4c1.3,1.8,3,2.3,5.1,1.4c3.7-1.5,7.2-1.9,10.4-1.3c0-0.1-0.1-0.2-0.1-0.2
		c-3.9-2.9-8.4-4-13.7-3.4C9.147,15.1,9.147,15.1,9.047,15.1z M9.847,18.7c-1.2-0.7-1.3-1.3-0.2-1.9c0.1,0,0.1,0,0.1,0
		c1.8,0,3.6,0,5.4,0.1c-1.4,1.2-3,1.9-4.9,2C10.047,18.8,10.047,18.8,9.847,18.7z"/>
	<path style="fill:#3172A1;" d="M10.047,27.8c0.1-0.2,0.2-0.3,0.4-0.3c2.9-1.5,3.8-2.7,2.7-3.6c-5.6,0.4-8.4,2.9-8.2,7.5
		c0.8,0.8,1.8,0.9,3.1,0.4c0.3-0.3,0.6-0.7,0.8-1C9.347,29.8,9.747,28.8,10.047,27.8z M9.047,27c-0.2,0.2-0.3,0.3-0.4,0.4
		c0,0.2-0.1,0.5-0.1,0.7c-0.3,1.5-1.1,2.2-2.4,2.3c-0.3-0.3-0.4-0.7-0.3-1.3c0.2-0.3,0.5-0.7,0.8-1c0.1-0.1,0.2-0.2,0.3-0.3
		c0.7-0.4,1.5-0.8,2.2-1.2h0.1C9.247,26.8,9.147,26.9,9.047,27z"/>
	<path style="fill:#3172A1;" d="M28.747,14.6c-0.1-0.1-0.2-0.2-0.3-0.3c-0.8,0-1.5-0.1-2.3-0.2c-0.1,0.2-0.3,0.2-0.4,0.4
		c-0.2,0.5-0.3,1.1-0.2,1.8c0,0.2,0,0.5,0,0.7c0.5,0.5,1,1,1.5,1.5c0.2,0.3,0.5,0.5,0.7,0.8c0.5,0,0.9,0.1,1.3,0.2
		c0.6,0.6,1.1,1.3,1.5,1.8c0.6,1,1.3,1.1,2.1,0.5c-0.1-0.9-0.4-1.7-0.7-2.6c-0.2-0.4-0.3-1-0.2-1.6c-0.4-0.5-0.8-1-1.2-1.5
		c-0.2-0.2-0.3-0.5-0.4-0.7C29.747,15.1,29.247,14.9,28.747,14.6z M26.747,15.6c0.3,0,0.5,0,0.7,0.1c1.3,0.6,2.3,1.4,3,2.7
		c-0.2,0-0.2,0.1-0.3,0C28.247,18.2,27.147,17.3,26.747,15.6z"/>
	<path style="fill:#3172A1;" d="M4.747,80.6c0.1,0.2,0.1,0.2,0.1,0.2c0.3,0,0.6-0.1,0.8-0.2c-0.2,0-0.4-0.1-0.7-0.1
		C4.947,80.5,4.847,80.6,4.747,80.6z"/>
	<path style="fill:#3172A1;" d="M50.647,74.3L50.647,74.3c-2.7,1-5,2.5-7,4.5c1,0.4,2,0.3,3.2-0.3
		C49.847,77,51.147,75.5,50.647,74.3z"/>
</g>
</svg>
