<?xml version="1.0" encoding="iso-8859-1"?>
<!-- Generator: Adobe Illustrator 12.0.1, SVG Export Plug-In . SVG Version: 6.00 Build 51448)  -->
<!DOCTYPE svg PUBLIC "-//W3C//DTD SVG 1.1//EN" "http://www.w3.org/Graphics/SVG/1.1/DTD/svg11.dtd" [
	<!ENTITY ns_svg "http://www.w3.org/2000/svg">
	<!ENTITY ns_xlink "http://www.w3.org/1999/xlink">
]>
<svg  version="1.1" id="Layer_1" xmlns="&ns_svg;" xmlns:xlink="&ns_xlink;" width="83.147" height="73.4"
	 viewBox="0 0 83.147 73.4" style="overflow:visible;enable-background:new 0 0 83.147 73.4;" xml:space="preserve">
<g>
	<g>
		<path style="fill:#3172A1;" d="M78.747,5.4c0-1-0.5-1.8-1.4-2.3c-0.2-0.1-0.3-0.2-0.4-0.3c-1.5,0-2.9-0.1-4.3-0.2
			c-3,0.9-5.9,2.3-8.6,4c-0.1,0.7-0.3,1.2-0.6,1.7c-0.1,0-0.1,0.1,0,0.2c4.4-0.6,9-1,14-1.2c0.6-0.4,1-0.9,1.3-1.5
			C78.747,5.6,78.747,5.5,78.747,5.4z M77.047,4.8l0.2,0.3c-3.1,1.5-6,1.7-8.7,0.7c0.1-0.1,0.1-0.2,0.3-0.2c1.4-0.6,2.8-1.1,4.3-1.5
			c0.1,0,0.1,0,0.1,0C74.847,3.5,76.047,3.8,77.047,4.8z"/>
		<path style="fill:#3172A1;" d="M76.347,16.8c0,0,0.1-0.1,0.1-0.3c0-0.1-0.1-0.2-0.1-0.3c-1-2.3-2.9-3.3-5.7-3.2c-3,0-5.5,1-7.5,3
			c0.4,0.1,0.7,0.1,1,0.1c0.2,0,0.4,0,0.5-0.1c0,0.2,0.2,0.2,0.3,0.3c0.2,0.1,0.5,0.2,0.7,0.2c3,0.1,6.3,0.6,9.5,1.5
			c0.2-0.1,0.4-0.3,0.6-0.4C75.947,17.4,76.147,17.1,76.347,16.8z M74.547,16.3c-0.3,0-0.5,0-0.7,0c-1.9-0.4-3.6-0.9-5.2-1.7
			C71.147,14,73.047,14.5,74.547,16.3z"/>
		<path style="fill:#3172A1;" d="M81.947,55.1c-0.4-0.3-0.8-0.6-1.3-0.7c-4.4-0.9-8-1.7-11-2.3c-0.6,0.1-1.3,0.2-2,0.3
			c1.9-3.6,2.6-7.9,1.9-12.7c0.7,0,1.3-0.2,1.9-0.9c1.3-1.3,1.7-2.9,1.2-4.8c-0.1-0.1-0.3-0.2-0.5-0.2c-1.2-0.3-2.3-0.5-3.5-0.7
			c0,0.1,0,0.1,0,0.1c-0.3,0.1-0.5,0.1-0.6,0.3c-0.4-0.8-0.7-1.5-1.1-2.2c0,0,0,0,0-0.1c-0.1-0.6-0.3-1.2-0.5-1.8
			c-0.5-0.9-1-1.6-1.6-2.3c-0.3-0.2-0.5-0.4-0.8-0.6c-0.5-0.4-0.8-1-0.9-1.6c-0.3-0.1-0.5-0.3-0.8-0.5c-7.7-6-16.8-8.6-27.2-7.5
			c-2.5,0.5-5.1,1.2-7.8,2.1c-1.6,0.5-2.9,1.4-4,2.6c0,0,0,0,0-0.1c-0.2,0.1-0.3,0.1-0.4,0.2c-0.2,0.4-0.4,0.8-0.7,1.3
			c-0.2,0.2-0.4,0.4-0.6,0.6c0,0.1,0,0.1,0.1,0.1c-0.9,0.8-1.8,1.5-2.6,2c0.1,0.1,0.2,0.1,0.4,0.2c-1.8,1.8-3.1,3.8-4.2,6.1
			c-1.2-0.5-2.6-0.7-4.2-0.5c-0.1,0.1-0.2,0.2-0.3,0.4c-1.2,1.6-1.3,3.3-0.1,5c0.6,0.9,1.1,1.8,1.7,2.6c0.1,0.2,0.2,0.2,0.4,0.3
			c0.1,0,0.2,0,0.2,0.1c-0.1,1.1-0.2,2.3-0.3,3.5c0,1.6,0.1,3.3,0.4,4.9c-3.1-1.4-6.6-2.3-10.5-2.8c-0.1,0.1-0.2,0.2-0.4,0.2
			c-0.3,0.2-0.7,0.4-1,0.6c-0.3,0.2-0.6,0.5-0.8,0.7c-0.5,1.9-0.6,3.9-0.2,6c1.2,6,3.6,10.4,7.4,13.2c-2,0.5-3.5,1.5-4.4,2.9
			c0.1,0.2,0.1,0.2,0.1,0.2c2.2-0.5,3.9-1.4,5-2.6c0.7,0.5,1.6,0.9,2.4,1.3c-1.8,0.5-3.1,1.4-4,2.8c0.2,0,0.3,0.1,0.4,0.1
			c2.9-0.7,4.4-1.5,4.6-2.4c1.1,0.3,2.2,0.6,3.4,0.9c-1.4,0.3-2.3,1-2.9,2.1c0.2,0.1,0.4,0.1,0.6,0.1c1.6-0.7,3.3-1.3,5-1.8
			c1.4,0.1,2.9,0.1,4.4,0.1c-1,0.7-2,1.4-3,2.2c3.5-0.9,7.2-2.3,11.3-4.1c1.9-0.9,3.1-1.7,3.6-2.6c1.2,0.2,2.3,0.3,3.5,0.4
			c-4.2,1.4-7.6,3.5-10.2,6.3c1.2,0.1,2.6-0.2,4-0.9c3.7-1.7,6.1-3.5,7.4-5.3c0.3,0,0.7,0,1,0.1c0.2,0,0.3,0,0.4,0
			c1.4-0.1,2.7-0.3,4.1-0.6c-3.5,1.5-6,3.6-7.4,6.5c0.2,0,0.4,0,0.6-0.1c3.4-2.5,7-4.9,10.8-7c0.4-0.1,0.7-0.1,1.1,0
			c0.2-0.1,0.5-0.2,0.8-0.2c-0.3,0.5-0.1,1,0.4,1.3c1.3,0.8,2.5,1.5,3.8,2c-1.9,0.8-3.5,1.8-4.7,3.2c0.8,0.6,1.7,0.6,2.9,0
			c1.9-1,3-1.8,3.3-2.6c1,0.4,2,0.7,3.1,1c-0.9,0.6-1.5,1.3-1.9,2.1c0.2,0.1,0.3,0.1,0.4,0.1c1.3-0.6,2.5-1.2,3.5-2
			c2.6,0.3,5.1,0.1,7.8-0.5c-1.9,0.9-3.7,2-5.4,3.2c3.1-1.2,6.4-2.4,9.9-3.6c4.7-1.5,7.9-3.3,9.8-5.3c-0.1,0.1-0.2,0.1-0.3,0.2
			c-2.3,0.6-4.5,1.3-6.7,2.1c1-0.6,1.9-1.3,2.9-2c1.7-1.6,2.7-3.5,3-5.7C82.247,57.1,82.147,56.1,81.947,55.1z M78.847,55.6
			c0.3,0.1,0.5,0.2,0.7,0.4c0.7,0.8,0.8,1.6,0.1,2.5c-4.7,6.1-10.3,9.2-16.7,9.4c0.1-0.1,0.2-0.2,0.3-0.4c-0.2,0-0.4,0-0.6,0
			c-0.3,0.1-0.6,0.3-0.9,0.4c-3.2-0.1-6.7-1-10.3-2.5c0-0.1,0-0.2,0-0.3c3.3-5.1,7.7-8.3,13.4-9.5c0.1,0.1,0.3,0.2,0.4,0.3
			c0.2-0.2,0.3-0.4,0.4-0.5c2.4-0.5,4.9-0.6,7.6-0.4C75.147,55,77.047,55.2,78.847,55.6z M24.447,23.8c-0.1-0.1-0.2-0.2-0.3-0.3
			c9.2-5.7,19.1-6.3,29.8-1.9c3.7,1.6,6.9,3.6,9.6,6.1c-0.1,0-0.2,0.1-0.2,0.2c0.3,0.4,0.7,0.9,1.1,1.4c0.1,0.1,0.1,0.2,0.1,0.3
			l-0.2,0.2c2.4,3.4,3.7,7.9,3.7,13.4c0,3.7-1.2,7.1-3.6,10c-5.4,1.5-9.8,4.7-13.1,9.5c0-0.1,0-0.2,0-0.3
			c-6.8,2.5-14.4,2.4-22.9-0.3c-3.3-5.8-7.7-10.1-13.3-12.9c-1.1-3.1-1.4-6.4-0.8-9.8c0.1,0,0.1,0,0.1,0s0,0,0-0.1
			c0.3-1.8,0.9-3.7,1.7-5.7c0.1-0.1,0.2-0.2,0.4-0.4c0.1-0.1,0.2-0.2,0.4-0.3c0-0.2,0.1-0.3,0.2-0.4c0-0.1,0-0.2,0-0.4
			c0-0.1,0-0.2,0.1-0.3c0-0.2,0.1-0.3,0.2-0.4c0.8-0.7,1.5-1.5,2.1-2.4c1.1-1.6,2.3-3,3.7-4.2c0,0,0.1,0,0.2,0c0-0.1,0-0.1,0-0.2
			C23.747,24.3,24.047,24.1,24.447,23.8z M14.747,33.4c-0.6,1.4-1,2.9-1.3,4.6c-0.5-0.6-0.9-1.3-1.2-2c-0.5-0.8-0.7-1.7-0.7-2.6
			c0.1-0.1,0.2-0.2,0.3-0.2C12.947,33.5,13.947,33.6,14.747,33.4z M29.347,64L29.347,64c0.7,0.2,1.4,0.4,2,0.7c0.1,0,0.2,0,0.3,0.1
			c-0.8,0.3-1.5,0.6-2.3,1c0.1-0.5,0.1-0.9,0.2-1.4C29.447,64.3,29.447,64.2,29.347,64z M26.947,64c0.3,0.8,0.3,1.3-0.3,1.5
			c-7.7,4.4-14.7,3.2-20.9-3.5c-4.5-4.9-5.3-9.8-2.6-14.7c3.7,0.6,7.3,1.9,10.9,3.7C19.947,53.9,24.247,58.2,26.947,64z
			 M70.547,34.8c0.2-0.1,0.4,0,0.6,0.1c0.4,0.7,0.1,1.5-0.8,2.2c-0.4,0.3-0.7,0.7-1,1.1v-0.1c-0.2-1.2-0.5-2.2-0.8-3.3
			C69.147,34.9,69.847,34.9,70.547,34.8z"/>
		<path style="fill:#3172A1;" d="M29.747,28.7c-2.1,2-3.9,4.2-5.2,6.7c-0.1,0.1-0.1,0.2-0.1,0.4c-1.1,2.7-1.6,5.6-1.6,8.6
			c0,0.9,0.2,1.8,0.6,2.6c11.7-2,23.2-1.4,34.3,1.8c2.2-4.3,2.3-8.7,0.4-13.4c-3.4-8.1-10-11.8-20-10.9
			C35.047,25.2,32.247,26.6,29.747,28.7z M38.647,26.3c2.1-0.1,4.2-0.1,6.4-0.2c0.4,0.3,0.8,0.5,1.3,0.7
			c9.6,3.8,13.1,10.5,10.3,20.1c-2.2-0.7-4.5-1.2-6.8-1.7c-2.1-4.3-6-6-11.7-5c-1.3,0.2-2.7,0.7-4,1.5c-0.2,0.1-0.4,0.2-0.6,0.3
			c-0.2,0.5-0.4,0.9-0.8,1.3c-0.3,0.4-0.5,0.7-0.4,1.1c-2.6,0.3-5.1,0.6-7.6,1.1c0-0.1-0.1-0.2-0.1-0.3
			C24.447,35.5,29.147,29.2,38.647,26.3z M33.947,44.2c5.2-3.4,10.2-3.2,15.1,0.8C44.047,44.2,39.047,43.9,33.947,44.2z"/>
		<path d="M64.347,29.8l0.2-0.2c-0.5-0.4-0.9-0.8-1.4-1.2C63.547,28.8,63.947,29.3,64.347,29.8z"/>
		<path style="fill:#3172A1;" d="M80.947,67.3c-0.1,0-0.2,0-0.3,0c-3.8,1-6.9,3.1-9.2,6.1c0.2,0,0.4,0,0.6-0.1
			C75.947,71.5,78.847,69.5,80.947,67.3z"/>
		<path style="fill:#3172A1;" d="M62.647,1.8c-0.1-0.2-0.2-0.3-0.4-0.4c-1.2-0.8-2.6-1.3-4.1-1.4c-2,1-3.6,2.4-4.7,4.5
			c-1.7,2.9-2.2,5.9-1.5,9.1c0.2,0,0.3-0.1,0.5-0.2c0.1-0.1,0.2-0.4,0.3-0.6c0-0.3,0-0.5,0-0.8c0.3-0.2,0.5-0.4,0.8-0.6
			c2.9-3,6.2-5.5,9.9-7.4c-0.1-0.2-0.3-0.5-0.3-0.7c-0.1-0.3-0.2-0.5-0.2-0.8C62.847,2.3,62.647,2,62.647,1.8z M58.147,2
			c0.1,0,0.2,0,0.4-0.1c1.4-0.2,2.3,0.2,2.9,1.4c-2.1,1.7-4.6,3.1-7.5,4.3c0.2-0.2,0.4-0.5,0.6-0.7c0.3-0.5,0.4-1,0.5-1.5
			c0.1-0.1,0.2-0.3,0.3-0.4C56.047,3.8,56.947,2.8,58.147,2z"/>
		<path style="fill:#3172A1;" d="M33.447,11.8c0.1-0.2,0.1-0.3,0.2-0.4c0-4.9-2.3-7.8-7-8.8c0,0.1,0,0.2,0,0.2
			c-0.9,0.2-1.4,0.8-1.2,1.9c0.1,0.3,0.1,0.7,0.1,1.1C29.047,7.2,31.747,9.2,33.447,11.8z M28.647,4.1c0.8,0.8,1.5,1.5,2.3,2.3
			c-0.2,0-0.2,0.1-0.3,0.1c-2.5,0-3.6-0.8-3.5-2.4C27.647,4.1,28.147,4.1,28.647,4.1z"/>
		<path style="fill:#3172A1;" d="M10.947,6.1c0,0.4,0,0.8,0,1.2c-0.1,0.8,0.1,1.5,0.5,2.2c0.1,0.1,0.1,0.3,0.3,0.4
			c1.6,0.7,3.1,0.6,4.4-0.4c1.5-1.1,3.2-1.7,5-1.7c0.5,0.7,1.2,1,2,1c0.1,0,0.2-0.1,0.4-0.2c0,0,0-0.1-0.1-0.2
			c-2.3-3.5-5.9-4.8-10.8-3.9c-0.1,0.1-0.2,0.1-0.3,0.2c-0.4,0.3-0.8,0.7-1.2,1.1C11.047,5.9,10.947,6,10.947,6.1z M17.747,6.4
			c-1.2,1-2.7,1.9-4.5,2.4c-0.1-0.1-0.2-0.2-0.3-0.3c-0.9-0.9-0.8-1.7,0.2-2.2C14.947,5.1,16.547,5.2,17.747,6.4z"/>
		<path style="fill:#3172A1;" d="M18.747,12.9c-0.1,0.1-0.2,0.2-0.2,0.4c0,0.3,0,0.7,0,1.1s0,0.7,0.1,1.1c0.1,0.1,0.1,0.3,0.3,0.4
			c0.7,0.1,1.4,0.1,2.1,0c2.2-0.6,4.2-0.9,6-0.8c0-0.1,0-0.2-0.1-0.3c-1.4-2.5-3.7-3.5-6.8-3.2c-0.2,0.1-0.5,0.3-0.7,0.5
			C19.147,12.4,18.947,12.7,18.747,12.9z M23.247,13.8c-0.2,0.1-0.4,0.2-0.6,0.3c-2.8,1.3-3.5,1-2-1
			C22.747,13,23.647,13.2,23.247,13.8z"/>
		<path style="fill:#3172A1;" d="M4.947,72.5c0,0-0.1,0.1-0.2,0.1c0.1,0.2,0.1,0.2,0.1,0.2c0.3,0,0.6-0.1,0.8-0.2
			C5.447,72.6,5.247,72.5,4.947,72.5z"/>
		<path style="fill:#3172A1;" d="M50.647,66.3L50.647,66.3c-2.7,1-5,2.5-7,4.5c1,0.4,2,0.3,3.2-0.3
			C49.847,69,51.147,67.5,50.647,66.3z"/>
	</g>
</g>
</svg>
