<?xml version="1.0" encoding="iso-8859-1"?>
<!-- Generator: Adobe Illustrator 12.0.1, SVG Export Plug-In . SVG Version: 6.00 Build 51448)  -->
<!DOCTYPE svg PUBLIC "-//W3C//DTD SVG 1.1//EN" "http://www.w3.org/Graphics/SVG/1.1/DTD/svg11.dtd" [
	<!ENTITY ns_svg "http://www.w3.org/2000/svg">
	<!ENTITY ns_xlink "http://www.w3.org/1999/xlink">
]>
<svg  version="1.1" id="Layer_1" xmlns="&ns_svg;" xmlns:xlink="&ns_xlink;" width="82.767" height="88.104"
	 viewBox="0 0 82.767 88.104" style="overflow:visible;enable-background:new 0 0 82.767 88.104;" xml:space="preserve">
<g>
	<path style="fill:#3172A1;" d="M82.5,45.503c-0.2-0.3-0.5-0.5-0.8-0.8c-0.1-0.1-0.3-0.2-0.4-0.4c-0.3,0-0.6-0.1-0.8-0.1
		c-0.7-0.1-1.3-0.1-2-0.1c-3.5,1.2-6.6,3.2-9.2,5.9c-0.1,0.2-0.3,0.4-0.4,0.6c-1.7,1.8-3,3.6-3.9,5.5c1.3-4.5,0.8-9.5-1.6-14.8
		c-0.9-2.2-2.1-4.2-3.6-5.9c0.3,0.2,0.6,0.4,1,0.6c-0.1-0.1-0.3-0.2-0.3-0.2c-0.7-0.6-1.3-1.1-2-1.6c-0.9-1-1.9-1.8-2.9-2.5
		c0.3-0.1,0.4-0.3,0.7-0.6c-0.3-0.6-0.6-1.2-1-1.7c-1-1.2-1.3-2.6-0.9-4.3c0.8-0.6,1.4-1.4,1.7-2.3c-0.1-0.1-0.2-0.1-0.4-0.2
		c-3.3-0.4-5.2-1.8-5.8-4.1c1.7,0.3,3.2,0.1,4.7-0.7c0.1-0.1,0.1-0.2,0.1-0.3c-0.9-5.5-4.3-8.4-10.2-8.8c-0.7,0.2-1,0.7-1.1,1.5
		c0,1.1,0.1,2.1,0.4,3c0.1,0.2,0.2,0.3,0.4,0.4c0.4,0.3,0.6,0.7,0.7,1.1c-0.8,0.9-1.6,1.8-2.5,2.5c-2.4,2.4-3.6,5-3.8,8
		c-0.1-0.1-0.2-0.1-0.2-0.2c-0.1,0.5-0.1,0.8,0,1.2c-0.1-0.1-0.2-0.1-0.3-0.1c0.1,0.4,0.2,0.7,0.4,1.1c-3.4-0.5-6.9-0.1-10.4,1
		c-0.3,0.3-0.7,0.6-1.1,0.8c-0.1-0.2-0.2-0.5-0.3-0.7c-0.1-0.1-0.1-0.2-0.1-0.2l-0.1,0.1c-0.1-0.1-0.2-0.2-0.4-0.2
		c-4.7-4.3-10.2-5.3-16.5-3c-0.3-0.5-0.8-1-1.3-1.3c-0.5-0.3-1-0.6-1.5-0.8c-0.7,0.1-1.5,0.3-2.2,0.4c-1.5,2-1.4,4.3,0.3,6.8
		c1.3,1.9,3,3.2,5.4,3.9c0.8-0.1,1.5-0.3,2.3-0.6c0.2,0,0.3-0.1,0.5-0.3c-0.1-0.9-0.2-1.8-0.5-2.6c-0.1-0.4-0.2-0.7-0.3-1.1
		c0.2,0.1,0.4,0.1,0.6,0.3c0.2,0.2,0.4,0.4,0.6,0.5c0.5,0.4,0.7,0.8,0.8,1.4c-0.1,0.2-0.1,0.3-0.1,0.4c-0.7,1.2-1.4,2.2-2.2,3.2
		c0.7,0.7,1.4,1,1.9,1.1c-0.4,1.5-1.3,3-2.4,4.2c0.2,0.2,0.4,0.3,0.7,0.4c-3.1,5.2-4,11.4-2.5,18.5c0.4,2.1,1.1,4.1,2.1,5.8
		c1,1.9,2.1,3.5,3.5,4.9h-0.1c-0.5,0.2-1,0.6-1.4,1.1c0,0.7,0,1.3,0,1.9c0,0.4,0,0.8,0,1.1c0.1,0.2,0.2,0.3,0.3,0.4
		c0.5,0.6,0.9,1.1,1.3,1.5c-5.2,0-9.8,1.6-13.9,4.8c0,0.2,0,0.3,0,0.4c-0.1,0.8,0,1.6,0.3,2.3c0,0.1,0,0.1,0.1,0.1
		c-0.8,0.3-1.4,0.9-1.9,1.5c1.2,0.1,2.2-0.1,3.2-0.4c0.9,0.1,1.8,0.3,2.6,0.4c-1.3,0.5-2.6,1.2-3.7,2.1c0.1,0.2,0.1,0.2,0.1,0.2
		c2.2-0.5,4.3-1.1,6.6-1.9c1,0.1,2,0.2,2.9,0.3c-1.6,0.4-3.1,1-4.4,1.7c2.5-0.1,5.1-0.6,7.6-1.6c2,0,4-0.1,6.1-0.3
		c-2.3,0.8-4.5,1.5-6.7,2.4c0.2,0,0.4,0,0.7,0c8.4-1.9,16.7-4.1,24.8-6.5c1.6-0.1,3.2-0.2,4.8-0.5c-0.4,0.2-0.9,0.4-1.5,0.5
		c-5.7,1.3-11,3.2-16.1,5.6c5.5-1,11.2-2.5,17.3-4.5c0.7-0.1,1.5-0.3,2.3-0.4l0,0l0,0c0.3-0.1,0.6-0.2,0.8-0.2
		c3.7-1,6.6-2.2,8.7-3.9c-0.1,0-0.2,0-0.3,0c-0.6,0.1-1.2,0.2-1.7,0.3l0,0c0-0.2,0-0.3-0.1-0.3c-2.9-2.5-6.2-4.1-9.8-4.6
		c4.2-1.1,7.9-3,11.1-5.7c1.1-0.7,2.2-1.4,3.2-2.2c0.8-0.1,1.5-0.2,2.4-0.2c0.3,0.5,0.6,1.1,0.7,1.8c0.1,0.2,0.1,0.4,0.2,0.6
		c-1.4,1.8-0.9,4.1,1.3,6.8c0.8,1,1.6,1.2,2.5,0.7C78.5,69.003,84.1,59.003,82.5,45.503z M80.8,46.204c0.3,0.6,0.6,1.3,0.8,1.9
		c0,0.3,0.1,0.5,0.2,0.7c-0.6,11.8-6.1,20.3-16.5,25.5c-0.7-0.1-1.3-0.4-1.7-1c-0.1-0.1-0.1-0.2-0.2-0.3c-0.4-0.8-0.6-1.5-0.7-2.3
		c-0.1-0.1-0.2-0.3-0.2-0.5c0.2-0.4,0.4-0.9,0.5-1.4c0.2-1.3,0-2.5-0.5-3.7c-0.2-0.3-0.5-0.5-0.8-0.7c-0.2-0.2-0.3-0.3-0.4-0.4
		c-0.3,0-0.6,0-0.8-0.1c1.2-1.4,2.2-2.8,3-4.3c-0.6,2.2-0.8,4.5-0.5,6.7C65.5,56.104,71.4,49.403,80.8,46.204z M44.9,10.604
		c0.3-0.1,0.7-0.1,1-0.1c3.8,0.9,6.1,2.9,6.9,6.1c-0.9,0.1-1.9,0.2-3,0.1v-0.1c-0.3-0.1-0.5-0.1-0.6,0.1c-0.6-0.1-1.3-0.2-2.1-0.4
		c-1,0.7-1.9,1.3-2.8,1.9c-0.7,1.4-1.1,2.8-1.2,4.2c-0.2,1.6-0.3,3.1-0.3,4.6c-0.3-0.1-0.6-0.2-0.8-0.3c-0.1,0-0.1,0-0.1,0.1
		c-0.1,0.5-0.1,0.8-0.1,1.1c-0.1,0.1,0,0.3,0.5,0.6l0,0c0,0.1-0.1,0.1-0.1,0.1c0.1,0,0.3,0,0.4,0.1c5.1,1.2,9.7,2.9,13.9,5
		c0.2,0.1,0.3,0.3,0.3,0.4l-0.2,0.2c3.3,2.8,5.4,6.9,6.7,12.2c1,4.1,0.4,8-1.8,11.6c-2.3,4-5.1,7.2-8.3,9.7
		c-4.2,2.5-8.7,4.4-13.5,5.5c-1.4,0.1-2.8,0.3-4.2,0.5c-0.1,0.1-0.2,0.2-0.3,0.3c-0.1,0-0.1,0-0.2,0c-1.9,0.1-3.9,0.1-6,0
		c-4-0.3-7.6-1.7-10.7-4.1c-6.6-5.2-9.2-12.1-7.6-20.8c0.1-0.2,0.2-0.4,0.3-0.5c0.1-0.2,0.2-0.3,0.3-0.4c0-0.2,0-0.3,0.1-0.5
		c0-0.1,0-0.2-0.1-0.3c0-0.2,0-0.3,0-0.4s0.1-0.3,0.1-0.4c0.7-0.9,1.2-1.8,1.6-2.8c1.8-4.9,4.9-8.7,9.3-11.1l-0.1-0.2
		c0-0.3,0-0.5,0-0.8c0-0.1,0.1-0.2,0.1-0.3c0,0-0.1-0.1-0.2-0.1c0-0.2,0-0.3-0.1-0.4c0,0.1-0.1,0.1-0.2,0.1c0-0.6-0.2-1.1-0.6-1.6
		c-0.3-0.3-0.6-0.6-0.9-0.9c-0.1-0.1-0.3-0.2-0.4-0.3c-2.3-0.9-4.7-1.3-7.2-1l0,0c-0.1,0.2-0.2,0.3-0.4,0.4c-0.4,0.3-0.7,0.6-1,1
		c0.2-0.1,0.4-0.1,0.6-0.2c-0.1,0.1-0.2,0.1-0.4,0.2c0,0.1,0,0.1-0.1,0.1c-0.1,0-0.3,0-0.4,0c-0.2,0-0.4,0.1-0.6,0.3
		c0.3,0.7,0.6,1.4,0.9,2.1c0.2,0.4,0.3,0.7,0.4,1c-2.2,0.2-3.9-0.7-5.2-2.5c-0.9-1.2-1.4-2.6-1.3-4c-0.3-0.7,0.1-1.1,1.1-1.1
		c0.1,0,0.2,0.1,0.3,0.1c0.7,0.4,1.3,0.9,1.7,1.6c0.3,0.3,0.6,0.7,0.9,0.9c2.1-1.5,4.6-2.1,7.7-1.9c3,0.3,5.9,1.4,8.8,3.6
		c-0.1,0.1-0.3,0.2-0.5,0.4c0.1,0,0.2,0.1,0.3,0.1c-0.3,0.1-0.5,0.2-0.7,0.2c-0.2,0.1-0.2,0.3-0.3,0.4c-0.2,0.2-0.2,0.3-0.3,0.4
		c-0.1,0.2-0.1,0.3-0.1,0.4c0.1,0.2,0.2,0.3,0.3,0.3c0.2,0.1,0.4,0.2,0.6,0.2c0.1,0,0.3-0.1,0.3-0.2c0.1-0.1,0.2-0.2,0.3-0.2
		c0-0.2,0.2-0.3,0.5-0.4c0.8-0.2,1.5-0.4,2.4-0.5c4-0.8,7.5-1.5,10.4-2l0.3-0.1c0.4-0.1,0.8-0.2,1.2-0.3c-0.1-0.1-0.2-0.1-0.3-0.1
		c-0.1,0-0.2,0-0.4-0.1c0.3-0.3,0.5-0.8,0.6-1.4c0.5-4.6,2.7-8.5,6.5-11.7c-0.3-0.4-0.6-0.8-0.9-1.2
		C45.4,12.303,45,11.503,44.9,10.604z M48.1,17.803c0.3,0.2,0.5,0.2,0.7,0.3c-0.4,2.5,0.9,4.3,3.9,5.4c-3.5,0.1-6.2,1.4-8.2,4
		c-0.1-1-0.2-1.9-0.2-2.9c-0.1-2.1,0.5-3.9,1.7-5.6C46.8,18.604,47.5,18.303,48.1,17.803z M45.1,27.903c-0.1-0.1-0.2-0.1-0.2-0.1
		c2.5-1.7,5.1-2.8,7.9-3.2c-0.2,0.4-0.3,0.9-0.3,1.4c-0.1,1.3,0.2,2.5,0.8,3.7c-0.1-0.1-0.1-0.1-0.1-0.1c-1.7,0.4-3.7,0.1-5.9-0.8
		C46.6,28.503,45.8,28.204,45.1,27.903z M14.5,29.503c-0.6-0.7-1.4-1-2.3-1c3.1-0.5,5.8,0.1,8.2,1.9c0.1,0.2,0.1,0.3,0.2,0.4
		c0,0,0,0.1,0,0.2c-1.4-0.3-2.8-0.1-4.3,0.6l0,0c-0.4,0.2-0.8,0.5-1.1,0.8c0-0.9-0.1-1.7-0.3-2.5
		C14.7,29.704,14.6,29.604,14.5,29.503z M19.7,32.503c0.1,0,0.2,0,0.3,0c-1.8,1.3-3.4,2.7-4.8,4.2c0-0.2,0-0.4,0.1-0.7
		c-0.1-0.1-0.1-0.2-0.1-0.3c0.1-0.2,0.1-0.4,0.1-0.6c-0.1-0.3-0.2-0.5-0.4-0.7c-0.1,0.1-0.2,0.1-0.3,0.2c-0.1-0.1-0.2-0.2-0.3-0.2
		c0-0.1,0.1-0.2,0.2-0.3c0.7-0.2,1.2-0.6,1.8-1.3c0-0.1,0-0.2,0.1-0.2C17.5,32.403,18.6,32.403,19.7,32.503z M23.1,75.403
		c0-0.2,0-0.3,0-0.3c0.4,0.1,0.8,0.2,1.2,0.3c-0.8,0.4-1.3,0.8-1.7,1.4c-0.7-0.6-1.4-1.3-2-2.1c0.1-0.2,0.2-0.4,0.4-0.5
		c0.4,0.2,0.9,0.4,1.5,0.6c-0.1,0.2-0.1,0.3-0.1,0.5C22.6,75.303,22.9,75.303,23.1,75.403z M21.2,77.704c0.1,0.4,0.2,0.8,0.3,1.1
		c3.1,1,6.3,2,9.4,3.3c-9.6,2.9-18.9,2.9-27.9,0.1c4.4-3.3,9.7-4.9,15.8-4.9c0-0.1,0-0.2,0-0.3c0.2,0,0.3-0.1,0.5-0.2
		c-0.1-0.2-0.2-0.4-0.3-0.4c0-0.1-0.1-0.1-0.1-0.1v-0.1c-0.4-0.3-0.8-0.6-1.1-1c-0.1,0.1-0.1,0.3,0,0.5c-1.2-0.8-2-1.8-2.5-3
		c0-0.2,0-0.4,0.1-0.4c0.6-0.2,1.2-0.4,1.7-0.5c0.7,0.5,1.5,1.1,2.3,1.5c-0.1,0.3-0.2,0.6-0.2,1.1c0.1,0.8,0.3,1.5,0.7,2.2
		C20.3,77.003,20.8,77.403,21.2,77.704z M25.1,77.503c-0.5,0.1-1,0.1-1.5,0.1c0-0.1,0-0.1,0-0.1c1.2-0.6,2.4-1.2,3.5-1.8
		c3.7,0.1,7.7-0.3,11.9-1.3h0.1c0,0,0,0,0.1,0c4.3,0.2,8.4,1.3,12.2,3.3c-2.6,1.1-5.2,1.9-8,2.5c-4.5,0-9.1-0.3-13.8-0.9
		C28.3,78.503,26.8,77.903,25.1,77.503z M33.1,81.903c-0.6-0.6-1.3-1.1-1.9-1.6c1.6,0.5,3.3,0.9,5,1.1c-1,0.2-2,0.5-3,0.8
		C33.1,82.104,33.1,82.003,33.1,81.903z M46.2,81.003c-0.1-0.2-0.1-0.3-0.1-0.4c0.3,0,0.7,0,1.1-0.1
		C46.8,80.704,46.5,80.803,46.2,81.003z"/>
	<path style="fill:#3172A1;" d="M33.3,38.403c-0.5-0.2-1.1-0.5-1.7-0.8c-0.2,0-0.4-0.1-0.6-0.2c-1.5,0.4-3.1,0.7-4.6,1
		c-3.2,1.5-5,4-5.6,7.4c-1.7,9.3,2.1,14.2,11.3,14.6c1.2-0.8,2.5-1.5,3.8-2.2c0.8-0.4,1.3-1,1.7-1.8c0.9,0.8,2,1.2,3.3,1.3
		c1.9,0.3,3.7-0.2,5.2-1.4c5.7-4.4,6.4-9.6,2.1-15.7c-1.2-0.9-2.4-1.8-3.7-2.5C40.7,35.903,37,36.003,33.3,38.403z M35.2,40.104
		c0.1-0.4,0.3-0.8,0.7-1.2c2.8-0.8,5.6-0.5,8.3,0.8c0.2,0.2,0.5,0.4,0.7,0.6c0.3,0.2,0.5,0.4,0.7,0.6c0,0-0.1,0-0.2,0.1
		c0.3,0.1,0.5,0.3,0.7,0.5c0.6,0.5,1.1,1.1,1.5,1.7c0,0.1,0.1,0.2,0.1,0.2c-4.8,2.9-8.1,6.6-10,11.4c-0.1-0.1-0.2-0.1-0.3-0.2
		c0,0.1-0.1,0.2-0.1,0.3c-4.7-2.9-9.9-5.1-15.4-6.8c0.2-1.8,0.9-3.6,2.2-5.3c0.2,0.1,0.3,0.2,0.5,0.2c0.1-0.4,0.3-0.7,0.6-1
		c-0.1-0.1-0.2-0.1-0.3-0.1c0.6-0.7,1.4-1.5,2.3-2.2c2-1.1,3.9-1.1,5.8-0.1c0,0.4,0.2,0.8,0.4,1c0.2,0.2,0.4,0.3,0.6,0.4
		c0.2,1,0.5,2,1,3.2c0.1-0.1,0.2-0.2,0.2-0.2c-0.1-1.1-0.3-2.1-0.5-3.1C34.9,40.704,35.1,40.403,35.2,40.104z M27.2,58.403
		c-0.8-0.2-1.4-0.5-1.8-1c-2.6-3.2-3.7-6.1-3.6-8.9c3.3,1.8,6.7,3.5,10.1,4.9c0.1,0.9,0.2,1.7,0.5,2.5c1.4,0.6,2.5,0.3,3.2-0.9
		c0-0.1,0-0.2-0.1-0.3c0.5,0.2,1,0.4,1.5,0.5C34.4,58.303,31.2,59.403,27.2,58.403z M42.3,53.204c0-0.1,0-0.2,0.1-0.3
		c-0.1-0.7-0.3-1.3-0.6-1.8c0.4-0.4,0.8-0.8,1.2-1.2c2.2-2.2,3.9-4.1,5-6c2.2,3.6,1.6,7.2-1.5,11c-2.9,1.5-5.8,1.5-8.5,0.1
		c0.3-0.4,0.7-0.8,1.1-1.2c0,0,0,0.1,0,0.2C40.5,55.003,41.6,54.704,42.3,53.204z"/>
	<path style="fill:#3172A1;" d="M24.5,60.903c-2.6,1.1-3.9,2.9-3.9,5.7c0,0.6,0.2,1.3,0.6,1.8c3.7,4.8,8.9,6,15.5,3.7
		c0.9-0.4,1.7-0.9,2.4-1.7c2.4-2.9,5.3-4.3,8.8-4.3c0.1,0,0.3-0.1,0.4-0.1c0.1-0.1,0.2-0.1,0.2-0.1c0-0.1,0-0.1,0.1-0.1
		c0-0.1,0-0.2,0.1-0.3c-1.5-0.7-2.9-0.9-4.3-0.3c-0.2-0.4-0.4-0.7-0.6-1c0-0.1,0.1-0.1,0.1-0.2c1.4-0.2,2.7-0.4,4-0.8
		c2.2-0.5,3.6-1.7,4.1-3.5l-0.1-0.2c-2,2.2-4.7,3.5-7.9,3.8c-0.1-0.1-0.3-0.1-0.7-0.1c-0.1,0.1-0.1,0.1-0.1,0.1c0,0.1,0,0.1,0,0.1
		c-0.1,0-0.2,0-0.3,0c-0.5,0-1,0-1.5-0.2C35.8,61.604,30.2,60.803,24.5,60.903z M22.6,64.403c2-2.5,4.8-3.2,8.2-2
		c4,1.4,8.1,2,12.3,1.6c-0.1,0.7,0,1.2,0.4,1.6c-0.3,0.2-0.7,0.4-1,0.7c-1.4,1.2-2.8,2.2-4.3,3.2c-5.9,3.6-11.3,3.4-16.2-0.8
		c-0.1-0.4-0.1-0.8-0.2-1.2C21.6,66.403,21.9,65.303,22.6,64.403z"/>
	<path style="fill:#3172A1;" d="M22.6,66.803h-0.1c5.8,3,12.4,2.7,19.6-0.9l0.1-0.2C35.8,67.704,29.3,68.104,22.6,66.803z"/>
	<path style="fill:#009659;" d="M39.2,28.003c0-0.1,0-0.1,0-0.1l-0.3,0.1H39.2z"/>
	<path d="M38.9,28.003c0.1,0.1,0.2,0.3,0.3,0.5c0-0.2,0-0.4,0-0.5H38.9z"/>
	<path d="M56.6,34.303l0.2-0.2c-0.5-0.3-1.1-0.6-1.6-0.9C55.7,33.604,56.2,33.903,56.6,34.303z"/>
	<path d="M22.3,32.803c0-0.1,0-0.1,0.1-0.1c-0.1,0-0.1,0-0.2-0.1L22.3,32.803z"/>
	<path style="fill:#3172A1;" d="M29.7,76.704c-0.1,0-0.1,0-0.2,0c0,0-0.1,0-0.1,0.1C29.5,76.704,29.6,76.704,29.7,76.704z"/>
	<path style="fill:#3172A1;" d="M76.3,83.104c-0.1-0.1-0.1-0.2-0.2-0.2c-1-0.2-2-0.4-3.1-0.4c-0.9,0.3-1.9,0.7-3,1
		c-0.9,0.2-1.5,0.7-2,1.5c0.6,0.6,1.3,0.6,2.1,0.2C72.1,84.104,74.1,83.403,76.3,83.104z"/>
	<path style="fill:#3172A1;" d="M74.3,81.604c-0.1-0.1-0.2-0.2-0.2-0.2c-0.9-0.2-1.7-0.4-2.6-0.4c-1.5,0.1-3.1,0.5-4.6,1.1
		c-2.1,0.8-3.6,1.8-4.6,3.1c0.5,0.4,1.1,0.4,1.6,0.1C67.2,83.303,70.6,82.104,74.3,81.604z"/>
	<path style="fill:#3172A1;" d="M36.6,6.604c0-0.1,0-0.2,0.1-0.4c0.3-4.2-1.9-6.3-6.7-6.2c-0.6,0.3-1.5,0.5-2.4,0.7
		c-1.2,0.3-2.2,0.8-3.1,1.6c0,0.3,0,0.5,0,0.8c0,0.1,0,0.2-0.1,0.3c-0.3,0.2-0.5,0.5-0.9,0.7c-0.4,1.2-0.6,2.5-0.5,4
		c0.1,0.9,0.1,1.7,0,2.6c0,0.2,0,0.3,0.1,0.4c0,0.1,0.1,0.2,0.2,0.4c0.1,0.1,0.1,0.2,0.2,0.3c0,0.2,0,0.3,0,0.4c1,0.7,1.8,1.3,2.6,2
		c0.2,0,0.2,0.3,0.3,0.6c0.4,0.6,0.8,1.2,1.2,1.7c0.6,0.5,1.3,1.1,1.9,1.7c-0.3,1-0.4,1.9-0.3,2.8c0.4,2.8,1.7,4,3.9,3.5
		c-0.6-0.8-1.2-1.6-1.7-2.5c-0.2-0.2-0.3-0.5-0.3-0.9c0.2-0.3,0.3-0.5,0.5-0.7c0.2-0.3,0.4-0.6,0.6-0.9c0.2-0.2,0.3-0.4,0.4-0.7
		c-0.3-0.1-0.7-0.3-1.1-0.3l-0.2-0.2c0.1-0.1,0.4-0.3,0.7-0.5c-0.2-1,0.1-1.7,0.9-2.2c0.4-0.3,0.8-0.7,1.1-1.1c0-0.4,0-0.8,0-1.2
		c0-0.2,0-0.4-0.1-0.6c-0.2-0.3-0.3-0.6-0.5-0.9c-0.2-0.7,0.1-1.5,0.9-2.5C35.1,8.403,35.9,7.503,36.6,6.604z M35.4,3.704
		c0,0.3,0,0.5,0,0.8c0.1,0.5,0,0.9-0.3,1.2c0-0.1,0-0.2,0-0.2c-0.4-1.4-1.1-2.7-2.1-3.8l0,0C34,2.003,34.8,2.704,35.4,3.704z
		 M33.9,6.204c-0.1,0.2-0.2,0.3-0.2,0.3c-2.7-0.6-5.1-1.6-7.4-3.2c0.1-0.1,0.3-0.2,0.4-0.4c0.6-0.4,1.2-0.8,1.8-1.1
		c0.6,0,1.2,0,1.9-0.1c0.4,0.3,0.8,0.6,1.2,0.9C32.8,3.503,33.6,4.803,33.9,6.204z M31.5,12.303c0.4-0.2,0.7-0.1,1,0.3
		c0.7,1.1,0.4,1.9-1,2.6c-1.2,0.6-2.1,0.3-2.7-0.6c-0.2-0.1-0.2-0.2-0.2-0.2C29.1,13.704,30.1,13.104,31.5,12.303z M26.9,10.003
		c-0.2-0.2-0.3-0.3-0.4-0.4c-0.5-0.3-0.7-0.7-0.7-1.1h0.1C26.6,9.204,26.9,9.704,26.9,10.003z M29.6,7.204c0.6-0.3,0.8-0.2,0.6,0.2
		C29.5,9.204,29.3,9.204,29.6,7.204z M28.8,5.704c-0.5,0.1-0.9,0.2-1.3,0.4c-1.3,0.5-1.9,0-2-1.5C26.6,4.503,27.7,4.903,28.8,5.704z
		 M23.9,9.303c0,0,0,0,0.1,0c1.4,0.5,2.3,1.5,2.5,2.9c-0.6,0.1-1.2-0.1-1.7-0.6c-0.2-0.1-0.2-0.2-0.3-0.4
		C24.1,10.604,23.9,10.003,23.9,9.303z"/>
	<path style="fill:#3172A1;" d="M37.3,87.104c0.3,0,0.7-0.1,1.1-0.1c1.1-0.3,2.3-0.5,3.4-0.7c0.4,0.1,0.8,0.1,1.3-0.1
		c0.6-0.2,1.2-0.4,1.9-0.6c0.9-0.3,1.8-0.5,2.8-0.7c0-0.1,0.1-0.2,0.1-0.3c4.4-1.4,8.9-2.8,13.4-4.1c-0.2-0.2-0.4-0.2-0.6-0.3
		c-0.7-0.1-1.4-0.2-2.2-0.2c-1.2,0.4-2.6,0.8-4,1.2c-3.7,0.7-7.2,1.8-10.4,3.3C41.6,85.003,39.3,85.803,37.3,87.104z"/>
	<path style="fill:#3172A1;" d="M53,85.003c0.5,0.1,1,0.3,1.5,0.5c2.5-1.3,5.1-2.2,7.8-2.8c4.2-0.9,5.7-2,4.2-3.4
		c-0.1,0.1-0.3,0.2-0.5,0.2C61.3,80.704,57,82.503,53,85.003z"/>
</g>
</svg>
