<?xml version="1.0" encoding="iso-8859-1"?>
<!-- Generator: Adobe Illustrator 12.0.1, SVG Export Plug-In . SVG Version: 6.00 Build 51448)  -->
<!DOCTYPE svg PUBLIC "-//W3C//DTD SVG 1.1//EN" "http://www.w3.org/Graphics/SVG/1.1/DTD/svg11.dtd" [
	<!ENTITY ns_svg "http://www.w3.org/2000/svg">
	<!ENTITY ns_xlink "http://www.w3.org/1999/xlink">
]>
<svg  version="1.1" id="Layer_1" xmlns="&ns_svg;" xmlns:xlink="&ns_xlink;" width="90.5" height="90.931"
	 viewBox="0 0 90.5 90.931" style="overflow:visible;enable-background:new 0 0 90.5 90.931;" xml:space="preserve">
<g>
	<path style="fill:#3172A1;" d="M89.3,87.3c-0.4-0.1-0.7-0.2-1.1-0.3v0.1c-3.1,0.5-5.8,1.7-8.2,3.4c0.2,0.1,0.4,0.1,0.6,0
		c2.9-1.1,5.9-2.1,8.9-3C89.4,87.4,89.3,87.4,89.3,87.3z"/>
	<path style="fill:#3172A1;" d="M88.1,86.4c0.2-0.2,0.5-0.4,0.7-0.7c0.6-0.1,1.1-0.1,1.7-0.2c-0.1-0.1-0.1-0.1-0.2-0.1
		c-0.3-0.1-0.7-0.1-1.1-0.2c0.3-0.3,0.4-0.7,0.5-1.1c-6.7-4.1-14-6.2-22.1-6.5c-0.2,0.1-0.4,0.1-0.6,0.2c-0.2,0-0.3,0-0.4,0
		c0.6-2.8,0.1-5.1-1.5-6.9c0.3-0.2,0.6-0.4,1-0.7C66,70.1,65.9,70,65.7,70c7.6-5.8,9.9-13.6,7-23.3c-0.6-2.3-1.6-4.4-2.8-6.2
		c0.3,0.2,0.6,0.4,0.8,0.7c0-0.1-0.1-0.2-0.2-0.3c-0.5-0.6-1.1-1.2-1.7-1.8c-0.9-1.2-1.9-2.3-3-3.2c0,0,0,0,0.1,0
		c-0.1-0.2-0.2-0.3-0.2-0.4c0.3,0.1,0.5,0.1,0.9,0.1c-0.2-0.2-0.5-0.4-0.7-0.6c-0.2-0.1-0.4-0.2-0.5-0.3c-0.2-0.1-0.4-0.1-0.6-0.1
		c-0.6-0.5-1.1-1-1.6-1.5c0.8-0.4,1.9-0.9,3.3-1.5c-0.3-0.4-0.6-0.8-1.2-1c-1.4-0.7-2.4-1.7-2.8-3.1c0.2-0.2,0.6-0.4,1-0.5
		c0.6-0.3,1.2-0.6,1.7-1.1c0,1,0.2,1.7,0.8,2.4c0,0.1,0.1,0.1,0.1,0.2c0.6,0.6,1.3,0.5,2-0.1c3.1-2.8,4.3-6.3,3.4-10.7
		c-0.1-0.1-0.3-0.1-0.4-0.1c-0.9-0.1-1.9-0.1-2.7,0c-0.5,0.3-1.2,0.9-1.7,1.6c-0.5,0.8-0.9,1.6-1,2.4c0,0,0,0,0,0.1
		c-2.5-0.5-4.9-0.6-7.4-0.3c-0.2,0-0.4,0.1-0.5,0.2c-3.4,0.5-5.8,2-7.3,4.5c-0.6,0.9-0.8,1.8-0.8,2.6c-0.1-0.1-0.2-0.1-0.2-0.1
		c0,0.3,0.1,0.8,0.3,1.1c-3.4-0.8-6.9-1-10.5-0.3c-0.3,0.3-0.7,0.5-1.2,0.7c0-0.2-0.1-0.5-0.2-0.7c0-0.1,0-0.2-0.1-0.3
		c0,0.1-0.1,0.1-0.1,0.2c-0.1-0.1-0.2-0.2-0.3-0.3c-4.2-4.8-9.6-6.5-16.1-5.1c-0.3-0.5-0.7-1-1.1-1.4c-0.5-0.4-0.9-0.7-1.4-1
		c-0.7,0.1-1.5,0.1-2.2,0.2c-1.8,1.8-2,4.1-0.6,6.8c1.1,2,2.7,3.5,4.9,4.5c0.8,0,1.6-0.1,2.4-0.3c0.1,0,0.3-0.1,0.5-0.2
		c0-0.9,0-1.8-0.2-2.6c0-0.4-0.1-0.8-0.1-1.2l0,0c0.1,0,0.3,0.2,0.5,0.3c0.2,0.3,0.3,0.5,0.5,0.7c0.5,0.3,0.7,0.8,0.6,1.4
		c0,0.2-0.1,0.3-0.1,0.4c-0.8,1.1-1.6,2-2.5,3c0.6,0.7,1.2,1.1,1.7,1.2c-0.6,1.5-1.6,2.8-2.9,3.9c0.2,0.2,0.4,0.4,0.6,0.5
		c-3.7,4.8-5.3,10.8-4.8,18.1c0.2,2.1,0.7,4.1,1.4,6c1.3,3.3,3.2,6,5.6,8.1c-1-0.1-1.9-0.1-2.9-0.1v0.1c-0.4,0.1-0.8,0.3-1.2,0.8
		c-0.1,0.1-0.2,0.3-0.2,0.4c-0.1,0.1-0.2,0.2-0.2,0.4c0,0.5,0,1,0,1.5c0,0.1,0,0.2,0,0.3c0,0.2,0,0.3,0,0.4c0.5,0.5,1,1,1.6,1.4
		c0.3,0.1,0.6,0.3,0.9,0.5c-4.8,0.2-9.1,1.8-12.9,4.8c0,0.2,0,0.3,0,0.4c-0.1,0.8,0,1.6,0.3,2.3c0,0.1,0,0.1,0.1,0.1
		c-0.8,0.3-1.4,0.9-1.9,1.5c1.2,0.1,2.2-0.1,3.2-0.4c0.9,0.1,1.8,0.3,2.6,0.4c-1.3,0.5-2.6,1.2-3.7,2.1c0.1,0.2,0.1,0.2,0.1,0.2
		c2.2-0.5,4.3-1.1,6.6-1.9c1,0.1,2,0.2,2.9,0.3c-1.6,0.4-3.1,1-4.4,1.7c2.5-0.1,5.1-0.6,7.6-1.6c2,0,4-0.1,6.1-0.3
		c-2.3,0.8-4.5,1.5-6.7,2.4c0.2,0,0.4,0,0.7,0c8.4-1.9,16.7-4.1,24.8-6.5c1.6-0.1,3.2-0.2,4.8-0.5c-0.4,0.2-0.9,0.4-1.5,0.5
		c-5.7,1.3-11,3.2-16.1,5.6c6-1.1,12.4-2.8,19-5.2c1.5,0.7,3,1.3,4.5,1.9c-0.8-0.2-1.6-0.4-2.5-0.4c-0.5,0.3-1.1,0.5-2,0.7
		c-3.2,0.3-6.1,1.3-8.7,2.9c0.3,0,0.7-0.1,1.1-0.1c4.4-0.9,8.5-1.8,12.4-2.9c-0.1-0.1-0.1-0.1-0.2-0.2c0.9,0.3,1.7,0.6,2.6,0.8
		c-1.9,0.4-3.4,1.1-4.6,2.1c0.3,0.6,0.7,0.8,1.5,0.7c3.5-0.6,5.3-1.3,5.3-2.2c1.9,0.4,3.7,0.7,5.6,1c-0.1-0.1-0.3-0.1-0.5-0.1
		c-0.9,0.3-2,0.6-3.2,0.9c-0.4,0.1-0.7,0.3-0.7,0.7c0.3,0.7,0.7,0.8,1.3,0.5c1.5-0.9,3.1-1.4,4.9-1.7c-0.1-0.1-0.1-0.1-0.2-0.1
		c-0.3-0.1-0.6-0.1-0.9-0.2c1.5,0.2,3.1,0.2,4.7,0.2c-1.4,0.7-2.5,1.4-3.6,2.2c0.5,0.4,1.1,0.4,1.7,0.2c2.1-0.9,4.4-1.8,6.6-2.6
		c3-0.3,6-0.8,9-1.6C87.9,86.5,88,86.4,88.1,86.4z M70.4,19v0.1c0.2,0.4,0.3,0.8,0.3,1.1c0,3.5-1.3,5.8-4,6.9
		c-0.4-0.6-0.5-1.2-0.6-2c0.1-0.1,0.1-0.1,0.1-0.1s0,0-0.1-0.1l0,0c0.1-0.2,0.1-0.3,0.1-0.4c-5-1.8-9.2-0.7-12.8,3.3
		c0.1,0.6,0,1.3-0.2,1.9c-0.2,0.5-0.3,0.8-0.2,1.1c-0.2,0.1,0,0.4,0.3,0.7h0.1c-0.1,0-0.1,0-0.2,0.1c0.2,0,0.3,0,0.4,0.1h0.1
		c4.8,1.8,9.3,4,13.2,6.7c0.1,0.1,0.1,0.3,0.2,0.4L66.9,39c2.8,3.2,4.5,7.5,5.1,12.9c0.5,4.2-0.6,8-3.2,11.3
		C60.6,74,49.2,78,34.6,75.1c-4-0.8-7.3-2.6-10.1-5.4c-6-6-7.7-13.1-5-21.6c0.1-0.1,0.2-0.3,0.3-0.4c0.1-0.2,0.2-0.3,0.3-0.4
		c0.1-0.2,0.1-0.3,0.2-0.4c0-0.2,0-0.3,0-0.4s0-0.2,0-0.3c0-0.2,0.1-0.3,0.2-0.5c0.7-0.8,1.3-1.6,1.9-2.5c2.4-4.7,6-8,10.6-10
		l-0.1-0.1c0-0.3,0-0.6,0.1-0.8c0-0.1,0.1-0.2,0.1-0.3c0,0-0.1-0.1-0.2-0.2c0-0.1,0-0.2,0-0.3c-0.1,0-0.1,0-0.2,0
		c0.1-0.5-0.1-1.1-0.4-1.6c-0.3-0.4-0.5-0.7-0.8-1c-0.2-0.2-0.3-0.3-0.4-0.4c-2.2-1.1-4.5-1.8-7-1.9c0,0.1,0,0.1,0,0.1
		c-0.1,0.1-0.3,0.2-0.4,0.3c-0.4,0.2-0.8,0.5-1.2,0.9c0.2-0.1,0.4-0.1,0.7-0.1c-0.2,0.1-0.3,0.1-0.4,0.1C22.7,28,22.7,28,22.7,28
		c-0.2-0.1-0.3-0.1-0.5,0c-0.2-0.1-0.4,0-0.5,0.2c0.2,0.7,0.4,1.4,0.6,2.2c0.1,0.3,0.2,0.7,0.2,1c-2.1-0.1-3.7-1.1-4.8-3
		c-0.8-1.4-1.1-2.8-0.9-4.2c-0.2-0.8,0.3-1.2,1.3-1c0.1,0,0.2,0.1,0.3,0.2c0.6,0.4,1.1,1,1.5,1.7c0.2,0.4,0.5,0.8,0.8,1
		c2.2-1.2,4.8-1.5,7.8-0.9c2.9,0.7,5.7,2.2,8.4,4.7c-0.2,0-0.4,0.1-0.6,0.2c0,0.1,0.2,0.2,0.2,0.3c-0.2,0-0.4,0-0.7,0.1
		c-0.1,0-0.2,0.2-0.3,0.3c-0.2,0.1-0.2,0.2-0.3,0.3c-0.1,0.2-0.1,0.3-0.1,0.5c0,0.1,0.1,0.2,0.2,0.3c0.1,0.1,0.3,0.2,0.5,0.2
		c0.2,0,0.3,0,0.4-0.1s0.1-0.2,0.3-0.2c0.1-0.2,0.2-0.3,0.5-0.4c0.8-0.1,1.6-0.1,2.5-0.1c4.1-0.3,7.6-0.6,10.5-0.8h0.4
		c0.4-0.1,0.8-0.1,1.2-0.1c-0.1-0.2-0.2-0.2-0.3-0.2c-0.3-0.1-0.6-0.2-0.8-0.3c0-0.3,0.1-0.6,0.1-0.9l0,0c0.3-0.5,0.5-0.9,0.7-1.4
		c0.1-0.4,0.2-0.7,0.4-1.1c0.1-0.3,0.2-0.6,0.3-0.8c0.7-0.6,1.3-1,2.1-1.3C58,22.8,62,21.9,66,22c0.3,0.1,0.6,0,0.9-0.5
		c0.6-0.9,1.3-1.7,2.2-2.5C69.5,19,69.9,19,70.4,19z M54.2,30.4c0.2-0.5,0.3-1,0.3-1.5c0-0.2,0-0.4,0-0.5c2.8-2.9,5.8-4,9.1-3.3
		c-0.8,0.3-1.4,0.9-2,1.5c-0.2,0.4-0.3,0.8-0.2,1.3c0.1,0.4,0.2,0.9,0.3,1.4c0.1,0.1,0.3,0.2,0.4,0.3c0.5,0.5,0.9,0.8,1.4,1.2
		c-2.5-0.8-5.2-1.2-7.8-1.1c0,0,0,0-0.1,0c-0.4,0.2-0.8,0.4-1.2,0.6C54.3,30.4,54.3,30.4,54.2,30.4z M61.3,32.4
		c0,0.4,0.1,0.8,0.3,1.2c-1.9-1.1-3.8-1.9-5.8-2.6c2.3,0.1,4.5,0.1,6.6,0.3C62,31.5,61.6,31.9,61.3,32.4z M31.3,30.7
		c0.1,0.1,0.2,0.2,0.2,0.3s0,0.2,0,0.3c-1.4-0.4-2.8-0.4-4.3,0c0,0.1,0,0.1-0.1,0.1c-0.4,0.1-0.8,0.3-1.2,0.6
		c0.2-0.9,0.2-1.7,0.1-2.6c-0.2,0-0.3-0.2-0.3-0.3c-0.6-0.7-1.4-1.2-2.2-1.3C26.6,27.6,29.2,28.6,31.3,30.7z M27,32.6
		c0.1-0.1,0.1-0.2,0.1-0.3c1.2,0,2.3,0.1,3.3,0.4c0.1,0,0.2,0,0.3,0c-2,1.1-3.7,2.3-5.2,3.6c0-0.2,0-0.4,0.1-0.7c0-0.1,0-0.2,0-0.3
		c0.1-0.2,0.1-0.4,0.2-0.6c-0.2-0.3-0.3-0.5-0.4-0.7c-0.1,0-0.2,0-0.3,0.1c-0.1-0.1-0.2-0.2-0.3-0.2c0.1-0.1,0.2-0.2,0.3-0.2
		C25.7,33.5,26.4,33.1,27,32.6z M32.1,77.1c0-0.1-0.1-0.3-0.1-0.5c1,0.4,2,0.6,3.2,0.8c-1.1,0.4-2,1.1-2.9,1.9c2-0.2,4-0.5,6.1-0.9
		l6.2-0.4c0,0,0-0.1,0-0.2c2.5-0.1,4.9-0.5,7.3-1.1l0,0c0.3,0.1,0.5,0.2,0.7,0.3c-0.3,0.1-0.7,0.2-1,0.3c1.8,0.7,3.8,1.4,6,1.9
		c-1.6,0.6-2.9,1.6-3.9,2.9c-5.4,0.1-10.9-0.2-16.4-0.9c-1.5-0.9-3.1-1.5-5-1.9c-0.5-0.1-1-0.2-1.5-0.2c-0.2-0.2-0.3-0.3-0.5-0.4
		c0-0.1,0-0.2,0-0.2s-0.1,0-0.2,0c-0.7-0.6-1.5-1.2-2.4-1.8c0.6-0.1,1.2-0.2,1.8-0.2c0.4-0.1,0.8-0.2,0.9-0.4
		c0.2,0.1,0.3,0.1,0.4,0.2l0,0L32.1,77.1z M28.9,79.3c0,0.5,0.2,1,0.3,1.4c3.1,1,6.3,2,9.4,3.3c-9.6,2.9-18.9,2.9-27.9,0.1
		c3.9-2.9,8.4-4.5,13.5-4.8c0.4,0.2,0.8,0.4,1.1,0.6c0.4-0.1,0.8-0.1,1.1-0.3c0.1,0,0.2-0.1,0.2-0.2s0-0.2-0.1-0.3
		c0-0.1,0-0.2,0-0.3s0-0.2,0.1-0.2c-0.4-0.1-0.7-0.2-1-0.3c-0.8-0.6-1.8-1.2-2.9-1.6c-1.1-0.4-1.7-1.2-1.9-2.2
		c0.2-0.1,0.3-0.2,0.5-0.3c1.2-0.5,2.5-0.8,3.8-1c0.8,0.6,1.6,1.1,2.5,1.6c-0.9,0.2-1.7,0.5-2.4,1.2c-0.2,0.5-0.1,0.9,0.3,1.2
		C26.6,78.2,27.7,78.9,28.9,79.3z M54.4,76.6c0.4-0.1,0.8-0.4,1.3-0.5c-0.3-0.1-0.6-0.2-0.9-0.3c2.1-0.8,4.1-1.7,6.1-2.7
		c-0.2,0.7,0.2,1.9,1.2,3.4c-0.1,0.1-0.2,0.2-0.3,0.4c-0.3,0.4-0.6,0.9-0.9,1.5c-0.6,0-1.2,0.1-1.7,0.3C57.5,78,56,77.3,54.4,76.6z
		 M40.8,83.8c-0.6-0.6-1.3-1.1-1.9-1.6c1.6,0.5,3.3,0.9,5,1.1c-1,0.2-2,0.5-3,0.8C40.8,84,40.8,83.9,40.8,83.8z M65,73
		c0,0.2,0,0.5,0.1,0.7c0.1,1.7,0.4,3.1,0.9,4.2c-0.2,0-0.3,0-0.5,0.1c0.1,0.4,0.2,0.8,0.2,1.2c8.2,0.3,15.4,2,21.6,5.4
		c-11,3.3-21.8,2.7-32.3-1.6c2.4-1.8,5-2.8,8-3.3c0-0.1,0-0.2,0.1-0.4c0.1-0.5,0.1-0.9,0.1-1.3c-0.1,0-0.2,0-0.3,0
		c0.7-1.2,0.6-2.7-0.2-4.5c-0.1-0.1-0.3-0.3-0.5-0.4c-0.1-0.2-0.3-0.3-0.5-0.5c0.2-0.1,0.3-0.2,0.5-0.2c0,0,0.1,0.1,0.2,0.2
		c0.2-0.2,0.3-0.3,0.6-0.4c-0.1,0-0.3-0.1-0.3-0.2c0.3-0.1,0.5-0.3,0.8-0.5C63.7,72,64.2,72.5,65,73z"/>
	<path style="fill:#3172A1;" d="M43.2,40.2c-0.5-0.3-1-0.6-1.6-1c-0.1-0.1-0.3-0.2-0.5-0.3c-1.6,0.2-3.2,0.3-4.8,0.4
		c-3.2,1.2-5.4,3.4-6.4,6.8c-2.8,9,0.3,14.2,9.5,15.8c1.3-0.6,2.6-1.1,4-1.7c0.8-0.4,1.4-0.9,1.9-1.6c0.8,0.8,1.8,1.4,3.1,1.7
		c1.9,0.5,3.7,0.2,5.4-0.8c6.1-3.6,7.4-8.7,4-15.3c-1.1-1.1-2.2-2.1-3.4-3C50.9,38.6,47.1,38.3,43.2,40.2z M44.9,42.1
		c0.2-0.4,0.4-0.8,0.8-1.1c3-0.5,5.7,0.1,8.1,1.8c0.3,0.2,0.5,0.4,0.7,0.7c0.2,0.2,0.4,0.5,0.7,0.7c-0.1,0-0.2,0-0.3,0
		c0.3,0.2,0.5,0.4,0.7,0.6c0.4,0.7,0.9,1.3,1.2,1.9c0.1,0.1,0.1,0.2,0.1,0.3c-5.1,2.2-8.9,5.6-11.3,10c-0.1,0-0.2-0.1-0.3-0.2
		c0,0.1-0.1,0.1-0.1,0.2c-4.4-3.4-9.2-6.3-14.5-8.6c0.4-1.8,1.3-3.4,2.8-4.9c0.2,0,0.3,0.1,0.5,0.2c0.2-0.4,0.4-0.7,0.8-1
		c-0.2,0-0.3,0-0.4-0.1c0.8-0.6,1.6-1.3,2.6-1.9c2.1-0.8,4-0.6,5.7,0.7c0.1,0.4,0.2,0.7,0.4,1c0.1,0.2,0.3,0.4,0.5,0.5
		c0.1,1,0.2,2,0.6,3.2c0.1,0,0.2-0.1,0.2-0.1c0-1.1,0-2.2-0.1-3.2C44.5,42.7,44.8,42.4,44.9,42.1z M34.7,59.4
		C34,59.1,33.3,58.6,33,58c-2.2-3.4-2.9-6.5-2.4-9.2c3,2.2,6.1,4.3,9.4,6.1c-0.1,0.9,0,1.7,0.2,2.5c1.3,0.9,2.4,0.7,3.2-0.5
		c0-0.1,0-0.1,0-0.2c0.5,0.2,1,0.4,1.4,0.6C41.9,60.1,38.6,60.8,34.7,59.4z M50.4,56c0-0.1,0-0.2,0-0.3c0.1-0.7,0-1.3-0.3-1.9
		c0.4-0.3,0.9-0.7,1.4-1c2.4-1.9,4.3-3.7,5.7-5.3c1.6,3.7,0.7,7.3-2.9,10.8c-3.1,1.1-5.9,0.7-8.4-1.1c0.3-0.4,0.7-0.7,1.2-1
		c0,0.1,0,0.1-0.1,0.2C48.3,57.5,49.4,57.4,50.4,56z"/>
	<path style="fill:#3172A1;" d="M27.2,66.6c-0.2,0.7,0,1.3,0.4,1.9c3,5.2,8,7.1,14.9,5.5c1-0.2,1.8-0.6,2.5-1.3
		c2.8-2.6,5.9-3.7,9.3-3.2c0.1,0,0.3,0,0.5-0.1c0,0,0.1,0,0.2-0.1c0,0,0,0,0-0.1c0.1,0,0.1-0.1,0.2-0.2c-1.4-0.9-2.7-1.2-4.2-0.9
		c-0.2-0.3-0.4-0.7-0.5-1c0-0.1,0.1-0.1,0.1-0.2l0,0c1.4,0,2.7-0.1,4.1-0.2c2.3-0.3,3.8-1.3,4.5-3.1l-0.1-0.1
		c-2.3,1.9-5.1,2.8-8.3,2.8c-0.1-0.2-0.3-0.3-0.7-0.2c-0.1,0-0.1,0-0.1,0.1l0,0c-0.1,0-0.2,0-0.3,0c-0.5,0-1-0.2-1.5-0.4
		c-5.3-2.3-10.8-3.8-16.4-4.3C29,62.2,27.5,63.9,27.2,66.6z M29.4,64.7c2.4-2.3,5.1-2.6,8.4-1c3.8,1.9,7.8,2.9,12,3.1
		c-0.2,0.7-0.1,1.2,0.3,1.6c-0.4,0.2-0.8,0.4-1.2,0.7c-1.5,0.9-3,1.8-4.6,2.5c-6.3,3-11.6,2-16-2.7c0-0.4-0.1-0.8-0.1-1.2
		C28.2,66.5,28.6,65.5,29.4,64.7z"/>
	<path style="fill:#3172A1;" d="M29.2,67.1H29c5.4,3.7,12,4.2,19.6,1.4l0.1-0.1C42.1,69.6,35.6,69.2,29.2,67.1z"/>
	<path style="fill:#009659;" d="M50.3,30.5c0,0,0,0,0.1,0H50H50.3z"/>
	<path d="M50.3,31c0-0.2,0-0.3,0-0.5H50C50.1,30.6,50.2,30.8,50.3,31z"/>
	<path d="M66.9,39l0.2-0.2c-0.5-0.4-1-0.7-1.5-1.1C66,38.1,66.4,38.6,66.9,39z"/>
	<path d="M32.9,33.1l0.1,0.1c0,0,0,0,0.1,0C33,33.2,33,33.1,32.9,33.1z"/>
	<path style="fill:#3172A1;" d="M48.8,6.5c0-0.1,0-0.2-0.1-0.4c-0.1-0.1-0.2-0.2-0.3-0.4c-2.1-3.4-5.2-5.3-9.2-5.7
		c-0.3,0.2-0.7,0.6-1.1,1c-0.3,0.2-0.5,0.5-0.8,0.7c-0.1,0.9-0.3,1.8-0.5,2.7c-0.2,0.8-0.1,1.5,0.3,2.2c-0.6,0.6-1.1,1.2-1.5,1.8
		c-0.3,0.5-0.4,1-0.4,1.6c0.1,0.5,0.3,0.9,0.6,1.3c1.5,1.1,2.9,2.3,4.2,3.7c0,0.7,0.2,1.3,0.6,1.9c0.2,0.3,0.4,0.7,0.5,1.1
		c-0.1,0.1-0.2,0.2-0.3,0.4c-0.3,0.3-0.4,0.7-0.4,1.1c0.1,0.1,0.1,0.2,0.1,0.4c0.3,0.6,0.7,1.1,1.3,1.5c0.5,0.2,0.7,0.6,0.8,1.1
		c-0.1,0.7-0.1,1.4,0.2,1.9c0.4,1.1,0.9,1.2,1.5,0.3c0-0.7-0.1-1.3-0.4-1.8c0-0.2-0.1-0.3-0.1-0.4c0.4-0.6,0.5-1.1,0.5-1.9
		c0-0.1,0-0.2,0-0.4c-0.3-0.4-0.8-0.6-1.4-0.6c-0.2,0.1-0.5,0-0.8-0.2c1.1,0,2.2-0.5,3.4-1.5c0-0.2-0.1-0.3-0.1-0.3
		c-0.7-1-1.8-1.4-3.2-1.2c1.1-0.2,2.3-0.8,3.5-1.7c0.1-0.2,0.1-0.5,0.2-0.7c0-0.1,0-0.2,0.1-0.4c0.2-0.2,0.4-0.5,0.7-0.8
		c0.1-0.1,0.2-0.2,0.3-0.3c0-0.1,0-0.2,0-0.4c0-0.5,0-1,0-1.5c0-0.1,0-0.2,0-0.4c0.5-0.2,0.9-0.6,1.2-1.1c0.2-0.2,0.4-0.5,0.6-0.7
		c0-0.2,0-0.3,0-0.4C48.8,7.5,48.8,7,48.8,6.5z M42.2,1.4C42.5,1.6,42.7,1.8,43,2c2.4,1.4,3.9,3.2,4.5,5.6c-3.2-1.7-6.4-2.5-9.8-2.4
		c0-0.1,0-0.2,0-0.3c-0.1-0.4-0.1-0.8-0.1-1.2c0-0.1,0.1-0.2,0.1-0.3c0.4-0.7,0.7-1.3,0.9-1.9c0.2-0.1,0.4-0.2,0.6-0.3
		c0.1,0,0.2-0.1,0.3-0.2C40.4,0.8,41.3,1,42.2,1.4z M44.5,8.7c-0.1,0.1-0.1,0.2-0.2,0.2c-1.6,0.2-2.4-0.3-2.6-1.7c0.1,0,0.1,0,0.1,0
		C43,7.1,43.9,7.6,44.5,8.7z M44.9,12.1c-1.3-0.1-1.2-0.5,0.3-1c0.1,0,0.2,0,0.2,0c0.1,0,0.1,0.1,0,0.1c-0.1,0.3-0.2,0.5-0.3,0.8
		C45,12.1,44.9,12.1,44.9,12.1z M42.5,10.2c-2-0.3-2.9-1.2-2.9-2.7c0.3-0.3,0.5-0.3,0.6,0.1c0.3,0.9,0.8,1.6,1.6,2.3
		c0.5,0.1,1,0.2,1.4,0.3C43,10.2,42.7,10.2,42.5,10.2z M41.3,11.7c0.3,0.8,0.3,0.9-0.1,0H41.3z M36.7,10.7c-0.4-0.9-0.2-1.7,0.5-2.6
		c0.3-0.2,0.5-0.1,0.5,0.4c0.3,1.3,0.1,2.2-0.6,2.6C36.9,11,36.8,10.8,36.7,10.7z"/>
	<path style="fill:#3172A1;" d="M10.7,58.6c-0.1-0.1-0.2-0.2-0.4-0.3c-0.1-0.2-0.2-0.3-0.3-0.4c-0.6-0.1-0.9,0-0.8,0.6
		c0.7,6.4,0.5,12.6-0.6,18.7c-0.5,0.2-0.9,0.4-1.4,0.5c-1.7-1.5-3.2-2.2-4.5-2.2c1.4,2,2.1,4,2,6c-1.2,0.7-2.8,1-4.7,0.7
		c1.4,1.2,3.1,1.4,5.1,0.7c0.1-0.1,0.2-0.1,0.3-0.2c0.7-1.1,0.9-2.2,0.4-3.3c0.2-1.1,1.3-1.4,3.4-1c0.1-0.3,0.2-0.6,0.3-0.8
		c0.6-3,0.9-5.9,1.1-8.6c0.5,3.1,1.8,5.9,3.9,8.2c1.2-0.5,2.4-0.6,3.3-0.1c0-1.3-0.3-2.6-1.1-3.7c-0.6,1.2-1.4,1.9-2.2,2.1
		c-0.8-1.7-1.5-3.3-2.3-4.9c0.1-0.1,0.1-0.2,0-0.3C11.6,66.5,11.1,62.6,10.7,58.6z"/>
</g>
</svg>
