<?xml version="1.0" encoding="iso-8859-1"?>
<!-- Generator: Adobe Illustrator 12.0.1, SVG Export Plug-In . SVG Version: 6.00 Build 51448)  -->
<!DOCTYPE svg PUBLIC "-//W3C//DTD SVG 1.1//EN" "http://www.w3.org/Graphics/SVG/1.1/DTD/svg11.dtd" [
	<!ENTITY ns_svg "http://www.w3.org/2000/svg">
	<!ENTITY ns_xlink "http://www.w3.org/1999/xlink">
]>
<svg  version="1.1" id="Layer_1" xmlns="&ns_svg;" xmlns:xlink="&ns_xlink;" width="82.8" height="95.021"
	 viewBox="0 0 82.8 95.021" style="overflow:visible;enable-background:new 0 0 82.8 95.021;" xml:space="preserve">
<g>
	<path style="fill:#3172A1;" d="M73.6,25.089c-0.1-0.1-0.2-0.1-0.4-0.2c-1.2-0.3-2.4-0.5-3.7-0.7c-0.5,0.3-1.1,0.5-1.7,0.9
		c-0.3,0.1-0.5,0.2-0.8,0.4c-0.2,0-0.5,0-0.6-0.1c-1.9-0.9-3.4-0.9-4.5-0.1c-4,0.2-8,1-11.7,2.8c-2.2,1-3.6,2.1-4.2,3.4
		c-0.1-0.2-0.3-0.3-0.4-0.5c-0.2,0.9-0.1,1.8,0.1,2.8c-2.4-0.8-4.8-1.3-7.4-1.4c-0.1,0.1-0.2,0.1-0.3,0.1l-0.2-0.2
		c-0.8,0-1.7,0.1-2.5,0.2c-0.4,0.2-0.8,0.3-1.3,0.5c0-0.3,0-0.5-0.1-0.8c0-0.2-0.1-0.4-0.1-0.6c-0.1,0.1-0.2,0.2-0.3,0.4
		c-2.8-6.4-8.1-9.2-16-8.4c-0.2-0.8-0.6-1.6-0.9-2.5c-0.1-0.1-0.2-0.2-0.3-0.4c-0.2-0.1-0.4-0.2-0.6-0.2c-1-0.2-2.1-0.2-3.2-0.3
		c-0.4,0.2-0.9,0.5-1.4,0.8c-0.2,0.1-0.3,0.2-0.3,0.3c0,1.2,0.1,2.3,0.3,3.4c0.1,0.8,0.2,1.7,0.3,2.6c0.6,0.8,1.2,1.5,1.8,2.2
		c0.4,0.6,0.9,1.1,1.4,1.6c1.1,0.4,2.1,0.5,3.1,0.4c0.2,0,0.3-0.1,0.4-0.3c0.2-1,0.2-2,0.1-3c0-0.5-0.1-0.9-0.2-1.2
		c0.8,0.4,1.4,1,1.9,1.6c0.1,0.4,0.2,0.7,0.2,1.1c-0.1,0.5-0.1,1-0.2,1.5c-0.3,0.3-0.5,0.5-0.7,0.8s-0.4,0.6-0.5,0.8
		c-0.5,0.2-0.8,0.5-1,0.8c-0.1,0.1-0.1,0.2-0.2,0.4c0.1,0,0.1,0.1,0.2,0.2c-0.1,0.1-0.2,0.3-0.3,0.4c1.2,0.1,2.5,0.5,3.9,1
		c-0.6,0.5-1.2,1.1-1.7,1.7c-0.1,0-0.1,0-0.1,0c-0.1,0.1-0.1,0.1-0.1,0.1c-0.9,0.9-1.7,1.8-2.5,2.7l0,0c-0.2,0.2-0.4,0.3-0.6,0.5
		c0.1,0.2,0.3,0.4,0.6,0.5c-4.3,4.4-6.5,10.2-6.8,17.5c0,2.1,0.2,4.2,0.7,6.1c1.5,5.2,4.2,9.1,8.3,11.8c-1,1.7-1.5,3.6-1.3,5.7
		c-6.2-0.5-11.6,1.1-16.3,4.7c0,0.2,0,0.3,0,0.4c-0.1,0.8,0,1.6,0.3,2.3c0,0.1,0,0.1,0.1,0.1c-0.8,0.3-1.4,0.9-1.9,1.5
		c1.2,0.1,2.2-0.1,3.2-0.4c0.9,0.1,1.8,0.3,2.6,0.4c-1.3,0.5-2.6,1.2-3.7,2.1c0.1,0.2,0.1,0.2,0.1,0.2c2.2-0.5,4.3-1.1,6.6-1.9
		c1,0.1,2,0.2,2.9,0.3c-1.6,0.4-3.1,1-4.4,1.7c2.5-0.1,5.1-0.6,7.6-1.6c2,0,4-0.1,6.1-0.3c-2.3,0.8-4.5,1.5-6.7,2.4
		c0.2,0,0.4,0,0.7,0c8.4-1.9,16.7-4.1,24.8-6.5c1.6-0.1,3.2-0.2,4.8-0.5c-0.4,0.2-0.9,0.4-1.5,0.5c-5.7,1.3-11,3.2-16.1,5.6
		c6-1.1,12.4-2.8,19-5.2c1.5,0.7,3,1.3,4.5,1.9c-0.8-0.2-1.6-0.4-2.5-0.4c-0.5,0.3-1.1,0.5-2,0.7c-3.2,0.3-6.1,1.3-8.7,2.9
		c0.3,0,0.7-0.1,1.1-0.1c4.4-0.9,8.5-1.8,12.4-2.9c-0.1-0.1-0.1-0.1-0.2-0.2c0.9,0.3,1.7,0.6,2.6,0.8c-1.9,0.4-3.4,1.1-4.6,2.1
		c0.3,0.6,0.7,0.8,1.5,0.7c3.5-0.6,5.3-1.3,5.3-2.2c1.9,0.4,3.7,0.7,5.6,1c-0.1-0.1-0.3-0.1-0.5-0.1c-0.9,0.3-2,0.6-3.2,0.9
		c-0.4,0.1-0.7,0.3-0.7,0.7c0.3,0.7,0.7,0.8,1.3,0.5c1.5-0.9,3.1-1.4,4.9-1.7c-0.1-0.1-0.1-0.1-0.2-0.1c-0.3-0.1-0.6-0.1-0.9-0.2
		c1.5,0.2,3.1,0.2,4.7,0.2c-1.4,0.7-2.5,1.4-3.6,2.2c0.5,0.4,1.1,0.4,1.7,0.2c2.1-0.9,4.4-1.8,6.6-2.6c3-0.3,6-0.8,9-1.6
		c0.1-0.1,0.2-0.2,0.3-0.2c0.2-0.2,0.5-0.4,0.7-0.7c0.6-0.1,1.1-0.1,1.7-0.2c-0.1-0.1-0.1-0.1-0.2-0.1c-0.3-0.1-0.7-0.1-1.1-0.2
		c0.3-0.3,0.4-0.7,0.5-1.1c-6.9-4.2-14.6-6.4-23-6.5c0-0.1,0-0.2,0-0.4c0.1-2.3-0.5-4.2-1.8-5.7c8.1-4.9,11.2-12.4,9.5-22.3
		c-0.4-2.3-1.2-4.5-2.2-6.4c-1-3.4-2.8-6.1-5.4-8.2c0.4-0.6,1.2-0.9,2.3-0.9c0.3,0.2,0.7,0.3,1.1,0.4c0.5,0.1,1-0.1,1.3-0.6
		c-0.2-0.3-0.4-0.5-0.6-0.7c-0.3-0.2-0.5-0.4-0.7-0.7c0.4,0.1,0.8,0.2,1.3,0.3c-0.3-0.2-0.5-0.3-0.7-0.4c-0.3-0.2-0.6-0.4-1-0.6
		c-0.1-0.2-0.1-0.3-0.1-0.5c-0.2-0.4-0.3-0.8-0.4-1.2c0.2-0.2,0.3-0.5,0.4-0.7c0-0.4,0.1-0.8,0.3-1.1c0,0,0.1-0.1,0.1-0.2
		c0.1,0.6,0.4,1,0.9,1.4c0.1,0.2,0.2,0.3,0.4,0.3c0.6,0.1,1.2,0.2,1.8,0.2c0.8-0.4,1.5-0.7,2.3-1
		C71.7,31.389,73.6,28.789,73.6,25.089z M71.9,26.089c-0.1,0.1-0.1,0.2-0.2,0.4c-1.5,3.6-4.2,5.3-8.1,5.1c0.2-0.4,0.4-0.7,0.5-1.1
		c0.6-0.5,0.9-1,0.8-1.4c0.1,0,0.1,0,0.2,0c-0.1-0.1-0.1-0.2-0.2-0.3c-1.5-1.3-3.3-1.6-5.4-1c-2.5,0.7-5,1.8-7.2,3.4
		c-1.4,1-2.2,2.1-2.5,3.5c-0.1,0.3-0.2,0.6-0.3,1c-0.2,0.1-0.4,0.3-0.6,0.4c2,0.6,3.8,1.3,5.6,2.2c0.4,0.2,0.7,0.4,1,0.6
		c2.5,1.5,4.5,3.4,6.3,5.5c0,0.2,0,0.3,0.1,0.4l-0.2,0.2c2.4,3.4,3.7,7.9,3.7,13.3c0,4.3-1.5,7.9-4.5,11c-9.3,9.8-21.1,12.4-35.3,8
		c-3.9-1.2-7-3.4-9.5-6.5c-5.2-6.5-6.1-13.9-2.6-22c0.1-0.1,0.2-0.2,0.4-0.4c0.1-0.1,0.2-0.2,0.4-0.3c0-0.2,0.1-0.3,0.2-0.4
		c0-0.1,0-0.2,0-0.4c0-0.1,0-0.2,0.1-0.3c0-0.2,0.1-0.3,0.2-0.4c0.8-0.7,1.5-1.5,2.1-2.4c3-4.4,6.9-7.3,11.7-8.7v-0.1
		c0-0.4,0-0.7,0-1c0.1-0.1,0.2-0.1,0.3-0.2c0-0.1,0-0.2,0.1-0.4c0-0.2,0-0.5,0-0.7c-0.1-0.1-0.1-0.2-0.1-0.4
		c-0.2-0.2-0.3-0.5-0.4-0.7c0-0.2,0-0.3,0-0.4s0-0.2,0-0.4c0.1-0.1,0.1-0.2,0.1-0.4c-0.1-0.1-0.2-0.2-0.3-0.3
		c-2.6-3.5-6.1-5.4-10.8-5.7c0,0.1,0,0.2,0,0.2c-0.7,0.1-1.3,0.3-2,0.5c-0.2,0-0.4,0.1-0.6,0.2c0.4,0,0.9,0.1,1.4,0.1
		c-0.2,0.1-0.4,0.2-0.5,0.2c-0.1,0.6,0.1,1.1,0.7,1.5c0.1,0.1,0.2,0.2,0.3,0.3c0,0.2,0,0.3,0,0.4c0,0.3,0,0.5,0,0.8
		c0,0.1,0,0.2,0,0.3c-0.1,0.2-0.1,0.2-0.2,0.2c-0.3,0-0.7,0-1.1,0c-0.9-0.9-1.7-1.9-2.4-3c-0.6-1.3-0.9-2.7-0.8-4.2
		c0.5-0.9,1.4-1,2.7-0.3c0.1,0.1,0.2,0.1,0.3,0.2c0.2,0.8,0.7,1.3,1.4,1.5c0,0-0.1,0-0.2,0l-0.4,0.2c6.8-0.1,12.3,2.7,16.3,8.3
		c0,0.2,0,0.4,0,0.6c0,0-0.1,0-0.1,0.1s0.1,0.1,0.1,0.1c-0.2,0-0.4,0-0.6,0.1c-0.2,0-0.3,0.1-0.5,0.3c-0.1,0.1-0.2,0.2-0.3,0.3
		c-0.1,0.1-0.1,0.3-0.1,0.4s0,0.2,0.1,0.4c0.2,0.1,0.4,0.2,0.5,0.2c0.2,0.1,0.3,0,0.4-0.1c0.1,0,0.2-0.1,0.3-0.1
		c0.2-0.2,0.3-0.3,0.6-0.3c0.8,0,1.6,0,2.5,0.1c4.1,0.2,7.6,0.3,10.6,0.4h0.3c0.4,0,0.8,0,1.2,0c-0.1-0.1-0.1-0.2-0.2-0.2
		c-0.3-0.2-0.6-0.3-0.9-0.4c0,0,0-0.1,0.1-0.1c0.3-0.2,0.5-0.3,0.6-0.5c4.3-4.8,9.8-7,16.5-6.8c0.5,0,0.9,0.1,1.4,0.1
		c0,0.1,0.1,0.2,0.1,0.2s0.2,0.1,0.3,0.2c0.1,0.2,0.2,0.3,0.3,0.4C67.8,26.689,69.9,26.189,71.9,26.089z M63.2,28.989
		c-0.2,0.1-0.2,0.2-0.3,0.3c-0.7,0.5-1.4,1.2-2,1.9c0,0.8-0.1,1.4-0.2,2c-0.2,0.5-0.2,1.1-0.2,1.6c-2.1-0.7-4.5-1-7-0.8
		c-0.3,0-0.6,0.1-0.9,0.2c-0.3,0.1-0.6,0.3-0.8,0.3c0.4-0.2,0.8-0.5,1.2-1C56.1,30.689,59.5,29.189,63.2,28.989z M60.8,36.089
		c-1.3,0.1-2.4,0.6-3.3,1.5c-1.6-1-3.4-1.8-5.4-2.4c2.9,0,5.7,0.2,8.6,0.7C60.7,35.889,60.7,35.989,60.8,36.089z M21.6,30.689
		c0.1-0.4,0-0.8-0.1-1.2c-0.4-0.8-0.8-1.7-1.4-2.5c-0.1-0.2-0.2-0.2-0.4-0.3c-0.3-0.1-0.6-0.2-0.8-0.5c3.3,0.9,6.2,2.8,8.6,5.8
		c0,0.1,0,0.2,0,0.3c0,0.3,0,0.5,0.1,0.8c0,0.1,0,0.2,0,0.4c0,0.1,0,0.2,0,0.3c-2.1-1.1-4.4-1.5-6.8-1.3c0-0.2,0.1-0.3,0.1-0.3
		C21.2,31.689,21.5,31.189,21.6,30.689z M22.5,35.189c0-0.2-0.1-0.5-0.2-0.7c-0.1,0-0.2-0.1-0.2-0.2c2-0.1,3.8-0.2,5.4,0
		c-1.9,0.7-3.7,1.6-5.3,2.6c0.1-0.2,0.3-0.4,0.4-0.6C22.6,35.989,22.6,35.589,22.5,35.189z M28.5,80.289c0.8,0.1,1.5,0.3,2.2,0.4
		c-2.3,0.1-4.3,1-6.1,2.7c3.2-0.4,6.7-0.9,10.5-1.6c0-0.1,0-0.2,0.1-0.3c0-0.2,0-0.3,0.1-0.4c2.4,0.1,4.9,0,7.3-0.3l0,0
		c2.1,1,4.5,1.8,7.3,2.5c-1.6,0.6-2.9,1.6-3.9,2.9c-5.4,0.1-10.9-0.2-16.4-0.9c-1.5-0.9-3.1-1.5-5-1.9c-0.6-0.1-1.3-0.2-2.1-0.3
		c0.5-1.9,0.6-3.4,0.3-4.6C24.6,79.289,26.5,79.789,28.5,80.289z M21.8,78.089c-1,2.2-1,4.4-0.3,6.7c3.1,1,6.3,2,9.4,3.3
		c-9.6,2.9-18.9,2.9-27.9,0.1c4.4-3.3,9.7-4.9,15.8-4.9c0-0.1,0-0.2,0-0.4c0.2-2.1,0.4-4.2,0.8-6C20.3,77.289,21,77.689,21.8,78.089
		z M33.1,87.889c-0.6-0.6-1.3-1.1-1.9-1.6c1.6,0.5,3.3,0.9,5,1.1c-1,0.2-2,0.5-3,0.8C33.1,88.089,33.1,87.989,33.1,87.889z
		 M55.4,76.589c0.2-0.1,0.4-0.2,0.6-0.3c1.1,2.2,1.8,4.6,2,7c8.2,0.3,15.4,2,21.6,5.4c-11,3.3-21.8,2.7-32.3-1.6
		c2.4-1.8,5-2.8,8-3.3c0-0.1,0-0.2,0.1-0.4c0.5-2.7,0-4.8-1.5-6C54.4,77.089,54.9,76.889,55.4,76.589z M54.1,82.389
		c-0.9,0.1-1.8,0.2-2.6,0.4c-2.1-1-4-1.8-5.9-2.6c2.6-0.6,5.2-1.4,7.7-2.6C54.3,78.989,54.5,80.589,54.1,82.389z"/>
	<path style="fill:#3172A1;" d="M38,38.089c-0.4-0.4-0.9-0.7-1.5-1.2c-0.1-0.1-0.3-0.2-0.5-0.3c-1.6-0.1-3.2-0.1-4.7-0.2
		c-3.4,0.8-5.8,2.8-7.2,6c-3.8,8.7-1.2,14.3,7.7,16.8c1.3-0.5,2.7-0.9,4.2-1.3c0.8-0.2,1.5-0.7,2-1.3c0.7,0.9,1.7,1.6,2.9,2
		c1.9,0.7,3.7,0.6,5.5-0.2c6.5-2.9,8.4-7.8,5.6-14.7c-0.9-1.2-1.9-2.3-3-3.4C45.8,37.289,42.1,36.589,38,38.089z M37.6,40.189
		c0.2,0.3,0.4,0.5,0.7,0.7c0.5,0,0.9-0.3,1.2-0.8c0.2-0.3,0.5-0.7,0.9-0.9c3-0.2,5.6,0.7,7.9,2.6c0.2,0.3,0.4,0.5,0.6,0.8
		c4,5.7,3.4,10.6-1.9,14.6c-3.4,0.8-6.3,0.1-8.7-2.4c-3.4,2.8-7,3.3-10.8,1.4c-0.8-0.4-1.3-0.9-1.6-1.5c-3.6-7.5-1.7-13.1,5.9-16.8
		c2.2-0.6,4-0.2,5.6,1.3C37.4,39.589,37.5,39.889,37.6,40.189z"/>
	<path style="fill:#3172A1;" d="M36,41.989L36,41.989c-1.1,0.2-1.7,0.9-1.7,2c0.3,1.6,1.4,1.9,3.3,0.8c0.1-0.1,0.1-0.2,0.1-0.3
		C37.9,42.989,37.4,42.089,36,41.989z"/>
	<path style="fill:#3172A1;" d="M41,42.289c-0.6,0.2-0.9,0.6-1,1.3c-0.1,0.3-0.1,0.5-0.1,0.7c0.3,1.3,1.3,1.7,2.9,1.2
		c0.2-0.3,0.5-0.6,0.8-0.8c0-0.1,0.1-0.2,0.1-0.4c0.1-0.1,0.1-0.2,0.1-0.3c0-0.2-0.1-0.3-0.1-0.4C43.2,42.689,42.3,42.189,41,42.289
		z"/>
	<path style="fill:#3172A1;" d="M56,67.989L56,67.989c-3-2.6-6.7-3.5-11-2.8c-1.9,0.8-3.8,1.8-5.6,3c-1.2,0.8-1.9,1.7-2,2.9l0.1,0.2
		c4.8-4.1,10.3-5.2,16.4-3.5c0.2,0.3,0.5,0.5,0.8,0.6c0.1,0,0.2,0,0.3,0C55.3,68.289,55.7,68.189,56,67.989z"/>
	<path style="fill:#3172A1;" d="M56,70.689c0-0.1,0-0.1,0-0.2c-0.3,0.2-0.7,0.3-1,0.4c0.3,0.1,0.5,0,0.9,0
		C55.9,70.789,56,70.789,56,70.689z"/>
	<path style="fill:#009659;" d="M46.2,34.689L46.2,34.689h-0.3H46.2z"/>
	<path d="M45.9,34.689c0,0.1,0.1,0.3,0.1,0.5c0.1-0.2,0.1-0.3,0.2-0.5H45.9z"/>
	<path d="M61.7,44.989l0.2-0.2c-0.5-0.4-0.9-0.8-1.4-1.2C60.9,43.989,61.3,44.489,61.7,44.989z"/>
	<path d="M28.6,35.489L28.6,35.489v-0.1V35.489z"/>
	<path style="fill:#3172A1;" d="M79.5,53.489c-0.3,0-0.6,0.2-0.8,0.4c-0.5,0.6-1,1.3-1.3,2.1c-0.2,0-0.3,0-0.4-0.1
		c-0.6-0.4-1.1-0.4-1.5-0.1c-0.2,0.3-0.5,0.6-0.6,0.9c-0.5,0.7-1.1,1.1-1.6,1.1c-0.2-0.2-0.3-0.5-0.4-0.7c-0.3-0.6-0.5-1.1-0.9-1.5
		c-0.3,0.2-0.5,0.5-0.8,0.8c-1.2,1.7-1.4,2.9-0.7,3.8c0.2-0.2,0.4-0.6,0.5-1c0.3-0.8,0.6-1.5,1-2.2c0.1,0.2,0.2,0.5,0.3,0.7
		c0.2,0.9,0.8,1.5,1.7,1.8c0.3-0.2,0.4-0.5,0.6-0.7c0.3-0.6,0.7-1,1.2-1.5c0.9,0.3,1.7,0.2,2.3-0.3c0.1-0.2,0.2-0.3,0.3-0.4
		C80.2,55.089,80.6,53.989,79.5,53.489z"/>
	<path style="fill:#3172A1;" d="M79.3,66.989c-0.2-0.2-0.4-0.2-0.5-0.2c-3,0.1-5.1-0.6-6.3-2.2v0.1c-1.5,0.2-2.6,0.7-3.2,1.7
		c0,0,0.1,0.1,0.1,0c1.9-0.8,2.9-0.6,3.1,0.6C74.7,67.489,76.9,67.489,79.3,66.989z"/>
	<path style="fill:#3172A1;" d="M74.6,74.789c0,0,0,0-0.1-0.1c-0.4-0.5-0.7-1-1-1.7c0-0.1-0.1-0.3-0.2-0.4c-1,0.1-1.7,0-2.2-0.2
		c-0.1,0-0.1,0-0.1-0.2c0-0.1,0-0.2,0-0.4c-0.1-1.3-1.1-1.6-3-0.8h-0.3c1.3,0.3,2.1,0.9,2.3,1.7c0,0.3,0,0.4,0.1,0.4
		c1.2,0.3,2.2,0.7,2.9,1.2c0,0.3,0.1,0.5,0.2,0.6c0.9,1.1,1.9,1.3,3.1,0.7C76,74.989,75.4,74.689,74.6,74.789z"/>
	<path style="fill:#3172A1;" d="M80.5,91.089v0.1c-3.1,0.5-5.8,1.7-8.2,3.4c0.2,0.1,0.4,0.1,0.6,0c2.9-1.1,5.9-2.1,8.9-3
		c-0.1-0.1-0.2-0.1-0.2-0.2C81.2,91.289,80.9,91.189,80.5,91.089z"/>
	<g>
		<path style="fill:#3172A1;" d="M38.2,21.289c-0.1,0-0.2,0.1-0.3,0.3c-0.3,0.4-0.4,1-0.3,1.5c0,0.3,0,0.5,0,0.7
			c1.6,1.5,3.3,1.7,5.3,0.3c0.1-0.5,0.2-1,0.3-1.5c0-0.5,0-1-0.2-1.5c-0.1-0.1-0.2-0.2-0.2-0.2c0.8-0.2,1.8-0.4,2.7-0.7
			c4.8-1.2,6.9-4.3,6.5-9c-0.7-8.4-6-12.1-16-11c-2.7-0.3-5.2,0.3-7.6,1.7c-1.5,0.8-2.8,1.9-3.9,3.2c-1.1,3.1-0.9,6.1,0.9,8.9
			C28.4,18.689,32.7,21.089,38.2,21.289z M32,1.789c3.1-0.2,6.1-0.1,9.1,0.4c8.6,1.3,11.6,5.7,9,13.1c-1.1,1.6-2.7,2.7-4.6,3.2
			c-9.2,2.7-15.8,0.6-19.9-6.3c0-0.9-0.1-1.8-0.2-2.6c-0.2-1.2-0.1-2.3,0.2-3.4c0.2-0.1,0.3-0.2,0.4-0.4
			C27.4,3.689,29.5,2.389,32,1.789z M40.3,21.189c0,0,0.1,0,0.2,0c0.9,0.2,1.4,0.8,1.4,1.8c-1.6,1.5-2.7,1.5-3.5-0.3
			c0-0.1,0.1-0.2,0.2-0.2C39.2,21.889,39.7,21.489,40.3,21.189z"/>
		<path style="fill:#3172A1;" d="M47.8,5.189c-0.2-0.1-0.4-0.2-0.6-0.2c-2.8-0.8-5.7-1.2-8.7-1.3c-3.3,0.1-6.6,0.5-10,1.3
			c-0.5,0.6-0.9,1.2-1.2,1.9c-0.2,0.2-0.2,0.4-0.2,0.7c0,0.1,0,0.2,0,0.4c0,0.1,0,0.2,0,0.3c0,0.2,0.1,0.2,0.2,0.3
			c0.6,0.2,1.1,0.4,1.6,0.7c0.1,0,0.1,0,0.1,0.2c0,0.1,0,0.2,0,0.3c0,1.2,0,2.3,0,3.4c0,0.5,0,1,0,1.5c0,0.3,0,0.5,0,0.8
			c1.7,0.9,3.5,1.8,5.3,2.5c1.2,0.5,2.3,0.6,3.2,0.2c0.1-0.1,0.1-0.2,0.1-0.4c3.4-1.6,6.6-3.2,9.7-5c-0.1-0.1-0.2-0.2-0.2-0.3
			c-0.5-1.5-0.9-2.9-1.1-4.3c0.8-0.1,1.7-0.3,2.6-0.4c0.3-0.5,0.2-1-0.2-1.5c0-0.1-0.1-0.2-0.1-0.3c-0.1-0.2-0.2-0.3-0.2-0.4
			C48,5.489,47.9,5.389,47.8,5.189z M37.5,7.989c-0.8,0.3-1.6,0.7-2.2,1.2c0,0.7,0,1.3,0,1.9c0.1,1.9,0.4,3.8,1,5.6
			c-2.4-0.2-4.5-1-6.3-2.2c0-0.8,0-1.5,0-2.3c0-1.2,0-2.5,0-3.7c-0.1-0.2-0.2-0.2-0.3-0.2c-2.2-0.5-2.3-1.1-0.2-1.8
			C32.4,6.089,35,6.589,37.5,7.989z M39,7.489c-1.2-1-1.3-1.7-0.5-2c2.8-0.3,5.4,0,8,1c-2.5,0.3-4.9,0.7-7.2,1.3
			C39.2,7.689,39.1,7.589,39,7.489z M36.8,11.889c-0.1-0.4-0.1-0.8,0-1.2c2.4-0.9,4.9-1.6,7.7-2.2c-0.4,1-0.1,2.3,0.6,3.7
			c-2.7,1.2-5.3,2.5-7.6,4.2C37.4,14.789,37.1,13.289,36.8,11.889z"/>
		<path style="fill:#3172A1;" d="M41.3,29.889c0.2-0.2,0.3-0.3,0.5-0.4c0.1-0.2,0.1-0.3,0.2-0.4c0-1.5-0.6-2.4-2-2.8
			c-1.1-0.2-1.9,0.2-2.5,1c-0.1,0.3-0.3,0.6-0.3,0.8c-0.1,0.4-0.2,0.8-0.2,1.1c1.1,1.2,2.1,1.6,3.3,1.3
			C40.6,30.289,41,30.089,41.3,29.889z M40.4,28.489c0,0.1,0,0.2-0.1,0.2c-1.6,0.9-2.2,0.6-1.8-1
			C39.5,27.289,40.1,27.589,40.4,28.489z"/>
		<path style="fill:#3172A1;" d="M37.8,31.289l0.2,0.2c0.1,0,0.2,0,0.3-0.1C38.2,31.289,38,31.289,37.8,31.289z"/>
	</g>
</g>
</svg>
