<?xml version="1.0" encoding="iso-8859-1"?>
<!-- Generator: Adobe Illustrator 12.0.1, SVG Export Plug-In . SVG Version: 6.00 Build 51448)  -->
<!DOCTYPE svg PUBLIC "-//W3C//DTD SVG 1.1//EN" "http://www.w3.org/Graphics/SVG/1.1/DTD/svg11.dtd" [
	<!ENTITY ns_svg "http://www.w3.org/2000/svg">
	<!ENTITY ns_xlink "http://www.w3.org/1999/xlink">
]>
<svg  version="1.1" id="Layer_1" xmlns="&ns_svg;" xmlns:xlink="&ns_xlink;" width="83.785" height="83.672"
	 viewBox="0 0 83.785 83.672" style="overflow:visible;enable-background:new 0 0 83.785 83.672;" xml:space="preserve">
<g>
	<path style="fill:#3172A1;" d="M81.385,79.141c0.2-0.2,0.5-0.4,0.7-0.7c0.6-0.1,1.1-0.1,1.7-0.2c-0.1-0.1-0.1-0.1-0.2-0.1
		c-0.3-0.1-0.7-0.1-1.1-0.2c0.3-0.3,0.4-0.7,0.5-1.1c-6.2-3.8-13-5.9-20.5-6.4c0.4-0.4,0.7-0.7,1-1.1c-1,0.4-2.1,0.7-3.3,0.9
		c0,0,0,0-0.1,0.1c0.1-3.4-1-6.4-3.3-8.9c0.1-0.1,0.2-0.2,0.4-0.3c-0.1-0.2-0.2-0.3-0.3-0.4c3.5-3.5,5.5-7.8,6-13.1
		c0.1-2.1,0-4.1-0.4-6.2c-1.6-7.1-4.8-12.4-9.8-16c0.2-0.1,0.4-0.3,0.5-0.6c-1.8-0.8-3.3-2-4.5-3.6c-0.7-1-1.4-2.1-2.1-3.3
		c-0.1-0.2-0.2-0.5-0.2-0.7c0.5-2.4,1.8-4.1,4-5.3c-3.8-0.8-7.3-2.1-10.7-4c-0.2-0.4-0.4-0.9-0.6-1.3c1.2,0.4,2.6,0.5,4,0.5
		c0.2-0.2,0.3-0.3,0.4-0.4c1-1.2,1.2-2.5,0.6-3.8c-0.1-0.4-0.4-0.7-0.6-1.1c-0.1-0.1-0.3-0.2-0.4-0.3c-1-0.5-2-0.9-2.9-1.2
		c-3.6-0.8-6.7-0.2-9.1,1.9c-0.1,0-0.1,0.1-0.1,0.2c0,0.2,0,0.3,0,0.4c0.4,1.5,1.4,2.4,3,2.6c-0.5,2.3-0.6,4.7-0.5,7.2
		c0.2,2.7,0.9,5.2,2.3,7.5c-0.5,0-1-0.2-1.4-0.3c-0.1,0.3-0.1,0.4,0,0.7c-0.5,0-1-0.1-1.3-0.3c-3.6,0.4-6.8,1.4-9.7,3.1
		c-0.1-0.2-0.2-0.4-0.3-0.5c0-0.2,0-0.5-0.1-0.7c-0.1,0-0.2,0.1-0.4,0.2c-2.1-1.5-4.4-2.5-6.9-2.9c-3.3-0.8-6.3-0.4-8.6,1.2
		c-0.1-0.4-0.2-0.7-0.3-1c-0.5-1.2-1.2-2-2.1-2.8c-1,0.1-2.1,0.1-3.2,0.1c-1.8,2.8-2,5.8-0.4,9.1c0.4,0.8,1,1.6,1.9,2.2
		c0.1,0.1,0.3,0.2,0.5,0.2c0.6,0.1,1.1,0.2,1.6,0.2c0.2-0.2,0.4-0.3,0.6-0.4c0.3-0.1,0.5-0.2,0.7-0.4c0.3-0.5,0.5-1,0.5-1.5
		c0.1-0.5,0.2-0.9,0.2-1.3c0.2,0.1,0.4,0.2,0.6,0.4c0.2,0.1,0.2,0.2,0.4,0.3c-0.4,2.5-1.7,4.5-3.9,6.1c0,0.1-0.1,0.1-0.1,0.3
		c2.1-0.1,4-0.1,5.9-0.2c-0.2,0.4-0.5,0.8-0.8,1.2c-0.2,0.3-0.4,0.5-0.5,0.8c0.4-0.1,0.8-0.3,1.2-0.5c-1.2,1.7-2.1,3.7-2.9,5.9
		c-0.7,2.2-1.1,4.5-1.1,7c0.1,7.9,2.8,13.7,8.1,17.5c-0.4,0.2-0.8,0.4-1.1,0.8c-0.5,0.5-0.9,1-1,1.6c-0.2,1.3,0.3,2.5,1.2,3.4
		c0.5,0.4,1.1,0.8,1.6,1.2c-4.5,0.3-8.6,1.9-12.2,4.7c0,0.2,0,0.3,0,0.4c-0.1,0.8,0,1.6,0.3,2.3c0,0.1,0,0.1,0.1,0.1
		c-0.8,0.3-1.4,0.9-1.9,1.5c1.2,0.1,2.2-0.1,3.2-0.4c0.9,0.1,1.8,0.3,2.6,0.4c-1.3,0.5-2.6,1.2-3.7,2.1c0.1,0.2,0.1,0.2,0.1,0.2
		c2.2-0.5,4.3-1.1,6.6-1.9c1,0.1,2,0.2,2.9,0.3c-1.6,0.4-3.1,1-4.4,1.7c2.5-0.1,5.1-0.6,7.6-1.6c2,0,4-0.1,6.1-0.3
		c-2.3,0.8-4.5,1.5-6.7,2.4c0.2,0,0.4,0,0.7,0c8.4-1.9,16.7-4.1,24.8-6.5c1.6-0.1,3.2-0.2,4.8-0.5c-0.4,0.2-0.9,0.4-1.5,0.5
		c-5.7,1.3-11,3.2-16.1,5.6c6-1.1,12.4-2.8,19-5.2c1.5,0.7,3,1.3,4.5,1.9c-0.8-0.2-1.6-0.4-2.5-0.4c-0.5,0.3-1.1,0.5-2,0.7
		c-3.2,0.3-6.1,1.3-8.7,2.9c0.3,0,0.7-0.1,1.1-0.1c4.4-0.9,8.5-1.8,12.4-2.9c-0.1-0.1-0.1-0.1-0.2-0.2c0.9,0.3,1.7,0.6,2.6,0.8
		c-1.9,0.4-3.4,1.1-4.6,2.1c0.3,0.6,0.7,0.8,1.5,0.7c3.5-0.6,5.3-1.3,5.3-2.2c1.9,0.4,3.7,0.7,5.6,1c-0.1-0.1-0.3-0.1-0.5-0.1
		c-0.9,0.3-2,0.6-3.2,0.9c-0.4,0.1-0.7,0.3-0.7,0.7c0.3,0.7,0.7,0.8,1.3,0.5c1.5-0.9,3.1-1.4,4.9-1.7c-0.1-0.1-0.1-0.1-0.2-0.1
		c-0.3-0.1-0.6-0.1-0.9-0.2c1.5,0.2,3.1,0.2,4.7,0.2c-1.4,0.7-2.5,1.4-3.6,2.2c0.5,0.4,1.1,0.4,1.7,0.2c2.1-0.9,4.4-1.8,6.6-2.6
		c3-0.3,6-0.8,9-1.6C81.185,79.241,81.285,79.141,81.385,79.141z M36.585,5.541c0.4,0.2,0.8,0.4,1.1,0.6c-1.3,3.6-1,7.6,0.8,12
		c0,0.1,0.1,0.2,0.1,0.3c0.5,0.6,0.9,1.2,1.4,1.8c-0.1,0-0.2,0-0.3,0c0.1,0.6,0.3,1.1,0.5,1.7v0.2c5,0.5,9.3,2.6,13,6.4
		c0.8,0.8,1.6,1.4,2.6,1.9c0.1,0.1,0.2,0.2,0.2,0.4c0,0.1,0,0.2,0.1,0.3c0.1,0.2,0.1,0.3,0.2,0.4c0,0.1,0.1,0.2,0.2,0.3
		c0.2,0.1,0.3,0.2,0.5,0.3c0.1,0.1,0.2,0.2,0.4,0.3c4.9,7.4,5.4,14.7,1.4,22.1c-1.9,3.5-4.6,6.2-8.2,8.1c-3.1,1.6-6.1,2.8-9,3.6
		h-0.1l0,0c-1.9,0.5-3.8,0.9-5.6,1.1c-0.1-0.1-0.1-0.2-0.1-0.2c-0.1,0-0.1,0.1-0.1,0.2c-0.6,0-1.2,0-1.7,0.1
		c-0.1-0.1-0.2-0.1-0.3-0.2c0,0-0.1,0-0.2,0s-0.2,0.1-0.3,0.2c-6.6,0.1-12.8-2.1-18.8-6.4c-3.4-2.5-5.5-5.8-6.3-10
		c-1-5.3-0.6-9.9,1.3-13.7l-0.3-0.2c0-0.2,0.1-0.5,0.2-0.7c0.1-0.3,0.2-0.6,0.4-0.9c-0.1,0.3-0.1,0.7-0.2,1.1c0,0.1,0,0.2,0,0.3
		c0.1,0,0.1-0.1,0.2-0.1c0.7-1.6,1.6-3.1,2.4-4.6c0.6-0.6,1.3-1.3,1.9-2c0.3-0.2,0.6-0.4,0.9-0.6c1.7-1.3,3.5-2.4,5.4-3.4
		c-0.1,0-0.3-0.1-0.5-0.2c0,0-0.1,0-0.2-0.1l0,0c0.1,0,0.2,0.1,0.2,0.1l0.1-0.2c0-0.1,0-0.2-0.1-0.4c0-0.2,0-0.4-0.1-0.7
		c-0.1-0.1-0.2-0.2-0.3-0.4c-0.5-0.2-0.9-0.5-1.3-0.7c-1.2-0.8-2.5-1.3-3.9-1.7c-2.6-0.3-5,0.1-7.1,1.3c-0.1,0-0.2-0.1-0.4-0.1
		c-0.6,0.3-0.8,0.6-0.6,1c0,0,0,0,0.1,0.1c0,0,0,0,0,0.1c0.1,0,0.1,0.1,0.2,0.2c0,0.9-0.4,1.6-1.2,2.2c-2.4-0.4-3.8-2.1-4-5.1
		c-0.1-0.8,0.1-1.6,0.8-2.3c0-0.1,0-0.2,0.1-0.2c0.7-1,1.4-1,2-0.2c0.3,0.4,0.5,0.7,0.6,1.2c0.2,0.7,0.5,1.3,0.9,1.6
		c-0.1,0.1-0.2,0.2-0.4,0.4c0,0,0,0.1,0,0.2c0.1,0.1,0.1,0.1,0.2,0.1c1.4,0,2.7-0.6,4-1.6c4.8-0.2,9.2,0.8,13,2.9
		c0.1,0,0.1,0.1,0.1,0.1c-0.2,0.2-0.5,0.4-0.8,0.5c-0.1,0.1-0.1,0.1-0.1,0.3c0.3-0.1,0.7-0.2,1.2-0.3h0.3c2.8-0.7,6.3-1.4,10.3-2.2
		c0.8-0.3,1.6-0.5,2.4-0.6c0.3,0,0.5,0.1,0.6,0.1c0.1,0.1,0.2,0.1,0.4,0.2c0.1,0,0.2,0,0.4,0c0.1-0.1,0.3-0.2,0.4-0.4
		c0.1-0.1,0.1-0.2,0.1-0.3c-0.1-0.2-0.1-0.3-0.2-0.4s-0.2-0.2-0.4-0.3c-0.1-0.1-0.3-0.2-0.5-0.2l0,0c-0.3-2.4-0.8-5.1-1.3-8.1
		c-0.6-3-0.4-5.9,0.7-8.5c-0.1-0.2-0.1-0.2-0.2-0.2c-0.9-0.2-1.8-0.4-2.7-0.7c3.3-1.4,6.4-1.2,9.4,0.8c0.3,0.1,0.5,0.3,0.6,0.6
		c0,0.1,0,0.2-0.1,0.3c-0.1,0.3-0.2,0.5-0.4,0.8c-0.2,0.1-0.4,0.3-0.6,0.5c-0.1-0.1-0.2-0.1-0.4-0.1c-2-0.8-3.8-1-5.5-0.7
		C36.285,5.241,36.385,5.44,36.585,5.541z M38.185,6.341c0,0,0,0,0.1,0c0.5,3.2,2.9,5.1,6.9,5.8c0.5,0.1,0.9,0.2,1.3,0.3
		c-0.1,0-0.2,0-0.4,0c-0.5,0.1-1.1,0.2-1.6,0.3c-1.7,1.4-2.9,3.2-3.5,5.3c-0.1,0.1-0.1,0.3-0.1,0.4
		C39.085,14.44,38.185,10.341,38.185,6.341z M43.785,15.44c0.7-1,1.5-1.7,2.4-2.3c0.2,0,0.3,0,0.5,0c-1.3,1.5-1.7,3.2-1.2,5.3
		c0.1,0.6,0.2,1.2,0.2,1.9c0.6,0.8,1.1,1.5,1.7,2.2c-1.5-0.7-3.1-1.2-4.7-1.5c-0.2-0.4-0.5-0.7-1.1-0.9c0-0.2-0.1-0.3-0.2-0.4
		C41.985,18.341,42.785,16.841,43.785,15.44z M8.685,24.041c0,0,0,0,0-0.1c0.1,0,0.1,0,0.2-0.1c3.5-0.6,6.6-0.2,9.3,1.3
		c-3.3-0.1-6.3,0.7-8.8,2.5c0-0.4,0-0.8,0-1.3c0-0.3,0-0.7,0-1.1C9.185,24.741,8.885,24.341,8.685,24.041z M7.885,29.741
		c0.1-0.1,0.2-0.1,0.2-0.2c2.9-1.3,6-2.6,9.5-3.7c0,0,0,0,0.1,0c-1.4,0.8-2.6,1.7-3.7,2.7c0.1,0,0.1-0.1,0.1-0.2c0,0,0,0-0.1,0
		c-0.7,0.7-1.3,1.3-1.8,2c-0.1-0.1-0.1-0.1-0.1-0.2c0-0.3,0-0.6,0.1-1c-0.3,0.2-0.5,0.4-0.7,0.6c-0.2-0.2-0.5-0.2-0.8-0.3
		C9.885,29.841,8.885,29.94,7.885,29.741z M24.085,70.44c-0.2,0.1-0.5,0.1-0.6,0.2c-1-1.2-2.2-2.2-3.6-2.9c0.1-0.1,0.3-0.1,0.4-0.2
		c0.5,0.2,1,0.3,1.5,0.4c0.2-0.1,0.3-0.2,0.5-0.3c0.2,0,0.3,0,0.5,0.1c-0.1,0.1-0.2,0.2-0.3,0.4c0.3,0.1,0.5,0.1,0.8,0.1
		c0-0.1,0.1-0.2,0.1-0.3c2.1,0.5,4.2,0.8,6.4,1c-0.2,0.1-0.2,0.1-0.3,0.1c0.4,0.1,0.8,0.1,1.2,0.1c1.4-0.3,2.8-0.5,4.3-0.8
		c-0.9,0.9-2.2,1.4-3.8,1.4c-0.3-0.1-0.4-0.3-0.6-0.5c-0.6,0.2-1.3,0.4-2.1,0.5c-0.4,0.1-0.9,0.2-1.4,0.4c-0.8,0.2-1.2,0.6-1.2,1.3
		c-0.2,0.2-0.3,0.4-0.5,0.6c-0.4-0.1-0.9-0.2-1.4-0.3l0,0c0.1,0,0.1,0,0.3,0c-0.1-0.1-0.2-0.2-0.2-0.3c0,0,0-0.1-0.1-0.1
		C23.985,71.041,23.985,70.741,24.085,70.44z M22.085,71.241c0,0.8,0.2,1.5,0.4,2.2c3.1,1,6.3,2,9.4,3.3c-9.6,2.9-18.9,2.9-27.9,0.1
		c4.2-3.2,9.2-4.8,14.9-4.9h0.1c0.3,0,0.5,0,0.8,0c0-0.1,0-0.2,0-0.4c0.1-0.2,0.1-0.5,0.1-0.8l0,0c-0.4-0.1-0.8-0.2-1.1-0.4
		c0,0.2,0,0.4,0,0.5c-0.2,0-0.4,0-0.5,0c-0.8-0.9-1.8-1.5-3.2-2c-1.1-0.4-1.8-1.1-2-2.2c0.2-0.7,0.7-1.1,1.4-1.2
		c0.5-0.1,1-0.2,1.5-0.3c0.1,0,0.1,0,0.1,0c-0.3,0.2-0.6,0.3-0.9,0.5c0.4,0.2,0.8,0.4,1.2,0.6c0.2-0.2,0.4-0.4,0.7-0.6
		c0.5,0.3,1,0.5,1.6,0.8c-0.4,0.3-0.5,0.7-0.4,1.2C19.085,69.44,20.285,70.641,22.085,71.241z M26.585,72.341
		c0.2-0.1,0.3-0.1,0.4-0.3c0.3,0,0.7-0.1,1.1-0.3c0,0,0,0,0.1,0c1.1-0.2,2.1-0.3,3.2-0.5c1.9,0.4,3.5,0,4.7-1.1c0-0.2,0-0.3,0.1-0.4
		c0-0.5,0-1.1,0-1.5c1.5-0.3,3.2-0.6,4.9-0.9c-0.1,1-0.2,1.9-0.2,2.9c1.2,0.4,2.3,0.7,3.5,1.1c-0.1,0.1-0.2,0.2-0.3,0.3
		c0.1,0,0.1-0.1,0.2-0.1c0-0.1,0.1-0.2,0.1-0.2c2,0.5,3.8,0.8,5.6,1c-1.2,0.6-2.2,1.4-3,2.5c-5.4,0.1-10.9-0.2-16.4-0.9
		C29.385,73.241,28.085,72.741,26.585,72.341z M50.685,70.44c-0.8-0.1-1.6-0.1-2.4-0.2c-2-0.7-4-1.1-6.2-1.1c0-0.2,0-0.3,0-0.4
		c0.1-0.6,0.1-1.1,0-1.6c3.6-0.7,7-1.7,10.2-3c0.1-0.1,0.2-0.1,0.3-0.2v0.1c0.1-0.1,0.3-0.2,0.4-0.2c0.6,1.5,1.5,3.2,2.6,5
		c-0.3,0.4-0.4,0.7-0.4,1.1c0,0.2,0,0.4,0,0.5c-0.7,0.1-1.3,0.1-1.9,0.1c-0.4,0.2-0.7,0.5-0.9,0.8c-0.3-0.1-0.6-0.2-0.8-0.3
		C51.285,70.841,50.985,70.641,50.685,70.44z M34.085,76.541c-0.6-0.6-1.3-1.1-1.9-1.6c1.6,0.5,3.3,0.9,5,1.1c-1,0.2-2,0.5-3,0.8
		C34.085,76.741,34.085,76.641,34.085,76.541z M55.885,62.541c0.1-0.1,0.1-0.1,0.3-0.2c1,2.8,2.1,5.5,3,8.1
		c-0.2,0.1-0.2,0.1-0.4,0.1c0.1,0.2,0.1,0.4,0.1,0.7c-0.5,0.3-1,0.6-1.5,1c1,0.1,1.9,0.1,2.8-0.2c7.7,0.3,14.5,2.1,20.4,5.3
		c-11,3.3-21.8,2.7-32.3-1.6c1.4-1.1,3-1.9,4.7-2.5c0.4-0.1,0.7-0.2,1.1-0.3c0.7-0.2,1.4-0.4,2.2-0.5c0-0.1,0-0.2,0.1-0.3
		c0-0.1,0.1-0.2,0.2-0.3c0.2-0.3,0.2-0.7,0.2-1.1v-0.2c0.1-0.1,0.1-0.1,0.1-0.1s0,0-0.1,0c0.1-0.6,0.2-1.1,0.5-1.6
		c0-0.1,0-0.2-0.1-0.3c-0.4-2.1-1.5-3.9-3.1-5.3c0.2-0.1,0.4-0.2,0.6-0.3c-0.1-0.1-0.1-0.2-0.2-0.3c0.5-0.3,0.9-0.6,1.3-1
		C55.785,61.94,55.785,62.241,55.885,62.541z"/>
	<path style="fill:#3172A1;" d="M38.185,25.94c-1.6,0.3-3.1,0.6-4.7,1c-0.1,0.1-0.3,0.3-0.4,0.4c-0.5,0.5-0.9,1-1.3,1.4
		c-4.3-0.7-7.7,0.6-10.4,4.2c-0.8,1.2-1.6,2.5-2.3,3.8c-1.5,7.3,1.2,11.8,8.2,13.5c1.8,0.5,3.7,0.2,5.4-0.7c1.1-0.7,1.9-1.6,2.4-2.6
		c0.7,0.5,1.4,0.9,2.3,1c1.4,0.1,2.9,0.3,4.3,0.4c8.3-4,9.8-10,4.6-17.8C44.285,27.641,41.585,26.041,38.185,25.94z M32.685,29.741
		c1.2-1.8,3-2.5,5.2-2.3c8.1,2.3,11,7.4,8.8,15.5c-0.2,0.6-0.6,1.2-1.3,1.7c-3.4,2.6-7.1,2.8-10.8,0.6c-2,2.8-4.7,4.1-8.2,3.9
		c-6-3-7.4-7.7-4.4-14c0.1-0.3,0.3-0.6,0.4-0.9c1.9-2.3,4.3-3.6,7.3-4c0.5,0.2,0.8,0.4,1.1,0.8s0.7,0.6,1.3,0.5
		c0.2-0.2,0.4-0.5,0.5-0.8C32.685,30.44,32.685,30.041,32.685,29.741z"/>
	<path style="fill:#3172A1;" d="M29.685,39.041c0.1,0.5,0.2,1,0.5,1.4c1.2,0.6,2.2,0.2,2.9-1.1c0-0.1,0-0.2,0-0.3s0-0.2,0-0.4
		c0-0.7-0.3-1-0.9-0.9v-0.1c-0.7,0.2-1.4,0.5-2.1,0.7c-0.2,0.1-0.3,0.1-0.4,0.3C29.685,38.741,29.685,38.841,29.685,39.041z"/>
	<path style="fill:#3172A1;" d="M36.985,38.341c0-0.7-0.2-1.1-0.6-1.4c-0.4-0.3-0.6-0.4-0.9-0.4c-0.4,0.2-0.8,0.3-1.1,0.5
		c-0.1,0-0.2,0.1-0.3,0.3c-0.3,0.3-0.4,0.7-0.3,1.2c0.1,0.4,0.2,0.7,0.4,1c0.1,0.1,0.2,0.1,0.3,0.2c0,0,0.1,0,0.2,0
		C35.785,40.141,36.585,39.641,36.985,38.341z"/>
	<path style="fill:#3172A1;" d="M19.385,52.541c0.1,0.3,0.3,0.7,0.6,1.1c1.7,3.9,4.7,6.5,9.1,8.1c4.3,1.4,8.7,1.1,13-1
		c1.3-0.7,2.5-1.3,3.6-2.1c5.1-3.5,7.5-8.1,7.1-13.8c0.4-0.6,0.6-1.3,0.8-2c-0.4,0-0.7,0.1-1,0.3v-0.1c0,0.1,0,0.1,0,0.1
		c-0.1,0.1-0.2,0.1-0.2,0.2c-9.7,9.2-20.5,12-32.3,8.2l0,0c-0.7-0.2-1.4-0.3-2.2-0.4c-0.2,0-0.3,0-0.2,0.1
		C18.285,51.741,18.785,52.141,19.385,52.541z M20.085,52.741c0.2,0,0.4,0.1,0.6,0.1c0.4,0.3,0.8,0.5,1.4,0.7
		c8.1,2.7,16.2,1.8,24.1-2.5c2.1-1.2,3.8-2.5,5-3.9c-0.2,0.8-0.4,1.6-0.7,2.5c-0.9,3.3-2.8,5.9-5.8,7.8c-2.4-2.1-5.4-2.4-8.9-1.1
		c-1.5,0.6-2.7,1.5-3.9,2.8c-0.5,0.5-0.8,1.1-1,1.8C26.585,60.241,23.085,57.44,20.085,52.741z M44.085,57.841
		c-0.3,0.1-0.5,0.2-0.8,0.4c-4,2.1-7.7,3.1-11.1,2.9C35.785,57.041,39.685,55.94,44.085,57.841z"/>
	<path d="M40.185,22.141v-0.2c0,0,0,0.1-0.1,0.2C40.085,22.141,40.085,22.141,40.185,22.141z"/>
	<path style="fill:#009659;" d="M23.085,24.341h-0.3c0,0.1,0,0.1,0,0.1L23.085,24.341z"/>
	<path d="M23.085,24.341l-0.3,0.1c0,0.1,0.1,0.3,0.2,0.4C22.985,24.641,22.985,24.44,23.085,24.341z"/>
	<path d="M9.085,37.141l0.3,0.2c0-0.2,0-0.3,0.1-0.4c0-0.1,0-0.2,0-0.3C9.385,36.741,9.285,36.94,9.085,37.141z"/>
	<path style="fill:#3172A1;" d="M82.585,80.041c-0.4-0.1-0.7-0.2-1.1-0.3v0.1c-3.1,0.5-5.8,1.7-8.2,3.4c0.2,0.1,0.4,0.1,0.6,0
		c2.9-1.1,5.9-2.1,8.9-3C82.685,80.141,82.585,80.141,82.585,80.041z"/>
</g>
</svg>
