<?xml version="1.0" encoding="iso-8859-1"?>
<!-- Generator: Adobe Illustrator 12.0.1, SVG Export Plug-In . SVG Version: 6.00 Build 51448)  -->
<!DOCTYPE svg PUBLIC "-//W3C//DTD SVG 1.1//EN" "http://www.w3.org/Graphics/SVG/1.1/DTD/svg11.dtd" [
	<!ENTITY ns_svg "http://www.w3.org/2000/svg">
	<!ENTITY ns_xlink "http://www.w3.org/1999/xlink">
]>
<svg  version="1.1" id="Layer_1" xmlns="&ns_svg;" xmlns:xlink="&ns_xlink;" width="82.8" height="83.672"
	 viewBox="0 0 82.8 83.672" style="overflow:visible;enable-background:new 0 0 82.8 83.672;" xml:space="preserve">
<g>
	<g>
		<path style="fill:#3172A1;" d="M74.8,16.94c-1.1,0-2.2,0-3.3-0.1c-0.8,0.8-1.5,1.6-2,2.8c-0.2,0.3-0.3,0.6-0.3,1
			c-2.4-1.6-5.3-2-8.7-1.2c-2.5,0.4-4.8,1.4-6.8,2.9c-0.2-0.1-0.3-0.2-0.5-0.2c0,0.2,0,0.5,0,0.7c-0.2,0.1-0.2,0.3-0.3,0.5
			c-2.9-1.7-6.1-2.7-9.7-3.1c-0.4,0.2-0.8,0.3-1.3,0.3c0-0.3,0-0.4,0-0.7c-0.4,0.1-0.9,0.3-1.4,0.3c1.3-2.3,2.1-4.8,2.2-7.5
			c0.2-2.5,0-4.9-0.4-7.2c1.5-0.2,2.5-1.1,2.9-2.6c0.1-0.1,0.1-0.2,0.1-0.4c0-0.1-0.1-0.2-0.1-0.2c-2.5-2.1-5.5-2.7-9.2-1.9
			c-0.9,0.3-1.8,0.7-2.8,1.2c-0.2,0.1-0.3,0.2-0.4,0.3c-0.3,0.4-0.5,0.7-0.7,1.1c-0.5,1.3-0.3,2.6,0.7,3.8c0.1,0.1,0.2,0.2,0.3,0.4
			c1.5,0,2.8-0.1,4.1-0.5c-0.2,0.4-0.4,0.9-0.7,1.3c-3.3,1.9-6.9,3.2-10.6,4c2.1,1.2,3.5,2.9,4,5.3c-0.1,0.2-0.1,0.5-0.3,0.7
			c-0.6,1.2-1.3,2.3-2.1,3.3c-1.1,1.6-2.6,2.8-4.4,3.6c0,0.3,0.2,0.5,0.4,0.6c-4.9,3.6-8.2,8.9-9.7,16c-0.5,2.1-0.6,4.1-0.4,6.2
			c0.4,5.3,2.4,9.6,6,13.1c-0.2,0.1-0.3,0.2-0.4,0.4c0.2,0.1,0.4,0.3,0.7,0.4c0-0.1,0.1-0.3,0.2-0.4c0,0.1,0.1,0.2,0.3,0.3
			c-0.2,0.2-0.4,0.4-0.7,0.5c0,0.2,0,0.3-0.1,0.4c-0.6,1.5-0.9,3-1.1,4.5c-0.4,1.2-0.6,2.5-0.5,4c-6.2-0.5-11.6,1.1-16.3,4.7
			c0,0.2,0,0.3,0,0.4c-0.1,0.8,0,1.6,0.3,2.3c0,0.1,0,0.1,0.1,0.1c-0.8,0.3-1.4,0.9-1.9,1.5c1.2,0.1,2.2-0.1,3.2-0.4
			c0.9,0.1,1.8,0.3,2.6,0.4c-1.3,0.5-2.6,1.2-3.7,2.1c0.1,0.2,0.1,0.2,0.1,0.2c2.2-0.5,4.3-1.1,6.6-1.9c1,0.1,2,0.2,2.9,0.3
			c-1.6,0.4-3.1,1-4.4,1.7c2.5-0.1,5.1-0.6,7.6-1.6c2,0,4-0.1,6.1-0.3c-2.3,0.8-4.5,1.5-6.7,2.4c0.2,0,0.4,0,0.7,0
			c8.4-1.9,16.7-4.1,24.8-6.5c1.6-0.1,3.2-0.2,4.8-0.5c-0.4,0.2-0.9,0.4-1.5,0.5c-5.7,1.3-11,3.2-16.1,5.6c6-1.1,12.4-2.8,19-5.2
			c1.5,0.7,3,1.3,4.5,1.9c-0.8-0.2-1.6-0.4-2.5-0.4c-0.5,0.3-1.1,0.5-2,0.7c-3.2,0.3-6.1,1.3-8.7,2.9c0.3,0,0.7-0.1,1.1-0.1
			c4.4-0.9,8.5-1.8,12.4-2.9c-0.1-0.1-0.1-0.1-0.2-0.2c0.9,0.3,1.7,0.6,2.6,0.8c-1.9,0.4-3.4,1.1-4.6,2.1c0.3,0.6,0.7,0.8,1.5,0.7
			c3.5-0.6,5.3-1.3,5.3-2.2c1.9,0.4,3.7,0.7,5.6,1c-0.1-0.1-0.3-0.1-0.5-0.1c-0.9,0.3-2,0.6-3.2,0.9c-0.4,0.1-0.7,0.3-0.7,0.7
			c0.3,0.7,0.7,0.8,1.3,0.5c1.5-0.9,3.1-1.4,4.9-1.7c-0.1-0.1-0.1-0.1-0.2-0.1c-0.3-0.1-0.6-0.1-0.9-0.2c1.5,0.2,3.1,0.2,4.7,0.2
			c-1.4,0.7-2.5,1.4-3.6,2.2c0.5,0.4,1.1,0.4,1.7,0.2c2.1-0.9,4.4-1.8,6.6-2.6c3-0.3,6-0.8,9-1.6c0.1-0.1,0.2-0.2,0.3-0.2
			c0.2-0.2,0.5-0.4,0.7-0.7c0.6-0.1,1.1-0.1,1.7-0.2c-0.1-0.1-0.1-0.1-0.2-0.1c-0.3-0.1-0.7-0.1-1.1-0.2c0.3-0.3,0.4-0.7,0.5-1.1
			c-6.2-3.8-13-5.9-20.5-6.4c0.4-0.4,0.8-0.8,1.1-1.3c-0.1-0.5-0.2-1-0.2-1.5c0-0.3,0-0.5,0-0.8c-0.2-0.1-0.4-0.2-0.5-0.4
			c-0.5-0.5-1.1-1-1.7-1.3c6.7-3.7,10.1-9.9,10.1-18.8c0-2.5-0.3-4.8-1.1-7c-0.7-2.2-1.7-4.2-2.8-5.9c0.3,0.2,0.8,0.4,1.2,0.5
			c-0.2-0.3-0.4-0.5-0.6-0.8c-0.3-0.4-0.5-0.8-0.7-1.2c1.8,0.1,3.8,0.1,5.8,0.2c0-0.2,0-0.2-0.1-0.3c-2.1-1.6-3.4-3.6-3.9-6.1
			c0.2-0.1,0.3-0.2,0.4-0.3c0.3-0.2,0.5-0.3,0.7-0.4c0,0.4,0.1,0.8,0.1,1.3c0.1,0.5,0.2,1,0.6,1.5c0.2,0.2,0.4,0.3,0.6,0.4
			s0.4,0.2,0.6,0.4c0.6,0,1.1-0.1,1.6-0.2c0.2,0,0.4-0.1,0.6-0.2c0.8-0.6,1.4-1.4,1.9-2.2C76.7,22.741,76.6,19.741,74.8,16.94z
			 M71.6,20.141c0.1-0.5,0.3-0.8,0.5-1.2c0.7-0.8,1.3-0.8,2.1,0.2c0,0,0.1,0.1,0.1,0.2c0.6,0.7,0.9,1.5,0.8,2.3
			c-0.3,3-1.6,4.7-4.1,5.1c-0.7-0.6-1.1-1.3-1.2-2.2c0.1-0.1,0.2-0.2,0.2-0.2c0.1-0.1,0.1-0.1,0.1-0.1c0-0.1,0-0.1,0-0.1
			c0.2-0.4,0-0.7-0.6-1c-0.1,0-0.2,0.1-0.4,0.1c-2.1-1.2-4.4-1.6-7.1-1.3c-1.3,0.4-2.6,0.9-3.9,1.7c-0.4,0.2-0.8,0.5-1.2,0.7
			c-0.2,0.2-0.3,0.3-0.4,0.4c0,0.3-0.1,0.5-0.1,0.7c0,0.2,0,0.3,0,0.4v0.2c0.1,0,0.1-0.1,0.3-0.1c-0.1,0-0.1,0-0.1,0
			c-0.1,0.1-0.1,0.1-0.2,0.1c-0.1,0.1-0.4,0.2-0.5,0.2c1.9,1,3.7,2.1,5.5,3.4c0.2,0.2,0.6,0.4,0.9,0.6c0.6,0.7,1.2,1.4,2,2.1
			c1.2,1.2,2.1,2.6,2.7,4.1c0,0.2,0.1,0.5,0.1,0.7l-0.2,0.2c1.8,3.8,2.2,8.4,1.3,13.7c-0.8,4.2-2.9,7.5-6.4,10
			c-5.9,4.3-12.2,6.5-18.7,6.4c-0.1-0.1-0.2-0.2-0.3-0.2c-0.1,0-0.2,0-0.3,0c-0.1,0.1-0.1,0.1-0.2,0.2c-5.3-0.2-10.9-1.8-16.7-4.8
			c-3.5-1.9-6.2-4.6-8.1-8.1c-4-7.4-3.6-14.7,1.4-22.1c0.1-0.1,0.2-0.2,0.4-0.3c0.1-0.1,0.3-0.2,0.5-0.3c0-0.1,0.1-0.2,0.2-0.3
			s0.1-0.2,0.1-0.4c0.1-0.1,0.1-0.2,0.1-0.3c0.1-0.2,0.2-0.3,0.3-0.4c1-0.5,1.8-1.1,2.5-1.9c3.7-3.8,8.1-5.9,13.1-6.4v-0.2
			c0.2-0.6,0.3-1.1,0.4-1.7c0,0-0.1,0-0.2,0c0.4-0.6,0.9-1.2,1.3-1.8c0.1-0.1,0.1-0.2,0.2-0.3c1.8-4.4,2-8.4,0.7-12
			c0.4-0.2,0.8-0.4,1.1-0.6c0.2-0.1,0.4-0.3,0.5-0.6c-1.6-0.3-3.5-0.1-5.5,0.7c-0.1,0-0.2,0-0.3,0.1c-0.3-0.2-0.5-0.4-0.6-0.5
			c-0.2-0.3-0.4-0.5-0.5-0.8c0-0.1-0.1-0.2-0.1-0.3c0.2-0.3,0.4-0.5,0.6-0.6c3.1-2,6.2-2.2,9.4-0.8c-0.8,0.3-1.7,0.5-2.7,0.7
			c0,0-0.1,0-0.1,0.2c1,2.6,1.3,5.5,0.7,8.5s-1,5.7-1.3,8.1h-0.1c-0.1,0-0.3,0.1-0.5,0.2c-0.1,0.1-0.2,0.2-0.3,0.3
			c-0.1,0.1-0.2,0.2-0.2,0.4c-0.1,0.1,0,0.2,0.1,0.3c0.1,0.2,0.3,0.3,0.4,0.4c0.2,0,0.3,0,0.4,0c0.1-0.1,0.2-0.1,0.3-0.2
			c0.2,0,0.4-0.1,0.6-0.1c0.8,0.1,1.6,0.3,2.5,0.6c4,0.8,7.4,1.5,10.3,2.2h0.3c0.4,0.1,0.8,0.2,1.2,0.3c0-0.2-0.1-0.2-0.2-0.3
			c-0.2-0.1-0.5-0.3-0.7-0.5v-0.1c3.9-2.1,8.2-3.1,13.1-2.9c1.2,1,2.6,1.6,4,1.6c0,0,0.1,0,0.1-0.1c0.1-0.1,0.1-0.2,0-0.2
			c-0.1-0.2-0.2-0.3-0.4-0.4C71.1,21.44,71.4,20.841,71.6,20.141z M38,6.341c0,0,0,0,0.1,0c0,4-0.9,8.1-2.7,12.1
			c0-0.1-0.1-0.3-0.1-0.4c-0.7-2.1-1.8-3.9-3.5-5.3c-0.6-0.1-1.1-0.2-1.7-0.3c-0.1,0-0.2,0-0.3,0c0.4-0.1,0.8-0.2,1.2-0.3
			C35.1,11.44,37.5,9.541,38,6.341z M34.8,19.741c0,0.1-0.1,0.2-0.2,0.4c-0.5,0.2-0.8,0.5-1,0.9c-1.7,0.3-3.3,0.8-4.7,1.5
			c0.5-0.7,1.1-1.4,1.6-2.2c0.1-0.7,0.1-1.3,0.3-1.9c0.4-2.1,0-3.8-1.2-5.3c0.1,0,0.3,0,0.4,0c0.9,0.6,1.7,1.3,2.4,2.3
			C33.5,16.841,34.3,18.341,34.8,19.741z M67.5,23.94c0.1,0.1,0.1,0.1,0.1,0.1c-0.3,0.3-0.6,0.7-0.7,1.2c0,0.4,0,0.8-0.1,1.1
			c0,0.5,0,0.9,0.1,1.3c-2.5-1.8-5.5-2.6-8.9-2.5c2.8-1.5,5.9-1.9,9.4-1.3C67.4,23.94,67.5,23.94,67.5,23.94z M58.5,25.841
			c0.1,0,0.1,0,0.2,0c3.4,1.1,6.6,2.4,9.4,3.7c0.1,0.1,0.1,0.1,0.2,0.2c-1,0.2-1.9,0.1-2.8-0.3c-0.3,0.1-0.5,0.1-0.7,0.3
			c-0.3-0.2-0.5-0.4-0.7-0.6c0,0.4,0.1,0.7,0.1,1c0,0.1-0.1,0.2-0.2,0.2C62.5,28.641,60.6,27.141,58.5,25.841z M28,66.041
			c0.6,0.3,1.4,0.6,2.1,0.8c-0.1,0-0.1,0-0.2,0c1.5,0.5,3,0.9,4.6,1.3c0,0,0.1,0,0.2,0.1c-0.3-0.1-0.5-0.1-0.7-0.1
			c-1,0.2-2.1,0.6-3.1,0.9c-0.2-0.1-0.3-0.1-0.4-0.1c-0.9,0.3-1.9,0.6-3,0.8c-0.4,0.1-0.9,0.2-1.4,0.4c-0.8,0.2-1.2,0.6-1.2,1.3
			c-0.2,0.2-0.3,0.4-0.5,0.6c-0.4-0.1-0.9-0.2-1.4-0.3c0.1-2.8,0.3-5.4,0.7-7.8C25,64.741,26.5,65.44,28,66.041z M23,63.541
			c-0.6,1.1-1.1,2.3-1.4,3.5c-0.8,2.1-0.8,4.2-0.1,6.4c3.1,1,6.3,2,9.4,3.3c-9.6,2.9-18.9,2.9-27.9,0.1c4.4-3.3,9.7-4.9,15.8-4.9
			c0-0.1,0-0.2,0-0.4c0.1-0.2,0.1-0.5,0.1-0.8c0.8-3.4,1.4-6.4,1.6-9.1c0.4,0.4,0.8,0.7,1.3,1c-0.1,0.1-0.1,0.2-0.2,0.3
			c0.4,0.2,0.7,0.4,1,0.6c0-0.1,0-0.2,0-0.2C22.8,63.341,22.9,63.44,23,63.541z M25.6,72.341c0.2-0.1,0.3-0.1,0.4-0.3
			c0.3,0,0.7-0.1,1.1-0.3c0,0,0,0,0.1,0c1.6-0.3,3.1-0.5,4.8-0.7c-0.3-0.2-0.5-0.3-0.7-0.4c1.9-0.3,3.8-0.5,5.7-0.7
			c0.2,0.4,0.5,0.8,1,1c0.1-0.1,0.1-0.2,0.2-0.3c0.3-0.7,0.5-1.3,0.5-1.8c1,0.1,2,0.2,3.1,0.2v0.1c0.1,0.1,0.3,0.2,0.5,0.3
			c0.1,0.1,0.3,0.1,0.4,0.1c-0.9,1.2-0.8,1.8,0.3,2.2c0.1-0.1,0.2-0.1,0.3-0.2c0.4-0.5,0.6-1,0.8-1.5c1.8,1,3.5,1.6,5.1,1.7
			c0.2,0.1,0.4,0.1,0.7,0.2c-1.6,0.6-2.9,1.6-3.9,2.9c-5.4,0.1-10.9-0.2-16.4-0.9C28.4,73.241,27.1,72.741,25.6,72.341z
			 M50.6,71.041c-1.3-1-2.6-1.6-4.1-2.1c2.1-0.2,4.2-0.5,6.4-1c0.1,0.3,0.2,0.5,0.3,0.8c0.2-0.1,0.5-0.2,0.8-0.3
			c-0.2-0.2-0.4-0.5-0.5-0.7c0.1-0.1,0.3-0.1,0.5-0.1c0.5,0.3,0.8,0.6,0.9,1.1c-0.5,0.5-1.1,0.9-1.7,1.2c-0.8,0.3-1.4,0.8-1.8,1.4
			C51.1,71.241,50.8,71.141,50.6,71.041z M36.7,68.94c0,0.2,0.1,0.4,0.1,0.6c-0.6-0.1-1.2-0.2-1.9-0.2
			C35.5,69.241,36.1,69.041,36.7,68.94z M31.2,74.94c1.6,0.5,3.3,0.9,5,1.1c-1,0.2-2,0.5-3,0.8c-0.1-0.1-0.1-0.2-0.1-0.3
			C32.5,75.94,31.8,75.44,31.2,74.94z M57.3,67.241c-0.1-0.2-0.2-0.4-0.3-0.6c0.7-0.3,1.5-0.6,2.2-1c0.9,0.7,1.7,1.5,2.3,2.5
			c-0.8,0.8-1.6,1.6-2.5,2.2l0,0c0-0.1,0-0.1,0-0.1c-0.1,0-0.3,0.1-0.5,0.1c-0.2,0.1-0.5,0.2-0.7,0.2c0.1,0.2,0.1,0.4,0.1,0.7
			c-0.5,0.3-1,0.6-1.5,1c1,0.1,1.9,0.1,2.8-0.2c7.7,0.3,14.5,2.1,20.4,5.3c-11,3.3-21.8,2.7-32.3-1.6c1.4-1.1,3-1.9,4.7-2.5
			c0.4-0.1,0.7-0.2,1.1-0.3c0.7-0.2,1.4-0.4,2.2-0.5c0-0.1,0-0.2,0.1-0.4c0-0.4,0.1-0.8,0.1-1.1l0,0c0.8-0.9,1.4-1.9,1.8-3
			c-0.1-0.1-0.3-0.2-0.3-0.3c-0.1,0-0.2-0.1-0.3-0.2C56.9,67.341,57.1,67.241,57.3,67.241z"/>
		<path style="fill:#3172A1;" d="M44.4,28.741c-0.4-0.4-0.8-0.9-1.2-1.4c-0.2-0.1-0.3-0.3-0.5-0.4c-1.5-0.4-3.1-0.7-4.6-1
			c-3.5,0.1-6.2,1.7-8.1,4.6c-5.3,7.8-3.8,13.8,4.5,17.8c1.5-0.1,2.9-0.3,4.4-0.4c0.8-0.1,1.6-0.5,2.2-1c0.6,1,1.4,1.9,2.5,2.6
			c1.7,0.9,3.5,1.2,5.4,0.7c6.9-1.7,9.7-6.2,8.2-13.5c-0.7-1.3-1.5-2.6-2.3-3.8C52.2,29.341,48.7,28.041,44.4,28.741z M43.7,30.741
			c0,0.3,0.2,0.6,0.5,0.8c0.5,0.1,1-0.1,1.3-0.5s0.6-0.6,1.1-0.8c2.9,0.4,5.4,1.7,7.3,4c0.1,0.3,0.3,0.6,0.4,0.9
			c3,6.3,1.5,11-4.4,14c-3.5,0.2-6.3-1.1-8.2-3.9c-3.8,2.2-7.4,2-10.9-0.6c-0.6-0.5-1.1-1.1-1.2-1.7c-2.3-8.1,0.6-13.2,8.7-15.5
			c2.3-0.2,4.1,0.5,5.3,2.3C43.5,30.041,43.5,30.44,43.7,30.741z"/>
		<path style="fill:#3172A1;" d="M46.5,39.041c0-0.2,0-0.3,0.1-0.4c-0.2-0.2-0.3-0.2-0.4-0.3c-0.7-0.2-1.4-0.5-2.1-0.7v0.1
			c-0.6-0.1-0.9,0.2-0.9,0.9c0,0.2,0,0.3,0,0.4c-0.1,0.1,0,0.2,0,0.3c0.7,1.3,1.7,1.7,2.9,1.1C46.3,40.041,46.5,39.541,46.5,39.041z
			"/>
		<path style="fill:#3172A1;" d="M42.5,38.541c0-0.5,0-0.9-0.3-1.2c-0.1-0.2-0.2-0.3-0.3-0.3c-0.4-0.2-0.8-0.3-1.2-0.5
			c-0.2,0-0.5,0.1-0.8,0.4c-0.4,0.3-0.7,0.7-0.6,1.4c0.3,1.3,1.1,1.8,2.3,1.4c0,0,0.1,0,0.2,0c0.1-0.1,0.2-0.1,0.3-0.2
			C42.2,39.241,42.4,38.94,42.5,38.541z"/>
		<path style="fill:#3172A1;" d="M22.3,44.641c-0.2-0.1-0.3-0.1-0.2,0c0.3,0.7,0.7,1.3,1.1,1.8c-0.1,0.4-0.1,0.9,0.1,1.3
			c0.1,4.3,1.8,7.9,5.3,10.9c3.5,3.1,7.6,4.4,12.5,4.1c1.4-0.1,2.8-0.3,4.1-0.6c6.1-1.3,10-4.7,11.8-10c0.5-0.5,1-1.1,1.5-1.6
			c-0.3-0.2-0.7-0.2-1-0.1c0-0.1,0-0.1,0-0.1s0,0-0.1,0.1c-0.1,0.1-0.2,0.1-0.2,0.1c-12.5,4.9-23.5,3.3-33.1-4.8v0.1
			C23.6,45.341,23,45.041,22.3,44.641z M24.3,47.341c0.2,0.3,0.5,0.7,1,1.1c6.5,5.6,14.3,7.9,23.3,6.8c2.4-0.2,4.4-0.8,6.1-1.6
			c-0.5,0.6-1,1.3-1.6,2c-2.1,2.7-4.9,4.4-8.3,5c-1.5-2.8-4.1-4.3-7.9-4.4c-1.6,0-3.1,0.4-4.7,1.1c-0.6,0.3-1.2,0.7-1.6,1.3
			c-3.6-2.3-5.9-6.1-6.8-11.7C23.9,47.041,24.1,47.141,24.3,47.341z M44,60.741c-0.3,0.1-0.6,0.1-0.8,0.1c-4.6,0.5-8.4-0.1-11.4-1.5
			C36.7,56.841,40.7,57.341,44,60.741z"/>
		<path d="M36.1,22.141c0,0,0,0,0.1,0c-0.1-0.1-0.1-0.2-0.1-0.2V22.141z"/>
		<path style="fill:#009659;" d="M53.5,24.44c0,0,0,0,0-0.1h-0.3L53.5,24.44z"/>
		<path d="M53.2,24.341c0,0.1,0,0.3,0.1,0.5c0-0.1,0.1-0.3,0.2-0.4L53.2,24.341z"/>
		<path d="M66.9,37.341l0.2-0.2c-0.3-0.5-0.7-1-1.1-1.5C66.3,36.241,66.6,36.741,66.9,37.341z"/>
		<path style="fill:#3172A1;" d="M80.5,79.741v0.1c-3.1,0.5-5.8,1.7-8.2,3.4c0.2,0.1,0.4,0.1,0.6,0c2.9-1.1,5.9-2.1,8.9-3
			c-0.1-0.1-0.2-0.1-0.2-0.2C81.2,79.94,80.9,79.841,80.5,79.741z"/>
	</g>
</g>
</svg>
