<?xml version="1.0" encoding="iso-8859-1"?>
<!-- Generator: Adobe Illustrator 12.0.1, SVG Export Plug-In . SVG Version: 6.00 Build 51448)  -->
<!DOCTYPE svg PUBLIC "-//W3C//DTD SVG 1.1//EN" "http://www.w3.org/Graphics/SVG/1.1/DTD/svg11.dtd" [
	<!ENTITY ns_svg "http://www.w3.org/2000/svg">
	<!ENTITY ns_xlink "http://www.w3.org/1999/xlink">
]>
<svg  version="1.1" id="Layer_1" xmlns="&ns_svg;" xmlns:xlink="&ns_xlink;" width="59.5" height="48.225"
	 viewBox="0 0 59.5 48.225" style="overflow:visible;enable-background:new 0 0 59.5 48.225;" xml:space="preserve">
<g>
	<path style="fill:#3172A1;" d="M24.6,3.5c-0.6,0.7-0.9,1.4-1,2.2c-1.8-1.2-3.9-1.5-6-1.1c-0.4,0.3-0.8,0.7-1,1.1
		c-1.1,1.9-0.8,3.6,0.9,5.2c-0.5,0.3-0.9,0.7-1.4,1c-1.4,1.3-1.8,2.8-1.1,4.6c0.1,0.1,0.2,0.2,0.4,0.4c0.3,0.3,0.7,0.7,1.1,1.1
		c1.6,0.1,2.9,0.4,3.7,0.9c-0.2,4.1,1.7,6.2,5.9,6.2c0.3-0.3,0.6-0.7,1-1c1.5-1,2.2-2.4,2.4-4.1c0.8,0.3,1.7,0.5,2.5,0.7
		c0,0.6,0.1,1.2,0.3,1.8c0.9,4.2,0.8,8.2-0.4,12.1c-0.2-0.4-0.2-0.8-0.2-1.2c0-0.2,0-0.3-0.1-0.4s-0.3-0.3-0.4-0.4
		c-1.4-1.9-3.2-2.7-5.6-2.4c0,0.1,0,0.1,0,0.1c-0.5,0.2-0.9,0.4-1.3,0.7c-0.1,0-0.2,0.1-0.3,0.2c0,0.7,0.1,1.2,0.4,1.7
		c0.7,1.2,1.5,2.3,2.5,3.3c-0.1-0.1-0.2-0.1-0.3-0.1c-1.3,0.1-2.7,0.5-4,1.2c-2.5,1.4-4.9,2.9-7.1,4.7c-0.5,0-0.9,0.1-1.4,0.2
		c-0.1,0-0.2,0-0.3,0.1c-0.1-0.1-0.1-0.1-0.2-0.1c-0.1,0.1-0.3,0.2-0.4,0.2c-1.2,0.3-2.2,0.8-3,1.5c0-0.1,0-0.2,0-0.3
		c-0.2-0.1-0.4-0.1-0.5,0c-2.2,0.7-4.4,0.5-6.6-0.5c-0.2,0.1-0.6,0.3-1,0.4c-1.1,0.4-1.8,1.1-2.1,2c0.4,0.1,0.9,0.2,1.3,0.1
		c0.8,0,1.5-0.3,2.1-0.9c3.1,1,5.2,1,6.2,0c0,0.1,0,0.1,0.1,0.1c0.2,0.2,0.4,0.3,0.6,0.2c1.3-0.1,2.4-0.5,3.4-1.3c0.1,0,0.2,0,0.3,0
		c0.6,0.6,1.2,0.7,2.1,0.2c1,0.2,2,0.6,3,1.1c0.2-0.1,0.4-0.2,0.6-0.2c3.6-0.1,6.9-0.4,9.9-0.9c-0.1-0.2-0.2-0.2-0.3-0.2
		c-4-0.3-7.9-0.6-11.9-1c0.6-0.5,1.3-0.9,2-1.1c1.6-0.6,3.1-1.6,4.3-2.9c1-0.5,2-0.7,3.2-0.6c2.5,1.6,5.3,2,8.3,1.4
		c0.3,0.2,0.6,0.5,0.9,0.6c1,0.5,1.8,1.3,2.4,2.4c6.2,4,13,5.9,20.1,5.7c0.4,0.1,0.6-0.1,0.7-0.5c0.1-0.2,0.1-0.5,0.2-0.7
		c-1.5-1.4-3.7-1.4-6.8-0.3c-0.8-0.2-1.6-0.6-2.3-1.1c-2.1-1.5-4.6-2.4-7.3-2.6c-1.1-0.8-2.2-1.6-3.3-2.4c-1-0.7-2.1-1.5-3.1-2.3
		c2.1-0.3,4.1-1.1,6-2.1c0.3-1,0.3-2,0-3c-0.2-0.6-0.5-0.9-1.1-1.1c-1.4-0.8-2.9-0.9-4.5-0.2c-0.5,0.5-1,1-1.5,1.5
		c-0.6,0.6-1.3,1.2-2,1.6c0.1-0.2,0.2-0.4,0.3-0.5c0-0.8,0.1-1.5,0.2-2.2c1-4.1,0.8-7.9-0.5-11.4c2.4,0,4.5-1,6.4-2.9
		c0-0.5,0-1,0.1-1.5c0-0.4-0.1-0.8-0.4-1.1c-0.1-0.2-0.2-0.3-0.4-0.4c-1.1-0.8-1.8-1.5-2.1-2c0.5-0.5,0.9-1,1.1-1.6
		c0.6-1.4,0.8-2.9,0.6-4.4c-1.4-1.6-3.2-2-5.4-1.4c0-0.1,0-0.2,0-0.2C33.6,2.1,32,0.3,28.6,0c-0.2,0-0.5,0.2-0.9,0.4
		c-0.8,0.4-1.6,0.9-2.3,1.5C25.2,2.5,25,3,24.6,3.5z M25.9,4.7c0.1-0.1,0.2-0.2,0.3-0.3c0.5-0.5,0.8-1,1.2-1.5
		c0.1-0.2,0.2-0.3,0.4-0.3c0.2-0.2,0.5-0.3,0.8-0.4c0.9-0.1,1.7,0.1,2.3,0.7c0.2,0.3,0.4,0.7,0.5,1.1c0.4,0.8,0.5,1.7,0.2,2.6
		c-0.1,0.2-0.2,0.3-0.4,0.3c-1.1,0.8-1.7,1.6-1.7,2.6c-0.6-0.1-1.2-0.3-1.9-0.5c-0.3,0-0.6,0.1-0.9,0.3c-0.1,0-0.1,0-0.2,0.1
		c-0.4-1-0.8-1.9-1.1-2.8c0-0.2,0-0.5,0-0.7C25.4,5.4,25.6,5.1,25.9,4.7z M21.7,15.9c-1.5,0.9-3,1-4.3,0.1c-0.3-0.3-0.4-0.5-0.6-0.8
		c-0.2-0.4-0.2-0.9,0.2-1.5c2.4-0.1,4.6-0.4,6.6-1c-0.2,0.7-0.3,1.4-0.3,2.1C22.7,15,22.2,15.4,21.7,15.9z M17.4,7.2
		c0.9-1,2-1.1,3.3-0.2c1.8,1.3,3.4,2.4,4.7,3.1c-0.7,0.6-1.3,1.3-1.6,2.1C21.1,11.2,18.9,9.6,17.4,7.2z M32.5,8.8
		c0.1-0.2,0.2-0.3,0.4-0.4c1.6-1.2,3-1.2,4.3,0c0.1,0.4,0.1,0.9-0.1,1.2c-0.2,0.7-0.5,1.2-1,1.8c-1.5,0.2-2.8,0.8-3.7,1.5
		c-0.5-1-1-1.9-1.7-2.7c0.5-0.1,1-0.3,1.5-0.7C32.3,9.2,32.4,9,32.5,8.8z M32.8,14.3c2,0.4,3.8,1.2,5.3,2.4
		c-1.8,1.1-3.7,1.7-5.6,1.8c-0.2-0.6-0.5-1.1-0.9-1.6c0.2-0.3,0.4-0.6,0.5-0.8C32.4,15.5,32.6,14.9,32.8,14.3z M27.3,10.8
		c0.4,0.5,0.9,0.6,1.6,0.4c0,0.2,0.1,0.3,0.3,0.3c0.7,0.4,1.1,0.9,1.2,1.6c0,0.2,0.1,0.3,0,0.3c-0.3,1.4-0.9,2.5-1.8,3.5
		c-1.3,0-2.5-0.5-3.3-1.5c0-0.2,0-0.4-0.1-0.7c-0.1,0-0.2,0-0.3,0v-0.1c0.2-1.6,1-2.9,2.2-3.7C27.2,10.8,27.2,10.8,27.3,10.8z
		 M22.9,17.7c0.1-0.1,0.3-0.2,0.5-0.3c0.3-0.1,0.6-0.2,0.9-0.4c1,0.9,2.2,1.4,3.5,1.5c-0.1,2.8-1.4,4.3-4.2,4.5
		c-0.3-0.2-0.6-0.4-0.8-0.7C21.7,20.8,21.7,19.3,22.9,17.7z M30.6,18.4c-0.2-0.1-0.4-0.1-0.7-0.1c0.2,0,0.3-0.1,0.5-0.2
		C30.4,18.2,30.5,18.3,30.6,18.4z M38.1,33.4c1.6-0.7,2.7-0.4,3.3,1c-1.8,1.7-4.2,2.5-7.2,2.3c0.2-0.1,0.3-0.2,0.4-0.3
		C35.6,35.1,36.8,34.1,38.1,33.4z M31.2,36.4c-0.4,0.1-0.7,0.2-1,0.3c-2.7-1.1-4.2-2.8-4.6-5c1.2-0.2,2.4,0,3.5,0.5
		c0.3,0.5,0.6,1,0.9,1.4C30.8,34.4,31.1,35.4,31.2,36.4z"/>
</g>
</svg>
