<?xml version="1.0" encoding="iso-8859-1"?>
<!-- Generator: Adobe Illustrator 12.0.1, SVG Export Plug-In . SVG Version: 6.00 Build 51448)  -->
<!DOCTYPE svg PUBLIC "-//W3C//DTD SVG 1.1//EN" "http://www.w3.org/Graphics/SVG/1.1/DTD/svg11.dtd" [
	<!ENTITY ns_svg "http://www.w3.org/2000/svg">
	<!ENTITY ns_xlink "http://www.w3.org/1999/xlink">
]>
<svg  version="1.1" id="Layer_1" xmlns="&ns_svg;" xmlns:xlink="&ns_xlink;" width="87" height="95.023" viewBox="0 0 87 95.023"
	 style="overflow:visible;enable-background:new 0 0 87 95.023;" xml:space="preserve">
<g>
	<path style="fill:#3172A1;" d="M87,85.124c-0.1,0.1-0.2,0.1-0.3,0.2c-2.3,0.6-4.5,1.3-6.7,2.1c1-0.6,1.9-1.3,2.9-2
		c1.7-1.6,2.7-3.5,3-5.7c0.2-1,0.1-2-0.1-3c-0.4-0.3-0.8-0.6-1.3-0.7c-4.4-0.9-8-1.7-11-2.3c-0.6,0.1-1.3,0.2-2,0.3
		c2.1-4,2.7-8.7,1.7-14.3c-0.5-2.5-1.2-4.7-2.4-6.8c-0.9-1.7-2-3.3-3.3-4.6c0-0.1,0-0.1,0.1-0.1c0-0.1-0.1-0.2-0.1-0.2
		c-0.1-0.1-0.2-0.1-0.2-0.2l0,0c0.2,0,0.6,0.1,1,0.2c-0.3-0.3-0.5-0.5-0.8-0.7c-0.2-0.3-0.5-0.5-0.7-0.8c0,0,0,0,0-0.1
		c-0.4,0-0.8-0.1-1.2-0.2c-0.3-0.6-0.6-1.1-0.8-1.7c1.5-0.6,2.8-1.1,4.1-1.5c0-0.1-0.1-0.2-0.1-0.3c-0.4-0.2-0.8-0.5-1-0.7
		c-0.1-0.1-0.2-0.2-0.3-0.2c0-0.1-0.1-0.1-0.1-0.2c-0.3-0.2-0.5-0.4-0.6-0.6c-0.3-0.3-0.5-0.7-0.8-1c0-0.1,0-0.2,0-0.4
		c0-0.4,0-0.8-0.1-1.1c0-0.1,0.1-0.2,0.1-0.2c0.8-0.4,1.5-0.8,1.9-1.2c0,0.1,0,0.2,0,0.3c0.1,1.2,0.6,2.2,1.7,3
		c0.6,0,1.1-0.1,1.6-0.2c0.2,0,0.3-0.1,0.4-0.2c0.4-0.4,0.8-0.9,0.9-1.4c0.3-1.9,0.7-3.8,1.1-5.7c0-0.5,0-1-0.1-1.5
		c0-1-0.3-1.9-0.9-2.7c-0.1-0.1-0.2-0.1-0.4-0.2c-0.5-0.1-1.2-0.2-1.7-0.3c-0.1,0.2-0.3,0.2-0.5,0.3c-0.1,0.1-0.2,0.2-0.4,0.4
		c-0.3,0.5-0.6,1-0.7,1.5c-0.4,0.6-0.7,1.2-1,1.8c-0.1,0.2-0.1,0.4,0,0.6c-1.8-0.9-3.7-1-5.9-0.6c-1.9,0.3-3.7,0.8-5.5,1.7
		c-1.9,0.8-3.2,2.1-4.1,3.8c0,0.2,0,0.3,0,0.4c-0.1,0.4,0,0.7,0,1.1c-0.1-0.1-0.3-0.2-0.4-0.3c-0.1,0.1-0.1,0.2-0.1,0.3
		c0,0.2,0,0.3,0,0.4c0,0.2,0,0.4,0,0.6c-3.2-1.2-6.6-1.7-10.1-1.4c-0.4,0.3-0.8,0.4-1.3,0.6c0-0.2,0-0.4,0-0.6c-0.2,0-0.3,0-0.4,0.1
		c0-0.2,0-0.4-0.1-0.6c0-0.4-0.3-0.7-0.6-1.1c-0.3-0.2-0.5-0.4-0.8-0.7c-4.6-4.4-10.2-5.6-16.6-3.6c-0.1-0.2-0.2-0.3-0.2-0.4
		c-1-1.5-2.4-2.3-4.3-2.4c0,0.1,0,0.1,0,0.1c-0.5,0.2-0.9,0.5-1.2,0.9c-0.2,0.3-0.4,0.5-0.5,0.8c0,0.1,0,0.2,0,0.3
		c0,0.2,0,0.3,0,0.4c0,0.7,0,1.3,0,1.9c0.1,0.9,0.2,1.8,0.5,2.6c0.1,0.2,0.2,0.3,0.3,0.4c0.2,0.3,0.4,0.5,0.5,0.8
		c0.7,1.6,1.9,2.8,3.5,3.7c0.9-0.1,1.8-0.2,2.7-0.4c0,0,0-0.1,0.1-0.1c1.1,0.3,2.2,0.4,3.4,0.2c0.1,0.1,0.2,0.1,0.3,0.2
		c-0.1,0.9-0.4,1.8-1,2.7c-0.2,0.2-0.4,0.4-0.6,0.6c0,0.1,0,0.1,0.1,0.1c-0.9,0.8-1.8,1.5-2.6,2c0.1,0.1,0.2,0.1,0.4,0.2
		c-4.3,4.4-6.5,10.2-6.8,17.5c0,1.6,0.1,3.3,0.4,4.9c-3.1-1.4-6.6-2.3-10.5-2.8c-0.1,0.1-0.2,0.2-0.4,0.2c-0.3,0.2-0.7,0.4-1,0.6
		c-0.3,0.2-0.6,0.5-0.8,0.7c-0.5,1.9-0.6,3.9-0.2,6c1.2,6,3.6,10.4,7.4,13.2c-2,0.5-3.5,1.5-4.4,2.9c0.1,0.2,0.1,0.2,0.1,0.2
		c2.2-0.5,3.9-1.4,5-2.6c0.7,0.5,1.6,0.9,2.4,1.3c-1.8,0.5-3.1,1.4-4,2.8c0.2,0,0.3,0.1,0.4,0.1c2.9-0.7,4.4-1.5,4.6-2.4
		c1.1,0.3,2.2,0.6,3.4,0.9c-1.4,0.3-2.3,1-2.9,2.1c0.2,0.1,0.4,0.1,0.6,0.1c1.6-0.7,3.3-1.3,5-1.8c1.4,0.1,2.9,0.1,4.4,0.1
		c-1,0.7-2,1.4-3,2.2c3.5-0.9,7.2-2.3,11.3-4.1c1.9-0.9,3.1-1.7,3.6-2.6c1.2,0.2,2.3,0.3,3.5,0.4c-4.2,1.4-7.6,3.5-10.2,6.3
		c1.2,0.1,2.6-0.2,4-0.9c3.7-1.7,6.1-3.5,7.4-5.3c0.3,0,0.7,0,1,0.1c0.2,0,0.3,0,0.4,0c1.4-0.1,2.7-0.3,4.1-0.6
		c-3.5,1.5-6,3.6-7.4,6.5c0.2,0,0.4,0,0.6-0.1c3.4-2.5,7-4.9,10.8-7c0.4-0.1,0.7-0.1,1.1,0c0.2-0.1,0.5-0.2,0.8-0.2
		c-0.3,0.5-0.1,1,0.4,1.3c1.3,0.8,2.5,1.5,3.8,2c-1.9,0.8-3.5,1.8-4.7,3.2c0.8,0.6,1.7,0.6,2.9,0c1.9-1,3-1.8,3.3-2.6
		c1,0.4,2,0.7,3.1,1c-0.9,0.6-1.5,1.3-1.9,2.1c0.2,0.1,0.3,0.1,0.4,0.1c1.3-0.6,2.5-1.2,3.5-2c2.6,0.3,5.1,0.1,7.8-0.5
		c-1.9,0.9-3.7,2-5.4,3.2c3.1-1.2,6.4-2.4,9.9-3.6C81.9,88.923,85.1,87.124,87,85.124z M83.4,77.624c0.7,0.8,0.8,1.6,0.1,2.5
		c-4.7,6.1-10.3,9.2-16.7,9.4c0.1-0.1,0.2-0.2,0.3-0.4c-0.2,0-0.4,0-0.6,0c-0.3,0.1-0.6,0.3-0.9,0.4c-3.2-0.1-6.7-1-10.3-2.5
		c0-0.1,0-0.2,0-0.3c3.3-5.1,7.7-8.3,13.4-9.5c0.1,0.1,0.3,0.2,0.4,0.3c0.2-0.2,0.3-0.4,0.4-0.5c2.4-0.5,4.9-0.6,7.6-0.4
		c1.9,0,3.8,0.2,5.6,0.6C83,77.323,83.2,77.423,83.4,77.624z M38.4,39.124v0.1c-0.2,0.1-0.3,0.3-0.3,0.5c-0.1,0-0.2,0-0.2,0.1h-0.1
		c-0.1,0.1-0.2,0.2-0.3,0.3c-0.1,0.1-0.1,0.2-0.1,0.4c0,0.1,0,0.2,0.1,0.3c0.2,0.2,0.4,0.3,0.5,0.3c0.2,0.1,0.3,0,0.4-0.1
		c0.1,0,0.2-0.1,0.3-0.2c0.2-0.1,0.3-0.2,0.6-0.2c0.8,0,1.6,0,2.5,0.1c4,0.1,7.5,0.3,10.4,0.4c0.1,0,0.1,0,0.1,0l0,0h0.1h0.3
		c0.4,0,0.8,0,1.2,0c-0.1-0.1-0.1-0.2-0.2-0.2c-0.2-0.1-0.4-0.2-0.5-0.2c0-0.1,0.1-0.1,0.2-0.1c0-1.8,0.8-3.1,2.4-4
		c4.3-2.3,8.7-3.3,13.2-3c0-0.1,0-0.2,0-0.2c-0.1,0-0.2,0-0.2-0.1c0,0,0.1,0,0.2-0.1c0.2-0.2,0.3-0.5,0.4-0.7c0.2-1.8,1-2.6,2.4-2.5
		c0.1,0.6,0.2,1.2,0.2,1.9c0,0.2,0.1,0.5,0.3,0.7c-0.4,0.5-0.6,1-0.6,1.5c0,2.3-0.7,3.7-1.7,4.4c-0.6-0.3-1-0.8-0.9-1.5
		c0-0.8,0-1.5,0-2.3c-6.4-0.7-10.7,1.5-12.8,6.7h-0.1c0,0,0,0,0,0.1c-0.1,0-0.1,0-0.1,0c0,0.1,0,0.1,0,0.2c0,0.1,0,0.1,0,0.2
		c-0.1,0-0.1,0-0.1,0.1h0.1c-0.1,0-0.1,0-0.1,0.1c-0.2,0.1-0.4,0.3-0.6,0.4c2.1,0.6,4,1.4,5.9,2.3c0.4,0.2,0.7,0.3,1.1,0.4
		c0.5,0.4,1,0.8,1.5,1.2c0.5,1.1,1.4,1.8,2.5,1.9c0,0.1,0.1,0.2,0.2,0.3c0.4,0.7,1.1,1.5,1.7,2.3c0.1,0.1,0.1,0.2,0.1,0.3l-0.2,0.2
		c2.4,3.4,3.7,7.9,3.7,13.4c0,3.7-1.2,7.1-3.6,10c-5.4,1.5-9.8,4.7-13.1,9.5c0-0.1,0-0.2,0-0.3c-6.8,2.5-14.4,2.4-22.9-0.3
		c-3.3-5.8-7.7-10.1-13.3-12.9c-1.7-4.9-1.4-10,1-15.6c0.1-0.1,0.2-0.2,0.4-0.4c0.1-0.1,0.2-0.2,0.4-0.3c0-0.2,0.1-0.3,0.2-0.4
		c0-0.1,0-0.2,0-0.4c0-0.1,0-0.2,0.1-0.3c0-0.2,0.1-0.3,0.2-0.4c0.8-0.7,1.5-1.5,2.1-2.4c3-4.4,6.9-7.3,11.7-8.7v-0.1
		c0-0.2,0-0.3,0-0.5c0.1,0,0.2-0.2,0.3-0.3c0.1-0.1,0.2-0.2,0.2-0.2c0.1,0,0.1,0,0.2,0c0,0,0,0.1,0,0.2c0-0.1,0-0.2,0-0.3h0.1
		c0.1,0.1,0.3,0.1,0.5,0.2c-0.1-0.2-0.2-0.3-0.3-0.3c-0.1,0-0.1,0-0.1-0.1c0.1,0,0.1-0.1,0.1-0.3c0-0.7-0.2-1.2-0.6-1.7
		c-3.9-3.8-8.3-4.4-13.2-1.9c-0.2,0.8-0.2,1.6,0,2.3c0,0.4,0,0.9,0,1.5c-1.2-0.1-2.2-0.7-2.9-1.9c-0.4-0.6-0.8-1.2-1.2-1.7
		c-1-1.5-1.2-3-0.6-4.6c0.2,0,0.4-0.1,0.5-0.1c0.5,0.1,1,0.3,1.5,0.4c0.4,0.5,0.8,1,1.1,1.5s0.8,0.9,1.3,1c2.8-1.3,5.7-1.7,8.9-1.3
		c0.2,0.2,0.4,0.3,0.6,0.4c0.6,0.3,1.2,0.4,1.9,0.6c0.2,0.3,0.5,0.5,0.8,0.7c1.7,0.7,3.1,1.9,4.2,3.5
		C38.4,39.023,38.4,39.124,38.4,39.124z M52.9,40.423c0,0,0,0.1,0.1,0.2c-0.1-0.1-0.1-0.1-0.2-0.1
		C52.8,40.523,52.8,40.423,52.9,40.423z M65.7,41.723c0.1,0.2,0.2,0.3,0.3,0.4c-0.6,0.4-1.3,0.7-2,0.9c-0.1,0.2-0.2,0.5-0.4,0.6
		c-0.3,0.4-0.4,0.8-0.2,1.3c0,0.1,0.1,0.3,0.1,0.5c-0.5-0.3-1-0.5-1.5-0.8c-1.7-0.9-3.3-1.8-5-2.7
		C59.9,41.523,62.8,41.423,65.7,41.723z M65,40.624c0,0.1,0.1,0.2,0.2,0.2c-0.2,0-0.4,0-0.7,0c-2.1-0.2-4.3-0.3-6.5-0.4
		c-0.1,0-0.3,0.1-0.5,0.2c-0.1,0.1-0.3,0.2-0.4,0.3c2.6-2.6,5.8-4.1,9.4-4.6c-0.9,0.6-1.5,1.4-2,2.4c0.2,0.3,0.3,0.6,0.4,0.8
		C65,39.923,65,40.323,65,40.624z M24.8,37.624c0.3,0.3,0.7,0.5,1.1,0.8c0,0.1,0,0.2,0,0.2c-0.7,0.9-1.4,1.6-2.2,2.3
		c0.1-0.4,0.3-0.8,0.5-1.1c0.2-0.6,0.1-1.1-0.3-1.6c-0.1-0.1-0.1-0.1-0.1-0.2C24.2,37.923,24.5,37.723,24.8,37.624z M26.8,37.823
		c-0.1-0.3-0.3-0.5-0.5-0.6c2.6-0.6,5.3-0.1,7.8,1.7c0.3,0.3,0.5,0.7,0.8,1.1c-1.7-0.8-3.5-1.1-5.4-1c-0.9,0.2-1.9,0.6-2.8,1.1
		c-0.1,0-0.2-0.1-0.3-0.1c0.5-0.2,0.7-0.6,0.7-1.1c-0.1-0.3-0.1-0.5-0.1-0.8C27,38.023,26.9,37.923,26.8,37.823z M34.4,40.323
		c-0.5,0.1-1,0.2-1.5,0.3c-1.6,0.5-3,1.1-4.3,1.9c0-0.3-0.1-0.5-0.2-0.7c0-0.1,0-0.1,0-0.1s0-0.1,0-0.2c0,0-0.1,0-0.1,0.1
		c-0.2-0.4-0.5-0.7-0.8-1C29.8,40.023,32.1,39.923,34.4,40.323z M33.4,86.023c-0.1-0.1-0.1-0.2-0.2-0.4l0,0c0.7,0.2,1.4,0.4,2,0.7
		c0.1,0,0.2,0,0.3,0.1c-0.8,0.3-1.5,0.6-2.3,1C33.3,86.923,33.3,86.523,33.4,86.023z M30.8,85.624c0.3,0.8,0.3,1.3-0.3,1.5
		c-7.7,4.4-14.7,3.2-20.9-3.5c-4.5-4.9-5.3-9.8-2.6-14.7c3.7,0.6,7.3,1.9,10.9,3.7C23.8,75.523,28.1,79.823,30.8,85.624z"/>
	<path style="fill:#3172A1;" d="M43.9,43.523c-0.1-0.1-0.3-0.2-0.5-0.4c-1.6,0-3.2-0.1-4.7-0.1c-3.4,0.8-5.8,2.8-7.2,6
		c-3.8,8.6-1.2,14.3,7.7,16.8c1.3-0.5,2.7-0.9,4.2-1.3c0.8-0.2,1.5-0.7,2-1.4c0.7,1,1.7,1.7,2.9,2.1c1.9,0.6,3.7,0.6,5.5-0.2
		c6.5-3,8.4-7.9,5.6-14.8c-0.9-1.2-1.9-2.3-3-3.3c-3.2-3-6.9-3.8-11-2.3C45,44.323,44.5,43.923,43.9,43.523z M46.9,46.723
		L46.9,46.723c4,2.6,8,5.3,11.9,8.1c0.6,3.4-0.9,6.3-4.4,9c-3.4,0.8-6.3,0-8.7-2.4c-3.4,2.8-7,3.2-10.8,1.4
		c-0.8-0.4-1.3-0.9-1.6-1.5c-1.3-2.9-1.9-5.5-1.7-7.7c0.6-0.4,1.3-0.8,1.9-1.3c3.6-2.7,7.5-4.4,11.7-5.2c0.2,0.1,0.3,0.2,0.5,0.4
		C46.2,47.423,46.6,47.124,46.9,46.723z M44.9,46.523c-0.8,0-1.6-0.1-2.4-0.1c-2.7,0.8-5.3,1.9-7.9,3.4c-1.2,0.6-2.1,1.4-2.8,2.4
		c0.8-3.1,3.2-5.7,7.4-7.7c2.2-0.7,4-0.2,5.6,1.2C44.8,46.023,44.8,46.323,44.9,46.523z M47.8,45.723c3-0.1,5.6,0.7,7.9,2.7
		c0.2,0.2,0.4,0.5,0.6,0.7c1.2,1.8,2,3.4,2.4,5c-3.3-3.5-7.1-6-11.6-7.7C47.3,46.124,47.5,45.923,47.8,45.723z"/>
	<path style="fill:#3172A1;" d="M49,56.124c0-0.1,0-0.2,0-0.4c-0.2-0.8-0.8-1.3-2-1.3c-0.3,0-0.5,0.3-0.4,0.8
		C46.8,57.223,47.6,57.523,49,56.124z"/>
	<path style="fill:#3172A1;" d="M44.5,55.823c-0.3-0.9-0.9-1.4-2-1.4c-0.3,0-0.5,0.2-0.7,0.5c-0.3,0.4-0.4,0.8-0.4,1.2
		c1.2,1.4,2.2,1.4,3.1,0C44.5,56.023,44.5,55.923,44.5,55.823z"/>
	<path style="fill:#3172A1;" d="M36.5,76.223c-0.5,0.3-0.6,0.7-0.2,1c0.9,0.2,1.6-0.1,2.3-0.9c0.4-0.5,0.9-0.9,1.5-1.2
		c2.1,1.1,4.2,1.4,6.4,1.1c0.7-0.7,1.4-1.5,2.2-2.2c0.2-0.2,0.5-0.5,0.8-0.8c0.5,0,0.9,0,1.4-0.1c0.9,0.8,2,1.1,3.1,1.1
		c0.5,0,0.9-0.1,1.4-0.2c0.7-0.7,1.4-1.4,2.1-2.1c0.5-0.5,1-1,1.5-1.5c1.1-0.5,2.2-0.6,3.4-0.5c0.1,0,0.4,0.1,0.6,0.2
		c0.7,0.6,1.3,0.9,2,1.2c0.2,0,0.4,0,0.6-0.1c0.1-0.1,0.1-0.2,0-0.3c-1.1-2.2-3.1-3.1-5.6-2.8c-0.7,0.4-1.4,0.8-2.1,1.4
		c-1.3,1-2.5,2-3.8,3c-1.8-0.5-3.7-0.7-5.6-0.5c-0.7,0.7-1.5,1.5-2.2,2.2c-0.3,0.3-0.5,0.5-0.8,0.8c-2.3-0.6-4.6-0.8-6.7-0.8
		C38.1,75.023,37.3,75.723,36.5,76.223z"/>
	<path style="fill:#009659;" d="M52.7,41.124L52.7,41.124h-0.3H52.7z"/>
	<path d="M52.7,41.124h-0.3c0,0.1,0.1,0.3,0.1,0.5C52.6,41.423,52.6,41.323,52.7,41.124z"/>
	<path d="M35.1,41.823v0.1c0,0,0,0,0.1,0C35.1,41.923,35.1,41.823,35.1,41.823z"/>
	<path d="M68.2,51.423l0.2-0.2c-0.5-0.4-0.9-0.8-1.4-1.2C67.4,50.423,67.8,50.923,68.2,51.423z"/>
	<path style="fill:#3172A1;" d="M84.8,88.923c-0.1,0-0.2,0-0.3,0c-3.8,1-6.9,3.1-9.2,6.1c0.2,0,0.4,0,0.6-0.1
		C79.8,93.124,82.7,91.124,84.8,88.923z"/>
	<path style="fill:#3172A1;" d="M45.2,36.423c-0.1,0-0.1,0-0.1-0.1c0,0.1,0,0.1,0,0.1H45.2z"/>
	<path style="fill:#3172A1;" d="M7.3,51.523c-0.1,0-0.2,0-0.2,0.1c-0.8,1.1-0.3,2.4,1.4,3.9c0,0.1,0,0.2,0,0.4c0,0.5,0.2,1,0.5,1.5
		c0.9,0.8,1.9,0.9,3,0.2c0.2,0.2,0.3,0.3,0.3,0.4c-0.1,0.8,0.2,1.4,0.7,1.7c0.2,0,0.3-0.1,0.4-0.3c0.1-0.9,0-1.7-0.3-2.5
		c-1.2-0.3-2.3-0.5-3.1-0.5c-0.1-0.2-0.1-0.3-0.2-0.4c-0.2-0.5-0.4-1-0.5-1.5c-0.2-0.1-0.3-0.3-0.4-0.4
		C8.3,53.223,7.8,52.423,7.3,51.523z"/>
	<path style="fill:#3172A1;" d="M7.5,61.023c0-0.1,0-0.2-0.1-0.2c-2.3-1.2-4.7-2.3-7.4-3.4c0,0,0,0,0,0.1c0.3,2,2.1,3,5.5,3
		c0.3,0.1,0.5,0.3,0.7,0.5c0.3,0.3,0.4,0.6,0.3,1c1.4,0.8,2.8,1.1,4.3,0.8c0.1,0.1,0.3,0.2,0.4,0.4c0.6,0.6,1.1,0.6,1.6,0.2
		c-0.3-0.3-0.5-0.6-0.6-0.8c-0.3-0.4-0.6-0.8-0.9-1.1C9.6,61.923,8.4,61.823,7.5,61.023z"/>
	<path style="fill:#3172A1;" d="M3,66.323c0.4,1,1.5,1,3.4-0.2c0.5,0.4,1,0.7,1.6,0.8c0.1-0.1,0.2-0.2,0.4-0.3
		c0.5-0.3,1.1-0.5,1.7-0.7c0.8,0.5,1.7,0.6,2.7,0.1c-1.2-0.7-2.4-1.1-3.8-1.1c-0.1,0-0.3,0.1-0.5,0.2c-0.7,0.4-1.3,0.2-1.7-0.6
		c-0.3,0-0.4,0-0.5,0.1C5.3,65.523,4.3,66.023,3,66.323z"/>
	<path style="fill:#3172A1;" d="M8.6,94.223c0.1,0.2,0.1,0.2,0.1,0.2c0.3,0,0.6-0.1,0.8-0.2c-0.2,0-0.4-0.1-0.7-0.1
		C8.8,94.124,8.7,94.223,8.6,94.223z"/>
	<path style="fill:#3172A1;" d="M54.5,87.923L54.5,87.923c-2.7,1-5,2.5-7,4.5c1,0.4,2,0.3,3.2-0.3
		C53.7,90.624,55,89.124,54.5,87.923z"/>
	<g>
		<path style="fill:#3172A1;" d="M63.6,9.624c-0.1-0.1-0.1-0.2-0.2-0.4c-4.8-6.8-11.6-9.9-20.4-9.1c-6.8-0.1-11.5,2.4-14.1,7.8
			c-1.5,3.1-1.3,6.1,0.5,9c3.1,4.7,7.3,7.5,12.7,8.3c-0.2,0.9-0.2,1.7-0.1,2.5c1.9,1.7,4,2.2,6.4,1.2c0.4-0.5,0.8-1,1.2-1.4
			c0.2-0.8,0.3-1.5,0.5-2.3c-0.1,0-0.2,0-0.4,0c0.5-0.1,0.9-0.2,1.3-0.3C60.4,23.223,64.5,18.124,63.6,9.624z M62.8,13.124
			c-0.5,2-1.4,3.7-3,5.1c-6.8,6.3-15,7.6-24.7,3.8c-1.8-1.2-3.2-2.5-4.3-4.1c-1-1.4-1.7-2.9-2.2-4.5c0-0.2,0-0.3,0-0.4
			c1.1-7.8,6-11.5,14.9-11.1C53.3,1.124,59.7,4.823,62.8,13.124z M48.5,25.423c0,0.5-0.1,0.9-0.2,1.3c-1.6,1.4-3.3,1.4-5.2,0
			c0-0.1,0-0.2,0-0.3c0-0.4,0-0.7-0.1-1C44.7,25.523,46.6,25.523,48.5,25.423z"/>
		<path style="fill:#3172A1;" d="M51.3,6.423c-0.1-0.2-0.2-0.3-0.3-0.3c-3.2-1.8-6.7-2.4-10.5-2c-2.1,0.1-4.3,0.5-6.5,1.2
			c-1.9,0.7-3.2,1.8-4,3.3c0,0.3,0.1,0.5,0.1,0.7c0.3,0.4,0.5,0.8,0.5,1.2c0,0.1,0,0.2,0.2,0.4c0.5,0.5,1,0.8,1.7,0.8
			c0,0,0,0.1,0,0.2c0,0.6,0,1.2,0,1.8c0,0.7-0.1,1.4-0.4,2c-0.1,0.1-0.1,0.2-0.1,0.3s0.1,0.2,0.1,0.3c0.3,0.4,0.4,0.8,0.4,1.2
			c0,0.1,0,0.2,0,0.4c1.3,0.6,2.7,1.2,4.2,1.9c2,0.9,3.7,0.9,4.9-0.1v-0.1c2.9-1.2,5.8-2.2,8.8-3.1c-1-1.3-1.8-2.6-2.4-4.1
			c0-0.2,0-0.2,0.1-0.3c0.6-0.4,0.9-0.9,0.8-1.4c0.9-0.2,1.8-0.4,2.6-0.6c0.2-0.5,0.2-1,0.2-1.5c-0.1-0.6-0.1-1.2-0.2-1.8
			C51.4,6.624,51.4,6.523,51.3,6.423z M50.4,8.723c0,0.2,0,0.2-0.1,0.2c-1.4,0.4-2.8,0.8-4.1,1.2c-1.1,0.4-1.7,0.3-1.9-0.4
			c-0.2-0.2-0.3-0.5-0.5-0.7c0-0.1,0-0.2,0-0.4c0-0.1,0-0.2-0.1-0.3c0-0.2-0.1-0.3-0.2-0.4c-0.1-0.2-0.2-0.3-0.4-0.4
			c-0.1-0.1-0.2-0.2-0.4-0.4c-0.1-0.1-0.3-0.2-0.4-0.4c-0.8,0-1.5,0-2.3,0c-0.1,0-0.3,0.1-0.5,0.1c-0.3,0.1-0.6,0.1-0.9,0.2
			c-0.1-0.1-0.2-0.1-0.4-0.2c-0.5-0.1-1.1-0.3-1.7-0.4c1.4-0.1,2.7-0.2,4-0.4c0.2,0,0.4-0.1,0.5-0.1c1.6-0.1,3.2-0.1,4.9-0.2
			c0.2,0.2,0.4,0.2,0.6,0.3c1.7,0.3,2.9,1,3.7,2.1C50.3,8.323,50.4,8.523,50.4,8.723z M41.5,8.423c0.2,0.2,0.4,0.4,0.5,0.7
			c0.1,0.2,0.2,0.4,0.3,0.6c-0.3,0.9-1.3,1.5-3,1.8c0,0.6,0,1.2,0,1.9c-0.2,2,0.1,3.9,1,5.6c-2.6-0.2-4.8-1-6.8-2.3
			c-0.2-0.5-0.3-1-0.2-1.5c0.1-1.7,0.3-3.4,0.3-4.8c-0.1-0.2-0.2-0.2-0.3-0.2c-1.2,0.2-1.7-0.1-1.8-0.8c-0.1-0.2-0.1-0.3-0.1-0.4
			c0.2-0.8,0.7-1.5,1.6-1.9C35.7,8.223,38.6,8.624,41.5,8.423z M40.8,13.023c0.7-0.2,1.4-0.3,2.1-0.6c1.6-0.5,3.2-1,4.7-1.4
			c-0.9,1.4-0.8,2.9,0.4,4.6c-2.7,0.7-4.9,1.8-6.5,3.2c-0.1-0.4-0.2-0.8-0.4-1.3c-0.5-1.3-0.7-2.7-0.4-4.1
			C40.7,13.223,40.7,13.124,40.8,13.023z"/>
		<path style="fill:#3172A1;" d="M55.8,5.723c-0.5-0.1-0.8,0.1-0.9,0.5c-1.6,3.5-1.4,6.4,0.6,8.4c0.2-0.2,0.4-0.5,0.4-0.8
			c0.6-2.3,1.2-4.7,1.7-7.1c-0.1-0.1-0.2-0.2-0.4-0.2C56.7,6.323,56.2,6.023,55.8,5.723z"/>
		<path style="fill:#3172A1;" d="M54.5,15.624c-0.1,0.1-0.3,0.1-0.5,0.2c-0.7,0.2-1.1,0.7-1.1,1.4c0.4,1.4,1.4,1.6,2.7,0.8
			c0-0.1,0-0.2,0.1-0.4C56,16.523,55.7,15.823,54.5,15.624z"/>
		<path style="fill:#3172A1;" d="M50.1,35.423c0-0.5,0-1,0-1.5c0-0.2,0-0.3-0.1-0.4c-0.4-0.4-0.8-0.8-1.1-1.2
			c-0.3-0.3-0.6-0.7-0.8-1.1c-0.1-0.1-0.2-0.1-0.4-0.2c-0.5-0.1-1.1-0.2-1.7-0.3c-0.3,0.2-0.7,0.4-1.1,0.7c-0.5,0.5-0.9,1-1,1.6
			c0,0.1,0,0.2,0,0.4c0,0.5,0,1,0,1.5c0,0.1,0.1,0.2,0.1,0.3c0.3,0.3,0.5,0.5,0.8,0.8c0.1,0.1,0.2,0.2,0.3,0.3c0,0.1,0,0.1,0.1,0.1
			C47.3,37.124,48.9,36.723,50.1,35.423z M45.6,32.624c0.2,0,0.3,0,0.4,0c1.2,0.3,2.1,0.9,2.9,2c-0.9,0.2-1.8,0.4-2.8,0.5
			c-0.1-0.1-0.2-0.2-0.3-0.2C44.9,34.124,44.9,33.423,45.6,32.624z"/>
	</g>
</g>
</svg>
