<?xml version="1.0" encoding="iso-8859-1"?>
<!-- Generator: Adobe Illustrator 12.0.1, SVG Export Plug-In . SVG Version: 6.00 Build 51448)  -->
<!DOCTYPE svg PUBLIC "-//W3C//DTD SVG 1.1//EN" "http://www.w3.org/Graphics/SVG/1.1/DTD/svg11.dtd" [
	<!ENTITY ns_svg "http://www.w3.org/2000/svg">
	<!ENTITY ns_xlink "http://www.w3.org/1999/xlink">
]>
<svg  version="1.1" id="Layer_1" xmlns="&ns_svg;" xmlns:xlink="&ns_xlink;" width="101" height="100" viewBox="0 0 101 100"
	 style="overflow:visible;enable-background:new 0 0 101 100;" xml:space="preserve">
<g>
	<path style="fill:#FFFFFF;" d="M101,100V0H0v100H101z"/>
</g>
<g>
	<path style="fill:#3172A1;" d="M90.9,92c0.2-0.2,0.5-0.4,0.7-0.7c0.6-0.1,1.1-0.2,1.7-0.2C93.2,91,93.2,91,93.1,91
		c-0.3-0.1-0.7-0.1-1.1-0.2c0.3-0.3,0.4-0.7,0.5-1.1c-6.9-4.2-14.6-6.4-23-6.5c0-0.1,0-0.2,0-0.4c0.1-2.3-0.5-4.2-1.8-5.7
		c8.1-4.9,11.2-12.4,9.5-22.3c-0.5-2.5-1.2-4.7-2.4-6.8c-1.1-1.9-2.4-3.7-3.8-5.2c0.4,0.1,0.8,0.2,1.3,0.3c-0.3-0.3-0.5-0.5-0.8-0.7
		c-1.5-1.4-2.4-3-2.7-5c0-0.1,0.1-0.2,0.1-0.3c1.2-1.1,1.8-2.1,1.8-2.7c0.5-0.1,1,0,1.4,0.1c-0.1-0.2-0.1-0.3-0.3-0.4
		c-0.1-0.1-0.3-0.2-0.5-0.3c0.2,0,0.5-0.2,0.7-0.3c-1-0.6-1.7-1.3-2.4-2c0.1-0.2,0.1-0.3,0.2-0.3c1.2-0.9,1.8-1.5,2-2.1
		c0.1,0.1,0.2,0.1,0.3,0.1c0,0.3,0.1,0.5,0.1,0.8c0.3,1,0.8,1.8,1.7,2.6c0.8-0.1,1.6-0.1,2.4-0.1c0.3-0.3,0.6-0.6,0.8-1
		c1.4-2.5,2.2-5.2,2.4-8.1c-0.1-0.1-0.1-0.2-0.2-0.3c-0.4-1.9-1.5-3.3-3.3-4.2c-0.1,0-0.2,0-0.2,0.1c-2.3,0.9-3.6,2.6-3.9,5.2
		c-3.1-0.2-6.1,0.4-8.9,1.5c-5.4,2.2-7.7,5.4-6.8,9.6c-3.3-1.2-6.8-1.7-10.4-1.3c-0.4,0.2-0.8,0.3-1.3,0.5c0-0.3,0-0.5-0.1-0.8
		c-2.1-8.2-7.6-12.4-16.5-12.9c0-0.6-0.1-1.2-0.2-1.8c-0.2-0.6-0.5-1.1-0.9-1.6c-0.3-0.1-0.6-0.2-0.8-0.2c-0.6-0.1-1.2-0.2-1.7-0.3
		c-2.4,1.2-3.4,3.3-3.1,6.2c0.1,2.3,0.9,4.2,2.2,6c1.1,0,2.2,0,3.2,0c0.3-0.4,0.6-0.6,0.9-1c0.1-0.1,0.2-0.3,0.4-0.4
		c0-0.1,0-0.2,0-0.4c0-0.3,0-0.7,0.1-1.1c0.1-0.1,0.1-0.2,0.3-0.4c0.2-0.1,0.5-0.2,0.7-0.2c0.2,0.2,0.6,0.3,1,0.4
		c0.1,0.1,0.2,0.2,0.3,0.3c0.7,0.7,1.2,1.4,1.5,2.3c-1.2,1.6-2.7,2.9-4.5,3.9c-0.3,0-0.4,0.1-0.4,0.2c-0.1,0-0.1,0-0.1,0
		c0,0.1,0,0.3,0.1,0.3c0.5,0.6,1.2,1,2,1.3c0.1,0.2,0.2,0.4,0.4,0.7c0.6,0.7,1,1.6,1.3,2.6c-0.8,1.8-2.1,3.3-3.8,4.5
		c0.1,0.2,0.3,0.4,0.6,0.5c-4.3,4.4-6.5,10.2-6.8,17.5c0,2.1,0.2,4.2,0.7,6.1c1.5,5.2,4.2,9.1,8.3,11.8c-1,1.7-1.5,3.6-1.3,5.7
		c-6.2-0.5-11.6,1.1-16.3,4.7c0,0.2,0,0.3,0,0.4c-0.1,0.8,0,1.6,0.3,2.3c0,0,0,0,0.1,0.1c-0.8,0.3-1.4,0.9-1.9,1.5
		c1.2,0.1,2.2,0,3.2-0.4c0.9,0.1,1.7,0.3,2.6,0.4c-1.3,0.5-2.6,1.2-3.7,2.1c0.1,0.2,0.1,0.2,0.1,0.2c2.2-0.5,4.3-1.1,6.6-1.9
		c1,0.1,2,0.2,2.9,0.3c-1.6,0.4-3.1,1-4.4,1.7c2.5-0.1,5.1-0.6,7.6-1.6c2,0,4-0.1,6.1-0.3c-2.3,0.8-4.5,1.5-6.7,2.4
		c0.2,0,0.4,0,0.7,0c8.4-1.9,16.7-4.1,24.8-6.5c1.6-0.1,3.2-0.2,4.8-0.5c-0.4,0.2-0.9,0.4-1.5,0.5c-5.7,1.3-11,3.2-16.1,5.6
		c6-1.1,12.4-2.8,19-5.2c1.5,0.7,3,1.3,4.5,1.9c-0.8-0.2-1.6-0.4-2.5-0.4c-0.5,0.3-1.1,0.5-2,0.7c-3.2,0.3-6.1,1.3-8.7,2.9
		c0.3,0,0.7-0.1,1.1-0.1c4.4-0.9,8.5-1.8,12.4-2.9c-0.1-0.1-0.1-0.1-0.2-0.2c0.9,0.3,1.7,0.6,2.6,0.8c-1.9,0.4-3.4,1.1-4.6,2.1
		c0.3,0.6,0.7,0.8,1.5,0.7c3.4-0.6,5.3-1.3,5.3-2.2c1.9,0.4,3.7,0.7,5.6,1c-0.1-0.1-0.3-0.1-0.5-0.1c-0.9,0.3-2,0.6-3.2,0.9
		c-0.4,0.1-0.7,0.3-0.7,0.7c0.3,0.7,0.7,0.8,1.3,0.5c1.5-0.9,3.1-1.4,4.9-1.7C73.2,94,73.2,94,73.1,94c-0.3-0.1-0.6-0.1-0.9-0.2
		c1.5,0.2,3.1,0.2,4.7,0.2c-1.4,0.7-2.5,1.4-3.6,2.2c0.5,0.4,1.1,0.4,1.7,0.2c2.1-1,4.4-1.8,6.6-2.6c3-0.3,6-0.8,9-1.6
		C90.7,92.2,90.8,92,90.9,92z M76.1,20.9c0.3,0.3,0.5,0.6,0.6,0.9c0.4,0.9,0.9,1.7,1.3,2.5c-0.3,0.5-0.5,1-0.5,1.5
		c0.1,1.4-0.1,2.8-0.5,4.2c-0.7,1-1.7,1.3-2.7,1c-0.4-0.3-0.6-0.7-0.8-1c-0.4-0.5-0.3-1.1,0.3-1.7v-0.2c-2.1-0.3-4.3-0.1-6.3,0.3
		c-5.4,1.1-7.6,3.6-6.8,7.5c0,0.1-0.1,0.2-0.2,0.3h-0.1c-0.2,0.3-0.3,0.6-0.4,1c-0.2,0.1-0.4,0.3-0.6,0.4c2.1,0.6,4,1.4,5.9,2.3
		c0.4,0.2,0.7,0.3,1.1,0.4c0.7,0.6,1.5,1.2,2.3,1.7c1.4,1,2.6,2.2,3.4,3.6c0.2,0.2,0.2,0.5,0.3,0.7l-0.2,0.2
		c2.4,3.4,3.7,7.9,3.7,13.3c0,4.3-1.5,7.9-4.5,11c-9.3,9.8-21.1,12.4-35.3,8c-3.9-1.2-7-3.4-9.5-6.5c-5.2-6.5-6.1-13.9-2.6-22
		c0.1-0.1,0.2-0.2,0.4-0.4c0.1-0.1,0.2-0.2,0.4-0.3c0-0.2,0.1-0.3,0.2-0.4c0-0.1,0-0.2,0-0.4c0-0.1,0-0.2,0.1-0.3
		c0-0.2,0.1-0.3,0.2-0.4c0.8-0.7,1.5-1.5,2.1-2.4c3-4.4,6.9-7.3,11.7-8.7v-0.1c0.2-1.2,0.2-2.4,0-3.7c-0.9-5.7-4.1-8.7-9.5-9
		c0,0,0,0-0.1,0c-0.2-0.1-0.4,0-0.5,0c-0.7,0-1.5,0-2.4,0.1c0,0.8,0,1.5-0.1,2.2c-0.1,0.3-0.2,0.6-0.4,0.8c-0.5,0.2-1.1,0.3-1.7,0.4
		c-0.1,0.1-0.1,0-0.1,0c-0.5-0.5-0.7-1.1-0.8-1.7c-0.1-0.8-0.2-1.4-0.3-2c-0.3-1.5-0.3-3-0.1-4.4c0.3-0.3,0.6-0.5,0.8-0.7
		c0.7-0.6,1.4-0.6,2.1-0.1c0.6,0.5,0.9,1.1,0.7,1.9c0,0.5-0.1,1-0.1,1.5c2.8,0.3,5.5,1.1,8.3,2.1c3,1.2,4.9,3.2,5.8,6
		c0.6,1.8,1.4,3.3,2.2,4.2c-0.2,0-0.4,0-0.6,0.1c-0.2,0-0.3,0.1-0.5,0.3c-0.1,0.1-0.2,0.2-0.3,0.3c-0.1,0.1-0.1,0.3-0.1,0.4
		s0,0.2,0.1,0.4c0.2,0.1,0.4,0.2,0.5,0.2c0.2,0.1,0.3,0,0.4-0.1c0.1,0,0.2-0.1,0.3-0.1c0.2-0.2,0.3-0.3,0.6-0.3c0.8,0,1.6,0,2.5,0.1
		c4.1,0.2,7.6,0.3,10.6,0.4h0.3c0.4,0,0.8,0,1.2,0c-0.1-0.1-0.1-0.2-0.2-0.2c-0.3-0.2-0.6-0.3-0.9-0.4c2.3-7.3,7.8-10.7,16.6-10.1
		c0.1-0.4,0.2-0.8,0.3-1.2c0.1-0.7,0.3-1.5,0.6-2.2c0.1-0.2,0.2-0.3,0.2-0.4C75,21.1,75.5,20.8,76.1,20.9z M69.3,29.3
		c-0.1,0.2-0.3,0.3-0.3,0.4c-0.3,0.5-0.5,1-0.7,1.5c0,0.1,0,0.3,0,0.3c0.2,0.7,0.6,1.2,1,1.6c-1-0.2-2-0.2-3,0
		c-1.2,0.2-2.4,0.6-3.6,1.2c-0.5,0.2-0.9,0.5-1.3,0.8c1.3-4.1,4.1-6.2,8.6-6.1C69.8,29.1,69.5,29.2,69.3,29.3z M61.9,36.7
		c0.4,0,0.7-0.2,1.1-0.4c2.2-1,4.3-1.7,6.2-1.8c-0.5,0.5-1,1.2-1.4,1.8c0,0.2,0,0.3,0,0.4c-0.1,1.5,0.2,2.7,0.6,3.7
		C66.5,38.9,64.3,37.6,61.9,36.7z M31.6,25.8c0.3,0.2,0.5,0.2,0.8,0.4c2.2,1.1,4,2.7,5.2,4.8c0,0.2,0,0.5,0,0.7c0,0.5-0.1,0.9,0,1.1
		c0,1.2,0.2,2.2,0.6,2.9c-0.1,0-0.1,0-0.1,0.1c-2.7,1-5.1,2.2-7.2,3.7c0.4-0.6,0.6-1.2,0.9-1.8c-0.6-1.4-1.1-2.6-1.5-3.5
		c1,0,2.1-0.1,3.3-0.4c1.4,1.3,2.8,1.8,4.1,1.6c0.1,0,0.1-0.1,0.1-0.2c-0.1-0.1-0.2-0.2-0.2-0.4c-0.5-0.6-1.1-1.2-1.8-1.5
		c-0.2-0.1-0.4-0.2-0.5-0.3c-0.3-0.2-0.5-0.2-0.8-0.3c-1.7-0.1-3.4-0.1-5-0.2c1.3-0.7,2.4-1.7,3.3-2.9c0-0.3,0-0.5,0-0.8
		c0-0.5,0-1-0.2-1.5c-0.1-0.1-0.3-0.3-0.3-0.4C32.1,26.5,31.9,26.1,31.6,25.8z M35.1,84.9c-0.6-0.1-1.3-0.2-2.1-0.3
		c0.5-1.9,0.6-3.4,0.3-4.6c1.8,0.8,3.7,1.3,5.7,1.8c0.8,0.1,1.5,0.3,2.2,0.4C38.9,82.3,36.9,83.2,35.1,84.9
		c3.2-0.4,6.7-0.9,10.5-1.6c0-0.1,0-0.2,0.1-0.3c0-0.2,0-0.3,0.1-0.4c2.4,0.1,4.9,0,7.3-0.3l0,0c2.1,1,4.5,1.8,7.3,2.5
		c-1.6,0.6-2.9,1.6-3.9,2.9c-5.4,0.1-10.9-0.2-16.4-0.9C38.6,85.9,37,85.3,35.1,84.9z M32.3,79.6c-1,2.2-1,4.5-0.3,6.7
		c3.1,1,6.3,2,9.4,3.3c-9.6,2.9-18.9,2.9-27.9,0.1c4.4-3.3,9.7-4.9,15.8-4.9c0-0.1,0-0.2,0-0.4c0.2-2.1,0.4-4.2,0.8-6
		C30.8,78.8,31.5,79.2,32.3,79.6z M43.7,89.7c-0.1-0.1-0.1-0.2-0.1-0.3c-0.6-0.6-1.3-1.1-1.9-1.6c1.6,0.5,3.3,0.9,5,1.1
		C45.7,89.1,44.7,89.4,43.7,89.7z M65.9,78.1c0.2-0.1,0.4-0.2,0.6-0.3c1.1,2.2,1.8,4.6,2,7c8.2,0.3,15.4,2,21.6,5.4
		c-11,3.3-21.8,2.7-32.3-1.6c2.4-1.8,5-2.8,8-3.3c0-0.1,0-0.2,0.1-0.4c0.5-2.7,0-4.8-1.5-6C64.9,78.6,65.4,78.4,65.9,78.1z
		 M64.6,83.9c-0.9,0.1-1.8,0.2-2.6,0.4c-2.1-1-4-1.8-5.9-2.6c2.6-0.6,5.2-1.4,7.7-2.6C64.8,80.5,65,82.1,64.6,83.9z"/>
	<path style="fill:#3172A1;" d="M47,65.9c-1.4,0.5-2.4,1.6-2.9,3.2c-0.5,2-0.8,3.9-0.7,6c3.1,0.9,6.4,1.2,10,0.9
		c0-0.1,0.1-0.2,0.1-0.3c0.3-0.2,0.5-0.5,0.8-0.7c0.1-0.2,0.2-0.3,0.3-0.4c0-0.1,0-0.2,0-0.4C54.8,69.1,52.2,66.3,47,65.9z
		 M46.7,67.8c0.2-0.2,0.5-0.3,0.8-0.4c0.8-0.2,1.5,0,2.3,0.5c2.2,1.1,3.3,2.9,3.5,5.2c-0.4-0.9-0.9-1.6-1.6-2.2
		c-0.2-0.1-0.3-0.2-0.4-0.3c-1.3-0.1-2.5-0.1-3.8-0.1c-1.1,0.4-2,1.3-2.8,2.5c0,0,0,0,0,0.1c0-0.1,0-0.1,0-0.1
		c0.2-1.7,0.7-3.3,1.4-4.9C46.3,68,46.5,67.9,46.7,67.8z M50.5,71.9c0.2,0,0.4,0.1,0.5,0.2c0.6,0.8,1.3,1.5,2,1.9
		c-2.8,1.1-5.5,1.1-8-0.1c0.6-0.2,1.3-0.8,2-1.7c0.1-0.2,0.3-0.3,0.5-0.5C48.5,71.7,49.5,71.8,50.5,71.9z"/>
	<path style="fill:#3172A1;" d="M51.1,77.5c-1.3-0.2-2.7-0.3-4.1-0.4v0.1c0,1.1,1.4,1.2,4.3,0.4C51.2,77.5,51.2,77.5,51.1,77.5z"/>
	<path style="fill:#3172A1;" d="M28,51.2c0-0.1,0.1-0.2,0.1-0.3c1-1.2,0.9-2.1-0.1-2.4c-1.9,2-3,4.6-3.5,7.7
		c0.6,1.2,1.6,1.7,2.9,1.6c0.1-0.2,0.3-0.4,0.4-0.6C28.7,55.2,28.8,53.2,28,51.2z M26.8,52.3c0.2-0.2,0.4-0.1,0.5,0.2
		c0.3,0.9,0.4,1.9,0.2,3.1c-0.3,0.7-0.8,1-1.5,0.7c0,0,0-0.1,0-0.2C25.6,54.9,25.9,53.7,26.8,52.3z"/>
	<path style="fill:#3172A1;" d="M71.5,47.5c0-0.2,0-0.3-0.1-0.4c-0.9-2.3-2.6-3.6-5.1-4C65.5,43,65.4,43.4,66,44
		c0.9,1.2,1.5,2.5,2,4C69.5,49,70.6,48.8,71.5,47.5z M68,45.2c1,0.1,1.7,0.7,2.1,1.6c-0.3,0.8-0.7,0.8-1.1,0.3
		c0-0.1-0.1-0.2-0.1-0.4C68.6,46.2,68.3,45.7,68,45.2L68,45.2z"/>
	<path style="fill:#3172A1;" d="M48.5,42.1c-0.4-0.4-0.9-0.7-1.5-1.2c-0.1-0.1-0.3-0.2-0.5-0.3c-1.6-0.1-3.2-0.1-4.7-0.2
		c-3.3,0.8-5.7,2.7-7,5.7c-0.2,0-0.4,0.1-0.5,0.2c0.1,0.1,0.2,0.1,0.3,0.2c-3.8,8.6-1.2,14.2,7.7,16.7c1.3-0.5,2.7-0.9,4.2-1.3
		c0.8-0.2,1.5-0.7,2-1.3c0.7,0.9,1.7,1.6,2.9,2c1.9,0.7,3.7,0.6,5.5-0.2c6.5-2.9,8.4-7.8,5.6-14.7c-0.9-1.2-1.9-2.3-3-3.4
		C56.3,41.3,52.6,40.6,48.5,42.1z M42.3,41.9c1.1-0.3,2.2-0.3,3.2-0.1c-2.5,0.8-4.9,1.7-7.2,2.7C39.4,43.5,40.7,42.7,42.3,41.9z
		 M46.7,42.3c0.4,0.3,0.8,0.5,1.2,0.9c0,0.4,0.1,0.7,0.2,1c0.2,0.3,0.4,0.5,0.7,0.7c0.5,0,0.9-0.3,1.2-0.8c0.2-0.3,0.5-0.7,0.9-0.9
		c0.2,0,0.5,0,0.8,0c2.7,1.8,5.6,3.4,8.6,4.8c3,5.1,2.1,9.5-2.8,13.2c-3.4,0.8-6.3,0.1-8.7-2.4c-3.4,2.8-7,3.3-10.8,1.4
		c-0.8-0.4-1.3-0.9-1.6-1.5c-2.4-4.9-2.4-9,0-12.2c1.9-0.8,3.7-1.4,5.7-1.9C44.3,44,45.8,43.3,46.7,42.3z M59.6,46.9
		c-2.2-1.4-4.5-2.6-6.9-3.7c2.3,0.2,4.3,1.1,6.1,2.6c0.2,0.3,0.4,0.5,0.6,0.8C59.4,46.7,59.5,46.8,59.6,46.9z"/>
	<path style="fill:#3172A1;" d="M52.4,51.4c-0.2-0.1-0.3-0.1-0.4-0.2c-0.8-0.1-1.5-0.2-2.2-0.3V51c-0.6,0.1-0.9,0.4-0.7,1.1
		c0,0.1,0,0.2,0,0.3c0,0.2,0.1,0.3,0.1,0.4c0.9,1.1,1.9,1.3,3.1,0.5c0.1-0.5,0.2-1,0.1-1.5C52.4,51.7,52.4,51.6,52.4,51.4z"/>
	<path style="fill:#3172A1;" d="M47.9,50.9c-0.2-0.1-0.3-0.2-0.4-0.2c-0.4-0.1-0.8-0.2-1.2-0.3c-0.3,0.1-0.5,0.3-0.8,0.5
		c-0.4,0.4-0.5,0.9-0.4,1.5c0.7,1.3,1.5,1.6,2.6,1.1c0.1-0.1,0.1-0.1,0.2-0.1c0-0.1,0.1-0.2,0.2-0.2c0.2-0.4,0.2-0.7,0.2-1.1
		C48.3,51.6,48.2,51.3,47.9,50.9z"/>
	<path style="fill:#009659;" d="M56.7,36.2h-0.3H56.7L56.7,36.2z"/>
	<path d="M56.7,36.2h-0.3c0,0.1,0.1,0.3,0.1,0.5C56.6,36.5,56.6,36.4,56.7,36.2z"/>
	<path d="M73.8,28.1v0.2V28.1z"/>
	<path d="M72.2,46.5l0.2-0.2c-0.5-0.4-0.9-0.8-1.4-1.2C71.4,45.5,71.8,46,72.2,46.5z"/>
	<path d="M39.1,36.9V37c0,0,0,0,0.1,0C39.1,37,39.1,37,39.1,36.9z"/>
	<path style="fill:#3172A1;" d="M91,92.6c0,0.1,0,0.1,0,0.1c-3.1,0.5-5.8,1.7-8.2,3.4c0.2,0.1,0.4,0.1,0.6,0c2.9-1.1,5.9-2.1,8.9-3
		c-0.1-0.1-0.2-0.1-0.2-0.2C91.7,92.8,91.4,92.7,91,92.6z"/>
	<path style="fill:#3172A1;" d="M42.5,15.3c-0.3,0.2-0.6,0.4-0.9,0.9c-0.4,0.7-0.6,1.6-0.6,2.5c1.1,0.9,2.2,1.8,3.4,2.6
		c0,0.3,0,0.5,0,0.8c0.1,0.6,0.5,0.9,1.1,0.9c0.4-0.2,0.7-0.6,0.7-1.1c0.2-2.3-0.5-4.3-2.1-6.1c-0.1-0.1-0.2-0.2-0.4-0.2
		C43.3,15.5,42.9,15.4,42.5,15.3z M42.3,18c0.1-0.2,0.2-0.3,0.2-0.4c0.1-0.3,0.1-0.5,0.1-0.8c0.2-0.1,0.5-0.1,0.8,0.3
		c0.9,0.8,1.4,1.8,1.5,2.9C43.7,19.4,42.9,18.7,42.3,18z"/>
	<path style="fill:#3172A1;" d="M58.5,20.8c-0.7,0.4-1.4,1-2.2,1.7c-0.9,1-1.3,2-1.2,3.2c0.4,0.2,0.7,0.3,1.2,0.4c0.1,0,0.2,0,0.3,0
		c0.7-0.6,1.5-0.9,2.4-1.1c1.8-0.6,2.8-1.7,3-3.3c-0.1-0.1-0.2-0.2-0.4-0.2C60.6,21.2,59.6,21,58.5,20.8z M57.3,23.5
		c0.4-0.4,0.8-0.8,1.2-1.2c1.6-0.5,2.1-0.5,1.6,0.2c-0.9,0.9-1.9,1.4-3.1,1.3C57.1,23.7,57.2,23.6,57.3,23.5z"/>
</g>
</svg>
