<?xml version="1.0" encoding="iso-8859-1"?>
<!-- Generator: Adobe Illustrator 12.0.1, SVG Export Plug-In . SVG Version: 6.00 Build 51448)  -->
<!DOCTYPE svg PUBLIC "-//W3C//DTD SVG 1.1//EN" "http://www.w3.org/Graphics/SVG/1.1/DTD/svg11.dtd" [
	<!ENTITY ns_svg "http://www.w3.org/2000/svg">
	<!ENTITY ns_xlink "http://www.w3.org/1999/xlink">
]>
<svg  version="1.1" id="Layer_1" xmlns="&ns_svg;" xmlns:xlink="&ns_xlink;" width="98.9" height="91.467"
	 viewBox="0 0 98.9 91.467" style="overflow:visible;enable-background:new 0 0 98.9 91.467;" xml:space="preserve">
<g>
	<path style="fill:#BE3689;" d="M80.1,36.486c1.1-0.9,2.5-1.9,4.1-2.8l0,0c0.5-0.9,0.9-2.1,1-3.5c-1.8-1.1-3.9-1.8-6.2-2
		c-0.3-0.3-0.7-0.6-1.1-1h-0.2c-0.4-0.4-0.8-0.6-1.3-0.8c-0.4,0-0.6,0-0.8,0c-1.9-1.8-4.6-2.6-8-2.5c-0.4,0.3-0.9,0.4-1.5,0.4
		c-0.3,0-0.5,0.1-0.7,0.1c-0.2-1.5-0.5-3-1.2-4.5c-0.1-0.1-0.2-0.1-0.4-0.2c-0.9-0.1-1.8-0.2-2.7-0.3c-4.2,0.5-7.4,2.5-9.3,5.9
		c-0.1,0-0.1-0.1-0.1-0.1c0-0.5,0.2-0.8,0.5-1.1c0-0.4,0-0.8,0-1.2c0-0.5,0-1,0-1.5c0.2-0.2,0.3-0.5,0.5-0.7c1.1-2.3,2.6-4.3,4.7-6
		c0.2-0.1,0.4-0.1,0.5-0.1c2.4,1.3,5,1.6,7.8,0.8c0.2-0.2,0.4-0.5,0.4-0.7c0.8-4-0.3-7.2-3.2-9.8c-0.5,0-0.9,0-1.3-0.1
		c0,0.1,0,0.1,0,0.1c-2.1,1.3-3.5,2.8-4.2,4.5c-0.4,0-0.5,0-0.5,0.3c0.1,0.2,0.1,0.4,0.2,0.6c-0.1,0.1-0.1,0.2-0.1,0.3
		c-0.3-0.1-0.6-0.1-0.9-0.2c-1.5,0.9-2.9,2.1-4.3,3.5c-1.9,2.1-3,4.2-3.4,6.3c-0.7-3.1-2.3-5.9-4.8-8.4c0.1-0.4,0.2-0.9,0.2-1.4
		c5.1-1.5,9.3-4.3,12.6-8.3c-0.1-0.2-0.2-0.3-0.2-0.3c-2.2-1.6-4.7-2.1-7.6-1.6c-5.5,0-11.1,0.8-16.6,2.2c-6.2,1.5-9.4,4.7-9.6,9.4
		c3.6,0.4,7.3,0.5,11,0.3c-0.1,0.9,0.1,2,0.5,3.2c2,0.9,4,0.9,6,0.1c0.5,0.4,1,0.8,1.5,1.2c0-0.2-0.1-0.3-0.1-0.4
		c-0.1,0-0.1,0-0.1-0.1c2.4,2.2,3.9,4.7,4.6,7.7c0,0-0.1,0-0.2,0c0,0.1,0,0.1-0.1,0.2c-2.9-3.1-6.5-4.6-10.9-4.6
		c-1,1.4-1.7,3-1.9,4.9c-2-1.4-4.5-1.3-7.5,0.4c-0.2-0.1-0.4-0.1-0.6-0.1c-0.1,0-0.2,0.1-0.3,0.2c-0.2,0-0.4,0-0.6,0
		c0,0,0,0-0.1-0.1c-1.4-0.8-2.9-1.2-4.5-1.3c-0.6,0.2-0.9,0.7-0.8,1.6c0,1.5,0.2,2.9,0.6,4.4c0.3,1.7,1.1,3.2,2.2,4.5
		c0.3,0.2,0.5,0.3,0.7,0.5c1.7,1.1,3.3,1.1,4.8,0c0.1-0.2,0.1-0.5,0.1-0.7c0-0.8,0.1-1.5,0.4-2.1c0,0,0-0.2,0.1-0.2
		c0.1,0.1,0.3,0.2,0.4,0.3c0,0.4,0,0.8,0,1.1c0,0.4,0,0.7,0,1.1c0,0,0,0,0,0.1c-0.2,0.1-0.3,0.2-0.5,0.3c-0.9,0.8-1.3,1.7-1.2,2.6
		c1.6-0.2,3.1-0.3,4.4-0.3c-0.4,0.5-0.9,0.9-1.3,1.5l0,0c-0.4,0.5-0.8,1-1.1,1.5c-2.8,3.1-5,6.6-6.4,10.7c-0.1-0.1-0.2-0.1-0.2-0.1
		h-0.1c0,0.4-0.1,0.8-0.2,1.2c0,0,0,0,0.1,0.1c-0.1,0.2-0.2,0.4-0.2,0.7c-0.7,0.2-1.4,0-2.1-0.8c-0.6-0.6-1.3-1.1-2.1-1.5
		c0-0.1,0-0.2,0-0.3c-0.3-0.4-0.4-0.8-0.6-1.1c-0.1-0.2-0.1-0.3-0.2-0.4c-0.3-0.1-0.5-0.1-0.8-0.1c-4.5,0-9-0.7-13.5-2.1
		c-0.1,0.1-0.2,0.2-0.4,0.2c-0.1,0.1-0.2,0.2-0.3,0.4c-0.1,0.2-0.3,0.4-0.4,0.7c-0.2,0.2-0.4,0.5-0.5,0.7c0.3,1.1,0.8,2,1.6,2.8
		c1.1,1,2.4,1.9,3.8,2.5c-1.2,0.3-2.4,0.6-3.6,0.9c-1,0.3-1.6,0.9-1.8,1.7c0,0.3,0,0.5,0.1,0.7c0.1,0.3,0.2,0.5,0.4,0.8
		c0.3,0.2,0.5,0.5,0.7,0.8c3.1,0.7,5.7,0.9,8,0.4c-0.9,0.6-1.8,1.3-2.6,2.1c-0.5,0.5-1,1-1.5,1.5c-0.1,0.1-0.1,0.2-0.2,0.4
		c0,0.1,0,0.2,0,0.3c0,0.2,0,0.3,0,0.4s0,0.3,0,0.4c0.1,0.2,0.3,0.4,0.5,0.4c3,0.5,5.8,0,8.5-1.4c0.1,0.4,0.4,0.7,0.9,1
		c0.2,0.1,0.5,0.2,0.8,0.2c1.6-0.8,2.9-2,3.9-3.4c0.1-0.1,0.2-0.1,0.3-0.1c0.3,5.4,3.1,9.7,8.4,12.8c2.6,1.5,5.3,2.8,8,3.7
		c-0.1,0.1-0.2,0.2-0.2,0.3c0.1-0.1,0.2-0.1,0.4-0.1c0.1,0,0.1-0.1,0.2-0.1c0.3,0,0.6,0,0.9,0c0.8,0.5,1.8,0.8,2.9,1
		c0.7,0.3,1.3,0.6,2,0.9c1.1,0.9,2.1,2,3,3.4c-0.1,0.1-0.2,0.2-0.3,0.4c-0.6,0.9-1,1.9-1.2,3c0,0.9,0.4,1.7,1.2,2.2
		c6.2-0.5,12.2-0.9,18-1.1c0,0.1,0.2,0.2,0.3,0.4c0.5,0.8,0.8,1.7,1.1,2.6c0.5,0.6,1.1,1.1,1.7,1.5c3.3,0.7,5.6,0.1,7-1.9
		c-1.3,0-2.6-0.3-3.8-0.7c0-0.3,0-0.5-0.1-0.8c-0.2-1.3,0-2.6,0.6-3.7c-0.1-0.2-0.2-0.3-0.3-0.4c-0.2-0.4-0.4-0.9-0.4-1.5
		c-0.6-0.8-1.3-1.5-2-2.3c-3,0-4.8-0.7-5.3-2.1c0.1-0.1,0.2-0.2,0.4-0.3c5.7-2.1,9.7-5.7,12.1-10.8c-0.1,0-0.1,0-0.1,0
		c0.3-0.8,0.7-1.6,1-2.4c0.7-2.2,1.2-4.3,1.5-6.3c1.8,3.1,4.3,4.5,7.4,4.5c0.2-0.9,0.2-1.8,0.2-2.7c0-0.2,0-0.5,0-0.7
		c0.5,0.1,0.9,0.4,1.4,0.8c0.6,0.5,1.2,1,1.8,1.6c2.3,0.3,4.5,0.3,6.6-0.2c0.2-0.6,0.2-1.2,0.1-1.8c-0.1-0.2-0.1-0.3-0.2-0.4
		c-0.4-0.5-0.8-0.8-1.3-1.1c-0.2-0.2-0.4-0.3-0.7-0.4c4-0.1,6.2-1.8,6.8-5.2c-0.3-0.4-0.7-0.7-1.1-1.1c-0.1-0.1-0.3-0.2-0.4-0.4
		c-0.8-0.1-1.5-0.3-2.1-0.5l0.2-0.2c0.8-0.3,1.4-0.8,1.8-1.5c0.8-1.2,0.8-2.3,0.1-3.4c-0.2-0.1-0.4-0.2-0.6-0.2
		c-0.7-0.2-1.4-0.2-2.2-0.3c-3.5,0.9-7.2,1.6-11,2.1c-2.1,1.7-4.6,2.7-7.3,3.1c-0.2-0.5-0.3-0.9-0.5-1.4c0.2-0.1,0.4-0.2,0.5-0.3
		c-0.2-0.2-0.4-0.5-0.5-0.8c-0.2,0-0.2,0.1-0.3,0.2c-1.5-3.5-4.1-6.6-7.9-9.4c-0.2-0.2-0.4-0.5-0.6-0.8c1.3-1,2.8-0.9,4.5,0.3
		c0.6,0.5,1.1,0.4,1.6-0.2c-0.2-0.9-0.7-1.6-1.4-2.4c-0.2-0.3-0.4-0.6-0.6-1c0-0.4,0-0.8,0.1-1.1c0.1-0.2,0.2-0.2,0.3-0.3
		c1.1-0.3,2.1-0.6,3.1-0.8c0.1,0.1,0.2,0.3,0.4,0.4c0,0.4,0,0.8,0,1.2c0,0.2,0,0.5-0.1,0.7c-0.1,0.8,0.1,1.4,0.5,1.9
		C77.2,36.586,78.8,36.686,80.1,36.486z M83.4,31.986c-0.2,0.2-0.3,0.4-0.5,0.6c-0.6,0.7-1.2,1.3-1.8,2c-1.6,0.6-3.2,0.8-4.9,0.3
		c0-0.2,0-0.5,0-0.7c0-0.3,0-0.5,0-0.8c0-0.3,0-0.7,0-1c0.2,0.4,0.9,0.6,2.2,0.7c-0.1-0.2-0.2-0.3-0.3-0.4c-0.3-0.6-0.7-1.1-1.2-1.5
		c-0.1,0-0.2,0-0.2,0.1c-0.3,0.3-0.4,0.4-0.5,0.6c0-0.1,0-0.2,0-0.3c-3.2-3.5-6.9-4.5-11.1-3.3c0.2-0.9,0.3-1.7,0.3-2.6
		c4-0.5,7.7,0.4,11.1,2.7c0.2,0.4,0.5,0.8,0.7,1.3c0.4-0.1,0.8-0.1,1.1,0c0.5,0.5,1.1,0.9,1.8,0.9c0-0.2,0-0.3,0-0.4
		c-0.1-0.1-0.1-0.2-0.2-0.4c1.5,0.3,2.8,0.8,3.7,1.8C83.5,31.686,83.4,31.786,83.4,31.986z M96,47.086l-0.1,0.2
		c-1.9,2.2-4.4,3.2-7.5,3.3c3,0.7,5.8,1.5,8.6,2.6c-0.2,0.6-0.5,1.1-1,1.5c-0.1,0.1-0.3,0.2-0.4,0.4c-3.7,0-7,0.1-9.7,0.1
		c2.1,1.7,4.4,3.4,6.7,4.9c-3.9-0.5-7.4-2-10.5-4.5c-0.3,0.7-0.3,1.4,0,2.1c0.3,1,0.6,2,0.6,3c-0.4-0.1-0.7-0.2-1.1-0.5
		c-1.3-0.9-2.4-2-3.4-3.3c-0.1-0.1-0.1-0.2-0.1-0.3c-0.4-0.5-0.8-0.8-1.2-0.9c0.1-1.8-0.1-3.5-0.5-5.2c2.7,0.7,5.3,0.1,7.6-1.9
		c3.7-0.4,7.5-1.1,11.1-2C95.5,46.686,95.8,46.886,96,47.086z M62,6.686c0.5,0.2,0.9,0.6,1.2,1c1.3,1.7,1.9,3.7,1.7,6
		c-1.5,0-2.8,0-4.1,0c0.4-0.2,0.8-0.5,1.2-0.8c-0.1-0.1-0.2-0.2-0.3-0.2c-0.5-0.3-1-0.5-1.6-0.6c-0.2,0.1-0.6,0.3-1,0.4
		c-0.7,0.1-1.2,0.3-1.6,0.7c-0.1,0-0.1,0-0.2,0c-0.1,0.2-0.3,0.3-0.5,0.4c-0.1,0-0.2,0-0.3,0c0,0,0.1,0.1,0.2,0.1
		c-3.7,2.6-5.7,6.1-6.2,10.5c0,0.1,0,0.2,0.1,0.3c-0.5-0.3-1-0.4-1.5-0.5c0.2-0.6,0.3-1.2,0.5-1.9c0.9-4.4,3.2-7.6,6.8-9.6
		c0.3,0,0.5-0.1,0.8-0.2c0.3,0.1,0.5,0,0.8-0.2c1.9-0.6,2.6-1.5,2.1-2.5c-0.2,0.2-0.5,0.3-1,0.3l0,0C59.8,8.686,60.8,7.586,62,6.686
		z M43.4,7.886c-0.3-1-0.8-1.8-1.5-2.5c-0.8,0-1.5,0-2.3-0.1c-0.2,0.1-0.4,0.2-0.8,0.3c-2.7,1-4.4,2.4-5.1,4.3
		c-3.3,0.4-6.7,0.5-10.1,0.2c0.1-0.2,0.2-0.3,0.3-0.4c5.8-4.8,12.7-7.4,20.7-7.6c0.1-0.1,0.1-0.1,0.1-0.1c3.4-0.2,6.5,0.2,9.4,1.1
		C50.6,5.086,47,6.686,43.4,7.886z M41.4,7.286c0.1,0.4,0.3,0.7,0.4,1c-1.9,0.6-3.9,1-5.9,1.3C36.9,7.986,38.7,7.286,41.4,7.286z
		 M39.9,14.186c-0.1-0.1-0.2-0.2-0.2-0.2c-0.1,0-0.1,0-0.2-0.1c-0.7-0.5-1.5-0.8-2.4-1.1l-0.1,0.1c0.3,0.3,0.6,0.6,1,0.9
		c-0.2,0.1-0.2,0.3-0.2,0.4c0.1,0.1,0.1,0.2,0.1,0.2c-0.9-0.2-1.9-0.3-2.9-0.5c-0.1-0.7,0-1.4,0.1-2c1.3-0.1,2.7-0.3,4.1-0.5
		c0.7-0.1,1.3-0.2,2-0.3c0.1,0.6,0.5,1.3,1,1.9c0.2,0.4,0.5,0.8,0.8,1.2c2.6,2.9,4.3,6.1,5,9.6c-0.5-0.1-1-0.1-1.6-0.1
		C46.2,19.386,44,16.186,39.9,14.186L39.9,14.186z M42.2,11.386c-0.2-0.2-0.4-0.3-0.6-0.4c0.3-0.1,0.5-0.1,0.8-0.2
		C42.3,10.986,42.2,11.186,42.2,11.386z M58.1,25.686c-0.7-0.3-1.3-0.5-2-0.6c-0.1,0-0.3,0.1-0.5,0.1c-1.6,0.1-2.8,0.7-3.4,1.9
		c0,0,0,0-0.1,0c0,0-0.1,0-0.2,0.1c-0.1-0.4-0.1-0.8-0.1-1.2c0.1,0,0.1,0,0.1-0.1c-0.1,0-0.1,0-0.1,0c0-0.1,0-0.2,0-0.3
		c3.3-2.7,7.2-4.1,11.7-4.3c0.1,0.8,0.2,1.5,0.3,2.3c0.2,3-0.4,5.7-1.8,8.2c-0.4,0.3-0.8,0.5-1.1,0.8c-0.2,0.1-0.3,0.2-0.4,0.4
		c-0.8,0.1-1.6,0.3-2.4,0.7c-0.3-0.1-0.6-0.2-0.9-0.4c-2.1-0.9-3.9-2.3-5.3-4.1c-0.1,0-0.1,0-0.1,0c0-0.5,0-0.9,0-1.4
		c0.8,0.2,1.6,0.3,2.3,0.4c0.6,0.5,1.2,1,1.8,1.4c0.8,0.5,1.5,0.5,2.1-0.2c0.1-0.6-0.3-1-1.2-1.1c-0.8-0.1-1.4-0.5-1.9-1.1
		c-0.5,0-0.9,0-1.3-0.1c1.6-0.6,3.2-1,4.8-1.2C58.3,25.786,58.2,25.686,58.1,25.686z M52.2,31.386v-0.1c1.5,2.3,3.9,3.8,7.3,4.4
		c0.1-0.1,0.2-0.2,0.3-0.2c0.2-0.2,0.4-0.3,0.5-0.4c0.6,0.4,1.1,0.7,1.6,1.1c-0.3-0.1-0.5-0.1-0.8-0.1c3,1.7,6,4,8.9,6.9
		c4.3,4.3,6.1,9.2,5.3,14.8c-0.7,5.4-3.7,10.3-8.8,14.7c0.1,0.1,0.3,0.2,0.5,0.3c-1.6,1.1-3.4,2-5.3,2.6c-0.6,0.7-1.3,1.3-2,1.9
		c0,0.3,0,0.5,0,0.8c-0.2,0.8,0,1.6,0.4,2.2c1.8,0.7,3.8,1.2,5.9,1.4c0.8,0.6,1.5,1.4,1.9,2.2c0,0.2-0.1,0.3-0.1,0.4
		c-0.3,0.6-0.4,1.2-0.4,1.9c0,0.2,0.1,0.5,0.2,0.7c0.5,1.5,0.5,2.3-0.4,2.5c-0.9-1.6-2.1-3.1-3.3-4.5c-6.3,0.3-12.4,0.6-18.2,0.9
		c0-0.5,0.1-1.1,0.3-1.6c0.3-0.6,0.3-1.1,0.2-1.6c-1.4-4.7-4.2-7.1-8.5-7.2c-0.5-0.1-0.9-0.2-1.3-0.2c-0.2,0-0.3,0-0.4,0
		c-5.9-2.1-10.7-5.4-14.2-10.1c-0.6-1.7-0.8-3.5-0.7-5.4c0.1-0.5,0.1-1.1,0.2-1.6c0,0,0-0.1,0.1-0.2c0.5-0.7,0.5-1.4,0.2-2
		c1.4-8,5-14.3,10.9-19.1h0.1c0,0,0,0-0.1,0c0.1-0.1,0.2-0.2,0.2-0.2c1.3-0.7,2.5-1.3,3.8-1.9c1,0.9,2.3,1.4,4,1.5
		c0.1-0.1,0.2-0.1,0.3-0.2c3-0.9,4.9-2.4,5.7-4.3c2-0.4,4-0.5,5.9-0.1C52.3,31.586,52.3,31.486,52.2,31.386z M49.9,29.386v0.1
		c-1-0.1-1.9-0.2-2.9-0.2c-0.1,0-0.4-0.1-0.6-0.2v-0.2c0-0.3,0-0.7,0-1.1c0-0.5,0-1,0-1.5c0-0.1,0-0.2,0-0.4c0.3-1,1.1-1.1,2.4-0.3
		c0.5,0.3,1,0.6,1.6,0.8c0,0.4,0,0.8,0,1.2c0.1,0.5,0,1-0.3,1.5C50,29.186,49.9,29.286,49.9,29.386z M43.3,26.986
		c-0.3-0.1-0.7,0-1.2,0.1c-0.7,0.3-1.4,0.8-2.1,1.3c-0.1,0.2-0.2,0.3-0.3,0.5l0.1,0.2c1.7-0.7,3.4-1,4.9-0.8
		c0.1,0.4,0.1,0.8,0.2,1.1c-0.1,0-0.2,0-0.3,0c-0.1,0.1-0.2,0.1-0.2,0.2c0.2,0,0.4,0.1,0.6,0.2c0.1,0.4,0.2,0.8,0.2,1.1
		c0,0.2,0,0.3,0,0.4c-1.7,1.4-3.7,2.3-5.8,2.9c-1-0.5-1.9-1.1-2.7-1.9c-0.1,0-0.2,0-0.3,0c-0.1-0.1-0.2-0.1-0.3-0.2
		c-0.1,0-0.2-0.1-0.4-0.3c-1.1-1.9-1.6-4-1.5-6.4c0-1.4,0.4-2.8,0.9-4.1c0.1-0.1,0.1-0.2,0.1-0.2c0.8-0.1,1.5-0.2,2.3-0.3
		c1.4,0.7,2.7,1.5,4,2.5c1.3,1,2.5,1.6,3.5,1.6c-0.2,0.5-0.3,1.2-0.4,1.8c-1.7-1.5-3.9-2-6.5-1.6l-0.3,0.1
		C39.6,25.786,41.4,26.386,43.3,26.986z M71.1,31.386c-0.2,0.2-0.5,0.4-0.6,0.7c-0.2,0.1-0.3,0.2-0.4,0.3c0,0.7,0,1.3,0,1.9
		c0,0.1,0,0.1,0,0.1c-1.8-1.4-3.8-2.5-6.1-3c0-0.1,0-0.1,0-0.1c0.5-0.9,0.8-1.9,1.1-2.8c3.3-0.3,6.2,0.6,8.7,2.7
		c-0.8-0.1-1.5-0.1-2.2-0.1l0,0C71.4,31.186,71.3,31.286,71.1,31.386z M62.6,33.386c0.5-0.5,0.9-1,1.2-1.6c2,1.3,4.1,2.4,6.4,3.2
		c0.1,0.2,0.1,0.3,0.2,0.4c0,0.2,0.1,0.3,0.2,0.4c-0.3,0.1-0.6,0.1-1,0c-0.6-0.1-1.3-0.1-2-0.2c-0.3,0-0.5,0-0.7,0.1
		c-0.4,0.2-0.7,0.6-0.9,0.9c-1.1-1.1-2.4-2.1-3.7-3C62.4,33.586,62.5,33.486,62.6,33.386z M39,14.686c0.1,0,0.1,0,0.1,0H39
		L39,14.686z M32.4,27.086c-0.8-0.1-1.5-0.2-2.1-0.4c-0.4,0-0.8-0.1-1.2-0.3c-0.7,0.2-1.5,0.5-2.1,0.9c-0.1-0.1-0.2-0.2-0.4-0.2
		s-0.4,0.1-0.5,0.3c-1,0.7-1.6,1.7-2,2.7c0.6,0.2,1.1,0.2,1.7,0c0,0.1,0,0.2,0,0.3c-0.1,0-0.1,0.2-0.1,0.2h0.1
		c-0.1,0.4-0.2,0.8-0.2,1.1c-0.1,0.5-0.1,1-0.1,1.5c-0.4,0.1-0.8,0.2-1.2,0.1c-2.2-0.5-3.6-1.8-4.2-3.9c-0.4-1.4-0.5-2.9-0.4-4.6
		c0.6,0.2,1.2,0.4,1.7,0.7c0.3,0.2,0.7,0.4,1.1,0.6c-0.2,0.2-0.2,0.5-0.1,0.8c0.3,0,0.7-0.1,0.9-0.2s0.4-0.2,0.5-0.3
		c0.4,0.1,0.7,0.2,1.1,0.2c2.4-1.4,5-2,7.7-1.8c0,0.5-0.1,0.9-0.1,1.4c0,0.4,0,0.7,0.1,1C32.5,27.186,32.4,27.086,32.4,27.086z
		 M32.2,29.086c0.2,0,0.4,0,0.5,0c0.5,1.8,1.4,3.1,2.7,3.9c-0.7,0.3-1.3,0.7-2,1.2c-0.8,0.5-1.5,1-2.2,1.6c-0.8-0.6-1.7-1-2.6-1.2
		c0-0.1,0-0.1,0-0.2c0.3-0.1,0.5-0.3,0.7-0.5c1.2-1.3,2.8-2,4.6-2.2c-0.1-0.1-0.2-0.1-0.2-0.2c-0.8-0.2-1.7-0.3-2.6-0.3
		c-0.9,0.4-1.7,0.9-2.5,1.6c0-0.6,0-1.1,0-1.6c0-0.1-0.1-0.2-0.2-0.3c-0.4-0.2-0.7-0.4-1.1-0.7c0-0.4,0-0.6-0.1-1
		c0.2-0.1,0.3-0.2,0.4-0.3c1.2-0.8,2.5-1,3.9-0.6c0,0.1,0.1,0.1,0.1,0.1c0.1,0.2,0.1,0.2,0.3,0.3C32,28.786,32.1,28.886,32.2,29.086
		z M19.9,56.286c0,0.1,0,0.2,0,0.3c-0.1,0.2-0.1,0.3-0.2,0.5c-0.1,0.2-0.2,0.3-0.3,0.5c-0.3,0.2-0.5,0.5-0.7,0.9l-0.1-0.1v0.1
		c-0.3,0.4-0.7,0.8-0.9,1.3c-0.8,1.3-1.4,1.8-2,1.7c0.2-0.4,0.3-0.7,0.5-1c0.2-0.4,0.2-0.8,0-1.3c0-0.2-0.2-0.5-0.3-0.7
		c-1.2,0.7-2.5,1.5-3.7,2.4c-2.3,1.5-4.1,2.1-5.3,1.7c0.9-0.8,1.9-1.6,3.1-2.3c1.2-0.8,2-1.8,2.2-3c-3.7,0.3-7.2-0.1-10.6-1.1
		c3.1-1.3,6.1-2.2,9-2.9c-1.4-0.7-3-1.3-4.7-1.8c-2.1-0.5-3.5-1.8-4.3-3.7c0.2-0.1,0.3-0.2,0.5-0.1c4.2,1,8.6,1.8,13.1,2.4
		c0.3,0.9,0.8,1.7,1.5,2.3c1.1,0.9,2.4,1.3,3.8,1.1c-0.2,1-0.4,1.9-0.5,2.7C19.9,56.286,19.9,56.286,19.9,56.286z"/>
	<path style="fill:#BE3689;" d="M41.7,40.186c-0.4-0.3-1.1-0.5-2-0.6c0-0.2,0-0.3,0-0.4c0.2-0.7,0.1-1.2-0.3-1.5
		c-0.4-0.1-0.6,0-0.7,0.3c-0.2,0.9-0.1,1.8,0.3,2.6c0.2,0.1,0.4,0.3,0.6,0.4c-0.3,0.2-0.6,0.4-1,0.7c-0.6-0.3-1.4-0.5-2-0.9
		c0-0.1,0-0.2,0-0.4c0.1-0.4-0.1-0.7-0.4-1.1c-0.1,0.1-0.2,0.1-0.3,0.2c-0.4,0.8-0.4,1.5,0.1,2.2c0.4,0.4,0.9,0.8,1.4,0.9
		c-0.2,0.1-0.2,0.2-0.4,0.4c-1,0-1.9-0.5-2.6-1.3c-0.5-0.2-0.7,0-0.7,0.4c0,0.9,0.5,1.5,1.5,1.8c0.3,0.1,0.5,0.1,0.7,0.2
		c-4.5,4.7-4.4,9.6,0.3,14.5c4.8,1.4,8.9,0.5,12.5-2.4c2.6,2.3,5.6,2.8,9.1,1.4c5.4-2,7.2-5.7,5.4-10.9c-0.1-0.1-0.2-0.3-0.3-0.4
		c-0.8-1.5-1.8-2.8-3-3.7c0.2-0.1,0.4-0.2,0.6-0.3c0.1-0.1,0.2-0.2,0.4-0.4c0.9-0.8,1-1.7,0.3-2.6l0,0c-0.7,1.1-1.6,1.8-2.7,2.2
		c-0.4-0.2-0.8-0.4-1.1-0.6c0.4-0.4,0.8-0.9,1.2-1.3c0-0.2,0-0.3,0-0.4c0.1-0.7,0-1.3-0.4-1.9H58c-0.2,1.8-1.1,2.8-2.4,3
		c-0.1,0-0.1,0-0.1,0c0-0.1,0-0.2,0.1-0.2c0.5-1.2,0.6-2.3,0.3-3.4c-0.9,0.5-1.4,1.6-1.8,3.2c0,0,0,0,0,0.1c-1-0.2-1.9-0.2-3-0.2
		c-0.2,0.2-0.6,0.3-1,0.5c-0.8,0.4-1.3,1-1.7,1.9c0,0-0.1,0.1-0.2,0.1C46.1,40.386,43.9,39.686,41.7,40.186z M44.6,41.686
		c1.7,1.3,3.2,2.4,4.5,3.2c0.5-0.4,0.8-0.9,0.9-1.4c0.2-0.6,0.4-1.1,0.7-1.6c4.9-0.6,8.5,1.2,10.9,5.7c0.2,0.6,0.3,1.3,0.4,1.9
		c0.5,3-0.7,5.2-3.6,6.7c-3.9,1.2-7.1,0.5-9.7-2.3c-0.1,0-0.1,0-0.2,0c-6.8,5.8-11.8,5.1-14.8-2c0-0.1,0-0.2,0-0.3
		c0.8-4.8,3.6-8.2,8.4-10.2c0.6,0,1.2,0,1.9-0.1C44.2,41.486,44.4,41.586,44.6,41.686z"/>
	<path style="fill:#BE3689;" d="M53.4,49.686c-0.1-0.1-0.2-0.2-0.3-0.4c-0.4-0.7-1.1-1-2-0.9c-0.3,0.2-0.6,0.4-0.9,0.9
		c-0.2,0.3-0.3,0.6-0.2,1c0.6,1.2,1.6,1.6,3,1.1c0.2-0.3,0.3-0.6,0.4-1C53.5,50.186,53.4,49.886,53.4,49.686z"/>
	<path style="fill:#BE3689;" d="M44,50.886c0.6,1.5,1.6,1.8,3.1,0.9c0.2-0.3,0.2-0.7,0.2-1.1c-0.1-0.3-0.1-0.5-0.1-0.8
		c-0.1-0.1-0.2-0.2-0.4-0.2c-0.5-0.2-1.1-0.4-1.7-0.5c-0.3,0.1-0.6,0.4-0.9,0.8C44.1,50.186,44,50.586,44,50.886z"/>
	<path style="fill:#BE3689;" d="M61,65.786c0.1,0.2,0.2,0.3,0.4,0.4c0.1,0.1,0.2,0.2,0.3,0.4c1.1,0.2,1.6,0,1.4-0.8
		c-0.1-0.1-0.2-0.2-0.3-0.4c-0.5-0.5-1-0.8-1.7-0.9c-1.6-0.6-3-0.4-4.1,0.6c-0.9,0.8-1.8,1.6-2.8,2.3c-1.4,1.2-2.7,2.1-3.8,2.9
		c1,0.5,1.9,0.3,2.8-0.5c1.5-1.5,3.1-2.8,4.8-4C59,65.786,60,65.786,61,65.786z"/>
	<path style="fill:#BE3689;" d="M58.7,67.286c-0.1,0-0.2,0.1-0.3,0.1c-1.1,1-2.4,1.9-3.8,2.7c0.5,0.1,1,0.3,1.5,0.5
		c0.1-0.1,0.3-0.2,0.4-0.2C58.3,69.686,59,68.686,58.7,67.286z"/>
</g>
</svg>
