<?xml version="1.0" encoding="iso-8859-1"?>
<!-- Generator: Adobe Illustrator 12.0.1, SVG Export Plug-In . SVG Version: 6.00 Build 51448)  -->
<!DOCTYPE svg PUBLIC "-//W3C//DTD SVG 1.1//EN" "http://www.w3.org/Graphics/SVG/1.1/DTD/svg11.dtd" [
	<!ENTITY ns_svg "http://www.w3.org/2000/svg">
	<!ENTITY ns_xlink "http://www.w3.org/1999/xlink">
]>
<svg  version="1.1" id="Layer_1" xmlns="&ns_svg;" xmlns:xlink="&ns_xlink;" width="91.2" height="91.467"
	 viewBox="0 0 91.2 91.467" style="overflow:visible;enable-background:new 0 0 91.2 91.467;" xml:space="preserve">
<g>
	<g>
		<path style="fill:#BE3689;" d="M90.7,33.386c-0.1-0.1-0.2-0.2-0.4-0.2c-0.4-0.1-0.8-0.2-1.2-0.3c-4.3,4.2-9.2,7.4-14.6,9.7
			c0.1,0.2,0.2,0.4,0.2,0.6c-0.4,1.3-0.6,2.5-0.8,3.9c-0.2,0.1-0.4,0.2-0.6,0.3c-0.2,0.1-0.2,0.2-0.3,0.3c-1.5-3.5-4.1-6.6-7.9-9.4
			c-0.2-0.2-0.4-0.5-0.6-0.8c1.3-1,2.8-0.9,4.5,0.3c0.6,0.5,1.1,0.4,1.6-0.2c-0.2-0.9-0.7-1.6-1.4-2.4c-0.2-0.3-0.4-0.6-0.6-1
			c0-0.4,0-0.8,0.1-1.1c0.1-0.2,0.2-0.2,0.3-0.3c1.1-0.3,2.1-0.6,3.1-0.8c0.1,0.1,0.2,0.3,0.4,0.4c0,0.4,0,0.8,0,1.2
			c0,0.2,0,0.5-0.1,0.7c-0.1,0.8,0.1,1.4,0.5,1.9c5.9,1.4,9.2-0.6,9.8-6c-1.8-1.1-3.9-1.8-6.2-2c-0.3-0.3-0.7-0.6-1.1-1h-0.2
			c-0.4-0.4-0.8-0.6-1.3-0.8c-0.4,0-0.6,0-0.8,0c-1.9-1.8-4.6-2.6-8-2.5c-0.4,0.3-0.9,0.4-1.5,0.4c-0.3,0-0.5,0.1-0.7,0.1
			c-0.2-1.5-0.5-3-1.2-4.5c-0.1-0.1-0.2-0.1-0.4-0.2c-0.9-0.1-1.8-0.2-2.7-0.3c-4.2,0.5-7.4,2.5-9.3,5.9c-0.1,0-0.1-0.1-0.1-0.1
			c0-0.5,0.2-0.8,0.5-1.1c0-0.4,0-0.8,0-1.2c0-0.5,0-1,0-1.5c0.2-0.2,0.3-0.5,0.5-0.7c1.1-2.3,2.6-4.3,4.7-6
			c0.2-0.1,0.4-0.1,0.5-0.1c2.4,1.3,5,1.6,7.8,0.8c0.2-0.2,0.4-0.5,0.4-0.7c0.8-4-0.3-7.2-3.2-9.8c-0.5,0-0.9,0-1.3-0.1
			c0,0.1,0,0.1,0,0.1c-2.1,1.3-3.5,2.8-4.2,4.5c-0.4,0-0.5,0-0.5,0.3c0.1,0.2,0.1,0.4,0.2,0.6c-0.1,0.1-0.1,0.2-0.1,0.3
			c-0.3-0.1-0.6-0.1-0.9-0.2c-1.5,0.9-2.9,2.1-4.3,3.5c-1.9,2.1-3,4.2-3.4,6.3c-0.7-3.1-2.3-5.9-4.8-8.4c0.1-0.4,0.2-0.9,0.2-1.4
			c5.1-1.5,9.3-4.3,12.6-8.3c-0.1-0.2-0.2-0.3-0.2-0.3c-2.2-1.6-4.7-2.1-7.6-1.6c-5.5,0-11.1,0.8-16.6,2.2c-6.2,1.5-9.4,4.7-9.6,9.4
			c3.6,0.4,7.3,0.5,11,0.3c-0.1,0.9,0.1,2,0.5,3.2c2,0.9,4,0.9,6,0.1c0.5,0.4,1,0.8,1.5,1.2c0-0.2-0.1-0.3-0.1-0.4
			c-0.1,0-0.1,0-0.1-0.1c2.4,2.2,3.9,4.7,4.6,7.7c0,0-0.1,0-0.2,0c0,0.1,0,0.1-0.1,0.2c-2.9-3.1-6.5-4.6-10.9-4.6
			c-1,1.4-1.7,3-1.9,4.9c-2-1.4-4.5-1.3-7.5,0.4c-0.2-0.1-0.4-0.1-0.6-0.1c-0.1,0-0.2,0.1-0.3,0.2c-0.2,0-0.4,0-0.6,0
			c0,0,0,0-0.1-0.1c-1.4-0.8-2.9-1.2-4.5-1.3c-0.6,0.2-0.9,0.7-0.8,1.6c0,1.5,0.2,2.9,0.6,4.4c0.3,1.6,1.1,3.2,2.2,4.5
			c0.3,0.2,0.5,0.3,0.7,0.5c1.7,1.1,3.3,1.1,4.8,0c0.1-0.2,0.1-0.5,0.1-0.7c0-0.8,0.1-1.5,0.4-2.1c0-0.1,0-0.2,0.1-0.2
			c0.1,0.1,0.3,0.2,0.4,0.3c0,0.4,0,0.8,0,1.1c0,0.4,0,0.7,0,1.1c0,0,0,0,0,0.1c-0.2,0.1-0.3,0.2-0.5,0.3c-0.9,0.8-1.3,1.7-1.2,2.6
			c1.6-0.2,3.1-0.3,4.4-0.3c-0.4,0.5-0.9,0.9-1.3,1.5l0,0c-0.4,0.5-0.8,1-1.1,1.5c-2.8,3.1-5,6.6-6.4,10.7c-0.1-0.1-0.2-0.1-0.2-0.1
			c-0.2,0-0.3-0.1-0.4-0.1c-0.6-0.7-1.1-1.4-1.4-2.2c-0.2-0.6-0.3-1.3-0.3-2c-0.5-0.3-1.2-0.7-1.8-1c-2.9-1.3-5.4-3.2-7.5-5.8
			c-0.8-0.1-1.5-0.1-2.3-0.2c-1,0.6-1.5,1.5-1.5,2.8c0.1,2.2,1.2,4.1,3.3,5.5c-2.8-1.1-5.1-0.8-6.9,0.7c0,0.2,0,0.3,0,0.4
			c0,0.4,0,0.8,0,1.1c0,0.2,0,0.3,0,0.4c0.2,0.3,0.5,0.5,0.8,0.7c1.4,1.1,2.3,1.8,2.6,2.3c-0.8,0.4-1.5,0.8-2.2,1.3
			c-0.6,0.4-0.9,1-0.7,1.8c2.5,1.4,5.1,1.6,7.9,0.7c0,0.1-0.1,0.2-0.1,0.4c-0.3,0.4-0.4,0.9-0.4,1.5c0,0.1,0,0.2,0,0.3
			c0,0.2,0,0.3,0,0.4c0.2,0.3,0.3,0.5,0.4,0.8c0,0.1,0.1,0.2,0.1,0.3c0.1,0.2,0.2,0.2,0.4,0.3c0.6,0.1,1.2,0.2,1.8,0.2
			c0.5-0.2,0.9-0.6,1.3-0.9c1-0.9,1.8-1.1,2.5-0.8c0.1,0.2,0.3,0.4,0.5,0.7c0.7,0.7,1.5,0.8,2.4,0.5c0.3,5.4,3.1,9.7,8.4,12.8
			c2.6,1.5,5.3,2.8,8,3.7c-0.1,0.1-0.2,0.2-0.2,0.3c0.1-0.1,0.2-0.1,0.4-0.1c0.1,0,0.1-0.1,0.2-0.1c0.3,0,0.6,0,0.9,0
			c0.8,0.5,1.8,0.8,2.9,1c0.7,0.3,1.3,0.6,2,0.9c1.1,0.9,2.1,2,3,3.4c-0.1,0.1-0.2,0.2-0.3,0.4c-0.6,0.9-1,1.9-1.2,3
			c0,0.9,0.4,1.7,1.2,2.2c6.2-0.5,12.2-0.9,18-1.1c0,0.1,0.2,0.2,0.3,0.4c0.5,0.8,0.8,1.7,1.1,2.6c0.5,0.6,1.1,1.1,1.7,1.5
			c3.3,0.7,5.6,0.1,7-1.9c-1.3,0-2.6-0.3-3.8-0.7c0-0.3,0-0.5-0.1-0.8c-0.2-1.3,0-2.5,0.6-3.7c-0.1-0.2-0.2-0.3-0.3-0.4
			c-0.2-0.4-0.4-0.9-0.4-1.5c-0.6-0.8-1.3-1.5-2-2.3c-3,0-4.8-0.7-5.3-2.1c0.1-0.1,0.2-0.2,0.4-0.3c5.7-2.1,9.7-5.7,12.1-10.8
			c-0.1,0-0.1,0-0.1,0c0.3-0.8,0.7-1.6,1-2.4c0.7-2.3,1.3-4.5,1.5-6.6c0.5,0.4,1.1,0.8,1.8,0.9c0.2-0.1,0.3-0.2,0.5-0.3
			c0.4-0.3,0.8-0.7,1.3-1c1.3,1,2.5,1,3.6-0.1c0.3-0.5,0.5-1,0.4-1.5c0-0.5,0-1,0-1.5c1.4-0.1,3.2-0.1,5.3-0.3
			c0.2-0.4,0.2-0.9,0.2-1.5c-0.1-0.3-0.1-0.7-0.3-1.1c-0.2-0.2-0.5-0.5-0.7-0.8c-0.2-0.2-0.4-0.4-0.5-0.7c3-0.3,4.8-1.8,5.3-4.5
			c0-0.1,0-0.2-0.1-0.3c-0.5-0.8-1.3-1.5-2.2-1.9c-0.7-0.1-1.4,0-2.2,0.1c0.3-0.3,0.6-0.5,0.9-0.7
			C90.9,39.986,91.9,36.986,90.7,33.386z M81.1,31.586c-0.1,0.1-0.2,0.2-0.2,0.4c-0.2,0.2-0.3,0.4-0.5,0.6c-0.6,0.7-1.2,1.3-1.8,2
			c-1.6,0.6-3.2,0.8-4.9,0.3c0-0.2,0-0.5,0-0.7c0-0.3,0-0.5,0-0.8c0-0.3,0-0.7,0-1c0.2,0.4,0.9,0.6,2.2,0.7
			c-0.1-0.2-0.2-0.3-0.3-0.4c-0.3-0.6-0.7-1.1-1.2-1.5c-0.1,0-0.2,0-0.2,0.1c-0.3,0.2-0.4,0.4-0.5,0.6c0-0.1,0-0.2,0-0.3
			c-3.2-3.5-6.9-4.5-11.1-3.3c0.2-0.9,0.3-1.7,0.3-2.6c4-0.5,7.7,0.4,11.1,2.7c0.2,0.4,0.5,0.8,0.7,1.3c0.4-0.1,0.8-0.1,1.1,0
			c0.5,0.5,1.1,0.9,1.8,0.9c0-0.2,0-0.3,0-0.4c-0.1-0.1-0.1-0.2-0.2-0.4C78.9,30.086,80.2,30.586,81.1,31.586z M81.4,44.386
			c1.8,1,4,1,6.6,0.2c0.2,0,0.4,0.1,0.6,0.1c0.7,0.2,1,0.6,0.9,1.1c-2.7,2.4-5.9,3.4-9.5,3c2.1,0.7,4.1,1.8,5.9,3.4
			c-2.6-0.1-5.4-0.4-8.4-1c1.6,1.3,2.5,2.9,2.6,4.9c-0.3,0-0.6-0.1-0.8-0.3c-1.1-0.7-1.7-1.7-2.1-3c-0.6-0.6-1.2-0.6-1.8,0
			c0,0.5,0.1,0.9,0.2,1.2c0.5,1.2,0.6,2.1,0.3,2.8c-0.1,0-0.2-0.1-0.2-0.1c-0.5-0.6-0.9-0.9-1.3-1c0.1-2.5-0.3-4.8-1.1-7.1
			c1.9-0.9,2.8-2.6,2.9-5.2c5.1-2.1,9.7-5.1,13.7-8.7C89.5,39.686,86.7,42.986,81.4,44.386z M59.5,6.686c0.5,0.2,0.9,0.6,1.2,1
			c1.3,1.7,1.9,3.7,1.7,6c-1.5,0-2.8,0-4.1,0c0.4-0.2,0.8-0.5,1.2-0.8c-0.1-0.1-0.2-0.2-0.3-0.2c-0.5-0.3-1-0.5-1.6-0.6
			c-0.2,0.1-0.6,0.3-1,0.4c-0.7,0.1-1.2,0.3-1.6,0.7c-0.1,0-0.1,0-0.2,0c-0.1,0.2-0.3,0.3-0.5,0.4c-0.1,0-0.2,0-0.3,0
			c0,0,0.1,0.1,0.2,0.1c-3.7,2.6-5.7,6.1-6.2,10.5c0,0.1,0,0.2,0.1,0.3c-0.5-0.3-1-0.4-1.5-0.5c0.2-0.6,0.3-1.2,0.5-1.9
			c0.9-4.4,3.2-7.6,6.8-9.6c0.3,0,0.5-0.1,0.8-0.2c0.3,0.1,0.5,0,0.8-0.2c1.9-0.6,2.6-1.5,2.1-2.5c-0.2,0.2-0.5,0.3-1,0.3l0,0
			C57.3,8.686,58.3,7.586,59.5,6.686z M38.9,7.286c0.1,0.4,0.3,0.7,0.4,1c-1.9,0.6-3.9,1-5.9,1.3C34.4,7.986,36.2,7.286,38.9,7.286z
			 M40.9,7.886c-0.3-1-0.8-1.8-1.5-2.5c-0.8,0-1.5,0-2.3-0.1c-0.2,0.1-0.4,0.2-0.8,0.3c-2.7,1-4.4,2.4-5.1,4.3
			c-3.3,0.4-6.7,0.5-10.1,0.2c0.1-0.2,0.2-0.3,0.3-0.4c5.8-4.8,12.7-7.4,20.7-7.6c0.1-0.1,0.1-0.1,0.1-0.1c3.4-0.2,6.5,0.2,9.4,1.1
			C48.1,5.086,44.5,6.686,40.9,7.886z M39.7,12.986c0.2,0.4,0.5,0.8,0.8,1.2c2.6,2.9,4.3,6.1,5,9.6c-0.5-0.1-1-0.1-1.6-0.1
			c-0.2-4.3-2.4-7.5-6.5-9.5l0,0c-0.1-0.1-0.2-0.2-0.2-0.2c-0.1,0-0.1,0-0.2-0.1c-0.7-0.5-1.5-0.8-2.4-1.1l-0.1,0.1
			c0.3,0.3,0.6,0.6,1,0.9c-0.2,0.1-0.2,0.3-0.2,0.4c0.1,0.1,0.1,0.2,0.1,0.2c-0.9-0.2-1.9-0.3-2.9-0.5c-0.1-0.7,0-1.4,0.1-2
			c1.3-0.1,2.7-0.3,4.1-0.5c0.7-0.1,1.3-0.2,2-0.3C38.8,11.686,39.2,12.386,39.7,12.986z M39.7,11.386c-0.2-0.2-0.4-0.3-0.6-0.4
			c0.3-0.1,0.5-0.1,0.8-0.2C39.8,10.986,39.7,11.186,39.7,11.386z M55.9,25.886c-0.1-0.1-0.2-0.2-0.3-0.2c-0.7-0.3-1.3-0.5-2-0.6
			c-0.1,0-0.3,0.1-0.5,0.1c-1.6,0.1-2.8,0.7-3.4,1.9c0,0,0,0-0.1,0c0,0-0.1,0-0.2,0.1c-0.1-0.4-0.1-0.8-0.1-1.2c0.1,0,0.1,0,0.1-0.1
			c-0.1,0-0.1,0-0.1,0c0-0.1,0-0.2,0-0.3c3.3-2.7,7.2-4.1,11.7-4.3c0.1,0.8,0.2,1.5,0.3,2.3c0.2,3-0.4,5.7-1.8,8.2
			c-0.4,0.3-0.8,0.5-1.1,0.8c-0.2,0.1-0.3,0.2-0.4,0.4c-0.8,0.1-1.6,0.3-2.4,0.7c-0.3-0.1-0.6-0.2-0.9-0.4c-2.1-0.9-3.9-2.3-5.3-4.1
			c-0.1,0-0.1,0-0.1,0c0-0.5,0-0.9,0-1.4c0.8,0.2,1.6,0.3,2.3,0.4c0.6,0.5,1.2,1,1.8,1.4c0.8,0.5,1.5,0.5,2.1-0.2
			c0.1-0.6-0.3-1-1.2-1.1c-0.8-0.1-1.4-0.5-1.9-1.1c-0.5,0-0.9,0-1.3-0.1C52.7,26.486,54.3,26.086,55.9,25.886z M49.9,31.586
			c-0.1-0.1-0.1-0.1-0.2-0.2v-0.1c1.5,2.3,3.9,3.8,7.3,4.4c0.1-0.1,0.2-0.2,0.3-0.2c0.2-0.2,0.4-0.3,0.5-0.4
			c0.6,0.4,1.1,0.7,1.6,1.1c-0.3-0.1-0.5-0.1-0.8-0.1c3,1.7,6,4,8.9,6.9c4.3,4.3,6.1,9.2,5.3,14.8c-0.7,5.4-3.7,10.3-8.8,14.7
			c0.1,0.1,0.3,0.2,0.5,0.3c-1.6,1.1-3.4,2-5.3,2.6c-0.6,0.7-1.3,1.3-2,1.9c0,0.3,0,0.5,0,0.8c-0.2,0.8,0,1.6,0.4,2.2
			c1.8,0.7,3.8,1.2,5.9,1.4c0.8,0.6,1.5,1.4,1.9,2.2c0,0.2-0.1,0.3-0.1,0.4c-0.3,0.6-0.4,1.2-0.4,1.9c0,0.2,0.1,0.5,0.2,0.7
			c0.5,1.5,0.5,2.3-0.4,2.5c-0.9-1.6-2.1-3.1-3.3-4.5c-6.3,0.4-12.4,0.6-18.2,0.9c0-0.5,0.1-1.1,0.3-1.6c0.3-0.6,0.3-1.1,0.2-1.6
			c-1.4-4.7-4.2-7.1-8.5-7.2c-0.5-0.1-0.9-0.2-1.3-0.2c-0.2,0-0.3,0-0.4,0c-5.9-2.1-10.7-5.4-14.2-10.1c-0.6-1.7-0.8-3.5-0.7-5.4
			c0.1-0.5,0.1-1.1,0.2-1.6c0,0,0-0.1,0.1-0.1c0.5-0.8,0.5-1.5,0.2-2.1c1.4-8,5-14.3,10.9-19.1h0.1c0,0,0,0-0.1,0
			c0.1-0.1,0.2-0.2,0.2-0.2c1.3-0.7,2.5-1.3,3.8-1.9c1,0.9,2.3,1.4,4,1.5c0.1-0.1,0.2-0.1,0.3-0.2c3-0.9,4.9-2.4,5.7-4.3
			C46,31.286,48,31.186,49.9,31.586z M43.9,26.286c0-0.1,0-0.2,0-0.4c0.3-1,1.1-1.1,2.4-0.3c0.5,0.3,1,0.6,1.6,0.8
			c0,0.4,0,0.8,0,1.2c0.1,0.5,0,1-0.3,1.5c-0.1,0.1-0.2,0.2-0.2,0.3v0.1c-1-0.1-1.9-0.2-2.9-0.2c-0.1,0-0.4-0.1-0.6-0.2v-0.2
			c0-0.3,0-0.7,0-1.1C43.9,27.286,43.9,26.786,43.9,26.286z M42.5,24.886c-0.2,0.5-0.3,1.2-0.4,1.8c-1.7-1.5-3.9-2-6.5-1.6l-0.3,0.1
			c1.8,0.6,3.6,1.2,5.5,1.8c-0.3-0.1-0.7,0-1.2,0.1c-0.7,0.3-1.4,0.8-2.1,1.3c-0.1,0.2-0.2,0.3-0.3,0.5l0.1,0.2
			c1.7-0.7,3.4-1,4.9-0.8c0.1,0.4,0.1,0.8,0.2,1.1c-0.1,0-0.2,0-0.3,0c-0.1,0.1-0.2,0.1-0.2,0.2c0.2,0,0.4,0.1,0.6,0.2
			c0.1,0.4,0.2,0.8,0.2,1.1c0,0.2,0,0.3,0,0.4c-1.7,1.4-3.7,2.3-5.8,2.9c-1-0.5-1.9-1.1-2.7-1.9c-0.1,0-0.2,0-0.3,0
			c-0.1-0.1-0.2-0.1-0.3-0.2c-0.1,0-0.2-0.1-0.4-0.3c-1.1-1.9-1.6-4-1.5-6.4c0-1.4,0.4-2.8,0.9-4.1c0.1-0.1,0.1-0.2,0.1-0.2
			c0.8-0.1,1.5-0.2,2.3-0.3c1.4,0.7,2.7,1.5,4,2.5C40.3,24.286,41.5,24.886,42.5,24.886z M71.3,31.186c-0.8-0.1-1.5-0.1-2.2-0.1l0,0
			c-0.2,0.1-0.3,0.2-0.5,0.3c-0.2,0.2-0.5,0.4-0.6,0.7c-0.2,0.1-0.3,0.2-0.4,0.3c0,0.7,0,1.3,0,1.9c0,0.1,0,0.1,0,0.1
			c-1.8-1.4-3.8-2.5-6.1-3c0-0.1,0-0.1,0-0.1c0.5-0.9,0.8-1.9,1.1-2.8C65.9,28.186,68.8,29.086,71.3,31.186z M60.1,33.386
			c0.5-0.5,0.9-1,1.2-1.6c2,1.3,4.1,2.4,6.4,3.2c0.1,0.2,0.1,0.3,0.2,0.4c0,0.2,0.1,0.3,0.2,0.4c-0.3,0.1-0.6,0.1-1,0
			c-0.6-0.1-1.3-0.1-2-0.2c-0.3,0-0.5,0-0.7,0.1c-0.4,0.2-0.7,0.6-0.9,0.9c-1.1-1.1-2.4-2.1-3.7-3
			C59.9,33.586,60,33.486,60.1,33.386z M36.6,14.686h-0.1l0,0C36.6,14.686,36.6,14.686,36.6,14.686z M17.6,29.386
			c-0.4-1.4-0.5-2.9-0.4-4.6c0.6,0.2,1.2,0.4,1.7,0.7c0.3,0.2,0.7,0.4,1.1,0.6c-0.2,0.2-0.2,0.5-0.1,0.8c0.3,0,0.7-0.1,0.9-0.2
			s0.4-0.2,0.5-0.3c0.4,0.1,0.7,0.2,1.1,0.2c2.4-1.4,5-2,7.7-1.8c0,0.5-0.1,0.9-0.1,1.4c0,0.4,0,0.7,0.1,1c-0.1,0-0.2-0.1-0.2-0.1
			c-0.8-0.1-1.5-0.2-2.1-0.4c-0.4,0-0.8-0.1-1.2-0.3c-0.7,0.2-1.5,0.5-2.1,0.9c-0.1-0.1-0.2-0.2-0.4-0.2s-0.4,0.1-0.5,0.3
			c-1,0.7-1.6,1.7-2,2.7c0.6,0.2,1.1,0.2,1.7,0c0,0.1,0,0.2,0,0.3c-0.1,0-0.1,0.2-0.1,0.2h0.1c-0.1,0.4-0.2,0.8-0.2,1.1
			c-0.1,0.5-0.1,1-0.1,1.5c-0.4,0.1-0.8,0.2-1.2,0.1C19.6,32.786,18.2,31.486,17.6,29.386z M4.7,41.886c0.2-0.3,0.5-0.7,0.6-1
			c0.1-0.2,0.1-0.3,0.3-0.5c0.7-0.2,1.2-0.1,1.6,0.5c2.3,2.9,5.1,4.9,8.3,6.2c-0.1,0.5,0,1.1,0.1,1.6c0.5,1.7,1.4,2.6,3,2.8
			c-0.2,0.5-0.3,1-0.5,1.5c-0.3,1.2-0.5,2.3-0.6,3.5c-0.2,0.2-0.3,0.5-0.3,0.7c-0.2,0.6-0.4,1-0.8,1.4c-0.6-0.4-0.9-0.9-0.9-1.6
			c0.1-1.1-0.4-1.6-1.4-1.7c-0.6,0.4-0.9,0.9-1.3,1.5c-0.7,1.5-1.7,2.2-2.9,2.2c-0.2-0.9,0-1.7,0.5-2.5c0.6-0.9,0.9-1.8,1-2.8
			c-0.4-0.9-0.9-1-1.6-0.2c-0.3,0.2-0.5,0.4-0.7,0.7c-2.8,1.3-5.1,1.7-7,1.1c0.4-0.2,0.9-0.5,1.3-0.6c0.9-0.4,1.6-0.8,2.3-1.4
			c0.8,0.1,1.6,0.1,2.4-0.1c0.5-0.2,0.7-0.5,0.8-1c-3-0.2-5.5-1.3-7.5-3.4c3.5,0,6.6,0.1,9.3,0.3c-0.1-0.9-0.6-1.5-1.5-2.1
			C7.1,45.686,5.6,43.986,4.7,41.886z M30.2,29.086c0.5,1.8,1.4,3.1,2.7,3.9c-0.7,0.3-1.3,0.7-2,1.2c-0.8,0.5-1.5,1-2.2,1.6
			c-0.8-0.6-1.7-1-2.6-1.2c0-0.1,0-0.1,0-0.2c0.3-0.1,0.5-0.3,0.7-0.5c1.2-1.3,2.8-2,4.6-2.2c-0.1-0.1-0.2-0.2-0.2-0.2
			c-0.8-0.2-1.7-0.3-2.6-0.3c-0.9,0.3-1.7,0.9-2.5,1.6c0-0.6,0-1.1,0-1.6c0-0.1-0.1-0.2-0.2-0.3c-0.4-0.2-0.7-0.4-1.1-0.7
			c0-0.4,0-0.6-0.1-1c0.2-0.1,0.3-0.2,0.4-0.3c1.2-0.8,2.5-1,3.9-0.6c0,0.1,0.1,0.1,0.1,0.1c0.1,0.2,0.1,0.2,0.3,0.3
			c0.1,0.1,0.2,0.2,0.3,0.4C29.9,29.086,30.1,29.086,30.2,29.086z"/>
		<path style="fill:#BE3689;" d="M45.9,42.186c0,0-0.1,0.1-0.2,0.1c-2.1-1.9-4.3-2.6-6.5-2.1c-0.4-0.3-1.1-0.5-2-0.6
			c0-0.2,0-0.3,0-0.4c0.2-0.7,0.1-1.2-0.3-1.5c-0.4-0.1-0.6,0-0.7,0.3c-0.2,0.9-0.1,1.8,0.3,2.6c0.2,0.1,0.4,0.3,0.6,0.4
			c-0.3,0.2-0.6,0.4-1,0.7c-0.6-0.3-1.4-0.5-2-0.9c0-0.1,0-0.2,0-0.4c0.1-0.4-0.1-0.7-0.4-1.1c-0.1,0.1-0.2,0.1-0.3,0.2
			c-0.4,0.8-0.4,1.5,0.1,2.2c0.4,0.4,0.9,0.8,1.4,0.9c-0.2,0.1-0.2,0.2-0.4,0.4c-1,0-1.9-0.5-2.6-1.3c-0.5-0.2-0.7,0-0.7,0.4
			c0,0.9,0.5,1.5,1.5,1.8c0.3,0.1,0.5,0.1,0.7,0.2c-4.5,4.7-4.4,9.6,0.3,14.5c4.8,1.4,8.9,0.5,12.5-2.4c2.6,2.3,5.6,2.8,9.1,1.4
			c5.4-2,7.2-5.7,5.4-10.9c-0.1-0.1-0.2-0.3-0.3-0.4c-0.8-1.5-1.8-2.8-3-3.7c0.2-0.1,0.4-0.2,0.6-0.3c0.1-0.1,0.2-0.2,0.4-0.4
			c0.9-0.8,1-1.7,0.3-2.6l0,0c-0.7,1.1-1.6,1.8-2.7,2.2c-0.4-0.2-0.8-0.4-1.1-0.6c0.4-0.4,0.8-0.9,1.2-1.3c0-0.2,0-0.3,0-0.4
			c0.1-0.7,0-1.3-0.4-1.9h-0.2c-0.2,1.8-1.1,2.8-2.4,3c-0.1,0-0.1,0-0.1,0c0-0.1,0-0.2,0.1-0.2c0.5-1.2,0.6-2.3,0.3-3.4
			c-0.9,0.5-1.4,1.6-1.8,3.2c0,0,0,0,0,0.1c-1-0.2-1.9-0.2-3-0.2c-0.2,0.2-0.6,0.3-1,0.5C46.8,40.686,46.3,41.286,45.9,42.186z
			 M41.5,41.286c0.2,0.2,0.4,0.3,0.6,0.4c1.7,1.3,3.2,2.4,4.5,3.2c0.5-0.4,0.8-0.9,0.9-1.4c0.2-0.6,0.4-1.1,0.7-1.6
			c4.9-0.6,8.5,1.2,10.9,5.7c0.2,0.6,0.3,1.3,0.4,1.9c0.5,3-0.7,5.2-3.6,6.7c-3.9,1.3-7.1,0.5-9.7-2.3c-0.1,0-0.1,0-0.2,0
			c-6.8,5.8-11.8,5.1-14.8-2c0-0.1,0-0.2,0-0.3c0.8-4.8,3.6-8.2,8.4-10.2C40.2,41.386,40.8,41.386,41.5,41.286z"/>
		<path style="fill:#BE3689;" d="M50.9,49.686c-0.1-0.1-0.2-0.2-0.3-0.4c-0.4-0.7-1.1-1-2-0.9c-0.3,0.2-0.6,0.4-0.9,0.9
			c-0.2,0.3-0.3,0.6-0.2,1c0.6,1.2,1.6,1.6,3,1.1c0.2-0.3,0.3-0.6,0.4-1C51,50.186,50.9,49.886,50.9,49.686z"/>
		<path style="fill:#BE3689;" d="M44.6,51.786c0.2-0.3,0.2-0.7,0.2-1.1c-0.1-0.3-0.1-0.5-0.1-0.8c-0.1-0.1-0.2-0.2-0.4-0.2
			c-0.5-0.2-1.1-0.4-1.7-0.5c-0.3,0.1-0.6,0.4-0.9,0.8c-0.1,0.2-0.2,0.6-0.2,0.9C42.1,52.386,43.1,52.686,44.6,51.786z"/>
		<path style="fill:#BE3689;" d="M58.9,66.186c0.1,0.1,0.2,0.2,0.3,0.4c1.1,0.2,1.6,0,1.4-0.8c-0.1-0.1-0.2-0.2-0.3-0.4
			c-0.5-0.5-1-0.8-1.7-1c-1.6-0.5-3-0.3-4.1,0.7c-0.9,0.8-1.8,1.6-2.8,2.3c-1.4,1.2-2.7,2.1-3.8,2.9c1,0.5,1.9,0.3,2.8-0.5
			c1.5-1.5,3.1-2.8,4.8-4c1,0,2,0,3,0C58.6,65.986,58.7,66.086,58.9,66.186z"/>
		<path style="fill:#BE3689;" d="M52.1,70.086c0.5,0.1,1,0.3,1.5,0.5c0.1-0.1,0.3-0.2,0.4-0.2c1.8-0.7,2.5-1.7,2.2-3.1
			c-0.1,0-0.2,0.1-0.3,0.1C54.8,68.386,53.5,69.286,52.1,70.086z"/>
	</g>
</g>
</svg>
