<?xml version="1.0" encoding="iso-8859-1"?>
<!-- Generator: Adobe Illustrator 12.0.1, SVG Export Plug-In . SVG Version: 6.00 Build 51448)  -->
<!DOCTYPE svg PUBLIC "-//W3C//DTD SVG 1.1//EN" "http://www.w3.org/Graphics/SVG/1.1/DTD/svg11.dtd" [
	<!ENTITY ns_svg "http://www.w3.org/2000/svg">
	<!ENTITY ns_xlink "http://www.w3.org/1999/xlink">
]>
<svg  version="1.1" id="Layer_1" xmlns="&ns_svg;" xmlns:xlink="&ns_xlink;" width="86.3" height="89.604"
	 viewBox="0 0 86.3 89.604" style="overflow:visible;enable-background:new 0 0 86.3 89.604;" xml:space="preserve">
<g>
	<g>
		<path style="fill:#BE3689;" d="M78.4,88.464c2.3-1.3,3.8-2.4,4.4-3.4c1.1-0.3,2.3-0.8,3.5-1.2c0-0.1-1.5-1.5-4.5-4.4
			c-3-2.8-8.8-4.6-17.3-5.3c-0.8,0.1-1.7,0.3-2.5,0.5c0-0.2,0-0.4,0-0.6s0-0.3-0.1-0.4c-0.1-0.4-0.4-0.8-0.8-1.1
			c3.2-2.3,5.6-5.5,7.1-9.8c3.4-10,1.5-18.2-5.8-24.5c0.1-0.1,0.1-0.2,0.2-0.2c-0.1-0.3-0.1-0.5-0.2-0.7c-0.2-0.4-0.4-0.8-0.6-1.2
			c0-0.4,0-0.8,0-1.1c0-0.8,0-1.5,0-2.3c1.6-0.8,3.4-1.3,5.3-1.4c0-0.2-0.1-0.4-0.1-0.6c-0.5-1.2-1-2.6-1.4-3.9
			c0.1-0.2,0.2-0.5,0.2-0.7c0.2-0.5,0.3-1,0.6-1.5c0.1-0.1,0.1-0.1,0.3-0.1c0.1,0,0.2,0,0.3,0c1.5,1.7,3.2,3.1,5,4.1
			c0.4-0.2,0.7-0.5,1-0.8c2.6-3.1,3.2-6.5,1.6-10.3c-0.1-0.2-0.2-0.2-0.4-0.3c-0.4-0.1-0.8-0.2-1.2-0.2c-1.9,0.3-3.5,1.2-5,2.7
			c-4-0.6-7.2-0.1-10,1.6c-0.2-1-0.5-2-0.9-3c-0.1-0.1-0.2-0.1-0.4-0.2c-0.9-0.1-1.8-0.2-2.7-0.3c-4.2,0.5-7.4,2.5-9.3,5.9
			c-0.1,0-0.1-0.1-0.1-0.1c0-0.5,0.2-0.8,0.5-1.1c0-0.4,0-0.8,0-1.2c0,0,0,0,0-0.1c0,0.1-0.1,0.1-0.1,0.1c0.6-3.8,1.6-7.4,2.8-10.8
			c0.5-0.5,0.9-1.1,1.2-1.6c0.1,0,0.2,0.1,0.4,0.2c0.2,0.1,0.4,0.1,0.6,0.1c2.1,0.2,3.9,0.1,5.6-0.2c0.1-0.2,0.2-0.3,0.2-0.4
			c-0.1-5.5-3-8.4-8.8-8.5c-1.4,0-2.2,0.8-2.4,2.3c-0.1,1.6,0.1,3,0.7,4.1c-1.5,1.9-2.4,4-3,6.2c-0.1-1.1-0.4-2.2-0.6-3.3
			c0,0,0,0,0.1,0.1c0-0.2,0-0.3-0.1-0.4c-0.1-0.8-0.4-1.5-0.8-2.2c0,0,0,0,0-0.1c0.3-0.7,0.6-1.5,0.8-2.3c0.2-0.6,0.4-1.2,0.7-1.8
			c0-0.1,0-0.2-0.1-0.3c-0.2-0.4-0.4-0.8-0.5-1.2c-0.1-0.1-0.1-0.2-0.2-0.4c-0.2,0-0.4-0.1-0.6-0.3c-0.9-0.6-1.9-0.7-3-0.4v0.1
			c-5.2,1.1-8.1,4-8.7,8.8c1.8,1.7,4.1,2.5,6.7,2.2c0.4,0.9,0.8,1.7,1.2,2.5c1,1.7,1.6,3.6,1.7,5.8c-0.5,0.5-0.7,1.1-0.6,1.8
			c0,0.3-0.1,0.5-0.2,0.8c-2.8-2.9-6.4-4.3-10.6-4.3c-0.6,0.8-1.1,1.7-1.4,2.7c-1.5-1.4-3.3-2.1-5.6-2l0,0c-1.3-2.3-3.2-4-5.5-5.2
			c-0.1,0.1-0.2,0.3-0.4,0.4c-0.7,0.6-1.5,1.2-2.2,1.6c-0.5,0.9-0.8,1.8-1,2.7c-0.2,2.2,0.2,4.4,1.1,6.3c0.1,0.2,0.2,0.3,0.4,0.4
			c0.2,0.3,0.5,0.5,0.7,0.8c1.9-0.5,3.5-1.3,4.7-2.5c0.2,0.7,0.5,1.3,0.7,2c-0.8,1.5-1.8,2.8-3.1,4.1c2.2,0.6,3.9,1.8,5,3.6
			c0,0,0-0.1,0-0.2s0.1-0.1,0.2-0.2c0.1,0.3,0.1,0.5,0.1,0.8c0.1,0.1,0.1,0.2,0.1,0.3c0,0,0,0.1,0.1,0.2c0,0.1,0,0.2,0,0.4
			c-0.1,0.2-0.1,0.5-0.1,0.7c-0.2,0.1-0.3,0.1-0.5,0.2c0,0,0,0.1,0,0.2c0.1,0,0.2,0,0.4,0c-0.3,1.1-0.9,2.1-1.8,3
			c0.3,0.1,0.7,0.2,1.1,0.3c-3.3,3.6-5.6,7.9-7,13c-2.3,9,0.2,15.7,7.6,20.1c0.4,0.2,0.8,0.4,1.2,0.7c-0.1,0-0.2,0-0.3,0.1
			c-0.3,0.2-0.6,0.4-0.9,0.8c0,0-0.1,0.1-0.1,0.2c0,0.3,0,0.5,0,0.8c0,0.1,0.1,0.2,0.1,0.3c0.1,0,0.2,0.2,0.3,0.2
			c-2.2-0.6-4.4-0.8-6.9-0.6c-1.3,0.4-2.6,0.7-3.9,1.1c-1.2,0.2-2.9,1.3-5,3.3c-2.2,2-3.5,3.4-4,4.1c-0.7,0.8-0.9,1.8-0.5,2.8
			c0.1,0.3,0.2,0.5,0.3,0.8c0.5,0.1,1.1,0.2,1.7,0.2c-1.4,0.3-2.5,1-3.1,2.2c0.1,0.1,0.2,0.2,0.2,0.1c2.6-0.2,4.1-0.9,4.3-2.1
			c1.1,0.2,2.2,0.3,3.4,0.4c-1.4,0.4-2.6,1-3.8,1.9c0.1,0.2,0.1,0.2,0.1,0.2c2.7-0.4,4.6-1,5.7-2c1.2,0.1,2.4,0.1,3.6,0.2
			c-1.2,0.4-2.4,1-3.5,1.8c0.4,0.6,1.1,0.7,1.9,0.3c0,0,0.2-0.1,0.3-0.1c2-0.6,3.5-1.2,4.5-2c1.3,0,2.6,0,3.9,0c-1,0.5-2,1-3,1.6
			c0.3,0.2,0.6,0.2,0.8,0.2c1.9-0.6,3.8-1.3,5.6-2c1.8-0.2,3.5-0.4,5.3-0.6c-1.7,0.8-3.2,1.7-4.8,2.6c0.1,0.1,0.2,0.2,0.3,0.2
			c0.4,0.2,0.8,0.3,1.2,0.3c0.1-0.2,0.3-0.3,0.4-0.3c2.7-1.3,5.5-2.5,8.3-3.7c0.8-0.1,1.7-0.3,2.6-0.5c0-0.2,0-0.4-0.1-0.6
			c1.9-0.8,3.7-1.6,5.6-2.4c-0.2-0.2-0.4-0.3-0.6-0.3l0,0c1.5-0.8,3-1.4,4.4-1.9c0.4-0.1,0.8-0.2,1.1-0.3c-0.3,0.4-0.6,0.9-0.8,1.5
			c-5.4,1.8-9.8,4.5-13.1,7.8c0.2,0.1,0.4,0.1,0.6,0c4.8-2.4,8.9-4.8,12.3-7.4c-0.1,0.5-0.3,1-0.3,1.6c0.6,0.4,1.2,0.8,1.9,1.1
			c-3.5,1-6.1,2.7-7.9,5.1c0.2,0.1,0.3,0.1,0.5,0c2.7-1.7,5.6-3.2,8.7-4.5c0.9,0.3,1.8,0.6,2.8,0.8c-1.9,1-3.6,2.1-5.3,3.3l0.1,0.2
			c2.4-0.8,4.7-1.9,6.8-3.3c1.3,0.5,2.6,0.8,4,1c-0.7,0.3-1.5,0.6-2.4,0.9c0,0.1-0.1,0.1-0.1,0.2c-0.8,0.4-1,0.9-0.7,1.5
			c0.8,0.2,1.6,0,2.4-0.4c1.7-0.8,2.7-1.5,3.1-2.1c0.7,0.1,1.4,0.1,2.1,0c0.7,0.1,1.5,0.2,2.3,0.2c-0.8,0.5-1.6,1.1-2.2,1.7v0.3
			c2.4-0.3,3.7-1,4-1.9c1.5,0,3,0,4.5-0.1c-0.5,0.4-1,0.8-1.2,1.3c0.2,0.1,0.4,0.2,0.7,0.1c1.7-0.3,2.9-0.9,3.8-1.7
			c1.4-0.2,2.9-0.4,4.4-0.7c-1.1,0.6-2,1.5-2.7,2.5C76.7,89.064,77.4,88.964,78.4,88.464z M46.5,2.264c0.1-0.1,0.2-0.2,0.3-0.2
			c3.5,0,5.8,1.5,7,4.5l0.1,0.2c-1.4,0.2-2.8,0.4-4.1,0.6c0.1-0.5,0.3-1,0.3-1.6c-0.1,0-0.2,0.1-0.2,0.1c-0.4,0.4-0.7,0.8-1,1.2
			c-0.1,0-0.2,0.1-0.3,0.2c-3.6,4.5-4.9,9.3-4.2,14.4c-0.4,0.4-0.9,0.7-1.4,0.9c0,0.1,0,0.1,0.1,0.2c-0.1-0.1-0.2-0.1-0.3-0.1
			c-0.4,0.1-0.8,0.1-1.1,0c0.2-0.4,0.4-0.9,0.5-1.5c0.3-1.6,0.4-3.1,0.4-4.7c0.9-2.8,1.8-5.4,2.7-7.9c0.1-0.1,0.2-0.2,0.3-0.3
			c1.5-1.1,2.3-2.4,2.5-4c-0.1,0-0.2,0.1-0.3,0.1c-0.6,0.6-1.1,1.2-1.5,1.7c0.1-0.4,0-0.9-0.1-1.5C46,3.664,46.1,2.964,46.5,2.264z
			 M38.8,4.664h-0.2c0.1,0.7,0.2,1.4,0.6,2.1c-0.1,0.3-0.1,0.6-0.1,0.9c0.5,0.7,0.9,1.4,1.1,2.2c1,4.1,1.3,8.3,0.7,12.7
			c-0.2-0.2-0.4-0.3-0.5-0.4c-0.1,0-0.2,0-0.3,0H40c0-0.1,0.1-0.4,0.2-0.6c0.8-3.8,0.3-7.1-1.6-9.9c-0.1-0.3-0.2-0.5-0.3-0.8
			c-0.6-1-1.3-1.8-2.2-2.6c-0.3,0-0.7-0.1-1.1-0.1l-0.2,0.1c0.3,0.4,0.6,0.7,0.9,1c-1.8,0.1-3.3-0.3-4.4-1.4c2-3.9,5-5.6,8.8-5.1
			c0.1,0.9-0.1,1.6-0.4,2.3c-0.1,0.1-0.1,0.2-0.1,0.2C39.3,5.064,39.1,4.864,38.8,4.664z M51.3,24.364c-0.1-0.1-0.2-0.2-0.3-0.2
			c-0.7-0.3-1.3-0.5-2-0.6c-0.1,0-0.3,0.1-0.5,0.1c-1.6,0.1-2.8,0.7-3.4,1.9c0,0,0,0-0.1,0c0,0-0.1,0-0.2,0.1
			c-0.1-0.4-0.1-0.8-0.1-1.2c0.1,0,0.1,0,0.1-0.1c-0.1,0-0.1,0-0.1,0c0-0.1,0-0.2,0-0.3c3.3-2.7,7.2-4.1,11.7-4.3
			c0.1,0.8,0.2,1.5,0.3,2.3c0.1,1.2,0,2.3-0.1,3.5c-0.1,0.1-0.1,0.2-0.1,0.4c-0.3,1.5-0.8,2.9-1.6,4.3c-0.4,0.3-0.8,0.5-1.1,0.8
			c-0.2,0.1-0.3,0.2-0.4,0.4c-0.8,0.1-1.6,0.3-2.4,0.7c-0.3-0.1-0.6-0.2-0.9-0.4c-2.1-0.9-3.9-2.3-5.3-4.1c-0.1,0-0.1,0-0.1,0
			c0-0.5,0-0.9,0-1.4c0.8,0.2,1.6,0.3,2.3,0.4c0.6,0.5,1.2,1,1.8,1.4c0.8,0.5,1.5,0.5,2.1-0.2c0.1-0.6-0.3-1-1.2-1.1
			c-0.8-0.1-1.4-0.5-1.9-1.1c-0.5,0-0.9,0-1.3-0.1C48.1,24.964,49.7,24.564,51.3,24.364z M45.3,30.064c-0.1-0.1-0.1-0.1-0.2-0.2
			v-0.1c1.5,2.3,3.9,3.8,7.3,4.4c0.1-0.1,0.2-0.2,0.3-0.2c0.2-0.2,0.4-0.3,0.5-0.4c0.6,0.4,1.1,0.7,1.6,1.1
			c-0.3-0.1-0.5-0.1-0.8-0.1c3,1.7,6,4,8.9,6.9c4.3,4.3,6.1,9.2,5.3,14.8c-0.7,5.5-3.8,10.5-9.1,14.9c-5.3,4.5-12.8,6-22.5,4.4
			c-2.5-0.4-4.9-0.9-7-1.7c-0.3-0.1-0.6-0.2-0.8-0.3s-0.3-0.1-0.3-0.1c-0.9-0.3-1.7-0.6-2.5-1c-0.1-0.1-0.2-0.1-0.3-0.1
			c-4.5-2.1-8.1-5-11-8.8c-0.6-1.7-0.8-3.5-0.7-5.4c0.8-9.8,4.6-17.4,11.4-22.9h0.1c0,0,0,0-0.1,0c0.1-0.1,0.2-0.2,0.2-0.2
			c1.3-0.7,2.5-1.3,3.8-1.9c1,0.9,2.2,1.4,4,1.5c0.1-0.1,0.2-0.1,0.3-0.2c3-0.9,4.9-2.4,5.7-4.3
			C41.4,29.764,43.4,29.664,45.3,30.064z M39.3,24.364c0.3-1,1.1-1.1,2.4-0.3c0.5,0.3,1,0.6,1.6,0.8c0,0.4,0,0.8,0,1.2
			c0.1,0.5,0,1-0.3,1.5c-0.1,0.1-0.2,0.2-0.2,0.3v0.1c-1-0.1-1.9-0.2-2.9-0.2c-0.1,0-0.4-0.1-0.6-0.2v-0.2c0-0.3,0-0.7,0-1.1
			c0-0.5,0-1,0-1.5C39.3,24.664,39.3,24.564,39.3,24.364z M34.4,21.764c1.3,1,2.5,1.6,3.5,1.6c-0.2,0.5-0.3,1.2-0.4,1.8
			c-1.7-1.5-3.9-2-6.5-1.6l-0.4,0.1c1.9,0.6,3.7,1.2,5.6,1.8c-0.3-0.1-0.7,0-1.2,0.1c-0.7,0.3-1.4,0.8-2.1,1.3
			c-0.1,0.2-0.2,0.3-0.3,0.5l0.1,0.2c1.7-0.7,3.4-1,4.9-0.8c0.1,0.4,0.1,0.8,0.2,1.1c-0.1,0-0.2,0-0.3,0c-0.1,0.1-0.2,0.1-0.2,0.2
			c0.2,0,0.4,0.1,0.6,0.2c0.1,0.4,0.2,0.8,0.2,1.1c0,0.2,0,0.3,0,0.4c-1.7,1.4-3.7,2.3-5.8,2.9c-1-0.5-1.9-1.1-2.7-1.9
			c-0.1,0-0.2,0-0.3,0c-0.1-0.1-0.2-0.1-0.3-0.2c-0.1,0-0.2-0.1-0.4-0.3c-1.1-1.9-1.6-4-1.5-6.4c0-1.4,0.4-2.8,0.9-4.1
			c0.1-0.1,0.1-0.2,0.1-0.2c0.8-0.1,1.5-0.2,2.3-0.3C31.8,19.964,33.1,20.764,34.4,21.764z M73.8,18.364c0,0.2,0.1,0.3,0.1,0.4
			c1,3.1,0.4,5.8-1.5,8.3c-0.9-0.3-1.7-0.8-2.5-1.5c-0.1-0.2-0.1-0.3-0.2-0.4c-0.4-0.9-1.1-1.6-1.9-2.3c-3,0.2-5.9,0.5-8.8,0.9
			c-0.1,0.1-0.3,0.1-0.5,0.2c0-0.4,0.1-0.8,0.2-1.2c-0.2,0-0.3,0.1-0.4,0.1c-0.1-0.3-0.1-0.8-0.2-1.2c2.9,0.3,6.7-0.1,11-1.1
			C70.4,19.264,71.9,18.564,73.8,18.364z M65.3,24.264c-1,1.7-1.1,3.5-0.4,5.4c-2-1.6-4.4-2.2-7.1-2.1c0-0.2,0.1-0.4,0.2-0.6
			c0.2-0.1,0.4-0.1,0.6-0.1c0,0,0,0,0-0.1c0,0,0-0.1,0-0.2c-0.2,0.1-0.4,0.1-0.6,0.2c0-0.2,0-0.5,0.1-0.7c0.3-0.3,0.6-0.7,0.9-1
			C61,24.264,63.2,24.064,65.3,24.264z M57.2,29.164c0.2-0.4,0.3-0.7,0.4-1.1c2.3,0.3,4.4,1,6.4,1.8c-0.8,0.2-1.8,0.6-3,1.2
			c-0.2,0.3-0.4,0.7-0.5,1.1c-0.1,0.9-0.2,1.8-0.2,2.7c-0.3-0.2-0.5-0.4-0.6-0.6c-0.4,0.2-0.7,0.5-0.8,0.8c-1.1-1.1-2.4-2.1-3.7-3
			c0.1,0,0.2-0.1,0.3-0.2c0.4-0.3,0.7-0.7,0.9-1.1C56.4,30.164,56.7,29.564,57.2,29.164z M59.9,35.964c0.1-0.1,0.2-0.2,0.4-0.2
			c0,0.2,0,0.5,0,0.7C60.2,36.364,60,36.164,59.9,35.964z M15.1,15.164c0.3,0.2,0.6,0.4,0.8,0.5c1.3,0.8,2.3,1.9,2.9,3.1
			c-0.2,0-0.5,0.1-0.8,0.1s-0.6,0.1-0.6,0.2h0.1c1.9,0,3.5,0.5,4.9,1.4c0.2-0.1,0.3-0.1,0.5-0.2c0.9,0.8,1.9,1.3,2.8,1.6
			c-0.1,0.3-0.1,0.7-0.1,0.9c-0.1,0-0.2-0.1-0.3-0.2c0,0.3,0,0.5,0,0.7c0,0,0.1,0,0.2,0c0,0.3,0,0.5,0,0.8c-1.1-1.3-2.5-2.1-4.2-2.5
			c-1,0-2,0-3.1-0.1c0,0,0,0-0.1,0c0,0.1,0,0.1,0,0.1H18c-0.1,0-0.2,0.1-0.2,0.2l0,0c-1.3,1-2.7,1.5-4.2,1.6
			c-0.2-0.7-0.5-1.4-0.7-2.2c-0.6-1.6-0.4-3.3,0.6-4.9C14.1,15.964,14.6,15.564,15.1,15.164z M25.4,29.764c-0.1,0.3-0.2,0.5-0.3,0.8
			c0.4-0.2,0.8-0.3,1.2-0.3c0.7,0.3,1.3,0.7,2,1.2c-0.7,0.4-1.3,0.8-2,1.2c-0.4,0.2-0.8,0.5-1.1,0.8c-0.7,0.7-1.3,1.3-2,1.6
			c-0.4,0.4-0.8,0.8-1.1,1.2c0.1-0.4,0.3-0.8,0.4-1.2c0,0,0.1,0,0.2,0c0-0.3-0.1-0.6-0.1-0.9c0-2.1-1.2-4-3.8-5.5
			C21.2,28.564,23.4,28.964,25.4,29.764z M24.8,26.664c0.2,0.2,0.4,0.5,0.5,0.9c0.2,0,0.3,0,0.3,0c0.2,0.7,0.5,1.5,0.9,2
			c-2.1-1.5-4.6-2.2-7.5-2c1.3-1.9,1.4-3.5,0.2-5c0.5,0.2,1.1,0.3,1.7,0.2c1.2,0.6,2.3,1.5,3.1,2.6c0.3,0.4,0.6,0.7,0.9,0.8
			C24.8,26.364,24.8,26.564,24.8,26.664z M2.1,84.264c0.3-0.8,0.7-1.5,1.4-2.1c7.4-7.5,15.7-8.7,25-3.6c0.8,0.7,1.7,1.1,2.8,1.5
			c0-0.2-0.1-0.3-0.2-0.3c-0.5-0.6-1-1.2-1.7-1.6c0.1-0.1,0.1-0.1,0.1-0.2c-0.7-0.2-1.4-0.6-2.1-1.1c-0.1,0-0.3,0-0.3-0.1
			c-0.2-0.1-0.3-0.1-0.2,0.1c0,0,0.1,0.1,0.2,0.3c-1.7-1.1-3.4-1.9-5.3-2.4c0,0,0.1-0.1,0.2-0.2c-0.1-0.6,0-0.9,0.5-0.9
			c0.7-0.1,1.2-0.2,1.8-0.4c1.6,0.8,3.2,1.5,4.8,2c0.4,0.2,0.9,0.4,1.4,0.5c0.4,0.5,0.9,1.1,1.3,1.7c-1.3-1.2-2.9-1.9-4.8-2.3v0.1
			c0.1,0.4,0.3,0.6,0.6,0.9c0.2,0.1,0.5,0.2,0.8,0.3c0.3,0.2,0.7,0.4,1.2,0.4c0,0.1,0,0.1,0,0.1c0.2,0,0.3,0,0.4,0.1
			c0.3,0.2,0.5,0.5,0.6,0.8c0,0,0,0,0.1,0c0.1,0.1,0.2,0.1,0.4,0.2c0,0,0.1,0.1,0.2,0.2c-0.2,0-0.2,0-0.3,0c0.8,1.2,1.8,2,2.7,2.5
			c0.1,0.1,0.2,0.3,0.3,0.5c-0.2,0-0.3,0.1-0.5,0.1c0,0.5,0.2,0.8,0.5,1.2c0.4,0.3,0.7,0.7,1.1,1.1c0,0.1,0,0.1,0,0.1
			c-0.3,0.1-0.7,0.3-1,0.5c-2.1,0.2-4.2,0.5-6.3,0.6c-0.3-0.1-0.5-0.1-0.8-0.2c0,0.1,0,0.1,0,0.1c-0.4,0.1-0.6,0.2-1,0.3
			c-7,0.6-14.2,0.8-21.4,0.7C3.4,85.764,2.6,85.264,2.1,84.264z M32.8,76.364c0.2,0.1,0.4,0.1,0.6,0.2c0,0.1,0,0.3-0.1,0.4
			c0.3,0.2,0.5,0.2,0.7,0.4c0-0.2,0-0.5,0-0.7c4.2,0.9,8.5,1.1,12.9,0.5c0.5-0.1,1.1-0.2,1.7-0.2c0.8-0.2,1.6-0.3,2.4-0.5
			c-0.7,0.7-1.2,1.4-1.6,2.2c-0.7,0-1.5,0-2.2-0.2c-0.1,0.1-0.1,0.1-0.1,0.1s0,0-0.1,0c-0.4,0.2-0.8,0.5-1.3,0.6c-0.1,0-0.1,0-0.2,0
			c0,0,0,0-0.1,0.1c-0.8,0.2-1.8,0.3-2.9,0.2c-3-0.1-5.7-0.2-8.1-0.3c-0.1-0.3-0.2-0.7-0.2-1.1c-0.2,0.1-0.3,0.1-0.4,0.1
			C33.5,77.564,33.2,76.964,32.8,76.364z M54,77.664c-0.8,0.4-1.5,1-2,1.9c0.1,0.1,0.2,0.2,0.2,0.1c0.7-0.1,1.2-0.2,1.7-0.3
			c0,0.1,0,0.2,0,0.3c11.3-5.9,21.2-4.6,29.9,3.6c-8.7,2.1-17.6,2.8-26.5,2c-3.7-0.7-6.7-1.8-9.2-3.1c0-0.1,0.1-0.2,0.1-0.3
			c0.2-0.3,0.4-0.5,0.6-0.8c0.2,0.4,0.5,0.2,0.8-0.5c0.6-1.4,1.5-2.4,2.8-2.9c1-1.5,2.4-2.5,4.3-3.2c0.1-0.1,0.2-0.1,0.3-0.2
			c-0.1,0.4-0.4,0.8-0.8,1.2c0.2-0.2,0.3-0.3,0.5-0.5c1.2-0.5,2.3-1,3.3-1.7c0.2,0.3,0.5,0.5,0.9,0.8c0,0.1,0,0.2,0,0.2
			c-0.3,0.3-0.5,0.6-0.6,0.9c-1.2,0.2-2.3,0.6-3.4,1c-0.8,0.2-1.5,0.6-2,1.1c0,0,0,0-0.1,0c0-0.1,0-0.3-0.1-0.5
			c-0.3,0.2-0.6,0.4-0.9,0.7C53.9,77.464,54,77.564,54,77.664z M34.5,80.164c0-0.1,0-0.2,0-0.4c0,0,0,0,0-0.1c0.6,0.2,1.3,0.4,2,0.5
			c-0.5,0.3-0.9,0.6-1.3,1C35,80.764,34.8,80.464,34.5,80.164z M42.2,80.564c-0.7,0.3-1.2,0.7-1.8,1.1c-0.4,0.2-0.9,0.4-1.4,0.5
			c-0.8,0.3-1.6,0.6-2.3,1c-0.3-0.5-0.6-0.8-0.9-1.1c-0.1-0.1-0.1-0.2-0.1-0.2c0.9-0.3,1.8-0.8,2.6-1.4
			C39.6,80.664,40.9,80.664,42.2,80.564z"/>
		<path style="fill:#BE3689;" d="M43,39.764c-0.8,0.4-1.3,1-1.7,1.9c0,0-0.1,0.1-0.2,0.1c-2.1-1.9-4.3-2.6-6.5-2.1
			c-0.4-0.3-1.1-0.5-2-0.6c0-0.2,0-0.3,0-0.4c0.1-0.2,0.1-0.4,0.1-0.6c0-0.4-0.2-0.7-0.4-0.9c-0.4-0.1-0.7,0-0.7,0.3
			c-0.1,0.4-0.2,0.8-0.1,1.2c0,0.5,0.1,0.9,0.4,1.4c0.2,0.1,0.4,0.3,0.6,0.4c-0.3,0.2-0.6,0.4-1,0.7c-0.6-0.3-1.4-0.5-2-0.9
			c0-0.1,0-0.2,0-0.4c0,0,0-0.1,0-0.2c0-0.3-0.1-0.6-0.4-0.9c-0.1,0.1-0.2,0.1-0.3,0.2c-0.2,0.5-0.3,0.9-0.3,1.3
			c0.1,0.3,0.1,0.6,0.4,0.9c0.4,0.4,0.9,0.8,1.4,0.9c-0.2,0.1-0.2,0.2-0.4,0.4c-1,0-1.9-0.5-2.6-1.3c-0.5-0.2-0.7,0-0.7,0.4
			c0,0.9,0.5,1.5,1.5,1.8c0.3,0.1,0.5,0.1,0.7,0.2c-4.5,4.7-4.4,9.6,0.3,14.5c4.8,1.4,8.9,0.5,12.5-2.4c1.4,1.2,2.9,1.9,4.5,2.1
			c0.3,0,0.6,0,0.9,0c1.2,0.1,2.4-0.2,3.7-0.7c5.4-2,7.2-5.7,5.4-10.9c-0.1-0.1-0.2-0.3-0.3-0.4c0-0.1,0-0.1,0-0.1
			c-0.9-1.5-1.9-2.7-3-3.6c0.2-0.1,0.4-0.2,0.6-0.3c0.1-0.1,0.2-0.2,0.4-0.4c0.9-0.8,1-1.7,0.3-2.6l0,0c-0.7,1.1-1.6,1.8-2.7,2.2
			c-0.4-0.2-0.8-0.4-1.1-0.6c0.4-0.4,0.8-0.9,1.2-1.3c0-0.2,0-0.3,0-0.4c0.1-0.7,0-1.3-0.4-1.9h-0.2c-0.2,1.8-1.1,2.8-2.4,3
			c-0.1,0-0.1,0-0.1,0c0-0.1,0-0.2,0.1-0.2c0.5-1.2,0.6-2.3,0.3-3.4c-0.9,0.5-1.4,1.6-1.8,3.2c0,0,0,0,0,0.1c-1-0.2-1.9-0.2-3-0.2
			C43.8,39.464,43.4,39.564,43,39.764z M36.9,40.764c0.2,0.2,0.4,0.3,0.6,0.4c0.9,0.7,1.7,1.3,2.5,1.8c0.9,0.1,1.9,0.2,2.8,0.3
			c0.1-0.1,0.1-0.2,0.1-0.3c0.2-0.6,0.4-1.1,0.7-1.6c3.1-0.4,5.7,0.2,7.8,1.9h-0.1c1.2,0.7,2,1.4,2.5,2.3c-4.4-0.1-8.6,1.5-12.5,4.7
			c-0.1,0-0.2-0.1-0.3-0.1c-3-2.7-6.5-4.5-10.5-5.3c-0.2-0.1-0.5-0.1-0.8-0.2c0.4-0.5,0.9-0.9,1.4-1.3c-0.1,0-0.2,0-0.2,0
			c1.1-1,2.5-1.8,4.1-2.5C35.6,40.864,36.2,40.864,36.9,40.764z M26.6,51.064c0.4-2,1-3.8,2.1-5.3c3.5,0.6,6.6,2,9.4,4.2
			c0-0.1,0-0.1-0.1-0.1c-0.4,0.2-0.7,0.6-0.8,1.1c-0.2,1,0.1,1.9,0.9,2.6c0.5,0,1,0,1.4,0c0.2,0,0.4-0.1,0.5-0.2
			c0.5-0.4,0.8-0.8,1-1.3c0.4-0.1,0.9-0.1,1.4-0.1c0.1,0.5,0.4,0.9,0.9,1.3c0.2,0.1,0.4,0.1,0.7,0.1c0.5,0,1-0.2,1.5-0.3
			c0-0.7,0-1.3,0.1-1.9c0-0.1,0-0.2-0.1-0.4c-0.1-0.1-0.3-0.2-0.4-0.2c-0.2-0.1-0.4-0.2-0.6-0.2c3-2.1,6.2-3.5,9.5-4.3
			c0.1,0,0.1,0.1,0.1,0.3c0.2,0.2,0.3,0.4,0.4,0.7c0.2,0.6,0.3,1.3,0.4,1.9c0.5,3-0.7,5.2-3.6,6.7c-3.4,1.1-6.3,0.6-8.8-1.4
			c-0.6,0-1.3-0.1-2-0.1c-6.3,4.9-11,4-13.9-2.8C26.6,51.264,26.6,51.164,26.6,51.064z"/>
		<path style="fill:#BE3689;" d="M28.1,60.964c0.2,0,0.4,0.1,0.5,0.2c0-0.1,0.1-0.1,0.2-0.2C28.6,60.964,28.4,60.964,28.1,60.964z"
			/>
		<path style="fill:#BE3689;" d="M58.5,62.264c-0.1-0.1-0.2-0.2-0.2-0.4c-0.1-0.1-0.1-0.2-0.2-0.3c-0.1-0.1-0.1-0.3-0.1-0.4
			c-0.3-0.1-0.6-0.2-0.9-0.4c-1.9-1-3.9-1.4-6.1-1.3c-2.5,0.7-4.8,2-6.8,3.9c-3.4,3-7.1,4.2-11.3,3.5c0.1,0.6,0.5,1,1.2,1.3
			c2.8,1.1,6.4-0.2,10.8-4.2c4.4-3.9,8.5-4.5,12.1-1.6c0.1,0.3,0.3,0.5,0.5,0.6c0.3,0.2,0.6,0.3,1,0.3c0.1,0,0.2-0.1,0.4-0.2
			C58.7,62.764,58.6,62.564,58.5,62.264z"/>
		<path style="fill:#BE3689;" d="M45.3,66.764c0-0.1,0.1-0.1,0.1-0.2c2-1,2.7-2,2.1-2.9c-1.1,1.3-2.6,2.2-4.4,2.7
			C43.5,67.264,44.2,67.364,45.3,66.764z"/>
		<path style="fill:#BE3689;" d="M18.8,35.364c0,0,0-0.1,0-0.2C18.8,35.264,18.8,35.364,18.8,35.364L18.8,35.364z"/>
	</g>
</g>
</svg>
