<?xml version="1.0" encoding="iso-8859-1"?>
<!-- Generator: Adobe Illustrator 12.0.1, SVG Export Plug-In . SVG Version: 6.00 Build 51448)  -->
<!DOCTYPE svg PUBLIC "-//W3C//DTD SVG 1.1//EN" "http://www.w3.org/Graphics/SVG/1.1/DTD/svg11.dtd" [
	<!ENTITY ns_svg "http://www.w3.org/2000/svg">
	<!ENTITY ns_xlink "http://www.w3.org/1999/xlink">
]>
<svg  version="1.1" id="Layer_1" xmlns="&ns_svg;" xmlns:xlink="&ns_xlink;" width="88.117" height="90.8"
	 viewBox="0 0 88.117 90.8" style="overflow:visible;enable-background:new 0 0 88.117 90.8;" xml:space="preserve">
<g>
	<path style="fill:#BE3689;" d="M88.117,67.9c-0.1-0.1-0.1-0.2-0.2-0.3c-1.9-3.1-4.8-4.5-8.7-4.4c-3,0.4-5.8,1.3-8.5,2.8
		c2.2-8.9-0.1-16.2-7-21.9c0.1,0,0.2,0,0.3-0.1c0.2-0.4,0.2-0.9,0.1-1.4c-0.4-0.9-0.4-1.7-0.4-2.7c0-0.1,0.2-0.2,0.2-0.2
		c0.3,0.1,0.7,0.1,1.1,0c0.1,0.1,0.2,0.2,0.3,0.2c-0.2,0.7-0.3,1.4-0.3,2.3c0,0.5,0,1,0.1,1.4c0.1,0.3,0.2,0.6,0.4,0.8
		c3.5,0.4,6.2-1,8.2-4.2c1.1-1.8,1.2-3.8,0.3-5.8c-1.1-0.1-2.3-0.2-3.3-0.1c-0.8,0.1-1.5,0.4-2.2,0.9c-0.2-0.1-0.4-0.1-0.5-0.2
		c-2.7-0.8-5.4-1.3-8.2-1.5c0.1-0.1,0.1-0.2,0.2-0.2c0-0.1,0-0.1,0-0.2c-0.2,0.1-0.3,0.1-0.4,0.2c0,0,0-0.1,0.1-0.2c0,0,0.2,0,0.3,0
		c-0.1-0.1-0.1-0.2-0.1-0.3c0,0-0.2,0-0.2,0.1c0-0.4,0.1-0.7,0.2-1c0.2,0.3,0.3,0.6,0.6,0.9c0.1,0.1,0.2,0.2,0.3,0.4
		c0.7,0,1.4,0,2.2,0c2.1-1.2,3.5-3,4-5.4c0.3-1.3,0.1-2.5-0.5-3.6c-1.4-0.4-2.6-0.3-3.8,0.1c-0.2,0.1-0.3,0.1-0.5,0.2
		c-1-0.8-2.3-1.5-3.7-1.7h-0.2c0.1,0.1,0.2,0.3,0.2,0.4c-1.8-0.5-3.8-0.7-5.8-0.5c-2.8,0.2-5.4,1.1-7.8,2.6c-0.8,0.5-1.4,1-1.7,1.6
		c-0.2-1.1-0.8-1.9-1.7-2.5c-5-3.4-10.8-5.2-17.3-5.4c-0.1,0.2-0.3,0.2-0.5,0.2c-0.8,0.1-1.4,0.5-1.9,1h-0.1
		c-0.3,0.2-0.6,0.6-0.9,1.2c-1,2.2-1,4.4-0.1,6.6c2,1.4,4.1,1.8,6.2,1.2c0.3,0,0.5,0,0.7-0.2c0.1,1.4,0.1,2.9-0.2,4.6
		c-1-0.3-2.1-0.4-3.2-0.6c0,0.1,0,0.1,0,0.1c-1,0.3-1.9,0.6-2.8,1.2c-0.4,0.1-0.7,0.4-0.9,0.6c-0.4,0.1-0.7,0.1-1,0.1
		c-1.3-0.1-2.5-0.2-3.7-0.3c-0.4,0.2-0.8,0.5-1.2,0.8c-0.1,0.1-0.3,0.2-0.4,0.3c-0.1,0.6-0.2,1.2-0.1,1.9c0,1,0.5,1.9,1.3,2.6
		c0.7,0.6,1.3,1.2,1.9,1.9c0.5,0,0.8,0.2,1.2,0.4c1.3,0.9,2.9,1.2,4.5,0.9c-0.2,0.2-0.3,0.5-0.5,0.7c-3.4,3.7-5.9,8.2-7.3,13.4
		c-0.8,3.3-1.1,6.3-0.6,8.9c-3.8-2.1-7.9-3.6-12.4-4.6c-2.8,4.2-3,8.9-0.3,14c2.5,5,6,8.6,10.2,10.7c-0.2,0.1-0.5,0.1-0.8,0.2
		c-2.1,0.3-3.9,1.1-5.3,2.5c0.2,0,0.4,0,0.6-0.1c1.8-1,3.8-1.8,6-2.4c0.6,0.3,1.3,0.6,2,0.8c-1.1,0.4-2,1.1-2.8,1.9
		c0.3,0.5,0.7,0.5,1.5,0.1c0.6-0.4,1.3-0.8,1.9-1.3c0.4-0.1,0.7-0.1,1.1-0.2c1.1,0.2,2.3,0.5,3.6,0.6c-0.8,0.4-1.4,0.8-1.9,1.3
		c0.1,0,0.3,0,0.5,0c1.4-0.3,2.7-0.7,4.1-1.1c0.6,0,1.3,0,2.1-0.1c-0.3,0.2-0.6,0.4-0.9,0.6l0.1,0.2c0.6-0.3,1.3-0.6,2-0.9
		c0.2,0,0.5,0,0.7-0.1c1.7-0.2,3-0.8,3.7-1.8c2.8-1.2,5.6-2.3,8.5-3.3c0.2,0.1,0.4,0.2,0.5,0.4c-3.5,1.4-6.6,3.2-9.5,5.5v0.2
		c3.7-1.6,7.4-3.2,10.9-4.9c0.4,0.2,0.8,0.3,1.2,0.5c-2.8,1-5.1,2.6-6.9,4.7c1.2-0.3,2.5-0.7,3.8-1.2c2.7-1.1,4.8-2.1,6.2-3.2
		c2-0.1,4-0.9,6.2-2.3c-0.1-0.2-0.1-0.2-0.2-0.2c-0.2,0.1-0.5,0.2-0.7,0.3c-0.1-0.1-0.1-0.1-0.1-0.2c0.5-0.1,1-0.2,1.5-0.2
		c1.2-0.6,2.5-1.1,3.9-1.4c-0.2,1.4-0.1,3,0.3,4.6c-3.1,0.8-5.4,2.3-6.9,4.7c0.2-0.1,0.4-0.3,0.7-0.4c1.9-1.6,4-2.8,6.4-3.6
		c0.2,0.6,0.4,1.3,0.7,2c0.2,0,0.3,0.1,0.4,0.1c-0.6,0.4-1.1,0.9-1.5,1.5v0.2c1.5-0.1,2.6-0.5,3.5-1.1c3.3,0.8,6.7,0.6,10.2-0.5
		c-0.5,0.2-1,0.5-1.4,0.8c0.7,0.1,1.5,0.2,2.2,0.2c0,0,0.2,0,0.3-0.1c3.8-1.8,7.4-3.8,10.8-5.9c0,0,0,0-0.1,0.1
		c-1.5,0.4-3.1,1-4.6,1.5C83.017,81.6,86.817,75.7,88.117,67.9z M79.817,65.4c0.3,0.1,0.6,0.1,0.9,0.1c3,0.2,4.8,1.6,5.6,4.3
		c-0.3,2-1.1,4-2.3,5.7c-6.5,9.6-15.3,13.5-26.4,11.5c-0.2-0.1-0.4-0.4-0.5-0.6c0.1,0,0.2,0,0.4-0.1c-0.1-0.1-0.1-0.1-0.2-0.2
		c-0.1,0-0.3,0-0.5-0.1c-0.3-0.6-0.4-1.2-0.2-1.9c0.1-0.9,0.2-1.8,0.4-2.7c0.4-0.6,0.8-1.3,1.2-1.9c2.9-5,7-8.6,12.5-10.6
		c0,0,0,0,0.1-0.1C73.517,67,76.517,65.9,79.817,65.4z M46.817,28.2c-0.1,0.1-0.2,0.2-0.3,0.3c-0.5,0.2-1,0.3-1.4,0.2c0,0,0,0,0,0.1
		s0,0.2,0.1,0.3c-0.5-0.2-0.9-0.4-1.4-0.5c0.1-0.1,0.1-0.1,0.1-0.2c-0.1,0-0.2,0-0.3,0c1.4-2.3,3.5-3.7,6.5-3.9
		c1.4-0.2,2.7-0.2,4.1-0.2c-3.5,0.7-6.1,2.6-7.8,5.6c-0.1,0-0.1-0.1-0.1-0.1c0-0.1,0-0.3,0.1-0.4c0.3,0.1,0.4-0.2,0.4-0.6v-0.1l0,0
		c0-0.2,0-0.4,0-0.6C46.817,28.1,46.817,28.1,46.817,28.2z M46.717,31.7c0,0-0.1,0-0.2,0.1c-0.1-0.4-0.1-0.8-0.1-1.2
		c0.1,0,0.1,0,0.1-0.1c-0.1,0-0.1,0-0.1,0c0-0.1,0-0.2,0-0.3c3.3-2.7,7.2-4.1,11.7-4.3c0.1,0.8,0.2,1.5,0.3,2.3
		c0.1,2.1-0.1,4.2-0.8,6.1c-0.1,0.1-0.2,0.2-0.3,0.2c-0.2,0.2-0.4,0.4-0.6,0.7c0.1,0.1,0.2,0.2,0.4,0.3c-0.2,0.3-0.4,0.6-0.5,0.9
		c-0.4,0.3-0.8,0.5-1.1,0.8c-0.2,0.1-0.3,0.2-0.4,0.4c-0.8,0.1-1.6,0.3-2.4,0.7c-0.3-0.1-0.6-0.2-0.9-0.4c-2.1-0.9-3.9-2.3-5.3-4.1
		c-0.1,0-0.1,0-0.1,0c0-0.5,0-0.9,0-1.4c0.8,0.2,1.6,0.3,2.3,0.4c0.6,0.5,1.2,1,1.8,1.4c0.8,0.5,1.5,0.5,2.1-0.2
		c0.1-0.6-0.3-1-1.2-1.1c-0.8-0.1-1.4-0.5-1.9-1.1c-0.5,0-0.9,0-1.3-0.1c1.6-0.6,3.2-1,4.8-1.2c-0.1-0.1-0.2-0.2-0.3-0.2
		c-0.7-0.3-1.3-0.5-2-0.6c-0.1,0-0.3,0.1-0.5,0.1c-1.6,0.1-2.8,0.7-3.4,1.9C46.817,31.7,46.817,31.7,46.717,31.7z M41.317,26
		c0.1,0.1,0.3,0.2,0.4,0.3c0.1,0.2,0.2,0.5,0.3,0.7c0,0.2,0.1,0.3,0.1,0.4c0.1,0.3,0.1,0.5,0.1,0.8v0.1c-0.4,0-0.8,0-1.2,0
		c0-0.1,0-0.2,0-0.3c-0.3-0.1-0.5-0.2-0.8-0.3c0,0.1,0,0.1,0.1,0.2c-0.2,0.3-0.2,0.5-0.1,0.6l-0.1,0.1c-1.7-1.8-3.6-3.1-5.8-3.8
		c-0.8-0.3-1.6-0.5-2.5-0.6c-0.8-0.1-1.6-0.2-2.6-0.2c-0.2,0.3-0.4,0.7-0.6,0.9c-0.4,0.3-0.9,0.5-1.3,0.8c-0.2,0-0.3,0.1-0.3,0.2
		c0,0.6,0.3,0.8,0.8,0.6c-0.1,0.4-0.2,0.8-0.3,1.3c-0.1-0.1-0.2-0.1-0.2-0.1c0,0.2,0,0.3,0.1,0.5c-0.2-0.2-0.4-0.4-0.6-0.5
		c-0.1,0.3-0.3,0.7-0.5,1c-1.8-0.4-3.4-1.3-5-2.8c0-0.3,0-0.7,0-1.1c-0.1-1.4,0.3-2.5,1.2-3.4c0.2,0.1,0.3,0.1,0.4,0.2
		c0-0.2,0-0.3,0.1-0.4c0.2-0.2,0.5-0.2,0.7-0.3c1.1-0.1,2.2-0.1,3.3-0.1c-0.5,0.4-0.8,0.9-1.2,1.4c0.2,0,0.3,0.1,0.4,0.1
		c0.7-0.3,1.3-0.5,1.7-0.8c1-0.1,2.1-0.1,3.1-0.2c3.3,0.7,6.4,2.2,9.3,4.4C40.717,25.7,41.017,25.9,41.317,26z M37.917,31.6
		c-0.3-0.1-0.7,0-1.2,0.1c-0.7,0.3-1.4,0.8-2.1,1.3c-0.1,0.1-0.2,0.3-0.3,0.5l0.1,0.2c1.7-0.7,3.4-1,4.9-0.8
		c0.1,0.4,0.1,0.8,0.2,1.1c-0.1,0-0.2,0-0.3,0c-0.1,0.1-0.2,0.1-0.2,0.1c0.2,0.1,0.4,0.2,0.6,0.3c0.1,0.4,0.2,0.8,0.2,1.1
		c0,0.2,0,0.3,0,0.4c-1.7,1.4-3.7,2.3-5.8,2.9c-1-0.5-1.9-1.1-2.7-1.9c-0.1,0-0.2,0-0.3,0c-0.1-0.1-0.2-0.1-0.3-0.2
		c0,0-0.1-0.1-0.2-0.1c0-0.1,0-0.1,0.1-0.1c-0.2-0.4-0.4-0.7-0.8-0.9c-0.8-1.7-1.1-3.5-1-5.6c0-1.4,0.4-2.8,0.9-4.1
		c0.1-0.1,0.1-0.2,0.1-0.2c0.8-0.1,1.5-0.2,2.3-0.3c1.4,0.7,2.7,1.5,4,2.5c1.3,1,2.5,1.6,3.5,1.6c-0.2,0.5-0.3,1.2-0.4,1.8
		c-1.7-1.5-3.9-2-6.5-1.6l-0.4,0.1C34.217,30.4,36.017,31,37.917,31.6z M41.017,32.4c0-0.5,0-1,0-1.5c0-0.1,0-0.2,0-0.4
		c0.3-1,1.1-1.1,2.4-0.3c0.5,0.3,1,0.6,1.6,0.8c0,0.4,0,0.8,0,1.2c0.1,0.5,0,1-0.3,1.5c-0.1,0.1-0.2,0.2-0.2,0.3v0.1
		c-1-0.1-1.9-0.2-2.9-0.2c-0.1,0-0.4-0.1-0.6-0.2v-0.2C41.017,33.2,41.017,32.8,41.017,32.4z M47.017,36.2c-0.1-0.1-0.1-0.1-0.2-0.2
		v-0.1c1.5,2.3,3.9,3.8,7.3,4.4c0.1-0.1,0.2-0.2,0.3-0.2c0.2-0.2,0.4-0.3,0.5-0.4c0.6,0.4,1.1,0.7,1.6,1.1c-0.3-0.1-0.5-0.1-0.8-0.1
		c3,1.7,6,4,8.9,6.9c4.3,4.3,6.1,9.2,5.3,14.8c-0.2,1.6-0.7,3.3-1.3,4.9c-1.9,1.1-3.8,2.4-5.6,3.6c-4,2.9-6.4,6-7.2,9.5
		c-4.7,1.9-10.6,2.4-17.5,1.3c-2.7-0.4-5.1-1-7.5-1.8c-0.6-0.4-1.3-0.6-2.1-0.7l-0.2,0.1c-0.1,0-0.1-0.2-0.2-0.2
		c-0.2-0.5-0.5-0.9-0.6-1.4c-0.1-0.2-0.2-0.3-0.4-0.4c-3.4-4.2-7.2-7.5-11.5-10.1c-0.2-0.9-0.2-1.9-0.1-2.9
		c0.8-9.8,4.6-17.4,11.4-22.9h0.1c0,0,0,0-0.1,0c0.1-0.1,0.2-0.2,0.2-0.2c1.3-0.7,2.5-1.3,3.8-1.9c1,0.9,2.2,1.4,4,1.5
		c0.1-0.1,0.2-0.1,0.3-0.2c3-0.9,4.9-2.4,5.7-4.3C43.117,35.9,45.117,35.8,47.017,36.2z M64.317,26.6c-0.2-0.3-0.5-0.6-0.7-0.8
		c-0.1-0.1-0.1-0.1-0.2-0.3c0.8,0.2,1.5,0.5,2.2,0.8c0.6,1.6,0.3,3.1-1.3,4.4c-0.8,0.8-1.8,1.1-2.8,1c-0.1-0.3-0.3-0.5-0.3-0.8
		c-0.3-0.5-0.6-1-1-1.2c0-0.3,0.1-0.5,0.2-0.8c-0.2,0-0.3,0.1-0.4,0.1c-0.1-0.3-0.1-0.6-0.1-0.8c0.3,0.2,0.9,0.2,1.7,0
		c-0.2-0.2-0.3-0.3-0.4-0.4c-0.6-0.3-1.1-0.6-1.6-1.1c-0.2-0.7-0.5-1.4-0.7-2.1c0.1,0.1,0.3,0.1,0.5,0.1c0.7,0.6,2.3,1.3,5.1,2.1
		C64.417,26.7,64.417,26.7,64.317,26.6z M58.717,35.8L58.717,35.8c3.6-0.4,7.1,0.1,10.5,1.4c0.1-0.2,0.2-0.3,0.4-0.4
		c0.1-0.1,0.2-0.2,0.4-0.4c0.1-0.1,0.2-0.2,0.3-0.4c0.3-0.1,0.6-0.2,0.9-0.4c0.8-0.4,1.4-0.3,1.6,0.3c0.1,0.2,0.1,0.3,0.2,0.4
		c0,0.4,0,0.8-0.2,1.1c-0.4,1-0.9,1.8-1.6,2.5c-0.5,0.5-0.7,1-0.9,1.6c-0.2,0.2-0.4,0.3-0.6,0.4c-1,0.7-2.1,0.9-3.1,0.6
		c-0.1-0.1-0.1-0.2-0.1-0.5c-0.1-0.4,0-0.8,0.4-1.2c0.2-0.2,0.3-0.4,0.5-0.7c0-0.1,0.1-0.2,0.1-0.3c-0.2-0.5-0.4-0.8-0.8-1.1
		c-2.3-1.6-4.8-2.3-7.4-2.2c-0.1-0.1-0.1-0.2-0.1-0.4c-0.2,0-0.4-0.1-0.6-0.1c0-0.1,0-0.1,0-0.1S58.617,35.9,58.717,35.8z
		 M57.217,38c0.2-0.2,0.4-0.4,0.6-0.6c1.9,0.1,3.7,0.6,5.3,1.3c-0.1,0.2-0.2,0.3-0.2,0.5c-0.2,0.8-0.3,1.5-0.2,2.2
		c0-0.1,0-0.1-0.1-0.2c0,0.1,0,0.2,0.1,0.3l0,0c0.1,0.5,0.3,1,0.5,1.4c-0.1,0.2-0.2,0.3-0.2,0.4s0,0.1-0.1,0.1
		c-0.2-0.2-0.4-0.3-0.7-0.5c-0.2-0.2-0.4-0.5-0.6-0.8c0,0,0,0,0.1,0c-0.5-0.2-0.8-0.5-1-0.9h-0.1c-1.1-1.1-2.4-2.1-3.7-3
		C57.017,38.2,57.117,38.1,57.217,38z M58.317,36.6c0.1-0.1,0.1-0.2,0.1-0.2c0.1,0,0.2,0.1,0.3,0.2
		C58.617,36.6,58.517,36.6,58.317,36.6z M22.017,38.4c0,0.2,0,0.3,0,0.4c0.1,0.1,0.1,0.2,0.3,0.3c0.5,0.4,0.9,0.9,1.1,1.6
		c0.1,0.1,0.1,0.2,0.1,0.3c-1.8,1.4-3.8,1.1-6.1-0.8c-1.1-0.9-1.8-2.1-2.1-3.4c0.2-0.1,0.4-0.2,0.5-0.2c1.7,0,3.4,0,4.9-0.1
		c0.7-0.6,1.5-1.1,2.5-1.4c1.5-0.3,2.9-0.7,4.3-1c0.1,0.4,0.2,0.7,0.3,1c-0.5,0-1,0.1-1.5,0.3C24.317,35.9,22.917,36.9,22.017,38.4z
		 M24.317,38.8c0-0.1,0-0.2-0.1-0.4c0.9-0.5,1.8-0.9,2.9-1c0.7,0,1.5-0.2,2.2-0.4c0.2,0.2,0.5,0.4,0.7,0.6c-0.7,0.3-1.3,0.7-2,1.2
		c-0.8,0.5-1.5,1-2.1,1.6c-0.3-0.2-0.5-0.3-0.7-0.4c-0.1,0.1-0.2,0.2-0.2,0.3l0,0C24.717,39.8,24.517,39.3,24.317,38.8z M2.317,64
		c0.2-0.1,0.3-0.2,0.4-0.3c12.3,3,21.2,10.1,26.8,21.3c-0.3,0.5-0.5,0.9-0.8,1.3c-0.7,0.3-1.4,0.7-1.9,1.1c-1.4,0.1-2.7,0.1-4,0
		c-12.3-1-19.4-7.4-21.5-19.2c0-0.2,0-0.3,0.1-0.4c0.1-1.2,0.3-2.3,0.6-3.4C2.117,64.3,2.217,64.2,2.317,64z M29.817,80.7
		c0,0.2,0,0.3,0,0.4c0.4,0.1,0.7,0.2,1,0.3c1.4,0.2,2.8,0.6,4.1,1.2c0.1,0,0.2,0,0.2,0.1l0,0c0.2,0.1,0.4,0.2,0.6,0.3
		c0-0.1,0-0.2,0-0.2c0.5,0.1,0.9,0.2,1.4,0.2c-2.2,0.6-4.3,1.3-6.3,2.2c0.1-0.6,0.1-1.2,0-1.9c-0.4-0.3-0.7-0.7-0.9-1.1
		c-0.3-0.8-0.6-1.6-1.1-2.4C29.217,80.2,29.517,80.5,29.817,80.7z M42.617,83.9c0.1-0.1,0.3-0.2,0.5-0.3c2,0.1,4-0.1,6.1-0.3
		c0,0,0,0.1,0,0.3c-0.8,0.2-1.7,0.3-2.5,0.4c0,0,0,0,0-0.1c0,0.1-0.1,0.1-0.1,0.1C45.217,84.1,43.917,84.1,42.617,83.9z"/>
	<path style="fill:#BE3689;" d="M49.917,44.5c-0.1,0-0.1,0-0.1,0.1c-1-0.2-1.9-0.3-2.9-0.4c-0.3,0.1-0.7,0.3-1.1,0.4
		c-0.8,0.4-1.4,0.9-1.8,1.7c-0.1,0.1-0.1,0.1-0.2,0.2c-2-2.1-4.1-3-6.4-2.7c-0.4-0.3-1-0.6-1.9-0.7c0-0.2,0-0.3,0.1-0.4
		c0.2-0.7,0.1-1.2-0.3-1.6c-0.3-0.1-0.6,0-0.7,0.3c-0.3,0.9-0.2,1.8,0.1,2.6c0.2,0.2,0.4,0.3,0.6,0.5c-0.3,0.1-0.7,0.3-1,0.5
		c-0.7-0.2-1.3-0.6-2-0.9c0-0.2,0-0.3,0-0.4c0.1-0.4,0-0.8-0.2-1.2c-0.3,0.1-0.3,0.1-0.4,0.2c-0.5,0.8-0.5,1.5-0.1,2.2
		c0.4,0.4,0.9,0.8,1.4,1c-0.2,0.1-0.3,0.2-0.5,0.3c-1,0-1.8-0.5-2.5-1.5c-0.4-0.1-0.7,0-0.7,0.4c-0.1,0.9,0.4,1.5,1.4,1.9
		c0.2,0.1,0.4,0.2,0.6,0.2c-4.8,4.4-5.1,9.3-0.8,14.5c4.6,1.7,8.8,1.3,12.7-1.4c2.3,2.5,5.3,3.2,8.9,2.2c5.6-1.6,7.6-5.1,6.3-10.5
		c-0.2-0.1-0.2-0.3-0.3-0.4c-0.7-1.6-1.6-2.9-2.7-4c0.2,0,0.4-0.1,0.6-0.2c0.1-0.1,0.3-0.2,0.4-0.3c1-0.8,1.2-1.7,0.6-2.6h-0.1
		c-0.7,1-1.7,1.6-2.9,2c-0.3-0.3-0.7-0.5-1-0.7c0.4-0.4,0.9-0.8,1.4-1.3c0-0.1,0-0.2,0-0.4c0.1-0.6,0.1-1.3-0.3-1.8h-0.2
		c-0.4,1.7-1.3,2.6-2.6,2.7c-0.1,0-0.1,0-0.1,0c0-0.1,0-0.1,0.1-0.2c0.6-1.1,0.8-2.2,0.6-3.4C51.017,41.9,50.317,42.9,49.917,44.5z
		 M37.817,45.1c0.6,0,1.2,0,1.8,0c0.2,0.2,0.4,0.3,0.6,0.5c1.1,1,2.2,1.9,3.1,2.6c0.1,0,0.2,0,0.2,0c0.5,0.2,1,0.4,1.4,0.5
		c0.2-0.2,0.4-0.6,0.6-0.9c0.2-0.6,0.5-1.1,0.8-1.5c4.9-0.3,8.4,1.8,10.4,6.5c0.1,0.6,0.2,1.3,0.2,1.9c0.3,3-1.1,5.1-4.1,6.4
		c-3.9,1-7.1-0.1-9.5-3.1c-7.3,5.2-12.2,4.2-14.7-3.1c0-0.1,0-0.2,0.1-0.4C29.817,49.8,32.817,46.7,37.817,45.1z"/>
	<path style="fill:#BE3689;" d="M53.617,53.6c-0.4,0.3-0.9,0.4-1.4,0.6c-3.1,0.6-5.8,0.2-8.3-1.1c0,0.6,0.3,1.1,1,1.3
		C49.517,56.2,52.417,55.9,53.617,53.6z"/>
	<path style="fill:#BE3689;" d="M37.517,55.1c4.4-0.3,6.2-1.1,5.2-2.4c0,0.1,0,0.1-0.1,0.1c-3.4,1.2-6.5,1.4-9.4,0.6
		C33.917,54.7,35.317,55.3,37.517,55.1z"/>
	<path style="fill:#BE3689;" d="M42.717,66v0.1c-4.9,0.5-7,3.3-6.5,8.3c3.8,2.3,7.5,2.7,11.3,1.1h0.1c0.2-0.1,0.5-0.2,0.7-0.3
		c0-0.2,0-0.3,0.1-0.4C49.317,69.7,47.517,66.8,42.717,66z M38.617,68.8c0.1-0.1,0.3-0.2,0.5-0.3c0.6-0.3,1.2-0.6,1.6-1.1
		c4.8-0.3,6.9,1.9,6.4,6.5c-0.2-0.3-0.4-0.6-0.7-0.9c-0.2-0.2-0.3-0.5-0.4-0.7c-0.3-0.1-0.5-0.2-0.7-0.3c-1.3-0.9-2.8-1.2-4.6-0.8
		c-0.2,0.1-0.6,0.3-1,0.5c-0.1,0-0.3,0.1-0.5,0.2c-0.4,0.8-0.7,1.6-0.9,2.3c-0.3-0.1-0.6-0.3-1-0.5c0-0.3,0-0.5,0-0.8
		C37.217,71.4,37.717,70,38.617,68.8z M43.117,72.6c0.8,0.2,1.5,0.5,2.2,0.8c0.2,0.4,0.5,0.8,0.7,1.1c-2.2,1-4.5,1-6.9,0.1
		c0.3-0.4,0.6-0.8,0.7-1.3c0.1-0.1,0.1-0.2,0.3-0.4C41.017,72.4,42.117,72.2,43.117,72.6z"/>
	<path style="fill:#BE3689;" d="M38.817,76.9c-0.5,0.1-0.5,0.3-0.1,0.7c1.9,1.5,4.1,1.7,6.5,0.6c-0.1-0.2-0.2-0.2-0.2-0.2
		C42.617,78.4,40.617,78,38.817,76.9z"/>
	<path style="fill:#BE3689;" d="M84.817,86.1c-0.7-0.2-1.4-0.3-2.1-0.3c-1,0.3-2.1,0.7-3.1,1.3c-0.8,0.3-1.3,0.9-1.6,1.7
		c0.7,0.1,1.3-0.1,1.9-0.5c1.4-1.2,3.1-1.8,5.1-2C84.917,86.2,84.817,86.1,84.817,86.1z"/>
	<path style="fill:#BE3689;" d="M49.017,0.2c-1-0.1-1.9-0.1-2.8-0.2c-5.1,0.3-9.2,2.2-12.5,5.8c-0.6,5.9,2.1,9.2,8,9.7
		c0.4,0.9,0.7,1.9,1,3c0.1,0.6,0.1,1.2,0,1.9c0.2,0.1,0.3,0.3,0.5,0.4c0.1,0,0.2,0,0.3,0.1h0.1c0.1-0.1,0.4-0.2,0.6-0.2
		c0.1,0,0.2,0,0.2,0.1c0.1-0.1,0.2-0.1,0.3-0.1c0.2-0.7,0.4-1.5,0.4-2.3c0.1-1,0.3-2,0.6-3c0.8-0.3,1.5-0.7,2.1-1.1
		c0.6-0.3,1.2-0.6,1.8-0.8c0.4-0.7,0.8-1.5,1.2-2.2C53.217,6.9,52.617,3.2,49.017,0.2z M49.817,2.4c0.9,1.1,1.3,2.3,1.3,3.7
		c0.1,2.2-0.5,4.2-1.9,5.9c-0.4,0.4-0.9,0.8-1.3,1.1c-0.9,0.7-1.9,0.9-2.9,0.7c-0.3,1-0.4,2-0.5,3c0,1-0.2,1.8-0.8,2.5
		c0-0.8-0.1-1.6-0.2-2.4c-0.1-0.8-0.4-1.6-0.8-2.2c-1.1-0.2-2.2-0.5-3.3-0.9c-3.5-1.2-5.1-3.7-4.7-7.5c0.1-0.1,0.2-0.2,0.4-0.4
		c2.6-2.2,5.6-3.7,9.1-4.5C46.217,1.2,48.117,1.5,49.817,2.4z"/>
	<path style="fill:#BE3689;" d="M48.317,5.8c-0.1-0.1-0.2-0.2-0.4-0.3c-1.7-0.6-3.6-0.8-5.7-0.6c-1.2,0.2-2.5,0.4-4,0.6
		c-0.8,0.1-1.1,0.5-0.7,1c0.1,0.2,0.3,0.2,0.4,0.2c3-0.5,5.1-0.4,6.6,0.3c-1.1,0.6-2.1,1.2-3,1.8c-0.6,0.4-1.1,0.7-1.8,1
		c-0.1,0.2-0.3,0.5-0.4,0.8c-0.1,0.1-0.1,0.2-0.2,0.3c-0.1,0.2-0.2,0.5-0.4,0.8c2.9,0.7,5.9,0.7,9-0.3c-1.2-1.5-3.3-1.8-6.4-1
		c0.8-0.5,1.6-0.9,2.4-1.3C45.817,8.2,47.317,7.1,48.317,5.8z"/>
	<path style="fill:#BE3689;" d="M1.517,88.8c0.3,0,0.6-0.1,0.8-0.2c1.9-1,3.9-1.7,6.2-2.3c-0.1-0.1-0.1-0.1-0.2-0.2
		c-0.5-0.1-1-0.1-1.6-0.2c-0.2,0.3-0.5,0.5-1,0.6C3.817,87,2.417,87.8,1.517,88.8z"/>
	<path style="fill:#BE3689;" d="M41.017,90.3c0.3,0,0.7-0.1,1-0.2c2.6-0.9,5.2-2,7.7-3c3.5-1.6,5.4-3.1,5.5-4.8c0,0.1,0,0.1,0,0.1
		C50.117,84.4,45.417,87.1,41.017,90.3z"/>
</g>
</svg>
