<?xml version="1.0" encoding="iso-8859-1"?>
<!-- Generator: Adobe Illustrator 12.0.1, SVG Export Plug-In . SVG Version: 6.00 Build 51448)  -->
<!DOCTYPE svg PUBLIC "-//W3C//DTD SVG 1.1//EN" "http://www.w3.org/Graphics/SVG/1.1/DTD/svg11.dtd" [
	<!ENTITY ns_svg "http://www.w3.org/2000/svg">
	<!ENTITY ns_xlink "http://www.w3.org/1999/xlink">
]>
<svg  version="1.1" id="Layer_1" xmlns="&ns_svg;" xmlns:xlink="&ns_xlink;" width="89.924" height="96.34"
	 viewBox="0 0 89.924 96.34" style="overflow:visible;enable-background:new 0 0 89.924 96.34;" xml:space="preserve">
<g>
	<path style="fill:#BE3689;" d="M82.8,91.8c1.1-0.3,2.3-0.8,3.5-1.2c0-0.1-1.5-1.5-4.5-4.4c-3-2.8-8.8-4.6-17.3-5.3
		c-0.8,0.1-1.7,0.3-2.5,0.5c0-0.2,0-0.4,0-0.6s0-0.3-0.1-0.4c-0.1-0.4-0.4-0.8-0.8-1.1c3.2-2.3,5.6-5.5,7.1-9.8
		c3.4-10,1.5-18.2-5.8-24.5c0.1-0.1,0.1-0.2,0.2-0.2c-0.1-0.3-0.1-0.5-0.2-0.7c-0.2-0.4-0.4-0.8-0.6-1.2c0-0.4,0-0.8,0-1.1
		c0-0.8,0-1.5,0-2.3c1.6-0.8,3.4-1.3,5.3-1.4c0-0.2-0.1-0.4-0.1-0.6c-0.5-1.2-1-2.6-1.4-3.9c0.1-0.2,0.2-0.5,0.2-0.7
		c0.2-0.5,0.3-1,0.6-1.5c0.1-0.1,0.1-0.1,0.3-0.1c0.1,0,0.2,0,0.3,0c1.5,1.7,3.2,3.1,5,4.1c0.4-0.2,0.7-0.5,1-0.8
		c2.6-3.1,3.2-6.5,1.6-10.3c-0.1-0.2-0.2-0.2-0.4-0.3c-0.4-0.1-0.8-0.2-1.2-0.2c-1.9,0.3-3.5,1.2-5,2.7c-4-0.6-7.2-0.1-10,1.6
		c-0.2-1-0.5-2-0.9-3C57,25,56.9,25,56.7,24.9c-0.9-0.1-1.8-0.2-2.7-0.3c-4.2,0.5-7.4,2.5-9.3,5.9c-0.1,0-0.1-0.1-0.1-0.1
		c0-0.5,0.2-0.8,0.5-1.1c0-0.4,0-0.8,0-1.2c0-0.4,0-0.9,0-1.3c-0.2,0-0.4,0-0.6,0c0.9-3.6,2.5-6.8,5-9.7c2.3,1.2,5,1.1,8.1-0.2
		c0.1-0.1,0.1-0.2,0.2-0.2c0.2-0.4,0.5-0.8,0.7-1.2c0.1-0.1,0.2-0.2,0.3-0.4c0-0.1,0-0.2-0.1-0.3c-0.9-4.8-3.9-7.2-9.2-7.3
		c-0.9,1-1.5,2.4-1.6,4c0,0.8,0,1.6,0,2.5c-0.2,0.1-0.4,0.3-0.6,0.5c-2.6,2.6-4.3,5.2-5.2,8c-0.2-1.5-0.6-2.9-1.2-4.3
		c0.2,0.1,0.3,0.1,0.5,0.1c0-0.2,0-0.3-0.1-0.4c-0.3-1.1-0.9-2.1-1.5-3c0.5-1,0.7-2.2,0.6-3.6C40.3,10.1,40.2,9,40,7.9
		c-0.2-0.1-0.5-0.2-0.8-0.3C37.8,7.4,36.4,7.2,35,7c-0.3,0.3-0.8,0.5-1.4,0.8c-2.6,0.9-4.5,2.5-5.8,4.8c0,0.2,0,0.3,0,0.4
		c0,0.7,0,1.3,0.1,1.9c0,0.1,0,0.2,0.1,0.4c2.3,2.2,5,3.4,8.1,3.6c0.8,1,1.3,2.1,1.4,3.4c0.2,1.2,0.3,2.3,0.6,3.3
		c-0.3-0.1-0.6-0.2-0.9-0.3c0.7,1.1,1.2,2.4,1.5,3.7c0,0-0.1,0-0.2,0c0,0.1,0,0.1-0.1,0.2c-2.9-3.1-6.5-4.6-10.9-4.6
		c-0.6,0.8-1.1,1.7-1.4,2.7c-1.5-1.4-3.3-2.1-5.6-2l0,0c-1.3-2.3-3.2-4-5.5-5.2c-0.1,0.1-0.2,0.3-0.4,0.4c-0.7,0.6-1.5,1.2-2.2,1.6
		c-0.5,0.9-0.8,1.8-1,2.7c-0.2,2.2,0.2,4.4,1.1,6.3c0.1,0.2,0.2,0.3,0.4,0.4c0.2,0.3,0.5,0.5,0.7,0.8c1.9-0.5,3.5-1.3,4.7-2.5
		c0.2,0.7,0.5,1.3,0.7,2c-0.8,1.5-1.8,2.8-3.1,4.1c2.2,0.6,3.9,1.8,5,3.6c0,0,0-0.1,0-0.2s0.1-0.1,0.2-0.2c0.1,0.3,0.1,0.5,0.1,0.8
		c0.1,0.1,0.1,0.2,0.1,0.3c0,0,0,0.1,0.1,0.2c0,0.1,0,0.2,0,0.4c-0.1,0.2-0.1,0.5-0.1,0.7c-0.2,0.1-0.3,0.1-0.5,0.2c0,0,0,0.1,0,0.2
		c0.1,0,0.2,0,0.4,0c-0.3,1.1-0.9,2.1-1.8,3c0.3,0.1,0.7,0.2,1.1,0.3c-3.3,3.6-5.6,7.9-7,13c-2.3,9,0.2,15.7,7.6,20.1
		c0.4,0.2,0.8,0.4,1.2,0.7c-0.1,0-0.2,0-0.3,0.1c-0.3,0.2-0.6,0.4-0.9,0.8c0,0-0.1,0.1-0.1,0.2c0,0.3,0,0.5,0,0.8
		c0,0.1,0.1,0.2,0.1,0.3c0.1,0,0.2,0.2,0.3,0.2c-2.2-0.6-4.4-0.8-6.9-0.6c-1.3,0.4-2.6,0.7-3.9,1.1c-1.2,0.2-2.9,1.3-5,3.3
		c-2.2,2-3.5,3.4-4,4.1c-0.7,0.8-0.9,1.8-0.5,2.8c0.1,0.3,0.2,0.5,0.3,0.8c0.5,0.1,1.1,0.2,1.7,0.2c-1.4,0.3-2.5,1-3.1,2.2
		c0.1,0.1,0.2,0.2,0.2,0.1c2.6-0.2,4.1-0.9,4.3-2.1c1.1,0.2,2.2,0.3,3.4,0.4c-1.4,0.4-2.6,1-3.8,1.9c0.1,0.2,0.1,0.2,0.1,0.2
		c2.7-0.4,4.6-1,5.7-2c1.2,0.1,2.4,0.1,3.6,0.2c-1.2,0.4-2.4,1-3.5,1.8c0.4,0.6,1.1,0.7,1.9,0.3c0,0,0.2-0.1,0.3-0.1
		c2-0.6,3.5-1.2,4.5-2c1.3,0,2.6,0,3.9,0c-1,0.5-2,1-3,1.6c0.3,0.2,0.6,0.2,0.8,0.2c1.9-0.6,3.8-1.3,5.6-2c1.8-0.2,3.5-0.4,5.3-0.6
		c-1.7,0.8-3.2,1.7-4.8,2.6c0.1,0.1,0.2,0.2,0.3,0.2c0.4,0.2,0.8,0.3,1.2,0.3c0.1-0.2,0.3-0.3,0.4-0.3c2.7-1.3,5.5-2.5,8.3-3.7
		c0.8-0.1,1.7-0.3,2.6-0.5c0-0.2,0-0.4-0.1-0.6c1.9-0.8,3.7-1.6,5.6-2.4c-0.2-0.2-0.4-0.3-0.6-0.3l0,0c1.5-0.8,3-1.4,4.4-1.9
		c0.4-0.1,0.8-0.2,1.1-0.3c-0.3,0.4-0.6,0.9-0.8,1.5c-5.4,1.8-9.8,4.5-13.1,7.8c0.2,0.1,0.4,0.1,0.6,0c4.8-2.4,8.9-4.8,12.3-7.4
		c-0.1,0.5-0.3,1-0.3,1.6c0.6,0.4,1.2,0.8,1.9,1.1c-3.5,1-6.1,2.7-7.9,5.1c0.2,0.1,0.3,0.1,0.5,0c2.7-1.7,5.6-3.2,8.7-4.5
		c0.9,0.3,1.8,0.6,2.8,0.8c-1.9,1-3.6,2.1-5.3,3.3l0.1,0.2c2.4-0.8,4.7-1.9,6.8-3.3c1.3,0.5,2.6,0.8,4,1c-0.7,0.3-1.5,0.6-2.4,0.9
		c0,0.1-0.1,0.1-0.1,0.2c-0.8,0.4-1,0.9-0.7,1.5c0.8,0.2,1.6,0,2.4-0.4c1.7-0.8,2.7-1.5,3.1-2.1c0.7,0.1,1.4,0.1,2.1,0
		c0.7,0.1,1.5,0.2,2.3,0.2c-0.8,0.5-1.6,1.1-2.2,1.7v0.3c2.4-0.3,3.7-1,4-1.9c1.5,0,3,0,4.5-0.1c-0.5,0.4-1,0.8-1.2,1.3
		c0.2,0.1,0.4,0.2,0.7,0.1c1.7-0.3,2.9-0.9,3.8-1.7c1.4-0.2,2.9-0.4,4.4-0.7c-1.1,0.6-2,1.5-2.7,2.5c0.7,0.5,1.4,0.4,2.4-0.1
		C80.7,93.9,82.2,92.8,82.8,91.8z M54.9,10.9c0.6,0.4,1.2,1,1.7,1.6c0.1,0.3,0.1,0.5,0.2,0.8c0.1,0.2,0.2,0.5,0.3,0.7
		c0.1,0.2,0.1,0.3,0.2,0.4c-2.2,1-4.3,1.6-6.5,2c1.3-0.4,2.1-1.2,2.3-2.3c-0.1,0-0.2,0-0.3,0.1c-1.7,0-3,0.7-3.8,2
		c-2.4,2.4-4.2,5.2-5.5,8.3c0,0.5-0.1,1-0.2,1.4c-0.5,1.5-0.6,2.6-0.2,3.6c-0.3-0.1-0.5-0.2-0.8-0.2c0-0.1,0-0.1,0-0.2
		c0.5-5.5,2.7-10.1,6.6-13.9c0.1,0.1,0.2,0.1,0.4,0.1c0-0.2,0-0.3,0-0.4c0.2-0.2,0.5-0.5,0.8-0.8c0,0,0,0-0.1,0
		c0.3-0.5,0.5-0.9,0.6-1.5c-0.5,0.2-1,0.4-1.3,0.6c0-0.7,0.1-1.4,0.3-2c0.1-0.5,0.1-1,0-1.6c0.1-0.1,0.1-0.1,0.2-0.2
		c0.7-0.1,1.4-0.2,2.1-0.3C52.9,9.6,53.9,10.2,54.9,10.9z M38.7,13.1c-0.1,0.2-0.1,0.4,0,0.6c-0.4-0.3-0.8-0.6-1.2-0.8L37.4,13
		c0.3,0.6,0.6,1.2,1,1.7c1,4,1.8,8,2.5,11.9c-0.2-0.1-0.5-0.2-0.7-0.2c0.3,0.9,0.5,1.7,0.7,2.6c-0.4-0.1-0.9-0.1-1.4-0.1
		c0.4-1,0.5-2.1,0.4-3.3c-0.2-2.2-0.6-4.3-1.4-6.3c0-0.1-0.1-0.2-0.1-0.3c-0.1-0.1-0.1-0.2-0.2-0.3c-1-1.5-2.2-2.9-3.6-4.2l-0.2,0.1
		c0.2,0.7,0.6,1.4,0.9,2c-0.1,0.1-0.2,0.1-0.3,0.1c-0.3,0.1-0.6,0.1-0.9,0.2c-0.6-0.3-1.2-0.5-1.9-0.7c-0.3-0.1-0.7-0.2-1.1-0.3
		c-0.5-0.6-1.1-1.2-1.7-1.8c0-0.1-0.1-0.2-0.1-0.3c2-3.9,5.2-5.5,9.6-4.8C38.9,10.4,38.8,11.8,38.7,13.1z M51.3,31.1
		c-0.1-0.1-0.2-0.2-0.3-0.2c-0.7-0.3-1.3-0.5-2-0.6c-0.1,0-0.3,0.1-0.5,0.1c-1.6,0.1-2.8,0.7-3.4,1.9c0,0,0,0-0.1,0
		c0,0-0.1,0-0.2,0.1c-0.1-0.4-0.1-0.8-0.1-1.2c0.1,0,0.1,0,0.1-0.1c-0.1,0-0.1,0-0.1,0c0-0.1,0-0.2,0-0.3c3.3-2.7,7.2-4.1,11.7-4.3
		c0.1,0.8,0.2,1.5,0.3,2.3c0.1,1.2,0,2.3-0.1,3.5c-0.1,0.1-0.1,0.2-0.1,0.4c-0.3,1.5-0.8,2.9-1.6,4.3c-0.4,0.3-0.8,0.5-1.1,0.8
		c-0.2,0.1-0.3,0.2-0.4,0.4c-0.8,0.1-1.6,0.3-2.4,0.7c-0.3-0.1-0.6-0.2-0.9-0.4c-2.1-0.9-3.9-2.3-5.3-4.1c-0.1,0-0.1,0-0.1,0
		c0-0.5,0-0.9,0-1.4c0.8,0.2,1.6,0.3,2.3,0.4c0.6,0.5,1.2,1,1.8,1.4c0.8,0.5,1.5,0.5,2.1-0.2c0.1-0.6-0.3-1-1.2-1.1
		c-0.8-0.1-1.4-0.5-1.9-1.1c-0.5,0-0.9,0-1.3-0.1C48.1,31.7,49.7,31.3,51.3,31.1z M45.1,36.6v-0.1c1.5,2.3,3.9,3.8,7.3,4.4
		c0.1-0.1,0.2-0.2,0.3-0.2c0.2-0.2,0.4-0.3,0.5-0.4c0.6,0.4,1.1,0.7,1.6,1.1c-0.3-0.1-0.5-0.1-0.8-0.1c3,1.7,6,4,8.9,6.9
		c4.3,4.3,6.1,9.2,5.3,14.8c-0.7,5.5-3.8,10.5-9.1,14.9c-5.3,4.5-12.8,6-22.5,4.4c-1-0.2-2-0.4-3-0.6c0.2,0,0.3,0,0.4-0.1
		c0.5,0,1-0.1,1.5-0.2c0.9-0.7,1.9-1.2,3.1-1.6c2.6-0.7,5.2-0.5,7.8,0.7c0,0.1,0.1,0.1,0.1,0.1c0.1,0.1,0.2,0.2,0.3,0.3
		c0.1,0.1,0.2,0.2,0.3,0.4c1.2,0.1,2.3,0.1,3.4,0c0.2,0,0.4-0.1,0.5-0.2c0.6-0.2,1.1-0.6,1.5-1.1c0.3-0.2,0.5-0.5,0.8-0.7
		c0.1-0.2,0.2-0.3,0.3-0.4c0-0.1,0-0.2,0.1-0.4c0.7-1.9,0.5-3.8-0.5-5.6c-0.4-0.6-0.6-1.2-0.7-1.9c-0.1-0.1-0.2-0.2-0.4-0.4
		c-3.3-3.4-7.5-4.9-12.6-4.4c-2.3,0.4-4.5,1.5-6.4,3.1c-1.5,1.2-2.7,2.6-3.7,4.1c-0.7,2.1-0.3,4,1,5.7c0.7,0.7,1.4,1.5,2.3,2.3
		c0.2,0.1,0.4,0.2,0.7,0.3c-1.4-0.3-2.6-0.7-3.8-1.1c-0.3-0.1-0.6-0.2-0.8-0.3s-0.3-0.1-0.3-0.1c-0.9-0.3-1.7-0.6-2.5-1
		c-0.1-0.1-0.2-0.1-0.3-0.1c-4.5-2.1-8.1-5-11-8.8c-0.6-1.7-0.8-3.5-0.7-5.4c0.8-9.8,4.6-17.4,11.4-22.9h0.1c0,0,0,0-0.1,0
		c0.1-0.1,0.2-0.2,0.2-0.2c1.3-0.7,2.5-1.3,3.8-1.9c1,0.9,2.2,1.4,4,1.5c0.1-0.1,0.2-0.1,0.3-0.2c3-0.9,4.9-2.4,5.7-4.3
		c2-0.4,4-0.5,5.9-0.1C45.2,36.7,45.2,36.7,45.1,36.6z M39.3,31.1c0.3-1,1.1-1.1,2.4-0.3c0.5,0.3,1,0.6,1.6,0.8c0,0.4,0,0.8,0,1.2
		c0.1,0.5,0,1-0.3,1.5c-0.1,0.1-0.2,0.2-0.2,0.3v0.1c-1-0.1-1.9-0.2-2.9-0.2c-0.1,0-0.4-0.1-0.6-0.2v-0.2c0-0.3,0-0.7,0-1.1
		c0-0.5,0-1,0-1.5C39.3,31.4,39.3,31.3,39.3,31.1z M34.4,28.5c1.3,1,2.5,1.6,3.5,1.6c-0.2,0.5-0.3,1.2-0.4,1.8
		c-1.7-1.5-3.9-2-6.5-1.6l-0.4,0.1c1.9,0.6,3.7,1.2,5.6,1.8c-0.3-0.1-0.7,0-1.2,0.1c-0.7,0.3-1.4,0.8-2.1,1.3
		c-0.1,0.2-0.2,0.3-0.3,0.5l0.1,0.2c1.7-0.7,3.4-1,4.9-0.8c0.1,0.4,0.1,0.8,0.2,1.1c-0.1,0-0.2,0-0.3,0c-0.1,0.1-0.2,0.1-0.2,0.2
		c0.2,0,0.4,0.1,0.6,0.2c0.1,0.4,0.2,0.8,0.2,1.1c0,0.2,0,0.3,0,0.4c-1.7,1.4-3.7,2.3-5.8,2.9c-1-0.5-1.9-1.1-2.7-1.9
		c-0.1,0-0.2,0-0.3,0c-0.1-0.1-0.2-0.1-0.3-0.2c-0.1,0-0.2-0.1-0.4-0.3c-1.1-1.9-1.6-4-1.5-6.4c0-1.4,0.4-2.8,0.9-4.1
		c0.1-0.1,0.1-0.2,0.1-0.2c0.8-0.1,1.5-0.2,2.3-0.3C31.8,26.7,33.1,27.5,34.4,28.5z M73.8,25.1c0,0.2,0.1,0.3,0.1,0.4
		c1,3.1,0.4,5.8-1.5,8.3c-0.9-0.3-1.7-0.8-2.5-1.5c-0.1-0.2-0.1-0.3-0.2-0.4c-0.4-0.9-1.1-1.6-1.9-2.3c-3,0.2-5.9,0.5-8.8,0.9
		c-0.1,0.1-0.3,0.1-0.5,0.2c0-0.4,0.1-0.8,0.2-1.2c-0.2,0-0.3,0.1-0.4,0.1c-0.1-0.3-0.1-0.8-0.2-1.2c2.9,0.3,6.7-0.1,11-1.1
		C70.4,26,71.9,25.3,73.8,25.1z M65.3,31c-1,1.7-1.1,3.5-0.4,5.4c-2-1.6-4.4-2.2-7.1-2.1c0-0.2,0.1-0.4,0.2-0.6
		c0.2-0.1,0.4-0.1,0.6-0.1c0,0,0,0,0-0.1c0,0,0-0.1,0-0.2c-0.2,0.1-0.4,0.1-0.6,0.2c0-0.2,0-0.5,0.1-0.7c0.3-0.3,0.6-0.7,0.9-1
		C61,31,63.2,30.8,65.3,31z M57.2,35.9c0.2-0.4,0.3-0.7,0.4-1.1c2.3,0.3,4.4,1,6.4,1.8c-0.8,0.2-1.8,0.6-3,1.2
		c-0.2,0.3-0.4,0.7-0.5,1.1c-0.1,0.9-0.2,1.8-0.2,2.7c-0.3-0.2-0.5-0.4-0.6-0.6c-0.4,0.2-0.7,0.5-0.8,0.8c-1.1-1.1-2.4-2.1-3.7-3
		c0.1,0,0.2-0.1,0.3-0.2c0.4-0.3,0.7-0.7,0.9-1.1C56.4,36.9,56.7,36.3,57.2,35.9z M59.9,42.7c0.1-0.1,0.2-0.2,0.4-0.2
		c0,0.2,0,0.5,0,0.7C60.2,43.1,60,42.9,59.9,42.7z M15.1,21.9c0.3,0.2,0.6,0.4,0.8,0.5c1.3,0.8,2.3,1.9,2.9,3.1
		c-0.2,0-0.5,0.1-0.8,0.1s-0.6,0.1-0.6,0.2h0.1c1.9,0,3.5,0.5,4.9,1.4c0.2-0.1,0.3-0.1,0.5-0.2c0.9,0.8,1.9,1.3,2.8,1.6
		c-0.1,0.3-0.1,0.7-0.1,0.9c-0.1,0-0.2-0.1-0.3-0.2c0,0.3,0,0.5,0,0.7c0,0,0.1,0,0.2,0c0,0.3,0,0.5,0,0.8c-1.1-1.3-2.5-2.1-4.2-2.5
		c-1,0-2,0-3.1-0.1c0,0,0,0-0.1,0c0,0.1,0,0.1,0,0.1H18c-0.1,0-0.2,0.1-0.2,0.2l0,0c-1.3,1-2.7,1.5-4.2,1.6
		c-0.2-0.7-0.5-1.4-0.7-2.2c-0.6-1.6-0.4-3.3,0.6-4.9C14.1,22.7,14.6,22.3,15.1,21.9z M25.1,37.3c0.4-0.2,0.8-0.3,1.2-0.3
		c0.7,0.3,1.3,0.7,2,1.2c-0.7,0.4-1.3,0.8-2,1.2c-0.4,0.2-0.8,0.5-1.1,0.8c-0.7,0.7-1.3,1.3-2,1.6c-0.4,0.4-0.8,0.8-1.1,1.2
		c0.1-0.4,0.3-0.8,0.4-1.2c0,0,0.1,0,0.2,0c0-0.3-0.1-0.6-0.1-0.9c0-2.1-1.2-4-3.8-5.5c2.4-0.1,4.6,0.3,6.6,1.1
		C25.3,36.8,25.2,37,25.1,37.3z M25.3,34.3c0.2,0,0.3,0,0.3,0c0.2,0.7,0.5,1.5,0.9,2c-2.1-1.5-4.6-2.2-7.5-2c1.3-1.9,1.4-3.5,0.2-5
		c0.5,0.2,1.1,0.3,1.7,0.2c1.2,0.6,2.3,1.5,3.1,2.6c0.3,0.4,0.6,0.7,0.9,0.8c-0.1,0.2-0.1,0.4-0.1,0.5C25,33.6,25.2,33.9,25.3,34.3z
		 M30.8,73.8c0.1-0.2,0.2-0.3,0.3-0.4c2.2-2.9,5-4.8,8.4-5.7c7.3-0.7,11.8,2.3,13.4,8.8c-0.1,0.3-0.2,0.5-0.3,0.8
		c-0.7,1.9-2.2,2.8-4.5,2.7c-0.3-0.2-0.7-0.4-1.1-0.6c0.1-0.2,0.1-0.5,0.1-0.9C47,78.3,47,78,47,77.8c-0.1-0.3-0.1-0.5-0.1-0.8
		c-0.2-0.1-0.3-0.2-0.5-0.4c-1.3-1.2-2.9-1.8-4.9-1.8c-0.9,0.1-1.7,0.4-2.5,0.9c-1.3,0.7-2.1,1.8-2.2,3.2c-0.6,0.3-1.2,0.6-1.8,1
		c-0.4,0-0.8,0-1.2-0.1c-0.5,0-0.9-0.1-1.3-0.2c-0.1,0-0.2-0.1-0.3-0.2c-0.2-0.1-0.6-0.3-0.8-0.4c-0.2-0.1-0.4-0.2-0.5-0.4
		c-0.2-0.2-0.3-0.5-0.3-0.7c0-0.4-0.1-0.8-0.3-1.2c-0.2-0.2-0.2-0.4-0.3-0.7c0.1-0.1,0.1-0.2,0.3-0.3c0.3-0.4,0.4-0.7,0.3-1.2
		C30.6,74.3,30.7,74,30.8,73.8z M2.1,91c0.3-0.8,0.7-1.5,1.4-2.1c7.4-7.5,15.7-8.7,25-3.6c0.8,0.7,1.7,1.1,2.8,1.5
		c0-0.2-0.1-0.3-0.2-0.3c-0.5-0.6-1-1.2-1.7-1.6c0.1-0.1,0.1-0.1,0.1-0.2c-0.7-0.2-1.4-0.6-2.1-1.1c-0.1,0-0.3,0-0.3-0.1
		c-0.2-0.1-0.3-0.1-0.2,0.1c0,0,0.1,0.1,0.2,0.3c-1.7-1.1-3.4-1.9-5.3-2.4c0,0,0.1-0.1,0.2-0.2c-0.1-0.6,0-0.9,0.5-0.9
		c0.7-0.1,1.2-0.2,1.8-0.4c1.6,0.8,3.2,1.5,4.8,2c0.4,0.2,0.9,0.4,1.4,0.5c0.4,0.5,0.9,1.1,1.3,1.7c-1.3-1.2-2.9-1.9-4.8-2.3V82
		c0.1,0.4,0.3,0.6,0.6,0.9c0.2,0.1,0.5,0.2,0.8,0.3c0.3,0.2,0.7,0.4,1.2,0.4c0,0.1,0,0.1,0,0.1c0.2,0,0.3,0,0.4,0.1
		c0.3,0.2,0.5,0.5,0.6,0.8c0,0,0,0,0.1,0c0.1,0.1,0.2,0.1,0.4,0.2c0,0,0.1,0.1,0.2,0.2c-0.2,0-0.2,0-0.3,0c0.8,1.2,1.8,2,2.7,2.5
		c0.1,0.1,0.2,0.3,0.3,0.5c-0.2,0-0.3,0.1-0.5,0.1c0,0.5,0.2,0.8,0.5,1.2c0.4,0.3,0.7,0.7,1.1,1.1c0,0.1,0,0.1,0,0.1
		c-0.3,0.1-0.7,0.3-1,0.5c-2.1,0.2-4.2,0.5-6.3,0.6c-0.3-0.1-0.5-0.1-0.8-0.2c0,0.1,0,0.1,0,0.1c-0.4,0.1-0.6,0.2-1,0.3
		c-7,0.6-14.2,0.8-21.4,0.7C3.4,92.5,2.6,92,2.1,91z M32.8,83.1c0.2,0.1,0.4,0.1,0.6,0.2c0,0.1,0,0.3-0.1,0.4
		c0.3,0.2,0.5,0.2,0.7,0.4c0-0.2,0-0.5,0-0.7c4.2,0.9,8.5,1.1,12.9,0.5c0.5-0.1,1.1-0.2,1.7-0.2c0.8-0.2,1.6-0.3,2.4-0.5
		c-0.7,0.7-1.2,1.4-1.6,2.2c-0.7,0-1.5,0-2.2-0.2c-0.1,0.1-0.1,0.1-0.1,0.1s0,0-0.1,0c-0.4,0.2-0.8,0.5-1.3,0.6c-0.1,0-0.1,0-0.2,0
		c0,0,0,0-0.1,0.1c-0.8,0.2-1.8,0.3-2.9,0.2c-3-0.1-5.7-0.2-8.1-0.3c-0.1-0.3-0.2-0.7-0.2-1.1c-0.2,0.1-0.3,0.1-0.4,0.1
		C33.5,84.3,33.2,83.7,32.8,83.1z M46,78.5c0,0.2,0,0.3,0,0.4c-2.6-1.3-5.3-1.4-8-0.5c0.2-0.3,0.3-0.7,0.4-1
		c2.6-1.7,5.1-1.6,7.5,0.4C45.9,78,45.9,78.3,46,78.5z M52,86.3c0.1,0.1,0.2,0.2,0.2,0.1c0.7-0.1,1.2-0.2,1.7-0.3c0,0.1,0,0.2,0,0.3
		c11.3-5.9,21.2-4.6,29.9,3.6c-8.7,2.1-17.6,2.8-26.5,2c-3.7-0.7-6.7-1.8-9.2-3.1c0-0.1,0.1-0.2,0.1-0.3c0.2-0.3,0.4-0.5,0.6-0.8
		c0.2,0.4,0.5,0.2,0.8-0.5c0.6-1.4,1.5-2.4,2.8-2.9c1-1.5,2.4-2.5,4.3-3.2c0.1-0.1,0.2-0.1,0.3-0.2c-0.1,0.4-0.4,0.8-0.8,1.2
		c0.2-0.2,0.3-0.3,0.5-0.5c1.2-0.5,2.3-1,3.3-1.7c0.2,0.3,0.5,0.5,0.9,0.8c0,0.1,0,0.2,0,0.2c-0.3,0.3-0.5,0.6-0.6,0.9
		c-1.2,0.2-2.3,0.6-3.4,1c-0.8,0.2-1.5,0.6-2,1.1c0,0,0,0-0.1,0c0-0.1,0-0.3-0.1-0.5c-0.3,0.2-0.6,0.4-0.9,0.7
		c0.1,0,0.2,0.1,0.2,0.2C53.2,84.8,52.5,85.4,52,86.3z M34.5,86.9c0-0.1,0-0.2,0-0.4c0,0,0,0,0-0.1c0.6,0.2,1.3,0.4,2,0.5
		c-0.5,0.3-0.9,0.6-1.3,1C35,87.5,34.8,87.2,34.5,86.9z M42.2,87.3c-0.7,0.3-1.2,0.7-1.8,1.1c-0.4,0.2-0.9,0.4-1.4,0.5
		c-0.8,0.3-1.6,0.6-2.3,1c-0.3-0.5-0.6-0.8-0.9-1.1c-0.1-0.1-0.1-0.2-0.1-0.2c0.9-0.3,1.8-0.8,2.6-1.4
		C39.6,87.4,40.9,87.4,42.2,87.3z"/>
	<path style="fill:#BE3689;" d="M41.1,48.5c-2.1-1.9-4.3-2.6-6.5-2.1c-0.4-0.3-1.1-0.5-2-0.6c0-0.2,0-0.3,0-0.4
		c0.2-0.7,0.1-1.2-0.3-1.5c-0.4-0.1-0.7,0-0.7,0.3c-0.2,0.9-0.1,1.8,0.3,2.6c0.2,0.1,0.4,0.3,0.6,0.4c-0.3,0.2-0.6,0.4-1,0.7
		c-0.6-0.3-1.4-0.5-2-0.9c0-0.1,0-0.2,0-0.4c0.1-0.4-0.1-0.7-0.4-1.1c-0.1,0.1-0.2,0.1-0.3,0.2c-0.4,0.8-0.4,1.5,0.1,2.2
		c0.4,0.4,0.9,0.8,1.4,0.9c-0.2,0.1-0.2,0.2-0.4,0.4c-1,0-1.9-0.5-2.6-1.3c-0.5-0.2-0.7,0-0.7,0.4c0,0.9,0.5,1.5,1.5,1.8
		c0.3,0.1,0.5,0.1,0.7,0.2c-4.5,4.7-4.4,9.6,0.3,14.5c0.4,0.1,0.8,0.2,1.2,0.3c0.3,0.1,0.7,0.1,1,0.2c3.9,0.5,7.3-0.5,10.3-2.9
		c2.6,2.3,5.6,2.8,9.1,1.4c5.4-2,7.2-5.7,5.4-10.9c-0.1-0.1-0.2-0.3-0.3-0.4c-0.8-1.5-1.8-2.8-3-3.7c0.2-0.1,0.4-0.2,0.6-0.3
		c0.1-0.1,0.2-0.2,0.4-0.4c0.8-0.8,1-1.6,0.4-2.5c0,0,0,0-0.1-0.1l0,0c-0.7,1.1-1.6,1.8-2.7,2.2c-0.4-0.2-0.8-0.4-1.1-0.6
		c0.4-0.4,0.8-0.9,1.2-1.3c0-0.2,0-0.3,0-0.4c0.1-0.7,0-1.3-0.4-1.9h-0.2c-0.2,1.8-1.1,2.8-2.4,3c-0.1,0-0.1,0-0.1,0
		c0-0.1,0-0.2,0.1-0.2c0.5-1.2,0.6-2.3,0.3-3.4c-0.9,0.5-1.4,1.6-1.8,3.2c0,0,0,0,0,0.1C46,46,45.1,46,44,46c-0.2,0.2-0.6,0.3-1,0.5
		c-0.8,0.4-1.3,1-1.7,1.9C41.3,48.4,41.2,48.5,41.1,48.5z M42.9,49.7c0.2-0.6,0.4-1.1,0.7-1.6c4.9-0.6,8.5,1.2,10.9,5.7
		c0.2,0.6,0.3,1.3,0.4,1.9c0.5,3-0.7,5.2-3.6,6.7c-3.7,1.2-6.8,0.5-9.4-2c-0.3,0.1-0.6,0.2-1,0.1c-6.5,5.3-11.3,4.5-14.3-2.4
		c0-0.1,0-0.2,0-0.3c0.8-4.8,3.6-8.2,8.4-10.2c0.6,0,1.2,0,1.9-0.1c0.2,0.2,0.4,0.3,0.6,0.4c1.2,0.9,2.3,1.7,3.3,2.4
		c0.1,0,0.2,0,0.2,0c0.5,0.1,1,0.3,1.4,0.4C42.7,50.4,42.8,50,42.9,49.7z"/>
	<path style="fill:#BE3689;" d="M51.1,55.5c0.1-0.6,0-1.2-0.2-1.9c-0.1-0.1-0.2-0.2-0.3-0.3c-1-0.9-2.2-1.3-3.6-1
		c-0.5,0-1,0.1-1.5,0.2c-0.1,0-0.2,0.1-0.4,0.1c-0.5,0.6-0.9,1.2-1.2,2c-0.4,1.4-0.3,2.8,0.5,4c1.1,0.7,2.3,1.1,3.6,1
		c0.4-0.2,0.8-0.5,1.3-0.7c0.3-0.3,0.7-0.5,1.1-0.8C50.8,57.4,51.1,56.5,51.1,55.5z M49.9,54.3c0,0.2,0.1,0.5,0.1,0.7
		c0.1,0.5,0.1,1,0.1,1.5c0,0.2-0.1,0.3-0.2,0.4c-0.1,0.3-0.2,0.5-0.3,0.7c-0.8,0.5-1.8,0.9-2.7,1.2c-0.7-0.2-1.3-0.5-1.9-0.9
		c0-0.1-0.1-0.2-0.2-0.3c-0.3-0.5-0.5-1-0.4-1.6c0-0.1,0-0.2,0-0.3c0.2-0.9,0.7-1.7,1.4-2.3C47.3,53,48.7,53.3,49.9,54.3z"/>
	<path style="fill:#BE3689;" d="M47,54.8c-0.2,0-0.3,0.1-0.4,0.4c-0.1,0.5-0.1,1,0.2,1.4c0.1,0.2,0.3,0.2,0.4,0.2
		C49,56.6,48.9,55.9,47,54.8z"/>
	<path style="fill:#BE3689;" d="M35.2,55.1c-0.6,0.6-0.7,1.1-0.3,1.7c0.6,0.1,1.2,0.2,1.9,0.3c0-0.1,0.1-0.2,0.1-0.3
		c0.2-1.2-0.2-1.9-1.4-2C35.4,54.8,35.3,54.9,35.2,55.1z"/>
	<path style="fill:#BE3689;" d="M44.3,82.5l0.2-0.2c0.1,0,0.2,0,0.4,0.1v-0.1c-0.2-0.2-0.3-0.3-0.4-0.4c-1.1-0.9-2.4-1.3-4-1
		c-0.2,0.1-0.3,0.3-0.3,0.5c0.3,0.7,1.1,0.8,2.4,0.4C43.1,82.3,43.7,82.5,44.3,82.5z"/>
	<path style="fill:#BE3689;" d="M44.5,81.3l-0.2,0.2c0.2,0,0.3,0,0.4-0.1c0.1,0,0.1,0,0.2,0C44.7,81.3,44.6,81.3,44.5,81.3z"/>
	<path style="fill:#BE3689;" d="M18.8,41.9c0,0.1,0,0.2,0,0.2l0,0C18.8,42.1,18.8,42,18.8,41.9z"/>
	<g>
		<path style="fill:#BE3689;" d="M89.9,9.4c-0.1-1.2-0.2-2.5-0.3-3.8c-0.1-0.1-0.2-0.2-0.3-0.3C86.4,1.9,82.6,0.2,78,0
			c-0.9,0.4-2,0.8-3.3,1c-2.7,0.6-4.8,1.9-6.3,4c-0.5,1.6-0.7,3.2-0.7,4.9c-0.2,4.1,1.6,7.3,5.2,9.4c-0.7,1-1.5,2-2.4,3
			c-0.5,0.5-0.6,1.2-0.2,1.8c6.2-2.5,12.5-5.5,18.7-9.1C89.8,13.2,90,11.4,89.9,9.4z M77.6,18.3c0,0.1-0.1,0.2-0.3,0.3
			c-1.4,1.2-2.4,1.7-3.2,1.5c0.2-0.2,0.4-0.4,0.6-0.7c0.1-0.1,0.2-0.3,0.2-0.4c0.1-0.3,0.2-0.5,0.2-0.7c-0.3-0.5-0.8-1-1.5-1.3
			c-5.3-3.2-6.3-7.4-3-12.6c0.2-0.1,0.4-0.2,0.6-0.3c2.2-1.2,4.5-2,6.9-2.5c4.1,0.2,7.5,1.8,10.3,5C89.5,14,85.9,17.9,77.6,18.3z"/>
		<path style="fill:#BE3689;" d="M77.5,3.8c-0.9,0.4-1.2,1.2-0.8,2.3c0.5,1.4,0.8,2.9,0.8,4.4c0.1,0.5,0.3,0.8,0.8,1
			c0.2,0,0.4,0.1,0.6,0c0.5-0.8,1-1.6,1.3-2.5c0.5-1.5,0.7-2.9,0.6-4.2c0-0.2,0-0.2-0.1-0.2C79.7,4.2,78.6,4,77.5,3.8z"/>
		<path style="fill:#BE3689;" d="M79.7,14.4c-0.1-0.3-0.1-0.5-0.1-0.8c-0.1-0.1-0.2-0.2-0.4-0.2c-0.4-0.1-0.8-0.2-1.2-0.3
			c-0.4,0.1-0.7,0.3-0.8,0.7c-0.1,0.4-0.2,0.7-0.2,1.1c0.5,1.2,1.3,1.5,2.5,0.6C79.7,15.2,79.7,14.8,79.7,14.4z"/>
	</g>
</g>
</svg>
