<?xml version="1.0" encoding="iso-8859-1"?>
<!-- Generator: Adobe Illustrator 12.0.1, SVG Export Plug-In . SVG Version: 6.00 Build 51448)  -->
<!DOCTYPE svg PUBLIC "-//W3C//DTD SVG 1.1//EN" "http://www.w3.org/Graphics/SVG/1.1/DTD/svg11.dtd" [
	<!ENTITY ns_svg "http://www.w3.org/2000/svg">
	<!ENTITY ns_xlink "http://www.w3.org/1999/xlink">
]>
<svg  version="1.1" id="Layer_1" xmlns="&ns_svg;" xmlns:xlink="&ns_xlink;" width="89.924" height="95.34"
	 viewBox="0 0 89.924 95.34" style="overflow:visible;enable-background:new 0 0 89.924 95.34;" xml:space="preserve">
<g>
	<path style="fill:#BE3689;" d="M89.6,5.6c-0.1-0.1-0.2-0.2-0.3-0.3C86.4,1.9,82.6,0.2,78,0c-0.9,0.4-2,0.8-3.3,1
		c-2.7,0.6-4.8,1.9-6.3,4c-0.5,1.6-0.7,3.2-0.7,4.9c-0.2,4.1,1.6,7.3,5.2,9.4c-0.7,1-1.5,2-2.4,3c-0.5,0.5-0.6,1.2-0.2,1.8
		c6.2-2.5,12.5-5.5,18.7-9.1c0.8-1.8,1-3.6,0.9-5.6C89.8,8.2,89.7,6.9,89.6,5.6z M74.7,19.4c0.1-0.1,0.2-0.3,0.2-0.4
		c0.1-0.3,0.2-0.5,0.2-0.7c-0.3-0.5-0.8-1-1.5-1.3c-5.3-3.2-6.3-7.4-3-12.6c0.2-0.1,0.4-0.2,0.6-0.3c2.2-1.2,4.5-2,6.9-2.5
		c4.1,0.2,7.5,1.8,10.3,5c1.1,7.4-2.5,11.3-10.8,11.7c0,0.1-0.1,0.2-0.3,0.3c-1.4,1.2-2.4,1.7-3.2,1.5
		C74.3,19.9,74.5,19.7,74.7,19.4z"/>
	<path style="fill:#BE3689;" d="M80.8,4.8c0-0.2,0-0.2-0.1-0.2c-1-0.4-2.1-0.6-3.2-0.8c-0.9,0.4-1.2,1.2-0.8,2.3
		c0.5,1.4,0.8,2.9,0.8,4.4c0.1,0.5,0.3,0.8,0.8,1c0.2,0,0.4,0.1,0.6,0c0.5-0.8,1-1.6,1.3-2.5C80.7,7.5,80.9,6.1,80.8,4.8z"/>
	<path style="fill:#BE3689;" d="M79.7,14.4c-0.1-0.3-0.1-0.5-0.1-0.8c-0.1-0.1-0.2-0.2-0.4-0.2c-0.4-0.1-0.8-0.2-1.2-0.3
		c-0.4,0.1-0.7,0.3-0.8,0.7c-0.1,0.4-0.2,0.7-0.2,1.1c0.5,1.2,1.3,1.5,2.5,0.6C79.7,15.2,79.7,14.8,79.7,14.4z"/>
	<path style="fill:#BE3689;" d="M86.3,89.6c0-0.1-1.5-1.5-4.5-4.4c-3-2.8-8.8-4.6-17.3-5.3c-0.8,0.1-1.7,0.3-2.5,0.5
		c0-0.2,0-0.4,0-0.6s0-0.3-0.1-0.4c-0.1-0.4-0.4-0.8-0.8-1.1c3.2-2.3,5.6-5.5,7.1-9.8c3.4-10,1.5-18.2-5.8-24.5c-0.2,0-0.4,0-0.5,0
		c0-0.7,0-1.4,0.1-2.1c0,0,0.2,0,0.2-0.1c0,0-0.1,0-0.2,0c0.2-1,0.4-1.9,0.6-2.8c1.4-1.3,2.7-2.3,3.9-3c-2.5-1.6-4.5-3.7-5.6-6.4
		c0-0.1,0-0.2,0.1-0.3c0.4-0.6,0.5-1.1,0.5-1.5c0.4,0,0.8,0.1,1.2,0.1c0.2,0.1,0.3,0.2,0.6,0.2c-0.1-0.3-0.1-0.8,0-1.2
		c1.5-0.1,2.9-0.7,4.1-1.8c-0.1-0.1-0.2-0.2-0.3-0.3c-0.3-0.5-0.6-1.2-0.6-1.9c0,0,0-0.1,0.2-0.1c-1.3-2.9-3.7-4.9-7.2-6.2
		c-0.7,0.5-1.3,1.2-1.7,2.1c-0.5,1.4-0.6,2.5-0.3,3.2c0,0.3,0,0.5,0,0.7c0,0.1-0.1,0.1-0.1,0.2c0-0.2,0.1-0.3,0.1-0.4
		c-0.1,0.1-0.3,0.2-0.5,0.4c-2.1,1.3-3.7,2.9-4.9,4.7c-3.3,0.8-5.8,2.6-7.4,5.5c-0.1,0-0.1-0.1-0.1-0.1c0-0.5,0.2-0.8,0.5-1.1
		c0-0.4,0-0.8,0-1.2c0-0.3,0-0.6,0-0.9c0,0.1,0,0.1-0.1,0.1c0.5-1.6,1-3.3,1.4-5.2c0.8-3.7,2.1-7.2,3.9-10.5
		c0.2-0.1,0.5-0.2,0.7-0.2c1.8-0.3,3.2-0.9,4.3-1.8c0-0.1-0.1-0.2-0.1-0.3c-2-4-5.2-6.4-9.7-7.3c-0.7,0.4-1.2,0.9-1.6,1.6
		c-0.1-0.5-0.1-1-0.1-1.6c-0.2-0.1-0.4-0.2-0.6-0.2c-0.9-0.2-1.8-0.2-2.7-0.3c-5.5,0.4-8.6,2.9-9.2,7.5c1.8,1.4,3.8,2.3,6,2.8
		c0.2,0.8,0.7,1.5,1.3,2.2c0,0,0.1,0.1,0.2,0.3c0,0.9,0.1,1.8,0.2,2.6c0.3,3.8,0.2,7.4-0.3,10.8c-0.1-0.1-0.3-0.2-0.5-0.2
		c0.2,0.3,0.3,0.7,0.4,1c-0.1,0.2-0.1,0.4-0.1,0.6c0,0,0,0-0.1,0.1c-1.7-1.9-3.8-3.2-6-3.9c-2.2-1.9-4.6-3.4-7.2-4.3
		c-0.4-0.2-0.9-0.4-1.3-0.5c-1.3-2.8-3.6-4.6-6.9-5.4c-1.2,0.7-2.1,1.7-2.7,3.1c-1.7,3.9-1.4,7.4,0.8,10.6c0.5,0,1,0,1.4,0
		c0.2,0,0.4,0,0.5-0.2c0.4-0.2,0.7-0.4,1-0.6c0.5-0.3,1-0.6,1.4-0.9c0.6-0.2,1.2-0.3,1.8-0.4c0.2,0.8,0.2,1.9,0.1,3.2
		c-1.8,1.5-3.4,3-4.9,4.5c1.3,0.9,2.6,1.9,3.9,3c0,0.2,0,0.5,0.1,0.7c0.1,1.6,0.2,3.2,0.4,4.6c-0.4,0-0.7-0.1-1-0.2
		c-3,3.5-5,7.5-6.3,12.2c-2.3,9,0.2,15.7,7.6,20.1c0.4,0.2,0.8,0.4,1.2,0.7c-0.1,0-0.2,0-0.3,0.1c-0.3,0.2-0.6,0.4-0.9,0.8
		c0,0-0.1,0.1-0.1,0.2c0,0.3,0,0.5,0,0.8c0,0.1,0.1,0.2,0.1,0.3c0.1,0,0.2,0.2,0.3,0.2c-2.2-0.6-4.4-0.8-6.9-0.6
		c-1.3,0.4-2.6,0.7-3.9,1.1c-1.2,0.2-2.9,1.3-5,3.3c-2.2,2-3.5,3.4-4,4.1c-0.7,0.8-0.9,1.8-0.5,2.8c0.1,0.3,0.2,0.5,0.3,0.8
		c0.5,0.1,1.1,0.2,1.7,0.2c-1.4,0.3-2.5,1-3.1,2.2c0.1,0.1,0.2,0.2,0.2,0.1c2.6-0.2,4.1-0.9,4.3-2.1c1.1,0.2,2.2,0.3,3.4,0.4
		c-1.4,0.4-2.6,1-3.8,1.9c0.1,0.2,0.1,0.2,0.1,0.2c2.7-0.4,4.6-1,5.7-2c1.2,0.1,2.4,0.1,3.6,0.2c-1.2,0.4-2.4,1-3.5,1.8
		c0.4,0.6,1.1,0.7,1.9,0.3c0,0,0.2-0.1,0.3-0.1c2-0.6,3.5-1.2,4.5-2c1.3,0,2.6,0,3.9,0c-1,0.5-2,1-3,1.6c0.3,0.2,0.6,0.2,0.8,0.2
		c1.9-0.6,3.8-1.3,5.6-2c1.8-0.2,3.5-0.4,5.3-0.6c-1.7,0.8-3.2,1.7-4.8,2.6c0.1,0.1,0.2,0.2,0.3,0.2c0.4,0.2,0.8,0.3,1.2,0.3
		c0.1-0.2,0.3-0.3,0.4-0.3c2.7-1.3,5.5-2.5,8.3-3.7c0.1,0,0.2,0,0.3,0c0.7,0.2,1.4,0.4,2.1,0.5c-1.2,0.9-2.3,1.8-3.3,2.8
		c0.2,0.1,0.4,0.1,0.6,0c1.7-0.8,3.3-1.6,4.8-2.5c1.2,0.1,2.5,0.1,3.8,0c0.2,0,0.4,0,0.6-0.1c-1.3,0.9-2.4,1.9-3.2,3
		c0.2,0.1,0.3,0.1,0.5,0c1.6-1,3.3-2,5.1-2.8c-0.2,0-0.3,0-0.5-0.1c-0.4,0-0.8-0.1-1.3-0.1c1.9-0.3,3.7-0.8,5.4-1.5
		c3.7-1.6,6.3-3.8,7.9-6.8c9.8-3.8,18.6-2,26.3,5.3c-8.7,2.1-17.6,2.8-26.5,2c-1.5-0.3-2.9-0.7-4.2-1c-0.4,0.5-0.9,0.8-1.4,1.2
		c0.2,0,0.4,0.1,0.7,0.1c-1.9,1-3.6,2.1-5.3,3.3l0.1,0.2c2.4-0.8,4.7-1.9,6.8-3.3c1.3,0.5,2.6,0.8,4,1c-0.7,0.3-1.5,0.6-2.4,0.9
		c0,0.1-0.1,0.1-0.1,0.2c-0.8,0.4-1,0.9-0.7,1.5c0.8,0.2,1.6,0,2.4-0.4c1.7-0.8,2.7-1.5,3.1-2.1c0.7,0.1,1.4,0.1,2.1,0
		c0.7,0.1,1.5,0.2,2.3,0.2c-0.8,0.5-1.6,1.1-2.2,1.7v0.3c2.4-0.3,3.7-1,4-1.9c1.5,0,3,0,4.5-0.1c-0.5,0.4-1,0.8-1.2,1.3
		c0.2,0.1,0.4,0.2,0.7,0.1c1.7-0.3,2.9-0.9,3.8-1.7c1.4-0.2,2.9-0.4,4.4-0.7c-1.1,0.6-2,1.5-2.7,2.5c0.7,0.5,1.4,0.4,2.4-0.1
		c2.3-1.3,3.8-2.4,4.4-3.4C83.9,90.5,85.1,90,86.3,89.6z M58.5,22.1c-0.1,0-0.1-0.1-0.1-0.2c0,0,0,0,0.1-0.1c-0.1,0-0.1,0-0.1-0.1
		c0-0.4,0.1-0.8,0.2-1.2c0.4-0.9,0.8-1.7,1.4-2.4c0.7,0.3,1.2,0.6,1.8,1c0.8,0.6,1.5,1.3,2.1,2.1c0.5,0.5,1,1.2,1.3,1.9
		c0.1,0.1,0.1,0.2,0.2,0.3v0.1c0,0.5,0.1,0.8,0.4,1.1c-1.3,0.6-2.7,1-4.1,1.3c-0.2,0-0.4,0-0.5-0.1c0.3-0.5,0.4-1,0.4-1.7
		c-0.1,0-0.1,0-0.1,0.1c-0.3,0.4-0.8,0.6-1.4,0.7c-0.2,0.2-0.4,0.4-0.6,0.7c-0.1-0.1-0.1-0.1-0.1-0.1c0,0.1,0,0.1,0,0.1s0,0,0,0.1
		c-0.1-0.1-0.2-0.1-0.3-0.1c-0.3,0.3-0.6,0.7-0.9,0.9c0,0.1-0.2,0.1-0.2,0.1c0,0.1,0,0.2,0,0.2c-0.1,0-0.2,0.1-0.3,0.2
		c-0.2,0.3-0.4,0.4-0.5,0.7c-0.1,0-0.1,0-0.1-0.1c-0.1-0.1-0.2-0.1-0.4-0.2c-0.9-0.1-1.8-0.2-2.7-0.3l0,0c1.1-1.1,2.3-2.2,3.7-3.2
		c1.1-0.6,2-1.3,2.4-2.3c-0.2,0-0.4,0-0.6,0C59.2,21.8,58.8,21.9,58.5,22.1z M46.1,6.1c0.8,0.4,1.5,0.7,2.2,1.1
		c1.9,0.9,3.5,2.3,4.7,4.1c-0.4,0.1-0.9,0.3-1.3,0.4c-0.6,0.3-1.1,0.6-1.7,0.8c0.1-0.2,0.2-0.5,0.3-0.7c0-0.2,0-0.3-0.1-0.4
		c0-0.3,0-0.5-0.1-0.8c-0.2,0-0.3,0-0.4,0.1c-0.3,0.8-0.5,1.6-0.8,2.4l0,0c-1.3,2.4-2.4,4.8-3.1,7.4c-1,3.2-1.5,6.5-1.5,9.9
		c-0.2,0.1-0.3,0.2-0.4,0.2c-0.3,0.3-0.7,0.4-1,0.5c0,0.3,0,0.7,0.2,0.9c-0.3-0.1-0.5-0.2-0.8-0.2c0-0.1,0-0.1,0-0.2
		c0-0.1,0-0.3,0.1-0.4c-0.1,0-0.2,0-0.3,0c0.2-0.4,0.3-0.7,0.3-1.1c0.8-4.2,1.3-8.3,1.5-12.5c0.1,0.4,0.2,0.8,0.4,1.2
		c0-0.2,0-0.3,0-0.4c0.3-0.9,0.5-1.9,0.7-2.8c0.5-1.2,0.8-2.1,1-3c0.5-1.1,0.7-2.2,0.5-3.1c-0.1,0.1-0.2,0.2-0.2,0.3
		c-0.4,0.5-0.6,1-0.9,1.6c-0.2-0.9-0.5-1.7-0.8-2.5c0.2-0.3,0.4-0.8,0.5-1.3C45.3,7,45.6,6.5,46.1,6.1z M37.5,11.4l-0.1,0.1
		c0.1,0.5,0.3,0.9,0.5,1.4c-2.3-0.5-3.9-1.5-4.9-3.1c2.7-3.1,5.9-4.3,9.8-3.7c0.1,1,0,1.8-0.2,2.7c-0.1,0.5-0.2,1-0.3,1.5
		c-0.4-0.4-0.8-0.7-1.3-1h-0.2c0.3,0.9,0.6,1.7,1.1,2.5c-0.1,0.1-0.1,0.2-0.1,0.3c0.4,0.9,0.7,1.9,0.6,3c0,4-0.1,7.9-0.4,11.7
		c-0.2,0.8-0.5,1.6-0.8,2.3c-0.2,0.7-0.4,1.3-0.3,1.8c-0.1,0-0.1,0-0.1,0c0,0.2,0.1,0.4,0.1,0.6c-0.2-0.1-0.5-0.1-0.8-0.1l0,0
		c0-1.1,0-2.1,0.1-3.1c0.7-4.2,0.7-8.3,0-12.3c0.1,0.2,0.3,0.3,0.4,0.4c0-0.1,0-0.2,0-0.4C39.8,14.1,38.8,12.6,37.5,11.4z
		 M44.9,12.6c-0.2,0.4-0.3,0.9-0.4,1.4c-0.2,0.4-0.4,0.8-0.5,1.2c0.1-1.4,0.1-2.7,0.1-4C44.3,11.6,44.6,12.1,44.9,12.6z M49,32.8
		c-0.1,0-0.3,0.1-0.5,0.1c-1.6,0.1-2.8,0.7-3.4,1.9c0,0,0,0-0.1,0c0,0-0.1,0-0.2,0.1c-0.1-0.4-0.1-0.8-0.1-1.2c0.1,0,0.1,0,0.1-0.1
		c-0.1,0-0.1,0-0.1,0c0-0.1,0-0.2,0-0.3c3.3-2.7,7.2-4.1,11.7-4.3c0.1,0.8,0.2,1.5,0.3,2.3c0.1,1.2,0,2.3-0.1,3.5
		c-0.1,0.1-0.1,0.2-0.1,0.4c-0.3,1.5-0.8,2.9-1.6,4.3c-0.4,0.3-0.8,0.5-1.1,0.8c-0.2,0.1-0.3,0.2-0.4,0.4c-0.8,0.1-1.6,0.3-2.4,0.7
		c-0.3-0.1-0.6-0.2-0.9-0.4c-2.1-0.9-3.9-2.3-5.3-4.1c-0.1,0-0.1,0-0.1,0c0-0.5,0-0.9,0-1.4c0.8,0.2,1.6,0.3,2.3,0.4
		c0.6,0.5,1.2,1,1.8,1.4c0.8,0.5,1.5,0.5,2.1-0.2c0.1-0.6-0.3-1-1.2-1.1c-0.8-0.1-1.4-0.5-1.9-1.1c-0.5,0-0.9,0-1.3-0.1
		c1.6-0.6,3.2-1,4.8-1.2c-0.1-0.1-0.2-0.2-0.3-0.2C50.3,33.1,49.7,32.9,49,32.8z M36.2,34.7c-0.3-0.1-0.7,0-1.2,0.1
		c-0.7,0.3-1.4,0.8-2.1,1.3c-0.1,0.1-0.2,0.3-0.3,0.5l0.1,0.2c1.7-0.7,3.4-1,4.9-0.8c0.1,0.4,0.1,0.8,0.2,1.1c-0.1,0-0.2,0-0.3,0
		c-0.1,0.1-0.2,0.1-0.2,0.1c0.2,0.1,0.4,0.2,0.6,0.3c0.1,0.4,0.2,0.8,0.2,1.1c0,0.2,0,0.3,0,0.4c-1.7,1.4-3.7,2.3-5.8,2.9
		c-1-0.5-1.9-1.1-2.7-1.9c-0.1,0-0.2,0-0.3,0c-0.1-0.1-0.2-0.1-0.3-0.2c-0.1,0-0.2-0.1-0.4-0.3c-1.1-1.9-1.6-4-1.5-6.4
		c0-1.4,0.4-2.8,0.9-4.1c0.1-0.1,0.1-0.2,0.1-0.2c0.8-0.1,1.5-0.2,2.3-0.3c1.4,0.7,2.7,1.5,4,2.5c1.3,1,2.5,1.6,3.5,1.6
		c-0.2,0.5-0.3,1.2-0.4,1.8c-1.7-1.5-3.9-2-6.5-1.6l-0.4,0.1C32.5,33.5,34.3,34.1,36.2,34.7z M39.3,34c0-0.1,0-0.2,0-0.4
		c0.3-1,1.1-1.1,2.4-0.3c0.5,0.3,1,0.6,1.6,0.8c0,0.4,0,0.8,0,1.2c0.1,0.5,0,1-0.3,1.5c-0.1,0.1-0.2,0.2-0.2,0.3v0.1
		c-1-0.1-1.9-0.2-2.9-0.2c-0.1,0-0.4-0.1-0.6-0.2v-0.2c0-0.3,0-0.7,0-1.1C39.3,35,39.3,34.5,39.3,34z M45.1,39.1V39
		c1.5,2.3,3.9,3.8,7.3,4.4c0.1-0.1,0.2-0.2,0.3-0.2c0.2-0.2,0.4-0.3,0.5-0.4c0.6,0.4,1.1,0.7,1.6,1.1c-0.3-0.1-0.5-0.1-0.8-0.1
		c1.8,1,3.5,2.2,5.3,3.6c1,0.1,2.1,0.1,3.1,0.1c0.1-0.1,0.1-0.2,0.2-0.2c-0.1-0.2-0.1-0.3-0.1-0.4c0.1,0.1,0.2,0.2,0.4,0.3
		c4.3,4.3,6.1,9.2,5.3,14.8c-0.7,5.4-3.7,10.4-8.9,14.8c0-0.4,0-0.7,0-1c-0.1,0-0.2,0-0.2,0c-0.2,0.5-0.4,1-0.6,1.6l0,0v0.1
		c-1.7,4.1-4,8-7,11.8C45.2,91,39,91,33,89c-2.5-4.7-5.2-8.8-8-12.5c0.2,0.5,0.4,1,0.6,1.6c-4.4-2.1-8-5-10.9-8.8
		c-0.6-1.7-0.8-3.5-0.7-5.4c0.5-6.4,2.3-11.9,5.5-16.5c0.3,0.1,0.6,0.2,1,0.3c-0.3,0.2-0.5,0.5-0.7,0.8c0.4,0.1,0.8,0.2,1.3,0.3
		c1.2-1.6,2.7-3,4.3-4.3h0.1c0,0,0,0-0.1,0c0.1-0.1,0.2-0.2,0.2-0.2c1.3-0.7,2.5-1.3,3.8-1.9c1,0.9,2.2,1.4,4,1.5
		c0.1-0.1,0.2-0.1,0.3-0.2c3-0.9,4.9-2.4,5.7-4.3c2-0.4,4-0.5,5.9-0.1C45.2,39.2,45.2,39.2,45.1,39.1z M60.1,27.4
		c0.2,0,0.3,0.1,0.4,0.1c-0.4,1.1-0.5,2.2-0.4,3.4c0.9,1.9,2.2,3.4,3.9,4.5c-0.1,0-0.2,0.1-0.2,0.2c-0.9-0.1-1.8-0.2-2.8-0.2
		c-0.6,0.2-1.3,0.5-2,1c-0.1,0.1-0.3,0.3-0.5,0.4c-0.3,0-0.5,0-0.7,0c0-0.2,0.1-0.4,0.2-0.6c0.2-0.1,0.4-0.1,0.6-0.1c0,0,0,0,0-0.1
		c0,0,0-0.1,0-0.2c-0.2,0.1-0.4,0.1-0.6,0.2c0-0.3,0-0.5,0.1-0.7c0.3-0.3,0.6-0.7,0.9-1h0.2c-0.2-0.5-0.3-0.9-0.4-1.2
		c-0.1,0-0.2,0-0.3,0.1c0-0.3,0-0.6,0.1-0.8c-0.1-0.1-0.1-0.2-0.1-0.3c0,0-0.1,0-0.2,0c-0.1-0.3-0.1-0.8-0.2-1.2
		c0.1,0,0.2,0,0.4,0.1c0-0.2,0-0.5,0-0.7c-0.1,0-0.3,0.1-0.5,0.3c-0.1-0.6-0.2-1.1-0.4-1.7c0.1,0,0.1,0,0.2-0.1
		C58.5,28.3,59.3,27.8,60.1,27.4z M61.4,38.4c0,0.5-0.1,0.9-0.4,1.3c-0.6,1.5-0.9,2.9-0.7,4.3c-0.1,0-0.1,0-0.1,0
		c-0.2-0.2-0.4-0.4-0.5-0.5c-0.4,0.2-0.7,0.5-0.8,0.8c-1.1-1.1-2.4-2.1-3.7-3c0.1,0,0.2-0.1,0.3-0.2c0.4-0.3,0.7-0.7,0.9-1.1
		c0-0.6,0.3-1.2,0.8-1.6c0-0.1,0-0.1,0.1-0.1c0.7-0.2,1.3-0.4,2-0.7c0.1,0,0.2-0.1,0.3-0.2c1.2-0.6,2.3-1,3.6-1.2
		C62.5,36.9,61.9,37.6,61.4,38.4z M59.9,45.2c0.1-0.1,0.2-0.2,0.4-0.2c0,0.2,0,0.5,0,0.7C60.2,45.6,60,45.4,59.9,45.2z M16.8,19.8
		c0.2-0.3,0.5-0.5,0.8-0.8c0.7,0.2,1.2,0.6,1.7,1.1c1.2,1.5,2.5,2.7,3.7,3.7c-0.1,0.2-0.2,0.3-0.3,0.5c0.2,0.4,0.6,0.8,0.9,1.2
		c0.1-0.1,0.2-0.2,0.2-0.3c0-0.3,0-0.5-0.1-0.8c0.3,0.2,0.5,0.4,0.7,0.5c0-0.1,0-0.2,0-0.3c0-0.1,0-0.2-0.1-0.3
		c0.4,0.2,0.8,0.3,1.2,0.5c1.5,1,3.1,1.8,4.6,2.5c-0.8-0.1-1.7-0.2-2.6-0.2c-0.4,0.6-0.8,1.2-1,1.8c-1.3-1.1-2.8-1.6-4.5-1.8
		c-0.4,0.1-0.5,0.2-0.5,0.2c0.3,0.3,0.6,0.6,1,0.9c-0.6-0.2-1.1-0.3-1.6-0.4c0.4-0.5,0.6-1.1,0.7-1.8c-0.1,0-0.2,0.1-0.3,0.1
		c-0.7,0.6-1.3,1.2-1.8,1.7c-0.2,0-0.3,0-0.5,0.1c-0.3,0.2-0.6,0.5-0.9,0.8c-0.8,0.7-1.6,1-2.6,0.8c-0.7-0.9-1-2.1-1-3.4
		c0.2-1.8,0.6-3.5,1.3-5.2C16.1,20.5,16.4,20.2,16.8,19.8z M26.1,29.8c-0.1,0-0.1,0-0.2-0.1c0.1,0,0.2,0,0.2,0
		C26.1,29.8,26.1,29.8,26.1,29.8z M25.9,29.7c0,0.7,0,1.5,0,2.2c-0.1,1.6-0.3,3.1-0.7,4.5c0,0.1,0.1,0.2,0.1,0.4c0.2,0,0.3,0,0.3,0
		c0.2,0.7,0.5,1.4,0.9,2c-0.6-0.4-1.2-0.8-1.8-1c0,0-0.1,0.1-0.1,0.2c-0.3,0-0.5-0.1-0.8-0.3c-1.4-0.7-3-1.1-4.7-1.1L19,36.5
		c1.4-1.1,2.5-2.3,3.5-3.7c0-0.3,0-0.5,0-0.8c0-0.7,0-1.5,0-2.2c-0.1-0.2-0.2-0.3-0.2-0.4c-0.1-0.1-0.2-0.3-0.4-0.5
		c0.4-0.1,0.7-0.2,1.1-0.4C23.9,29.2,24.9,29.6,25.9,29.7z M22.3,41.8c0,0,0,0.1-0.1,0.1c-0.1-0.9-0.3-1.8-0.6-2.8
		c-0.7-0.7-1.5-1.5-2.1-2.1c1.5,0.5,3.1,1,4.9,1.5c-0.1,0.1-0.1,0.1-0.1,0.1c0.2,0.1,0.4,0.2,0.6,0.2c0,0.1,0.1,0.1,0.1,0.2
		c0.1,0,0.2,0.1,0.3,0.2c0,0.2-0.1,0.4-0.2,0.6c0.2-0.1,0.4-0.2,0.7-0.2c0.3,0.2,0.7,0.4,1.1,0.6c0.2,0.1,0.5,0.2,0.8,0.1
		c0.2,0.1,0.4,0.3,0.6,0.4c-0.7,0.4-1.3,0.8-2,1.2c-0.4,0.2-0.8,0.5-1.1,0.8c-0.7,0.7-1.3,1.3-2,1.6c-0.4,0.4-0.8,0.8-1.1,1.2
		c0,0,0,0,0-0.1c0.2-0.3,0.3-0.7,0.4-1.1c0,0,0.1,0,0.2,0c0-0.3-0.1-0.6-0.1-0.9C22.6,42.9,22.5,42.3,22.3,41.8z M2.1,90
		c0.3-0.8,0.7-1.5,1.4-2.1c7.4-7.5,15.7-8.7,25-3.6c0.1,0.1,0.1,0.2,0.2,0.2c1.1,1.9,2.2,3.7,3.3,5.5c0.5,0.3,1,0.5,1.4,0.7
		c-0.4-0.2-0.8-0.4-1.2-0.5c-1.5,0.1-3,0.3-4.4,0.4c-0.3-0.1-0.5-0.1-0.8-0.2c0,0.1,0,0.1,0,0.1c-0.4,0.1-0.6,0.2-1,0.3
		c-7,0.6-14.2,0.8-21.4,0.7C3.4,91.5,2.6,91,2.1,90z M28,83c-0.2-0.1-0.4-0.2-0.6-0.4c-0.1,0-0.3,0-0.3-0.1
		c-0.2-0.1-0.3-0.1-0.2,0.1c0,0,0.1,0.1,0.2,0.3c-1.7-1.1-3.4-1.9-5.3-2.4c0,0,0.1-0.1,0.2-0.2c-0.1-0.6,0-0.9,0.5-0.9
		c0.7-0.1,1.2-0.2,1.8-0.4c0.7,0.4,1.5,0.7,2.2,1C27,81,27.4,82,28,83z M60.9,80c-0.3,0.3-0.5,0.6-0.6,0.9c-0.6,0.1-1.3,0.3-1.8,0.5
		c0.2-0.6,0.3-1.2,0.5-1.8c0.3-0.2,0.7-0.4,1-0.6c0.2,0.3,0.5,0.5,0.9,0.8C60.9,79.9,60.9,80,60.9,80z"/>
	<path style="fill:#BE3689;" d="M44,47.5c-0.2,0.2-0.6,0.3-1,0.5c-0.8,0.4-1.3,1-1.7,1.9c0,0-0.1,0.1-0.2,0.1
		c-2.1-1.9-4.3-2.6-6.5-2.1c-0.4-0.3-1.1-0.5-2-0.6c0-0.2,0-0.3,0-0.4c0.2-0.7,0.1-1.2-0.3-1.5c-0.4-0.1-0.7,0-0.7,0.3
		c-0.2,0.9-0.1,1.8,0.3,2.6c0.2,0.1,0.4,0.3,0.6,0.4c-0.3,0.2-0.6,0.4-1,0.7c-0.6-0.3-1.4-0.5-2-0.9c0-0.1,0-0.2,0-0.4
		c0.1-0.4-0.1-0.7-0.4-1.1c-0.1,0.1-0.2,0.1-0.3,0.2c-0.4,0.8-0.4,1.5,0.1,2.2c0.4,0.4,0.9,0.8,1.4,0.9c-0.2,0.1-0.2,0.2-0.4,0.4
		c-1,0-1.9-0.5-2.6-1.3c-0.5-0.2-0.7,0-0.7,0.4c0,0.9,0.5,1.5,1.5,1.8c0.3,0.1,0.5,0.1,0.7,0.2c-4.5,4.7-4.4,9.6,0.3,14.5
		c0.4,0.1,0.8,0.2,1.2,0.3c0.3,0.1,0.7,0.1,1,0.2c3.9,0.5,7.3-0.5,10.3-2.9c1.2,1,2.5,1.8,3.9,2c0.2-0.1,0.4-0.1,0.5-0.1l1.3,0.2
		c1.1,0,2.2-0.2,3.4-0.7c5.4-2,7.2-5.7,5.4-10.9c-0.1-0.1-0.2-0.3-0.3-0.4c-0.8-1.5-1.8-2.8-3-3.7c0.2-0.1,0.4-0.2,0.6-0.3
		c0.1-0.1,0.2-0.2,0.4-0.4c0.8-0.8,1-1.6,0.4-2.5c0,0,0,0-0.1-0.1l0,0c-0.7,1.1-1.6,1.8-2.7,2.2c-0.4-0.2-0.8-0.4-1.1-0.6
		c0.4-0.4,0.8-0.9,1.2-1.3c0-0.2,0-0.3,0-0.4c0.1-0.7,0-1.3-0.4-1.9h-0.2c-0.2,1.8-1.1,2.8-2.4,3c-0.1,0-0.1,0-0.1,0
		c0-0.1,0-0.2,0.1-0.2c0.5-1.2,0.6-2.3,0.3-3.4c-0.9,0.5-1.4,1.6-1.8,3.2c0,0,0,0,0,0.1C46,47.5,45.1,47.5,44,47.5z M26.6,59.6
		c0-0.1,0-0.2,0-0.3c0.8-4.8,3.6-8.2,8.4-10.2c0.6,0,1.2,0,1.9-0.1c0.2,0.2,0.4,0.3,0.6,0.4c1.2,0.9,2.3,1.7,3.3,2.4
		c0.1,0,0.2,0,0.2,0c0.5,0.1,1,0.3,1.4,0.4c0.3-0.3,0.4-0.7,0.5-1c0.2-0.6,0.4-1.1,0.7-1.6c4.9-0.6,8.5,1.2,10.9,5.7
		c0.2,0.6,0.3,1.3,0.4,1.9c0.5,3-0.7,5.2-3.6,6.7c-3.7,1.2-6.8,0.5-9.4-2c-0.3,0.1-0.6,0.2-1,0.1C34.4,67.3,29.6,66.5,26.6,59.6z"/>
	<path style="fill:#BE3689;" d="M45.5,54c-0.1,0-0.2,0.1-0.4,0.1c-0.5,0.6-0.9,1.2-1.2,2c-0.4,1.4-0.3,2.8,0.5,4
		c1.1,0.7,2.3,1.1,3.6,1.1c0.4-0.3,0.8-0.6,1.3-0.8c0.3-0.3,0.7-0.5,1.1-0.8c0.4-0.7,0.7-1.6,0.7-2.6c0.1-0.6,0-1.2-0.2-1.9
		c-0.1-0.1-0.2-0.2-0.3-0.3c-1-0.9-2.2-1.3-3.6-1C46.5,53.8,46,53.9,45.5,54z M44.4,57.5c0-0.1,0-0.2,0-0.3c0.2-0.9,0.7-1.7,1.4-2.3
		c1.5-0.4,2.9-0.1,4.1,0.9c0,0.2,0.1,0.5,0.1,0.7c0.1,0.5,0.1,1,0.1,1.5c0,0.2-0.1,0.3-0.2,0.4c-0.1,0.3-0.2,0.5-0.3,0.7
		c-0.8,0.5-1.8,0.9-2.7,1.2c-0.7-0.2-1.3-0.5-1.9-0.9c0-0.1-0.1-0.2-0.2-0.3C44.5,58.6,44.3,58.1,44.4,57.5z"/>
	<path style="fill:#BE3689;" d="M46.8,58.1c0.1,0.2,0.3,0.2,0.4,0.2c1.8-0.2,1.7-0.9-0.2-2c-0.2,0-0.3,0.1-0.4,0.4
		C46.5,57.2,46.5,57.7,46.8,58.1z"/>
	<path style="fill:#BE3689;" d="M35.5,56.3c-0.1,0-0.2,0.1-0.3,0.3c-0.6,0.6-0.7,1.1-0.3,1.7c0.6,0.1,1.2,0.2,1.9,0.3
		c0-0.1,0.1-0.2,0.1-0.3C37.1,57.1,36.7,56.4,35.5,56.3z"/>
	<path style="fill:#BE3689;" d="M46,63.3c-0.1,0-0.3,0-0.5,0.1c0.6,0.1,1.2,0.2,1.8,0.1L46,63.3z"/>
	<path style="fill:#BE3689;" d="M29.5,79.8c0.4,1.2,0.8,2.3,1.1,3.5c1,0.9,1.9,1.9,2.7,3c0.4,0.5,0.9,1.2,1.5,1.8
		c5.2,0.7,10.4,0.5,15.7-0.6c1.8-1.5,2.9-3.5,3.6-5.8C56.4,73,52.4,68.3,42,67.6c-5.8,0.1-10.6,2.1-14.1,6.3
		C28.3,75.9,28.8,77.9,29.5,79.8z M29.1,74.5c0-0.1,0-0.2,0.1-0.3c3.7-3.2,8.1-4.9,13.3-5.1c1.9,0,3.6,0.4,5.4,1.3
		c7.3,4,8.1,9.2,2.5,15.7c-0.5,0.2-1,0.3-1.4,0.4l-0.1-0.1c-1.4-3.3-4.2-4.5-8.4-3.6c-1.9,0.3-3.4,1.2-4.4,2.8
		c0,0.1-0.1,0.2-0.1,0.2C32.1,83.5,29.9,79.7,29.1,74.5z M46,84.5c0.3,0.2,0.5,0.3,0.8,0.4c0.1,0.2,0.3,0.5,0.4,0.8
		c0.3,0.4,0.6,0.8,0.9,1c-1.6,0.3-3.3,0.6-5,0.9c-1.8,0.2-3.5,0-5.1-0.7c-0.3-0.1-0.5-0.2-0.7-0.3c0.2-0.3,0.3-0.5,0.4-0.8
		c0-0.2,0.1-0.3,0.2-0.4c0.3-0.2,0.7-0.4,1.1-0.6c1.8-0.9,3.8-1.2,5.9-0.9C45.2,84.1,45.6,84.3,46,84.5z"/>
	<path style="fill:#BE3689;" d="M18.8,44.6c0,0,0-0.1,0-0.2C18.8,44.5,18.8,44.6,18.8,44.6L18.8,44.6z"/>
</g>
</svg>
