<?xml version="1.0" encoding="iso-8859-1"?>
<!-- Generator: Adobe Illustrator 12.0.1, SVG Export Plug-In . SVG Version: 6.00 Build 51448)  -->
<!DOCTYPE svg PUBLIC "-//W3C//DTD SVG 1.1//EN" "http://www.w3.org/Graphics/SVG/1.1/DTD/svg11.dtd" [
	<!ENTITY ns_svg "http://www.w3.org/2000/svg">
	<!ENTITY ns_xlink "http://www.w3.org/1999/xlink">
]>
<svg  version="1.1" id="Layer_1" xmlns="&ns_svg;" xmlns:xlink="&ns_xlink;" width="94.532" height="92.21"
	 viewBox="0 0 94.532 92.21" style="overflow:visible;enable-background:new 0 0 94.532 92.21;" xml:space="preserve">
<g>
	<path style="fill:#BE3689;" d="M84.264,3.611h-0.1c-2.6-2.8-6.7-4-12.5-3.5c-2,0.5-3.6,1.5-5,3c-1.2,1.3-1.9,2.8-2.1,4.5
		c0,0.5,0,0.9,0.1,1.2c0.2,0.6,0.4,1.1,0.7,1.5c0.4,0.7,0.9,1.3,1.6,1.8c-0.4,0.3-0.7,0.7-0.9,1c-0.2,0.5-0.4,1-0.4,1.6
		c0,0.8,0.3,1.4,0.8,1.9c0.4,0.2,0.7,0.3,1.2,0.2c1.1,0,1.9,0.1,2.3,0.4c-0.1,0.5-0.1,0.8,0.2,1.2c0.5,0.7,1.2,1.2,2,1.2
		c0.2,0,0.3,0,0.5-0.1c0.3-0.1,0.7-0.3,1-0.5c0.5-0.4,0.8-0.3,0.8,0.4c0.4,1.3,1.5,1.7,3.2,1c1.5-0.6,2.4-1.6,2.8-3
		c1.6-0.6,3.4-1.7,5.2-3.3c0.9-0.8,1.3-1.7,1.4-2.7C87.564,9.21,86.664,6.611,84.264,3.611z M84.564,5.811c0.3,0.3,0.7,0.7,1.1,1
		c0.3,1.1,0.5,2.3,0.5,3.6c-0.1,0.4-0.3,0.7-0.5,1c-0.6,1.1-1.4,2.1-2.5,3c-0.4,0.1-0.9,0.2-1.3,0.1c-1-0.1-1.9,0.2-2.6,0.7
		c-0.3,0.3-0.5,0.7-0.4,1.2c0,0.2,0,0.5-0.1,0.7c-0.2,0.3-0.4,0.5-0.6,0.8c-0.6,0.8-1.3,1.2-2.2,1.1c0-0.1,0-0.2,0-0.3
		c0-0.5,0-1,0-1.4c0.1-0.7-0.1-1.2-0.5-1.6c-0.6,0-1.1,0.2-1.4,0.8c-0.7,1.2-1.5,1.5-2.4,0.9c0.2-0.7,0.4-1.3,0.8-1.9
		c0.6-0.8,0.6-1.5,0-2.3c-0.5,0.1-0.8,0.2-0.9,0.4c-1,1.7-2.4,2.2-4.1,1.5c0.1-0.5,0.4-0.9,0.7-1.3c0.4-0.5,0.7-1.1,0.8-1.7
		c-0.3-0.7-0.8-1.5-1.4-2.1c-0.7-0.7-1.4-1.5-1.8-2.4c0.2-0.1,0.2-0.2,0.3-0.4c0.6-3.3,2.9-5.1,6.6-5.6c4.4,0.1,8.1,1.3,11.1,3.5
		C84.064,5.311,84.264,5.511,84.564,5.811z"/>
	<path style="fill:#BE3689;" d="M82.464,7.511c-0.1-0.1-0.2-0.2-0.2-0.3c-1.3-0.9-2.8-1.3-4.6-1c-0.5,0.3-1,0.6-1.6,1
		c-0.1,0.1-0.3,0.2-0.4,0.3c0,0.2-0.1,0.5-0.1,0.7c0,0.9,0,1.8,0,2.7c0,0.1,0.1,0.2,0.1,0.3c0.4,0.3,0.7,0.5,1,0.8
		c0.2,0.1,0.4,0.2,0.6,0.4c1-0.2,1.9-0.3,2.9-0.6c0.7-0.1,1.3-0.5,1.8-0.9c0.1-0.2,0.2-0.3,0.3-0.4c0.4-0.9,0.5-1.8,0.3-2.6
		C82.464,7.71,82.464,7.611,82.464,7.511z M76.764,9.511c0-0.1,0-0.2,0-0.4c0-0.7,0.4-1.2,1-1.5c1.7-0.7,2.8-0.3,3.3,1.1
		c-0.2,1.6-1.1,2.4-2.9,2.3C77.164,10.811,76.764,10.311,76.764,9.511z"/>
	<path style="fill:#BE3689;" d="M72.164,3.71c-0.3,0.3-0.8,0.6-1.3,0.8c-0.3,0.2-0.6,0.4-0.8,0.6c0,0.7,0,1.3,0,1.9
		c0,0.2,0.1,0.5,0.1,0.7c0.3,0.3,0.5,0.5,0.8,0.8c0.1,0.1,0.2,0.2,0.3,0.4c1.6,0.7,2.8,0.5,3.7-0.5c0.4-0.5,0.5-1.2,0.5-1.9
		c-0.1-0.5-0.1-1-0.3-1.5c-0.2-0.3-0.5-0.5-0.8-0.7c-0.2-0.2-0.3-0.3-0.4-0.4C73.364,3.811,72.664,3.811,72.164,3.71z M72.164,7.511
		c-0.1-0.1-0.3-0.3-0.5-0.4c-0.7-0.9-0.3-1.5,1-1.9c0.3,0,0.5,0.1,0.6,0.2c0.3,0.3,0.6,0.6,0.8,1
		C74.164,7.511,73.564,7.911,72.164,7.511z"/>
	<path style="fill:#BE3689;" d="M84.664,87.511c3-1.6,4.7-3.1,5-4.6c-0.2,0.1-0.6,0.3-1,0.5c-2.9,1-5.2,2.6-7,4.7
		C82.464,88.311,83.464,88.111,84.664,87.511z"/>
	<path style="fill:#BE3689;" d="M80.064,86.71c2.9-1.1,4-2.1,3.1-2.7c-3.7,1.3-7.2,3.3-10.2,6
		C75.064,88.811,77.464,87.811,80.064,86.71z"/>
	<path style="fill:#BE3689;" d="M92.964,50.71c-0.6,0-1.2,0-1.8-0.1c-7.7,3.7-13.8,9-18.3,15.8c0.2-0.6,0.3-1.2,0.3-1.9
		c1.3-11.3-3.1-19.2-13.1-23.6c-0.3-0.3-0.6-0.5-0.9-0.6c1.1-1.4,2.6-1.6,4.5-0.8c0.8,0.3,1.3,0.1,1.5-0.6c-0.4-0.7-1-1.4-1.8-1.9
		c-0.3-0.3-0.6-0.6-0.8-0.9c-0.2-0.4-0.2-0.7-0.2-1.1c0.1-0.2,0.2-0.3,0.3-0.3c0.9-0.6,1.8-1.1,2.7-1.5c0.2,0.1,0.3,0.2,0.5,0.3
		c0.1,0.4,0.2,0.8,0.3,1.1c0,0.3,0,0.5,0,0.8c0.1,0.7,0.4,1.3,0.9,1.7c6.1,0,8.9-2.6,8.3-8c-2.1-0.7-4.3-0.9-6.5-0.6
		c-0.4-0.3-0.9-0.5-1.3-0.7l-0.2,0.1c-0.5-0.3-0.9-0.5-1.4-0.5c-0.4,0-0.7,0-0.8,0.1c-2.2-1.3-5-1.5-8.3-0.6
		c-0.4,0.3-0.8,0.5-1.4,0.7c-0.3,0-0.5,0.1-0.7,0.3c-0.5-1.5-1.2-2.8-2.1-4.2c-0.2,0-0.3-0.1-0.4-0.1c-1,0.1-1.9,0.2-2.7,0.3
		c-4.1,1.5-6.7,4.1-7.9,7.8v-0.1h-0.1c0-0.4,0.1-0.8,0.3-1.2c-0.1-0.3-0.2-0.7-0.2-1.1c-0.2-0.4-0.3-0.9-0.4-1.4
		c0.1-0.3,0.2-0.6,0.3-0.9c0.6-2.5,1.6-4.8,3.3-6.9c0.1,0,0.3-0.1,0.4-0.2c2.6,0.7,5.2,0.5,7.9-0.9c0.1-0.3,0.2-0.6,0.2-0.8
		c-0.2-4-2-6.9-5.3-8.8c-0.5,0.1-0.9,0.1-1.3,0.2c0,0,0,0,0,0.1c-1.7,1.7-2.7,3.5-3.1,5.3c-0.3,0-0.5,0.1-0.4,0.4
		c0.1,0.2,0.2,0.4,0.3,0.6c0,0,0,0.1,0,0.2c-0.3,0-0.6,0-0.9,0.1c-1.3,1.1-2.5,2.6-3.4,4.3c-1.4,2.5-2.1,4.8-1.9,6.9
		c-0.2-0.2-0.3-0.4-0.4-0.6c-0.4-0.9-0.9-1.6-1.4-2.3c-0.1-0.1-0.1-0.1-0.2-0.2v0.1c-0.6-0.4-1.2-0.6-2-0.9c-5.4-1.2-11-2-16.6-2.1
		c0,0.1,0,0.1-0.1,0.1c-0.6,0.3-0.9,0.8-1.2,1.5c-0.3,0.4-0.6,0.9-0.9,1.3c0,2.4,0.4,4.7,1.3,7c0.5,1.3,1.5,2.2,2.8,2.8
		c0.5,0,1-0.1,1.4-0.1c0.7-0.7,1.4-1.2,2.2-1.6c0.2-0.2,0.5-0.4,0.8-0.6c-0.1,0.5-0.2,0.9-0.2,1.3c-0.1,0.2-0.2,0.4-0.3,0.6
		c0,0.2,0,0.5,0.1,0.7c0.1,1.3,0.4,2.5,0.8,3.6c-0.7,0.1-1.3,0.2-1.9,0.4c-0.5,0.6-1.4,1.2-2.5,1.6c-1.3,0.7-2.5,1.5-3.5,2.7
		c-2.8,0.2-5.1,1.1-6.7,2.9c-0.1,0.7,0.1,1.3,0.4,1.9c0.6,0.9,1.4,1.7,2.4,2.4c0.9,0.8,2,1.5,3.3,2c2.3,0.8,4,0.4,4.9-1.2
		c-0.3-0.7-0.4-1.4-0.2-2.1c0,0.2,0,0.4,0.1,0.6c0,0,0,0,0,0.1l0,0c0.2,1.3,0.1,2.5-0.2,3.8c0.9-0.9,1.7-2,2.3-3.3
		c0.1,0,0.1,0,0.2-0.1c-0.2,0.4-0.3,0.8-0.4,1.1c-2.3,3.9-3.6,8.1-4,12.8c-3.8-1.9-8.1-3.1-13-3.6c0,0.1,0,0.1,0,0.1
		c-0.2,0.1-0.3,0.1-0.5,0.2c-0.5,0-1,0.1-1.5,0.2c-0.1,0.1-0.2,0.1-0.4,0.2c-2,2-2.7,4.5-2,7.4c2.2,9.3,7.1,15.6,15,19.2
		c-3.1,0.4-5.9,1.4-8.3,3.1c0.2,0,0.4,0,0.6-0.1c2.8-1.1,5.7-1.9,8.7-2.6c0.6,0.3,1.3,0.5,1.9,0.8c-0.4,0.2-0.9,0.4-1.5,0.5
		c-1.5,0.4-2.7,1-3.7,1.9c0.4,0.1,0.8,0.1,1.1-0.1c2-0.6,3.8-1.2,5.5-1.9c0.3,0.1,0.6,0.2,1,0.3c1.8,0.4,3.4,0.6,5,0.5
		c-1.7,0.6-3.4,1.3-5.1,1.9c0.4,0.2,0.8,0.4,1.2,0.5c4.1-1.3,8.1-2.6,12.1-4c2.5-0.7,4.1-1.6,4.9-2.5c0-0.1,0-0.1,0.1,0
		c0-0.1,0-0.1,0-0.2c0,0,0,0,0-0.1c0.9,0.1,1.7,0.1,2.6,0.2c-3.1,1.7-6.1,3.4-9.1,5.1v0.2c4.4-1.4,8.7-3.2,12.8-5.4
		c1.2-0.1,2.4-0.3,3.6-0.4c0.3,0.1,0.7,0.2,1.1,0.3c-3.4,1.4-6.6,3.1-9.5,5.3c2,0,4.2-0.5,6.5-1.6c2.4-1,3.9-2.2,4.8-3.3
		c1.8,0.3,3.8,0.1,5.8-0.4c-2.4,1.5-4.7,2.9-7.1,4.5c0,0.1,0,0.2-0.1,0.3c-0.5,0.6-0.3,1,0.5,1c0.3-0.2,0.5-0.3,0.7-0.4
		c5.2-3.5,10.3-6.7,15.4-9.6c-0.2,0-0.4-0.1-0.6-0.2c-0.3,0-0.6-0.1-1-0.1c-0.6,0.2-1.2,0.6-2,1c-1,0.6-2,1.2-3,1.8
		c0.5-0.5,1.1-1.1,1.6-1.7c0-0.1,0.1-0.2,0.1-0.3c0.2-0.2,0.3-0.4,0.3-0.6v-0.1l0,0c0-0.2,0.1-0.5,0.1-0.7c0.1-0.1,0.2-0.1,0.4-0.2
		c0,0.1,0.3,0,0.7-0.3c0-0.1,0.1-0.1,0.1-0.2c0.2-0.1,0.4-0.2,0.6-0.3c0.1-0.2,0.4-0.3,0.5-0.3c0.4-0.1,0.6-0.2,1-0.3
		c0.3,0,0.6,0,0.9,0c0.6,0.3,1.1,0.6,1.6,1c0.1,0.1,0.1,0.2,0.1,0.3c0,0.7,0,1.4,0.3,2c0.1,0.1,0.1,0.4,0.1,0.6
		c0,0.2,0.1,0.4,0.1,0.5l0,0c-4.3,2-8.3,4.1-11.7,6.5c2.3-0.1,4.8-0.8,7.5-2.2c2.6-1.3,4.2-2.6,4.6-3.6c0.5,0.8,1.1,1.5,1.9,2.1
		c-1.9,0.8-3.3,2-4.2,3.3c0.2,0.9,0.7,1.1,1.7,0.6c2.2-1.1,3.4-2.2,3.7-3.3c1.1,0.5,2.4,0.6,3.9,0.5c4.2-2.4,7.9-5.5,11.1-9.2
		C94.364,69.311,96.264,60.311,92.964,50.71z M92.264,52.611c1.3,2.7,1.5,5.5,0.6,8.5c-2.9,10.7-9.1,18.9-18.6,24.5
		c-3.4-1-5.1-3.2-5.1-6.7c-0.8-0.8-1.7-1.2-2.6-1.4c0.5-0.4,1-0.8,1.4-1.3c0.7,0.5,1.7,0.4,2.8-0.1
		C74.164,64.511,81.364,56.71,92.264,52.611z M46.964,17.011c-0.3,0.2-0.6,0.4-1,0.6c-0.6,0.3-1,0.6-1.4,1l-0.1,0.1
		c-0.2,0.2-0.3,0.3-0.4,0.5c-0.2,0-0.3,0-0.4,0.1c0.1,0,0.2,0,0.2,0c-2.9,3.4-4.1,7.3-3.7,11.6c0.1,0.1,0.1,0.2,0.2,0.3
		c-0.5-0.2-1-0.2-1.5-0.2c0-0.6,0-1.3,0-1.9c0-4.5,1.5-8.2,4.5-10.9c0.3-0.1,0.5-0.2,0.7-0.3c0.3,0,0.6-0.2,0.8-0.4
		c1.7-1.1,2.2-2.1,1.5-3c-0.2,0.3-0.5,0.5-0.9,0.6l0,0c0.4-1.3,1.1-2.6,2.1-3.8c0.5,0.1,1,0.4,1.4,0.8c1.7,1.3,2.6,3.1,2.9,5.4
		c-1.3,0.3-2.7,0.6-4,0.9c0.4-0.3,0.7-0.6,1.1-1c-0.1-0.1-0.2-0.1-0.4-0.2C48.064,17.111,47.464,17.011,46.964,17.011z
		 M55.364,31.611c0-0.8-0.1-1.7-0.3-2.5c3.8-1.4,7.6-1.4,11.4,0.1c0.3,0.4,0.7,0.8,1,1.2c0.4-0.2,0.7-0.3,1.1-0.3
		c0.5,0.4,1.1,0.6,1.9,0.5c0-0.2,0-0.2-0.1-0.3c-0.1-0.2-0.2-0.3-0.2-0.4c1.5-0.1,2.8,0.2,4,0.9c-0.1,0.1-0.1,0.3-0.2,0.4
		c-0.1,0.3-0.2,0.5-0.3,0.8c-0.5,0.7-0.9,1.5-1.3,2.3c-1.5,1-3,1.4-4.7,1.4c-0.1-0.3-0.1-0.5-0.2-0.7c0-0.3-0.1-0.5-0.1-0.8
		c-0.2-0.3-0.2-0.7-0.3-1c0.3,0.3,1,0.4,2.3,0.2c-0.2-0.1-0.3-0.2-0.4-0.3c-0.4-0.5-0.9-0.9-1.5-1.2c-0.1,0-0.1,0.1-0.2,0.1
		c-0.1,0.3-0.2,0.5-0.3,0.7c0-0.1,0-0.2,0-0.3C63.064,29.811,59.164,29.511,55.364,31.611z M52.264,25.311c0.3,0.7,0.5,1.4,0.8,2.1
		c0.8,2.8,0.9,5.7,0,8.4c-0.3,0.3-0.6,0.7-0.9,1c-0.1,0.2-0.2,0.3-0.3,0.5c-0.7,0.3-1.4,0.7-2.1,1.2c-0.3-0.1-0.6-0.1-1-0.2
		c-2.3-0.4-4.3-1.4-6.1-2.8c0-0.1,0-0.1-0.1,0c-0.1-0.5-0.2-0.9-0.2-1.3c0.7-0.1,1.5-0.1,2.3-0.2c0.6,0.4,1.3,0.7,2,1
		c0.9,0.3,1.6,0.1,2-0.6c0-0.7-0.5-1-1.4-0.9c-0.8,0.1-1.5-0.1-2.1-0.6c-0.5,0-0.9,0.1-1.3,0.2c1.4-1,2.9-1.7,4.4-2.2
		c-0.1-0.1-0.2-0.2-0.3-0.2c-0.7-0.1-1.4-0.2-2.1-0.2c-0.1,0.1-0.3,0.2-0.4,0.3c-1.6,0.4-2.6,1.2-2.9,2.5c-0.1,0-0.1,0-0.1,0.1
		c-0.1,0-0.2,0.1-0.3,0.1c-0.1-0.4-0.2-0.8-0.2-1.1c0,0,0,0,0-0.1c-0.1,0-0.1,0-0.1-0.1c0,0,0-0.1-0.1-0.2
		C44.464,28.611,47.964,26.411,52.264,25.311z M38.864,32.611c0.5,0.2,1.1,0.4,1.7,0.5c0.1,0.4,0.2,0.8,0.3,1.1
		c0.2,0.6,0.2,1.1,0.1,1.6c-0.1,0.1-0.1,0.2-0.2,0.3v0.1c-0.9,0.1-1.9,0.2-2.8,0.5c-0.2-0.1-0.4-0.1-0.7-0.1v-0.2
		c-0.1-0.3-0.2-0.7-0.2-1c-0.2-0.5-0.3-1-0.4-1.5c0-0.1,0-0.2-0.1-0.4C36.764,32.511,37.464,32.21,38.864,32.611z M43.664,37.71
		c-0.1-0.1-0.1-0.1-0.2-0.1c0-0.1,0-0.1,0-0.2c1.9,2,4.6,2.9,8,2.7c0.1-0.1,0.2-0.2,0.3-0.2c0.1-0.2,0.3-0.4,0.4-0.5
		c0.6,0.2,1.2,0.4,1.8,0.6c-0.3,0.1-0.5,0.1-0.8,0.2c3.3,0.9,6.7,2.5,10.2,4.7c5.1,3.3,7.9,7.7,8.4,13.2c0.5,5.6-1.3,11.1-5.6,16.6
		c-4.1,5.5-11.1,8.6-20.9,9.2c-4.5,0.3-8.6,0-12.4-0.9c-0.1-0.2-0.1-0.3-0.1-0.4c-2.5-8.3-7.1-14.4-13.7-18.1
		c0.3-6.6,2.4-12.3,6.4-17.3c0,0,0.1,0,0.2,0c-0.1-0.1-0.1-0.1-0.2-0.1c0.1-0.1,0.2-0.2,0.2-0.2c1.1-1,2.1-1.8,3.3-2.6
		c1.1,0.6,2.5,0.8,4.2,0.5c0-0.1,0.1-0.2,0.2-0.2c2.7-1.6,4.2-3.5,4.6-5.5C39.864,38.21,41.764,37.811,43.664,37.71z M54.064,37.21
		c0.4-0.6,0.6-1.2,0.8-1.9c2.2,0.9,4.5,1.5,7,1.8c0,0.1,0.1,0.2,0.2,0.4c0.1,0.1,0.1,0.2,0.3,0.3c-0.3,0.1-0.7,0.2-0.9,0.2
		c-0.7,0.1-1.4,0.1-2.1,0.3c-0.2,0-0.4,0.1-0.6,0.2c-0.3,0.3-0.5,0.7-0.7,1.1c-1.4-0.9-2.8-1.6-4.3-2.1
		C53.864,37.411,53.964,37.311,54.064,37.21z M54.964,34.911L54.964,34.911c0.2-1.1,0.3-2.1,0.4-3c3.2-1,6.2-0.9,9.1,0.7
		c-0.8,0.1-1.5,0.2-2.1,0.3c0,0.1,0,0.1-0.1,0.1c-0.1,0.1-0.2,0.2-0.3,0.4c-0.3,0.2-0.4,0.5-0.5,0.8c-0.1,0.1-0.2,0.3-0.3,0.4
		c0.2,0.6,0.3,1.2,0.4,1.8c0,0.1,0,0.1,0,0.1C59.464,35.511,57.264,35.011,54.964,34.911z M16.564,29.21c-0.1-0.8-0.2-1.7-0.3-2.6
		c0-1.1,0.3-2.2,1.2-3.3c0.4-0.1,0.8,0,1.1,0.1c1,0,1.9,0.3,2.8,0.7c3-0.6,6-0.5,8.9,0.2c1.9,0.4,3.5,1.1,4.8,2.1
		c0,0.1,0,0.2-0.1,0.4c0.1,0.1,0.2,0.1,0.2,0.3c1,1.2,1.9,2.5,2.5,3.9c-0.5,0.1-1,0.2-1.5,0.4c-0.1-0.2-0.1-0.4-0.2-0.5
		c-0.9-0.3-1.4-1.2-1.6-2.6c-0.1-0.2-0.2-0.3-0.4-0.4c0,0.1,0,0.1-0.1,0.1c-0.2-0.3-0.5-0.6-0.8-0.9c0,0,0,0-0.1-0.1
		c-2.5-2.3-5.3-2.8-8.4-1.4c-0.1-0.1-0.1-0.2-0.1-0.3c-0.1-0.3-0.2-0.4-0.3-0.7c-0.1,0-0.2,0-0.2,0c0,0.4,0,0.8-0.1,1.3l0,0
		c-0.1,0.3-0.1,0.6-0.2,0.8c-0.2,0.7-0.4,1.3-0.7,2c-0.8,1.9-2.2,3.1-4.2,3.5C17.464,31.511,16.764,30.511,16.564,29.21z
		 M17.664,45.011c0.1,0.2,0.1,0.5,0.2,0.7c0.1,0.5,0.2,1,0.3,1.5c0.1,0.3,0.1,0.7,0.1,1c-0.2,0.6-0.1,1.1,0.1,1.6c0,0.2,0,0.2,0,0.2
		c-0.6,0.3-1.3,0.6-2.1,0.8c-1.7-0.2-3-0.9-4.1-1.9c-0.7-0.7-1.3-1.5-1.6-2.4c1.7-0.6,3.8-1.4,6.1-2.6c0.4-0.5,0.9-1,1.5-1.3
		c2.3-1.3,4.1-2.6,5.6-3.7c0.3,0.7,0.6,1.4,1.1,2.1C21.864,41.111,19.564,42.411,17.664,45.011z M31.664,29.21
		c0.3,0.4,0.5,0.8,0.8,1.1c-2.5-1-5.3-1.2-8.2-0.6c0.3-1,0.6-1.8,0.9-2.8C28.064,26.011,30.264,26.911,31.664,29.21z M35.264,31.811
		c-0.1-0.1-0.3-0.2-0.5-0.3c0-0.1,0-0.1,0-0.1c0.3,0,0.5,0.1,0.7,0.2c0,0,0,0-0.1,0C35.264,31.71,35.264,31.71,35.264,31.811z
		 M31.264,32.011c1.5,0.8,2.8,1,3.7,0.8c0,0.6,0,1.2,0.1,1.8c-2-1-4.3-1-6.7-0.1l-0.3,0.2c1.9,0.2,3.8,0.3,5.7,0.5
		c-0.3,0-0.7,0.2-1.1,0.4c-0.6,0.5-1.1,1.1-1.7,1.8c-0.2,0.1-0.2,0.3-0.2,0.5l0.1,0.2c1.6-1.2,3.1-1.8,4.6-1.9
		c0.1,0.3,0.3,0.7,0.4,1c-0.1,0.1-0.1,0.1-0.2,0.1c-0.1,0.1-0.2,0.1-0.2,0.1c0.2,0.1,0.4,0.1,0.6,0.2c0.2,0.3,0.4,0.7,0.5,1
		c0,0.2,0,0.3,0.1,0.4c-1.5,1.7-3.1,3-5.1,4.1c-0.5-0.2-0.9-0.3-1.4-0.5c0,0,0,0,0-0.1c-0.1-0.1-0.3-0.2-0.4-0.3
		c-2-1.2-3.5-2.5-4.4-4c-0.4-0.8-0.6-1.6-0.8-2.5c-0.2-1.4-0.2-2.8,0.1-4.2c0-0.1,0-0.2,0.1-0.2c0.6-0.4,1.3-0.6,2-0.8
		C28.364,30.911,29.764,31.411,31.264,32.011z M19.364,45.511c0-0.1,0.2-0.3,0.3-0.4c1.8-1.2,3.6-2.1,5.7-2.9
		c-0.8,0.7-1.5,1.4-2.2,2.2c-1,1.1-1.9,2.3-2.6,3.6c-0.1-0.5-0.2-0.9-0.3-1.3c-0.1-0.1-0.2-0.1-0.4-0.2c-0.1,0-0.2,0-0.3,0
		C19.464,46.111,19.364,45.811,19.364,45.511z M26.464,42.611c0.2,0.1,0.4,0.3,0.6,0.5c-0.4,0.4-0.8,0.9-1.3,1.3
		c-0.6,0.7-1.2,1.3-1.7,2c-0.1,0-0.2,0-0.3-0.1c-0.3,0.4-0.5,0.8-0.7,1.2c0,0,0.1,0,0.2,0c-0.1,0.2-0.3,0.5-0.4,0.8
		c-0.7,0.1-1.3,0.5-2,1.2c0-0.1-0.1-0.3-0.1-0.4c0.2-0.1,0.3-0.3,0.4-0.6C22.264,45.911,24.064,43.911,26.464,42.611z M3.164,62.411
		c0.4-0.1,0.7-0.2,1-0.3c0.2-0.1,0.4-0.2,0.5-0.2c4.8-0.1,9.2,1.1,13.4,3.7c8.2,4.7,12.6,11.3,13.1,19.9c-3.7,2.7-7.9,3.4-12.8,1.9
		c-5.2-1.6-9.3-4.7-12.4-9.3C2.464,72.911,1.564,67.71,3.164,62.411z M30.464,87.911c0.3-0.2,0.7-0.5,1.1-0.8
		c0.8-0.8,1.3-1.7,1.4-2.6c1.7,0.3,3.3,0.6,4.9,0.8c0,0,0,0-0.1,0C35.264,86.21,32.964,87.111,30.464,87.911z M57.464,83.011
		c-0.1-0.1-0.2-0.2-0.3-0.3c1-0.4,2.1-0.9,3.1-1.4c-2.2,2.2-5,3.4-8.2,3.6c0-0.1,0.1-0.3,0.1-0.5c-0.3,0.2-0.7,0.4-1.1,0.6
		c-0.6,0-1.1,0-1.6-0.1c2.3-0.4,4.5-1,6.7-1.8c0.1,0.1,0.1,0.2,0.2,0.3c0.2-0.1,0.5-0.2,0.7-0.3
		C57.264,83.011,57.364,83.011,57.464,83.011z"/>
	<path style="fill:#BE3689;" d="M48.264,41.911c-0.7,0.6-1.1,1.8-1,3.5c-0.1,0.1-0.1,0.1-0.1,0.1c-0.9,0-1.9,0.2-2.9,0.5
		c-0.2,0.2-0.5,0.4-0.8,0.7c-0.7,0.6-1.1,1.3-1.3,2.2c0,0-0.1,0.1-0.1,0.2c-2.6-1.4-4.9-1.6-6.9-0.6c-0.5-0.3-1.2-0.3-2-0.2
		c-0.1-0.2-0.1-0.3-0.1-0.4c0-0.7-0.3-1.1-0.7-1.4c-0.4,0-0.6,0.1-0.6,0.5c0,0.9,0.3,1.8,0.9,2.4c0.2,0.1,0.4,0.2,0.6,0.3
		c-0.2,0.2-0.5,0.5-0.7,0.8c-0.8,0-1.5-0.2-2.2-0.3c-0.1-0.2-0.1-0.3-0.1-0.4c0-0.4-0.2-0.7-0.6-1c-0.1,0.1-0.2,0.1-0.2,0.3
		c-0.3,0.8-0.1,1.5,0.5,2.1c0.5,0.3,1,0.5,1.6,0.6c-0.1,0.1-0.3,0.2-0.3,0.4c-1.1,0.2-2,0-2.9-0.7c-0.4,0-0.6,0.1-0.5,0.5
		c0.1,0.9,0.8,1.4,1.9,1.5c0.2,0,0.4,0,0.6,0c-3.3,5.7-2.1,10.3,3.6,14.1c4.9,0.2,8.8-1.5,11.6-5.1c3,1.6,6,1.4,9.2-0.6
		c4.8-3.2,5.7-7.2,2.8-11.9c-0.1-0.1-0.2-0.2-0.3-0.3c-1.2-1.3-2.5-2.3-3.8-3c0.1-0.1,0.3-0.2,0.5-0.3c0.1-0.2,0.2-0.4,0.3-0.5
		c0.7-1.1,0.6-1.9-0.2-2.6h-0.1c-0.4,1.1-1.2,2.1-2.2,2.7c-0.4-0.1-0.8-0.2-1.2-0.3c0.4-0.5,0.7-1,1-1.6c-0.1-0.1-0.1-0.2-0.1-0.4
		c-0.1-0.7-0.4-1.3-0.8-1.7h-0.2c0.1,1.8-0.5,2.9-1.7,3.5c-0.1,0-0.1,0-0.1,0c0-0.1,0-0.2,0-0.2
		C48.964,44.011,48.764,42.911,48.264,41.911z M35.864,49.511c0.6-0.1,1.2-0.3,1.8-0.5c0.2,0.1,0.4,0.2,0.7,0.3
		c1.4,0.6,2.7,1.2,3.9,1.6c0.5,0.1,1,0.1,1.4,0.2c0.2-0.4,0.3-0.9,0.4-1.3c0-0.6,0.1-1.2,0.3-1.7c4.6-1.7,8.5-0.7,11.9,3.1
		c0.2,0.7,0.5,1.3,0.7,1.9c1.2,2.7,0.5,5.2-2,7.2c-3.4,2.1-6.8,2-10-0.1c-5.4,7.2-10.4,7.7-14.9,1.4c-0.1-0.1-0.1-0.2-0.1-0.3
		C29.664,56.411,31.664,52.511,35.864,49.511z"/>
	<path style="fill:#BE3689;" d="M37.464,56.311c-0.9-0.6-1.9-1.3-2.9-1.9l-0.3,0.1c0.7,1.3,1.5,2.5,2.5,3.3
		c-0.5,1.4-0.7,2.7-0.5,4.1c0.7-0.6,1.5-1.5,2.1-2.5c0.1-0.1,0.2-0.3,0.2-0.4c1.2,0.5,2.4,0.8,3.9,0.8c0,0-0.1-0.1-0.1-0.2
		c-1-0.7-2-1.3-3-2c1-2.1,1.3-3.7,0.8-4.9v0.1c-0.4,0.3-0.8,0.6-1.2,0.8c-0.1,0.5-0.2,0.8-0.5,1.2
		C38.164,55.311,37.764,55.811,37.464,56.311z"/>
	<path style="fill:#BE3689;" d="M51.664,49.21c-0.1,0-0.2,0.1-0.2,0.3c-0.7,1.3-1.3,2.6-1.8,4c-0.9-0.5-1.9-1-2.9-1.4l-0.3,0.1
		c0.9,0.8,1.8,1.6,2.8,2.4c-0.6,1.4-1.1,2.8-1.5,4.3c1.1-0.8,2.1-2,2.9-3.4c1.3,0.8,2.7,1.5,4.3,2c-0.1,0-0.1-0.1-0.1-0.2
		c-1.2-1.1-2.4-2.1-3.7-2.9c0-0.1,0-0.2,0.1-0.2C52.264,51.71,52.364,50.011,51.664,49.21z"/>
	<path style="fill:#BE3689;" d="M65.664,70.21c0-0.1,0-0.2-0.1-0.3c-2.4-2-5.2-2.5-8.5-1.6c-1.3,0.8-2.3,1.9-3,3.4
		c-1.3,2.3-1.4,4.7-0.5,7.1c0.2-0.1,0.3-0.2,0.4-0.3c0.2-0.5,0.1-0.9,0-1.4c0.2-0.7,0.4-1.5,0.4-2.3c0.1-2.5,1.3-4.3,3.7-5.4
		c0.1,0.1,0.3,0.1,0.4,0.1C61.264,69.71,63.664,69.911,65.664,70.21z"/>
	<path style="fill:#BE3689;" d="M61.764,20.011c-0.1,0.1-0.1,0.2-0.1,0.2c-0.4,0.5-0.7,1-1,1.5c-0.7,0.5-1.9,0.8-3.5,0.9
		c-0.1,0.2-0.2,0.3-0.3,0.4c-0.4,0.5-0.7,1.2-0.7,1.9c0.7,0.3,1.3-0.1,1.9-1.3c1.1-0.1,2.3-0.2,3.5-0.4c0,0,0-0.1,0-0.2
		c0.3-0.6,0.6-1.3,1-1.9c0.8,0.1,1.6,0.1,2.5,0.1c0,0,0-0.1,0-0.2c0.9-1,1.3-2,1.4-3c-0.4,0-0.7,0.1-1,0.1c-0.4,0.7-0.8,1.3-1.2,1.9
		C63.464,19.911,62.564,19.911,61.764,20.011z"/>
	<path style="fill:#BE3689;" d="M1.464,89.511c0.2,0,0.4,0,0.7,0c2.7-0.8,5.5-1.7,8.3-2.5c-0.1-0.1-0.1-0.1-0.2-0.2
		c-0.5-0.1-1-0.1-1.6-0.2c-0.1,0.1-0.2,0.1-0.3,0.2C5.864,87.411,3.464,88.311,1.464,89.511z"/>
	<path style="fill:#BE3689;" d="M4.564,90.911h-0.1c-0.1,0.1-0.2,0.3-0.3,0.5c0.1,0.1,0.2,0.2,0.2,0.1c0.3,0,0.5,0,0.8-0.1
		C4.964,91.311,4.764,91.111,4.564,90.911z"/>
</g>
</svg>
