<?xml version="1.0" encoding="iso-8859-1"?>
<!-- Generator: Adobe Illustrator 12.0.1, SVG Export Plug-In . SVG Version: 6.00 Build 51448)  -->
<!DOCTYPE svg PUBLIC "-//W3C//DTD SVG 1.1//EN" "http://www.w3.org/Graphics/SVG/1.1/DTD/svg11.dtd" [
	<!ENTITY ns_svg "http://www.w3.org/2000/svg">
	<!ENTITY ns_xlink "http://www.w3.org/1999/xlink">
]>
<svg  version="1.1" id="Layer_1" xmlns="&ns_svg;" xmlns:xlink="&ns_xlink;" width="86.3" height="82.24" viewBox="0 0 86.3 82.24"
	 style="overflow:visible;enable-background:new 0 0 86.3 82.24;" xml:space="preserve">
<g>
	<path style="fill:#BE3689;" d="M78.4,81.1c2.3-1.3,3.8-2.4,4.4-3.4c1.1-0.3,2.3-0.8,3.5-1.2c0-0.1-1.5-1.5-4.5-4.4
		c-3-2.8-8.8-4.6-17.3-5.3c-2.5,0.5-5,1.1-7.6,2c-0.8,0.2-1.5,0.6-2,1.1c0,0,0,0-0.1,0c-0.2-1-0.6-1.9-1.3-2.6
		c-0.3,0-0.6,0.1-0.9,0.2c0.2,1.3,0.7,2.1,1.4,2.8c-0.8,0.4-1.5,1-2,1.9c0.1,0.1,0.2,0.2,0.2,0.1c0.7-0.1,1.2-0.2,1.7-0.3
		c0,0.1,0,0.2,0,0.3c11.3-5.9,21.2-4.6,29.9,3.6c-8.7,2.1-17.6,2.8-26.5,2c-3.7-0.7-6.7-1.8-9.2-3.1c0-0.1,0.1-0.2,0.1-0.3
		c1.8-2.4,1.9-4.5,0.3-6.4c-0.5,0.1-1,0.1-1.5,0.1l-0.1,0.1c0.2,0,0.4,0,0.6,0c0.1,0.6,0.3,1.3,0.6,2.2c-0.4,0.1-0.7,0.3-1,0.7
		c0,0,0,0-0.1,0c-0.4,0.2-0.8,0.5-1.3,0.6c-0.1,0-0.1,0-0.2,0c0,0,0,0-0.1,0.1c-0.8,0.2-1.8,0.3-2.9,0.2c-3-0.1-5.7-0.2-8.1-0.3
		c-0.3-1.3-0.4-2.7-0.4-4c-0.2,0-0.4,0-0.6,0c-0.6,2.3-0.4,4.4,0.6,6.1c-0.2,0-0.3,0.1-0.5,0.1c0,0.5,0.2,0.8,0.5,1.2
		c0.4,0.3,0.7,0.7,1.1,1.1c0,0.1,0,0.1,0,0.1c-0.3,0.1-0.7,0.3-1,0.5c-2.1,0.2-4.2,0.5-6.3,0.6c-0.3-0.1-0.5-0.1-0.8-0.2
		c0,0.1,0,0.1,0,0.1c-0.4,0.1-0.6,0.2-1,0.3c-7,0.6-14.2,0.8-21.4,0.7c-1.2,0-2-0.5-2.5-1.5c0.3-0.8,0.7-1.5,1.4-2.1
		c7.4-7.5,15.7-8.7,25-3.6c0.8,0.7,1.7,1.1,2.8,1.5c0-0.2-0.1-0.3-0.2-0.3c-0.5-0.6-1-1.2-1.7-1.6c0.1-0.2,0.1-0.3,0.1-0.5
		c0-0.1-0.1-0.2,0-0.4c0.3-1.1,0.4-2.1,0.3-3c-0.3-0.1-0.6-0.2-0.9-0.3c-0.1,0.1-0.3,0.2-0.4,0.3c0,0.3,0,0.5-0.1,0.7
		c-0.3,0.7-0.5,1.4-0.4,2.3c-0.3-0.1-0.6-0.3-0.9-0.5c-0.2-0.1-0.3-0.1-0.2,0.1c0,0,0.1,0.1,0.2,0.3c-3.6-2.4-7.8-3.4-12.6-3.1
		c-1.3,0.4-2.6,0.7-3.9,1.1c-1.2,0.2-2.9,1.3-5,3.3c-2.2,2-3.5,3.4-4,4.1C0.9,76,0.7,77,1.1,78c0.1,0.3,0.2,0.5,0.3,0.8
		C1.9,78.9,2.5,79,3.1,79c-1.4,0.3-2.5,1-3.1,2.2c0.1,0.1,0.2,0.2,0.2,0.1c2.6-0.2,4.1-0.9,4.3-2.1c1.1,0.2,2.2,0.3,3.4,0.4
		c-1.4,0.4-2.6,1-3.8,1.9c0.1,0.2,0.1,0.2,0.1,0.2c2.7-0.4,4.6-1,5.7-2c1.2,0.1,2.4,0.1,3.6,0.2c-1.2,0.4-2.4,1-3.5,1.8
		c0.4,0.6,1.1,0.7,1.9,0.3c0,0,0.2-0.1,0.3-0.1c2-0.6,3.5-1.2,4.5-2c1.3,0,2.6,0,3.9,0c-1,0.5-2,1-3,1.6c0.3,0.2,0.6,0.2,0.8,0.2
		c1.9-0.6,3.8-1.3,5.6-2c1.8-0.2,3.5-0.4,5.3-0.6c-1.7,0.8-3.2,1.7-4.8,2.6c0.1,0.1,0.2,0.2,0.3,0.2c0.4,0.2,0.8,0.3,1.2,0.3
		c0.1-0.2,0.3-0.3,0.4-0.3c2.7-1.3,5.5-2.5,8.3-3.7c0.8-0.1,1.7-0.3,2.6-0.5c0-0.2,0-0.4-0.1-0.6c1.9-0.8,3.7-1.6,5.6-2.4
		c-0.2-0.2-0.4-0.3-0.6-0.3l0,0c1.5-0.8,3-1.4,4.4-1.9c0.4-0.1,0.8-0.2,1.1-0.3c-0.3,0.4-0.6,0.9-0.8,1.5c-5.4,1.8-9.8,4.5-13.1,7.8
		c0.2,0.1,0.4,0.1,0.6,0c4.8-2.4,8.9-4.8,12.3-7.4c-0.1,0.5-0.3,1-0.3,1.6c0.6,0.4,1.2,0.8,1.9,1.1c-3.5,1-6.1,2.7-7.9,5.1
		c0.2,0.1,0.3,0.1,0.5,0c2.7-1.7,5.6-3.2,8.7-4.5c0.9,0.3,1.8,0.6,2.8,0.8c-1.9,1-3.6,2.1-5.3,3.3l0.1,0.2c2.4-0.8,4.7-1.9,6.8-3.3
		c1.3,0.5,2.6,0.8,4,1c-0.7,0.3-1.5,0.6-2.4,0.9c0,0.1-0.1,0.1-0.1,0.2c-0.8,0.4-1,0.9-0.7,1.5c0.8,0.2,1.6,0,2.4-0.4
		c1.7-0.8,2.7-1.5,3.1-2.1c0.7,0.1,1.4,0.1,2.1,0c0.7,0.1,1.5,0.2,2.3,0.2c-0.8,0.5-1.6,1.1-2.2,1.7v0.3c2.4-0.3,3.7-1,4-1.9
		c1.5,0,3,0,4.5-0.1c-0.5,0.4-1,0.8-1.2,1.3c0.2,0.1,0.4,0.2,0.7,0.1c1.7-0.3,2.9-0.9,3.8-1.7c1.4-0.2,2.9-0.4,4.4-0.7
		c-1.1,0.6-2,1.5-2.7,2.5C76.7,81.7,77.4,81.6,78.4,81.1z M34.5,72.8c0-0.1,0-0.2,0-0.4c0,0,0,0,0-0.1c0.6,0.2,1.3,0.4,2,0.5
		c-0.5,0.3-0.9,0.6-1.3,1C35,73.4,34.8,73.1,34.5,72.8z M42.2,73.2c-0.7,0.3-1.2,0.7-1.8,1.1c-0.4,0.2-0.9,0.4-1.4,0.5
		c-0.8,0.3-1.6,0.6-2.3,1c-0.3-0.5-0.6-0.8-0.9-1.1c-0.1-0.1-0.1-0.2-0.1-0.2c0.9-0.3,1.8-0.8,2.6-1.4
		C39.6,73.3,40.9,73.3,42.2,73.2z"/>
	<path style="fill:#BE3689;" d="M57,0c-0.3,0.2-0.5,0.4-0.8,0.7c-0.8,1.2-1.8,2.2-2.8,3.1c-0.3-0.1-0.6-0.1-0.9-0.1l0,0
		c-0.1,0.1-0.2,0.1-0.3,0.1c-0.8-0.1-1.5-0.2-2.2-0.3c-2.5,0.2-4.8,1.1-6.7,2.9C42.5,7.1,42,8,41.9,9c0,0.2,0,0.4,0,0.7
		c0,0,0,0.1-0.1,0.2l0,0c-1.1-4.1-4.1-6.2-9.3-6.4c-0.1,0.1-0.2,0.1-0.3,0.2c-0.9-1.2-1.9-2.1-3-2.9c0.1,0,0.1-0.1,0.1-0.1
		c-0.1,0-0.2,0-0.2,0c-0.1,0-0.1,0-0.1,0l-0.1,0.1c-2.5,1.1-3.8,3-4,5.6c0.1,0.3,0.2,0.5,0.2,0.8c0.3,0.5,0.4,1.2,0.4,1.8
		c0.1,0.2,0.2,0.3,0.4,0.4c0.2,0.4,0.5,0.8,0.8,0.9c-0.6,1-1,2.3-1.1,3.6c-0.1,0-0.1,0-0.1,0c0,0.5,0,1.2,0,1.8
		c-5.1,2-9.9,4.3-14.6,7c0.8,4.9,4.1,7.2,9.6,6.8c0.2-0.3,0.3-0.6,0.4-1c0.4-0.9,0.6-1.6,0.4-2.3c0.7,0,1.3,0,1.9,0
		c-0.4,0.5-0.9,0.9-1.3,1.5l0,0c-0.4,0.5-0.8,1-1.1,1.5c-0.1,0.1-0.2,0.2-0.3,0.3c-3.3,3.7-5.6,8-7,13.1c-2.3,9,0.2,15.7,7.6,20.1
		c1.5,0.8,3,1.6,4.5,2.3l-1.1-1.8v-0.3c-3.9-2-7.2-4.8-9.8-8.2c-0.6-1.7-0.8-3.5-0.7-5.4c0.8-9.8,4.6-17.4,11.4-22.9h0.1
		c0,0,0,0-0.1,0c0.1-0.1,0.2-0.2,0.2-0.2c1.3-0.7,2.5-1.3,3.8-1.9c0.5,0.5,1.1,0.8,1.7,1.1l1.9,0.3l0.1,0.1c0.1,0,0.2,0,0.3,0
		c0.1-0.1,0.2-0.1,0.3-0.2c3-0.9,4.9-2.4,5.7-4.3c2-0.4,4-0.5,5.9-0.1c-0.1,0-0.1-0.1-0.2-0.2v-0.1c1,1.6,2.5,2.8,4.5,3.6l3.4,0.2
		l0.2,0.1c0-0.1,0-0.1,0-0.1c0.6,0.4,1.1,0.7,1.6,1.1c-0.1-0.1-0.2-0.1-0.2,0l0.2,0.4c2.7,1.6,5.4,3.7,8.1,6.4
		c4.3,4.3,6.1,9.2,5.3,14.8c-0.7,5-3.3,9.6-7.8,13.7c0-0.1,0-0.2,0-0.2c-0.1,0-0.2,0.1-0.4,0.2c0.1,0.1,0.1,0.2,0.1,0.3
		c0,0,0,0-0.1,0.1c0-0.2,0-0.3,0-0.3c-0.1,0-0.2,0.1-0.2,0.1c0,0.1,0,0.1,0,0.2c0,0.1,0,0.1,0.1,0.2h-0.1c0.1,0.6,0.2,1.3,0.2,2
		c0,0.1,0,0.3-0.1,0.4c-0.9,0.6-1.7,1.2-2.7,1.7c5.3-2.1,8.9-6.1,11-11.9c3.7-10.8,1.2-19.5-7.7-26c-0.2-0.2-0.4-0.5-0.6-0.8
		c0.8-0.7,1.8-0.9,2.9-0.5c0.1,0.3,0.2,0.5,0.3,0.8c0.3,0.3,0.4,0.6,0.3,1c0,0.2,0,0.3,0,0.4c3.2,1.2,5.8,0.5,7.8-2.1
		c1.2-1.6,1.7-3.5,1.4-5.7c-0.1-0.1-0.2-0.2-0.4-0.3c-1.6-0.8-3.3-1.5-5-2.2c-0.3-0.2-0.7-0.4-1.1-0.6h-0.2c0,0.1,0,0.1,0.1,0.1
		c-2.5-0.9-5-1.8-7.5-2.5c-0.1,0.1-0.1,0.1-0.2,0.2c0-0.2,0-0.3,0-0.4c0.1,0,0.2,0,0.4,0c-0.2-0.5-0.2-0.9-0.1-1.3
		c-0.1,0-0.2,0-0.3,0c-0.1-0.7-0.3-1.3-0.4-2.1c0.3,0.1,0.6,0.2,0.9,0.3c0.2-0.3,0.4-0.5,0.6-0.8c0.6-1,1-1.9,1.1-2.8
		C62.2,5.6,61,2.8,57,0z M56.7,3c0-0.1,0-0.1,0.1-0.1c0.1,0.2,0.3,0.3,0.5,0.4C57.6,3.5,58,3.8,58.4,4c0,0.4,0.1,0.8,0.4,1.2
		c1,2.3,0.7,4.3-1.1,6c-0.2-0.5-0.3-1.1-0.6-1.7c-0.1-0.1-0.2-0.1-0.4-0.2c-0.7-0.1-1.5-0.2-2.2-0.2c-0.2-0.6-0.7-1.1-1.3-1.6
		c-0.2-0.1-0.3-0.2-0.4-0.3C51.5,7.1,50.3,7.1,49,7c-1.6,0.8-3,2-4.1,3.6c-0.5,0.7-0.8,1.4-0.9,2.1c-0.1,0-0.3,0-0.5,0.1
		c0,0.4-0.1,0.6-0.1,1c0,0.1,0,0.2,0.1,0.3c-0.4-0.2-0.7-0.3-1-0.4c0.1-0.7,0.1-1.3,0-1.9c0-0.1,0.1-0.3,0.1-0.4
		c0.2,0,0.4,0,0.5-0.1c0-0.4,0-0.8,0-1.1c0.7-1.4,1.6-2.5,2.8-3.3c0.3-0.3,0.7-0.5,1.1-0.7c1.6-0.8,3.7-1.3,6.1-1.2
		c1.5,0.5,2.3,0.5,2.7,0c-0.1-0.1-0.2-0.2-0.3-0.3c-0.2-0.1-0.3-0.2-0.5-0.3c0.1,0,0.1,0,0.1,0c0-0.1,0.1-0.2,0.2-0.2
		c0.1-0.1,0.2-0.1,0.2-0.2c0.2-0.2,0.5-0.4,0.7-0.6C56.4,3.3,56.6,3.1,56.7,3z M34.9,5.9c0.4,0.1,0.8,0.3,1.2,0.6
		c1.3,0.7,2.4,1.5,3.4,2.3c0.5,0.6,1.1,1.3,1.5,2c0,0.1,0,0.2,0.1,0.4c0,0.1,0.1,0.3,0.2,0.5c0,0.5,0.1,0.9,0.2,1.2
		c-0.2,0-0.5-0.1-0.7-0.1c0,0.2,0.1,0.4,0.1,0.6c-0.5-0.1-1-0.1-1.6-0.1c0-0.3,0-0.7-0.1-1.1c-0.3-0.1-0.6-0.3-0.9-0.5
		c-0.5-2.8-2.9-4.2-7.3-4l0,0c-0.2,0.1-0.4,0.2-0.5,0.3c-0.2,0.1-0.5,0.2-0.7,0.4c-0.2,0-0.2,0.1-0.3,0.3c0.4,0.1,0.6,0.3,0.8,0.5
		C29.5,9.1,28.6,9,27.6,9c-0.1-0.2-0.2-0.4-0.3-0.6c-0.4-0.6-0.6-1.2-0.7-1.8C26.7,6.3,26.8,6,27,5.7c0.4-0.8,0.8-1.7,1.1-2.4
		c0.3,0,0.6,0,0.9,0c0.1,0.1,0.2,0.2,0.4,0.4c0.2,0.2,0.4,0.4,0.6,0.6l-0.4,0.2c0.4,0.1,0.8,0.2,1,0.3c0,0,0.2,0.1,0.3,0.1
		c-0.3,0.1-0.3,0.2-0.1,0.2c0.1,0,0.2,0,0.3,0c0.8,0.4,1.5,0.5,2.2,0.4c-0.1,0-0.1-0.1-0.1-0.1C33.8,5.5,34.4,5.7,34.9,5.9z
		 M52.4,8.9c0,0.2,0.1,0.3,0.2,0.4c-3.3,0.6-5.8,2.4-7.6,5.1c0-0.2,0-0.4,0-0.6l0.1-0.1c0-0.4,0-0.8,0-1.2c0-0.1,0-0.2,0-0.3
		c0.1-0.1,0.2-0.2,0.2-0.3C47,9.1,49.3,8.1,52.4,8.9z M51.3,15.5c-0.1-0.1-0.2-0.2-0.3-0.2c-0.7-0.3-1.3-0.5-2-0.6
		c-0.1,0-0.3,0.1-0.5,0.1c-1.6,0.1-2.8,0.7-3.4,1.9c0,0,0,0-0.1,0c0,0-0.1,0-0.2,0.1c-0.1-0.4-0.1-0.8-0.1-1.2c0.1,0,0.1,0,0.1-0.1
		c-0.1,0-0.1,0-0.1,0c0-0.1,0-0.2,0-0.3c0.1-0.1,0.2-0.2,0.3-0.3c3.3-2.5,7.1-3.8,11.4-4c0.1,0.8,0.2,1.5,0.3,2.3
		c0.2,3-0.4,5.7-1.8,8.2c-0.4,0.3-0.8,0.5-1.1,0.8c-0.2,0.1-0.3,0.2-0.4,0.4c-0.8,0.1-1.6,0.3-2.4,0.7c-0.3-0.1-0.6-0.2-0.9-0.4
		c-2.1-0.9-3.9-2.3-5.3-4.1c-0.1,0-0.1,0-0.1,0c0-0.5,0-0.9,0-1.4c0.8,0.2,1.6,0.3,2.3,0.4c0.6,0.5,1.2,1,1.8,1.4
		c0.8,0.5,1.5,0.5,2.1-0.2c0.1-0.6-0.3-1-1.2-1.1c-0.8-0.1-1.4-0.5-1.9-1.1c-0.5,0-0.9,0-1.3-0.1C48.1,16.1,49.7,15.7,51.3,15.5z
		 M44.6,14.6c0.1,0.1,0.1,0.1,0.2,0.1c-0.1,0.1-0.1,0.2-0.1,0.2c-0.1,0-0.1-0.1-0.1-0.1C44.6,14.7,44.6,14.7,44.6,14.6z M39.3,15.9
		c0-0.1,0-0.2,0-0.4c0.3-1,1.1-1.1,2.4-0.3c0.5,0.3,1,0.6,1.6,0.8c0,0.4,0,0.8,0,1.2c0.1,0.5,0,1-0.3,1.5c-0.1,0.1-0.2,0.2-0.2,0.3
		v0.1c-1-0.1-1.9-0.2-2.9-0.2c-0.1,0-0.4-0.1-0.6-0.2v-0.2c0-0.3,0-0.7,0-1.1C39.3,16.9,39.3,16.4,39.3,15.9z M38.3,13.5
		c0.1-0.5,0.1-1,0-1.4c0.2,0.4,0.3,0.9,0.4,1.3c0,0-0.1,0-0.2,0c0,0.1,0,0.1-0.1,0.2C38.4,13.5,38.4,13.5,38.3,13.5z M37.6,11.8
		c0.4,0.4,0.5,0.9,0.5,1.4c-1.9-1.9-4.1-3.2-6.7-3.7c0-0.1,0-0.1,0-0.2c0.1-0.1,0.2-0.2,0.2-0.4c0.5,0,0.9,0,1.4,0
		c0.7,0.1,1.4,0.2,2,0.4C36,10.1,36.8,10.9,37.6,11.8z M36.2,16.6c-0.3-0.1-0.7,0-1.2,0.1c-0.7,0.3-1.4,0.8-2.1,1.3
		c-0.1,0.2-0.2,0.3-0.3,0.5l0.1,0.2c1.7-0.7,3.4-1,4.9-0.8c0.1,0.4,0.1,0.8,0.2,1.1c-0.1,0-0.2,0-0.3,0c-0.1,0.1-0.2,0.1-0.2,0.2
		c0.2,0,0.4,0.1,0.6,0.2c0.1,0.4,0.2,0.8,0.2,1.1c0,0.2,0,0.3,0,0.4c-1.7,1.4-3.7,2.3-5.8,2.9c-1-0.5-1.9-1.1-2.7-1.9
		c-0.1,0-0.2,0-0.3,0c-0.1-0.1-0.2-0.1-0.3-0.2c-0.1,0-0.2-0.1-0.4-0.3c-1.1-1.9-1.6-4-1.5-6.4c0-1.4,0.4-2.8,0.9-4.1
		c0.1-0.1,0.1-0.2,0.1-0.2c0.8-0.1,1.5-0.2,2.3-0.3c1.4,0.7,2.7,1.5,4,2.5c1.3,1,2.5,1.6,3.5,1.6c-0.2,0.5-0.3,1.2-0.4,1.8
		c-1.7-1.5-3.9-2-6.5-1.6l-0.4,0.1C32.5,15.4,34.3,16,36.2,16.6z M70,21.8c0.5,0.2,1,0.4,1.4,0.6c0,0.4,0,0.8-0.3,1
		c-0.3,0.4-0.4,0.8-0.3,1.3c0,0.1,0,0.2,0,0.3c-0.3,0.3-0.5,0.5-0.8,0.8c-0.4,0.4-0.8,0.8-1.1,1.1c-0.2,0.2-0.3,0.3-0.4,0.4
		c-0.5,0.1-1,0.3-1.5,0.6c-1.6,0.7-2.5,0.6-2.4-0.3c0.6,0.3,1,0.2,1.4-0.4c-0.3-0.2-0.6-0.4-0.9-0.6c-0.2-0.2-0.4-0.3-0.6-0.4
		c0-0.1,0-0.1,0-0.2c-0.2-0.3-0.5-0.6-0.9-0.7l0,0c0.3-0.8,0.9-1.3,1.8-1.6c0.4,0.5,0.9,0.9,1.4,1.2c0-0.1,0-0.2,0-0.2
		c-0.5-1.7-1.3-3-2.7-4.2l-0.2,0.2c0.1,0,0.1,0.1,0.1,0.3c-1.3-1-2.8-1.6-4.5-1.8c-0.5-0.1-1.1-0.3-1.8-0.3c0.1-0.2,0.2-0.6,0.3-0.8
		c0.3-0.1,0.7-0.1,1-0.1c0-0.1,0-0.2,0-0.3c-0.4,0-0.7,0.1-1,0.2c0.1-0.5,0.2-1,0.2-1.5c0.1,0,0.1,0,0.1,0c3.5,0.8,6.5,2.3,9,4.5
		c0.7,1,1.5,1.8,2.3,2.5c0.1-0.1,0.2-0.2,0.1-0.3c-0.1-0.6-0.2-1.1-0.5-1.5C69.5,21.7,69.8,21.7,70,21.8z M57.5,19.3
		c0.2,0.1,0.4,0.1,0.6,0.2c1.9,0.5,3.8,1.4,5.5,2.6c0.2,0.1,0.4,0.3,0.7,0.4c-0.5,0.3-1,0.6-1.5,0.9c-0.1,0-0.3,0.1-0.3,0.3
		c0,0.1,0,0.2,0,0.3v0.1c-0.3-0.4-0.6-0.8-0.9-1.1c-1.4-0.9-3.1-1.6-4.7-2c0-0.1,0-0.1,0-0.1C57.2,20.4,57.4,19.9,57.5,19.3z
		 M55.2,23.2c0.1,0,0.2-0.1,0.3-0.2c0.5-0.5,0.9-1,1.2-1.6c1.8,1.2,3.7,2.2,5.8,3c0,0.3,0.1,0.6,0.4,0.7c0.1,0.1,0.2,0.1,0.3,0.2
		c-0.2,0-0.2,0.1-0.3,0.1v0.1c-0.2-0.1-0.3-0.1-0.4-0.1c-0.6-0.1-1.3-0.1-2-0.2c-0.3,0-0.5,0-0.7,0.1c-0.4,0.2-0.7,0.6-0.9,0.9
		C57.8,25.1,56.5,24.1,55.2,23.2z M28.9,1.7c0,0.2,0,0.3,0,0.4c0,0-0.1,0-0.2,0C28.8,1.9,28.8,1.8,28.9,1.7z M13.3,25.6
		c-0.3-0.7-0.7-1.4-1-2.2c1-0.3,2-0.8,3-1.2c0,0,0,0,0,0.1l0,0c0,0.2,0.1,0.5,0.2,0.7c0.1,0,0.2-0.1,0.2-0.1c0.6-0.6,1-1.2,1.4-1.7
		c1.5-0.7,3.1-1.3,4.7-1.9c1.4-0.4,2.4-0.9,3.2-1.4c-0.1,0.2-0.1,0.3-0.2,0.4c0.1,0.1,0.2,0.2,0.3,0.4c0.2,0,0.4,0,0.5,0
		c0.1,0.1,0.2,0.3,0.2,0.5c-0.1,0-0.2,0-0.3,0c-2.6,0.5-5.1,1.5-7.5,3c0.2,0.2,0.4,0.4,0.6,0.7c0.1,0.1,0.3,0.3,0.4,0.4
		c0,0.4,0,0.8,0,1.1c0,0.3,0,0.5,0,0.8l0,0c-0.1,0.1-0.2,0.2-0.1,0.2v0.1c-0.1,0.3-0.2,0.7-0.1,1c0.4,0,0.8-0.1,1.2-0.1
		c-0.1,0.6-0.3,1.1-0.6,1.6c-2,0-3.9-0.7-5.8-2C13.5,25.9,13.4,25.8,13.3,25.6z M26.8,21.3c-0.1-0.1-0.2-0.1-0.2-0.2
		c-0.7-0.1-1.4-0.2-2-0.3c0.5-0.2,1-0.4,1.5-0.6c0.5,1,1.3,1.8,2.2,2.4c-0.7,0.3-1.3,0.7-2,1.2c-0.8,0.5-1.5,1-2.1,1.6
		c-0.9-0.6-1.8-1-2.7-1.2c0-0.1,0-0.1,0-0.2c0.3-0.1,0.5-0.3,0.7-0.5C23.4,22.2,25,21.5,26.8,21.3z M20,22.5
		c0.2-0.1,0.4-0.2,0.5-0.2c1-0.3,1.8-0.6,2.6-0.9c0,0.1-0.1,0.2-0.2,0.3c-0.5,0.7-1.2,1.2-2.1,1.5c-0.1,0-0.2,0.1-0.3,0.2
		c0,0,0,0,0,0.1c0,0,0,0,0,0.1c-0.1,0-0.2,0.1-0.3,0.2C20,23.4,20,23,20,22.5z"/>
	<path style="fill:#BE3689;" d="M58.9,50.6c-0.1,0.1-0.1,0.1,0,0.1l0,0V50.6z"/>
	<g>
		<path style="fill:#BE3689;" d="M44,27.9c-0.2,0.2-0.6,0.3-1,0.5c-0.8,0.4-1.3,1-1.7,1.9c0,0-0.1,0.1-0.2,0.1
			c-2.1-1.9-4.3-2.6-6.5-2.1c-0.4-0.3-1.1-0.5-2-0.6c0-0.2,0-0.3,0-0.4c0.1-0.2,0.1-0.4,0.1-0.6c0-0.4-0.2-0.7-0.4-0.9
			c-0.4-0.1-0.7,0-0.7,0.3c-0.1,0.4-0.2,0.8-0.1,1.2c0,0.5,0.1,0.9,0.4,1.4c0.2,0.1,0.4,0.3,0.6,0.4c-0.3,0.2-0.6,0.4-1,0.7
			c-0.6-0.3-1.4-0.5-2-0.9c0-0.1,0-0.2,0-0.4c0,0,0-0.1,0-0.2c0-0.3-0.1-0.6-0.4-0.9c-0.1,0.1-0.2,0.1-0.3,0.2
			c-0.2,0.5-0.3,0.9-0.3,1.3c0.1,0.3,0.1,0.6,0.4,0.9c0.4,0.4,0.9,0.8,1.4,0.9c-0.2,0.1-0.2,0.2-0.4,0.4c-1,0-1.9-0.5-2.6-1.3
			c-0.5-0.2-0.7,0-0.7,0.4c0,0.9,0.5,1.5,1.5,1.8c0.3,0.1,0.5,0.1,0.7,0.2c-4.5,4.7-4.4,9.6,0.3,14.5c4.8,1.4,8.9,0.5,12.5-2.4
			c1.4,1.2,2.9,1.9,4.5,2.1c0.3,0,0.6,0,0.9,0c1.2,0.1,2.4-0.2,3.7-0.7c5.4-2,7.2-5.7,5.4-10.9c-0.1-0.1-0.2-0.3-0.3-0.4
			c0-0.1,0-0.1,0-0.1c-0.9-1.5-1.9-2.7-3-3.6c0.2-0.1,0.4-0.2,0.6-0.3c0.1-0.1,0.2-0.2,0.4-0.4c0.9-0.8,1-1.7,0.3-2.6l0,0
			c-0.7,1.1-1.6,1.8-2.7,2.2c-0.4-0.2-0.8-0.4-1.1-0.6c0.4-0.4,0.8-0.9,1.2-1.3c0-0.2,0-0.3,0-0.4c0.1-0.7,0-1.3-0.4-1.9h-0.2
			c-0.2,1.8-1.1,2.8-2.4,3c-0.1,0-0.1,0-0.1,0c0-0.1,0-0.2,0.1-0.2c0.5-1.2,0.6-2.3,0.3-3.4c-0.9,0.5-1.4,1.6-1.8,3.2c0,0,0,0,0,0.1
			C46,27.9,45.1,27.9,44,27.9z M42.9,31.6c0.2-0.6,0.4-1.1,0.7-1.6c3.1-0.4,5.7,0.2,7.8,1.9h-0.1c1.2,0.7,2,1.4,2.5,2.3
			c-0.2-0.1-0.3-0.1-0.3,0c0.1,0.1,0.2,0.3,0.3,0.5c0.1,0,0.2,0,0.2,0c0.1,0,0.1,0.1,0.1,0.3c0.1,0,0.1,0.1,0.1,0.2
			c-0.2,0.1-0.4,0.2-0.6,0.3c-4.5,2-8.2,4.5-11.2,7.4c-0.1,0-0.3,0-0.5,0c0-0.7,0-1.4-0.3-2c-0.2,0-0.3,0-0.3,0.2
			c-0.2,0.6-0.2,1.2-0.2,1.7c-0.2,0-0.4,0-0.6,0c-0.1,0-0.2,0.1-0.3,0.2c-3.9-2.7-7.9-5.3-11.9-7.9c0.1-0.2,0.3-0.5,0.4-0.7
			c0.1,0,0.1,0,0.1,0c0.3-0.4,0.6-0.7,0.9-1.1c0.4-0.5,0.9-0.9,1.4-1.3c-0.1,0-0.2,0-0.2,0c1.1-1,2.5-1.8,4.1-2.5
			c0.6,0,1.2,0,1.9-0.1c0.2,0.2,0.4,0.3,0.6,0.4c0.9,0.7,1.7,1.3,2.5,1.8c0.9,0.1,1.9,0.2,2.8,0.3C42.9,31.8,42.9,31.7,42.9,31.6z
			 M26.6,40c0-0.1,0-0.2,0-0.3c0.3-1.6,0.8-3,1.5-4.3c1.7,2,3.6,3.7,5.9,5.1l0,0c0.2,0.2,0.4,0.3,0.6,0.4c-0.1,0.1-0.2,0.3-0.3,0.5
			c-0.1,1.1,0.3,1.8,1.3,2.3c0.5,0,0.9-0.1,1.2-0.2c0.3-0.1,0.5-0.2,0.7-0.5c0.1-0.1,0.1-0.2,0-0.3c0-0.1,0-0.1,0-0.2
			c0.5,0.3,1,0.6,1.6,0.9c0,0.1,0.1,0.1,0.1,0.1s0-0.1,0.1-0.2c-0.1-0.1-0.1-0.1-0.1-0.1c0.2,0.1,0.3,0.1,0.5,0.2
			c-0.2,0.1-0.3,0.2-0.4,0.3c-0.8,0.5-1.4,0.8-2,1.1h0.1C32.6,47.2,29,45.6,26.6,40z M54.7,36.5c0,0.4,0.1,0.8,0.2,1.1
			c0.5,3-0.7,5.2-3.6,6.7c-1.6,0.5-3.1,0.7-4.5,0.5c-1.2,0.1-2-0.4-2.4-1.3c0.3-0.5,0.6-1,1-1.3c0,0,0,0.1,0,0.2
			c0.1,0.8,0.6,1.2,1.6,1.1c0.1,0,0.2-0.1,0.4-0.2c0.9-0.8,1-1.6,0.5-2.5l0,0c0-0.1,0-0.1-0.1-0.1C50.2,39.4,52.4,38,54.7,36.5z
			 M42.9,43.2c0.2-0.1,0.4-0.2,0.7-0.3c-0.1,0.1-0.2,0.3-0.2,0.5c0,0.1,0.1,0.2,0.2,0.2C43.3,43.5,43.1,43.3,42.9,43.2z"/>
		<path style="fill:#BE3689;" d="M53.2,24.8L53,24.7l-3.4-0.2c0.8,0.4,1.7,0.6,2.8,0.8c0.1-0.1,0.2-0.2,0.3-0.2
			C52.8,25,53,24.9,53.2,24.8z"/>
		<path style="fill:#BE3689;" d="M54.8,26.2l-0.2-0.4c-0.2-0.1-0.4-0.1-0.6-0.1C54.3,25.9,54.6,26,54.8,26.2z"/>
		<path style="fill:#BE3689;" d="M33.1,25.8L33,25.7l-1.9-0.3C31.6,25.6,32.4,25.7,33.1,25.8z"/>
		<path style="fill:#BE3689;" d="M24.8,62.9c0.2-0.2,0.4-0.4,0.5-0.6c0,0.4,0.1,0.7,0.1,1.1c-0.3-0.2-0.6-0.3-0.9-0.5v0.3l1.1,1.8
			c0.2,0.1,0.4,0.2,0.5,0.2v0.1c1,0.4,2,0.8,3,1.1c-0.1,0.1-0.1,0.2-0.2,0.2c0.3,0.1,0.6,0.2,0.9,0.3c0-0.1,0-0.2,0-0.2
			c1.2,0.3,2.4,0.7,3.6,1c0,0,0,0,0,0.1c0.2,0,0.4,0,0.6,0l0,0c4.2,0.9,8.5,1.1,12.9,0.5l0.1-0.1c0.5,0,1,0,1.5-0.1
			c1.3-0.2,2.7-0.5,4-0.8c0,0,0,0.1,0.1,0.2c0.3-0.1,0.6-0.2,0.9-0.2c0,0-0.1-0.2-0.2-0.2c0.9-0.3,1.8-0.5,2.7-0.8
			c0.4-0.2,0.8-0.3,1.2-0.5c1-0.5,1.8-1.1,2.7-1.7C60,64,60,63.8,60,63.7c0-0.7-0.1-1.4-0.2-2c0,0,0,0,0,0.1c0-0.2,0-0.3,0-0.4
			c0,0.1,0,0.1,0,0.1c0-0.1,0-0.1,0-0.2c-0.2,0.1-0.4,0.2-0.6,0.3c0.1,0.2,0.1,0.4,0.1,0.5s-0.1,0.2-0.2,0.2
			c-0.4,0.4-0.9,0.8-1.4,1.1c-0.2-2.9-0.7-5.6-1.6-8.2c-1.5-2.1-3.1-4.1-4.8-6c-3.2-1.6-7.1-2.3-11.8-2c-3.4,0.2-6.4,1.4-9.2,3.4
			C26.3,53.7,24.4,57.8,24.8,62.9z M26.8,59.7c0-0.1,0-0.2,0-0.3c0-0.1,0-0.1,0-0.2c0.7-2.8,1.9-5.1,3.5-6.9c0.6,1.3,1.6,1.9,3,2
			c0.1-0.1,0.2-0.2,0.2-0.4c0.4-0.8,0.6-1.5,0.9-2.2c2.7-0.3,5.4-0.6,8.1-0.9c1.6,0.2,3.2,0.5,4.6,0.9c0,0,0,0.1,0.1,0.2
			c0.2,1,0.5,1.8,1.1,2.6c0.3,0,0.6,0,0.8-0.2c1.1-0.7,1.9-1.5,2.3-2.3c3,3.5,4.9,7.5,5.7,11.8c-0.6,0.4-1.2,0.7-1.8,1
			c-0.5-2-1.6-3.6-3.3-4.6c-0.2,0-0.3,0.1-0.5,0.4c-0.5,0.8-0.8,1.8-1,2.9c-0.7,0.3-1.4,0.5-2,0.7c-1.9-3.6-5.2-5-10-4
			c-1.5,1-2.9,2.1-4.2,3.5c-0.1,0-0.1,0.1,0,0.2c1.2,0.2,2.4-0.4,3.4-1.7c0.1-0.1,0.3-0.3,0.4-0.4c1.8-0.2,3.5,0,5.1,0.5
			c1.7,0.5,3.2,1.2,4.5,2.2c-5,1.3-10,1.1-14.9-0.7c-0.1-0.1-0.2-0.2-0.2-0.4c-0.6-1.2-1.3-2.1-2.3-2.6c-0.2,0.1-0.2,0.2-0.3,0.3
			c-1,1.1-1.5,2.2-1.7,3.5c-0.7-0.3-1.5-0.6-2.2-0.9C26.1,62.3,26.4,60.9,26.8,59.7z M33.6,51.3c0,0.1-0.1,0.3-0.1,0.3
			c-0.3,0.5-0.5,1-0.5,1.6c-0.8-0.7-1.5-1.2-2.1-1.5c3.2-2.9,7.7-3.8,13.8-2.6c2.1,0.3,4,1,5.8,1.8c-0.8,0.7-1.5,1.5-2.1,2.3
			c0-0.1,0-0.3,0-0.4c-0.1-0.6-0.3-1.1-0.5-1.5c-1.6-1-3.3-1.5-5.4-1.6C39.3,49.7,36.3,50.2,33.6,51.3z M30.4,62.2
			c0,0.2,0.1,0.3,0.2,0.5c0.7,0.7,1.2,1.5,1.7,2.3c5.6,1.8,11.1,1.9,16.6,0.4c0.6-0.2,1.3-0.4,2-0.6c0.2-0.3,0.3-0.5,0.4-0.8
			c0.2-1.1,0.7-1.8,1.2-2.2c0.1,0.1,0.2,0.2,0.2,0.4c0.3,0.5,0.6,1,1.1,1.5c0,0.1,0.1,0.2,0.1,0.3c0,0.6,0.1,1,0.5,1.2
			c-4.8,2.1-10.7,2.6-17.8,1.5c-2.9-0.5-5.5-1.1-8-2l0,0C29.4,63.9,30,63.1,30.4,62.2z"/>
	</g>
</g>
</svg>
