<?xml version="1.0" encoding="iso-8859-1"?>
<!-- Generator: Adobe Illustrator 12.0.1, SVG Export Plug-In . SVG Version: 6.00 Build 51448)  -->
<!DOCTYPE svg PUBLIC "-//W3C//DTD SVG 1.1//EN" "http://www.w3.org/Graphics/SVG/1.1/DTD/svg11.dtd" [
	<!ENTITY ns_svg "http://www.w3.org/2000/svg">
	<!ENTITY ns_xlink "http://www.w3.org/1999/xlink">
]>
<svg  version="1.1" id="Layer_1" xmlns="&ns_svg;" xmlns:xlink="&ns_xlink;" width="101" height="100" viewBox="0 0 101 100"
	 style="overflow:visible;enable-background:new 0 0 101 100;" xml:space="preserve">
<g>
	<g>
		<path style="fill:#FFFFFF;" d="M101,100V0H0v100H101z"/>
	</g>
</g>
<g>
	<path style="fill:#BE3689;" d="M84.1,47.4c0-0.1,0-0.2,0-0.3s0-0.1-0.1-0.1C84.1,47.1,84.1,47.2,84.1,47.4z"/>
	<path style="fill:#BE3689;" d="M96.7,88.9C96.5,89,96.3,89,96,89.1c-7.2,1.1-13.6,3.5-19.4,7.1c3.2-0.7,6.8-1.7,10.6-2.8
		C91.6,92,94.7,90.5,96.7,88.9z"/>
	<path style="fill:#BE3689;" d="M82.9,25h-0.2c-0.4-0.4-0.8-0.7-1.3-0.8c-0.4-0.1-0.6-0.1-0.7,0c-1.4-1.3-3.1-2.1-5.2-2.4
		c-0.1-0.1-0.1-0.2-0.1-0.2c-1.1,0-2.2,0-3.3,0c-0.1-0.1-0.2-0.1-0.3-0.2c0.2,0.2,0.2,0.3,0.4,0.5c-0.3,0.1-0.7,0.2-1.1,0.2
		c-0.3,0-0.6,0-0.7,0.1c-0.1-1.2-0.4-2.3-0.7-3.4c0.3,0.4,0.7,0.8,1,1.2c-0.2-0.6-0.4-1.1-0.8-1.5c-0.1-0.2-0.1-0.4-0.1-0.7
		c-0.8-0.4-1.5-0.8-2.3-1.2c0.3,0.3,0.5,0.6,0.9,0.8c-0.8-0.1-1.5-0.2-2.3-0.2c-4.2,0.5-7.4,2.4-9.3,5.9c-0.1-0.1-0.1-0.1-0.1-0.2
		c0-0.4,0.2-0.8,0.5-1.1c0,0,0,0,0.1,0c0.4-1.3,0.7-2.6,1-4c0.3-1.6,0.1-3.1-0.7-4.6c0-0.1,0-0.2,0.1-0.3c0-0.2,0-0.3,0-0.4
		c0.1-0.2,0.1-0.3,0.1-0.4c-0.5-1-1-2-1.5-3c0.1,0.2,0.2,0.4,0.3,0.5c0,0.1,0.1,0.1,0.2,0.1c0.2,0.1,0.4,0.2,0.6,0.3
		c-0.1,0-0.2-0.1-0.4-0.2c-0.1-0.5-0.1-1-0.2-1.5c-0.3-0.2-0.6-0.4-1-0.5c0-0.2,0-0.4,0-0.6V7.1c0.1-0.1,0.1-0.2,0.1-0.3
		c0.3-1,0.4-2.2,0.3-3.3c0-0.3-0.1-0.5-0.2-0.8c-0.1-0.1-0.2-0.2-0.4-0.2c-1.5-0.2-3-0.3-4.6-0.4c-1,0.3-1.9,0.9-2.7,1.8
		c-0.1,0.2-0.2,0.3-0.3,0.5c-0.1,0-0.1,0.1-0.1,0.1l-0.2-0.3c-0.1-0.2-0.2-0.4-0.4-0.6l0,0c-0.2-0.1-0.3-0.3-0.4-0.4
		c-0.5-0.1-1-0.1-1.5-0.1c-0.3,0-0.5,0-0.8,0c-0.1,0-0.4,0.1-0.7,0.2c-0.1,0-0.2,0-0.3-0.1c-0.7,0.5-1.3,0.9-2,1.1c0,0,0,0,0.1,0.1
		c-3.1,1.8-4.1,4.7-2.8,8.7c2,0.8,4,0.8,6,0.1c0.5,0.4,1,0.8,1.5,1.1c0-0.1-0.1-0.2-0.1-0.3c-0.1-0.1-0.1-0.1-0.1-0.1
		c2.4,2.1,3.9,4.7,4.6,7.7c0,0-0.1,0-0.2,0c0,0,0,0.1-0.1,0.1c-2.9-3-6.5-4.6-10.9-4.5c-1,1.3-1.7,3-1.9,4.9
		c-2.1-1.5-4.6-1.4-7.5,0.3c-0.2,0-0.4-0.1-0.6-0.1c-0.1,0.1-0.2,0.2-0.3,0.2c-0.2,0.1-0.4,0.1-0.6,0.1c0-0.1,0-0.1-0.1-0.1
		c-1.4-0.8-2.9-1.3-4.5-1.3c-0.6,0.2-0.9,0.7-0.8,1.5c0,1.5,0.2,3,0.6,4.4c0.3,1.7,1.1,3.2,2.2,4.6c0.3,0.1,0.5,0.3,0.7,0.4
		c1.7,1.1,3.3,1.1,4.8,0.1c0-0.2,0-0.5,0-0.7c0.1-0.8,0.2-1.5,0.5-2.2c0,0,0-0.1,0-0.2c0.2,0.1,0.4,0.2,0.5,0.4c0,0.3,0,0.7,0,1.1
		s0,0.7,0,1c0,0.1,0,0.1,0,0.1c-0.2,0.1-0.3,0.3-0.5,0.4c-1,0.8-1.3,1.6-1.2,2.6c1.6-0.2,3.1-0.4,4.4-0.3c-0.4,0.4-0.9,0.9-1.3,1.4
		l0,0c-0.4,0.5-0.8,1-1.1,1.6c-1.5,1.6-2.8,3.3-3.9,5.2c-0.1,0-0.2-0.1-0.3-0.1c-0.4-0.2-0.8-0.2-1.2-0.3c-0.8,0.4-1.6,1-2.3,1.8
		c-1,1.2-1.9,2.5-2.6,3.9c0.2-0.8,0.4-1.6,0.6-2.4c0.1-0.1,0.1-0.2,0.1-0.3c-0.4,0.5-0.9,0.9-1.6,1.2c-0.1,0.5-0.2,0.9-0.3,1.3
		c0,0.2,0,0.3-0.1,0.4c-0.3,0.6-0.6,1.2-0.8,1.8c-0.2,0.4-0.2,0.8-0.2,1.2c0.1,0.4,0.1,0.8,0.1,1.1c0,0.2,0,0.3,0,0.4
		c-0.1,0.1-0.2,0.2-0.3,0.4c0,0.1-0.1,0.2-0.2,0.3c-0.2,0.2-0.3,0.3-0.3,0.5c-0.1,0.1-0.1,0.2-0.1,0.3s0,0.2,0.1,0.3
		c0,0.3,0.1,0.6,0.2,0.8c0,0.2,0.1,0.4,0.1,0.6c-0.5,0-0.9,0-1.4-0.1c-0.2,0.1-0.4,0.3-0.5,0.6c-0.1,0.6-0.2,1.2-0.2,1.8
		c0,0.4,0,0.8,0,1.1c0.3,0.2,0.7,0.3,1.1,0.4c0.2,0,0.4,0,0.6,0.1c-0.1,0.1-0.2,0.2-0.2,0.4c-5.7-0.2-10.5,1.2-14.7,4.1
		c0,0.3,0,0.5,0,0.8c-0.1,1.4,0.2,2.9,0.8,4.1c3.3,2.9,7.1,4.9,11.5,5.8c1.3,0.3,2.6,0.5,3.8,0.8c-4.8,0.5-7.8,3-9.3,7.6
		c1.6,0.9,3.2,1.6,4.8,2c-0.3,0-0.4-0.1-0.6-0.1c-0.2-0.1-0.4-0.1-0.6-0.1c-1.1,0.3-2.3,0.6-3.5,0.8c-2.5,0.5-4.6,1.5-6.2,3.2
		c0.1,0,0.2,0,0.3-0.1c3.7-1.3,7.4-2.4,11.2-3.4c0-0.1,0-0.1-0.1-0.1c1.8,0.4,3.6,0.6,5.4,0.5c-0.1,0-0.2,0-0.3,0
		c-0.4,0.1-0.8,0.2-1.3,0.2c-4.5,0.7-8.4,2.2-11.9,4.5c0.2,0.2,0.3,0.2,0.4,0.1c4.2-1.7,8.4-3.1,12.7-4.1c-0.5,0.3-0.9,0.7-1.3,1.1
		c-0.5,1.4-0.9,2.8-1.1,4.2c-2.9,0.9-5.6,2.3-8,4.1c0.2,0.1,0.4,0.1,0.6,0c2.4-1.2,4.8-2.2,7.3-3.1c-0.1,0.3-0.1,0.6-0.1,0.8
		c1,0.8,1.9,1.5,3,2.1c-1.1,0.5-2,1.1-2.8,1.9c0,0.1,0.1,0.2,0.2,0.1c1.2-0.4,2.5-0.9,3.8-1.4c0.9,0.5,2,0.8,3.1,1.1
		c0.6,0.2,1.3,0.4,1.9,0.5c0.7,0.2,1.3,0.3,2,0.4c1.4,0.3,2.8,0.4,4.3,0.5c7.3,0.3,12.7-1.5,16.3-5.4c0.2-0.3,0.4-0.6,0.6-0.8
		c0.2-0.3,0.4-0.5,0.6-0.7c0.6-0.9,1.2-1.9,1.6-3c0.1-0.1,0.1-0.2,0.2-0.3c0-0.2,0.1-0.3,0.1-0.4c1.8-0.8,3-1.7,3.5-2.8
		c-0.1,0.1-0.2,0.1-0.4,0.2c-0.8,0.1-1.6,0.4-2.4,0.6c0-0.1,0-0.2,0.1-0.3c-0.2-0.1-0.3-0.2-0.4-0.4c-0.1-0.2-0.3-0.4-0.5-0.6
		c1.5-0.6,2.9-1.3,4.4-2c-0.1,0-0.1-0.1-0.2-0.2c-0.3-0.1-0.7-0.1-1.1-0.2c-0.1,0.1-0.3,0.2-0.4,0.3c-0.6,0.2-1.1,0.5-1.6,0.8
		c-0.3-0.1-0.6-0.2-1-0.2c-0.4,0.1-0.8,0.3-1.3,0.5c-0.8-0.5-1.6-1-2.5-1.2c0.8-0.7,1-1.3,0.3-1.9l0,0c-1.6,0.4-3.1,1-4.6,1.7
		c-1.5-1.3-2-3-1.5-5.1c0.1-0.1,0.2-0.2,0.4-0.4c0,0,0.1-0.1,0.2-0.2c1.5-0.2,3-0.3,4.4-0.5c3.1,0.3,6.3,0.3,9.5,0
		c1-0.3,2.1-0.6,3.1-1c0,0.5,0.5,0.9,1.6,1c0.3,0.5,0.4,1,0.6,1.5c0.2,0.6,0,1-0.3,1.5c-0.1,0.1-0.1,0.2-0.2,0.2
		c-0.7,0.3-1.4,0.5-2.1,0.6c-0.3,0.4-0.7,0.8-1.1,1.1c-1.8,1.4-2.5,3.2-2.3,5.4c0.1,0.1,0.1,0.2,0.1,0.3l0.2,0.1
		c0.8,0.4,1.5,0.8,2.2,1.2c-3,1.4-5.9,3.2-8.4,5.3c0.3,0,0.6-0.1,0.9-0.3c1.1-0.6,2.2-1,3.1-1.2c-0.1-0.1-0.1-0.2-0.1-0.2
		c2.1-1,4.2-1.9,6.4-2.8c0.3,0.2,0.6,0.3,0.9,0.4c0.5,0.2,1,0.4,1.5,0.6c-5.5,1.6-10.7,3.7-15.7,6.4c0.2,0,0.4,0,0.7,0
		c0.1-0.1,0.2-0.1,0.3-0.1c0.7-0.3,1.5-0.4,2.2-0.5c0.1-0.1,0.2-0.1,0.4-0.2c4.8-1.6,9.6-3.3,14.4-4.8c-0.3-0.1-0.6-0.2-0.8-0.3
		c2.1,0.7,4.3,1.2,6.5,1.5c-4.8,1.4-9.3,3.1-13.7,5c0.1,0.2,0.3,0.2,0.4,0.2c5.7-1.6,11.3-3.2,16.8-5c6.5,0.2,12.9-1.5,19.3-5.2
		c0-0.5,0.2-1,0.4-1.5c0.1-0.3,0.1-0.5,0.2-0.7c-6.9-8.3-14.8-9.9-24-4.6c-0.9-0.4-1.7-0.6-2.6-0.6c0.3-0.3,0.5-0.6,0.5-1.1
		c0.2-1.6-0.2-3-1.2-4.1c-0.2-0.1-0.4-0.2-0.6-0.3c4.5-1.6,7.9-4.5,10.2-8.7c-0.1,0.1-0.2,0.3-0.2,0.5c3-1.9,6-4,8.9-6.3
		c0-0.1,0-0.2,0.1-0.3c0.4-2,0.4-3.7-0.2-5c0-0.3,0-0.6,0-0.9c0-0.7,0-1.3-0.2-1.9c-0.1-0.1-0.2-0.2-0.4-0.2l0,0
		c0-0.1,0-0.2,0.1-0.2c0.1-0.2,0.1-0.4,0.2-0.5c-0.7-0.1-1.3-0.4-2-1.1c-0.1-0.1-0.2-0.2-0.3-0.3c0.2,0.6,0.3,1.2,0.5,1.8
		c-0.5,0-0.9-0.1-1.2-0.1c-0.5-1.9-1.5-3.7-3-5.4l-0.4,0.1c-1.4-3.6-4.1-6.9-7.9-9.7c-0.3-0.3-0.5-0.6-0.7-0.8
		c1.3-1.1,2.8-1,4.5,0.3c0.7,0.4,1.2,0.4,1.6-0.3c-0.2-0.8-0.7-1.6-1.4-2.3c-0.2-0.3-0.4-0.7-0.5-1c-0.1-0.4-0.1-0.8,0-1.2
		c0.1-0.1,0.2-0.2,0.3-0.2c0.3-0.1,0.5-0.1,0.7-0.2c0.1,0.1,0.2,0.3,0.3,0.6c0.1-0.5,0.3-0.8,0.5-0.9c0.7,0.1,1.3,0.4,2,0.6
		c0.1,0,0.2,0.1,0.4,0.3c0,0.2-0.1,0.5-0.2,0.6c-0.2,0.5-0.4,1.1-0.3,1.6c0.8,0.5,1.6,1,2.4,1.4c0-0.1-0.1-0.2-0.1-0.3
		c0.1,0,0.3,0,0.4,0c4.6,0.5,7.1-1.6,7.6-6.3c-1.8-1.2-3.9-1.9-6.2-2C83.7,25.6,83.3,25.3,82.9,25z M88.4,29.7
		c-0.2,0.3-0.3,0.5-0.5,0.7c-0.6,0.6-1.2,1.3-1.8,1.9c-1.3,0.6-2.7,0.8-4.1,0.6v-0.1c-0.2,0-0.4,0-0.6-0.1c0,0,0,0-0.1,0
		c0,0,0,0-0.1,0c0-0.2,0-0.5,0-0.7c0-0.3,0-0.5,0-0.8l0,0c0-0.4,0-0.7,0-1.1c0.2,0.4,0.9,0.7,2.2,0.7c-0.1-0.1-0.2-0.2-0.3-0.3
		c-0.3-0.6-0.7-1.1-1.2-1.5c-0.1,0-0.2,0-0.2,0c-0.3,0.3-0.4,0.5-0.5,0.7c0-0.2,0-0.2,0-0.4c-0.5-0.6-1.1-1.2-1.8-1.6
		c-1.1-0.9-2.2-1.4-3.4-1.7c-1.8-0.6-3.8-0.6-5.9,0c0.2-0.8,0.3-1.7,0.3-2.5c1.4-0.2,2.7-0.2,4-0.1l2.4,0.5c1.6,0.4,3.2,1.2,4.7,2.2
		c0.2,0.5,0.5,0.9,0.7,1.4c0.4-0.1,0.8-0.1,1.1,0c0.5,0.5,1.1,0.8,1.8,0.8c0-0.1,0-0.2,0-0.3c-0.1-0.2-0.1-0.3-0.2-0.4
		c1.5,0.2,2.8,0.8,3.7,1.7C88.5,29.5,88.4,29.6,88.4,29.7z M84.2,54.6c0-0.4,0-0.9,0-1.3c0.5,0.2,1,0.4,1.6,0.4
		C85.4,54,84.8,54.3,84.2,54.6z M63.4,23.7c-0.1-0.1-0.2-0.2-0.4-0.3c-0.6-0.2-1.2-0.4-1.9-0.6c-0.1,0.1-0.3,0.1-0.5,0.2
		c-1.6,0-2.8,0.6-3.4,1.8c0,0,0,0-0.1,0c0,0.1-0.1,0.1-0.2,0.2c-0.1-0.5-0.1-0.9-0.1-1.3c0.1,0,0.1,0,0.1,0
		c-0.1-0.1-0.1-0.1-0.1-0.1c0-0.1,0-0.2,0-0.3c3.3-2.7,7.2-4.1,11.7-4.2c0.1,0.7,0.2,1.5,0.3,2.2c0.2,3-0.4,5.8-1.8,8.3
		c-0.5,0.2-0.8,0.5-1.1,0.8c-0.2,0.1-0.3,0.2-0.4,0.3c-0.8,0.2-1.6,0.4-2.4,0.8c-0.3-0.2-0.6-0.3-0.9-0.4c-2.1-1-3.9-2.4-5.3-4.1
		c-0.1,0-0.1,0-0.1,0c0-0.5,0-1,0-1.4c0.8,0.1,1.6,0.3,2.3,0.4c0.6,0.5,1.2,1,1.8,1.3c0.8,0.6,1.5,0.5,2.1-0.1c0-0.7-0.3-1-1.2-1.1
		C61,26,60.4,25.6,59.9,25c-0.5,0-0.9,0-1.3-0.1C60.2,24.2,61.8,23.8,63.4,23.7z M54.8,4.6c-0.2,0.5-0.3,1-0.4,1.6l0,0
		c-0.3,0-0.6-0.1-0.9-0.1l-0.2,0.1c0.1,0.1,0.1,0.1,0.1,0.1l0.3,0.3C53.8,6.8,54,7,54.2,7.2c0.1,0.2,0.3,0.4,0.4,0.7
		c0.1,0.1,0.1,0.2,0.1,0.3c0.8,2.3,1.5,4.6,2.2,6.9c-0.5,1.1-0.8,2.4-0.9,3.7c-0.1,0.6-0.1,1.1,0,1.6c-0.1,0-0.2,0-0.3,0
		c-0.1,0.5-0.2,1-0.2,1.5c0,0.1,0,0.2,0.1,0.3c-0.4-0.2-0.8-0.3-1.3-0.4c2.1-5.4,0.8-10.1-3.8-14.2v0.1c0.4,0.4,0.7,0.8,0.9,1.2
		c-0.9,0.1-1.8-0.1-2.6-0.3c0-0.5,0-0.9-0.1-1.3c0-0.6-0.1-1.2-0.3-1.8c0.1,0.1,0.2,0.1,0.2,0.1C49,5.5,49.3,5.3,49.5,5
		c0.1-0.2,0.2-0.3,0.4-0.4c0.1-0.1,0.2-0.1,0.2-0.1c0.5-0.1,1-0.3,1.5-0.5C53.9,2.9,54.9,3.1,54.8,4.6z M46.1,8.4c0,0.1,0,0.1,0,0.2
		c0.1,0.7,0.5,1.4,1.1,2.2c0.2,0.4,0.5,0.8,0.8,1.1c2.6,2.9,4.3,6.1,5,9.6c-0.5,0-1-0.1-1.6,0C51.2,17.1,49,14,44.9,12v-0.1
		c-0.1-0.1-0.2-0.1-0.2-0.2c-0.1,0-0.1,0-0.2,0c-0.7-0.5-1.5-0.9-2.4-1.1H42c0.3,0.3,0.6,0.6,1,0.9c-0.2,0.2-0.2,0.3-0.2,0.5
		c0.1,0,0.1,0.1,0.1,0.2C42,12,41,11.8,40,11.7c-0.2-4.5,1.9-6.7,6.4-6.6c0.3,0.7,0.6,1.5,0.8,2.2c0.1,0.3,0.2,0.5,0.3,0.8
		c-0.1,0.3-0.2,0.7-0.3,1C46.8,8.9,46.5,8.6,46.1,8.4z M49.1,10.1c0.6,0,1.4-0.3,2.5-0.9c1.9,2.9,2.8,6,2.7,9.4
		c-0.3-0.5-0.5-1-0.7-1.5c0,0.3-0.1,0.6-0.2,0.9C52.8,15,51.3,12.4,49.1,10.1z M44,12.5c0-0.1,0-0.1,0-0.1c0.1,0.1,0.1,0.1,0.1,0.1
		H44z M42.5,18.6c1.4,0.6,2.7,1.5,4,2.4c1.3,1.1,2.5,1.6,3.5,1.7c-0.2,0.5-0.3,1.1-0.4,1.8c-1.7-1.5-3.9-2.1-6.5-1.7l-0.3,0.1
		c1.8,0.6,3.6,1.2,5.5,1.8c-0.3,0-0.7,0-1.2,0.1c-0.7,0.4-1.4,0.8-2.1,1.4c-0.1,0.1-0.2,0.3-0.3,0.5l0.1,0.2
		c1.7-0.8,3.4-1.1,4.9-0.9c0.1,0.5,0.1,0.8,0.2,1.2c-0.1,0-0.2,0-0.3,0c-0.1,0-0.2,0-0.2,0.1c0.2,0,0.4,0.2,0.6,0.3
		c0.1,0.4,0.2,0.7,0.2,1.1c0,0.1,0,0.3,0,0.4c-1.7,1.4-3.7,2.3-5.8,2.9c-1-0.5-1.9-1.2-2.7-1.9C41.6,30,41.5,30,41.4,30
		c-0.1,0-0.2,0-0.3-0.1c-0.1-0.1-0.2-0.2-0.4-0.3c-1.1-1.9-1.6-4.1-1.5-6.4c0-1.5,0.4-2.9,0.9-4.1c0.1-0.2,0.1-0.2,0.2-0.2
		C41,18.7,41.7,18.6,42.5,18.6z M51.4,24.1c0-0.2,0-0.3,0-0.4c0.3-1,1-1.1,2.2-0.5c-0.1,0.1-0.1,0.1-0.1,0.1c0.1,0,0.1,0,0.1,0
		c0.1,0,0.1,0,0.2,0c0.5,0.4,1,0.6,1.6,0.9c0,0.4,0,0.8,0,1.1c0.1,0.6,0,1.1-0.3,1.5c-0.1,0.2-0.2,0.3-0.2,0.4l0,0
		c-1-0.1-1.9-0.1-2.9-0.1c-0.1-0.1-0.4-0.1-0.6-0.2v-0.2c0-0.4,0-0.7,0-1.1C51.4,25.1,51.4,24.6,51.4,24.1z M57.2,29.2
		c0-0.1,0-0.1,0-0.2c1.5,2.4,3.9,3.8,7.3,4.5c0-0.1,0.2-0.2,0.3-0.3c0.2-0.1,0.4-0.2,0.5-0.3c0.6,0.3,1.1,0.7,1.6,1.1
		c-0.3-0.1-0.5-0.1-0.8-0.1c0.7,0.3,1.4,0.8,2.1,1.2c-0.8,0.6-1.3,1.6-1.6,3.1c-0.1,0-0.1,0-0.1,0c-0.9-0.1-1.8-0.2-2.9-0.1
		c-0.2,0.1-0.6,0.3-1,0.5c-0.8,0.4-1.3,1-1.7,1.8c0,0.1-0.1,0.1-0.2,0.2c-2.1-2-4.3-2.7-6.5-2.1c-0.4-0.4-1.1-0.6-2-0.7
		c0-0.1,0-0.2,0-0.3c0.2-0.7,0.1-1.2-0.3-1.5c-0.4-0.2-0.6,0-0.7,0.2c-0.2,1-0.1,1.9,0.3,2.6c0.2,0.2,0.4,0.3,0.6,0.5
		c-0.3,0.1-0.6,0.4-1,0.6c-0.6-0.2-1.3-0.5-2-0.8c0-0.2,0-0.3,0-0.4c0.1-0.4-0.1-0.8-0.4-1.1c-0.1,0-0.2,0.1-0.3,0.2
		c-0.4,0.8-0.4,1.5,0.1,2.1c0.4,0.5,0.9,0.8,1.4,1c-0.1,0.1-0.2,0.2-0.4,0.3c-1,0-1.9-0.4-2.6-1.3c-0.5-0.1-0.7,0-0.7,0.4
		c0,0.9,0.5,1.5,1.5,1.9c0.3,0,0.5,0.1,0.7,0.1c-4.5,4.8-4.4,9.6,0.3,14.5c4.8,1.4,8.9,0.6,12.5-2.4c2.6,2.3,5.6,2.8,9.1,1.5
		c5.4-2.1,7.2-5.7,5.4-11c-0.2-0.1-0.2-0.2-0.3-0.4c-0.9-1.5-1.9-2.7-3-3.7c0.1,0,0.4-0.1,0.6-0.2c0.1-0.2,0.2-0.3,0.4-0.4
		c0.1-0.2,0.3-0.4,0.4-0.6c0.4,0.4,0.7,0.8,1.2,1.1c4.3,4.4,6.1,9.3,5.3,14.8c-0.7,5.5-3.8,10.5-9.1,15c-5.3,4.4-12.8,5.9-22.5,4.3
		c-8.4-1.3-14.9-4.4-19.7-9.4c2.4,0.7,4.8,0.8,7.3,0.5c-0.7-1.2-1-2.4-1.2-3.7c-0.5-3.9-0.1-7.7,1-11.4c-2.8-0.9-5.3-2.2-7.6-3.9
		c1.9-4.9,4.9-9,9-12.3h0.1c0-0.1,0-0.1-0.1-0.1c0.1,0,0.2-0.1,0.3-0.2c1.2-0.6,2.4-1.3,3.7-1.8c1,0.9,2.3,1.4,4,1.5
		c0.1-0.1,0.2-0.2,0.3-0.2c3-1,4.9-2.4,5.7-4.3c2-0.5,4-0.5,5.9-0.2C57.3,29.3,57.3,29.2,57.2,29.2z M57.1,40
		c1.7,1.2,3.2,2.3,4.5,3.2c0.5-0.4,0.8-0.9,0.9-1.5c0.2-0.5,0.4-1.1,0.7-1.5c4.8-0.7,8.5,1.2,10.9,5.6c0.2,0.7,0.3,1.3,0.4,2
		c0.5,2.9-0.7,5.2-3.6,6.6c-3.9,1.3-7.1,0.5-9.8-2.3c-6.8,5.8-11.8,5.2-14.9-1.9c0-0.1,0-0.2,0.1-0.4c0.7-4.7,3.5-8.1,8.3-10.1
		c0.6-0.1,1.2-0.1,1.9-0.1C56.7,39.7,56.9,39.8,57.1,40z M77.7,28.9c-0.4-0.1-0.7-0.1-1.1-0.1c0,0.1,0,0.1,0,0.1
		c-0.2,0.1-0.3,0.2-0.4,0.3c-0.3,0.1-0.5,0.4-0.7,0.6c-0.2,0.2-0.3,0.3-0.4,0.4c0,0.6,0,1.3,0,1.9c0,0,0,0,0,0.1
		c-1.8-1.5-3.8-2.5-6.1-3.1l0,0c0.5-1,0.8-1.9,1-2.9c2.7-0.2,5,0.3,7,1.5c0.6,0.3,1.2,0.8,1.8,1.3h-0.4
		C78.1,28.9,77.9,28.9,77.7,28.9z M75.6,33.6c-0.3,0-0.6,0-1,0c-0.6-0.1-1.3-0.1-2.1-0.2c-0.2-0.1-0.4,0-0.6,0.1
		c-0.4,0.2-0.7,0.5-0.9,0.9c-1.1-1.2-2.4-2.2-3.7-3c0.1-0.1,0.2-0.2,0.3-0.2c0.5-0.5,0.9-1.1,1.2-1.7c2,1.4,4.1,2.5,6.4,3.3
		c0.1,0.2,0.1,0.2,0.2,0.4C75.4,33.3,75.5,33.5,75.6,33.6z M68.5,35.3c0.5,0.4,1.2,0.9,1.8,1.3c-0.4,1.1-1.2,1.8-2.3,1.9l0,0
		c0,0,0-0.1,0-0.2C68.5,37.3,68.6,36.3,68.5,35.3z M69.9,39.2c0.4-0.5,0.8-0.9,1.2-1.4c0-0.1,0-0.2,0-0.4c0,0,0-0.1,0.1-0.1
		c0.5,0.4,1,0.9,1.6,1.4c-0.6,0.4-1.2,0.8-1.8,1.1C70.6,39.5,70.2,39.3,69.9,39.2z M26.4,23.2c0.3,0.2,0.7,0.4,1.1,0.6
		c-0.2,0.2-0.2,0.5-0.1,0.9c0.3,0,0.7-0.1,0.9-0.2c0.2-0.2,0.4-0.3,0.5-0.3c0.4,0,0.7,0.1,1.1,0.1c2.4-1.4,5-2,7.7-1.7
		c0,0.4-0.1,0.9-0.1,1.3s0,0.7,0.1,1.1c-0.1,0-0.2-0.1-0.2-0.2c-0.8-0.1-1.5-0.2-2.1-0.3c-0.4,0-0.8-0.2-1.2-0.3
		c-0.7,0.1-1.5,0.4-2.1,0.9c-0.1-0.1-0.2-0.2-0.4-0.3c-0.2,0.1-0.4,0.2-0.5,0.3c-1,0.8-1.6,1.7-2,2.7c0.6,0.3,1.1,0.3,1.7,0
		c0,0.2,0,0.2,0,0.3c-0.1,0.1-0.1,0.2-0.1,0.2l0.1,0.1c-0.1,0.3-0.2,0.7-0.2,1.1c-0.1,0.5-0.1,1-0.1,1.5c-0.4,0.1-0.8,0.1-1.2,0.1
		c-2.2-0.6-3.6-1.9-4.2-4c-0.4-1.4-0.5-2.9-0.4-4.5C25.3,22.7,25.9,23,26.4,23.2z M36.5,26.1c0,0,0.1,0,0.1,0.1
		c0,0.1,0.2,0.2,0.3,0.3c0.1,0.1,0.2,0.2,0.3,0.3c0.2,0,0.4,0,0.6,0c0.4,1.9,1.3,3.2,2.6,3.9c-0.6,0.4-1.3,0.8-2,1.3
		c-0.8,0.5-1.5,1-2.1,1.5c-0.9-0.5-1.8-1-2.7-1.2v-0.1c0.3-0.2,0.5-0.4,0.7-0.6c1.2-1.2,2.8-2,4.6-2.1c-0.1-0.2-0.1-0.2-0.2-0.3
		C37.9,29.1,37,29,36.1,29c-1,0.3-1.7,0.8-2.5,1.5c0-0.5,0-1,0-1.5c0-0.2-0.1-0.3-0.2-0.3c-0.4-0.2-0.8-0.5-1.1-0.7
		c0-0.4,0-0.7-0.1-1c0.2-0.2,0.3-0.3,0.4-0.4C33.8,25.9,35.1,25.7,36.5,26.1z M27,46.6c0,0.1-0.1,0.3-0.2,0.5c0.1,0,0.1,0,0.2,0.1
		c0,0.1,0,0.2,0,0.4c2.2,1.9,4.6,3.3,7.4,4.4c-0.2,1.2-0.3,2.5-0.4,3.7c-0.2,3-0.1,5.9,0.4,8.7c-2.5-0.1-4.9-0.5-7.3-1.4
		c0-0.1,0-0.1,0.1-0.1c0.9-0.4,1.6-1,2.1-1.9c0-0.7-0.1-1.3-0.1-1.9c-0.2-2.2-0.6-4.4-1.2-6.4c0.1-0.1,0.1-0.2,0-0.2
		c-0.8-0.8-1.8-1.2-3-1.3c0,0.1,0,0.1,0,0.1c-1.2,0.6-2,1.3-2.7,2.1c0.4-4.3,2.6-7.8,6.5-10.4c-0.5,0.8-0.9,1.6-1.3,2.5
		c-0.2,0.2-0.3,0.3-0.3,0.6C27.1,46.2,27.1,46.4,27,46.6z M26.6,54.6c0.1,0.1,0.1,0.2,0.2,0.4c0.8,1.6,1.1,3.4,0.8,5.2
		c-0.3,0.6-0.8,1-1.5,1.1c-0.1,0.1-0.3,0.1-0.4,0c-0.9-0.6-1.7-1.3-2.1-2.1c0.4-0.2,0.8-0.4,1.2-0.6c0-0.3,0-0.5,0-0.8
		c0-0.2,0-0.4,0.1-0.7c0-0.2,0.1-0.5,0.2-0.8c-0.1-0.1-0.2-0.1-0.3-0.2c-0.6,0-1.2,0-1.9-0.1c0.2-0.8,0.6-1.7,1.2-2.7
		C25.2,53.2,26,53.6,26.6,54.6z M30.3,74.1c-0.1-0.3-0.1-0.6,0-0.9c1.3-0.9,2.8-1.4,4.5-1.5c0.1,0.1,0.2,0.1,0.2,0.1
		c-0.4,0.2-0.8,0.4-1.2,0.8c-0.5,0.5-0.8,1-0.9,1.6c0.1,0.5,0.2,1,0.4,1.5c0.2,0.9,0.6,1.5,1.2,1.9c0.2,0.1,0.4,0.2,0.6,0.3
		c0.2,0.1,0.3,0.3,0.5,0.4c0.1,0,0.2,0,0.3,0c0.9,0.4,1.6,0.7,2.4,0.8c-0.2,1.4,0.1,2.8,0.9,4.1c-0.1,0-0.3,0-0.5-0.1
		c-5.6-1.3-10.3-0.7-14.5,1.7c-4.1-0.2-7.8-1.1-11.2-2.8c0.6-0.5,1.1-0.8,1.5-1c5-2.6,10.3-3.9,15.9-3.7c0.2,0.5,0.5,1,0.9,1.5
		c0.8,0.4,1.3,0.3,1.6-0.2c0-0.1,0-0.2-0.1-0.3C32,76.9,31.1,75.5,30.3,74.1z M36.9,72.8c0.5,0.3,1,0.5,1.5,0.7
		c0.7,0.1,1.4,0.3,2.1,0.5c0,0.1,0.1,0.2,0.1,0.2c0.1,0.1,0.2,0.1,0.4,0.2c-0.3,0.2-0.6,0.4-0.8,0.7c-0.7,0.8-1.1,1.6-1.5,2.3
		c-0.9-0.6-2.1-1-3.4-1.2c-0.3-0.3-0.4-0.7-0.6-1.1c-0.1-0.1-0.1-0.2-0.1-0.4c0-0.1,0-0.2,0-0.4c0-0.1,0.1-0.2,0.2-0.2
		C35.5,73.6,36.2,73.2,36.9,72.8z M40.4,84.8c-0.2-0.1-0.4-0.2-0.6-0.2c0-0.1,0.1-0.2,0.2-0.3C40.1,84.5,40.3,84.7,40.4,84.8z
		 M81.4,58.7c-0.1,0.1-0.1,0.1-0.2,0.1c1.1-4.7,1-9-0.5-12.8C83.2,49.8,83.4,54,81.4,58.7z M19.3,57.5c0-0.1,0-0.1,0-0.1
		c0-0.1,0-0.1,0.1,0c0.1,0,0.2,0,0.2,0.1c0.5,0.1,1,0.3,1.4,0.5c-0.6,0-1.1,0-1.7-0.2C19.3,57.8,19.3,57.7,19.3,57.5z M84.1,55.5
		c0-0.2,0-0.3,0-0.4c0.4,0.6,0.9,0.9,1.4,0.9c0,0.8,0,1.6,0,2.5c-1.1,0.9-2.4,1.8-3.6,2.7c-0.6,0.4-1.2,0.8-1.7,1.1
		c0-0.1,0-0.2,0.1-0.2c0.1-0.4,0.2-0.7,0.3-1.1c0.7,0,1.3-0.3,2-0.9c0-0.1,0.1-0.2,0.1-0.3C83.4,58.3,83.9,56.9,84.1,55.5z M30,71.2
		c-0.5,0.2-0.9,0.5-1.1,1.1c-0.4,1-0.4,2.1,0.1,3.1c-3.5-0.2-7.1-0.7-10.7-1.3C11.9,72.9,8,69.8,6.8,64.9c4.5-1.2,9.1-2.3,13.8-3.6
		c0.1-0.1,0.2-0.2,0.3-0.3c0.3-0.3,0.4-0.6,0.6-0.9c0.1,0.6,0.3,1.2,0.5,1.9c1.7,1.1,3.3,2.1,5,2.8c-0.1,0-0.1,0-0.1,0.1
		c1.2,2.1,3.1,4,5.7,5.6C31.8,70.7,31,70.9,30,71.2z M40.6,79.2c-0.2-0.2-0.4-0.5-0.6-0.7c0.3-1.3,1.2-2.5,2.8-3.4
		c0.4,0.1,0.8,0.2,1.2,0.3c-0.2,0.2-0.4,0.4-0.6,0.7c-0.2,0.2-0.4,0.5-0.6,0.7c0,0.8,0,1.5,0,2.3c0.1,2.1,0.6,3.7,1.5,4.7
		c-0.1,0.1-0.1,0.3-0.2,0.4c0.1,0.2,0.2,0.2,0.3,0.2c0.2,0,0.4,0,0.6,0.1c0.8,0.6,1.9,0.9,3.3,0.8c-0.1-0.2-0.2-0.4-0.3-0.6
		c0.9,0.1,1.9,0.2,2.9,0.4c0.2,0.2,0.4,0.4,0.6,0.6c0.4,0.4,0.7,0.8,1.1,1.2c0.1,0.2,0.3,0.4,0.4,0.7c-0.4,0.8-0.9,1.5-1.5,2.1
		c-1.6,1.4-3.2,2.6-4.8,3.6c-0.2,0.1-0.3,0.2-0.5,0.3l-13.1,3c-0.1,0-0.1,0-0.2,0c-3.9-0.4-7.9-1.7-12-4c0.3-0.9,0.7-1.7,1.2-2.3
		c3.6-5.3,9-6.9,16.3-4.7c0-0.1,0.1-0.1,0.2-0.1c1.6,0.9,3.2,1.7,4.9,2.3c0.1-0.1,0.1-0.2,0-0.2c-0.8-1.1-1.7-1.9-2.7-2.5
		c0.4-0.2,0.8-0.3,1.3-0.5c0,0,0.1-0.1,0.2-0.3c-0.3-0.4-0.6-0.7-0.9-1.2c-0.9-1.4-1.4-2.6-1.4-3.8C40.2,79.3,40.4,79.3,40.6,79.2z
		 M60.3,86c-0.2-0.1-0.4-0.2-0.5-0.3c0-0.4,0.1-0.8,0.3-1.1c0.5-0.9,1.2-1.6,2-2.3c0.4,0,0.8-0.2,1.1-0.3c0.5-0.2,0.8-0.4,1.3-0.7
		c0.1-0.6,0.4-1.1,0.9-1.5c0.1-0.1,0.1-0.2,0.2-0.3c0-0.5,0-1,0-1.5c0.1-1-0.2-1.9-0.9-2.6c0.3,0,0.7,0.1,1,0.2
		c-0.1-0.2-0.2-0.3-0.3-0.4c0.5-0.1,0.9-0.2,1.4-0.3c0.1,0.6,0.6,1.1,1.5,1.4c0.1,0.3,0.2,0.6,0.2,0.8c0.1,0.3,0.2,0.5,0.3,0.7
		c-0.2,0.4-0.4,0.8-0.7,1.1c-0.6,0.7-1,1.5-1.3,2.3c1,0.6,1.9,0.9,2.9,0.9c-0.1,0.1-0.2,0.1-0.2,0.1c-0.4,0.3-0.5,0.7-0.5,1.1
		c0.1,0.2,0.1,0.3,0.1,0.4c0.3,0.2,0.6,0.3,0.7,0.2c1.4-0.6,2.8-1.2,4.2-1.9c8.5-4.3,15.2-3.1,20.1,3.6c-8.3,4.8-16.6,6.2-24.9,4.1
		l-1.7-0.5C67.3,89.1,67,89,66.9,89l0,0c-1.9-0.7-3.8-1.5-5.6-2.4C60.9,86.4,60.6,86.2,60.3,86z"/>
	<path style="fill:#BE3689;" d="M70.3,61.6c-0.3,0-0.4,0-0.5,0.1c-4.6,5.4-9.7,5.8-15.2,1.2c2.6,4.2,6.9,5.4,12.8,3.5
		c0-0.1,0-0.2,0-0.2C69.2,64.7,70.1,63.2,70.3,61.6z"/>
	<path style="fill:#BE3689;" d="M65.3,69.1c-0.1-0.1-0.1-0.2-0.2-0.2c-1.4,0.1-2.7,0-4-0.5c-0.4-0.1-0.4,0,0,0.4
		C62.3,69.9,63.7,70,65.3,69.1z"/>
	<path style="fill:#BE3689;" d="M60.7,48.9c0-0.1-0.1-0.2-0.1-0.3c-0.6-0.9-1.4-1.2-2.5-0.9c-0.4,0.1-0.6,0.4-0.8,1
		c-0.2,0.8,0.1,1.6,0.9,2.1c0.6,0,1.1,0,1.6-0.1c0.2-0.1,0.3-0.1,0.4-0.3c0.4-0.2,0.6-0.6,0.6-1.1C60.7,49.2,60.7,49.1,60.7,48.9z"
		/>
	<path style="fill:#BE3689;" d="M66.5,47.3c-0.9,0.4-1.2,1-1,1.9c1.1,1.8,2.4,1.8,3.7,0c0-0.1,0-0.2,0-0.3c-0.4-0.8-1-1.3-1.8-1.6
		C67,47.3,66.8,47.3,66.5,47.3z"/>
</g>
</svg>
