<?xml version="1.0" encoding="iso-8859-1"?>
<!-- Generator: Adobe Illustrator 12.0.1, SVG Export Plug-In . SVG Version: 6.00 Build 51448)  -->
<!DOCTYPE svg PUBLIC "-//W3C//DTD SVG 1.1//EN" "http://www.w3.org/Graphics/SVG/1.1/DTD/svg11.dtd" [
	<!ENTITY ns_svg "http://www.w3.org/2000/svg">
	<!ENTITY ns_xlink "http://www.w3.org/1999/xlink">
]>
<svg  version="1.1" id="Layer_1" xmlns="&ns_svg;" xmlns:xlink="&ns_xlink;" width="101" height="100" viewBox="0 0 101 100"
	 style="overflow:visible;enable-background:new 0 0 101 100;" xml:space="preserve">
<g>
	<g>
		<path style="fill:#FFFFFF;" d="M101,100V0H0v100H101z"/>
	</g>
</g>
<g>
	<path style="fill:#BE3689;" d="M82.6,23.1h-0.2c-0.3-0.3-0.8-0.6-1.3-0.7c-0.3-0.1-0.6-0.1-0.7,0c-1.3-1.3-3.1-2.1-5.2-2.4
		c-0.1-0.2-0.2-0.4-0.3-0.6c-0.1,0-0.2-0.1-0.4-0.1l-3,0.2c0.1,0.2,0.3,0.4,0.5,0.6c-0.4,0.1-0.7,0.2-1.1,0.2c-0.4,0-0.6,0-0.8,0.1
		c-0.1-1.2-0.3-2.3-0.7-3.4c0.1,0,0.1,0.1,0.2,0.2c-0.2-0.4-0.4-0.8-0.6-1.2l-1-0.4c0,0,0,0,0.1,0c-0.7-0.1-1.5-0.2-2.2-0.2
		C62.6,15.8,60,17,58,19.2c0.2-0.3,0.3-0.6,0.5-0.9c0-0.1,0.1-0.2,0.1-0.3c0-0.3,0-0.5,0-0.8c0.2-0.1,0.3-0.3,0.5-0.4
		c0-0.1,0.1-0.2,0.2-0.3c0-0.2,0-0.3,0-0.4c-0.1-5.6-2.8-8.5-8.2-8.9c-1.4-2-3.2-3.3-5.6-4c-0.6,0.2-1.1,0.6-1.7,1.1
		c-1.2,1.2-2,2.5-2.4,4.1c-0.6-0.5-1.2-0.9-1.9-1.3c-0.6,0-1.3,0-2,0c-0.6,0.2-1.1,0.6-1.5,1.3c-0.4,0.7-0.9,1.3-1.4,1.8
		c0,0.9,0,1.8,0,2.6c0.1,1,0.2,2,0.3,3c0.3,0.4,0.7,0.8,1.1,1.2c0.4,0.3,0.8,0.7,1.1,1.1c0.3,0,0.6,0,0.8,0.1
		c-0.2,0.6-0.4,1.3-0.5,2.1c-2-1.5-4.5-1.4-7.5,0.3c-0.2,0-0.4-0.1-0.5-0.1c-0.1,0.1-0.2,0.2-0.3,0.2c-0.2,0.1-0.4,0.1-0.6,0.1
		c-0.1-0.1-0.1-0.1-0.1-0.1c-1.4-0.8-2.9-1.3-4.5-1.3c-0.6,0.2-0.9,0.7-0.9,1.5c0.1,1.5,0.3,3,0.6,4.4c0.4,1.7,1.1,3.2,2.3,4.6
		c0.2,0.1,0.4,0.3,0.7,0.4c1.6,1.2,3.2,1.2,4.8,0.1c0-0.3,0-0.5,0-0.8c0.1-0.7,0.2-1.4,0.4-2.1c0.1,0,0.1-0.1,0.1-0.2
		c0.2,0.2,0.3,0.2,0.5,0.3c0,0.4,0,0.9,0,1.2c0,0.3,0,0.7,0,1c-0.1,0.1-0.1,0.1-0.1,0.2c-0.2,0-0.3,0.1-0.4,0.3
		c-1,0.8-1.4,1.7-1.3,2.6c1.6-0.3,3.1-0.4,4.5-0.3c-0.5,0.4-1,0.9-1.3,1.4h-0.1c-0.4,0.5-0.7,1-1.1,1.6c-1.5,1.6-2.7,3.3-3.9,5.2
		c0,0-0.1-0.1-0.2-0.1c-0.4-0.2-0.8-0.2-1.2-0.3c-0.9,0.4-1.7,1-2.3,1.8c-1.1,1.2-2,2.5-2.6,3.9c0-0.4,0.1-0.8,0.3-1.2
		c-0.4,0.7-0.9,1.4-1.6,1.9c-0.1,0.2-0.3,0.3-0.5,0.5c-0.1,0.2-0.2,0.5-0.4,0.8c-0.1,0.4-0.2,0.8-0.1,1.2c0,0.4,0,0.8,0,1.1
		c0,0.2,0,0.3,0,0.4c0,0.1-0.1,0.2-0.2,0.4c-0.1,0.1-0.2,0.2-0.3,0.3c-0.1,0.2-0.2,0.3-0.3,0.5c0,0.1,0,0.2,0,0.3c0,0.1,0,0.2,0,0.3
		c0.1,0.3,0.2,0.6,0.2,0.8c0.1,0.2,0.1,0.4,0.1,0.6c-0.4,0-0.9,0-1.3-0.1c-0.3,0.1-0.4,0.3-0.5,0.6c-0.2,0.6-0.3,1.2-0.3,1.8
		c0,0.4,0,0.8,0,1.1c0.6,0.2,1.2,0.4,1.7,0.5c0.2,1.6,0.3,3.3,0.5,5c0.1,2.4-0.1,4.7-0.8,6.9c-2.1,6.2-6.4,11-13.1,14.4
		c-1.2,4,0.3,7,4.3,9.1c9.6,5,20,6.2,31.1,3.7c10.1-2.2,19.2-6.4,27-12.4c0.1,1.3,0.3,2.6,0.7,4c1.1,0.7,2.3,1,3.6,0.8
		c5.3-0.6,10.2-2.1,14.8-4.5c7-3.6,10.9-8.7,11.7-15.3c-0.1-0.1-0.3-0.2-0.4-0.3c-1.9-0.9-3.9-1.2-6.1-0.8c-0.2,0-0.4,0.1-0.6,0.2
		c-5.8,1.2-10.8,3.7-15.2,7.4c0-0.2,0-0.4,0-0.7c5.3-5,8-10.5,8.3-16.7c0.2-1.5,0.4-3,0.5-4.6c0.1,0,0.2,0,0.2,0
		c0.1,0,0.1,0,0.2-0.1c0.3-0.1,0.7-0.4,1.1-0.7c0-0.5,0-1,0-1.5c0.1-0.7,0-1.3-0.1-1.9c-0.2-0.1-0.3-0.2-0.4-0.2h-0.1
		c0.1-0.1,0.1-0.2,0.1-0.2c0.1-0.1,0.1-0.2,0.2-0.3c-0.9-0.6-1.6-1.3-2.3-2c0.1,0.5,0.2,0.9,0.3,1.3c-0.1-0.1-0.1-0.2-0.1-0.3
		c-0.1-0.1-0.2-0.2-0.3-0.4c-0.4-0.1-0.6,0-0.5,0.2c0,0.5,0.1,0.9,0.2,1.3c-0.1,0-0.2,0-0.3,0c-0.4-1.9-1.4-3.7-2.9-5.4L80.4,44
		c-1.5-3.6-4.1-6.9-8-9.7c-0.2-0.3-0.4-0.6-0.7-0.8c1.3-1,2.8-1,4.6,0.3c0.6,0.4,1.1,0.4,1.6-0.3c-0.2-0.5-0.4-0.9-0.7-1.4
		C77.1,32,77,31.9,77,31.8c-0.2-0.2-0.3-0.4-0.5-0.6c-0.3-0.3-0.4-0.7-0.6-1.1c-0.1-0.3-0.1-0.7,0.1-1.1c0.1-0.1,0.2-0.2,0.3-0.2
		l0,0l1.7-1.3l1.5,0.9v-0.9l1,1.5l-1-0.6v3.1c0.9,0.5,1.7,1,2.6,1.5c0-0.2-0.1-0.4-0.2-0.5c0.2,0,0.3,0,0.5,0c4.5,0.5,7-1.6,7.6-6.4
		c-1.9-1.1-4-1.8-6.3-1.9C83.4,23.8,83.1,23.5,82.6,23.1z M88.4,27.5c-0.1,0.2-0.2,0.3-0.3,0.5s-0.3,0.4-0.4,0.6
		c-0.6,0.6-1.2,1.3-1.8,1.9c-1.4,0.6-2.8,0.8-4.2,0.6V31c-0.2,0-0.4,0-0.5,0c-0.1,0-0.1,0-0.1,0C81,30.9,81,30.9,81,30.9
		c0-0.3,0-0.5,0-0.8c0-0.2,0-0.4,0-0.6v-0.1c0-0.4,0-0.7,0-1.1c0.2,0.4,0.9,0.7,2.1,0.7c-0.1-0.1-0.2-0.2-0.2-0.4
		c-0.4-0.5-0.8-1-1.3-1.5c-0.1,0-0.1,0.1-0.2,0.1c-0.2,0.3-0.4,0.5-0.4,0.7c0-0.2,0-0.3,0-0.4c-0.6-0.6-1.2-1.2-1.8-1.6
		c-1.1-0.9-2.3-1.4-3.4-1.8c-1.9-0.5-3.9-0.5-5.9,0.1c0.1-0.8,0.2-1.7,0.3-2.5c1.3-0.2,2.7-0.2,4-0.1l2.3,0.5
		c1.7,0.4,3.2,1.2,4.8,2.2c0.2,0.5,0.4,0.9,0.7,1.3c0.3,0,0.7,0,1.1,0c0.4,0.6,1,0.9,1.8,0.9c0-0.1,0-0.2-0.1-0.3
		c0-0.2-0.1-0.2-0.1-0.4C86.2,26,87.4,26.6,88.4,27.5z M84.1,52.8c-0.1,0-0.1,0-0.2,0c0.1-0.4,0.1-0.7,0.1-1.1
		C84,52.1,84,52.4,84.1,52.8z M84.1,53.6c0,0.3,0,0.6,0,0.9c-0.1,2.4-0.6,4.8-1.4,7.1c0.1-0.1,0.2-0.1,0.3-0.2
		c-1,2.9-2.6,5.6-4.8,8.1c-1,1.2-1.7,2.3-2.1,3.3c-0.8-1.3-1.9-2.3-3.2-2.9c1.4-2,3.1-3.7,5.1-5.2c0.8-1.3,1.5-2.8,2-4.4
		c0.1-0.4,0.2-0.7,0.4-1.1c0.6,0,1.3-0.3,2-0.9c0-0.1,0-0.2,0.1-0.3c0.7-1.5,1.1-2.9,1.3-4.3c0.1-0.2,0.1-0.3,0.1-0.4
		C83.9,53.4,84,53.5,84.1,53.6z M84.5,52.6c-0.1-0.4-0.2-0.7-0.3-1c0.5,0.2,0.9,0.3,1.3,0.3C85.2,52.1,84.9,52.3,84.5,52.6z
		 M82.1,75.1c4.8-3.6,9.8-4.8,14.9-3.5C90.9,81.1,82,86.2,70.4,87c-0.5-1-0.6-2-0.4-2.9c0.1,0,0.2,0,0.4,0c-0.2-0.1-0.3-0.2-0.4-0.3
		c0-0.4,0.3-0.9,0.5-1.3c0.3-0.4,0.4-1,0.3-1.5c0-0.2,0.1-0.3,0.1-0.4c0.1-0.2,0.4-0.5,0.6-0.8c0-0.1,0-0.2,0.1-0.3
		c0.2-1.6,0-3.1-0.4-4.5c-0.2-0.3-0.2-0.7-0.1-1.2c-0.6-0.6-1.2-1.2-1.9-1.7C69,72.1,69,72,68.9,72c0.2-0.1,0.5-0.1,0.8-0.1
		c0.5-0.2,1-0.5,1.5-0.8c0.1,0.2,0.3,0.4,0.4,0.7c0.2-0.3,0.3-0.5,0.4-0.8c1.6,2.1,3,4,4,5.7c-1,1-2,2-3,3c0,0.2,0,0.3,0,0.4
		c0,0.2,0,0.5,0.1,0.7c0.1,0.2,0.1,0.3,0.3,0.4C76.2,79.4,79.1,77.4,82.1,75.1z M63.1,21.9c-0.1-0.1-0.2-0.2-0.3-0.3
		c-0.6-0.2-1.3-0.4-1.9-0.6c-0.2,0.1-0.4,0.1-0.5,0.2c-1.7,0-2.8,0.6-3.4,1.8c-0.1,0-0.1,0-0.1,0c-0.1,0.1-0.2,0.1-0.3,0.1
		c0-0.4,0-0.8,0-1.2l0,0c0-0.1,0-0.1,0-0.1c-0.1-0.1-0.1-0.2-0.1-0.3c3.4-2.7,7.3-4.1,11.7-4.2c0.2,0.7,0.3,1.5,0.3,2.2
		c0.3,3-0.3,5.8-1.8,8.3c-0.4,0.2-0.7,0.5-1.1,0.8c-0.1,0.1-0.2,0.2-0.4,0.4c-0.7,0.1-1.5,0.3-2.3,0.6c-0.3-0.1-0.6-0.1-0.9-0.3
		c-2.2-1-4-2.3-5.4-4.2c0,0,0,0-0.1,0c0.1-0.4,0.1-0.9,0.1-1.3c0.7,0.1,1.5,0.3,2.3,0.3c0.5,0.6,1.1,1,1.7,1.4
		c0.9,0.6,1.6,0.5,2.1-0.1c0.1-0.7-0.3-1-1.1-1.1c-0.8-0.2-1.5-0.5-2-1.2c-0.4,0-0.8,0-1.3,0C59.9,22.4,61.5,22,63.1,21.9z
		 M43.6,9.7c-0.2-0.3-0.5-0.7-0.8-1c0.3-0.3,0.6-0.6,0.7-1.1c0.4-1.1,1.1-1.9,2.1-2.5c1.1,0.8,2.2,1.6,3.2,2.1c-0.1,0-0.2,0-0.3,0
		c-0.2,0.1-0.4,0.2-0.7,0.4c-0.3,0.1-0.5,0.3-0.7,0.4c-0.2,0.1-0.2,0.2-0.3,0.4c0,0.1,0,0.2,0,0.3c0.1,0.2,0.2,0.2,0.3,0.2
		c8.7-0.4,11.8,2.9,9.5,10.1c-0.2,0.1-0.4,0.2-0.6,0.3c-0.2,0.2-0.4,0.3-0.5,0.5c-0.1,0-0.1,0.1-0.1,0.2h-0.1
		c-0.1,0-0.1,0.1-0.1,0.1c0.1,0.1,0.1,0.2,0.1,0.3c-0.4-0.2-0.8-0.3-1.2-0.4C54,19.9,54,19.9,54,19.9c0-0.2,0.1-0.4,0.1-0.6
		c0.1,0.1,0.3,0.1,0.4,0.2c0.8-0.9,1.2-1.9,1.2-3.3c0-0.9,0-1.8-0.2-2.6c-0.1-0.1-0.3-0.3-0.4-0.4c-1.5-1.7-3.3-2.5-5.6-2.4v0.1
		c-0.7-0.1-1.2,0-1.6,0.5c-1.2-0.7-2.7-1.2-4.2-1.5C43.6,9.9,43.6,9.8,43.6,9.7z M46.8,15.7c0.7,0.5,1.4,0.9,2.1,1.3
		c0.2,0.2,0.4,0.5,0.5,0.8c0.1,0.1,0.1,0.2,0.2,0.3c0.1,0.2,0.3,0.5,0.4,0.7c0,0.3-0.1,0.5-0.1,0.7c-2.2-2.1-4.8-3.5-7.8-3.9
		c0.2-0.3,0.5-0.6,0.8-0.9c0.7,0.2,1.7,0.3,3,0.4C46.2,15.3,46.5,15.5,46.8,15.7z M50.8,18.1c-0.2-0.5-0.4-1-0.5-1.5
		c-0.2-0.1-0.3-0.2-0.4-0.3c-2.6-1.9-5.3-3-8.4-3.3c0,0,0,0,0,0.1c0,0.4,0.2,0.8,0.6,1.2c-0.8,0.4-1.6,0.8-2.3,1.1
		c-0.2,0-0.3,0-0.4,0c-0.1,0-0.1,0.1-0.2,0.2c-0.6,0.3-1.3,0.5-1.9,0.6c-0.7-0.6-1-1.4-1-2.2c0-0.9,0-1.8,0.1-2.7
		c0.5-0.4,0.8-0.9,1.1-1.4C37.7,9.3,38.1,9,38.8,9c0.5,0.4,1.1,0.8,1.7,1.2c0.2,0,0.3,0.1,0.4,0.2c-0.1,0-0.2,0-0.4,0.1
		c-0.7,0.5-0.6,0.9,0.5,1.1c0.5,0,0.9,0.1,1.3,0.1c1,0.3,2,0.6,3,0.8c3.5,0.9,6,2.9,7.6,6c0,0.4,0,0.8,0.2,1.2
		c-0.2-0.1-0.3-0.1-0.4-0.2c0,0.1,0,0.2,0.1,0.2c-0.6,0-1.1-0.1-1.6,0c-0.1-0.4-0.1-0.7-0.1-1c-0.1,0-0.1,0-0.1,0
		C51,18.5,50.9,18.3,50.8,18.1z M42.9,21l-0.4,0.1c1.8,0.6,3.7,1.2,5.6,1.8c-0.4,0-0.8,0-1.2,0.1c-0.7,0.4-1.4,0.8-2.1,1.4
		c-0.2,0.1-0.3,0.2-0.3,0.5v0.2c1.8-0.8,3.4-1.1,5-0.9c0,0.4,0.1,0.8,0.1,1.2c-0.1,0-0.2,0-0.2,0c-0.1,0.1-0.2,0.1-0.3,0.1
		c0.2,0,0.4,0.1,0.6,0.3c0.2,0.3,0.2,0.7,0.2,1.1c0,0.1,0,0.2,0.1,0.4c-1.8,1.3-3.7,2.3-5.9,2.8c-0.9-0.5-1.8-1.1-2.6-1.8
		c-0.1-0.1-0.2-0.1-0.3-0.1c-0.1,0-0.2-0.1-0.3-0.1c-0.2-0.1-0.3-0.1-0.4-0.3c-1.2-1.9-1.7-4.1-1.6-6.4c0.1-1.5,0.4-2.8,1-4
		c0-0.1,0.1-0.1,0.1-0.2c0.1,0,0.2-0.1,0.4-0.2c0.6-0.1,1.2-0.2,1.8-0.2c1.5,0.6,2.8,1.5,4,2.4c1.4,1.1,2.6,1.6,3.5,1.7
		c-0.2,0.5-0.3,1.1-0.3,1.7C47.6,21.2,45.5,20.6,42.9,21z M51.1,22.3c0-0.2,0-0.3,0-0.4c0.4-1,1.1-1.1,2.2-0.5c0,0.1,0,0.1,0,0.1
		s0,0,0.1,0h0.1c0.5,0.4,1.1,0.6,1.6,0.9c0,0.4,0,0.8,0.1,1.1c0,0.6-0.1,1.1-0.3,1.5c-0.1,0.2-0.2,0.3-0.3,0.4v0.1
		c-0.9-0.2-1.9-0.2-2.8-0.2c-0.2-0.1-0.4-0.2-0.7-0.2v-0.2c0-0.4,0-0.8,0-1.1C51.1,23.3,51.1,22.8,51.1,22.3z M54,17.9
		c-0.2-0.4-0.4-0.8-0.6-1.2c-1.1-1.9-2.5-3.4-4.2-4.6c2.2-0.1,4,0.9,5.2,3C54.4,16,54.3,17,54,17.9z M56.5,21.1c0-0.2,0-0.4,0.1-0.6
		c0.1,0,0.2,0,0.4,0c-0.2,0.3-0.3,0.5-0.5,0.8C56.5,21.2,56.5,21.2,56.5,21.1z M46,48.4c0-0.1,0-0.2,0-0.4c0.8-4.7,3.6-8.1,8.4-10.1
		c0.6-0.1,1.2-0.1,1.8-0.1c0.2,0.1,0.4,0.2,0.6,0.4c1.8,1.2,3.3,2.3,4.6,3.2c0.4-0.4,0.7-0.9,0.9-1.5c0.1-0.5,0.4-1.1,0.7-1.5
		c4.8-0.7,8.5,1.2,10.9,5.6c0.1,0.7,0.2,1.3,0.3,2c0.5,2.9-0.7,5.2-3.6,6.6c-3.8,1.3-7.1,0.5-9.7-2.3C54,56.1,49,55.5,46,48.4z
		 M77.4,27.1c-0.3-0.1-0.7-0.1-1-0.1c0,0.1,0,0.1-0.1,0.1c-0.1,0.1-0.2,0.2-0.4,0.3c-0.2,0.1-0.5,0.4-0.7,0.6s-0.2,0.3-0.3,0.4
		c0,0.6,0,1.2,0,1.9c0,0,0,0,0,0.1C73,29,71,27.9,68.8,27.3l0,0c0.4-1,0.7-1.9,1-2.8c2.6-0.3,4.9,0.2,7,1.4c0.6,0.3,1.2,0.8,1.7,1.2
		h-0.4C77.9,27.1,77.7,27.1,77.4,27.1z M75.4,31.8c-0.4,0-0.7,0-1,0c-0.7-0.1-1.4-0.2-2.1-0.2c-0.3-0.1-0.4,0-0.7,0
		c-0.3,0.3-0.6,0.6-0.8,1c-1.2-1.1-2.4-2.1-3.8-3c0.1-0.1,0.2-0.1,0.4-0.2c0.5-0.5,0.9-1.1,1.1-1.7c2,1.4,4.2,2.4,6.5,3.3
		c0,0.1,0,0.2,0.1,0.4C75.2,31.5,75.3,31.6,75.4,31.8z M67.8,36.5c0.5-1,0.6-2,0.4-3c0.6,0.5,1.2,0.9,1.8,1.3
		c-0.4,1.2-1.1,1.8-2.2,1.9c0,0,0,0-0.1,0C67.8,36.7,67.8,36.6,67.8,36.5z M70.9,35.6v-0.1c0.6,0.5,1.1,0.9,1.6,1.4
		c-0.5,0.4-1.1,0.8-1.8,1.1c-0.3-0.3-0.7-0.5-1.1-0.6c0.4-0.4,0.9-0.9,1.3-1.4C70.9,35.9,70.9,35.8,70.9,35.6z M24.5,20.8
		c0.6,0.1,1.1,0.4,1.6,0.6c0.4,0.2,0.8,0.4,1.2,0.6c-0.2,0.2-0.3,0.5-0.2,0.9c0.4,0,0.7-0.1,1-0.3c0.1-0.1,0.3-0.2,0.5-0.2
		c0.3,0,0.7,0.1,1,0.1c2.5-1.4,5-2,7.8-1.7c-0.1,0.4-0.1,0.9-0.1,1.3s0,0.7,0,1.1c0-0.1-0.2-0.1-0.2-0.2c-0.7-0.1-1.5-0.2-2.1-0.3
		c-0.4-0.1-0.8-0.2-1.1-0.3c-0.8,0.1-1.5,0.4-2.2,0.9c-0.1-0.1-0.2-0.2-0.3-0.3c-0.3,0.1-0.4,0.2-0.6,0.3c-0.9,0.8-1.6,1.7-1.9,2.7
		c0.5,0.3,1.1,0.3,1.7,0c-0.1,0.1-0.1,0.2-0.1,0.3c0,0.1,0,0.2,0,0.2v0.1c-0.1,0.4-0.1,0.7-0.2,1.1c0,0.4-0.1,0.9-0.1,1.4
		c-0.4,0.2-0.8,0.2-1.1,0.2c-2.2-0.6-3.6-1.8-4.3-4C24.4,23.9,24.3,22.4,24.5,20.8z M36.2,24.3c0.1,0,0.1,0,0.2,0.1
		c0,0.1,0.1,0.2,0.2,0.2c0.1,0.2,0.2,0.3,0.4,0.4c0.1,0,0.4,0,0.5,0c0.4,1.9,1.3,3.2,2.7,4c-0.7,0.3-1.4,0.7-2,1.1
		c-0.8,0.5-1.6,1.1-2.2,1.6c-0.9-0.6-1.8-1-2.6-1.2c0,0,0,0,0-0.1c0.2-0.2,0.4-0.4,0.6-0.6c1.3-1.2,2.8-2,4.6-2.2
		c0-0.1-0.1-0.1-0.1-0.1c-0.9-0.2-1.8-0.3-2.6-0.4c-1,0.4-1.8,0.9-2.5,1.6c0-0.5,0-1,0-1.6c-0.1-0.1-0.2-0.1-0.3-0.2
		c-0.3-0.2-0.7-0.4-1-0.8c0-0.3-0.1-0.6-0.1-1c0.1-0.1,0.2-0.1,0.4-0.3C33.5,24.1,34.8,23.9,36.2,24.3z M26.7,45.4
		c0,0.1,0,0.2,0.1,0.4c2.1,1.9,4.6,3.3,7.3,4.4c-0.1,1.2-0.2,2.5-0.3,3.7c-0.3,3-0.2,5.9,0.3,8.6c-2.5,0-4.9-0.5-7.2-1.3
		c0-0.1,0-0.1,0-0.1c1-0.4,1.7-1,2.1-1.9c0-0.7,0-1.3-0.1-1.9c-0.2-2.2-0.6-4.4-1.1-6.4c0-0.1,0-0.2,0-0.2c-0.9-0.8-1.9-1.2-3-1.3
		c0,0.1,0,0.1-0.1,0.1c-1.1,0.6-2,1.3-2.6,2.1c0.4-4.3,2.5-7.8,6.4-10.4c-0.4,0.8-0.9,1.6-1.3,2.5c-0.1,0.2-0.2,0.3-0.3,0.6
		c0,0.1-0.1,0.3-0.1,0.5c-0.1,0.1-0.2,0.3-0.2,0.5C26.6,45.3,26.7,45.3,26.7,45.4z M26.4,52.8c0,0.1,0.1,0.2,0.1,0.4
		c0.9,1.6,1.1,3.4,0.9,5.2c-0.3,0.6-0.8,1-1.5,1.1c-0.2,0.1-0.3,0.1-0.4,0c-1-0.6-1.7-1.3-2.2-2.1c0.4-0.2,0.8-0.4,1.2-0.6
		c0-0.3,0-0.5,0-0.8c0-0.2,0.1-0.4,0.1-0.7c0.1-0.2,0.1-0.5,0.3-0.8c-0.2-0.1-0.3-0.1-0.4-0.2c-0.6,0-1.2,0-1.8-0.1
		c0.1-0.8,0.5-1.7,1.2-2.7C24.9,51.4,25.7,51.8,26.4,52.8z M26.7,62.9c0,0,0,0,0,0.1l0,0C26.7,62.9,26.7,62.9,26.7,62.9z M40.8,69.7
		c0.1,0.1,0.2,0.1,0.3,0.2c0.3,0,0.6,0,0.9-0.1c0.1-0.1,0.1-0.2,0.2-0.3c0.6-1,1.4-1.7,2.4-2.3c0.6,0,1.1,0.2,1.5,0.4
		c3.1,2.2,4.6,5.3,4.4,9.4c0,0.2-0.1,0.4-0.2,0.7c-0.1,0.2-0.2,0.5-0.3,0.8c0.4,2.5,0.3,5.1-0.2,7.5c-0.4,1.6-1.1,2.9-2.2,3.9
		c-6.4,5.7-10.7,4.7-12.8-2.9c0.1-0.7,0.1-1.3,0.1-1.9C35.1,79.3,37.1,74.2,40.8,69.7z M19,55.6c0.1-0.1,0.1-0.1,0.1,0
		c0.1,0,0.2,0,0.3,0.1c0.4,0.1,0.9,0.3,1.4,0.5c-0.4,0-0.8,0-1.2-0.1c-0.2,0-0.4,0-0.5-0.1C19,56,19,55.9,19,55.7
		C19,55.6,19,55.6,19,55.6z M81.1,56.9C81.1,57,81,57,81,57c1.1-4.7,0.9-9-0.5-12.8C82.9,48,83.2,52.2,81.1,56.9z M67.9,72
		c-0.2,0-0.3,0-0.4,0c0.1,0,0.3,0,0.5,0H67.9z M26,62.7c0,0.2-0.1,0.3,0,0.5c0.6,6.2,3.3,11.4,8.1,15.7c0-0.7,0.1-1.4,0.2-2
		c-3.8-4-6.4-8.5-7.6-13.7c1.3,2.1,3.2,3.9,5.6,5.5c-0.2,0-0.4,0.1-0.6,0.2c0.4,0,0.9,0,1.3,0c0.4,0.5,0.8,1,1.3,1.4
		c0.3,0.1,0.7,0.2,1,0.4c0.3,0.1,0.7,0.4,1,0.6c0.4,0.2,0.8,0.4,1.2,0.4c-2.9,4.3-4.1,9.3-4,15.1c0.1,4.7,1.9,7.5,5.4,8.2
		c-3.3,0.7-6.7,1.1-10.2,1.3c-2.5,0.2-4.8,0-7-0.3c1-0.4,1.9-0.7,2.9-1c4.4-1.5,7-3.3,7.9-5.4c-0.1,0-0.2,0.1-0.2,0.1
		c-4.6,1.5-8.9,3.4-12.8,5.8c-2.8-0.8-5.3-2-7.5-3.6c5.1-1.6,10.3-2.9,15.5-3.9c3.4-0.7,4.8-1.7,4-3c-7,1.4-13.6,3.6-19.6,6.8
		c-1.6-1.3-3.1-2.8-4.3-4.6c2.5-0.5,5-1.1,7.6-2c3.3-1.1,4.9-2.5,4.8-4.1v0.1c-0.8,0.4-1.6,1-2.2,1.6c-3.8,0.9-7.4,2.1-10.7,3.6
		C7,86.3,6.9,86.1,6.8,86c3.7-3.3,7.4-6.5,11.1-9.9c2.7-2.3,4.1-5.2,4.2-8.8c0.2-3.8-0.4-6.9-1.7-9.3c0.2,0,0.5,0,0.7,0
		c0.2,0.7,0.4,1.4,0.7,2.2C23.2,61.2,24.6,62,26,62.7z M57,27.4c0-0.1,0-0.1,0-0.2c1.4,2.4,3.8,3.8,7.2,4.4c0.1,0,0.2-0.1,0.3-0.1
		c0.2-0.2,0.4-0.3,0.5-0.4c0.6,0.4,1.1,0.7,1.6,1c-0.2,0-0.5,0-0.7,0c0.6,0.4,1.3,0.8,2,1.2c-0.7,0.6-1.2,1.6-1.5,3.1
		c-0.1,0-0.1,0-0.1,0.1c-0.9-0.2-1.9-0.3-2.9-0.2c-0.3,0.2-0.6,0.3-1,0.5c-0.8,0.4-1.4,1-1.7,1.8c-0.1,0.1-0.1,0.1-0.2,0.2
		c-2.2-2-4.4-2.7-6.6-2.1c-0.4-0.4-1-0.6-1.9-0.7c-0.1-0.1-0.1-0.2,0-0.3c0.1-0.7,0-1.2-0.4-1.6c-0.3-0.1-0.6,0-0.7,0.4
		c-0.2,0.9-0.1,1.8,0.3,2.5c0.3,0.2,0.5,0.3,0.7,0.5c-0.4,0.1-0.7,0.4-1,0.6c-0.7-0.2-1.4-0.5-2-0.8c0-0.2,0-0.3,0-0.4
		c0-0.4-0.1-0.8-0.4-1.1c-0.2,0-0.3,0.1-0.3,0.2c-0.5,0.8-0.4,1.5,0,2.1c0.5,0.5,1,0.8,1.5,1c-0.2,0.1-0.3,0.2-0.4,0.3
		c-1.1,0-2-0.4-2.7-1.3c-0.4-0.1-0.6,0-0.6,0.4c-0.1,0.9,0.4,1.5,1.5,1.9c0.2,0,0.4,0.1,0.6,0.1c-4.5,4.8-4.4,9.6,0.4,14.5
		c4.7,1.4,8.9,0.6,12.5-2.4c2.5,2.3,5.5,2.8,9,1.5c5.5-2.1,7.3-5.7,5.5-11c-0.2-0.1-0.3-0.2-0.3-0.4c-0.9-1.5-1.9-2.7-3-3.7
		c0.1,0,0.3-0.1,0.5-0.2c0.2-0.2,0.3-0.3,0.4-0.4c0.2-0.2,0.4-0.4,0.4-0.6c0.4,0.4,0.8,0.8,1.2,1.1c4.3,4.4,6.1,9.3,5.4,14.8
		c-0.8,5.5-3.8,10.5-9.1,15c-4.5,3.7-10.5,5.3-17.9,4.9c0,0.4,0,0.9-0.1,1.4c1.9,0,3.7-0.1,5.6-0.3c1.1-0.3,2.1-0.6,3.2-1
		c-0.1,0.1,0,0.3,0.1,0.4c1-0.3,2.1-0.6,3.1-0.9c0.8,0.3,1.5,0.2,2.5-0.1c0.4,0.3,0.7,0.5,1,0.7c0.3,0.2,0.5,0.3,0.6,0.5
		c-0.1,0.5-0.3,0.8-0.7,1.1c-0.2,0.2-0.4,0.4-0.5,0.7c0.5-0.5,1-1,1.8-1.3c0.3,0.6,0.3,1.4,0,2.2c-0.8,1.7-1.3,3.5-1.4,5.2
		c-0.2-0.2-0.4-0.5-0.5-0.9c-5.8,5-12.4,8.8-19.7,11.4c0.1-0.2,0.1-0.3,0.2-0.4c0.5-0.8,1-1.7,1.4-2.5c0.2,0.1,0.3,0.1,0.4,0.1
		c2.8-0.8,5.4-1.7,7.9-2.9c-0.1-0.2-0.2-0.2-0.3-0.3c-0.5-0.1-1.1-0.2-1.7-0.2c-0.5,0.2-1.1,0.4-1.8,0.6c-1.9,0.4-3.3,1.2-4.3,2.3
		c2-4.1,3-8.7,3-13.6c0-6.4-3-10.1-8.9-10.8c-2.2,1.6-4.1,3.4-5.6,5.4c-2.3-1.4-4.7-2.9-7-4.3C31.3,66,31.3,66,31.3,66
		c-0.9-0.8-1.8-1.5-2.6-2.4c2.4,0.7,4.9,0.8,7.3,0.4c-0.6-1.1-1-2.3-1.1-3.6c-0.5-3.9-0.2-7.7,1-11.4c-2.8-0.9-5.4-2.2-7.7-3.9
		c1.9-4.9,4.9-9,9-12.3c0.1,0,0.1,0,0.2,0c-0.1-0.1-0.1-0.1-0.1-0.1c0.1-0.1,0.2-0.1,0.2-0.2c1.2-0.6,2.5-1.3,3.8-1.8
		c0.9,0.9,2.2,1.4,3.9,1.4c0.1,0,0.2-0.1,0.3-0.1c3-1,4.9-2.4,5.7-4.4c2.1-0.4,4-0.4,5.9-0.1C57.1,27.5,57,27.5,57,27.4z"/>
	<path style="fill:#BE3689;" d="M9.6,89.6c0,0.1,0.1,0.1,0.1,0.2c3.8-1.2,7.7-2.2,11.5-3.1c4.4-0.9,6.8-2.3,7.3-4.1
		C21.7,84.2,15.3,86.5,9.6,89.6z"/>
	<path style="fill:#BE3689;" d="M70,59.8c-0.2,0-0.4,0-0.5,0.1c-4.6,5.5-9.6,5.8-15.1,1.1c2.6,4.3,6.8,5.5,12.7,3.5
		c0,0,0-0.1,0.1-0.1C68.9,62.9,69.9,61.4,70,59.8z"/>
	<path style="fill:#BE3689;" d="M65,67.3c0-0.1-0.1-0.2-0.1-0.2c-1.5,0.1-2.8-0.1-4-0.6c-0.4,0-0.4,0.1-0.1,0.5
		C62.1,68.1,63.5,68.2,65,67.3z"/>
	<path style="fill:#BE3689;" d="M23.3,41.5c0,0.2,0,0.4,0,0.7c0.1-0.3,0.1-0.5,0.2-0.8C23.4,41.5,23.4,41.5,23.3,41.5z"/>
	<path style="fill:#BE3689;" d="M54.6,97.3c0.1,0.2,0.1,0.2,0.1,0.2c6.5-1.1,12.5-3.6,18.1-7.4c-0.1-0.1-0.2-0.2-0.3-0.3
		c-0.3-0.1-0.6-0.3-1-0.3c-0.5,0.2-1,0.5-1.5,0.8C65,92.9,59.9,95.3,54.6,97.3z"/>
	<path style="fill:#BE3689;" d="M92.1,85.8c0,0,0,0-0.1,0.1c-8.3,3.2-16.1,7.1-23.2,11.7c0.2,0,0.4,0,0.6-0.1
		c6.7-3.3,13.7-6.5,20.9-9.7c0.1-0.1,0.3-0.2,0.5-0.3C91.6,87.1,92.1,86.5,92.1,85.8z"/>
	<path style="fill:#BE3689;" d="M96.5,86.7c-0.1,0.1-0.2,0.1-0.2,0.1C89.2,90,82.1,93.2,75,96.6c-0.1,0-0.2,0.1-0.2,0.2
		c-0.4,0.4-0.8,0.8-1,1.3c4.8-2,9.9-4.1,15.3-6.3C92.9,90.1,95.4,88.5,96.5,86.7z"/>
	<g>
		<path style="fill:#BE3689;" d="M59.8,49.8c-0.5-0.9-1.4-1.2-2.4-0.9c-0.4,0.1-0.7,0.4-0.8,1c-0.3,0.8,0,1.6,0.9,2.1
			c0.5,0,1,0,1.6-0.1c0.1-0.1,0.2-0.1,0.4-0.3c0.4-0.2,0.6-0.6,0.5-1.1c0-0.1,0-0.2,0-0.4C59.9,50,59.9,49.9,59.8,49.8z"/>
		<path style="fill:#BE3689;" d="M68.4,50.1c-0.4-0.8-0.9-1.3-1.8-1.6c-0.3,0-0.6,0-0.8,0c-0.9,0.4-1.3,1-1.1,1.9
			c1.2,1.8,2.4,1.8,3.8,0C68.5,50.3,68.5,50.2,68.4,50.1z"/>
	</g>
</g>
</svg>
