<?xml version="1.0" encoding="iso-8859-1"?>
<!-- Generator: Adobe Illustrator 12.0.1, SVG Export Plug-In . SVG Version: 6.00 Build 51448)  -->
<!DOCTYPE svg PUBLIC "-//W3C//DTD SVG 1.1//EN" "http://www.w3.org/Graphics/SVG/1.1/DTD/svg11.dtd" [
	<!ENTITY ns_svg "http://www.w3.org/2000/svg">
	<!ENTITY ns_xlink "http://www.w3.org/1999/xlink">
]>
<svg  version="1.1" id="Layer_1" xmlns="&ns_svg;" xmlns:xlink="&ns_xlink;" width="91.747" height="94.333"
	 viewBox="0 0 91.747 94.333" style="overflow:visible;enable-background:new 0 0 91.747 94.333;" xml:space="preserve">
<g>
	<path style="fill:#BE3689;" d="M79.9,20.793c1-0.2,2-0.2,3.1-0.2c0.1,0,0.1,0,0.1,0.1c0.7-0.2,1.4-0.3,2.1-0.5
		c4.7-1.3,6.9-4.3,6.5-9.1c-0.7-8.4-6.1-12-16-10.9c-2.7-0.3-5.3,0.2-7.7,1.6c-1.5,0.9-2.7,1.9-3.8,3.2c-0.7,1.8-0.8,3.4-0.6,5
		c0.1,0.8,0.3,1.5,0.6,2.2c0.2,0.6,0.5,1.2,0.8,1.7c2.3,3.6,5.2,5.8,8.9,6.8c-0.4,0.6-0.5,1.4-0.4,2.3c1.4,1.3,3,1.8,4.9,1.3
		c0.3-0.2,0.7-0.4,1.1-0.7c0.1-0.1,0.1-0.2,0.2-0.3C80.3,22.093,80.4,21.293,79.9,20.793z M75,22.493c-0.2-0.5-0.3-1.1-0.3-1.6
		c1,0.2,2.1,0.3,3.2,0.3c-0.1,0.1-0.1,0.1-0.2,0.1c0.4-0.1,0.8-0.2,1.3-0.3c-0.2,0.9-0.7,1.6-1.6,2c-0.7,0-1.4-0.1-2.1-0.1
		C75.1,22.793,75,22.593,75,22.493z M89.8,15.293c-1.2,1.6-2.7,2.6-4.6,3.2c-9.2,2.7-15.9,0.6-19.9-6.3c-0.1-1-0.1-1.8-0.3-2.7
		c-0.1-1.1-0.1-2.3,0.3-3.3c0.1-0.2,0.2-0.3,0.3-0.4c1.4-2.1,3.5-3.5,6.1-4c3-0.2,6.1-0.1,9.1,0.3
		C89.4,3.393,92.4,7.793,89.8,15.293z"/>
	<path style="fill:#BE3689;" d="M85.6,8.193c0.9-0.2,1.8-0.3,2.7-0.4c0.2-0.6,0.1-1.1-0.2-1.5c-0.1-0.1-0.1-0.2-0.2-0.4
		c0-0.1-0.1-0.2-0.2-0.3c-0.1-0.2-0.2-0.3-0.3-0.4c-0.1-0.2-0.3-0.2-0.5-0.3c-2.9-0.8-5.8-1.2-8.7-1.2c-3.4,0.1-6.7,0.5-10,1.2
		c-0.6,0.6-1,1.3-1.3,2c-0.1,0.2-0.1,0.4-0.1,0.6c0,0.2,0,0.3,0,0.4c0,0.2,0,0.3,0,0.4s0.1,0.2,0.2,0.2c0.5,0.3,1,0.5,1.5,0.7
		c0.1,0,0.2,0.1,0.2,0.2c0,0.2,0,0.3,0,0.4c0,1.1,0,2.2,0,3.4c0,0.5,0,1,0,1.5c0,0.2,0,0.5,0,0.7c1.6,1,3.4,1.8,5.3,2.6
		c1.2,0.4,2.2,0.5,3.2,0.2c0-0.2,0-0.3,0-0.4c3.4-1.6,6.7-3.3,9.7-5c-0.1-0.1-0.1-0.2-0.2-0.4C86.3,10.993,85.9,9.593,85.6,8.193z
		 M78.9,7.793c-0.1-0.1-0.2-0.2-0.3-0.3c-1.1-1.1-1.3-1.7-0.4-2.1c2.7-0.2,5.4,0.1,8,1C83.6,6.693,81.2,7.193,78.9,7.793z
		 M77.2,7.893c-0.9,0.4-1.6,0.8-2.3,1.3c0,0.6,0,1.2,0.1,1.8c0.1,2,0.4,3.9,0.9,5.7c-2.4-0.3-4.5-1-6.2-2.3c0-0.7,0-1.5,0-2.2
		c0-1.3,0-2.5,0-3.8c-0.2-0.1-0.2-0.2-0.3-0.2c-2.3-0.4-2.4-1-0.2-1.8C72,5.993,74.7,6.493,77.2,7.893z M77.2,16.293
		c-0.2-1.5-0.4-3-0.7-4.5c-0.1-0.3-0.1-0.7-0.1-1.1c2.4-1,5-1.7,7.7-2.2c-0.3,1-0.1,2.2,0.7,3.7C82,13.293,79.5,14.693,77.2,16.293z
		"/>
	<path style="fill:#BE3689;" d="M75.3,34.393c-0.1-0.1-0.2-0.2-0.2-0.3c-1.3-1.3-2.7-2.2-4.4-2.7c-2.8-3.5-6.6-5.1-11.2-5.1
		c-0.2,0-0.5,0.1-0.8,0.2c-0.1,0.1-0.2,0.1-0.2,0.1s0,0,0-0.1c0-0.1,0-0.2,0-0.4l0,0c0,0-0.1,0-0.2,0c-0.1-0.5-0.2-1.1-0.3-1.6
		c0.2,0.1,0.4,0.3,0.5,0.3c0,0,0-0.2,0-0.3v-0.1c-0.5-0.8-0.7-1.5-0.6-2c0-0.1,0-0.1-0.1-0.1c0-0.2-0.1-0.4-0.1-0.5
		c0-0.2,0-0.4,0-0.5s0-0.1,0-0.1c-0.4,0-0.9-0.1-1.4-0.1c0,0.1,0,0.2,0,0.3c-0.7-0.1-1.5-0.2-2.3-0.3c-3.2,0.4-5.8,1.7-7.7,3.7
		c1.1-3.9,3.7-6.3,8-7.3c2.3,1.8,4.7,2.4,7.3,1.9c0-0.7,0.1-1.3,0.1-1.9c0.3-3.3-0.5-6.2-2.7-8.6c-0.3-0.1-0.6-0.3-0.8-0.5
		c-0.7-0.4-1.4-0.7-2.2-0.8c-0.4,0.2-0.9,0.5-1.3,1c-1.5,1.4-2.5,3.1-2.9,5c-5,2.2-8.3,5.6-9.8,10.4c-2.4-5.1-6.3-8.7-11.9-10.9
		c0-0.8,0-1.7-0.2-2.5c-0.3-0.9-0.8-1.7-1.6-2.3c-1-0.1-1.9-0.1-2.8-0.2c-0.8,0.5-1.7,1.2-2.5,2c-1.6,1.7-2.7,3.7-3.1,5.9
		c0.3,0.6,0.5,1.2,0.6,1.9c0,0.1,0.1,0.2,0.1,0.4c0.4,0.3,0.8,0.7,1.2,1.1c0.1,0.1,0.2,0.2,0.3,0.4c0.7,0,1.3,0,1.9,0.1
		c0.8-0.4,1.5-0.7,2.3-1c0.6-0.2,0.9-0.5,1.2-1c0.4,0,0.8-0.2,1-0.4c0.4,0.3,1,0.4,1.6,0.5c3.5,1.6,6.1,4,7.9,7.3
		c-1-1-2-1.8-3.1-2.4c-2.2-1.9-4.7-2.6-7.4-2.3c-0.2,0.8-0.6,1.5-1.2,2.2c0.1-0.2,0.2-0.3,0.3-0.4c-0.5,1.1-0.9,2.3-1,3.6
		c-0.2-0.1-0.4-0.2-0.6-0.3c0,0.2,0,0.5,0.1,0.8c0.1,0,0.3,0,0.4,0c0,0.4-0.1,0.8-0.1,1.3c-0.6-0.1-1.2-0.2-1.9-0.2
		c0,0.1,0,0.2,0,0.2c-3.7,1.2-7.4,1.9-11.1,1.8c-0.2,1.6,0,2.9,0.7,4.2c1.9,3.2,4.5,4.6,8,4.2c0-0.7,0.2-1.4,0.4-1.9
		s0.3-0.9,0.3-1.5c0-0.6,0-1.2,0-1.8c0.1,0,0.2,0,0.3,0c0.1,0.5,0.3,1.1,0.5,1.7c0,0.2,0,0.3,0,0.4c-0.4,0.7-0.7,1.5-1,2.2
		c0.7,0.4,1.5,0.5,2.4,0.5c-0.4,0.2-0.9,0.5-1.4,0.7c0.2,0,0.4,0,0.6,0c-0.4,0.5-0.9,0.9-1.3,1.5l0,0c-0.4,0.5-0.8,1-1.1,1.5
		c-3.4,3.7-5.9,8.2-7.3,13.4c-2.3,9,0.2,15.7,7.6,20.1c2.6,1.5,5.3,2.8,8,3.7c-0.2,0.2-0.3,0.4-0.6,0.5c0,0.3,0,0.5-0.1,0.7
		c-0.3,0.7-0.5,1.4-0.4,2.3c-0.3-0.1-0.6-0.3-0.9-0.5c-0.2-0.1-0.3-0.1-0.2,0.1c0,0,0.1,0.1,0.2,0.3c-3.6-2.4-7.8-3.4-12.6-3.1
		c-1.3,0.4-2.6,0.7-3.9,1.1c-1.2,0.2-2.9,1.3-5,3.3c-2.2,2-3.5,3.4-4,4.1c-0.7,0.8-0.9,1.8-0.5,2.8c0.1,0.3,0.2,0.5,0.3,0.8
		c0.5,0.1,1.1,0.2,1.7,0.2c-1.4,0.3-2.5,1-3.1,2.2c0.1,0.1,0.2,0.2,0.2,0.1c2.6-0.2,4.1-0.9,4.3-2.1c1.1,0.2,2.2,0.3,3.4,0.4
		c-1.4,0.4-2.6,1-3.8,1.9c0.1,0.2,0.1,0.2,0.1,0.2c2.7-0.4,4.6-1,5.7-2c1.2,0.1,2.4,0.1,3.6,0.2c-1.2,0.4-2.4,1-3.5,1.8
		c0.4,0.6,1.1,0.7,1.9,0.3c0,0,0.2-0.1,0.3-0.1c2-0.6,3.5-1.2,4.5-2c1.3,0,2.6,0,3.9,0c-1,0.5-2,1-3,1.6c0.3,0.2,0.6,0.2,0.8,0.2
		c1.9-0.6,3.8-1.3,5.6-2c1.8-0.2,3.5-0.4,5.3-0.6c-1.7,0.8-3.2,1.7-4.8,2.6c0.1,0.1,0.2,0.2,0.3,0.2c0.4,0.2,0.8,0.3,1.2,0.3
		c0.1-0.2,0.3-0.3,0.4-0.3c2.7-1.3,5.5-2.5,8.3-3.7c0.8-0.1,1.7-0.3,2.6-0.5c0-0.2,0-0.4-0.1-0.6c1.9-0.8,3.7-1.6,5.6-2.4
		c-0.2-0.2-0.4-0.3-0.6-0.3l0,0c1.5-0.8,3-1.4,4.4-1.9c0.4-0.1,0.8-0.2,1.1-0.3c-0.3,0.4-0.6,0.9-0.8,1.5c-5.4,1.8-9.8,4.5-13.1,7.8
		c0.2,0.1,0.4,0.1,0.6,0c4.8-2.4,8.9-4.8,12.3-7.4c-0.1,0.5-0.3,1-0.3,1.6c0.6,0.4,1.2,0.8,1.9,1.1c-3.5,1-6.1,2.7-7.9,5.1
		c0.2,0.1,0.3,0.1,0.5,0c2.7-1.7,5.6-3.2,8.7-4.5c0.9,0.3,1.8,0.6,2.8,0.8c-1.9,1-3.6,2.1-5.3,3.3l0.1,0.2c2.4-0.8,4.7-1.9,6.8-3.3
		c1.3,0.5,2.6,0.8,4,1c-0.7,0.3-1.5,0.6-2.4,0.9c0,0.1-0.1,0.1-0.1,0.2c-0.8,0.4-1,0.9-0.7,1.5c0.8,0.2,1.6,0,2.4-0.4
		c1.7-0.8,2.7-1.5,3.1-2.1c0.7,0.1,1.4,0.1,2.1,0c0.7,0.1,1.5,0.2,2.3,0.2c-0.8,0.5-1.6,1.1-2.2,1.7v0.3c2.4-0.3,3.7-1,4-1.9
		c1.5,0,3,0,4.5-0.1c-0.5,0.4-1,0.8-1.2,1.3c0.2,0.1,0.4,0.2,0.7,0.1c1.7-0.3,2.9-0.9,3.8-1.7c1.4-0.2,2.9-0.4,4.4-0.7
		c-1.1,0.6-2,1.5-2.7,2.5c0.7,0.5,1.4,0.4,2.4-0.1c2.3-1.3,3.8-2.4,4.4-3.4c1.1-0.3,2.3-0.8,3.5-1.2c0-0.1-1.5-1.5-4.5-4.4
		c-3-2.8-8.8-4.6-17.3-5.3c-2.5,0.5-5,1.1-7.6,2c-0.8,0.2-1.5,0.6-2,1.1c0,0,0,0-0.1,0c-0.2-1.1-0.7-2.1-1.5-2.8
		c0.9-0.3,1.8-0.5,2.7-0.8c5.9-2,10-6.1,12.2-12.4c3.7-10.8,1.2-19.5-7.7-26c0-0.1,0-0.1-0.1-0.2c1.3-0.3,2.4-0.8,3.1-1.4
		c-0.2-0.3-0.5-0.5-0.6-0.8c-0.1-0.1-0.2-0.2-0.3-0.3c-0.1-0.2-0.1-0.3-0.1-0.4c0.3,0.1,0.5,0.3,0.8,0.5c-0.1-0.1-0.1-0.2-0.2-0.2
		c-0.2-0.4-0.5-0.7-0.7-0.9c-0.1-0.3,0-0.6,0-0.9c0-0.1,0.1-0.2,0.1-0.4c0.9-0.6,1.8-0.7,2.9-0.2c0.3,0.1,0.6,0.2,0.8,0.1
		c-0.3,1.1-0.3,2.2-0.2,3.2c1.6,1.3,3.5,1.6,5.8,0.8c0.7-0.5,1.3-1,1.9-1.6C74.5,36.493,75.1,35.493,75.3,34.393z M55.6,9.493
		c0.6-0.2,1.2-0.2,1.6,0.2c2.2,1.7,3.3,4,3.7,6.8c0,0.5,0,0.9-0.1,1.2c-0.1,0.6-0.5,0.9-1.2,0.8c-2-1-4-1.9-6-2.9
		c-0.3,0.2-0.7,0.3-1.1,0.4c-4.7,1.7-7.4,4.9-8,9.6c0,0-0.1,0-0.1,0.1c-0.2,0.1-0.3,0.1-0.5-0.1c-0.1-0.2-0.1-0.5-0.1-0.7
		c0-0.1,0-0.1,0-0.2c0,0.2-0.1,0.4-0.1,0.7c-0.1-0.1-0.2-0.1-0.2-0.1c-0.1,0.2-0.1,0.4-0.1,0.6c0,0.1,0,0.2,0.1,0.3
		c-0.4-0.2-0.7-0.3-1-0.4c1.6-5.3,5.1-9,10.3-11c0.3-0.4,0.6-0.9,0.7-1.5C53.9,11.893,54.6,10.693,55.6,9.493z M51.3,27.593
		c-0.1-0.1-0.2-0.2-0.3-0.2c-0.7-0.3-1.3-0.5-2-0.6c-0.1,0-0.3,0.1-0.5,0.1c-1.6,0.1-2.8,0.7-3.4,1.9c0,0,0,0-0.1,0
		c0,0-0.1,0-0.2,0.1c-0.1-0.4-0.1-0.8-0.1-1.2c0.1,0,0.1,0,0.1-0.1c-0.1,0-0.1,0-0.1,0c0-0.1,0-0.1,0-0.1c0.3,0,0.5,0,0.8,0
		c0.1,0,0.2-0.1,0.4-0.4c0-0.2,0-0.5,0.1-0.8c3-2,6.5-3.2,10.4-3.3c0.1,0.8,0.2,1.5,0.3,2.3c0.2,3-0.4,5.7-1.8,8.2
		c-0.4,0.3-0.8,0.5-1.1,0.8c-0.2,0.1-0.3,0.2-0.4,0.4c-0.8,0.1-1.6,0.3-2.4,0.7c-0.3-0.1-0.6-0.2-0.9-0.4c-2.1-0.9-3.9-2.3-5.3-4.1
		c-0.1,0-0.1,0-0.1,0c0-0.5,0-0.9,0-1.4c0.8,0.2,1.6,0.3,2.3,0.4c0.6,0.5,1.2,1,1.8,1.4c0.8,0.5,1.5,0.5,2.1-0.2
		c0.1-0.6-0.3-1-1.2-1.1c-0.8-0.1-1.4-0.5-1.9-1.1c-0.5,0-0.9,0-1.3-0.1C48.1,28.193,49.7,27.793,51.3,27.593z M45.1,33.093v-0.1
		c1.5,2.3,3.9,3.8,7.3,4.4c0.1-0.1,0.2-0.2,0.3-0.2c0.2-0.2,0.4-0.3,0.5-0.4c0.6,0.4,1.1,0.7,1.6,1.1c-0.3-0.1-0.5-0.1-0.8-0.1
		c3,1.7,6,4,8.9,6.9c4.3,4.3,6.1,9.2,5.3,14.8c-0.7,5.5-3.8,10.5-9.1,14.9c-5.3,4.5-12.8,6-22.5,4.4c-9.7-1.6-17-5.5-21.9-12
		c-0.6-1.7-0.8-3.5-0.7-5.4c0.8-9.8,4.6-17.4,11.4-22.9h0.1c0,0,0,0-0.1,0c0.1-0.1,0.1-0.1,0.2-0.1c0-0.1,0-0.1,0-0.1
		c1.3-0.7,2.5-1.3,3.8-1.9c1,0.9,2.2,1.4,4,1.5c0.1-0.1,0.2-0.1,0.3-0.2c3-0.9,4.9-2.4,5.7-4.3c2-0.4,4-0.5,5.9-0.1
		C45.2,33.293,45.2,33.193,45.1,33.093z M39.4,25.393h-0.1c-0.2,0-0.4-0.1-0.6-0.1c-1-5-4.3-7.8-9.9-8.4c0.1-0.3,0-0.6,0-1
		c-0.4-0.1-0.6-0.1-0.7,0c-0.8,0.4-1.2,0.9-1.5,1.4c-0.3,0-0.6,0-1,0c-0.6,0.3-1.1,0.6-1.7,0.9c-0.2,0.2-0.5,0.3-0.8,0.3
		c-0.5-0.4-0.9-0.9-1.4-1.4c0-0.1-0.1-0.2-0.1-0.3c0-0.7,0.1-1.3,0.3-1.8c0.5-1.9,1.6-3.6,3.2-5c0.8-0.1,1.6-0.2,2.4-0.2
		c0.1,0,0.2,0.1,0.4,0.2c0.7,0.9,1.1,1.9,1,3c0,0.5,0,1,0,1.5c1.2,0.6,2.4,1.2,3.5,1.8c4.2,2.1,7.1,5,9,8.8c-0.3,0-0.6-0.1-1-0.1
		c0.2,0.2,0.4,0.4,0.6,0.6C40.4,25.593,39.9,25.493,39.4,25.393z M39.3,27.993c0-0.1,0-0.2,0-0.4c0.3-1,1.1-1.1,2.4-0.3
		c0.5,0.3,1,0.6,1.6,0.8c0,0.4,0,0.8,0,1.2c0.1,0.5,0,1-0.3,1.5c-0.1,0.1-0.2,0.2-0.2,0.3v0.1c-1-0.1-1.9-0.2-2.9-0.2
		c-0.1,0-0.4-0.1-0.6-0.2v-0.2c0-0.3,0-0.7,0-1.1C39.3,28.993,39.3,28.493,39.3,27.993z M36.2,28.693c-0.3-0.1-0.7,0-1.2,0.1
		c-0.7,0.3-1.4,0.8-2.1,1.3c-0.1,0.2-0.2,0.3-0.3,0.5l0.1,0.2c1.7-0.7,3.4-1,4.9-0.8c0.1,0.4,0.1,0.8,0.2,1.1c-0.1,0-0.2,0-0.3,0
		c-0.1,0.1-0.2,0.1-0.2,0.2c0.2,0,0.4,0.1,0.6,0.2c0.1,0.4,0.2,0.8,0.2,1.1c0,0.2,0,0.3,0,0.4c-1.7,1.4-3.7,2.3-5.8,2.9
		c-1-0.5-1.9-1.1-2.7-1.9c-0.1,0-0.2,0-0.3,0c-0.1-0.1-0.2-0.1-0.3-0.2c-0.1,0-0.2-0.1-0.4-0.3c-1.1-1.9-1.6-4-1.5-6.4
		c0-1.4,0.4-2.8,0.9-4.1c0.1-0.1,0.1-0.2,0.1-0.2c0.8-0.1,1.5-0.2,2.3-0.3c1.4,0.7,2.7,1.5,4,2.5c1.3,1,2.5,1.6,3.5,1.6
		c-0.2,0.5-0.3,1.2-0.4,1.8c-1.7-1.5-3.9-2-6.5-1.6l-0.4,0.1C32.5,27.493,34.3,28.093,36.2,28.693z M67.9,33.593
		c-0.3-0.1-0.5-0.1-0.7,0c-2.2-2.6-5.1-4-8.7-4.3c-0.1,0.1-0.3,0.2-0.5,0.3c0.2-0.7,0.3-1.3,0.3-2c1.2-0.3,2.5-0.3,3.9,0.3
		c2.7,1.1,5.1,2.2,7.2,3.4c0.2,1.5,1.6,2.7,4,3.3c-0.2,0.3-0.3,0.6-0.5,0.8c-0.5,0.8-1.1,1.4-1.9,1.9c-1.3,0.6-2.5,0.5-3.4-0.3
		c0-0.1,0-0.2,0-0.4c-0.1-0.5,0.1-1,0.2-1.5c0.1-0.2,0.1-0.3,0.1-0.4c0.1,0,0.1,0,0.1,0.1c0-0.1,0-0.2,0-0.3
		C68,34.293,67.9,33.893,67.9,33.593z M57.7,31.093c0.3-0.1,0.7-0.3,1.1-0.5c0.7,0.2,1.4,0.3,2.1,0.7c2,0.9,3.9,1.7,5.5,2.6
		c-1.1-0.3-2.2-0.5-3.4-0.6c-0.2,0.1-0.6,0.3-1,0.5c-0.1,0-0.2,0-0.4,0.1c-0.1,0.1-0.1,0.2-0.1,0.3c0,0.3-0.1,0.6-0.1,1
		c-1.4-1.2-2.9-2.1-4.5-2.6c0.1-0.1,0.1-0.3,0.1-0.5c0.2-0.2,0.4-0.4,0.5-0.7c0,0,0,0,0.1-0.1C57.7,31.293,57.7,31.093,57.7,31.093z
		 M55.5,35.093c0.5-0.5,0.9-1,1.2-1.6c0.1,0,0.2,0.1,0.2,0.1c0-0.1,0-0.2,0-0.3c1.5,0.8,2.9,1.8,4.4,2.7c-0.1,0.2-0.1,0.3-0.1,0.4
		s0,0.2,0.2,0.4c0.4,1.1-0.3,1.6-2.2,1.5c0,0-0.1,0-0.2,0.2c0-0.1,0-0.1-0.1-0.2l-0.2-0.2c-1.2-1.1-2.3-2-3.5-2.8
		C55.3,35.293,55.4,35.193,55.5,35.093z M13.6,30.993c0-0.1,0-0.2,0.1-0.2c0.7-0.1,1.4-0.2,2.2-0.3c0.4,0.3,0.8,0.5,1.3,0.6
		c0.3,0.2,0.7,0.2,1.1,0.2c0.2-0.3,0.5-0.5,0.9-0.5c2.6-0.5,4.7-1.4,6.2-2.3c0,0.1,0,0.3,0.1,0.4c-0.1,0-0.2-0.1-0.2-0.1
		c-0.1,0-0.1,0-0.2,0c0,0.5,0,1-0.1,1.5c0.1,0.1,0.1,0.2,0.1,0.3c-1.5-0.4-3.1-0.2-4.7,0.8c-0.2,0.6-0.2,1.2-0.1,1.9
		c0,0.6-0.1,1.2-0.3,1.8c-0.3,0.5-0.4,1.1-0.4,1.8c-1.6-0.4-3-1.2-4.2-2.4C14.5,33.493,13.9,32.293,13.6,30.993z M27.1,33.793
		c0.4,0.3,0.8,0.6,1.2,0.9c-0.7,0.3-1.3,0.7-2,1.2c-0.3,0.2-0.7,0.4-0.9,0.6c-0.3-0.2-0.6-0.4-1-0.5
		C25.6,35.193,26.5,34.393,27.1,33.793z M27,33.593c-0.1,0-0.2,0.2-0.4,0.2c-1.2,0.5-2.2,1.2-3.1,2.2c-0.1,0.1-0.3,0.1-0.5,0.1
		c0.1-0.1,0.2-0.2,0.2-0.4c0.2-0.8,0.2-1.7,0.1-2.6c-0.2-0.1-0.3-0.2-0.4-0.3c-0.1,0-0.1,0-0.1-0.1c1.2,0,2.3-0.2,3.3-0.6
		C26.3,32.593,26.6,33.093,27,33.593z M2.1,88.993c0.3-0.8,0.7-1.5,1.4-2.1c7.4-7.5,15.7-8.7,25-3.6c0.8,0.7,1.7,1.1,2.8,1.5
		c0-0.2-0.1-0.3-0.2-0.3c-0.5-0.6-1-1.2-1.7-1.6c0.1-0.2,0.1-0.3,0.1-0.5c0-0.1-0.1-0.2,0-0.4c0.3-1.3,0.5-2.4,0.3-3.2
		c1.2,0.3,2.4,0.7,3.6,1c-0.6,2.4-0.4,4.5,0.6,6.2c-0.2,0-0.3,0.1-0.5,0.1c0,0.5,0.2,0.8,0.5,1.2c0.4,0.3,0.7,0.7,1.1,1.1
		c0,0.1,0,0.1,0,0.1c-0.3,0.1-0.7,0.3-1,0.5c-2.1,0.2-4.2,0.5-6.3,0.6c-0.3-0.1-0.5-0.1-0.8-0.2c0,0.1,0,0.1,0,0.1
		c-0.4,0.1-0.6,0.2-1,0.3c-7,0.6-14.2,0.8-21.4,0.7C3.4,90.493,2.6,89.993,2.1,88.993z M47.1,83.293c0,0,0,0-0.1,0
		c-0.4,0.2-0.8,0.5-1.3,0.6c-0.1,0-0.1,0-0.2,0c0,0,0,0-0.1,0.1c-0.8,0.2-1.8,0.3-2.9,0.2c-3-0.1-5.7-0.2-8.1-0.3
		c-0.3-1.3-0.4-2.7-0.4-4c4.4,1,8.9,1.1,13.5,0.5c0.1,0.6,0.3,1.3,0.6,2.2C47.7,82.693,47.4,82.893,47.1,83.293z M52.2,84.393
		c0.7-0.1,1.2-0.2,1.7-0.3c0,0.1,0,0.2,0,0.3c11.3-5.9,21.2-4.6,29.9,3.6c-8.7,2.1-17.6,2.8-26.5,2c-3.7-0.7-6.7-1.8-9.2-3.1
		c0-0.1,0.1-0.2,0.1-0.3c1.8-2.4,1.9-4.5,0.3-6.4c1.3-0.2,2.7-0.5,4-0.8c0.2,1.3,0.7,2.3,1.5,3c-0.8,0.4-1.5,1-2,1.9
		C52.1,84.393,52.2,84.493,52.2,84.393z M34.5,84.493c0,0,0,0,0-0.1c0.6,0.2,1.3,0.4,2,0.5c-0.5,0.3-0.9,0.6-1.3,1
		c-0.2-0.4-0.4-0.7-0.7-1C34.5,84.793,34.5,84.693,34.5,84.493z M42.2,85.293c-0.7,0.3-1.2,0.7-1.8,1.1c-0.4,0.2-0.9,0.4-1.4,0.5
		c-0.8,0.3-1.6,0.6-2.3,1c-0.3-0.5-0.6-0.8-0.9-1.1c-0.1-0.1-0.1-0.2-0.1-0.2c0.9-0.3,1.8-0.8,2.6-1.4
		C39.6,85.393,40.9,85.393,42.2,85.293z"/>
	<path style="fill:#BE3689;" d="M44,39.993c-0.2,0.2-0.6,0.3-1,0.5c-0.8,0.4-1.3,1-1.7,1.9c0,0-0.1,0.1-0.2,0.1
		c-2.1-1.9-4.3-2.6-6.5-2.1c-0.4-0.3-1.1-0.5-2-0.6c0-0.2,0-0.3,0-0.4c0.2-0.7,0.1-1.2-0.3-1.5c-0.4-0.1-0.7,0-0.7,0.3
		c-0.2,0.9-0.1,1.8,0.3,2.6c0.2,0.1,0.4,0.3,0.6,0.4c-0.3,0.2-0.6,0.4-1,0.7c-0.6-0.3-1.4-0.5-2-0.9c0-0.1,0-0.2,0-0.4
		c0.1-0.4-0.1-0.7-0.4-1.1c-0.1,0.1-0.2,0.1-0.3,0.2c-0.4,0.8-0.4,1.5,0.1,2.2c0.4,0.4,0.9,0.8,1.4,0.9c-0.2,0.1-0.2,0.2-0.4,0.4
		c-1,0-1.9-0.5-2.6-1.3c-0.5-0.2-0.7,0-0.7,0.4c0,0.9,0.5,1.5,1.5,1.8c0.3,0.1,0.5,0.1,0.7,0.2c-4.5,4.7-4.4,9.6,0.3,14.5
		c4.8,1.4,8.9,0.5,12.5-2.4c2.6,2.2,5.6,2.7,9.1,1.4c5.4-2,7.2-5.7,5.4-10.9c-0.1-0.1-0.2-0.3-0.3-0.4c-0.8-1.5-1.8-2.8-3-3.7
		c0.2-0.1,0.4-0.2,0.6-0.3c0.1-0.1,0.2-0.2,0.4-0.4c0.9-0.8,1-1.7,0.3-2.6l0,0c-0.7,1.1-1.6,1.8-2.7,2.2c-0.4-0.2-0.8-0.4-1.1-0.6
		c0.4-0.4,0.8-0.9,1.2-1.3c0-0.2,0-0.3,0-0.4c0.1-0.7,0-1.3-0.4-1.9h-0.2c-0.2,1.8-1.1,2.8-2.4,3c-0.1,0-0.1,0-0.1,0
		c0-0.1,0-0.2,0.1-0.2c0.5-1.2,0.6-2.3,0.3-3.4c-0.9,0.5-1.4,1.6-1.8,3.2c0,0,0,0,0,0.1C46,39.993,45.1,39.993,44,39.993z
		 M42.9,43.693c0.2-0.6,0.4-1.1,0.7-1.6c4.9-0.6,8.5,1.2,10.9,5.7c0.2,0.6,0.3,1.3,0.4,1.9c0.5,3-0.7,5.2-3.6,6.7
		c-3.7,1.2-6.8,0.5-9.4-2c-0.3,0-0.5,0-0.7-0.1c-6.7,5.5-11.6,4.8-14.6-2.2c0-0.1,0-0.2,0-0.3c0.8-4.8,3.6-8.2,8.4-10.2
		c0.6,0,1.2,0,1.9-0.1c0.2,0.2,0.4,0.3,0.6,0.4c1.6,1.2,3.1,2.3,4.3,3.1c0.3-0.1,0.5-0.3,0.7-0.4
		C42.7,44.293,42.8,43.993,42.9,43.693z"/>
	<path style="fill:#BE3689;" d="M41.1,45.593c-0.1-0.1-0.2-0.2-0.4-0.2c-0.4-0.1-0.8-0.2-1.2-0.3v0.1c-0.4,0.1-0.8,0.4-0.9,0.9
		c-0.2,0.7-0.2,1.4-0.1,2.2c1.2,0.8,2.2,0.7,3.1-0.4c0-0.4,0-0.8,0.1-1.1C41.7,46.293,41.5,45.893,41.1,45.593z"/>
	<path style="fill:#BE3689;" d="M47.5,44.593c-0.5,0.2-0.8,0.7-0.8,1.4c0,0.8,0.2,1.4,0.6,1.9c0.1,0.1,0.2,0.2,0.4,0.3
		c0.9,0.4,1.6,0.3,2.1-0.4c0.4-0.4,0.5-0.9,0.5-1.5c-0.1-0.5-0.2-0.8-0.5-1.2c-0.2-0.1-0.4-0.2-0.6-0.2
		C48.7,44.793,48.1,44.693,47.5,44.593z"/>
	<path style="fill:#BE3689;" d="M58.3,65.693c-0.1-0.2-0.3-0.3-0.3-0.4c-1.6-1-3.4-1.4-5.5-1c-2.6,0.4-5.3,1.2-7.9,2.3
		c-2.9,1.2-5.9,2.4-9,3.5c1,1,2.1,1,3.5,0.3C45.4,66.793,51.8,65.293,58.3,65.693z"/>
	<path style="fill:#BE3689;" d="M42.6,69.593c0.1,0.2,0.1,0.2,0.2,0.3c4.1,0.9,6.3-0.1,6.5-3c-0.3,0-0.4,0-0.4,0.1
		c-0.2,0.5-0.5,0.8-0.9,1C46.3,68.893,44.5,69.393,42.6,69.593z"/>
	<path style="fill:#BE3689;" d="M25.7,33.093c0.1,0.2,0.1,0.3,0.1,0.5c0.3-0.1,0.6-0.2,1-0.2c-0.1-0.1-0.2-0.1-0.2-0.2
		C26.3,33.093,26,33.093,25.7,33.093z"/>
	<path style="fill:#BE3689;" d="M83.3,49.893c-0.1,0-0.2,0-0.3,0c-0.5,0-0.6,0.3-0.5,1c-1,0.6-2.1,0.8-3.4,0.5
		c0,0.1-0.1,0.2-0.1,0.3c-0.3,0.4-0.5,0.9-0.5,1.4c-0.9-0.5-1.9-0.7-2.9-0.5c0,0.2,0,0.3,0.1,0.4c0.1,0.7-0.1,1.1-0.7,1.3
		c-0.8-1-1.6-1.1-2.2-0.4c0,0.1,0,0.2-0.1,0.4c-0.1,0.4-0.2,0.9-0.4,1.2c0.4,0.6,0.8,0.3,1-0.7l0.1-0.3c1,0.9,2,0.9,2.9-0.1
		c0-0.1,0-0.2,0.1-0.2c1,0,2-0.5,3-1.3c0.6-0.8,1.6-0.9,2.7-0.4c0.2-0.1,0.4-0.2,0.5-0.3C83.5,51.493,83.7,50.793,83.3,49.893z"/>
	<path style="fill:#BE3689;" d="M80.4,61.993c0.3,1,1.1,1.4,2.1,1.3c0.1-0.1,0.3-0.3,0.4-0.3c0.4-0.2,0.7-0.3,1.1-0.5
		c0.2,0.2,0.3,0.3,0.5,0.4c0.2,0.3,0.5,0.5,0.8,0.8c1-0.2,2-0.3,3-0.4c-1.8-0.9-3.5-1.5-5.3-2c-0.2,0.2-0.5,0.4-0.8,0.5
		c-0.1,0-0.3,0.1-0.4,0.1c-0.6-1-1.5-1.5-2.5-1.5c-0.2,0.1-0.3,0.3-0.4,0.4c-1.2,1.1-2,1-2.5-0.1c-0.2-0.2-0.3-0.3-0.4-0.3
		c-0.5-0.2-1-0.4-1.5-0.5c-0.1,0.1-0.3,0.2-0.5,0.3c-1,0.5-1.6,1-1.7,1.8c0.2,0.1,0.4,0,0.6-0.1c0.6-0.4,1.4-0.7,2.1-1.1
		c0.2,0.2,0.3,0.5,0.4,0.8c0.1,0.4,0.4,0.8,0.9,1.1c0.6,0,1.3,0,2,0c0.1-0.2,0.2-0.3,0.3-0.4C79.2,61.693,79.8,61.593,80.4,61.993z"
		/>
	<path style="fill:#BE3689;" d="M76.1,68.793c-0.1-0.2-0.2-0.2-0.3-0.2c-1.3,0.3-2.1,0.3-2.4-0.1c0-0.1,0-0.2,0-0.4
		c0.2-0.9-0.3-1.4-1.4-1.2c-0.1,0.1-0.3,0.2-0.4,0.3c-0.3,0.2-0.6,0.3-0.8,0.4v0.2c1.2-0.2,1.8,0.1,1.8,0.8c0,0.2,0.1,0.3,0.1,0.3
		c0.8,0.9,1.8,1.4,2.8,1.6c0.1,1.3,0.9,1.9,2.4,1.9c0.6,1.5,1.7,2,3.2,1.5c-0.8-0.8-1.5-1.7-2.1-2.6c-0.6-0.8-1.4-1-2.5-0.8
		c0-0.3,0-0.6-0.1-1C76.4,69.293,76.3,68.993,76.1,68.793z"/>
	<path style="fill:#BE3689;" d="M72.8,22.893c-0.5-0.1-0.9-0.1-1.3-0.1c-0.3-0.1-0.6-0.2-1-0.2c-0.3,0.2-0.6,0.4-1,0.7
		c-0.4,0.2-0.6,0.6-0.6,1.1c0,0.4,0,0.8,0,1.1c0.1,0.3,0.1,0.4,0.1,0.6c0.9,0.6,1.7,1.3,2.4,2.2c0.2,0,0.4,0,0.6,0
		c0.7-0.2,1.2-0.5,1.5-0.8c0.1-0.1,0.1-0.1,0.1-0.1c0.1-0.1,0.2-0.3,0.2-0.5c0.1-0.1,0.1-0.3,0.2-0.4c0-0.2,0-0.4,0.1-0.6
		c0.1-0.6,0.1-1.3-0.1-1.9c-0.1-0.1-0.3-0.2-0.5-0.4C73.3,23.393,73,23.093,72.8,22.893z M70.5,26.093c0-0.5,0-0.8-0.1-1.3
		c0.1-0.3,0.3-0.5,0.6-0.8c0.2,0,0.3,0,0.5,0c0.7,0.3,1.2,0.9,1.3,2c-0.1,0.1-0.2,0.3-0.3,0.3c-0.5,0.2-0.9,0.3-1.2,0.2
		C71,26.493,70.8,26.293,70.5,26.093z"/>
	<path style="fill:#BE3689;" d="M49.2,21.993c-0.3,0.3-0.6,0.5-0.9,0.8c1.3-0.7,2.6-1.2,3.8-1.5
		C51.1,21.393,50.1,21.693,49.2,21.993z"/>
</g>
</svg>
