<?xml version="1.0" encoding="iso-8859-1"?>
<!-- Generator: Adobe Illustrator 12.0.1, SVG Export Plug-In . SVG Version: 6.00 Build 51448)  -->
<!DOCTYPE svg PUBLIC "-//W3C//DTD SVG 1.1//EN" "http://www.w3.org/Graphics/SVG/1.1/DTD/svg11.dtd" [
	<!ENTITY ns_svg "http://www.w3.org/2000/svg">
	<!ENTITY ns_xlink "http://www.w3.org/1999/xlink">
]>
<svg  version="1.1" id="Layer_1" xmlns="&ns_svg;" xmlns:xlink="&ns_xlink;" width="86.3" height="93.617"
	 viewBox="0 0 86.3 93.617" style="overflow:visible;enable-background:new 0 0 86.3 93.617;" xml:space="preserve">
<g>
	<path style="fill:#BE3689;" d="M81.4,36.077c-1.8-1.3-3.7-2.3-6-2.7c-0.2-0.5-0.6-0.8-0.9-1.2h-0.3c-0.3-0.4-0.7-0.6-1.1-0.9
		c-0.4-0.2-0.6-0.2-0.7-0.2c-1.7-2-4.3-3.2-7.7-3.5c-0.4,0.2-0.9,0.3-1.5,0.2c-0.3,0-0.5,0-0.8,0c0.1-1.5-0.1-3-0.5-4.6
		c-0.2-0.1-0.3-0.1-0.4-0.2c-0.9-0.3-1.8-0.5-2.6-0.7c-4.3,0-7.7,1.5-10.1,4.6v-0.1l0,0c0-0.5,0.3-0.7,0.7-1c0-0.4,0.1-0.8,0.1-1.2
		c0.1-0.5,0.2-1,0.2-1.5c0.2-0.2,0.4-0.4,0.6-0.6c1.3-2.2,3.1-4,5.4-5.4c0.2,0,0.4,0,0.5,0c2.2,1.6,4.7,2.2,7.7,1.9
		c0.2-0.3,0.3-0.5,0.5-0.7c1.2-3.8,0.5-7.2-2-10.1c-0.5-0.1-0.8-0.2-1.2-0.3c0,0.1,0,0.1-0.1,0.1c-2.2,1-3.7,2.3-4.7,3.9
		c-0.4-0.1-0.5,0-0.5,0.2c0,0.3,0,0.5,0,0.7c0,0,0,0.1-0.1,0.2c-0.2-0.1-0.5-0.2-0.8-0.3c-1.6,0.7-3.2,1.7-4.7,3
		c-2.2,1.8-3.6,3.7-4.2,5.7c-0.3-3.2-1.5-6.2-3.7-8.9c0.3-0.7,0.4-1.5,0.4-2.2c0.2-1.7-0.3-3.1-1.2-4.4c-0.8-0.1-1.5-0.2-2.3-0.4
		c-0.2,0.1-0.4,0.1-0.8,0.2c-5,1.1-7,4-6.2,9c1.9,1.1,3.9,1.4,6,0.8c0.4,0.5,0.8,1,1.3,1.4c0-0.1,0-0.3-0.1-0.4c0,0,0,0,0-0.1
		c2,2.4,3.2,5.2,3.5,8.2H43c-0.1,0.1-0.1,0.1-0.2,0.2c-2.4-3.5-5.8-5.4-10.2-6c-1.2,1.2-2,2.8-2.6,4.6c-1.7-1.7-4.2-1.8-7.4-0.6
		c-0.2-0.1-0.4-0.1-0.6-0.2c-0.1,0.1-0.2,0.1-0.3,0.2c-0.2,0-0.4,0-0.6,0c0-0.1,0-0.1-0.1-0.1c-1.3-1-2.7-1.6-4.3-1.9
		c-0.6,0.1-1,0.5-1,1.4c-0.2,1.5-0.1,3,0,4.4c0.2,1.7,0.7,3.3,1.6,4.8c0.3,0.2,0.5,0.4,0.7,0.6c1.4,1.3,3,1.6,4.7,0.7
		c0.1-0.3,0.1-0.5,0.2-0.8c0.1-0.7,0.3-1.3,0.7-2c0-0.1,0-0.1,0.1-0.2c0.1,0.1,0.2,0.2,0.4,0.4c-0.1,0.3-0.1,0.7-0.2,1.1
		c0,0.4-0.1,0.7-0.1,1c-0.1,0.1-0.1,0.1-0.1,0.1c-0.1,0.1-0.3,0.3-0.5,0.3c-1,0.7-1.5,1.5-1.5,2.4c1.6,0,3,0.1,4.4,0.3
		c-0.6,0.4-1,0.8-1.5,1.3l0,0c-0.5,0.4-0.9,0.9-1.3,1.4c-3.9,3.2-6.9,7.3-9,12.3c-3.5,8.6-1.9,15.5,4.9,20.9
		c1.9,1.4,3.8,2.7,5.7,3.8c0.6,0.3,1.2,0.6,1.7,0.9c0,0,0,0.1-0.1,0.1c0.3,0.1,0.5,0.2,0.8,0.3v-0.1c0.1,0.1,0.2,0.1,0.3,0.2
		c0.5,0.1,1,0.3,1.5,0.4c-0.7,1.5-1.1,2.9-1.3,4.4c-0.2-0.2-0.4-0.3-0.7-0.4c-0.2-0.1-0.3-0.1-0.2,0.1c0,0,0.1,0.1,0.2,0.3
		c-3.6-2.4-7.8-3.4-12.6-3.1c-1.3,0.4-2.6,0.7-3.9,1.1c-1.2,0.2-2.9,1.3-5,3.3c-2.2,2-3.5,3.4-4,4.1c-0.7,0.8-0.9,1.8-0.5,2.8
		c0.1,0.3,0.2,0.5,0.3,0.8c0.5,0.1,1.1,0.2,1.7,0.2c-1.4,0.3-2.5,1-3.1,2.2c0.1,0.1,0.2,0.2,0.2,0.1c2.6-0.2,4.1-0.9,4.3-2.1
		c1.1,0.2,2.2,0.3,3.4,0.4c-1.4,0.4-2.6,1-3.8,1.9c0.1,0.2,0.1,0.2,0.1,0.2c2.7-0.4,4.6-1,5.7-2c1.2,0.1,2.4,0.1,3.6,0.2
		c-1.2,0.4-2.4,1-3.5,1.8c0.4,0.6,1.1,0.7,1.9,0.3c0,0,0.2-0.1,0.3-0.1c2-0.6,3.5-1.2,4.5-2c1.3,0,2.6,0,3.9,0c-1,0.5-2,1-3,1.6
		c0.3,0.2,0.6,0.2,0.8,0.2c1.9-0.6,3.8-1.3,5.6-2c1.8-0.2,3.5-0.4,5.3-0.6c-1.7,0.8-3.2,1.7-4.8,2.6c0.1,0.1,0.2,0.2,0.3,0.2
		c0.4,0.2,0.8,0.3,1.2,0.3c0.1-0.2,0.3-0.3,0.4-0.3c2.7-1.3,5.5-2.5,8.3-3.7c0.8-0.1,1.7-0.3,2.6-0.5c0-0.2,0-0.4-0.1-0.6
		c1.9-0.8,3.7-1.6,5.6-2.4c-0.2-0.2-0.4-0.3-0.6-0.3l0,0c1.5-0.8,3-1.4,4.4-1.9c0.4-0.1,0.8-0.2,1.1-0.3c-0.3,0.4-0.6,0.9-0.8,1.5
		c-5.4,1.8-9.8,4.5-13.1,7.8c0.2,0.1,0.4,0.1,0.6,0c4.8-2.4,8.9-4.8,12.3-7.4c-0.1,0.5-0.3,1-0.3,1.6c0.6,0.4,1.2,0.8,1.9,1.1
		c-3.5,1-6.1,2.7-7.9,5.1c0.2,0.1,0.3,0.1,0.5,0c2.7-1.7,5.6-3.2,8.7-4.5c0.9,0.3,1.8,0.6,2.8,0.8c-1.9,1-3.6,2.1-5.3,3.3l0.1,0.2
		c2.4-0.8,4.7-1.9,6.8-3.3c1.3,0.5,2.6,0.8,4,1c-0.7,0.3-1.5,0.6-2.4,0.9c0,0.1-0.1,0.1-0.1,0.2c-0.8,0.4-1,0.9-0.7,1.5
		c0.8,0.2,1.6,0,2.4-0.4c1.7-0.8,2.7-1.5,3.1-2.1c0.7,0.1,1.4,0.1,2.1,0c0.7,0.1,1.5,0.2,2.3,0.2c-0.8,0.5-1.6,1.1-2.2,1.7v0.3
		c2.4-0.3,3.7-1,4-1.9c1.5,0,3,0,4.5-0.1c-0.5,0.4-1,0.8-1.2,1.3c0.2,0.1,0.4,0.2,0.7,0.1c1.7-0.3,2.9-0.9,3.8-1.7
		c1.4-0.2,2.9-0.4,4.4-0.7c-1.1,0.6-2,1.5-2.7,2.5c0.7,0.5,1.4,0.4,2.4-0.1c2.3-1.3,3.8-2.4,4.4-3.4c1.1-0.3,2.3-0.8,3.5-1.2
		c0-0.1-1.5-1.5-4.5-4.4c-3-2.8-8.8-4.6-17.3-5.3c-2.5,0.5-5,1.1-7.6,2c-0.8,0.2-1.5,0.6-2,1.1c0,0,0,0-0.1,0
		c-0.2-0.8-0.5-1.5-0.9-2.1c5.8-1.3,10.1-4.8,13.1-10.6c5.1-10.2,3.8-19.1-4.1-26.7c-0.2-0.3-0.4-0.6-0.6-0.9
		c1.4-0.8,2.9-0.5,4.5,0.9c0.5,0.6,1.1,0.5,1.6,0c-0.2-0.9-0.5-1.7-1.1-2.5c-0.2-0.4-0.3-0.7-0.4-1.1c0-0.4,0-0.8,0.2-1.1
		c0.1-0.2,0.2-0.2,0.3-0.2c1.1-0.2,2.1-0.4,3.1-0.5c0.2,0.1,0.3,0.3,0.4,0.5c0,0.4-0.1,0.8-0.1,1.2c-0.1,0.2-0.1,0.4-0.2,0.7
		c-0.2,0.7-0.1,1.3,0.2,1.9C76.5,42.977,80,41.376,81.4,36.077z M74.6,34.677c0.3,0.6,0.9,1,1.7,1.2c0-0.2,0-0.3-0.1-0.4
		c0-0.1,0-0.3,0-0.4c1.4,0.4,2.5,1.2,3.4,2.2c-0.1,0.1-0.2,0.2-0.3,0.4c-0.2,0.2-0.4,0.4-0.5,0.6c-0.7,0.5-1.4,1.1-2.1,1.7
		c-1.7,0.4-3.3,0.3-4.9-0.3c0-0.3,0.1-0.5,0.1-0.8c0-0.2,0.1-0.5,0.1-0.7c0.1-0.4,0.1-0.7,0.2-1.1c0.1,0.4,0.7,0.8,2,1
		c-0.1-0.1-0.2-0.3-0.2-0.4c-0.3-0.6-0.6-1.1-1-1.7c-0.2,0-0.2,0.1-0.3,0.1c-0.2,0.2-0.4,0.4-0.5,0.6c0-0.2,0-0.3,0.1-0.4
		c-2.8-3.8-6.3-5.4-10.6-4.7c0.2-0.9,0.5-1.7,0.6-2.5c4.1,0,7.6,1.3,10.7,4.1c0.1,0.4,0.3,0.9,0.5,1.4
		C73.8,34.577,74.2,34.677,74.6,34.677z M60.5,15.977c0-0.1-0.1-0.2-0.2-0.3c-0.4-0.3-0.9-0.5-1.4-0.8c-0.4,0.1-0.7,0.2-1.1,0.3
		c-0.7,0-1.3,0.1-1.7,0.4c-0.1,0-0.1,0-0.2,0.1c-0.2,0.1-0.4,0.2-0.5,0.3c-0.2-0.1-0.3-0.1-0.4-0.1c0.1,0.1,0.2,0.1,0.2,0.2
		c-3.9,2.1-6.4,5.3-7.5,9.5c0,0.1,0,0.2,0,0.3c-0.4-0.3-0.8-0.5-1.3-0.7c0.3-0.5,0.5-1.1,0.7-1.7c1.5-4.3,4.2-7.2,8-8.7
		c0.3,0,0.6,0,0.8,0c0.3,0,0.6,0,0.8-0.2c2-0.3,2.8-1.1,2.5-2.2c-0.3,0.2-0.7,0.3-1,0.2h-0.1c0.9-1.1,2-2,3.3-2.8
		c0.5,0.3,0.8,0.7,1.1,1.2c1,1.9,1.3,3.9,0.9,6.1c-1.5-0.2-2.9-0.4-4.1-0.6C59.7,16.376,60.1,16.177,60.5,15.977z M40.2,10.977
		c0,0.1,0,0.1,0,0.2c0,0.7,0.3,1.4,0.8,2.3c0.2,0.4,0.3,0.8,0.6,1.2c2.2,3.3,3.4,6.6,3.7,10.2c-0.5-0.2-1-0.2-1.6-0.3
		c0.4-4.3-1.3-7.7-5.2-10.2v-0.1c0-0.1-0.1-0.1-0.2-0.2c0,0-0.1,0-0.1-0.1c-0.6-0.6-1.4-1-2.2-1.4l-0.2,0.1c0.3,0.3,0.6,0.6,0.9,1
		c-0.2,0.1-0.3,0.3-0.2,0.4c0,0.1,0,0.2,0.1,0.2c-0.9-0.3-1.9-0.6-2.9-0.9c0.4-4.4,2.8-6.3,7.2-5.7c0.3,0.8,0.4,1.6,0.6,2.4
		c0,0.2,0.1,0.5,0.1,0.8c-0.1,0.3-0.3,0.6-0.5,1C40.9,11.577,40.6,11.277,40.2,10.977z M37.6,14.677L37.6,14.677c0,0,0,0,0.1,0.1
		C37.6,14.677,37.6,14.677,37.6,14.677z M53.2,27.277c-0.2,0-0.4,0-0.5,0c-1.7-0.1-2.9,0.3-3.6,1.4c-0.1,0-0.1,0-0.1,0
		c-0.1,0-0.2,0-0.3,0.1c0-0.4,0.1-0.8,0.1-1.2c0,0,0,0,0.1,0c-0.1-0.1-0.1-0.1-0.1-0.1c0-0.1,0-0.2,0-0.3c3.7-2.3,7.7-3.1,12.2-2.6
		c0,0.7,0,1.5,0,2.2c-0.2,3-1.1,5.6-2.9,7.9c-0.4,0.2-0.9,0.4-1.2,0.6c-0.2,0.1-0.3,0.2-0.4,0.4c-0.8,0-1.6,0.1-2.5,0.3
		c-0.3-0.1-0.6-0.3-0.8-0.4c-2.1-1.3-3.6-2.9-4.8-4.8c0-0.1,0-0.1-0.1-0.1c0.1-0.4,0.2-0.8,0.3-1.3c0.7,0.3,1.5,0.5,2.2,0.7
		c0.5,0.6,1,1.1,1.6,1.6c0.7,0.6,1.4,0.7,2.1,0.1c0.1-0.6-0.2-1-1-1.2c-0.8-0.3-1.4-0.7-1.8-1.4c-0.5-0.1-0.9-0.1-1.3-0.2
		c1.7-0.4,3.3-0.6,4.9-0.6c-0.1-0.1-0.2-0.2-0.3-0.3C54.4,27.777,53.8,27.577,53.2,27.277z M45.8,26.777c0.5,0.4,1,0.8,1.5,1
		c0,0.4-0.1,0.8-0.1,1.2c0,0.6-0.2,1.1-0.5,1.4c-0.1,0.2-0.2,0.3-0.3,0.4c-0.9-0.2-1.9-0.4-2.8-0.5c-0.2-0.1-0.4-0.2-0.6-0.3v-0.2
		c0.1-0.4,0.1-0.7,0.2-1.1c0-0.5,0.1-1,0.2-1.5c0-0.1,0-0.2,0-0.4C43.9,25.876,44.7,25.876,45.8,26.777z M48.5,33.077
		c0-0.1,0-0.2,0-0.2c1.1,2.5,3.3,4.3,6.6,5.3c0.1,0,0.2-0.1,0.3-0.2c0.2-0.1,0.4-0.2,0.6-0.3c0.5,0.5,1,0.9,1.4,1.3
		c-0.2-0.1-0.5-0.1-0.7-0.2c2.7,2.1,5.3,4.8,7.8,8c3.7,4.9,4.9,10,3.4,15.4c-1.4,5.3-5.1,9.9-11,13.6c-2.6,1.6-5.5,2.6-8.8,3
		c-4.2,0.4-8.8-0.1-14.1-1.6c-1.3-0.4-2.6-0.9-3.8-1.3c-7.4-3-12.8-7.4-16.3-13.4c-0.4-1.9-0.4-3.7,0-5.5
		c2.1-9.6,6.9-16.7,14.3-21.2c0.1,0,0.1,0,0.2,0c-0.1,0-0.1,0-0.1-0.1c0,0,0.1-0.1,0.2-0.1c1.3-0.5,2.6-1,4-1.3
		c0.8,1,2.1,1.6,3.7,1.9c0.1,0,0.2-0.1,0.3-0.1c3.1-0.6,5.2-1.8,6.2-3.5c2.1-0.2,4.1,0,5.9,0.6C48.6,33.077,48.5,33.077,48.5,33.077
		z M42.2,25.677c-0.3,0.4-0.5,1-0.6,1.6c-1.6-1.6-3.6-2.4-6.2-2.4l-0.4,0.1c1.7,0.8,3.4,1.6,5.2,2.4c-0.3,0-0.7,0-1.1,0
		c-0.8,0.3-1.6,0.7-2.3,1.1c-0.2,0.1-0.3,0.2-0.4,0.4l0.1,0.2c1.8-0.5,3.5-0.5,5-0.2c-0.1,0.4-0.1,0.8,0,1.2c-0.1,0-0.2,0-0.3,0
		c-0.1,0-0.2,0-0.3,0c0.2,0.1,0.4,0.3,0.6,0.5c0.1,0.3,0.1,0.7,0.1,1c-0.1,0.1-0.1,0.2-0.1,0.4c-1.9,1.1-3.9,1.8-6.1,2.1
		c-0.9-0.7-1.7-1.4-2.4-2.2c-0.1,0-0.2-0.1-0.3-0.1c-0.1-0.1-0.2-0.1-0.3-0.2c-0.1,0-0.2-0.2-0.3-0.3c-0.9-2.1-1.1-4.2-0.7-6.6
		c0.2-1.4,0.7-2.7,1.5-3.9c0-0.2,0.1-0.2,0.2-0.2c0.7,0,1.4,0,2.2,0c1.3,0.9,2.5,1.8,3.6,3C40.1,24.777,41.2,25.577,42.2,25.677z
		 M60.2,34.477c0.5-0.9,1-1.8,1.3-2.7c3.5,0.1,6.2,1.4,8.4,3.8c-0.8-0.1-1.5-0.3-2.1-0.4c-0.1,0.1-0.1,0.1-0.1,0.1
		c-0.2,0-0.3,0.1-0.4,0.2c-0.3,0.2-0.6,0.3-0.8,0.6c-0.2,0.1-0.3,0.2-0.4,0.3c-0.1,0.6-0.2,1.2-0.2,1.9c-0.1,0-0.1,0-0.1,0
		C64.2,36.677,62.3,35.376,60.2,34.477L60.2,34.477z M62.5,39.177c-0.5,0.2-0.8,0.4-1,0.8c-1.1-1.3-2.2-2.4-3.3-3.5
		c0.1,0,0.2-0.1,0.3-0.1c0.5-0.5,1-1,1.4-1.5c1.8,1.6,3.8,2.9,6,4.1c0,0.1,0,0.2,0.1,0.4c0,0.1,0,0.3,0.1,0.4
		c-0.3,0-0.6-0.1-0.9-0.1c-0.7-0.2-1.4-0.4-2-0.5C62.9,39.177,62.7,39.077,62.5,39.177z M29.5,26.277c0-0.1-0.1-0.1-0.1-0.2
		c-0.8-0.2-1.4-0.4-2-0.5c-0.4-0.2-0.8-0.4-1.1-0.5c-0.8,0-1.6,0.2-2.3,0.6c-0.1-0.1-0.2-0.3-0.3-0.3c-0.2,0-0.4,0-0.6,0.2
		c-1,0.6-1.8,1.4-2.3,2.5c0.5,0.2,1.1,0.3,1.7,0.1c0,0.1-0.1,0.2-0.1,0.4c0,0,0,0-0.1,0.1l0.1,0.1c-0.2,0.3-0.3,0.7-0.4,1
		c-0.1,0.5-0.2,1-0.2,1.5c-0.5,0.1-0.9,0.1-1.2,0c-2.1-0.9-3.3-2.4-3.7-4.5c-0.2-1.5-0.1-3,0.3-4.6c0.5,0.3,1.1,0.5,1.5,0.9
		c0.4,0.2,0.7,0.5,1.1,0.7c-0.3,0.3-0.3,0.5-0.3,0.9c0.4,0,0.7,0,1-0.1c0.1-0.1,0.3-0.2,0.5-0.3c0.3,0.2,0.7,0.3,1,0.3
		c2.6-1,5.3-1.3,7.9-0.7c-0.1,0.5-0.2,0.9-0.3,1.4C29.6,25.577,29.6,25.876,29.5,26.277z M29,28.077c0.1,0,0.4,0,0.5,0.1
		c0.1,1.9,0.9,3.2,2.1,4.2c-0.7,0.2-1.4,0.6-2.1,0.9c-0.9,0.4-1.6,0.8-2.4,1.3c-0.8-0.7-1.6-1.2-2.4-1.5c0,0,0-0.1,0-0.2
		c0.3-0.1,0.5-0.3,0.7-0.4c1.5-1.1,3.1-1.7,4.9-1.6c-0.1-0.1-0.2-0.2-0.2-0.2c-0.8-0.3-1.6-0.5-2.5-0.6c-1,0.2-1.8,0.6-2.7,1.2
		c0.1-0.6,0.2-1.1,0.2-1.6c0-0.1-0.1-0.2-0.1-0.3c-0.4-0.2-0.7-0.5-1-0.8c0-0.4,0-0.7,0-1c0.2-0.2,0.3-0.3,0.5-0.3
		c1.2-0.6,2.5-0.6,3.8-0.1c0.1,0.1,0.1,0.1,0.2,0.2c0,0.1,0.1,0.2,0.1,0.2C28.8,27.777,28.9,27.876,29,28.077z M2.1,88.277
		c0.3-0.8,0.7-1.5,1.4-2.1c7.2-7.4,15.3-8.7,24.3-4c0,0.1,0,0.2,0,0.2c0.1,0,0.2,0,0.3,0c0.1,0,0.3,0.1,0.4,0.2
		c0.8,0.7,1.7,1.1,2.8,1.5c0-0.2-0.1-0.3-0.2-0.3c-0.5-0.6-1-1.2-1.7-1.6c0.1-0.2,0.1-0.3,0.1-0.5c0-0.1-0.1-0.2,0-0.4
		c0.2-0.9,0.3-1.6,0.4-2.3c0-0.2,0-0.3,0-0.3c-0.1-0.2-0.1-0.3-0.1-0.4c0,0,0-0.1,0-0.2c0-0.4,0-0.8-0.1-1.1
		c0.4,0.1,0.8,0.2,1.2,0.3c0.2,0.2,0.5,0.4,0.7,0.7c0.6,0.2,1.2,0.4,1.9,0.6c-1.2-0.1-2.3-0.3-3.4-0.4c0.5,0.1,1,0.2,1.4,0.4
		c0.7,0.1,1.3,0.3,1.9,0.5c0,0.2-0.1,0.4-0.1,0.6c-0.5,2.2-0.2,4,0.7,5.6c-0.2,0-0.3,0.1-0.5,0.1c0,0.5,0.2,0.8,0.5,1.2
		c0.4,0.3,0.7,0.7,1.1,1.1c0,0.1,0,0.1,0,0.1c-0.3,0.1-0.7,0.3-1,0.5c-2.1,0.2-4.2,0.5-6.3,0.6c-0.3-0.1-0.5-0.1-0.8-0.2
		c0,0.1,0,0.1,0,0.1c-0.4,0.1-0.6,0.2-1,0.3c-7,0.6-14.2,0.8-21.4,0.7C3.4,89.777,2.6,89.277,2.1,88.277z M47.1,79.677
		c0.1,0,0.2,0,0.4,0c0.1,0.6,0.3,1.3,0.6,2.2c-0.4,0.1-0.7,0.3-1,0.7c0,0,0,0-0.1,0c-0.4,0.2-0.8,0.5-1.3,0.6c-0.1,0-0.1,0-0.2,0
		c0,0,0,0-0.1,0.1c-0.8,0.2-1.8,0.3-2.9,0.2c-3-0.1-5.7-0.2-8.1-0.3c-0.3-1.1-0.4-2.3-0.4-3.4c0-0.2,0-0.4,0-0.6c0.1,0,0.2,0,0.3,0
		c-0.2-0.2-0.5-0.4-0.7-0.5c2.3,0.6,4.7,1,7.2,1.3c1,0.1,2.1,0.2,3.2,0.2c0.1-0.1,0.2-0.1,0.4-0.2c0.5-0.1,1.1-0.2,1.6-0.2
		c0.3-0.1,0.6-0.1,0.9-0.1h-0.1C46.9,79.677,47,79.677,47.1,79.677z M52.3,79.477c0.1-0.1,0.2-0.1,0.4-0.1c0.2,1,0.7,1.8,1.3,2.3
		c-0.8,0.4-1.5,1-2,1.9c0.1,0.1,0.2,0.2,0.2,0.1c0.7-0.1,1.2-0.2,1.7-0.3c0,0.1,0,0.2,0,0.3c11.3-5.9,21.2-4.6,29.9,3.6
		c-8.7,2.1-17.6,2.8-26.5,2c-3.7-0.7-6.7-1.8-9.2-3.1c0-0.1,0.1-0.2,0.1-0.3c1.7-2.3,1.9-4.3,0.5-6.1c0.3,0,0.6,0,0.9,0.1
		c0-0.1,0.1-0.1,0.2-0.1l-0.1,0.1c0.4,0,0.8,0.1,1.1,0.3c-0.1-0.2-0.2-0.3-0.2-0.4c0.4-0.1,0.9-0.2,1.4-0.3
		C52.1,79.477,52.2,79.477,52.3,79.477z M34.5,83.777c0,0,0,0,0-0.1c0.6,0.2,1.3,0.4,2,0.5c-0.5,0.3-0.9,0.6-1.3,1
		c-0.2-0.4-0.4-0.7-0.7-1C34.5,84.077,34.5,83.977,34.5,83.777z M42.2,84.577c-0.7,0.3-1.2,0.7-1.8,1.1c-0.4,0.2-0.9,0.4-1.4,0.5
		c-0.8,0.3-1.6,0.6-2.3,1c-0.3-0.5-0.6-0.8-0.9-1.1c-0.1-0.1-0.1-0.2-0.1-0.2c0.9-0.3,1.8-0.8,2.6-1.4
		C39.6,84.677,40.9,84.677,42.2,84.577z"/>
	<path style="fill:#BE3689;" d="M35,39.477c0-0.2,0-0.3,0.1-0.4c0.2-0.6,0.2-1.2-0.2-1.6c-0.3-0.1-0.5,0-0.7,0.3
		c-0.3,0.9-0.3,1.7,0,2.6c0.1,0.2,0.3,0.3,0.6,0.5c-0.4,0.1-0.8,0.3-1.1,0.5c-0.7-0.3-1.3-0.7-1.9-1.1c0-0.1,0-0.2,0.1-0.4
		c0-0.4,0-0.8-0.3-1.1c-0.2,0-0.3,0-0.3,0.1c-0.6,0.8-0.7,1.5-0.3,2.2c0.4,0.5,0.9,0.8,1.3,1.1c-0.1,0.1-0.3,0.2-0.4,0.3
		c-1.1-0.2-1.9-0.7-2.4-1.6c-0.5-0.2-0.7-0.1-0.7,0.3c-0.2,0.8,0.2,1.5,1.2,2c0.2,0.1,0.4,0.2,0.6,0.2c-5,4.2-5.6,9-1.5,14.4
		c4.5,2,8.7,1.7,12.7-0.7c2.2,2.6,5.2,3.5,8.8,2.6c5.6-1.3,7.9-4.7,6.8-10.1c-0.2-0.1-0.2-0.3-0.3-0.4c-0.6-1.6-1.5-3-2.5-4.1
		c0.2-0.1,0.4-0.1,0.6-0.2c0.2-0.1,0.3-0.2,0.5-0.3c1-0.8,1.2-1.6,0.7-2.5l-0.1-0.1c-0.8,1-1.8,1.6-3,1.9c-0.3-0.3-0.6-0.5-1-0.8
		c0.5-0.3,1-0.7,1.5-1.1c0-0.2,0-0.3,0-0.4c0.2-0.7,0.1-1.3-0.1-1.9h-0.2c-0.5,1.7-1.5,2.5-2.8,2.6c-0.1-0.1-0.1-0.1-0.1-0.1
		s0-0.1,0.1-0.1c0.6-1.1,0.9-2.2,0.7-3.4c-0.9,0.4-1.6,1.4-2.1,3c-0.1,0-0.1,0-0.1,0c-0.9-0.2-1.9-0.4-2.9-0.5
		c-0.3,0.1-0.6,0.2-1.1,0.4c-0.8,0.3-1.4,0.8-1.9,1.6c0,0-0.1,0.1-0.2,0.1c-1.9-2.2-4-3.2-6.2-2.9
		C36.5,39.977,35.9,39.677,35,39.477z M37.2,41.577c0.6,0.1,1.2,0.1,1.8,0.2c0.2,0.1,0.4,0.3,0.6,0.4c1.2,1.2,2.3,2.2,3.3,3.1
		c0.4,0.2,0.8,0.3,1.1,0.4c0.3-0.3,0.6-0.6,0.7-1c0.3-0.6,0.6-1,0.9-1.4c4.9-0.1,8.3,2.3,10.1,7c0,0.6,0,1.3,0.1,2
		c0.1,3-1.4,5-4.5,6.1c-3.9,0.7-7.1-0.5-9.3-3.6c-7.6,4.8-12.4,3.6-14.5-3.9c0-0.1,0-0.2,0.1-0.3
		C28.9,45.876,32.1,42.977,37.2,41.577z"/>
	<path style="fill:#BE3689;" d="M42,46.277c-0.1-0.1-0.2-0.2-0.4-0.4c-0.1-0.1-0.2-0.2-0.3-0.3c-2.9,0-5,1.2-6.4,3.6
		c0,0.1,0,0.2,0,0.4c-0.1,1.1,0,2.2,0.1,3.3c0.4,0.4,0.8,0.8,1.1,1.2c1.1,0,2.1,0,3.1,0c0.6-0.3,1-0.6,1.4-0.9c0.1,0,0.1,0,0.1-0.1
		C42.2,51.177,42.7,48.977,42,46.277z M40.6,47.077L40.6,47.077c-0.3,0.5-0.4,1.1-0.3,1.8c-1.1,0.9-1.8,0.8-2.3-0.2
		c0.4-0.5,0.6-0.9,0.6-1.2c0.5-0.3,0.9-0.5,1.4-0.7C40.3,46.577,40.4,46.677,40.6,47.077z"/>
	<path style="fill:#BE3689;" d="M46.8,46.376c-0.8,0-1.5,0-2.3-0.1c-0.7,0.4-1.3,1.1-1.7,2c-0.3,0.6-0.5,1.2-0.5,1.9
		c0.1,0.8,0.4,1.6,0.7,2.4c0.2,0.3,0.4,0.6,0.6,1c0.4,0.4,0.9,0.8,1.4,1.1c0.2,0.1,0.4,0.2,0.6,0.4c0.9,0,1.8,0,2.7,0
		c0.2-0.3,0.5-0.5,0.8-0.8c0.2-0.1,0.4-0.2,0.5-0.4c0.1-0.1,0.1-0.2,0.1-0.3c0.2-0.7,0.3-1.3,0.5-1.9c0.1-0.1,0.1-0.2,0.1-0.4
		c0-0.1-0.1-0.2-0.1-0.3c-0.4-0.4-0.6-1-0.6-1.6c0-0.1,0-0.2-0.1-0.3c-0.5-0.5-1-1-1.4-1.6C47.7,47.077,47.3,46.677,46.8,46.376z
		 M45.6,48.177c0.2-0.1,0.3-0.1,0.4,0c0.6,0.3,0.9,0.7,0.8,1.2c-0.3,1.3-1.1,1.6-2.4,1c-0.1-0.1-0.1-0.2,0-0.3
		C44.7,49.376,45.1,48.777,45.6,48.177z"/>
	<path style="fill:#BE3689;" d="M25,49.277c-0.1,0.1-0.2,0.2-0.2,0.3c-1.8,1.7-3.3,3.5-4.7,5.5c0.2,0,0.2,0.1,0.3,0.1
		C22.9,53.077,24.4,51.077,25,49.277z"/>
	<path style="fill:#BE3689;" d="M22,49.277c-0.1,0.1-0.2,0.2-0.2,0.3c-1.9,1.5-3.3,3.4-4,5.6c0.1-0.1,0.3-0.1,0.3-0.2
		C20,52.577,21.3,50.777,22,49.277z"/>
	<path style="fill:#BE3689;" d="M21.1,48.376c0,0,0,0-0.1,0.1c-1.9,1.4-3.7,3.1-5.4,5.1c0,0.2,0,0.5,0,0.7c0,0.6,0.1,1,0.4,1.4
		c0.1-0.2,0.2-0.4,0.2-0.6c0.2-0.7,0.4-1.4,0.7-1.9c0.2-0.1,0.4-0.2,0.5-0.3C18.9,51.477,20.1,49.977,21.1,48.376z"/>
	<path style="fill:#BE3689;" d="M23.1,57.277c-0.5,2.7,0.8,4.9,4,6.8c11.4,6.7,22.2,6.3,32.4-1.1c0-0.2,0.1-0.3,0.2-0.4
		c1.2-1.5,1.9-3.1,2.1-4.9c-3,4.8-7.4,7.8-13.4,9C36.9,69.277,28.5,66.077,23.1,57.277z"/>
	<path style="fill:#BE3689;" d="M66.5,52.277c-0.1,0.3-0.4,0.5-0.7,0.7c-1.3,1.1-2.3,2.2-3.2,3.3l0.1,0.2
		C65,55.177,66.4,53.777,66.5,52.277z"/>
	<path style="fill:#BE3689;" d="M64.6,50.876c-0.1,0-0.1,0-0.1,0.1c-2.6,2-4,3.8-4,5.4c0,0,0.2-0.1,0.3-0.2
		C62.5,54.577,63.8,52.876,64.6,50.876z"/>
	<path style="fill:#BE3689;" d="M61.6,51.376c-0.2,0-0.4,0-0.4,0.1c-1.7,1.4-2.8,3-3.4,4.8c0.2,0,0.4,0,0.6-0.2
		C59.7,54.577,60.8,52.977,61.6,51.376z"/>
	<path style="fill:#BE3689;" d="M37.3,70.177h-0.2c0.6,2.5,3.2,2.9,7.7,1.2l0.1-0.1C42.2,71.477,39.7,71.077,37.3,70.177z"/>
	<path style="fill:#BE3689;" d="M14.2,7.177c3.7-0.9,6-2.6,7.1-5c-0.3,0-0.5,0-0.6,0.1c-2.5,1.3-4.7,2.8-6.7,4.8
		C14.1,7.177,14.2,7.277,14.2,7.177z"/>
	<path style="fill:#BE3689;" d="M15.3,9.177c-0.6-0.1-0.7-0.1-0.5,0.2c2.5,2.1,5.3,2.8,8.3,2c0-0.1-0.1-0.1-0.1-0.2
		C20.6,10.277,18,9.577,15.3,9.177z"/>
	<path style="fill:#BE3689;" d="M15.5,17.577c0-0.2,0-0.3,0-0.4c-0.4-1.6-0.9-3.1-1.7-4.5c-0.3,0-0.4,0-0.4,0
		C13.3,15.376,14,16.977,15.5,17.577z"/>
	<path style="fill:#BE3689;" d="M10.6,6.777c0.1-0.1,0.2-0.2,0.1-0.3c-0.8-2.2-1.6-4.4-2.4-6.4c-0.6-0.2-1,0-1.3,0.5
		C7.6,3.177,8.8,5.277,10.6,6.777z"/>
	<path style="fill:#BE3689;" d="M8.8,8.177c-0.1-0.1-0.2-0.1-0.2-0.2c-2.4-1.2-4.9-2.2-7.6-2.9c0,0,0,0,0,0.1
		C2.3,7.177,5,8.177,8.8,8.177z"/>
	<path style="fill:#BE3689;" d="M1.4,14.177c0.5,0.1,1.1,0.3,1.6,0.5c0.1-0.1,0.2-0.1,0.4-0.1c2.3-0.8,4.3-1.6,5.7-2.7
		c-0.2,0-0.4-0.1-0.6-0.2c-0.3,0-0.6-0.1-1-0.1C5.2,12.077,3.2,12.977,1.4,14.177z"/>
</g>
</svg>
