<?xml version="1.0" encoding="iso-8859-1"?>
<!-- Generator: Adobe Illustrator 12.0.1, SVG Export Plug-In . SVG Version: 6.00 Build 51448)  -->
<!DOCTYPE svg PUBLIC "-//W3C//DTD SVG 1.1//EN" "http://www.w3.org/Graphics/SVG/1.1/DTD/svg11.dtd" [
	<!ENTITY ns_svg "http://www.w3.org/2000/svg">
	<!ENTITY ns_xlink "http://www.w3.org/1999/xlink">
]>
<svg  version="1.1" id="Layer_1" xmlns="&ns_svg;" xmlns:xlink="&ns_xlink;" width="58.5" height="46.744"
	 viewBox="0 0 58.5 46.744" style="overflow:visible;enable-background:new 0 0 58.5 46.744;" xml:space="preserve">
<g>
	<path style="fill:#BE3689;" d="M24.2,1.244c-0.1,0.1-0.2,0.2-0.3,0.3c-0.5,0.8-0.8,1.7-0.9,2.6c-0.6-0.5-1.2-0.9-1.9-1.4
		c0,0.1,0,0.1-0.1,0.1c-2.6,6.2-1.5,12.1,3.3,17.6c0.2,0,0.3,0.1,0.5,0.3c0.4,0.3,1,0.6,1.5,0.9c0,0,0,0.1,0,0.2
		c0.4,0,0.8,0.1,1.3,0.1c-2.3,3.4-3,7.2-2,11.5c-0.1,0.2-0.1,0.5-0.1,0.7c0,0.8,0,1.5,0,2.3c-2.3-2.7-4.9-5.1-8-7.2
		c-1-0.3-1.5,0-1.5,0.8c0.8,3.8,2.3,6.7,4.6,8.7c-0.4-0.1-0.9-0.1-1.4-0.1c-0.3,0.1-0.7,0.4-1.1,0.7c-1.1,1-2.3,2-3.4,3.1
		c-1.6-0.3-3.1,0-4.2,1c-0.2-0.1-0.4-0.1-0.5-0.1c-0.5-0.1-0.9-0.1-1.3-0.2c-3.6,0-6.5,0.8-8.7,2.5c3.6,0.3,7.4,0.2,11.2-0.5
		c0.1,0,0.2-0.1,0.4-0.1c0.1-0.1,0.2-0.2,0.2-0.3c0,0,0.1,0,0.2-0.1c0,0.1,0.2,0.2,0.5,0.1c1.8-0.1,3.6,0.3,5.2,1
		c1.1,0,2.1,0.1,3.1,0.3c0.2,0.1,0.4,0.1,0.7,0c-0.1-0.1-0.1-0.1-0.2-0.2c-2.3-0.7-4.7-1.2-7.1-1.5c1.1-0.2,1.9-0.9,2.5-1.9
		c1-0.1,1.7-0.5,2.2-1.3c0.2-0.2,0.4-0.5,0.6-0.7c0.4,0.1,0.9,0.1,1.3,0.2c1.3,0.4,2.1,0.3,2.4-0.3c1.3,0.6,2.7,1,4.3,1.2
		c1.2-0.7,2.3-1.4,3.4-2.3c0.3,0.3,0.9,0.4,1.7,0.3c1,0.7,2.1,1.3,3.3,1.7c1.4,0.6,2.6,0.9,3.6,0.9c0,0.3,0.1,0.5,0.3,0.7
		c0.2,0.3,0.4,0.6,0.7,0.8c0.1,0.2,0.2,0.3,0.3,0.4c0.2,0,0.3,0,0.4,0.1c-0.3-0.1-0.6-0.1-1-0.1v0.1c-0.1,0-0.2,0.1-0.4,0.2
		c-0.5,0.2-1,0.5-1.6,0.7c-0.1,0.1-0.2,0.2-0.4,0.2c0.1,0.2,0.1,0.2,0.2,0.3c0.4,0.1,0.8,0.2,1.2,0.2c0.4-0.1,0.7-0.3,1-0.4
		c0.8-0.4,1.6-0.6,2.5-0.7c0.3,0,0.6,0.1,0.9,0.2c1.3,0.5,2.7,0.9,4.1,1.4c3.5,0.3,7.2,0.5,10.8,0.5c-2.1-1.9-5.1-2.8-9.3-2.7
		c-0.2,0.1-0.5,0.2-0.6,0.3c-0.2,0-0.3,0.1-0.4,0.2c-0.7-0.4-1.5-0.7-2.2-0.8c-1.5-0.4-2.9-0.8-4.3-1.3c-0.1-0.1-0.2-0.2-0.2-0.3
		c-0.4-0.3-0.7-0.6-0.9-1c-0.1-0.3-0.4-0.6-0.6-0.9c-0.9,0-1.8-0.1-2.6-0.4c-1.8-0.6-3.7-1-5.6-1.3c2.7-2.4,4.9-5.2,6.7-8.5
		c-1.9-0.8-4.1-0.6-6.7,0.7c-1.8,1.8-3.4,3.3-4.8,4.4c0-0.1,0-0.2-0.1-0.4c-0.5-4.5-0.2-8.7,1.2-12.7c0.6,0.1,1.3,0.2,2.1,0.3
		c0.2-0.2,0.5-0.3,0.7-0.5c7.7-5.1,9.9-11.4,6.6-18.9c-0.5,0.3-1,0.7-1.5,1c0-0.2,0-0.3-0.1-0.4c-0.4-0.9-0.8-1.8-1.1-2.8
		c-0.2-0.1-0.3-0.1-0.4-0.1c-0.4,0-0.8,0.1-1.2,0.2c-0.1,0.2-0.3,0.3-0.4,0.4c-0.4,0.3-0.6,0.6-0.6,0.9c-0.4-0.7-0.8-1.4-1.4-2.1
		c-0.1,0-0.3-0.1-0.4,0c-0.6,0-1.2,0.2-1.7,0.3c-0.8,0.9-1.3,1.7-1.8,2.7c-0.4-0.6-0.8-1.2-1.1-1.9c-0.2-0.1-0.3-0.1-0.4-0.1
		C25,1.044,24.6,1.145,24.2,1.244z M21.5,4.544c0.2-0.2,0.4-0.2,0.7,0.1c1.8,1.7,3.2,3.7,4.4,5.9c0,0.1,0,0.2,0.1,0.3
		c1.4,3.2,1.7,6.2,1,9.1c-0.2-0.1-0.3-0.2-0.4-0.3c-0.2,0.2-0.3,0.3-0.4,0.4C21.7,16.244,19.9,11.145,21.5,4.544z M25,2.244
		c0.1,0.2,0.3,0.4,0.4,0.7c0.3,0.5,0.7,0.9,1.1,1.2c-0.3,0.9-0.5,1.8-0.6,2.8c-0.6-0.8-1.4-1.6-2.2-2.3
		C24.3,4.044,24.7,3.244,25,2.244z M32.5,2.744c0.6,0.4,1.1,0.1,1.5-0.8c0.2,0.2,0.4,0.6,0.5,0.9c0.1,0.7,0.3,1.2,0.7,1.5
		c-0.8,0.3-1.4,0.4-2,0.4c-0.2-0.6-0.4-1.2-0.6-1.7C32.5,2.944,32.5,2.844,32.5,2.744z M30,1.444c0.1,0.4,0.2,0.8,0.4,1.1
		c3.3,6.4,2.8,12.3-1.5,17.6c1-5,0.1-9.3-2.6-12.8C27.4,5.744,28.7,3.744,30,1.444z M35.2,5.844c1-1.3,1.8-1.5,2.3-0.5
		c0.6,5.7-1.1,10-4.9,12.8c0.1-0.3,0.2-0.6,0.3-0.8c1-2.9,1.3-5.9,0.8-8.9c0-0.1,0.1-0.3,0.1-0.4C33.9,7.044,34.3,6.344,35.2,5.844z
		 M18.5,32.244h0.1c2.8,2,5,4.4,6.6,7.3c-0.2,0-0.4,0-0.5,0C21.6,37.844,19.5,35.444,18.5,32.244z M35.7,31.444l0.3-0.1
		c-1.9,3.3-4.8,5.6-8.5,7.1c0.2-0.8,0.5-1.4,0.9-2c1-1.4,2.1-2.6,3.4-3.7c0.3-0.1,0.6-0.2,0.9-0.2
		C33.8,32.344,34.8,31.944,35.7,31.444z"/>
</g>
</svg>
