<?xml version="1.0" encoding="iso-8859-1"?>
<!-- Generator: Adobe Illustrator 12.0.1, SVG Export Plug-In . SVG Version: 6.00 Build 51448)  -->
<!DOCTYPE svg PUBLIC "-//W3C//DTD SVG 1.1//EN" "http://www.w3.org/Graphics/SVG/1.1/DTD/svg11.dtd" [
	<!ENTITY ns_svg "http://www.w3.org/2000/svg">
	<!ENTITY ns_xlink "http://www.w3.org/1999/xlink">
]>
<svg  version="1.1" id="Layer_1" xmlns="&ns_svg;" xmlns:xlink="&ns_xlink;" width="86.3" height="79.553"
	 viewBox="0 0 86.3 79.553" style="overflow:visible;enable-background:new 0 0 86.3 79.553;" xml:space="preserve">
<g>
	<path style="fill:#BE3689;" d="M86.3,73.813c0-0.1-1.5-1.5-4.5-4.4c-3-2.8-8.8-4.6-17.3-5.3c-2.5,0.5-5,1.1-7.6,2
		c-0.8,0.2-1.5,0.6-2,1.1c0,0,0,0-0.1,0c-0.2-1.1-0.7-2.1-1.5-2.8c0.9-0.3,1.8-0.5,2.7-0.8c5.9-2,10-6.1,12.2-12.4
		c3.4-9.9,1.6-18-5.5-24.3c-1.8-0.9-3.8-1.6-6-2.2c2.1,1.4,4.1,3.1,6.2,5.2c4.3,4.3,6.1,9.2,5.3,14.8c-0.7,5.5-3.8,10.5-9.1,14.9
		c-5.3,4.5-12.8,6-22.5,4.4c-9.7-1.6-17-5.5-21.9-12c-0.6-1.7-0.8-3.5-0.7-5.4c0.8-9.4,4.3-16.8,10.6-22.3l-2-0.2
		c-0.2,0.3-0.5,0.6-0.7,0.9l0,0c-0.4,0.5-0.8,1-1.1,1.5c-3.4,3.7-5.9,8.2-7.3,13.4c-2.3,9,0.2,15.7,7.6,20.1c2.6,1.5,5.3,2.8,8,3.7
		c-0.2,0.2-0.3,0.4-0.6,0.5c0,0.3,0,0.5-0.1,0.7c-0.3,0.7-0.5,1.4-0.4,2.3c-0.3-0.1-0.6-0.3-0.9-0.5c-0.2-0.1-0.3-0.1-0.2,0.1
		c0,0,0.1,0.1,0.2,0.3c-3.6-2.4-7.8-3.4-12.6-3.1c-1.3,0.4-2.6,0.7-3.9,1.1c-1.2,0.2-2.9,1.3-5,3.3c-2.2,2-3.5,3.4-4,4.1
		c-0.7,0.8-0.9,1.8-0.5,2.8c0.1,0.3,0.2,0.5,0.3,0.8c0.5,0.1,1.1,0.2,1.7,0.2c-1.4,0.3-2.5,1-3.1,2.2c0.1,0.1,0.2,0.2,0.2,0.1
		c2.6-0.2,4.1-0.9,4.3-2.1c1.1,0.2,2.2,0.3,3.4,0.4c-1.4,0.4-2.6,1-3.8,1.9c0.1,0.2,0.1,0.2,0.1,0.2c2.7-0.4,4.6-1,5.7-2
		c1.2,0.1,2.4,0.1,3.6,0.2c-1.2,0.4-2.4,1-3.5,1.8c0.4,0.6,1.1,0.7,1.9,0.3c0,0,0.2-0.1,0.3-0.1c2-0.6,3.5-1.2,4.5-2
		c1.3,0,2.6,0,3.9,0c-1,0.5-2,1-3,1.6c0.3,0.2,0.6,0.2,0.8,0.2c1.9-0.6,3.8-1.3,5.6-2c1.8-0.2,3.5-0.4,5.3-0.6
		c-1.7,0.8-3.2,1.7-4.8,2.6c0.1,0.1,0.2,0.2,0.3,0.2c0.4,0.2,0.8,0.3,1.2,0.3c0.1-0.2,0.3-0.3,0.4-0.3c2.7-1.3,5.5-2.5,8.3-3.7
		c0.8-0.1,1.7-0.3,2.6-0.5c0-0.2,0-0.4-0.1-0.6c1.9-0.8,3.7-1.6,5.6-2.4c-0.2-0.2-0.4-0.3-0.6-0.3l0,0c1.5-0.8,3-1.4,4.4-1.9
		c0.4-0.1,0.8-0.2,1.1-0.3c-0.3,0.4-0.6,0.9-0.8,1.5c-5.4,1.8-9.8,4.5-13.1,7.8c0.2,0.1,0.4,0.1,0.6,0c4.8-2.4,8.9-4.8,12.3-7.4
		c-0.1,0.5-0.3,1-0.3,1.6c0.6,0.4,1.2,0.8,1.9,1.1c-3.5,1-6.1,2.7-7.9,5.1c0.2,0.1,0.3,0.1,0.5,0c2.7-1.7,5.6-3.2,8.7-4.5
		c0.9,0.3,1.8,0.6,2.8,0.8c-1.9,1-3.6,2.1-5.3,3.3l0.1,0.2c2.4-0.8,4.7-1.9,6.8-3.3c1.3,0.5,2.6,0.8,4,1c-0.7,0.3-1.5,0.6-2.4,0.9
		c0,0.1-0.1,0.1-0.1,0.2c-0.8,0.4-1,0.9-0.7,1.5c0.8,0.2,1.6,0,2.4-0.4c1.7-0.8,2.7-1.5,3.1-2.1c0.7,0.1,1.4,0.1,2.1,0
		c0.7,0.1,1.5,0.2,2.3,0.2c-0.8,0.5-1.6,1.1-2.2,1.7v0.3c2.4-0.3,3.7-1,4-1.9c1.5,0,3,0,4.5-0.1c-0.5,0.4-1,0.8-1.2,1.3
		c0.2,0.1,0.4,0.2,0.7,0.1c1.7-0.3,2.9-0.9,3.8-1.7c1.4-0.2,2.9-0.4,4.4-0.7c-1.1,0.6-2,1.5-2.7,2.5c0.7,0.5,1.4,0.4,2.4-0.1
		c2.3-1.3,3.8-2.4,4.4-3.4C83.9,74.713,85.1,74.213,86.3,73.813z M2.1,74.213c0.3-0.8,0.7-1.5,1.4-2.1c7.4-7.5,15.7-8.7,25-3.6
		c0.8,0.7,1.7,1.1,2.8,1.5c0-0.2-0.1-0.3-0.2-0.3c-0.5-0.6-1-1.2-1.7-1.6c0.1-0.2,0.1-0.3,0.1-0.5c0-0.1-0.1-0.2,0-0.4
		c0.3-1.3,0.5-2.4,0.3-3.2c1.2,0.3,2.4,0.7,3.6,1c-0.6,2.4-0.4,4.5,0.6,6.2c-0.2,0-0.3,0.1-0.5,0.1c0,0.5,0.2,0.8,0.5,1.2
		c0.4,0.3,0.7,0.7,1.1,1.1c0,0.1,0,0.1,0,0.1c-0.3,0.1-0.7,0.3-1,0.5c-2.1,0.2-4.2,0.5-6.3,0.6c-0.3-0.1-0.5-0.1-0.8-0.2
		c0,0.1,0,0.1,0,0.1c-0.4,0.1-0.6,0.2-1,0.3c-7,0.6-14.2,0.8-21.4,0.7C3.4,75.713,2.6,75.213,2.1,74.213z M47.1,68.513
		c0,0,0,0-0.1,0c-0.4,0.2-0.8,0.5-1.3,0.6c-0.1,0-0.1,0-0.2,0c0,0,0,0-0.1,0.1c-0.8,0.2-1.8,0.3-2.9,0.2c-3-0.1-5.7-0.2-8.1-0.3
		c-0.3-1.3-0.4-2.7-0.4-4c4.4,1,8.9,1.1,13.5,0.5c0.1,0.6,0.3,1.3,0.6,2.2C47.7,67.913,47.4,68.113,47.1,68.513z M52.2,69.613
		c0.7-0.1,1.2-0.2,1.7-0.3c0,0.1,0,0.2,0,0.3c11.3-5.9,21.2-4.6,29.9,3.6c-8.7,2.1-17.6,2.8-26.5,2c-3.7-0.7-6.7-1.8-9.2-3.1
		c0-0.1,0.1-0.2,0.1-0.3c1.8-2.4,1.9-4.5,0.3-6.4c1.3-0.2,2.7-0.5,4-0.8c0.2,1.3,0.7,2.3,1.5,3c-0.8,0.4-1.5,1-2,1.9
		C52.1,69.613,52.2,69.713,52.2,69.613z M34.5,69.713c0,0,0,0,0-0.1c0.6,0.2,1.3,0.4,2,0.5c-0.5,0.3-0.9,0.6-1.3,1
		c-0.2-0.4-0.4-0.7-0.7-1C34.5,70.013,34.5,69.913,34.5,69.713z M42.2,70.513c-0.7,0.3-1.2,0.7-1.8,1.1c-0.4,0.2-0.9,0.4-1.4,0.5
		c-0.8,0.3-1.6,0.6-2.3,1c-0.3-0.5-0.6-0.8-0.9-1.1c-0.1-0.1-0.1-0.2-0.1-0.2c0.9-0.3,1.8-0.8,2.6-1.4
		C39.6,70.613,40.9,70.613,42.2,70.513z"/>
	<path style="fill:#BE3689;" d="M44,29.713c-0.2,0.2-0.6,0.3-1,0.5c-0.8,0.4-1.3,1-1.7,1.9c0,0-0.1,0.1-0.2,0.1
		c-2.1-1.9-4.3-2.6-6.5-2.1c-0.4-0.3-1.1-0.5-2-0.6c0-0.2,0-0.3,0-0.4c0.2-0.7,0.1-1.2-0.3-1.5c-0.4-0.1-0.7,0-0.7,0.3
		c-0.2,0.9-0.1,1.8,0.3,2.6c0.2,0.1,0.4,0.3,0.6,0.4c-0.3,0.2-0.6,0.4-1,0.7c-0.6-0.3-1.4-0.5-2-0.9c0-0.1,0-0.2,0-0.4
		c0.1-0.4-0.1-0.7-0.4-1.1c-0.1,0.1-0.2,0.1-0.3,0.2c-0.4,0.8-0.4,1.5,0.1,2.2c0.4,0.4,0.9,0.8,1.4,0.9c-0.2,0.1-0.2,0.2-0.4,0.4
		c-1,0-1.9-0.5-2.6-1.3c-0.5-0.2-0.7,0-0.7,0.4c0,0.9,0.5,1.5,1.5,1.8c0.3,0.1,0.5,0.1,0.7,0.2c-4.5,4.7-4.4,9.6,0.3,14.5
		c4.8,1.4,8.9,0.5,12.5-2.4c2.6,2.3,5.6,2.8,9.1,1.4c5.4-2,7.2-5.7,5.4-10.9c-0.1-0.1-0.2-0.3-0.3-0.4c-0.8-1.5-1.8-2.8-3-3.7
		c0.2-0.1,0.4-0.2,0.6-0.3c0.1-0.1,0.2-0.2,0.4-0.4c0.9-0.8,1-1.7,0.3-2.6l0,0c-0.7,1.1-1.6,1.8-2.7,2.2c-0.4-0.2-0.8-0.4-1.1-0.6
		c0.4-0.4,0.8-0.9,1.2-1.3c0-0.2,0-0.3,0-0.4c0.1-0.7,0-1.3-0.4-1.9h-0.2c-0.2,1.8-1.1,2.8-2.4,3c-0.1,0-0.1,0-0.1,0
		c0-0.1,0-0.2,0.1-0.2c0.5-1.2,0.6-2.3,0.3-3.4c-0.9,0.5-1.4,1.6-1.8,3.2c0,0,0,0,0,0.1C46,29.713,45.1,29.713,44,29.713z
		 M39,32.813c0,0,0,0,0.1,0c1.1,0.7,2.1,1.4,2.9,2c0.4-0.3,0.7-0.7,0.8-1.1c4.4,0.9,8.4,2.3,11.8,4.2c0.1,0.5,0.2,1,0.3,1.5
		c0.5,3-0.7,5.2-3.6,6.7c-3.9,1.3-7.1,0.5-9.8-2.4c-6.8,5.9-11.9,5.2-14.9-1.9c0-0.1,0-0.2,0-0.3c0.3-1.7,0.9-3.2,1.6-4.5
		c0.3,0,0.7-0.2,1.2-0.6c2.6-1.8,5.4-3.1,8.6-3.9c0.1,0,0.2,0.1,0.3,0.2C38.5,32.713,38.8,32.813,39,32.813z M36.9,31.213
		c0.1,0.1,0.3,0.2,0.4,0.3c-1.4,0.3-2.8,0.7-4.3,1.3c-0.7,0.3-1.4,0.6-2,0.9c1.1-0.9,2.5-1.7,4-2.4
		C35.6,31.313,36.2,31.313,36.9,31.213z M54.4,37.213c-3.4-2.5-7.1-3.8-11.4-4.1c0.2-0.4,0.4-0.9,0.6-1.3
		C48.4,31.213,52,33.013,54.4,37.213z"/>
	<path style="fill:#BE3689;" d="M45.1,39.313c0-0.1,0-0.2,0-0.3c-0.4-0.7-1-1.2-1.8-1.5c-0.3-0.1-0.6-0.1-0.8,0
		c-1,0.3-1.3,0.9-1.1,1.8C42.5,41.113,43.8,41.113,45.1,39.313z"/>
	<path style="fill:#BE3689;" d="M40.6,39.113c0-0.1-0.1-0.2-0.1-0.4c-0.6-0.8-1.4-1.1-2.5-0.9c-0.4,0.2-0.6,0.5-0.8,1
		c-0.2,0.9,0.1,1.6,0.9,2.2c0.6,0,1.1-0.1,1.6-0.2c0.2,0,0.3-0.1,0.4-0.2c0.4-0.3,0.6-0.7,0.6-1.1
		C40.6,39.313,40.6,39.213,40.6,39.113z"/>
	<path style="fill:#BE3689;" d="M17.4,29.613c0.3-0.4,0.7-0.7,1-1c0.5-0.4,1-1,1.4-1.5c0-0.2,0-0.3,0-0.5c-0.8,1.2-1.7,2.2-2.8,3
		C17.1,29.613,17.2,29.613,17.4,29.613z"/>
	<path style="fill:#BE3689;" d="M41,54.513c-0.8,0.1-1.6,0.5-2.4,1c-1.6,1-2.7,2.3-3.5,3.8c0.2,0.1,0.4,0.1,0.5,0.1
		c4.7-4.4,9.3-4.6,13.8-0.6c0-0.1-0.1-0.2-0.1-0.3C47.1,56.013,44.4,54.613,41,54.513z"/>
	<path style="fill:#BE3689;" d="M44.1,58.213c-2,0.1-3.4,0.2-4.3,0.5c0,0.2,0,0.2,0,0.2c3.6,1,5.2,0.7,4.7-0.8
		C44.4,58.213,44.3,58.213,44.1,58.213z"/>
	<g>
		<path style="fill:#BE3689;" d="M75.3,25.613c0.1-0.3,0.2-0.5,0.2-0.8c0.8-3,0-5.5-2.2-7.5c-0.5,0-0.9,0-1.3-0.1c0,0.1,0,0.1,0,0.1
			c-1.1,0.3-2.2,0.7-3.4,1c-0.1,0.2-0.2,0.2-0.3,0.4c-0.1-0.1-0.2-0.2-0.3-0.2c-3-2.5-6.4-3.9-10.3-4.4c-0.1-0.8,0-1.6,0.1-2.5
			c0-0.1,0-0.2,0-0.3c0.1,0,0.2,0.2,0.3,0.2c0.9,0,1.9,0,2.8,0c0-0.1,0.1-0.2,0.1-0.2c4-3.3,4.7-7.1,1.8-11.3
			c-3.4-0.1-5.9,0.4-7.5,1.6c-2.5,0.2-4.8,0.3-7,0.3c-2.2-0.1-4.6,2-7.4,6.2c-2.5-4.7-7-6.7-13.4-5.8c-2.4,0.7-4.8,1.1-7.4,1.2
			c-1.7,0.1-3.5,0-5.2-0.2c-0.2,1.9,0.1,3.7,0.6,5.3c0.4,1,0.9,1.9,1.5,2.6c1.4,1.6,3.3,2.4,5.9,2.3c0.2-0.2,0.4-0.4,0.6-0.7
			c0.1-0.1,0.2-0.2,0.3-0.3c0.1-0.2,0.2-0.3,0.3-0.4c0.2-0.1,0.3-0.2,0.4-0.4c0.3-0.8,0.5-1.7,0.6-2.6c0.1-0.4,0.3-0.8,0.5-1.1
			c0.2-0.3,0.4-0.5,0.5-0.8c2.8-1,5.3-0.6,7.3,1.3c0.4,0.3,0.7,0.6,1,0.8c-2.1-1-4.3-1.5-6.9-1.5c-1,1.4-1.7,3-1.9,4.9
			c-0.1,0-0.1,0-0.2,0c0.1,0.1,0.1,0.3,0.1,0.5v0.1c0.1,0.5,0.1,1.1,0,1.7c-0.6,0.2-1.2,0.5-2,0.7c-3.8,1.1-7,3.3-9.6,6.3
			c-0.5-0.1-0.9-0.1-1.3-0.1c-2,0.1-3.4,1-4.3,2.7c0.2,1.6,0.8,3,1.6,4.1c1.5,1.8,3.8,2.6,7.1,2.4c1.1-0.8,2-1.8,2.8-3
			c0-0.1,0-0.2,0-0.3c0-0.5-0.1-1-0.1-1.4c-0.1-0.5,0-0.8,0.1-1.2c1.2-0.1,2.3-0.2,3.4-0.2c-0.2,0.2-0.4,0.4-0.6,0.6l2,0.2
			c0.3-0.2,0.5-0.4,0.8-0.6h0.1c0,0,0,0-0.1,0c0.1-0.1,0.2-0.2,0.2-0.2c1.3-0.7,2.5-1.3,3.8-1.9c1,0.9,2.2,1.4,4,1.5
			c0.1-0.1,0.2-0.1,0.3-0.2c3-0.9,4.9-2.4,5.7-4.3c2-0.4,4-0.5,5.9-0.1c-0.1-0.1-0.1-0.1-0.2-0.2v-0.1c1.5,2.3,3.9,3.8,7.3,4.4
			c0.1-0.1,0.2-0.2,0.3-0.2c0.2-0.2,0.4-0.3,0.5-0.4c0.6,0.4,1.1,0.7,1.6,1.1c-0.3-0.1-0.5-0.1-0.8-0.1c0.9,0.5,1.8,1.1,2.7,1.7
			c2.2,0.6,4.2,1.3,6,2.2c-0.7-0.6-1.4-1.1-2.2-1.7c-0.2-0.2-0.4-0.5-0.6-0.8c1.3-1,2.8-0.9,4.5,0.3c0.6,0.5,1.1,0.4,1.6-0.2
			c-0.2-0.9-0.7-1.6-1.4-2.4c-0.2-0.3-0.4-0.6-0.6-1v-0.1c-0.2-0.2-0.4-0.4-0.6-0.6c1.1,0.6,2.2,1.4,3.3,2.1c-0.1,0.4-0.1,0.7,0.1,1
			c0.2,0.9,0.6,1.8,1.1,2.7c0.8,0.8,1.8,1.1,2.9,0.9C72.4,27.713,73.9,26.713,75.3,25.613z M56.7,8.113c-0.1,0-0.2,0-0.3,0
			c-0.9-0.9-1.8-1.7-2.6-2.6c-4.4-0.7-7.7,0.8-9.8,4.6c0,0.1-0.1,0.2-0.1,0.4c-0.3,0.5-0.5,1.1-0.5,1.7c0,0.1,0,0.3,0,0.4
			s0,0.2,0.1,0.3c-0.5-0.3-1-0.4-1.5-0.5c0.1-0.3,0.2-0.6,0.3-0.9c-0.1,0-0.2,0-0.3-0.1h-0.1c-0.2,0.1-0.3,0.1-0.4,0.1
			c0.1-0.2,0.1-0.4,0.1-0.5v-0.2c0-0.1,0-0.2,0-0.2c0.2-1,0.4-1.9,0.5-2.9c3.6-3.6,7.9-5,13-4.1c2.4-1.7,4.8-2.2,7.3-1.4
			c0.1,0.2,0.2,0.3,0.3,0.4c0.3,0.9,0.5,1.7,0.7,2.6c-0.6,2.4-2,4.1-4.3,5c-0.6-0.4-1.2-0.9-1.8-1.3c0-0.2-0.1-0.4-0.2-0.6
			C57,8.213,56.9,8.213,56.7,8.113z M53.1,7.013c0.3,0.3,0.6,0.6,0.9,0.8c-4.3,0.6-7.4,2.5-9.3,5.9c-0.1,0-0.1-0.1-0.1-0.1
			c0-0.5,0.2-0.8,0.5-1.1c0-0.4,0-0.8,0-1.2c0,0,0-0.1,0-0.2C46.9,7.813,49.6,6.513,53.1,7.013z M51.3,14.313
			c-0.1-0.1-0.2-0.2-0.3-0.2c-0.7-0.3-1.3-0.5-2-0.6c-0.1,0-0.3,0.1-0.5,0.1c-1.6,0.1-2.8,0.7-3.4,1.9c0,0,0,0-0.1,0
			c0,0-0.1,0-0.2,0.1c-0.1-0.4-0.1-0.8-0.1-1.2c0.1,0,0.1,0,0.1-0.1c-0.1,0-0.1,0-0.1,0c0-0.1,0-0.2,0-0.3c3.2-2.7,7-4,11.3-4.2
			c0.2,0.1,0.3,0.2,0.5,0.3c0,0.7,0.1,1.3,0.2,1.9c0,0.7,0.1,1.4,0,2c0,0-0.1,0-0.2,0c-0.3,0-0.5,0.1-0.3,0.1
			c0.1,0.1,0.3,0.2,0.5,0.2c-0.2,2.2-0.8,4.1-1.8,5.9c-0.4,0.3-0.8,0.5-1.1,0.8c-0.2,0.1-0.3,0.2-0.4,0.4c-0.8,0.1-1.6,0.3-2.4,0.7
			c-0.3-0.1-0.6-0.2-0.9-0.4c-2.1-0.9-3.9-2.3-5.3-4.1c-0.1,0-0.1,0-0.1,0c0-0.5,0-0.9,0-1.4c0.8,0.2,1.6,0.3,2.3,0.4
			c0.6,0.5,1.2,1,1.8,1.4c0.8,0.5,1.5,0.5,2.1-0.2c0.1-0.6-0.3-1-1.2-1.1c-0.8-0.1-1.4-0.5-1.9-1.1c-0.5,0-0.9,0-1.3-0.1
			C48.1,14.913,49.7,14.513,51.3,14.313z M40.9,12.213c-0.5-0.1-1-0.1-1.6-0.1c0-0.1,0-0.4,0-0.5c-0.3-0.1-0.5-0.1-0.8-0.1
			c0.1,0.2,0.2,0.5,0.2,0.7c0,0-0.1,0-0.2,0c0,0.1,0,0.1-0.1,0.2c-0.2-0.3-0.5-0.6-0.8-0.8c0.1-0.2,0.1-0.5,0-0.7
			c-2.3-5.7-6.6-7.1-13-4.4c-0.3,0.8-0.6,1.6-1,2.5c-0.1,0.4-0.2,0.8-0.3,1.2c0,0.3-0.1,0.5-0.2,0.8c-0.1,0.1-0.2,0.2-0.3,0.3
			c-0.2,0.2-0.3,0.3-0.4,0.4c-0.2,0.2-0.3,0.3-0.4,0.4c-0.4,0-0.9,0.1-1.4,0.1c0,0,0-0.1-0.1-0.1c-0.8-0.6-1.6-1.1-2.2-1.9
			c-0.2-0.2-0.4-0.4-0.6-0.6c-0.2-0.3-0.4-0.5-0.6-0.8c-0.1-0.2-0.3-0.5-0.5-0.7c0-0.3,0-0.5,0-0.7c-0.1-0.6-0.2-1.1-0.4-1.6
			c0-0.1-0.1-0.2-0.1-0.3c0-0.2,0-0.3,0-0.4s0-0.2,0-0.4c1.3-0.1,2.5-0.2,3.7-0.3c0.7,0,1.4-0.1,2.1-0.2c0,0.1,0.1,0.1,0.1,0.1
			c0.2,0.1,0.4,0.2,0.5,0.3c0.2,0.1,0.4,0.2,0.7,0.3c0.4,0.1,0.9,0.1,1.3,0.2C33.2,2.113,38.6,4.413,40.9,12.213z M39.3,14.713
			c0-0.1,0-0.2,0-0.4c0.3-1,1.1-1.1,2.4-0.3c0.5,0.3,1,0.6,1.6,0.8c0,0.4,0,0.8,0,1.2c0.1,0.5,0,1-0.3,1.5c-0.1,0.1-0.2,0.2-0.2,0.3
			v0.1c-1-0.1-1.9-0.2-2.9-0.2c-0.1,0-0.4-0.1-0.6-0.2v-0.2c0-0.3,0-0.7,0-1.1C39.3,15.713,39.3,15.213,39.3,14.713z M34.4,11.713
			c1.3,1,2.5,1.6,3.5,1.6c-0.2,0.5-0.3,1.2-0.4,1.8c-1.7-1.5-3.9-2-6.5-1.6l-0.4,0.1c1.9,0.6,3.7,1.2,5.6,1.8
			c-0.3-0.1-0.7,0-1.2,0.1c-0.7,0.3-1.4,0.8-2.1,1.3c-0.1,0.2-0.2,0.3-0.3,0.5l0.1,0.2c1.7-0.7,3.4-1,4.9-0.8
			c0.1,0.4,0.1,0.8,0.2,1.1c-0.1,0-0.2,0-0.3,0c-0.1,0.1-0.2,0.1-0.2,0.2c0.2,0,0.4,0.1,0.6,0.2c0.1,0.4,0.2,0.8,0.2,1.1
			c0,0.2,0,0.3,0,0.4c-1.7,1.4-3.7,2.3-5.8,2.9c-1-0.5-1.9-1.1-2.7-1.9c-0.1,0-0.2,0-0.3,0c-0.1-0.1-0.2-0.1-0.3-0.2
			c-0.1,0-0.2-0.1-0.4-0.3c-1.1-1.9-1.6-4-1.5-6.4c0-1.4,0.4-2.8,0.9-4.1c0.1-0.1,0.1-0.2,0.1-0.2c0.8-0.1,1.5-0.2,2.3-0.3
			C31.8,9.913,33.1,10.713,34.4,11.713z M67,18.813c0.2,0.2,0.5,0.5,0.8,0.8v0.1c0,0,0.1,0,0.2,0c0.5,0.4,1.3,0.7,2.3,0.9
			c-0.1-0.1-0.2-0.2-0.3-0.3c-0.1-0.3-0.3-0.5-0.5-0.7c1.3,0,2.6,0,3.9,0.2c0.3,0.5,0.5,1,0.7,1.5c0.4,0.9,0.4,1.8-0.1,2.7
			c-1.4,2.1-3.2,2.9-5.5,2.3c-0.3-0.4-0.6-0.8-0.6-1.3c0.3,0.2,0.6,0.5,1,0.8c0,0,0-0.1-0.1-0.2c-2.3-4.4-6-7-11.1-7.7
			c0.1-0.4,0.2-0.7,0.3-1c0,0,0,0,0.1,0c-0.1-0.1-0.1-0.2-0.1-0.3c0,0,0,0,0,0.1c0-0.1,0-0.1,0-0.1c-0.1-0.6-0.3-1.2-0.3-1.9
			C60.8,16.013,64,17.313,67,18.813z M55.2,22.013c0.1,0,0.2-0.1,0.3-0.2c0.5-0.5,0.9-1,1.2-1.6c2,1.3,4.1,2.4,6.4,3.2
			c0.1,0.2,0.1,0.3,0.2,0.4c0,0.2,0.1,0.3,0.2,0.4c-0.3,0.1-0.6,0.1-1,0c-0.6-0.1-1.3-0.1-2-0.2c-0.3,0-0.5,0-0.7,0.1
			c-0.4,0.2-0.7,0.6-0.9,0.9C57.8,23.913,56.5,22.913,55.2,22.013z M56.9,19.813c0-0.1,0-0.1,0-0.1c0.2-0.2,0.3-0.5,0.4-0.7
			c2,0.7,3.9,1.6,5.7,2.6c0,0.4,0,0.8,0,1.1c0,0.1,0,0.1,0,0.1C61.2,21.413,59.2,20.313,56.9,19.813z M13.1,29.213
			c-0.7-0.5-1.3-1.1-1.8-1.6c-0.3-0.3-0.5-0.5-0.7-0.8c-0.3-0.5-0.6-1.1-0.7-1.7c0.5-0.6,1.2-1,2-1.3c0.7-0.2,1.5-0.3,2.5-0.2
			c0.1-0.2,0.3-0.4,0.4-0.6c3-3.1,6.5-5.5,10.7-7c-0.1,0.4-0.2,0.8-0.2,1.2c0,0.1,0,0.3-0.1,0.3c0.2,0,0.3,0,0.4,0
			c0.1,0.3,0.2,0.6,0.4,1c-0.5-0.1-0.9,0-1.4,0.3c-2.8,1.5-5.1,3.5-6.8,5.9c0,0.2,0,0.3,0.1,0.3c0.2,0.4,0.4,0.8,0.4,1.2
			c0,0.5,0,1-0.2,1.5c-0.2,0.3-0.4,0.5-0.6,0.8c-0.4,0.3-0.8,0.7-1.1,1.1C15.3,29.513,14.2,29.413,13.1,29.213z M26,19.813
			c0.1-0.1,0.3-0.2,0.4-0.3c0.5,0.8,1.1,1.4,1.9,1.9c-0.7,0.3-1.3,0.7-2,1.2c-0.8,0.5-1.5,1-2.1,1.6c-0.8-0.6-1.6-0.9-2.4-1.1
			c1.3-0.9,2.4-1.8,3.6-2.7c0.4-0.2,0.9-0.3,1.4-0.3c-0.1-0.1-0.2-0.2-0.2-0.2C26.4,19.813,26.2,19.813,26,19.813z"/>
	</g>
</g>
</svg>
