<?xml version="1.0" encoding="iso-8859-1"?>
<!-- Generator: Adobe Illustrator 12.0.1, SVG Export Plug-In . SVG Version: 6.00 Build 51448)  -->
<!DOCTYPE svg PUBLIC "-//W3C//DTD SVG 1.1//EN" "http://www.w3.org/Graphics/SVG/1.1/DTD/svg11.dtd" [
	<!ENTITY ns_svg "http://www.w3.org/2000/svg">
	<!ENTITY ns_xlink "http://www.w3.org/1999/xlink">
]>
<svg  version="1.1" id="Layer_1" xmlns="&ns_svg;" xmlns:xlink="&ns_xlink;" width="86.3" height="89.34" viewBox="0 0 86.3 89.34"
	 style="overflow:visible;enable-background:new 0 0 86.3 89.34;" xml:space="preserve">
<g>
	<path style="fill:#BE3689;" d="M86.3,83.6c0-0.1-1.5-1.5-4.5-4.4c-3-2.8-8.8-4.6-17.3-5.3c-0.8,0.1-1.7,0.3-2.5,0.5
		c0-0.2,0-0.4,0-0.6s0-0.3-0.1-0.4c-0.1-0.4-0.4-0.8-0.8-1.1c3.2-2.3,5.6-5.5,7.1-9.8c3.4-10,1.5-18.2-5.8-24.5
		c0.1-0.1,0.1-0.2,0.2-0.2c-0.1-0.3-0.1-0.5-0.2-0.7c-0.2-0.4-0.4-0.8-0.6-1.2c0-0.4,0-0.8,0-1.1c0-0.8,0-1.5,0-2.3
		c1.6-0.8,3.4-1.3,5.3-1.4c0-0.2-0.1-0.4-0.1-0.6c-0.5-1.2-1-2.6-1.4-3.9c0.1-0.2,0.2-0.5,0.2-0.7c0.2-0.5,0.3-1,0.6-1.5
		c0.1-0.1,0.1-0.1,0.3-0.1c0.1,0,0.2,0,0.3,0c1.5,1.7,3.2,3.1,5,4.1c0.4-0.2,0.7-0.5,1-0.8c2.6-3.1,3.2-6.5,1.6-10.3
		c-0.1-0.2-0.2-0.2-0.4-0.3c-0.4-0.1-0.8-0.2-1.2-0.2c-1.9,0.3-3.5,1.2-5,2.7c-4-0.6-7.2-0.1-10,1.6c-0.2-1-0.5-2-0.9-3
		C57,18,56.9,18,56.7,17.9c-0.9-0.1-1.8-0.2-2.7-0.3c-4.2,0.5-7.4,2.5-9.3,5.9c-0.1,0-0.1-0.1-0.1-0.1c0-0.5,0.2-0.8,0.5-1.1
		c0-0.4,0-0.8,0-1.2c0-0.4,0-0.9,0-1.3c-0.2,0-0.4,0-0.6,0c0.9-3.6,2.5-6.8,5-9.7c2.3,1.2,5,1.1,8.1-0.2c0.1-0.1,0.1-0.2,0.2-0.2
		c0.2-0.4,0.5-0.8,0.7-1.2c0.1-0.1,0.2-0.2,0.3-0.4c0-0.1,0-0.2-0.1-0.3c-0.9-4.8-3.9-7.2-9.2-7.3c-0.9,1-1.5,2.4-1.6,4
		c0,0.8,0,1.6,0,2.5c-0.2,0.1-0.4,0.3-0.6,0.5c-2.6,2.6-4.3,5.2-5.2,8c-0.2-1.5-0.6-2.9-1.2-4.3c0.2,0.1,0.3,0.1,0.5,0.1
		c0-0.2,0-0.3-0.1-0.4c-0.3-1.1-0.9-2.1-1.5-3c0.5-1,0.7-2.2,0.6-3.6C40.3,3.1,40.2,2,40,0.9c-0.2-0.1-0.5-0.2-0.8-0.3
		C37.8,0.4,36.4,0.2,35,0c-0.3,0.3-0.8,0.5-1.4,0.8c-2.6,0.9-4.5,2.5-5.8,4.8c0,0.2,0,0.3,0,0.4c0,0.7,0,1.3,0.1,1.9
		c0,0.1,0,0.2,0.1,0.4c2.3,2.2,5,3.4,8.1,3.6c0.8,1,1.3,2.1,1.4,3.4c0.2,1.2,0.3,2.3,0.6,3.3c-0.3-0.1-0.6-0.2-0.9-0.3
		c0.7,1.1,1.2,2.4,1.5,3.7c0,0-0.1,0-0.2,0c0,0.1,0,0.1-0.1,0.2c-2.9-3.1-6.5-4.6-10.9-4.6c-0.6,0.8-1.1,1.7-1.4,2.7
		c-1.5-1.4-3.3-2.1-5.6-2l0,0c-1.3-2.3-3.2-4-5.5-5.2c-0.1,0.1-0.2,0.3-0.4,0.4c-0.7,0.6-1.5,1.2-2.2,1.6c-0.5,0.9-0.8,1.8-1,2.7
		c-0.2,2.2,0.2,4.4,1.1,6.3c0.1,0.2,0.2,0.3,0.4,0.4c0.2,0.3,0.5,0.5,0.7,0.8c1.9-0.5,3.5-1.3,4.7-2.5c0.2,0.7,0.5,1.3,0.7,2
		c-0.8,1.5-1.8,2.8-3.1,4.1c2.2,0.6,3.9,1.8,5,3.6c0,0,0-0.1,0-0.2s0.1-0.1,0.2-0.2c0.1,0.3,0.1,0.5,0.1,0.8
		c0.1,0.1,0.1,0.2,0.1,0.3c0,0,0,0.1,0.1,0.2c0,0.1,0,0.2,0,0.4c-0.1,0.2-0.1,0.5-0.1,0.7c-0.2,0.1-0.3,0.1-0.5,0.2c0,0,0,0.1,0,0.2
		c0.1,0,0.2,0,0.4,0c-0.3,1.1-0.9,2.1-1.8,3c0.3,0.1,0.7,0.2,1.1,0.3c-3.3,3.6-5.6,7.9-7,13c-2.3,9,0.2,15.7,7.6,20.1
		c0.4,0.2,0.8,0.4,1.2,0.7c-0.1,0-0.2,0-0.3,0.1c-0.3,0.2-0.6,0.4-0.9,0.8c0,0-0.1,0.1-0.1,0.2c0,0.3,0,0.5,0,0.8
		c0,0.1,0.1,0.2,0.1,0.3c0.1,0,0.2,0.2,0.3,0.2c-2.2-0.6-4.4-0.8-6.9-0.6c-1.3,0.4-2.6,0.7-3.9,1.1c-1.2,0.2-2.9,1.3-5,3.3
		c-2.2,2-3.5,3.4-4,4.1c-0.7,0.8-0.9,1.8-0.5,2.8c0.1,0.3,0.2,0.5,0.3,0.8c0.5,0.1,1.1,0.2,1.7,0.2c-1.4,0.3-2.5,1-3.1,2.2
		c0.1,0.1,0.2,0.2,0.2,0.1c2.6-0.2,4.1-0.9,4.3-2.1c1.1,0.2,2.2,0.3,3.4,0.4c-1.4,0.4-2.6,1-3.8,1.9c0.1,0.2,0.1,0.2,0.1,0.2
		c2.7-0.4,4.6-1,5.7-2c1.2,0.1,2.4,0.1,3.6,0.2c-1.2,0.4-2.4,1-3.5,1.8c0.4,0.6,1.1,0.7,1.9,0.3c0,0,0.2-0.1,0.3-0.1
		c2-0.6,3.5-1.2,4.5-2c1.3,0,2.6,0,3.9,0c-1,0.5-2,1-3,1.6c0.3,0.2,0.6,0.2,0.8,0.2c1.9-0.6,3.8-1.3,5.6-2c1.8-0.2,3.5-0.4,5.3-0.6
		c-1.7,0.8-3.2,1.7-4.8,2.6c0.1,0.1,0.2,0.2,0.3,0.2c0.4,0.2,0.8,0.3,1.2,0.3c0.1-0.2,0.3-0.3,0.4-0.3c2.7-1.3,5.5-2.5,8.3-3.7
		c0.8-0.1,1.7-0.3,2.6-0.5c0-0.2,0-0.4-0.1-0.6c1.9-0.8,3.7-1.6,5.6-2.4c-0.2-0.2-0.4-0.3-0.6-0.3l0,0c1.5-0.8,3-1.4,4.4-1.9
		c0.4-0.1,0.8-0.2,1.1-0.3c-0.3,0.4-0.6,0.9-0.8,1.5c-5.4,1.8-9.8,4.5-13.1,7.8c0.2,0.1,0.4,0.1,0.6,0c4.8-2.4,8.9-4.8,12.3-7.4
		c-0.1,0.5-0.3,1-0.3,1.6c0.6,0.4,1.2,0.8,1.9,1.1c-3.5,1-6.1,2.7-7.9,5.1c0.2,0.1,0.3,0.1,0.5,0c2.7-1.7,5.6-3.2,8.7-4.5
		c0.9,0.3,1.8,0.6,2.8,0.8c-1.9,1-3.6,2.1-5.3,3.3l0.1,0.2c2.4-0.8,4.7-1.9,6.8-3.3c1.3,0.5,2.6,0.8,4,1c-0.7,0.3-1.5,0.6-2.4,0.9
		c0,0.1-0.1,0.1-0.1,0.2c-0.8,0.4-1,0.9-0.7,1.5c0.8,0.2,1.6,0,2.4-0.4c1.7-0.8,2.7-1.5,3.1-2.1c0.7,0.1,1.4,0.1,2.1,0
		c0.7,0.1,1.5,0.2,2.3,0.2c-0.8,0.5-1.6,1.1-2.2,1.7v0.3c2.4-0.3,3.7-1,4-1.9c1.5,0,3,0,4.5-0.1c-0.5,0.4-1,0.8-1.2,1.3
		c0.2,0.1,0.4,0.2,0.7,0.1c1.7-0.3,2.9-0.9,3.8-1.7c1.4-0.2,2.9-0.4,4.4-0.7c-1.1,0.6-2,1.5-2.7,2.5c0.7,0.5,1.4,0.4,2.4-0.1
		c2.3-1.3,3.8-2.4,4.4-3.4C83.9,84.5,85.1,84,86.3,83.6z M54.9,3.9c0.6,0.4,1.2,1,1.7,1.6c0.1,0.3,0.1,0.5,0.2,0.8
		C56.9,6.5,57,6.8,57.1,7c0.1,0.2,0.1,0.3,0.2,0.4c-2.2,1-4.3,1.6-6.5,2c1.3-0.4,2.1-1.2,2.3-2.3c-0.1,0-0.2,0-0.3,0.1
		c-1.7,0-3,0.7-3.8,2c-2.4,2.4-4.2,5.2-5.5,8.3c0,0.5-0.1,1-0.2,1.4c-0.5,1.5-0.6,2.6-0.2,3.6c-0.3-0.1-0.5-0.2-0.8-0.2
		c0-0.1,0-0.1,0-0.2C42.8,16.6,45,12,48.9,8.2c0.1,0.1,0.2,0.1,0.4,0.1c0-0.2,0-0.3,0-0.4c0.2-0.2,0.5-0.5,0.8-0.8c0,0,0,0-0.1,0
		c0.3-0.5,0.5-0.9,0.6-1.5c-0.5,0.2-1,0.4-1.3,0.6c0-0.7,0.1-1.4,0.3-2c0.1-0.5,0.1-1,0-1.6c0.1-0.1,0.1-0.1,0.2-0.2
		c0.7-0.1,1.4-0.2,2.1-0.3C52.9,2.6,53.9,3.2,54.9,3.9z M37.4,6c0.3,0.6,0.6,1.2,1,1.7c1,4,1.8,8,2.5,11.9c-0.2-0.1-0.5-0.2-0.7-0.2
		c0.3,0.9,0.5,1.7,0.7,2.6c-0.4-0.1-0.9-0.1-1.4-0.1c0.4-1,0.5-2.1,0.4-3.3c-0.2-2.2-0.6-4.3-1.4-6.3c0-0.1-0.1-0.2-0.1-0.3
		c-0.1-0.1-0.1-0.2-0.2-0.3c-1-1.5-2.2-2.9-3.6-4.2l-0.2,0.1c0.2,0.7,0.6,1.4,0.9,2c-0.1,0.1-0.2,0.1-0.3,0.1
		c-0.3,0.1-0.6,0.1-0.9,0.2c-0.6-0.3-1.2-0.5-1.9-0.7c-0.3-0.1-0.7-0.2-1.1-0.3c-0.5-0.6-1.1-1.2-1.7-1.8c0-0.1-0.1-0.2-0.1-0.3
		c2-3.9,5.2-5.5,9.6-4.8c0,1.4-0.1,2.8-0.2,4.1c-0.1,0.2-0.1,0.4,0,0.6c-0.4-0.3-0.8-0.6-1.2-0.8L37.4,6z M51.3,24.1
		c-0.1-0.1-0.2-0.2-0.3-0.2c-0.7-0.3-1.3-0.5-2-0.6c-0.1,0-0.3,0.1-0.5,0.1c-1.6,0.1-2.8,0.7-3.4,1.9c0,0,0,0-0.1,0
		c0,0-0.1,0-0.2,0.1c-0.1-0.4-0.1-0.8-0.1-1.2c0.1,0,0.1,0,0.1-0.1c-0.1,0-0.1,0-0.1,0c0-0.1,0-0.2,0-0.3c3.3-2.7,7.2-4.1,11.7-4.3
		c0.1,0.8,0.2,1.5,0.3,2.3c0.1,1.2,0,2.3-0.1,3.5c-0.1,0.1-0.1,0.2-0.1,0.4c-0.3,1.5-0.8,2.9-1.6,4.3c-0.4,0.3-0.8,0.5-1.1,0.8
		c-0.2,0.1-0.3,0.2-0.4,0.4c-0.8,0.1-1.6,0.3-2.4,0.7c-0.3-0.1-0.6-0.2-0.9-0.4c-2.1-0.9-3.9-2.3-5.3-4.1c-0.1,0-0.1,0-0.1,0
		c0-0.5,0-0.9,0-1.4c0.8,0.2,1.6,0.3,2.3,0.4c0.6,0.5,1.2,1,1.8,1.4c0.8,0.5,1.5,0.5,2.1-0.2c0.1-0.6-0.3-1-1.2-1.1
		c-0.8-0.1-1.4-0.5-1.9-1.1c-0.5,0-0.9,0-1.3-0.1C48.1,24.7,49.7,24.3,51.3,24.1z M45.1,29.6v-0.1c1.5,2.3,3.9,3.8,7.3,4.4
		c0.1-0.1,0.2-0.2,0.3-0.2c0.2-0.2,0.4-0.3,0.5-0.4c0.6,0.4,1.1,0.7,1.6,1.1c-0.3-0.1-0.5-0.1-0.8-0.1c3,1.7,6,4,8.9,6.9
		c4.3,4.3,6.1,9.2,5.3,14.8c-0.7,5.5-3.8,10.5-9.1,14.9c-5.3,4.5-12.8,6-22.5,4.4c-2.5-0.4-4.9-0.9-7-1.7c-0.3-0.1-0.6-0.2-0.8-0.3
		s-0.3-0.1-0.3-0.1c-0.9-0.3-1.7-0.6-2.5-1c-0.1-0.1-0.2-0.1-0.3-0.1c-4.5-2.1-8.1-5-11-8.8c-0.6-1.7-0.8-3.5-0.7-5.4
		c0.8-9.8,4.6-17.4,11.4-22.9h0.1c0,0,0,0-0.1,0c0.1-0.1,0.2-0.2,0.2-0.2c1.3-0.7,2.5-1.3,3.8-1.9c1,0.9,2.2,1.4,4,1.5
		c0.1-0.1,0.2-0.1,0.3-0.2c3-0.9,4.9-2.4,5.7-4.3c2-0.4,4-0.5,5.9-0.1C45.2,29.7,45.2,29.7,45.1,29.6z M39.3,24.1
		c0.3-1,1.1-1.1,2.4-0.3c0.5,0.3,1,0.6,1.6,0.8c0,0.4,0,0.8,0,1.2c0.1,0.5,0,1-0.3,1.5c-0.1,0.1-0.2,0.2-0.2,0.3v0.1
		c-1-0.1-1.9-0.2-2.9-0.2c-0.1,0-0.4-0.1-0.6-0.2v-0.2c0-0.3,0-0.7,0-1.1c0-0.5,0-1,0-1.5C39.3,24.4,39.3,24.3,39.3,24.1z
		 M34.4,21.5c1.3,1,2.5,1.6,3.5,1.6c-0.2,0.5-0.3,1.2-0.4,1.8c-1.7-1.5-3.9-2-6.5-1.6l-0.4,0.1c1.9,0.6,3.7,1.2,5.6,1.8
		c-0.3-0.1-0.7,0-1.2,0.1c-0.7,0.3-1.4,0.8-2.1,1.3c-0.1,0.2-0.2,0.3-0.3,0.5l0.1,0.2c1.7-0.7,3.4-1,4.9-0.8
		c0.1,0.4,0.1,0.8,0.2,1.1c-0.1,0-0.2,0-0.3,0c-0.1,0.1-0.2,0.1-0.2,0.2c0.2,0,0.4,0.1,0.6,0.2c0.1,0.4,0.2,0.8,0.2,1.1
		c0,0.2,0,0.3,0,0.4c-1.7,1.4-3.7,2.3-5.8,2.9c-1-0.5-1.9-1.1-2.7-1.9c-0.1,0-0.2,0-0.3,0c-0.1-0.1-0.2-0.1-0.3-0.2
		c-0.1,0-0.2-0.1-0.4-0.3c-1.1-1.9-1.6-4-1.5-6.4c0-1.4,0.4-2.8,0.9-4.1c0.1-0.1,0.1-0.2,0.1-0.2c0.8-0.1,1.5-0.2,2.3-0.3
		C31.8,19.7,33.1,20.5,34.4,21.5z M73.8,18.1c0,0.2,0.1,0.3,0.1,0.4c1,3.1,0.4,5.8-1.5,8.3c-0.9-0.3-1.7-0.8-2.5-1.5
		c-0.1-0.2-0.1-0.3-0.2-0.4c-0.4-0.9-1.1-1.6-1.9-2.3c-3,0.2-5.9,0.5-8.8,0.9c-0.1,0.1-0.3,0.1-0.5,0.2c0-0.4,0.1-0.8,0.2-1.2
		c-0.2,0-0.3,0.1-0.4,0.1c-0.1-0.3-0.1-0.8-0.2-1.2c2.9,0.3,6.7-0.1,11-1.1C70.4,19,71.9,18.3,73.8,18.1z M65.3,24
		c-1,1.7-1.1,3.5-0.4,5.4c-2-1.6-4.4-2.2-7.1-2.1c0-0.2,0.1-0.4,0.2-0.6c0.2-0.1,0.4-0.1,0.6-0.1c0,0,0,0,0-0.1c0,0,0-0.1,0-0.2
		c-0.2,0.1-0.4,0.1-0.6,0.2c0-0.2,0-0.5,0.1-0.7c0.3-0.3,0.6-0.7,0.9-1C61,24,63.2,23.8,65.3,24z M57.2,28.9
		c0.2-0.4,0.3-0.7,0.4-1.1c2.3,0.3,4.4,1,6.4,1.8c-0.8,0.2-1.8,0.6-3,1.2c-0.2,0.3-0.4,0.7-0.5,1.1c-0.1,0.9-0.2,1.8-0.2,2.7
		c-0.3-0.2-0.5-0.4-0.6-0.6c-0.4,0.2-0.7,0.5-0.8,0.8c-1.1-1.1-2.4-2.1-3.7-3c0.1,0,0.2-0.1,0.3-0.2c0.4-0.3,0.7-0.7,0.9-1.1
		C56.4,29.9,56.7,29.3,57.2,28.9z M60.3,35.5c0,0.2,0,0.5,0,0.7c-0.1-0.1-0.3-0.3-0.4-0.5C60,35.6,60.1,35.5,60.3,35.5z M15.1,14.9
		c0.3,0.2,0.6,0.4,0.8,0.5c1.3,0.8,2.3,1.9,2.9,3.1c-0.2,0-0.5,0.1-0.8,0.1s-0.6,0.1-0.6,0.2h0.1c1.9,0,3.5,0.5,4.9,1.4
		c0.2-0.1,0.3-0.1,0.5-0.2c0.9,0.8,1.9,1.3,2.8,1.6c-0.1,0.3-0.1,0.7-0.1,0.9c-0.1,0-0.2-0.1-0.3-0.2c0,0.3,0,0.5,0,0.7
		c0,0,0.1,0,0.2,0c0,0.3,0,0.5,0,0.8c-1.1-1.3-2.5-2.1-4.2-2.5c-1,0-2,0-3.1-0.1c0,0,0,0-0.1,0c0,0.1,0,0.1,0,0.1H18
		c-0.1,0-0.2,0.1-0.2,0.2l0,0c-1.3,1-2.7,1.5-4.2,1.6c-0.2-0.7-0.5-1.4-0.7-2.2c-0.6-1.6-0.4-3.3,0.6-4.9
		C14.1,15.7,14.6,15.3,15.1,14.9z M24.8,26.4c0.2,0.2,0.4,0.5,0.5,0.9c0.2,0,0.3,0,0.3,0c0.2,0.7,0.5,1.5,0.9,2
		c-2.1-1.5-4.6-2.2-7.5-2c1.3-1.9,1.4-3.5,0.2-5c0.5,0.2,1.1,0.3,1.7,0.2c1.2,0.6,2.3,1.5,3.1,2.6c0.3,0.4,0.6,0.7,0.9,0.8
		C24.8,26.1,24.8,26.3,24.8,26.4z M25.1,30.3c0.4-0.2,0.8-0.3,1.2-0.3c0.7,0.3,1.3,0.7,2,1.2c-0.7,0.4-1.3,0.8-2,1.2
		c-0.4,0.2-0.8,0.5-1.1,0.8c-0.7,0.7-1.3,1.3-2,1.6c-0.4,0.4-0.8,0.8-1.1,1.2c0.1-0.4,0.3-0.8,0.4-1.2c0,0,0.1,0,0.2,0
		c0-0.3-0.1-0.6-0.1-0.9c0-2.1-1.2-4-3.8-5.5c2.4-0.1,4.6,0.3,6.6,1.1C25.3,29.8,25.2,30,25.1,30.3z M2.1,84
		c0.3-0.8,0.7-1.5,1.4-2.1c7.4-7.5,15.7-8.7,25-3.6c0.8,0.7,1.7,1.1,2.8,1.5c0-0.2-0.1-0.3-0.2-0.3c-0.5-0.6-1-1.2-1.7-1.6
		c0.1-0.1,0.1-0.1,0.1-0.2c-0.7-0.2-1.4-0.6-2.1-1.1c-0.1,0-0.3,0-0.3-0.1c-0.2-0.1-0.3-0.1-0.2,0.1c0,0,0.1,0.1,0.2,0.3
		c-1.7-1.1-3.4-1.9-5.3-2.4c0,0,0.1-0.1,0.2-0.2c-0.1-0.6,0-0.9,0.5-0.9c0.7-0.1,1.2-0.2,1.8-0.4c1.6,0.8,3.2,1.5,4.8,2
		c0.4,0.2,0.9,0.4,1.4,0.5c0.4,0.5,0.9,1.1,1.3,1.7c-1.3-1.2-2.9-1.9-4.8-2.3V75c0.1,0.4,0.3,0.6,0.6,0.9c0.2,0.1,0.5,0.2,0.8,0.3
		c0.3,0.2,0.7,0.4,1.2,0.4c0,0.1,0,0.1,0,0.1c0.2,0,0.3,0,0.4,0.1c0.3,0.2,0.5,0.5,0.6,0.8c0,0,0,0,0.1,0c0.1,0.1,0.2,0.1,0.4,0.2
		c0,0,0.1,0.1,0.2,0.2c-0.2,0-0.2,0-0.3,0c0.8,1.2,1.8,2,2.7,2.5c0.1,0.1,0.2,0.3,0.3,0.5c-0.2,0-0.3,0.1-0.5,0.1
		c0,0.5,0.2,0.8,0.5,1.2c0.4,0.3,0.7,0.7,1.1,1.1c0,0.1,0,0.1,0,0.1c-0.3,0.1-0.7,0.3-1,0.5c-2.1,0.2-4.2,0.5-6.3,0.6
		c-0.3-0.1-0.5-0.1-0.8-0.2c0,0.1,0,0.1,0,0.1c-0.4,0.1-0.6,0.2-1,0.3c-7,0.6-14.2,0.8-21.4,0.7C3.4,85.5,2.6,85,2.1,84z M33.4,76.3
		c0,0.1,0,0.3-0.1,0.4c0.3,0.2,0.5,0.2,0.7,0.4c0-0.2,0-0.5,0-0.7c4.2,0.9,8.5,1.1,12.9,0.5c0.5-0.1,1.1-0.2,1.7-0.2
		c0.8-0.2,1.6-0.3,2.4-0.5c-0.7,0.7-1.2,1.4-1.6,2.2c-0.7,0-1.5,0-2.2-0.2c-0.1,0.1-0.1,0.1-0.1,0.1s0,0-0.1,0
		c-0.4,0.2-0.8,0.5-1.3,0.6c-0.1,0-0.1,0-0.2,0c0,0,0,0-0.1,0.1c-0.8,0.2-1.8,0.3-2.9,0.2c-3-0.1-5.7-0.2-8.1-0.3
		c-0.1-0.3-0.2-0.7-0.2-1.1c-0.2,0.1-0.3,0.1-0.4,0.1c-0.3-0.6-0.6-1.2-1-1.8C33,76.2,33.2,76.2,33.4,76.3z M53.9,79.1
		c0,0.1,0,0.2,0,0.3c11.3-5.9,21.2-4.6,29.9,3.6c-8.7,2.1-17.6,2.8-26.5,2c-3.7-0.7-6.7-1.8-9.2-3.1c0-0.1,0.1-0.2,0.1-0.3
		c0.2-0.3,0.4-0.5,0.6-0.8c0.2,0.4,0.5,0.2,0.8-0.5c0.6-1.4,1.5-2.4,2.8-2.9c1-1.5,2.4-2.5,4.3-3.2c0.1-0.1,0.2-0.1,0.3-0.2
		c-0.1,0.4-0.4,0.8-0.8,1.2c0.2-0.2,0.3-0.3,0.5-0.5c1.2-0.5,2.3-1,3.3-1.7c0.2,0.3,0.5,0.5,0.9,0.8c0,0.1,0,0.2,0,0.2
		c-0.3,0.3-0.5,0.6-0.6,0.9c-1.2,0.2-2.3,0.6-3.4,1c-0.8,0.2-1.5,0.6-2,1.1c0,0,0,0-0.1,0c0-0.1,0-0.3-0.1-0.5
		c-0.3,0.2-0.6,0.4-0.9,0.7c0.1,0,0.2,0.1,0.2,0.2c-0.8,0.4-1.5,1-2,1.9c0.1,0.1,0.2,0.2,0.2,0.1C52.9,79.3,53.4,79.2,53.9,79.1z
		 M34.5,79.5c0,0,0,0,0-0.1c0.6,0.2,1.3,0.4,2,0.5c-0.5,0.3-0.9,0.6-1.3,1c-0.2-0.4-0.4-0.7-0.7-1C34.5,79.8,34.5,79.7,34.5,79.5z
		 M42.2,80.3c-0.7,0.3-1.2,0.7-1.8,1.1c-0.4,0.2-0.9,0.4-1.4,0.5c-0.8,0.3-1.6,0.6-2.3,1c-0.3-0.5-0.6-0.8-0.9-1.1
		c-0.1-0.1-0.1-0.2-0.1-0.2c0.9-0.3,1.8-0.8,2.6-1.4C39.6,80.4,40.9,80.4,42.2,80.3z"/>
	<path style="fill:#BE3689;" d="M18.8,35.1c0,0,0-0.1,0-0.2C18.8,35,18.8,35.1,18.8,35.1L18.8,35.1z"/>
	<g>
		<path style="fill:#BE3689;" d="M41.1,41.5c-2.1-1.9-4.3-2.6-6.5-2.1c-0.4-0.3-1.1-0.5-2-0.6c0-0.2,0-0.3,0-0.4
			c0.2-0.7,0.1-1.2-0.3-1.5c-0.4-0.1-0.7,0-0.7,0.3c-0.2,0.9-0.1,1.8,0.3,2.6c0.2,0.1,0.4,0.3,0.6,0.4c-0.3,0.2-0.6,0.4-1,0.7
			c-0.6-0.3-1.4-0.5-2-0.9c0-0.1,0-0.2,0-0.4c0.1-0.4-0.1-0.7-0.4-1.1c-0.1,0.1-0.2,0.1-0.3,0.2c-0.4,0.8-0.4,1.5,0.1,2.2
			c0.4,0.4,0.9,0.8,1.4,0.9c-0.2,0.1-0.2,0.2-0.4,0.4c-1,0-1.9-0.5-2.6-1.3c-0.5-0.2-0.7,0-0.7,0.4c0,0.9,0.5,1.5,1.5,1.8
			c0.3,0.1,0.5,0.1,0.7,0.2c-4.5,4.7-4.4,9.6,0.3,14.5c0.4,0.1,0.8,0.2,1.2,0.3c0.3,0.1,0.7,0.1,1,0.2c3.9,0.5,7.3-0.5,10.3-2.9
			c2.6,2.3,5.6,2.8,9.1,1.4c5.4-2,7.2-5.7,5.4-10.9c-0.1-0.1-0.2-0.3-0.3-0.4c-0.8-1.5-1.8-2.8-3-3.7c0.2-0.1,0.4-0.2,0.6-0.3
			c0.1-0.1,0.2-0.2,0.4-0.4c0.9-0.8,1-1.7,0.3-2.6l0,0c-0.7,1.1-1.6,1.8-2.7,2.2c-0.4-0.2-0.8-0.4-1.1-0.6c0.4-0.4,0.8-0.9,1.2-1.3
			c0-0.2,0-0.3,0-0.4c0.1-0.7,0-1.3-0.4-1.9h-0.2c-0.2,1.8-1.1,2.8-2.4,3c-0.1,0-0.1,0-0.1,0c0-0.1,0-0.2,0.1-0.2
			c0.5-1.2,0.6-2.3,0.3-3.4c-0.9,0.5-1.4,1.6-1.8,3.2c0,0,0,0,0,0.1C46,39,45.1,39,44,39c-0.2,0.2-0.6,0.3-1,0.5
			c-0.8,0.4-1.3,1-1.7,1.9C41.3,41.4,41.2,41.5,41.1,41.5z M42.9,42.7c0.2-0.6,0.4-1.1,0.7-1.6c4.9-0.6,8.5,1.2,10.9,5.7
			c0.2,0.6,0.3,1.3,0.4,1.9c0.5,3-0.7,5.2-3.6,6.7c-3.7,1.2-6.8,0.5-9.4-2c-0.3,0.1-0.6,0.2-1,0.1c-6.5,5.3-11.3,4.5-14.3-2.4
			c0-0.1,0-0.2,0-0.3c0.8-4.8,3.6-8.2,8.4-10.2c0.6,0,1.2,0,1.9-0.1c0.2,0.2,0.4,0.3,0.6,0.4c1.2,0.9,2.3,1.7,3.3,2.4
			c0.1,0,0.2,0,0.2,0c0.5,0.1,1,0.3,1.4,0.4C42.7,43.4,42.8,43,42.9,42.7z"/>
		<path style="fill:#BE3689;" d="M32.8,48.3c0.1-0.2,0.2-0.3,0.3-0.4c0.4-0.4,0.8-0.8,1.2-1.1c0.7-0.2,1.3-0.4,2-0.7
			c0.2,0.1,0.5,0.2,0.8,0.1L37,46c-0.1-0.1-0.3-0.2-0.4-0.2c-0.4-0.2-0.7-0.2-1.1-0.3c0,0.1,0,0.1,0,0.1c-0.6,0.2-1.2,0.4-1.7,0.5
			c-0.2,0.3-0.4,0.6-0.5,0.8c-0.2,0.4-0.6,0.7-1,0.9c0,0.5-0.1,1-0.1,1.5c-0.1,0.8,0.1,1.6,0.6,2.2c0.2,1.1,1.2,1.2,3,0.4
			c-1.1-0.1-2-0.5-2.8-1c-0.2-0.5-0.4-1-0.3-1.5C32.7,49,32.8,48.6,32.8,48.3z"/>
		<path style="fill:#BE3689;" d="M46.5,47.4c-0.8,0.2-1.1,0.8-1,1.6c0.6,1.5,1.5,1.6,2.5,0.3c0-0.2,0-0.3-0.1-0.4
			c-0.2-0.5-0.6-1.1-1.1-1.5C46.7,47.4,46.6,47.4,46.5,47.4z"/>
		<path style="fill:#BE3689;" d="M36,47.8c-0.2,0-0.4,0.2-0.5,0.4c-0.2,0.3-0.3,0.6-0.5,0.8c0.7,1.8,1.7,1.8,3,0
			c0-0.1-0.1-0.2-0.1-0.3C37.5,47.9,36.9,47.6,36,47.8z"/>
		<path style="fill:#BE3689;" d="M49.1,69.9c0-0.1,0-0.2,0-0.4c0.1-4.2-2.1-6.7-6.6-7.4c-4.2,0.6-6.7,2.7-7.6,6.4
			c0.1,0.3,0.2,0.5,0.3,0.8c0,0.1,0.1,0.2,0.1,0.4c0.1,0.2,0.1,0.4,0.1,0.7C40.1,72.3,44.7,72.2,49.1,69.9z M37.5,66
			c0.2-0.1,0.4-0.2,0.5-0.3c1.5-0.9,3-1.5,4.5-2.1c0.6,0,1.3,0.1,2,0.5c1.8,1,2.9,2.5,3.4,4.4c-0.7,0.5-1.4,0.9-2.1,1.2
			c-1.4-2-3.5-2.6-6.3-1.9l0,0c-0.6,0.5-1.1,1-1.4,1.7v0.1c-0.6-0.3-1.2-0.6-1.8-1c0.1-0.5,0.2-1,0.5-1.6
			C36.9,66.6,37.2,66.3,37.5,66z M39.4,70.1c0-0.5,0.2-0.7,0.6-0.8c0.9-0.2,2-0.4,3-0.4c0.6,0.5,1.2,0.9,1.8,1.1
			C43,70.6,41.2,70.6,39.4,70.1z"/>
		<path style="fill:#BE3689;" d="M46.6,72.6c-0.2,0-0.4-0.1-0.6,0c-2,0.3-4,0.3-6-0.2l-0.1,0.1C42.1,74.4,44.4,74.4,46.6,72.6z"/>
	</g>
</g>
</svg>
