<?xml version="1.0" encoding="iso-8859-1"?>
<!-- Generator: Adobe Illustrator 12.0.1, SVG Export Plug-In . SVG Version: 6.00 Build 51448)  -->
<!DOCTYPE svg PUBLIC "-//W3C//DTD SVG 1.1//EN" "http://www.w3.org/Graphics/SVG/1.1/DTD/svg11.dtd" [
	<!ENTITY ns_svg "http://www.w3.org/2000/svg">
	<!ENTITY ns_xlink "http://www.w3.org/1999/xlink">
]>
<svg  version="1.1" id="Layer_1" xmlns="&ns_svg;" xmlns:xlink="&ns_xlink;" width="88.117" height="93.212"
	 viewBox="0 0 88.117 93.212" style="overflow:visible;enable-background:new 0 0 88.117 93.212;" xml:space="preserve">
<g>
	<g>
		<path style="fill:#BE3689;" d="M88.117,70.313c-0.1-0.1-0.1-0.2-0.2-0.3c-1.9-3.1-4.8-4.5-8.7-4.4c-3,0.4-5.8,1.3-8.5,2.8
			c2.4-9.5-0.5-17.2-8.5-23.1c-0.2-0.2-0.4-0.5-0.6-0.8c1.3-1,2.8-0.9,4.5,0.3c0.6,0.5,1.1,0.4,1.6-0.2c-0.2-0.9-0.7-1.6-1.4-2.4
			c-0.2-0.3-0.4-0.6-0.6-1c0-0.4,0-0.8,0.1-1.1c0.1-0.2,0.2-0.2,0.3-0.3c1.1-0.3,2.1-0.6,3.1-0.8c0.1,0.1,0.2,0.3,0.4,0.4
			c0,0.4,0,0.8,0,1.2c0,0.2,0,0.5-0.1,0.7c-0.1,0.8,0.1,1.4,0.5,1.9c5.9,1.4,9.2-0.6,9.8-6c-1.8-1.2-3.9-1.8-6.2-2
			c-0.3-0.3-0.7-0.7-1.1-1h-0.2c-0.4-0.4-0.8-0.6-1.3-0.8c-0.4,0-0.6,0-0.8,0c-1.9-1.8-4.6-2.6-8-2.5c-0.4,0.3-0.9,0.4-1.5,0.4
			c-0.3,0-0.5,0.1-0.7,0.1c-0.2-1.5-0.5-3-1.2-4.5c-0.1-0.1-0.2-0.1-0.4-0.2c-0.9-0.1-1.8-0.2-2.7-0.3c-4.2,0.5-7.4,2.5-9.3,5.9
			c-0.1,0-0.1-0.1-0.1-0.1c0-0.1,0-0.3,0.1-0.4c0.3,0.1,0.4-0.2,0.4-0.6v-0.1l0,0c0-0.4,0-0.8,0-1.2v-0.1c0.1-0.5,0.3-1,0.5-1.4
			c0.2-0.3,0.4-0.6,0.7-1c3-3.1,6.7-4,11.2-2.7c0.1,0.1,0.3,0.2,0.4,0.4c1.3,1,2.6,1.8,4.1,2.6c0.6-0.2,1.2-0.6,1.6-1
			c0.8-0.8,1.4-1.6,2-2.6c0-0.8,0-1.5-0.1-2.3c-0.1-2-0.8-3.8-2.2-5.2c-0.8-0.1-1.5-0.1-2.3-0.2c-2.5,0.7-4.5,1.7-6.1,3.3
			c0.1-0.1,0.2-0.1,0.3-0.1c0,0.1,0,0.1-0.1,0.2c-0.7-0.2-1.4-0.2-2.1-0.2c-3,0.6-5.8,2-8.2,3.8c-1.6,1.3-2.6,2.7-3,4.1
			c-0.1-0.2-0.2-0.4-0.3-0.6c-2.5-4.6-6.5-7.2-12-7.7c-0.2-0.2-0.5-0.4-0.7-0.6c-1.2-1-2.4-2-3.5-3c-0.5-0.1-0.9-0.1-1.3-0.2
			c-0.4,0.2-0.7,0.5-1,1c-0.5,0.8-1.1,1.5-1.9,2.2c-0.6,1.2-0.7,2.6-0.5,4.1c0.4,2.4,1.7,4,3.9,5c0.2-0.1,0.4-0.2,0.7-0.3
			c2.7-1.3,3.8-2.7,3.4-4.1c0.5,0.1,1,0.3,1.4,0.5c1.1,0.5,2.2,0.9,3.1,1.1c1.9,1.2,3.7,2.8,5.3,4.9c0.1,0.2,0.1,0.3,0.2,0.5
			c-0.2,0.3-0.2,0.5-0.1,0.6l-0.1,0.1c-2.9-3.1-6.5-4.6-10.9-4.6c-0.9,1.1-1.4,2.3-1.7,3.8c-0.7-0.3-1.4-0.3-2.3-0.1
			c-0.2,0-0.5,0.1-0.7,0.2c-1.4,0-3,0.4-4.7,1.4c-0.2-0.1-0.4-0.1-0.6-0.1c-0.1,0-0.2,0.1-0.3,0.2c-0.2,0-0.4,0-0.6,0
			c0,0,0,0-0.1-0.1c-1.4-0.8-2.9-1.2-4.5-1.3c-0.6,0.2-0.9,0.7-0.8,1.6c0,1.5,0.2,2.9,0.6,4.4c0.3,1.6,1.1,3.2,2.2,4.5
			c0.3,0.2,0.5,0.3,0.7,0.5c1.7,1.1,3.3,1.1,4.8,0c0.1-0.2,0.1-0.5,0.1-0.7c0-0.8,0.1-1.5,0.4-2.1c0-0.1,0-0.2,0.1-0.2
			c0.1,0.1,0.3,0.2,0.4,0.3c0,0.4,0,0.8,0,1.1c0,0.4,0,0.7,0,1.1c0,0,0,0,0,0.1c-0.2,0.1-0.3,0.2-0.5,0.3c-0.9,0.8-1.3,1.7-1.2,2.6
			c1.6-0.2,3.1-0.3,4.4-0.3c-0.4,0.5-0.9,0.9-1.3,1.5l0,0c-0.4,0.5-0.8,1-1.1,1.5c-3.4,3.7-5.9,8.2-7.3,13.4
			c-0.8,3.3-1.1,6.3-0.6,8.9c-3.8-2.1-7.9-3.6-12.4-4.6c-2.8,4.2-3,8.9-0.3,14c2.5,5,6,8.6,10.2,10.7c-0.2,0.1-0.5,0.1-0.8,0.2
			c-2.1,0.3-3.9,1.1-5.3,2.5c0.2,0,0.4,0,0.6-0.1c1.8-1,3.8-1.8,6-2.4c0.6,0.3,1.3,0.6,2,0.8c-1.1,0.4-2,1.1-2.8,1.9
			c0.3,0.5,0.7,0.5,1.5,0.1c0.6-0.4,1.3-0.8,1.9-1.3c0.4-0.1,0.7-0.1,1.1-0.2c1.1,0.2,2.3,0.5,3.6,0.6c-0.8,0.4-1.4,0.8-1.9,1.3
			c0.1,0,0.3,0,0.5,0c1.4-0.3,2.7-0.7,4.1-1.1c0.6,0,1.3,0,2.1-0.1c-0.3,0.2-0.6,0.4-0.9,0.6l0.1,0.2c0.6-0.3,1.3-0.6,2-0.9
			c0.2,0,0.5,0,0.7-0.1c1.7-0.2,3-0.8,3.7-1.8c2.8-1.2,5.6-2.3,8.5-3.3c0.2,0.1,0.4,0.2,0.5,0.4c-3.5,1.4-6.6,3.2-9.5,5.5v0.2
			c3.7-1.6,7.4-3.2,10.9-4.9c0.4,0.2,0.8,0.3,1.2,0.5c-2.8,1-5.1,2.6-6.9,4.7c1.2-0.3,2.5-0.7,3.8-1.2c2.7-1.1,4.8-2.1,6.2-3.2
			c2-0.1,4-0.9,6.2-2.3c-0.1-0.2-0.1-0.2-0.2-0.2c-0.2,0.1-0.5,0.2-0.7,0.3c-0.1-0.1-0.1-0.1-0.1-0.2c0.5-0.1,1-0.2,1.5-0.2
			c0.3-0.2,0.7-0.3,1-0.5c0.1,0,0.2,0,0.2,0c0.9-0.4,1.8-0.7,2.7-0.9c-0.2,1.4-0.1,3,0.3,4.6c-3.1,0.8-5.4,2.3-6.9,4.7
			c0.2-0.1,0.4-0.3,0.7-0.4c1.9-1.6,4-2.8,6.4-3.6c0.2,0.6,0.4,1.3,0.7,2c0.2,0,0.3,0.1,0.4,0.1c-0.6,0.4-1.1,0.9-1.5,1.5v0.2
			c1.5-0.1,2.6-0.5,3.5-1.1c3.3,0.8,6.7,0.6,10.2-0.5c-0.5,0.2-1,0.5-1.4,0.8c0.7,0.1,1.5,0.2,2.2,0.2c0,0,0.2,0,0.3-0.1
			c3.8-1.8,7.4-3.8,10.8-5.9c0,0,0,0-0.1,0.1c-1.5,0.4-3.1,1-4.6,1.5C83.017,84.012,86.817,78.112,88.117,70.313z M78.217,38.612
			c-0.1,0.1-0.2,0.2-0.2,0.4c-0.2,0.2-0.3,0.4-0.5,0.6c-0.6,0.7-1.2,1.3-1.8,2c-1.6,0.6-3.2,0.8-4.9,0.3c0-0.2,0-0.5,0-0.7
			c0-0.3,0-0.5,0-0.8c0-0.3,0-0.7,0-1c0.2,0.4,0.9,0.6,2.2,0.7c-0.1-0.2-0.2-0.3-0.3-0.4c-0.3-0.6-0.7-1.1-1.2-1.5
			c-0.1,0-0.2,0-0.3,0.1l0,0c-1.1-1.1-2.4-1.9-3.8-2.4c-2.4-1.3-4.9-1.5-7.7-0.6c0.2-0.9,0.3-1.7,0.3-2.6c3.6-0.5,6.9,0.2,10,2
			l0.2-0.1c1.8,0.6,3.2,1.6,4.5,3l0,0c0-0.2,0-0.3,0-0.4c-0.1-0.1-0.1-0.2-0.2-0.4C76.017,37.112,77.317,37.612,78.217,38.612z
			 M79.817,67.813c0.3,0.1,0.6,0.1,0.9,0.1c3,0.2,4.8,1.6,5.6,4.3c-0.3,2-1.1,4-2.3,5.7c-6.5,9.6-15.3,13.5-26.4,11.5
			c-0.2-0.1-0.4-0.4-0.5-0.6c0.1,0,0.2,0,0.4-0.1c-0.1-0.1-0.1-0.1-0.2-0.2c-0.1,0-0.3,0-0.5-0.1c-0.3-0.6-0.4-1.2-0.2-1.9
			c0.1-0.9,0.2-1.8,0.4-2.7c0.4-0.6,0.8-1.3,1.2-1.9c2.9-5,7-8.6,12.5-10.6c0,0,0,0,0.1-0.1
			C73.517,69.412,76.517,68.313,79.817,67.813z M60.117,20.912c-0.1-0.1-0.2-0.2-0.4-0.2c-0.5-0.3-1.1-0.5-1.8-0.7
			c0.6-0.2,0.8-0.4,0.8-0.7c1.9-0.3,3.7-0.8,5.6-1.2c0.6,0.3,0.8,0.8,0.8,1.5c0,0.1,0.1,0.2,0.1,0.3c0.3,0.3,0.5,0.6,0.7,0.8
			c0.1,0.1,0.1,0.2,0.2,0.4c0,0.6-0.1,1.2-0.2,1.8c-0.3,1.5-1.1,2.5-2.4,3.2c-0.8-0.1-1.4-0.4-1.9-0.8c-0.4-0.4-0.9-0.7-1.2-1.2
			c0.3,0,0.6-0.1,0.8-0.3c-0.1-0.1-0.2-0.2-0.4-0.2c-0.8-0.1-1.6-0.2-2.5-0.3c-6.5-1.1-10.8,1.1-12.7,6.9c-0.2,0-0.3,0.1-0.4,0.1
			c0,0.3-0.1,0.6-0.1,0.9c0,0.1,0,0.2,0.1,0.3c-0.5-0.2-0.9-0.4-1.4-0.5c0.4-0.9,0.8-1.9,1.4-2.9
			C49.017,22.512,53.917,20.112,60.117,20.912z M46.517,34.212c-0.1-0.4-0.1-0.8-0.1-1.2c0.1,0,0.1,0,0.1-0.1c-0.1,0-0.1,0-0.1,0
			c0-0.1,0-0.2,0-0.3c3.3-2.7,7.2-4.1,11.7-4.3c0.1,0.8,0.2,1.5,0.3,2.3c0.2,3-0.4,5.7-1.8,8.2c-0.4,0.3-0.8,0.5-1.1,0.8
			c-0.2,0.1-0.3,0.2-0.4,0.4c-0.8,0.1-1.6,0.3-2.4,0.7c-0.3-0.1-0.6-0.2-0.9-0.4c-2.1-0.9-3.9-2.3-5.3-4.1c-0.1,0-0.1,0-0.1,0
			c0-0.5,0-0.9,0-1.4c0.8,0.2,1.6,0.3,2.3,0.4c0.6,0.5,1.2,1,1.8,1.4c0.8,0.5,1.5,0.5,2.1-0.2c0.1-0.6-0.3-1-1.2-1.1
			c-0.8-0.1-1.4-0.5-1.9-1.1c-0.5,0-0.9,0-1.3-0.1c1.6-0.6,3.2-1,4.8-1.2c-0.1-0.1-0.2-0.2-0.3-0.2c-0.7-0.3-1.3-0.5-2-0.6
			c-0.1,0-0.3,0.1-0.5,0.1c-1.6,0.1-2.8,0.7-3.4,1.9c0,0,0,0-0.1,0C46.717,34.112,46.617,34.112,46.517,34.212z M40.717,29.313
			c-0.2,0-0.3,0-0.4,0c-1.7-3.7-4.5-5.9-8.5-6.5c-1-0.3-2-0.5-3.1-0.6v0.1c-0.1,0-0.2,0-0.2,0.1c-0.1,0-0.2,0.1-0.2,0.2
			c-0.1,0-0.1,0-0.1,0l-0.4,0.1c0.1,0,0.2,0,0.2,0c-0.2,0.1-0.4,0.2-0.5,0.2c0,0.2,0,0.2,0,0.2c0.3,0.1,0.8,0.3,1.2,0.3
			c0.1,0,0.1-0.1,0.3-0.1c0.2-0.1,0.5-0.2,0.7-0.2c0.1,0,0.1,0,0.1,0c-0.1,0.1-0.2,0.2-0.3,0.3c-0.8,1.4-2.1,2.3-3.8,2.4
			c-0.2-0.2-0.5-0.5-0.8-0.7c-0.4-0.5-0.8-1-1.1-1.5c0-0.4,0-0.8-0.1-1.1c-0.1-0.3-0.2-0.6-0.4-0.8c0.1-0.4,0.2-0.8,0.4-1.2
			c0.1-0.2,0.1-0.4,0.1-0.7c0.4-0.3,0.6-0.7,0.9-1.2c0.2-0.5,0.6-1,1.1-1.4c0.4,0.1,0.7,0.3,1,0.5c1.3,0.7,2.5,1.7,3.5,2.9
			c2.1,0,4.1,0.5,5.8,1.5c3.7,2.1,6,4.8,7.2,8.1c-0.3-0.1-0.6-0.1-0.9-0.3c0.1,0.3,0.2,0.6,0.2,0.9c-0.5-0.1-1-0.1-1.6-0.1
			c0-0.4-0.1-0.9-0.1-1.3C40.817,29.313,40.717,29.313,40.717,29.313z M37.917,34.012c-0.3-0.1-0.7,0-1.2,0.1
			c-0.7,0.3-1.4,0.8-2.1,1.3c-0.1,0.1-0.2,0.3-0.3,0.5l0.1,0.2c1.7-0.7,3.4-1,4.9-0.8c0.1,0.4,0.1,0.8,0.2,1.1c-0.1,0-0.2,0-0.3,0
			c-0.1,0.1-0.2,0.1-0.2,0.1c0.2,0.1,0.4,0.2,0.6,0.3c0.1,0.4,0.2,0.8,0.2,1.1c0,0.2,0,0.3,0,0.4c-1.7,1.4-3.7,2.3-5.8,2.9
			c-1-0.5-1.9-1.1-2.7-1.9c-0.1,0-0.2,0-0.3,0c-0.1-0.1-0.2-0.1-0.3-0.2c-0.1,0-0.2-0.1-0.4-0.3c-1.1-1.9-1.6-4-1.5-6.4
			c0-1.4,0.4-2.8,0.9-4.1c0.1-0.1,0.1-0.2,0.1-0.2c0.8-0.1,1.5-0.2,2.3-0.3c1.4,0.7,2.7,1.5,4,2.5c1.3,1,2.5,1.6,3.5,1.6
			c-0.2,0.5-0.3,1.2-0.4,1.8c-1.7-1.5-3.9-2-6.5-1.6l-0.4,0.1C34.217,32.813,36.017,33.412,37.917,34.012z M41.017,33.313
			c0-0.1,0-0.2,0-0.4c0.3-1,1.1-1.1,2.4-0.3c0.5,0.3,1,0.6,1.6,0.8c0,0.4,0,0.8,0,1.2c0.1,0.5,0,1-0.3,1.5c-0.1,0.1-0.2,0.2-0.2,0.3
			v0.1c-1-0.1-1.9-0.2-2.9-0.2c-0.1,0-0.4-0.1-0.6-0.2v-0.2c0-0.3,0-0.7,0-1.1C41.017,34.313,41.017,33.813,41.017,33.313z
			 M47.017,38.612c-0.1-0.1-0.1-0.1-0.2-0.2v-0.1c1.5,2.3,3.9,3.8,7.3,4.4c0.1-0.1,0.2-0.2,0.3-0.2c0.2-0.2,0.4-0.3,0.5-0.4
			c0.6,0.4,1.1,0.7,1.6,1.1c-0.3-0.1-0.5-0.1-0.8-0.1c3,1.7,6,4,8.9,6.9c4.3,4.3,6.1,9.2,5.3,14.8c-0.2,1.6-0.7,3.3-1.3,4.9
			c-1.9,1.1-3.8,2.4-5.6,3.6c-4,2.9-6.4,6-7.2,9.5c-1.1,0.4-2.2,0.8-3.3,1c-0.1,0.1-0.2,0.1-0.3,0.1c-4,1-8.6,1-13.9,0.2
			c-2.7-0.4-5.1-1-7.5-1.8c-0.6-0.4-1.3-0.6-2.1-0.7l-0.2,0.1c-0.1,0-0.1-0.2-0.2-0.2c-0.2-0.5-0.5-0.9-0.6-1.4
			c-0.1-0.2-0.2-0.3-0.4-0.4c-3.4-4.2-7.2-7.5-11.5-10.1c-0.2-0.9-0.2-1.9-0.1-2.9c0.8-9.8,4.6-17.4,11.4-22.9h0.1c0,0,0,0-0.1,0
			c0.1-0.1,0.2-0.2,0.2-0.2c1.3-0.7,2.5-1.3,3.8-1.9c1,0.9,2.2,1.4,4,1.5c0.1-0.1,0.2-0.1,0.3-0.2c3-0.9,4.9-2.4,5.7-4.3
			C43.117,38.313,45.117,38.212,47.017,38.612z M65.717,38.412c-0.2,0.2-0.5,0.4-0.6,0.7c-0.2,0.1-0.3,0.2-0.4,0.3
			c0,0.7,0,1.3,0,1.9c0,0.1,0,0.1,0,0.1c-1.8-1.4-3.8-2.5-6.1-3c0-0.1,0-0.1,0-0.1c0.4-0.7,0.6-1.5,0.9-2.2c2.7,0,5.3,0.5,7.9,1.3
			c0.3,0.3,0.6,0.5,1,0.8c-0.8-0.1-1.5-0.1-2.2-0.1l0,0C66.017,38.212,65.917,38.313,65.717,38.412z M57.217,40.412
			c0.5-0.5,0.9-1,1.2-1.6c2,1.3,4.1,2.4,6.4,3.2c0.1,0.2,0.1,0.3,0.2,0.4c0,0.2,0.1,0.3,0.2,0.4c-0.3,0.1-0.6,0.1-1,0
			c-0.6-0.1-1.3-0.1-2-0.2c-0.3,0-0.5,0-0.7,0.1c-0.4,0.2-0.7,0.6-0.9,0.9c-1.1-1.1-2.4-2.1-3.7-3
			C57.017,40.612,57.117,40.512,57.217,40.412z M59.717,35.512c0.1,0,0.2,0,0.4,0c-0.2,0-0.4,0.1-0.5,0.2
			C59.617,35.712,59.617,35.612,59.717,35.512z M70.817,38.813h0.1c-0.1,0.1-0.1,0.1-0.1,0.1S70.817,38.912,70.817,38.813z
			 M14.717,36.412c-0.4-1.4-0.6-2.9-0.4-4.6c0.6,0.2,1.2,0.4,1.7,0.7c0.3,0.2,0.7,0.4,1.1,0.6c-0.2,0.2-0.2,0.5-0.1,0.8
			c0.3,0,0.7-0.1,0.9-0.2s0.4-0.2,0.5-0.3c0.4,0.1,0.7,0.2,1.1,0.2c2.4-1.4,5-2,7.7-1.8c0,0.5-0.1,0.9-0.1,1.4c0,0.4,0,0.7,0.1,1
			c-0.1,0-0.2-0.1-0.2-0.1c-0.8-0.1-1.5-0.2-2.1-0.4c-0.4,0-0.8-0.1-1.2-0.3c-0.7,0.2-1.5,0.5-2.1,0.9c-0.1-0.1-0.2-0.2-0.4-0.2
			s-0.4,0.1-0.5,0.3c-1,0.7-1.6,1.6-2,2.7c0.6,0.2,1.1,0.2,1.7,0c0,0.1,0,0.2,0,0.3c-0.1,0-0.1,0.1-0.1,0.2h0.1
			c-0.1,0.4-0.2,0.8-0.2,1.1c-0.1,0.5-0.1,1-0.1,1.5c-0.4,0.1-0.8,0.2-1.2,0.1C16.717,39.813,15.317,38.512,14.717,36.412z
			 M21.817,36.212c0.2-0.1,0.3-0.2,0.4-0.3c1.2-0.8,2.5-1,3.9-0.6c0,0.1,0.1,0.1,0.1,0.1c0.1,0.1,0.2,0.2,0.3,0.3
			c0.1,0.1,0.2,0.2,0.3,0.4c0.2,0,0.4,0,0.5,0c0.5,1.8,1.4,3.1,2.7,3.9c-0.7,0.3-1.3,0.7-2,1.2c-0.8,0.5-1.5,1-2.1,1.6
			c-0.9-0.6-1.8-1-2.7-1.2c0-0.1,0-0.1,0-0.2c0.3-0.1,0.5-0.3,0.7-0.5c1.2-1.3,2.8-2,4.6-2.2c-0.1-0.1-0.2-0.2-0.2-0.2
			c-0.8-0.2-1.7-0.3-2.6-0.3c-0.9,0.3-1.7,0.9-2.5,1.6c0-0.6,0-1.1,0-1.6c0-0.1-0.1-0.2-0.2-0.3c-0.4-0.2-0.7-0.4-1.1-0.7
			C21.917,36.813,21.917,36.512,21.817,36.212z M1.317,70.612c0-0.2,0-0.3,0.1-0.4c0.1-1.2,0.3-2.3,0.6-3.4c0.1-0.1,0.2-0.2,0.3-0.4
			c0.2-0.1,0.3-0.2,0.4-0.3c12.3,3,21.2,10.1,26.8,21.3c-0.3,0.5-0.5,0.9-0.8,1.3c-0.7,0.3-1.4,0.7-1.9,1.1c-1.4,0.1-2.7,0.1-4,0
			C10.517,88.813,3.417,82.412,1.317,70.612z M29.917,84.612c-0.3-0.8-0.6-1.6-1.1-2.4c0.4,0.4,0.7,0.7,1,0.9c0,0.2,0,0.3,0,0.4
			c0.4,0.1,0.7,0.2,1,0.3c1.4,0.2,2.8,0.6,4.1,1.2c0.1,0,0.2,0,0.2,0.1l0,0c0.2,0.1,0.4,0.2,0.6,0.3c0-0.1,0-0.2,0-0.2
			c0.5,0.1,0.9,0.2,1.4,0.2c-2.2,0.6-4.3,1.3-6.3,2.2c0.1-0.6,0.1-1.2,0-1.9C30.417,85.412,30.117,85.012,29.917,84.612z
			 M42.617,86.313c0.1-0.1,0.3-0.2,0.5-0.3c2,0.1,4-0.1,6.1-0.3c0,0,0,0.1,0,0.3c-0.8,0.2-1.7,0.3-2.5,0.4c0,0,0,0,0-0.1
			c0,0.1-0.1,0.1-0.1,0.1C45.217,86.512,43.917,86.512,42.617,86.313z"/>
		<path style="fill:#BE3689;" d="M54.117,46.712h-0.2c-0.4,1.7-1.3,2.6-2.6,2.7c-0.1,0-0.1,0-0.1,0c0-0.1,0-0.1,0.1-0.2
			c0.6-1.1,0.8-2.2,0.6-3.4c-0.9,0.5-1.6,1.5-2,3.1c-0.1,0-0.1,0-0.1,0.1c-1-0.2-1.9-0.3-2.9-0.4c-0.3,0.1-0.7,0.3-1.1,0.4
			c-0.8,0.4-1.4,0.9-1.8,1.7c-0.1,0.1-0.1,0.1-0.2,0.2c-2-2.1-4.1-3-6.4-2.7c-0.4-0.3-1-0.6-1.9-0.7c0-0.2,0-0.3,0.1-0.4
			c0.2-0.7,0.1-1.2-0.3-1.6c-0.3-0.1-0.6,0-0.7,0.3c-0.3,0.9-0.2,1.8,0.1,2.6c0.2,0.2,0.4,0.3,0.6,0.5c-0.3,0.1-0.7,0.3-1,0.5
			c-0.7-0.2-1.3-0.6-2-0.9c0-0.2,0-0.3,0-0.4c0.1-0.4,0-0.8-0.2-1.2c-0.3,0.1-0.3,0.1-0.4,0.2c-0.5,0.8-0.5,1.5-0.1,2.2
			c0.4,0.4,0.9,0.8,1.4,1c-0.2,0.1-0.3,0.2-0.5,0.3c-1,0-1.8-0.5-2.5-1.5c-0.4-0.1-0.7,0-0.7,0.4c-0.1,0.9,0.4,1.5,1.4,1.9
			c0.2,0.1,0.4,0.2,0.6,0.2c-4.8,4.4-5.1,9.3-0.8,14.5c4.6,1.7,8.8,1.3,12.7-1.4c2.3,2.5,5.3,3.2,8.9,2.2c5.6-1.6,7.6-5.1,6.3-10.5
			c-0.2-0.1-0.2-0.3-0.3-0.4c-0.7-1.6-1.6-2.9-2.7-4c0.2,0,0.4-0.1,0.6-0.2c0.1-0.1,0.3-0.2,0.4-0.3c1-0.8,1.2-1.7,0.6-2.6h-0.1
			c-0.7,1-1.7,1.6-2.9,2c-0.3-0.3-0.7-0.5-1-0.7c0.4-0.4,0.9-0.8,1.4-1.3c0-0.1,0-0.2,0-0.4
			C54.517,47.912,54.517,47.212,54.117,46.712z M28.617,59.313c0-0.1,0-0.2,0.1-0.4c0.2-1,0.5-2,1-2.8c4.5,0.7,9,0.2,13.5-1.4
			c4.4,2.5,9,3.8,13.7,3.9c0,0.2,0,0.4,0,0.5c0.3,3-1.1,5.1-4.1,6.4c-3.9,0.9-7.1-0.1-9.5-3.1
			C36.017,67.612,31.117,66.612,28.617,59.313z M56.717,57.212c0.1,0.2,0.1,0.5,0.1,0.8c-5-1.1-9.8-2.6-14.6-4.6
			c-4.4,1.2-8.5,2-12.4,2.3c1.6-2.9,4.3-5,8-6.2c0.6,0,1.2,0,1.8,0c0.2,0.2,0.4,0.3,0.6,0.5c1.1,1,2.2,1.9,3.1,2.6
			c0.1,0,0.2,0,0.2,0c0.5,0.2,1,0.4,1.4,0.5c0.2-0.2,0.4-0.6,0.6-0.9c0.2-0.6,0.5-1.1,0.8-1.5
			C51.217,50.412,54.717,52.512,56.717,57.212z"/>
		<path style="fill:#BE3689;" d="M47.317,58.912c0-0.1,0-0.2,0-0.3c0-0.2,0-0.3,0-0.4c-0.6-1.1-1.6-1.5-3.1-1.3c0,0.1,0,0.1,0,0.1
			c-0.6,0.2-1,0.7-1.1,1.6c0,0.2,0,0.5,0,0.7c0.8,1.1,1.9,1.3,3.4,0.8c0.1-0.1,0.2-0.3,0.3-0.4
			C47.017,59.412,47.117,59.212,47.317,58.912z"/>
		<path style="fill:#BE3689;" d="M40.217,56.912c-0.7,0.9-0.8,1.7-0.1,2.7c1,0.9,2,0.8,2.9-0.2c0-0.2,0-0.5-0.1-0.7
			c0-0.6-0.2-1.1-0.4-1.5c-0.3-0.1-0.5-0.2-0.8-0.3c-0.3-0.1-0.6-0.2-1-0.3C40.517,56.612,40.317,56.712,40.217,56.912z"/>
		<path style="fill:#BE3689;" d="M31.317,75.813c1-1.2,2.3-1.7,3.9-1.6c4.2,1.6,8.4,1.3,12.9-0.9c0.2,0.2,0.4,0.3,0.6,0.3
			c2.7,1,5,0.4,7-1.7c0.6,0,1.2,0,1.9-0.1c0.6,0.6,1.3,0.8,2.1,0.8c0.2,0,0.4-0.1,0.5-0.2c0-0.1,0-0.2,0-0.2c-1-1.7-2.7-2.3-5-1.8
			c0,0.1,0,0.1,0,0.1c-1,0.4-1.8,1-2.6,1.8c-0.2,0.2-0.3,0.3-0.4,0.4c-0.6,0-1.2,0.1-1.9,0.1c-2.5-1.2-5-1.1-7.5,0.3
			c-0.6,0.4-1.3,0.5-1.9,0.4c-4.5-1.2-8.2-0.4-11.1,2.4C30.117,76.512,30.617,76.512,31.317,75.813z"/>
		<path style="fill:#BE3689;" d="M48.317,74.912c-0.1,0-0.2,0.1-0.3,0.1c-2.5,1.2-5,1.7-7.7,1.4c0.1,0.2,0.1,0.2,0.2,0.3
			C44.117,78.012,46.717,77.412,48.317,74.912z"/>
		<path style="fill:#BE3689;" d="M78.017,91.212c0.7,0.1,1.3-0.1,1.9-0.5c1.4-1.2,3.1-1.8,5.1-2c-0.1-0.1-0.2-0.2-0.2-0.2
			c-0.7-0.2-1.4-0.3-2.1-0.3c-1,0.3-2.1,0.7-3.1,1.3C78.817,89.813,78.317,90.412,78.017,91.212z"/>
		<path style="fill:#BE3689;" d="M50.017,1.212c-0.1-0.1-0.2-0.2-0.2-0.2c-2.6-0.9-5.3-1.2-8.1-0.9c-0.7,0.3-1.4,0.7-2.2,1.2
			c-1,0.7-1.7,1.5-2.2,2.5c0,0.4,0,0.8,0,1.1c0,0.4,0,0.8,0,1.2c0,0.3,0,0.7,0,1.1c0.7,0.6,1.3,1.2,2,1.7c0.8,0.6,1.2,1.1,1.4,1.5
			c0,0.4,0,0.8,0,1.2c0.1,0.3,0.1,0.7,0.1,1.1c0,0.5,0,1,0,1.5c0.3,0.2,0.5,0.5,0.8,0.7c0.1,0.2,0.2,0.3,0.4,0.4
			c-0.1,0.3-0.1,0.5-0.1,0.8c-0.1,1.1-0.1,2.2-0.3,3.3c-0.1,1.2,0.2,1.8,1.1,1.9c0.1-0.1,0.1-0.2,0-0.3c-0.2-1-0.3-2-0.3-3.1
			c-0.1-0.7,0.2-1.3,0.7-1.8c0.8,0.1,1.7,0.3,2.6,0.5c0.3-0.1,0.5-0.2,0.7-0.4c0.2-0.1,0.6-0.3,0.9-0.5c0.4-0.1,0.5-0.4,0.4-0.9
			c-0.6-1.7-2-2.1-4.2-1.1c-0.2,0.1-0.3,0.2-0.4,0.3c-0.2,0.2-0.4,0.3-0.6,0.3s-0.3-0.1-0.4-0.2c-0.2-0.3-0.3-0.6-0.4-0.8
			c-0.1-0.4-0.1-0.7-0.2-1.1c0-0.4,0.1-0.8,0.2-1.1c3.6,0.6,6.4-0.2,8.4-2.4c0-0.1-0.1-0.2-0.1-0.3c-0.2-0.3-0.4-0.6-0.7-0.8
			c-0.1-0.2-0.2-0.3-0.3-0.4c-1.7-0.5-3.3-0.6-5-0.5c-0.5,0.5-1,1-1.5,1.4c-0.5,0.6-1.2,0.9-2,0.8c-0.2-0.1-0.3-0.2-0.4-0.3
			c-0.3-0.3-0.5-0.5-0.8-0.7c-0.5-0.5-0.9-1-1.2-1.6c0-0.1,0-0.2,0-0.4c0-0.1,0-0.2,0-0.3c0-0.3,0-0.5,0-0.8c0-0.2,0-0.5,0-0.7
			c0.5-0.6,1-1,1.7-1.4C42.917,1.012,46.317,0.412,50.017,1.212z M44.617,7.813h0.1c1.4-0.2,2.8,0.1,4,0.8c-1.7,1.4-3.8,1.6-6.1,0.7
			c0.1-0.1,0.2-0.2,0.4-0.4C43.417,8.412,43.917,8.112,44.617,7.813z M46.217,15.212c-0.1,0-0.2,0.1-0.2,0.1
			c-1.7,0.6-2.3,0.4-1.9-0.5C45.817,14.212,46.517,14.313,46.217,15.212z"/>
		<path style="fill:#BE3689;" d="M1.517,91.212c0.3,0,0.6-0.1,0.8-0.2c1.9-1,3.9-1.7,6.2-2.3c-0.1-0.1-0.1-0.1-0.2-0.2
			c-0.5-0.1-1-0.1-1.6-0.2c-0.2,0.3-0.5,0.5-1,0.6C3.817,89.412,2.417,90.212,1.517,91.212z"/>
		<path style="fill:#BE3689;" d="M41.017,92.712c0.3,0,0.7-0.1,1-0.2c2.6-0.9,5.2-2,7.7-3c2-0.9,3.4-1.8,4.4-2.7
			c0.7-0.7,1.1-1.4,1.1-2.1c0,0.1,0,0.1,0,0.1c-0.6,0.2-1.2,0.5-1.8,0.8c-0.1,0-0.1,0-0.2,0
			C48.917,87.612,44.817,89.912,41.017,92.712z"/>
	</g>
</g>
</svg>
