<?xml version="1.0" encoding="iso-8859-1"?>
<!-- Generator: Adobe Illustrator 12.0.1, SVG Export Plug-In . SVG Version: 6.00 Build 51448)  -->
<!DOCTYPE svg PUBLIC "-//W3C//DTD SVG 1.1//EN" "http://www.w3.org/Graphics/SVG/1.1/DTD/svg11.dtd" [
	<!ENTITY ns_svg "http://www.w3.org/2000/svg">
	<!ENTITY ns_xlink "http://www.w3.org/1999/xlink">
]>
<svg  version="1.1" id="Layer_1" xmlns="&ns_svg;" xmlns:xlink="&ns_xlink;" width="85.73" height="75.4" viewBox="0 0 85.73 75.4"
	 style="overflow:visible;enable-background:new 0 0 85.73 75.4;" xml:space="preserve">
<g>
	<path style="fill:#BE3689;" d="M73.8,31.3c0-0.1,0-0.3-0.1-0.5c0-0.1,0-0.2,0-0.4c-1.3-1.1-3-1.5-5.1-1.4c-0.2-0.2-0.4-0.4-0.7-0.7
		c-0.7-0.5-1.2-1.2-1.7-1.9c0-0.5,0-1-0.1-1.5c-0.1-0.2-0.1-0.5-0.3-0.7c-0.1-0.2-0.2-0.2-0.4-0.3c-0.5-0.1-1.2-0.2-1.7-0.2
		c-0.1,0-0.2,0.1-0.3,0.2c-0.6-1-1.5-1.5-2.7-1.7c-0.1,0-0.3,0.1-0.5,0.3c-0.2,0.2-0.5,0.4-0.6,0.7c-0.2,0.2-0.3,0.4-0.4,0.7
		c-0.2,0.2-0.3,0.4-0.5,0.6c-1.9,0.3-3.5,0.8-4.7,1.4c1-2.3,1.1-4.8,0.5-7.2c-4.1-0.7-7.6,0-10.5,1.8c0.4-0.7,0.8-1.4,1.2-2.1
		c0.5-0.1,1-0.2,1.5-0.2c0.1,0,0.2-0.1,0.4-0.2c0.3-0.4,0.7-0.8,1-1.3c0.1-0.2,0.1-0.3,0.1-0.4s-0.1-0.1-0.1-0.2
		c0.3-0.1,0.7-0.1,1.1-0.2c0.2,0,0.4-0.1,0.5-0.4c2.5-1.7,5.7-2.6,9.6-2.5c0.4,0.8,0.7,1.5,1.2,2.2c0.8,1.3,1.9,2.2,3.2,2.7
		c1.1-0.4,2-1.1,2.5-2c0.3-0.5,0.6-0.9,1-1.2c0.3-0.8,0.5-1.5,0.6-2.3c0.1-0.4,0.2-0.7,0.2-1.1c0-0.3,0-0.5,0-0.8
		c-0.1-0.1-0.3-0.2-0.3-0.2c-2-1.1-4.2-1.8-6.5-1.9c0,0.1,0,0.1,0,0.1c-0.8,0.2-1.5,0.4-2,0.7c0-0.2,0-0.4-0.1-0.7
		c-0.1-0.1-0.2-0.1-0.4-0.2c-0.8-0.2-1.6-0.5-2.5-0.6c-0.5,0.2-0.7,0.6-0.7,1.3c0,0.2-0.1,0.3-0.3,0.4c-3.3,0.6-6.6,1.2-10,1.8
		c-0.4,0.1-0.8,0.5-0.9,1c-0.1,0.1-0.1,0.2-0.1,0.3c0,0.3,0,0.5,0.1,0.7c-1-0.2-2-0.4-3.1-0.5c-0.5,0.5-0.7,1.3-0.4,2.5
		c0.1,0.6,0.3,1.2,0.4,1.8c-0.2,1-0.6,1.8-1.1,2.6c-0.3,0.4-0.4,0.8-0.3,1.3c-0.6-0.2-1.1-0.3-1.6-0.5c-0.3,0-0.6,0-1,0.1
		c-0.9-2.2-1.5-4.4-1.7-6.7c-0.3-0.3-0.6-0.5-0.9-0.8c-0.2-0.2-0.3-0.3-0.5-0.6c0,0,0-0.1,0-0.2c-3-1-6-2.6-8.9-4.9
		c-0.4-0.3-0.5-0.6-0.5-1.1c0.1-0.3,0.1-0.5,0-0.8c-0.1-0.1-0.3-0.2-0.4-0.3c-0.5-0.2-1-0.4-1.6-0.6c-0.2,0.1-0.4,0.3-0.7,0.4
		c-0.4,0.2-0.7,0.5-1.1,0.8c-1.3-2.4-3.2-4.3-5.7-5.7c-0.9,0.5-1.5,1.2-2,2.1c-1.6,3.7-1,6.7,1.6,9.1c0.5,0,1,0,1.4,0.1
		c1.7-0.9,3.3-1.9,4.7-2.9c0.3,0.6,0.7,1.3,1.3,1.8c-0.1,0.3-0.2,0.7-0.3,1.1c-0.1,0.7,0.2,1.2,0.8,1.5c1.3,0.4,2.5,0.3,3.6-0.1
		c1.7,0.6,2.8,1.6,3.5,3c0.4,0,0.8-0.2,1.2-0.2c-0.1,0-0.2,0-0.3,0.1c-0.6,0.2-0.9,0.6-1,1.2c1.2,1,2.5,2.2,3.9,3.5
		c0,0.2,0,0.5,0.1,0.7c0,0.2,0,0.3,0,0.4c0.1,0.1,0.1,0.1,0.2,0.2c-0.3,0.1-0.5,0.3-0.7,0.6c-3.2-2.1-6.6-3.4-10.5-3.8
		c-0.7,1.5-0.9,3.2-0.6,5.3c0,0-0.1,0.1-0.1,0.2c0,0.1,0.1,0.1,0.2,0.2c0,0.1,0,0.3,0.1,0.5c0.2,1,0.5,1.9,0.9,2.6
		c-1.2-0.4-2.5-0.6-3.9-0.4c-0.1-0.1-0.2-0.2-0.4-0.4c-0.1-0.1-0.3-0.2-0.4-0.4c-0.6,0-1.2,0-1.8-0.1c-0.4,0.1-0.7,0.4-0.9,0.9
		c-0.1,0.3-0.2,0.5-0.2,0.7c0,0.5,0,1,0.1,1.4c-2,0.9-4,1.7-6,2.5c-1.6-0.7-2.5-0.4-3,1c-0.1,0.5,0,0.9,0.1,1.2
		C6.9,33.8,7,33.9,7.1,34c-0.2,0-0.3,0-0.4,0c-0.3,0.3-0.8,0.5-1.4,0.7c-1.1,0.2-2,0.7-2.7,1.3c-0.2,1-0.1,1.9,0.4,2.7
		c0.1,0.3,0.3,0.6,0.5,0.8c-0.2,0.7-0.4,1.4-0.7,2.1c-1.1,2.5-1.4,4.8-0.7,6.7c-0.8,0.5-1.5,1.1-2.1,1.8c0.2,0.4,0.4,0.9,0.4,1.5
		c0.1,1.1,0.5,2.2,1,3.3c-0.5,0.2-0.9,0.5-1.4,0.9c0,0.1,0,0.2,0,0.4c0.2,1.6,0.5,3.3,0.9,4.9C1,61.2,1,61.3,1,61.4
		c0.5,0.6,1.2,0.8,1.9,0.9c-0.4,0.2-0.8,0.5-1.2,0.7c0.6,1.8,1.2,3.6,1.9,5.2c1.2,3,3.5,4.5,7,4.4c3.2,0,5.6-0.8,7.2-2.4
		c0.1,0.1,0.3,0.1,0.4,0.1c2.1-0.6,3.3-1.8,3.7-3.6c2.7,1.5,5.7,2.6,8.7,3.3c-4.4,0.8-8.6,2.3-12.6,4.5v0.2c5-1,9.7-2.5,13.9-4.5
		c0.9,0.2,1.8,0.3,2.8,0.4c-2.6,0.9-4.9,2.3-6.7,4.2c2.9-1.2,6-2,9.4-2.7c2-0.3,3.3-0.8,3.9-1.4c1.2-0.2,2.4-0.3,3.7-0.5
		c-1.7,0.9-3.2,2-4.7,3.2c0.3,0.7,0.7,0.8,1.2,0.4c3.1-2.1,6.3-3.7,9.6-4.9c-2.8,1.3-5,3.2-6.6,5.5c0.3-0.1,0.7-0.3,1-0.5
		c3.3-2.5,6.9-4.4,10.8-5.6c0.6,0.4,1.3,0.8,1.9,1c-3.8,0.9-7.1,2.6-9.7,5.1c0.6,0.5,1.1,0.6,1.4,0.3c1.9-1.5,4-2.5,6.3-3.1
		c2.4-0.6,3.8-1.2,4.3-1.8c0.1,0.3,0.2,0.6,0.4,0.9c-2.2,0.6-3.8,1.7-5.1,3.5c0.7,0.1,1.5-0.1,2.4-0.5c1.5-0.7,2.6-1.3,3.4-1.9
		c0,0.1,0.1,0.2,0.2,0.4c0.8,0.2,1.4,0.5,2.2,0.7c-0.3,0.3-0.5,0.7-0.7,1.1l0.1,0.2c0.8-0.3,1.6-0.8,2.3-1.1c1,0,2,0,3-0.1
		c-0.5,0.4-0.9,1-1.2,1.5c0.9,0.1,1.8-0.1,2.6-0.6c1.3-0.9,2.5-1.6,3.9-2.3c0.6,0.1,1.3-0.1,2.2-0.7c0.4-0.1,0.6-0.3,0.9-0.6
		c2-0.7,4.2-1.3,6.4-1.6c-0.2-0.2-0.4-0.2-0.6-0.3c-0.9-0.1-1.8-0.1-2.7-0.2c0.9-0.6,1.4-1.5,1.8-2.4c0-0.2,0-0.4-0.1-0.5
		c3.9-3.4,4.8-7.1,2.8-11c-3-0.3-5.9,0.2-8.6,1.2c0,0.3,0,0.5,0,0.8c0,0.2,0,0.4,0,0.6c-0.3-0.3-0.7-0.6-1.1-0.9
		c-0.8,0-1.5,0-2.3-0.1c-0.6,0.5-1.3,1-1.9,1.6c-0.2,0.1-0.2,0.2-0.3,0.4c-0.5-0.1-1.1-0.2-1.8-0.1c-0.6,0.2-1.2,0.7-1.7,1.4
		c-0.1,0-0.1,0-0.1,0.1c-0.4,0-0.8,0-1.2,0c-0.1,0-0.3,0.1-0.5,0.2c-1.7,0.9-3.1,1.9-4,3c-0.1-0.2-0.2-0.3-0.4-0.4
		c8.2-7.9,8.4-16.9,0.5-27.1c-0.1-0.1-0.3-0.2-0.4-0.4c-2.1-2.3-4.4-4.2-6.8-5.6c1.4-0.2,2.9-0.5,4.6-1c0.7,1.5,1.6,1.9,3,1.2
		c0,0.1,0.1,0.1,0.2,0.1c0.5,0.2,1,0.2,1.6,0.2c0,0.2,0.1,0.3,0.2,0.3c0.9,0.6,1.8,1.2,2.5,2c-0.1,0.6,0,1.1,0.3,1.5
		c0.1,0.1,0.2,0.2,0.2,0.4c0.8,0.5,1.5,0.8,2.1,0.8c-0.1,0.1-0.1,0.1-0.1,0.2c0.1,0.3,0.2,0.7,0.3,1.1c0,0.6,0.1,1.2,0.1,1.9
		c0,0.1,0.1,0.2,0.1,0.3c0.3,0.3,0.5,0.5,0.8,0.8c0.1,0.1,0.2,0.2,0.3,0.4c3.7,0.7,6.7,0,9.2-2.2c0-0.1-0.1-0.2-0.1-0.3
		C78.3,33.8,76.4,32.1,73.8,31.3z M74.1,57.5c0.8,0.5,1.6,1.1,2.2,1.8c1.4,1.7,2.6,3.5,3.5,5.5c0,0.1,0,0.2,0,0.4s0,0.6,0.1,0.8
		c-0.6,0.3-1.2,0.7-1.8,1c-0.1,0.1-0.2,0.2-0.3,0.3c-0.1-0.6-0.4-1.2-0.6-1.7c-0.7-1.3-1.3-2.7-1.9-4.1c-0.3-0.1-0.5-0.2-0.6-0.5
		c-0.7-1.2-1.6-2.1-2.7-2.6C72.6,57.8,73.3,57.5,74.1,57.5z M77.3,58c0-0.1,0-0.3-0.1-0.6c2.1-1.4,4.5-1.7,7.1-0.9
		c-0.2,2.7-1.3,5-3,6.9C80.2,61.4,78.9,59.6,77.3,58z M73.3,63.3c1.1,1.6,2.2,3.4,3,5.2c-0.3,0.3-0.6,0.5-0.9,0.7
		c-0.2,0.2-0.4,0.3-0.7,0.5c-0.6,0-1.2,0.1-1.8,0.4c0-0.2,0-0.3,0-0.4c-0.6-3.6-2-6.8-4.3-9.4c0.4-0.4,0.9-0.6,1.5-0.5
		c0.2,0.1,0.4,0.2,0.6,0.2c0.3,0.1,0.6,0.2,0.9,0.3C72,61.3,72.6,62.3,73.3,63.3z M45.5,12.8c0-0.1,0-0.1,0.1-0.1
		c4.6,0.1,8.4-1.1,11.1-3.8l0,0c1.1-0.2,1.3,0.1,0.5,1c0,0.2,0,0.3,0.1,0.3c1.1,0.9,1.6,1.6,1.4,2.2c-3.7-0.6-7-0.2-10,1.4
		c0,1.4-0.5,1.6-1.5,0.6C46.9,13.6,46.3,13,45.5,12.8z M46,14.5c0,0.2,0.1,0.3,0.1,0.4c-0.8,0.1-1.2-0.2-1.4-1l0,0
		c0.1,0,0.2,0.1,0.3,0.1C45.3,14.2,45.6,14.4,46,14.5z M43.7,14.5c0,0.2,0,0.3,0,0.4c0.2,1,0.9,1.3,1.9,1c0.6-0.2,1,0,1.1,0.6
		c-0.6,0.3-1.3,0.5-2,0.7c-0.1,0.1-0.3,0.1-0.5,0.2c-0.4,1.1-0.9,2.1-1.6,3c-0.4,0.6-0.6,1.1-0.7,1.4c0-0.1,0-0.2-0.1-0.4
		c-0.1-0.1-0.2-0.2-0.4-0.2c-0.2-0.1-0.4-0.1-0.5-0.1c0.5-0.4,0.9-1,1.1-1.9c0.2-1,0.4-2,0.7-3c-0.5-0.5-0.8-1-0.9-1.5
		c-0.1-0.2-0.1-0.3-0.1-0.4C43,13.2,43.7,13.2,43.7,14.5z M34.7,15.2c0,0.2,0,0.5,0,0.7c0.1,1.9,0.5,3.4,1.4,4.7
		c-0.4,0.1-0.7,0.2-1,0.4c-0.8-1.7-2-3-3.5-4.1c0.3-0.1,0.6-0.3,0.9-0.6c0.1,0,0.2-0.1,0.2-0.3c0-0.5,0-1-0.1-1.4
		c0-0.5,0.1-0.9,0.5-1.2c0.3,0.3,0.6,0.4,0.8,0.7C34.4,14.4,34.6,14.7,34.7,15.2z M31.9,13.2c-0.1,0.6-0.2,1.2-0.2,1.8v0.1
		c-1.8-2.8-4.2-3.9-7.2-3.7H24c0.3-0.1,0.4-0.5,0.3-1.1c0-0.1,0-0.2-0.1-0.3c-0.9-0.8-1.7-1.8-2.4-3.1c0.2-0.2,0.5-0.4,0.7-0.5
		c0.8-0.4,1.2-0.1,1.1,1c2.4,2.8,5.3,4.5,8.7,5.1C32.1,12.7,32,12.9,31.9,13.2z M40.5,23.4c0.4,0.4,0.5,0.8,0.1,1.3
		c-0.1,0.1-0.2,0.3-0.3,0.6c0,0.1,0,0.2-0.1,0.3c-0.9,0-1.9,0.1-3,0.2c-0.3,0-0.6,0.1-0.9,0.1c0-0.1-0.2-0.2-0.3-0.4
		c-0.5,0.2-0.8,0-1.1-0.5c-0.1-0.2-0.2-0.4-0.2-0.7c-0.1-0.2-0.2-0.5-0.4-0.8C36.5,22,38.6,21.9,40.5,23.4z M32.5,22.9
		c0,0.5,0.2,1,0.3,1.5c-1.5-0.9-3.2-1.2-5.1-1.1l-0.2,0.1c2,0.9,3.8,1.5,5.3,1.7c-1-0.1-2-0.1-3.1-0.2c-0.2,0.2-0.3,0.2-0.1,0.2
		c1.2,0.2,2.4,0.3,3.7,0.2c0.2,0.4,0.5,0.7,0.7,1.1c-2.5,0.5-5,1.2-7.6,2.1c-0.1,0.1-0.3,0.2-0.5,0.2c-0.4-0.6-0.8-1.2-1.1-1.9
		c0.3-0.1,0.8-0.3,1.3-0.6c0-0.2-0.1-0.2-0.1-0.3c-0.7-0.6-1.5-1.1-2.3-1.6c0-0.1,0-0.2,0-0.3c0.9,0,1.5-0.2,1.9-0.8
		c0-0.2-0.1-0.3-0.1-0.3c-0.7-0.6-1.3-1-2.2-1.3c0-0.5,0.1-1,0.2-1.6c0.1,0.1,0.2,0.2,0.3,0.2c3,1.2,6,2,8.9,2.4
		C32.6,22.7,32.5,22.8,32.5,22.9z M51.7,22.8l-0.5,0.1c0.7,0.5,1.4,0.7,2,0.8c-0.2,0.8-0.5,1.7-0.9,2.5c-0.5,0.4-0.8,0.9-1.1,1.4
		c-2.8-1.2-5.9-1.9-9.2-2c0,0,0,0,0-0.1c-0.1-0.4,0-0.8,0.2-1.1c0.1-0.1,0.1-0.2,0.1-0.2c1.6,0.7,2.9,1.1,3.9,1.2
		c-0.3-0.2-0.6-0.4-1-0.6c0-0.1-0.1-0.1-0.1-0.1c-0.3-0.2-0.5-0.4-0.8-0.7c-0.6,0-1.2-0.1-1.8-0.3l0,0c0-0.1,0-0.2,0-0.3
		c1.3,0.4,2.8,0.3,4.5-0.1c-0.1-0.1-0.1-0.1-0.2-0.1c-1.3-0.2-2.6-0.3-4-0.4c0.2-0.3,0.4-0.7,0.6-1c3.2-1.2,6.6-1.7,10.2-1.6
		c0,0.4,0,0.9,0,1.4c-1-0.1-1.9-0.1-2.9-0.2l-0.1,0.1c0.5,1,1.5,1.2,2.9,0.7c0,0.3-0.1,0.6-0.1,0.8C52.8,22.9,52.3,22.8,51.7,22.8z
		 M65.2,10.7c0.1,0.1,0.2,0.2,0.4,0.3c0.3,0.3,0.6,0.5,0.9,0.8c-0.5,2.3-1.8,3.7-3.9,4.1c-0.3-0.2-0.5-0.5-0.7-0.7
		c-0.8-1-1.4-2-1.7-3c0-0.4,0-0.7-0.1-1c0,0,0-0.2,0-0.3l0.1-0.1c0.5-0.3,1-0.5,1.5-0.6C62.7,10.2,63.9,10.3,65.2,10.7z M60.6,23.8
		c0-0.1,0.1-0.1,0.1-0.1c1-0.2,1.5,0,1.8,0.8c-0.7,0.6-1.3,1.4-1.8,2.4c0.8,1.2,0.5,1.5-0.7,0.9c-0.3-1-0.9-1.4-1.8-1.4
		c0.8-0.1,1.4-0.5,1.9-1.1c0-0.1,0-0.2,0-0.4C60.1,24.5,60.2,24.1,60.6,23.8z M53.1,28.4c-0.2,0-0.3-0.1-0.5-0.2
		c0.4-0.3,0.7-0.7,0.9-1.1c0.8,0.1,1.4,0.1,2,0.1C54.5,27.4,53.7,27.8,53.1,28.4z M63.7,24.9c0,0,0,0,0.1,0c1.2,0.2,1.8,1.1,1.7,2.6
		c0.9,1.1,1.9,2.1,3,3c0.9,0,1.8,0,2.7,0c-1,0.2-1.6,0.7-2,1.7c-0.5,1.2-1.1,1.3-1.6,0.2c-1-1.9-2.5-3.6-4.5-4.9c0-0.1,0-0.2,0-0.3
		c0-0.4,0.1-0.7,0.1-1C63.7,25.9,63.8,25.5,63.7,24.9z M15.2,9.4c-0.5-0.4-1-0.9-1.4-1.5c0-0.1,0-0.2,0-0.3
		c-0.4-2.2,0.1-4.1,1.4-5.7c2.3,1.2,4,2.9,5.3,5.1C18.9,8.4,17.2,9.2,15.2,9.4z M17.9,27.9c0.2,0.2,0.3,0.3,0.4,0.4
		c2,0.5,3.8,0.4,5.4-0.2c0.4,0.5,0.7,0.8,1.1,1.1c-0.6,0.2-1.2,0.5-1.7,0.7c-0.5-0.1-0.9-0.3-1.4-0.4c-0.5,0.3-1,0.5-1.5,0.7
		c-0.1,0.1-0.2,0.1-0.4,0.1c-0.1-0.3-0.3-0.5-0.5-0.7c-0.1-0.2-0.2-0.3-0.3-0.4c-0.7,0-1.2-0.2-1.7-0.7c-0.1-0.1-0.2-0.2-0.3-0.3
		C16.9,27.4,17.3,27.4,17.9,27.9z M18,31l0.1,0.2c-0.4,0.2-0.9,0.2-1.4,0c-0.3,0.1-0.7,0.3-1,0.4c-1.6,0.6-2.7,1.5-3.5,2.7
		c0,0.1,0,0.2,0,0.4c0,0.1,0,0.2,0.1,0.3c0.1,0.5,0,0.7-0.3,0.8c-0.2-0.1-0.3-0.3-0.4-0.4c-0.8-1-2-1.7-3.4-2v-0.2
		c0.8,0,1.7-0.1,2.5-0.2c0.1-0.1,0.2-0.2,0.3-0.2c1.6-0.8,3-1.5,4.5-2.3C16.4,30.2,17.2,30.3,18,31z M19.3,31.7c0.2,0,0.4,0,0.7,0
		c-5,3.5-7.2,8.2-6.8,14.4c1.8-7.6,6.6-12.9,14.3-15.9c9.1-3.6,17.7-3,25.8,1.6c9.6,5.6,13.4,13.5,11.5,23.7c-0.9,1.6-1.9,3-3.1,4.3
		c-2.2-1-4.5-1.9-6.8-2.5c0.2-1.3,0.3-2.6,0.4-3.9h-0.1c-0.6,1.1-1.2,2.3-1.7,3.6c-2.4-0.5-4.8-0.9-7.3-1c-0.1-1.3-0.4-2.7-0.9-4
		c-0.1,0.1-0.2,0.1-0.2,0.2c-0.1,1.3-0.1,2.6,0,3.8c-1.6,0-3.2,0-4.9,0.2c-1.2,0.1-2.4,0.4-3.6,0.6c-0.2-1.2-0.7-2.3-1.3-3.4
		c-0.1,0.1-0.2,0.1-0.2,0.1c0.1,1.2,0.3,2.4,0.5,3.5c-2.3,0.5-4.6,1.2-6.9,2c-0.6-1-1.2-1.9-2-2.7c0,0.1-0.1,0.1-0.1,0.2
		c0.3,1,0.7,1.9,1.1,2.8c-0.1,0.1-0.1,0.1-0.2,0.1c-2.4,0.9-4.5,2.2-6.1,4c-0.5-0.6-1.1-1.1-1.8-1.3c-0.1-0.6-0.2-1.3-0.4-1.9
		c-0.1-0.2-0.2-0.3-0.4-0.4c-0.1-0.1-0.3-0.2-0.5-0.3c0.2-0.3,0.5-0.6,0.6-1.1c0.1-0.1,0.1-0.2,0.2-0.4c-0.4-1.6-0.8-3.3-1.2-4.8
		c-0.2-0.6-0.5-1.1-1-1.3c0.3-0.4,0.3-0.8,0.2-1.2c-0.4-1-0.9-1.9-1.6-2.8c-0.2-0.1-0.4-0.2-0.6-0.3c-0.5-0.2-1.1-0.3-1.6-0.5
		c-0.4-1.4-0.9-2.7-1.6-3.8c0.2-0.1,0.3-0.2,0.5-0.3c0.1-0.1,0.1-0.2,0.1-0.3c0.3-2,0.2-3.9-0.4-5.7c0.3,0.1,0.5,0,0.8-0.1
		c0.4-0.3,0.5-0.7,0.5-1.1c-0.1-0.4,0-0.8,0.1-1.1c1.8-1.5,3.8-2.3,5.9-2.5c0-0.3,0-0.5,0-0.7C19.3,31.6,19.3,31.6,19.3,31.7z
		 M12.5,46.9c-0.2,0-0.5-0.1-0.8-0.1c-3.3-0.7-6.2-0.4-8.7,0.9c0-0.3,0.1-0.7,0.1-1.1c0.3-2.4,1-4.7,2.1-6.8
		c0.1-0.1,0.1-0.1,0.1-0.1c0-0.1,0-0.1,0.1-0.2c0.3,0.2,0.6,0.4,0.9,0.6C8.6,42.6,10.7,44.9,12.5,46.9z M14.5,49.3
		c0,0.1,0,0.3,0,0.3c0.4,0.6,0.5,1.3,0.5,1.9c0,0.1,0,0.2,0,0.3c-1.2,0-2.5,0-3.8,0v0.1c-2.9,0-5.7,0.7-8.1,2C3,53.8,3,53.8,3,53.8
		c-1.1-1-1.4-2.2-0.9-3.5c0.1-0.1,0.2-0.2,0.4-0.4c0.2-0.2,0.5-0.5,0.7-0.7C7.3,48.2,11.1,48.2,14.5,49.3z M10.2,35.5
		c0,0.2,0,0.3,0.1,0.4c0,0.1,0.1,0.2,0.2,0.3c0.1,0.6,0.3,1.3,0.7,2.1c0,0.1,0,0.2,0,0.4c0.1,1.1-0.1,2.2-0.4,3.2
		c-1.4-1.8-3.3-3.3-5.6-4.5c-0.1,0.1-0.3,0.2-0.4,0.3c-0.2,0.1-0.3,0.2-0.4,0.3c-0.2-0.2-0.4-0.4-0.6-0.6C4,37.2,4.3,37,4.5,36.9
		c1.6-0.6,2.8-1.2,3.6-1.8C8.8,35.2,9.5,35.4,10.2,35.5z M1.8,57.4c-0.1-0.1-0.1-0.2-0.2-0.4c4.4-2.7,9.2-3.7,14.2-3
		c0.8,1.1,1.1,2.4,1,3.8c0,0.1,0,0.2-0.1,0.4c-0.5,0.2-0.7,0.4-0.8,0.7c-4.2-0.2-8.2,0.7-11.8,2.7c-0.2-0.6-0.7-1.1-1.6-1.4
		c0,0,0,0,0-0.2C2.3,59.2,2.1,58.3,1.8,57.4z M4.3,67.4c0-0.1,0-0.2,0.1-0.4c0-0.4-0.1-0.9-0.4-1.2c-0.1-0.2-0.2-0.4-0.2-0.6
		c0-0.3-0.1-0.5-0.1-0.8c-0.1-0.1-0.1-0.2-0.1-0.4c0.1-0.1,0.3-0.2,0.4-0.2c3.9-1.9,8.1-2.8,12.7-2.9c1.4,1.1,1.6,2.7,0.8,4.9
		C14.6,73.4,10.1,74,4.3,67.4z M28.3,61c0.1,0,0.1,0,0.1,0c0.4,0.9,1,1.7,1.6,2.5c0-0.1,0.1-0.2,0.1-0.3c-0.2-0.9-0.4-1.8-0.7-2.5
		c2.2-0.8,4.4-1.4,6.6-1.8c0.2,0.7,0.3,1.4,0.5,2.1c0.2,0,0.3-0.1,0.3-0.1c0-0.8,0.1-1.5,0.1-2.2c2.7-0.6,5.5-0.9,8.3-0.9
		c0.2,1.3,0.4,2.5,0.9,3.6c0-0.1,0-0.2,0.1-0.4c0.1-1.1,0.2-2.2,0.1-3.3c2.3,0,4.5,0.1,6.7,0.4c-0.3,1-0.6,1.9-0.9,2.9
		c-0.2,1,0.2,1.3,1.1,1c0.1-0.1,0.2-0.2,0.2-0.3c0.5-1.1,0.9-2.2,1.2-3.3c2.4,0.3,4.6,0.9,7,1.6c-0.5,0.6-1.1,1.2-1.7,1.7
		c-0.1,0-0.2,0-0.2,0c-0.1,0-0.2,0.1-0.2,0.2c0,0.1,0,0.1,0,0.1c-2.9,2.6-6.6,4.3-10.8,5.4c-9.4,2.2-18.3,1.8-26.8-1.5
		c0.1-0.5,0-1.1-0.1-1.9c-0.1-0.1-0.2-0.2-0.2-0.2C23.4,62.9,25.7,62,28.3,61z M20.5,67c-0.2,0.2-0.3,0.3-0.4,0.4
		c-0.3,0.6-0.7,0.9-1.2,1.2c0.5-0.9,0.7-2,0.8-3.2c0.3,0.1,0.5,0.4,0.8,0.5C20.5,66.2,20.5,66.6,20.5,67z M19.7,65
		c0.1-0.6,0-1.2,0-2c0.4,0.7,0.6,1.5,0.8,2.3C20.2,65.3,20,65.1,19.7,65z M70.7,37.4c-0.1-0.1-0.2-0.2-0.2-0.4
		c-0.3-1.7,0.1-3.2,1-4.3c2.6,0,4.7,1.3,6.3,3.8C75.4,37.8,73.1,38.1,70.7,37.4z M67.3,61.7c0.2,0.2,0.3,0.4,0.4,0.7
		c1.8,2.4,3,5,3.6,7.9c-1,0.5-2.1,0.9-3.2,1c0.2-0.3,0.5-0.6,0.6-0.9c-0.2,0.3-0.5,0.4-1,0.5c-0.7,0.1-1.3,0.3-1.8,0.5
		c-1.1-0.1-2.2-0.3-3.2-0.6c0-0.1-0.1-0.1-0.1-0.1c0-0.1,0.1-0.2,0.1-0.3c-0.1,0-0.3,0-0.5,0l0,0c-0.5-0.5-1-1-1.4-1.5
		c0-0.1,0-0.2,0-0.4c-0.1-3.2,1.3-5.7,3.9-7.5c0,0,0,0,0.1,0C65.8,60.9,66.7,61.1,67.3,61.7z M54.7,66.8c-0.1,0-0.1,0-0.1,0v-0.1
		C54.6,66.8,54.6,66.8,54.7,66.8z M56.3,66.8c-0.1-0.1-0.1-0.2-0.1-0.3c-0.2-0.2-0.3-0.3-0.4-0.5c0.7-0.4,1.4-0.9,2.1-1.5
		c0.7-0.5,1.3-1,2-1.5c0.1,0.2,0.3,0.3,0.7,0.4c-0.9,1.4-1.1,2.9-0.7,4.5C59,67.1,57.7,66.7,56.3,66.8z"/>
	<path style="fill:#BE3689;" d="M23.2,45.8c0.8,2.3,2.3,3.5,4.6,3.8c8.8,0.6,12.6-3.2,11.4-11.4c-0.1-0.2-0.2-0.3-0.4-0.4
		c-0.6-0.4-0.7-0.8-0.3-1.2c0-0.1,0-0.2,0-0.3c-0.7-0.6-1.4-1.2-2.1-1.8c-0.2-0.1-0.3-0.2-0.4-0.3c-0.5-0.1-1-0.3-1.4-0.5
		c-1.4-1.1-3.2-1.1-5.4-0.3C23.2,35.9,21.2,40,23.2,45.8z M25.2,47.2c-0.1-0.1-0.2-0.3-0.2-0.4c-2.6-5-1.2-8.8,4.2-11.6
		c1.5,0,3,0,4.5,0c0.1,0.1,0.2,0.2,0.2,0.4c0.1,0.1,0.1,0.2,0.1,0.3c0.1,0.1,0.2,0.3,0.3,0.4c0.5,0.1,0.9,0.2,1.3,0.3
		c0.1,0.1,0.2,0.1,0.2,0.2c0.5,0.3,0.8,0.6,1,0.9c0.5,0.6,0.8,1.3,1.2,2.1c0,0.6-0.1,1.2-0.1,1.9c-0.2,1.6-0.7,3.3-1.6,4.9
		C32.6,49.1,28.9,49.3,25.2,47.2z"/>
	<path style="fill:#BE3689;" d="M52.7,46.8c1.1-0.5,1.8-1.4,2.2-2.4c2.3-6.7-0.4-10.3-8.2-11c-0.8,0.2-1.6,0.5-2.4,1
		c-1.6,1-2.7,2.3-3.3,3.9c0,1,0,2,0,3c0.1,2.8,1.6,4.8,4.3,6C47.9,48.2,50.3,48.1,52.7,46.8z M54.6,39.7c0.4,1.1,0.5,2.2,0.2,3.3
		C51,47,47,47.1,43,43.4c0-0.1,0-0.2-0.1-0.3c-1.2-3.7,0-6.3,3.8-7.9c2.6,0.2,5,1.1,7.1,2.6C54,38.4,54.3,39.1,54.6,39.7z"/>
	<path style="fill:#BE3689;" d="M80.7,69.8c-0.1,0.1-0.2,0.1-0.4,0.2c-2.5,0.4-4.3,1.6-5.3,3.4c0.8,0.1,1.6,0,2.5-0.3
		C80.6,71.8,81.7,70.7,80.7,69.8z"/>
	<path style="fill:#BE3689;" d="M3.2,74.3c4-1,4.9-1.9,3-2.5v0.1c-1.7,0.4-3.3,1-4.9,1.6C1.7,74.3,2.4,74.5,3.2,74.3z"/>
	<path style="fill:#BE3689;" d="M19.6,72.5c3.5-0.8,5.4-1.9,5.6-3.2c-6.4,1.3-12.7,3.3-18.6,6.1C10.4,74.6,14.8,73.7,19.6,72.5z"/>
</g>
</svg>
