<?xml version="1.0" encoding="iso-8859-1"?>
<!-- Generator: Adobe Illustrator 12.0.1, SVG Export Plug-In . SVG Version: 6.00 Build 51448)  -->
<!DOCTYPE svg PUBLIC "-//W3C//DTD SVG 1.1//EN" "http://www.w3.org/Graphics/SVG/1.1/DTD/svg11.dtd" [
	<!ENTITY ns_svg "http://www.w3.org/2000/svg">
	<!ENTITY ns_xlink "http://www.w3.org/1999/xlink">
]>
<svg  version="1.1" id="Layer_1" xmlns="&ns_svg;" xmlns:xlink="&ns_xlink;" width="86.3" height="90.34" viewBox="0 0 86.3 90.34"
	 style="overflow:visible;enable-background:new 0 0 86.3 90.34;" xml:space="preserve">
<g>
	<g>
		<path style="fill:#BE3689;" d="M84.5,8.4L84.5,8.4c-4.7,5.2-9.2,10.5-13.5,15.9c2.7-1.7,5.5-4.1,8.3-7.3
			C82.1,13.9,83.8,11,84.5,8.4z"/>
		<path style="fill:#BE3689;" d="M81.5,23.6c-0.1,0.1-0.2,0.2-0.4,0.2c-3,0.8-5.6,2-7.7,3.6c1.5,0.4,3.3,0.2,5.3-0.5
			C82.7,25.6,83.6,24.5,81.5,23.6z"/>
		<path style="fill:#BE3689;" d="M86.3,84.6c0-0.1-1.5-1.5-4.5-4.4c-3-2.8-8.8-4.6-17.3-5.3c-2.5,0.5-5,1.1-7.6,2
			c-0.8,0.2-1.5,0.6-2,1.1c0,0,0,0-0.1,0c-0.2-1.1-0.7-2.1-1.5-2.8c0.9-0.3,1.8-0.5,2.7-0.8c5.9-2,10-6.1,12.2-12.4
			c2.9-8.3,2-15.4-2.6-21.2c0-0.2-0.1-0.3-0.1-0.3c-2.5-3.1-3.3-6.5-2.2-10.2c1.5-0.9,2.6-1.9,3.2-3c-0.1-0.2-0.2-0.3-0.3-0.4
			c-3-2.6-4.3-5.9-3.7-9.8c0.3-0.2,0.8-0.4,1.3-0.6c0.8-0.2,1.7-0.5,2.7-0.7c0.2-0.3,0.4-0.6,0.5-0.8c0.2-0.4,0.4-0.8,0.6-1.2
			c0.1-0.2,0.2-0.4,0.2-0.7c0-0.1-0.1-0.2-0.1-0.3c-2-3.1-5-4.7-9.2-4.7c-1.1,0.8-1.6,2.1-1.3,3.9c0.1,1,0.3,1.8,0.7,2.6
			c-0.4,1-0.7,1.9-1,2.9c-0.1-0.1-0.1-0.1-0.2-0.1c-0.9-0.1-1.8-0.2-2.7-0.3c-3.9,0.5-6.8,2.2-8.8,5.1c0.5-1.4,1-2.8,1.3-4.2
			c0.7-2.7,1.4-5.3,2.1-7.9c1.6-0.5,3.2-1.2,4.9-2.1c0.6-0.4,1-0.8,1.1-1.5c0.1-0.4,0-0.7-0.2-1c-0.3-0.6-0.4-1.2-0.3-2
			c0-0.1,0-0.2,0-0.4C54,3,53.9,2.9,53.7,2.8C51.1,0.7,48,0,44.5,0.5c-0.1,0.1-0.2,0.2-0.5,0.2c-0.5,0.2-1,0.4-1.3,0.7
			c0,0,0,0-0.1,0c-0.1-0.1-0.2-0.2-0.4-0.4c-0.1-0.1-0.3-0.2-0.4-0.4c-1.3,0-2.5-0.1-3.7-0.3c-0.7,0-1.4-0.1-2.1-0.3
			c-1.5,0.1-2.9,0.6-4.2,1.5c-1.4,1-2,2.2-2,3.8c0.8,1.1,2,1.9,3.4,2.5c0.8,0.3,1.5,0.8,1.9,1.6c0.4,1.8,0.7,3.5,0.9,5.3
			c0.3,3,1.2,5.3,2.5,6.8c0,0.1,0,0.1-0.1,0.2c-2.9-3.1-6.5-4.6-10.9-4.6c-0.4,0.6-0.7,1.2-1,1.8c-0.1-0.1-0.1-0.2-0.1-0.3
			c-0.5-1.3-1.1-2.6-1.9-3.7c0.2-1.1,0.5-2.2,0.7-3.4c0.3-1.1,0.1-2.1-0.4-3c-0.2-0.1-0.4-0.2-0.6-0.2C23,8.2,21.8,8.1,20.5,8
			c-0.8,0.3-1.6,0.7-2.3,1.3c-1.3,0.9-2.3,2-2.9,3.5c-0.1,1.1,0,2.2,0.2,3.3c0.1,0.2,0.1,0.3,0.3,0.4c1.3,0.7,2.8,1.2,4.3,1.4
			c0.1,1,0.4,2,0.9,3.2c-0.1,0.3-0.2,0.5-0.2,0.8c-0.3,0.6-0.4,1.2-0.4,1.9c-1.8,2.2-4,4-6.5,5.3c5.2,3.1,6.5,7,3.7,11.7
			c0.2-0.1,0.4-0.2,0.6-0.2c-2.1,2.9-3.7,6.3-4.7,10.1c-2.3,9,0.2,15.7,7.6,20.1c2.6,1.5,5.3,2.8,8,3.7c-0.2,0.2-0.3,0.4-0.6,0.5
			c0,0.3,0,0.5-0.1,0.7c-0.3,0.7-0.5,1.4-0.4,2.3c-0.3-0.1-0.6-0.3-0.9-0.5c-0.2-0.1-0.3-0.1-0.2,0.1c0,0,0.1,0.1,0.2,0.3
			c-3.6-2.4-7.8-3.4-12.6-3.1c-1.3,0.4-2.6,0.7-3.9,1.1c-1.2,0.2-2.9,1.3-5,3.3c-2.2,2-3.5,3.4-4,4.1c-0.7,0.8-0.9,1.8-0.5,2.8
			c0.1,0.3,0.2,0.5,0.3,0.8c0.5,0.1,1.1,0.2,1.7,0.2c-1.4,0.3-2.5,1-3.1,2.2c0.1,0.1,0.2,0.2,0.2,0.1c2.6-0.2,4.1-0.9,4.3-2.1
			c1.1,0.2,2.2,0.3,3.4,0.4c-1.4,0.4-2.6,1-3.8,1.9c0.1,0.2,0.1,0.2,0.1,0.2c2.7-0.4,4.6-1,5.7-2c1.2,0.1,2.4,0.1,3.6,0.2
			c-1.2,0.4-2.4,1-3.5,1.8c0.4,0.6,1.1,0.7,1.9,0.3c0,0,0.2-0.1,0.3-0.1c2-0.6,3.5-1.2,4.5-2c1.3,0,2.6,0,3.9,0c-1,0.5-2,1-3,1.6
			c0.3,0.2,0.6,0.2,0.8,0.2c1.9-0.6,3.8-1.3,5.6-2c1.8-0.2,3.5-0.4,5.3-0.6c-1.7,0.8-3.2,1.7-4.8,2.6c0.1,0.1,0.2,0.2,0.3,0.2
			c0.4,0.2,0.8,0.3,1.2,0.3c0.1-0.2,0.3-0.3,0.4-0.3c2.7-1.3,5.5-2.5,8.3-3.7c0.8-0.1,1.7-0.3,2.6-0.5c0-0.2,0-0.4-0.1-0.6
			c1.9-0.8,3.7-1.6,5.6-2.4c-0.2-0.2-0.4-0.3-0.6-0.3l0,0c1.5-0.8,3-1.4,4.4-1.9c0.4-0.1,0.8-0.2,1.1-0.3c-0.3,0.4-0.6,0.9-0.8,1.5
			c-5.4,1.8-9.8,4.5-13.1,7.8c0.2,0.1,0.4,0.1,0.6,0c4.8-2.4,8.9-4.8,12.3-7.4c-0.1,0.5-0.3,1-0.3,1.6c0.6,0.4,1.2,0.8,1.9,1.1
			c-3.5,1-6.1,2.7-7.9,5.1c0.2,0.1,0.3,0.1,0.5,0c2.7-1.7,5.6-3.2,8.7-4.5c0.9,0.3,1.8,0.6,2.8,0.8c-1.9,1-3.6,2.1-5.3,3.3l0.1,0.2
			c2.4-0.8,4.7-1.9,6.8-3.3c1.3,0.5,2.6,0.8,4,1c-0.7,0.3-1.5,0.6-2.4,0.9c0,0.1-0.1,0.1-0.1,0.2c-0.8,0.4-1,0.9-0.7,1.5
			c0.8,0.2,1.6,0,2.4-0.4c1.7-0.8,2.7-1.5,3.1-2.1c0.7,0.1,1.4,0.1,2.1,0c0.7,0.1,1.5,0.2,2.3,0.2c-0.8,0.5-1.6,1.1-2.2,1.7v0.3
			c2.4-0.3,3.7-1,4-1.9c1.5,0,3,0,4.5-0.1c-0.5,0.4-1,0.8-1.2,1.3c0.2,0.1,0.4,0.2,0.7,0.1c1.7-0.3,2.9-0.9,3.8-1.7
			c1.4-0.2,2.9-0.4,4.4-0.7c-1.1,0.6-2,1.5-2.7,2.5c0.7,0.5,1.4,0.4,2.4-0.1c2.3-1.3,3.8-2.4,4.4-3.4C83.9,85.5,85.1,85,86.3,84.6z
			 M58.4,11.1c0-0.6,0.2-1.1,0.6-1.5c1,0,2,0.1,3,0.4c2.2,0.6,3.4,1.8,3.8,3.5c-0.1,0.8-0.6,1.3-1.6,1.5c-1.2,0.3-2.2,0.5-3.3,0.9
			c-1.1,1.5-2,3.1-2.8,4.8c0,0.1,0,0.1-0.1,0.1c0-0.5-0.1-0.9-0.2-1.4c0.3-0.6,0.6-1.4,0.7-2.3c0.2-1,0.5-2,1.1-3
			c-0.1-0.2-0.3-0.4-0.5-0.7C58.7,12.8,58.4,12,58.4,11.1z M61.8,17.6l0.1-0.1c-1,3.8-0.1,7.1,2.6,9.9c-1.1,0.5-2,1.2-2.6,2.2
			c0,0.2,0,0.3-0.1,0.4c-0.5,2.4-0.5,4.8,0.2,7.1c-0.5-0.4-1-0.7-1.5-1.1c-0.2-0.2-0.4-0.5-0.6-0.8c0,0,0.1-0.1,0.2-0.2
			C60,35,60,35,60,34.9c-0.3-0.2-0.6-0.5-1-0.8c0,0,0,0.1-0.1,0.2c-0.9-0.8-1.8-1.6-2.8-2.3c0.6-0.4,1.1-0.9,1.7-1.5
			c0.7-1,1.6-1.8,2.6-2.5c1-0.1,2-0.2,3.1-0.4c0.2-0.1,0.5-0.1,0.8-0.2c-0.1-0.1-0.2-0.1-0.3-0.1c-1.2-0.6-2.5-0.8-4-0.5
			c-0.8,0.5-1.6,1-2.3,1.5c0.1-0.7,0.2-1.4,0.3-2.1c0.2,0,0.3,0,0.4,0c0-0.2,0-0.3,0-0.4c-0.1,0.1-0.2,0.1-0.2,0.1
			c0-0.3,0.1-0.6,0.2-0.8c0.5-1.2,0.9-2.5,1.2-3.7c0.2-0.1,0.3-0.3,0.4-0.4c0.4-0.7,0.7-1.2,1-1.9C61.3,18.6,61.5,18.1,61.8,17.6z
			 M44.3,3c-0.1-0.1-0.1-0.2,0-0.4c1.6-0.9,3.2-1.1,4.9-0.5c1.3,0.5,2.5,1.1,3.7,1.9c0,0.3,0,0.5-0.1,0.8c-0.1,0.4,0,0.9,0.3,1.2
			c0.1,0.1,0.1,0.1,0,0.3c-1.5,1-3.2,1.6-5.1,1.8c-0.1,0-0.3,0.1-0.5,0.2C47.3,8.6,47.1,9,47,9.4c-0.6,2-1.2,3.9-2,5.7
			c-0.9,2.4-1.3,4.6-1.3,6.5c0,0-0.1,0-0.2,0s-0.1,0-0.1,0.1s0,0.1,0,0.2s0,0.2,0.1,0.3c-0.5-0.2-0.9-0.4-1.3-0.4
			c1.3-2.2,2.1-4.7,2.3-7.5c0.3-3.2,0.7-6.3,1-9.4c-0.1-0.1-0.3-0.3-0.4-0.4C44.8,4,44.5,3.5,44.3,3z M44.3,6.2c0.1,0,0,0.1,0,0.2
			c-0.5,2.3-0.9,4.7-1.3,7c-0.6,2.9-0.9,5.6-0.9,8c-0.3-0.1-0.6-0.1-0.9-0.3c-0.3-1.5-0.6-3.1-0.8-4.7c-0.5-2.5-0.7-5.1-0.8-7.9
			c1.6-1,2.8-2.4,3.5-4c0-0.1,0-0.1,0.1-0.2C43.5,5,43.9,5.6,44.3,6.2z M41.2,4c0,0.3-0.1,0.5-0.2,0.8c-0.4,0.3-0.8,0.7-1.1,1.1
			c-0.2,0.1-0.3,0.2-0.4,0.3c-0.4,0.3-0.8,0.6-1.2,0.8c-0.1,2.3-0.1,4.4,0,6.4c0.3,3.6,1.1,6.3,2.6,8.1c-0.5-0.1-0.9-0.1-1.3-0.1
			c-0.4-1.1-0.7-2.2-0.9-3.4c-0.3-1.3-0.6-2.5-1.1-3.7c0-0.2,0-0.3,0-0.4s0-0.2,0.1-0.4c0-0.1,0-0.2,0-0.4c0.1-0.1,0.1-0.2,0.1-0.3
			c-0.7-1.4-1.2-2.9-1.4-4.5c-0.1-0.4-0.3-0.8-0.6-1.2c-0.6-0.2-1.1-0.5-1.7-0.7c-0.9-0.4-1.6-1-2.3-1.7c-0.2-0.1-0.2-0.3-0.2-0.6
			c2.7-2.5,5.9-3.1,9.7-1.6c0.4,0.4,0.4,0.8,0.1,1.2C41.3,3.8,41.3,3.9,41.2,4z M51.3,23.6c-0.1-0.1-0.2-0.2-0.3-0.2
			c-0.7-0.3-1.3-0.5-2-0.6c-0.1,0-0.3,0.1-0.5,0.1c-1.6,0.1-2.8,0.7-3.4,1.9c0,0,0,0-0.1,0c0,0-0.1,0-0.2,0.1
			c-0.1-0.4-0.1-0.8-0.1-1.2c0.1,0,0.1,0,0.1-0.1c-0.1,0-0.1,0-0.1,0c0-0.1,0-0.1,0-0.2s0.1-0.1,0.1-0.2c3.4-2.7,7.2-4,11.6-4.2
			c0,0.1,0,0.1,0,0.1c0.1,0.4,0.1,0.7,0.2,1c0,0.4,0,0.8,0.1,1.2c0.2,3-0.4,5.7-1.8,8.2c-0.4,0.3-0.8,0.5-1.1,0.8
			c-0.2,0.1-0.3,0.2-0.4,0.4c-0.8,0.1-1.6,0.3-2.4,0.7c-0.3-0.1-0.6-0.2-0.9-0.4c-2.1-0.9-3.9-2.3-5.3-4.1c-0.1,0-0.1,0-0.1,0
			c0-0.5,0-0.9,0-1.4c0.8,0.2,1.6,0.3,2.3,0.4c0.6,0.5,1.2,1,1.8,1.4c0.8,0.5,1.5,0.5,2.1-0.2c0.1-0.6-0.3-1-1.2-1.1
			c-0.8-0.1-1.4-0.5-1.9-1.1c-0.5,0-0.9,0-1.3-0.1C48.1,24.2,49.7,23.8,51.3,23.6z M45.3,29.3c-0.1,0-0.1-0.1-0.2-0.2V29
			c1.5,2.3,3.9,3.8,7.3,4.4c0.1-0.1,0.2-0.2,0.3-0.2c0.2-0.2,0.4-0.3,0.5-0.4c0.6,0.4,1.1,0.7,1.6,1.1c-0.3-0.1-0.5-0.1-0.8-0.1
			c3,1.7,6,4,8.9,6.9c4.3,4.3,6.1,9.2,5.3,14.8C67.5,61,64.4,66,59.1,70.4c-5.3,4.5-12.8,6-22.5,4.4c-9.7-1.6-17-5.5-21.9-12
			c-0.6-1.7-0.8-3.5-0.7-5.4c0.8-9.8,4.6-17.4,11.4-22.9h0.1c0,0,0,0-0.1,0c0.1-0.1,0.2-0.2,0.2-0.2c1.3-0.7,2.5-1.3,3.8-1.9
			c1,0.9,2.2,1.4,4,1.5c0.1-0.1,0.2-0.1,0.3-0.2c3-0.9,4.9-2.4,5.7-4.3C41.4,29,43.4,28.9,45.3,29.3z M39.3,24c0-0.1,0-0.2,0-0.4
			c0.1-0.4,0.4-0.7,0.7-0.8c0.1,0,0.1,0,0.1,0.1c0-0.1,0-0.1,0-0.1c0.4,0,0.9,0.1,1.6,0.5c0.5,0.3,1,0.6,1.6,0.8c0,0.4,0,0.8,0,1.2
			c0.1,0.5,0,1-0.3,1.5c-0.1,0.1-0.2,0.2-0.2,0.3v0.1c-1-0.1-1.9-0.2-2.9-0.2c-0.1,0-0.4-0.1-0.6-0.2v-0.2c0-0.3,0-0.7,0-1.1
			C39.3,25,39.3,24.5,39.3,24z M34.4,21c1.3,1,2.5,1.6,3.5,1.6c-0.2,0.5-0.3,1.2-0.4,1.8c-1.7-1.5-3.9-2-6.5-1.6l-0.4,0.1
			c1.9,0.6,3.7,1.2,5.6,1.8c-0.3-0.1-0.7,0-1.2,0.1c-0.7,0.3-1.4,0.8-2.1,1.3c-0.1,0.2-0.2,0.3-0.3,0.5l0.1,0.2
			c1.7-0.7,3.4-1,4.9-0.8c0.1,0.4,0.1,0.8,0.2,1.1c-0.1,0-0.2,0-0.3,0c-0.1,0.1-0.2,0.1-0.2,0.2c0.2,0,0.4,0.1,0.6,0.2
			c0.1,0.4,0.2,0.8,0.2,1.1c0,0.2,0,0.3,0,0.4c-1.7,1.4-3.7,2.3-5.8,2.9c-1-0.5-1.9-1.1-2.7-1.9c-0.1,0-0.2,0-0.3,0
			c-0.1-0.1-0.2-0.1-0.3-0.2c-0.1,0-0.2-0.1-0.4-0.3c-1.1-1.9-1.6-4-1.5-6.4c0-1.4,0.4-2.8,0.9-4.1c0.1-0.1,0.1-0.2,0.1-0.2
			c0.8-0.1,1.5-0.2,2.3-0.3C31.8,19.2,33.1,20,34.4,21z M57.1,28.7c0,0,0,0,0,0.1c0,0,0,0-0.1,0C57.1,28.8,57.1,28.8,57.1,28.7z
			 M21.2,18.1c0,0,0,0,0.1,0c0.6,1,1.1,1.9,1.7,3c1.5,2.9,2.6,6,3.2,9.2c-2.8-1-5.7-1.5-8.7-1.5c1.6-1.2,2.9-2.7,3.9-4.4
			c0-0.1,0.1-0.2,0.1-0.4C22.3,21.7,22.2,19.8,21.2,18.1z M23.1,13.6c-0.1,0.3-0.2,0.5-0.3,0.8c0.6,0.8,1,1.8,1.4,2.7
			c0.4,1.3,1,2.4,1.7,3.3c-0.1,0.5-0.3,1.1-0.3,1.6c-0.1,0-0.2-0.1-0.3-0.1c0,0,0,0.1,0.1,0.1c-0.9-1.9-2-3.7-3.3-5.5
			c-0.1-0.1-0.2-0.2-0.3-0.2c-1.9,0.1-3.6-0.3-5-1.3c0.6-4,3-5.6,7-4.7C23.6,11.4,23.3,12.5,23.1,13.6z M27.5,30.6
			c0.1,0,0.1,0,0.2,0c0.1,0,0.2-0.1,0.3-0.1s0.2,0.1,0.3,0.2c-0.2,0-0.2,0.1-0.4,0.2c-0.1,0-0.3-0.1-0.4-0.2V30.6z M17.1,29.6
			c0.1,0,0.3,0,0.5,0.1c3,0.6,6.1,1,9.1,1.4c0,0.1,0.1,0.3,0.1,0.5c-0.2,0.1-0.3,0.2-0.5,0.3c-0.8,0.5-1.5,1-2.1,1.6
			c-0.1-0.1-0.1-0.1-0.1-0.1c-0.3,0.3-0.7,0.6-1.1,0.9c0.1,0,0.2,0,0.2,0c-0.4,0.5-0.9,0.9-1.3,1.5l0,0c-0.4,0.5-0.8,1-1.1,1.5
			c0,0,0,0,0,0.1c0.1-1,0.1-2-0.2-3.3C19.7,32.5,18.5,30.9,17.1,29.6z M2.1,85c0.3-0.8,0.7-1.5,1.4-2.1c7.4-7.5,15.7-8.7,25-3.6
			c0.8,0.7,1.7,1.1,2.8,1.5c0-0.2-0.1-0.3-0.2-0.3c-0.5-0.6-1-1.2-1.7-1.6c0.1-0.2,0.1-0.3,0.1-0.5c0-0.1-0.1-0.2,0-0.4
			c0.3-1.3,0.5-2.4,0.3-3.2c1.2,0.3,2.4,0.7,3.6,1C32.8,78.2,33,80.3,34,82c-0.2,0-0.3,0.1-0.5,0.1c0,0.5,0.2,0.8,0.5,1.2
			c0.4,0.3,0.7,0.7,1.1,1.1c0,0.1,0,0.1,0,0.1c-0.3,0.1-0.7,0.3-1,0.5c-2.1,0.2-4.2,0.5-6.3,0.6c-0.3-0.1-0.5-0.1-0.8-0.2
			c0,0.1,0,0.1,0,0.1c-0.4,0.1-0.6,0.2-1,0.3c-7,0.6-14.2,0.8-21.4,0.7C3.4,86.5,2.6,86,2.1,85z M45.7,79.9c-0.1,0-0.1,0-0.2,0
			c0,0,0,0-0.1,0.1c-0.8,0.2-1.8,0.3-2.9,0.2c-3-0.1-5.7-0.2-8.1-0.3c-0.3-1.3-0.4-2.7-0.4-4c4.4,1,8.9,1.1,13.5,0.5
			c0.1,0.6,0.3,1.3,0.6,2.2c-0.4,0.1-0.7,0.3-1,0.7c0,0,0,0-0.1,0C46.6,79.5,46.2,79.8,45.7,79.9z M52.2,80.4
			c0.7-0.1,1.2-0.2,1.7-0.3c0,0.1,0,0.2,0,0.3c11.3-5.9,21.2-4.6,29.9,3.6c-8.7,2.1-17.6,2.8-26.5,2c-3.7-0.7-6.7-1.8-9.2-3.1
			c0-0.1,0.1-0.2,0.1-0.3c1.8-2.4,1.9-4.5,0.3-6.4c1.3-0.2,2.7-0.5,4-0.8c0.2,1.3,0.7,2.3,1.5,3c-0.8,0.4-1.5,1-2,1.9
			C52.1,80.4,52.2,80.5,52.2,80.4z M34.5,80.9c0-0.1,0-0.2,0-0.4c0,0,0,0,0-0.1c0.6,0.2,1.3,0.4,2,0.5c-0.5,0.3-0.9,0.6-1.3,1
			C35,81.5,34.8,81.2,34.5,80.9z M42.2,81.3c-0.7,0.3-1.2,0.7-1.8,1.1c-0.4,0.2-0.9,0.4-1.4,0.5c-0.8,0.3-1.6,0.6-2.3,1
			c-0.3-0.5-0.6-0.8-0.9-1.1c-0.1-0.1-0.1-0.2-0.1-0.2c0.9-0.3,1.8-0.8,2.6-1.4C39.6,81.4,40.9,81.4,42.2,81.3z"/>
		<path style="fill:#BE3689;" d="M41.3,39.9c0,0-0.1,0.1-0.2,0.1c-2.1-1.9-4.3-2.6-6.5-2.1c-0.4-0.3-1.1-0.5-2-0.6
			c0-0.2,0-0.3,0-0.4c0.2-0.7,0.1-1.2-0.3-1.5c-0.4-0.1-0.7,0-0.7,0.3c-0.2,0.9-0.1,1.8,0.3,2.6c0.2,0.1,0.4,0.3,0.6,0.4
			c-0.3,0.2-0.6,0.4-1,0.7c-0.6-0.3-1.4-0.5-2-0.9c0-0.1,0-0.2,0-0.4c0.1-0.4-0.1-0.7-0.4-1.1c-0.1,0.1-0.2,0.1-0.3,0.2
			c-0.4,0.8-0.4,1.5,0.1,2.2c0.4,0.4,0.9,0.8,1.4,0.9c-0.2,0.1-0.2,0.2-0.4,0.4c-1,0-1.9-0.5-2.6-1.3c-0.5-0.2-0.7,0-0.7,0.4
			c0,0.9,0.5,1.5,1.5,1.8c0.3,0.1,0.5,0.1,0.7,0.2c-4.5,4.7-4.4,9.6,0.3,14.5c4.8,1.4,8.9,0.5,12.5-2.4c2.6,2.3,5.6,2.8,9.1,1.4
			c5.4-2,7.2-5.7,5.4-10.9c-0.1-0.1-0.2-0.3-0.3-0.4c-0.8-1.5-1.8-2.8-3-3.7c0.2-0.1,0.4-0.2,0.6-0.3c0.1-0.1,0.2-0.2,0.4-0.4
			c0.9-0.8,1-1.7,0.3-2.6l0,0c-0.7,1.1-1.6,1.8-2.7,2.2c-0.4-0.2-0.8-0.4-1.1-0.6c0.4-0.4,0.8-0.9,1.2-1.3c0-0.2,0-0.3,0-0.4
			c0.1-0.7,0-1.3-0.4-1.9h-0.2c-0.2,1.8-1.1,2.8-2.4,3c-0.1,0-0.1,0-0.1,0c0-0.1,0-0.2,0.1-0.2c0.5-1.2,0.6-2.3,0.3-3.4
			c-0.9,0.5-1.4,1.6-1.8,3.2c0,0,0,0,0,0.1c-1-0.2-1.9-0.2-3-0.2c-0.2,0.2-0.6,0.3-1,0.5C42.2,38.4,41.7,39,41.3,39.9z M36.9,39
			c0.2,0.2,0.4,0.3,0.6,0.4c0.9,0.8,1.9,1.4,2.7,2c0.1-0.1,0.2-0.1,0.3-0.1c0.8,0.2,1.4,0.5,2,0.8c0.2-0.3,0.3-0.6,0.4-0.9
			c0.2-0.6,0.4-1.1,0.7-1.6c4.9-0.6,8.5,1.2,10.9,5.7c0.2,0.6,0.3,1.3,0.4,1.9c0.5,3-0.7,5.2-3.6,6.7c-3.9,1.2-7.1,0.5-9.8-2.4
			c-6.8,5.9-11.9,5.2-14.9-1.9c0-0.1,0-0.2,0-0.3c0.8-4.8,3.6-8.2,8.4-10.2C35.6,39.1,36.2,39.1,36.9,39z"/>
		<path style="fill:#BE3689;" d="M47.6,46.1c-0.1-0.1-0.2-0.2-0.4-0.2c-0.4-0.1-0.8-0.2-1.2-0.3c-0.4,0.1-0.7,0.4-0.9,0.8
			C45,46.8,45,47.2,45,47.6c0.5,1.4,1.4,1.8,2.6,1.2c0.3-0.4,0.5-0.7,0.5-1.2C48.2,47.1,48,46.6,47.6,46.1z"/>
		<path style="fill:#BE3689;" d="M35.5,46.4c-0.3,0.2-0.5,0.6-0.6,1.1c0,0.5,0.1,0.8,0.4,1.1c0.4,0.3,0.8,0.3,1.2,0.3
			c0.7-0.1,1-0.5,1-1.3c0.1-0.1,0.1-0.1,0.1-0.2C37,46.8,36.4,46.4,35.5,46.4z"/>
		<path style="fill:#BE3689;" d="M42.3,65.3c-0.1,0-0.2,0-0.3,0c-0.6,0.3-1.1,0.9-1.5,1.7c0,0.3,0,0.5,0,0.8c0,0.5,0,1,0,1.5
			c1.4,0.6,2.7,0.5,4-0.3c0.1-0.1,0.1-0.2,0-0.3C43.8,67.6,43,66.4,42.3,65.3z"/>
		<path style="fill:#BE3689;" d="M44.3,72c0-0.1,0.1-0.1,0.1-0.2c1.5-0.6,1.9-1.3,1.1-1.9c-0.1,0.1-0.2,0.1-0.4,0.2
			c-0.6,0.2-1.1,0.5-1.5,1c-0.5,0.1-1.1,0.1-1.7,0.2c-0.1-0.1-0.2-0.2-0.3-0.3c-0.7-0.6-1.4-0.7-2-0.2C40.8,72.1,42.3,72.6,44.3,72z
			"/>
		<path style="fill:#BE3689;" d="M72.5,13.6c-0.1,0.1-0.3,0.3-0.4,0.5c-1.3,2.3-2.6,4.7-3.7,7c0,0.2,0,0.3,0,0.4
			c-0.1,0.8,0.3,1,1.1,0.6c0-0.1,0.2-0.2,0.3-0.3C71.8,18.7,72.7,16,72.5,13.6z"/>
	</g>
</g>
</svg>
