<?xml version="1.0" encoding="iso-8859-1"?>
<!-- Generator: Adobe Illustrator 12.0.1, SVG Export Plug-In . SVG Version: 6.00 Build 51448)  -->
<!DOCTYPE svg PUBLIC "-//W3C//DTD SVG 1.1//EN" "http://www.w3.org/Graphics/SVG/1.1/DTD/svg11.dtd" [
	<!ENTITY ns_svg "http://www.w3.org/2000/svg">
	<!ENTITY ns_xlink "http://www.w3.org/1999/xlink">
]>
<svg  version="1.1" id="Layer_1" xmlns="&ns_svg;" xmlns:xlink="&ns_xlink;" width="101" height="100" viewBox="0 0 101 100"
	 style="overflow:visible;enable-background:new 0 0 101 100;" xml:space="preserve">
<g>
	<g>
		<path style="fill:#FFFFFF;" d="M101,100V0H0v100H101z"/>
	</g>
</g>
<g>
	<path style="fill:#BE3689;" d="M90.3,91.5c1.1-0.4,2.3-0.8,3.5-1.2c0-0.1-1.5-1.5-4.5-4.4c-3-2.8-8.8-4.6-17.3-5.3
		c-0.8,0.1-1.7,0.3-2.5,0.5c0-0.2,0-0.4,0-0.6s0-0.3-0.1-0.4c-0.1-0.4-0.4-0.8-0.8-1.1c3.2-2.3,5.6-5.5,7.1-9.8
		c3.4-10,1.5-18.2-5.8-24.5c0.1-0.1,0.1-0.2,0.2-0.2C70,44.2,70,44,69.9,43.8c-0.2-0.4-0.4-0.8-0.6-1.2c0-0.4,0-0.8,0-1.1
		c0-0.8,0-1.5,0-2.3c1.6-0.8,3.4-1.3,5.3-1.4c0-0.2-0.1-0.4-0.1-0.6c-0.5-1.2-1-2.6-1.4-3.9c0.1-0.2,0.2-0.5,0.2-0.7
		c0.2-0.5,0.3-1,0.6-1.5C74,31,74,31,74.2,31c0.1,0,0.2,0,0.3,0c1.5,1.7,3.2,3.1,5,4.1c0.4-0.2,0.7-0.5,1-0.8
		c2.6-3.1,3.2-6.5,1.6-10.3c-0.1-0.2-0.2-0.2-0.4-0.3c-0.4-0.1-0.8-0.2-1.2-0.2c-1.9,0.3-3.5,1.2-5,2.7c-4-0.6-7.2-0.1-10,1.6
		c-0.2-1-0.5-2-0.9-3c-0.1-0.1-0.2-0.1-0.4-0.2c-0.9-0.1-1.8-0.2-2.7-0.3c-4.2,0.5-7.4,2.5-9.3,5.9c-0.1,0-0.1-0.1-0.1-0.1
		c0-0.5,0.2-0.8,0.5-1.1c0-0.4,0-0.8,0-1.2c0-0.4,0-0.9,0-1.3c-0.2,0-0.4,0-0.6,0c0.9-3.6,2.5-6.8,5-9.7c2.3,1.2,5,1.1,8.1-0.2
		c0.1-0.1,0.1-0.2,0.2-0.2c0.2-0.4,0.5-0.8,0.7-1.2c0.1-0.1,0.2-0.2,0.3-0.4c0-0.1,0-0.2-0.1-0.3c-0.9-4.8-3.9-7.2-9.2-7.3
		c-0.9,1-1.5,2.4-1.6,4c0,0.8,0,1.6,0,2.5c-0.2,0.1-0.4,0.3-0.6,0.5c-2.6,2.6-4.3,5.2-5.2,8c-0.2-1.5-0.6-2.9-1.2-4.3
		c0.2,0.1,0.3,0.1,0.5,0.1c0-0.2,0-0.3-0.1-0.4c-0.3-1.1-0.9-2.1-1.5-3c0.5-1,0.7-2.2,0.6-3.6c-0.1-1.2-0.2-2.3-0.4-3.4
		c-0.2-0.1-0.5-0.2-0.8-0.3c-1.4-0.2-2.8-0.4-4.2-0.6c-0.3,0.3-0.8,0.5-1.4,0.8c-2.6,0.9-4.5,2.5-5.8,4.8c0,0.2,0,0.3,0,0.4
		c0,0.7,0,1.3,0.1,1.9c0,0.1,0,0.2,0.1,0.4c2.3,2.2,5,3.4,8.1,3.6c0.8,1,1.3,2.1,1.4,3.4c0.2,1.2,0.3,2.3,0.6,3.3
		c-0.3-0.1-0.6-0.2-0.9-0.3c0.7,1.1,1.2,2.4,1.5,3.7c0,0-0.1,0-0.2,0c0,0.1,0,0.1-0.1,0.2c-2.9-3.1-6.5-4.6-10.9-4.6
		c-0.6,0.8-1.1,1.7-1.4,2.7c-1.5-1.4-3.3-2.1-5.6-2l0,0c-1.3-2.3-3.2-4-5.5-5.2c-0.1,0.1-0.2,0.3-0.4,0.4c-0.7,0.6-1.5,1.2-2.2,1.6
		c-0.5,0.9-0.8,1.8-0.9,2.7c-0.3,2.2,0.1,4.4,1,6.3c0.1,0.2,0.2,0.3,0.4,0.4c0.2,0.3,0.5,0.5,0.7,0.8c1.9-0.5,3.5-1.3,4.7-2.5
		c0.2,0.7,0.5,1.3,0.7,2c-0.8,1.5-1.8,2.8-3.1,4.1c2.2,0.6,3.9,1.8,5,3.6c0,0,0-0.1,0-0.2s0.1-0.1,0.2-0.2c0.1,0.3,0.1,0.5,0.1,0.8
		c0.1,0.1,0.1,0.2,0.1,0.3c0,0,0,0.1,0.1,0.2c0,0.1,0,0.2,0,0.4c-0.1,0.2-0.1,0.5-0.1,0.7c-0.2,0.1-0.3,0.1-0.5,0.2c0,0,0,0.1,0,0.2
		c0.1,0,0.2,0,0.4,0c-0.3,1.1-0.9,2.1-1.8,3c0.3,0.1,0.7,0.2,1.1,0.3c-3.3,3.6-5.6,7.9-7,13c-2.3,9,0.2,15.7,7.6,20.1
		c0.4,0.2,0.8,0.4,1.2,0.7c-0.1,0-0.2,0-0.3,0.1c-0.3,0.2-0.6,0.4-0.9,0.8c0,0-0.1,0.1-0.1,0.2c0,0.3,0,0.5,0,0.8
		c0,0.1,0.1,0.2,0.1,0.3c0.1,0,0.2,0.1,0.3,0.2c-2.2-0.6-4.4-0.8-6.9-0.6c-1.3,0.4-2.6,0.7-3.9,1c-1.2,0.3-2.9,1.4-5,3.4
		c-2.2,2-3.5,3.4-4,4.1c-0.7,0.8-0.9,1.8-0.5,2.8c0.1,0.3,0.2,0.5,0.3,0.8c0.5,0.1,1.1,0.2,1.7,0.2c-1.4,0.3-2.5,1-3.1,2.2
		c0.1,0.1,0.2,0.2,0.2,0.1c2.7-0.2,4.1-0.9,4.3-2.1c1.1,0.2,2.2,0.3,3.4,0.4c-1.4,0.4-2.6,1-3.8,1.9c0.1,0.2,0.1,0.2,0.1,0.2
		c2.7-0.4,4.6-1,5.7-2c1.2,0.1,2.4,0.1,3.6,0.2c-1.2,0.4-2.4,1-3.5,1.8c0.4,0.6,1.1,0.7,1.9,0.3c0.1,0,0.2-0.1,0.3-0.1
		c2-0.6,3.5-1.2,4.5-2c1.3,0,2.6,0,3.9,0c-1,0.5-2,1-3,1.6c0.3,0.2,0.6,0.2,0.8,0.1c1.9-0.5,3.8-1.2,5.6-1.9
		c1.8-0.2,3.5-0.4,5.3-0.6c-1.7,0.8-3.2,1.7-4.8,2.6c0.1,0.1,0.1,0.2,0.3,0.2c0.3,0.2,0.8,0.2,1.2,0.3c0.1-0.2,0.3-0.3,0.4-0.3
		c2.7-1.3,5.5-2.5,8.3-3.7c0.8-0.1,1.7-0.3,2.6-0.5c0-0.2,0-0.4-0.1-0.6c1.9-0.8,3.7-1.6,5.6-2.4c-0.2-0.2-0.4-0.3-0.6-0.3l0,0
		c1.5-0.8,3-1.4,4.4-1.9c0.4-0.1,0.8-0.2,1.1-0.3c-0.3,0.4-0.6,0.9-0.8,1.5c-5.4,1.8-9.8,4.5-13.1,7.8c0.2,0.1,0.4,0.1,0.6,0
		c4.8-2.4,8.9-4.8,12.3-7.4c-0.1,0.5-0.3,1-0.3,1.6c0.6,0.4,1.2,0.8,1.9,1.1c-3.5,1-6.1,2.7-7.9,5.1c0.2,0.1,0.3,0.1,0.5,0
		c2.7-1.7,5.6-3.2,8.7-4.5c0.9,0.3,1.8,0.6,2.8,0.8c-1.9,1-3.6,2.1-5.3,3.3l0.1,0.2c2.4-0.8,4.7-1.9,6.8-3.3c1.3,0.5,2.6,0.8,4,1
		c-0.7,0.3-1.5,0.6-2.4,0.9C63,94.2,63,94.2,63,94.3c-0.8,0.4-1,0.9-0.7,1.5c0.7,0.1,1.6,0,2.4-0.4c1.7-0.8,2.7-1.5,3.1-2.1
		c0.7,0.1,1.4,0.1,2.1,0c0.7,0.1,1.5,0.2,2.3,0.2c-0.8,0.5-1.6,1.1-2.2,1.7v0.2c2.4-0.2,3.7-0.9,4-1.8c1.5,0,3,0,4.5-0.1
		c-0.5,0.4-0.9,0.8-1.2,1.3c0.2,0.1,0.4,0.2,0.7,0.1c1.7-0.3,2.9-0.9,3.8-1.7c1.4-0.2,2.9-0.4,4.4-0.7c-1.1,0.6-2,1.5-2.7,2.5
		c0.7,0.4,1.4,0.4,2.4-0.1C88.2,93.6,89.7,92.5,90.3,91.5z M62.4,10.6c0.6,0.4,1.2,1,1.7,1.6c0.1,0.3,0.1,0.5,0.2,0.8
		c0.1,0.2,0.2,0.5,0.3,0.7c0.1,0.2,0.1,0.3,0.2,0.4c-2.2,1-4.3,1.6-6.5,2c1.3-0.4,2.1-1.2,2.3-2.3c-0.1,0-0.2,0-0.3,0.1
		c-1.7,0-3,0.7-3.8,2c-2.4,2.4-4.2,5.2-5.5,8.3c0,0.5-0.1,1-0.2,1.4c-0.5,1.5-0.6,2.6-0.2,3.6c-0.3-0.1-0.5-0.2-0.8-0.2
		c0-0.1,0-0.1,0-0.2c0.5-5.5,2.7-10.1,6.6-13.9c0.1,0.1,0.2,0.1,0.4,0.1c0-0.2,0-0.3,0-0.4c0.2-0.2,0.5-0.5,0.8-0.8c0,0,0,0-0.1,0
		c0.3-0.5,0.5-0.9,0.6-1.5c-0.5,0.2-1,0.4-1.3,0.6c0-0.7,0.1-1.4,0.3-2c0.1-0.5,0.1-1,0-1.6c0.1-0.1,0.1-0.1,0.2-0.2
		C58,9,58.7,8.9,59.4,8.8C60.4,9.3,61.4,9.9,62.4,10.6z M44.9,12.7c0.3,0.6,0.6,1.2,1,1.7c1,4,1.8,8,2.5,11.9
		c-0.2-0.1-0.5-0.2-0.7-0.2c0.3,0.9,0.5,1.7,0.7,2.6c-0.4-0.1-0.9-0.1-1.4-0.1c0.4-1,0.5-2.1,0.4-3.3C47.2,23.1,46.8,21,46,19
		c0-0.1-0.1-0.2-0.1-0.3c-0.1-0.1-0.1-0.2-0.2-0.3c-1-1.5-2.2-2.9-3.6-4.2l-0.2,0.1c0.2,0.7,0.6,1.4,0.9,2c-0.1,0.1-0.2,0.1-0.3,0.1
		c-0.3,0.1-0.6,0.1-0.9,0.2c-0.6-0.3-1.2-0.5-1.9-0.7c-0.3-0.1-0.7-0.2-1.1-0.3c-0.5-0.6-1.1-1.2-1.7-1.8c0-0.1-0.1-0.2-0.1-0.3
		c2-3.9,5.2-5.5,9.6-4.8c0,1.4-0.1,2.8-0.2,4.1c-0.1,0.2-0.1,0.4,0,0.6c-0.4-0.3-0.8-0.6-1.2-0.8L44.9,12.7z M58.8,30.8
		c-0.1-0.1-0.2-0.2-0.3-0.2c-0.7-0.3-1.3-0.5-2-0.6c-0.1,0-0.3,0.1-0.5,0.1c-1.6,0.1-2.8,0.7-3.4,1.9c0,0,0,0-0.1,0
		c0,0-0.1,0-0.2,0.1c-0.1-0.4-0.1-0.8-0.1-1.2c0.1,0,0.1,0,0.1-0.1c-0.1,0-0.1,0-0.1,0c0-0.1,0-0.2,0-0.3c3.3-2.7,7.2-4.1,11.7-4.3
		c0.1,0.8,0.2,1.5,0.3,2.3c0.1,1.2,0,2.3-0.2,3.5c0,0.1,0,0.2,0,0.4c-0.3,1.5-0.8,2.9-1.6,4.3c-0.4,0.3-0.8,0.5-1.1,0.8
		c-0.2,0.1-0.3,0.2-0.4,0.4c-0.8,0.1-1.6,0.3-2.4,0.7c-0.3-0.1-0.6-0.2-0.9-0.4c-2.1-0.9-3.9-2.3-5.3-4.1c-0.1,0-0.1,0-0.1,0
		c0-0.5,0-0.9,0-1.4c0.8,0.2,1.6,0.3,2.3,0.4c0.6,0.5,1.2,1,1.8,1.4c0.8,0.5,1.5,0.5,2.1-0.2c0.1-0.6-0.3-1-1.2-1.1
		c-0.8-0.1-1.4-0.5-1.9-1.1c-0.5,0-0.9,0-1.3-0.1C55.6,31.4,57.2,31,58.8,30.8z M52.8,36.5c-0.1,0-0.1-0.1-0.2-0.2v-0.1
		c1.5,2.3,3.9,3.8,7.3,4.4c0.1-0.1,0.2-0.2,0.3-0.2c0.2-0.2,0.4-0.3,0.5-0.4c0.6,0.4,1.1,0.7,1.6,1.1C62,41,61.8,41,61.5,41
		c3,1.7,6,4,8.9,6.9c4.3,4.3,6.1,9.2,5.3,14.8c-0.7,5.5-3.8,10.5-9.1,14.9c-5.3,4.5-12.8,6-22.5,4.4c-2.5-0.4-4.9-1-7-1.7
		c-0.3-0.1-0.6-0.2-0.8-0.3S36,79.9,36,79.9c-0.9-0.3-1.7-0.6-2.5-1c-0.1-0.1-0.2-0.1-0.3-0.1c-4.5-2.1-8.1-5-11-8.8
		c-0.6-1.7-0.8-3.5-0.7-5.4c0.8-9.8,4.6-17.4,11.4-22.9H33c0,0,0,0-0.1,0c0.1-0.1,0.2-0.2,0.2-0.2c1.3-0.7,2.5-1.3,3.8-1.9
		c1,0.9,2.3,1.4,4,1.5c0.1-0.1,0.2-0.1,0.3-0.2c3-0.9,4.9-2.4,5.7-4.3C48.9,36.2,50.9,36.1,52.8,36.5z M46.8,30.8
		c0.3-1,1.1-1.1,2.4-0.3c0.5,0.3,1,0.6,1.6,0.8c0,0.4,0,0.8,0,1.2c0.1,0.5,0,1-0.3,1.5c-0.1,0.1-0.2,0.2-0.2,0.3v0.1
		c-1-0.1-1.9-0.2-2.9-0.2c-0.1,0-0.4-0.1-0.6-0.2v-0.2c0-0.3,0-0.7,0-1.1c0-0.5,0-1,0-1.5C46.8,31.1,46.8,31,46.8,30.8z M41.9,28.2
		c1.3,1,2.5,1.6,3.5,1.6c-0.2,0.5-0.3,1.2-0.4,1.8c-1.7-1.5-3.9-2-6.5-1.6l-0.3,0.1c1.8,0.6,3.6,1.2,5.5,1.8c-0.3-0.1-0.7,0-1.2,0.1
		c-0.7,0.3-1.4,0.8-2.1,1.3c-0.1,0.2-0.2,0.3-0.3,0.5l0.1,0.2c1.7-0.7,3.4-1,4.9-0.8c0.1,0.4,0.1,0.8,0.2,1.1c-0.1,0-0.2,0-0.3,0
		c-0.1,0.1-0.2,0.1-0.2,0.2c0.2,0,0.4,0.1,0.6,0.2c0.1,0.4,0.2,0.8,0.2,1.1c0,0.2,0,0.3,0,0.4c-1.7,1.4-3.7,2.3-5.8,2.9
		c-1-0.5-1.9-1.1-2.7-1.9c-0.1,0-0.2,0-0.3,0c-0.1-0.1-0.2-0.1-0.3-0.2c-0.1,0-0.2-0.1-0.4-0.3c-1.1-1.9-1.6-4-1.5-6.4
		c0-1.4,0.4-2.8,0.9-4.1c0.1-0.1,0.1-0.2,0.1-0.2c0.8-0.1,1.5-0.2,2.3-0.3C39.3,26.4,40.6,27.2,41.9,28.2z M81.3,24.8
		c0,0.2,0.1,0.3,0.1,0.4c1,3.1,0.4,5.8-1.5,8.3c-0.9-0.3-1.7-0.8-2.5-1.5c-0.1-0.2-0.1-0.3-0.2-0.4c-0.4-0.9-1.1-1.6-1.9-2.3
		c-3,0.2-5.9,0.5-8.8,0.9c-0.1,0.1-0.3,0.1-0.5,0.2c0-0.4,0.1-0.8,0.2-1.2c-0.2,0-0.3,0.1-0.4,0.1c-0.1-0.3-0.1-0.8-0.2-1.2
		c2.9,0.3,6.7-0.1,11-1.1C77.9,25.7,79.4,25,81.3,24.8z M72.8,30.7c-1,1.7-1.1,3.5-0.4,5.4c-2-1.6-4.4-2.2-7.1-2.1
		c0-0.2,0.1-0.4,0.2-0.6c0.2-0.1,0.4-0.1,0.6-0.1c0,0,0,0,0-0.1c0,0,0-0.1,0-0.2c-0.2,0.1-0.4,0.1-0.6,0.2c0-0.2,0-0.5,0.1-0.7
		c0.3-0.3,0.6-0.7,0.9-1C68.5,30.7,70.7,30.5,72.8,30.7z M64.7,35.6c0.2-0.4,0.3-0.7,0.4-1.1c2.3,0.3,4.4,1,6.4,1.8
		c-0.8,0.2-1.8,0.7-3,1.2c-0.2,0.3-0.4,0.7-0.5,1.1c-0.1,0.9-0.2,1.8-0.2,2.7c-0.3-0.2-0.5-0.4-0.6-0.6c-0.4,0.2-0.7,0.5-0.8,0.8
		c-1.1-1.1-2.4-2.1-3.7-3c0.1,0,0.2-0.1,0.3-0.2c0.4-0.3,0.7-0.7,0.9-1.1C63.9,36.6,64.2,36,64.7,35.6z M67.4,42.4
		c0.1-0.1,0.2-0.2,0.4-0.2c0,0.2,0,0.5,0,0.7C67.7,42.8,67.5,42.6,67.4,42.4z M22.6,21.6c0.3,0.2,0.6,0.4,0.8,0.5
		c1.3,0.8,2.3,1.8,2.9,3.1c-0.2,0-0.5,0.1-0.8,0.1s-0.6,0.1-0.6,0.2H25c1.9,0,3.5,0.5,4.9,1.4c0.2-0.1,0.3-0.1,0.5-0.2
		c0.9,0.8,1.9,1.3,2.8,1.6c-0.1,0.3-0.1,0.7-0.1,0.9c-0.1,0-0.2-0.1-0.3-0.2c0,0.3,0,0.5,0,0.7c0,0,0.1,0,0.2,0c0,0.3,0,0.5,0,0.8
		c-1.1-1.3-2.5-2.1-4.2-2.5c-1,0-2,0-3.1-0.1c0,0,0,0-0.1,0c0,0.1,0,0.1,0,0.1h-0.1c-0.1,0-0.2,0.1-0.2,0.2l0,0
		c-1.3,1-2.7,1.5-4.2,1.6c-0.2-0.7-0.5-1.4-0.7-2.2C19.8,26,20,24.3,21,22.7C21.6,22.4,22.1,22,22.6,21.6z M32.8,34
		c0.2,0,0.3,0,0.3,0c0.2,0.7,0.5,1.5,0.9,2c-2.1-1.5-4.6-2.2-7.5-2c1.3-1.9,1.4-3.5,0.2-5c0.5,0.2,1.1,0.3,1.7,0.2
		c1.2,0.6,2.3,1.5,3.1,2.6c0.3,0.4,0.6,0.7,0.9,0.8c-0.1,0.2-0.1,0.4-0.1,0.5C32.5,33.3,32.6,33.6,32.8,34z M32.6,37
		c0.4-0.2,0.8-0.3,1.2-0.3c0.7,0.3,1.3,0.7,2,1.2c-0.7,0.4-1.3,0.8-2,1.2c-0.4,0.2-0.8,0.5-1.2,0.8c-0.6,0.7-1.2,1.3-1.9,1.6
		c-0.4,0.4-0.8,0.8-1.1,1.2c0.1-0.4,0.3-0.8,0.4-1.2c0,0,0.1,0,0.2,0c0-0.3-0.1-0.6-0.1-0.9c0-2.1-1.2-4-3.8-5.5
		c2.4-0.1,4.6,0.3,6.6,1.1C32.8,36.5,32.6,36.7,32.6,37z M9.6,90.7c0.3-0.8,0.8-1.5,1.4-2.1c7.4-7.6,15.7-8.7,25-3.6
		c0.8,0.7,1.7,1.1,2.8,1.5c0-0.2-0.1-0.3-0.1-0.3c-0.6-0.6-1.1-1.2-1.8-1.6c0.1,0,0.1-0.1,0.1-0.2c-0.7-0.2-1.4-0.6-2.1-1.1
		c-0.1,0-0.3,0-0.3-0.1c-0.2-0.1-0.3-0.1-0.2,0.1c0,0,0.1,0.1,0.2,0.3c-1.7-1.1-3.5-1.9-5.3-2.4c0,0,0.1-0.1,0.2-0.2
		c-0.1-0.6,0-0.9,0.5-0.9c0.7-0.1,1.2-0.2,1.8-0.4c1.6,0.8,3.2,1.5,4.8,2c0.4,0.2,0.9,0.4,1.4,0.5c0.4,0.5,0.9,1.1,1.3,1.7
		c-1.3-1.2-2.9-1.9-4.8-2.3v0.1c0.1,0.4,0.3,0.6,0.6,0.9c0.2,0.1,0.5,0.2,0.8,0.3c0.3,0.2,0.7,0.4,1.2,0.4c0,0.1,0,0.1,0,0.1
		c0.2,0,0.3,0,0.4,0.1c0.3,0.2,0.5,0.5,0.7,0.8l0,0c0.1,0.1,0.2,0.1,0.4,0.2c0,0.1,0.1,0.1,0.2,0.2c-0.1,0-0.2,0-0.3,0
		c0.8,1.2,1.8,2,2.7,2.5c0.1,0.1,0.2,0.3,0.3,0.5c-0.2,0-0.3,0.1-0.5,0.1c0,0.5,0.2,0.8,0.5,1.2c0.4,0.3,0.7,0.7,1.1,1.1
		c0,0.1,0,0.1,0,0.1c-0.3,0.1-0.7,0.3-1,0.4c-2.1,0.3-4.2,0.5-6.3,0.7c-0.3-0.1-0.5-0.2-0.8-0.2v0.1c-0.4,0.1-0.6,0.2-1,0.3
		c-7,0.6-14.2,0.8-21.4,0.7C10.9,92.2,10.1,91.7,9.6,90.7z M40.3,82.8c0.2,0.1,0.4,0.1,0.6,0.2c0,0.1,0,0.3-0.1,0.4
		c0.3,0.2,0.5,0.2,0.7,0.4c0-0.2,0-0.5,0-0.7c4.2,0.9,8.5,1.1,12.9,0.5c0.5-0.1,1.1-0.2,1.7-0.2c0.8-0.2,1.6-0.3,2.4-0.5
		c-0.7,0.7-1.2,1.4-1.6,2.2c-0.7,0-1.5,0-2.2-0.2C54.6,85,54.6,85,54.6,85s0,0-0.1,0c-0.4,0.2-0.8,0.5-1.3,0.6c-0.1,0-0.1,0-0.2,0
		c0,0,0,0-0.1,0.1c-0.8,0.2-1.8,0.3-2.9,0.2c-3-0.1-5.7-0.2-8.1-0.3c-0.1-0.3-0.2-0.7-0.2-1c-0.2,0-0.3,0-0.4,0
		C41,84,40.7,83.4,40.3,82.8z M59.5,86c0.1,0.1,0.2,0.2,0.2,0.1c0.7-0.1,1.2-0.2,1.7-0.3c0,0.1,0,0.2,0,0.3
		c11.3-5.9,21.2-4.6,29.9,3.6c-8.7,2.1-17.6,2.8-26.5,2c-3.7-0.7-6.7-1.8-9.2-3.1c0-0.1,0.1-0.2,0.1-0.3c0.2-0.3,0.4-0.5,0.6-0.8
		c0.2,0.4,0.5,0.2,0.8-0.5c0.6-1.4,1.5-2.4,2.8-2.9c1-1.5,2.4-2.6,4.3-3.2c0.1-0.1,0.2-0.1,0.3-0.2c-0.1,0.4-0.5,0.8-0.8,1.2
		c0.2-0.2,0.3-0.4,0.5-0.5c1.2-0.5,2.3-1,3.3-1.7c0.2,0.3,0.5,0.5,0.9,0.8c0,0.1,0,0.2,0,0.2c-0.3,0.3-0.5,0.6-0.6,0.8
		c-1.2,0.3-2.3,0.7-3.4,1.1c-0.9,0.2-1.5,0.6-2,1.1c0,0,0,0-0.1,0c0-0.1,0-0.3-0.1-0.5c-0.3,0.2-0.6,0.4-0.9,0.7
		c0.1,0,0.2,0.2,0.2,0.2C60.7,84.5,60,85.1,59.5,86z M42,86.6c0-0.1,0-0.2,0-0.4c0,0,0,0,0-0.1c0.6,0.2,1.3,0.4,2,0.5
		c-0.5,0.3-0.9,0.6-1.3,1C42.5,87.2,42.3,86.9,42,86.6z M49.7,87c-0.7,0.3-1.2,0.7-1.8,1.1c-0.4,0.2-0.9,0.4-1.4,0.5
		c-0.8,0.3-1.6,0.6-2.3,1c-0.3-0.5-0.6-0.8-0.9-1.1c-0.1-0.1-0.1-0.2-0.1-0.2c0.9-0.3,1.8-0.8,2.6-1.4C47.1,87.1,48.4,87.1,49.7,87z
		"/>
	<path style="fill:#BE3689;" d="M50.5,47.2c-0.8,0.4-1.3,1-1.7,1.9c0,0-0.1,0.1-0.2,0.1c-2.1-1.9-4.3-2.6-6.5-2.1
		c-0.4-0.3-1.1-0.5-2-0.6c0-0.2,0-0.3,0-0.4c0.2-0.7,0.1-1.2-0.3-1.5c-0.4-0.1-0.6,0-0.7,0.3c-0.2,0.9-0.1,1.8,0.3,2.6
		c0.2,0.1,0.4,0.3,0.6,0.4c-0.3,0.2-0.6,0.4-1,0.7c-0.6-0.3-1.3-0.5-2-0.9c0-0.1,0-0.2,0-0.4c0.1-0.4-0.1-0.7-0.4-1.1
		c-0.1,0.1-0.2,0.1-0.3,0.2c-0.4,0.8-0.4,1.5,0.1,2.2c0.4,0.4,0.9,0.8,1.4,0.9c-0.1,0.1-0.2,0.2-0.4,0.4c-1,0-1.9-0.5-2.6-1.3
		c-0.5-0.2-0.7,0-0.7,0.4c0,0.9,0.5,1.5,1.5,1.8c0.3,0.1,0.5,0.1,0.7,0.2c-4.5,4.7-4.4,9.6,0.3,14.5c4.8,1.4,8.9,0.5,12.5-2.4
		c2.6,2.3,5.6,2.8,9.1,1.4c5.4-2,7.2-5.7,5.4-10.9c-0.1-0.1-0.2-0.3-0.3-0.4c-0.8-1.5-1.8-2.8-3-3.7c0.2-0.1,0.4-0.2,0.6-0.3
		c0.1-0.1,0.2-0.2,0.4-0.4c0.9-0.8,1-1.7,0.3-2.6l0,0c-0.7,1.1-1.6,1.8-2.7,2.2c-0.4-0.2-0.8-0.4-1.1-0.6c0.4-0.4,0.8-0.9,1.2-1.3
		c0-0.2,0-0.3,0-0.4c0.1-0.7,0-1.3-0.4-1.9h-0.2c-0.2,1.8-1.1,2.8-2.4,3c-0.1,0-0.1,0-0.1,0c0-0.1,0-0.2,0.1-0.2
		c0.5-1.2,0.6-2.3,0.3-3.4c-0.9,0.5-1.4,1.6-1.8,3.2c0,0,0,0,0,0.1c-1-0.2-1.9-0.2-3-0.2C51.3,46.9,50.9,47,50.5,47.2z M42.5,48.3
		c0.6,0,1.2,0,1.9-0.1c0.2,0.2,0.4,0.3,0.6,0.4c1.7,1.3,3.2,2.4,4.5,3.2c0.5-0.4,0.8-0.9,0.9-1.4c0.2-0.6,0.4-1.1,0.7-1.6
		C56,48.2,59.6,50,62,54.5c0.2,0.6,0.3,1.3,0.4,1.9c0.5,3-0.7,5.2-3.6,6.7c-3.9,1.3-7.1,0.5-9.8-2.4c-6.8,5.9-11.9,5.2-14.9-1.9
		c0-0.1,0-0.2,0-0.3C34.9,53.7,37.7,50.3,42.5,48.3z"/>
	<path style="fill:#BE3689;" d="M52.6,57.3c0-0.1,0-0.2,0-0.3c-0.4-0.7-1-1.2-1.8-1.5c-0.3-0.1-0.6-0.1-0.8,0
		c-1,0.3-1.3,0.9-1.1,1.8C50,59.1,51.3,59.1,52.6,57.3z"/>
	<path style="fill:#BE3689;" d="M44.7,56.8c-0.2,0.9,0.1,1.6,0.9,2.2c0.6,0,1.1-0.1,1.6-0.2c0.2,0,0.3-0.1,0.4-0.2
		c0.4-0.3,0.6-0.7,0.6-1.1c-0.1-0.2-0.1-0.3-0.1-0.4S48,56.9,48,56.7c-0.6-0.8-1.4-1.1-2.5-0.9C45.1,56,44.9,56.3,44.7,56.8z"/>
	<path style="fill:#BE3689;" d="M47.9,72.6c-0.2,0.1-0.3,0.2-0.4,0.3c-0.4,0.4-0.7,0.7-0.9,1.2c0,0.2,0,0.5,0,0.7
		c-0.1,0.5,0,0.9,0.4,1.2c1.8,0.8,3.1,0.7,4-0.4c0-0.3-0.1-0.5-0.2-0.7c-0.5-1-0.9-2-1-3.1c-0.2-0.1-0.4-0.2-0.5-0.3
		c-0.2-0.2-0.4-0.3-0.5-0.4c-0.4-0.1-0.6,0-0.7,0.1C47.9,71.7,47.8,72.1,47.9,72.6z M48.5,73.3c0.2-0.1,0.3-0.1,0.4,0.1
		c0.7,1.6,0.1,2.1-1.5,1.4c0-0.1,0-0.2,0.1-0.3C47.8,74.1,48.1,73.7,48.5,73.3z"/>
	<path style="fill:#BE3689;" d="M46.9,78.2c3.6,0.9,5,0.5,4.1-1.1c-0.1,0-0.2,0.1-0.2,0.1c-0.3,0.2-0.5,0.4-0.7,0.6
		c-1.4-0.1-2.6-0.1-3.5,0.2C46.7,78.1,46.8,78.2,46.9,78.2z"/>
	<path style="fill:#BE3689;" d="M27.5,60c-0.2-1.4-0.3-2.8-0.4-4.2c-1.3,0.8-2.4,1.9-3.1,3.5c0,0.2,0,0.3,0,0.4c0,1.3,0,2.5,0,3.8
		c1.5,0.9,2.9,0.7,4-0.5c0.2-1,0.1-1.9-0.5-2.7C27.6,60.2,27.6,60.1,27.5,60z M25.9,58.5v-0.1c0.4,1.4,0.8,2.7,1.1,3.9
		c-1.2,1-1.8,0.9-2-0.1c0-0.1,0-0.2,0-0.4C24.9,60.6,25.2,59.4,25.9,58.5z"/>
	<path style="fill:#BE3689;" d="M74,56.2c0-0.1,0-0.2,0-0.3c-0.8-2.2-2.3-4.1-4.4-5.6c-0.4,0-0.6,0.3-0.2,0.7
		c0.6,1.1,1.3,2.2,1.7,3.3c0,0.3,0,0.5-0.1,0.8c-0.1,1,0.1,1.9,0.8,2.6C72.9,57.8,73.7,57.3,74,56.2z M72,56.5c0-0.1-0.1-0.2,0-0.3
		c0-0.6-0.1-1.2-0.1-1.9l0,0C73.1,55.1,73.2,55.9,72,56.5z"/>
	<path style="fill:#BE3689;" d="M26.3,41.6c0,0.1,0,0.2,0,0.2l0,0C26.3,41.8,26.3,41.7,26.3,41.6z"/>
	<path style="fill:#BE3689;" d="M16.5,41.5c0.2-0.1,0.3-0.2,0.4-0.1c1.7,0.1,3.4,0.3,5,0.3c0-0.1,0-0.2-0.1-0.3
		c-1.4-2.9-3.7-4.3-6.8-4.4c-0.1,0-0.2,0.1-0.3,0.1c-0.6,0.5-1,1-1.4,1.5c-0.1,0.3-0.2,0.5-0.3,0.7c0.1,0.5,0.4,0.9,0.9,1.2
		c0.1,0.1,0.2,0.2,0.4,0.3c0.4,0.2,0.9,0.3,1.4,0.5C15.9,41.4,16.2,41.4,16.5,41.5z M19.5,40.2c-0.3,0.1-0.6,0.1-0.9,0.1
		c-2.9,0.4-4.1-0.3-3.6-2.1c0.5,0,1-0.1,1.5-0.1C17.7,38.6,18.7,39.3,19.5,40.2z"/>
	<path style="fill:#BE3689;" d="M16.4,52.7c0.7-0.6,1.3-1.2,2-1.9c0.4,0,0.9,0,1.2,0.3c0.1-0.1,0.1-0.2,0.2-0.4
		c0.5-1,0.3-1.5-0.8-1.6c-2.1-0.3-3.8,0.2-5,1.5c0,0.1,0,0.2,0,0.4c0,0.5,0,1,0,1.5C14.7,53.3,15.4,53.4,16.4,52.7z M17,50.7
		c-0.1,0.1-0.2,0.2-0.3,0.2c-1.6,1.2-2,1.1-1.2-0.2C16.4,50.3,16.9,50.3,17,50.7z"/>
	<path style="fill:#BE3689;" d="M83,41.5c-0.2-0.2-0.5-0.3-0.8-0.3C81.8,41.1,81.4,41,81,41l0,0c-1.7,0.3-3,1-4,2.1
		c0,0.1,0,0.2,0,0.4c-0.1,0.2-0.1,0.5-0.1,0.7c-0.1,0.2-0.1,0.3-0.1,0.4c0.3,0,0.7-0.1,1.1-0.1c0.3-0.1,0.7-0.3,1.1-0.4
		c1.6,1,3.3,1.1,5,0.4c0-0.5,0-1-0.2-1.5C83.7,42.5,83.4,41.9,83,41.5z M80,42.8c0.3-0.2,0.6-0.4,1-0.6c2.5,1.3,2.1,1.6-1.2,0.9
		C79.8,43,79.9,42.9,80,42.8z"/>
</g>
</svg>
