<?xml version="1.0" encoding="iso-8859-1"?>
<!-- Generator: Adobe Illustrator 12.0.1, SVG Export Plug-In . SVG Version: 6.00 Build 51448)  -->
<!DOCTYPE svg PUBLIC "-//W3C//DTD SVG 1.1//EN" "http://www.w3.org/Graphics/SVG/1.1/DTD/svg11.dtd" [
	<!ENTITY ns_svg "http://www.w3.org/2000/svg">
	<!ENTITY ns_xlink "http://www.w3.org/1999/xlink">
]>
<svg  version="1.1" id="Layer_1" xmlns="&ns_svg;" xmlns:xlink="&ns_xlink;" width="88.117" height="74.9"
	 viewBox="0 0 88.117 74.9" style="overflow:visible;enable-background:new 0 0 88.117 74.9;" xml:space="preserve">
<g>
	<path style="fill:#BE3689;" d="M88.117,52c-0.1-0.1-0.1-0.2-0.2-0.3c-1.9-3.1-4.8-4.5-8.7-4.4c-3,0.4-5.8,1.3-8.5,2.8
		c1.4-5.4,1-10.2-1-14.5c0.2-0.1,0.3-0.3,0.5-0.5c0.9-1,1.7-2,2.5-3c0-0.5,0.1-1.1,0.2-1.5c0.4-1.4,0.5-2.7,0.3-4.1
		c-0.1-0.1-0.3-0.2-0.5-0.3c-0.7-0.2-1.3-0.4-2-0.6c-0.9-0.3-1.6-0.3-2.2,0c-0.3-0.3-0.8-0.5-1.2-0.7c-1.9-1.9-4.3-2.8-7.3-2.7
		c0-0.1,0-0.1,0-0.1c-0.1-0.1-0.1-0.1-0.1,0c0-0.1,0-0.1,0-0.2c0,0-0.2,0-0.2,0.1c0.2-0.9,0.3-1.7,0.3-2.6c0,0,0,0,0.1,0l0,0
		c0.1,0,0.4,0.1,0.6,0.1c0.1,0,0.2,0,0.3-0.1c-0.1-0.2-0.3-0.5-0.3-0.7c-0.1-0.2-0.1-0.3-0.2-0.5c-0.1,0.1-0.3,0.2-0.4,0.3
		c0-0.2,0-0.3,0-0.4h-0.1c-0.1,0-0.1-0.1-0.1-0.2c0.1,0.1,0.2,0.2,0.3,0.2c-0.2-0.7-0.2-1.4,0-2.1c-0.2-0.1-0.5-0.1-0.6-0.1
		c-0.2-0.7-0.4-1.5-0.8-2.3c-0.1-0.1-0.2-0.1-0.4-0.2c-0.2,0-0.4,0-0.6-0.1c-0.1-0.1-0.2-0.3-0.3-0.4c-0.5,0.1-0.9,0.1-1.4,0.2v0.1
		c0-0.1-0.1-0.1-0.2-0.1c-1,0.2-2,0.4-3,0.7c-1.5,0.4-2.8,1.1-3.9,2.1c0.3-0.6,0.8-1.1,1.2-1.5c-0.4,0.1-0.8,0.3-1.3,0.4
		c2.1-2.5,5-4.2,8.6-5c1.4,2.1,3.4,3,6.1,2.6c0.3-0.4,0.5-0.9,0.6-1.4c1.4-4.3,0.1-7.9-3.7-10.9c-0.6,0-1.3,0-1.8-0.1
		c-0.5,0.3-0.9,0.7-1.3,1.3c-0.7,1.1-1.4,2.2-2,3.2c-0.4,0.2-0.7,0.3-1,0.5c-6.1,1.5-9.8,5.3-10.8,11.5c0,0.2,0,0.3,0,0.4
		c0,0,0,0,0.1,0.1h-0.1c0,0.1-0.1,0.2-0.1,0.3c-0.3,0-0.6,0-0.9,0.1c0.1-0.5,0-1-0.3-1.4c-3.2-5.6-8.2-8.9-14.7-10
		c-0.1-0.1-0.2-0.2-0.3-0.3c-1.3-1.7-3-2.4-5.1-2.3c-0.6,0.2-1.3,0.7-2,1.4c-1,0.9-1.6,2-1.9,3.1c0.1,0.6,0.1,1.2,0.1,1.9
		c0.2,4.2,2.5,6,6.8,5.5c0.5-0.5,0.8-0.9,1.2-1.4c0.4-0.6,0.8-1.1,1.3-1.6c0.8,0,1.6,0,2.3,0.1c-0.2,0.1-0.3,0.2-0.5,0.3
		c-0.1,0-0.2,0-0.3-0.1c-0.2,0.1-0.5,0.2-0.6,0.5c-1.7,2.7-2,5.2-1,7.6c-0.3-0.2-0.6-0.3-0.9-0.3c-0.4,0.3-0.9,0.5-1.6,0.7
		c-0.3,0-0.6,0-0.9,0c-0.9,0.3-1.7,0.7-2.4,1.3c-0.4,0.2-0.7,0.5-1.1,0.9h0.1c-0.1,0.1-0.1,0.1-0.1,0.1c-0.1,0.1-0.2,0.2-0.3,0.3
		c0-0.1-0.1-0.2-0.2-0.3c0,0.1-0.1,0.2-0.2,0.3c-0.5,0.8-0.8,1.6-1,2.3c-0.6-0.1-1.2-0.2-1.8-0.2c-0.1,0-0.3,0.1-0.5,0.1
		c-1.1,0.2-2,0.6-2.8,1.2c-0.1,0-0.1,0-0.1-0.1c-0.4,0-0.7,0.2-0.7,0.8c0.1,3.4,1.3,5.5,3.6,6.2c0.5,0.3,0.9,0.5,1.4,0.5
		c-1.2,2.2-2.2,4.6-2.9,7.2c-0.8,3.3-1.1,6.3-0.6,8.9c-3.8-2.1-7.9-3.6-12.4-4.6c-2.8,4.2-3,8.9-0.3,14c2.5,5,6,8.6,10.2,10.7
		c-0.2,0.1-0.5,0.1-0.8,0.2c-2.1,0.3-3.9,1.1-5.3,2.5c0.2,0,0.4,0,0.6-0.1c1.8-1,3.8-1.8,6-2.4c0.6,0.3,1.3,0.6,2,0.8
		c-1.1,0.4-2,1.1-2.8,1.9c0.3,0.5,0.7,0.5,1.5,0.1c0.6-0.4,1.3-0.8,1.9-1.3c0.4-0.1,0.7-0.1,1.1-0.2c1.1,0.2,2.3,0.5,3.6,0.6
		c-0.8,0.4-1.4,0.8-1.9,1.3c0.1,0,0.3,0,0.5,0c1.4-0.3,2.7-0.7,4.1-1.1c0.6,0,1.3,0,2.1-0.1c-0.3,0.2-0.6,0.4-0.9,0.6l0.1,0.2
		c0.6-0.3,1.3-0.6,2-0.9c0.2,0,0.5,0,0.7-0.1c1.7-0.2,3-0.8,3.7-1.8c2.8-1.2,5.6-2.3,8.5-3.3c0.2,0.1,0.4,0.2,0.5,0.4
		c-3.5,1.4-6.6,3.2-9.5,5.5v0.2c3.7-1.6,7.4-3.2,10.9-4.9c0.4,0.2,0.8,0.3,1.2,0.5c-2.8,1-5.1,2.6-6.9,4.7c1.2-0.3,2.5-0.7,3.8-1.2
		c2.7-1.1,4.8-2.1,6.2-3.2c2-0.1,4-0.9,6.2-2.3c-0.1-0.2-0.1-0.2-0.2-0.2c-0.2,0.1-0.5,0.2-0.7,0.3c-0.1-0.1-0.1-0.1-0.1-0.2
		c0.5-0.1,1-0.2,1.5-0.2c0.3-0.2,0.7-0.3,1-0.5c0.1,0,0.2,0,0.2,0c0.9-0.4,1.8-0.7,2.7-0.9c-0.2,1.4-0.1,3,0.3,4.6
		c-3.1,0.8-5.4,2.3-6.9,4.7c0.2-0.1,0.4-0.3,0.7-0.4c1.9-1.6,4-2.8,6.4-3.6c0.2,0.6,0.4,1.3,0.7,2c0.2,0,0.3,0.1,0.4,0.1
		c-0.6,0.4-1.1,0.9-1.5,1.5v0.2c1.5-0.1,2.6-0.5,3.5-1.1c3.3,0.8,6.7,0.6,10.2-0.5c-0.5,0.2-1,0.5-1.4,0.8c0.7,0.1,1.5,0.2,2.2,0.2
		c0,0,0.2,0,0.3-0.1c3.8-1.8,7.4-3.8,10.8-5.9c0,0,0,0-0.1,0.1c-1.5,0.4-3.1,1-4.6,1.5C83.017,65.7,86.817,59.8,88.117,52z
		 M79.817,49.5c0.3,0.1,0.6,0.1,0.9,0.1c3,0.2,4.8,1.6,5.6,4.3c-0.3,2-1.1,4-2.3,5.7c-6.5,9.6-15.3,13.5-26.4,11.5
		c-0.2-0.1-0.4-0.4-0.5-0.6c0.1,0,0.2,0,0.4-0.1c-0.1-0.1-0.1-0.1-0.2-0.2c-0.1,0-0.3,0-0.5-0.1c-0.3-0.6-0.4-1.2-0.2-1.9
		c0.1-0.9,0.2-1.8,0.4-2.7c0.4-0.6,0.8-1.3,1.2-1.9c2.9-5,7-8.6,12.5-10.6c0,0,0,0,0.1-0.1C73.517,51.1,76.517,50,79.817,49.5z
		 M58.217,4.4c-0.3,0-0.5-0.1-0.7-0.1c0,0,0-0.2,0-0.3c0.5-0.5,0.9-1,1.4-1.5c0.2-0.4,0.5-0.6,0.8-0.7c0.7,0.5,1.3,1.2,1.8,1.9
		c1.4,1.8,2,3.8,1.8,5.9c-0.4,0.3-0.7,0.7-1.1,1c0,0.2-0.2,0.2-0.4,0.3c-0.1-0.1-0.2-0.1-0.4-0.1c-0.3-0.2-0.7-0.3-1.1-0.4
		c-0.3-0.4-0.7-0.8-1.1-1.1c0-0.1,0-0.1,0-0.1c0.5-0.1,0.9-0.2,1.3-0.3c-0.1-0.1-0.2-0.1-0.3-0.2c-0.6-0.2-1.3-0.3-2-0.3v0.1
		c-0.1,0-0.1,0-0.1,0c-5.7,0.1-9.4,2.5-11.2,7.4c-0.2,0-0.3,0.1-0.4,0.2c-0.2,0.4-0.3,0.8-0.4,1.2c-0.4,0.1-0.7,0.2-1,0.3
		c0,0.1,0,0.2,0,0.3s0,0.2,0.1,0.3c-0.2-0.1-0.3-0.2-0.5-0.2c0.6-0.8,1.2-1.6,1.7-2.4c-0.2,0.1-0.4,0.2-0.6,0.3c0,0,0,0,0-0.1
		c0.2-1.1,0.5-2.3,0.8-3.4c1.8-2.8,4.3-4.7,7.2-5.9c2-0.2,3.7-0.8,5-1.9C58.617,4.6,58.417,4.5,58.217,4.4z M41.817,17
		c-0.1,0-0.1,0-0.2,0c0.1,0,0.1,0,0.1,0c0.1,0.1,0.2,0.2,0.3,0.4c0,0,0.1,0.1,0.1,0.2c-0.2-0.1-0.4-0.1-0.6-0.2c-0.2,0-0.3,0-0.5,0
		c0,0,0-0.1,0-0.2c-0.2-0.1-0.5-0.2-0.7-0.3h-0.1l0.1,0.1c-0.2,0.2-0.2,0.5-0.1,0.6c-0.9-1.1-1.9-2-3-2.8c-2.5-3.3-5.9-4.5-10.5-4
		c-0.5,0.5-1,0.8-1.5,1.2c-0.5,0.5-0.8,1.1-1,1.8c-0.4,0-0.9,0-1.4,0.1c-1.3-0.7-2.1-1.8-2.4-3.3c-0.4-2.7,0.6-4.5,3.2-5.2
		c0.6,0.1,1.1,0.5,1.5,1c0.5,0.5,1,1,1.5,1.5c1,0.2,2.1,0.5,3.1,0.7C35.317,9.8,39.317,12.5,41.817,17z M41.017,22.6
		c0-0.3,0-0.7,0-1.1c0-0.5,0-1,0-1.5c0-0.1,0-0.2,0-0.4c0.3-1,1.1-1.1,2.4-0.3c0.5,0.3,1,0.6,1.6,0.8c0,0.4,0,0.8,0,1.2
		c0.1,0.5,0,1-0.3,1.5c-0.1,0.1-0.2,0.2-0.2,0.3v0.1c-1-0.1-1.9-0.2-2.9-0.2c-0.1,0-0.4-0.1-0.6-0.2V22.6z M37.917,20.7
		c-0.3-0.1-0.7,0-1.2,0.1c-0.7,0.3-1.4,0.8-2.1,1.3c-0.1,0.1-0.2,0.3-0.3,0.5l0.1,0.2c1.7-0.7,3.4-1,4.9-0.8
		c0.1,0.4,0.1,0.8,0.2,1.1c-0.1,0-0.2,0-0.3,0c-0.1,0.1-0.2,0.1-0.2,0.1c0.2,0.1,0.4,0.2,0.6,0.3c0.1,0.4,0.2,0.8,0.2,1.1
		c0,0.2,0,0.3,0,0.4c-1.7,1.4-3.7,2.3-5.8,2.9c-1-0.5-1.9-1.1-2.7-1.9c-0.1,0-0.2,0-0.3,0c-0.1-0.1-0.2-0.1-0.3-0.2
		c-0.1,0-0.2-0.1-0.4-0.3c-1.1-1.9-1.6-4-1.5-6.4c0-1.4,0.3-2.7,0.9-3.9c0-0.1,0.1-0.2,0.1-0.3s0-0.1,0-0.1c0.8-0.1,1.5-0.2,2.3-0.3
		c1.4,0.7,2.7,1.5,4,2.5c1.3,1,2.5,1.6,3.5,1.6c-0.2,0.5-0.3,1.1-0.4,1.8c-1.7-1.5-3.9-2-6.5-1.6l-0.4,0.1
		C34.217,19.5,36.017,20.1,37.917,20.7z M37.117,29.1c2-1,3.3-2.2,4-3.7c2-0.4,4-0.5,5.9-0.1c-0.1-0.1-0.1-0.1-0.2-0.2V25
		c1.5,2.3,3.9,3.8,7.3,4.4c0.1-0.1,0.2-0.2,0.3-0.2c0.2-0.2,0.4-0.3,0.5-0.4c0.1,0,0.1,0,0.1,0.1c0.5-0.4,1-0.8,1.5-1.1
		c0.2,0.1,0.4,0.2,0.7,0.4c0.5-0.5,1.1-1,1.5-1.5c2,1.4,3.9,3,5.9,5c4.3,4.3,6.1,9.2,5.3,14.8c-0.2,1.6-0.7,3.3-1.3,4.9
		c-1.9,1.1-3.8,2.4-5.6,3.6c-4,2.9-6.4,6-7.2,9.5c-1.1,0.4-2.2,0.8-3.3,1c-0.1,0.1-0.2,0.1-0.3,0.1c-4,1-8.6,1-13.9,0.2
		c-2.7-0.4-5.1-1-7.5-1.8c-0.6-0.4-1.3-0.6-2.1-0.7l-0.2,0.1c-0.1,0-0.1-0.2-0.2-0.2c-0.2-0.5-0.5-0.9-0.6-1.4
		c-0.1-0.2-0.2-0.3-0.4-0.4c-3.4-4.2-7.2-7.5-11.5-10.1c-0.2-0.9-0.2-1.9-0.1-2.9c0.5-5.3,1.8-10,4-14.1l0,0
		c0.1-0.1,0.1-0.1,0.1-0.1c0.1-0.1,0.1-0.1,0.2-0.1c-0.1,0-0.1,0-0.1,0c1.8-3.3,4.2-6.1,7.1-8.5c0,0,0,0,0.1,0.1
		c0.1-0.1,0.3-0.1,0.5-0.1v0.1c-0.1,0-0.3,0.1-0.4,0.2c0,0.1,0,0.1,0.1,0.2c0-0.2,0.3-0.4,0.5-0.6c0,0.1,0,0.1,0.1,0.1
		c0.1-0.2,0.2-0.3,0.6-0.2c0.4,0.3,0.8,0.8,1,1.3c0.1-0.1,0.2-0.1,0.3-0.2c0,0.1,0.2,0.1,0.2,0.2c-0.2,0-0.2,0.1-0.3,0.2
		c0.1,0.3,0.2,0.6,0.3,1c0.2,0.2,0.5,0.4,0.8,0.7c0.1-0.1,0.2-0.1,0.3-0.2c0.7,0.7,1.6,1.1,2.8,1.4
		C34.917,29.5,36.017,29.2,37.117,29.1z M53.017,19.6c-0.1-0.1-0.2-0.2-0.3-0.2c-0.7-0.3-1.3-0.5-2-0.6c-0.1,0-0.3,0.1-0.5,0.1
		c-1.6,0.1-2.8,0.7-3.4,1.9c0,0,0,0-0.1,0c0,0-0.1,0-0.2,0.1c-0.1-0.4-0.1-0.8-0.1-1.2c0.1,0,0.1,0,0.1-0.1c0.5-0.2,1-0.7,1.3-1.3
		c3-2.1,6.4-3.2,10.3-3.3c0.1,0.8,0.2,1.5,0.3,2.3c0.1,1.8,0,3.5-0.5,5.1c0,0.1,0,0.1,0,0.2c-0.3,0.7-0.6,1.5-1,2.3
		c-0.6,0.5-1.2,1-1.9,1.5c0.1,0,0.2,0.1,0.2,0.1c0,0.1-0.1,0.1-0.1,0.2c-0.8,0.1-1.6,0.3-2.4,0.7c-0.3-0.1-0.6-0.2-0.9-0.4
		c-2.1-0.9-3.9-2.3-5.3-4.1c-0.1,0-0.1,0-0.1,0c0-0.5,0-0.9,0-1.4c0.8,0.2,1.6,0.3,2.3,0.4c0.6,0.5,1.2,1,1.8,1.4
		c0.8,0.5,1.5,0.5,2.1-0.2c0.1-0.6-0.3-1-1.2-1.1c-0.8-0.1-1.4-0.5-1.9-1.1c-0.5,0-0.9,0-1.3-0.1
		C49.817,20.2,51.417,19.8,53.017,19.6z M60.217,23.6c-0.1,0-0.1,0-0.2,0c0-0.3-0.1-0.5-0.1-0.8c2.6,0.5,4.8,1.4,6.8,2.8
		c0.3,0.6,0.9,1.1,1.8,1.4c0.1,0.3,0.2,0.5,0.2,0.8c0.3,0.7,0.7,1,1.3,1c0-0.3,0-0.5-0.1-0.7c-0.2-0.6-0.4-1.1-0.7-1.7
		c1.1,0.3,2,0.7,2.9,1.5c0,0.1,0,0.2,0,0.4c-0.4,2.4-1.4,4.4-3.1,6c-0.3-0.7-0.8-1.3-1.2-1.9l0,0c0-0.3,0.1-0.5,0.2-0.7
		c0.3-0.5,0.3-1,0.1-1.6c-0.1-0.1-0.2-0.2-0.4-0.3c-1.7-1.6-3.7-2.8-6-3.5h-0.1c0,0,0,0,0-0.1c0,0,0,0,0.1,0
		c-0.5-0.3-0.9-0.6-1.2-0.8c0.2,0,0.6,0,0.9,0c-0.5-0.4-0.8-0.9-1.2-1.5C60.217,23.8,60.217,23.7,60.217,23.6z M62.217,27
		c0-0.1-0.1-0.2-0.2-0.3c1.4,0.9,2.5,2.1,3.2,3.5c0,0-0.1-0.1-0.1-0.2c-0.9-0.8-1.5-1.6-2.1-2.5C62.717,27.4,62.517,27.2,62.217,27z
		 M14.317,28.3c0.1,0,0.2-0.1,0.3-0.2c1.4-0.4,2.7-0.8,4-1.3c0,0,0,0,0,0.1l0.1,0.1c-0.1,0.7-0.1,1.4,0,2c0.1-0.1,0.2-0.2,0.3-0.3
		c0.4-0.5,0.6-1.1,0.9-1.5c0-0.1,0-0.1,0-0.1c0.2,0,0.3-0.1,0.4-0.2c0-0.8,0.2-1.4,0.8-2c1.1-0.9,2.2-1.7,3.4-2.2
		c0.7-0.2,1.4-0.4,2.1-0.6c0.2-0.1,0.5-0.1,0.8-0.2c0.1,0.4,0.1,0.7,0,1.1c0.2,0.6,0.4,1.1,0.6,1.5c0,0,0,0-0.1,0
		c-0.2-0.3-0.5-0.7-0.7-1.1c-0.3,0.2-0.5,0.4-0.7,0.5c-0.5,0.8-1.2,1.4-2,1.9c-0.3,0.3-0.6,0.6-0.9,1l0,0c-0.4,0.5-0.8,1-1.1,1.5
		c-0.1,0.1-0.1,0.2-0.2,0.3c-0.5,0.5-1,1.1-1.5,1.7c-0.7,1-1.5,2-2.1,3.1c-1.3-0.7-2.5-1.6-3.6-2.6c-0.1-0.2-0.1-0.3-0.2-0.4
		C14.717,29.7,14.517,29,14.317,28.3z M2.017,48.5c0.1-0.1,0.2-0.2,0.3-0.4c0.2-0.1,0.3-0.2,0.4-0.3c12.3,3,21.2,10.1,26.8,21.3
		c-0.3,0.5-0.5,0.9-0.8,1.3c-0.7,0.3-1.4,0.7-1.9,1.1c-1.4,0.1-2.7,0.1-4,0c-12.3-1-19.4-7.4-21.5-19.2c0-0.2,0-0.3,0.1-0.4
		C1.517,50.7,1.717,49.6,2.017,48.5z M28.817,63.9c0.4,0.4,0.7,0.7,1,0.9c0,0.2,0,0.3,0,0.4c0.4,0.1,0.7,0.2,1,0.3
		c1.4,0.2,2.8,0.6,4.1,1.2c0.1,0,0.2,0,0.2,0.1l0,0c0.2,0.1,0.4,0.2,0.6,0.3c0-0.1,0-0.2,0-0.2c0.5,0.1,0.9,0.2,1.4,0.2
		c-2.2,0.6-4.3,1.3-6.3,2.2c0.1-0.6,0.1-1.2,0-1.9c-0.4-0.3-0.7-0.7-0.9-1.1C29.617,65.5,29.317,64.7,28.817,63.9z M42.617,68
		c0.1-0.1,0.3-0.2,0.5-0.3c2,0.1,4-0.1,6.1-0.3c0,0,0,0.1,0,0.3c-0.8,0.2-1.7,0.3-2.5,0.4c0,0,0,0,0-0.1c0,0.1-0.1,0.1-0.1,0.1
		C45.217,68.2,43.917,68.2,42.617,68z"/>
	<path style="fill:#BE3689;" d="M35.317,30.2c-0.3-0.1-0.6,0-0.7,0.3c-0.3,0.9-0.2,1.8,0.1,2.6c0.2,0.2,0.4,0.3,0.6,0.5
		c-0.3,0.1-0.7,0.3-1,0.5c-0.7-0.2-1.3-0.6-2-0.9c0-0.2,0-0.3,0-0.4c0.1-0.4,0-0.8-0.2-1.2c-0.3,0.1-0.3,0.1-0.4,0.2
		c-0.5,0.8-0.5,1.5-0.1,2.2c0.4,0.4,0.9,0.8,1.4,1c-0.2,0.1-0.3,0.2-0.5,0.3c-1,0-1.8-0.5-2.5-1.5c-0.4-0.1-0.7,0-0.7,0.4
		c-0.1,0.9,0.4,1.5,1.4,1.9c0.2,0.1,0.4,0.2,0.6,0.2c-4.8,4.4-5.1,9.3-0.8,14.5c4.6,1.7,8.8,1.3,12.7-1.4c2.3,2.5,5.3,3.2,8.9,2.2
		c5.6-1.6,7.6-5.1,6.3-10.5c-0.2-0.1-0.2-0.3-0.3-0.4c-0.7-1.6-1.6-2.9-2.7-4c0.2,0,0.4-0.1,0.6-0.2c0.1-0.1,0.3-0.2,0.4-0.3
		c1-0.8,1.2-1.7,0.6-2.6h-0.1c-0.7,1-1.7,1.6-2.9,2c-0.3-0.3-0.7-0.5-1-0.7c0.4-0.4,0.9-0.8,1.4-1.3c0-0.1,0-0.2,0-0.4
		c0.1-0.6,0.1-1.3-0.3-1.8h-0.2c-0.4,1.7-1.3,2.6-2.6,2.7c-0.1,0-0.1,0-0.1,0c0-0.1,0-0.1,0.1-0.2c0.6-1.1,0.8-2.2,0.6-3.4
		c-0.9,0.5-1.6,1.5-2,3.1c-0.1,0-0.1,0-0.1,0.1c-1-0.2-1.9-0.3-2.9-0.4c-0.3,0.1-0.7,0.3-1.1,0.4c-0.8,0.4-1.4,0.9-1.8,1.7
		c-0.1,0.1-0.1,0.1-0.2,0.2c-2-2.1-4.1-3-6.4-2.7c-0.4-0.3-1-0.6-1.9-0.7c0-0.2,0-0.3,0.1-0.4C35.817,31.1,35.717,30.6,35.317,30.2z
		 M28.617,44c0-0.1,0-0.2,0.1-0.3c0-0.1,0-0.2,0-0.3c0.1,0,0.1,0,0.2,0c3.9-0.6,7.6-1.6,10.9-3c0.1-0.2,0.3-0.3,0.4-0.4
		c0.2,0,0.3,0,0.5-0.1c1.2-0.5,2.3-1.2,3.5-1.8c0.7,0.8,1.4,1.6,2.2,2.3c-0.1,0-0.2,0-0.2,0c0.9,0.5,1.8,1.1,2.6,1.9
		c2.4,1.6,5.1,2.8,8.1,3.4c-0.4,2-1.7,3.5-4.1,4.5c-3.6,0.8-6.6,0-8.9-2.5c-0.3-0.2-0.5-0.4-0.7-0.5
		C35.917,52.3,31.117,51.3,28.617,44z M56.717,41.9c0.1,0.6,0.2,1.3,0.2,1.9c0.1,0.5,0.1,0.9,0,1.3c-4.3-2.1-8.2-4.6-11.9-7.4
		c0.2-0.3,0.3-0.5,0.5-0.8c0.2-0.6,0.5-1.1,0.8-1.5C51.217,35.1,54.717,37.2,56.717,41.9z M37.817,34.2c0.6,0,1.2,0,1.8,0
		c0.2,0.2,0.4,0.3,0.6,0.5c1.1,1,2.2,1.9,3.1,2.6c0.1,0,0.1,0,0.2,0c0,0.1,0,0.1,0.1,0.1c0.1,0.1,0.2,0.2,0.3,0.4
		c-0.1-0.1-0.1-0.1-0.2-0.1c-0.5,0-1-0.1-1.5-0.1c0,0.1,0,0.1,0,0.1c-4.9,1.7-9.4,3.5-13.4,5.3C30.117,38.7,33.017,35.7,37.817,34.2
		z"/>
	<path style="fill:#BE3689;" d="M45.717,43.2c-0.1,0-0.4,0.1-0.6,0.3c-0.7,0.5-0.9,1.2-0.9,1.9c1.1,1.2,2.3,1.3,3.6,0.5
		c0-0.4,0-0.7,0-1.1c0-0.3,0-0.5-0.1-0.8c-0.1-0.1-0.3-0.2-0.5-0.3C46.717,43.5,46.217,43.3,45.717,43.2z"/>
	<path style="fill:#BE3689;" d="M42.317,44.4c0-0.1-0.1-0.2-0.1-0.4c-0.6-0.8-1.4-1.1-2.5-0.8c-0.4,0.2-0.7,0.6-1,1.2
		c-0.1,0.3-0.2,0.8-0.1,1.1c0.9,1.2,2,1.3,3.2,0.4c0.4-0.2,0.6-0.7,0.6-1.1C42.317,44.7,42.317,44.5,42.317,44.4z"/>
	<path style="fill:#BE3689;" d="M42.017,47.2c0.2-0.1,0.5-0.3,0.9-0.5c-0.1,0-0.1,0-0.2,0C42.517,46.9,42.217,47.1,42.017,47.2z"/>
	<path style="fill:#BE3689;" d="M29.717,61.5c-0.2-0.1-0.4-0.3-0.5-0.4l0,0c0,0.1,0.1,0.2,0.2,0.3
		C29.517,61.4,29.617,61.4,29.717,61.5z"/>
	<path style="fill:#BE3689;" d="M30.817,60.6c0.4,0.1,0.8,0.2,1.2,0.2c8-5.9,15.1-5.4,21.3,1.5c0.4,0,0.8-0.1,1.1-0.2
		c0.2,0,0.3-0.1,0.4-0.2c0-0.1-1.3-1.3-3.9-3.6c-2.6-2.4-5.9-3.2-10-2.5c-4.2,0.7-6.8,1.5-8.1,2.6c-1.1,1-2,1.6-2.5,2
		C30.517,60.5,30.717,60.6,30.817,60.6z"/>
	<path style="fill:#BE3689;" d="M54.617,62.1c-0.1,0.1-0.1,0.2-0.2,0.3h0.1C54.517,62.3,54.517,62.2,54.617,62.1z"/>
	<path style="fill:#BE3689;" d="M45.817,59.3c-1.5-0.6-3-0.9-4.6-0.9c-0.1,0.1-0.2,0.1-0.4,0.2c-0.5,0.2-0.9,0.4-1.4,0.7
		c0,0-0.1,0.1-0.1,0.2c0.2,0.2,0.4,0.2,0.5,0.2c2.8-0.2,4.9-0.3,6.4-0.2C46.117,59.4,45.917,59.3,45.817,59.3z"/>
	<path style="fill:#BE3689;" d="M27.117,23.2c-0.1-0.1-0.1-0.1-0.1-0.1c0,0.1-0.1,0.1-0.2,0.1C26.917,23.2,27.017,23.2,27.117,23.2z
		"/>
	<path style="fill:#BE3689;" d="M85.017,70.4c-0.1-0.1-0.2-0.2-0.2-0.2c-0.7-0.2-1.4-0.3-2.1-0.3c-1,0.3-2.1,0.7-3.1,1.3
		c-0.8,0.3-1.3,0.9-1.6,1.7c0.7,0.1,1.3-0.1,1.9-0.5C81.317,71.2,83.017,70.6,85.017,70.4z"/>
	<path style="fill:#BE3689;" d="M25.817,20.4c0.1-0.1,0.1-0.2,0.2-0.2c-0.1,0-0.2,0.1-0.4,0.2C25.717,20.4,25.817,20.4,25.817,20.4z
		"/>
	<path style="fill:#BE3689;" d="M14.517,36.4c-0.1-0.1-0.2-0.1-0.4-0.2c0,0.1,0,0.2,0.1,0.3C14.317,36.5,14.417,36.4,14.517,36.4z"
		/>
	<path style="fill:#BE3689;" d="M10.117,45.7c-0.3,0.1-0.5,0.2-0.8,0.3c0.1,0,0.1,0,0.2,0c0.1,0,0.2,0,0.3-0.1
		C9.917,45.9,10.017,45.8,10.117,45.7z"/>
	<path style="fill:#BE3689;" d="M1.517,72.9c0.3,0,0.6-0.1,0.8-0.2c1.9-1,3.9-1.7,6.2-2.3c-0.1-0.1-0.1-0.1-0.2-0.2
		c-0.5-0.1-1-0.1-1.6-0.2c-0.2,0.3-0.5,0.5-1,0.6C3.817,71.1,2.417,71.9,1.517,72.9z"/>
	<path style="fill:#BE3689;" d="M41.017,74.4c0.3,0,0.7-0.1,1-0.2c2.6-0.9,5.2-2,7.7-3c2-0.9,3.4-1.8,4.4-2.7
		c0.7-0.7,1.1-1.4,1.1-2.1c0,0.1,0,0.1,0,0.1c-0.6,0.2-1.2,0.5-1.8,0.8c-0.1,0-0.1,0-0.2,0C48.917,69.3,44.817,71.6,41.017,74.4z"/>
</g>
</svg>
