<?xml version="1.0" encoding="iso-8859-1"?>
<!-- Generator: Adobe Illustrator 12.0.1, SVG Export Plug-In . SVG Version: 6.00 Build 51448)  -->
<!DOCTYPE svg PUBLIC "-//W3C//DTD SVG 1.1//EN" "http://www.w3.org/Graphics/SVG/1.1/DTD/svg11.dtd" [
	<!ENTITY ns_svg "http://www.w3.org/2000/svg">
	<!ENTITY ns_xlink "http://www.w3.org/1999/xlink">
]>
<svg  version="1.1" id="Layer_1" xmlns="&ns_svg;" xmlns:xlink="&ns_xlink;" width="88.117" height="65.6"
	 viewBox="0 0 88.117 65.6" style="overflow:visible;enable-background:new 0 0 88.117 65.6;" xml:space="preserve">
<g>
	<path style="fill:#BE3689;" d="M87.917,42.4c-1.9-3.1-4.8-4.5-8.7-4.4c-3,0.4-5.8,1.3-8.5,2.8c1.4-5.4,1-10.2-1-14.5
		c0.2-0.1,0.3-0.3,0.5-0.5c0.9-1,1.7-2,2.5-3c0-0.5,0.1-1.1,0.2-1.5c0.4-1.4,0.5-2.7,0.3-4.1c-0.1-0.1-0.3-0.2-0.5-0.3
		c-0.7-0.2-1.3-0.4-2-0.6c-0.9-0.3-1.6-0.3-2.2,0c-0.3-0.3-0.8-0.5-1.2-0.7c-1.8-1.8-4.2-2.7-7.1-2.7c-0.7,1.4-1.2,2.9-1.6,4.6
		c0,0,0.1,0,0.1-0.1c2,1.4,3.9,3,5.9,5c4.3,4.3,6.1,9.2,5.3,14.8c-0.2,1.6-0.7,3.3-1.3,4.9c-1.9,1.1-3.8,2.4-5.6,3.6
		c-4,2.9-6.4,6-7.2,9.5c-1.1,0.4-2.2,0.8-3.3,1c-0.1,0.1-0.2,0.1-0.3,0.1c-4,1-8.6,1-13.9,0.2c-2.7-0.4-5.1-1-7.5-1.8
		c-0.6-0.4-1.3-0.6-2.1-0.7l-0.2,0.1c-0.1,0-0.1-0.2-0.2-0.2c-0.2-0.5-0.5-0.9-0.6-1.4c-0.1-0.2-0.2-0.3-0.4-0.4
		c-3.4-4.2-7.2-7.5-11.5-10.1c-0.2-0.9-0.2-1.9-0.1-2.9c0.5-5.3,1.8-10,4-14.1l0,0c0.1-0.1,0.1-0.1,0.1-0.1c0.1-0.1,0.1-0.1,0.2-0.1
		c-0.1,0-0.1,0-0.1,0c1.8-3.3,4.2-6.1,7.1-8.5c0,0,0,0,0.1,0.1c0.1-0.1,0.3-0.1,0.5-0.1v0.1c-0.1,0-0.3,0.1-0.4,0.2
		c0,0.1,0,0.1,0.1,0.2c0-0.2,0.3-0.4,0.5-0.6c0,0.1,0,0.1,0.1,0.1c0-0.1,0.1-0.2,0.2-0.2l-0.1-0.9c0,0,0,0-0.1,0
		c-0.2-0.3-0.4-0.6-0.6-0.9c-0.1,0.2-0.4,0.3-0.7,0.3h-0.1c-0.5,0.8-1.2,1.4-2,1.9c-0.3,0.3-0.6,0.6-0.9,1l0,0
		c-0.4,0.5-0.8,1-1.1,1.5c-0.1,0.1-0.1,0.2-0.2,0.3c-0.5,0.5-1,1.1-1.5,1.7c-0.7,1-1.5,2-2.1,3.1c-1.3-0.7-2.5-1.6-3.6-2.6
		c-0.1-0.2-0.1-0.3-0.2-0.4c-0.2-0.7-0.4-1.4-0.6-2.1c0.1,0,0.2-0.1,0.3-0.2c1.4-0.4,2.7-0.8,4-1.3c0,0,0,0,0,0.1l0.1,0.1
		c-0.1,0.7-0.1,1.4,0,2c0.1-0.1,0.2-0.2,0.3-0.3c0.4-0.5,0.6-1.1,0.9-1.5c0-0.1,0-0.1,0-0.1c0.2,0,0.3-0.1,0.4-0.2
		c0-0.8,0.2-1.4,0.8-2c1.9-1.7,4-2.7,6.3-3c0.1,0.4,0.1,0.7,0,1.1c0.2,0.6,0.4,1.1,0.6,1.5l-0.3-2.7l-0.6-0.8c-0.1,0-0.2,0-0.2,0
		c0.1,0.1,0.2,0.3,0.3,0.4c-1-0.3-1.9-0.4-3-0.3c-1.3,0.4-2.5,1.2-3.5,2.3c-0.1,0.1-0.2,0.2-0.3,0.3c0-0.1-0.1-0.2-0.2-0.3
		c0,0.1-0.1,0.2-0.2,0.3c-0.5,0.8-0.8,1.6-1,2.3c-0.6-0.1-1.2-0.2-1.8-0.2c-0.1,0-0.3,0.1-0.5,0.1c-1.1,0.2-2,0.6-2.8,1.2
		c-0.1,0-0.1,0-0.1-0.1c-0.4,0-0.7,0.2-0.7,0.8c0.1,3.4,1.3,5.5,3.6,6.2c0.5,0.3,0.9,0.5,1.4,0.5c-1.2,2.2-2.2,4.6-2.9,7.2
		c-0.8,3.3-1.1,6.3-0.6,8.9c-3.8-2.1-7.9-3.6-12.4-4.6c-2.8,4.2-3,8.9-0.3,14c2.5,5,6,8.6,10.2,10.7c-0.2,0.1-0.5,0.1-0.8,0.2
		c-2.1,0.3-3.9,1.1-5.3,2.5c0.2,0,0.4,0,0.6-0.1c1.8-1,3.8-1.8,6-2.4c0.6,0.3,1.3,0.6,2,0.8c-1.1,0.4-2,1.1-2.8,1.9
		c0.3,0.5,0.7,0.5,1.5,0.1c0.6-0.4,1.3-0.8,1.9-1.3c0.4-0.1,0.7-0.1,1.1-0.2c1.1,0.2,2.3,0.5,3.6,0.6c-0.8,0.4-1.4,0.8-1.9,1.3
		c0.1,0,0.3,0,0.5,0c1.4-0.3,2.7-0.7,4.1-1.1c0.6,0,1.3,0,2.1-0.1c-0.3,0.2-0.6,0.4-0.9,0.6l0.1,0.2c0.6-0.3,1.3-0.6,2-0.9
		c0.2,0,0.5,0,0.7-0.1c1.7-0.2,3-0.8,3.7-1.8c2.8-1.2,5.6-2.3,8.5-3.3c0.2,0.1,0.4,0.2,0.5,0.4c-3.5,1.4-6.6,3.2-9.5,5.5v0.2
		c3.7-1.6,7.4-3.2,10.9-4.9c0.4,0.2,0.8,0.3,1.2,0.5c-2.8,1-5.1,2.6-6.9,4.7c1.2-0.3,2.5-0.7,3.8-1.2c2.7-1.1,4.8-2.1,6.2-3.2
		c2-0.1,4-0.9,6.2-2.3c-0.1-0.2-0.1-0.2-0.2-0.2c-0.2,0.1-0.5,0.2-0.7,0.3c-0.1-0.1-0.1-0.1-0.1-0.2c0.5-0.1,1-0.2,1.5-0.2
		c0.3-0.2,0.7-0.3,1-0.5c0.1,0,0.2,0,0.2,0c0.9-0.4,1.8-0.7,2.7-0.9c-0.2,1.4-0.1,3,0.3,4.6c-3.1,0.8-5.4,2.3-6.9,4.7
		c0.2-0.1,0.4-0.3,0.7-0.4c1.9-1.6,4-2.8,6.4-3.6c0.2,0.6,0.4,1.3,0.7,2c0.2,0,0.3,0.1,0.4,0.1c-0.6,0.4-1.1,0.9-1.5,1.5v0.2
		c1.5-0.1,2.6-0.5,3.5-1.1c3.3,0.8,6.7,0.6,10.2-0.5c-0.5,0.2-1,0.5-1.4,0.8c0.7,0.1,1.5,0.2,2.2,0.2c0,0,0.2,0,0.3-0.1
		c3.8-1.8,7.4-3.8,10.8-5.9c0,0,0,0-0.1,0.1c-1.5,0.4-3.1,1-4.6,1.5c6.4-4,10.2-9.9,11.5-17.7C88.017,42.6,88.017,42.5,87.917,42.4z
		 M80.717,40.3c3,0.2,4.8,1.6,5.6,4.3c-0.3,2-1.1,4-2.3,5.7c-6.5,9.6-15.3,13.5-26.4,11.5c-0.2-0.1-0.4-0.4-0.5-0.6
		c0.1,0,0.2,0,0.4-0.1c-0.1-0.1-0.1-0.1-0.2-0.2c-0.1,0-0.3,0-0.5-0.1c-0.3-0.6-0.4-1.2-0.2-1.9c0.1-0.9,0.2-1.8,0.4-2.7
		c0.4-0.6,0.8-1.3,1.2-1.9c2.9-5,7-8.6,12.5-10.6c0,0,0,0,0.1-0.1c2.7-1.8,5.7-2.9,9-3.4C80.117,40.3,80.417,40.3,80.717,40.3z
		 M60.217,14.3c-0.1,0-0.1,0-0.2,0c0-0.3-0.1-0.5-0.1-0.8c2.6,0.5,4.8,1.4,6.8,2.8c0.3,0.6,0.9,1.1,1.8,1.4c0.1,0.3,0.2,0.5,0.2,0.8
		c0.3,0.7,0.7,1,1.3,1c0-0.3,0-0.5-0.1-0.7c-0.2-0.6-0.4-1.1-0.7-1.7c1.1,0.3,2,0.7,2.9,1.5c0,0.1,0,0.2,0,0.4
		c-0.4,2.4-1.4,4.4-3.1,6c-0.3-0.7-0.8-1.3-1.2-1.9l0,0c0-0.3,0.1-0.5,0.2-0.7c0.3-0.5,0.3-1,0.1-1.6c-0.1-0.1-0.2-0.2-0.4-0.3
		c-1.7-1.6-3.7-2.8-6-3.5h-0.1c0,0,0,0,0-0.1c0,0,0,0,0.1,0c-0.5-0.3-0.9-0.6-1.2-0.8c0.2,0,0.6,0,0.9,0c-0.5-0.4-0.8-0.9-1.2-1.5
		C60.217,14.5,60.217,14.4,60.217,14.3z M62.217,17.7c0-0.1-0.1-0.2-0.2-0.3c1.4,0.9,2.5,2.1,3.2,3.5c0,0-0.1-0.1-0.1-0.2
		c-0.9-0.8-1.5-1.6-2.1-2.5C62.717,18.1,62.517,17.9,62.217,17.7z M2.017,39.2c0.1-0.1,0.2-0.2,0.3-0.4c0.2-0.1,0.3-0.2,0.4-0.3
		c12.3,3,21.2,10.1,26.8,21.3c-0.3,0.5-0.5,0.9-0.8,1.3c-0.7,0.3-1.4,0.7-1.9,1.1c-1.4,0.1-2.7,0.1-4,0c-12.3-1-19.4-7.4-21.5-19.2
		c0-0.2,0-0.3,0.1-0.4C1.517,41.4,1.717,40.3,2.017,39.2z M28.817,54.6c0.4,0.4,0.7,0.7,1,0.9c0,0.2,0,0.3,0,0.4
		c0.4,0.1,0.7,0.2,1,0.3c1.4,0.2,2.8,0.6,4.1,1.2c0.1,0,0.2,0,0.2,0.1l0,0c0.2,0.1,0.4,0.2,0.6,0.3c0-0.1,0-0.2,0-0.2
		c0.5,0.1,0.9,0.2,1.4,0.2c-2.2,0.6-4.3,1.3-6.3,2.2c0.1-0.6,0.1-1.2,0-1.9c-0.4-0.3-0.7-0.7-0.9-1.1
		C29.617,56.2,29.317,55.4,28.817,54.6z M42.617,58.7c0.1-0.1,0.3-0.2,0.5-0.3c2,0.1,4-0.1,6.1-0.3c0,0,0,0.1,0,0.3
		c-0.8,0.2-1.7,0.3-2.5,0.4c0,0,0,0,0-0.1c0,0.1-0.1,0.1-0.1,0.1C45.217,58.9,43.917,58.9,42.617,58.7z"/>
	<path style="fill:#BE3689;" d="M84.817,60.9c-0.7-0.2-1.4-0.3-2.1-0.3c-1,0.3-2.1,0.7-3.1,1.3c-0.8,0.3-1.3,0.9-1.6,1.7
		c0.7,0.1,1.3-0.1,1.9-0.5c1.4-1.2,3.1-1.8,5.1-2C84.917,61,84.817,60.9,84.817,60.9z"/>
	<path style="fill:#BE3689;" d="M26.217,10.5L26.217,10.5l-3.8,0.4c1,0.3,2.1,0.4,3.4,0.2C26.017,10.9,26.117,10.7,26.217,10.5z"/>
	<path style="fill:#BE3689;" d="M34.517,21.3c-0.3,0-0.6,0.1-0.9,0.1c0.1,0,0.2,0,0.3,0.1C34.117,21.4,34.317,21.4,34.517,21.3z"/>
	<path style="fill:#BE3689;" d="M35.317,21.9c-0.3-0.1-0.6,0-0.7,0.3c-0.3,0.9-0.2,1.8,0.1,2.6c0.2,0.2,0.4,0.3,0.6,0.5
		c-0.3,0.1-0.7,0.3-1,0.5c-0.7-0.2-1.3-0.6-2-0.9c0-0.2,0-0.3,0-0.4c0.1-0.4,0-0.8-0.2-1.2c-0.3,0.1-0.3,0.1-0.4,0.2
		c-0.5,0.8-0.5,1.5-0.1,2.2c0.4,0.4,0.9,0.8,1.4,1c-0.2,0.1-0.3,0.2-0.5,0.3c-1,0-1.8-0.5-2.5-1.5c-0.4-0.1-0.7,0-0.7,0.4
		c-0.1,0.9,0.4,1.5,1.4,1.9c0.2,0.1,0.4,0.2,0.6,0.2c-4.8,4.4-5.1,9.3-0.8,14.5c4.6,1.7,8.8,1.3,12.7-1.4c2.3,2.5,5.3,3.2,8.9,2.2
		c5.6-1.6,7.6-5.1,6.3-10.5c-0.2-0.1-0.2-0.3-0.3-0.4c-0.7-1.6-1.6-2.9-2.7-4c0.2,0,0.4-0.1,0.6-0.2c0.1-0.1,0.3-0.2,0.4-0.3
		c1-0.8,1.2-1.7,0.6-2.6h-0.1c-0.7,1-1.7,1.6-2.9,2c-0.3-0.3-0.7-0.5-1-0.7c0.4-0.4,0.9-0.8,1.4-1.3c0-0.1,0-0.2,0-0.4
		c0.1-0.6,0.1-1.3-0.3-1.8h-0.2c-0.4,1.7-1.3,2.6-2.6,2.7c-0.1,0-0.1,0-0.1,0c0-0.1,0-0.1,0.1-0.2c0.6-1.1,0.8-2.2,0.6-3.4
		c-0.9,0.5-1.6,1.5-2,3.1c-0.1,0-0.1,0-0.1,0.1c-1-0.2-1.9-0.3-2.9-0.4c-0.3,0.1-0.7,0.3-1.1,0.4c-0.8,0.4-1.4,0.9-1.8,1.7
		c-0.1,0.1-0.1,0.1-0.2,0.2c-2-2.1-4.1-3-6.4-2.7c-0.4-0.3-1-0.6-1.9-0.7c0-0.2,0-0.3,0.1-0.4C35.817,22.8,35.717,22.3,35.317,21.9z
		 M28.617,35.7c0-0.1,0-0.2,0.1-0.3c0-0.1,0-0.2,0-0.3c0.1,0,0.1,0,0.2,0c3.9-0.6,7.6-1.6,10.9-3c0.1-0.2,0.3-0.3,0.4-0.4
		c0.2,0,0.3,0,0.5-0.1c1.2-0.5,2.3-1.2,3.5-1.8c0.7,0.8,1.4,1.6,2.2,2.3c-0.1,0-0.2,0-0.2,0c0.9,0.5,1.8,1.1,2.6,1.9
		c2.4,1.6,5.1,2.8,8.1,3.4c-0.4,2-1.7,3.5-4.1,4.5c-3.6,0.8-6.6,0-8.9-2.5c-0.3-0.2-0.5-0.4-0.7-0.6
		C35.917,44,31.117,43,28.617,35.7z M56.917,35.5c0.1,0.5,0.1,0.9,0,1.3c-4.3-2.1-8.2-4.6-11.9-7.4c0.2-0.3,0.3-0.5,0.5-0.8
		c0.2-0.6,0.5-1.1,0.8-1.5c4.9-0.3,8.4,1.8,10.4,6.5C56.817,34.2,56.917,34.9,56.917,35.5z M37.817,25.9c0.6,0,1.2,0,1.8,0
		c0.2,0.2,0.4,0.3,0.6,0.5c1.1,1,2.2,1.9,3.1,2.6c0.1,0,0.1,0,0.2,0c0,0.1,0,0.1,0.1,0.1c0.1,0.1,0.2,0.2,0.3,0.4
		c-0.1-0.1-0.1-0.1-0.2-0.1c-0.5,0-1-0.1-1.5-0.1c0,0.1,0,0.1,0,0.1c-4.9,1.7-9.4,3.5-13.4,5.3C30.117,30.4,33.017,27.4,37.817,25.9
		z"/>
	<path style="fill:#BE3689;" d="M45.117,35.2c-0.7,0.5-0.9,1.2-0.9,1.9c1.1,1.2,2.3,1.3,3.6,0.5c0-0.4,0-0.7,0-1.1
		c0-0.3,0-0.5-0.1-0.8c-0.1-0.1-0.3-0.2-0.5-0.3c-0.5-0.2-1-0.4-1.5-0.5C45.617,34.9,45.317,35,45.117,35.2z"/>
	<path style="fill:#BE3689;" d="M42.317,36.1c0-0.1-0.1-0.2-0.1-0.4c-0.6-0.8-1.4-1.1-2.5-0.8c-0.4,0.2-0.7,0.6-1,1.2
		c-0.1,0.3-0.2,0.8-0.1,1.1c0.9,1.2,2,1.3,3.2,0.4c0.4-0.2,0.6-0.7,0.6-1.1C42.317,36.4,42.317,36.2,42.317,36.1z"/>
	<path style="fill:#BE3689;" d="M42.917,38.4c-0.1,0-0.1,0-0.2,0c-0.2,0.2-0.5,0.4-0.7,0.5C42.217,38.8,42.517,38.6,42.917,38.4z"/>
	<path style="fill:#BE3689;" d="M14.117,26.9c0,0.1,0,0.2,0.1,0.3c0.1,0,0.2-0.1,0.3-0.1C14.417,27,14.317,27,14.117,26.9z"/>
	<path style="fill:#BE3689;" d="M9.317,36.7c0.1,0,0.1,0,0.2,0c0.1,0,0.2,0,0.3-0.1c0.1,0,0.2-0.1,0.3-0.2
		C9.817,36.5,9.617,36.6,9.317,36.7z"/>
	<path style="fill:#BE3689;" d="M1.517,63.6c0.3,0,0.6-0.1,0.8-0.2c1.9-1,3.9-1.7,6.2-2.3c-0.1-0.1-0.1-0.1-0.2-0.2
		c-0.5-0.1-1-0.1-1.6-0.2c-0.2,0.3-0.5,0.5-1,0.6C3.817,61.8,2.417,62.6,1.517,63.6z"/>
	<path style="fill:#BE3689;" d="M29.617,52.1c0,0.1,0,0.1,0.1,0.1c-0.1-0.1-0.1-0.1-0.2-0.1c-0.2-0.1-0.2-0.2-0.3-0.3l0,0
		c0,0.1,0.1,0.2,0.2,0.3C29.517,52.1,29.517,52.1,29.617,52.1z"/>
	<path style="fill:#BE3689;" d="M30.817,52.3c0.4,0.1,0.8,0.2,1.2,0.2c8-5.9,15.1-5.4,21.3,1.5c0.4,0,0.8-0.1,1.1-0.2
		c0.2,0,0.3-0.1,0.4-0.2c0-0.1-1.3-1.3-3.9-3.6c-2.6-2.4-5.9-3.2-10-2.5c-4.2,0.7-6.8,1.5-8.1,2.6c-1.1,1-2,1.6-2.5,2
		C30.517,52.2,30.717,52.3,30.817,52.3z"/>
	<path style="fill:#BE3689;" d="M55.017,43.6c-0.6-0.2-0.9,0-0.9,0.5c-0.2,1.5-0.3,3-0.3,4.5c0.2,0.1,0.3,0.2,0.4,0.4
		c0.3,0.2,0.5,0.5,0.8,0.7c1.1,0.5,2.1,0.2,2.7-0.9c0.1-0.1,0.2-0.2,0.2-0.2C57.217,46.7,56.217,45.1,55.017,43.6z M55.117,48.5
		c-0.2-0.2-0.2-0.3-0.2-0.4c-0.2-1-0.4-2-0.4-3V45c0.8,1,1.6,2,2.3,3.1C56.517,49,55.917,49.2,55.117,48.5z"/>
	<path style="fill:#BE3689;" d="M54.617,53.8c-0.1,0.1-0.1,0.2-0.2,0.3h0.1C54.517,54,54.517,53.9,54.617,53.8z"/>
	<path style="fill:#BE3689;" d="M45.817,51c-1.5-0.6-3-0.9-4.6-0.9c-0.1,0.1-0.2,0.1-0.4,0.2c-0.5,0.2-0.9,0.4-1.4,0.7
		c0,0-0.1,0.1-0.1,0.2c0.2,0.2,0.4,0.2,0.5,0.2c2.8-0.2,4.9-0.3,6.4-0.2C46.117,51.1,45.917,51,45.817,51z"/>
	<path style="fill:#BE3689;" d="M41.017,65.1c0.3,0,0.7-0.1,1-0.2c2.6-0.9,5.2-2,7.7-3c2-0.9,3.4-1.8,4.4-2.7
		c0.7-0.7,1.1-1.4,1.1-2.1c0,0.1,0,0.1,0,0.1c-0.6,0.2-1.2,0.5-1.8,0.8c-0.1,0-0.1,0-0.2,0C48.917,60,44.817,62.3,41.017,65.1z"/>
	<g>
		<path style="fill:#BE3689;" d="M43.517,9c-0.3,0-0.6,0-0.9,0.1c-0.1-0.4-0.3-0.8-0.6-1.1c-2.8-2.5-6-4.2-9.5-5.1
			c0-0.1,0-0.1,0-0.1c-2.2-0.5-4.6-0.8-7-0.8c-0.2-0.2-0.4-0.3-0.5-0.4c-1.2-1.2-2.6-1.7-4.3-1.5c-2.3,1.6-2.9,4.2-1.9,7.6
			c0.7,2.3,1.9,3.7,3.6,4.2l3.8-0.4l0,0c0.1-0.1,0.2-0.3,0.3-0.4c0.2-0.4,0.4-0.8,0.6-1.1c0-0.1,0-0.2,0.1-0.2
			c0.2-0.2,0.4-0.3,0.6-0.5c0,0,0,0,0.1,0c0.1,0.9-0.1,2-0.2,3.2c-0.2,0.1-0.4,0.1-0.6,0.2l0.6,0.8l0.4,3.6c0.1-0.1,0.2-0.1,0.4,0
			c0.4,0.3,0.8,0.8,1,1.3c0.1-0.1,0.2-0.1,0.3-0.2c0,0.1,0.2,0.1,0.2,0.2c-0.2,0-0.2,0.1-0.3,0.2c0.1,0.3,0.2,0.6,0.3,1
			c0.2,0.2,0.5,0.4,0.8,0.7c0.1-0.1,0.2-0.1,0.3-0.2c0.7,0.7,1.5,1.1,2.5,1.3c0.3,0,0.6-0.1,0.9-0.1c0.8-0.2,1.7-0.4,2.6-0.5
			c2-1,3.3-2.2,4-3.7c2-0.4,4-0.5,5.9-0.1c-0.1-0.1-0.1-0.1-0.2-0.2v-0.1c1.5,2.3,3.9,3.8,7.3,4.4c0.1-0.1,0.2-0.2,0.3-0.2
			c0.2-0.2,0.4-0.3,0.5-0.4c0.1,0,0.1,0,0.1,0.1c0.5-0.4,1-0.8,1.5-1.1c0.2,0.1,0.4,0.2,0.7,0.4c0.5-0.5,1-0.9,1.4-1.4
			c0.4-1.7,0.9-3.2,1.6-4.6c-0.1-0.1-0.2-0.1-0.2,0c0-0.1,0-0.1,0-0.1c-0.1-0.1-0.1-0.1-0.1,0c0-0.1,0-0.1,0-0.2c0,0-0.2,0-0.2,0.1
			c0.2-0.9,0.3-1.7,0.3-2.6c0,0,0,0,0.1,0l0,0c0.1,0,0.4,0.1,0.6,0.1c1.2-0.6,2.3-1.3,3.4-2.1c0.1-0.3,0.2-0.5,0.4-0.7
			c0.5-0.9,1-1.8,1.3-2.7c-0.1-0.3-0.1-0.7,0-1.1c0.1-0.2,0.1-0.5,0.3-0.8c-0.4-0.3-0.4-0.6-0.4-1.1c0.2-0.8,0-1.6-0.4-2.2
			c-0.1-0.2-0.2-0.2-0.4-0.3c-0.4-0.1-0.8-0.2-1.2-0.2c-2.3,0-4.2,0.7-5.7,2.1c-1.7-0.1-3.5-0.2-5.3-0.3c-3.2,0.7-5.8,2.3-7.9,4.7
			C44.117,7.3,43.717,8.2,43.517,9z M55.917,4.8c-1,0.2-2,0.4-3,0.7c-1.5,0.4-2.8,1.1-3.9,2.1c0.3-0.6,0.8-1.1,1.2-1.5
			c-0.7,0.2-1.5,0.5-2.3,0.7c-0.3,0.4-0.8,0.7-1.4,1c-0.2,0.4-0.3,0.8-0.4,1.2c-0.4,0.1-0.7,0.2-1,0.3c0,0.1,0,0.2,0,0.3
			s0,0.2,0.1,0.3c-0.2-0.1-0.3-0.2-0.5-0.2c0.7-0.8,1.3-1.7,1.9-2.7c0.1-0.2,0.2-0.3,0.2-0.4c3.1-2.6,6.6-3.7,10.8-3.4
			c0.6,0.6,1.3,0.8,2.1,0.8c0.2,0,0.4,0,0.5-0.2c0-0.1,0-0.2,0-0.3c-0.1-0.3-0.3-0.5-0.5-0.7c-0.2-0.2-0.3-0.3-0.5-0.5
			c0,0-0.1,0-0.2,0c1.7-0.5,3.5-0.8,5.5-1c0.4,3.9-1,6.9-4.4,8.9c0-0.2,0-0.3,0-0.4h-0.1c-0.1,0-0.1-0.1-0.1-0.2
			c0.1,0.1,0.2,0.2,0.3,0.2c-0.2-0.7-0.2-1.4,0-2.1c-0.2-0.1-0.5-0.1-0.6-0.1c-0.2-0.7-0.4-1.5-0.8-2.3c-0.1-0.1-0.2-0.1-0.4-0.2
			c-0.2,0-0.4,0-0.6-0.1c-0.1-0.1-0.2-0.3-0.3-0.4c-0.5,0.1-0.9,0.1-1.4,0.2v0.1C56.117,4.8,56.017,4.8,55.917,4.8z M41.517,9.1
			c-0.2,0-0.3,0-0.5,0c0,0,0-0.1,0-0.2c-0.2-0.1-0.5-0.2-0.8-0.3c0,0,0,0,0.1,0.1c-0.2,0.2-0.2,0.5-0.1,0.6l-0.1,0.1
			c-2.8-2.9-6.3-4.5-10.4-4.6c-0.3,0.2-0.5,0.3-0.8,0.5c-0.1,0.2-0.2,0.3-0.3,0.5c-0.1,0-0.1,0-0.1,0c-0.1,0.4-0.2,0.8-0.2,1.2
			c0-0.1,0-0.1-0.1-0.1c-0.5,0-1-0.1-1.5-0.1c-0.4,0.2-0.5,0.3-0.3,0.6c-0.4,0.1-0.7,0.4-1,1s-0.6,1.3-0.8,1.9
			c-0.5,0-0.9-0.1-1.4-0.3c-0.4-0.1-0.9-0.3-1.4-0.5c-0.4-0.6-0.8-1.2-1.2-1.9c-0.3-0.8-0.5-1.5-0.5-2.3c-0.1-1.3,0.3-2.3,1.4-3.2
			c0.2,0.1,0.5,0.2,0.7,0.2c0.3,0.1,0.5,0.2,0.8,0.2c0.3,0.3,0.7,0.7,1.2,1c0.4,0.3,1,0.6,1.5,0.8c1.9-0.6,3.9-0.7,5.9-0.1
			c3.9,1.1,7.3,2.7,10.1,4.5c0.2,0.3,0.4,0.5,0.6,0.6C42.017,9.3,41.717,9.2,41.517,9.1z M41.017,13.2c0-0.5,0-1,0-1.5
			c0-0.1,0-0.2,0-0.4c0.3-1,1.1-1.1,2.4-0.3c0.5,0.3,1,0.6,1.6,0.8c0,0.4,0,0.8,0,1.2c0.1,0.5,0,1-0.3,1.5c-0.1,0.1-0.2,0.2-0.2,0.3
			v0.1c-1-0.1-1.9-0.2-2.9-0.2c-0.1,0-0.4-0.1-0.6-0.2v-0.2C41.017,14,41.017,13.6,41.017,13.2z M37.917,12.4
			c-0.3-0.1-0.7,0-1.2,0.1c-0.7,0.3-1.4,0.8-2.1,1.3c-0.1,0.1-0.2,0.3-0.3,0.5l0.1,0.2c1.7-0.7,3.4-1,4.9-0.8
			c0.1,0.4,0.1,0.8,0.2,1.1c-0.1,0-0.2,0-0.3,0c-0.1,0.1-0.2,0.1-0.2,0.1c0.2,0.1,0.4,0.2,0.6,0.3c0.1,0.4,0.2,0.8,0.2,1.1
			c0,0.2,0,0.3,0,0.4c-1.7,1.4-3.7,2.3-5.8,2.9c-1-0.5-1.9-1.1-2.7-1.9c-0.1,0-0.2,0-0.3,0c-0.1-0.1-0.2-0.1-0.3-0.2
			c-0.1,0-0.2-0.1-0.4-0.3c-1.1-1.9-1.6-4-1.5-6.4c0-1.4,0.3-2.7,0.9-3.9c0-0.1,0.1-0.2,0.1-0.3s0-0.1,0-0.1
			c0.8-0.1,1.5-0.2,2.3-0.3c1.4,0.7,2.7,1.5,4,2.5c1.3,1,2.5,1.6,3.5,1.6c-0.2,0.5-0.3,1.1-0.4,1.8c-1.7-1.5-3.9-2-6.5-1.6l-0.4,0.1
			C34.217,11.2,36.017,11.8,37.917,12.4z M53.017,11.3c-0.1-0.1-0.2-0.2-0.3-0.2c-0.7-0.3-1.3-0.5-2-0.6c-0.1,0-0.3,0.1-0.5,0.1
			c-1.6,0.1-2.8,0.7-3.4,1.9c0,0,0,0-0.1,0c0,0-0.1,0-0.2,0.1c-0.1-0.4-0.1-0.8-0.1-1.2c0.1,0,0.1,0,0.1-0.1c0.5-0.2,1-0.7,1.3-1.3
			c3-2.1,6.4-3.2,10.3-3.3c0.1,0.8,0.2,1.5,0.3,2.3c0.1,1.8,0,3.5-0.5,5.1c0,0.1,0,0.1,0,0.2c-0.3,0.7-0.6,1.5-1,2.3
			c-0.6,0.5-1.2,1-1.9,1.5c0.1,0,0.2,0.1,0.2,0.1c0,0.1-0.1,0.1-0.1,0.2c-0.8,0.1-1.6,0.3-2.4,0.7c-0.3-0.1-0.6-0.2-0.9-0.4
			c-2.1-0.9-3.9-2.3-5.3-4.1c-0.1,0-0.1,0-0.1,0c0-0.5,0-0.9,0-1.4c0.8,0.2,1.6,0.3,2.3,0.4c0.6,0.5,1.2,1,1.8,1.4
			c0.8,0.5,1.5,0.5,2.1-0.2c0.1-0.6-0.3-1-1.2-1.1c-0.8-0.1-1.4-0.5-1.9-1.1c-0.5,0-0.9,0-1.3-0.1
			C49.817,11.9,51.417,11.5,53.017,11.3z M27.317,7.9c0.2,0.2,0.5,0.2,0.7,0.2c-0.2,0.6-0.4,1.1-0.8,1.5
			C27.417,9,27.417,8.5,27.317,7.9z"/>
	</g>
</g>
</svg>
