<?xml version="1.0" encoding="iso-8859-1"?>
<!-- Generator: Adobe Illustrator 12.0.1, SVG Export Plug-In . SVG Version: 6.00 Build 51448)  -->
<!DOCTYPE svg PUBLIC "-//W3C//DTD SVG 1.1//EN" "http://www.w3.org/Graphics/SVG/1.1/DTD/svg11.dtd" [
	<!ENTITY ns_svg "http://www.w3.org/2000/svg">
	<!ENTITY ns_xlink "http://www.w3.org/1999/xlink">
]>
<svg  version="1.1" id="Layer_1" xmlns="&ns_svg;" xmlns:xlink="&ns_xlink;" width="93.897" height="80.014"
	 viewBox="0 0 93.897 80.014" style="overflow:visible;enable-background:new 0 0 93.897 80.014;" xml:space="preserve">
<g>
	<g>
		<path style="fill:#3172A1;" d="M86.5,42.341c-0.2-0.1-0.3-0.2-0.4-0.4c-0.1-0.3-0.2-0.7-0.3-1.1c-0.4-1.2-0.8-2.3-1.3-3.4
			c-2.1-0.7-4.2-1.6-6.2-2.5c0-0.1-0.1-0.2-0.2-0.3c-0.5-0.9-1.1-1.6-1.7-2.2c-0.1-0.1-0.1-0.2-0.1-0.3c-0.1,0-0.1,0-0.1,0
			c-0.1,0-0.1,0-0.2,0.1c-0.4-1.4-1-2.6-1.6-3.9c-1.2-1.9-2.4-3.7-3.8-5.2c0.1,0,0.1,0,0.1,0c0.4,0.1,0.7,0.2,1.1,0.3
			c-0.2-0.3-0.4-0.5-0.7-0.7c0-0.1-0.1-0.1-0.1-0.1c-0.1-0.3-0.3-0.5-0.5-0.7c-0.3-0.2-0.6-0.5-0.8-0.8l-0.1-0.1
			c-0.3-0.4-0.5-1-0.5-1.6c1.6-0.3,3-0.4,4.3-0.5c-0.2-0.3-0.3-0.5-0.5-0.7c-1.3-1.1-1.9-2.2-2.1-3.4c0.1-0.2,0.1-0.2,0.2-0.2
			c0.9-0.5,1.6-0.9,2-1.4c0.4,1.4,1.3,2.6,2.7,3.6c0.9-0.2,1.9-0.2,2.9-0.4c0.1-0.1,0.2-0.3,0.3-0.4c1.9-6.1,0.2-10.3-5.3-12.5
			c0,0.1,0,0.1-0.1,0.1c-0.7,0.1-1.1,0.6-1.4,1.4c-0.1,0.2-0.2,0.5-0.3,0.8c0.1,0.7,0.1,1.5,0.1,2.2c0,0.5,0.2,0.8,0.6,1.1
			c-1.5-0.2-3-0.3-4.4-0.3c-3.7,0.2-6.9,1.5-9.7,3.8c-0.8,0.7-1.5,1.3-2.3,2c0,0.1,0,0.2,0,0.3c0,0.2-0.1,0.2-0.1,0.3s0,0.1,0,0.1
			c-0.2,0-0.3,0-0.4-0.1c0.1,0.2,0.1,0.3,0.1,0.4c-3.2-1.2-6.7-1.7-10.4-1.4c-0.3,0.3-0.7,0.4-1.2,0.6c0-0.2,0-0.3,0-0.5
			c-0.3,0.2-0.6,0.3-0.9,0.4c-3-4.8-7.7-6.8-14.1-6.1c-1.9,0.4-3.6,1-5.3,2c-0.3,0.1-0.6,0.3-0.8,0.4c-1.5-1.9-3.4-2.7-5.9-2.5
			c-0.8,0.8-1.1,1.8-0.7,3.3c1,4.5,3.8,7.4,8.2,8.8c0.6-0.3,1.2-0.7,1.7-1.1c0.1-0.1,0.2-0.2,0.4-0.4c0.3-1,0.3-2,0-3
			c-0.5-1.5-1.1-2.2-2-2.1l0.1-0.1c0.3-0.1,0.6-0.2,0.9-0.2c1.1,0.6,2.2,1.5,3.1,2.4c-0.1,0.2-0.2,0.3-0.4,0.5
			c-0.5,0.5-0.9,1-1.4,1.5c0,0.1-0.1,0.2-0.1,0.3c0.6,0.7,1.5,0.9,2.5,0.9c-0.8,1.2-1.8,2.3-3.1,3.1c0.2,0.2,0.4,0.4,0.6,0.5
			c-2.8,3-4.8,6.6-5.8,10.9c-0.1,0-0.1,0-0.1,0c-0.1-0.1-0.1-0.1-0.1-0.1c0,1.6-0.1,3.4-0.3,5.2c-0.2,1.5-0.4,2.9-0.5,4.3
			c-0.2,0.6-0.3,1.2-0.4,1.8c-0.3,1.8-0.9,3.3-1.7,4.6c0-0.5,0-1,0-1.5c0.1-1.6,0-2.9-0.5-4.2c-1.1,0.6-1.9,1.5-2.2,2.7
			c-0.9,2.8-2.5,5-4.8,6.5c0.1-0.6,0.3-1.3,0.6-1.8c0.9-1.5,1.3-3,1.2-4.6c-3.2,2.4-6.8,4-10.7,5c0.2-0.6,0.5-1,1.1-1.2
			c4.6-2.2,8-5.5,10.3-10.1c0-0.1,0.1-0.1,0.2-0.1c4.8-0.1,7.3-1.7,7.5-4.7c-2.1,2-4.9,3-8.4,2.8c-0.4,0.4-0.8,0.8-1.2,1.3
			c-3.1,4.7-6.8,8.8-11.1,12.1c0.4,1.2,1.3,1.9,2.7,2c2.3-0.9,4.5-2,6.8-3.2c-0.3,0.3-0.4,0.7-0.5,1.1c0,0.9,0,1.8,0,2.6
			c0.5,0.2,1.1,0.4,1.7,0.5c0.7-0.2,1.2-0.6,1.8-1c1.8-1.4,3.1-3.2,3.7-5.2c0.1,0.1,0.1,0.2,0.2,0.4c0,0.3,0.1,0.7,0.1,1.1
			c0.5,1.2,1.4,1.5,2.7,1c0.1-0.3,0.2-0.5,0.3-0.7c0.6-1,1.1-2,1.5-3.1h0.1c1.4,4.3,3.7,7.7,6.9,10.3c0.1-0.1,0.1-0.1,0.2-0.1
			c0.6,0.7,1.5,1.2,2.5,1.7c0-0.2,0-0.3,0.1-0.5c3,2.6,6.2,4.9,9.4,7c-1.7,0.7-3.4,1.5-5.1,2.2c-0.1,0.2-0.1,0.3-0.2,0.4
			c-0.1,0.8-0.1,1.5,0.1,2.3c1.2,1,2.2,2.1,2.8,3.3c-1.2,0.7-2.7,0.9-4.3,0.5c-1.3-1.4-2.3-1.6-3.3-0.5c4.3,6.6,10.2,7.8,17.6,3.7
			c0.1-0.2,0.2-0.3,0.3-0.4c0.5-1,0.7-2,0.4-3c-0.7-0.5-1.1-1.1-1.3-1.9c5.5-0.6,10.1-2.8,14-6.6c0-0.3,0-0.5,0-0.8
			c0-1.1,0-2.3-0.1-3.3c1.6-1.4,3.4-2.5,5.2-3.4c4.4-2.1,7.3-4.9,8.7-8.5c0.6-1.2,1.1-2.5,1.5-3.8c0.5,1.2,1.3,2.3,2.3,3.3
			c0.6,0.1,1.1,0.1,1.7-0.1c1,2.5,2.7,3.9,5.2,4c0.1-0.3,0.1-0.5,0.2-0.8c0-0.7,0.1-1.5,0.1-2.2c0.2,0.1,0.3,0.3,0.5,0.4
			c0.9,1.4,2,2.6,3.3,3.7c1.1,0.4,2.1,0.5,3.2,0.5c0.1-0.1,0.2-0.2,0.4-0.4c0.3-0.2,0.5-0.6,0.4-1.1c0.2-0.6,0.1-1.2-0.4-1.6
			c-2.4-2.5-4.6-5-6.4-7.8c0-0.2,0-0.5-0.1-0.7c0-0.2,0-0.3-0.1-0.4S86.6,42.541,86.5,42.341z M83.5,38.841c-0.1,0.7,0,1.3,0.3,2
			c1.9,4.5,4.7,8.6,8.3,12.3c-0.2,0-0.3-0.1-0.3-0.1c-3.2-2.7-6-5.5-8.5-8.6c-0.4,0.6-0.5,1.2-0.3,1.9c0.4,1.6,0.8,3.2,1.3,4.8
			c-0.9-0.6-1.7-1.3-2.3-2.2c-1.2-1.8-1.8-3.9-1.5-6.2c-0.4-0.9-0.9-1-1.7-0.3c-0.3,0.3-0.5,0.7-0.4,1.2c0.2,1.2,0.3,2.2,0.3,3
			c-0.1-0.3-0.2-0.5-0.3-0.8c-0.4-0.7-0.7-1.5-0.9-2.2c0-0.3,0-0.5,0-0.8c0-0.1,0-0.2,0.1-0.4c-0.1-0.1-0.1-0.2-0.1-0.3
			c0.2,0.1,0.4,0.2,0.7,0.3c-0.1-0.8-0.2-1.7-0.2-2.6c-0.3-0.1-0.5-0.2-0.8-0.1c0-1.5-0.2-3-0.5-4.6c0.2,0.3,0.4,0.6,0.6,1
			C79.5,37.041,81.5,37.94,83.5,38.841z M61.9,16.94c0.1,0,0.1,0,0.2-0.1c-0.1,0.1-0.2,0.3-0.3,0.4c0-0.1-0.1-0.1-0.1-0.1
			S61.8,16.94,61.9,16.94z M70,13.841c-0.4,0.5-0.5,1.1-0.4,1.8c0,0.2,0,0.3,0.1,0.3c0.3,0.3,0.5,0.7,0.8,1.2
			c-0.8-0.7-1.7-1.3-2.7-1.7c-1.8-0.4-3.3-0.3-4.5,0.3c2.8-2.1,5.9-3.5,9.5-3.8l0,0c-0.7,0.3-1.5,0.7-2.2,1.1
			C70.4,13.341,70.2,13.641,70,13.841z M62.5,17.44c2.4-1.2,4.9-1.2,7.6-0.1c-0.7,0.3-1.4,0.8-2,1.3c0,0.5,0,0.8,0,1.2v0.1
			c-0.2-0.1-0.4-0.2-0.5-0.3c0.1,0.4,0.2,0.8,0.4,1.1C66.3,19.44,64.5,18.341,62.5,17.44z M69.6,11.341c-3,0.4-5.7,1.5-8.2,3.2
			c-1.1,0.7-1.8,1.7-1.8,3c-0.2,0.1-0.4,0.3-0.6,0.4c2,0.6,4,1.4,5.9,2.3c0.3,0.2,0.7,0.4,1,0.4c0.8,0.6,1.5,1.2,2.3,1.7
			c1.5,1,2.6,2.2,3.5,3.6c0.1,0.2,0.2,0.5,0.2,0.7l-0.2,0.2c1.4,1.9,2.4,4.2,3,6.8c0.7,1.2,0.9,2.5,0.6,4c0.1,0.8,0.1,1.6,0.1,2.5
			v0.1c-0.2,0.5-0.2,1.2-0.2,1.9c0,0,0,0.1,0.1,0.1c-0.4,3.4-1.9,6.3-4.3,8.9c-0.3,0.2-0.5,0.5-0.8,0.7c-3.8,3-7.7,6.1-11.5,9.3
			c0,0.1,0,0.2,0,0.3c0,1,0.2,1.9,0.5,2.7c0,0.1,0,0.2-0.1,0.3c-0.2,0.4-0.3,0.8-0.4,1.2c-4.5,1.9-9,3.8-13.4,5.6c0,0.1,0,0.2,0,0.4
			c0,0.6,0,1.2-0.1,1.8c0.6,0.6,1.1,1.2,1.4,1.9c-3.5,3.1-7.3,3.5-11.4,1.3c1.2,0.1,2.4,0,3.5-0.3c0.1,0,0.1-0.1,0.1-0.1
			c0.7-0.7,1.1-1.6,1.3-2.5c-0.7-1.7-1.8-3-3.3-4.1c1-0.7,2.4-1.2,4-1.4c0.5-0.5,0.9-1,1.3-1.5c0-0.1,0-0.2,0-0.4
			c0.1-1.2-0.1-2.3-0.8-3.4c-3.7-1.5-7.1-3.4-10.2-5.7c0-0.1,0.1-0.2,0.1-0.2c-0.3-0.2-0.6-0.3-0.8-0.4c-0.3-0.1-0.5-0.4-0.7-0.5
			c-0.4-0.3-0.8-0.6-1.2-1c-0.9-0.8-1.6-1.6-2.3-2.5c-5.3-6.5-6.2-13.9-2.6-22c0.1-0.1,0.2-0.2,0.3-0.4c0.2-0.1,0.3-0.2,0.4-0.3
			c0.1-0.2,0.2-0.3,0.2-0.4c0.1-0.1,0.1-0.2,0.1-0.4c0-0.1,0-0.2,0-0.3c0.1-0.2,0.1-0.3,0.2-0.4c0.9-0.7,1.6-1.5,2.2-2.3
			c2.9-4.5,6.8-7.4,11.7-8.8l-0.1-0.1c0-0.1,0-0.3,0.1-0.5c0.1,0,0.2,0,0.3,0c0.3,0,0.7,0,1.1,0.1c-0.1-0.2-0.2-0.2-0.3-0.3
			c-0.2-0.1-0.4-0.2-0.6-0.3c0-0.1,0-0.1,0-0.1c0-0.2-0.1-0.3-0.1-0.4c-2.3-3-5.4-4.2-9.5-3.6c-1.3-0.1-2.3,0.1-3.2,0.5
			c-0.2-0.1-0.5-0.2-0.8-0.2v0.1c-1.2,0.1-1.6,0.7-1.3,1.6c-0.1,0-0.3,0.1-0.5,0.2c0.4,1.1,0.8,2.2,1.3,3.3c0.2,0.5,0,0.8-0.5,1.2
			c-1.6-0.2-2.9-1.2-4-2.7c-1.2-1.7-2.1-3.5-2.8-5.5c0.4-0.6,1.1-0.6,1.9,0.1c0.7,0.6,1.4,0.9,2.2,1c-0.1,0.1-0.1,0.1,0,0.2
			c0,0.1,0.1,0.2,0.2,0.4c0.1,0.1,0.2,0.2,0.3,0.3c7.7-3.6,14.5-2.8,20.5,2.3c-0.6,0.2-1.2,0.4-1.8,0.5c0,0,0,0,0,0.1
			c-0.1,0.1-0.2,0.2-0.2,0.4c0,0.2,0.1,0.2,0.2,0.3c0.1,0.2,0.3,0.3,0.5,0.4c0.1,0,0.3,0,0.4-0.2c0.1,0,0.2-0.1,0.3-0.2
			c0.1-0.1,0.3-0.1,0.5-0.2c0.9,0,1.7,0.1,2.5,0.1c4,0.1,7.5,0.3,10.4,0.4c0.1,0.1,0.1,0.1,0.3,0.1c0,0,0,0,0.1,0c0,0,0,0,0.1,0
			c0,0,0,0,0-0.1h0.1c0.3,0,0.7,0,1.1,0c0-0.1-0.1-0.2-0.2-0.2c-0.2-0.1-0.4-0.2-0.5-0.2c0.7-0.8,1.5-1.5,2.5-2.3
			c3.9-2.9,8.5-4.4,13.9-4.5c-0.1-0.1-0.2-0.2-0.2-0.2c0.8-0.2,1-0.7,0.4-1.7c-0.1-0.2-0.1-0.4-0.1-0.6c0-0.5,0.2-0.8,0.5-1.1
			c0.4-0.2,0.8-0.4,1.2-0.6c0.7,0.6,1.3,1.3,1.9,2c1.4,2.1,1.9,4.4,1.6,7c0.1,0.5-0.2,0.9-0.8,1.1c-0.3,0-0.5,0.1-0.8,0.2
			c-0.6-0.3-1.1-0.7-1.2-1.3c-0.5-2.1-1.4-3-2.7-3c0,0.2,0,0.3,0,0.4C71.7,11.44,70.7,11.341,69.6,11.341z M30.2,16.141
			c0-0.3,0-0.6,0-1c0,0,0-0.2,0-0.3c-0.1-0.2-0.1-0.2-0.2-0.3c-0.8-0.6-1.6-0.9-2.4-1.2c3.1-0.4,6.1,0.3,8.9,2.1
			c-1.1-0.2-2.2-0.3-3.4-0.1c-0.7,0.3-1.5,0.5-2.4,0.7C30.5,16.141,30.4,16.141,30.2,16.141z M29.6,17.641l0.1-0.2
			c0-0.1,0.1-0.1,0.1-0.1c2.3-0.6,4.5-0.8,6.7-0.7c-1.8,0.7-3.4,1.5-4.9,2.5l0,0c-0.1-0.2-0.2-0.3-0.3-0.4c0-0.1-0.1-0.2-0.1-0.3
			c0-0.1,0.1-0.2,0.1-0.3c-0.1,0-0.3,0-0.4,0.1C30.5,17.94,30.1,17.741,29.6,17.641z"/>
		<path style="fill:#3172A1;" d="M78,37.141c-0.1,0.2-0.1,0.3,0,0.5c0-0.2,0-0.4,0.1-0.5C78,37.141,78,37.141,78,37.141z"/>
		<path style="fill:#3172A1;" d="M46.6,20.741c-0.2-0.1-0.4-0.1-0.5-0.3c-1.2-0.1-2.3-0.1-3.4-0.1c-0.4,0-0.9,0-1.4-0.1
			c-1,0.3-1.9,0.6-2.8,1.1c-1.9,1-3.4,2.7-4.3,4.9c-3,6.8-2.1,11.7,2.6,14.7c2,0.8,3.9,1.4,5.9,1.8c1.1-0.3,2.2-0.6,3.3-1
			c0.9-0.2,1.5-0.7,2.1-1.3c0.7,0.9,1.6,1.6,2.9,2c1.8,0.7,3.6,0.6,5.4-0.2c6.5-2.9,8.4-7.8,5.7-14.7c-1-1.2-2-2.3-3-3.4
			c-3.3-3-6.9-3.7-11-2.2C47.6,21.641,47.1,21.241,46.6,20.741z M50.4,23.041c3-0.2,5.7,0.7,7.9,2.6c0.2,0.3,0.4,0.5,0.6,0.8
			c4.1,5.7,3.5,10.6-1.8,14.6c-3.4,0.8-6.3,0.1-8.8-2.4c-3.3,2.8-6.9,3.3-10.8,1.4c-0.7-0.4-1.2-0.9-1.5-1.5
			c-3.7-7.5-1.7-13.1,5.8-16.8c2.2-0.6,4.1-0.1,5.6,1.3c0,0.4,0.1,0.7,0.3,1.1c0.1,0.2,0.3,0.5,0.6,0.6c0.6,0,1-0.3,1.2-0.8
			C49.7,23.641,50,23.241,50.4,23.041z"/>
		<path style="fill:#3172A1;" d="M47.1,32.241c0-0.1,0-0.2-0.1-0.4c-0.3-0.7-0.9-1-1.8-0.9c-0.4,0.1-0.6,0.3-0.7,0.8
			c-0.1,0.6,0.1,1.1,0.5,1.5c0.1,0.1,0.2,0.2,0.4,0.2C46.3,33.641,46.9,33.241,47.1,32.241z"/>
		<path style="fill:#3172A1;" d="M50.3,32.041c0.2,2,0.9,2.2,2,0.7c0-0.1,0-0.2,0-0.4c0-0.8-0.6-1.1-1.6-0.9
			C50.4,31.541,50.3,31.741,50.3,32.041z"/>
		<path style="fill:#3172A1;" d="M55.2,50.94c-1,0.6-1.9,1.5-2.7,2.6c-0.7,1.1-0.6,2,0.2,2.6c0.6-0.5,1.1-1,1.5-1.6
			c1-1.7,2.5-2.6,4.4-2.5c0-0.2,0-0.2,0-0.3C57.7,51.041,56.6,50.741,55.2,50.94z"/>
		<path d="M56,16.641c0,0.1,0,0.2,0.1,0.4c0-0.2,0.1-0.3,0.1-0.4l0,0c-0.1,0-0.1,0-0.1,0C56,16.641,56,16.641,56,16.641z"/>
		<path style="fill:#009659;" d="M56.2,16.641v-0.1C56.2,16.641,56.2,16.641,56.2,16.641L56.2,16.641z"/>
		<path d="M70.6,25.44c0.4,0.4,0.8,0.9,1.1,1.4l0.2-0.2C71.5,26.241,71,25.841,70.6,25.44z"/>
		<path d="M38.7,17.341L38.7,17.341c0,0,0-0.1-0.1-0.1L38.7,17.341z"/>
		<path style="fill:#3172A1;" d="M64.1,3.94c0-0.1,0-0.1-0.1-0.2c-5.1-3.1-11-4.3-17.8-3.5c-3,1-6.2,1.9-9.5,2.8
			c-0.9,0.3-1.4,0.8-1.7,1.6c0,0.2,0,0.4,0.1,0.7c0,0.1,0.1,0.3,0.2,0.4c0.2,0.1,0.3,0.2,0.4,0.4c0.1,0.1,0.2,0.2,0.4,0.3
			c0.1,0.2,0.2,0.3,0.4,0.4c0.1,0.2,0.2,0.3,0.3,0.4c3.6,0.5,7.2,1,10.8,1.4C54.8,9.541,60.3,8.041,64.1,3.94z M48.2,2.141
			c4.6,0.2,9.1,0.8,13.5,2c-8.1,2.7-16.3,3.1-24.7,1.1c0-0.1,0.1-0.2,0.3-0.3C40.8,3.541,44.5,2.541,48.2,2.141z"/>
	</g>
</g>
</svg>
