<?xml version="1.0" encoding="iso-8859-1"?>
<!-- Generator: Adobe Illustrator 12.0.1, SVG Export Plug-In . SVG Version: 6.00 Build 51448)  -->
<!DOCTYPE svg PUBLIC "-//W3C//DTD SVG 1.1//EN" "http://www.w3.org/Graphics/SVG/1.1/DTD/svg11.dtd" [
	<!ENTITY ns_svg "http://www.w3.org/2000/svg">
	<!ENTITY ns_xlink "http://www.w3.org/1999/xlink">
]>
<svg  version="1.1" id="Layer_1" xmlns="&ns_svg;" xmlns:xlink="&ns_xlink;" width="83.147" height="89.966"
	 viewBox="0 0 83.147 89.966" style="overflow:visible;enable-background:new 0 0 83.147 89.966;" xml:space="preserve">
<g>
	<path style="fill:#3172A1;" d="M83.147,80.066c-0.1,0.1-0.2,0.1-0.3,0.2c-2.3,0.6-4.5,1.3-6.7,2.1c1-0.6,1.9-1.3,2.9-2
		c1.7-1.6,2.7-3.5,3-5.7c0.2-1,0.1-2-0.1-3c-0.4-0.3-0.8-0.6-1.3-0.7c-4.4-0.9-8-1.7-11-2.3c-0.6,0.1-1.3,0.2-2,0.3
		c2.1-4,2.7-8.7,1.7-14.3c-0.5-2.5-1.2-4.7-2.4-6.8c-0.9-1.7-2-3.3-3.3-4.6c0-0.1,0-0.1,0.1-0.1c0-0.1-0.1-0.2-0.1-0.2
		c-0.1-0.1-0.2-0.1-0.2-0.2l0,0c0.2,0,0.6,0.1,1,0.2c-0.3-0.3-0.5-0.5-0.8-0.7c-0.2-0.3-0.5-0.5-0.7-0.8c0,0,0,0,0-0.1
		c-0.4,0-0.8-0.1-1.2-0.2c-0.3-0.6-0.6-1.1-0.8-1.7c1.5-0.6,2.8-1.1,4.1-1.5c0-0.1-0.1-0.2-0.1-0.3c-0.4-0.2-0.8-0.5-1-0.7
		c-0.1-0.1-0.2-0.2-0.3-0.2c0-0.1-0.1-0.1-0.1-0.2c-0.3-0.2-0.5-0.4-0.6-0.6c-0.3-0.3-0.5-0.7-0.8-1c0-0.1,0-0.2,0-0.4
		c0-0.4,0-0.8-0.1-1.1c0-0.1,0.1-0.2,0.1-0.2c0.8-0.4,1.5-0.8,1.9-1.2c0,0.1,0,0.2,0,0.3c0.1,1.2,0.6,2.2,1.7,3
		c0.6,0,1.1-0.1,1.6-0.2c0.2,0,0.3-0.1,0.4-0.2c0.4-0.4,0.8-0.9,0.9-1.4c0.3-1.9,0.7-3.8,1.1-5.7c0-0.5,0-1-0.1-1.5
		c0-1-0.3-1.9-0.9-2.7c-0.1-0.1-0.2-0.1-0.4-0.2c-0.5-0.1-1.2-0.2-1.7-0.3c-0.1,0.2-0.3,0.2-0.5,0.3c-0.1,0.1-0.2,0.2-0.4,0.4
		c-0.3,0.5-0.6,1-0.7,1.5c-0.4,0.6-0.7,1.2-1,1.8c-0.1,0.2-0.1,0.4,0,0.6c-1.8-0.9-3.7-1-5.9-0.6c-1.9,0.3-3.7,0.8-5.5,1.7
		c-1.9,0.8-3.2,2.1-4.1,3.8c0,0.2,0,0.3,0,0.4c-0.1,0.4,0,0.7,0,1.1c-0.1-0.1-0.3-0.2-0.4-0.3c-0.1,0.1-0.1,0.2-0.1,0.3
		c0,0.2,0,0.3,0,0.4c0,0.2,0,0.4,0,0.6c-3.2-1.2-6.6-1.7-10.1-1.4c-0.4,0.3-0.8,0.4-1.3,0.6c0-0.2,0-0.4,0-0.6c-0.2,0-0.3,0-0.4,0.1
		c0-0.2,0-0.4-0.1-0.6c0-0.4-0.3-0.7-0.6-1.1c-0.3-0.2-0.5-0.4-0.8-0.7c-4.6-4.4-10.2-5.6-16.6-3.6c-0.1-0.2-0.2-0.3-0.2-0.4
		c-1-1.5-2.4-2.3-4.3-2.4c0,0.1,0,0.1,0,0.1c-0.5,0.2-0.9,0.5-1.2,0.9c-0.2,0.3-0.4,0.5-0.5,0.8c0,0.1,0,0.2,0,0.3
		c0,0.2,0,0.3,0,0.4c0,0.7,0,1.3,0,1.9c0.1,0.9,0.2,1.8,0.5,2.6c0.1,0.2,0.2,0.3,0.3,0.4c0.2,0.3,0.4,0.5,0.5,0.8
		c0.7,1.6,1.9,2.8,3.5,3.7c0.9-0.1,1.8-0.2,2.7-0.4c0,0,0-0.1,0.1-0.1c1.1,0.3,2.2,0.4,3.4,0.2c0.1,0.1,0.2,0.1,0.3,0.2
		c-0.1,0.9-0.4,1.8-1,2.7c-0.2,0.2-0.4,0.4-0.6,0.6c0,0.1,0,0.1,0.1,0.1c-0.9,0.8-1.8,1.5-2.6,2c0.1,0.1,0.2,0.1,0.4,0.2
		c-4.3,4.4-6.5,10.2-6.8,17.5c0,1.6,0.1,3.3,0.4,4.9c-2.6-1.2-5.5-2-8.6-2.5c-0.8,0.1-1.5,0.1-2.3,0.1c-0.1,0-0.3,0-0.4,0
		c-0.2,0.2-0.4,0.3-0.6,0.4c-0.3,0.2-0.6,0.5-0.8,0.7c-0.5,1.9-0.6,3.9-0.2,6c1.2,6,3.6,10.4,7.4,13.2c-2,0.5-3.5,1.5-4.4,2.9
		c0.1,0.2,0.1,0.2,0.1,0.2c2.2-0.5,3.9-1.4,5-2.6c0.7,0.5,1.6,0.9,2.4,1.3c-1.8,0.5-3.1,1.4-4,2.8c0.2,0,0.3,0.1,0.4,0.1
		c2.9-0.7,4.4-1.5,4.6-2.4c1.1,0.3,2.2,0.6,3.4,0.9c-1.4,0.3-2.3,1-2.9,2.1c0.2,0.1,0.4,0.1,0.6,0.1c1.6-0.7,3.3-1.3,5-1.8
		c1.4,0.1,2.9,0.1,4.4,0.1c-1,0.7-2,1.4-3,2.2c3.5-0.9,7.2-2.3,11.3-4.1c1.9-0.9,3.1-1.7,3.6-2.6c1.2,0.2,2.3,0.3,3.5,0.4
		c-4.2,1.4-7.6,3.5-10.2,6.3c1.2,0.1,2.6-0.2,4-0.9c3.7-1.7,6.1-3.5,7.4-5.3c0.3,0,0.7,0,1,0.1c0.2,0,0.3,0,0.4,0
		c1.4-0.1,2.7-0.3,4.1-0.6c-3.5,1.5-6,3.6-7.4,6.5c0.2,0,0.4,0,0.6-0.1c3.4-2.5,7-4.9,10.8-7c0.4-0.1,0.7-0.1,1.1,0
		c0.2-0.1,0.5-0.2,0.8-0.2c-0.3,0.5-0.1,1,0.4,1.3c1.3,0.8,2.5,1.5,3.8,2c-1.9,0.8-3.5,1.8-4.7,3.2c0.8,0.6,1.7,0.6,2.9,0
		c1.9-1,3-1.8,3.3-2.6c1,0.4,2,0.7,3.1,1c-0.9,0.6-1.5,1.3-1.9,2.1c0.2,0.1,0.3,0.1,0.4,0.1c1.3-0.6,2.5-1.2,3.5-2
		c2.6,0.3,5.1,0.1,7.8-0.5c-1.9,0.9-3.7,2-5.4,3.2c3.1-1.2,6.4-2.4,9.9-3.6C78.047,83.866,81.247,82.066,83.147,80.066z
		 M79.547,72.566c0.7,0.8,0.8,1.6,0.1,2.5c-4.7,6.1-10.3,9.2-16.7,9.4c0.1-0.1,0.2-0.2,0.3-0.4c-0.2,0-0.4,0-0.6,0
		c-0.3,0.1-0.6,0.3-0.9,0.4c-3.2-0.1-6.7-1-10.3-2.5c0-0.1,0-0.2,0-0.3c3.3-5.1,7.7-8.3,13.4-9.5c0.1,0.1,0.3,0.2,0.4,0.3
		c0.2-0.2,0.3-0.4,0.4-0.5c2.4-0.5,4.9-0.6,7.6-0.4c1.9,0,3.8,0.2,5.6,0.6C79.147,72.266,79.347,72.366,79.547,72.566z
		 M34.547,34.066v0.1c-0.2,0.1-0.3,0.3-0.3,0.5c-0.1,0-0.2,0-0.2,0.1h-0.1c-0.1,0.1-0.2,0.2-0.3,0.3c-0.1,0.1-0.1,0.2-0.1,0.4
		c0,0.1,0,0.2,0.1,0.3c0.2,0.2,0.4,0.3,0.5,0.3c0.2,0.1,0.3,0,0.4-0.1c0.1,0,0.2-0.1,0.3-0.2c0.2-0.1,0.3-0.2,0.6-0.2
		c0.8,0,1.6,0,2.5,0.1c4,0.1,7.5,0.3,10.4,0.4c0.1,0,0.1,0,0.1,0l0,0h0.1h0.3c0.4,0,0.8,0,1.2,0c-0.1-0.1-0.1-0.2-0.2-0.2
		c-0.2-0.1-0.4-0.2-0.5-0.2c0-0.1,0.1-0.1,0.2-0.1c0-1.8,0.8-3.1,2.4-4c4.3-2.3,8.7-3.3,13.2-3c0-0.1,0-0.2,0-0.2
		c-0.1,0-0.2,0-0.2-0.1c0,0,0.1,0,0.2-0.1c0.2-0.2,0.3-0.5,0.4-0.7c0.2-1.8,1-2.6,2.4-2.5c0.1,0.6,0.2,1.2,0.2,1.9
		c0,0.2,0.1,0.5,0.3,0.7c-0.4,0.5-0.6,1-0.6,1.5c0,2.3-0.7,3.7-1.7,4.4c-0.6-0.3-1-0.8-0.9-1.5c0-0.8,0-1.5,0-2.3
		c-6.4-0.7-10.7,1.5-12.8,6.7h-0.1c0,0,0,0,0,0.1c-0.1,0-0.1,0-0.1,0c0,0.1,0,0.1,0,0.2c0,0.1,0,0.1,0,0.2c-0.1,0-0.1,0-0.1,0.1h0.1
		c-0.1,0-0.1,0-0.1,0.1c-0.2,0.1-0.4,0.3-0.6,0.4c2.1,0.6,4,1.4,5.9,2.3c0.4,0.2,0.7,0.3,1.1,0.4c0.5,0.4,1,0.8,1.5,1.2
		c0.5,1.1,1.4,1.8,2.5,1.9c0,0.1,0.1,0.2,0.2,0.3c0.4,0.7,1.1,1.5,1.7,2.3c0.1,0.1,0.1,0.2,0.1,0.3l-0.2,0.2
		c2.4,3.4,3.7,7.9,3.7,13.4c0,3.7-1.2,7.1-3.6,10c-5.4,1.5-9.8,4.7-13.1,9.5c0-0.1,0-0.2,0-0.3c-6.8,2.5-14.4,2.4-22.9-0.3
		c-3.3-5.8-7.7-10.1-13.3-12.9c-1.7-4.9-1.4-10,1-15.6c0.1-0.1,0.2-0.2,0.4-0.4c0.1-0.1,0.2-0.2,0.4-0.3c0-0.2,0.1-0.3,0.2-0.4
		c0-0.1,0-0.2,0-0.4c0-0.1,0-0.2,0.1-0.3c0-0.2,0.1-0.3,0.2-0.4c0.8-0.7,1.5-1.5,2.1-2.4c3-4.4,6.9-7.3,11.7-8.7v-0.1
		c0-0.2,0-0.3,0-0.5c0.1,0,0.2-0.2,0.3-0.3c0.1-0.1,0.2-0.2,0.2-0.2c0.1,0,0.1,0,0.2,0c0,0,0,0.1,0,0.2c0-0.1,0-0.2,0-0.3h0.1
		c0.1,0.1,0.3,0.1,0.5,0.2c-0.1-0.2-0.2-0.3-0.3-0.3c-0.1,0-0.1,0-0.1-0.1c0.1,0,0.1-0.1,0.1-0.3c0-0.7-0.2-1.2-0.6-1.7
		c-3.9-3.8-8.3-4.4-13.2-1.9c-0.2,0.8-0.2,1.6,0,2.3c0,0.4,0,0.9,0,1.5c-1.2-0.1-2.2-0.7-2.9-1.9c-0.4-0.6-0.8-1.2-1.2-1.7
		c-1-1.5-1.2-3-0.6-4.6c0.2,0,0.4-0.1,0.5-0.1c0.5,0.1,1,0.3,1.5,0.4c0.4,0.5,0.8,1,1.1,1.5s0.8,0.9,1.3,1c2.8-1.3,5.7-1.7,8.9-1.3
		c0.2,0.2,0.4,0.3,0.6,0.4c0.6,0.3,1.2,0.4,1.9,0.6c0.2,0.3,0.5,0.5,0.8,0.7c1.7,0.7,3.1,1.9,4.2,3.5
		C34.547,33.966,34.547,34.066,34.547,34.066z M49.047,35.366c0,0,0,0.1,0.1,0.2c-0.1-0.1-0.1-0.1-0.2-0.1
		C48.947,35.466,48.947,35.366,49.047,35.366z M61.147,35.566c0,0.1,0.1,0.2,0.2,0.2c-0.2,0-0.4,0-0.7,0c-2.1-0.2-4.3-0.3-6.5-0.4
		c-0.1,0-0.3,0.1-0.5,0.2c-0.1,0.1-0.3,0.2-0.4,0.3c2.6-2.6,5.8-4.1,9.4-4.6c-0.9,0.6-1.5,1.4-2,2.4c0.2,0.3,0.3,0.6,0.4,0.8
		C61.147,34.866,61.147,35.266,61.147,35.566z M61.847,36.666c0.1,0.2,0.2,0.3,0.3,0.4c-0.6,0.4-1.3,0.7-2,0.9
		c-0.1,0.2-0.2,0.5-0.4,0.6c-0.3,0.4-0.4,0.8-0.2,1.3c0,0.1,0.1,0.3,0.1,0.5c-0.5-0.3-1-0.5-1.5-0.8c-1.7-0.9-3.3-1.8-5-2.7
		C56.047,36.466,58.947,36.366,61.847,36.666z M20.947,32.566c0.3,0.3,0.7,0.5,1.1,0.8c0,0.1,0,0.2,0,0.2c-0.7,0.9-1.4,1.6-2.2,2.3
		c0.1-0.4,0.3-0.8,0.5-1.1c0.2-0.6,0.1-1.1-0.3-1.6c-0.1-0.1-0.1-0.1-0.1-0.2C20.347,32.866,20.647,32.666,20.947,32.566z
		 M22.947,32.766c-0.1-0.3-0.3-0.5-0.5-0.6c2.6-0.6,5.3-0.1,7.8,1.7c0.3,0.3,0.5,0.7,0.8,1.1c-1.7-0.8-3.5-1.1-5.4-1
		c-0.9,0.2-1.9,0.6-2.8,1.1c-0.1,0-0.2-0.1-0.3-0.1c0.5-0.2,0.7-0.6,0.7-1.1c-0.1-0.3-0.1-0.5-0.1-0.8
		C23.147,32.966,23.047,32.866,22.947,32.766z M30.547,35.266c-0.5,0.1-1,0.2-1.5,0.3c-1.6,0.5-3,1.1-4.3,1.9c0-0.3-0.1-0.5-0.2-0.7
		c0-0.1,0-0.1,0-0.1s0-0.1,0-0.2c0,0-0.1,0-0.1,0.1c-0.2-0.4-0.5-0.7-0.8-1C25.947,34.966,28.247,34.866,30.547,35.266z
		 M29.547,80.966c-0.1-0.1-0.1-0.2-0.2-0.4l0,0c0.7,0.2,1.4,0.4,2,0.7c0.1,0,0.2,0,0.3,0.1c-0.8,0.3-1.5,0.6-2.3,1
		C29.447,81.866,29.447,81.466,29.547,80.966z M26.947,80.566c0.3,0.8,0.3,1.3-0.3,1.5c-7.7,4.4-14.7,3.2-20.9-3.5
		c-4.5-4.9-5.3-9.8-2.6-14.7c3.7,0.6,7.3,1.9,10.9,3.7C19.947,70.466,24.247,74.766,26.947,80.566z"/>
	<path style="fill:#3172A1;" d="M40.047,38.466c-0.1-0.1-0.3-0.2-0.5-0.4c-1.6,0-3.2-0.1-4.7-0.1c-3.4,0.8-5.8,2.8-7.2,6
		c-3.8,8.6-1.2,14.3,7.7,16.8c1.3-0.5,2.7-0.9,4.2-1.3c0.8-0.2,1.5-0.7,2-1.4c0.7,1,1.7,1.7,2.9,2.1c1.9,0.6,3.7,0.6,5.5-0.2
		c6.5-3,8.4-7.9,5.6-14.8c-0.9-1.2-1.9-2.3-3-3.3c-3.2-3-6.9-3.8-11-2.3C41.147,39.266,40.647,38.866,40.047,38.466z M42.447,42.266
		c0.1-0.1,0.2-0.2,0.4-0.4c0,0,0,0,0.1,0c0-0.1,0-0.2,0.1-0.2l0,0c0,0,0,0,0.1,0c0.1-0.1,0.2-0.2,0.3-0.2c0-0.1-0.1-0.1-0.2-0.1
		c0.2-0.3,0.4-0.5,0.7-0.7c3-0.1,5.6,0.7,7.9,2.7c0.2,0.2,0.4,0.5,0.6,0.7c1.2,1.8,2,3.4,2.4,5c-0.2-0.2-0.3-0.3-0.4-0.5
		c0,0.3,0,0.6,0,0.8c0.1,0.2,0.3,0.3,0.5,0.4c0.1,0.5,0.1,1,0.1,1.4c-4.9,1.6-9.7,1.1-14.4-1.5c-0.1,0.3-0.2,0.6-0.1,0.9
		c-4.4,1.2-8.4,0.6-12.1-1.6l-0.7-0.2c4,4.4,8.3,5.1,12.9,2.3c0.3,0.7,1.4,1.3,3.1,1.9c4.6,1.5,8.3,1.3,11.2-0.7
		c-0.3,2.4-1.8,4.5-4.4,6.5c-3.4,0.8-6.3,0-8.7-2.4c-3.4,2.8-7,3.2-10.8,1.4c-0.8-0.4-1.3-0.9-1.6-1.5c-1.3-2.9-1.9-5.5-1.7-7.7
		c0.2-0.1,0.4-0.2,0.5-0.3c0-0.6,0.2-1.2,0.5-1.7c0-0.2,0-0.3,0-0.4c-0.3,0.3-0.5,0.7-0.8,1c0.3-1.1,0.8-2.2,1.5-3.2
		c0.7-0.9,1.6-1.8,2.7-2.6c0.9-0.7,2-1.3,3.2-1.9c2.2-0.7,4-0.2,5.6,1.2c0,0.3,0,0.6,0.1,0.8c-0.3,0-0.6,0-0.8,0
		c0.3,0.2,0.6,0.4,0.8,0.6c0.1,0,0.2,0,0.3,0c0.2,0.1,0.3,0.2,0.5,0.4C42.047,42.366,42.247,42.366,42.447,42.266z"/>
	<path style="fill:#3172A1;" d="M43.247,74.466c0-0.1,0-0.2,0-0.4c-0.1-2-0.9-3.7-2.3-5.2c-0.1,0-0.2,0-0.3,0
		c-1.9,1.2-3,2.9-3.5,5.1C39.147,75.166,41.147,75.466,43.247,74.466z M38.747,72.966c0.1,0,0.1,0,0.1,0.1c0.2,0.2,0.3,0.3,0.5,0.5
		c-0.2-0.1-0.4-0.2-0.7-0.4C38.747,73.166,38.747,73.066,38.747,72.966z M41.047,72.066c0,0,0,0,0.1,0c0,0,0,0,0,0.1
		C41.147,72.066,41.147,72.066,41.047,72.066z"/>
	<path style="fill:#3172A1;" d="M38.147,76.066c-0.4-0.1-0.8-0.4-1.2-0.6h-0.4c1.5,2.8,4.2,3.2,8.2,1.1c-1.2-1.2-3.4-1.3-6.5-0.4
		C38.247,76.166,38.147,76.166,38.147,76.066z"/>
	<path style="fill:#009659;" d="M48.847,36.066L48.847,36.066h-0.3H48.847z"/>
	<path d="M48.847,36.066h-0.3c0,0.1,0.1,0.3,0.1,0.5C48.747,36.366,48.747,36.266,48.847,36.066z"/>
	<path d="M31.247,36.766v0.1c0,0,0,0,0.1,0C31.247,36.866,31.247,36.766,31.247,36.766z"/>
	<path d="M64.347,46.366l0.2-0.2c-0.5-0.4-0.9-0.8-1.4-1.2C63.547,45.366,63.947,45.866,64.347,46.366z"/>
	<path style="fill:#3172A1;" d="M80.947,83.866c-0.1,0-0.2,0-0.3,0c-3.8,1-6.9,3.1-9.2,6.1c0.2,0,0.4,0,0.6-0.1
		C75.947,88.066,78.847,86.066,80.947,83.866z"/>
	<path style="fill:#3172A1;" d="M40.647,0.066c-1.4,0.3-2.9,0.8-4.4,1.4c-2.9,1.4-5.5,3.3-7.5,5.9c-0.2,0.7-0.3,1.5-0.4,2.2
		c-0.3,8.3,3.9,12.5,12.6,12.6c0.1,2.3,0.2,4.6,0.3,6.8c0.1,1.7,0.8,2.6,1.9,2.6c0.7-1.9,1.3-3.9,1.7-6c0.2-1,0.7-1.9,1.4-2.6
		c0-0.1,0-0.2,0-0.4c0-0.1,0-0.2,0.1-0.4c0-0.1,0-0.2,0.1-0.3c0.2-0.3,0.5-0.5,0.8-0.6c2-0.9,3.7-2.1,5.1-3.6
		c4.3-4.7,4.7-9.6,1.4-15c-0.2,0-0.4-0.1-0.6-0.2C49.347,0.466,45.247-0.234,40.647,0.066z M54.447,6.866c0,0.6,0,1.2,0,1.8
		c0.1,5.9-2.9,9.7-8.9,11.3c-0.1,0.1-0.1,0.2-0.1,0.4c-0.2,0.3-0.3,0.7-0.4,1.1c0,0.1,0,0.2,0,0.4c-0.1,0.1-0.1,0.2-0.1,0.3
		c-0.2,0.2-0.3,0.3-0.4,0.4c-0.2,0.2-0.3,0.3-0.4,0.4c0,0.2-0.1,0.5-0.2,0.7c-0.3,0.9-0.5,1.8-0.8,2.7c-0.1,0.5-0.2,1-0.2,1.6
		c0-1.5,0-3-0.2-4.4c-0.2-1-0.3-2-0.5-3c-1.7-0.5-3.6-0.8-5.6-1c-2.9-0.2-4.8-1.6-5.6-4.1c-2.5-7.6,0.9-12.2,10.1-13.6
		C46.647,1.066,51.047,2.766,54.447,6.866z"/>
	<path style="fill:#3172A1;" d="M42.547,9.966l-0.1,0.1c-1.9,1.1-3.6,2.4-5.2,3.9c-0.1,0.2-0.3,0.4-0.3,0.6
		c3.9,1.6,7.4,1.7,10.6,0.4c-0.1-0.6-0.3-0.9-0.9-1c-2.5-0.5-4.4-0.8-5.5-0.9c1.9-1.2,3.5-2.5,5.1-3.9c0.1-0.2,0.2-0.3,0.2-0.6
		c-0.1-0.1-0.1-0.2-0.2-0.2c-2.3-0.2-4.7-0.3-7.1-0.4c-0.6-0.1-1.3,0.1-1.9,0.5c-0.2,0-0.3,0.1-0.3,0.2
		C38.147,9.966,40.047,10.366,42.547,9.966z"/>
	<path style="fill:#3172A1;" d="M34.947,16.866c-0.2-0.2-0.3-0.3-0.4-0.5c0,0.1-0.1,0.2-0.1,0.3
		C34.547,16.766,34.747,16.766,34.947,16.866z"/>
	<path style="fill:#3172A1;" d="M49.847,15.866c-0.1,0.1-0.2,0.2-0.2,0.2c0.1,0,0.2-0.1,0.4-0.1
		C49.947,15.966,49.947,15.966,49.847,15.866z"/>
	<path style="fill:#3172A1;" d="M5.647,89.166c-0.2,0-0.4-0.1-0.7-0.1c0,0-0.1,0.1-0.2,0.1c0.1,0.2,0.1,0.2,0.1,0.2
		C5.147,89.366,5.447,89.266,5.647,89.166z"/>
	<path style="fill:#3172A1;" d="M50.647,82.866L50.647,82.866c-2.7,1-5,2.5-7,4.5c1,0.4,2,0.3,3.2-0.3
		C49.847,85.566,51.147,84.066,50.647,82.866z"/>
</g>
</svg>
