<?xml version="1.0" encoding="iso-8859-1"?>
<!-- Generator: Adobe Illustrator 12.0.1, SVG Export Plug-In . SVG Version: 6.00 Build 51448)  -->
<!DOCTYPE svg PUBLIC "-//W3C//DTD SVG 1.1//EN" "http://www.w3.org/Graphics/SVG/1.1/DTD/svg11.dtd" [
	<!ENTITY ns_svg "http://www.w3.org/2000/svg">
	<!ENTITY ns_xlink "http://www.w3.org/1999/xlink">
]>
<svg  version="1.1" id="Layer_1" xmlns="&ns_svg;" xmlns:xlink="&ns_xlink;" width="83.147" height="91.966"
	 viewBox="0 0 83.147 91.966" style="overflow:visible;enable-background:new 0 0 83.147 91.966;" xml:space="preserve">
<g>
	<path style="fill:#3172A1;" d="M83.147,82.066c-0.1,0.1-0.2,0.1-0.3,0.2c-2.3,0.6-4.5,1.3-6.7,2.1c1-0.6,1.9-1.3,2.9-2
		c1.7-1.6,2.7-3.5,3-5.7c0.2-1,0.1-2-0.1-3c-0.4-0.3-0.8-0.6-1.3-0.7c-4.4-0.9-8-1.7-11-2.3c-0.6,0.1-1.3,0.2-2,0.3
		c2.1-4,2.7-8.7,1.7-14.3c-0.1-0.1-0.1-0.2-0.1-0.3c0.1,0,0.1,0,0.2,0.1c-0.3-1.4-0.6-2.7-1-4.1c-0.4-1.6-0.8-3.3-1.3-4.9
		c-0.1-0.1-0.3-0.3-0.4-0.4c-0.2-0.4-0.4-0.7-0.6-1c0.6,0,1.2-0.1,1.8-0.2c0.5-0.5,1-1,1.5-1.5c0.6-0.6,1.2-1.3,1.8-1.9
		c0-0.8,0-1.5,0-2.3c0-0.2,0-0.5-0.1-0.7c-0.3-0.3-0.6-0.5-0.9-0.8c-0.1-0.1-0.2-0.2-0.3-0.3c-0.8-0.1-1.5-0.1-2.3-0.2
		c-0.1,0-0.2,0-0.4-0.1c0-0.1-0.1-0.2-0.1-0.3c-2.7-4-6.5-6-11.5-6.1v0.2c-2.8,0-4.9,0.9-6.2,2.8c-1.6-1.2-3.3-1.7-5.3-1.5
		c-2.8,0.1-5.6,0.2-8.5,0.2c-0.2,0-0.5,0.1-0.6,0.2c-0.1-0.2-0.2-0.3-0.3-0.4c-0.1-0.1-0.2-0.2-0.4-0.3c-2.2-1.8-4.7-2.5-7.7-2.3
		c-0.1,0.1-0.4,0.1-0.5,0.2c-4.2,0.7-7.5,2.9-9.7,6.4c-0.1,0.1-0.1,0.2-0.2,0.2c-1.3-0.1-2.6-0.1-4-0.2c-0.1,0.2-0.3,0.3-0.5,0.4
		c-0.3,0.3-0.7,0.5-0.9,0.8c-0.1,0.1-0.3,0.2-0.3,0.3c0,0.2,0,0.3,0,0.4c0,0.3,0,0.5,0,0.8c0,0.1,0,0.2,0,0.3c0,0.2,0,0.3,0,0.4
		c0.4,0.4,0.7,0.7,0.9,1.2c1.6,3.1,3.6,4.5,6.2,4.2c-0.1,0-0.1,0.1-0.1,0.1c-0.3,1.3-0.8,2.5-1.5,3.7c-0.6,0.8-0.9,1.6-1.1,2.4
		c-0.1-0.1-0.2-0.1-0.2-0.2c-1.2,3-1.8,6.3-2,10c0,1.6,0.1,3.3,0.4,4.9c-2.6-1.2-5.5-2-8.6-2.5c-0.8,0.1-1.5,0.1-2.3,0.1
		c-0.1,0-0.3,0-0.4,0c-0.2,0.2-0.4,0.3-0.6,0.4c-0.3,0.2-0.6,0.5-0.8,0.7c-0.5,1.9-0.6,3.9-0.2,6c1.2,6,3.6,10.4,7.4,13.2
		c-2,0.5-3.5,1.5-4.4,2.9c0.1,0.2,0.1,0.2,0.1,0.2c2.2-0.5,3.9-1.4,5-2.6c0.7,0.5,1.6,0.9,2.4,1.3c-1.8,0.5-3.1,1.4-4,2.8
		c0.2,0,0.3,0.1,0.4,0.1c2.9-0.7,4.4-1.5,4.6-2.4c1.1,0.3,2.2,0.6,3.4,0.9c-1.4,0.3-2.3,1-2.9,2.1c0.2,0.1,0.4,0.1,0.6,0.1
		c1.6-0.7,3.3-1.3,5-1.8c1.4,0.1,2.9,0.1,4.4,0.1c-1,0.7-2,1.4-3,2.2c3.5-0.9,7.2-2.3,11.3-4.1c1.9-0.9,3.1-1.7,3.6-2.6
		c1.2,0.2,2.3,0.3,3.5,0.4c-4.2,1.4-7.6,3.5-10.2,6.3c1.2,0.1,2.6-0.2,4-0.9c3.7-1.7,6.1-3.5,7.4-5.3c0.3,0,0.7,0,1,0.1
		c0.2,0,0.3,0,0.4,0c1.4-0.1,2.7-0.3,4.1-0.6c-3.5,1.5-6,3.6-7.4,6.5c0.2,0,0.4,0,0.6-0.1c3.4-2.5,7-4.9,10.8-7
		c0.4-0.1,0.7-0.1,1.1,0c0.2-0.1,0.5-0.2,0.8-0.2c-0.3,0.5-0.1,1,0.4,1.3c1.3,0.8,2.5,1.5,3.8,2c-1.9,0.8-3.5,1.8-4.7,3.2
		c0.8,0.6,1.7,0.6,2.9,0c1.9-1,3-1.8,3.3-2.6c1,0.4,2,0.7,3.1,1c-0.9,0.6-1.5,1.3-1.9,2.1c0.2,0.1,0.3,0.1,0.4,0.1
		c1.3-0.6,2.5-1.2,3.5-2c2.6,0.3,5.1,0.1,7.8-0.5c-1.9,0.9-3.7,2-5.4,3.2c3.1-1.2,6.4-2.4,9.9-3.6
		C78.047,85.866,81.247,84.066,83.147,82.066z M79.547,74.566c0.7,0.8,0.8,1.6,0.1,2.5c-4.7,6.1-10.3,9.2-16.7,9.4
		c0.1-0.1,0.2-0.2,0.3-0.4c-0.2,0-0.4,0-0.6,0c-0.3,0.1-0.6,0.3-0.9,0.4c-3.2-0.1-6.7-1-10.3-2.5c0-0.1,0-0.2,0-0.3
		c3.3-5.1,7.7-8.3,13.4-9.5c0.1,0.1,0.3,0.2,0.4,0.3c0.2-0.2,0.3-0.4,0.4-0.5c2.4-0.5,4.9-0.6,7.6-0.4c1.9,0,3.8,0.2,5.6,0.6
		C79.147,74.266,79.347,74.366,79.547,74.566z M34.247,34.266c-0.1,0-0.1,0-0.1,0.1c0.1,0,0.2,0,0.3,0c0.3,0.2,0.6,0.4,1,0.6
		c-0.1-0.1-0.1-0.2-0.1-0.3c-0.1-0.1-0.1-0.2-0.1-0.3c4.9,0,9.6,0.2,14,0.7c0.1,0.8,0.4,0.8,0.9,0.2c0.2-0.3,0.4-0.6,0.6-0.8
		c6.8-2.7,12.2-0.9,16,5.4c0.8,0.1,1.5,0.1,2.3,0.2c0.4,0,0.7,0.2,1,0.6c0.1,0.5,0,0.8-0.3,1.1c-1.4,1.4-2.7,2.6-4,3.6
		c-0.6-0.8-1.2-1.6-1.8-2.4c0.1-0.1,0.2-0.2,0.3-0.3c0.3-0.4,0.4-0.8,0.6-1.3c0.1-0.1,0.1-0.2,0.1-0.3c0.1,0,0.2,0,0.2,0
		s0.2-0.1,0.3-0.1c-0.1-0.1-0.1-0.2-0.2-0.2c-0.1-0.1-0.1-0.1-0.1-0.1v-0.1c-0.5-0.8-1-1.5-1.7-2.2c-1.1-1.1-2.3-2.1-3.5-3
		c-0.9-0.1-1.8-0.2-2.7-0.3c-0.6-0.1-1-0.2-1.6-0.4c-0.1,0.1-0.3,0.2-0.5,0.1c-1,0-1.8,0.2-2.4,0.8c-0.2-0.1-0.4-0.2-0.6-0.2
		c-0.3,0-0.4,0.1-0.3,0.2c0.2,0.1,0.4,0.2,0.6,0.3c-0.2,0.1-0.3,0.3-0.4,0.5c0.3-0.1,0.6-0.1,1-0.2c5.3,3.1,9.6,7.1,12.9,12.3
		c0.4,1.2,0.7,2.5,0.9,3.8c0,0.3,0.1,0.6,0.2,0.9c-0.1,0-0.2,0-0.3,0c0.9,2.5,1.3,5.3,1.3,8.6c0,3.7-1.2,7.1-3.6,10
		c-5.4,1.5-9.8,4.7-13.1,9.5c0-0.1,0-0.2,0-0.3c-6.8,2.5-14.4,2.4-22.9-0.3c-3.3-5.8-7.7-10.1-13.3-12.9c-1.6-4.5-1.4-9.5,0.6-14.6
		c0.5-0.8,1-1.6,1.6-2.5c0.7-1.2,1.2-2.5,1.6-3.8c0.3-0.5,0.7-0.9,1-1.3c3-4.5,7.1-7.6,12.3-9.5l0.1-0.2c-0.4-0.1-0.7-0.2-1-0.3
		c0-0.1-0.1-0.1-0.1-0.1c-1.9-0.7-3.9-0.9-6.1-0.6c-1.3,0.3-2.5,1-3.6,1.9c-1,0.9-1.8,1.7-2.4,2.7c0.8,0.8,1.7,1.4,2.7,1.8
		c-1.4,1.3-2.6,2.6-3.7,4.1c-1-0.3-2-0.8-2.8-1.4c-1.5-1.1-2.7-2.5-3.6-4.3c0.1-0.1,0.1-0.2,0.2-0.2c0.4-0.3,0.8-0.4,1.2-0.6
		c0.3,0,0.6-0.1,0.9-0.2c0.1,0.1,0.2,0.2,0.3,0.2c0.9,0.4,1.8,0.6,2.8,0.6c0.1,0.1,0.2,0,0.4,0c0.1-0.1,0.1-0.2,0.2-0.3
		c0-0.1,0.1-0.2,0.1-0.3c0.1-0.2,0.1-0.3,0.1-0.4s0-0.2,0-0.4c0.2-0.2,0.4-0.5,0.7-0.8C23.247,32.066,28.447,31.066,34.247,34.266z
		 M62.447,39.366c-0.3,0-0.5,0-0.8,0c-0.1,0-0.2,0.1-0.3,0.1c-0.2,0.2-0.4,0.4-0.5,0.5c-1.9-1.6-4.2-2.9-6.7-3.9
		C57.547,35.866,60.247,36.966,62.447,39.366z M63.047,40.466c0.1,0.1,0.1,0.2,0.3,0.2c0.1,0.1,0.2,0.2,0.3,0.3
		c-0.1,0.4-0.3,0.7-0.7,1c-0.3-0.4-0.7-0.7-1-1.1c0,0,0.1-0.1,0.2-0.1C62.347,40.566,62.647,40.466,63.047,40.466z M21.247,38.866
		c0.3-0.3,0.5-0.5,0.8-0.8c1.3-1.3,2.9-2,4.6-2.1c-0.5,0.3-1,0.5-1.5,0.8c-1.2,0.7-2.2,1.5-2.9,2.7c-0.1,0.6,0,1,0.4,1.1
		c-0.1,0-0.1,0.1-0.2,0.1c-0.3-0.3-0.6-0.7-0.9-1.1C21.447,39.266,21.347,39.066,21.247,38.866z M24.047,38.566c1.2-1,2.5-1.6,4-2.1
		c-0.1,0-0.1,0-0.1,0.1c-1.7,1-3.2,2.2-4.7,3.4C23.147,39.466,23.347,38.966,24.047,38.566z M29.547,82.966
		c-0.1-0.1-0.1-0.2-0.2-0.4l0,0c0.7,0.2,1.4,0.4,2,0.7c0.1,0,0.2,0,0.3,0.1c-0.8,0.3-1.5,0.6-2.3,1
		C29.447,83.866,29.447,83.466,29.547,82.966z M26.947,82.566c0.3,0.8,0.3,1.3-0.3,1.5c-7.7,4.4-14.7,3.2-20.9-3.5
		c-4.5-4.9-5.3-9.8-2.6-14.7c3.7,0.6,7.3,1.9,10.9,3.7C19.947,72.466,24.247,76.766,26.947,82.566z"/>
	<path style="fill:#3172A1;" d="M40.047,36.966c-0.1-0.1-0.3-0.2-0.5-0.4c-1.6,0-3.2-0.1-4.7-0.1c-3.4,0.8-5.8,2.8-7.2,6
		c-3.8,8.6-1.2,14.2,7.7,16.8c1.3-0.5,2.7-0.9,4.2-1.3c0.8-0.3,1.5-0.7,2-1.4c0.7,1,1.7,1.7,2.9,2.1c1.9,0.6,3.7,0.6,5.5-0.2
		c6.5-3,8.4-7.9,5.6-14.8c-0.9-1.2-1.9-2.3-3-3.3c-3.2-3-6.9-3.8-11-2.3C41.147,37.766,40.647,37.366,40.047,36.966z M41.047,40.566
		c0.1,0,0.2,0,0.3,0c0.2,0.1,0.3,0.2,0.5,0.4c0.2-0.1,0.4-0.1,0.6-0.2c0.1-0.1,0.2-0.2,0.4-0.4c0,0,0,0,0.1,0c0-0.1,0-0.2,0.1-0.2
		l0,0c0,0,0,0,0.1,0c0.1-0.1,0.2-0.2,0.3-0.2c0-0.1-0.1-0.1-0.2-0.1c0.2-0.3,0.4-0.5,0.7-0.7c3-0.1,5.6,0.7,7.9,2.7
		c0.2,0.2,0.4,0.5,0.6,0.7c1.2,1.8,2,3.4,2.4,5c-0.2-0.2-0.3-0.3-0.4-0.5c0,0.3,0,0.6,0,0.8c0.1,0.2,0.3,0.3,0.5,0.4
		c0.1,0.5,0.1,1,0.1,1.4c-4.9,1.6-9.7,1.1-14.4-1.5c-0.1,0.3-0.2,0.6-0.1,0.9c-4.4,1.2-8.4,0.6-12.1-1.6l-0.7-0.2
		c4,4.4,8.3,5.1,12.9,2.3c0.3,0.7,1.4,1.3,3.1,1.9c4.6,1.5,8.3,1.3,11.2-0.7c-0.3,2.4-1.8,4.5-4.4,6.4c-3.4,0.9-6.3,0.1-8.7-2.3
		c-3.4,2.8-7,3.2-10.8,1.3c-0.8-0.3-1.3-0.8-1.6-1.5c-1.3-2.8-1.9-5.4-1.7-7.6c0.2-0.1,0.4-0.2,0.5-0.3c0-0.6,0.2-1.2,0.5-1.7
		c0-0.2,0-0.3,0-0.4c-0.3,0.3-0.5,0.7-0.8,1c0.3-1.1,0.8-2.2,1.5-3.2c0.7-0.9,1.6-1.8,2.7-2.6c0.9-0.7,2-1.3,3.2-1.9
		c2.2-0.7,4-0.2,5.6,1.2c0,0.3,0,0.6,0.1,0.8c-0.3,0-0.6,0-0.8,0C40.547,40.166,40.847,40.366,41.047,40.566z"/>
	<path style="fill:#3172A1;" d="M32.447,73.566c0.1,0.2,0.2,0.3,0.4,0.3c0.3,0.3,0.7,0.5,1,0.8c0.2,0.1,0.3,0.2,0.4,0.3
		c5.3,1.1,10.1,0.8,14.7-1c0-0.1,0-0.2,0-0.4c0.6-7.4-2.6-11.6-9.8-12.5c-1.6,0.4-3,1.2-4.2,2.3
		C32.047,66.266,31.147,69.666,32.447,73.566z M37.047,69.566c-0.2,0.2-0.3,0.3-0.3,0.4c-0.3,0.7-0.6,1.3-1,1.9
		c0,0.1-0.1,0.2-0.2,0.3c0,0.2,0,0.3,0,0.4c0,0.2,0,0.3,0.1,0.5c-0.6-0.2-1.2-0.5-1.7-0.7c0-0.7-0.1-1.3-0.2-1.9
		c0-0.4-0.2-0.8-0.3-1.1c0.3-0.5,0.4-1,0.4-1.5c0.1-0.3,0.1-0.5,0.1-0.8c0.1-0.1,0.2-0.2,0.3-0.4c1.3-2,3.2-3.3,5.4-3.8
		c5.6,0.9,8.1,4.3,7.6,10.1c-0.3,0.1-0.7,0.2-1,0.3c-0.3-1.2-0.8-2.3-1.7-3.2c-0.2-0.3-0.5-0.6-0.9-0.9c-0.2-0.1-0.5-0.1-0.8-0.2
		c-1.4-0.1-2.8-0.2-4.2-0.3c-0.1,0.1-0.2,0.1-0.4,0.2c-0.2,0.1-0.4,0.2-0.6,0.3C37.447,69.366,37.247,69.466,37.047,69.566z
		 M38.647,70.366c1.1-0.2,2.2-0.2,3.4-0.3c1.4,0.7,2.3,1.8,2.8,3.3c0,0,0,0.1,0.1,0.2c-3,0.6-5.8,0.5-8.4-0.2
		c0.4-0.8,0.9-1.6,1.3-2.4c0.1-0.1,0.2-0.2,0.3-0.4C38.347,70.466,38.547,70.366,38.647,70.366z"/>
	<path style="fill:#3172A1;" d="M44.747,78.566c-0.1-0.1-0.2-0.1-0.3-0.2c-0.2,0.2-0.4,0.4-0.5,0.6c-0.1,0-0.1,0-0.1,0.1
		C44.147,78.966,44.447,78.766,44.747,78.566z"/>
	<path style="fill:#3172A1;" d="M80.947,85.866c-0.1,0-0.2,0-0.3,0c-3.8,1-6.9,3.1-9.2,6.1c0.2,0,0.4,0,0.6-0.1
		C75.947,90.066,78.847,88.066,80.947,85.866z"/>
	<path style="fill:#3172A1;" d="M40.647,0.066c-1.4,0.3-2.9,0.8-4.4,1.4c-2.9,1.4-5.5,3.3-7.5,5.9c-0.2,0.7-0.3,1.5-0.4,2.2
		c-0.3,8.3,3.9,12.5,12.6,12.6c0.1,2.3,0.2,4.6,0.3,6.8c0.1,1.7,0.8,2.6,1.9,2.6c0.7-1.9,1.3-3.9,1.7-6c0.2-1,0.7-1.9,1.4-2.6
		c0-0.1,0-0.2,0-0.4c0-0.1,0-0.2,0.1-0.4c0-0.1,0-0.2,0.1-0.3c0.2-0.3,0.5-0.5,0.8-0.6c2-0.9,3.7-2.1,5.1-3.6
		c4.3-4.7,4.7-9.6,1.4-15c-0.2,0-0.4-0.1-0.6-0.2C49.347,0.466,45.247-0.234,40.647,0.066z M54.447,6.866c0,0.6,0,1.2,0,1.8
		c0.1,5.9-2.9,9.6-8.9,11.3c-0.1,0.1-0.1,0.2-0.1,0.4c-0.2,0.3-0.3,0.7-0.4,1.1c0,0.1,0,0.2,0,0.4c-0.1,0.1-0.1,0.2-0.1,0.3
		c-0.2,0.2-0.3,0.3-0.4,0.4c-0.2,0.2-0.3,0.3-0.4,0.4c0,0.2-0.1,0.5-0.2,0.7c-0.3,0.9-0.5,1.8-0.8,2.7c-0.1,0.5-0.2,1-0.2,1.6
		c0-1.5,0-3-0.2-4.4c-0.2-1-0.3-2-0.5-3c-1.7-0.5-3.6-0.8-5.6-1c-2.9-0.2-4.8-1.6-5.6-4.1c-2.5-7.6,0.9-12.2,10.1-13.6
		C46.647,1.066,51.047,2.766,54.447,6.866z"/>
	<path style="fill:#3172A1;" d="M47.947,6.466c-0.1-0.1-0.1-0.2-0.2-0.2c-2.3-0.3-4.7-0.5-7.1-0.7c-2.1,0-4,0.6-5.7,1.8
		c0,0,0,0.1,0,0.2c4,0.1,6.8,0.1,8.3,0.1c-1.7,1.7-3.5,3.3-5.4,4.9c-1.5,1.2-2.6,2.6-3.4,4.1c4.8,1.4,10,1.1,15.6-0.7
		c-4.3-1.1-8.5-1.4-12.6-0.9c1.6-1.3,3.3-2.7,4.9-4.1C44.247,9.366,46.047,7.866,47.947,6.466z"/>
	<path style="fill:#3172A1;" d="M5.647,91.166c-0.2,0-0.4-0.1-0.7-0.1c0,0-0.1,0.1-0.2,0.1c0.1,0.2,0.1,0.2,0.1,0.2
		C5.147,91.366,5.447,91.266,5.647,91.166z"/>
	<path style="fill:#3172A1;" d="M50.647,84.866L50.647,84.866c-2.7,1-5,2.5-7,4.5c1,0.4,2,0.3,3.2-0.3
		C49.847,87.566,51.147,86.066,50.647,84.866z"/>
</g>
</svg>
