<?xml version="1.0" encoding="iso-8859-1"?>
<!-- Generator: Adobe Illustrator 12.0.1, SVG Export Plug-In . SVG Version: 6.00 Build 51448)  -->
<!DOCTYPE svg PUBLIC "-//W3C//DTD SVG 1.1//EN" "http://www.w3.org/Graphics/SVG/1.1/DTD/svg11.dtd" [
	<!ENTITY ns_svg "http://www.w3.org/2000/svg">
	<!ENTITY ns_xlink "http://www.w3.org/1999/xlink">
]>
<svg  version="1.1" id="Layer_1" xmlns="&ns_svg;" xmlns:xlink="&ns_xlink;" width="82.8" height="89.331"
	 viewBox="0 0 82.8 89.331" style="overflow:visible;enable-background:new 0 0 82.8 89.331;" xml:space="preserve">
<g>
	<path style="fill:#3172A1;" d="M80.5,85.5c-3.1,0.5-5.8,1.7-8.2,3.4c0.2,0.1,0.4,0.1,0.6,0c2.9-1.1,5.9-2.1,8.9-3
		c-0.1-0.1-0.2-0.1-0.2-0.2c-0.4-0.1-0.7-0.2-1.1-0.3V85.5z"/>
	<path style="fill:#3172A1;" d="M80.1,85c0.1-0.1,0.2-0.2,0.3-0.2c0.2-0.2,0.5-0.4,0.7-0.7c0.6-0.1,1.1-0.1,1.7-0.2
		c-0.1-0.1-0.1-0.1-0.2-0.1c-0.3-0.1-0.7-0.1-1.1-0.2c0.3-0.3,0.4-0.7,0.5-1.1c-5.9-3.6-12.3-5.7-19.2-6.3c1.7-0.8,3.2-1.9,4.6-3.3
		c0-0.3,0-0.5,0-0.8c0-0.1,0-0.2,0-0.3c0-0.2,0-0.3,0-0.4s0-0.2,0-0.4c-0.2-0.3-0.4-0.7-0.4-1.1c-0.1-0.1-0.3-0.2-0.5-0.4
		c-0.1-0.1-0.2-0.2-0.4-0.4c-0.1-0.1-0.2-0.2-0.3-0.3c-0.9-0.1-1.8-0.3-2.6-0.5c-0.2-0.1-0.3-0.1-0.4-0.1c3.9-4.6,5.1-10.5,3.9-17.6
		c-0.5-2.5-1.2-4.7-2.4-6.8c-0.8-1.4-1.8-2.8-2.8-4c-0.2-0.4-0.5-0.8-0.7-1.1c0.2,0,0.6,0.1,1,0.2c-0.3-0.3-0.5-0.5-0.8-0.7
		c0-0.1-0.1-0.1-0.1-0.2c-0.1-0.7-0.5-1.4-1.3-1.9c0-0.1,0-0.2-0.1-0.3c-0.1-0.7-0.4-1.3-0.6-1.9c0.3-2.6,1.1-5,2.6-7.1
		c-2.4-1.2-4.1-2.9-5.1-5c0-0.2,0-0.3,0-0.4c-0.1-1.1,0-2.2,0.3-3.3c0.2-0.2,0.3-0.3,0.6-0.6c1.6,1.1,3.4,1.5,5.2,1.3
		c0.3-0.3,0.5-0.5,0.7-0.8c0.2-0.2,0.4-0.5,0.6-0.7c0-0.2,0-0.3,0-0.4c-0.3-5.3-3.1-8.4-8.8-9.4c-0.1,0.1-0.3,0.2-0.5,0.3
		C54.3,8,54,8.3,53.8,8.5c0,0.9,0.1,1.7,0.2,2.6c0.2,0.7,0.3,1.5,0.4,2.3c-1.5,1.4-2.7,3-3.9,4.6c-2.4,3.6-4.1,7.3-4.9,11.2
		c-0.1,0-0.1,0-0.1-0.1c0,0.2,0,0.4,0,0.5c-0.1,0.5-0.2,0.9-0.3,1.4c-3.1-1.2-6.4-1.6-9.9-1.3c-0.4,0.3-0.7,0.4-1.2,0.5
		c0,0,0-0.1,0-0.2c-1.7-7.2-5.7-12.9-12.1-17l-0.3,0.1c3.3,3.4,6,7.3,8,11.7c0.9,2,2,3.5,3.1,4.6c-0.2,0.2-0.4,0.4-0.6,0.6
		c0,0.1,0.1,0.2,0.2,0.3c-0.2,0-0.4,0-0.6,0.1c-0.2,0-0.3,0.1-0.5,0.3c-0.1,0.1-0.2,0.2-0.3,0.3c-0.1,0.1-0.1,0.2-0.1,0.4
		c0,0.1,0,0.2,0.1,0.3c0.2,0.2,0.4,0.3,0.5,0.3c0.2,0.1,0.3,0,0.4-0.1c0.1,0,0.2-0.1,0.3-0.2c0.2-0.1,0.3-0.2,0.6-0.2
		c0.8,0,1.6,0,2.5,0.1c4.1,0.1,7.6,0.3,10.6,0.4h0.3c0.4,0,0.8,0,1.2,0c-0.1-0.1-0.1-0.2-0.2-0.2c-0.3-0.2-0.6-0.3-0.9-0.4
		c0.1-0.3,0.2-0.6,0.3-0.8c0.2-0.3,0.3-0.7,0.5-1.1c0.6-2.1,1.3-4.3,2-6.5c0.7-0.5,1.2-1,1.6-1.5c1.8-2.7,3.7-5.5,5.6-8.2
		c-0.2-0.7-0.4-1.3-0.8-1.8c-0.3-0.6-0.4-1.2-0.2-2c2.1,0.3,3.9,1.2,5.5,2.6c0.2,0.8,0.6,1.5,1.1,2.2c0.4,0.7,0.5,1.5,0.2,2.3
		c-0.1,0.2-0.2,0.2-0.3,0.2c-1.9-0.5-3.8-0.7-5.5-0.8c-0.6,0.7-1.3,1.3-1.9,1.9c-2.7,2.9-4.2,6.1-4.5,9.7c-0.5,0.9-0.8,1.9-0.8,3
		c-0.1,1,0,1.7,0.5,2.2c-0.1,0.1-0.1,0.1-0.1,0.2c-0.2,0.1-0.4,0.3-0.6,0.4c1.9,0.6,3.8,1.3,5.6,2.2c2.7,1.9,5.2,4.1,7.4,6.5
		l-0.2,0.2c2.4,3.4,3.7,7.9,3.7,13.4c0,4.2-1.5,7.8-4.5,10.9c-1.4,1.3-2.7,2.6-4.1,3.7c0-1.1,0-2.1,0-3.2c-0.1,0-0.2,0-0.2,0.1
		c-1.3,3-1.8,6.5-1.6,10.5c0,0.2-0.1,0.3-0.1,0.5H55c0.1,0.6,0.2,1.3,0.3,2.1C47.5,84,39.4,85.1,31,83.9c-2.6-4.1-4.7-8.4-6.5-13
		c-0.5-0.8-1.2-1.1-2-1c0.5,1.4,1.1,2.8,1.6,4.1c-0.2-0.3-0.5-0.7-0.8-1.1c-0.4-0.1-0.8-0.2-1.1-0.4c-1.1-0.7-2.2-1.2-3.4-1.6
		c-1-0.9-1.9-1.8-2.7-2.8c-5.2-6.5-6.1-13.9-2.6-22c0.1-0.1,0.2-0.2,0.4-0.4c0.1-0.1,0.2-0.2,0.4-0.3c0-0.2,0.1-0.3,0.2-0.4
		c0-0.1,0-0.2,0-0.4c0-0.1,0-0.2,0.1-0.3c0-0.2,0.1-0.3,0.2-0.4c0.8-0.7,1.5-1.5,2.1-2.4c3-4.4,6.9-7.3,11.7-8.7v-0.1l0,0
		c0.6-0.4,0.8-1.1,0.6-2.1c-0.6-2.7-1.3-5.5-2.2-8.2c-0.1-0.1-0.3-0.3-0.4-0.4c-1.3-2.7-3.3-4.9-5.8-6.4c-0.2-0.2-0.4-0.3-0.5-0.5
		c-0.1,0.1-0.1,0.1-0.1,0.1c-0.1,0-0.1,0-0.2-0.1l-0.1,0.1c-0.2,0-0.5,0-0.7,0.1c-0.2,0-0.3,0.1-0.4,0.2c-0.2,0.2-0.3,0.3-0.4,0.4
		c-0.2,0.1-0.3,0.2-0.4,0.4c-0.3,0-0.6,0-1-0.1c-0.1-0.1-0.3-0.1-0.5-0.2c-0.2-0.1-0.4-0.2-0.6-0.4c-0.2-0.8-0.2-1.7-0.2-2.6
		c0.1-0.2,0.1-0.5,0.1-0.7s0-0.3,0.1-0.4c0.5-0.5,1-1,1.5-1.5c0.1-0.1,0.2-0.2,0.4-0.4c0.1-0.1,0.2-0.2,0.3-0.4
		c1.4-0.6,2.8-0.7,4.2-0.3c0.2,0,0.4,0.1,0.6,0.3c-0.1,0.7-0.3,1.3-0.7,1.8c-0.3,0.4-0.4,1-0.1,1.5c0,0.2,0.2,0.3,0.4,0.4
		c1.1-0.9,1.8-2.1,1.8-3.7c0-0.6-0.2-1.1-0.7-1.5C23.5,8,23.4,8,23.2,7.9c-1.5-0.2-3.1-0.3-4.7-0.4c-1.3,0.7-2.4,1.7-3.2,3.1
		c-1,1.7-1.3,3.6-1,5.8c0.3,0.2,0.6,0.5,1,0.7c0.1,0.2,0.3,0.3,0.4,0.4c0.2,0.2,0.3,0.3,0.4,0.4c0.8,0,1.6,0.1,2.4,0
		c0.2,0,0.4-0.1,0.5-0.1c0.2-0.3,0.4-0.5,0.6-0.8c0.2,0.4,0.6,0.8,1.2,1.3c0,0.1,0,0.2,0,0.3c0.6,2.5,0.1,4.7-1.4,6.4
		c-1,0-1.7,0.2-2.4,0.6c2.7,2.5,3.8,5.2,3.4,8.3c-0.2,0-0.4,0-0.5,0.1c-0.9,1.5-2.1,2.8-3.6,3.9c0.1,0.2,0.3,0.4,0.6,0.5
		c-4.3,4.4-6.5,10.2-6.8,17.5c0,2.1,0.2,4.2,0.7,6.1c0.9,3,2.1,5.6,3.9,7.8c-0.3,0-0.5-0.1-0.7-0.2c-0.2,0.1-0.4,0.2-0.8,0.4
		c-0.7,0.2-1.3,0.6-1.8,1.1c0,0.4,0,0.8,0.1,1.1c0.5,1.9,1.3,3.3,2.6,4.2c-4.7,0.3-8.9,1.9-12.6,4.8c0,0.2,0,0.3,0,0.4
		c-0.1,0.8,0,1.6,0.3,2.3c0,0.1,0,0.1,0.1,0.1c-0.8,0.3-1.4,0.9-1.9,1.5c1.2,0.1,2.2-0.1,3.2-0.4c0.9,0.1,1.8,0.3,2.6,0.4
		c-1.3,0.5-2.6,1.2-3.7,2.1c0.1,0.2,0.1,0.2,0.1,0.2c2.2-0.5,4.3-1.1,6.6-1.9c1,0.1,2,0.2,2.9,0.3c-1.6,0.4-3.1,1-4.4,1.7
		c2.5-0.1,5.1-0.6,7.6-1.6c2,0,4-0.1,6.1-0.3c-2.3,0.8-4.5,1.5-6.7,2.4c0.2,0,0.4,0,0.7,0c4.9-1.1,9.8-2.3,14.6-3.6
		c-0.3,0-0.5-0.1-0.7-0.2c0.2-0.1,0.4-0.1,0.6-0.3c0.2,0.3,0.4,0.6,0.6,1c0.5,0.1,1,0.2,1.5,0.2c-1.5,0.6-3.1,1.3-4.6,2
		c2.5-0.4,5-1,7.6-1.6c1.8,0.1,3.7,0.1,5.6,0.1c-1,0.4-2,0.8-2.9,1.4c0.3,0,0.7-0.1,1.1-0.1c4.4-0.9,8.5-1.8,12.4-2.9
		c-0.1-0.1-0.1-0.1-0.2-0.2c0.9,0.3,1.7,0.6,2.6,0.8c-1.9,0.4-3.4,1.1-4.6,2.1c0.3,0.6,0.7,0.8,1.5,0.7c3.5-0.6,5.3-1.3,5.3-2.2
		c1.9,0.4,3.7,0.7,5.6,1c-0.1-0.1-0.3-0.1-0.5-0.1c-0.9,0.3-2,0.6-3.2,0.9c-0.4,0.1-0.7,0.3-0.7,0.7c0.3,0.7,0.7,0.8,1.3,0.5
		c1.5-0.9,3.1-1.4,4.9-1.7c-0.1-0.1-0.1-0.1-0.2-0.1c-0.3-0.1-0.6-0.1-0.9-0.2c1.5,0.2,3.1,0.2,4.7,0.2c-1.4,0.7-2.5,1.4-3.6,2.2
		c0.5,0.4,1.1,0.4,1.7,0.2c2.1-0.9,4.4-1.8,6.6-2.6C74.1,86.3,77.1,85.8,80.1,85z M50.8,31.7c0.1-0.5,0.2-1.1,0.3-1.8
		c0.3-4.1,1.9-7.6,4.7-10.8c-0.3,1.2-0.3,2.4-0.2,3.8c1,1.7,2.4,3.2,4,4.2c-0.1,0.2-0.1,0.2-0.1,0.4c-0.4-0.1-0.7-0.2-1-0.2
		c-0.3,0.2-0.8,0.5-1.5,0.7C54.5,28.8,52.4,30,50.8,31.7z M57.4,33.5c0.3,0.9,0.6,1.7,0.8,2.5c-1.8-1.5-4.1-2.5-6.8-3.2
		c2.3-1.9,4.8-3.4,7.6-4.5C58.2,29.9,57.6,31.7,57.4,33.5z M28.3,31.7c-0.1,0-0.2,0-0.3,0.1c-1.4-2.8-3.8-4.5-7-5.5l-0.2,0.1
		c2.2,2,4.4,3.9,6.7,5.6c-1,0.3-1.9,0.6-2.9,0.8c-1.5,0.8-2.9,1.6-4.2,2.5c1.8-2.5,1.6-5.4-0.5-8.5c2.1-2.4,2.9-5.2,2.4-8.6
		C25.4,22.2,27.4,26.7,28.3,31.7z M21.5,79.1c0.3,0.1,0.6,0.2,0.8,0.3c-0.1-0.2-0.2-0.4-0.3-0.7c2.1,0.7,4,1.7,5.6,3.1
		c0.2,0,0.3,0,0.5,0.1c0.2,0.5,0.5,1,0.9,1.5c-0.4-0.1-0.7-0.2-1-0.3c-0.3,0.2-0.7,0.4-1.2,0.4c-0.2,0-0.3,0-0.5,0.1
		c-7.9,1.6-15.7,1.2-23.3-1.1c4.4-3.3,9.5-4.9,15.4-4.9h0.1c0.1,0,0.2,0,0.3,0c0-0.1,0-0.2,0-0.4c0,0,0,0,0-0.1
		c-0.8-0.1-1.5-0.4-2.1-0.7c-0.1,0-0.1,0-0.1,0c-1.9-1-3.2-2.5-4-4.4c0.5-0.2,1-0.3,1.4-0.4c0.8,0,1.4-0.2,1.9-0.4
		c0.3,0.3,0.7,0.7,1.2,1.1c0.1,0.2,0.2,0.4,0.3,0.7c0-0.1-0.1-0.1-0.1-0.1h-0.4c0.4,0.9,1,1.7,1.7,2.4c0.5,1,1,2,1.5,3
		c0.4,0,0.8,0.1,1.3,0.3C21.4,78.7,21.5,78.9,21.5,79.1z M25.6,78.5c-1.7-0.6-3.3-1.4-4.6-2.4c-0.1-0.2-0.1-0.5-0.2-0.7
		c0.9,0.6,2.1,0.5,3.8-0.2c0.5,1.2,1.1,2.3,1.7,3.5C26.1,78.6,25.9,78.5,25.6,78.5z M20.6,74.3c0-0.2,0-0.3,0-0.4
		c0.5,0.2,1,0.5,1.5,0.6C21.6,74.4,21.1,74.4,20.6,74.3z M50.3,84.1L50.3,84.1c0.1,0,0.1,0,0.2,0.1C50.4,84.1,50.3,84.1,50.3,84.1z
		 M62,69.2c-0.1,0-0.1,0-0.1,0l0,0C61.9,69.2,61.9,69.2,62,69.2z M65.5,71.3c0,0.1,0,0.2,0.1,0.3c-0.6,1-1.6,1.6-2.7,2
		c-1.7,0.5-3.4,1-5,1.5c-0.1,0.1-0.2,0.3-0.2,0.3c-0.2,0.3-0.4,0.5-0.5,0.8c0,0.1-0.1,0.2-0.1,0.3c0.3,0.4,0.5,0.6,0.9,0.7
		c0,0.2,0,0.3,0,0.4c8.2,0.3,15.4,2,21.6,5.4c-9.1,2.7-18.1,2.8-27,0.3c1.4-0.6,2.8-1.2,4.2-1.9c0-0.1,0-0.2,0-0.4
		c0-2.1,0-4.3,0.1-6.3c3.6-0.7,4.8-1.7,3.6-3.1v0.1c-0.6,0.1-1.3,0.1-1.8,0.3c0.1-0.2,0.3-0.3,0.5-0.4c0.3,0,0.6-0.2,0.9-0.5
		c0.2-0.1,0.3-0.2,0.4-0.3C62.7,69.7,64.3,69.9,65.5,71.3z"/>
	<path style="fill:#009659;" d="M45.9,32h0.3l0,0H45.9z"/>
	<path d="M46.2,32h-0.3c0,0.1,0.1,0.3,0.1,0.5C46.1,32.3,46.1,32.2,46.2,32z"/>
	<path d="M61.9,42.1c-0.5-0.4-0.9-0.8-1.4-1.2c0.4,0.4,0.8,0.9,1.2,1.4L61.9,42.1z"/>
	<path d="M28.6,32.8L28.6,32.8c0,0,0,0,0-0.1l0,0V32.8z"/>
	<path style="fill:#3172A1;" d="M39,0c-0.1,0.1-0.2,0.1-0.5,0.2c-8.8,0.5-12.3,5-10.2,13.3c0.3,0.4,0.6,0.8,0.8,1.2
		c0.1,0.4,0.4,0.8,0.7,1.2s0.6,0.7,0.8,1c0.8,0.4,1.6,0.7,2.5,1c1.2,0.5,2.2,1,3.2,1.5c0.4,0.5,0.6,1.1,0.4,1.9
		c-0.1,0.5,0,0.9,0.3,1.2c0.2,0.3,0.3,0.6,0.3,1c0.1,0.2,0.2,0.3,0.3,0.4c0.2,0.1,0.3,0.2,0.4,0.4s0.1,0.5,0.2,0.7
		c0,0.5,0.1,0.9,0.3,1.3c0.2,0.6,0.7,0.8,1.5,0.5c0.4-1.5,0.7-3,1-4.5c0.1-0.8,0.2-1.7,0.3-2.7c3.5-0.8,5.9-2.9,7.2-6.4
		C51.4,5.3,48.3,0.9,39,0z M32.7,3.5c2.5-0.9,5.1-1.3,7.8-1.4c2.1-0.2,3.9,0.3,5.4,1.8c1.6,1.5,2.5,3.3,2.7,5.5
		c-0.2,1-0.6,2-1.1,2.9c-1.7,3-4.3,5.1-7.7,6.2c0,0.7-0.1,1.3-0.4,1.8c-0.2,0.6-0.3,1.2-0.2,2c0,0.1,0,0.3-0.1,0.5
		c-0.3-0.4-0.5-0.8-0.7-1.4c-0.1-0.7-0.3-1.5-0.5-2.3c-0.1-0.3-0.2-0.7-0.3-1.1c-1.6-0.5-3.1-1.2-4.6-2.2c-2.1-1.3-3.4-3.2-3.7-5.7
		c-0.1-1.4,0.3-2.8,1-4c0.5-0.8,1-1.6,1.6-2.3C32.1,3.6,32.4,3.5,32.7,3.5z"/>
	<path style="fill:#3172A1;" d="M40.7,4.4c-1.2-0.1-2.4-0.2-3.7-0.3c-0.8,0.7-1.1,1.6-0.9,2.8c0.4,2.2,1.3,3.8,2.8,4.6
		c0.6-0.4,1.1-1.1,1.3-2c0-0.1,0-0.2,0.1-0.4c-0.1-0.2-0.1-0.5-0.1-0.7c-0.1-0.1-0.1-0.2-0.1-0.4c0.5-0.9,0.8-1.9,1-3
		c0-0.1,0-0.2,0-0.4C41,4.5,40.9,4.5,40.7,4.4z"/>
	<path style="fill:#3172A1;" d="M38.1,13.6c-0.1,0.6-0.2,1.2-0.2,1.8c1.7,1.1,2.9,0.9,3.7-0.8c0-0.1,0-0.2,0-0.3
		c-0.6-1-1.4-1.5-2.6-1.7v0.1C38.6,12.8,38.3,13.1,38.1,13.6z"/>
	<path style="fill:#3172A1;" d="M46.9,20.7c-0.1,0-0.2,0-0.3,0.1c0.1,0,0.1,0,0.2,0C46.8,20.8,46.8,20.8,46.9,20.7z"/>
	<path style="fill:#3172A1;" d="M36,38.9c-1.6-0.1-3.2-0.1-4.7-0.2c-3.4,0.8-5.8,2.8-7.2,6c-3.8,8.7-1.2,14.3,7.7,16.8
		c1.3-0.5,2.7-0.8,4.2-1.3c0.8-0.2,1.5-0.7,2-1.3c0.7,0.9,1.7,1.6,2.9,2c1.9,0.7,3.7,0.6,5.5-0.2c6.5-2.9,8.4-7.8,5.6-14.7
		c-0.9-1.2-1.9-2.3-3-3.4c-3.2-3-6.9-3.7-11-2.2c-0.4-0.4-0.9-0.7-1.5-1.2C36.4,39.1,36.2,39,36,38.9z M31.8,40.2
		c2.2-0.6,4-0.2,5.6,1.3c0,0.4,0.1,0.7,0.2,1c0.2,0.3,0.4,0.5,0.7,0.7c0.5,0,0.9-0.3,1.2-0.8c0.2-0.3,0.5-0.7,0.9-0.9
		c3-0.2,5.6,0.7,7.9,2.6c0.2,0.3,0.4,0.5,0.6,0.8c4,5.7,3.4,10.6-1.9,14.6c-3.4,0.8-6.3,0.1-8.7-2.3c-3.4,2.7-7,3.2-10.8,1.3
		c-0.8-0.3-1.3-0.8-1.6-1.5C22.3,49.5,24.2,43.9,31.8,40.2z"/>
	<path style="fill:#3172A1;" d="M30,47.2c-0.1,0.1-0.2,0.1-0.4,0.2c-0.5,0.7-1,1.6-1.3,2.6c-0.2,0.8-0.3,1.6-0.3,2.5
		c0.4,0.5,0.8,1,1.1,1.4c0.5,0.5,1,0.9,1.5,1.3c3.7,0.7,5.8-0.5,6.5-3.9c-0.2-0.7-0.4-1.3-0.6-1.9c-0.3-1.2-1.1-2.2-2.2-3
		c-0.8-0.1-1.5-0.1-2.3-0.1l0,0C31.3,46.6,30.6,46.9,30,47.2z M30.6,53.8c-1-0.7-1.5-1.5-1.6-2.7c0.1-0.2,0.1-0.4,0.3-0.6
		c0.4-0.7,0.7-1.3,1.1-2c0.2-0.1,0.4-0.2,0.6-0.3c0.4-0.2,0.9-0.4,1.4-0.7c0,0,0,0,0.1,0c2.3,1,3.4,2.6,3,4.9C34.5,54,33,54.5,31,54
		C30.9,53.9,30.8,53.8,30.6,53.8z"/>
	<path style="fill:#3172A1;" d="M31.6,51.6c2.1,0.8,2.7,0.2,1.7-1.7c-0.1,0-0.2,0-0.3,0c-1.1-0.1-1.7,0.4-1.6,1.5
		C31.4,51.5,31.5,51.6,31.6,51.6z"/>
	<path style="fill:#3172A1;" d="M44.6,51c0-0.1,0-0.2,0-0.4c-0.1-0.8-0.6-1.1-1.6-0.8c-0.2,0-0.4,0.2-0.6,0.5
		c-0.1,0.2-0.3,0.5-0.4,0.7c0,0.2,0.1,0.3,0.1,0.3C43.2,52.5,44,52.4,44.6,51z"/>
	<path style="fill:#3172A1;" d="M28.5,76.6c0.5,0.7,0.8,1.4,1,2.2c0.6,0.5,1,1.1,1.4,1.8c0.4,0.8,0.9,1.5,1.4,2.3
		c0.1,0.1,0.2,0.2,0.3,0.4c7.7,1.2,14.7-0.2,21-4.2c0.1-0.1,0.1-0.2,0.1-0.3c1.6-12.2-4-17.7-16.7-16.4c-2.7,0.2-5.2,1.1-7.5,2.5
		c-1.6,1-2.9,2.2-3.9,3.7C25.9,71.5,26.8,74.2,28.5,76.6z M27.5,69.5c0.1-0.1,0.1-0.2,0.3-0.3c2.5-2.7,5.6-4.3,9.3-4.8
		c3.5,0,6.9,0.2,10.3,0.7c0.4,0.3,0.8,0.5,1.3,0.7c0.3,0.2,0.7,0.3,1.1,0.3c0.6,1.5,1.1,3,1.6,4.5c0.6,2.2,0.9,4.4,0.8,6.7
		c-0.3-0.3-0.7-0.5-1-0.7c-0.2-0.1-0.3-0.2-0.4-0.3c-0.6-0.1-1.1-0.2-1.7-0.2c-1.3-0.2-2.7-0.3-4.1-0.5c-1,0.3-2.1,0.8-3.1,1.5
		c-0.4,0.3-0.9,0.5-1.4,0.8c-0.1,0.2-0.2,0.5-0.3,0.7c-0.2,0.3-0.4,0.6-0.6,0.8c-0.1,0.1-0.2,0.2-0.2,0.4c0,0.5-0.1,1-0.2,1.4
		c0,0.3-0.1,0.5-0.1,0.7c-2,0.1-4,0-6.1-0.4c-0.6-1.2-1.3-2.5-1.9-3.8C29.6,75.1,28.5,72.4,27.5,69.5z M44.1,77.5
		c0.3-0.1,0.6-0.2,0.9-0.1c2.7,0.3,4.9,0.6,6.7,0.9c-3.6,2-7.4,3.2-11.3,3.6c0.2-0.8,0.4-1.5,0.8-2.1c0.1-0.3,0.3-0.5,0.4-0.8
		c0.8-0.2,1.5-0.6,2.1-1.1C43.8,77.8,44,77.7,44.1,77.5z"/>
</g>
</svg>
