<?xml version="1.0" encoding="iso-8859-1"?>
<!-- Generator: Adobe Illustrator 12.0.1, SVG Export Plug-In . SVG Version: 6.00 Build 51448)  -->
<!DOCTYPE svg PUBLIC "-//W3C//DTD SVG 1.1//EN" "http://www.w3.org/Graphics/SVG/1.1/DTD/svg11.dtd" [
	<!ENTITY ns_svg "http://www.w3.org/2000/svg">
	<!ENTITY ns_xlink "http://www.w3.org/1999/xlink">
]>
<svg  version="1.1" id="Layer_1" xmlns="&ns_svg;" xmlns:xlink="&ns_xlink;" width="97.864" height="91.712"
	 viewBox="0 0 97.864 91.712" style="overflow:visible;enable-background:new 0 0 97.864 91.712;" xml:space="preserve">
<g>
	<g>
		<path style="fill:#3172A1;" d="M84.605,42.412c0-0.4,0-0.8,0-1.2c0-1.1,0-2.2,0-3.3c-0.1-0.2-0.2-0.3-0.2-0.4
			c-0.6-0.6-1.3-1-2.1-1c-1.6,0.6-2.8,1.7-3.4,3c-4.7-3.6-10.1-4.8-16.1-3.8c-1.7,0.1-3.3,0.6-4.7,1.5c-0.2-0.1-0.3-0.2-0.4-0.2
			c0,0.1,0,0.3-0.1,0.5c-0.4,0.3-0.7,0.6-1.1,1c-2.8-1.3-5.8-2-9-2c-0.4,0.2-0.8,0.3-1.3,0.3c0-0.2,0-0.5,0-0.7
			c-1.2-8.4-6.2-13.2-15-14.7c0.1-0.6,0.1-1.3,0-1.9c0-0.6-0.3-1.1-0.7-1.6c-0.2-0.1-0.5-0.2-0.7-0.3c-0.6-0.2-1.2-0.3-1.7-0.5
			c-2.5,0.9-3.7,2.9-3.8,5.8c-0.1,2.3,0.4,4.3,1.5,6.2c1.1,0.1,2.2,0.3,3.2,0.4c0.4-0.3,0.7-0.6,1-0.9c0.2-0.2,0.3-0.2,0.4-0.4
			c0-0.1,0-0.2,0.1-0.3c0-0.4,0.1-0.8,0.3-1.1c0-0.2,0.1-0.3,0.2-0.4c0.3,0,0.6-0.1,0.8-0.1c0.1,0.2,0.5,0.3,1,0.4
			c0,0.2,0.1,0.3,0.1,0.4c0.7,0.8,1.1,1.6,1.3,2.4c-1.3,1.5-2.9,2.6-4.9,3.4c-0.2,0-0.4,0-0.4,0.1c-0.1,0-0.1,0-0.1,0.1
			c-0.1,0.1,0,0.2,0,0.3c0.5,0.6,1.1,1.1,1.9,1.5c0.1,0.2,0.2,0.4,0.3,0.7c0.5,0.8,0.9,1.8,1,2.8c-1.1,1.7-2.4,3-4.3,4
			c0.1,0.2,0.3,0.4,0.5,0.5c-4.7,3.9-7.6,9.5-8.7,16.7c-0.3,2.1-0.3,4.2,0,6.1c0.6,3.8,2,7.1,4.1,9.8c-1-0.1-1.8-0.2-2.7-0.1
			c-0.9-2.4-1.6-4.8-2.1-7.2c-2-9.8-7.5-16.3-16.5-19.6c-3.2,8.6-3.1,17.3,0.5,26.3c2.2,5.1,5.3,8.7,9.4,10.6c-0.2,0-0.3,0-0.4,0
			v0.1c-1.9,0.1-3.6,0.7-4.9,1.6c0.3,0.2,0.6,0.3,0.9,0.2c2-0.3,3.9-0.8,5.5-1.4c1.6,0.6,3.3,0.9,5.1,1.1c-2.3,0.6-4.7,1.4-7,2.1
			c0.5,0.2,0.9,0.2,1.3,0.2c6.5-1.2,12.8-2.7,19.1-4.5c-0.1-0.2-0.2-0.2-0.3-0.3c-0.6-0.1-1.1-0.2-1.7-0.2c-0.9,0.2-1.9,0.5-3,0.7
			c-1.4,0.3-2.8,0.6-4.2,0.9c0.5-0.9,0.6-1.9,0.4-3c-0.2-0.9-0.6-1.8-1.1-2.6c2.5,0.5,4.6,0.3,6.2-0.7c0.3,0.2,0.5,0.4,0.8,0.5
			c-0.1,0.1-0.1,0.2-0.1,0.2c0.3,0.1,0.7,0.3,1,0.5l0.1-0.1c1.6,1,3.4,1.8,5.4,2.4c0.7,0.3,1.4,0.5,2.2,0.7c-0.1-0.1-0.2-0.1-0.3,0
			c1.1,0.2,1.9,0.6,2.6,1c-0.3,0-0.6,0.1-1,0.1c-5.4,0.5-10.5,1.6-15.5,3.4c4.4-0.1,8.9-0.5,13.6-1.3c2.4-0.5,3.7-1,4.2-1.6
			c0.2,0,0.4,0,0.6,0c0-0.1,0-0.2,0.1-0.2c0.5,0.4,1,0.8,1.5,1.1c-0.2,0.1-0.3,0.2-0.5,0.2c-3.4,0.8-6.6,1.9-9.7,3.1
			c2,0.6,4.4,0.5,7-0.2c3.3-1,4.7-1.9,4-2.7c1.1,0.6,2.3,0.9,3.5,0.9c-0.9,0.6-1.8,1.3-2.5,2c0.2,0.1,0.4,0.1,0.6,0
			c5-2.1,9.9-4,14.8-5.8c0.1,0.3,0.2,0.5,0.3,0.7c0.2-0.1,0.5-0.3,0.7-0.5c-0.1-0.1-0.2-0.3-0.2-0.4c0.2-0.1,0.5-0.2,0.8-0.3
			c-0.2-0.2-0.4-0.2-0.6-0.3c-0.1,0-0.2,0-0.2,0c0.2-0.1,0.5-0.2,0.7-0.3c0.7,0.2,1.3,0.3,2.1,0.4c2.6,0.3,5,0.6,7.4,0.9
			c-0.2,0.5-0.2,1.1,0,1.6c-0.4-0.2-0.8-0.3-1.2-0.5c-0.3,0.3-0.8,0.5-1.5,0.6c-3.2,0.4-5.7,1.8-7.4,4.1c0.2,0,0.3,0.1,0.3,0
			c3.4-1.3,6.6-2.5,9.9-3.7c0.3,1.1,0.4,2.3,0.3,3.5c0.4,0.5,0.8,0.9,1.3,1.2c1.6,0.8,3.2,1,4.9,0.6c1-0.3,2.1-0.7,3.1-1.1
			c-0.1,0.1-0.2,0.2-0.3,0.2c0.1,0.2,0.1,0.2,0.1,0.2c4.6-1.3,7.7-2.9,9.3-4.8c-0.8,0.1-1.5,0.4-2.3,0.6c5.2-4,8.4-9.7,9.6-17.3
			c1.1-6.9-1.3-11.2-7.3-12.7c-9.2,4.9-15,12.5-17.2,22.8c-1.3-0.4-2.5-0.6-3.8-0.7c5.2-4.1,7.5-10.1,7-17.9c-0.1-2.5-0.7-4.9-1.6-7
			c-0.9-2.1-1.9-4-3.2-5.7c0.3,0.2,0.8,0.3,1.3,0.5c-0.2-0.3-0.5-0.6-0.6-0.8c-0.2-0.2-0.3-0.3-0.4-0.4c1.4,0.1,2.5,0.2,3.6,0.3
			c-0.1-0.7-0.6-1.4-1.3-1.8c-0.3-0.2-0.4-0.3-0.6-0.4c0.4,0.2,0.8,0.4,1.2,0.6c0-0.1-0.1-0.2-0.1-0.3c-0.6-0.6-1.1-1.1-1.7-1.6
			c0-0.1,0-0.2,0-0.2c0.3-0.6,0.8-0.9,1.4-0.9c0.9-0.1,1.5-0.2,2-0.4c0,0.2,0,0.4-0.1,0.6c-0.2,1.3-0.1,2.6,0.4,3.7
			c0.7,0.6,1.6,0.8,2.6,0.5C81.505,46.212,83.305,44.512,84.605,42.412z M94.405,59.812c0.2,0.2,0.4,0.5,0.5,0.7
			c1,4.5,1,8.9-0.1,13.2c-0.7,2.9-2,5.7-3.8,8.3c-4.7,6.8-10.4,8.9-17.3,6.4c0-0.3,0-0.5,0-0.8c0.1-0.6,0-1.3-0.3-1.9
			c-0.1-0.2-0.1-0.5-0.2-0.7c0-0.1,0.1-0.2,0.1-0.4c0.1-0.2,0.2-0.5,0.3-0.8c0.1-0.1,0.1-0.2,0.1-0.3c-0.1-0.3-0.2-0.4-0.4-0.5
			c-0.3-0.2-0.6-0.3-1-0.3h-0.1c-0.2,0.2-0.4,0.5-0.5,0.7c-1.9-1.1-4-1.9-6.2-2.1c0.8-0.5,1.7-1,2.5-1.5c2.6,0.9,5,1.1,7.1,0.6
			c-0.1-0.2-0.2-0.2-0.3-0.3c-0.3-0.1-0.6-0.3-1-0.4c2-3.3,3.8-6.6,5.4-10.2c2.9-6.2,7.4-9.9,13.6-10.9
			C93.405,59.012,93.905,59.412,94.405,59.812z M44.805,37.912c0.8,0.1,1.6,0.2,2.5,0.4c4,0.6,7.5,1.1,10.5,1.6h0.3
			c0.4,0.1,0.8,0.1,1.2,0.2c-0.1-0.1-0.1-0.2-0.2-0.2c-0.3-0.2-0.6-0.4-0.8-0.5c0.1-0.4,0.3-0.8,0.6-1.2c0,0,0,0,0-0.1
			c1.3-0.2,2.6-0.5,3.7-1.1c3.1-1.3,6-1.2,8.8,0.4c3.2,1.7,5.8,2.6,8,2.7c0-0.1,0-0.2,0-0.2c1.1-0.2,2.3-0.6,3.5-1.3
			c0.4,3.9-1.4,6.3-5.3,7.3c-0.2-0.4-0.2-0.8-0.2-1.2c0.2-0.8,0.3-1.7,0.5-2.6c-1.4-1.9-3.4-3.3-5.9-4c-4.6-1.2-7.8-0.6-9.8,2
			c-0.1,0-0.1,0-0.1,0l0,0c-0.1,0.1-0.2,0.2-0.2,0.3c-0.1,0-0.1,0-0.2-0.1c-0.2,0.3-0.3,0.7-0.4,1c-0.3,0.1-0.5,0.2-0.7,0.4
			c0.2,0,0.4,0.1,0.5,0.2c0,0,0,0,0,0.1c0-0.1,0-0.1,0.1-0.1c1.7,0.8,3.4,1.7,5,2.8c0.3,0.1,0.6,0.3,1,0.5c0.3,0.3,0.6,0.6,1,0.9
			c-0.1,0.8,0.3,1.2,1.1,1.2c0,0,0.1,0,0.2,0c1.2,1.1,2.2,2.3,2.8,3.8c0.1,0.2,0.2,0.4,0.2,0.7l-0.2,0.1c2,3.8,2.8,8.4,2.1,13.7
			c-0.5,4.2-2.4,7.7-5.6,10.4c-10.5,8.6-22.5,9.9-36,3.9c-3.7-1.7-6.6-4.1-8.7-7.5c-4.5-7.1-4.5-14.5-0.1-22.1
			c0.2-0.2,0.3-0.3,0.4-0.4c0.2-0.1,0.3-0.2,0.5-0.3c0-0.1,0.1-0.2,0.2-0.4c0.1-0.1,0.1-0.2,0.1-0.3c0-0.2,0-0.3,0.1-0.4
			c0-0.1,0.1-0.2,0.2-0.3c0.9-0.6,1.7-1.3,2.4-2.1c3.5-4.1,7.7-6.5,12.6-7.3v-0.2c0.3-1.2,0.5-2.3,0.4-3.6c-0.2-5.8-3-9.1-8.3-10
			c-0.1-0.1-0.1-0.1-0.2-0.1c-0.2,0-0.3,0-0.5,0c-0.7-0.1-1.5-0.2-2.3-0.2c-0.1,0.8-0.3,1.5-0.4,2.2c-0.1,0.3-0.3,0.5-0.5,0.8
			c-0.5,0.1-1.1,0.2-1.7,0.2c-0.1,0-0.1,0-0.1-0.1c-0.4-0.5-0.6-1.1-0.6-1.8c0-0.7-0.1-1.4-0.1-2c-0.2-1.5,0-3,0.4-4.4
			c0.3-0.2,0.6-0.4,0.9-0.6c0.8-0.5,1.5-0.4,2.1,0.2c0.6,0.5,0.7,1.2,0.5,2c-0.1,0.4-0.2,0.9-0.3,1.4c2.8,0.7,5.4,1.8,8,3.1
			c2.8,1.4,4.5,3.7,5.1,6.6c0.4,1.9,1,3.4,1.7,4.4c-0.2,0-0.4,0-0.6,0c-0.2,0.1-0.4,0.1-0.5,0.3c-0.2,0-0.3,0.1-0.4,0.2
			c-0.1,0.1-0.1,0.2-0.2,0.4c0,0.1,0.1,0.2,0.2,0.4c0.1,0.1,0.3,0.2,0.4,0.3c0.2,0.1,0.3,0,0.4,0c0.1-0.1,0.2-0.2,0.3-0.2
			C44.405,38.012,44.605,38.012,44.805,37.912z M39.705,33.312c-0.2,0.5-0.2,0.9-0.2,1.1c-0.1,1.2,0,2.1,0.3,3c-0.1,0-0.1,0-0.1,0
			c-2.8,0.7-5.3,1.7-7.6,2.9c0.4-0.5,0.8-1.1,1.1-1.7c-0.4-1.5-0.8-2.7-1.1-3.7c0.9,0.2,2.1,0.2,3.3,0.1c1.3,1.4,2.6,2.1,3.9,2
			c0.1,0,0.1-0.1,0.1-0.2s-0.1-0.2-0.1-0.4c-0.4-0.7-0.9-1.3-1.7-1.7c-0.1-0.2-0.3-0.3-0.4-0.4c-0.3-0.2-0.5-0.3-0.8-0.3
			c-1.6-0.3-3.3-0.6-5-0.8c1.5-0.5,2.7-1.3,3.7-2.5c0-0.3,0-0.5,0.1-0.8c0.1-0.5,0.1-1,0-1.5c-0.2-0.1-0.3-0.3-0.3-0.5
			c-0.1-0.4-0.3-0.8-0.5-1.1c0.2,0.1,0.5,0.3,0.7,0.4c2.1,1.4,3.6,3.2,4.7,5.4C39.705,32.812,39.705,33.012,39.705,33.312z
			 M57.605,39.012L57.605,39.012L57.605,39.012z M63.505,41.012c-0.2,0-0.2-0.1-0.3-0.2c3,1,5.8,2.2,8.5,3.6c0,0.1,0,0.2,0,0.2v0.2
			c-1.1-0.1-1.9,0-2.5,0.3c0,0,0,0-0.1,0c0,0,0,0,0.1,0.1c-0.1,0-0.1,0-0.2,0c-0.2-0.2-0.4-0.4-0.7-0.6c-0.6-0.4-1.3-0.9-2-1.4
			c-0.6-0.5-1.3-1-2.1-1.6c-0.4-0.2-0.6-0.4-1-0.5C63.305,41.012,63.305,41.012,63.505,41.012z M64.805,40.412L64.805,40.412
			c-0.5,0.1-1,0.2-1.5,0.3c3.5-1.7,7.3-1.5,11.3,0.5c-0.1,0-0.3,0-0.3,0c-0.3,0.3-0.8,0.5-1.5,0.6c-0.1,0.1-0.3,0.1-0.5,0.2
			c-0.1,0.2-0.2,0.5-0.4,0.6c-0.1,0.2-0.2,0.4-0.2,0.5C69.705,41.712,67.305,40.812,64.805,40.412z M3.105,50.412
			c1.1-0.1,2.2,0.4,3.2,1.3c7.2,6.9,11.6,15.3,13.4,25.3c1.3,0.6,3,0.6,5-0.1c0-0.1,0-0.1,0-0.1c0.2,0.3,0.4,0.5,0.7,0.7
			c-1.8-0.2-3.6,0.4-5.5,1.6c0,1.4,0.3,2.7,1.1,3.8c0.6,0.7,0.6,1.5-0.1,2.2c-4.4,1.4-8.3,0.1-11.6-3.8
			C1.705,72.112-0.395,61.812,3.105,50.412z M49.305,85.312v0.1c0.3,0.1,0.6,0.3,0.9,0.5c-2.6,0.7-5.2,0.4-7.7-1
			C44.805,85.212,47.005,85.412,49.305,85.312z M52.305,85.112c0.1,0,0.2,0,0.2,0s-0.1,0-0.1,0.1
			C52.305,85.112,52.305,85.112,52.305,85.112z"/>
		<path style="fill:#3172A1;" d="M49.305,44.912c-0.4-0.4-0.9-0.9-1.4-1.3c-0.1-0.2-0.3-0.3-0.4-0.4c-1.6-0.3-3.2-0.5-4.7-0.7
			c-3.5,0.4-6.1,2.1-7.8,5.1c-4.7,8.2-2.9,14,5.7,17.5c1.4-0.3,2.8-0.5,4.3-0.8c0.9-0.1,1.6-0.5,2.2-1c0.6,0.9,1.5,1.7,2.6,2.3
			c1.1,0.5,2.1,0.8,3.2,0.8c0.6,0,1.2-0.1,1.8-0.2c0.2-0.1,0.3-0.1,0.5-0.2c6.7-2.1,9.2-6.8,7.3-14c-0.8-1.3-1.7-2.5-2.6-3.6
			C57.105,45.012,53.605,43.812,49.305,44.912z M36.805,61.612c-0.7-0.4-1.2-1-1.4-1.6c-2.8-7.9-0.2-13.2,7.7-16
			c2.3-0.4,4.1,0.2,5.4,1.9c0,0.4,0,0.7,0.2,1.1c0.1,0.2,0.3,0.5,0.5,0.7c0.6,0,1-0.2,1.3-0.6c0.3-0.4,0.6-0.7,1-0.9
			c3,0.2,5.5,1.4,7.6,3.6c0.1,0.2,0.3,0.5,0.5,0.8c3.3,6.2,2.2,10.9-3.5,14.3c-3.5,0.4-6.3-0.7-8.5-3.4
			C44.005,63.912,40.405,64.012,36.805,61.612z"/>
		<path style="fill:#3172A1;" d="M38.605,49.412c-0.3,0-0.4,0-0.4,0.1c-0.1,1.8,0.4,3.6,1.5,5.2c0,0.1,0,0.1,0.1,0.1
			c-1.2,1-2.2,2-3.1,3.2c1.2-0.5,2.6-1,4-1.7c0.4,1.1,0.8,2.2,1.4,3.3c0.6,0.7,1.2,0.7,1.8-0.1c0-0.1-0.1-0.2-0.1-0.4
			c-0.5-1.2-1.1-2.4-1.6-3.6c0.3-0.2,0.7-0.4,1.1-0.6c3-1.6,4-3.2,3-4.7c-0.1,0.1-0.2,0.1-0.3,0.2c-1.8,1-3.4,2.1-4.8,3.2
			C40.405,52.212,39.505,50.712,38.605,49.412z"/>
		<path style="fill:#3172A1;" d="M50.705,51.612c0.6,1.4,1.3,2.7,2.1,3.7c-1.4,1.3-2.7,2.6-3.6,4.2c0.9,0.4,1.9,0.3,3.1-0.5
			c0.8-0.6,1.5-1.2,2.1-1.8c1,0.9,2,1.6,3,2.2c0-0.1,0-0.3,0-0.4c-0.6-0.9-1.3-1.9-1.9-2.8c1.2-1.3,2.1-2.6,2.6-3.8
			c-0.3-0.1-0.6-0.1-0.8,0c-1.2,0.6-2.3,1.3-3.3,2c-0.9-1-1.9-2-2.9-2.9L50.705,51.612z"/>
		<path style="fill:#3172A1;" d="M52.405,80.912c1.6,0.5,3.2,0.6,4.8,0.2c5-1.1,7-3.5,5.8-7.2c1,0.2,2,0.5,2.9,0.8
			c0-0.1-0.1-0.2-0.1-0.2c-1-0.7-2.1-1.3-3.2-1.8c-0.2-0.3-0.4-0.6-0.5-1c-0.1,0-0.2,0.1-0.2,0.1c-0.2,0.2-0.3,0.3-0.4,0.5
			c-3-1.1-6.2-1.4-9.7-0.9c-3,0.6-5.8,1.7-8.5,3.4c-1.3,0.9-2.1,1.9-2.5,3.1c0.5,0.6,1.1,0.6,1.7,0c1.9-1.7,3.9-2.9,6.3-3.5
			C48.805,77.012,50.105,79.112,52.405,80.912z M57.105,76.712c0-0.1,0.1-0.2,0.1-0.3c-0.2-1.1-0.5-2.2-0.9-3.1
			c1.6-0.1,3.3,0,4.9,0.3c0,0.5,0.3,1.1,0.9,1.8c-0.1,0.1-0.2,0.2-0.2,0.3c-0.3,0.4-0.5,0.9-0.5,1.5c-0.6,0.8-1.3,1.3-2.1,1.8
			c-2.1,1.2-4.1,1.1-5.8-0.5c-1.7-1.5-3-2.9-3.9-4.3c1.8-0.5,3.6-0.8,5.4-0.9C55.005,75.012,55.705,76.112,57.105,76.712z"/>
		<path d="M40.505,38.812c0,0,0,0,0.1,0c-0.1-0.1-0.1-0.2-0.1-0.2V38.812z"/>
		<path style="fill:#009659;" d="M58.005,40.012c0-0.1,0-0.1,0.1-0.1h-0.3L58.005,40.012z"/>
		<path d="M57.805,39.912c0,0.1,0,0.3,0.1,0.5c0-0.1,0.1-0.3,0.1-0.4L57.805,39.912z"/>
		<path d="M72.305,51.912l0.2-0.1c-0.4-0.5-0.8-1-1.2-1.4C71.605,50.912,72.005,51.412,72.305,51.912z"/>
		<path style="fill:#3172A1;" d="M88.305,89.012c-1.3,0.2-2.2,0.8-2.7,2c2.7-0.6,5.2-1.7,7.5-3.5c-0.1-0.1-0.2-0.2-0.2-0.3
			c-0.4-0.1-0.7-0.3-1.1-0.5c0,0.1,0,0.1,0,0.1C90.405,87.212,89.305,87.912,88.305,89.012z"/>
		<path style="fill:#3172A1;" d="M74.905,7.412c-0.1-0.2-0.2-0.3-0.3-0.4c-4-4.9-9.1-7.2-15.3-7c-1.6,0.3-3,1-4.3,2.1
			c-4.6,3.9-4.5,7.7,0.4,11.1c-0.4,0.8-0.5,1.7-0.4,2.7c0.1,0.2,0.1,0.5,0.1,0.7c1.3,0.7,2.6,1,4,0.9c1.1,1.6,2.7,2,4.7,1.4
			c0-0.2,0.1-0.3,0.2-0.4c0-0.4,0.1-0.8,0.2-1.1h0.1c0,0.2,0.2,0.4,0.4,0.6c1,1,2.1,1.1,3.4,0.1c0.2-0.2,0.4-0.5,0.7-0.8
			c0-0.1,0.2-0.2,0.3-0.3c0-0.6,0-1.2,0-1.9c0-0.1,0-0.2,0-0.4c0.7-0.2,1.5-0.4,2.2-0.6c2.5-0.6,4-2.1,4.4-4.5
			c-0.3-0.6-0.5-1.2-0.6-1.8C75.105,7.612,75.005,7.512,74.905,7.412z M62.305,1.712c0.5,0.1,1,0.2,1.5,0.3c3.8,1.3,7,3.5,9.6,6.9
			c0.2,0.4,0.2,0.8,0.1,1.1c-0.2,0.3-0.2,0.5-0.4,0.7c0,0.2-0.1,0.3-0.2,0.4c-0.2,0.3-0.4,0.5-0.7,0.6c-1.1,0.6-2.4,0.8-3.6,0.7
			c-0.1-0.2-0.2-0.2-0.3-0.2c-0.3-0.2-0.7-0.2-1.1,0c0,0-0.1,0-0.1,0.2c0,0.1,0,0.2-0.1,0.3c-0.2,1.2-0.1,2.2,0.2,3.2
			c0.1,0.3,0,0.7-0.4,1c-0.9-0.1-1.5-0.7-1.6-2c-0.2-0.8-0.6-1.2-1.4-1.3c-0.6,0.2-0.9,0.5-0.8,1.1c0,0.7-0.2,1.3-0.3,2
			c-0.1,0.2-0.1,0.4-0.1,0.7c-0.3,0-0.5,0-0.6,0c-0.4-0.2-0.8-0.3-1.1-0.6c-0.2-0.1-0.3-0.2-0.3-0.3c0-0.5,0-1,0-1.5
			c0.1-0.4,0.1-0.8,0.3-1.2c0-0.2,0.1-0.4,0-0.7c-0.5-0.1-1-0.2-1.5-0.2c-0.1,0-0.2,0.1-0.3,0.2c-0.1,0.3-0.2,0.5-0.3,0.8
			c-0.1,0.1-0.1,0.2-0.2,0.4c0,0.1,0,0.2,0,0.3c0,0.2,0,0.3,0,0.4c-0.7,0.1-1.4,0.2-2,0.2v-0.2c0-0.4,0.2-0.8,0.4-1.2
			c0.2-0.3,0.4-0.7,0.4-1.1c0.1-0.2,0.1-0.5,0-0.7c-0.5-0.7-1.1-1.1-1.9-1.2c-0.4-0.1-0.8-0.2-1.2-0.4c-0.1-0.2-0.1-0.3-0.2-0.4
			C52.505,4.612,55.305,1.812,62.305,1.712z"/>
		<path style="fill:#3172A1;" d="M61.505,7.112c0-0.5,0-1-0.2-1.5c-0.2-0.2-0.5-0.5-0.8-0.7c-0.1-0.2-0.3-0.3-0.4-0.4
			c-0.3-0.1-0.6-0.1-0.8-0.2c-0.3,0-0.6-0.1-1-0.1c-0.3,0.2-0.6,0.4-0.9,0.7c-1.3,1.2-1.6,2.6-0.8,4.1c1.6,1,3.2,0.9,4.7-0.4
			C61.505,8.112,61.505,7.612,61.505,7.112z M57.705,6.912c0.3-0.5,0.7-0.9,1.1-1.2c0.2,0,0.3,0.1,0.5,0.1c0.4,0.3,0.7,0.6,0.9,1.1
			c-0.5,1.7-1.4,1.8-2.8,0.3C57.505,7.112,57.605,7.012,57.705,6.912z"/>
		<path style="fill:#3172A1;" d="M62.205,6.612c-0.1,0.5-0.1,1-0.1,1.5c0.1,0.2,0.2,0.3,0.3,0.4c0.6,0.6,1.3,1.1,2,1.5
			c1.2-0.1,2.4-0.2,3.7-0.4c0.1-0.1,0.2-0.2,0.3-0.4c0.2-0.1,0.3-0.2,0.4-0.3c0-0.2,0.2-0.3,0.3-0.4c0-0.5-0.1-1-0.2-1.5
			c-0.1-0.9-0.6-1.7-1.3-2.3c-0.3,0-0.5-0.1-0.8-0.1c-0.8-0.3-1.6-0.4-2.5-0.5c-0.1,0.1-0.3,0.2-0.5,0.3c-0.5,0.2-0.8,0.5-1.2,0.7
			C62.405,5.612,62.305,6.112,62.205,6.612z M63.705,7.212c0-0.1,0.1-0.2,0.1-0.3c0.3-0.6,0.6-0.9,1.1-1.2c0.1,0,0.2,0,0.3,0
			c1.1,0,1.7,0.6,2,1.5C66.605,8.912,65.405,8.912,63.705,7.212z"/>
		<path style="fill:#3172A1;" d="M59.205,26.212c-0.2-0.8-0.6-1.6-1.1-2.2l-0.2-0.1c1.4-0.5,2.4-1,3-1.7c-0.2,0-0.4-0.1-0.6-0.1
			c-0.5-0.1-1-0.2-1.5-0.2c-1,0-1.7,0.5-2,1.3c0,0.3,0.1,0.5,0.2,0.7c0.4,0.8,0.7,1.6,0.8,2.3c-0.4,0.9-1.2,1.3-2.4,1.2
			c-0.2,0.2-0.3,0.5-0.5,0.7c-0.1,0.2-0.2,0.4-0.2,0.6c0.1,0.3,0.2,0.5,0.1,0.7c-0.2,1.1-0.6,2.1-1.1,3.1c0.1,0.1,0.2,0.2,0.2,0.2
			c1.1-0.1,1.9-0.7,2.5-1.7c0-0.4,0-0.8,0-1.1s0-0.5,0-0.8c0-0.1,0.1-0.2,0.1-0.2c0.6-0.2,1.1-0.4,1.7-0.5c0.2-0.2,0.4-0.4,0.6-0.7
			c0.2-0.2,0.4-0.5,0.6-0.7C59.405,26.712,59.305,26.512,59.205,26.212z"/>
		<path style="fill:#3172A1;" d="M66.105,85.912c-0.2-0.2-0.4-0.3-0.6-0.3c-0.4-0.2-0.8-0.3-1.2-0.4c-0.1,0.1-0.3,0.2-0.5,0.2
			c-4.1,0.9-7.7,2.3-10.9,4.2C57.205,89.312,61.605,88.112,66.105,85.912z"/>
		<path style="fill:#3172A1;" d="M67.405,89.712c0.1,0.2,0.1,0.2,0.1,0.2c3.7-0.4,4.9-1.3,3.8-2.5
			C69.805,87.912,68.605,88.712,67.405,89.712z"/>
	</g>
</g>
</svg>
