<?xml version="1.0" encoding="iso-8859-1"?>
<!-- Generator: Adobe Illustrator 12.0.1, SVG Export Plug-In . SVG Version: 6.00 Build 51448)  -->
<!DOCTYPE svg PUBLIC "-//W3C//DTD SVG 1.1//EN" "http://www.w3.org/Graphics/SVG/1.1/DTD/svg11.dtd" [
	<!ENTITY ns_svg "http://www.w3.org/2000/svg">
	<!ENTITY ns_xlink "http://www.w3.org/1999/xlink">
]>
<svg  version="1.1" id="Layer_1" xmlns="&ns_svg;" xmlns:xlink="&ns_xlink;" width="85.276" height="91.078"
	 viewBox="0 0 85.276 91.078" style="overflow:visible;enable-background:new 0 0 85.276 91.078;" xml:space="preserve">
<g>
	<path style="fill:#3172A1;" d="M84.043,68.978c2.9-6.7,0.7-10.3-6.8-10.7c-1.1,0.3-2.3,0.6-3.5,1.2c-1.1,0.6-2.2,1.1-3.3,1.6
		c-0.1-3.3-1.1-6.7-3.1-10.2c-1.8-3.1-3.8-5.8-6.2-8c0,0.1,0,0.1,0,0.1c-0.5-2.3-1.7-4.3-3.6-5.8c-1.1-0.1-2.2-0.1-3.3-0.2
		c-0.5,0.2-1,0.4-1.5,0.6c0-0.1,0-0.1,0-0.1c-5-2-10.8-2.7-17.5-2.1c-0.1-0.1-0.2-0.2-0.3-0.3c-1.8-2.5-4.2-3.8-7.1-3.9
		c0-0.1,0.1-0.2,0.2-0.3c-0.2,0-0.3,0-0.4,0c0,0.1,0,0.2,0,0.3c-0.9,0-1.9,0-2.9,0.2c-2,0.4-4,1.2-5.7,2.4c-1.4,0.9-2.2,2.2-2.7,3.7
		c-1.7-0.4-3.5-0.4-5.4-0.1c-0.3,0-0.6,0.1-0.8,0.4c-0.3,1.8,0,3.5,0.9,5.1c1.2,2,2.6,3.2,4.3,3.8c-2.6,3.4-4,7.1-4.4,11.3
		c-0.3-0.1-0.8-0.1-1.2,0.1c-0.4,0.2-0.9,0.5-1.3,0.9c-0.4,0.3-0.7,0.7-0.8,1.2c0,0.5,0,1,0,1.5c0.4,4.7,2,8.2,5.1,10.4
		c-4.4,0.6-8.2,2.4-11.5,5.4c-0.9,0.9-1.4,2-1.2,3.4c1.6,1.4,3.4,2.6,5.2,3.7c-1.9,0.4-3.3,1.2-4.5,2.6c0.1,0.2,0.2,0.2,0.2,0.2
		c2.4-0.3,4-1.1,4.8-2.6c0.9,0.6,1.9,1.1,2.9,1.5c-1.3,0.6-2.5,1.1-3.8,1.7c0.5,0.2,1,0.4,1.4,0.5c0.1,0,0.2-0.1,0.3-0.1
		c1.8-0.4,2.9-0.9,3.3-1.5c1,0.3,2.1,0.7,3.2,1c-1,0.6-1.8,1.3-2.3,2.3c0.1,0.1,0.2,0.2,0.2,0.1c2.2-0.6,3.5-1.2,4-1.9
		c1.3,0.4,2.7,0.6,4.1,0.8c-0.1,0-0.2,0-0.3,0.1c-0.9,0.2-1.5,0.8-1.9,1.6c0.3,0.2,0.6,0.2,0.7,0.1c1.1-0.5,2.2-1.1,3.6-1.6
		c1.5,0.1,3.1,0.2,4.6,0.1c0.4,0,0.8,0,1.1,0c-0.7,0.4-1.4,0.9-2.1,1.4c0.1,0.2,0.1,0.2,0.1,0.2c1.5-0.7,2.9-1.3,4.3-1.9
		c1.9-0.4,3.4-1,4.5-2c2.1-0.9,4.2-1.8,6.3-2.7c0.3-0.1,0.6-0.1,0.9-0.1c0.3,0.1,0.6,0.2,0.9,0.2c0.7-0.1,1.3-0.1,2-0.1
		c-3.6,1.5-6.7,3.5-9.2,6c0.2,0.1,0.4,0.1,0.6,0c4.9-2.5,9.7-4.8,14.3-6.9c0,0,0,0,0.1,0c-2.3,1.4-4,3.1-5.3,5.1
		c0.5,0.6,1.1,0.7,1.6,0.2c3.9-2.9,7.6-5.5,11.2-7.5c0.2,0.7,0.7,1.4,1.4,2c-2.7,1.4-5.4,3-8.1,4.6c2,0.5,4.1,0.1,6.4-1.3
		c1.3-0.9,2.3-1.6,2.8-2.2c0.2,0.2,0.6,0.5,0.8,0.8c1.4-0.1,2.7-0.2,3.9-0.3c-0.1,0-0.3,0.1-0.5,0.2c-3,1.7-4.7,3.1-5,4.3
		c0.2,0.1,0.3,0.1,0.4,0c3.5-1.6,6.7-3.6,9.7-5.6c1.7-0.6,3.4-1.4,5-2.3c-0.9,0.6-1.7,1.2-2.5,1.9c-0.4,0.2-0.9,0.4-1.3,0.7
		c-1,0.6-1.8,1.4-2.2,2.3c2.3-1,4.9-2.5,7.8-4.4s4.8-3.6,5.6-5.2c-0.1,0.1-0.2,0.2-0.3,0.2c-1.7,0.9-3.3,1.8-4.9,2.8
		c0.6-0.4,1.1-0.9,1.6-1.3c2.8-1.4,4.6-3.2,5.6-5.2c-0.8,0.3-1.5,0.7-2.3,1.2C82.144,72.878,83.144,71.078,84.043,68.978z
		 M83.644,63.878c0.1,0.2,0.1,0.3,0.1,0.4c-0.2,1.6-0.8,3.1-1.6,4.4c-0.5,0.9-0.8,1.8-0.9,2.7c-4.9,7.5-11.8,11.5-20.5,12
		c-0.8-0.8-1.5-1.7-2.1-2.8c-0.1,0-0.1,0-0.1-0.1c0.2-0.1,0.3-0.2,0.5-0.2c-0.3-0.1-0.5-0.1-0.8-0.1c3.6-2.1,6.7-4.9,9.4-8.4
		c1.7-3.1,2.7-6.1,2.8-9.2c3.3-1,7-1.6,11.1-1.9c0,0,0.1,0.1,0.2,0.2C82.644,61.778,83.244,62.778,83.644,63.878z M32.744,34.678
		c0.1,0.1,0.2,0.2,0.2,0.4c0.2,0.2,0.3,0.4,0.5,0.6c0.1,0.2,0.3,0.3,0.4,0.5h0.1c0.2,0.3,0.6,0.6,0.9,0.7c0.1,0.3,0.1,0.6,0,0.8
		c6-1,11.6-0.3,16.7,2.1c0.1-0.2,0.2-0.4,0.2-0.6c0.2,0,0.3-0.1,0.4-0.1c1.5-0.6,3.1-0.8,4.6-0.6c1.2,1,1.9,2.1,2.3,3.3
		c0.2,1,0.4,1.9,0.5,2.9c0,0.1-0.1,0.1-0.2,0.2c0.1,0,0.2,0.1,0.2,0.2c0.1,1.5,0,3-0.4,4.6c0.8,0.6,1.6,1.3,2.6,1.9
		c1,0.8,1.4,1.6,1.1,2.6c-4.8,1.3-8.3,0.2-10.5-3.2c0.2-0.1,0.3-0.1,0.4-0.1c1.7,0.2,3.1-0.2,4.1-1.4c0.2-1.2,0.3-2.4,0.4-3.7
		c0.3-2.1-0.3-3.9-1.7-5.3c-1-0.4-1.8-0.3-2.4,0.3c-0.2,0.1-0.3,0.2-0.4,0.4c-0.2,0.8,0,1.2,0.6,1.3c0.3,2.1,0.8,4.2,1.4,6
		c-1.1,0.3-2.2,0.6-3.2,0.9c-0.4,0.4-0.7,0.7-1,1.2c0,0.1,0,0.2,0,0.3c2.3,5,6.6,6.7,12.7,5c0.7-0.6,1-1.3,0.8-2.2
		c-0.3-2.3-1.5-4.1-3.7-5.3c0.4-0.5,0.6-1.2,0.8-1.9c9.2,9.1,9.9,18.6,2.2,28.5c-0.4,0.3-0.9,0.6-1.3,0.8
		c-5.8,3.6-12.1,5.7-18.8,6.4c-0.2-0.1-0.3-0.1-0.5-0.2c-0.5,0.1-1,0.2-1.4,0.3c-0.1,0-0.2,0-0.3,0c-0.1,0-0.1,0-0.1,0
		c-1.8,0.3-3.5,0.6-5.3,0.9c0.2-1,0.1-2.2-0.1-3.4c-0.9-1-1.9-1.9-2.9-2.8c0.5-0.1,0.9-0.2,1.5-0.5c0,0,0-0.1,0-0.2
		c0.4-0.6,0.6-1.2,0.5-1.9c-0.1-0.1-0.1-0.2-0.2-0.3c-0.3-0.4-0.6-0.8-1.1-1.1c0,0,0,0-0.1,0.1c-0.1,0-0.1,0-0.1,0.1l0,0
		c-1.8-3.4-5-5.1-9.9-5.2c-0.1,0.1-0.3,0.2-0.5,0.3c-0.7,0.2-1.2,0.6-1.6,1.1c-0.2,0.3-0.4,0.5-0.5,0.8c0,0.1,0,0.2,0,0.3
		c0,0.3,0,0.5,0,0.8c0,0.2,0,0.5,0,0.7c0,0.1,0,0.2,0,0.4c-1.2-0.1-2.3-0.2-3.5-0.3c-1.7-1.7-3.1-3.6-4.1-5.7
		c-0.8-3.8-0.7-7.8,0.3-12c0.3-1.5,0.8-3.1,1.3-4.6c0.6-1,1.4-2,2.1-2.9c1.4-1.6,3-3,4.8-4.2c0.2,0,0.3-0.1,0.5-0.2c0,0,0,0,0-0.1
		c1.1-0.7,2.3-1.3,3.6-1.9c-0.1-0.1-0.3-0.2-0.3-0.3c1.2-0.6,2.2-1.4,3-2.4c0-0.1-0.1-0.2-0.2-0.3c-1-0.7-2.1-1.2-3.4-1.5
		c-0.1,0.1-0.4,0.2-0.5,0.2c-2,0.2-3.6,1.2-4.6,3c0,0.5,0,1,0.1,1.5c0,0.4,0.1,0.8,0.2,1.1c-1.6,1.3-3,2.7-4.1,4.2
		c-1.3-1.3-2.5-2.6-3.7-4.2c-0.6-0.7-0.8-1.7-0.8-2.8c0.8-0.1,1.6-0.1,2.4-0.1c0.3,0,0.5,0,0.8,0.1c0.1,0.2,0.3,0.3,0.4,0.4
		c0.2,0.2,0.3,0.3,0.4,0.4c0.6,0,1.1-0.1,1.6-0.2c0.2,0,0.3,0,0.4-0.2c0.2-0.2,0.3-0.5,0.4-0.7
		C21.244,32.978,26.244,31.678,32.744,34.678z M54.444,42.178c0.1,0,0.3,0,0.4,0.1c0.6,1.1,0.9,2.4,0.7,3.7c0,0.8,0,1.5,0,2.3
		c-0.1,0-0.2,0-0.3,0.1c0.2-2.2-0.2-4.2-1.1-6.1C54.244,42.278,54.344,42.278,54.444,42.178z M21.044,40.978
		c-0.2-0.3-0.2-0.5-0.2-0.7c1.1-2.2,2.9-2.9,5.4-2.3c-0.5,0.2-1,0.4-1.5,0.7c0,0-0.1,0-0.1,0.1c0-0.1,0-0.1-0.1-0.2
		c-0.3,0.2-0.7,0.4-1.1,0.7c0,0,0,0-0.1,0l0,0C22.544,39.778,21.744,40.378,21.044,40.978z M10.844,59.478c0,2.2,0.2,4.5,0.8,6.9
		c0.1,0.1,0.2,0.2,0.3,0.4c-0.1,0.4-0.2,0.8-0.3,1.1c0.8,1.9,1.8,3.2,3.2,4h-0.1c-0.1,0-0.2,0-0.4,0.1c-0.1-0.2-0.2-0.3-0.3-0.4
		c-3.1-3.1-4.8-6.7-5-10.9c0.1-0.1,0.2-0.3,0.4-0.4C9.844,59.978,10.344,59.678,10.844,59.478z M2.544,77.878c1.2-0.7,2.5-1.4,3.8-2
		c5.3-2.1,10.8-2.8,16.4-2c0.2,0,0.3-0.1,0.5-0.2s0.4-0.3,0.5-0.6c0.1-0.1,0.1-0.2,0-0.3c-0.2-0.1-0.5-0.2-0.8-0.2c0,0,0,0-0.1,0
		c0-0.3-0.1-0.6-0.5-0.8c-0.2-0.2-0.3-0.4-0.4-0.7c-0.1-0.1-0.1-0.2-0.1-0.3c0.2-0.3,0.4-0.4,0.6-0.4c4.7-0.7,8.3,0.9,11,4.8
		c-0.3,0.4-1,0.6-2.1,0.7c-0.4-0.2-0.7-0.5-1.1-0.6c-1-0.5-2-1-3-1.5c-0.4,0.1-0.9,0.2-1.4,0.3c0,0.1-0.1,0.1-0.2,0.2
		c0.7,1.4,2.1,2.5,4.1,3.3c0.8,0.3,1.6,0.7,2.2,1.3c1.2,1,2,2.2,2.6,3.5c0,0.2,0,0.3-0.1,0.4c0,0.2-0.1,0.4-0.1,0.6
		c-0.1,0-0.2,0-0.2,0c0,0.1,0.1,0.1,0.2,0.1c-0.2,0.4-0.4,0.8-0.6,1.1c-0.1,0.2-0.2,0.3-0.4,0.4c-0.6,0.5-1.4,0.8-2.1,1
		c-11,2.8-20.8,0.9-29.5-5.8c0-0.2,0-0.3,0-0.4c0.2-0.4,0.4-0.9,0.5-1.5C2.344,78.178,2.344,78.078,2.544,77.878z M37.044,84.378
		c-0.6,0.2-1.2,0.5-1.9,0.7c0.2-0.3,0.3-0.7,0.4-1.1C36.044,84.178,36.544,84.278,37.044,84.378z"/>
	<path style="fill:#3172A1;" d="M59.744,16.678c0.5-0.1,1-0.2,1.5-0.2c-3,5.7-5,11.7-6,17.8c0.2-0.1,0.3-0.2,0.3-0.3
		c2.1-6.3,4.1-12.2,6.1-17.6c0.8,0,1.5-0.1,2.2-0.1c1.2-0.1,2.4-0.2,3.5-0.4c-0.7-5-4.2-6.7-10.3-5.2c-1.9-4.2-5.2-5.4-10-3.5
		c-0.3-1.1-0.8-2-1.5-2.8c-1-1.2-2-2.2-3-3.2c-0.4-0.1-0.7-0.3-0.9-0.4c-1.2-0.9-2.7-1-4.4-0.4c-1.3,0.4-2.6,0.8-3.9,1.5
		c-1.7,0.8-2.9,2.1-3.3,3.9c-4.5-0.4-8,1.2-10.5,4.6c-0.4,1.3-0.6,2.7-0.6,4.1c0.1,0.7,0.1,1.3,0.1,1.9c1.1,0.2,2.2,0.3,3.4,0.4
		c-1.2,2.1-1.9,4.2-2.2,6.1c0.1-0.1,0.2-0.2,0.3-0.2c1.6-2.2,2.4-4.1,2.3-5.9c0.1,0,0.2,0,0.3,0c1-0.1,2.1-0.1,3.2-0.1
		c-1,1.9-2,3.8-3.1,5.7c0,0.2,0,0.3,0,0.4c-1.3,3.3-2.2,6.5-2.7,9.7c0.1,0,0.2,0,0.2,0c2.3-5.3,4.2-10.6,5.9-15.8
		c1,0.1,1.9,0.2,2.8,0.2c-1.1,2.2-1.9,4.4-2.4,6.5c0.1,0,0.3-0.1,0.3-0.2c1.6-2.3,2.4-4.4,2.5-6.3c1.4,0.1,2.9,0.2,4.4,0.4
		c-1.2,1.7-2.4,3.6-3.5,5.9c-1.4,3.1-1.8,5.5-1,7c0.1-0.2,0.2-0.3,0.3-0.4c1.8-4.3,3.3-8.5,4.7-12.5c1,0.1,2,0.2,3,0.3
		c0,0,0,0,0.1,0c-1.7,4-2.8,7.9-3.6,11.8c0.1-0.1,0.2-0.2,0.3-0.2c1.6-4,3-7.8,4-11.6c0.6,0,1.2,0,1.8,0c0,0,0,0.1-0.1,0.2
		c0.2,0,0.4,0,0.7,0.1c0-0.1,0-0.2,0-0.3c0.4,0,0.9,0,1.4,0c0.5-0.3,1-0.5,1.5-0.7c-2.2,3.4-3.5,6.4-3.8,9.1c1-2.4,2.4-4.8,4.1-7.3
		c0-0.2,0-0.3,0.1-0.4c0.2-0.5,0.3-1.1,0.2-1.5h0.1c0.2-0.1,0.5-0.1,0.7-0.1c1.1,0,2.2,0.1,3.3,0.2c-2.7,5.5-4.6,11-5.7,16.4
		c0.2-0.1,0.3-0.3,0.4-0.4c2-5.3,3.9-10.6,5.8-16c1.3,0.1,2.5,0.2,3.8,0.4c-2.5,4.5-4.3,9.4-5.3,14.5c0.1,0,0.1,0,0.2-0.1
		c1.9-4.8,3.8-9.6,5.7-14.5c1,0,2.1-0.1,3.2-0.2l0,0c-0.7,1.2-1.2,2.6-1.4,4c-0.8,0.7-1,1.4-0.7,2.3c0.1,0,0.2,0,0.2-0.1
		c1.4-1.9,2-3.9,2.1-6C57.744,16.778,58.644,16.678,59.744,16.678z M55.244,10.778c0.2,0.4,0.3,0.7,0.3,1.1c2.4,0.4,5,0.6,7.7,0.5
		c0.2,0.2,0.4,0.3,0.6,0.4c0.7,0.5,1.4,0.9,2,1.5c-14.6,1.7-29.5,2-44.8,0.7c0-0.1-0.1-0.2-0.1-0.3c-0.1-0.3-0.2-0.6-0.3-0.8
		c-0.1-0.3-0.1-0.5-0.1-0.7c1.4-4.7,5-6.5,10.7-5.5c0.2-0.5,0.4-1,0.5-1.5c0.2-0.5,0.4-1,0.5-1.5c0.1-0.2,0.3-0.3,0.4-0.4
		c1.4-1,2.9-1.8,4.6-2.1c1,0,2,0,3,0c0.1,0.1,0.2,0.2,0.2,0.4c0.1,0.1,0.1,0.2,0.1,0.3c0.1,0.1,0.2,0.3,0.3,0.4
		c0.7,0.2,1.4,0.6,2,0.9c1.8,1.1,2.7,2.7,2.7,4.7c2.9-0.7,5.9-0.6,8.8,0.4c0.2,0.1,0.3,0.3,0.3,0.4
		C54.844,10.078,55.044,10.478,55.244,10.778z"/>
	<path style="fill:#3172A1;" d="M50.144,35.278h-0.1c0,0.1,0,0.2,0,0.2S50.044,35.378,50.144,35.278z"/>
</g>
</svg>
