<?xml version="1.0" encoding="iso-8859-1"?>
<!-- Generator: Adobe Illustrator 12.0.1, SVG Export Plug-In . SVG Version: 6.00 Build 51448)  -->
<!DOCTYPE svg PUBLIC "-//W3C//DTD SVG 1.1//EN" "http://www.w3.org/Graphics/SVG/1.1/DTD/svg11.dtd" [
	<!ENTITY ns_svg "http://www.w3.org/2000/svg">
	<!ENTITY ns_xlink "http://www.w3.org/1999/xlink">
]>
<svg  version="1.1" id="Layer_1" xmlns="&ns_svg;" xmlns:xlink="&ns_xlink;" width="73.5" height="93.1" viewBox="0 0 73.5 93.1"
	 style="overflow:visible;enable-background:new 0 0 73.5 93.1;" xml:space="preserve">
<g>
	<g>
		<path style="fill:#3172A1;" d="M73.5,88.6c-0.1,0.1-0.3,0.1-0.5,0.1c-2,0.4-3.8,1.2-5.5,2.4c0.1,0.2,0.1,0.2,0.1,0.2
			C69.9,91.1,71.9,90.2,73.5,88.6z"/>
		<path style="fill:#3172A1;" d="M63.9,0.1c-0.7,0.1-1.2,0.6-1.5,1.4c0,0.2-0.1,0.5-0.2,0.8c0,0.7,0.1,1.5,0,2.2
			c0,0.5,0.2,0.8,0.7,1.1c-1.5-0.2-3-0.3-4.5-0.3c-3.6,0.2-6.9,1.5-9.7,3.8c-0.7,0.7-1.5,1.3-2.3,1.9c0,0.2,0,0.3,0,0.4
			s0,0.2-0.1,0.3c0,0.1,0,0.1,0,0.1c-0.1,0-0.2,0-0.3-0.1c0,0.2,0,0.3,0.1,0.4c-3.3-1.2-6.8-1.7-10.4-1.4c-0.4,0.3-0.8,0.4-1.3,0.6
			c0-0.2,0-0.3,0-0.5c-0.3,0.2-0.6,0.3-0.8,0.4c-3.1-4.8-7.8-6.8-14.2-6.1c-1.8,0.4-3.6,1-5.3,2c-0.2,0.1-0.5,0.3-0.8,0.4
			C11.9,5.6,9.9,4.8,7.4,5c-0.8,0.8-1,1.8-0.7,3.3c1.1,4.5,3.8,7.4,8.2,8.7c0.7-0.2,1.2-0.6,1.7-1c0.2-0.1,0.3-0.2,0.4-0.4
			c0.3-1,0.3-2.1,0-3.1c-0.4-1.4-1.1-2.1-1.9-2v-0.1c0.3-0.1,0.6-0.2,0.9-0.2c1.2,0.6,2.2,1.5,3.2,2.4c-0.2,0.2-0.3,0.3-0.4,0.4
			c-0.5,0.5-1,1-1.4,1.6c-0.1,0.1-0.1,0.2-0.1,0.3c0.6,0.6,1.4,0.9,2.5,0.9C19,17,17.9,18,16.7,18.9c0.1,0.2,0.3,0.4,0.6,0.5
			c-4.3,4.4-6.5,10.2-6.8,17.5c0,2.1,0.2,4.2,0.7,6.1c1.4,5.1,4.1,8.9,8,11.7c-0.5,0.5-1,1.1-1.4,1.8c0,0.3-0.1,0.5-0.1,0.7
			c-0.6,2.1-0.6,4.2-0.3,6.3c-1.9,1.4-3.6,3.2-4.9,5.4c-2.6,4.3-3.2,8.3-1.7,12c0.5,1.7,1.4,3.3,2.7,4.9c1-0.1,1.9-0.2,2.8-0.5
			c3.8-1.1,6.9-2.7,9.2-4.8c2.5-2.2,4.3-4.8,5.4-8.1c1,3.9,3.4,7.2,7.1,9.7c1.4,0.5,2.8,0.3,4-0.5c0.2-0.1,0.3-0.2,0.4-0.3
			c2.9-2.8,4-5.6,3.4-8.4c3.9,6.8,9.8,10.8,17.6,12.1c0.2-0.2,0.4-0.5,0.5-0.8c0-0.2,0.1-0.4,0.1-0.7c0.2-0.1,0.3-0.3,0.4-0.4
			c0.1-0.1,0.2-0.2,0.3-0.3c-0.1-0.3-0.1-0.5-0.1-0.8c0-0.2,0-0.5,0.1-0.7c-0.1-0.2-0.1-0.3-0.1-0.4c-0.4-3.5-1.2-6.7-2.4-9.6
			c-0.8-1.9-1.8-3.6-2.8-5.2c-1.3-1.8-2.7-3.4-4.2-4.9c0.1-0.4,0.2-0.9,0.3-1.3c0-0.1,0-0.2,0-0.4c0.2-1.5,0-2.9-0.3-4.2
			c0.2-0.2,0.4-0.3,0.6-0.4c0.2-0.1,0.4-0.2,0.6-0.3c0,0,0,0,0.1,0.1c0.4-0.2,0.8-0.4,1.3-0.5c-0.1-0.1-0.2-0.2-0.2-0.3
			c8.1-4.9,11.2-12.4,9.5-22.3c-0.5-2.5-1.2-4.7-2.4-6.8c-1.1-1.9-2.3-3.7-3.8-5.2c0.1,0,0.2,0,0.2,0c0.3,0.1,0.7,0.2,1.1,0.3
			c-0.3-0.3-0.5-0.5-0.8-0.7c0-0.1,0-0.1-0.1-0.1c0-0.3-0.2-0.5-0.4-0.7c-0.4-0.2-0.6-0.5-0.8-0.8l-0.2-0.1c-0.2-0.5-0.5-1-0.5-1.6
			c1.6-0.3,3-0.4,4.4-0.5c-0.2-0.3-0.4-0.5-0.6-0.7c-1.3-1.1-1.9-2.2-2-3.4c0-0.2,0.1-0.2,0.1-0.3c1-0.4,1.6-0.8,2-1.3
			c0.5,1.4,1.4,2.6,2.7,3.6c0.9-0.2,2-0.3,2.9-0.4c0.2-0.1,0.3-0.3,0.3-0.4c2-6.1,0.2-10.3-5.3-12.5C63.9,0.1,63.9,0.1,63.9,0.1z
			 M64.1,2.2c0.3-0.2,0.8-0.4,1.2-0.6c0.6,0.6,1.3,1.3,1.8,2c1.4,2.1,2,4.4,1.7,6.9c0,0.6-0.3,1-0.9,1.2c-0.2,0-0.5,0.1-0.7,0.2
			c-0.7-0.3-1.1-0.7-1.3-1.4c-0.5-2-1.3-2.9-2.6-2.9c-0.1,0.2-0.1,0.3-0.1,0.4c-1.1-0.1-2.2-0.2-3.3-0.2c-3,0.4-5.6,1.5-8.1,3.2
			c-1.2,0.7-1.8,1.7-1.9,3c-0.2,0.1-0.4,0.3-0.6,0.4c2.1,0.6,4,1.4,5.9,2.3c0.4,0.2,0.7,0.3,1.1,0.4c0.7,0.6,1.5,1.2,2.3,1.7
			c1.4,1,2.6,2.2,3.4,3.6c0.2,0.2,0.2,0.5,0.3,0.7l-0.2,0.2c2.4,3.5,3.7,7.9,3.7,13.3c0,4.3-1.5,7.9-4.5,11C52,57.4,40.2,60,26,55.6
			c-3.9-1.2-7-3.4-9.5-6.5c-5.2-6.5-6.1-13.9-2.6-22c0.1-0.1,0.2-0.2,0.4-0.3c0.1-0.2,0.2-0.3,0.4-0.4c0-0.1,0.1-0.3,0.2-0.4
			c0-0.1,0-0.2,0-0.4c0-0.1,0-0.2,0.1-0.3c0-0.2,0.1-0.3,0.2-0.4c0.8-0.7,1.5-1.5,2.1-2.4c3-4.4,6.9-7.3,11.7-8.7v-0.1
			c0-0.2,0-0.3,0-0.5c0.2,0,0.3,0,0.3,0c0.4,0,0.8,0,1.1,0.1c-0.1-0.2-0.2-0.3-0.3-0.3c-0.2-0.1-0.4-0.2-0.6-0.3c0-0.1,0-0.1,0-0.2
			c0-0.1,0-0.2-0.1-0.3c-2.2-3-5.4-4.2-9.5-3.6c-1.2-0.1-2.3,0.1-3.1,0.5c-0.2-0.1-0.5-0.2-0.9-0.2V9c-1.1,0.1-1.5,0.7-1.2,1.6
			c-0.2,0-0.4,0.1-0.5,0.2c0.3,1.1,0.7,2.2,1.2,3.3c0.3,0.4,0.1,0.8-0.5,1.2c-1.5-0.3-2.9-1.2-4-2.7c-1.2-1.7-2.1-3.5-2.7-5.5
			c0.4-0.6,1-0.6,1.9,0.1c0.7,0.6,1.4,0.9,2.1,1c0,0.1,0,0.1,0,0.2c0.1,0.1,0.1,0.2,0.2,0.4c0.1,0.1,0.2,0.2,0.4,0.3
			c7.7-3.6,14.5-2.8,20.4,2.3c-0.5,0.2-1.1,0.4-1.7,0.5c0,0,0,0-0.1,0.1c-0.1,0.1-0.1,0.2-0.1,0.4c0,0.1,0,0.2,0.1,0.3
			c0.2,0.2,0.4,0.3,0.5,0.3c0.2,0.1,0.3,0,0.4-0.1c0.1,0,0.2-0.1,0.3-0.2c0.2-0.1,0.3-0.2,0.6-0.2c0.8,0,1.6,0,2.5,0.1
			c4,0.1,7.4,0.3,10.4,0.4c0,0,0.1,0,0.2,0.1c0.1,0,0.1,0,0.1,0c0.1,0,0.1,0,0.1-0.1c0,0,0,0,0.1,0l0,0c0.4,0,0.8,0,1.2,0
			c-0.1-0.1-0.1-0.2-0.2-0.2c-0.2-0.1-0.4-0.2-0.6-0.3c0.8-0.7,1.6-1.5,2.5-2.2c4-2.9,8.6-4.4,13.9-4.5c0-0.1-0.1-0.2-0.2-0.2
			c0.9-0.2,1-0.7,0.5-1.7c-0.1-0.2-0.2-0.4-0.2-0.6C63.6,2.8,63.7,2.5,64.1,2.2z M63.2,8.4L63.2,8.4c-0.8,0.3-1.5,0.7-2.3,1.1
			c-0.1,0.3-0.3,0.5-0.5,0.8c-0.5,0.5-0.6,1.1-0.5,1.8c0,0.2,0,0.3,0.1,0.3c0.4,0.3,0.6,0.7,0.9,1.1c-0.8-0.6-1.7-1.2-2.7-1.6
			c-1.9-0.4-3.4-0.3-4.5,0.3C56.4,10,59.6,8.7,63.2,8.4z M58.4,15.1c0,0.4,0,0.8,0,1.2v0.1c-0.1-0.1-0.3-0.2-0.5-0.3
			c0.1,0.4,0.3,0.8,0.4,1.1c-1.6-1.3-3.4-2.4-5.4-3.3c2.4-1.2,4.9-1.2,7.5-0.1C59.8,14.1,59.1,14.6,58.4,15.1z M52.2,13.7
			c-0.1-0.1-0.1-0.1-0.2-0.1c0.1-0.1,0.2-0.2,0.3-0.2c0,0,0.1,0,0.1-0.1C52.3,13.4,52.2,13.5,52.2,13.7z M21,12.5
			c-0.1,0-0.3,0-0.4,0.1c-0.1-0.3-0.1-0.6-0.1-1c0-0.1,0-0.2,0-0.3c0-0.2-0.1-0.3-0.2-0.3c-0.7-0.6-1.5-1-2.4-1.2
			c3.2-0.4,6.1,0.3,9,2.1c-1.1-0.2-2.3-0.3-3.5-0.1C22.8,12.1,22,12.3,21,12.5z M20,13.9c0.1-0.1,0.1-0.1,0.2-0.1
			c2.2-0.6,4.5-0.8,6.6-0.8c-1.8,0.8-3.4,1.6-4.9,2.6v-0.1c0-0.1-0.1-0.2-0.2-0.3c0-0.1-0.1-0.2-0.2-0.3c0.1-0.1,0.1-0.2,0.2-0.4
			c-0.2,0.1-0.3,0.1-0.5,0.2c-0.3-0.3-0.8-0.5-1.2-0.7V13.9z M26.1,57.9c0.9,0.2,1.9,0.5,2.8,0.7c0.5,0.1,1,0.2,1.4,0.3
			c-0.5,1-0.5,2.1-0.1,3.3c-1.3-1.5-3.2-2.2-5.8-1.8c-0.1,0-0.4,0.1-0.5,0.1c-0.6,0.2-1,0.5-1.3,1.1c-0.4-1.9-0.4-3.9,0-5.9
			C24,56.3,25.1,57,26.1,57.9z M19.2,66.3c0.1-0.2,0.1-0.3,0.1-0.3c-1-4-0.8-7.7,0.6-11.1c0.8,0.2,1.6,0.4,2.4,0.7
			c-2.4,4.3-1.7,7.7,2,10.2c0-0.1,0-0.1,0-0.2c-0.6-1.2-1.1-2.3-1.5-3.4c0.2,0.1,0.4,0.1,0.5,0.1c2.1-0.4,4,0.1,5.6,1.2
			c0.8,1.8,1,3.6,0.6,5.6c-0.3,1.7-0.7,3.2-1.2,4.5c-1.3,2.7-3.1,5.1-5.4,7.3c-2.1,1.5-4.8,2.4-7.9,2.8c-0.2,0-0.4-0.1-0.6-0.2
			c-1.3-1.6-2.1-3.3-2.4-5c0-2.3,0.4-4.6,1.1-6.7c0.6-1.1,1.4-2.2,2.3-3.2c1.2-1.3,2-2.5,2.4-3.4C17.9,65.9,18.3,66.3,19.2,66.3z
			 M31.1,63.5c-0.1-0.3-0.3-0.7-0.6-0.9c0.1-0.1,0.1-0.2,0.1-0.2c0.4-1.2,0.6-2.2,0.8-3.3c0.7,0.2,1.4,0.4,2,0.6c0.8,0,1.5,0,2.2,0
			c0-0.1,0-0.2,0.1-0.3c2.4,0.1,4.9,0,7.3-0.3l0,0c0.2,0.1,0.4,0.2,0.5,0.3c0.2-0.2,0.4-0.3,0.6-0.4c-0.1,0.1-0.1,0.2,0,0.3
			c-0.2,0.8-0.2,1.4,0.1,1.7c-0.3,0.5-0.4,1-0.3,1.3c-0.2,0.2-0.4,0.5-0.5,0.8c-0.3,0.3-0.5,0.6-0.7,1.1c0.1,0,0.2,0,0.4,0
			c-0.2,1.7,0.1,3.5,0.8,5.2c0.4,0.7,0.7,1.5,1.1,2.2c-0.4,4.4-2.5,7.6-6.5,9.5c-0.1,0-0.2-0.1-0.3-0.2c-3.3-2.8-5.6-6.1-6.9-9.9
			c0-0.3,0-0.5,0-0.7c0-0.4-0.1-0.7-0.2-0.9c0.3-1.7,0.3-3.6,0.2-5.5C31.2,63.8,31.2,63.7,31.1,63.5z M54.3,55.7
			c0-0.1,0-0.1,0.1-0.1c0,0.1,0,0.1,0,0.1C54.3,55.7,54.3,55.7,54.3,55.7z M53.7,55.9c0.1,0.1,0.2,0.2,0.2,0.3
			c0.2-0.1,0.3-0.2,0.5-0.3c0,1.7-0.2,3.3-0.6,4.9c-0.2,0-0.3,0.1-0.1,0.4h0.1c-0.2,0.7-0.5,1.4-0.8,2.1c0.7-0.3,1.2-0.6,1.6-1.1
			c1.5,1.6,2.7,3.3,3.8,5.2c2.3,4.4,3.9,9.3,4.8,14.6c-0.2,0.3-0.3,0.5-0.3,0.8c0,0.4-0.1,0.8-0.5,1.1c-7.6-2.2-13-6.8-16.4-13.8
			c-0.5-1.4-0.9-2.9-1.2-4.4c0.1,0,0.1-0.1,0.1-0.2c0-0.1,0-0.2,0-0.3c-0.5-0.8-0.4-1.4,0.4-1.7c1.8-1,3.4-1.8,4.7-2.5
			c-0.3,0.6-0.5,1.1-0.8,1.7c1.8-0.9,2.9-2.5,3.2-4.9c0-0.2,0-0.3-0.1-0.4c-0.1-0.2-0.2-0.5-0.3-0.7C52.6,56.4,53.2,56.2,53.7,55.9z
			 M44.9,58.6c0.5-0.2,1-0.3,1.5-0.3c0.1,0,0.2,0,0.3,0.1c1.5-0.4,3-0.8,4.4-1.4c-0.1,1.1-0.4,2.2-0.8,3.2c-0.8,0-1.6,0-2.4,0
			c-0.8,0.1-1.6,0.4-2.4,0.8v-0.1C45.6,60,45.4,59.2,44.9,58.6z"/>
		<path style="fill:#3172A1;" d="M38.4,15.9c-0.4-0.4-0.9-0.7-1.5-1.2c-0.1-0.1-0.3-0.2-0.5-0.3c-1.6-0.1-3.2-0.1-4.7-0.2
			c-3.4,0.8-5.8,2.8-7.2,6c-2.9,6.8-2,11.7,2.7,14.7c1.9,0.8,3.9,1.4,5.8,1.8c1.1-0.3,2.2-0.6,3.4-1c0.8-0.2,1.5-0.7,2-1.3
			c0.7,0.9,1.7,1.6,2.9,2c1.9,0.7,3.7,0.6,5.5-0.2c6.5-2.9,8.4-7.8,5.6-14.7c-0.9-1.2-1.9-2.3-3-3.4C46.2,15.1,42.5,14.4,38.4,15.9z
			 M38,18c0.2,0.3,0.4,0.5,0.7,0.7c0.5,0,0.9-0.3,1.2-0.8c0.2-0.3,0.5-0.7,0.9-0.9c3-0.2,5.6,0.7,7.9,2.6c0.2,0.3,0.4,0.5,0.6,0.8
			c4,5.7,3.4,10.6-1.9,14.6c-3.4,0.8-6.3,0.1-8.7-2.4c-3.4,2.8-7,3.3-10.8,1.4c-0.8-0.4-1.3-0.9-1.6-1.5c-3.6-7.5-1.7-13.1,5.9-16.8
			c2.2-0.6,4-0.2,5.6,1.3C37.8,17.4,37.9,17.7,38,18z"/>
		<path style="fill:#3172A1;" d="M34.2,21.6c-0.8,0-1.5,0-2.3-0.1c-0.6,0.3-1.2,0.6-1.7,1.3c-0.6,0.6-1.2,1.3-1.5,2.1
			c0,0.7,0,1.5-0.1,2.2c-0.1,1,0.4,1.3,1.3,1c0.3-0.6,0.4-1.2,0.4-1.8c0-1.5,0.7-2.5,2.1-3c0.8-0.2,1.4,0,1.8,0.7
			c0.1,0.1,0.2,0.3,0.3,0.4c0.1,0.7,0.1,1.4,0.1,1.9c0,1.6,0.6,2.5,1.8,2.5c0.3-0.5,0.4-1.2,0.4-1.9C36.9,24.7,36,22.9,34.2,21.6z"
			/>
		<path style="fill:#3172A1;" d="M45.2,22.1c-1,0-1.9,0-2.8-0.1c0,0.1,0,0.1,0,0.1c-0.7,0.2-1.2,0.7-1.6,1.3c0,0.1-0.1,0.2-0.1,0.4
			c-0.1,1-0.1,2-0.2,3c0,1,0.3,1.5,1.2,1.5c0.4-0.9,0.5-1.9,0.4-3c-0.1-0.5,0.1-0.9,0.4-1.2c0.7-0.1,1.3-0.1,1.9-0.1
			c0.1,0,0.2,0,0.4,0.1c0.6,0.7,1,1.4,1,2.3c0,1.1,0.6,1.6,1.6,1.4c0.3-0.9,0.3-1.7,0-2.5C47,24,46.2,22.9,45.2,22.1z"/>
		<path style="fill:#3172A1;" d="M44.4,46.9c-0.1,0-0.1,0.1-0.1,0.2c-2.4-1.1-5-1.4-7.9-0.8c-2.3,0.5-4.5,1.6-6.6,3
			c-0.1,0.1-0.3,0.3-0.3,0.4c-4-1.8-7-5.3-9.2-10.6c-1.4-3.5-2.7-6.2-3.8-8c0.3,3.4,1.1,6.6,2.4,9.8c1.6,2.8,3.5,5.3,5.9,7.4
			c1.2,1,2.4,1.9,3.7,2.6c1.1,0.6,2.3,1.1,3.5,1.4c0.1,0,0.3,0,0.4,0c1,0,1.7,0.2,2.3,0.6c1.3,0.1,2.6,0.1,4,0
			c0.9-0.1,1.9-0.3,3-0.5C53.8,49.5,60,42.3,60.2,30.8c0.3-1,0.2-2-0.3-2.9c-4.5,7.4-11.3,11.3-20.5,11.7c-7.5,0.3-13.9-1.6-19-5.7
			c-1.3-1.1-2.6-2.4-3.9-3.8c-0.3,0-0.4,0.2-0.1,0.5c0.6,0.9,1.3,1.7,2,2.4c0.9,1.2,2,2.2,3.4,3.1c12.2,7.7,24,7.1,35.4-1.7
			c0.2-0.2,0.4-0.4,0.6-0.5c-0.4,0.9-0.6,1.8-0.8,2.9c-1.1,5.7-4.3,9.8-9.6,12.2C46.5,48,45.6,47.3,44.4,46.9z M30.9,50.3
			c0.1-0.1,0.2-0.1,0.4-0.2c0.1-0.4,0.5-0.8,1.1-1c4.6-1.5,8.7-1.8,12.4-0.8c0.4,0.5,0.9,0.9,1.4,1.1c-0.5,0.2-1,0.4-1.5,0.5
			C39.3,51.5,34.7,51.7,30.9,50.3L30.9,50.3z"/>
		<path style="fill:#3172A1;" d="M34.7,55.9c-0.6-0.4-1.3-0.6-2.3-0.6c-0.1,0-0.3,0-0.4,0C32.9,55.6,33.8,55.8,34.7,55.9z"/>
		<path style="fill:#009659;" d="M46.6,13L46.6,13c-0.1,0-0.1,0-0.1,0H46.6z"/>
		<path d="M46.5,13c0,0.1,0,0.1-0.1,0.1c0,0,0,0-0.1,0c0.1,0.1,0.1,0.2,0.1,0.4c0.1-0.2,0.1-0.3,0.2-0.5H46.5z"/>
		<path d="M62.1,23.3l0.2-0.2c-0.5-0.4-0.9-0.8-1.4-1.2C61.3,22.3,61.7,22.8,62.1,23.3z"/>
		<path d="M29,13.8L29,13.8v-0.1V13.8z"/>
		<path style="fill:#3172A1;" d="M10.2,86.9c-0.1-0.1-0.1-0.1-0.2-0.2c-1-0.4-2-0.6-3.1-0.4c-0.9,0.5-2,1-3.2,1.5
			C2.2,88.3,1,89.1,0,90.1c0.2,0.5,0.7,0.5,1.4,0.1C4,88.5,6.9,87.3,10.2,86.9z"/>
		<path style="fill:#3172A1;" d="M2.8,92.4c0.1,0.1,0.1,0.2,0.2,0.2c5.1-2,10-4,14.5-6.1c-0.2-0.1-0.4-0.1-0.6-0.2
			c-0.3,0-0.6-0.1-1-0.2c0,0.1,0,0.1,0,0.1C10.7,87.4,6.3,89.5,2.8,92.4z"/>
		<path style="fill:#3172A1;" d="M22.4,87.4c-0.2,0.2-0.5,0.4-1,0.5C17.1,89,13.1,90.7,9.5,93c3.1-0.8,6.4-1.7,10-2.8
			C23.4,89,24.3,88.1,22.4,87.4z"/>
		<path style="fill:#3172A1;" d="M17.5,93.1c4-0.4,8.2-1.4,12.7-2.8c3.7-1.2,5.3-2.4,4.7-3.5c-0.1,0-0.3,0.1-0.5,0.2
			C28.5,88.5,22.9,90.5,17.5,93.1z"/>
		<path style="fill:#3172A1;" d="M37.4,83.9C37.3,84,37.2,84,37,84c-3.7,0.6-7.4,1.6-10.8,3.1c2.5,0.1,5.4-0.2,8.6-0.9
			C38.7,85.3,39.6,84.5,37.4,83.9z"/>
		<path style="fill:#3172A1;" d="M39.8,92c0.1,0.3,0.2,0.4,0.4,0.6c0.4,0.3,0.9,0.4,1.5,0.3l-0.1-0.1c6-1.9,11.9-3.8,17.6-5.9
			c-0.1-0.1-0.2-0.1-0.3-0.2c-0.3-0.1-0.6-0.2-1-0.3c0,0.1-0.2,0.1-0.4,0.2C51.2,87.7,45.3,89.5,39.8,92z"/>
		<path style="fill:#3172A1;" d="M36.2,87.4c0.1-0.1,0.3-0.1,0.5-0.1c2.9-0.9,5.9-1.7,9-2.4c-0.1-0.1-0.1-0.1-0.2-0.2
			c-0.5-0.1-1-0.1-1.6-0.2c-0.1,0.1-0.2,0.1-0.4,0.2C40.5,85.1,38,86,36.2,87.4z"/>
		<path style="fill:#3172A1;" d="M50,92.1c0.1,0.2,0.1,0.2,0.1,0.2c5.2-1.4,10.3-3.1,15.6-4.9c-0.1-0.1-0.2-0.2-0.3-0.2
			c-0.6-0.2-1.3-0.4-2-0.4c-0.1,0-0.3,0.1-0.5,0.2C58.3,88.2,54.1,90,50,92.1z"/>
		<path style="fill:#3172A1;" d="M42,88.5c3.8-1.2,4.8-2.1,2.9-2.6c-0.1,0.1-0.2,0.1-0.4,0.2c-5.5,1.6-11,3.5-16.3,5.5
			C32.5,91,37.1,90,42,88.5z"/>
		<path style="fill:#3172A1;" d="M69.4,87.6c0,0.1,0,0.1,0,0.1c-4.3,1.2-7.9,2.8-10.7,4.9c2.3,0,4.6-0.4,7-1.2
			C69.1,90.1,70.4,88.9,69.4,87.6z"/>
	</g>
</g>
</svg>
