<?xml version="1.0" encoding="iso-8859-1"?>
<!-- Generator: Adobe Illustrator 12.0.1, SVG Export Plug-In . SVG Version: 6.00 Build 51448)  -->
<!DOCTYPE svg PUBLIC "-//W3C//DTD SVG 1.1//EN" "http://www.w3.org/Graphics/SVG/1.1/DTD/svg11.dtd" [
	<!ENTITY ns_svg "http://www.w3.org/2000/svg">
	<!ENTITY ns_xlink "http://www.w3.org/1999/xlink">
]>
<svg  version="1.1" id="Layer_1" xmlns="&ns_svg;" xmlns:xlink="&ns_xlink;" width="82.8" height="85.582"
	 viewBox="0 0 82.8 85.582" style="overflow:visible;enable-background:new 0 0 82.8 85.582;" xml:space="preserve">
<g>
	<g>
		<path style="fill:#3172A1;" d="M80.1,81.25c0.1-0.1,0.2-0.2,0.3-0.2c0.2-0.2,0.5-0.4,0.7-0.7c0.6-0.1,1.1-0.1,1.7-0.2
			c-0.1-0.1-0.1-0.1-0.2-0.1c-0.3-0.1-0.7-0.1-1.1-0.2c0.3-0.3,0.4-0.7,0.5-1.1c-6.9-4.2-14.6-6.4-23-6.5c0-0.1,0-0.2,0-0.4
			c0.1-2.3-0.5-4.2-1.8-5.7c8.1-4.9,11.2-12.4,9.5-22.3c-0.4-2.4-1.2-4.5-2.2-6.5c0.2,0.2,0.5,0.5,0.8,0.8c-0.1-0.1-0.2-0.2-0.3-0.3
			c-0.4-0.7-0.9-1.4-1.5-2c-0.7-1.3-1.6-2.5-2.6-3.5c0.1-0.1,0.1-0.1,0.1-0.1c0-0.1-0.1-0.2-0.1-0.3c0.2,0.1,0.5,0.1,0.9,0.2
			c-0.3-0.3-0.5-0.5-0.8-0.7c-0.1-0.2-0.2-0.3-0.4-0.4c-0.1-0.1-0.3-0.1-0.6-0.1c-0.4-0.6-0.9-1.1-1.4-1.7c0.9-0.3,2.1-0.7,3.5-1.1
			c-0.2-0.5-0.6-0.9-1.1-1.2c-1.3-0.8-2.2-1.9-2.5-3.3c0.4-0.2,0.7-0.4,1-0.5c0.8-0.1,1.4-0.4,2-0.8c-0.2,0.9,0,1.7,0.4,2.4
			c0.1,0,0.1,0.1,0.1,0.3c0.5,0.6,1.2,0.6,2,0c3.5-2.4,5-5.8,4.6-10.2c-0.1-0.1-0.2-0.1-0.4-0.2c-0.9-0.1-1.8-0.2-2.7-0.3
			c-0.6,0.4-1.2,0.8-1.8,1.5c-0.7,0.7-1.1,1.4-1.3,2.3l0,0c-2.4-0.7-4.9-1.1-7.4-1.1c-0.1,0-0.3,0.1-0.5,0.1c-3.4,0.2-6,1.4-7.7,3.8
			c-0.6,0.8-1,1.6-1,2.4c-0.1,0-0.2-0.1-0.3-0.1c0,0.3,0.1,0.8,0.2,1.1c-3.3-1.2-6.8-1.7-10.4-1.3c-0.4,0.2-0.8,0.3-1.3,0.5
			c0-0.3,0-0.5-0.1-0.8c0-0.1,0-0.2,0-0.2c-0.1,0-0.2,0-0.2,0.1c-0.1-0.1-0.2-0.2-0.2-0.3c-3.7-5.3-8.9-7.5-15.5-6.8
			c-0.2-0.5-0.5-1-1-1.5c-0.4-0.5-0.8-0.8-1.2-1.2c-0.8,0-1.5,0-2.3-0.1c-1.9,1.7-2.3,3.9-1.3,6.8c0.9,2.1,2.3,3.7,4.4,5
			c0.8,0,1.6,0,2.4,0c0.2,0,0.4-0.1,0.5-0.3c0.2-0.8,0.2-1.7,0.2-2.6c-0.1-0.4-0.1-0.8-0.1-1.1c0.2,0,0.4,0.2,0.5,0.3
			c0.2,0.3,0.3,0.5,0.5,0.7c0.4,0.5,0.6,1,0.4,1.6c0,0.1-0.1,0.2-0.2,0.4c-0.8,0.9-1.8,1.8-2.8,2.6c0.6,0.8,1.1,1.3,1.6,1.4
			c-0.8,1.4-1.9,2.6-3.3,3.6c0.1,0.2,0.3,0.4,0.6,0.5c-4.3,4.4-6.5,10.2-6.8,17.5c0,2.1,0.2,4.2,0.7,6.1c1.5,5.2,4.2,9.1,8.3,11.8
			c-1,1.7-1.5,3.6-1.3,5.7c-6.2-0.5-11.6,1.1-16.3,4.7c0,0.2,0,0.3,0,0.4c-0.1,0.8,0,1.6,0.3,2.3c0,0.1,0,0.1,0.1,0.1
			c-0.8,0.3-1.4,0.9-1.9,1.5c1.2,0.1,2.2-0.1,3.2-0.4c0.9,0.1,1.8,0.3,2.6,0.4c-1.3,0.5-2.6,1.2-3.7,2.1c0.1,0.2,0.1,0.2,0.1,0.2
			c2.2-0.5,4.3-1.1,6.6-1.9c1,0.1,2,0.2,2.9,0.3c-1.6,0.4-3.1,1-4.4,1.7c2.5-0.1,5.1-0.6,7.6-1.6c2,0,4-0.1,6.1-0.3
			c-2.3,0.8-4.5,1.5-6.7,2.4c0.2,0,0.4,0,0.7,0c8.4-1.9,16.7-4.1,24.8-6.5c1.6-0.1,3.2-0.2,4.8-0.5c-0.4,0.2-0.9,0.4-1.5,0.5
			c-5.7,1.3-11,3.2-16.1,5.6c6-1.1,12.4-2.8,19-5.2c1.5,0.7,3,1.3,4.5,1.9c-0.8-0.2-1.6-0.4-2.5-0.4c-0.5,0.3-1.1,0.5-2,0.7
			c-3.2,0.3-6.1,1.3-8.7,2.9c0.3,0,0.7-0.1,1.1-0.1c4.4-0.9,8.5-1.8,12.4-2.9c-0.1-0.1-0.1-0.1-0.2-0.2c0.9,0.3,1.7,0.6,2.6,0.8
			c-1.9,0.4-3.4,1.1-4.6,2.1c0.3,0.6,0.7,0.8,1.5,0.7c3.5-0.6,5.3-1.3,5.3-2.2c1.9,0.4,3.7,0.7,5.6,1c-0.1-0.1-0.3-0.1-0.5-0.1
			c-0.9,0.3-2,0.6-3.2,0.9c-0.4,0.1-0.7,0.3-0.7,0.7c0.3,0.7,0.7,0.8,1.3,0.5c1.5-0.9,3.1-1.4,4.9-1.7c-0.1-0.1-0.1-0.1-0.2-0.1
			c-0.3-0.1-0.6-0.1-0.9-0.2c1.5,0.2,3.1,0.2,4.7,0.2c-1.4,0.7-2.5,1.4-3.6,2.2c0.5,0.4,1.1,0.4,1.7,0.2c2.1-0.9,4.4-1.8,6.6-2.6
			C74.1,82.55,77.1,82.05,80.1,81.25z M45.9,25.25h0.3c0.4,0,0.8,0,1.2,0c-0.1-0.1-0.1-0.2-0.2-0.2c-0.3-0.2-0.6-0.3-0.9-0.4
			c0.1-0.3,0.2-0.6,0.3-0.8v-0.1c0.3-0.4,0.6-0.8,0.8-1.2c0.1-0.4,0.3-0.8,0.6-1.2c0.1-0.2,0.2-0.5,0.4-0.7c0.6-0.5,1.4-0.8,2.1-1
			c4.1-1.3,8.2-1.6,12.2-1.1c0.3,0.1,0.6,0,0.9-0.4c0.7-0.9,1.4-1.6,2.4-2.3c0.5,0,0.9,0.1,1.4,0.2v0.1c0.1,0.4,0.2,0.7,0.1,1.1
			c-0.3,3.5-1.9,5.6-4.7,6.4c-0.3-0.6-0.4-1.3-0.3-2.1l0,0l0,0c0-0.1,0-0.1,0-0.2c0-0.1,0-0.2,0-0.3c-4.7-2.4-9-1.7-13,1.8
			c0,0.7-0.1,1.4-0.4,1.9c-0.3,0.5-0.4,0.8-0.3,1.1c-0.2,0.1-0.1,0.3,0.2,0.7h0.1c-0.1,0.1-0.1,0.1-0.2,0.1c0.1,0.1,0.3,0.1,0.4,0.1
			c4.7,2.4,8.8,5.1,12.5,8.2c0,0.1,0,0.3,0.1,0.4l-0.2,0.2c2.4,3.4,3.7,7.9,3.7,13.3c0,4.3-1.5,7.9-4.5,11
			c-9.3,9.8-21.1,12.4-35.3,8c-3.9-1.2-7-3.4-9.5-6.5c-5.2-6.5-6.1-13.9-2.6-22c0.1-0.1,0.2-0.2,0.4-0.4c0.1-0.1,0.2-0.2,0.4-0.3
			c0-0.2,0.1-0.3,0.2-0.4c0-0.1,0-0.2,0-0.4c0-0.1,0-0.2,0.1-0.3c0-0.2,0.1-0.3,0.2-0.4c0.8-0.7,1.5-1.5,2.1-2.4
			c3-4.4,6.9-7.3,11.7-8.7v-0.1c0-0.3,0-0.6,0-0.8c0.1-0.1,0.2-0.1,0.3-0.3c-0.1,0-0.1-0.1-0.2-0.2c0-0.1,0-0.2,0-0.3
			c-0.1,0-0.1,0-0.2,0c0.1-0.5,0.1-1.1-0.2-1.7c-0.3-0.4-0.5-0.8-0.7-1.1c-0.1-0.2-0.2-0.3-0.4-0.4c-2-1.4-4.2-2.3-6.7-2.6l0,0
			c-0.2,0.1-0.3,0.2-0.5,0.3c-0.4,0.2-0.8,0.4-1.2,0.7c0.2,0,0.4,0,0.7,0c-0.2,0-0.3,0.1-0.5,0.1c0,0,0,0-0.1,0.1
			c-0.1-0.1-0.3-0.1-0.4-0.1c-0.2-0.1-0.4,0-0.6,0.1c0.1,0.8,0.2,1.5,0.4,2.3c0,0.3,0.1,0.7,0.1,1.1c-2.1-0.4-3.6-1.6-4.5-3.6
			c-0.6-1.5-0.7-2.9-0.4-4.3c0-0.8,0.4-1.1,1.4-0.7c0.1,0,0.2,0,0.2,0.1c0.6,0.5,1.1,1.1,1.4,1.9c0.1,0.5,0.4,0.8,0.6,1.1
			c2.4-1,5-1,7.9,0c2.9,0.9,5.5,2.7,7.8,5.5c-0.2,0-0.4,0.1-0.5,0.2c0,0.1,0.1,0.2,0.1,0.2c-0.2,0-0.4,0-0.6,0.1
			c-0.2,0-0.3,0.1-0.5,0.3c-0.1,0.1-0.2,0.2-0.3,0.3c-0.1,0.1-0.1,0.3-0.1,0.4s0,0.2,0.1,0.4c0.2,0.1,0.4,0.2,0.5,0.2
			c0.2,0.1,0.3,0,0.4-0.1c0.1,0,0.2-0.1,0.3-0.1c0.2-0.2,0.3-0.3,0.6-0.3c0.8,0,1.6,0,2.5,0.1C39.4,25.05,42.9,25.15,45.9,25.25z
			 M50.5,24.05c0-0.2,0-0.3,0-0.4c3.1-2.6,6.3-3.4,9.4-2.3c-0.8,0.2-1.5,0.7-2.1,1.3c-0.3,0.4-0.4,0.7-0.4,1.1
			c0.1,0.5,0.1,1,0.1,1.5c0.2,0.2,0.3,0.3,0.5,0.4c0.3,0.5,0.8,0.9,1.2,1.3c-2.4-1-5-1.7-7.7-1.9l0,0c-0.5,0.2-0.9,0.3-1.3,0.4
			c-0.1,0.1-0.1,0.1-0.2,0.1C50.2,25.05,50.4,24.55,50.5,24.05z M56.9,28.35c-0.1,0.4,0,0.8,0.1,1.2c-1.7-1.2-3.6-2.3-5.5-3.2
			c2.3,0.3,4.5,0.7,6.5,1C57.5,27.55,57.2,27.95,56.9,28.35z M22.7,24.75c0.1-0.1,0.1-0.2,0.2-0.2c1.1,0.1,2.2,0.3,3.2,0.7
			c0,0,0.2,0,0.3,0.1c-2.1,0.8-3.9,1.8-5.6,3c0.1-0.3,0.1-0.5,0.2-0.7c0-0.1,0-0.2,0-0.3c0.1-0.2,0.2-0.4,0.3-0.6
			c-0.1-0.3-0.2-0.5-0.3-0.7c-0.1,0-0.2,0-0.3,0c-0.1-0.1-0.2-0.2-0.3-0.3c0.1,0,0.2-0.1,0.3-0.1C21.4,25.55,22.1,25.25,22.7,24.75z
			 M23,23.55c-0.5,0.2-0.9,0.3-1.3,0.5c0.3-0.8,0.4-1.6,0.3-2.5c-0.1-0.2-0.2-0.3-0.2-0.4c-0.5-0.9-1.2-1.4-2.1-1.6
			c3.2,0.2,5.7,1.5,7.6,3.8c0,0.2,0.1,0.3,0.1,0.4c-0.1,0-0.1,0.1-0.1,0.2C26,23.35,24.6,23.25,23,23.55L23,23.55z M28.5,70.85
			c0.8,0.1,1.5,0.3,2.2,0.4c-2.3,0.1-4.3,1-6.1,2.7c3.2-0.4,6.7-0.9,10.5-1.6c0-0.1,0-0.2,0.1-0.3c0-0.2,0-0.3,0.1-0.4
			c2.4,0.1,4.9,0,7.3-0.3l0,0c2.1,1,4.5,1.8,7.3,2.5c-1.6,0.6-2.9,1.6-3.9,2.9c-5.4,0.1-10.9-0.2-16.4-0.9c-1.5-0.9-3.1-1.5-5-1.9
			c-0.6-0.1-1.3-0.2-2.1-0.3c0.5-1.9,0.6-3.4,0.3-4.6C24.6,69.85,26.5,70.35,28.5,70.85z M21.8,68.65c-1,2.2-1,4.4-0.3,6.7
			c3.1,1,6.3,2,9.4,3.3c-9.6,2.9-18.9,2.9-27.9,0.1c4.4-3.3,9.7-4.9,15.8-4.9c0-0.1,0-0.2,0-0.4c0.2-2.1,0.4-4.2,0.8-6
			C20.3,67.85,21,68.25,21.8,68.65z M31.2,76.85c1.6,0.5,3.3,0.9,5,1.1c-1,0.2-2,0.5-3,0.8c-0.1-0.1-0.1-0.2-0.1-0.3
			C32.5,77.85,31.8,77.35,31.2,76.85z M55.4,67.15c0.2-0.1,0.4-0.2,0.6-0.3c1.1,2.2,1.8,4.6,2,7c8.2,0.3,15.4,2,21.6,5.4
			c-11,3.3-21.8,2.7-32.3-1.6c2.4-1.8,5-2.8,8-3.3c0-0.1,0-0.2,0.1-0.4c0.5-2.7,0-4.8-1.5-6C54.4,67.65,54.9,67.45,55.4,67.15z
			 M54.1,72.95c-0.9,0.1-1.8,0.2-2.6,0.4c-2.1-1-4-1.8-5.9-2.6c2.6-0.6,5.2-1.4,7.7-2.6C54.3,69.55,54.5,71.15,54.1,72.95z"/>
		<path d="M46,25.75c0.1-0.2,0.1-0.3,0.2-0.5h-0.3C45.9,25.35,46,25.55,46,25.75z"/>
		<path style="fill:#3172A1;" d="M36.5,32.95c-0.1-0.1-0.3-0.2-0.5-0.3c-1.6-0.1-3.2-0.1-4.7-0.2c-3.4,0.8-5.8,2.8-7.2,6
			c-3.8,8.7-1.2,14.3,7.7,16.8c1.3-0.5,2.7-0.8,4.2-1.3c0.8-0.2,1.5-0.7,2-1.3c0.7,0.9,1.7,1.6,2.9,2c1.9,0.7,3.7,0.6,5.5-0.2
			c6.5-2.9,8.4-7.8,5.6-14.7c-0.9-1.2-1.9-2.3-3-3.4c-3.2-3-6.9-3.7-11-2.2C37.6,33.75,37.1,33.45,36.5,32.95z M31.8,33.95
			c2.2-0.6,4-0.2,5.6,1.3c0,0.4,0.1,0.7,0.2,1c0.1,0.2,0.3,0.4,0.5,0.6c0,1,0,2,0.2,3.3c0.1-0.1,0.2-0.1,0.2-0.2
			c0.2-1,0.3-2.1,0.3-3.1c0.3-0.2,0.5-0.4,0.7-0.7c0.2-0.3,0.5-0.7,0.9-0.9c3-0.2,5.6,0.7,7.9,2.6c0.2,0.3,0.4,0.5,0.6,0.8
			c0.2,0.2,0.4,0.5,0.5,0.8c0,0-0.1,0-0.2,0c0.2,0.2,0.4,0.4,0.6,0.6c0.4,0.7,0.8,1.4,1,2c0.1,0.1,0.1,0.2,0.1,0.3
			c-5.3,1.7-9.5,4.6-12.4,8.7c-0.1,0-0.2-0.1-0.2-0.1c-0.1,0-0.2,0-0.2,0.1c-3.9-3.9-8.4-7.2-13.5-10.2c0.6-1.7,1.8-3.2,3.4-4.5
			c0.1,0.1,0.3,0.2,0.5,0.3c0.1-0.4,0.5-0.7,0.8-0.9c-0.1-0.1-0.2-0.1-0.3-0.2C29.8,35.05,30.7,34.45,31.8,33.95z M25.9,50.75
			c-1.8-3.6-2.3-6.8-1.4-9.5c2.8,2.6,5.7,5,8.7,7.2c-0.2,0.8-0.2,1.6-0.1,2.5c1.2,0.9,2.3,0.9,3.3-0.2c0-0.1,0-0.2,0-0.2
			c0.4,0.2,0.9,0.5,1.3,0.8c-3.2,2.4-6.6,2.7-10.2,0.9C26.7,51.95,26.2,51.45,25.9,50.75z M43.4,50.65c0-0.1,0-0.2,0.1-0.4
			c0.1-0.6,0.1-1.3-0.2-1.8c0.5-0.3,1-0.6,1.5-0.9c2.7-1.6,4.7-3.1,6.3-4.7c1.2,4-0.1,7.4-4.1,10.4c-3.2,0.8-5.9,0.2-8.2-1.9
			c0.4-0.3,0.8-0.6,1.3-0.9c0,0,0,0.1-0.1,0.2C41.2,51.95,42.3,51.95,43.4,50.65z"/>
		<path style="fill:#3172A1;" d="M19.1,58.65c-0.1,0.6-0.1,1.3,0.2,1.9c2.5,5.5,7.3,7.9,14.2,7.1c1.1-0.1,2-0.4,2.7-1
			c3.1-2.3,6.2-3,9.6-2.2c0.1,0,0.3,0,0.5,0c0,0,0.1,0,0.2-0.1c0,0,0,0,0.1-0.1c0,0,0.1-0.1,0.1-0.2c-1.2-1.1-2.6-1.5-4-1.3
			c-0.2-0.4-0.3-0.8-0.4-1.1c0-0.1,0.1-0.1,0.1-0.2h0.1c1.3,0.2,2.7,0.2,4,0.2c2.3,0,3.9-0.8,4.8-2.5l-0.1-0.2
			c-2.4,1.7-5.3,2.3-8.5,1.9c-0.1-0.1-0.3-0.2-0.7-0.3c-0.1,0.1-0.1,0.1-0.1,0.1s0,0,0,0.1c-0.1,0-0.2,0-0.3-0.1
			c-0.5-0.1-1-0.3-1.5-0.5c-5-2.9-10.3-5-15.8-6.1C21.5,54.45,19.8,55.95,19.1,58.65z M20,60.95c0-0.4,0-0.8,0.1-1.1
			c0.1-1.2,0.6-2.1,1.5-2.9c2.5-2,5.4-2,8.4,0c3.6,2.3,7.5,3.7,11.6,4.4c-0.3,0.6-0.2,1.1,0.1,1.6c-0.4,0.1-0.8,0.3-1.2,0.5
			c-1.6,0.8-3.2,1.5-4.9,2C29,67.75,23.8,66.25,20,60.95z"/>
		<path style="fill:#3172A1;" d="M21.1,59.25h-0.2c5,4.3,11.4,5.5,19.4,3.6l0.1-0.1C33.7,63.25,27.3,62.05,21.1,59.25z"/>
		<path style="fill:#009659;" d="M46.2,25.25h-0.3H46.2L46.2,25.25z"/>
		<path d="M61.7,35.55l0.2-0.2c-0.5-0.4-0.9-0.8-1.4-1.2C60.9,34.55,61.3,35.05,61.7,35.55z"/>
		<path d="M28.6,25.95v0.1l0,0V25.95z"/>
		<path style="fill:#3172A1;" d="M80.5,81.65v0.1c-3.1,0.5-5.8,1.7-8.2,3.4c0.2,0.1,0.4,0.1,0.6,0c2.9-1.1,5.9-2.1,8.9-3
			c-0.1-0.1-0.2-0.1-0.2-0.2C81.2,81.85,80.9,81.75,80.5,81.65z"/>
		<path style="fill:#3172A1;" d="M44.9,1.25c-0.8-1-2-1.4-3.4-1.2c-0.6,0-1.3,0.1-1.9,0.3c-1.5,0.3-2.4,1.2-2.7,2.5
			c-0.8,0.4-1.5,0.9-2.2,1.5c-0.3,0.4-0.5,0.9-0.3,1.5c0,0.2,0,0.2,0.1,0.3c1.3,0.7,2.3,1.3,3,1.7c0.1,0.9,0.2,1.8,0.4,2.6
			c0.2,1.4,0.3,2.7,0.2,4.2c0.4,0.4,0.8,0.8,1.2,1.1c0.1,0.2,0.2,0.3,0.3,0.4c0,0.2-0.1,0.5-0.2,0.7c-0.2,0.3-0.3,0.7-0.2,1.2
			c0,0.1,0,0.2,0.1,0.3c0.4,0,0.8-0.5,1.1-1.4c0.1-0.3,0.2-0.6,0.4-0.8c0.2-0.1,0.4-0.1,0.7-0.2c0.2-0.1,0.3-0.3,0.4-0.4
			c0-0.2,0-0.3,0-0.4c-0.5-0.7-1-0.9-1.6-0.6c-0.5,0.4-1,0.2-1.4-0.5c0.3-0.8,1.6-0.9,3.9-0.4c0.3-0.6,0.5-1.2,0.7-1.9
			c0-0.2,0-0.5,0-0.7c-1.4-1-2.7-1-4,0.1c-0.7,0.5-1.1,0.3-1.1-0.8c0-0.2,0-0.5,0-0.7c1.4,0,3.3-0.2,5.7-0.9
			c0.2-0.7,0.5-1.5,0.8-2.2c0.6-1.6,0.8-3.3,0.4-4.9C45.1,1.55,45,1.45,44.9,1.25z M39.4,1.15c0-0.1,0.1-0.1,0.1-0.1
			c1.2-0.4,1.5,0,1,1.3c-0.1,0.2-0.3,0.3-0.5,0.4c-0.7,0.6-1.4,0.4-1.9-0.5c0.2-0.1,0.3-0.2,0.4-0.3C38.8,1.65,39.1,1.35,39.4,1.15z
			 M39.8,3.85c0.2-0.1,0.4-0.1,0.6,0.1c0.7,0.8,0.6,1.3-0.4,1.7c-0.1-0.1-0.2-0.1-0.4-0.2c-0.9-0.1-1.5-0.2-1.7-0.3
			c0-0.1,0-0.2,0.1-0.3C38.2,4.25,38.8,3.95,39.8,3.85z M36.8,4.75c-0.6,1.2-0.6,1.3-0.2,0H36.8z M39.3,7.35c0-0.1,0.1-0.2,0.2-0.3
			c0.4-0.3,0.9-0.7,1.4-0.9c0.5-0.2,1.1-0.2,1.7,0c0.2,0.1,0.3,0.2,0.4,0.3c0.5,0.3,0.4,0.6-0.1,1.1C41.7,8.65,40.5,8.55,39.3,7.35z
			 M41.4,3.75c0-0.4,0.1-0.9,0.1-1.5l0,0c1.5,0,2.3,0.7,2.5,2.1c-0.8,0.8-1.6,0.7-2.5-0.2C41.5,4.05,41.4,3.95,41.4,3.75z
			 M42.5,12.55c-0.1,0.1-0.2,0.2-0.4,0.2c-2.6,0.4-3.1,0.1-1.6-1C42,11.15,42.7,11.35,42.5,12.55z"/>
	</g>
</g>
</svg>
