<?xml version="1.0" encoding="iso-8859-1"?>
<!-- Generator: Adobe Illustrator 12.0.1, SVG Export Plug-In . SVG Version: 6.00 Build 51448)  -->
<!DOCTYPE svg PUBLIC "-//W3C//DTD SVG 1.1//EN" "http://www.w3.org/Graphics/SVG/1.1/DTD/svg11.dtd" [
	<!ENTITY ns_svg "http://www.w3.org/2000/svg">
	<!ENTITY ns_xlink "http://www.w3.org/1999/xlink">
]>
<svg  version="1.1" id="Layer_1" xmlns="&ns_svg;" xmlns:xlink="&ns_xlink;" width="88.6" height="84.431"
	 viewBox="0 0 88.6 84.431" style="overflow:visible;enable-background:new 0 0 88.6 84.431;" xml:space="preserve">
<g>
	<path style="fill:#3172A1;" d="M74.8,20.1c-0.7,0.3-1.4,0.6-2.1,1.1c-0.8,0.5-1.4,1.2-1.7,2c0,0,0,0,0,0.1c-2.2-1.2-4.6-2.1-7-2.6
		c-0.2,0.1-0.5,0.1-0.6,0.2C60,20.3,57.3,21,55.1,23c-0.7,0.7-1.2,1.4-1.4,2.2c-0.1,0-0.2-0.1-0.2-0.2c-0.1,0.4-0.1,0.8-0.1,1.2
		c-3-1.8-6.3-3-9.9-3.3c-0.4,0.1-0.9,0.2-1.4,0.3c0.1-0.3,0.1-0.6,0.1-0.8v-0.2c-0.1,0-0.2,0-0.2,0c-0.1-0.1-0.1-0.2-0.2-0.3
		c-2.6-5.8-7.3-9-13.9-9.5c-0.1-0.7-0.3-1.2-0.7-1.7c-0.3-0.5-0.6-1-1-1.4c-0.7-0.2-1.5-0.4-2.2-0.5c-2.2,1.2-3.1,3.3-2.5,6.3
		c0.4,2.3,1.5,4.2,3.4,5.8c0.7,0.2,1.5,0.3,2.2,0.4c0.3,0.1,0.5,0,0.7-0.1c0.2-0.8,0.5-1.7,0.6-2.6c0.1-0.3,0.1-0.7,0.2-1.1
		c0.1,0.2,0.2,0.4,0.4,0.5c0,0.3,0.1,0.5,0.3,0.8c0.3,0.5,0.4,1.1,0.1,1.6c-0.1,0.1-0.2,0.2-0.2,0.3c-1.1,0.7-2.1,1.4-3.3,2
		c0.4,0.9,0.8,1.5,1.3,1.8c-1.1,1.2-2.4,2.1-3.9,2.8c0.1,0.3,0.3,0.5,0.5,0.6c-5,3.6-8.3,8.9-9.9,15.9c-0.5,2.1-0.6,4.2-0.5,6.2
		c0.2,2.2,0.6,4.1,1.3,6c0.1,0.3,0.3,0.6,0.5,0.9c1.6,2.6,3.4,5,5.3,7.2c-0.3,0.1-0.6,0.2-0.9,0.3c-0.1,0.1-0.2,0.2-0.3,0.3
		c-0.8,0.8-1.5,1.5-2.3,2.3c0,0.7-0.1,1.3-0.2,2c-0.1,1.1-0.1,2,0.3,2.5C11.2,71.2,6,72.8,1.5,76.3c0,0.2,0,0.3,0,0.4
		c-0.1,0.8,0,1.6,0.3,2.3c0,0.1,0,0.1,0.1,0.1C1.1,79.4,0.5,80,0,80.6c1.2,0.1,2.2-0.1,3.2-0.4c0.9,0.1,1.8,0.3,2.6,0.4
		c-1.3,0.5-2.6,1.2-3.7,2.1c0.1,0.2,0.1,0.2,0.1,0.2c2.2-0.5,4.3-1.1,6.6-1.9c1,0.1,2,0.2,2.9,0.3c-1.6,0.4-3.1,1-4.4,1.7
		c2.5-0.1,5.1-0.6,7.6-1.6c2,0,4-0.1,6.1-0.3c-2.3,0.8-4.5,1.5-6.7,2.4c0.2,0,0.4,0,0.7,0c8.4-1.9,16.7-4.1,24.8-6.5
		c1.6-0.1,3.2-0.2,4.8-0.5c-0.4,0.2-0.9,0.4-1.5,0.5c-5.7,1.3-11,3.2-16.1,5.6c6-1.1,12.4-2.8,19-5.2c1.5,0.7,3,1.3,4.5,1.9
		c-0.8-0.2-1.6-0.4-2.5-0.4c-0.5,0.3-1.1,0.5-2,0.7c-3.2,0.3-6.1,1.3-8.7,2.9c0.3,0,0.7-0.1,1.1-0.1c4.4-0.9,8.5-1.8,12.4-2.9
		c-0.1-0.1-0.1-0.1-0.2-0.2c0.9,0.3,1.7,0.6,2.6,0.8c-1.9,0.4-3.4,1.1-4.6,2.1c0.3,0.6,0.7,0.8,1.5,0.7c3.5-0.6,5.3-1.3,5.3-2.2
		c1.9,0.4,3.7,0.7,5.6,1c-0.1-0.1-0.3-0.1-0.5-0.1c-0.9,0.3-2,0.6-3.2,0.9c-0.4,0.1-0.7,0.3-0.7,0.7c0.3,0.7,0.7,0.8,1.3,0.5
		c1.5-0.9,3.1-1.4,4.9-1.7c-0.1-0.1-0.1-0.1-0.2-0.1c-0.3-0.1-0.6-0.1-0.9-0.2c1.5,0.2,3.1,0.2,4.7,0.2c-1.4,0.7-2.5,1.4-3.6,2.2
		c0.5,0.4,1.1,0.4,1.7,0.2c2.1-0.9,4.4-1.8,6.6-2.6c3-0.3,6-0.8,9-1.6c0.1-0.1,0.2-0.2,0.3-0.2c0.2-0.2,0.5-0.4,0.7-0.7
		c0.6-0.1,1.1-0.1,1.7-0.2c-0.1-0.1-0.1-0.1-0.2-0.1c-0.3-0.1-0.7-0.1-1.1-0.2c0.3-0.3,0.4-0.7,0.5-1.1c-5.3-3.3-11.1-5.3-17.4-6.1
		c1.4-0.8,2.4-2.1,2.9-4c-0.2-0.3-0.5-0.5-0.8-0.7c-0.2-0.1-0.3-0.2-0.4-0.3c-0.2-0.1-0.4-0.1-0.6-0.2c-0.9,0-1.9-0.1-2.9-0.1
		c5-3.8,7.5-9.4,7.6-17c0-2.3-0.3-4.6-1-6.8c0.2,0.4,0.4,0.7,0.7,1c-0.1-0.1-0.1-0.2-0.2-0.3c-0.3-0.8-0.7-1.5-1.1-2.3
		c-0.5-1.4-1.2-2.7-1.9-4c0,0,0,0,0.1,0c-0.1-0.1-0.1-0.2-0.1-0.3c0.2,0.1,0.5,0.2,0.9,0.3c-0.2-0.3-0.4-0.5-0.6-0.8
		c-0.2-0.1-0.2-0.3-0.4-0.5c-0.1,0-0.3-0.1-0.5-0.2c-0.3-0.6-0.8-1.2-1.1-1.9c0.9-0.1,2.1-0.3,3.7-0.4c-0.2-0.5-0.5-1-0.9-1.4
		c-1.2-1-1.8-2.3-1.8-3.7c0.3-0.2,0.7-0.2,1.1-0.3c0.7,0,1.3-0.2,2-0.4c-0.4,0.8-0.4,1.7,0,2.4c0,0.1,0.1,0.2,0,0.3
		c0.4,0.7,1.1,0.8,2,0.4c3.9-1.7,6-4.7,6.4-9.1c-0.1-0.2-0.2-0.2-0.3-0.3C76.5,20.6,75.6,20.4,74.8,20.1z M72.2,23.4
		c0.8-0.7,1.7-1.3,2.8-1.7c0.4,0,0.8,0.2,1.3,0.4v0.1c0,0.3,0,0.7-0.1,1.2c-1,3.3-2.9,5.1-5.9,5.3c-0.1-0.7-0.1-1.4,0.1-2.1
		c0,0,0,0,0.1,0c-0.1-0.1-0.1-0.1-0.1-0.1c0-0.1,0-0.1,0.1-0.1c0-0.1,0-0.2,0.1-0.3c-4.2-3.2-8.6-3.4-13.1-0.6
		c-0.2,0.6-0.5,1.2-0.8,1.7c-0.4,0.4-0.5,0.7-0.5,1c-0.2,0.1-0.2,0.3,0.1,0.7V29c0,0-0.1,0-0.2,0c0.2,0.1,0.3,0.2,0.4,0.2v0.1
		c4.2,3.1,7.7,6.6,10.7,10.3c0,0.1,0,0.3,0,0.4L67,40.2c1.8,3.8,2.2,8.4,1.1,13.8c-0.8,4.1-2.9,7.4-6.4,9.9
		c-11,7.8-23.1,8.2-36.2,1.2c-3.5-1.9-6.2-4.6-8-8.1c-4-7.5-3.5-14.8,1.5-22.1c0.2-0.1,0.3-0.2,0.5-0.3c0.1-0.1,0.3-0.2,0.4-0.3
		c0.1-0.1,0.2-0.2,0.3-0.3c0-0.1,0-0.2,0.1-0.4c0-0.1,0.1-0.2,0.1-0.3c0.1-0.2,0.1-0.3,0.3-0.4c0.9-0.5,1.8-1.1,2.5-1.9
		c3.8-3.7,8.1-5.9,13.2-6.3l-0.1-0.2c0.1-0.3,0.2-0.5,0.3-0.7c0-0.1,0.1-0.2,0.2-0.3l-0.1-0.1c0-0.2,0-0.3,0.1-0.4
		c-0.1-0.1-0.2-0.1-0.2,0c0.2-0.6,0.2-1.1,0.1-1.8c-0.2-0.3-0.3-0.8-0.5-1.2c-0.1-0.1-0.2-0.3-0.3-0.4c-1.7-1.7-3.7-3.1-6.1-3.9
		c0,0.1,0,0.1,0,0.1c-0.2,0.1-0.4,0.1-0.5,0.1c-0.5,0.2-0.9,0.3-1.4,0.5c0.2,0.1,0.4,0.1,0.7,0.2c-0.2-0.1-0.3-0.1-0.5,0
		c0,0,0,0-0.1,0c-0.1-0.1-0.3-0.1-0.4-0.2c-0.2,0-0.5,0-0.6,0.1c0,0.7,0,1.5,0,2.3c-0.1,0.3-0.1,0.7-0.2,1.1c-2-0.8-3.2-2.3-3.7-4.5
		c-0.3-1.5-0.1-2.9,0.5-4.2c0-0.8,0.5-1,1.4-0.5c0.1,0.1,0.1,0.1,0.2,0.2c0.5,0.7,0.9,1.4,1,2.1c0.1,0.5,0.2,0.9,0.4,1.2
		c2.5-0.5,5.1,0,7.8,1.5c2.6,1.4,4.9,3.7,6.6,6.8c-0.2,0.1-0.4,0.1-0.6,0.2c0.1,0.1,0.1,0.2,0.2,0.2c-0.3,0-0.5,0-0.7,0
		c-0.2,0-0.3,0.1-0.5,0.2c-0.1,0-0.3,0.1-0.3,0.3c-0.2,0-0.2,0.1-0.3,0.3c0,0.2,0,0.2,0.1,0.4c0.2,0.1,0.3,0.2,0.4,0.3
		c0.2,0.1,0.3,0.1,0.5,0c0.1,0,0.2-0.1,0.3-0.1c0.1-0.1,0.3-0.1,0.6-0.2c0.8,0.2,1.6,0.4,2.4,0.6c4,1,7.4,1.7,10.3,2.4h0.3
		c0.4,0.1,0.8,0.2,1.2,0.3c0-0.2-0.1-0.2-0.1-0.3c-0.3-0.1-0.6-0.3-0.8-0.5c0.1-0.3,0.3-0.5,0.4-0.8l0,0c0.4-0.4,0.7-0.7,1-1.1
		c0.3-0.4,0.5-0.7,0.8-1c0.2-0.2,0.3-0.4,0.6-0.7c0.7-0.3,1.5-0.5,2.2-0.5c4.3-0.5,8.4-0.1,12.2,1.1C71.5,23.9,71.8,23.8,72.2,23.4z
		 M31.3,21.1c0,0.1,0,0.1,0,0.1c-0.5,0-0.9,0-1.3,0.2c0.4-0.8,0.6-1.5,0.7-2.4c0-0.1-0.1-0.3-0.1-0.5c-0.4-0.9-0.9-1.5-1.8-1.9
		c3.1,0.8,5.3,2.5,6.7,5.2c0.1,0.1,0.1,0.2,0.1,0.3c-0.1,0.1-0.1,0.2-0.1,0.3C34.3,21.6,32.9,21.2,31.3,21.1z M34.1,23.4
		c0,0,0.1,0,0.2,0.1c-2.2,0.4-4.2,1.1-6,1.9c0-0.2,0.1-0.4,0.3-0.6c0-0.1,0-0.2,0-0.3c0.2-0.2,0.3-0.4,0.4-0.6
		c0-0.2-0.1-0.5-0.1-0.7c-0.1,0-0.3,0-0.3,0c-0.1-0.2-0.2-0.3-0.3-0.3c0.1-0.1,0.2-0.1,0.3-0.2c0.7,0.1,1.5-0.1,2.2-0.5
		c0.1,0,0.1-0.1,0.2-0.1C32.1,22.4,33.1,22.9,34.1,23.4z M59,27.9c0,0.1,0,0.1,0,0.1c-0.5,0-1,0.1-1.4,0.1c-0.1,0-0.1,0-0.2,0
		c0.3-0.4,0.6-0.9,0.8-1.3c0-0.2,0.1-0.3,0.1-0.4c3.5-2,6.7-2.2,9.7-0.5c-0.9,0.1-1.7,0.4-2.4,0.9c-0.3,0.2-0.5,0.6-0.6,1
		c0,0.5-0.1,1-0.1,1.5c0.1,0.2,0.2,0.3,0.3,0.5c0.3,0.5,0.6,1,1,1.5C64,29.8,61.6,28.7,59,27.9z M65,31.5c-0.5,0.1-1,0.3-1.3,0.7
		c-0.2,0.4-0.2,0.8-0.2,1.2c-1.5-1.5-3-2.9-4.8-4.2C61,30,63,30.7,65,31.5z M22.6,66.5c0-0.3,0-0.5,0-0.7c0.1,0.1,0.3,0.2,0.5,0.3
		c-0.4,0.3-0.7,0.7-1,1.2c-0.6,1.3-0.9,2.7-0.8,4.2c-0.1,0-0.2,0-0.3,0c0.1,0.9,0.2,1.8,0.5,2.7c3.1,1,6.3,2,9.4,3.3
		C21.3,80.4,12,80.4,3,77.6c4.4-3.3,9.7-4.9,15.8-4.9c0-0.1,0-0.2,0-0.4l0,0c0.1,0,0.2,0,0.3-0.1c0-0.2-0.1-0.4-0.2-0.6
		c0-0.1,0-0.3,0-0.4c-0.1-0.1-0.3-0.1-0.5-0.2c-0.3-0.4-0.5-0.9-0.8-1.4c0.4-0.2,0.6-0.6,0.6-1.1c-0.1-0.1-0.1-0.2-0.1-0.4
		c0.2-0.1,0.3-0.2,0.4-0.3c1.7-1.1,2.7-1.9,3.1-2.6c-0.1,0.1-0.1,0.1-0.1,0.1C21.9,65.7,22.2,66.1,22.6,66.5z M23.4,68.1
		c0.7-0.3,1.2-0.5,1.6-0.9c0.9,0.5,1.8,0.9,2.9,1.4c0.6,0.3,1.3,0.5,2,0.8c-0.2-0.1-0.5-0.1-0.8-0.1c0.8,0.2,1.6,0.4,2.4,0.7
		c-1.4,0.2-2.9,0.5-4.4,0.9c-0.1,0.1-0.2,0.2-0.3,0.3c-0.8,0.4-1.5,1-2.2,1.6c0.4,0,0.7,0,1-0.1c0,0.1,0,0.2,0,0.4
		c-0.4-0.1-0.7-0.2-1-0.3c-0.4-0.1-0.8-0.1-1.1-0.2h-0.1c-0.3-0.4-0.5-0.8-0.6-1.2c0-0.5-0.1-1-0.2-1.5c0-0.6,0.2-1.1,0.4-1.5
		C23.1,68.2,23.3,68.1,23.4,68.1z M27.1,72.6c0.3-0.1,0.6-0.2,0.9-0.2c0.9-0.2,1.8-0.3,2.7-0.4c-0.2-0.1-0.4-0.1-0.5-0.2
		c1.2-0.3,2.4-0.5,3.7-0.7c0.6,0.3,1.2,0.5,1.8,0.7c1,0.3,1.5,0.1,1.4-0.6c0.7,0.1,1.4,0.3,2.2,0.3c0.7,0.1,1.5,0.2,2.3,0.2v0.1
		c0,0,0.1,0.1,0.2,0.1c1.2,0.2,2.5,0.3,3.8,0.5c-0.4-0.3-0.7-0.5-1-0.7c1.5,0,2.9-0.1,4.3-0.3c0.2,0.2,0.5,0.4,0.7,0.7
		c-0.2,0-0.5,0.1-0.8,0.2c-0.1,0-0.2,0-0.3,0c0.5,0.2,0.9,0.3,1.4,0.4c-1.6,0.6-2.9,1.6-3.9,2.9c-5.4,0.1-10.9-0.2-16.4-0.9
		c-1-0.6-2-1-3.2-1.4c0.1,0,0.1,0,0.1,0C26.7,73.1,26.9,72.9,27.1,72.6z M33.2,77.6c-0.1-0.1-0.1-0.2-0.1-0.3
		c-0.6-0.6-1.3-1.1-1.9-1.6c1.6,0.5,3.3,0.9,5,1.1C35.2,77,34.2,77.3,33.2,77.6z M62.1,69.2c-0.1-0.1-0.2-0.1-0.4-0.2
		c-0.9-0.1-1.8-0.2-2.7-0.3c-0.1,0.1-0.3,0.2-0.5,0.3c-0.6,0.1-1.1,0.2-1.6,0.5c-0.1,0-0.1,0-0.1-0.1c1.1-0.4,2.2-0.9,3.1-1.4
		c0.3,0.1,0.5,0.1,0.8,0.1c2-0.7,3.8-0.6,5.2,0.4c-1.7,1-3.3,2-4.9,2.7c-0.2-0.1-0.4-0.1-0.5-0.1c-0.3,0.3-0.6,0.5-0.9,0.6
		c-0.2,0.1-0.5,0.2-0.7,0.3l0,0c-0.4,0.1-0.6,0.1-0.9,0.2c0,0.1,0,0.3,0,0.5c8.2,0.3,15.4,2,21.6,5.4c-11,3.3-21.8,2.7-32.3-1.6
		c2.4-1.8,5-2.8,8-3.3c0-0.1,0-0.2,0.1-0.4c0-0.1,0-0.3,0.1-0.4C57.8,71.3,60,70.2,62.1,69.2z M54.9,70c0.2,0,0.5-0.1,0.8-0.2
		c0,0.1,0,0.2,0,0.2c-0.4,0.1-0.8,0.3-1.2,0.6c-0.2,0.2-0.5,0.4-0.7,0.6c-0.1-0.2-0.3-0.5-0.5-0.7C53.8,70.3,54.3,70.2,54.9,70z
		 M53.3,71.9c-0.3,0-0.6,0-0.9,0.1c-0.4-0.4-0.9-0.8-1.3-1c0.5-0.1,1-0.2,1.6-0.4c0.2,0.4,0.3,0.9,0.4,1.2c0.1,0,0.2,0,0.3-0.1
		C53.4,71.8,53.3,71.8,53.3,71.9z"/>
	<path style="fill:#3172A1;" d="M44.1,34.3c-0.4-0.4-0.8-0.8-1.3-1.4c-0.1-0.1-0.3-0.3-0.4-0.4c-1.6-0.4-3.1-0.7-4.6-1
		c-3.5,0.1-6.2,1.6-8.2,4.5c-5.3,7.8-3.9,13.8,4.4,17.9c1.4-0.1,2.9-0.3,4.3-0.5c0.9,0,1.6-0.3,2.3-0.9c0.5,1.1,1.3,1.9,2.5,2.6
		c1.6,0.9,3.4,1.2,5.3,0.8c7-1.6,9.7-6.1,8.4-13.4c-0.8-1.4-1.5-2.7-2.4-3.9C51.8,35.1,48.4,33.6,44.1,34.3z M34.9,34.1
		c0.9-0.4,1.9-0.8,3.1-1.1c2.2-0.2,4,0.6,5.2,2.3c-0.1,0.4-0.1,0.7,0.1,1.1c0,0.2,0.2,0.4,0.3,0.6c-0.2,1-0.4,2-0.4,3.3
		c0.1,0,0.2-0.1,0.3-0.1c0.3-1.1,0.6-2.1,0.8-3.1c0.3,0,0.6-0.2,0.8-0.5c0.3-0.3,0.6-0.6,1.1-0.7c2.9,0.3,5.4,1.7,7.2,4
		c0.2,0.3,0.3,0.6,0.5,0.9c0.1,0.3,0.2,0.6,0.4,0.9c-0.1-0.1-0.2-0.1-0.3-0.1c0.2,0.3,0.4,0.5,0.5,0.8c0.3,0.7,0.5,1.4,0.6,2.1
		c0,0.1,0,0.2,0.1,0.3c-5.6,0.7-10.2,2.7-13.8,6.3c-0.1-0.1-0.2-0.2-0.2-0.3c-0.1,0.1-0.2,0.1-0.3,0.1c-3.1-4.4-6.9-8.6-11.2-12.4
		c0.9-1.6,2.3-2.9,4.1-3.9c0.2,0.1,0.3,0.2,0.4,0.4c0.3-0.3,0.6-0.6,1-0.7C35.1,34.2,35,34.1,34.9,34.1z M29.1,48.4
		c-1.1-3.9-1-7.1,0.4-9.6c2.2,3.1,4.6,5.9,7.2,8.7c-0.4,0.7-0.6,1.5-0.6,2.4c1,1.1,2.1,1.4,3.2,0.5c0.1-0.1,0.1-0.2,0.1-0.3
		c0.3,0.4,0.7,0.7,1.1,1.1c-3.5,1.7-6.9,1.4-10.2-1.1C29.7,49.6,29.2,49,29.1,48.4z M46.6,49.4c0.5-0.2,1.1-0.4,1.6-0.6
		c2.9-1.1,5.3-2.2,7-3.4c0.5,4.1-1.4,7.2-5.9,9.4c-3.3,0.2-5.9-1-7.7-3.5c0.4-0.2,0.9-0.4,1.4-0.5c0,0,0,0.1-0.1,0.1
		c0.9,1.5,2,1.7,3.3,0.6c0.1-0.1,0.1-0.2,0.2-0.2C46.6,50.6,46.7,50,46.6,49.4z"/>
	<path style="fill:#3172A1;" d="M26.8,51.3c-2.8-0.1-4.8,1-5.9,3.5c-0.3,0.6-0.3,1.3-0.1,2c1.4,5.9,5.6,9.1,12.6,9.6
		c1,0.1,2,0,2.8-0.5c3.4-1.7,6.7-1.8,9.8-0.3c0.1,0,0.3,0,0.5,0c0,0,0.1,0,0.2,0c0,0,0.1,0,0.1-0.1c0.1,0,0.1-0.1,0.2-0.1
		c-1-1.3-2.3-2-3.7-2.1c-0.1-0.4-0.2-0.8-0.2-1.2c0,0,0.1,0,0.2-0.1l0,0c1.2,0.4,2.6,0.7,3.9,1c2.3,0.4,4-0.1,5.2-1.6v-0.2
		c-2.8,1.2-5.7,1.2-8.8,0.2c-0.1-0.1-0.2-0.3-0.6-0.3c-0.1,0-0.1,0-0.1,0l-0.1,0.1c-0.1-0.1-0.2-0.1-0.2-0.1
		c-0.5-0.2-0.9-0.5-1.3-0.8C36.9,56.5,32.1,53.5,26.8,51.3z M21.4,57.3c0-0.4,0.1-0.7,0.2-1.1c0.3-1.1,1-1.9,2-2.5
		c3-1.4,5.7-0.9,8.3,1.5c3.2,2.9,6.7,5.1,10.6,6.5c-0.4,0.6-0.5,1.1-0.2,1.6c-0.5,0.1-0.9,0.1-1.3,0.3c-1.7,0.4-3.4,0.8-5.2,1.1
		C28.9,65.6,24.1,63.2,21.4,57.3z"/>
	<path style="fill:#3172A1;" d="M22.8,55.9l-0.2-0.1c4,5.1,10.1,7.5,18.3,7.2l0.1-0.1C34.4,62.1,28.3,59.8,22.8,55.9z"/>
	<path d="M36.4,24.7L36.4,24.7c0-0.1-0.1-0.2-0.1-0.2L36.4,24.7z"/>
	<path style="fill:#009659;" d="M53.7,27.2c0-0.1,0-0.1,0-0.1h-0.3L53.7,27.2z"/>
	<path d="M53.4,27.1c0,0.1,0,0.3,0.1,0.5c0-0.1,0.1-0.3,0.2-0.4L53.4,27.1z"/>
	<path d="M66.1,38.5c0.3,0.6,0.6,1.1,0.9,1.7l0.2-0.2C66.9,39.5,66.5,39,66.1,38.5z"/>
	<path style="fill:#3172A1;" d="M87.9,53.7c0.4-0.7,0.3-1.3-0.1-1.8c-3.4,6-7.3,11.8-11.8,17.5c0-0.2-0.1-0.3-0.1-0.4
		c-0.8-3.2-1.8-5.8-3.1-7.9c-0.2,0.4-0.2,0.8-0.2,1.1c0.3,2.7-0.1,5.2-1.1,7.5c-0.9,0.5-1.8,0.4-2.7-0.1c0,0.6,0.3,1.1,1,1.5
		c0.5,0,1-0.1,1.5-0.1c0.2-0.3,0.5-0.5,0.7-0.9c1.1-2,1.6-4.3,1.5-6.6c0.1,0.2,0.1,0.5,0.1,0.7c0.2,1.7,0.5,3.3,1.2,4.9
		c0.5,0.5,1,1,1.5,1.5c1.4-0.8,2.7-1.9,3.7-3.4c0.1-0.1,0.1-0.2,0.1-0.3c0.1-0.3,0.2-0.5,0.3-0.8c1.2-1.5,2.2-2.8,3-3.9
		c-0.1,0.4-0.1,0.8-0.2,1.2c-0.7,2.6-0.9,5.2-0.7,7.8c0.5,1.1,1.4,1.7,2.5,1.8c-0.1,0.2-0.3,0.5-0.5,0.7c-0.9,1.5-1.2,3.2-1,4.9
		c1.3,1.5,2.4,1.9,3.4,1.1c-1.1-0.6-1.8-1.4-2.4-2.3c0.7-2.6,2-4.8,4.1-6.4c-1.3-0.3-2.9-0.3-4.6,0c-0.1-0.3-0.2-0.5-0.2-0.8
		c0.1-2.1,0.1-4.2,0.2-6.3c0.1-0.2,0.1-0.3,0.1-0.4c0.9-3,2-5.7,3.4-8.2c0.1-0.2,0.1-0.3,0.1-0.4c0-0.3,0-0.5-0.1-0.8
		C87.7,54,87.8,53.8,87.9,53.7z"/>
	<path style="fill:#3172A1;" d="M80.5,80.5v0.1c-3.1,0.5-5.8,1.7-8.2,3.4c0.2,0.1,0.4,0.1,0.6,0c2.9-1.1,5.9-2.1,8.9-3
		c-0.1-0.1-0.2-0.1-0.2-0.2C81.2,80.7,80.9,80.6,80.5,80.5z"/>
	<path style="fill:#3172A1;" d="M56,6.1c0-0.6,0-1.2-0.1-1.9c-0.6-0.7-1.2-1.5-1.8-2.3c-0.4-0.6-1-1.1-1.8-1.4
		c-1-0.1-1.9-0.1-2.8-0.2c-0.6-0.1-1.3-0.2-2-0.3c-0.9,0.6-1.6,1.5-2.1,2.6c-1.8,3.7-0.9,6.7,2.6,9c-0.1,0.8-0.1,1.4,0.3,2
		c0.2,0.3,0.3,0.7,0.3,1c0,0.4,0,0.8,0,1.1c0.1,0.2,0.1,0.3,0.2,0.4c0.1,0.1,0.2,0.3,0.3,0.4c0.1,0.3,0.2,0.5,0.3,0.7
		c0.3,0.3,0.6,0.5,0.9,0.7c-0.9,1.8-0.6,3.1,1,4c0-0.2-0.1-0.3-0.1-0.3c-0.5-0.7-0.8-1.6-0.9-2.4c0-0.1,0-0.2,0-0.3
		c0.1-0.3,0.2-0.6,0.4-0.9c0.6,0.1,1.3,0,2.1-0.4c0-0.1,0.1-0.2,0.1-0.2c0.1-0.2,0.2-0.3,0.4-0.4c0.1-0.1,0.2-0.3,0.2-0.4
		c0.1-0.2,0.2-0.5,0.3-0.7c0.1-0.2,0.2-0.3,0.4-0.3c0.5-0.2,0.8-0.7,1.1-1.2c0-0.3,0.1-0.5,0.2-0.8c0-0.1,0-0.2,0-0.4
		c0-0.3,0-0.7-0.1-1.1c-0.1-0.1-0.2-0.2-0.3-0.3c-0.2-0.3-0.5-0.6-0.7-0.8c0.1-0.3,0.3-0.5,0.5-0.7c0.1-0.2,0.2-0.3,0.4-0.4
		C55.8,8.7,56,7.4,56,6.1z M53,5.6c-0.1-0.2-0.3-0.5-0.5-0.7c-1.9-0.7-3.4-1.2-4.2-1.7c0-0.1,0.1-0.2,0.1-0.3
		c0.1-0.5,0.5-0.9,1.1-1.3c1-0.6,1.9-0.6,2.6,0.1c0.7,0.6,1.3,1.2,1.9,1.9c0.8,0.7,1,1.6,1,2.6c-0.7,0.4-1.3,0.3-1.7-0.2
		C53.2,5.9,53.1,5.8,53,5.6z M53.5,7.6L53.5,7.6c1.4,1,0.9,1.9-1.6,2.6c0.1-0.1,0.2-0.2,0.4-0.3C53.1,9.3,53.5,8.5,53.5,7.6z
		 M51.6,7.6c1,0.1,0.9,0.6-0.3,1.6c-0.8,0.6-1.5,0.7-1.9,0.3c0.1-0.1,0.2-0.2,0.4-0.4c0.5-0.5,1.1-1,1.7-1.5
		C51.6,7.6,51.6,7.6,51.6,7.6z M48,1c-0.6,0.7-0.9,1.6-1,2.6c-1.1,0.2-1.9,0.7-2.1,1.6c0-0.1,0-0.2,0-0.3c0.4-1.7,1.4-3,2.9-3.9H48z
		 M46.4,5.1c0.1-0.2,0.2-0.2,0.2,0c-0.1,0.5-0.1,0.9-0.1,1.4l0.1,0.2C45.6,6.8,45.5,6.3,46.4,5.1z M47.9,7.7
		c-0.1-0.1-0.1-0.2-0.2-0.3c-0.5-0.8-0.4-1.6,0.4-2.3c1.7-0.2,2.5,0.2,2.5,1.4C49.9,7.3,49,7.8,47.9,7.7z M49,12.2
		c0-0.3,0-0.7,0-1.1c1-0.1,1.7,0.1,2,0.8c-0.6,0.7-1.3,1-2,0.7C49,12.5,49,12.4,49,12.2z M49.6,15.6L49.6,15.6
		c1.2,0,2.2,0.3,2.9,0.8c-0.1,0.1-0.3,0.2-0.4,0.2c-0.3,0.2-0.6,0.3-0.8,0.3c0.1-0.3,0.2-0.5,0.3-0.7c-0.1,0.1-0.3,0.2-0.3,0.3
		c-0.1,0.1-0.2,0.2-0.3,0.4C50.3,16.9,49.8,16.5,49.6,15.6z M49.9,14.1c0-0.1,0.1-0.2,0.2-0.3c0.5-0.6,1-0.9,1.7-1.3
		c1.8-0.8,2.7-0.5,2.7,1C53.3,15.3,51.7,15.5,49.9,14.1z"/>
</g>
</svg>
