<?xml version="1.0" encoding="iso-8859-1"?>
<!-- Generator: Adobe Illustrator 12.0.1, SVG Export Plug-In . SVG Version: 6.00 Build 51448)  -->
<!DOCTYPE svg PUBLIC "-//W3C//DTD SVG 1.1//EN" "http://www.w3.org/Graphics/SVG/1.1/DTD/svg11.dtd" [
	<!ENTITY ns_svg "http://www.w3.org/2000/svg">
	<!ENTITY ns_xlink "http://www.w3.org/1999/xlink">
]>
<svg  version="1.1" id="Layer_1" xmlns="&ns_svg;" xmlns:xlink="&ns_xlink;" width="101" height="100" viewBox="0 0 101 100"
	 style="overflow:visible;enable-background:new 0 0 101 100;" xml:space="preserve">
<g>
	<path style="fill:#FFFFFF;" d="M101,100V0H0v100H101z M59.5,79.5c4.5,0.4,7.4,2.5,8.9,6.1c0.1,0.1,0.1,0.2,0.1,0.4
		c4.4,6.4,2.8,10.6-4.5,12.6c-2.1,0.5-4.1,0.7-6.2,0.6c-0.7,0-1.4-0.2-2-0.5c-6.5,2.1-9.4-0.2-8.8-6.8C47.8,84.2,52,80.1,59.5,79.5z
		"/>
</g>
<g>
	<path style="fill:#3172A1;" d="M97.2,88.6c0-0.1-0.1-0.1-0.1-0.2c-0.8-0.1-1.5-0.2-2.2-0.2C87.4,91,80.2,93.9,73,97.1
		c0.3,0,0.5,0,0.8-0.1c7.2-2.7,14.3-5.5,21.3-8.2c0.2,0.1,0.4,0.2,0.6,0.2C96.2,88.9,96.7,88.8,97.2,88.6z"/>
	<path style="fill:#3172A1;" d="M12.1,49.2c-0.2,0-0.3,0-0.3,0.2c-0.1,0.7-0.2,1.4-0.3,2.1c0.5,1.7,1.2,3.4,2,5.2
		c1.5,1.4,2.9,1.9,4,1.5c-0.1-0.1-0.1-0.2-0.2-0.3C14.2,55.9,12.4,53,12.1,49.2z"/>
	<path style="fill:#3172A1;" d="M11.8,59c-0.1-0.2-0.1-0.3-0.2-0.4c-0.9-1.6-1.7-3.2-2.3-4.5c-0.4-0.1-0.5,0-0.6,0.1
		C8.3,56.8,9.4,58.4,11.8,59z"/>
	<path style="fill:#3172A1;" d="M2,78.6c0.3-0.1,0.6-0.2,0.9-0.2c-0.3-0.1-0.5-0.2-0.7-0.3c-0.1,0.1-0.2,0.2-0.3,0.3
		C1.9,78.5,1.9,78.6,2,78.6z"/>
	<path style="fill:#3172A1;" d="M52.1,97.8V98c3.2-0.1,4.9-0.7,5-1.7H57C55.3,96.6,53.7,97.1,52.1,97.8z"/>
	<path style="fill:#3172A1;" d="M90.2,47.7c-0.7,0.1-1.4,0.2-2,0.4C84.6,48,81.1,48,77.6,48c-1.4,0.1-2.7,0.3-4.1,0.6
		c0-0.1,0-0.1,0-0.2c-0.5-0.1-0.8-0.1-1.2-0.2c0,0.1,0,0.1,0,0.1c-1.5,0.2-2.9,0.5-4.3,0.8c0-0.2,0.2-0.3,0.2-0.5
		c-0.2,0.1-0.2,0.1-0.3,0.1c-0.6,0.2-1.1,0.4-1.7,0.6c0.3-0.4,0.7-0.8,1.1-1.2c-0.6,0.3-1.2,0.6-1.8,1c0.4-0.6,0.8-1.1,1.2-1.7
		c0.3-0.7,0.7-1.3,1-2c0.3-0.1,0.7-0.2,1-0.3c1.3-3.5,1.6-7.6,0.7-12.3c-0.4-2.4-1.2-4.7-2.4-6.7c-1.1-2-2.3-3.7-3.8-5.3
		c0.4,0.2,0.8,0.3,1.3,0.3c-0.2-0.2-0.5-0.5-0.7-0.7c-0.3-0.3-0.7-0.7-1-1c-0.6-0.3-1.2-0.6-1.9-1c-0.1-0.2-0.2-0.3-0.4-0.5
		c-0.2-0.2-0.4-0.4-0.6-0.7c0.1-0.1,0.3-0.1,0.5-0.1c0.4,0,0.8,0,1.2,0.1c0.4,0.7,0.9,0.9,1.6,0.5c0.1,0,0.1-0.1,0.2-0.2
		c-0.1-0.8-0.5-1.4-1.1-1.9c-0.7-0.7-0.9-1.3-0.5-1.9c0.4-0.1,0.9-0.3,1.4-0.4c-0.2,0.7-0.2,1.4,0,2.1c0,0.3,0.2,0.6,0.3,0.8
		c0.8,0.2,1.5,0.3,2.3,0.4c0.2,0,0.5-0.1,0.7-0.1c0.7-0.6,1.2-1.3,1.8-2c1.9-2.6,2.6-5.6,2-8.9c-0.3-0.3-0.6-0.5-0.9-0.8
		c-0.2-0.1-0.3-0.2-0.4-0.3c-1-0.1-1.8-0.1-2.7-0.2c-0.6,0.4-1.2,0.9-1.6,1.7c-0.4,0.6-1,1.2-1.7,1.6c-3.1-0.5-6.2-0.2-9.3,0.6
		c-3.9,1.1-5.8,2.8-5.6,5c-0.1,0-0.3-0.1-0.5-0.1c-2.9-1-6-1.4-9.2-1.1c0-0.1,0-0.1,0-0.2c-0.5-0.4-1-0.8-1.6-1.2
		c-5-3.7-10.6-5-16.8-3.9c-0.3-0.3-0.7-0.6-1-1c-0.2-0.1-0.3-0.2-0.5-0.4c-0.9,0-1.8,0-2.7-0.1c0,0.1,0,0.1-0.1,0.1
		c-0.6,0.2-1.2,0.7-1.6,1.5C14,6.9,14,7,14,7.1c0,2.3,0.7,4.4,2.1,6.2c1.8,2.2,4,3.1,6.7,2.7c0-0.2,0.1-0.3,0.2-0.4
		c0.1-0.3,0.2-0.5,0.3-0.8c0.2-0.4,0.2-0.9,0.2-1.4c0.3,0.4,0.8,0.8,1.3,1.2c-0.2,0.2-0.4,0.5-0.5,0.8c-0.5,0.8-1,1.5-1.7,2.2
		c0.3-0.1,0.6-0.1,0.9,0c-0.4,0.3-0.8,0.6-1.2,0.9c-0.5,0.3-1,0.6-1.4,1c-0.8,0.4-1.4,1-1.8,1.7c-3.9,4.3-6,10-6.2,16.9
		c-0.1,2.2,0.1,4.2,0.7,6.2c0.2,1,0.6,1.9,1,2.9h-0.1c0.2,0.4,0.4,0.8,0.5,1.2c-0.1,0-0.1,0,0,0.1c0-0.1,0.1-0.1,0.1-0.1
		c1.6,3.2,3.8,5.7,6.7,7.7l0,0c-0.1,0.1-0.2,0.1-0.2,0.1c0.2,0.2,0.5,0.4,0.8,0.6c-0.3,0.3-0.7,0.6-1,0.9c0,0.4,0,0.8-0.1,1.1
		c0,0.8,0,1.5,0.2,2.2c-0.2,0.1-0.4,0.1-0.5,0.3c-3.6,2.8-5.7,6.4-6.6,10.5c0.1,0.3,0.2,0.6,0.2,0.8c0.1,0.7,0.4,1.2,0.9,1.5
		c1.5,0.6,3.1,1,4.7,1.2c-1.7,0.3-3.4,0.6-5,1c-2.5,0.5-4.7,1.2-6.9,2.1c-0.3,0-0.7,0-1.1-0.1c0,0.1,0,0.1,0,0.1
		c-0.5,0.2-1,0.3-1.5,0.5c-0.3,0.1-0.6,0.2-0.8,0.3c-0.4,0.3-0.8,0.5-1.2,0.8c-0.2,0.2-0.2,0.5-0.2,0.7c-0.1,0.3-0.1,0.5-0.1,0.8
		c0,0.2,0,0.5,0,0.7c0,0.5,0.1,0.9,0.3,1.2c0.2,0.4,0.5,0.8,1,1.1c0.4,0.1,0.8,0.2,1.1,0.3c-0.7,0.3-1.3,0.6-2,1
		c-0.2,0.1-0.4,0.2-0.5,0.3c0.2,0,0.5,0,0.7-0.1c0.9-0.3,1.9-0.6,2.9-1c1,0.3,2,0.5,3.1,0.8c-0.9,0.2-1.6,0.6-2,1.3
		C8.3,87,8.7,87,9,86.8c0.7-0.3,1.5-0.5,2.2-0.7c1.6,0.3,3.1,0.7,4.7,1c0.3,0.1,0.6,0.2,1,0.3c-0.8,0.3-1.5,0.8-2.2,1.3
		c-0.1,0.1-0.2,0.2-0.4,0.4c0.3,0,0.5,0,0.7-0.1c1.4-0.5,2.4-1,2.9-1.4c2.2,0.4,4.4,0.9,6.5,1.3c-1.3,0.2-2.4,0.7-3.3,1.3
		c-0.2,0.1-0.3,0.2-0.5,0.4c0.3,0,0.5,0,0.7,0c1.6-0.5,3.2-0.9,4.9-1.3c1.4,0.2,2.8,0.5,4.2,0.8c-0.3,0.1-0.6,0.2-0.9,0.3
		c-0.7,0.2-1.3,0.5-1.7,0.8c-0.1,0.1-0.3,0.2-0.4,0.4c0.3,0.1,0.5,0.1,0.7-0.1c1.2-0.4,2.5-0.8,3.8-1.1c1.4,0.2,2.9,0.5,4.4,0.8
		c-1.7,0.5-3.2,1.2-4.7,2c0,0.7,0.5,0.8,1.5,0.4c0,0,0,0,0.1,0l-0.1-0.1c2.2-0.8,3.7-1.5,4.5-2.1c1.7,0.3,3.4,0.6,5.1,0.9
		c-0.1,0.2-0.3,0.4-0.6,0.5c0.3,0.1,0.6,0.2,0.9,0.3c-1.1,0.3-1.9,0.8-2.4,1.5c0.2,0,0.4,0.1,0.7,0c1.3-0.1,2.3-0.5,2.9-1.1
		c1.5,0.4,3.1,0.9,4.7,1.2c-1.2,0.3-2.3,0.6-3.3,1.1c0,0.2,0.1,0.2,0.1,0.2c1.5,0.2,2.9-0.1,4.4-0.9c0.5,0.1,0.6,0.1,0.5,0
		c2.1,0.5,4.3,0.9,6.5,1.2c2.7,0.3,5.5,0.6,8.4,0.7c-0.5,0.2-0.9,0.4-1.3,0.6c0.1-0.1,0.3-0.1,0.5-0.2s0.5-0.2,0.8-0.2
		c0.2-0.1,0.3-0.1,0.4-0.1c0.3,0,0.6,0,0.9,0c0-0.1,0-0.2,0-0.3c0-0.1,0-0.1,0.1-0.1c7.8-2.5,15.4-5.3,22.8-8.5
		c0.2-0.1,0.4-0.2,0.7-0.3c5.7-0.2,8.4-2.5,8.1-6.9c-0.1-0.2-0.2-0.3-0.3-0.4c-0.4-0.9-1.1-1.6-1.9-2.2c-0.1,0-0.1,0-0.1-0.1
		c-0.1,0-0.2-0.1-0.3-0.1c-0.1-0.1-0.2-0.1-0.2-0.2c-0.1-0.1-0.1-0.2-0.2-0.3c-0.2-0.2-0.4-0.5-0.6-0.8c-0.3-0.3-0.5-0.7-0.8-1
		c-0.4-0.5-0.7-1-1.1-1.6c-0.3,0-0.5,0-0.8,0c-1.8-0.1-3.6-0.1-5.4-0.2c0.2-4.7,0.1-9.3-0.5-13.9c1.1-0.3,2.2-0.6,3.3-0.9
		c0.2-0.2,0.4-0.4,0.7-0.7c0.1-0.1,0.2-0.2,0.4-0.4c0.4-1.5,1.2-2.9,2.2-4.1c0.1-0.1,0.2-0.2,0.4-0.4c0-0.2,0.1-0.5,0.2-0.7
		c-0.1-0.2,0-0.3,0.1-0.4c0.6-0.6,1.1-1.2,1.3-1.9c0.1-0.1,0.1-0.2,0.1-0.4c-0.1,0-0.2-0.1-0.3-0.1c0.1-0.1,0.3-0.1,0.5-0.2
		c0,0,0,0,0-0.2c-0.4-0.4-0.9-0.8-1.4-1.1c-0.3-0.3-0.5-0.5-0.8-0.7c-0.3-0.1-0.6-0.2-0.8-0.2C91.5,47.8,90.8,47.7,90.2,47.7z
		 M92.9,49.9C93,50,93,50,93,50c-0.7,0-1.5-0.1-2.2-0.1c0.5-0.1,1.1-0.2,1.7-0.3C92.6,49.7,92.8,49.8,92.9,49.9z M88.7,50.2
		c-0.1,0-0.2,0-0.3,0c-1.5-0.2-3-0.3-4.5-0.5c-2.2,0.5-4.5,0.9-6.9,1.1c-2.5,0.1-5,0.6-7.3,1.2c-0.2-0.1-0.3-0.3-0.4-0.4
		c-0.3-0.5-0.7-1-1.1-1.5c-0.2-0.1-0.3-0.2-0.5-0.3c0.2,0,0.3,0,0.5,0c5.1-0.1,10.3-0.2,15.6-0.2c0.3,0,0.6,0,1,0
		c1.1,0.3,2.3,0.5,3.6,0.5C88.5,50.1,88.6,50.1,88.7,50.2z M82.6,61c1-0.2,2-0.4,2.9-0.7c-0.3,4.8-0.1,9.4,0.7,13.8
		c-1.3-0.1-2.5-0.2-3.7-0.3C82.8,69.4,82.8,65.1,82.6,61z M90.2,55.9c-0.4,0.9-1,1.6-1.6,2.2c-8.4,1.2-16.4,2.8-24.1,4.8
		c0-0.6,0-1.1,0-1.5c2.1-2.9,3.9-5.8,5.3-8.8c5.8,0,11.5-0.4,17.1-1.4c0.3,0.2,0.6,0.3,1.1,0.2c1.9-0.2,3.4-0.1,4.5,0.3
		C91.6,53.1,90.8,54.5,90.2,55.9z M92.2,76.5c0.1,0,0.2,0.1,0.3,0.2c0.3,0.3,0.5,0.5,0.7,0.8c-5.6-0.5-11.3-0.9-17-1.1
		c0-0.1,0.1-0.3,0.2-0.5c0.1-0.2,0.1-0.4,0.1-0.7c0.1-0.1,0.1-0.2,0.3-0.2C81.9,75.2,87.1,75.6,92.2,76.5z M94.2,78.7
		c0,0.1,0,0.1,0.1,0.2c0.3,0.4,0.7,0.6,1.2,0.7c0,0.9,0.5,1.9,1.7,3C97.1,82.7,97,82.8,97,83c-0.3,0.4-0.5,0.8-0.8,1.1
		C87.1,85.7,78.4,88,70,91.2c0-0.1,0-0.2-0.1-0.2c-0.1,0-0.2,0-0.2,0.1c0.1-0.5,0.1-1,0.1-1.5c-0.1-1-0.4-1.9-1.1-2.6
		c-0.2-0.2-0.2-0.3-0.4-0.3c-1.4-0.6-2.8-1.1-4.3-1.6c0.1-0.5,0.2-1.1,0.3-1.7c0.1-1.2,0.2-2.3,0.2-3.4c0-0.1,0-0.1,0.1,0
		c0.2-0.1,0.3-0.1,0.4-0.1c0.1-0.2,0.1-0.4,0.2-0.6c-0.3,0.1-0.5,0.2-0.7,0.3c0-0.2,0-0.4,0.1-0.6c0.1-0.1,0.1-0.1,0.2-0.1
		c0.1,0,0.2-0.1,0.4-0.2c0-0.1,0-0.3,0.1-0.4c-0.3,0.1-0.5,0.2-0.7,0.4c0.1-0.7,0.1-1.3,0.1-1.9v-0.1c0.1,0.1,0.2,0.1,0.3,0.1
		c0.2,0.1,0.3,0.1,0.5,0.1c0.3,0.1,0.7,0.1,0.9,0.1c0.1,0,0.1,0,0.3,0c0,0,0,0,0.1,0c0,0,0,0,0.1,0C75.8,77.8,84.9,78.4,94.2,78.7z
		 M65,11.6c-0.1-0.1-0.1-0.2-0.1-0.4c-5.4-1.6-9.3-0.6-11.9,3.3c-0.1-0.1-0.3-0.1-0.5-0.1c-0.1,0.2-0.2,0.5-0.2,0.8
		c-0.2,0.2-0.4,0.3-0.6,0.5c2,0.5,4,1.3,5.9,2.3c0.3,0.1,0.7,0.3,1,0.4c0.2,0.1,0.4,0.3,0.7,0.5c0,0.1,0.1,0.2,0.2,0.2
		c0.4,0.4,0.7,0.7,1.1,0.8c0.1,0,0.2,0.1,0.3,0.2c1.5,0.9,2.6,2.1,3.5,3.6c0.1,0.1,0.1,0.3,0.1,0.4c0.2,0.4,0.4,0.6,0.5,1
		c0,0,0,0.1,0,0.2c0,0,0,0.1,0,0.2c2,3.2,3.1,7.4,3.1,12.4c0,3-0.8,5.8-2.3,8.3c0.1,0,0.2-0.1,0.4-0.2c-2.4,3.2-5.1,5.8-8.3,8
		c0-0.1,0-0.2,0.1-0.3c-8.4,5.7-18.2,6.7-29.7,3.1c-3.8-1.2-7-3.3-9.4-6.4c-5.3-6.6-6.2-13.9-2.6-22c0.1-0.2,0.1-0.3,0.3-0.4
		c0.2-0.1,0.3-0.2,0.4-0.4c0.1-0.1,0.2-0.2,0.2-0.4c0.1-0.1,0.1-0.2,0.1-0.3c0-0.2,0-0.3,0-0.4c0.1-0.1,0.1-0.2,0.2-0.4
		c0.9-0.6,1.6-1.5,2.2-2.3c0.2-0.3,0.4-0.6,0.6-0.9c0,0.1,0.1,0.1,0.2,0.2c0.6-1.1,1.5-2.1,2.5-3c0.1-0.1,0.2-0.2,0.3-0.4
		c0.3-0.1,0.7-0.2,1-0.2c0.6-0.6,0.9-1.2,1.1-1.7c0.5,0.1,0.9,0.3,1.4,0.5c-0.1,0.3-0.2,0.5-0.3,0.6c-0.6,0.6-1,1.1-1.4,1.6
		c0,0.6-0.1,1.2-0.4,1.8c3.2-1.9,6.7-3.4,10.3-4.5l0,0c0,0,0,0,0.1,0l0,0l0,0c0.3,0,0.5,0,0.8-0.1c0-1.3-0.5-2.6-1.6-3.8
		c-3.9-4.5-8.4-5.3-13.3-2.4c0.1,0.2,0.2,0.5,0.3,0.7c0.1,0.7,0.3,1.3,0.5,2c0.1,0,0,0.1,0,0.3c-1.3,0-2.4-0.4-3.2-1.3
		c-0.9-1-1.6-1.9-2.2-2.8c-0.7-1.1-0.9-2.1-0.5-3.1C16.4,7.2,17.1,7,17.7,7c0,0,0.1,0,0.2,0.1c0.5,0.5,1,0.9,1.6,1.3
		c0.2,0.2,0.5,0.3,0.8,0.3c3.3-1.1,6.6-1,9.8,0.3c3.8,1.5,7,3.6,9.4,6.2c0.2,0.1,0.3,0.2,0.4,0.4c0-0.3-0.1-0.5-0.1-0.7
		c-0.2-0.4-0.3-0.7-0.4-1c3.4,0.1,6.4,0.2,8.9,0.3c0.1,0,0.2,0,0.3,0.1c0.1,0,0.2,0,0.3,0c0.9,0.2,1.7,0.3,2.3,0.1
		c0,0,0.1,0,0.2-0.1c-0.1-0.1-0.2-0.2-0.3-0.2c-0.7-0.3-1.3-0.5-1.9-0.6c0-0.1,0-0.2,0-0.2c0-0.1-0.1-0.1-0.1-0.1
		c4-3.8,9-5.3,15.2-4.4c0.4-0.7,1-1.5,1.6-2.2c0.1-0.3,0.3-0.5,0.5-0.8c0.6,0.1,1.3,0.2,2,0.3c0.2,0,0.5,0.1,0.7,0.2
		c0,0.7,0,1.3,0,1.9c0,2.7-1.1,5-3.2,6.8c-0.5-0.2-0.9-0.3-1.4-0.5c0-0.1,0-0.1,0-0.3c0-0.1,0-0.2,0-0.3C65,13.2,65.1,12.4,65,11.6z
		 M60.3,13.1c-0.1,0.1-0.1,0.2-0.2,0.4c0,0.3,0,0.7,0,1.1c0,0,0,0.1,0,0.2c-1.3-0.6-2.7-0.9-4.3-1c1.5-1.1,3.3-1.6,5.2-1.4
		C60.8,12.6,60.6,12.9,60.3,13.1z M58.9,16.1c0,0,0,0-0.1,0.1c-0.1,0-0.1,0.1-0.2,0.3c0,0.1,0,0.3,0,0.5c-0.9-0.6-1.9-1.2-2.9-1.6
		c0-0.1,0.1-0.1,0.2-0.2c0.1,0.1,0.3,0.2,0.5,0.2C57.3,15.7,58.1,16,58.9,16.1z M23,11.8c1.6-0.1,3.1-0.3,4.6-0.5
		c1.9,1,3.4,2.3,4.5,3.9c-1.5-0.7-3.3-1-5.3-0.7c-0.3,0.1-0.6,0.3-0.9,0.5c0-0.1,0-0.2,0-0.3c0-0.4-0.1-0.8-0.4-1.1
		c-0.1-0.1-0.2-0.2-0.3-0.4c-0.6-0.6-1.3-1-2.1-1.2C23.1,12,23.1,11.9,23,11.8z M28,18.1c-0.1-0.1-0.2-0.2-0.2-0.4
		c-0.1-0.1-0.2-0.2-0.2-0.3c-0.1-0.2-0.2-0.3-0.3-0.4c-1.2-0.3-1.8-0.7-1.8-1.2c2.8-0.2,5.5,0.2,8,1.3c0.1,0.1,0.2,0.2,0.3,0.2
		C32.3,17,30.4,17.2,28,18.1z M41.2,61.3c-0.2-0.2-0.4-0.4-0.5-0.6c0.7,0,1.5-0.1,2.3-0.1c0.5,0.6,1,1.3,1.4,2c0,0.3,0,0.5,0,0.8
		c0,0.1,0,0.2,0,0.3c0,0.2,0.1,0.3,0.1,0.4c-0.3,0.3-0.6,0.4-0.9,0.6c-1,0.4-1.5,1.1-1.3,2c0.9,0.2,1.6,0.1,2.3-0.3
		c1.7,2,3.2,4.1,4.4,6.6c0.6,1.2,0.9,2.6,0.8,4.1c-2.3,0.8-4.5,0.8-6.8-0.1c-5.6-2.4-9.2-6.2-10.7-11.6c0.5-0.3,1.1-0.4,1.7-0.4
		c2,0.1,3.6-0.1,5.1-0.6c-0.1,0.2-0.2,0.5-0.2,0.7c0.1,0.1,0.2,0.2,0.3,0.3c0.3,0,0.7,0.1,1.1,0.1c0.2-0.3,0.4-0.5,0.7-0.8
		c0.2-0.2,0.4-0.5,0.6-0.7c0-0.4,0-0.8,0.1-1.1c0-0.4,0-0.8-0.2-1.2C41.4,61.6,41.3,61.5,41.2,61.3z M23.9,57.3
		c0.1,0,0.2,0.1,0.2,0.1c-0.1,0.1-0.2,0.1-0.4,0.2C23.8,57.5,23.8,57.4,23.9,57.3z M15.9,82.8c0,0.7,0,1.3,0,1.9
		c0.4,0.4,0.7,0.7,1,1c-2.1-0.6-4.3-1.2-6.4-1.9c0.2-0.2,0.4-0.6,0.6-0.9c0.3-0.4,0.4-0.8,0.3-1.2c-0.3-0.4-0.5-0.9-0.7-1.4
		c0-0.3-0.2-0.6-0.3-0.8c-0.1-0.1-0.2-0.1-0.3-0.1c0.1,0,0.2,0,0.3,0c2.6,0,5.1,0.2,7.7,0.5c-0.7,0.3-1.3,0.6-1.8,1.1
		C15.9,81.5,15.9,82.2,15.9,82.8z M17.7,81.8c-0.3,0.3-0.3,0.8-0.2,1.2c0.3,0.1,0.4,0.1,0.4,0.1c1-1,1.9-1.2,2.6-0.4
		c-0.1,0.9,0.1,1.1,0.6,0.7c0.3-0.3,0.5-0.7,0.4-1.2v-0.1c0.2,0.1,0.4,0.3,0.7,0.5c0,0.2,0,0.5,0,0.7c0.1,0.8,0,1.4-0.4,1.9
		c-0.6,0.2-1.2,0.4-1.9,0.5c-0.4-0.1-0.8-0.3-1.1-0.5c0.5,0.1,1.4-0.1,2.7-0.7l0.1-0.2l0,0c-1.1,0-2.1-0.3-3-1.1
		c-0.3,0.9-0.3,1.5-0.1,1.8c-0.4-0.3-0.8-0.7-1.1-1c0-0.2-0.1-0.3,0-0.4C17.1,82.8,17.3,82.2,17.7,81.8z M4.9,81.6
		c0-0.1,0.1-0.2,0.2-0.3c0,0.3,0,0.5,0.1,0.8l0,0c-0.1,0-0.2,0-0.3-0.1C4.8,81.8,4.8,81.7,4.9,81.6z M9.7,82.2c0,0.2,0,0.2-0.1,0.2
		C7.2,83.1,6.3,82.6,7,81c0.7-0.1,1.4-0.1,2.2-0.2c0.1,0.3,0.3,0.5,0.4,0.7C9.6,81.7,9.7,82,9.7,82.2z M36.4,85.2
		c-0.1-0.1-0.2-0.2-0.2-0.3c-0.3-0.7-0.8-1.3-1.2-1.7c2.1,0.4,4,0.7,5.9,1.1c0.1,0,0.2,0,0.4,0c-0.2,0.1-0.3,0.2-0.5,0.3
		c-0.1,0-0.3,0.1-0.4,0.2c-0.5,0.6-0.7,1.2-0.8,1.9c-0.2,2.3,0.4,3.7,1.6,4.4c-1.5-0.3-3-0.5-4.6-0.8c-0.8-0.2-1.6-0.3-2.4-0.5
		C35.8,89.2,36.5,87.7,36.4,85.2z M33.7,85c0.1,0.1,0.2,0.2,0.3,0.3c0.4,0.6,0.6,1.3,0.6,1.9c-0.7,0.9-1.8,1.3-3.1,1.4
		c-0.8-0.4-1.5-0.9-2-1.5c0-0.1,0-0.2,0-0.4c0.2-0.9,0.6-1.6,1.3-2.2C31.9,84.2,32.9,84.4,33.7,85z M23.5,81.5
		c-0.1-0.2-0.3-0.3-0.4-0.4c-0.3-0.2-0.5-0.4-0.8-0.6c0.3,0.1,0.6,0.1,0.9,0.2c1.6,0.2,3.2,0.6,4.9,1c0.9,0.2,1.8,0.4,2.7,0.6
		c-1.1,0.8-2.1,1.9-2.8,3.2c0,0.3,0,0.7-0.1,1.1c-0.1,0.7,0,1.3,0.3,1.9c0,0,0,0,0.1,0.1c-0.1-0.1-0.1-0.1-0.1-0.1
		c-2.3-0.5-4.6-1.1-6.9-1.6c0.6-0.2,1.3-0.5,1.9-0.9c0.5-0.7,0.7-1.4,0.7-2.3C23.9,82.9,23.8,82.1,23.5,81.5z M41,87.8
		c0-0.4,0.1-0.8,0.4-1.1c0-0.1,0.1-0.2,0.2-0.4c0.8-0.1,1.6-0.1,2.5-0.1h0.1c0,0.1,0,0.1,0,0.1c-0.5,0.6-1,1.1-1.5,1.7
		c0,0.1,0,0.2,0,0.3c-0.1,0.5,0,1,0.1,1.5c0,0.1,0,0.1,0,0.2c-0.1,0-0.2,0-0.3,0s-0.1,0-0.1,0c-0.5-0.5-0.9-0.9-1.3-1.5
		c0,0,0-0.1,0-0.3C41.1,88.1,41.1,88,41,87.8z M68.1,53.5c-0.3,0.2-0.6,0.5-0.8,0.7c-1.4,1.4-2.4,2.8-3.1,4.3c0-0.8-0.2-1.5-0.2-2.2
		c-0.1-0.1-0.3-0.1-0.5-0.2c-0.6-0.1-1.3-0.2-1.9-0.3c1.5-1.7,3.2-3.2,5-4.6c0.2,0.3,0.4,0.5,0.7,0.8C67.8,52.5,68,53,68.1,53.5z
		 M62.7,57.4v0.2c0,1.9,0.1,3.7,0.3,5.6l0,0l0,0l0,0c0.7,5.7,0.5,11.2-0.5,16.8c-0.2,1.1-0.3,2.1-0.2,3.1c-0.9-0.2-1.9-0.3-2.8-0.4
		c-0.1-0.3-0.2-0.5-0.3-0.8c0.1-0.5,0.3-1.1,0.3-1.8c0.1-1.1,0.2-2.2,0.3-3.3c0-0.1,0.1-0.1,0.1-0.1c0.1,0,0.2,0,0.2-0.1
		c0.1,0,0.1-0.1,0.1-0.1c-0.1-0.2-0.2-0.2-0.3-0.3c0,0,0,0-0.1,0c0.5-6.1,0.6-12.3,0.4-18.6v-0.2C61,57.3,61.9,57.3,62.7,57.4z
		 M67.7,63c1.3-0.1,2.7-0.2,4.1-0.4c0.2,0,0.5-0.1,0.7-0.1h0.1c3.1-0.3,6.1-0.8,9.2-1.4c-0.5,3.3-0.6,6.5-0.2,9.7
		c-0.1,0-0.1,0.1-0.2,0.2c-0.2,1.1-0.2,2,0.2,2.8c-1.6-0.2-3.1-0.3-4.6-0.5c0,0.1,0,0.1,0,0.1c-0.3,0.1-0.6,0.3-1,0.4
		c-0.1,0.1-0.2,0.2-0.3,0.3c-0.2,0.2-0.2,0.5-0.2,0.8c0,0.1,0,0.2-0.1,0.3c-0.2,0.4-0.4,0.8-0.6,1.2c-0.2,0-0.3,0-0.4,0
		c-2.9-0.4-5.6-0.7-8.4-0.8c0.1-0.1,0.2-0.1,0.4-0.2c-0.3,0-0.5-0.1-0.6-0.2h-0.5c-0.1,0.1-0.2,0.2-0.3,0.3c-0.1,0-0.2,0-0.2,0
		c0-2.5,0-5,0-7.5l-0.3-2.8l0.2-0.3c-0.1-0.6-0.1-1.2-0.2-1.7c0.8-0.1,1.5-0.1,2.2-0.1c-0.1,0-0.2,0.1-0.2,0.1
		c0.3,0,0.6,0.1,0.9,0.2C67.5,63.2,67.5,63.1,67.7,63z M82,73.8c0-0.3,0-0.5,0-0.7c0.1,0.2,0.1,0.5,0.2,0.7
		C82.1,73.8,82.1,73.8,82,73.8L82,73.8z M60,53.7c0,0,0-0.1,0.1-0.1c1.3-0.6,2.5-1.3,3.6-2.1c-2.3,1.7-4.2,3.7-6,6
		c0-0.1-0.1-0.2-0.1-0.4c0,0.1-0.1,0.1-0.1,0.1c-0.1,0.1-0.1,0.2-0.1,0.2c-0.1,0.1-0.1,0.2-0.1,0.3c-0.4-0.5-0.9-0.9-1.5-1.3
		c1.1-1,2.3-1.9,3.5-2.8c-0.4,0.3-0.7,0.6-1.1,0.9L60,53.7z M53.2,61.1c-0.4-0.1-0.8-0.2-1.2-0.3c-0.3,0.3-0.8,0.4-1.5,0.5
		c-1.5,0.2-2.6,0.9-3.2,2.2c0,0.5,0,1,0.1,1.4c0.4,1.5,0.9,2.7,1.6,3.9c-1.1-1.4-2.3-2.5-3.6-3.1c0.3-0.5,0.5-1,0.7-1.6
		c0.1-0.6,0-1.1-0.2-1.6c-0.1-0.5-0.2-0.9-0.4-1.4c-0.1-0.1-0.3-0.3-0.4-0.4c-0.1-0.1-0.2-0.2-0.3-0.3c0.2,0,0.4,0,0.6-0.1v0.1
		c0.1,0,0.2,0.1,0.2,0.1c0.9-0.1,1.7-0.3,2.4-0.5l4-1.8c0.4,0.8,1.1,1.5,2,2.3c-0.2,0.2-0.4,0.4-0.6,0.7
		C53.3,61.1,53.3,61.1,53.2,61.1z M55.1,61.1c0-0.7-0.1-1.3-0.2-1.9c-0.2-0.1-0.3-0.2-0.5-0.4c-0.4-0.4-0.9-0.8-1.4-1l1.8-0.8
		c0,0.6,0.6,1.3,1.8,2c0.1,0.2,0.2,0.4,0.3,0.7c0.4,0.7,0.5,1.5,0.5,2.3c-0.1,0.1-0.1,0.2-0.2,0.3c-0.9,0.6-1.3,1.3-1.3,2.3
		c0.9,0.3,1.8-0.1,2.7-1.4c0,0.8,0,1.7,0,2.5c-0.1,0.4-0.1,0.7-0.1,1c0-0.3,0.1-0.7,0.2-1c0,2.4,0,4.6,0,6.9h0.1
		c-0.1,0.1-0.1,0.2-0.1,0.3c0,0.4,0,0.8,0,1.2c-0.1-0.2-0.2-0.4-0.2-0.6c-0.2,0.4-0.3,0.7-0.3,0.9c-4.6-2.1-7.7-5.4-9.4-9.9
		c0.1-0.3,0.3-0.5,0.6-0.6c1.2-0.5,2.4-1.2,3.4-1.9c-0.2,0.3-0.3,0.7-0.4,1.1c1,0.4,2,0,2.7-1.3C55.1,61.6,55.1,61.3,55.1,61.1z
		 M58.7,59.1c0,0.1,0,0.2,0,0.4c0-0.1-0.1-0.2-0.1-0.2C58.6,59.2,58.7,59.2,58.7,59.1z M58.5,60.2c0-0.2-0.1-0.4-0.1-0.6
		c0-0.1,0-0.1,0-0.1c0.1,0.1,0.1,0.2,0.1,0.3c0.1-0.1,0.2-0.1,0.2-0.1c0,0.2,0,0.4,0,0.6C58.7,60.3,58.6,60.2,58.5,60.2z M50.2,71
		c-0.1-0.3-0.3-0.6-0.5-0.9c1.3,1.8,3,3.1,5.1,4l-0.6,0.4c-1-0.4-2.1-0.7-3.1-1C50.9,72.6,50.6,71.8,50.2,71z M59.5,84.3
		c0.7,0.1,1.4,0.3,2,0.4c0.1,0.3,0.2,0.5,0.4,0.7c0.8,1.8,2,3.4,3.3,4.9c0,0.7,0,1.3,0,1.9c0,0.2,0,0.3,0,0.5
		c-0.4,0.4-0.7,0.8-0.9,1.4c0.1,0.1,0.1,0.2,0.2,0.2c0.2-0.1,0.5-0.1,0.7-0.2c0,0.6,0,1.2,0,1.9c-7.5-1.1-14.6-2.6-21.2-4.5
		c0-0.1,0-0.1,0-0.1c0.4-0.1,0.8-0.2,1.3-0.3c-0.2-0.6-0.6-0.9-1-1.1c0.8-2.8,2.7-5.2,5.5-7.2c3.2,0.3,6.3,0.8,9.2,1.4
		c0.1,0.1,0.2,0.4,0.3,0.5C59.4,84.6,59.5,84.5,59.5,84.3L59.5,84.3z M45.3,85c-0.1,0-0.2-0.1-0.2-0.1C45,84.8,45,84.8,45,84.8
		c0.1,0,0.3,0,0.4,0.1L45.3,85z M64,85.9c0-0.1,0-0.2,0-0.2c0.8,0.9,2.2,1.7,4.1,2.4c-0.1,0.1,0,0.2,0.1,0.3
		c0.3,0.4,0.4,0.8,0.4,1.2s0,0.8,0,1.1c-0.1,0.2-0.3,0.2-0.6,0.3s-0.7,0.2-1,0.4c0-0.3,0.2-0.5,0.3-0.7c0-0.1,0-0.2-0.1-0.3
		c-1-1.5-2.1-3-3.2-4.4C64,85.9,64,85.9,64,85.9z M66.8,96.5c0,0,0-0.1,0-0.2c0-0.7,0-1.4,0-2.1c0.7,0,1.5-0.3,2.4-0.7
		c0-0.1,0.1-0.2,0.3-0.3c0-0.1,0.1-0.2,0.2-0.3c3.7-1.2,7.6-2.4,11.5-3.5c2.7-0.8,5.5-1.3,8.4-1.4C81.6,90.7,74,93.5,66.8,96.5z
		 M33.5,60.2c-0.4,0.1-0.6,0.1-0.9,0.1c1.3,0.2,2.5,0.5,3.5,1c0.2-0.1,0.3-0.1,0.4-0.1s0.1,0,0.1,0.1c0.2-0.1,0.3-0.1,0.4-0.1
		c0.2,0.1,0.4,0.1,0.6,0.2L38,61c0.1,0,0.2,0,0.3,0c0.1-0.1,0.2-0.1,0.3-0.1c0.5,0.8,1.1,1.6,1.8,2.3c-0.2,0.2-0.3,0.3-0.4,0.4
		c-1.2-0.8-2.5-1.3-3.9-1.2c-2.9-1.3-5.9-1.9-9-1.8c-0.1-0.1-0.2-0.2-0.1-0.3c0.3-0.6,0.5-1.1,0.5-1.5c1.2,0.4,2.4,0.8,3.8,1
		C32,60,32.7,60.1,33.5,60.2z M25.9,58.2c-0.1,0.1-0.2,0.1-0.3,0.2c0-0.1,0-0.2,0-0.3l0,0C25.7,58.1,25.8,58.2,25.9,58.2z
		 M25.2,58.5c0,0,0.1,0.1,0.2,0.2c-0.1,0-0.1,0.1-0.1,0.1c0,0.3,0,0.5-0.1,0.8c-0.1,0.7,0,1.3,0.3,1.9c0.5,0.8,1.2,1.4,2,1.6
		c2.4-0.2,4.6-0.3,6.5-0.4c-1,0.3-2,0.7-2.9,1.3c-0.2,0.1-0.3,0.2-0.3,0.4c0,0.1,0,0.2,0,0.3c0,0.4,0,0.8,0,1.2
		c0,0.9,0.1,1.7,0.5,2.6c0,0.1,0,0.2,0.1,0.4c0.3,0.5,0.7,1,1,1.4c-5.2,3-10.7,3.6-16.3,2c0-2.3,0.8-4.3,2.5-5.9c2-2,3-3.8,3-5.1
		c0.2,0.7,0.5,1.4,0.9,2.1c0.5,0.9,1.1,1,1.9,0.2c0-0.1-0.1-0.2-0.1-0.3c-0.4-0.4-0.8-1-1.2-1.5c0.1-0.3,0-0.7-0.2-1
		c-0.4-0.7-0.4-1.5-0.1-2.3c0.1-0.2,0.2-0.3,0.4-0.4s0.3-0.3,0.5-0.4c0.4,0.3,0.9,0.6,1.3,0.9C25.1,58.5,25.1,58.5,25.2,58.5z
		 M32.8,70.8c0.8,1,1.5,1.9,2.3,2.6c-1.4-0.1-2.9-0.2-4.3-0.3C31.6,72.4,32.3,71.7,32.8,70.8z M16.1,77.4c3.4-0.4,6.6-0.9,9.7-1.5
		c-1.3,0.1-2.6,0.2-3.9,0.3c1.3-0.2,2.6-0.4,3.9-0.5l0,0c1.8-0.3,3.6-0.4,5.4-0.6c-0.1-0.1-0.1-0.3-0.1-0.4c1.5-0.2,3-0.4,4.5-0.8
		c2.1,1.9,4.4,3.2,7,3.9c-0.9,0.2-1.7,0.4-2.3,0.8c-0.7,0.4-1.2,0.8-1.7,1.4c0.2,0,0.3,0.1,0.4,0.1c0.8-0.2,1.7-0.4,2.6-0.6
		c1.3-0.3,2.6-0.7,3.9-1c0.5,0,1,0.1,1.6,0.1c-1.1,0.5-2,1-3,1.7c0.1,0.1,0.2,0.1,0.3,0.2c0.1,0,0.1,0,0.1,0c0.2,0,0.3,0,0.4,0
		c3.9-1.1,7.8-2.1,11.9-2.9c-0.1-0.1-0.1-0.1-0.2-0.2c-0.5-0.1-1-0.1-1.6-0.2c-0.5,0.3-1.1,0.4-1.9,0.3c-0.5,0-1,0-1.4,0.1
		c-0.2,0-0.4,0-0.6,0c0.2-0.7,0.2-1.4,0.2-2.1c0.5,0.1,1,0.2,1.5,0.3c0,0,0,0.1-0.1,0.2c-0.1,0.2-0.3,0.4-0.4,0.7
		c0.2-0.2,0.4-0.4,0.6-0.6c1.7,0.3,3.5,0.6,5.2,1c0.2-0.1,0.4-0.1,0.6-0.1c0,0.7,0,1.3,0,2c-0.1-0.1-0.1-0.1-0.1-0.1
		c-0.5-0.1-1-0.2-1.6-0.3c-0.1,0.1-0.2,0.1-0.4,0.1c-0.4,0.1-0.8,0.1-1.2,0.2c-0.1,0-0.2,0-0.3,0l0.1,0.1c-1.1,0.3-2.1,0.8-2.9,1.6
		c0.2,0.1,0.4,0.1,0.7,0c1.9-0.5,3.8-1,5.7-1.5c0,0.8,0,1.5,0,2.2c-0.2,0-0.3,0-0.3,0.2c0.1,0.3,0.1,0.7,0.2,1.1
		c-1.6-0.3-3.1-0.5-4.5-0.8C54,81.7,54,81.6,54,81.6l0,0c0,0.1-0.1,0.1-0.2,0.1c-1.3-0.3-2.7-0.6-4.1-1c-0.5,0.4-1,0.8-1.5,1.3
		c0-0.1-0.1-0.2-0.2-0.2l0,0c-0.6,0.2-1.2,0.4-1.8,0.7c-0.5,0.2-0.9,0.5-1.3,0.8c0.5-0.1,1.1-0.1,1.6-0.2c0.3-0.2,0.6-0.3,0.8-0.3
		c-0.3,0.3-0.6,0.6-0.9,1c-0.5-0.2-1-0.2-1.5-0.4c-0.7-0.1-1.3-0.2-2-0.3l-0.1,0.1c0,0,0.1,0,0.2,0.1c-0.1-0.1-0.2-0.1-0.2-0.1
		c-10.2-2.3-20.6-3.9-31.3-4.6C13.1,78.1,14.6,77.8,16.1,77.4z"/>
	<path style="fill:#FFFFFF;" d="M83.9,49.7l-0.1-0.1c-5.3,0-10.5,0.1-15.6,0.2v0.3c0.4,0.5,0.8,1,1.1,1.5c0.1,0.1,0.2,0.3,0.4,0.4
		c2.3-0.6,4.8-1.1,7.3-1.2C79.4,50.6,81.7,50.2,83.9,49.7z"/>
	<path style="fill:#FFFFFF;" d="M85.5,60.3c-0.9,0.3-1.9,0.5-2.9,0.7c0.2,4.1,0.2,8.4-0.1,12.8c1.2,0.1,2.4,0.2,3.7,0.3
		C85.4,69.7,85.2,65.1,85.5,60.3z"/>
	<path style="fill:#FFFFFF;" d="M88.6,58.1c0.6-0.6,1.2-1.3,1.6-2.2c0.6-1.4,1.4-2.8,2.3-4.2c-1.1-0.4-2.6-0.5-4.5-0.3
		c-0.5,0.1-0.8,0-1.1-0.2c-5.6,1-11.3,1.4-17.1,1.4c-1.4,3-3.2,5.9-5.3,8.8c0,0.4,0,0.9,0,1.5C72.2,60.9,80.2,59.3,88.6,58.1z"/>
	<path style="fill:#FFFFFF;" d="M92.5,76.7c-0.1-0.1-0.2-0.2-0.3-0.2c-5.1-0.9-10.3-1.3-15.4-1.5c-0.2,0-0.2,0.1-0.3,0.2
		c0,0.3,0,0.5-0.1,0.7c-0.1,0.2-0.2,0.4-0.2,0.5c5.7,0.2,11.4,0.6,17,1.1C93,77.2,92.8,77,92.5,76.7z"/>
	<path style="fill:#FFFFFF;" d="M94.3,78.9c-0.1-0.1-0.1-0.1-0.1-0.2c-9.3-0.3-18.4-0.9-27.3-1.7c-0.1,0-0.1,0-0.1,0
		c-0.1,0-0.1,0-0.1,0c-0.2,0-0.2,0-0.3,0c-0.2,0-0.6,0-0.9-0.1c-0.2,0-0.3,0-0.5-0.1h-0.3c0,0.6,0,1.2-0.1,1.9
		c0.2-0.2,0.4-0.3,0.7-0.4c-0.1,0.1-0.1,0.3-0.1,0.4c-0.2,0.1-0.3,0.2-0.4,0.2c-0.1,0-0.1,0-0.2,0.1c-0.1,0.2-0.1,0.4-0.1,0.6
		c0.2-0.1,0.4-0.2,0.7-0.3c-0.1,0.2-0.1,0.4-0.2,0.6c-0.1,0-0.2,0-0.4,0.1c-0.1-0.1-0.1-0.1-0.1,0c0,1.1-0.1,2.2-0.2,3.4
		c-0.1,0.6-0.2,1.2-0.3,1.7c1.5,0.5,2.9,1,4.3,1.6c0.2,0,0.2,0.1,0.4,0.3c0.7,0.7,1,1.6,1.1,2.6c0,0.5,0,1-0.1,1.5
		c0-0.1,0.1-0.1,0.2-0.1c0.1,0,0.1,0.1,0.1,0.2c8.4-3.2,17.1-5.5,26.2-7.1c0.3-0.3,0.5-0.7,0.8-1.1c0-0.2,0.1-0.3,0.2-0.4
		c-1.2-1.1-1.7-2.1-1.7-3C95,79.5,94.6,79.3,94.3,78.9z M67.8,77.2L67.8,77.2L67.8,77.2L67.8,77.2z"/>
	<path style="fill:#3172A1;" d="M67.8,77.2L67.8,77.2L67.8,77.2L67.8,77.2z"/>
	<path d="M63.4,23.3L63.4,23.3c0-0.1-0.1-0.1-0.1-0.2C63.3,23.2,63.4,23.3,63.4,23.3z"/>
	<path style="fill:#3172A1;" d="M50.3,23.1c-0.5-0.3-1-0.7-1.5-1.1c-0.2-0.1-0.4-0.2-0.5-0.4c-1.6,0-3.2-0.1-4.8-0.1
		c-3.4,0.8-5.8,2.8-7.1,6c-3.8,8.6-1.3,14.2,7.6,16.7c1.4-0.4,2.8-0.8,4.2-1.2c0.9-0.3,1.5-0.7,2.1-1.4c0.7,1,1.6,1.6,2.9,2.1
		c1.8,0.6,3.6,0.6,5.4-0.2c6.5-3,8.4-7.9,5.7-14.8c-1-1.2-2-2.2-3-3.3C58,22.4,54.4,21.6,50.3,23.1z M44,23c2.2-0.7,4.1-0.2,5.6,1.2
		c0,0.4,0.1,0.8,0.3,1.1c0.1,0.2,0.3,0.5,0.6,0.7c0.6,0,1-0.4,1.2-0.8c0.2-0.4,0.5-0.7,0.9-1c3-0.1,5.7,0.8,7.9,2.7
		c0.2,0.2,0.4,0.5,0.6,0.7c4.1,5.8,3.4,10.7-1.8,14.6c-3.4,0.9-6.3,0.1-8.8-2.3c-3.3,2.8-6.9,3.2-10.8,1.3c-0.7-0.3-1.2-0.8-1.5-1.5
		C34.5,32.2,36.5,26.6,44,23z"/>
	<path style="fill:#3172A1;" d="M56.6,34c-0.1-0.1-0.2-0.2-0.4-0.2c-0.7-0.2-1.4-0.3-2.2-0.3v0.1c-0.6,0-0.8,0.4-0.7,1
		c0.1,0.2,0.1,0.3,0.1,0.4s0,0.2,0.1,0.3c0.9,1.2,1.9,1.4,3,0.6c0.2-0.5,0.2-1,0.2-1.5C56.6,34.2,56.6,34.1,56.6,34z"/>
	<path style="fill:#3172A1;" d="M48.7,33.2c-0.4-0.1-0.8-0.2-1.2-0.2c-0.2,0-0.5,0.2-0.7,0.5c-0.4,0.4-0.6,0.9-0.4,1.5
		c0.6,1.2,1.5,1.6,2.6,1h0.1c0.1-0.1,0.2-0.2,0.3-0.3c0.1-0.3,0.2-0.7,0.2-1.1s-0.2-0.8-0.5-1.1C49,33.4,48.9,33.3,48.7,33.2z"/>
	<path style="fill:#3172A1;" d="M58.6,49v-0.2c-6.4,3.5-12.5,2.8-18.3-2c-0.6-0.1-0.7,0-0.5,0.3C45.5,53.6,51.8,54.3,58.6,49z"/>
	<path style="fill:#3172A1;" d="M38.3,14.9c0,0,0,0-0.1,0c-0.1,0.5-0.3,0.9-0.5,1.4c0.1-0.1,0.2-0.1,0.3,0
		C38.1,15.8,38.2,15.3,38.3,14.9z"/>
	<path style="fill:#3172A1;" d="M20.1,13.5c0.1,0.1,0.1,0.1,0.1,0.1c-0.1-0.1-0.1-0.2-0.2-0.3C20.1,13.4,20.1,13.5,20.1,13.5z"/>
	<path d="M31,48.6l-0.3,0.1c0.1,0,0.2,0.1,0.3,0.1V48.6z"/>
	<path d="M48.6,14.3c0.1,0.1,0.1,0.3,0.2,0.4c0-0.1,0-0.2,0.1-0.4C48.8,14.3,48.7,14.3,48.6,14.3z"/>
	<path style="fill:#FFFFFF;" d="M15.9,84.7c0-0.6,0-1.2,0-1.9c0-0.6,0-1.3,0.4-1.8c0.5-0.5,1.1-0.8,1.8-1.1
		c-2.6-0.3-5.1-0.5-7.7-0.5v0.1c0.1,0.2,0.3,0.5,0.3,0.8c0.2,0.5,0.4,1,0.7,1.4c0.1,0.4,0,0.8-0.3,1.2c-0.2,0.3-0.4,0.7-0.6,0.9
		c2.1,0.7,4.3,1.3,6.4,1.9C16.6,85.4,16.3,85.1,15.9,84.7z"/>
	<path style="fill:#FFFFFF;" d="M17.5,83c-0.1-0.4-0.1-0.9,0.2-1.2c-0.4,0.4-0.6,1-0.3,1.8c-0.1,0.1,0,0.2,0,0.4
		c0.3,0.3,0.7,0.7,1.1,1c-0.2-0.3-0.2-0.9,0.1-1.8c0.9,0.8,1.9,1.1,3,1.1l0,0l-0.1,0.2c-1.3,0.6-2.2,0.8-2.7,0.7
		c0.3,0.2,0.7,0.4,1.1,0.5c0.7-0.1,1.3-0.3,1.9-0.5c0.4-0.5,0.5-1.1,0.4-1.9c0-0.2,0-0.5,0-0.7c-0.3-0.2-0.5-0.4-0.7-0.5v0.1
		c0.1,0.5-0.1,0.9-0.4,1.2c-0.5,0.4-0.7,0.2-0.6-0.7c-0.7-0.8-1.6-0.6-2.6,0.4C17.9,83.1,17.8,83.1,17.5,83z"/>
	<path style="fill:#FFFFFF;" d="M9.6,82.4c0.1,0,0.1,0,0.1-0.2c0-0.2-0.1-0.5-0.1-0.7c-0.1-0.2-0.3-0.4-0.4-0.7
		C8.4,80.9,7.7,80.9,7,81C6.3,82.6,7.2,83.1,9.6,82.4z"/>
	<path style="fill:#FFFFFF;" d="M36.2,84.9c0,0.1,0.1,0.2,0.2,0.3c0.1,2.5-0.6,4-2.2,4.6c0.8,0.2,1.6,0.3,2.4,0.5
		c1.6,0.3,3.1,0.5,4.6,0.8c-1.2-0.7-1.8-2.1-1.6-4.4c0.1-0.7,0.3-1.3,0.8-1.9c0.1-0.1,0.3-0.2,0.4-0.2l0.1-0.3
		c-1.9-0.4-3.8-0.7-5.9-1.1C35.4,83.6,35.9,84.2,36.2,84.9z"/>
	<path style="fill:#FFFFFF;" d="M34,85.3c-0.1-0.1-0.2-0.2-0.3-0.3c-0.8-0.6-1.8-0.8-2.9-0.5c-0.7,0.6-1.1,1.3-1.3,2.2
		c0,0.2,0,0.3,0,0.4c0.5,0.6,1.2,1.1,2,1.5c1.3-0.1,2.4-0.5,3.1-1.4C34.6,86.6,34.4,85.9,34,85.3z M31.5,84.5
		c0.4,0.1,0.8,0.1,1.3,0.1c0.3,0.4,0.6,0.8,0.9,1.2c0.2,0.2,0.3,0.4,0.3,0.7c-0.6,0.4-1.4,0.3-2.3-0.4c-0.1-0.1-0.2,0-0.4,0.2
		c-0.7,0.2-0.8-0.1-0.5-1C31,84.9,31.2,84.6,31.5,84.5z M30.4,86.6h0.4c0.8,0.3,1.7,0.5,2.6,0.4v0.2C31.5,89,30.5,88.7,30.4,86.6z"
		/>
	<path style="fill:#3172A1;" d="M32.8,84.6c-0.5,0-0.9,0-1.3-0.1c-0.3,0.1-0.5,0.4-0.7,0.8c-0.3,0.9-0.2,1.2,0.5,1
		c0.2-0.2,0.3-0.3,0.4-0.2c0.9,0.7,1.7,0.8,2.3,0.4c0-0.3-0.1-0.5-0.3-0.7C33.4,85.4,33.1,85,32.8,84.6z"/>
	<path style="fill:#3172A1;" d="M30.8,86.6h-0.4c0.1,2.1,1.1,2.4,3,0.6V87C32.5,87.1,31.6,86.9,30.8,86.6z"/>
	<path style="fill:#FFFFFF;" d="M23.1,81.1c0.1,0.1,0.3,0.2,0.4,0.4c0.3,0.6,0.4,1.4,0.4,2.2c0,0.9-0.2,1.6-0.7,2.3
		c-0.6,0.4-1.3,0.7-1.9,0.9c2.3,0.5,4.6,1.1,6.9,1.6l0,0c-0.3-0.6-0.4-1.2-0.3-1.9c0.1-0.4,0.1-0.8,0.1-1.1c0.7-1.3,1.7-2.4,2.8-3.2
		c-0.9-0.2-1.8-0.4-2.7-0.6c-1.7-0.4-3.3-0.8-4.9-1L23.1,81.1z"/>
	<path style="fill:#FFFFFF;" d="M41.4,86.7C41.1,87,41,87.4,41,87.8c0.1,0.2,0.1,0.3,0.1,0.4c0,0.2,0,0.3,0,0.3
		c0.4,0.6,0.8,1,1.3,1.5c0,0,0,0,0.1,0s0.2,0,0.3,0c0-0.1,0-0.1,0-0.2c-0.1-0.5-0.2-1-0.1-1.5c0-0.1,0-0.2,0-0.3
		c0.5-0.6,1-1.1,1.5-1.7l-0.1-0.1c-0.9,0-1.7,0-2.5,0.1C41.5,86.5,41.4,86.6,41.4,86.7z"/>
	<path style="fill:#FFFFFF;" d="M67.3,54.2c0.2-0.2,0.5-0.5,0.8-0.7c-0.1-0.5-0.3-1-0.8-1.5c-0.3-0.3-0.5-0.5-0.7-0.8
		c-1.8,1.4-3.5,2.9-5,4.6c0.6,0.1,1.3,0.2,1.9,0.3c0.2,0.1,0.4,0.1,0.5,0.2c0,0.7,0.2,1.4,0.2,2.2C64.9,57,65.9,55.6,67.3,54.2z"/>
	<path style="fill:#FFFFFF;" d="M62.7,57.6v-0.2c-0.8-0.1-1.7-0.1-2.5,0v0.2c0.2,6.3,0.1,12.5-0.4,18.6c0.1,0,0.1,0,0.1,0
		c0.1,0.1,0.2,0.1,0.3,0.3c0,0,0,0.1-0.1,0.1c0,0.1-0.1,0.1-0.2,0.1c0,0-0.1,0-0.1,0.1c-0.1,1.1-0.2,2.2-0.3,3.3
		c0,0.7-0.2,1.3-0.3,1.8c0.1,0.3,0.2,0.5,0.3,0.8c0.9,0.1,1.9,0.2,2.8,0.4c-0.1-1,0-2,0.2-3.1c1-5.6,1.2-11.1,0.5-16.8l0,0l0,0l0,0
		C62.8,61.3,62.7,59.5,62.7,57.6z"/>
	<path style="fill:#FFFFFF;" d="M61.5,84.7c-0.6-0.1-1.3-0.3-2-0.4l0,0c0,0.2-0.1,0.3-0.2,0.4c-0.1-0.1-0.2-0.4-0.3-0.5
		c-2.9-0.6-6-1.1-9.2-1.4c-2.8,2-4.7,4.4-5.5,7.2c0.4,0.2,0.8,0.5,1,1.1c-0.5,0.1-0.9,0.2-1.3,0.3c0,0,0,0,0,0.1
		c6.6,1.9,13.7,3.4,21.2,4.5c0-0.7,0-1.3,0-1.9c-0.2,0.1-0.5,0.1-0.7,0.2c-0.1,0-0.1-0.1-0.2-0.2c0.2-0.6,0.5-1,0.9-1.4
		c0-0.2,0-0.3,0-0.5c0-0.6,0-1.2,0-1.9c-1.3-1.5-2.5-3.1-3.3-4.9C61.7,85.2,61.6,85,61.5,84.7z"/>
	<path style="fill:#FFFFFF;" d="M64,85.7c0,0,0,0.1,0,0.2c0,0,0,0,0,0.1c1.1,1.4,2.2,2.9,3.2,4.4c0.1,0.1,0.1,0.2,0.1,0.3
		c-0.1,0.2-0.3,0.4-0.3,0.7c0.3-0.2,0.7-0.3,1-0.4s0.5-0.1,0.6-0.3c0-0.3,0-0.7,0-1.1s-0.1-0.8-0.4-1.2c-0.1-0.1-0.2-0.2-0.1-0.3
		C66.2,87.4,64.8,86.6,64,85.7z"/>
	<path style="fill:#3172A1;" d="M36.4,76c-1.3-0.1-2.6-0.3-3.9-0.4c-0.2,0.2-0.4,0.3-0.7,0.5c-0.4,0.2-1,0.4-1.7,0.5
		c-2.2,0.3-4,0.8-5.3,1.5c2.6-0.5,5.3-0.9,8-1.1c1.2,0,2.3-0.1,3.5-0.1c1.1-0.1,1.2-0.3,0.2-0.8C36.5,76,36.4,76,36.4,76z"/>
	<path style="fill:#3172A1;" d="M40.6,77.9c-0.5-0.1-1-0.2-1.6-0.3c-1.3,0.1-2.6,0.3-3.9,0.6c-1.7,0.3-3.4,0.8-4.8,1.4
		c2.8-0.1,5.6-0.4,8.3-1c0.7-0.1,1.4-0.3,2.2-0.5C40.7,78,40.7,78,40.6,77.9z"/>
	<path style="fill:#3172A1;" d="M43.1,80.2c0.1,0,0.2,0,0.4,0c-0.2,0-0.3,0-0.5-0.1C43.1,80.2,43.1,80.2,43.1,80.2z"/>
	<path style="fill:#FFFFFF;" d="M16.1,77.4c-1.5,0.4-3,0.7-4.6,1.2c10.7,0.7,21.1,2.3,31.3,4.6l0,0l0.1-0.1c0.7,0.1,1.3,0.2,2,0.3
		c0.5,0.2,1,0.2,1.5,0.4c0.3-0.4,0.6-0.7,0.9-1c-0.2,0-0.5,0.1-0.8,0.3c-0.5,0.1-1.1,0.1-1.6,0.2c0.4-0.3,0.8-0.6,1.3-0.8
		c0.6-0.3,1.2-0.5,1.8-0.7l0,0c0.1,0,0.2,0.1,0.2,0.2c0.5-0.5,1-0.9,1.5-1.3c1.4,0.4,2.8,0.7,4.1,1c0.1,0,0.2,0,0.2-0.1l0,0
		c0,0,0,0.1,0.1,0.2c1.4,0.3,2.9,0.5,4.5,0.8c-0.1-0.4-0.1-0.8-0.2-1.1c0-0.2,0.1-0.2,0.3-0.2c0-0.7,0-1.4,0-2.2
		c-1.9,0.5-3.8,1-5.7,1.5c-0.3,0.1-0.5,0.1-0.7,0c0.8-0.8,1.8-1.3,2.9-1.6l-0.1-0.1c0.1,0,0.2,0,0.3,0c0.4-0.1,0.8-0.1,1.2-0.2
		c0.2,0,0.3,0,0.4-0.1c0.6,0.1,1.1,0.2,1.6,0.3c0,0,0,0,0.1,0.1c0-0.7,0-1.3,0-2c-0.2,0-0.4,0-0.6,0.1c-1.7-0.4-3.5-0.7-5.2-1
		c-0.2,0.2-0.4,0.4-0.6,0.6c-0.2,0.2-0.4,0.5-0.5,0.8c-0.1,0-0.1,0-0.1,0.1c0.4-0.1,0.9-0.1,1.4-0.1c0.8,0.1,1.4,0,1.9-0.3
		c0.6,0.1,1.1,0.1,1.6,0.2c0.1,0.1,0.1,0.1,0.2,0.2c-4.1,0.8-8,1.8-11.9,2.9c-0.1,0-0.2,0-0.4,0c0,0,0,0-0.1,0
		c-0.3-0.1-0.6-0.2-0.9-0.3c-0.2,0-0.3,0-0.4,0c0,0,0,0-0.1-0.1c-0.5-0.2-1-0.4-1.4-0.6c-0.9,0.2-1.8,0.4-2.6,0.6
		c-0.1,0-0.2-0.1-0.4-0.1c0.5-0.6,1-1,1.7-1.4c-0.6,0-1.2,0-1.7,0c-2.7,0.6-5.5,0.9-8.3,1c1.4-0.6,3.1-1.1,4.8-1.4
		c-0.9-0.3-1.6-0.7-2.3-1.2c-2.7,0.2-5.4,0.6-8,1.1c1.3-0.7,3.1-1.2,5.3-1.5c0.7-0.1,1.3-0.3,1.7-0.5c-0.2-0.3-0.4-0.6-0.6-1
		c-1.8,0.2-3.6,0.3-5.4,0.6l0,0c-1.3,0.1-2.6,0.3-3.9,0.5c1.3-0.1,2.6-0.2,3.9-0.3C22.7,76.5,19.5,77,16.1,77.4z M36.5,81.1
		c0-0.1,0.1-0.1,0.1-0.1l0.1,0.2C36.6,81.2,36.6,81.2,36.5,81.1z M30.3,75.9C30.2,76,30.1,76,30.1,76H30
		C30.1,75.9,30.2,75.9,30.3,75.9z M25.9,78.2L25.9,78.2h-0.1C25.8,78.2,25.8,78.2,25.9,78.2z M58.1,78.3L58.1,78.3
		c-0.1,0-0.1-0.1-0.1-0.1s0,0,0.1,0C58.1,78.2,58.1,78.2,58.1,78.3z M51.9,80l0.1,0.1c-0.2,0.1-0.4,0.1-0.6,0.2
		C51.5,80.2,51.7,80.1,51.9,80z M42.9,82.1v0.1c-0.1,0-0.2,0-0.3,0C42.7,82.2,42.8,82.1,42.9,82.1z"/>
	<path style="fill:#3172A1;" d="M36.6,81c0,0-0.1,0-0.1,0.1c0.1,0.1,0.1,0.1,0.2,0.1L36.6,81z"/>
	<path style="fill:#3172A1;" d="M30.1,76c0,0,0.1,0,0.2-0.1c-0.1,0-0.2,0-0.3,0.1H30.1z"/>
	<path style="fill:#3172A1;" d="M25.9,78.2L25.9,78.2c-0.1,0-0.1,0-0.1,0H25.9z"/>
	<path style="fill:#3172A1;" d="M58.1,78.3L58.1,78.3c0-0.1,0-0.1,0-0.1c-0.1,0-0.1,0-0.1,0S58,78.3,58.1,78.3z"/>
	<path style="fill:#3172A1;" d="M52,80.1L51.9,80c-0.2,0.1-0.4,0.2-0.5,0.3C51.6,80.2,51.8,80.2,52,80.1z"/>
	<path style="fill:#3172A1;" d="M42.9,82.2v-0.1c-0.1,0-0.2,0.1-0.3,0.1C42.7,82.2,42.8,82.2,42.9,82.2z"/>
</g>
</svg>
