<?xml version="1.0" encoding="iso-8859-1"?>
<!-- Generator: Adobe Illustrator 12.0.1, SVG Export Plug-In . SVG Version: 6.00 Build 51448)  -->
<!DOCTYPE svg PUBLIC "-//W3C//DTD SVG 1.1//EN" "http://www.w3.org/Graphics/SVG/1.1/DTD/svg11.dtd" [
	<!ENTITY ns_svg "http://www.w3.org/2000/svg">
	<!ENTITY ns_xlink "http://www.w3.org/1999/xlink">
]>
<svg  version="1.1" id="Layer_1" xmlns="&ns_svg;" xmlns:xlink="&ns_xlink;" width="82.8" height="80.231"
	 viewBox="0 0 82.8 80.231" style="overflow:visible;enable-background:new 0 0 82.8 80.231;" xml:space="preserve">
<g>
	<g>
		<path style="fill:#3172A1;" d="M80.5,76.3v0.1c-3.1,0.5-5.8,1.7-8.2,3.4c0.2,0.1,0.4,0.1,0.6,0c2.9-1.1,5.9-2.1,8.9-3
			c-0.1-0.1-0.2-0.1-0.2-0.2C81.2,76.5,80.9,76.4,80.5,76.3z"/>
		<path style="fill:#3172A1;" d="M80.1,75.9c0.1-0.1,0.2-0.2,0.3-0.2c0.2-0.2,0.5-0.4,0.7-0.7c0.6-0.1,1.1-0.1,1.7-0.2
			c-0.1-0.1-0.1-0.1-0.2-0.1c-0.3-0.1-0.7-0.1-1.1-0.2c0.3-0.3,0.4-0.7,0.5-1.1c-6.5-4-13.8-6.1-21.7-6.5l0,0c1-1.1,1.4-2.3,1.3-3.7
			c-0.1-0.2-0.1-0.3-0.2-0.3c-0.5-0.4-1-0.7-1.6-0.9c6.2-4.9,8.4-11.7,6.9-20.5c-0.5-2.5-1.2-4.7-2.4-6.8c-1-1.7-2.1-3.3-3.4-4.8
			c0-0.1-0.1-0.2-0.1-0.3c0.2,0,0.6,0.1,1,0.2c-0.3-0.3-0.5-0.5-0.8-0.7c-0.2-0.3-0.5-0.5-0.7-0.8c-1-3.2-1-6.6,0.2-10
			c0.5-0.2,1-0.4,1.6-0.6c-0.3-0.4-0.6-0.6-1.1-0.9c0.1-0.1,0.2-0.4,0.3-0.5c-0.1,0.1-0.3,0.4-0.3,0.5c-0.4-0.3-0.8-0.5-1.2-0.6
			c-0.1-0.3-0.3-0.5-0.4-0.7c-0.4-0.3-0.4-0.7-0.3-1.2c0-0.1,0.1-0.2,0.1-0.3c0.3-0.5,0.7-0.9,0.9-1.3c1.4,2.5,3.6,3.5,6.7,3.1
			c0.4-0.3,0.8-0.6,1.2-1.1c0.1-0.2,0.2-0.3,0.3-0.4c0-0.8-0.1-1.5-0.1-2.3C67.9,7.7,66,4.2,62.3,1.5c-0.8,0-1.5,0-2.3-0.1
			c-0.3,0.3-0.8,0.5-1.3,0.7c-0.2,0.1-0.3,0.2-0.4,0.3c0,0.2,0,0.3,0,0.4c0,0.7,0,1.5,0,2.2c0,0.3,0,0.5,0,0.8
			c-7.1,2.5-11.2,7.3-12.4,14.1c-0.2,0.2-0.3,0.4-0.4,0.6l0,0c0,0.1,0,0.1,0,0.2c-0.1,0.1-0.1,0.2-0.1,0.3c0,0.2,0,0.3,0,0.4
			c0,0.2,0,0.4,0,0.6c-3.2-1.2-6.6-1.7-10.1-1.4c-0.4,0.3-0.8,0.4-1.3,0.6c0-0.2,0-0.4,0-0.6c-0.3,0-0.5,0-0.7,0.1
			c0-0.2,0-0.4,0-0.7c-0.3-3.1-1-5.9-2.3-8.3c-0.9-0.8-1.6-1.7-2.4-2.7c-1.5-2.2-3.5-3.7-5.9-4.6c-0.5-0.2-1-0.4-1.5-0.6
			c0-0.1,0-0.2,0-0.2c0-0.5,0-1-0.1-1.6c0.1-0.4,0-0.8-0.4-1.2c0,0-0.1-0.1-0.1-0.3c-0.1-0.1-0.2-0.1-0.4-0.2
			C19.5,0.2,18.8,0.1,18,0c-0.7,0.5-1.3,1.1-1.9,1.8c-2.4,3-3.3,6.4-2.7,10.5c0.9,0.2,1.8,0.3,2.6,0.2c-0.1,0.1-0.2,0.2-0.3,0.2
			c0.2,0,0.5,0,0.8,0c0.1-0.1,0.2-0.2,0.4-0.3c0.9-0.3,1.6-0.9,2.1-1.7c0.1,0.1,0.2,0.2,0.4,0.3c0,0.2,0,0.3,0,0.4
			c0,1.7-0.6,3.2-1.6,4.5c-1.3,0.3-2.1,0.9-2.4,1.9c1.4,0.3,2.8,0.6,4.1,1c1.5,2.7,1.6,5.2,0.1,7.6c-0.2,0.2-0.4,0.4-0.6,0.6
			c0,0.1,0,0.1,0.1,0.1c-0.9,0.8-1.8,1.5-2.6,2c0.1,0.1,0.2,0.1,0.4,0.2c-4.3,4.4-6.5,10.2-6.8,17.5c0,2.1,0.2,4.2,0.7,6.1
			c0.9,3.2,2.3,5.8,4.1,8.1c-1,0.3-1.9,1-2.6,2.1c-0.4,0.5-0.6,1.2-0.5,1.8c0.1,0.5,0.3,1,0.5,1.5c0.1,0.1,0.2,0.3,0.3,0.4
			c0.4,0.1,0.8,0.3,1.3,0.6c-4.6,0.3-8.7,1.9-12.4,4.7c0,0.2,0,0.3,0,0.4c-0.1,0.8,0,1.6,0.3,2.3c0,0.1,0,0.1,0.1,0.1
			c-0.8,0.3-1.4,0.9-1.9,1.5c1.2,0.1,2.2-0.1,3.2-0.4c0.9,0.1,1.8,0.3,2.6,0.4c-1.3,0.5-2.6,1.2-3.7,2.1c0.1,0.2,0.1,0.2,0.1,0.2
			c2.2-0.5,4.3-1.1,6.6-1.9c1,0.1,2,0.2,2.9,0.3c-1.6,0.4-3.1,1-4.4,1.7c2.5-0.1,5.1-0.6,7.6-1.6c2,0,4-0.1,6.1-0.3
			c-2.3,0.8-4.5,1.5-6.7,2.4c0.2,0,0.4,0,0.7,0c8.4-1.9,16.7-4.1,24.8-6.5c1.6-0.1,3.2-0.2,4.8-0.5c-0.4,0.2-0.9,0.4-1.5,0.5
			c-5.7,1.3-11,3.2-16.1,5.6c6-1.1,12.4-2.8,19-5.2c1.5,0.7,3,1.3,4.5,1.9c-0.8-0.2-1.6-0.4-2.5-0.4c-0.5,0.3-1.1,0.5-2,0.7
			c-3.2,0.3-6.1,1.3-8.7,2.9c0.3,0,0.7-0.1,1.1-0.1c4.4-0.9,8.5-1.8,12.4-2.9c-0.1-0.1-0.1-0.1-0.2-0.2c0.9,0.3,1.7,0.6,2.6,0.8
			c-1.9,0.4-3.4,1.1-4.6,2.1c0.3,0.6,0.7,0.8,1.5,0.7c3.5-0.6,5.3-1.3,5.3-2.2c1.9,0.4,3.7,0.7,5.6,1c-0.1-0.1-0.3-0.1-0.5-0.1
			c-0.9,0.3-2,0.6-3.2,0.9c-0.4,0.1-0.7,0.3-0.7,0.7c0.3,0.7,0.7,0.8,1.3,0.5c1.5-0.9,3.1-1.4,4.9-1.7c-0.1-0.1-0.1-0.1-0.2-0.1
			c-0.3-0.1-0.6-0.1-0.9-0.2c1.5,0.2,3.1,0.2,4.7,0.2c-1.4,0.7-2.5,1.4-3.6,2.2c0.5,0.4,1.1,0.4,1.7,0.2c2.1-0.9,4.4-1.8,6.6-2.6
			C74.1,77.2,77.1,76.7,80.1,75.9z M59.8,5c0-0.1,0-0.2,0-0.3c0-0.3,0-0.5,0-0.8c0-0.1,0-0.2,0-0.4c0-0.1,0.1-0.1,0.2-0.2
			c0.5-0.1,1-0.1,1.5-0.1c0.7,0.4,1.3,0.9,1.7,1.5c0.8,1,1.6,2,2.3,3c0.3,1,0.6,2,1,3.1c0.4,1.2,0.3,2.3-0.4,3.2
			c-0.9,0.1-1.7-0.2-2.5-0.8C62.2,12,61,10.7,60,9.3c-5.1,0.7-8.4,3.4-10,8.1c-1,2.7-1,4.6-0.3,5.7c-0.1,0.3-0.1,0.5-0.2,0.8
			c-0.2,0.1-0.4,0.3-0.6,0.4c2.1,0.6,4,1.4,5.9,2.3c0.4,0.2,0.7,0.3,1.1,0.4c0.7,0.6,1.5,1.2,2.3,1.7c0.7,0.5,1.3,1.1,1.9,1.7
			c0.4,0.7,1.1,1.5,1.7,2.3c0.1,0.1,0.1,0.2,0.1,0.3l-0.2,0.2c2.4,3.4,3.7,7.9,3.7,13.4c0,4.2-1.5,7.8-4.5,10.9
			c-9.3,9.8-21.1,12.4-35.3,8c-3.9-1.2-7-3.4-9.5-6.5c-5.2-6.5-6.1-13.9-2.6-22c0.1-0.1,0.2-0.2,0.4-0.4c0.1-0.1,0.2-0.2,0.4-0.3
			c0-0.2,0.1-0.3,0.2-0.4c0-0.1,0-0.2,0-0.4c0-0.1,0-0.2,0.1-0.3c0-0.2,0.1-0.3,0.2-0.4c0.8-0.7,1.5-1.5,2.1-2.4
			c3-4.4,6.9-7.3,11.7-8.7v-0.1c0-0.2,0-0.3,0-0.5c0,0,0.2-0.2,0.3-0.3c0.1-0.1,0.2-0.2,0.2-0.4c0-0.3,0-0.6,0-1
			c0,0.5,0.1,0.9,0.2,1.4c1.6-8.3-1.5-13-9.5-14.4V8.3c-0.2,0-0.3,0-0.4,0c-0.2,0-0.3,0-0.5,0c0,0.1,0,0.2,0,0.3
			c-0.3,0.1-0.5,0.4-0.6,0.7C18,10,17.6,10.5,17,10.9c-0.5,0.2-1,0.3-1.5,0.3c-0.3,0-0.6-0.1-0.9-0.3c0-0.3,0-0.7,0-1.1
			c0-4.1,1.6-6.8,4.8-8.1c-0.1,0.7-0.2,1.5-0.3,2.2C19,4.7,19.3,5.1,20,5.3c0.1-0.1,0.2-0.1,0.3-0.2c0.3,0.2,0.6,0.4,0.9,0.6
			c6.4,3.2,10,8.3,10.7,15.2c-0.2,0.2-0.3,0.4-0.3,0.6c-0.1,0-0.2,0-0.2,0.1h-0.1c-0.1,0.1-0.2,0.2-0.3,0.3
			c-0.1,0.1-0.1,0.2-0.1,0.4c0,0.1,0,0.2,0.1,0.3c0.2,0.2,0.4,0.3,0.5,0.3c0.2,0.1,0.3,0,0.4-0.1c0.1,0,0.2-0.1,0.3-0.2
			c0.2-0.1,0.3-0.2,0.6-0.2c0.8,0,1.6,0,2.5,0.1c4,0.1,7.5,0.3,10.4,0.4c0.1,0,0.1,0,0.1,0l0,0h0.1h0.3c0.4,0,0.8,0,1.2,0
			c-0.1-0.1-0.1-0.2-0.2-0.2c-0.3-0.2-0.6-0.3-0.9-0.4c0.2-0.4,0.3-0.8,0.4-1.2c-0.1,0-0.2-0.1-0.3-0.2c2.2-6.7,6.9-11.4,14.2-14
			c0.1-0.6-0.2-1.1-0.8-1.6C59.8,5.3,59.8,5.2,59.8,5z M50.8,22.2c0,0,0-0.1,0-0.3c0.1-0.2,0.2-0.5,0.3-0.8c0.6-4.7,3.1-7.8,7.4-9.2
			c-0.8,1.5-0.8,3.3-0.1,5C55.4,18,52.9,19.8,50.8,22.2z M57.9,27v0.1c-0.1-0.1-0.2-0.2-0.4-0.3c-2-1.1-4.1-2.2-6.2-3.3
			c0-0.3-0.1-0.6-0.2-0.9c2.7-1.5,5.6-2.8,8.8-4.1c-1.6,3.1-1.9,6.1-1,9C58.5,27.3,58.2,27.1,57.9,27z M25.4,13.3
			c1.2,1.9,2.2,3.8,2.9,5.6c-0.4,0.9-0.5,1.9-0.3,3.1c-0.1,0.1-0.2,0.1-0.3,0.1c-2.5-3.2-5.4-5-8.7-5.6c0.2-0.2,0.4-0.5,0.6-0.7
			c1-1.8,1.3-3.8,1-5.9C22.6,10.3,24.1,11.4,25.4,13.3z M27.4,22.2c-2.3,0.5-4.2,1.3-5.8,2.5c0.6-1.7,0.4-3.4-0.4-5.3
			C23.4,20.1,25.5,21.1,27.4,22.2z M21.1,68.7h0.1c0.1,0.4,0.2,0.9,0.3,1.3c3.1,1,6.3,2,9.4,3.3C21.3,76.2,12,76.2,3,73.4
			c3.9-3,8.6-4.6,13.8-4.8c0.1,0,0.2,0,0.3,0c0.5-0.1,1.1-0.1,1.7-0.1c0-0.1,0-0.2,0-0.4c0.1-0.3,0.1-0.6,0.1-0.9
			c-0.4-0.1-0.8-0.1-1.1-0.2l0,0c-0.5-0.2-1-0.5-1.8-0.6c-1.2-0.3-2-0.9-2.4-1.9c0.1-0.4,0.3-0.8,0.6-1.1c0.2-0.1,0.3-0.2,0.4-0.4
			c0.3-0.1,0.6-0.1,0.9-0.1c0.4,0,0.8,0,1.2-0.1c0.5,0.5,1.1,1,1.8,1.5c-0.1,0.1-0.2,0.1-0.2,0.2c0,0.3,0,0.5,0,0.8
			c0,0.4,0,0.8,0,1.1C19.3,67.1,20.3,67.8,21.1,68.7z M23,68.3c-0.1,0-0.1,0-0.1,0c-0.1-0.2-0.2-0.3-0.3-0.4c0-0.2,0.1-0.4,0.2-0.6
			h-0.1c-0.2,0-0.4,0-0.6,0c-0.5-0.5-1-1-1.6-1.6l-0.1-0.2c0.1-0.1,0.2-0.1,0.2-0.2c0.7,0.3,1.4,0.5,2.1,0.8
			c0.6,0.2,0.9,0.5,0.9,0.9c0.5,0.3,1,0.4,1.5,0.6c0.2,0.1,0.4,0.1,0.5,0.1c-0.3,0.3-0.6,0.6-1,0.9c1-0.1,2.1-0.3,3.2-0.4
			c3.1,0.6,6.2,1,9.4,1.2c1.8,0,3.6-0.2,5.4-0.4l0,0c0.3,0.2,0.6,0.3,0.8,0.4c1-0.1,1.9-0.1,2.8-0.2c0.2-0.1,0.4-0.2,0.7-0.2
			c-0.5-0.2-0.9-0.4-1.3-0.6c1.3-0.3,2.6-0.6,3.8-1c-0.4,0.2-0.8,0.5-1.2,0.7c0.5,0.1,1.1,0.2,1.7,0.4c-1.6,0.6-2.9,1.6-3.9,2.9
			c-5.4,0.1-10.9-0.2-16.4-0.9c-1.5-0.9-3.1-1.5-5-1.9C24.1,68.5,23.5,68.4,23,68.3z M31.2,71.5c1.6,0.5,3.3,0.9,5,1.1
			c-1,0.2-2,0.5-3,0.8c-0.1-0.1-0.1-0.2-0.1-0.3C32.5,72.5,31.8,72,31.2,71.5z M57.2,63.8c0.3-0.2,0.7-0.4,1-0.7
			c0.6,0.5,1.3,0.8,2.3,1.1c-0.1,0.2-0.3,0.4-0.5,0.7c-0.7,0.7-1.2,1.4-1.5,1.9c-0.2,0.1-0.5,0.2-0.7,0.3c0.1,0.4,0.2,0.9,0.2,1.4
			c8.2,0.3,15.4,2,21.6,5.4c-11,3.3-21.8,2.7-32.3-1.6c2.4-1.8,5-2.8,8-3.3c0-0.1,0-0.2,0.1-0.4c0-0.3,0.1-0.6,0.1-0.9
			c1-0.4,1.5-1.3,1.6-2.4C57,65.2,57,65.1,57,65c-0.3-0.4-0.6-0.6-0.9-0.8c0.4-0.1,0.9-0.1,1.3-0.1C57.3,64,57.2,63.9,57.2,63.8z
			 M54.3,66.8c-0.6,0.2-0.8,0.5-0.7,0.9c-0.7,0-1.5,0.1-2.1,0.3c-0.6-0.3-1.1-0.5-1.7-0.7c1.2-0.5,2.4-0.9,3.5-1.5
			c0.1,0.1,0.2,0.2,0.3,0.4l0.2-0.6c0.3,0.3,0.9,0.3,1.7,0.2C55.1,66.2,54.7,66.5,54.3,66.8z"/>
		<path style="fill:#3172A1;" d="M36,27.3c-1.6-0.1-3.2-0.1-4.7-0.2c-3.4,0.8-5.8,2.8-7.2,6c-3.8,8.7-1.2,14.3,7.7,16.8
			c1.3-0.5,2.7-0.8,4.2-1.3c0.8-0.2,1.5-0.7,2-1.3c0.7,0.9,1.7,1.6,2.9,2c1.9,0.7,3.7,0.6,5.5-0.2c6.5-2.9,8.4-7.8,5.6-14.7
			c-0.9-1.2-1.9-2.3-3-3.4c-3.2-3-6.9-3.7-11-2.2c-0.4-0.4-0.9-0.7-1.5-1.2C36.4,27.5,36.2,27.4,36,27.3z M38.3,31.6
			c0.5,0,0.9-0.3,1.2-0.8c0.2-0.3,0.5-0.7,0.9-0.9c3-0.2,5.6,0.7,7.9,2.6c0.2,0.3,0.4,0.5,0.6,0.8c4,5.7,3.4,10.6-1.9,14.6
			c-3.4,0.8-6.3,0.1-8.7-2.3c-3.4,2.7-7,3.2-10.8,1.3c-0.8-0.3-1.3-0.8-1.6-1.5c-3.6-7.5-1.7-13.1,5.9-16.8c2.2-0.6,4-0.2,5.6,1.3
			c0,0.4,0.1,0.7,0.2,1C37.8,31.2,38,31.4,38.3,31.6z"/>
		<path style="fill:#3172A1;" d="M41.9,38.1c-0.2-0.1-0.3-0.1-0.4-0.2c-0.8-0.1-1.5-0.2-2.2-0.3v0.1c-0.6,0.1-0.9,0.4-0.7,1.1
			c0,0.1,0,0.2,0,0.3c0,0.2,0.1,0.3,0.1,0.4c0.9,1.1,1.9,1.3,3.1,0.5c0.1-0.5,0.2-1,0.1-1.5C41.9,38.4,41.9,38.3,41.9,38.1z"/>
		<path style="fill:#3172A1;" d="M37.4,37.6c-0.2-0.1-0.3-0.2-0.4-0.2c-0.4-0.1-0.8-0.2-1.2-0.3c-0.3,0.1-0.5,0.3-0.8,0.5
			c-0.4,0.4-0.5,0.9-0.4,1.5c0.7,1.3,1.5,1.6,2.6,1.1c0.1-0.1,0.1-0.1,0.2-0.1c0-0.1,0.1-0.2,0.2-0.2c0.2-0.4,0.2-0.7,0.2-1.1
			C37.8,38.3,37.7,38,37.4,37.6z"/>
		<path style="fill:#3172A1;" d="M19.1,48.2c0.5,0.6,0.9,1.1,1.5,1.5c-0.1,0.4,0,0.9,0.3,1.3c0.8,4.1,3.2,7.4,7.2,9.8
			c3.9,2.3,8.3,2.9,12.9,1.7c1.5-0.3,2.8-0.8,4-1.3c5.8-2.4,9-6.4,9.9-12c0.4-0.5,0.8-1.1,1.1-1.8c-0.3-0.1-0.7,0-1,0.1
			c0-0.1,0-0.1,0-0.1s0,0.1,0,0.2c-0.1,0-0.2,0-0.3,0c-11.4,7.1-22.5,7.5-33.3,1.3l0,0c-0.7-0.3-1.3-0.5-2-0.8
			C19.1,48.1,19,48.1,19.1,48.2z M21.8,50.4c0.2,0.3,0.6,0.7,1.1,0.9c7.5,4.3,15.6,5.2,24.2,2.5c2.3-0.7,4.2-1.6,5.7-2.7
			c-0.4,0.8-0.8,1.5-1.2,2.3c-1.5,3-4,5.2-7.3,6.4c-1.9-2.5-4.8-3.5-8.5-2.9c-1.6,0.3-3,1-4.4,1.9c-0.6,0.5-1.1,1-1.3,1.6
			c-4-1.6-7-5-8.9-10.3C21.4,50.2,21.6,50.3,21.8,50.4z M43.6,60.1c-0.3,0.1-0.6,0.2-0.8,0.2c-4.5,1.3-8.3,1.5-11.5,0.5
			C35.7,57.6,39.8,57.3,43.6,60.1z"/>
		<path style="fill:#009659;" d="M46.2,22.9L46.2,22.9h-0.3H46.2z"/>
		<path d="M45.9,22.9c0,0.1,0.1,0.3,0.1,0.5c0.1-0.2,0.1-0.3,0.2-0.5H45.9z"/>
		<path d="M61.9,33c-0.5-0.4-0.9-0.8-1.4-1.2c0.4,0.4,0.8,0.9,1.2,1.4L61.9,33z"/>
		<path d="M28.6,23.7L28.6,23.7v-0.1V23.7z"/>
	</g>
</g>
</svg>
