<?xml version="1.0" encoding="iso-8859-1"?>
<!-- Generator: Adobe Illustrator 12.0.1, SVG Export Plug-In . SVG Version: 6.00 Build 51448)  -->
<!DOCTYPE svg PUBLIC "-//W3C//DTD SVG 1.1//EN" "http://www.w3.org/Graphics/SVG/1.1/DTD/svg11.dtd" [
	<!ENTITY ns_svg "http://www.w3.org/2000/svg">
	<!ENTITY ns_xlink "http://www.w3.org/1999/xlink">
]>
<svg  version="1.1" id="Layer_1" xmlns="&ns_svg;" xmlns:xlink="&ns_xlink;" width="82.8" height="82.231"
	 viewBox="0 0 82.8 82.231" style="overflow:visible;enable-background:new 0 0 82.8 82.231;" xml:space="preserve">
<g>
	<path style="fill:#3172A1;" d="M80.4,77.7c0.2-0.2,0.5-0.4,0.7-0.7c0.6-0.1,1.1-0.1,1.7-0.2c-0.1-0.1-0.1-0.1-0.2-0.1
		c-0.3-0.1-0.7-0.1-1.1-0.2c0.3-0.3,0.4-0.7,0.5-1.1c-6.9-4.2-14.6-6.4-23-6.5c0-0.1,0-0.2,0-0.4c0.1-2.3-0.5-4.2-1.8-5.7
		c8.1-4.9,11.2-12.4,9.5-22.3c-0.5-2.5-1.2-4.7-2.4-6.8c-1.1-1.9-2.4-3.7-3.8-5.2c0.4,0.1,0.8,0.2,1.3,0.3c-0.3-0.3-0.5-0.5-0.8-0.7
		c-0.2-0.3-0.5-0.5-0.7-0.7c-0.3,0-0.6,0.1-0.9,0.2c-0.6-0.9-1-1.9-1.1-3c0-0.1,0.1-0.2,0.1-0.3c1.2-1.2,1.8-2.1,1.8-2.7
		c0.5-0.1,1,0,1.4,0.1c-0.1-0.2-0.1-0.3-0.3-0.4c-0.1-0.1-0.3-0.2-0.5-0.3c0.2,0,0.5-0.2,0.7-0.3c-1-0.6-1.7-1.3-2.4-2
		c0.1-0.2,0.1-0.3,0.2-0.3c1.2-0.9,1.8-1.5,2-2.1c0.1,0.1,0.2,0.1,0.3,0.1c0,0.3,0.1,0.5,0.1,0.8c0.3,1,0.8,1.8,1.7,2.6
		c0.8-0.1,1.6-0.1,2.4-0.1c0.3-0.3,0.6-0.6,0.8-1c1.4-2.5,2.2-5.2,2.4-8c-0.1-0.2-0.1-0.3-0.2-0.4c-0.4-1.9-1.5-3.3-3.3-4.2
		c-0.1,0-0.2,0-0.2,0.1c-2.3,0.9-3.6,2.6-3.9,5.2c-3.1-0.2-6.1,0.4-8.9,1.5c-4.8,1.9-7.1,4.6-7,8.1c-1.2-0.7-2.5-1-3.9-1.1
		c-2-0.4-4.1-0.5-6.3-0.2c-0.3,0.1-0.6,0.3-1,0.4c-0.1,0.1-0.3,0.3-0.5,0.4c-2.1-7.8-7.7-12-16.4-12.5c0-0.6-0.1-1.2-0.2-1.8
		c-0.2-0.6-0.5-1.1-0.9-1.6c-0.3-0.1-0.6-0.2-0.8-0.2c-0.6-0.1-1.2-0.2-1.7-0.3c-2.4,1.2-3.4,3.3-3.1,6.2c0.1,2.3,0.9,4.2,2.2,6
		c1.1,0,2.2,0,3.2,0c0.3-0.4,0.6-0.6,0.9-1c0.1-0.1,0.2-0.3,0.4-0.4c0-0.1,0-0.2,0-0.4c0-0.3,0-0.7,0.1-1.1c0.1-0.1,0.1-0.2,0.3-0.4
		c0.2-0.1,0.5-0.2,0.7-0.2c0.2,0.2,0.6,0.3,1,0.4c0.1,0.1,0.2,0.2,0.3,0.3c0.7,0.7,1.2,1.4,1.5,2.3c-1.2,1.6-2.7,2.9-4.5,3.9
		c-0.3,0-0.4,0.1-0.4,0.2c-0.1,0-0.1,0-0.1,0c0,0.1,0,0.3,0.1,0.3c0.5,0.6,1.2,1,2,1.3c0.1,0.2,0.2,0.4,0.4,0.6
		c0.6,0.8,1,1.7,1.3,2.7c-0.6,1.4-1.5,2.6-2.7,3.6c-0.3-0.1-0.7-0.2-0.9-0.4c0.1,0.1,0.2,0.2,0.4,0.3c-4.3,4.4-6.5,10.2-6.8,17.5
		c0,2.1,0.2,4.2,0.7,6.1c1.5,5.2,4.2,9.1,8.3,11.8c-1,1.7-1.5,3.6-1.3,5.7c-6.2-0.5-11.6,1.1-16.3,4.7c0,0.2,0,0.3,0,0.4
		c-0.1,0.8,0,1.6,0.3,2.3c0,0.1,0,0.1,0.1,0.1c-0.8,0.3-1.4,0.9-1.9,1.5c1.2,0.1,2.2-0.1,3.2-0.4c0.9,0.1,1.8,0.3,2.6,0.4
		c-1.3,0.5-2.6,1.2-3.7,2.1c0.1,0.2,0.1,0.2,0.1,0.2c2.2-0.5,4.3-1.1,6.6-1.9c1,0.1,2,0.2,2.9,0.3c-1.6,0.4-3.1,1-4.4,1.7
		c2.5-0.1,5.1-0.6,7.6-1.6c2,0,4-0.1,6.1-0.3c-2.3,0.8-4.5,1.5-6.7,2.4c0.2,0,0.4,0,0.7,0c8.4-1.9,16.7-4.1,24.8-6.5
		c1.6-0.1,3.2-0.2,4.8-0.5c-0.4,0.2-0.9,0.4-1.5,0.5c-5.7,1.3-11,3.2-16.1,5.6c6-1.1,12.4-2.8,19-5.2c1.5,0.7,3,1.3,4.5,1.9
		c-0.8-0.2-1.6-0.4-2.5-0.4c-0.5,0.3-1.1,0.5-2,0.7c-3.2,0.3-6.1,1.3-8.7,2.9c0.3,0,0.7-0.1,1.1-0.1c4.4-0.9,8.5-1.8,12.4-2.9
		c-0.1-0.1-0.1-0.1-0.2-0.2c0.9,0.3,1.7,0.6,2.6,0.8c-1.9,0.4-3.4,1.1-4.6,2.1c0.3,0.6,0.7,0.8,1.5,0.7c3.5-0.6,5.3-1.3,5.3-2.2
		c1.9,0.4,3.7,0.7,5.6,1c-0.1-0.1-0.3-0.1-0.5-0.1c-0.9,0.3-2,0.6-3.2,0.9c-0.4,0.1-0.7,0.3-0.7,0.7c0.3,0.7,0.7,0.8,1.3,0.5
		c1.5-0.9,3.1-1.4,4.9-1.7c-0.1-0.1-0.1-0.1-0.2-0.1c-0.3-0.1-0.6-0.1-0.9-0.2c1.5,0.2,3.1,0.2,4.7,0.2c-1.4,0.7-2.5,1.4-3.6,2.2
		c0.5,0.4,1.1,0.4,1.7,0.2c2.1-0.9,4.4-1.8,6.6-2.6c3-0.3,6-0.8,9-1.6C80.2,77.8,80.3,77.7,80.4,77.7z M63.8,9.3
		C63.9,9.2,64,9,64,8.9c0.5-0.6,1-0.9,1.6-0.8C65.9,8.4,66,8.7,66.2,9c0.4,0.9,0.8,1.7,1.3,2.5C67.2,12,67,12.5,67,13
		c0,1.4-0.1,2.8-0.5,4.2c-0.7,1-1.7,1.3-2.7,1c-0.4-0.3-0.6-0.7-0.8-1c-0.4-0.5-0.3-1.1,0.3-1.7v-0.2C61.2,15,59,15.2,57,15.6
		c-5.4,1.1-7.6,3.6-6.8,7.5c0,0.1-0.1,0.2-0.2,0.3h-0.1c-0.2,0.3-0.3,0.6-0.4,1c-0.2,0.1-0.4,0.3-0.6,0.4c2.1,0.6,4,1.4,5.9,2.3
		c0.4,0.2,0.7,0.3,1.1,0.4c0.7,0.6,1.5,1.2,2.3,1.7c0,0.1,0,0.1,0.1,0.1c0.5-0.1,1-0.2,1.5-0.3c0.7,0.7,1.2,1.5,1.8,2.3
		c0.2,0.2,0.2,0.5,0.3,0.7l-0.2,0.2c2.4,3.4,3.7,7.9,3.7,13.3c0,4.3-1.5,7.9-4.5,11c-9.3,9.8-21.1,12.4-35.3,8
		c-3.9-1.2-7-3.4-9.5-6.5c-5.2-6.5-6.1-13.9-2.6-22c0.1-0.1,0.2-0.2,0.4-0.4c0.1-0.1,0.2-0.2,0.4-0.3c0-0.2,0.1-0.3,0.2-0.4
		c0-0.1,0-0.2,0-0.4c0-0.1,0-0.2,0.1-0.3c0-0.2,0.1-0.3,0.2-0.4c0.8-0.7,1.5-1.5,2.1-2.4c0.3-0.4,0.6-0.8,0.9-1.1
		c0-0.1,0.1-0.2,0.2-0.2c0.2,0,0.4,0,0.5,0.1c0.2,0,0.4,0,0.5,0h0.1c2.6-2.9,5.8-4.9,9.5-6v-0.1c0.2-1.2,0.2-2.4,0-3.7
		c-1-5.7-4.1-8.7-9.5-9c0,0,0,0-0.1,0c-0.2-0.1-0.4,0-0.5,0c-0.7,0-1.5,0-2.4,0.1c0,0.8,0,1.5-0.1,2.2c-0.1,0.3-0.2,0.6-0.4,0.8
		c-0.5,0.2-1.1,0.3-1.7,0.4c-0.1,0.1-0.1,0-0.1,0c-0.5-0.5-0.7-1.1-0.8-1.7c-0.1-0.8-0.2-1.4-0.3-2c-0.3-1.5-0.3-3-0.1-4.4
		c0.3-0.3,0.6-0.5,0.8-0.7c0.7-0.6,1.4-0.6,2.1-0.1c0.6,0.5,0.9,1.1,0.7,1.9c0,0.5-0.1,1-0.1,1.5c2.8,0.3,5.6,1.1,8.3,2.1
		c3,1.2,4.9,3.2,5.8,6c0.6,1.8,1.4,3.3,2.2,4.2c-0.2,0-0.4,0-0.6,0.1c-0.2,0-0.3,0.1-0.5,0.3c-0.1,0.1-0.2,0.2-0.3,0.3
		c-0.1,0.1-0.1,0.2-0.1,0.4c0,0.1,0,0.2,0.1,0.3c0.2,0.2,0.4,0.3,0.5,0.3c0.2,0.1,0.3,0,0.4-0.1c0.1,0,0.2-0.1,0.3-0.2
		c0.2-0.1,0.3-0.2,0.6-0.2c0,0,0,0,0.1,0c0.4-0.5,0.9-0.9,1.4-1.3c-0.1,0.1-0.2,0.1-0.3,0.1c0-0.1,0-0.2,0-0.3c0.4,0,0.8,0,1.3,0.1
		c2.6,0.1,5.1,0.2,7.3,0.3c0.3,0.1,0.6,0.2,1,0.2l-0.1,0.2c0.2,0.4,0.4,0.8,0.6,1.1c0.6,0,1.2,0,1.8,0.1h0.3c0.4,0,0.8,0,1.2,0
		c-0.1-0.1-0.1-0.2-0.2-0.2c-0.3-0.2-0.6-0.3-0.9-0.4c2.3-7.3,7.8-10.7,16.6-10.1c0.1-0.4,0.2-0.8,0.3-1.2
		C63.3,10.8,63.5,10,63.8,9.3z M44.4,22.1c0.3,0,0.7,0,1.2,0c0,0.1,0,0.3,0.1,0.4C45.2,22.4,44.8,22.2,44.4,22.1z M59.5,16.2
		c-0.2,0.1-0.5,0.2-0.7,0.3c-0.1,0.2-0.3,0.3-0.3,0.4c-0.3,0.5-0.5,1-0.7,1.5c0,0.1,0,0.3,0,0.3c0.2,0.7,0.6,1.2,1,1.6
		c-1-0.2-2-0.2-3,0c-1.2,0.2-2.4,0.6-3.6,1.2c-0.5,0.2-0.9,0.5-1.3,0.8C52.2,18.2,55,16.1,59.5,16.2z M57.3,23.5c0,0.2,0,0.3,0,0.4
		c-0.1,1.5,0.2,2.7,0.6,3.7c-1.9-1.5-4.1-2.8-6.5-3.7c0.4,0,0.7-0.2,1.1-0.4c2.2-1,4.3-1.7,6.2-1.8C58.2,22.2,57.7,22.9,57.3,23.5z
		 M21.1,13c0.3,0.2,0.6,0.2,0.8,0.4c2.2,1.1,4,2.7,5.2,4.8c0,0.2,0,0.5,0,0.7c0,0.5-0.1,0.9,0,1.1c0,1.2,0.2,2.1,0.5,2.9
		c0,0,0,0,0,0.1c-2.7,1-5.1,2.2-7.2,3.7c0.4-0.6,0.6-1.2,0.9-1.8c-0.6-1.4-1.1-2.6-1.5-3.5c1,0,2.1-0.1,3.3-0.4
		c1.4,1.3,2.8,1.8,4.1,1.6c0.1,0,0.1-0.1,0.1-0.2c-0.1-0.1-0.2-0.2-0.2-0.4c-0.5-0.6-1.1-1.2-1.8-1.5c-0.2-0.1-0.4-0.2-0.5-0.3
		C24.5,20,24.3,20,24,19.9c-1.7-0.1-3.4-0.1-5-0.2c1.3-0.7,2.4-1.7,3.3-2.9c0-0.3,0-0.5,0-0.8c0-0.5,0-1-0.2-1.5
		c-0.1-0.1-0.3-0.3-0.3-0.4C21.6,13.7,21.4,13.3,21.1,13z M21.8,65.3c-1,2.2-1,4.4-0.3,6.7c3.1,1,6.3,2,9.4,3.3
		C21.3,78.2,12,78.2,3,75.4c4.4-3.3,9.7-4.9,15.8-4.9c0-0.1,0-0.2,0-0.4c0.2-2.1,0.4-4.2,0.8-6C20.3,64.5,21,64.9,21.8,65.3z
		 M30.7,67.9c-2.3,0.1-4.3,1-6.1,2.7c3.2-0.4,6.7-0.9,10.5-1.6c0-0.1,0-0.2,0.1-0.3c0-0.2,0-0.3,0.1-0.4c2.4,0.1,4.9,0,7.3-0.3l0,0
		c2.1,1,4.5,1.8,7.3,2.5c-1.6,0.6-2.9,1.6-3.9,2.9c-5.4,0.1-10.9-0.2-16.4-0.9c-1.5-0.9-3.1-1.5-5-1.9c-0.6-0.1-1.3-0.2-2.1-0.3
		c0.5-1.9,0.6-3.4,0.3-4.6c1.8,0.8,3.7,1.3,5.7,1.8C29.3,67.6,30,67.8,30.7,67.9z M36.2,74.6c-1,0.2-2,0.5-3,0.8
		c-0.1-0.1-0.1-0.2-0.1-0.3c-0.6-0.6-1.3-1.1-1.9-1.6C32.8,74,34.5,74.4,36.2,74.6z M55.4,63.8c0.2-0.1,0.4-0.2,0.6-0.3
		c1.1,2.2,1.8,4.6,2,7c8.2,0.3,15.4,2,21.6,5.4c-11,3.3-21.8,2.7-32.3-1.6c2.4-1.8,5-2.8,8-3.3c0-0.1,0-0.2,0.1-0.4
		c0.5-2.7,0-4.8-1.5-6C54.4,64.3,54.9,64.1,55.4,63.8z M54.1,69.6c-0.9,0.1-1.8,0.2-2.6,0.4c-2.1-1-4-1.8-5.9-2.6
		c2.6-0.6,5.2-1.4,7.7-2.6C54.3,66.2,54.5,67.8,54.1,69.6z"/>
	<path style="fill:#3172A1;" d="M36,28.3c-1.6-0.1-3.2-0.1-4.7-0.2c-3.4,0.8-5.8,2.8-7.2,6c-3.8,8.7-1.2,14.3,7.7,16.8
		c1.3-0.5,2.7-0.8,4.2-1.3c0.8-0.2,1.5-0.7,2-1.3c0.7,0.9,1.7,1.6,2.9,2c1.9,0.7,3.7,0.6,5.5-0.2c5.3-2.4,7.5-6.1,6.7-11.1
		c0.1-0.1,0.3-0.1,0.4-0.1c-0.1-0.1-0.3-0.2-0.5-0.3c-0.2-1-0.5-2.1-1-3.2c-0.9-1.2-1.9-2.3-3-3.4c-3.2-3-6.9-3.7-11-2.2
		c-0.4-0.4-0.9-0.7-1.5-1.2C36.4,28.5,36.2,28.4,36,28.3z M37.6,31.9c0.2,0.3,0.4,0.5,0.7,0.7c0.5,0,0.9-0.3,1.2-0.8
		c0.2-0.3,0.5-0.7,0.9-0.9c3-0.2,5.6,0.7,7.9,2.6c0.2,0.3,0.4,0.5,0.6,0.8c0.8,1.2,1.5,2.3,1.9,3.4c-4.4-1.7-8.8-3.1-13.3-4.2
		c-4.4,1-8.8,2-12.9,3.2c0.9-2.8,3.3-5.2,7.2-7.1c2.2-0.6,4-0.2,5.6,1.3C37.4,31.3,37.5,31.6,37.6,31.9z M39.4,34.9
		c0,0.1,0.1,0.1,0.1,0.1c4.2,2.3,8.1,3.6,11.7,3.9c1,3.8-0.3,7.1-4.2,10c-3.4,0.8-6.3,0.1-8.7-2.4c-3.4,2.8-7,3.3-10.8,1.4
		c-0.8-0.3-1.3-0.9-1.6-1.5c-1.8-3.6-2.3-6.8-1.4-9.4C29.5,37,34.4,36.4,39.4,34.9z"/>
	<path style="fill:#3172A1;" d="M41.8,41c0.1-0.5,0.2-1,0.1-1.5c0-0.1,0-0.2,0-0.4c-0.2-0.1-0.3-0.1-0.4-0.2
		c-0.8-0.1-1.5-0.2-2.2-0.3v0.1c-0.6,0.1-0.9,0.4-0.7,1.1c0,0.1,0,0.2,0,0.3c0,0.2,0.1,0.3,0.1,0.4C39.6,41.6,40.6,41.8,41.8,41z"/>
	<path style="fill:#3172A1;" d="M37.4,38.6c-0.2-0.1-0.3-0.2-0.4-0.2c-0.4-0.1-0.8-0.2-1.2-0.3c-0.3,0.1-0.5,0.3-0.8,0.5
		c-0.4,0.4-0.5,0.9-0.4,1.5c0.7,1.3,1.5,1.6,2.6,1.1c0.1-0.1,0.1-0.1,0.2-0.1c0-0.1,0.1-0.2,0.2-0.2c0.2-0.4,0.2-0.7,0.2-1.1
		C37.8,39.3,37.7,39,37.4,38.6z"/>
	<path style="fill:#3172A1;" d="M21.6,42.9c0,0,0,0-0.1,0c-1.7,1.6-2.3,2.9-2,4.1c0.1,0,0.2-0.1,0.2-0.1
		C20.9,45.6,21.5,44.3,21.6,42.9z"/>
	<path style="fill:#3172A1;" d="M17.5,40.3c-0.1,0.1-0.2,0.2-0.3,0.3c-1.5,1.9-2.5,4.1-2.9,6.3c0.1,0,0.2,0,0.2-0.1
		C16.7,44.5,17.7,42.3,17.5,40.3z"/>
	<path style="fill:#3172A1;" d="M20,40.9c-0.1,0.1-0.2,0.2-0.2,0.3c-1.3,2.2-2.4,4.4-3.3,6.6c0.2-0.1,0.3-0.2,0.4-0.3
		C19,45.1,20,43,20,40.9z"/>
	<path style="fill:#3172A1;" d="M17.8,49.3c-1,0.7-0.9,1.8,0.3,3.4c7.6,9.7,17.8,12.3,30.6,7.9c6.1-2.2,9.6-5.7,10.4-10.7
		c-2.8,4.1-6.6,7-11.6,8.8C34.3,63.5,24.3,60.4,17.8,49.3z"/>
	<path style="fill:#3172A1;" d="M63,45l-0.2-1.1l0,0c-1.9,1.5-2.9,3.2-3,5.2c0.1,0,0.2-0.1,0.4-0.2C61.5,47.7,62.5,46.4,63,45z"/>
	<path style="fill:#3172A1;" d="M63,43c0.1-0.4,0.2-0.8,0.3-1.2c-0.3,0-0.4,0-0.5,0.1L63,43z"/>
	<path style="fill:#3172A1;" d="M56.8,45.1c1.6-1.5,2.1-2.7,1.2-3.4c-0.1,0-0.2,0.1-0.3,0.2c-2.7,2.4-3.5,4.5-2.7,6.4
		c0.2-0.2,0.4-0.4,0.4-0.7c0.3-0.7,0.6-1.5,1-2.2C56.5,45.3,56.6,45.2,56.8,45.1z"/>
	<path style="fill:#3172A1;" d="M58.6,44.5c0,0.2-0.1,0.3-0.1,0.3c-1.5,1.3-2.3,2.8-2.2,4.6c0.1,0,0.2-0.1,0.3-0.2
		c1.6-2.3,3.1-4.5,4.5-6.7c-0.1,0.1-0.2,0.2-0.3,0.2C60,43.4,59.4,44,58.6,44.5z"/>
	<path style="fill:#009659;" d="M46.2,23.4L46.2,23.4h-0.3H46.2z"/>
	<path d="M45.9,23.4c0,0.1,0.1,0.3,0.1,0.5c0.1-0.2,0.1-0.3,0.2-0.5H45.9z"/>
	<path d="M63.3,15.3v0.2V15.3z"/>
	<path d="M61.7,32.2l0.2-0.2c-0.5-0.4-0.9-0.8-1.4-1.2C60.9,31.2,61.3,31.7,61.7,32.2z"/>
	<path d="M28.6,24.2L28.6,24.2v-0.1V24.2z"/>
	<path style="fill:#3172A1;" d="M81.6,78.6c-0.4-0.1-0.7-0.2-1.1-0.3v0.1c-3.1,0.5-5.8,1.7-8.2,3.4c0.2,0.1,0.4,0.1,0.6,0
		c2.9-1.1,5.9-2.1,8.9-3C81.7,78.7,81.6,78.7,81.6,78.6z"/>
	<path style="fill:#3172A1;" d="M40.8,0.2C40.2,0.1,39.6,0.1,39,0c-0.3,0.3-0.8,0.5-1.3,0.8c-0.1,0-0.2,0.1-0.3,0.2
		c0,0.2,0,0.3-0.1,0.4c-0.1,0.2-0.2,0.5-0.4,0.8c0,0.1-0.1,0.2-0.1,0.3c-2-0.4-3.6,0-4.9,1.2c0,0.1,0,0.2,0,0.3c0,0.5,0,1,0,1.5
		c0,0.2,0,0.3,0,0.4c1.8,2.1,4,3.3,6.6,3.6c0.4-0.4,0.8-0.9,1.2-1.3c1.8-2,2.6-4.3,2.3-6.9c-0.2-0.3-0.5-0.5-0.8-0.7
		C41.1,0.4,40.9,0.3,40.8,0.2z M39,1.5c0.9-0.4,1.5-0.2,1.6,0.7c0.1,0.2,0.1,0.4,0.1,0.7c-0.4,1.8-1.1,3.4-2.2,4.9
		c-0.2-0.1-0.5-0.1-0.7-0.1c-0.2-0.2-0.4-0.3-0.5-0.4c-0.9-0.7-1.8-1.5-2.7-2.3c-0.3,0-0.4,0.2-0.1,0.5c0.5,0.8,1.1,1.4,1.8,1.8
		c-1-0.4-1.9-1-2.7-1.8c-0.1-0.1-0.2-0.2-0.2-0.4c-0.1-0.2-0.1-0.4-0.1-0.7c1.4-0.3,2.8-0.3,4.2,0.1c0.1-0.1,0.1-0.2,0.1-0.3
		C38,3.2,38.4,2.4,39,1.5z"/>
</g>
</svg>
