<?xml version="1.0" encoding="iso-8859-1"?>
<!-- Generator: Adobe Illustrator 12.0.1, SVG Export Plug-In . SVG Version: 6.00 Build 51448)  -->
<!DOCTYPE svg PUBLIC "-//W3C//DTD SVG 1.1//EN" "http://www.w3.org/Graphics/SVG/1.1/DTD/svg11.dtd" [
	<!ENTITY ns_svg "http://www.w3.org/2000/svg">
	<!ENTITY ns_xlink "http://www.w3.org/1999/xlink">
]>
<svg  version="1.1" id="Layer_1" xmlns="&ns_svg;" xmlns:xlink="&ns_xlink;" width="82.8" height="94.031"
	 viewBox="0 0 82.8 94.031" style="overflow:visible;enable-background:new 0 0 82.8 94.031;" xml:space="preserve">
<g>
	<path style="fill:#3172A1;" d="M81.6,90.4c-0.4-0.1-0.7-0.2-1.1-0.3v0.1c-3.1,0.5-5.8,1.7-8.2,3.4c0.2,0.1,0.4,0.1,0.6,0
		c2.9-1.1,5.9-2.1,8.9-3C81.7,90.5,81.6,90.5,81.6,90.4z"/>
	<path style="fill:#3172A1;" d="M80.4,89.5c0.2-0.2,0.5-0.4,0.7-0.7c0.6-0.1,1.1-0.1,1.7-0.2c-0.1-0.1-0.1-0.1-0.2-0.1
		c-0.3-0.1-0.7-0.1-1.1-0.2c0.3-0.3,0.4-0.7,0.5-1.1c-6.9-4.2-14.6-6.4-23-6.5c0-0.1,0-0.2,0-0.4c0.1-2.3-0.5-4.2-1.8-5.7
		c8.1-4.9,11.2-12.4,9.5-22.3c-0.2-1.1-0.4-2-0.7-3c-0.6-3.6-2.1-6.5-4.6-8.8c0.1,0,0.2,0,0.4,0.1c-0.3-0.3-0.5-0.5-0.8-0.7
		c-0.1-0.2-0.3-0.3-0.5-0.5l-0.2,0.2c-0.6-0.4-1.2-0.8-1.8-1.1l0,0c-0.1-0.3-0.2-0.7-0.2-1.1c0-0.1,0.1-0.2,0.1-0.3
		c1.2-1.2,1.8-2.1,1.8-2.7c0.5-0.1,1,0,1.4,0c-0.1-0.1-0.1-0.2-0.3-0.3c-0.1-0.1-0.3-0.2-0.5-0.3c0.2,0,0.5-0.2,0.7-0.3
		c-1-0.6-1.7-1.3-2.4-2c0.1-0.2,0.1-0.3,0.2-0.3c1.2-0.9,1.8-1.5,2-2.1c0.1,0.1,0.2,0.1,0.3,0.1c0,0.3,0.1,0.5,0.1,0.8
		c0.3,1,0.8,1.8,1.7,2.6c0.8-0.1,1.6-0.1,2.4-0.1c0.3-0.3,0.6-0.6,0.8-1c1.4-2.5,2.2-5.2,2.4-8c-0.1-0.2-0.1-0.3-0.2-0.4
		c-0.4-1.9-1.5-3.3-3.3-4.2c-0.1,0-0.2,0-0.2,0.1c-2.3,0.9-3.6,2.6-3.9,5.2c-3.1-0.2-6.1,0.4-8.9,1.5c-4.1,1.7-6.4,3.9-6.9,6.7v0.1
		c-0.1,0-0.1,0.1-0.1,0.3c-3.2-1.2-6.6-1.7-10.2-1.3c-0.4,0.2-0.8,0.3-1.3,0.5c0-0.3,0-0.5-0.1-0.8c0-0.2,0-0.2-0.1-0.4
		c-0.2,0.3-0.4,0.5-0.5,0.8c-2.5-6.8-7.8-10.4-15.9-10.8c0-0.6-0.1-1.2-0.2-1.8c-0.2-0.6-0.5-1.1-0.9-1.6c-0.3-0.1-0.6-0.2-0.8-0.2
		c-0.6-0.1-1.2-0.2-1.7-0.3c-2.4,1.2-3.4,3.3-3.1,6.2c0.1,2.3,0.9,4.2,2.2,6c1.1,0,2.2,0,3.2,0c0.3-0.4,0.6-0.6,0.9-1
		c0.1-0.1,0.2-0.3,0.4-0.4c0-0.1,0-0.2,0-0.4c0-0.3,0-0.7,0.1-1.1c0.1-0.1,0.1-0.2,0.3-0.4c0.2-0.1,0.5-0.2,0.7-0.2
		c0.2,0.2,0.6,0.3,1,0.4c0.1,0.1,0.2,0.2,0.3,0.3c0.7,0.7,1.2,1.4,1.5,2.3c-1.2,1.6-2.7,2.9-4.5,3.9c-0.3,0-0.4,0.1-0.4,0.2
		c-0.1,0-0.1,0-0.1,0c0,0.1,0,0.3,0.1,0.3c0.5,0.6,1.2,1,2,1.3c0.1,0.2,0.2,0.4,0.4,0.6c0.6,0.8,1,1.7,1.3,2.7c0,0.1,0,0.2-0.1,0.2
		s-0.3,0-0.5-0.1c-0.2,0.1-0.6,0.3-0.9,0.4c-0.6,0.4-1.1,0.7-1.5,1.2L17,39.1c-0.2,0.1-0.5,0.3-0.7,0.5c0.1,0.1,0.3,0.3,0.4,0.4
		c0,0.1-0.1,0.3-0.1,0.4c-4.1,4.4-6.2,10.1-6.5,17.2c0,2.1,0.2,4.2,0.7,6.1c1.5,5.2,4.2,9.1,8.3,11.8c-1,1.7-1.5,3.6-1.3,5.7
		c-6.2-0.5-11.6,1.1-16.3,4.7c0,0.2,0,0.3,0,0.4c-0.1,0.8,0,1.6,0.3,2.3c0,0.1,0,0.1,0.1,0.1C1.1,89,0.5,89.6,0,90.2
		c1.2,0.1,2.2-0.1,3.2-0.4c0.9,0.1,1.8,0.3,2.6,0.4c-1.3,0.5-2.6,1.2-3.7,2.1c0.1,0.2,0.1,0.2,0.1,0.2c2.2-0.5,4.3-1.1,6.6-1.9
		c1,0.1,2,0.2,2.9,0.3c-1.6,0.4-3.1,1-4.4,1.7c2.5-0.1,5.1-0.6,7.6-1.6c2,0,4-0.1,6.1-0.3c-2.3,0.8-4.5,1.5-6.7,2.4
		c0.2,0,0.4,0,0.7,0c8.4-1.9,16.7-4.1,24.8-6.5c1.6-0.1,3.2-0.2,4.8-0.5c-0.4,0.2-0.9,0.4-1.5,0.5c-5.7,1.3-11,3.2-16.1,5.6
		c6-1.1,12.4-2.8,19-5.2c1.5,0.7,3,1.3,4.5,1.9c-0.8-0.2-1.6-0.4-2.5-0.4c-0.5,0.3-1.1,0.5-2,0.7c-3.2,0.3-6.1,1.3-8.7,2.9
		c0.3,0,0.7-0.1,1.1-0.1c4.4-0.9,8.5-1.8,12.4-2.9c-0.1-0.1-0.1-0.1-0.2-0.2c0.9,0.3,1.7,0.6,2.6,0.8c-1.9,0.4-3.4,1.1-4.6,2.1
		c0.3,0.6,0.7,0.8,1.5,0.7c3.5-0.6,5.3-1.3,5.3-2.2c1.9,0.4,3.7,0.7,5.6,1c-0.1-0.1-0.3-0.1-0.5-0.1c-0.9,0.3-2,0.6-3.2,0.9
		c-0.4,0.1-0.7,0.3-0.7,0.7c0.3,0.7,0.7,0.8,1.3,0.5c1.5-0.9,3.1-1.4,4.9-1.7c-0.1-0.1-0.1-0.1-0.2-0.1c-0.3-0.1-0.6-0.1-0.9-0.2
		c1.5,0.2,3.1,0.2,4.7,0.2c-1.4,0.7-2.5,1.4-3.6,2.2c0.5,0.4,1.1,0.4,1.7,0.2c2.1-0.9,4.4-1.8,6.6-2.6c3-0.3,6-0.8,9-1.6
		C80.2,89.6,80.3,89.5,80.4,89.5z M63.8,22.1c0.1-0.1,0.2-0.3,0.2-0.4c0.5-0.6,1-0.9,1.6-0.7c0.3,0.2,0.4,0.5,0.6,0.8
		c0.4,0.9,0.8,1.7,1.3,2.5c-0.3,0.5-0.5,1-0.5,1.5c0,1.4-0.1,2.8-0.5,4.2c-0.7,1-1.7,1.3-2.7,1c-0.4-0.3-0.6-0.7-0.8-1
		c-0.4-0.5-0.3-1.1,0.3-1.7v-0.2C61.2,27.8,59,28,57,28.4c-5.4,1.1-7.6,3.6-6.8,7.5c0,0.1-0.1,0.2-0.2,0.3h-0.1
		c-0.2,0.3-0.3,0.6-0.4,1c-0.2,0.1-0.4,0.3-0.6,0.4c2.1,0.6,4,1.4,5.9,2.3c0.4,0.2,0.7,0.3,1.1,0.4c0.7,0.6,1.5,1.2,2.3,1.7
		c0.1,0.1,0.3,0.2,0.5,0.4l0.8,0.1l1-0.6c-0.4-0.4-0.7-0.9-1-1.4c0.8,0.8,1.5,1.6,2.1,2.6c0.2,0.2,0.2,0.5,0.3,0.7L61.7,44
		c2.4,3.4,3.7,7.9,3.7,13.3c0,4.3-1.5,7.9-4.5,11c-9.3,9.8-21.1,12.4-35.3,8c-3.9-1.2-7-3.4-9.5-6.5c-5.2-6.5-6.1-13.9-2.6-22
		c0.2-1,0.7-2,1.5-2.9v-0.4l1.3-0.9c0,0,0.1-0.1,0.2-0.2c0,0,0,0,0-0.1c0,0.1,0,0.1,0.1,0.1l0.5-0.4c0.1-0.2,0.3-0.4,0.4-0.6v0.1
		l1.6,0.5c2.6-2.9,5.8-4.9,9.5-6v-0.1c0.2-1.2,0.2-2.4,0-3.7c-1-5.7-4.1-8.7-9.5-9c0,0,0,0-0.1,0c-0.2-0.1-0.4,0-0.5,0
		c-0.7,0-1.5,0-2.4,0.1c0,0.8,0,1.5-0.1,2.2c-0.1,0.3-0.2,0.6-0.4,0.8c-0.5,0.2-1.1,0.3-1.7,0.4c-0.1,0.1-0.1,0-0.1,0
		c-0.5-0.5-0.7-1.1-0.8-1.7c-0.1-0.8-0.2-1.4-0.3-2c-0.3-1.5-0.3-3-0.1-4.4c0.3-0.3,0.6-0.5,0.8-0.7c0.7-0.6,1.4-0.6,2.1-0.1
		c0.6,0.5,0.9,1.1,0.7,1.9c0,0.5-0.1,1-0.1,1.5c2.8,0.3,5.6,1.1,8.3,2.1c3,1.2,4.9,3.2,5.8,6c0.5,1.3,1,2.4,1.5,3.3
		c-0.1,0-0.2,0.1-0.2,0.1l0,0c0.1,0.1,0.2,0.1,0.3,0c0.2,0.3,0.4,0.6,0.6,0.8c-0.2,0-0.4,0-0.6,0.1c-0.2,0-0.3,0.1-0.5,0.3
		c-0.1,0.1-0.2,0.2-0.3,0.3c-0.1,0.1-0.1,0.2-0.1,0.4c0,0.1,0,0.2,0.1,0.3c0.2,0.2,0.3,0.3,0.5,0.3c0.3-0.2,0.7-0.5,1-0.7
		c0.4-0.8,0.8-1.5,1.3-2.2v-0.1c0.5,0,1,0,1.5,0.1c3.9,0.2,7.3,0.3,10.2,0.4c0,0.3,0,0.7,0.1,1.2c0.2,0.2,0.5,0.5,0.7,0.7
		c2.3-7.3,7.8-10.7,16.6-10.1c0.1-0.4,0.2-0.8,0.3-1.2C63.3,23.6,63.5,22.8,63.8,22.1z M55.8,33.1c-1.2,0.2-2.4,0.6-3.6,1.2
		c-0.5,0.2-0.9,0.5-1.3,0.8c1.3-4.1,4.1-6.2,8.6-6.1c-0.2,0.1-0.5,0.2-0.7,0.3c-0.1,0.2-0.3,0.3-0.3,0.4c-0.3,0.5-0.5,1-0.7,1.5
		c0,0.1,0,0.3,0,0.3c0.2,0.7,0.6,1.2,1,1.6C57.8,32.9,56.8,32.9,55.8,33.1z M57.3,36.3c0,0.2,0,0.3,0,0.4c-0.1,1.5,0.2,2.7,0.6,3.7
		c-1.9-1.5-4.1-2.8-6.5-3.7c0.4,0,0.7-0.2,1.1-0.4c2.2-1,4.3-1.7,6.2-1.9C58.2,35,57.7,35.7,57.3,36.3z M59.7,39.9L59.5,40l-0.4-0.1
		c-0.2-0.4-0.4-0.8-0.6-1.3C58.9,39,59.3,39.5,59.7,39.9z M21.1,25.8c0.3,0.2,0.6,0.2,0.8,0.4c2.2,1.1,4,2.7,5.2,4.8
		c0,0.2,0,0.5,0,0.7c0,0.5-0.1,0.9,0,1.1c0,1.2,0.2,2.1,0.5,2.9c0,0,0,0,0,0.1c-2.7,1-5.1,2.2-7.2,3.7c0.2-0.3,0.4-0.6,0.5-0.9
		c0.1-0.1,0.2-0.2,0.2-0.3l0,0c0-0.2,0.1-0.4,0.2-0.6c-0.6-1.4-1.1-2.6-1.5-3.5c1,0,2.1-0.1,3.3-0.4c1.4,1.3,2.8,1.8,4.1,1.6
		c0.1,0,0.1-0.1,0.1-0.2c-0.1-0.1-0.2-0.2-0.2-0.4c-0.5-0.6-1.1-1.2-1.8-1.5c-0.2-0.1-0.4-0.2-0.5-0.3c-0.3-0.2-0.5-0.2-0.8-0.3
		c-1.7-0.1-3.4-0.1-5-0.2c1.3-0.7,2.4-1.7,3.3-2.9c0-0.3,0-0.5,0-0.8c0-0.5,0-1-0.2-1.5c-0.1-0.1-0.3-0.3-0.3-0.4
		C21.6,26.5,21.4,26.1,21.1,25.8z M28.5,79.3c0.8,0.1,1.5,0.3,2.2,0.4c-2.3,0.1-4.3,1-6.1,2.7c3.2-0.4,6.7-0.9,10.5-1.6
		c0-0.1,0-0.2,0.1-0.3c0-0.2,0-0.3,0.1-0.4c2.4,0.1,4.9,0,7.3-0.3l0,0c2.1,1,4.5,1.8,7.3,2.5c-1.6,0.6-2.9,1.6-3.9,2.9
		c-5.4,0.1-10.9-0.2-16.4-0.9c-1.5-0.9-3.1-1.5-5-1.9c-0.6-0.1-1.3-0.2-2.1-0.3c0.5-1.9,0.6-3.4,0.3-4.6
		C24.6,78.3,26.5,78.8,28.5,79.3z M21.8,77.1c-1,2.2-1,4.4-0.3,6.7c3.1,1,6.3,2,9.4,3.3C21.3,90,12,90,3,87.2
		c4.4-3.3,9.7-4.9,15.8-4.9c0-0.1,0-0.2,0-0.4c0.2-2.1,0.4-4.2,0.8-6C20.3,76.3,21,76.7,21.8,77.1z M36.2,86.4c-1,0.2-2,0.5-3,0.8
		c-0.1-0.1-0.1-0.2-0.1-0.3c-0.6-0.6-1.3-1.1-1.9-1.6C32.8,85.8,34.5,86.2,36.2,86.4z M53.9,76.4c0.5-0.3,1-0.5,1.5-0.8
		c0.2-0.1,0.4-0.2,0.6-0.3c1.1,2.2,1.8,4.6,2,7c8.2,0.3,15.4,2,21.6,5.4c-11,3.3-21.8,2.7-32.3-1.6c2.4-1.8,5-2.8,8-3.3
		c0-0.1,0-0.2,0.1-0.4C55.9,79.7,55.4,77.6,53.9,76.4z M54.1,81.4c-0.9,0.1-1.8,0.2-2.6,0.4c-2.1-1-4-1.8-5.9-2.6
		c2.6-0.6,5.2-1.4,7.7-2.6C54.3,78,54.5,79.6,54.1,81.4z"/>
	<path style="fill:#3172A1;" d="M36,39.6c-1.6-0.1-3.2-0.1-4.7-0.2c-3.4,0.8-5.8,2.8-7.2,6c-3.8,8.7-1.2,14.3,7.7,16.8
		c1.3-0.5,2.7-0.8,4.2-1.3c0.8-0.2,1.5-0.7,2-1.3c0.7,0.9,1.7,1.6,2.9,2c1.9,0.7,3.7,0.6,5.5-0.2c5.3-2.4,7.5-6.1,6.7-11.1
		c0.1-0.1,0.3-0.1,0.4-0.1c-0.1-0.1-0.3-0.2-0.5-0.3c-0.2-1-0.5-2.1-1-3.2c-0.9-1.2-1.9-2.3-3-3.4c-3.2-3-6.9-3.7-11-2.2
		c-0.4-0.4-0.9-0.7-1.5-1.2C36.4,39.8,36.2,39.7,36,39.6z M38.3,43.9c0.5,0,0.9-0.3,1.2-0.8c0.2-0.3,0.5-0.7,0.9-0.9
		c3-0.2,5.6,0.7,7.9,2.6c0.2,0.3,0.4,0.5,0.6,0.8c0.8,1.2,1.5,2.3,1.9,3.4c-4.4-1.7-8.8-3.1-13.3-4.2c-4.4,1-8.8,2-12.9,3.2
		c0.9-2.8,3.3-5.2,7.2-7.1c2.2-0.6,4-0.2,5.6,1.3c0,0.4,0.1,0.7,0.2,1C37.8,43.5,38,43.7,38.3,43.9z M39.4,46.2
		c0,0.1,0.1,0.1,0.1,0.1c4.2,2.3,8.1,3.6,11.7,3.9c1,3.8-0.3,7.1-4.2,10c-3.4,0.8-6.3,0.1-8.7-2.4c-3.4,2.8-7,3.3-10.8,1.4
		c-0.8-0.4-1.3-0.9-1.6-1.5c-1.8-3.6-2.3-6.8-1.4-9.4C29.5,48.3,34.4,47.7,39.4,46.2z"/>
	<path style="fill:#3172A1;" d="M41.8,52.3c0.1-0.5,0.2-1,0.1-1.5c0-0.1,0-0.2,0-0.4c-0.2-0.1-0.3-0.1-0.4-0.2
		c-0.8-0.1-1.5-0.2-2.2-0.3V50c-0.6,0.1-0.9,0.4-0.7,1.1c0,0.1,0,0.2,0,0.3c0,0.2,0.1,0.3,0.1,0.4C39.6,52.9,40.6,53.1,41.8,52.3z"
		/>
	<path style="fill:#3172A1;" d="M37.4,49.9c-0.2-0.1-0.3-0.2-0.4-0.2c-0.4-0.1-0.8-0.2-1.2-0.3c-0.3,0.1-0.5,0.3-0.8,0.5
		c-0.4,0.4-0.5,0.9-0.4,1.5c0.7,1.3,1.5,1.6,2.6,1.1c0.1-0.1,0.1-0.1,0.2-0.1c0-0.1,0.1-0.2,0.2-0.2c0.2-0.4,0.2-0.7,0.2-1.1
		C37.8,50.6,37.7,50.3,37.4,49.9z"/>
	<path style="fill:#3172A1;" d="M17,44.6v0.1c0-0.1,0-0.1,0.1-0.2L17,44.6z"/>
	<path style="fill:#3172A1;" d="M21.6,54.2c0,0,0,0-0.1,0c-1.7,1.6-2.3,2.9-2,4.1c0.1,0,0.2-0.1,0.2-0.1
		C20.9,56.9,21.5,55.6,21.6,54.2z"/>
	<path style="fill:#3172A1;" d="M20,52.2c-0.1,0.1-0.2,0.2-0.2,0.3c-1.3,2.2-2.4,4.4-3.3,6.6c0.2-0.1,0.3-0.2,0.4-0.3
		C19,56.4,20,54.3,20,52.2z"/>
	<path style="fill:#3172A1;" d="M17.5,51.6c-0.1,0.1-0.2,0.2-0.3,0.3c-1.5,1.9-2.5,4.1-2.9,6.3c0.1,0,0.2,0,0.2-0.1
		C16.7,55.8,17.7,53.6,17.5,51.6z"/>
	<path style="fill:#3172A1;" d="M17.8,60.6c-1,0.7-0.9,1.8,0.3,3.4c7.6,9.7,17.8,12.3,30.6,7.9c6.1-2.2,9.6-5.7,10.4-10.7
		c-2.8,4.1-6.6,7-11.6,8.8C34.3,74.8,24.3,71.7,17.8,60.6z"/>
	<path style="fill:#3172A1;" d="M62.7,57.1c-0.1-0.6-0.2-1.1-0.2-1.7c-1.7,1.5-2.6,3.1-2.7,5c0.1,0,0.2-0.1,0.4-0.2
		C61.3,59.2,62.1,58.2,62.7,57.1z"/>
	<path style="fill:#3172A1;" d="M63.3,53.6c-0.3,0-0.4,0-0.5,0.1c-0.1,0.1-0.3,0.2-0.3,0.2c0,0.6,0.1,1.1,0.2,1.7
		C63,54.9,63.2,54.3,63.3,53.6z"/>
	<path style="fill:#3172A1;" d="M58.6,55.8c0,0.2-0.1,0.3-0.1,0.3c-1.5,1.3-2.3,2.8-2.2,4.6c0.1,0,0.2-0.1,0.3-0.2
		c1.6-2.3,3.1-4.5,4.5-6.7C61,53.9,60.9,54,60.8,54C60,54.7,59.4,55.3,58.6,55.8z"/>
	<path style="fill:#3172A1;" d="M56.4,56.7c0.1-0.1,0.2-0.2,0.4-0.3c1.6-1.5,2.1-2.7,1.2-3.4c-0.1,0-0.2,0.1-0.3,0.2
		c-2.7,2.4-3.5,4.5-2.7,6.4c0.2-0.2,0.4-0.4,0.4-0.7C55.7,58.2,56,57.4,56.4,56.7z"/>
	<path style="fill:#3172A1;" d="M47.4,36.2c-0.1-0.1-0.1-0.2-0.2-0.2c-0.3-0.2-0.6-0.3-0.9-0.4c0.2,0.2,0.4,0.4,0.6,0.6
		C47,36.2,47.2,36.2,47.4,36.2z"/>
	<path d="M63.3,28.1v0.2V28.1z"/>
	<path d="M61.7,44l0.2-0.2c-0.5-0.4-0.9-0.8-1.4-1.2C60.9,43,61.3,43.5,61.7,44z"/>
	<path d="M28.6,36.9V37l0,0V36.9z"/>
	<path style="fill:#3172A1;" d="M51.8,11.3l0.1-0.1c-2-1.1-4.1-1.9-6.4-2.2l-0.3,0.1C46.9,10.7,49.1,11.4,51.8,11.3z"/>
	<path style="fill:#3172A1;" d="M50.7,1.7c-0.4-0.2-0.8-0.3-1.2-0.4c-0.3,0.2-0.7,0.4-1.1,0.6c-1.7,1.2-3.1,2.6-4,4.3
		c0.4,0.1,0.9,0.2,1.4,0.3c0.1-0.2,0.2-0.3,0.3-0.4c1.5-1.6,3.2-2.9,5.2-4.1C51.1,1.8,50.9,1.7,50.7,1.7z"/>
	<path style="fill:#3172A1;" d="M40.5,5.6c-0.6-2-1.3-3.9-2.2-5.6c-0.1,0-0.2,0-0.2,0c-0.8,2.5,0,4.4,2.3,6
		C40.5,5.8,40.5,5.7,40.5,5.6z"/>
	<path style="fill:#3172A1;" d="M37.8,8.6c-0.1-0.1-0.2-0.2-0.2-0.2C35.3,7.5,33,7,30.5,7l-0.2,0.1C32.4,8.4,34.9,8.9,37.8,8.6z"/>
	<path style="fill:#3172A1;" d="M32.5,18.3c-0.3-0.3-0.5-0.6-0.6-1c0,0.2,0,0.3,0,0.4C32.1,17.9,32.3,18.1,32.5,18.3z"/>
	<path style="fill:#3172A1;" d="M38.3,12c-0.7,0-1.3,0.1-1.9,0.3c-2,0.6-3.5,1.7-4.5,3v0.2C35.2,15.4,37.3,14.2,38.3,12z"/>
	<path style="fill:#3172A1;" d="M45.4,17.9c-0.2-2.2-1.2-4.1-2.8-5.7l-0.2,0.1c0.6,2.5,1.6,4.5,3,5.9C45.4,18.1,45.4,18,45.4,17.9z"
		/>
</g>
</svg>
