<?xml version="1.0" encoding="iso-8859-1"?>
<!-- Generator: Adobe Illustrator 12.0.1, SVG Export Plug-In . SVG Version: 6.00 Build 51448)  -->
<!DOCTYPE svg PUBLIC "-//W3C//DTD SVG 1.1//EN" "http://www.w3.org/Graphics/SVG/1.1/DTD/svg11.dtd" [
	<!ENTITY ns_svg "http://www.w3.org/2000/svg">
	<!ENTITY ns_xlink "http://www.w3.org/1999/xlink">
]>
<svg  version="1.1" id="Layer_1" xmlns="&ns_svg;" xmlns:xlink="&ns_xlink;" width="83.147" height="87.342"
	 viewBox="0 0 83.147 87.342" style="overflow:visible;enable-background:new 0 0 83.147 87.342;" xml:space="preserve">
<g>
	<g>
		<path style="fill:#3172A1;" d="M79.047,77.742c1.7-1.6,2.7-3.5,3-5.7c0.2-1,0.1-2-0.1-3c-0.4-0.3-0.8-0.6-1.3-0.7
			c-4.4-0.9-8-1.7-11-2.3c-0.6,0.1-1.3,0.2-2,0.3c2.1-4,2.7-8.7,1.7-14.3c-0.5-2.4-1.2-4.6-2.3-6.6c0.3-0.1,0.5-0.2,0.8-0.3
			c0.2-0.1,0.3-0.2,0.4-0.3c0.2-0.1,0.3-0.2,0.4-0.4c2.5-1.9,3.4-4.4,3-7.5c-0.1-0.8-0.5-1.6-1.2-2.2c-0.8,0-1.5,0-2.3,0.1
			c-0.1,0-0.3,0-0.5,0c-0.1-0.1-0.3-0.3-0.5-0.4c-4.1-3.8-9.1-5.3-15-4.4c-0.2,0.1-0.6,0.2-1,0.2c-1.6,0.2-2.7,0.9-3.5,2.1
			c-3.1-1.1-6.3-1.5-9.7-1.2c-0.2,0.1-0.4,0.2-0.5,0.3c-2.6-2.6-6.2-3.4-10.8-2.5c-2.4,0.7-4.8,1.4-7.3,2.2c-0.3,0-0.5,0.1-0.7,0.3
			c-0.7-1.6-2-2.6-4-3c-0.9,0.5-1.4,1.3-1.6,2.5c-0.7,3.6,0.4,6.7,3.2,9.3c0.8,0.2,1.6,0.4,2.4,0.6c-3.7,4.2-5.6,9.7-5.9,16.5
			c0,1.6,0.1,3.3,0.4,4.9c-3.1-1.4-6.6-2.3-10.5-2.8c-0.1,0.1-0.2,0.2-0.4,0.2c-0.3,0.2-0.7,0.4-1,0.6c-0.3,0.2-0.6,0.5-0.8,0.7
			c-0.5,1.9-0.6,3.9-0.2,6c1.2,6,3.6,10.4,7.4,13.2c-2,0.5-3.5,1.5-4.4,2.9c0.1,0.2,0.1,0.2,0.1,0.2c2.2-0.5,3.9-1.4,5-2.6
			c0.7,0.5,1.6,0.9,2.4,1.3c-1.8,0.5-3.1,1.4-4,2.8c0.2,0,0.3,0.1,0.4,0.1c2.9-0.7,4.4-1.5,4.6-2.4c1.1,0.3,2.2,0.6,3.4,0.9
			c-1.4,0.3-2.3,1-2.9,2.1c0.2,0.1,0.4,0.1,0.6,0.1c1.6-0.7,3.3-1.3,5-1.8c1.4,0.1,2.9,0.1,4.4,0.1c-1,0.7-2,1.4-3,2.2
			c3.5-0.9,7.2-2.3,11.3-4.1c1.9-0.9,3.1-1.7,3.6-2.6c1.2,0.2,2.3,0.3,3.5,0.4c-4.2,1.4-7.6,3.5-10.2,6.3c1.2,0.1,2.6-0.2,4-0.9
			c3.7-1.7,6.1-3.5,7.4-5.3c0.3,0,0.7,0,1,0.1c0.2,0,0.3,0,0.4,0c1.4-0.1,2.7-0.3,4.1-0.6c-3.5,1.5-6,3.6-7.4,6.5
			c0.2,0,0.4,0,0.6-0.1c3.4-2.5,7-4.9,10.8-7c0.4-0.1,0.7-0.1,1.1,0c0.2-0.1,0.5-0.2,0.8-0.2c-0.3,0.5-0.1,1,0.4,1.3
			c1.3,0.8,2.5,1.5,3.8,2c-1.9,0.8-3.5,1.8-4.7,3.2c0.8,0.6,1.7,0.6,2.9,0c1.9-1,3-1.8,3.3-2.6c1,0.4,2,0.7,3.1,1
			c-0.9,0.6-1.5,1.3-1.9,2.1c0.2,0.1,0.3,0.1,0.4,0.1c1.3-0.6,2.5-1.2,3.5-2c2.6,0.3,5.1,0.1,7.8-0.5c-1.9,0.9-3.7,2-5.4,3.2
			c3.1-1.2,6.4-2.4,9.9-3.6c4.7-1.5,7.9-3.3,9.8-5.3c-0.1,0.1-0.2,0.1-0.3,0.2c-2.3,0.6-4.5,1.3-6.7,2.1
			C77.147,79.142,78.047,78.442,79.047,77.742z M78.847,69.542c0.3,0.1,0.5,0.2,0.7,0.4c0.7,0.8,0.8,1.6,0.1,2.5
			c-4.7,6.1-10.3,9.2-16.7,9.4c0.1-0.1,0.2-0.2,0.3-0.4c-0.2,0-0.4,0-0.6,0c-0.3,0.1-0.6,0.3-0.9,0.4c-3.2-0.1-6.7-1-10.3-2.5
			c0-0.1,0-0.2,0-0.3c3.3-5.1,7.7-8.3,13.4-9.5c0.1,0.1,0.3,0.2,0.4,0.3c0.2-0.2,0.3-0.4,0.4-0.5c2.4-0.5,4.9-0.6,7.6-0.4
			C75.147,68.942,77.047,69.142,78.847,69.542z M38.747,33.342c0-0.1,0-0.2,0-0.3c3.7,0.2,6.9,0.3,9.6,0.4c0.1,0,0.1,0,0.1,0l0,0
			c-0.1-0.3-0.2-0.5-0.3-0.6c7.4-3,13.8-1.7,19.1,3.9c0.3-0.1,0.6-0.1,0.9-0.2c0.4-0.2,0.8-0.3,1.3-0.4c0.1,0,0.3,0.1,0.5,0.2
			c0.5,0.8,0.6,1.6,0.4,2.6c-0.3,1.6-1.2,3-2.4,4.2c-0.3,0.2-0.5,0.4-0.8,0.7c-0.3,0.1-0.6,0.2-0.9,0.3c-0.1-0.2-0.1-0.3-0.2-0.4
			c0.1-0.2,0.1-0.3,0.1-0.3c-0.6-1-1.2-2-1.8-2.8c0.5-0.4,1-0.9,1.4-1.3c0.2-0.1,0.3-0.3,0.3-0.4c0.1-0.3,0.1-0.5,0.2-0.7
			c0-0.2-0.1-0.3-0.1-0.3c-3.8-4-8.6-5.6-14.4-4.9c-0.4,0-0.5,0-0.3,0c0.6,0.1,1.1,0.1,1.7,0.2l-0.2,0.1c3.4,2.1,6.5,4.5,9.4,7
			c-0.1,0.1-0.2,0.2-0.3,0.2c0.1,0.1,0.3,0.1,0.5,0.1c0,0.1,0.1,0.2,0.2,0.3c0.4,0.7,1.1,1.5,1.7,2.3c0.1,0.1,0.1,0.2,0.1,0.3
			l-0.2,0.2c2.4,3.4,3.7,7.9,3.7,13.4c0,3.7-1.2,7.1-3.6,10c-5.4,1.5-9.8,4.7-13.1,9.5c0-0.1,0-0.2,0-0.3
			c-6.8,2.5-14.4,2.4-22.9-0.3c-3.3-5.8-7.7-10.1-13.3-12.9c-1.7-4.9-1.4-10,1-15.6c0.1-0.1,0.2-0.2,0.4-0.4
			c0.1-0.1,0.2-0.2,0.4-0.3c0-0.2,0.1-0.3,0.2-0.4c0-0.1,0-0.2,0-0.4c0-0.1,0-0.2,0.1-0.3c0-0.2,0.1-0.3,0.2-0.4
			c0.8-0.7,1.5-1.5,2.1-2.4c1.1-1.6,2.4-3,3.7-4.2c0.5-0.2,0.9-0.6,1.3-1c0.1-0.1,0.2-0.2,0.3-0.3c1.3-1,2.7-1.8,4.2-2.4
			c0,0-0.1,0-0.1-0.1c-0.9,0.5-1.7,0.8-2.6,1.2c0.9-0.7,2-1.2,3.2-1.5c1,0,2,0,2.9-0.1c-0.1-0.1-0.2-0.2-0.3-0.3
			c-2.9-1.7-6-2.3-9.5-1.8c-0.3,0.3-0.8,0.5-1.5,0.6c-1,0.1-1.9,0.6-2.5,1.5c-0.2-0.1-0.4,0-0.6,0c-0.5,0.7-0.4,1.3,0.1,2
			c0.6,0.7,0.8,1.5,0.6,2.4c-1.1,0.3-2.1,0-2.9-0.9c-2.1-2.3-2.5-4.8-1.2-7.3c0.2-0.1,0.3-0.1,0.4-0.1c0.9,0.7,1.8,1.2,2.7,1.6
			c-0.1,0.2-0.3,0.5-0.3,0.7c0.4-0.1,0.9-0.3,1.3-0.4c0.1,0,0.2,0,0.3,0c0,0,0,0,0-0.1c6.3-1.9,12.3-1.9,18.1,0.2
			c-0.1,0.1-0.1,0.2-0.1,0.3c0.3,0,0.6,0,0.9,0.1h0.1C38.347,33.142,38.547,33.242,38.747,33.342z M63.547,39.442
			c-0.1,0-0.1,0-0.1,0.1c-1.2-1.4-2.4-2.5-3.9-3.5c1.6,0.8,3.2,1.6,4.9,2.4c0-0.1,0-0.1,0-0.1c-2.3-1.8-4.7-3.2-7.3-4.1
			c2.7,0.9,5.2,2.2,7.5,4c0,0.1-0.1,0.2-0.2,0.2c-0.2,0.2-0.3,0.3-0.5,0.5C63.847,39.042,63.647,39.242,63.547,39.442L63.547,39.442
			z M54.547,33.542c0,0-0.1,0-0.1,0.1c-0.2-0.1-0.5-0.2-0.7-0.3C53.947,33.442,54.247,33.442,54.547,33.542z M20.747,34.442
			c0.8,0.1,1.5,0.1,2.2,0.1c-1.1,0.4-2,1.1-2.7,2c-0.1-0.5-0.2-0.9-0.4-1.3h0.1c0.1-0.2,0.2-0.3,0.3-0.4
			C20.447,34.742,20.647,34.642,20.747,34.442z M21.047,36.742c0.2,0,0.4,0,0.6-0.1c1.4-0.3,2.6-0.6,3.4-0.9c-0.4,0.3-0.7,0.7-1,1
			c-0.7,0.2-1.3,0.3-1.9,0.3c-0.2,0.2-0.3,0.4-0.5,0.5c0,0.1,0,0.1,0.1,0.1c-0.5,0.4-0.9,0.8-1.3,1.1c0-0.4,0-0.8-0.1-1.2
			c0-0.1,0-0.2,0-0.3C20.647,37.242,20.847,37.042,21.047,36.742z M29.547,78.342c-0.1-0.1-0.1-0.2-0.2-0.4l0,0
			c0.7,0.2,1.4,0.4,2,0.7c0.1,0,0.2,0,0.3,0.1c-0.8,0.3-1.5,0.6-2.3,1C29.447,79.242,29.447,78.842,29.547,78.342z M26.947,77.942
			c0.3,0.8,0.3,1.3-0.3,1.5c-7.7,4.4-14.7,3.2-20.9-3.5c-4.5-4.9-5.3-9.8-2.6-14.7c3.7,0.6,7.3,1.9,10.9,3.7
			C19.947,67.842,24.247,72.142,26.947,77.942z"/>
		<path style="fill:#3172A1;" d="M39.647,39.142c-0.1-0.1-0.3-0.2-0.5-0.3c-1.6-0.1-3.2-0.1-4.7-0.2c-3.4,0.8-5.8,2.8-7.2,6
			c-3.8,8.7-1.2,14.3,7.7,16.8c1.3-0.5,2.7-0.9,4.2-1.3c0.8-0.2,1.5-0.7,2-1.3c0.7,0.9,1.7,1.6,2.9,2c1.9,0.7,3.7,0.6,5.5-0.2
			c3.1-1.4,5.2-3.3,6.2-5.7c0.2,0,0.3,0,0.4,0c0-0.2-0.1-0.3-0.2-0.3c0.8-2.5,0.6-5.4-0.8-8.7c-0.9-1.2-1.9-2.3-3-3.4
			c-3.2-3-6.9-3.7-11-2.2C40.747,39.942,40.247,39.642,39.647,39.142z M39.947,40.942c-0.5,0-1.1-0.1-1.7-0.1c0.4,0.1,0.7,0.3,1,0.5
			c0.4-0.1,0.7-0.1,1.1-0.1c0,0.1,0.1,0.1,0.2,0.2c0,0.3,0,0.6,0.1,0.8c0.4,0.3,0.7,0.6,0.9,0.9c0.5-0.1,0.8-0.3,1.1-0.8
			c0.1-0.2,0.3-0.4,0.5-0.6c0.1,0.1,0.2,0.1,0.3,0.2c0.6-0.5,1.4-0.7,2.2-0.7c0.3,0.1,0.6,0.2,0.8,0.4c1.8,0.3,3.5,1.2,5,2.4
			c0.2,0.3,0.4,0.5,0.6,0.8c0.6,0.9,1.2,1.8,1.6,2.8c1.1,1.1,1.4,2.4,1,3.8c0.1,0.9,0,1.8-0.3,2.7c-4.6-1.6-8.6-4.3-11.9-7.9
			c-0.5-0.1-0.9-0.1-1.3-0.2c0,0.1,0,0.1,0,0.1c-3.9,3.6-8.3,5.9-13.4,7.2c-0.5-1.5-0.6-2.8-0.5-4.1c0.3-0.9,0.7-1.8,1.3-2.5
			c0.1-0.4,0.2-0.8,0.5-1.1c0.8-1.5,1.9-2.7,3.1-3.6c-0.5,0.3-1.1,0.7-1.6,1c1.1-1,2.6-2,4.4-2.9
			C36.847,39.642,38.547,39.842,39.947,40.942z M30.647,58.442c-0.8-0.3-1.3-0.8-1.6-1.5c-0.5-1.2-1-2.3-1.3-3.3
			c3,0.3,5.8-0.3,8.4-1.7l0,0c0.3,1.3,1,1.5,2.3,0.8c0.1-0.2,0.2-0.3,0.3-0.4c0.2-0.1,0.3-0.2,0.4-0.4c0.1-0.1,0.1-0.2,0.1-0.4
			c-0.1-0.6-0.2-1-0.5-1.4c0.9-0.7,1.8-1.6,2.7-2.7c0.7,0.8,1.4,1.5,2.2,2.2c-0.4,0.1-0.6,0.4-0.8,0.9c-0.2,0.9,0.1,1.6,0.9,2.2
			c0.5,0,1,0,1.4,0c0.2,0,0.4,0,0.5,0c0.4-0.2,0.7-0.5,0.9-1c2.3,1.6,4.9,2.5,7.6,3c-0.7,1.7-2,3.2-4,4.7c-3.4,0.8-6.3,0.1-8.7-2.3
			c0.1,0,0.1-0.1,0.1-0.2c0.4,0.5,1,0.8,1.8,0.9c-0.6-0.6-1.3-1-2-1.4c-0.1,0-0.1,0.1-0.2,0.2c-0.3,0.3-0.6,0.6-0.9,1
			c0.4-0.1,0.6-0.2,0.9-0.3C37.847,59.842,34.347,60.242,30.647,58.442z M43.947,41.442c-0.2,0-0.4,0-0.5,0.1c0-0.1,0-0.1,0.1-0.1
			C43.647,41.442,43.847,41.442,43.947,41.442z"/>
		<path style="fill:#3172A1;" d="M47.347,42.142c-0.1-0.1-0.3-0.2-0.4-0.3c-0.1,0-0.1,0-0.1,0
			C46.947,41.942,47.147,42.042,47.347,42.142z"/>
		<path d="M48.547,33.442c0,0.2,0.1,0.3,0.1,0.5c0-0.1,0-0.1,0.1-0.2C48.647,33.642,48.547,33.542,48.547,33.442z"/>
		<path style="fill:#3172A1;" d="M28.147,64.042c-0.1,0.1-0.2,0.2-0.4,0.2c-0.5,0.5-1,1-1.5,1.4c-0.7,0.6-0.8,1.3-0.3,1.9
			c0.6,0,1.1-0.3,1.4-0.8c0.4-0.9,1.2-1.3,2.2-1.3c0.4,0.6,0.9,1,1.5,1.3c0.5,0.3,0.9,0.6,1.2,1c0.6-0.2,1.1-0.3,1.6-0.4
			c-0.3,2.8,0.8,4.9,3.4,6.4c6.1,0.9,9.1-0.8,9.1-5c1.9-0.1,3.8-0.6,5.6-1.4c0.3,0.4,0.6,0.8,0.8,1.2c0.3,0.9,1,1.1,1.9,0.5
			c0.1-0.5-0.1-1-0.4-1.4c-0.7-1.2-1.8-1.8-3.1-2.1c-0.2,0.2-0.5,0.3-0.7,0.4c-1.4,0.6-2.8,1.1-4.2,1.5c-0.1-0.1-0.2-0.2-0.3-0.2
			c-3.5-2-7.2-2.4-11.2-1.4h-0.1c-0.5,0.2-1,0.3-1.5,0.5c-0.1-0.1-0.2-0.2-0.3-0.3C31.447,64.842,29.947,64.142,28.147,64.042z
			 M45.147,68.642c0,0.2,0.1,0.4,0.3,0.7c-0.5,1.2-1.3,2.1-2.5,2.6c-1.6,0.2-3.1,0.4-4.7,0.5c-0.1-0.1-0.2-0.2-0.3-0.2
			c-2.1-1.4-3.1-3.1-3.1-5.1c1.4-0.3,2.9-0.4,4.2-0.3c-0.4,1-0.5,1.9-0.3,2.9c1-0.2,1.5-0.8,1.5-1.9c0-0.1,0-0.2,0.1-0.4
			c0-0.1,0-0.3,0.1-0.4C42.047,67.242,43.647,67.842,45.147,68.642z"/>
		<path style="fill:#3172A1;" d="M30.747,75.942c0-0.1-0.1-0.1-0.2-0.1c0.1,0,0.1,0.1,0.1,0.2
			C30.747,76.042,30.747,75.942,30.747,75.942z"/>
		<path style="fill:#3172A1;" d="M49.647,76.042c0.1,0.1,0.3,0.1,0.5,0c0.1-0.1,0.1-0.3,0.2-0.4
			C50.047,75.742,49.847,75.942,49.647,76.042z"/>
		<path style="fill:#3172A1;" d="M50.347,74.342c-0.3,0.2-0.6,0.3-0.9,0.5c0.1,0,0.1,0,0.1,0c0.2,0,0.5-0.2,0.8-0.3
			C50.347,74.542,50.347,74.442,50.347,74.342z"/>
		<path d="M64.347,43.742l0.2-0.2c-0.5-0.4-0.9-0.8-1.4-1.2C63.547,42.742,63.947,43.242,64.347,43.742z"/>
		<path style="fill:#3172A1;" d="M80.947,81.242c-0.1,0-0.2,0-0.3,0c-3.8,1-6.9,3.1-9.2,6.1c0.2,0,0.4,0,0.6-0.1
			C75.947,85.442,78.847,83.442,80.947,81.242z"/>
		<path style="fill:#3172A1;" d="M47.947,1.942c-0.1-0.1-0.2-0.2-0.2-0.2c-2.3-1.4-4.8-1.9-7.6-1.7c-1.3,0.5-2.8,1-4.3,1.4
			c-2.7,0.9-4.6,2.5-5.7,5c-1,2.5-0.4,4.7,2.1,6.8c1.8,0.4,3.5,0.9,5.1,1.4l-0.2,0.2c-0.1,0.7-0.2,1.5-0.1,2.2c0,0.4,0,0.8,0,1.2
			c0,0.1,0.1,0.2,0.1,0.3c0.4,0.4,0.8,0.8,1.1,1.2c0.4,0.3,0.8,0.7,1.1,1.1c0.1,0.1,0.2,0.2,0.3,0.4c-0.4,0.7-0.6,1.5-0.6,2.2
			c0,0.4,0,0.8,0,1.1c0,0.2,0,0.3,0,0.4c0,0.2,0,0.3,0,0.4c0.1,0.1,0.2,0.2,0.3,0.4c0.1,0.1,0.3,0.2,0.6,0.3c0.1,0,0.3,0,0.5,0
			c0.3-0.3,0.4-0.7,0.2-1c-0.1-0.2-0.2-0.3-0.3-0.5c0-0.1-0.1-0.2-0.1-0.3c0-0.2,0-0.3,0-0.4c0-0.3,0.1-0.5,0.1-0.7
			c0.1-0.2,0.1-0.3,0.2-0.4c0.1-0.2,0.1-0.3,0.2-0.4c0-0.1,0-0.2,0-0.4c1.2-0.4,2.5-0.8,3.8-1.1c0.3-0.1,0.5-0.3,0.7-0.5
			c-0.1-1.7-1.4-2.1-3.7-1.2c-0.4,0.2-0.9,0.3-1.4,0.3c-0.4-0.3-0.7-0.7-1.1-1c-0.2-0.3-0.4-0.6-0.7-0.9c0-0.1-0.1-0.2-0.1-0.3
			c0-0.4,0-0.8,0-1.2c0-0.1,0-0.2,0.1-0.3c0-0.2,0-0.3,0.1-0.4c0-0.1,0.1-0.2,0.2-0.4c2.7-0.3,5.4-1.1,8.1-2.1c0-0.4,0-0.8,0-1.1
			c0-0.2,0-0.3,0-0.4s-0.1-0.2-0.1-0.4c-0.1-0.1-0.2-0.2-0.4-0.4c-1-0.7-2.2-0.8-3.5-0.5c-2.2,0.7-4,1.6-5.5,2.9
			c-0.9-0.2-1.9-0.5-2.8-0.8c-0.7-0.2-1.4-0.4-2-0.7c-0.2-0.4-0.5-0.8-0.8-1.1c-0.5-0.7-0.9-1.4-1-2.2c-0.1-0.3-0.2-0.6-0.4-0.8
			c0.6-1.3,1.6-2.3,3-3C38.247,1.742,43.147,1.042,47.947,1.942z M40.347,12.342c0.8-0.6,1.8-1,2.8-1.3c0.3-0.2,0.5-0.3,0.7-0.2
			c0.7,0.1,1.2,0.5,1.6,1c-2.1,0.8-3.9,1.1-5.5,0.9C40.047,12.542,40.147,12.442,40.347,12.342z"/>
		<path style="fill:#3172A1;" d="M4.947,86.442c0,0-0.1,0.1-0.2,0.1c0.1,0.2,0.1,0.2,0.1,0.2c0.3,0,0.6-0.1,0.8-0.2
			C5.447,86.542,5.247,86.442,4.947,86.442z"/>
		<path style="fill:#3172A1;" d="M50.647,80.242L50.647,80.242c-2.7,1-5,2.5-7,4.5c1,0.4,2,0.3,3.2-0.3
			C49.847,82.942,51.147,81.442,50.647,80.242z"/>
	</g>
</g>
</svg>
