<?xml version="1.0" encoding="iso-8859-1"?>
<!-- Generator: Adobe Illustrator 12.0.1, SVG Export Plug-In . SVG Version: 6.00 Build 51448)  -->
<!DOCTYPE svg PUBLIC "-//W3C//DTD SVG 1.1//EN" "http://www.w3.org/Graphics/SVG/1.1/DTD/svg11.dtd" [
	<!ENTITY ns_svg "http://www.w3.org/2000/svg">
	<!ENTITY ns_xlink "http://www.w3.org/1999/xlink">
]>
<svg  version="1.1" id="Layer_1" xmlns="&ns_svg;" xmlns:xlink="&ns_xlink;" width="83.147" height="87.1"
	 viewBox="0 0 83.147 87.1" style="overflow:visible;enable-background:new 0 0 83.147 87.1;" xml:space="preserve">
<g>
	<path style="fill:#3172A1;" d="M81.947,68.8c-0.4-0.3-0.8-0.6-1.3-0.7c-4.4-0.9-8-1.7-11-2.3c-0.6,0.1-1.3,0.2-2,0.3
		c2.1-4,2.7-8.7,1.7-14.3c-0.5-2.4-1.2-4.6-2.3-6.6c0.3-0.1,0.5-0.2,0.8-0.3c0.1,0,0.1,0,0.1-0.1c-0.4-0.3-0.8-0.7-1.1-1.1
		c-0.2,0-0.4,0.1-0.6,0.2c-0.1-0.2-0.1-0.3-0.2-0.4c0.1-0.2,0.1-0.3,0.1-0.3c-0.6-1-1.2-2-1.8-2.8c0.1-0.1,0.2-0.2,0.3-0.3
		c0-0.2,0-0.3-0.1-0.5c-0.2-0.3-0.4-0.6-0.7-0.8c-0.2,0.1-0.2,0.3-0.3,0.4l0,0c-0.1,0-0.1,0-0.1,0.1c-0.1-0.1-0.1-0.1-0.1-0.1
		c0.2-0.8,1.2-1.2,3.1-1c0,0,0.1-0.1,0.2-0.1c0,0.3,0.1,0.6,0.3,1c0.1,0.1,0.2,0.2,0.4,0.2c0.6,0.1,1.2,0.1,1.8,0
		c0.3-0.2,0.5-0.4,0.8-0.6c2.7-2,3.7-4.6,3.2-8c-0.4-0.3-0.7-0.6-1-1.1c-0.1-0.2-0.3-0.5-0.5-0.8c-0.2-0.1-0.5-0.2-0.8-0.2
		c-0.4-0.1-0.8-0.2-1.2-0.3c0,0.1,0,0.1,0,0.1c-1.2,0.7-2.3,1.3-3.4,1.8c-6.1-2.5-11.5-2.4-15.9,0.2c-0.2,0-0.3-0.1-0.4-0.1
		c-0.9,0.3-1.7,0.9-2.3,1.8c-3.1-1.1-6.3-1.5-9.7-1.2c-0.2,0.1-0.4,0.2-0.5,0.3c-0.7-0.6-1.3-1.1-2-1.5c-1.7-1.3-3.6-2-5.8-2.2l0,0
		c-0.1,0-0.1,0-0.2,0c-2.7-0.9-5.7-1.3-8.9-1.2c0-0.8,0-1.7-0.2-2.6c0-0.1,0-0.2-0.1-0.4c-0.2,0-0.4-0.1-0.6-0.1c-1-0.1-2-0.1-3-0.1
		c-0.8,0.2-1.4,0.7-1.9,1.6c-0.3,0.4-0.6,0.8-0.8,1.1c0,0.7,0,1.3,0,1.9c0,0.2,0,0.3,0,0.4c0,0.2,0,0.5,0,0.7c0,1.3,0,2.5,0,3.8
		c0.4,0.4,0.7,0.9,1,1.5c0,0.1,0.1,0.2,0.2,0.4c0.8,0.3,1.5,0.6,2.2,0.8c0.4,0.2,0.9,0.2,1.3,0.2c0.2-0.3,0.4-0.6,0.6-0.9
		c0.7,0.6,1.5,1.1,2.3,1.7c0,0.2-0.1,0.3-0.1,0.3c-1.3,1.3-1.8,2.4-1.4,3.2c-0.5,0.3-1,0.5-1.5,0.7c0,0,0,0,0.1,0.1
		c-3.7,4.2-5.6,9.7-5.9,16.5c0,1.6,0.1,3.3,0.4,4.9c-3.1-1.4-6.6-2.3-10.5-2.8c-0.1,0.1-0.2,0.2-0.4,0.2c-0.3,0.2-0.7,0.4-1,0.6
		c-0.3,0.2-0.6,0.5-0.8,0.7c-0.5,1.9-0.6,3.9-0.2,6c1.2,6,3.6,10.4,7.4,13.2c-2,0.5-3.5,1.5-4.4,2.9c0.1,0.2,0.1,0.2,0.1,0.2
		c2.2-0.5,3.9-1.4,5-2.6c0.7,0.5,1.6,0.9,2.4,1.3c-1.8,0.5-3.1,1.4-4,2.8c0.2,0,0.3,0.1,0.4,0.1c2.9-0.7,4.4-1.5,4.6-2.4
		c1.1,0.3,2.2,0.6,3.4,0.9c-1.4,0.3-2.3,1-2.9,2.1c0.2,0.1,0.4,0.1,0.6,0.1c1.6-0.7,3.3-1.3,5-1.8c1.4,0.1,2.9,0.1,4.4,0.1
		c-1,0.7-2,1.4-3,2.2c3.5-0.9,7.2-2.3,11.3-4.1c1.9-0.9,3.1-1.7,3.6-2.6c1.2,0.2,2.3,0.3,3.5,0.4c-4.2,1.4-7.6,3.5-10.2,6.3
		c1.2,0.1,2.6-0.2,4-0.9c3.7-1.7,6.1-3.5,7.4-5.3c0.3,0,0.7,0,1,0.1c0.2,0,0.3,0,0.4,0c1.4-0.1,2.7-0.3,4.1-0.6
		c-3.5,1.5-6,3.6-7.4,6.5c0.2,0,0.4,0,0.6-0.1c3.4-2.5,7-4.9,10.8-7c0.4-0.1,0.7-0.1,1.1,0c0.2-0.1,0.5-0.2,0.8-0.2
		c-0.3,0.5-0.1,1,0.4,1.3c1.3,0.8,2.5,1.5,3.8,2c-1.9,0.8-3.5,1.8-4.7,3.2c0.8,0.6,1.7,0.6,2.9,0c1.9-1,3-1.8,3.3-2.6
		c1,0.4,2,0.7,3.1,1c-0.9,0.6-1.5,1.3-1.9,2.1c0.2,0.1,0.3,0.1,0.4,0.1c1.3-0.6,2.5-1.2,3.5-2c2.6,0.3,5.1,0.1,7.8-0.5
		c-1.9,0.9-3.7,2-5.4,3.2c3.1-1.2,6.4-2.4,9.9-3.6c4.7-1.5,7.9-3.3,9.8-5.3c-0.1,0.1-0.2,0.1-0.3,0.2c-2.3,0.6-4.5,1.3-6.7,2.1
		c1-0.6,1.9-1.3,2.9-2c1.7-1.6,2.7-3.5,3-5.7C82.247,70.8,82.147,69.8,81.947,68.8z M78.847,69.3c0.3,0.1,0.5,0.2,0.7,0.4
		c0.7,0.8,0.8,1.6,0.1,2.5c-4.7,6.1-10.3,9.2-16.7,9.4c0.1-0.1,0.2-0.2,0.3-0.4c-0.2,0-0.4,0-0.6,0c-0.3,0.1-0.6,0.3-0.9,0.4
		c-3.2-0.1-6.7-1-10.3-2.5c0-0.1,0-0.2,0-0.3c3.3-5.1,7.7-8.3,13.4-9.5c0.1,0.1,0.3,0.2,0.4,0.3c0.2-0.2,0.3-0.4,0.4-0.5
		c2.4-0.5,4.9-0.6,7.6-0.4C75.147,68.7,77.047,68.9,78.847,69.3z M38.747,33.1c0-0.1,0-0.2,0-0.3c3.7,0.2,6.9,0.3,9.6,0.4
		c0.1,0,0.1,0,0.1,0l0,0c-0.1-0.3-0.2-0.5-0.3-0.6c1.6-0.7,3.1-1.1,4.7-1.3c-0.3-0.2-0.6-0.3-0.9-0.3c5.1-1.2,10.4-0.8,15.7,1.1
		c0.2-0.1,0.3-0.2,0.4-0.3c0.1-0.2,0.2-0.4,0.3-0.7c0.1-0.1,0.2-0.2,0.3-0.4c0.2-0.1,0.4-0.2,0.5-0.2c0.6-0.2,1.2-0.2,1.8-0.3
		c0.1,0.5,0.3,0.9,0.6,1.2c0.2,0.2,0.3,0.4,0.5,0.7c-0.2,0.2-0.3,0.5-0.3,0.8c-0.1,2.8-1.4,4.4-4,4.7c0-0.5-0.1-1-0.1-1.5
		c0-0.6,0.2-1.1,0.6-1.5c0.1-0.4,0.1-0.6-0.1-0.8c0,0,0,0,0.1,0v-0.2c-0.1-0.1-0.1-0.2-0.2-0.3c-2.9-1.6-5.9-2.1-9.4-1.5
		c-1.7-0.3-3.2-0.1-4.6,0.9h-0.1c-0.7,0-1.4,0-2.2,0.1c-0.4,0-0.5,0-0.3,0c0.6,0.1,1.1,0.1,1.7,0.2l-0.2,0.1c3.4,2.1,6.5,4.5,9.4,7
		c-0.1,0.1-0.2,0.2-0.3,0.2c0.1,0.1,0.3,0.1,0.5,0.1c0,0.1,0.1,0.2,0.2,0.3c0.4,0.7,1.1,1.5,1.7,2.3c0.1,0.1,0.1,0.2,0.1,0.3
		l-0.2,0.2c2.4,3.4,3.7,7.9,3.7,13.4c0,3.7-1.2,7.1-3.6,10c-5.4,1.5-9.8,4.7-13.1,9.5c0-0.1,0-0.2,0-0.3c-6.8,2.5-14.4,2.4-22.9-0.3
		c-3.3-5.8-7.7-10.1-13.3-12.9c-1.7-4.9-1.4-10,1-15.6c0.1-0.1,0.2-0.2,0.4-0.4c0.1-0.1,0.2-0.2,0.4-0.3c0-0.2,0.1-0.3,0.2-0.4
		c0-0.1,0-0.2,0-0.4c0-0.1,0-0.2,0.1-0.3c0-0.2,0.1-0.3,0.2-0.4c0.8-0.7,1.5-1.5,2.1-2.4c1.1-1.6,2.4-3,3.7-4.2
		c0.5-0.2,0.9-0.6,1.3-1c0.1-0.1,0.2-0.2,0.3-0.3c1.3-1,2.7-1.8,4.2-2.4c0,0-0.1,0-0.1-0.1c-0.9,0.5-1.7,0.8-2.6,1.2
		c0.9-0.7,2-1.2,3.2-1.5c1,0,2,0,2.9-0.1c-0.1-0.1-0.2-0.2-0.3-0.2c0.2,0,0.4,0.1,0.5,0.1c0.1-0.1,0.1-0.2,0-0.2
		c-3.6-3.2-7.9-4.6-13-4.2c-0.4,0.1-0.5,0.1-0.4,0.2c0,0,0.1,0,0.2,0c-0.8,0.4-1.2,1.1-1.5,2.1c-0.1,0.4-0.1,0.8,0,1.2
		c-0.5,0.1-0.9,0.1-1.3,0c-0.1,0-0.2-0.1-0.4-0.2c-0.4-0.6-0.7-1.2-0.8-1.9c0-0.3,0-0.7-0.1-1.1c-0.2-1.6,0-3.1,0.7-4.5
		c1-0.6,1.9-0.6,2.7-0.2c0,0.1,0,0.1,0,0.2c-0.1,0.8-0.2,1.5-0.4,2.3c-0.1,0.1-0.1,0.2-0.1,0.3c4.7,0.2,9.2,0.8,13.7,2.1
		c0-0.1,0.1-0.2,0.2-0.2c0.4,0.1,0.7,0.2,1,0.3c0.4,0.1,0.8,0.2,1.1,0.3c0.5,0.5,0.9,0.9,1.3,1.3c0.2,0.1,0.4,0.2,0.7,0.4
		c0.8,0.8,1.6,1.7,2.3,2.6c0-0.2,0-0.3-0.1-0.4c-0.1-0.6-0.3-1.3-0.5-1.8h0.1C38.347,32.9,38.547,33,38.747,33.1z M54.547,33.3
		c0,0-0.1,0-0.1,0.1c-0.2-0.1-0.5-0.2-0.7-0.3C53.947,33.2,54.247,33.2,54.547,33.3z M57.947,33.7c-0.2-0.1-0.4-0.2-0.5-0.3
		c1.9,0.2,4.1,0.2,6.3,0l-0.7,0.6c-0.4,0.4-0.6,0.9-0.6,1.5C61.047,34.6,59.547,34.1,57.947,33.7z M57.647,34.1c0,0.1,0,0.1,0,0.1
		c-0.1-0.1-0.3-0.1-0.5-0.2C57.347,34.1,57.447,34.1,57.647,34.1z M62.647,36.6c0,0.2,0.2,0.3,0.3,0.4c0,0.1,0.1,0.2,0.1,0.3
		c-0.2,0.2-0.4,0.3-0.5,0.4c-0.1,0.1-0.2,0.2-0.3,0.3c-0.8-0.8-1.7-1.5-2.7-2.2c1,0.5,1.9,0.9,2.8,1.4c-0.4-0.5-0.9-0.9-1.4-1.3
		C61.447,36.2,62.047,36.4,62.647,36.6z M63.647,35.7c0,0,0-0.1,0-0.2c0.9-0.7,1.9-1.1,3-1.4c-0.3,0.4-0.4,0.8-0.4,1.2
		c0,1,0.1,1.8,0.3,2.6c-0.3-0.2-0.6-0.4-0.9-0.6C65.047,36.7,64.347,36.2,63.647,35.7z M21.247,31c-0.1-0.2-0.2-0.2-0.4-0.3
		c-0.1,0-0.3-0.1-0.5-0.1c0-0.1-0.1-0.2-0.1-0.3c2.6,0.7,5.3,1.6,7.9,2.4c-1.4-0.3-2.9-0.4-4.5-0.2c-0.1,0-0.3,0.1-0.5,0.2
		c-0.4,0.3-0.9,0.6-1.4,0.8c0-0.2,0-0.4,0-0.6C21.847,32.2,21.647,31.5,21.247,31z M19.347,34.3c0.2-0.5,0.4-1,0.5-1.5
		c0-0.4,0.2-0.8,0.4-1.1c0.1,0.2,0.3,0.4,0.4,0.5c0,0.2,0,0.3,0,0.4C20.347,33.2,19.947,33.8,19.347,34.3z M23.247,37
		c0-0.3-0.1-0.5-0.2-0.7c-0.3-0.7-0.7-1.4-1.1-2c2.2-0.5,4.3-0.7,6.5-0.8c-1.8,0.9-3.4,2.1-4.8,3.5c-0.5,0.5-0.9,0.9-1.4,1.3
		C22.647,37.8,22.947,37.4,23.247,37z M29.347,77.7L29.347,77.7c0.7,0.2,1.4,0.4,2,0.7c0.1,0,0.2,0,0.3,0.1c-0.8,0.3-1.5,0.6-2.3,1
		c0.1-0.5,0.1-0.9,0.2-1.4C29.447,78,29.447,77.9,29.347,77.7z M26.947,77.7c0.3,0.8,0.3,1.3-0.3,1.5c-7.7,4.4-14.7,3.2-20.9-3.5
		c-4.5-4.9-5.3-9.8-2.6-14.7c3.7,0.6,7.3,1.9,10.9,3.7C19.947,67.6,24.247,71.9,26.947,77.7z"/>
	<path style="fill:#3172A1;" d="M39.647,40.9c-0.1-0.1-0.3-0.2-0.5-0.3c-1.6-0.1-3.2-0.1-4.7-0.2c-3.4,0.8-5.8,2.8-7.2,6
		c-3.8,8.7-1.2,14.3,7.7,16.8c1.3-0.5,2.7-0.9,4.2-1.3c0.8-0.2,1.5-0.7,2-1.3c0.7,0.9,1.7,1.6,2.9,2c1.9,0.7,3.7,0.6,5.5-0.2
		c3.1-1.4,5.2-3.3,6.2-5.7c0.2,0,0.3,0,0.4,0c0-0.2-0.1-0.3-0.2-0.3c0.8-2.5,0.6-5.4-0.8-8.7c-0.9-1.2-1.9-2.3-3-3.4
		c-3.2-3-6.9-3.7-11-2.2C40.747,41.7,40.247,41.4,39.647,40.9z M32.147,43.8c-0.5,0.3-1.1,0.7-1.6,1c1.1-1,2.6-2,4.4-2.9
		c1.9-0.5,3.6-0.3,5,0.8c-0.5,0-1.1-0.1-1.7-0.1c0.4,0.1,0.7,0.3,1,0.5c0.4-0.1,0.7-0.1,1.1-0.1c0,0.1,0.1,0.1,0.2,0.2
		c0,0.3,0,0.6,0.1,0.8c0.4,0.3,0.7,0.6,0.9,0.9c0.5-0.1,0.8-0.3,1.1-0.8c0.1-0.2,0.3-0.4,0.5-0.6c0.1,0.1,0.2,0.1,0.3,0.2
		c0.6-0.5,1.4-0.7,2.2-0.7c0.3,0.1,0.6,0.2,0.8,0.4c1.8,0.3,3.5,1.2,5,2.4c0.2,0.3,0.4,0.5,0.6,0.8c0.6,0.9,1.2,1.8,1.6,2.8
		c1.1,1.1,1.4,2.4,1,3.8c0.1,0.9,0,1.8-0.3,2.7c-4.6-1.6-8.6-4.3-11.9-7.9c-0.5-0.1-0.9-0.1-1.3-0.2c0,0.1,0,0.1,0,0.1
		c-3.9,3.6-8.3,6-13.4,7.2c-0.5-1.5-0.6-2.8-0.5-4.1c0.3-0.9,0.7-1.8,1.3-2.5c0.1-0.4,0.2-0.8,0.5-1.1
		C29.847,45.9,30.947,44.7,32.147,43.8z M29.047,58.7c-0.5-1.2-1-2.3-1.3-3.3c3,0.3,5.8-0.3,8.4-1.7l0,0c0.3,1.3,1,1.5,2.3,0.8
		c0.1-0.1,0.2-0.3,0.3-0.4c0.2-0.1,0.3-0.2,0.4-0.4c0.1-0.1,0.1-0.2,0.1-0.3c-0.1-0.7-0.2-1.1-0.5-1.5c0.9-0.7,1.8-1.6,2.7-2.7
		c0.7,0.8,1.4,1.5,2.2,2.2c-0.4,0.1-0.6,0.4-0.8,0.9c-0.2,0.9,0.1,1.6,0.9,2.2c0.5,0,1,0,1.4,0c0.2,0,0.4,0,0.5,0
		c0.4-0.2,0.7-0.5,0.9-1c2.3,1.6,4.9,2.5,7.6,3c-0.7,1.7-2,3.2-4,4.7c-3.4,0.8-6.3,0.1-8.7-2.3c0.1,0,0.1-0.1,0.1-0.2
		c0.4,0.5,1,0.8,1.8,0.9c-0.6-0.6-1.3-1-2-1.4c-0.1,0-0.1,0.1-0.2,0.2c-0.3,0.3-0.6,0.6-0.9,1c0.4-0.1,0.6-0.2,0.9-0.3
		c-3.3,2.5-6.8,2.9-10.5,1.1C29.847,59.8,29.347,59.4,29.047,58.7z M43.547,43.2c0.1,0,0.3,0,0.4,0c-0.2,0-0.4,0-0.5,0.1
		C43.447,43.2,43.447,43.2,43.547,43.2z"/>
	<path style="fill:#3172A1;" d="M46.847,43.6c0.1,0.1,0.3,0.2,0.5,0.3c-0.1-0.1-0.3-0.2-0.4-0.3
		C46.847,43.6,46.847,43.6,46.847,43.6z"/>
	<path d="M48.547,33.2c0,0.2,0.1,0.3,0.1,0.5c0-0.1,0-0.1,0.1-0.2C48.647,33.4,48.547,33.3,48.547,33.2z"/>
	<path style="fill:#3172A1;" d="M32.847,67.8c-1.4-1.2-2.9-1.9-4.7-2c-0.1,0.1-0.2,0.2-0.4,0.2c-0.5,0.5-1,1-1.5,1.4
		c-0.7,0.6-0.8,1.3-0.3,1.9c0.6,0,1.1-0.3,1.4-0.8c0.4-0.9,1.2-1.3,2.2-1.3c0.4,0.6,0.9,1,1.5,1.3c0.5,0.3,0.9,0.6,1.2,1
		c0.6-0.2,1.1-0.3,1.6-0.4c-0.3,2.8,0.8,5,3.4,6.4c6.1,0.9,9.1-0.8,9.1-5c1.9-0.1,3.8-0.6,5.6-1.4c0.3,0.4,0.6,0.8,0.8,1.2
		c0.3,0.9,1,1.1,1.9,0.5c0.1-0.5-0.1-1-0.4-1.4c-0.7-1.2-1.8-1.8-3.1-2.1c-0.2,0.2-0.5,0.3-0.7,0.4c-1.4,0.6-2.8,1.1-4.2,1.5
		c-0.1-0.1-0.2-0.2-0.3-0.2c-3.5-2-7.2-2.4-11.2-1.4h-0.1c-0.5,0.2-1,0.3-1.5,0.5C33.047,68,32.947,67.9,32.847,67.8z M45.147,70.4
		c0,0.2,0.1,0.4,0.3,0.7c-0.5,1.2-1.3,2.1-2.5,2.6c-1.6,0.2-3.1,0.4-4.7,0.5c-0.1-0.1-0.2-0.1-0.3-0.2c-2.1-1.4-3.1-3.1-3.1-5.1
		c1.4-0.3,2.9-0.4,4.2-0.3c-0.4,1-0.5,1.9-0.3,2.9c1-0.2,1.5-0.8,1.5-1.9c0-0.1,0-0.2,0.1-0.4c0-0.1,0-0.3,0.1-0.4
		C42.047,69,43.647,69.6,45.147,70.4z"/>
	<path style="fill:#3172A1;" d="M30.647,75.8c0.1,0,0.1-0.1,0.1-0.1c0-0.1-0.1-0.1-0.2-0.1C30.647,75.6,30.647,75.7,30.647,75.8z"/>
	<path style="fill:#3172A1;" d="M50.347,74.1c-0.3,0.2-0.6,0.3-0.9,0.5c0.1,0,0.1,0,0.1,0c0.2,0,0.5-0.2,0.8-0.3
		C50.347,74.3,50.347,74.2,50.347,74.1z"/>
	<path style="fill:#3172A1;" d="M50.147,75.8c0.1-0.1,0.1-0.3,0.2-0.4c-0.3,0.1-0.5,0.3-0.7,0.4
		C49.747,75.9,49.947,75.9,50.147,75.8z"/>
	<path d="M64.347,43.5l0.2-0.2c-0.5-0.4-0.9-0.8-1.4-1.2C63.547,42.5,63.947,43,64.347,43.5z"/>
	<path style="fill:#3172A1;" d="M80.947,81c-0.1,0-0.2,0-0.3,0c-3.8,1-6.9,3.1-9.2,6.1c0.2,0,0.4,0,0.6-0.1
		C75.947,85.2,78.847,83.2,80.947,81z"/>
	<path style="fill:#3172A1;" d="M38.147,0c-1.8,0.2-3.3,1.1-4.5,2.6c-0.8,1.2-1.1,2.5-1,4.1c0.6,0.6,1.1,1.2,1.6,1.8
		c0.4,0.5,0.7,1,1,1.6c0,0.2-0.1,0.5-0.2,0.6c-0.5,0.6-0.6,1.2-0.5,2c0.1,0.5,0.1,1,0.1,1.5c0.3,0.3,0.5,0.5,0.8,0.8
		c0.2,0.2,0.5,0.5,0.7,0.7c0.3,0.3,0.5,0.5,0.8,0.8c0,0.1-0.1,0.2-0.1,0.3c-0.1,0.2-0.2,0.3-0.3,0.4c-0.2,0.3-0.4,0.5-0.5,0.8
		c0,0.1,0,0.2,0,0.3c0,0.4,0,0.8,0,1.2c0,0.2,0,0.5,0,0.7c0.1,0.3,0.2,0.5,0.2,0.8c0.2,0.1,0.3,0.2,0.4,0.3c0.1,0.2,0.3,0.3,0.4,0.4
		c0.4,0.3,0.7,0.5,1.1,0.8c0,0.2-0.1,0.5-0.1,0.7c0,0.8,0,1.5-0.1,2.3c0,0.7,0.4,1.2,1.2,1.3c0.1,0,0.2-0.1,0.3-0.2
		c0.1-0.5,0.1-1-0.1-1.5c0-0.3-0.1-0.5-0.1-0.8c0-0.2,0-0.5,0-0.7c0.7-0.4,1.5-0.5,2.5-0.3c0.4,0,0.6-0.2,0.5-0.7
		c-0.1-0.3-0.3-0.5-0.6-0.6c-0.8-0.5-1.7-0.8-2.9-0.8c-0.1-0.1-0.3-0.2-0.5-0.4c-0.1-0.1-0.2-0.2-0.3-0.3c-0.3-0.3-0.5-0.5-0.7-0.8
		c0-0.1,0-0.2,0-0.4c0-0.1,0-0.2,0-0.3c0-0.2,0.1-0.3,0.1-0.4c0.1-0.1,0.2-0.2,0.3-0.4c0.4,0,0.8,0.1,1.1,0.3
		c2.1,1.1,4.1,1.2,5.9,0.2c0.1-0.2,0-0.4-0.1-0.5c-1.8-1.6-4.1-2.4-6.8-2.4c-0.9-0.8-1.6-1.8-1.9-3c-0.2-0.5,0-1,0.3-1.5
		c3.2,3,6.7,3.4,10.5,1.4c-1.8-3.7-5.4-5-10.7-3.7c-1.2-1.1-1.8-2.4-2.1-3.8c-0.1-1.2,0.2-2.2,1.2-3c5.1-0.8,9.6-0.1,13.6,2
		c0-0.1-0.1-0.2-0.2-0.3C45.547,1.6,42.047,0.2,38.147,0z M45.647,12.3c0,0.2-0.1,0.2-0.2,0.3c-3.2,1-5.9,0.3-8.3-2.4
		C40.547,9.5,43.347,10.2,45.647,12.3z"/>
	<path style="fill:#3172A1;" d="M4.947,86.2c0,0-0.1,0.1-0.2,0.1c0.1,0.2,0.1,0.2,0.1,0.2c0.3,0,0.6-0.1,0.8-0.2
		C5.447,86.3,5.247,86.2,4.947,86.2z"/>
	<path style="fill:#3172A1;" d="M50.647,80L50.647,80c-2.7,1-5,2.5-7,4.5c1,0.4,2,0.3,3.2-0.3C49.847,82.7,51.147,81.2,50.647,80z"
		/>
</g>
</svg>
