<?xml version="1.0" encoding="iso-8859-1"?>
<!-- Generator: Adobe Illustrator 12.0.1, SVG Export Plug-In . SVG Version: 6.00 Build 51448)  -->
<!DOCTYPE svg PUBLIC "-//W3C//DTD SVG 1.1//EN" "http://www.w3.org/Graphics/SVG/1.1/DTD/svg11.dtd" [
	<!ENTITY ns_svg "http://www.w3.org/2000/svg">
	<!ENTITY ns_xlink "http://www.w3.org/1999/xlink">
]>
<svg  version="1.1" id="Layer_1" xmlns="&ns_svg;" xmlns:xlink="&ns_xlink;" width="91.812" height="75.6"
	 viewBox="0 0 91.812 75.6" style="overflow:visible;enable-background:new 0 0 91.812 75.6;" xml:space="preserve">
<g>
	<path style="fill:#3172A1;" d="M86.812,17c-0.5,0-0.9,0-1.3-0.1c-1,0.7-2,1.5-2.8,2.3c0-0.2,0-0.4-0.1-0.7c0-0.2,0-0.5-0.1-0.7
		c-0.1-0.1-0.3-0.2-0.5-0.4c-0.8-0.7-1.8-1-3-0.9c-4,2.5-9,3.5-15,2.9c0,0.3,0,0.5,0,0.8c0,0.2,0,0.5,0,0.7
		c-0.5-0.4-1.4-0.5-2.5-0.4c0,0.1,0,0.1,0,0.1c-0.2,0.1-0.3,0.2-0.5,0.3c0,0-0.1,0.1-0.1,0.3c0,0.1,0,0.2,0,0.3
		c0,0.4-0.1,0.7-0.3,0.8c-2.1,1.3-3.5,2.8-4.3,4.5c-4-1.6-8.2-2.5-12.7-2.5c0-0.3-0.1-0.5-0.2-0.6c-0.8-1.7-1.1-3.5-0.9-5.4
		c0.1-0.1,0.2-0.2,0.4-0.4c0.2-0.2,0.4-0.5,0.6-0.7c0-0.4,0-0.8,0-1.2c0-0.2,0-0.5,0-0.7c0-0.1-0.1-0.2-0.2-0.3
		c-0.3-0.3-0.7-0.7-1.1-0.8c0.1-0.3,0.1-0.5,0.2-0.9c0-0.2,0.1-0.5,0.2-0.8c-3.4-1.7-6.6-3.8-9.5-6.1c0-0.4,0-0.7-0.2-1
		c-0.4-0.5-0.8-0.9-1.1-1.2c-0.7,0-1.2-0.1-1.8-0.2c-0.1,0.2-0.2,0.2-0.3,0.3c-0.5-1.8-2-3.3-4.7-4.3c-0.6,0.3-1.2,0.8-1.8,1.6
		c-2.3,3.2-2.9,6.8-1.6,10.6c0.2,0.1,0.3,0.2,0.4,0.3c0.3,0.3,0.5,0.5,0.8,0.8c0.1,0.1,0.2,0.2,0.3,0.4c0.7,0,1.4,0,2.2,0
		c1-0.7,1.8-1.4,2.4-2.3c0-0.1,0-0.1,0.1-0.1c0.1,0.1,0.2,0.2,0.4,0.2c0.5,0.2,1,0.2,1.6,0.2c0.2-0.3,0.5-0.5,0.8-0.7
		c0.3-0.1,0.6-0.2,0.9-0.2c2.1,0.4,3.8,1.4,4.9,3c-0.7-0.2-1.1-0.1-1.4,0.4c-0.1,0.2-0.1,0.5-0.1,0.7c0.5,0.6,1.1,0.9,1.5,1
		c0,0.1,0,0.1,0,0.1c0,0.2,0,0.3,0.1,0.4c0.7,1.2,1.5,2.3,2.4,3.4c0,0.4,0,0.8,0,1.1c0,1.5,0.3,2.6,1,3.5c-0.3,0-0.6,0-0.9,0
		c-8.4,1.6-14.5,6.1-18.2,13.4c-4.4,9-2.6,16.3,5.7,21.9c-0.8-0.1-1.6-0.2-2.5-0.3c-0.3,0.3-0.6,0.7-0.8,1.1c0-0.2,0-0.3-0.1-0.5
		c-0.1-0.1-0.2-0.1-0.4-0.2c-0.9-0.1-1.8-0.2-2.7-0.3c-0.6,0.3-1.2,0.6-1.8,1.2c-0.2-2-0.8-3.9-1.9-5.8c-0.1,0-0.1,0-0.1,0
		c0.3-0.2,0.6-0.3,0.9-0.4c0.1-0.1,0.1-0.2,0.1-0.3c0.2-3.7-1.6-5.8-5.1-6.1c0-0.3,0-0.5,0.1-0.7c0-0.7,0.1-1.5,0-2.2
		c0-0.1,0-0.3-0.1-0.4c-0.2-0.1-0.4-0.2-0.6-0.2c-0.7-0.2-1.4-0.3-2.1-0.4c0.2-0.1,0.5-0.1,0.7-0.3c0.1-0.1,0.1-0.2,0.1-0.3
		c-0.5-5.7-3.4-9.3-8.7-10.7c-1.1,0.8-1.6,2.1-1.5,3.8c0.3,3,0.4,5.7,0.4,8.2c0.6,0.2,1.4,0.2,2.2,0.3c-0.8,0.4-1.4,0.9-2.1,1.6
		c0,0.3,0,0.5-0.1,0.8c0,0.6,0,1.2,0,1.8c0,0.2,0,0.3,0,0.4c0.6,0.7,1.5,1,2.5,0.7c0.1-0.1,0.2-0.1,0.2-0.2
		c-0.5-0.7-0.9-1.3-1.4-1.9c0-0.1-0.1-0.2-0.1-0.3c2.8-2.5,5.8-3,9.2-1.7c-0.5,0.7-0.6,1.2-0.3,1.5c-3.9,0.4-7.1,1.8-9.6,4.4
		c0,1.1,0.2,2.1,0.6,3.1c0.2,0.5,0.4,1,0.8,1.4c0.9,0,1.8,0.1,2.8,0.1c-0.9,0.5-1.6,1.2-2.3,1.9c1.6,4.8,4.4,8,8.5,9.7
		c-2.4,0.4-4.7,1.1-6.8,2.2c0.1,0.1,0.2,0.2,0.3,0.1c3.1-0.1,6.2-0.6,9.3-1.4c0.6,0.1,1.2,0.2,1.8,0.3c-2.2,0.8-4.3,1.8-6.4,3
		c0.5,0.1,1,0.3,1.5,0.5c0.4-0.2,0.7-0.3,1-0.5c5.8-2.2,11.5-4,17.1-5.2c-0.2,0-0.4-0.1-0.6-0.1c-0.5-0.1-1-0.2-1.5-0.2
		c-0.1,0-0.3,0.1-0.5,0.1c-3.5,0.4-6.8,1.1-10,2.2c0.3-0.8,0.6-1.7,0.9-2.7c0.3-0.6,0.4-1.3,0.6-1.9c0.1-0.2,0.2-0.3,0.4-0.5
		c0.3,0,0.6,0.1,0.8,0.3c0.9,0.8,1.9,1,3.2,0.5c0.3-0.4,0.6-0.7,0.9-0.9c0.2,0.2,0.4,0.4,0.7,0.6c1.3,0.9,2.6,1,4,0.3
		c0.3-0.3,0.5-0.5,0.8-0.8c0.1-0.1,0.2-0.2,0.3-0.4c0.2,0.1,0.4,0.2,0.5,0.3c0.3,0,0.6,0.1,0.9,0.1c0.1-0.1,0.4-0.1,0.5-0.1
		c0.4-0.2,0.6-0.3,1-0.4c0.1,0,0.2-0.1,0.4-0.1c0.2-0.2,0.3-0.4,0.4-0.6c1.5,0.7,3.1,1.3,4.6,1.8c0.9,1.7,1.8,2.9,2.9,3.8
		c-4.5,0.9-8.3,2.5-11.5,4.6c4-0.7,8.1-1.8,12.2-3.1c0.4-0.2,0.7-0.4,1-0.5c2.2,0.7,4.9-0.2,8-2.8c3.2,0,6.5-0.5,9.8-1.4
		c1.1,1.5,3,1.8,5.6,1.1c0.1-0.2,0.3-0.3,0.4-0.5c0.2,0.2,0.3,0.4,0.5,0.7c1.2,1.5,2.5,2,3.7,1.7c0.2,1.2,0.6,2.4,1.3,3.4
		c-0.4,0-0.8,0-1.3,0c-0.3,0.4-0.8,0.6-1.5,0.7c-1.8,0.6-3.5,1.5-4.7,2.6c0.4,0.1,0.7,0.1,1.1,0c2.3-0.9,4.6-1.6,7-2.3
		c0.5,0.6,1.1,1.2,1.7,1.8c0.7,0,1.3,0,1.9,0c-0.4,0.2-0.8,0.5-1.2,0.7c0.2,0.1,0.4,0.1,0.7,0.1c5-1.1,9.9-2.6,14.8-4.3
		c-0.1-0.1-0.2-0.1-0.2-0.2c-0.4-0.1-0.7-0.2-1.1-0.3c-0.1,0.1-0.3,0.1-0.5,0.1c-1.8,0.3-3.5,0.6-5.1,1c2.1-1.4,3.9-3.2,5.4-5.5
		c0-0.1,0-0.2,0-0.4c0.1-0.3,0.1-0.7,0.1-1.1c0-0.2,0-0.5-0.1-0.7c0-0.2,0-0.3,0-0.4c-0.2-0.1-0.3-0.2-0.4-0.4
		c-0.7-0.7-1.4-1.4-2.2-2c1.4,0,2.7,0,4.1-0.1c-0.1-0.5,0-1,0.1-1.5c0.1-0.1,0.1-0.2,0.2-0.4c0.1-0.3,0.2-0.7,0.2-1.1
		c-0.1-0.1-0.2-0.2-0.2-0.3c-0.5-0.5-1-0.9-1.5-1.4c0.1,0,0.1-0.1,0.2-0.1c0.3-0.5,0.7-0.9,1.2-1.4c0.2-0.3,0.3-0.6,0.3-1.1
		c0-0.1-0.1-0.2-0.1-0.2c-0.2-0.2-0.3-0.3-0.5-0.5c0.6-0.1,1.3-0.4,1.9-0.8c0.2-0.6,0.2-1.2,0.2-1.8c0-4-0.7-7.8-2-11.3
		c-0.2-0.1-0.4-0.2-0.6-0.2c-0.5-0.2-1.1-0.2-1.7-0.3c-4.5,1.8-7.7,4.8-9.6,9.2c0.1,0.1,0.2,0.2,0.4,0.3c0.2,0.3,0.5,0.5,0.8,0.7
		c-0.3,0.1-0.6,0.1-0.9,0.2c-0.1,0-0.2,0-0.3,0.1c0,0.4,0,0.8,0,1.1c0,0.4,0,0.8,0,1.2l0,0c-0.8-0.1-1.6-0.2-2.4-0.3
		c-0.9,0.8-1.5,1.8-1.9,3.2c-0.2,0.8-0.2,1.6-0.1,2.3c-0.6,0.2-1.1,0.5-1.6,0.8c0.1-0.4,0.3-0.8,0.4-1.2c3.3-11.7-0.1-20.5-10-26.6
		c-0.2-0.1-0.3-0.2-0.4-0.3c-0.8-0.5-1.5-0.9-2.2-1.3c1-0.4,2.1-1,3.2-1.6c1.3,0.6,2.6,1,4.1,1.1c0.1-0.1,0.2-0.1,0.4-0.2
		c0.3-0.1,0.6-0.4,1-0.6c0.1-0.1,0.1-0.2,0.2-0.3c0-0.2,0-0.3-0.1-0.4c0.3,0,0.5-0.2,0.8-0.4c0.1-0.1,0.2-0.2,0.2-0.4
		c0.1-0.2,0.2-0.4,0.3-0.7c0.1-0.1,0.1-0.2,0.2-0.4c1.5-0.7,3-1.3,4.5-1.7c0.3,0,0.4,0,0.6,0.2c0.1,0.1,0.2,0.3,0.2,0.5
		c0,0.2,0,0.3,0,0.4c0.8,1.8,2.1,2.1,4,1c0.3-0.7,0.5-1.4,0.4-2.3c-0.1-0.3-0.1-0.7-0.1-1.1v-0.2c0.4,0.1,0.8,0.1,1.2,0.1
		c-0.4,0.3-0.7,0.7-0.9,1.1c0,0.5,0,1-0.2,1.5c-0.5,1.4-0.4,2.8,0.3,4.1c0.3,0.3,0.5,0.5,0.8,0.8c0.1,0.1,0.2,0.2,0.3,0.4
		c0.5,0,1,0.1,1.4,0.1c0.3,0.1,0.6,0,0.9,0c0.3-0.2,0.7-0.5,1-0.7c3.1-2.5,4.5-5.6,4.2-9.3c-0.2-0.3-0.4-0.5-0.5-0.8
		C87.812,17.8,87.412,17.4,86.812,17z M87.312,21.2c0,0.1,0,0.2-0.1,0.3c-0.9,3.1-2.7,5.2-5.4,6.2c-0.3-0.3-0.4-0.6-0.6-0.8
		c-0.2-0.5-0.4-1-0.6-1.5c0-0.1,0-0.2,0.1-0.3c0.7-2.7,2.3-4.7,4.8-6.1c0.6-0.2,1.1,0,1.4,0.6C87.113,20.1,87.213,20.6,87.312,21.2z
		 M79.812,18L79.812,18C81.312,19.5,81.312,19.6,79.812,18z M78.412,20.3c0,0.1,0,0.2,0,0.4c0,0.5,0,1,0,1.5c0,0.3-0.1,0.7-0.1,1.1
		c0,0.1-0.1,0.2-0.2,0.3c-0.2,0-0.4,0.1-0.6,0.1c-0.2-0.2-0.5-0.3-0.6-0.5c-0.1-0.1-0.1-0.1-0.1-0.3c0-0.2,0-0.5,0-0.7
		s0-0.3-0.1-0.4c0-0.1,0-0.2-0.1-0.4c-1.3-0.7-2.7-0.7-4.2-0.1c-1.5,0.5-2.9,1.3-4.1,2.1c0,0.2,0,0.3-0.1,0.4c0,0.2-0.2,0.4-0.3,0.4
		c-0.2,0.1-0.4,0.1-0.6,0c0-0.1,0-0.1,0-0.3c0-0.3,0.1-0.7,0.2-0.9c0.4-0.5,0.6-1.1,0.8-1.7c0-0.1,0.1-0.2,0.2-0.3
		c0.2-0.2,0.4-0.3,0.6-0.3c0.8,0,1.6,0.1,2.4,0c1.8,0,3.7-0.2,5.5-0.5c0.5-0.1,0.9-0.1,1.4,0V20.3z M81.012,48.4
		c-0.8-0.2-1.1-0.6-1-1.2c2.2-3.5,5.1-5.6,8.6-6.4c0.3,0.6,0.5,1.2,0.7,1.9c0.5,2.9,0.8,5.7,0.8,8.6c-0.8,0-1.7,0.1-2.5,0.2
		c-1.7-1.2-3.6-2-5.8-2.3C81.713,48.8,81.412,48.6,81.012,48.4z M79.213,51.7c-0.1-0.2-0.1-0.3-0.1-0.4c0-0.3,0-0.4,0.1-0.4
		c2.2-0.1,4.2,0.2,6.1,1.1c0.7,0.4,1.3,0.8,2,1.3c0.3,0.2,0.7,0.5,1.1,0.9c-0.1,0.2-0.2,0.4-0.4,0.7c-0.2,0.3-0.3,0.7-0.2,1.1
		c-2.5-2-5.4-3.3-8.6-4C79.213,51.9,79.213,51.8,79.213,51.7z M81.012,60.7c2.1,1.1,4,2.6,5.6,4.5c-2.9,4.6-7,7.2-12.2,7.8
		c-0.3-0.2-0.5-0.5-0.7-0.8c-2.3-3.9-2.7-8.2-0.9-12.7c0.1-0.1,0.3-0.2,0.5-0.3s0.5-0.3,0.8-0.4c0.9,0,1.7,0.2,2.5,0.3
		C78.113,59.5,79.613,60,81.012,60.7z M88.312,59.4c-1.8,0.3-3.5,0.3-5.3,0.1c-2-1.2-4.2-2-6.5-2.4c-0.7-0.4-1.3-0.7-1.9-1.2
		c0-0.1,0.1-0.2,0.1-0.3c0.5-0.8,0.8-1.5,0.9-2.3c1.1,0.1,2.1,0.3,3.3,0.6C83.113,55,86.312,56.9,88.312,59.4z M39.313,12.7
		c-0.6,0-1.1-0.1-1.7-0.2c-1.9-1.9-4.2-3-7-3.3c-0.6,0.6-1.3,0.8-2,0.6c0.4-0.6,1-1.2,2-1.6c0-0.2,0-0.3,0-0.4c0-0.8,0-1.5,0-2.3
		l0,0c1,0.2,1.5,1,1.3,2.4c3.2,1.8,6.2,3.6,9,5.4C40.313,13.7,39.712,13.4,39.313,12.7z M39.313,14.8L39.313,14.8
		c-0.3,0-0.7-0.1-1.1-0.1C38.613,14.3,38.912,14.3,39.313,14.8z M40.512,17.3c0.2-0.1,0.3-0.3,0.3-0.4c0.3-0.9,0.8-1.2,1.6-1.1
		c0,0.2,0,0.4-0.1,0.6c-0.3,0.4-0.5,0.8-0.8,1.3c0,0.3,0,0.7-0.2,1c-0.1,0.4-0.2,0.8-0.3,1.2c0.1,0.4,0.2,0.8,0.3,1.2
		c0.4,1,0.5,2,0.6,3.2c-0.3,0-0.6,0-0.9,0c0-0.2,0-0.3-0.1-0.4c-0.2-1.9-0.5-3.7-0.9-5.6c-0.1-0.1-0.3-0.2-0.5-0.4
		c-0.8-0.5-1.3-1.1-1.5-1.9C38.912,16.3,39.712,16.7,40.512,17.3z M57.012,27.1c0.1-0.1,0.2-0.1,0.3-0.2c2.4-1,4.1-2.5,4.8-4.5
		c0.6-0.7,1.1-0.5,1.6,0.5c0.1,0.3,0.2,0.7,0.2,1c0,0.8,0.5,1.3,1.5,1.3c0.1,0,0.3,0.1,0.5,0.1c0,0.1,0,0.2,0,0.2
		c0.1,0.2,0.4,0.3,0.6,0.4c0,0.1,0.2,0.2,0.3,0.2c0,0.1,0,0.1,0,0.2c-0.2-0.1-0.4-0.1-0.5-0.1c-0.6-0.1-1.1-0.2-1.7-0.3
		c-0.1,0-0.1,0-0.1-0.1c-0.1-0.1-0.2-0.2-0.4-0.3c-0.1-0.1-0.2-0.2-0.3-0.3c-2.3,0-4,0.9-5.2,2.6
		C58.012,27.5,57.512,27.3,57.012,27.1z M65.012,22.3c0-0.1,0-0.2,0-0.3c0.2,0.1,0.5,0.3,0.8,0.4v0.1c0,0.2,0,0.4,0,0.7
		c-0.3-0.2-0.4-0.4-0.7-0.5C65.113,22.5,65.113,22.4,65.012,22.3z M65.012,20.4c0.7-0.3,1.4-0.2,2,0.4c-0.1,0.1-0.2,0.2-0.4,0.2
		C65.512,21.5,65.012,21.3,65.012,20.4z M39.012,26.2c7.2-0.9,13.9,0.3,20.1,3.6c0.1,0.2,0.2,0.5,0.3,0.7c0.1,0.2,0.2,0.3,0.4,0.4
		c0.1,0.2,0.2,0.3,0.3,0.4c2.7,0.7,4.9,2.2,6.6,4.4c4.9,6.5,6.3,13.6,4.2,21.3c-1.6,1.7-3.4,3-5.4,4c-1.1,0.5-2.3,1-3.5,1.5
		c-1.5-1.3-3.1-2.3-4.8-3.2c0.9-1.5,1.2-2.8,0.8-3.9c-0.1,0.1-0.3,0.2-0.4,0.3c-0.9,0.9-1.7,1.7-2.5,2.6c-1.9-0.8-3.9-1.4-5.9-1.8
		c0.4-1.4,0.6-2.9,0.6-4.3c-0.3,0-0.5,0.1-0.5,0.2c-0.6,1.3-1.1,2.6-1.5,3.8c-2.2-0.3-4.4-0.4-6.8-0.3c-0.1-1.4-0.2-2.8-0.5-4.1
		c0,0.1-0.1,0.2-0.1,0.3c-0.3,1.3-0.5,2.6-0.5,3.8c-2.4,0-4.5,0.3-6.6,0.9c-0.3-1.2-0.7-2.4-1-3.5c-0.3,0-0.4,0-0.4,0
		c-0.3,1.5-0.3,2.8,0,3.9c-1.5,0.5-2.9,1.1-4.2,1.9c-0.4-0.2-0.8-0.5-1.2-0.7c-3.2-2.1-5.1-4.9-5.5-8.3
		C19.313,37.3,25.412,29.3,39.012,26.2z M28.313,4c0,0.3,0,0.5-0.1,0.8c-0.1,1-0.3,2-0.6,3c-0.1,0-0.2,0.1-0.2,0.1
		c0,0.3,0,0.5,0,0.8c-0.1,0.3-0.2,0.6-0.4,1c-0.6,1.5-1.6,2.3-3,2.6c-0.1-0.1-0.2-0.1-0.3-0.3c-0.4-0.3-0.7-0.7-1.1-1.1
		c0-0.2,0-0.5-0.1-0.7c-0.1-0.7-0.3-1.3-0.4-1.9c0-0.1,0-0.2,0.1-0.4c0.5-2.4,1.6-4.5,3.3-6.4h0.1C26.613,2.2,27.512,3,28.313,4z
		 M2.313,43.7c0-0.1,0-0.3-0.1-0.4c-0.7-2.9-0.7-5.8,0.1-8.6c3.2,1.4,5.3,3.9,6.3,7.6C6.813,43.1,4.712,43.6,2.313,43.7z
		 M2.813,53.5c-0.1-0.4-0.2-0.8-0.5-1.1c0.2-0.1,0.5-0.2,0.7-0.3c2.5-0.9,5-1.7,7.5-2.4c1.1-0.2,2.1,0,3.2,0.5
		c1.3,0.6,2,1.6,2.1,3.1c-1,0.2-1.9,0.4-2.8,0.7c-0.3-0.1-0.6-0.1-1-0.1c-0.9,0.2-1.9,0.5-2.8,0.8c-2,0.4-4,0.6-6.1,0.7
		c0.1-0.4,0-0.7-0.1-1.1C2.912,54.1,2.813,53.8,2.813,53.5z M16.813,61c0.1,1.3,0,2.4-0.2,3.6c-0.1,0-0.1,0.1-0.1,0.2
		c-0.2,1-0.6,2-1.1,3c-0.5,0.1-0.8,0.2-1.1,0.1c-4.4-1.5-7.6-4.3-9.7-8.5c0-0.1,0.1-0.2,0.1-0.2c1.9-1.2,3.8-2.1,5.8-2.9
		c1.1-0.2,2.2-0.4,3.3-0.7c0.6,0.1,1.1,0.4,1.6,0.9C16.212,58,16.613,59.5,16.813,61z M34.113,60c-0.1-0.5-0.2-1-0.3-1.4
		c2-0.6,4-0.9,6.1-1c0.1,1.5,0.5,2.9,1.1,4.1c0.1-0.1,0.2-0.2,0.2-0.3c0-1.3,0-2.6-0.1-3.9c2.1,0,4.1,0.1,6.1,0.6
		c-0.4,1.3-0.7,2.6-0.9,3.9c0.2,0,0.4-0.1,0.5-0.2c0.7-1.1,1.3-2.3,1.8-3.4c0.4,0.1,0.9,0.2,1.4,0.4c1.2,0.4,2.4,0.8,3.6,1.2
		c-0.3,0.3-0.6,0.6-0.8,0.9c0,0.3,0,0.5,0,0.8c0,0.2,0,0.5,0,0.7c0.2,0.2,0.4,0.4,0.6,0.3c0.7-0.2,1.2-0.4,1.8-1
		c0.3-0.3,0.6-0.6,0.8-0.9c1.9,0.7,3.6,1.3,5.3,2c-7.8,2.8-15.5,3.2-23,1l0,0c-0.1,0-0.1,0-0.2,0c-1.8-0.5-3.7-1.2-5.5-2
		c-0.1-0.2-0.2-0.4-0.5-0.6c-0.6-0.4-1.2-0.7-2-0.7c-0.6-0.3-1.2-0.6-1.8-1c1.2,0.2,2.4,0,3.8-0.5c0.1,0,0.3-0.1,0.5-0.1
		c0.4,0.6,0.9,1.1,1.5,1.5C34.113,60.3,34.113,60.2,34.113,60z M30.113,61.9l0.2,0.2c-0.7,0.2-1.4,0.4-2.2,0.4
		c-0.2,0.3-0.4,0.6-0.7,0.8c0,0.1-0.1,0.2-0.1,0.4c-0.6,0-1.2-0.1-1.8-0.1c-0.1-0.1-0.3-0.1-0.5-0.2c-0.6-0.1-0.8-0.5-0.8-1.1
		c0.1-0.1,0.1-0.2,0.1-0.4c0.2-0.5,0.5-0.7,1-0.5c0.7,0.2,1.4,0.2,2.2-0.1c0.1-0.1,0.2-0.1,0.4-0.2c0.1-0.1,0.3-0.2,0.4-0.3
		c0.5,0.2,0.9,0.5,1.3,0.8C29.813,61.8,30.012,61.8,30.113,61.9z M18.212,63.8c0.1-0.7,0.1-1.4,0.1-2c0.3,0.1,0.6,0,1-0.3
		c0.8-0.6,1.7-0.7,2.7-0.5c0.4,0.4,0.5,0.9,0.4,1.4c0,0.2,0,0.3,0,0.4C21.212,63.6,19.813,64,18.212,63.8z M39.113,65.5
		c2.7,0.8,5.5,1.3,8.3,1.5c-1.3,0.8-2.8,1.4-4.4,1.7c-0.3-0.2-0.6-0.3-0.9-0.4C40.813,67.6,39.813,66.7,39.113,65.5z M71.012,60.2
		c0,0.1,0,0.2,0.1,0.3c-0.3,0.7-0.6,1.4-0.8,2.2c-0.6-0.3-1.2-0.3-1.8-0.3c-0.1,0.1-0.2,0.1-0.4,0.2c-0.6,0.2-1.1,0.5-1.5,1
		c0-0.2,0-0.3,0-0.5c1.8-0.8,3.2-1.9,4.2-3.3C70.912,59.9,70.912,60,71.012,60.2z M70.012,63.6c-0.1,1-0.2,1.9-0.2,2.9
		c0,0.3,0,0.6,0,0.9c-0.8-0.6-1.5-1.2-2-1.9c0-0.1,0-0.2,0.1-0.2C68.512,64.6,69.212,64.1,70.012,63.6z M65.012,63.8
		c0.1,0.3,0.2,0.7,0.3,1.1c-1.3,0.7-2.6,0.8-3.9,0.2C62.613,64.7,63.813,64.3,65.012,63.8z"/>
	<path style="fill:#3172A1;" d="M27.613,38.6c-0.4,1.2-0.4,2.3,0.2,3.4c4,8.1,10.3,9.3,18.8,3.7c0.1-0.1,0.2-0.3,0.2-0.4
		c2.4-8.3-0.7-13.3-9.3-15C32.512,31.2,29.212,34,27.613,38.6z M35.313,46.3c-6.3-1.6-7.8-5.1-4.4-10.6c0.2-0.1,0.4-0.2,0.5-0.4
		c1.9-1.6,4.2-2.6,6.7-3c0.5,0,0.9,0,1.3,0.1c0.7,0.1,1.3,0.3,2,0.5c0.2,0.6,0.5,1.1,1,1.4c0.6,0.4,1.1,0.8,1.6,1.1
		c1.4,1.9,1.8,4,1.2,6.1C44.012,46.1,40.712,47.6,35.313,46.3z"/>
	<path style="fill:#3172A1;" d="M65.613,50.3c0.1-0.1,0.1-0.2,0.2-0.4c2.3-7.4-0.3-12.2-8-14.4c-0.4,0-0.7,0-1,0
		c-2.2,0-4,0.7-5.5,2.2c-1.4,2.1-1.8,4.4-1,6.9C52.412,51.8,57.613,53.7,65.613,50.3z M57.912,37.8c1.6,0.5,3,1.1,4.4,2
		c0.3,0.7,0.7,1.5,1.1,2.2c0.7,1.4,1.3,2.7,1.6,4.2c-0.3,0.7-0.7,1.4-1,2.2c0,0.2-0.1,0.5-0.2,0.8c-4.5,1.6-8.4,0.8-11.9-2.4
		c-0.2-0.7-0.3-1.5-0.4-2.2c-0.4-2.6,0.4-4.7,2.3-6.4c0.2-0.2,0.5-0.3,0.9-0.3c0.6-0.2,1.2-0.3,1.8-0.4
		C57.012,37.5,57.512,37.6,57.912,37.8z"/>
	<path style="fill:#3172A1;" d="M30.712,71.4c3.9-1,5.2-2,3.8-3.2c-5.9,1.4-11.7,3-17.5,5C21.412,73,26.012,72.4,30.712,71.4z"/>
	<path style="fill:#3172A1;" d="M38.012,73.7c0.7,0.6,1.4,0.5,2.1-0.4c5.7-1.9,11.1-3.7,16-5.4c-0.2-0.1-0.4-0.1-0.6-0.2
		c-0.3,0-0.6-0.1-1-0.2v0.1C48.412,68.3,42.912,70.3,38.012,73.7z"/>
	<path style="fill:#3172A1;" d="M56.313,74.8c0.2,0,0.4,0,0.7-0.1c4.5-1.4,8.7-3,12.6-4.7C64.512,70,60.012,71.6,56.313,74.8z"/>
	<path style="fill:#3172A1;" d="M51.912,70.8c-3.2,1.1-4.7,2.3-4.4,3.9c3.5-1.6,7.1-2.6,11.1-3.1c3.9-0.6,4.9-1.6,2.9-3.2
		C58.412,69,55.212,69.8,51.912,70.8z"/>
</g>
</svg>
