<?xml version="1.0" encoding="iso-8859-1"?>
<!-- Generator: Adobe Illustrator 12.0.1, SVG Export Plug-In . SVG Version: 6.00 Build 51448)  -->
<!DOCTYPE svg PUBLIC "-//W3C//DTD SVG 1.1//EN" "http://www.w3.org/Graphics/SVG/1.1/DTD/svg11.dtd" [
	<!ENTITY ns_svg "http://www.w3.org/2000/svg">
	<!ENTITY ns_xlink "http://www.w3.org/1999/xlink">
]>
<svg  version="1.1" id="Layer_1" xmlns="&ns_svg;" xmlns:xlink="&ns_xlink;" width="89.389" height="94.001"
	 viewBox="0 0 89.389 94.001" style="overflow:visible;enable-background:new 0 0 89.389 94.001;" xml:space="preserve">
<g>
	<path style="fill:#3172A1;" d="M80.789,53.426c-0.7-0.1-1.4-0.1-2,0c-0.1,0.3-0.2,0.5-0.3,0.7c-0.2,0.5-0.5,1-0.8,1.5
		c-0.9-0.4-1.7-0.8-2.5-1.3c-0.3,0.2-0.6,0.5-0.7,0.8c-0.7,1.2-1.4,2.2-2.3,2.8c-0.2,0.2-0.2,0.3-0.2,0.4c0.2,0.7,0.7,1,1.4,0.9
		c0.4-0.3,0.6-0.7,0.7-1.1c0.2-1,0.5-1.8,1.1-2.5c0.4,0.3,0.8,0.7,1.2,1.1c0.7-0.1,1.4-0.1,2.1-0.1c0.1-0.2,0.1-0.3,0.2-0.4
		c0.2-0.5,0.5-1,0.7-1.5c0.8,0.1,1.5,0.1,2.1,0c0.1-0.1,0.1-0.1,0.2-0.2c2.1-1,2.5-1.9,1-2.7c-0.2,0.1-0.3,0.2-0.4,0.2
		C81.589,52.426,81.089,52.826,80.789,53.426z"/>
	<path style="fill:#3172A1;" d="M82.389,62.426c-0.6,0-1.2,0-1.7-0.1c-0.8,0.6-1.6,0.8-2.5,0.8c-0.1-0.2-0.1-0.3-0.2-0.4
		c-0.2-0.6-0.7-0.9-1.3-0.9c-0.3,0.1-0.5,0.2-0.8,0.3c-1.2,0.5-2,1.2-2.2,2.2c1,0.1,2.2-0.2,3.5-0.9c0,1,0.6,1.3,2,0.9
		c0.7-0.5,1.5-0.8,2.5-0.9c0.1,0.2,0.2,0.3,0.3,0.4c0.2,0.2,0.3,0.3,0.4,0.4c2.4,0.1,4.8,0,7-0.3c-1.8-1-3.9-1.3-6.2-0.7
		c-0.2-0.1-0.3-0.2-0.4-0.4C82.589,62.726,82.489,62.626,82.389,62.426z"/>
	<path style="fill:#3172A1;" d="M76.989,70.126c0.6-0.3,0.8-0.2,0.7,0.2c0,0.2,0,0.3,0.1,0.4c1.5,2.1,3.2,2.7,5.2,2
		c-1.1-1.1-2.4-1.8-4-2c-0.1-0.3-0.2-0.5-0.2-0.8c-0.1-0.6-0.4-1.1-0.9-1.5c-1.3,0.9-2.3,0.9-2.9,0.3c0-0.1,0-0.2,0-0.4
		c0.1-0.8-0.4-1.1-1.3-0.9c-0.3,0.3-0.6,0.4-1,0.5c-0.5,0-0.8,0.2-0.8,0.5c0.8,0.4,1.6,0.4,2.4,0c-0.1,0.3-0.1,0.5-0.2,0.8
		c-0.1,0.5,0.1,0.9,0.4,1.1C75.289,71.026,76.188,70.926,76.989,70.126z"/>
	<path style="fill:#3172A1;" d="M81.889,75.726c-0.4-0.4-0.8-0.6-1.2-0.7c-4.4-1-8.1-1.8-11-2.3c-0.7,0-1.4,0.1-2,0.3
		c2.1-4,2.6-8.8,1.6-14.4c-0.4-2.4-1.2-4.7-2.4-6.7c0-0.2-0.1-0.3-0.1-0.4c-0.6-1.4-1.4-2.8-2.2-3.9c-0.1-0.2-0.2-0.4-0.2-0.7
		c-0.1-0.6-0.1-1.2-0.1-1.8c0.4-0.1,0.8-0.2,1.2-0.4c0,0.4,0,0.8,0,1.2c0,0.5,0,1,0,1.5c0.8,0.8,1.8,0.9,2.9,0.5
		c0.3-0.2,0.5-0.4,0.9-0.7c3-2,4.3-4.7,3.9-7.9c-0.3-0.2-0.6-0.5-0.8-0.7c-0.2-0.2-0.3-0.3-0.5-0.4c-0.4-0.1-0.8-0.1-1.2-0.1
		c-0.2,0-0.3,0-0.4,0.1c-1.7,0.4-2.7,1.3-3.2,2.7c-3.5-2.8-7.8-3.9-12.9-3.6c-1,0.7-2.4,0.9-4.1,0.8c-0.8-0.1-1.5,0-2,0.3
		c0,0,0-0.1-0.1-0.1c0,0,0,0.1,0,0.2c-0.1,0.1-0.2,0.3-0.3,0.4c0.1,0,0.2,0,0.4,0c0,0,0,0.1,0,0.2c-3.2-1.2-6.6-1.6-10.2-1.3
		c-0.3,0.2-0.6,0.4-1,0.5c-0.1-0.1-0.2-0.1-0.2-0.1c0-0.2,0-0.3-0.1-0.4c-0.1,0-0.2,0-0.3,0c0,0,0,0,0,0.1c-2.4-1.5-5.1-2.1-8.1-1.8
		c-4.4,0.3-8,1.7-10.9,4.2c-1-1.5-2.3-2.4-4.1-2.7c-1,0.5-1.6,1.4-1.9,2.6c-0.4,1.9-0.1,3.7,0.7,5.5c0.3,0.2,0.5,0.5,0.8,0.7
		c1,1,2,2,3,3c0.3,0.2,0.7,0.3,1,0.5c-2.5,3.8-3.8,8.5-4,14c-0.1,1.7,0,3.3,0.4,4.9c-2.9-1.2-5.9-2-9.3-2.5c-0.5-0.1-1-0.1-1.5-0.1
		c-0.1,0-0.1,0-0.1,0c-0.4,0.2-0.7,0.4-1.1,0.7c-0.3,0.2-0.5,0.4-0.8,0.7c-0.5,1.9-0.5,3.9-0.1,5.9c1.1,6,3.6,10.4,7.3,13.2
		c-2,0.6-3.4,1.5-4.3,3c0,0.1,0,0.2,0.1,0.2c2.2-0.6,3.8-1.5,4.9-2.7c0.8,0.5,1.6,1,2.5,1.4c-1.9,0.4-3.2,1.3-4,2.8
		c0.1,0,0.2,0,0.3,0c3-0.6,4.5-1.5,4.7-2.4c1,0.4,2.1,0.7,3.4,0.9c-1.4,0.4-2.4,1.1-2.9,2.2c0.2,0,0.4,0.1,0.5,0
		c1.7-0.6,3.4-1.2,5.1-1.8c1.3,0.1,2.8,0.2,4.4,0.1c-1.1,0.7-2.1,1.5-3,2.3c3.4-1,7.2-2.3,11.2-4.2c2-0.8,3.2-1.7,3.7-2.5
		c1.1,0.1,2.3,0.3,3.5,0.4c-4.3,1.3-7.7,3.4-10.3,6.3c1.3,0,2.6-0.3,4.1-1c3.6-1.7,6.1-3.5,7.3-5.2c0.4,0,0.7,0,1.1,0.1
		c0.1,0,0.2,0,0.4,0c1.3-0.1,2.7-0.3,4-0.6c-3.4,1.4-5.9,3.6-7.4,6.4c0.3,0.1,0.5,0.1,0.6-0.1c3.5-2.5,7.1-4.8,10.9-7
		c0.3,0,0.7,0,1,0c0.3-0.1,0.6-0.1,0.8-0.2c-0.2,0.6-0.1,1,0.5,1.4c1.2,0.7,2.5,1.4,3.7,2c-1.9,0.7-3.4,1.8-4.6,3.2
		c0.7,0.5,1.7,0.5,2.8-0.1c1.9-0.9,3-1.8,3.4-2.5c0.9,0.3,1.9,0.6,3,0.9c-0.8,0.6-1.4,1.4-1.8,2.2c0.1,0.1,0.2,0.1,0.4,0
		c1.3-0.5,2.4-1.2,3.4-1.9c2.6,0.3,5.2,0.1,7.8-0.6c-1.9,1-3.6,2.1-5.4,3.2c3.2-1.1,6.5-2.3,10-3.5c4.6-1.6,7.9-3.4,9.8-5.3
		c-0.1,0-0.2,0.1-0.3,0.1c-2.3,0.6-4.6,1.3-6.7,2.2c0.9-0.7,1.9-1.3,2.8-2.1c1.7-1.6,2.7-3.5,3.1-5.6
		C82.188,77.626,82.188,76.626,81.889,75.726z M78.889,76.226c0.2,0,0.4,0.2,0.6,0.4c0.8,0.7,0.8,1.6,0.2,2.4
		c-4.8,6.1-10.3,9.3-16.8,9.5c0.2-0.2,0.3-0.3,0.4-0.4c-0.2-0.1-0.4-0.1-0.6,0c-0.3,0.1-0.6,0.2-0.9,0.4c-3.3-0.2-6.7-1-10.4-2.6
		c0-0.1,0-0.2,0.1-0.3c3.2-5,7.7-8.2,13.3-9.5c0.1,0.1,0.3,0.2,0.5,0.3c0.1-0.1,0.3-0.3,0.4-0.5c2.3-0.4,4.8-0.5,7.6-0.3
		C75.089,75.526,76.989,75.726,78.889,76.226z M34.889,39.826c0.1-0.1,0.3-0.2,0.5-0.3c0.9,0,1.7,0.1,2.5,0.1
		c4.1,0.2,7.5,0.3,10.5,0.4c0,0,0,0,0,0.1c0-0.1,0-0.1,0.1-0.1l0,0h0.3c0.3,0,0.5,0,0.7,0c-0.2-0.2-0.4-0.4-0.5-0.5
		c-0.2-0.2-0.3-0.4-0.5-0.6c0,0,0,0,0-0.1c6.2-0.8,12.4,0.1,18.4,2.7c0,0,0,0,0,0.1c0,0,0.1,0,0.2-0.1c0.4,0.2,0.9,0.4,1.4,0.7
		c0-0.1,0-0.1-0.1-0.2c-0.2-0.2-0.5-0.4-0.7-0.6c1.3-0.4,2.7-0.7,4.1-1c0,0.2,0,0.3,0,0.4c-1.3,3.2-3,4.9-5,5.1
		c0-0.3,0.1-0.7,0.2-0.9c0.3-0.4,0.6-0.9,0.8-1.3c-5.2-4-10.4-4.7-15.4-2c0.5-0.1,1-0.2,1.4-0.2c3.3,1.7,6.4,4,9.4,6.7
		c0.3,0.5,0.7,1.1,1.2,1.7c0.1,0.1,0.1,0.2,0.1,0.3l-0.2,0.1c2.5,3.5,3.7,8,3.7,13.4c0,3.8-1.2,7.1-3.6,10c-5.4,1.6-9.7,4.8-13,9.5
		c-0.1-0.1-0.1-0.2,0-0.3c-6.8,2.5-14.5,2.4-23-0.2c-3.2-5.8-7.6-10.1-13.3-13c-1.7-4.8-1.3-9.9,1.1-15.5c0.1-0.2,0.2-0.3,0.3-0.4
		c0.2-0.1,0.3-0.2,0.4-0.4c0.1-0.1,0.2-0.2,0.2-0.4c0.1-0.1,0.1-0.2,0.1-0.3c0-0.2,0-0.3,0-0.4c0.1-0.1,0.1-0.2,0.2-0.4
		c0.8-0.6,1.4-1.2,1.9-2c0.6-0.2,1.2-0.5,1.6-1.1c0-0.3,0-0.6,0-1c0.7-0.8,1.4-1.6,2.2-2.3c0.3-0.2,0.6-0.4,1-0.6
		c2.1-1.3,3.9-2.7,5.7-4.2c-0.2-0.1-0.3-0.2-0.4-0.2c-1.6-0.2-3.2-0.3-4.7-0.3c-1.7,0.4-3.3,1-4.9,1.7c-0.7,0.3-1.3,0.8-1.7,1.3
		c-0.1,0-0.2,0-0.3,0c-0.1,0.1-0.1,0.2-0.2,0.3c0,0.2,0,0.4,0.1,0.6c0.1,0.3,0.3,0.6,0.6,0.8c0,0.7,0.2,1.4,0.4,2
		c0.1,0.1,0.1,0.2,0.1,0.3c-0.3,0.4-0.7,0.8-1,1.2l0,0c-0.6-0.2-1.1-0.5-1.6-0.8c-2.1-1.4-3.3-3.3-3.8-5.8c-0.1-0.4,0-0.9,0.2-1.2
		c0.3-0.3,0.4-0.6,0.3-1c0.3,0,0.5,0,0.6,0.2c1.1,0.9,2.1,1.4,2.9,1.3c-0.1,0.1-0.3,0.3-0.5,0.5c0.5,0.1,1,0.2,1.5,0.2
		c0.2,0,0.4-0.1,0.5-0.2c6-3.5,11.9-4.5,17.8-2.9c-0.4,0.4-0.7,0.7-1.2,0.9c-0.2,0.1-0.4,0.2-0.5,0.4c0,0,0.1,0,0.2,0.1
		c0.1,0,0.3,0,0.4-0.1C34.689,39.926,34.789,39.826,34.889,39.826z M62.489,45.126c0.1,0.1,0.2,0.3,0.2,0.4c-2.1-2-4.8-3.3-8-4.1
		c3.5-0.3,6.6,0.3,9.5,1.9c0,0,0,0-0.1,0c-0.1,0-0.2,0.1-0.3,0.1c-0.5,0.4-0.9,0.8-1.2,1.3
		C62.589,44.826,62.489,44.926,62.489,45.126z M21.789,44.126c-0.1,0-0.1,0-0.2,0.1c-0.2,0.2-0.4,0.4-0.5,0.6
		c-0.3,0.3-0.6,0.5-0.8,0.7c-0.2-0.5-0.3-1-0.5-1.4c0.4-0.2,0.8-0.3,1.3-0.6c1.5-0.9,3.2-1.5,4.9-1.9c-1.1,0.4-2.2,1-3.2,1.7
		c-0.1,0-0.3,0-0.4,0c-0.1,0.1-0.1,0.2-0.1,0.2C22.089,43.726,21.889,43.926,21.789,44.126z M29.489,84.926c0-0.1-0.1-0.2-0.1-0.3
		v-0.1c0.6,0.3,1.3,0.5,2,0.7c0.1,0.1,0.2,0.1,0.3,0.1c-0.8,0.3-1.6,0.7-2.3,1C29.389,85.926,29.489,85.426,29.489,84.926z
		 M26.989,84.626c0.3,0.7,0.2,1.2-0.3,1.5c-7.8,4.3-14.7,3.2-21-3.6c-4.5-4.8-5.3-9.7-2.5-14.7c3.7,0.7,7.3,1.9,10.8,3.8
		C19.989,74.426,24.289,78.826,26.989,84.626z"/>
	<path style="fill:#3172A1;" d="M41.589,46.626c-0.5-0.4-1-0.7-1.5-1.2c-0.2-0.1-0.4-0.2-0.5-0.3c-1.6-0.1-3.2-0.1-4.8-0.2
		c-3.4,0.8-5.8,2.8-7.1,6c-3.8,8.7-1.3,14.3,7.6,16.8c1.4-0.5,2.8-0.9,4.2-1.3c0.9-0.2,1.5-0.7,2.1-1.3c0.7,0.9,1.6,1.6,2.9,2
		c1.8,0.7,3.6,0.6,5.4-0.2c6.5-2.9,8.4-7.8,5.7-14.7c-1-1.2-2-2.3-3-3.4C49.289,45.826,45.689,45.126,41.589,46.626z M35.289,46.426
		c2.2-0.6,4.1-0.2,5.6,1.3c0,0.3,0.1,0.5,0.2,0.8c-0.8-0.1-1.6-0.1-2.4-0.2c-2.7,0.8-5.4,2-8,3.4c-1.2,0.7-2,1.5-2.7,2.5
		C28.689,51.026,31.189,48.426,35.289,46.426z M27.689,55.526c0.7-0.3,1.3-0.8,2-1.2c3.5-2.7,7.4-4.5,11.7-5.3
		c0.1,0.2,0.3,0.3,0.4,0.4c0.6,0,1-0.3,1.2-0.8h0.1c3.9,2.6,7.9,5.3,11.9,8.2c0.5,3.3-1,6.3-4.4,8.9c-3.4,0.8-6.3,0.1-8.8-2.4
		c-3.3,2.8-6.9,3.3-10.8,1.4c-0.7-0.4-1.2-0.9-1.5-1.5C28.089,60.326,27.489,57.826,27.689,55.526z M51.789,50.326
		c0.2,0.3,0.4,0.5,0.6,0.8c1.2,1.7,2,3.4,2.4,4.9c-3.2-3.4-7.1-6-11.5-7.7c0.1-0.2,0.4-0.4,0.6-0.6
		C46.889,47.526,49.589,48.426,51.789,50.326z"/>
	<path style="fill:#3172A1;" d="M40.789,61.426c0-0.1,0-0.1,0-0.3c-0.1-1-0.8-1.3-2.1-0.9c-0.6,0.1-0.8,0.5-0.7,1.1
		c0,0.4,0,0.8,0,1.1c0.1,0.2,0.2,0.2,0.3,0.3c0.5,0.1,0.9,0.2,1.4,0.2c0.5-0.1,0.9-0.6,1-1.1
		C40.789,61.726,40.789,61.626,40.789,61.426z"/>
	<path style="fill:#3172A1;" d="M43.089,61.626c0,0.2,0.1,0.5,0.2,0.7c0.4,0.2,0.9,0.3,1.3,0.3c0.8,0,1.1-0.4,1.2-1.2
		c0-0.1,0-0.1,0-0.3c-0.1-1-0.8-1.3-2.1-0.9C43.089,60.426,42.889,60.826,43.089,61.626z"/>
	<path style="fill:#3172A1;" d="M32.589,78.226c-0.4,0.3-0.5,0.6-0.2,1c0.9,0.2,1.7-0.1,2.3-0.9c0.5-0.5,1-0.9,1.6-1.2
		c2,1,4.2,1.4,6.4,1.1c0.6-0.7,1.4-1.5,2.1-2.2c0.3-0.3,0.6-0.6,0.9-0.8c0.4-0.1,0.9-0.1,1.3-0.1c1,0.7,2,1.1,3.2,1.1
		c0.4,0,0.9-0.1,1.3-0.3c0.7-0.7,1.4-1.4,2.2-2.1c0.5-0.5,1-1,1.5-1.5c1-0.4,2.2-0.6,3.3-0.5c0.2,0.1,0.4,0.1,0.7,0.3
		c0.6,0.5,1.2,0.9,2,1.1c0.2,0.1,0.4,0.1,0.6,0c0-0.1,0-0.2,0-0.3c-1.2-2.2-3.1-3.2-5.6-2.8c-0.7,0.3-1.4,0.8-2.2,1.4
		c-1.2,1-2.5,2-3.7,2.9c-1.9-0.5-3.8-0.6-5.6-0.5c-0.8,0.8-1.5,1.5-2.3,2.3c-0.2,0.2-0.5,0.5-0.7,0.8c-2.4-0.6-4.6-0.9-6.8-0.8
		C34.289,77.026,33.489,77.626,32.589,78.226z"/>
	<path style="fill:#009659;" d="M48.789,40.126c0-0.1,0-0.1,0-0.1h-0.3L48.789,40.126z"/>
	<path d="M48.789,40.126l-0.3-0.1c0.1,0.2,0.1,0.4,0.2,0.5C48.689,40.426,48.789,40.226,48.789,40.126z"/>
	<path d="M64.289,50.326l0.2-0.1c-0.4-0.5-0.9-0.9-1.3-1.3C63.589,49.426,63.889,49.826,64.289,50.326z"/>
	<path style="fill:#3172A1;" d="M80.889,87.826c-0.1,0-0.2,0-0.2,0c-3.9,1.1-7,3.1-9.3,6.1c0.3,0.1,0.5,0.1,0.7,0
		C75.889,92.026,78.889,90.026,80.889,87.826z"/>
	<path style="fill:#3172A1;" d="M59.789,9.626c-0.1-0.2-0.2-0.3-0.3-0.4c-4.7-6.9-11.5-9.9-20.3-9.1c-6.8-0.2-11.5,2.4-14.2,7.7
		c-1.5,3.2-1.3,6.2,0.5,9c3.2,4.8,7.4,7.6,12.7,8.4c-0.1,0.8-0.1,1.7,0,2.5c1.9,1.7,4,2.1,6.3,1.2c0.4-0.5,0.8-1,1.3-1.5
		c0.1-0.7,0.3-1.5,0.5-2.2c-0.2-0.1-0.3-0.1-0.4-0.1c0.4-0.1,0.8-0.2,1.3-0.2C56.489,23.226,60.689,18.126,59.789,9.626z
		 M58.889,13.126c-0.5,1.9-1.4,3.6-2.9,5c-6.8,6.4-15.1,7.6-24.7,3.8c-1.8-1.1-3.3-2.5-4.4-4.1c-0.9-1.3-1.6-2.8-2.1-4.5
		c0-0.1,0-0.2,0-0.4c1.1-7.8,6-11.5,14.9-11.1C49.389,1.026,55.889,4.826,58.889,13.126z M44.689,25.326c-0.1,0.5-0.1,0.9-0.3,1.4
		c-1.6,1.4-3.3,1.4-5.1,0c0-0.1,0-0.2,0-0.3c-0.1-0.4-0.1-0.8-0.1-1.1C40.889,25.526,42.689,25.526,44.689,25.326z"/>
	<path style="fill:#3172A1;" d="M47.789,8.626c0-0.7-0.1-1.3-0.2-1.9c0-0.1-0.1-0.2-0.2-0.4c-0.1-0.1-0.2-0.2-0.3-0.3
		c-3.2-1.7-6.7-2.4-10.4-1.9c-2.2,0.1-4.4,0.5-6.5,1.2c-1.9,0.6-3.2,1.7-4,3.3c0,0.2,0,0.4,0.1,0.6c0.2,0.4,0.4,0.8,0.5,1.2
		c0,0.2,0,0.3,0.1,0.4c0.5,0.5,1.1,0.8,1.7,0.9c0.1,0,0.1,0,0.1,0.1c0,0.7,0,1.3,0,1.9c0,0.7-0.2,1.3-0.5,1.9c0,0.1,0,0.2,0,0.3
		c0,0.2,0,0.3,0.1,0.4c0.2,0.3,0.4,0.7,0.4,1.1c0,0.2,0,0.3,0,0.4c1.3,0.6,2.7,1.3,4.1,1.9c2.1,1,3.7,0.9,5,0c0-0.1,0-0.1,0-0.2
		c2.8-1.1,5.7-2.2,8.7-3.1c-1-1.2-1.8-2.6-2.3-4.1c0-0.1,0-0.2,0-0.2c0.7-0.5,0.9-0.9,0.8-1.4c0.9-0.3,1.8-0.5,2.7-0.6
		C47.789,9.626,47.889,9.126,47.789,8.626z M46.389,8.126c0.1,0.1,0.1,0.3,0.1,0.6c0,0.1,0,0.2,0,0.2c-1.5,0.3-2.8,0.7-4.2,1.2
		c-1,0.3-1.7,0.2-1.9-0.4c-0.1-0.3-0.3-0.5-0.4-0.8c-0.1-0.1-0.1-0.2-0.1-0.3c0-0.2,0-0.3,0-0.4c-0.1-0.1-0.2-0.2-0.2-0.4
		c-0.2-0.1-0.3-0.2-0.4-0.4c-0.2-0.1-0.3-0.2-0.4-0.3c-0.2-0.2-0.3-0.3-0.5-0.4c-0.7-0.1-1.5-0.1-2.2,0c-0.2,0-0.4,0-0.6,0.1
		c-0.2,0-0.5,0.1-0.8,0.1c-0.2,0-0.3-0.1-0.4-0.1c-0.6-0.2-1.2-0.3-1.7-0.5c1.3-0.1,2.6-0.2,3.9-0.3c0.2-0.1,0.4-0.1,0.6-0.2
		c1.6,0,3.2-0.1,4.8-0.1c0.2,0.1,0.4,0.2,0.7,0.2C44.289,6.226,45.489,6.926,46.389,8.126z M37.689,8.326c0.2,0.2,0.3,0.5,0.5,0.7
		c0.1,0.2,0.2,0.4,0.2,0.7c-0.2,0.9-1.2,1.5-3,1.7c0.1,0.7,0.1,1.3,0,1.9c-0.1,2.1,0.2,4,1,5.6c-2.5-0.2-4.8-0.9-6.7-2.2
		c-0.3-0.5-0.3-1-0.3-1.5c0.1-1.8,0.3-3.4,0.4-4.9c-0.2-0.1-0.3-0.2-0.4-0.1c-1.1,0.2-1.7-0.1-1.7-0.9c-0.2-0.1-0.2-0.2-0.2-0.3
		c0.2-0.9,0.8-1.5,1.7-1.9C31.889,8.126,34.689,8.626,37.689,8.326z M36.789,13.326c0-0.1,0.1-0.2,0.1-0.4c0.7-0.1,1.4-0.3,2.1-0.5
		c1.6-0.6,3.2-1,4.8-1.4c-1,1.3-0.8,2.8,0.4,4.6c-2.8,0.6-4.9,1.7-6.5,3.2c-0.1-0.5-0.3-0.9-0.4-1.3
		C36.689,16.226,36.589,14.826,36.789,13.326z"/>
	<path style="fill:#3172A1;" d="M53.389,6.426c-0.6-0.2-1-0.4-1.5-0.7c-0.4-0.1-0.7,0-0.9,0.4c-1.5,3.6-1.3,6.4,0.7,8.5
		c0.2-0.3,0.3-0.6,0.4-0.8c0.5-2.4,1.1-4.8,1.7-7.1C53.589,6.626,53.489,6.526,53.389,6.426z"/>
	<path style="fill:#3172A1;" d="M51.789,17.626c0.4-1.2,0-1.9-1.1-2c-0.2,0-0.4,0.1-0.5,0.1c-0.8,0.2-1.2,0.7-1.2,1.5
		c0.5,1.3,1.4,1.6,2.8,0.7C51.789,17.826,51.789,17.726,51.789,17.626z"/>
	<path style="fill:#3172A1;" d="M46.189,33.826c0-0.1,0-0.2,0-0.4c-0.5-0.3-0.8-0.7-1.2-1.2c-0.3-0.3-0.5-0.6-0.7-1
		c-0.2-0.1-0.3-0.2-0.4-0.2c-0.6-0.1-1.2-0.3-1.7-0.3c-0.4,0.2-0.7,0.3-1.1,0.7c-0.6,0.5-0.9,1-1.1,1.5c0,0.2,0,0.3,0,0.4
		c0,0.5,0,1,0.1,1.5c0,0.2,0,0.3,0.1,0.4c0.2,0.2,0.5,0.5,0.7,0.7c0.1,0.2,0.2,0.3,0.4,0.4c2.1,0.7,3.8,0.4,5-1
		C46.289,34.826,46.289,34.326,46.189,33.826z M41.889,34.826c-0.8-0.7-0.9-1.5-0.1-2.2c0.1-0.1,0.2-0.1,0.3-0.1
		c1.2,0.3,2.2,1,2.9,2.1c-0.9,0.1-1.8,0.3-2.7,0.5C42.089,35.026,41.989,34.926,41.889,34.826z"/>
	<path style="fill:#3172A1;" d="M5.689,93.226c-0.3-0.1-0.5-0.1-0.7-0.2c-0.1,0.1-0.2,0.1-0.2,0.2c0,0.1,0,0.2,0.1,0.2
		C5.089,93.326,5.389,93.226,5.689,93.226z"/>
	<path style="fill:#3172A1;" d="M50.689,86.826c0,0.1,0,0.1-0.1,0.1c-2.6,1-5,2.5-6.9,4.5c0.9,0.4,2,0.3,3.2-0.4
		C49.889,89.526,51.089,88.126,50.689,86.826z"/>
</g>
</svg>
