<?xml version="1.0" encoding="iso-8859-1"?>
<!-- Generator: Adobe Illustrator 12.0.1, SVG Export Plug-In . SVG Version: 6.00 Build 51448)  -->
<!DOCTYPE svg PUBLIC "-//W3C//DTD SVG 1.1//EN" "http://www.w3.org/Graphics/SVG/1.1/DTD/svg11.dtd" [
	<!ENTITY ns_svg "http://www.w3.org/2000/svg">
	<!ENTITY ns_xlink "http://www.w3.org/1999/xlink">
]>
<svg  version="1.1" id="Layer_1" xmlns="&ns_svg;" xmlns:xlink="&ns_xlink;" width="82.8" height="78.831"
	 viewBox="0 0 82.8 78.831" style="overflow:visible;enable-background:new 0 0 82.8 78.831;" xml:space="preserve">
<g>
	<path style="fill:#3172A1;" d="M80.4,74.3c0.2-0.2,0.5-0.4,0.7-0.7c0.6-0.1,1.1-0.1,1.7-0.2c-0.1-0.1-0.1-0.1-0.2-0.1
		c-0.3-0.1-0.7-0.1-1.1-0.2c0.3-0.3,0.4-0.7,0.5-1.1c-6.9-4.2-14.6-6.4-23-6.5c0-0.1,0-0.2,0-0.4c0.1-2.3-0.5-4.2-1.8-5.7
		c8.1-4.9,11.2-12.4,9.5-22.3c-0.5-2.5-1.2-4.7-2.4-6.8c-0.2-0.3-0.4-0.7-0.6-1.1c0.2-0.1,0.3-0.4,0.1-0.8c-1.5-2.1-2.8-4.3-4-6.5
		c-0.3-0.1-0.4-0.1-0.6-0.1c-0.2-0.6-0.4-1.2-0.6-1.8c0.1-0.2,0.1-0.5,0.2-0.7c0.1-0.3,0.2-0.5,0.3-0.8c0.8-0.4,1.4-0.9,1.8-1.5
		c0.2-0.1,0.4-0.2,0.6-0.2c-0.1-0.2-0.2-0.2-0.3-0.2c-0.1,0-0.2,0-0.3,0c-1-0.4-1.9-1-2.8-1.7c0-0.1,0-0.2,0.1-0.4
		c0.4-1.2,0.7-2.4,1-3.4c0.1,0.2,0.3,0.4,0.5,0.5c0.6,0.6,1.3,1.2,1.9,1.8c0.7,0.1,1.3,0.1,1.9,0.1c0.1,0,0.2-0.1,0.4-0.1
		c0.1-0.1,0.1-0.1,0.1-0.3c1.7-5.8-0.6-9.9-7-12.1c-1,0.4-1.5,1.2-1.3,2.4c0.1,0.7,0.1,1.5-0.1,2.2c-4.2,2.2-7.6,5.2-10.2,9.2
		c0.1,0.7,0,1.3-0.5,1.9c-0.1,0.2-0.2,0.4-0.2,0.6c-3-1-6-1.3-9.3-1c-0.7,0.4-1.6,0.8-2.6,1.2c0-0.5-0.1-0.9-0.1-1.4
		c-1.1-5.1-4.2-8.7-9.4-10.8c-0.3,0-0.7,0-0.9-0.1c0.1,0,0.2-0.1,0.4-0.2c0.5-0.6,0.7-1.4,0.7-2.2c0-0.9-0.2-1.6-0.7-2.3
		c-0.2-0.1-0.4-0.2-0.6-0.2C21.5,0.1,20.8,0.1,20,0c-0.5,0.3-1,0.7-1.5,1.2C18.2,1.5,18,1.8,17.8,2c0,0.7-0.2,1.3-0.6,1.8
		c-0.5,0.5-0.8,1-0.9,1.6c0,0.7,0,1.5,0.1,2.2c0,1,0.3,1.8,0.6,2.7c0.3,0.2,0.5,0.5,0.8,0.7c0.1,0.2,0.2,0.3,0.3,0.4
		c0.6,0,1.2-0.1,1.8-0.1c0.1,0,0.2,0,0.2-0.2c0.5-0.3,0.8-0.6,1-0.9c0.1,0.2,0.2,0.6,0.3,0.8c-0.2,0.3-0.3,0.5-0.4,0.8
		c-0.2,0.5-0.4,0.8-0.7,1.1c-1.8,0.5-3.1,1.4-4,2.6c1.6,0.3,3.1,0.9,4.6,1.6c0.1,0.3,0.3,0.5,0.4,0.7c0.4,0.5,0.5,1,0.5,1.6
		c-0.3,0.2-0.5,0.4-0.8,0.7c-0.2,0-0.4,0-0.6,0c-0.3,0.3-0.6,0.7-0.8,1.1c-0.1,0-0.1,0-0.2,0c0,0.1-0.1,0.2-0.2,0.3c0,0,0,0-0.1,0
		c-0.6,0.2-1,0.5-1,1.1c0,0.1,0,0.1,0.1,0.1c-0.4,0.3-0.7,0.6-0.9,0.8c0,0,0,0,0.1,0c-0.4,0.3-0.7,0.6-1.1,0.9
		c0.1,0.2,0.3,0.4,0.6,0.5c-4.3,4.4-6.5,10.2-6.8,17.5c0,2.1,0.2,4.2,0.7,6.1c1.5,5.2,4.2,9.1,8.3,11.8c-1,1.7-1.5,3.6-1.3,5.7
		c-6.2-0.5-11.6,1.1-16.3,4.7c0,0.2,0,0.3,0,0.4c-0.1,0.8,0,1.6,0.3,2.3c0,0.1,0,0.1,0.1,0.1C1.1,73.8,0.5,74.4,0,75
		c1.2,0.1,2.2-0.1,3.2-0.4C4.1,74.7,5,74.9,5.8,75c-1.3,0.5-2.6,1.2-3.7,2.1c0.1,0.2,0.1,0.2,0.1,0.2c2.2-0.5,4.3-1.1,6.6-1.9
		c1,0.1,2,0.2,2.9,0.3c-1.6,0.4-3.1,1-4.4,1.7c2.5-0.1,5.1-0.6,7.6-1.6c2,0,4-0.1,6.1-0.3c-2.3,0.8-4.5,1.5-6.7,2.4
		c0.2,0,0.4,0,0.7,0c8.4-1.9,16.7-4.1,24.8-6.5c1.6-0.1,3.2-0.2,4.8-0.5c-0.4,0.2-0.9,0.4-1.5,0.5c-5.7,1.3-11,3.2-16.1,5.6
		c6-1.1,12.4-2.8,19-5.2c1.5,0.7,3,1.3,4.5,1.9c-0.8-0.2-1.6-0.4-2.5-0.4c-0.5,0.3-1.1,0.5-2,0.7c-3.2,0.3-6.1,1.3-8.7,2.9
		c0.3,0,0.7-0.1,1.1-0.1c4.4-0.9,8.5-1.8,12.4-2.9c-0.1-0.1-0.1-0.1-0.2-0.2c0.9,0.3,1.7,0.6,2.6,0.8c-1.9,0.4-3.4,1.1-4.6,2.1
		c0.3,0.6,0.7,0.8,1.5,0.7c3.5-0.6,5.3-1.3,5.3-2.2c1.9,0.4,3.7,0.7,5.6,1C60.9,76,60.7,76,60.5,76c-0.9,0.3-2,0.6-3.2,0.9
		c-0.4,0.1-0.7,0.3-0.7,0.7c0.3,0.7,0.7,0.8,1.3,0.5c1.5-0.9,3.1-1.4,4.9-1.7c-0.1-0.1-0.1-0.1-0.2-0.1c-0.3-0.1-0.6-0.1-0.9-0.2
		c1.5,0.2,3.1,0.2,4.7,0.2c-1.4,0.7-2.5,1.4-3.6,2.2c0.5,0.4,1.1,0.4,1.7,0.2c2.1-0.9,4.4-1.8,6.6-2.6c3-0.3,6-0.8,9-1.6
		C80.2,74.4,80.3,74.3,80.4,74.3z M57.6,6.6c-0.1-0.7-0.1-1.5-0.3-2.2c-0.1-0.5-0.1-1,0.1-1.5c0.6-0.3,1.1-0.1,1.8,0.4
		c2.8,2.5,4.2,5.2,3.9,8.3c-0.7,0.3-1.4,0-1.9-0.6c-0.4-0.7-0.8-1.4-1.2-2.1c-0.1-0.1-0.3-0.2-0.5-0.3c-0.2,0-0.3,0-0.5,0.2
		c-0.9-0.4-1.9-0.5-3-0.3c-0.8,0.5-1.7,1-2.7,1.7c-1,0.7-1.9,1.6-2.8,2.6c-0.4,1.5-0.8,3-1.2,4.5c-0.3,1-0.2,1.7,0.1,2.3
		c-0.1,0.1-0.3,0.2-0.5,0.3c2.1,0.6,4,1.4,5.9,2.3c0.4,0.2,0.7,0.3,1.1,0.4c0.7,0.6,1.5,1.2,2.3,1.7c0.5,0.4,1,0.8,1.4,1.2
		c0.8,0.9,1.4,1.9,2.2,2.8c0.1,0.1,0.1,0.2,0.1,0.3l-0.2,0.2c2.4,3.4,3.7,7.9,3.7,13.3c0,4.3-1.5,7.9-4.5,11
		c-9.3,9.8-21.1,12.4-35.3,8c-3.9-1.2-7-3.4-9.5-6.5c-5.2-6.5-6.1-13.9-2.6-22c0.1-0.1,0.2-0.2,0.4-0.4c0.1-0.1,0.2-0.2,0.4-0.3
		c0-0.2,0.1-0.3,0.2-0.4c0-0.1,0-0.2,0-0.4c0-0.1,0-0.2,0.1-0.3c0-0.2,0.1-0.3,0.2-0.4c0.8-0.7,1.5-1.5,2.1-2.4
		c2.8-4,6.3-6.8,10.7-8.3c0.2,0.1,0.4,0.1,0.7,0.2c0.1-0.2,0.2-0.4,0.2-0.5c0.1-0.1,0.1-0.1,0.1-0.1v-0.1c0-0.1,0-0.2,0-0.3
		s0-0.1,0-0.1c0-0.1-0.1-0.2-0.1-0.3c-0.1-0.1-0.2-0.2-0.2-0.2c2.2-5.1,0.1-9-6.5-11.7c-0.1,0-0.2,0-0.3,0c-0.3-0.1-0.7-0.1-1-0.1
		c-0.4,0.1-0.9,0.3-1.2,0.5c-0.1,0.2-0.1,0.3-0.1,0.3c0.2,0.1,0.4,0.2,0.6,0.3c-0.2,0.3-0.2,0.7-0.3,1.1c0,0.4-0.2,0.7-0.6,0.8
		c-0.5-0.6-0.8-1.2-1-2.1c-0.1-0.4-0.1-0.8-0.1-1.1c0.1-0.3,0.3-0.5,0.5-0.8c0.1-0.1,0.2-0.2,0.3-0.4c0-0.5,0.1-1.1,0.3-1.5
		c0.7-1.5,1.6-2,2.7-1.6c0.3,0.8,0.2,1.6-0.3,2.3c0,0.1,0,0.2,0,0.3c0,0.3,0,0.4,0.1,0.6c-0.3,0-0.6,0-0.9-0.1
		c-0.4,0.1-0.5,0.1-0.4,0.2c6,1.8,9.8,5.6,11.3,11.3c-0.1,0.2-0.1,0.3-0.1,0.4c0,0.4,0,0.7,0.2,0.9c-0.2,0.1-0.4,0.2-0.6,0.2
		c0.1,0.1,0.1,0.1,0.1,0.2c0.2,0.1,0.4,0.2,0.5,0.2c0.2,0.1,0.3,0.1,0.4,0c0.1,0.1,0.3,0.2,0.6,0.3c0.1-0.3,0.2-0.5,0.2-0.8
		c0,0,0,0,0.1,0c0.8,0,1.6,0,2.5,0.1c4.1,0.2,7.6,0.3,10.6,0.4h0.3c0.1,0,0.2,0,0.3,0v0.1c0.1,0,0.1-0.1,0.2-0.1c0.2,0,0.4,0,0.7,0
		c-0.1-0.1-0.1-0.2-0.2-0.2c-0.1,0-0.2-0.1-0.3-0.2c0.1-0.2,0.2-0.5,0.3-0.8c-0.3-0.2-0.5-0.3-0.7-0.5c0.8-3.1,2.8-5.5,5.9-6.9
		c0.2-0.2,0.4-0.4,0.6-0.6C54.3,7.9,55.9,7.1,57.6,6.6z M46.5,18c-0.1-0.1-0.1-0.1-0.2-0.1c0.1-0.1,0.1-0.2,0.1-0.3
		C46.4,17.8,46.4,17.8,46.5,18z M51.1,18.5c-0.1-0.1-0.2-0.1-0.2-0.1c0.3-0.9,0.6-1.8,0.8-2.6c1-3.5,3.2-5.5,6.5-6
		c-1.4,1.7-1.8,3.7-1.1,6c0.2,0.1,0.3,0.2,0.4,0.3c0,0.1,0.2,0.2,0.2,0.3c-0.9-0.1-1.8-0.1-2.7-0.1c-1.3,0.2-2.5,0.9-3.5,1.8
		C51.3,18.3,51.2,18.4,51.1,18.5z M52.4,19.1c0.8-0.5,1.7-0.7,2.6-0.8c1.1-0.2,2.1-0.4,3-0.5c0,0.2-0.1,0.5-0.1,0.7
		c-0.2,1.1-0.2,2.1-0.2,2.9l0,0c0,0.2,0.1,0.4,0.1,0.6c0,0.1,0,0.2,0.1,0.4c-0.1-0.1-0.1-0.1-0.1-0.1c0,0.2,0.1,0.3,0.1,0.4
		c-0.4-0.3-0.7-0.6-1.1-0.8c-0.2-0.1-0.4-0.2-0.5-0.3c-1.2-0.7-2.3-1.3-3.5-1.9c0.1-0.1,0.2-0.2,0.3-0.3
		C52.8,19.3,52.6,19.2,52.4,19.1z M22.2,8.6c0.1,0,0.1,0,0.2,0c0.4,0.6,0.9,1,1.5,1.4c2.6,1.5,4.1,3.7,4.2,6.5
		c-0.2,0.3-0.4,0.6-0.5,0.8c-1.6-1.8-3.6-3-6.1-3.5c0.4-0.4,0.8-0.8,1-1.3c0.1-0.1,0.1-0.2,0.1-0.4C22.9,10.7,22.8,9.5,22.2,8.6z
		 M22,15.6c2,0.6,3.6,1.8,5,3.6c-1,0.3-2.1,0.4-3.1,0.6c-0.2,0-0.3,0.1-0.4,0.1C23.4,20,23.3,20,23.3,20
		C23.3,18.2,22.9,16.8,22,15.6z M28.5,64.1c0.8,0.1,1.5,0.3,2.2,0.4c-2.3,0.1-4.3,1-6.1,2.7c3.2-0.4,6.7-0.9,10.5-1.6
		c0-0.1,0-0.2,0.1-0.3c0-0.2,0-0.3,0.1-0.4c2.4,0.1,4.9,0,7.3-0.3l0,0c2.1,1,4.5,1.8,7.3,2.5C48.3,67.7,47,68.7,46,70
		c-5.4,0.1-10.9-0.2-16.4-0.9c-1.5-0.9-3.1-1.5-5-1.9c-0.6-0.1-1.3-0.2-2.1-0.3c0.5-1.9,0.6-3.4,0.3-4.6
		C24.6,63.1,26.5,63.6,28.5,64.1z M21.8,61.9c-1,2.2-1,4.4-0.3,6.7c3.1,1,6.3,2,9.4,3.3C21.3,74.8,12,74.8,3,72
		c4.4-3.3,9.7-4.9,15.8-4.9c0-0.1,0-0.2,0-0.4c0.2-2.1,0.4-4.2,0.8-6C20.3,61.1,21,61.5,21.8,61.9z M33.2,72
		c-0.1-0.1-0.1-0.2-0.1-0.3c-0.6-0.6-1.3-1.1-1.9-1.6c1.6,0.5,3.3,0.9,5,1.1C35.2,71.4,34.2,71.7,33.2,72z M55.4,60.4
		c0.2-0.1,0.4-0.2,0.6-0.3c1.1,2.2,1.8,4.6,2,7c8.2,0.3,15.4,2,21.6,5.4c-11,3.3-21.8,2.7-32.3-1.6c2.4-1.8,5-2.8,8-3.3
		c0-0.1,0-0.2,0.1-0.4c0.5-2.7,0-4.8-1.5-6C54.4,60.9,54.9,60.7,55.4,60.4z M54.1,66.2c-0.9,0.1-1.8,0.2-2.6,0.4
		c-2.1-1-4-1.8-5.9-2.6c2.6-0.6,5.2-1.4,7.7-2.6C54.3,62.8,54.5,64.4,54.1,66.2z"/>
	<path style="fill:#3172A1;" d="M38,24.4c-0.4-0.4-0.9-0.7-1.5-1.2c-0.1-0.1-0.3-0.2-0.5-0.3c-1.6-0.1-3.2-0.1-4.7-0.2
		c-3.4,0.8-5.8,2.8-7.2,6c-3.8,8.7-1.2,14.3,7.7,16.8c1.3-0.5,2.7-0.8,4.2-1.3c0.8-0.2,1.5-0.7,2-1.3c0.7,0.9,1.7,1.6,2.9,2
		c1.9,0.7,3.7,0.6,5.5-0.2c6.5-2.9,8.4-7.8,5.6-14.7c-0.9-1.2-1.9-2.3-3-3.4C45.8,23.6,42.1,22.9,38,24.4z M38.3,27.2
		c0.5,0,0.9-0.3,1.2-0.8c0.2-0.3,0.5-0.7,0.9-0.9c3-0.2,5.6,0.7,7.9,2.6c0.2,0.3,0.4,0.5,0.6,0.8c4,5.7,3.4,10.6-1.9,14.6
		c-3.4,0.8-6.3,0.1-8.7-2.4c-3.4,2.8-7,3.3-10.8,1.4c-0.8-0.4-1.3-0.9-1.6-1.5c-3.6-7.5-1.7-13.1,5.9-16.8c2.2-0.6,4-0.2,5.6,1.3
		c0,0.4,0.1,0.7,0.2,1C37.8,26.8,38,27,38.3,27.2z"/>
	<path style="fill:#3172A1;" d="M43.9,34.5c0-0.1,0-0.2,0.1-0.4c0-1-0.7-1.3-2-0.8c-0.3,0-0.5,0.2-0.4,0.7
		C42,35.6,42.7,35.8,43.9,34.5z"/>
	<path style="fill:#3172A1;" d="M32.6,34.6c0.7,1.6,1.5,1.7,2.5,0.3c0-0.1,0-0.2,0-0.4c-0.1-0.9-0.8-1.2-2.1-0.9
		C32.6,33.8,32.4,34.1,32.6,34.6z"/>
	<path style="fill:#3172A1;" d="M39.1,53.4c0.1-0.5,0-0.9-0.3-1.1c-0.1,0-0.2,0-0.3,0c-0.7,0.3-1.4,0.9-1.9,1.8c0,0.2,0,0.3,0,0.4
		c0,0.9,0,1.8,0,2.6c1.3,1.1,2.5,1.1,3.4,0c0-0.1,0-0.2,0-0.3c-0.1-1.1-0.4-2.1-1-3C39,53.6,39,53.5,39.1,53.4z"/>
	<path style="fill:#3172A1;" d="M36.3,60.1c0.9,0.1,1.8,0.1,2.7-0.1c1.9-0.3,2.9-1.2,2.8-2.6c-1.5,0.9-3.1,1.5-4.9,1.6
		c-0.8-1-1.6-1.2-2.4-0.7C35,59,35.6,59.6,36.3,60.1z"/>
	<path style="fill:#009659;" d="M46.2,18.5L46.2,18.5h-0.3H46.2z"/>
	<path d="M45.9,18.5c0,0.1,0.1,0.3,0.1,0.5c0.1-0.2,0.1-0.3,0.2-0.5H45.9z"/>
	<path d="M61.7,28.8l0.2-0.2c-0.5-0.4-0.9-0.8-1.4-1.2C60.9,27.8,61.3,28.3,61.7,28.8z"/>
	<path d="M28.6,19.3L28.6,19.3v-0.1V19.3z"/>
	<path style="fill:#3172A1;" d="M80.5,74.9V75c-3.1,0.5-5.8,1.7-8.2,3.4c0.2,0.1,0.4,0.1,0.6,0c2.9-1.1,5.9-2.1,8.9-3
		c-0.1-0.1-0.2-0.1-0.2-0.2C81.2,75.1,80.9,75,80.5,74.9z"/>
</g>
</svg>
