<?xml version="1.0" encoding="iso-8859-1"?>
<!-- Generator: Adobe Illustrator 12.0.1, SVG Export Plug-In . SVG Version: 6.00 Build 51448)  -->
<!DOCTYPE svg PUBLIC "-//W3C//DTD SVG 1.1//EN" "http://www.w3.org/Graphics/SVG/1.1/DTD/svg11.dtd" [
	<!ENTITY ns_svg "http://www.w3.org/2000/svg">
	<!ENTITY ns_xlink "http://www.w3.org/1999/xlink">
]>
<svg  version="1.1" id="Layer_1" xmlns="&ns_svg;" xmlns:xlink="&ns_xlink;" width="97.726" height="91.467"
	 viewBox="0 0 97.726 91.467" style="overflow:visible;enable-background:new 0 0 97.726 91.467;" xml:space="preserve">
<g>
	<path style="fill:#BE3689;" d="M83.726,48.586c-0.1-0.2-0.2-0.2-0.4-0.3c-2.3-0.3-4.6-0.6-6.9-0.9c-0.1,0-0.2,0-0.2,0.1
		c-0.1-0.1-0.1-0.2-0.1-0.2c-0.1,0-0.2,0.1-0.3,0.1c-0.2,0.1-0.2,0.2-0.3,0.3c-1.5-3.5-4.1-6.6-7.9-9.4c-0.2-0.2-0.4-0.5-0.6-0.8
		c1.3-1,2.8-0.9,4.5,0.3c0.6,0.5,1.1,0.4,1.6-0.2c-0.2-0.9-0.7-1.6-1.4-2.4c-0.2-0.3-0.4-0.6-0.6-1c0-0.4,0-0.8,0.1-1.1
		c0.1-0.2,0.2-0.2,0.3-0.3c1.1-0.3,2.1-0.6,3.1-0.8c0.1,0.1,0.2,0.3,0.4,0.4c0,0.4,0,0.8,0,1.2c0,0.2,0,0.5-0.1,0.7
		c-0.1,0.8,0.1,1.4,0.5,1.9c5.9,1.4,9.2-0.6,9.8-6c-1.8-1.1-3.9-1.8-6.2-2c-0.3-0.3-0.7-0.6-1.1-1h-0.2c-0.4-0.4-0.8-0.6-1.3-0.8
		c-0.4,0-0.6,0-0.8,0c-1.9-1.8-4.6-2.6-8-2.5c-0.4,0.3-0.9,0.4-1.5,0.4c-0.3,0-0.5,0.1-0.7,0.1c-0.2-1.5-0.5-3-1.2-4.5
		c-0.1-0.1-0.2-0.1-0.4-0.2c-0.9-0.1-1.8-0.2-2.7-0.3c-4.2,0.5-7.4,2.5-9.3,5.9c-0.1,0-0.1-0.1-0.1-0.1c0-0.5,0.2-0.8,0.5-1.1
		c0-0.4,0-0.8,0-1.2c0-0.5,0-1,0-1.5c0.2-0.2,0.3-0.5,0.5-0.7c1.1-2.3,2.6-4.3,4.7-6c0.2-0.1,0.4-0.1,0.5-0.1c2.4,1.3,5,1.6,7.8,0.8
		c0.2-0.2,0.4-0.5,0.4-0.7c0.8-4-0.3-7.2-3.2-9.8c-0.5,0-0.9,0-1.3-0.1c0,0.1,0,0.1,0,0.1c-2.1,1.3-3.5,2.8-4.2,4.5
		c-0.4,0-0.5,0-0.5,0.3c0.1,0.2,0.1,0.4,0.2,0.6c-0.1,0.1-0.1,0.2-0.1,0.3c-0.3-0.1-0.6-0.1-0.9-0.2c-1.5,0.9-2.9,2.1-4.3,3.5
		c-1.9,2.1-3,4.2-3.4,6.3c-0.7-3.1-2.3-5.9-4.8-8.4c0.1-0.4,0.2-0.9,0.2-1.4c5.1-1.5,9.3-4.3,12.6-8.3c-0.1-0.2-0.2-0.3-0.2-0.3
		c-2.2-1.6-4.7-2.1-7.6-1.6c-5.5,0-11.1,0.8-16.6,2.2c-6.2,1.5-9.4,4.7-9.6,9.4c3.6,0.4,7.3,0.5,11,0.3c-0.1,0.9,0.1,2,0.5,3.2
		c2,0.9,4,0.9,6,0.1c0.5,0.4,1,0.8,1.5,1.2c0-0.2-0.1-0.3-0.1-0.4c-0.1,0-0.1,0-0.1-0.1c2.4,2.2,3.9,4.7,4.6,7.7c0,0-0.1,0-0.2,0
		c0,0.1,0,0.1-0.1,0.2c-2.9-3.1-6.5-4.6-10.9-4.6c-1,1.4-1.7,3-1.9,4.9c-2-1.4-4.5-1.3-7.5,0.4c-0.2-0.1-0.4-0.1-0.6-0.1
		c-0.1,0-0.2,0.1-0.3,0.2c-0.2,0-0.4,0-0.6,0c0,0,0,0-0.1-0.1c-1.4-0.8-2.9-1.2-4.5-1.3c-0.6,0.2-0.9,0.7-0.8,1.6
		c0,1.5,0.2,2.9,0.6,4.4c0.3,1.7,1.1,3.2,2.2,4.5c0.3,0.2,0.5,0.3,0.7,0.5c1.7,1.1,3.3,1.1,4.8,0c0.1-0.2,0.1-0.5,0.1-0.7
		c0-0.8,0.1-1.5,0.4-2.1c0,0,0-0.2,0.1-0.2c0.1,0.1,0.3,0.2,0.4,0.3c0,0.4,0,0.8,0,1.1c0,0.4,0,0.8,0,1.1c0,0,0,0,0,0.1
		c-0.2,0.1-0.3,0.2-0.5,0.3c-0.9,0.8-1.3,1.7-1.2,2.6c1.6-0.2,3.1-0.3,4.4-0.3c-0.4,0.5-0.9,0.9-1.3,1.5l0,0c-0.4,0.5-0.8,1-1.1,1.5
		c-2.8,3-4.9,6.4-6.3,10.4c-0.3,0-0.5,0-0.7,0.1c-0.2-0.2-0.3-0.3-0.4-0.4c0,0.1,0,0.2,0,0.4c-1.6,0-3.2-0.2-4.9-0.7
		c-0.9,0.4-1.8,1.1-2.4,2c-3.6,5.2-8,9.3-13.2,12.4c0,0.2,0,0.3,0,0.4c-0.1,0.5,0.1,0.9,0.5,1.2c0.2,0.2,0.5,0.4,0.7,0.7
		c3.4-0.3,6-0.5,7.8-0.5c-0.3,1.9,0.9,2.4,3.4,1.5c1.7-1.8,3.8-2.7,6.2-2.6c0.7-0.7,1.1-1.4,1.5-2.1c0.8,4.4,3.5,8,8.1,10.7
		c2.6,1.5,5.3,2.8,8,3.7c-0.1,0.1-0.2,0.2-0.2,0.3c0.1-0.1,0.2-0.1,0.4-0.1c0.1,0,0.1-0.1,0.2-0.1c0.3,0,0.6,0,0.9,0
		c0.8,0.5,1.8,0.8,2.9,1c0.7,0.3,1.3,0.6,2,0.9c1.1,0.9,2.1,2,3,3.4c-0.1,0.1-0.2,0.2-0.3,0.4c-0.6,0.9-1,1.9-1.2,3
		c0,0.9,0.4,1.7,1.2,2.2c6.2-0.5,12.2-0.9,18-1.1c0,0.1,0.2,0.2,0.3,0.4c0.5,0.8,0.8,1.7,1.1,2.6c0.5,0.6,1.1,1.1,1.7,1.5
		c3.3,0.7,5.6,0.1,7-1.9c-1.3,0-2.6-0.3-3.8-0.7c0-0.3,0-0.5-0.1-0.8c-0.2-1.3,0-2.6,0.6-3.7c-0.1-0.2-0.2-0.3-0.3-0.4
		c-0.2-0.4-0.4-0.9-0.4-1.5c-0.6-0.8-1.3-1.5-2-2.3c-3,0-4.8-0.7-5.3-2.1c0.1-0.1,0.2-0.2,0.4-0.3c5.7-2.1,9.7-5.7,12.1-10.8
		c-0.1,0-0.1,0-0.1,0c0.3-0.7,0.7-1.6,1-2.4c0.3-1,0.6-2.1,0.9-3.1c0,0.1,0.1,0.3,0.3,0.3c0.1,0.1,0.2,0.2,0.4,0.3
		c0.1,0.2,0.2,0.3,0.3,0.4c0.4,0,0.8,0,1.1-0.1c0.2,0,0.4,0,0.5,0c0.2,0,0.3,0.1,0.4,0.2c0.2,0.5,0.4,0.9,0.8,1.2
		c0.1,0.1,0.2,0.2,0.4,0.3c0.1,0.2,0.2,0.3,0.3,0.4c0.5,0,1,0.1,1.4,0.1c0.1,0,0.2-0.1,0.4-0.1c0.1-0.1,0.2-0.2,0.2-0.2
		c0.2-0.7,0.2-1.3,0.2-1.9c0-0.1,0-0.3,0-0.4s0-0.2,0.1-0.2c1,1.1,2.2,2.1,3.5,3c0.2,0.1,0.4,0.2,0.6,0.3c0.2,0.2,0.4,0.3,0.6,0.4
		c0.9,0,1.8-0.1,2.6-0.2c0.2,0,0.3,0,0.4-0.2c0-0.1,0.1-0.2,0.2-0.3c-0.1-0.8-0.5-1.5-1.2-2c-0.2,0-0.2-0.2-0.3-0.3
		c0-0.1,0-0.2,0.1-0.2c1.2,1.2,2.7,2,4.5,2.4c0.7,0.1,1.4,0.3,2.1,0.4c0.5,0,0.8-0.1,1.1-0.4c0.1-0.2,0.2-0.4,0.4-0.5
		c0-0.1,0.1-0.2,0.1-0.3c-0.3-1.9-1.4-3.4-3.2-4.5C90.226,56.186,86.625,52.686,83.726,48.586z M82.925,32.586
		c-0.6,0.7-1.2,1.3-1.8,2c-1.6,0.6-3.2,0.8-4.9,0.3c0-0.2,0-0.5,0-0.7c0-0.3,0-0.5,0-0.8c0-0.3,0-0.7,0-1c0.2,0.4,0.9,0.7,2.2,0.7
		c-0.1-0.2-0.2-0.3-0.3-0.4c-0.3-0.6-0.7-1.1-1.2-1.5c-0.1,0-0.2,0-0.2,0.1c-0.3,0.3-0.4,0.4-0.5,0.6c0-0.1,0-0.2,0-0.3
		c-3.2-3.5-6.9-4.5-11.1-3.3c0.2-0.9,0.3-1.7,0.3-2.6c4-0.5,7.7,0.4,11.1,2.7c0.2,0.4,0.5,0.8,0.7,1.3c0.4-0.1,0.8-0.1,1.1,0
		c0.5,0.5,1.1,0.9,1.8,0.9c0-0.2,0-0.3,0-0.4c-0.1-0.1-0.1-0.2-0.2-0.4c1.5,0.3,2.8,0.8,3.7,1.8c-0.1,0.1-0.2,0.2-0.2,0.4
		C83.226,32.186,83.125,32.386,82.925,32.586z M80.625,56.086c-0.1,0.2-0.1,0.5-0.2,0.7c-0.2,1.5,0,2.9,0.4,4.2
		c0.1,0.1,0.1,0.2,0,0.3c0,0.1,0,0.2-0.1,0.3c0-0.1-0.1-0.1-0.1-0.1c-0.8-1.7-1.4-3.3-1.7-4.9c0-0.2,0-0.3-0.1-0.4
		c0-0.1,0-0.2-0.1-0.4c-0.3-0.1-0.7-0.1-1.1-0.1c-0.1,0.1-0.2,0.1-0.3,0.2c-0.1-0.1-0.2-0.1-0.4-0.2c0.1-2.5-0.3-4.8-1.1-7.1
		c0.1,0,0.2-0.1,0.4-0.1c1.6,1.5,3.8,1.8,6.5,0.8c1.2,1.2,2.3,2.4,3.2,3.7c3,3.6,6.3,6.9,10,9.7c-1.2,0.6-2.5,0.1-4.2-1.5
		c-2.6-2.6-5.1-4.2-7.3-4.6c0.3,2.1,1.3,4,2.8,5.6c0.4,0.3,0.7,0.6,1,1c-2.3-0.7-4-2.1-5.1-4.1c-0.4-0.8-0.6-1.6-0.7-2.4
		c-0.2-0.3-0.4-0.5-0.6-0.6c-0.2-0.2-0.4-0.2-0.7-0.2C81.025,55.886,80.825,55.986,80.625,56.086z M62.025,6.686
		c0.5,0.2,0.9,0.6,1.2,1c1.3,1.7,1.9,3.7,1.7,6c-1.5,0-2.8,0-4.1,0c0.4-0.2,0.8-0.5,1.2-0.8c-0.1-0.1-0.2-0.2-0.3-0.2
		c-0.5-0.3-1-0.5-1.6-0.6c-0.2,0.1-0.6,0.3-1,0.4c-0.7,0.1-1.2,0.3-1.6,0.7c-0.1,0-0.1,0-0.2,0c-0.1,0.2-0.3,0.3-0.5,0.4
		c-0.1,0-0.2,0-0.3,0c0,0,0.1,0.1,0.2,0.1c-3.7,2.6-5.7,6.1-6.2,10.5c0,0.1,0,0.2,0.1,0.3c-0.5-0.3-1-0.4-1.5-0.5
		c0.2-0.6,0.3-1.2,0.5-1.9c0.9-4.4,3.2-7.6,6.8-9.6c0.3,0,0.5-0.1,0.8-0.2c0.3,0.1,0.5,0,0.8-0.2c1.9-0.6,2.6-1.5,2.1-2.5
		c-0.2,0.2-0.5,0.3-1,0.3l0,0C59.825,8.686,60.825,7.586,62.025,6.686z M41.426,7.286c0.1,0.4,0.3,0.7,0.4,1c-1.9,0.6-3.9,1-5.9,1.3
		C36.926,7.986,38.726,7.286,41.426,7.286z M41.926,5.386c-0.8,0-1.5,0-2.3-0.1c-0.2,0.1-0.4,0.2-0.8,0.3c-2.7,1-4.4,2.4-5.1,4.3
		c-3.3,0.4-6.7,0.5-10.1,0.2c0.1-0.2,0.2-0.3,0.3-0.4c5.8-4.8,12.7-7.4,20.7-7.6c0.1-0.1,0.1-0.1,0.1-0.1c3.4-0.2,6.5,0.2,9.4,1.1
		c-3.5,2-7.1,3.6-10.7,4.8C43.125,6.886,42.625,6.086,41.926,5.386z M39.926,14.186L39.926,14.186c-0.1-0.1-0.2-0.2-0.2-0.2
		c-0.1,0-0.1,0-0.2-0.1c-0.7-0.5-1.5-0.8-2.4-1.1l-0.1,0.1c0.3,0.3,0.6,0.6,1,0.9c-0.2,0.1-0.2,0.3-0.2,0.4c0.1,0.1,0.1,0.2,0.1,0.2
		c-0.9-0.2-1.9-0.3-2.9-0.5c-0.1-0.7,0-1.4,0.1-2c1.3-0.1,2.7-0.3,4.1-0.5c0.7-0.1,1.3-0.2,2-0.3c0.1,0.6,0.5,1.3,1,1.9
		c0.2,0.4,0.5,0.8,0.8,1.2c2.6,2.9,4.3,6.1,5,9.6c-0.5-0.1-1-0.1-1.6-0.1C46.226,19.386,44.025,16.186,39.926,14.186z
		 M42.226,11.386c-0.2-0.2-0.4-0.3-0.6-0.4c0.3-0.1,0.5-0.1,0.8-0.2C42.325,10.986,42.226,11.186,42.226,11.386z M56.825,28.286
		c-0.8-0.1-1.4-0.5-1.9-1.1c-0.5,0-0.9,0-1.3-0.1c1.6-0.6,3.2-1,4.8-1.2c-0.1-0.1-0.2-0.2-0.3-0.2c-0.7-0.3-1.3-0.5-2-0.6
		c-0.1,0-0.3,0.1-0.5,0.1c-1.6,0.1-2.8,0.7-3.4,1.9c0,0,0,0-0.1,0c0,0-0.1,0-0.2,0.1c-0.1-0.4-0.1-0.8-0.1-1.2c0.1,0,0.1,0,0.1-0.1
		c-0.1,0-0.1,0-0.1,0c0-0.1,0-0.2,0-0.3c3.3-2.7,7.2-4.1,11.7-4.3c0.1,0.8,0.2,1.5,0.3,2.3c0.2,3-0.4,5.7-1.8,8.2
		c-0.4,0.3-0.8,0.5-1.1,0.8c-0.2,0.1-0.3,0.2-0.4,0.4c-0.8,0.1-1.6,0.3-2.4,0.7c-0.3-0.1-0.6-0.2-0.9-0.4c-2.1-0.9-3.9-2.3-5.3-4.1
		c-0.1,0-0.1,0-0.1,0c0-0.5,0-0.9,0-1.4c0.8,0.2,1.6,0.3,2.3,0.4c0.6,0.5,1.2,1,1.8,1.4c0.8,0.5,1.5,0.5,2.1-0.2
		C58.125,28.786,57.726,28.386,56.825,28.286z M50.426,27.586c0.1,0.5,0,1-0.3,1.5c-0.1,0.1-0.2,0.2-0.2,0.3v0.1
		c-1-0.1-1.9-0.2-2.9-0.2c-0.1,0-0.4-0.1-0.6-0.2v-0.2c0-0.3,0-0.7,0-1.1c0-0.5,0-1,0-1.5c0-0.1,0-0.2,0-0.4c0.3-1,1.1-1.1,2.4-0.3
		c0.5,0.3,1,0.6,1.6,0.8C50.426,26.786,50.426,27.186,50.426,27.586z M52.226,31.386v-0.1c1.5,2.3,3.9,3.8,7.3,4.4
		c0.1-0.1,0.2-0.2,0.3-0.2c0.2-0.2,0.4-0.3,0.5-0.4c0.6,0.4,1.1,0.7,1.6,1.1c-0.3-0.1-0.5-0.1-0.8-0.1c3,1.7,6,4,8.9,6.9
		c4.3,4.3,6.1,9.2,5.3,14.8c-0.7,5.4-3.7,10.3-8.8,14.7c0.1,0.1,0.3,0.2,0.5,0.3c-1.6,1.1-3.4,2-5.3,2.6c-0.6,0.7-1.3,1.3-2,1.9
		c0,0.3,0,0.5,0,0.8c-0.2,0.8,0,1.6,0.4,2.2c1.8,0.7,3.8,1.2,5.9,1.4c0.8,0.6,1.5,1.4,1.9,2.2c0,0.2-0.1,0.3-0.1,0.4
		c-0.3,0.6-0.4,1.2-0.4,1.9c0,0.2,0.1,0.5,0.2,0.7c0.5,1.5,0.5,2.4-0.4,2.5c-0.9-1.6-2.1-3.1-3.3-4.5c-6.3,0.3-12.4,0.6-18.2,0.9
		c0-0.5,0.1-1.1,0.3-1.6c0.3-0.6,0.3-1.1,0.2-1.6c-1.4-4.7-4.2-7.1-8.5-7.2c-0.5-0.1-0.9-0.2-1.3-0.2c-0.2,0-0.3,0-0.4,0
		c-5.9-2.1-10.7-5.4-14.2-10.1c-0.6-1.7-0.8-3.5-0.7-5.4c0.1-0.4,0.1-0.8,0.1-1.2c0,0,0,0,0-0.1c0,0,0,0,0-0.1c0,0,0-0.1,0.1-0.2
		c0,0,0-0.1,0.1-0.2c0.5-0.7,0.5-1.4,0.2-2c1.4-8,5-14.3,10.9-19.1h0.1c0,0,0,0-0.1,0c0.1-0.1,0.2-0.2,0.2-0.2
		c1.3-0.7,2.5-1.3,3.8-1.9c1,0.9,2.3,1.4,4,1.5c0.1-0.1,0.2-0.1,0.3-0.2c3-0.9,4.9-2.4,5.7-4.3c2-0.4,4-0.5,5.9-0.1
		C52.325,31.586,52.325,31.486,52.226,31.386z M44.726,28.286c0.1,0.4,0.1,0.8,0.2,1.1c-0.1,0-0.2,0-0.3,0c-0.1,0.1-0.2,0.1-0.2,0.2
		c0.2,0,0.4,0.1,0.6,0.2c0.1,0.4,0.2,0.8,0.2,1.1c0,0.2,0,0.3,0,0.4c-1.7,1.4-3.7,2.3-5.8,2.9c-1-0.5-1.9-1.1-2.7-1.9
		c-0.1,0-0.2,0-0.3,0c-0.1-0.1-0.2-0.1-0.3-0.2c-0.1,0-0.2-0.1-0.4-0.3c-1.1-1.9-1.6-4-1.5-6.4c0-1.4,0.4-2.8,0.9-4.1
		c0.1-0.1,0.1-0.2,0.1-0.2c0.8-0.1,1.5-0.2,2.3-0.3c1.4,0.7,2.7,1.5,4,2.5c1.3,1,2.5,1.6,3.5,1.6c-0.2,0.5-0.3,1.2-0.4,1.8
		c-1.7-1.5-3.9-2-6.5-1.6l-0.3,0.1c1.8,0.6,3.6,1.2,5.5,1.8c-0.3-0.1-0.7,0-1.2,0.1c-0.7,0.3-1.4,0.8-2.1,1.3
		c-0.1,0.2-0.2,0.3-0.3,0.5l0.1,0.2C41.525,28.386,43.226,28.086,44.726,28.286z M71.625,31.086L71.625,31.086
		c-0.2,0.1-0.3,0.2-0.5,0.3c-0.2,0.2-0.5,0.4-0.6,0.7c-0.2,0.1-0.3,0.2-0.4,0.3c0,0.7,0,1.3,0,1.9c0,0.1,0,0.1,0,0.1
		c-1.8-1.4-3.8-2.5-6.1-3c0-0.1,0-0.1,0-0.1c0.5-0.9,0.8-1.9,1.1-2.8c3.3-0.3,6.2,0.6,8.7,2.7
		C73.025,31.086,72.325,31.086,71.625,31.086z M70.226,34.986c0.1,0.2,0.1,0.3,0.2,0.4c0,0.2,0.1,0.3,0.2,0.4c-0.3,0.1-0.6,0.1-1,0
		c-0.6-0.1-1.3-0.1-2-0.2c-0.3,0-0.5,0-0.7,0.1c-0.4,0.2-0.7,0.6-0.9,0.9c-1.1-1.1-2.4-2.1-3.7-3c0.1,0,0.2-0.1,0.3-0.2
		c0.5-0.5,0.9-1,1.2-1.6C65.825,33.086,67.926,34.186,70.226,34.986z M39.025,14.686c0.1,0,0.1,0,0.1,0H39.025L39.025,14.686z
		 M32.226,29.086c0.2,0,0.4,0,0.5,0c0.5,1.8,1.4,3.1,2.7,3.9c-0.7,0.3-1.3,0.7-2,1.2c-0.8,0.5-1.5,1-2.2,1.6c-0.8-0.6-1.7-1-2.6-1.2
		c0,0,0-0.1,0-0.2c0.3-0.1,0.5-0.3,0.7-0.5c1.2-1.3,2.8-2,4.6-2.2c-0.1-0.1-0.2-0.1-0.2-0.2c-0.8-0.2-1.7-0.3-2.6-0.3
		c-0.9,0.4-1.7,0.9-2.5,1.6c0-0.6,0-1.1,0-1.6c0-0.1-0.1-0.2-0.2-0.3c-0.4-0.2-0.7-0.4-1.1-0.7c0-0.4,0-0.6-0.1-1
		c0.2-0.1,0.3-0.2,0.4-0.3c1.2-0.8,2.5-1,3.9-0.6c0,0.1,0.1,0.1,0.1,0.1c0.1,0.2,0.1,0.2,0.3,0.3
		C32.025,28.786,32.125,28.886,32.226,29.086z M32.426,27.086c-0.8-0.1-1.5-0.2-2.1-0.4c-0.4,0-0.8-0.1-1.2-0.3
		c-0.7,0.2-1.5,0.5-2.1,0.9c-0.1-0.1-0.2-0.2-0.4-0.2s-0.4,0.1-0.5,0.3c-1,0.7-1.6,1.7-2,2.7c0.6,0.2,1.1,0.2,1.7,0
		c0,0.1,0,0.2,0,0.3c-0.1,0-0.1,0.2-0.1,0.2h0.1c-0.1,0.4-0.2,0.8-0.2,1.1c-0.1,0.5-0.1,1-0.1,1.5c-0.4,0.1-0.8,0.2-1.2,0.1
		c-2.2-0.5-3.6-1.8-4.2-3.9c-0.4-1.4-0.5-2.9-0.4-4.6c0.6,0.2,1.2,0.4,1.7,0.7c0.3,0.2,0.7,0.4,1.1,0.6c-0.2,0.2-0.2,0.5-0.1,0.8
		c0.3,0,0.7-0.1,0.9-0.2s0.4-0.2,0.5-0.3c0.4,0.1,0.7,0.2,1.1,0.2c2.4-1.4,5-2,7.7-1.8c0,0.5-0.1,0.9-0.1,1.4c0,0.4,0,0.7,0.1,1
		C32.525,27.186,32.426,27.086,32.426,27.086z M20.325,50.686L20.325,50.686c0,0.2-0.1,0.4-0.1,0.5c0.2,0.1,0.5,0.2,0.9,0.3
		c-0.2,0.5-0.3,1-0.5,1.5c-0.3,1.2-0.5,2.3-0.6,3.4c-0.2,0.3-0.3,0.5-0.3,0.8c-0.1,0.3-0.2,0.6-0.4,0.9c-0.1,0.5-0.3,1.1-0.6,1.6
		c0-0.2-0.1-0.5-0.3-0.8c-0.8,0-1.4,0.4-1.6,1.1c-0.8,2.6-2.6,4.5-5.2,5.7c-0.4-0.1-0.9-0.2-1.4-0.4c0.6-0.6,1.3-1.3,1.9-1.8
		c1.7-1.6,2.6-3.3,2.8-4.9c-0.3-0.1-0.5,0-0.5,0.1c-3.5,4.1-7.7,6-12.8,5.6c3.7-1.7,6.8-4.3,9.4-7.6c0.7-1,1.5-1.8,2.4-2.4
		C15.525,52.586,17.825,51.386,20.325,50.686z M18.325,61.186c0.2-0.2,0.3-0.5,0.4-0.7c0.2,0,0.5,0,0.7-0.1c-0.4,0.6-0.8,1.1-1,1.8
		c-0.3,0.6-0.6,0.9-1.2,0.9C17.525,62.486,17.825,61.786,18.325,61.186z M77.226,58.186c0,0.1,0.1,0.2,0.1,0.4
		c0.1,0.1,0.1,0.2,0.1,0.3c-0.3-0.1-0.5-0.1-0.7-0.1c0-0.3,0.1-0.7,0.1-1.1c0.1,0.1,0.1,0.1,0.2,0.2
		C77.025,57.986,77.125,58.086,77.226,58.186z"/>
	<path style="fill:#BE3689;" d="M78.025,53.486c0-0.3,0-0.6,0-0.8l-0.1,0.1C77.926,53.086,77.926,53.286,78.025,53.486z"/>
	<path style="fill:#BE3689;" d="M48.226,42.286c-2.1-1.9-4.3-2.6-6.5-2.1c-0.4-0.3-1.1-0.5-2-0.6c0-0.2,0-0.3,0-0.4
		c0.2-0.7,0.1-1.2-0.3-1.5c-0.4-0.1-0.6,0-0.7,0.3c-0.2,0.9-0.1,1.8,0.3,2.6c0.2,0.1,0.4,0.3,0.6,0.4c-0.3,0.2-0.6,0.4-1,0.7
		c-0.6-0.3-1.4-0.5-2-0.9c0-0.1,0-0.2,0-0.4c0.1-0.4-0.1-0.7-0.4-1.1c-0.1,0.1-0.2,0.1-0.3,0.2c-0.4,0.8-0.4,1.5,0.1,2.2
		c0.4,0.4,0.9,0.8,1.4,0.9c-0.2,0.1-0.2,0.2-0.4,0.4c-1,0-1.9-0.5-2.6-1.3c-0.5-0.2-0.7,0-0.7,0.4c0,0.9,0.5,1.5,1.5,1.8
		c0.3,0.1,0.5,0.1,0.7,0.2c-4.5,4.7-4.4,9.6,0.3,14.5c4.8,1.3,8.9,0.5,12.5-2.4c2.6,2.2,5.6,2.7,9.1,1.4c5.4-2,7.2-5.7,5.4-10.9
		c-0.1-0.1-0.2-0.3-0.3-0.4c-0.8-1.5-1.8-2.8-3-3.7c0.2-0.1,0.4-0.2,0.6-0.3c0.1-0.1,0.2-0.2,0.4-0.4c0.9-0.8,1-1.7,0.3-2.6l0,0
		c-0.7,1.1-1.6,1.8-2.7,2.2c-0.4-0.2-0.8-0.4-1.1-0.6c0.4-0.4,0.8-0.9,1.2-1.3c0-0.2,0-0.3,0-0.4c0.1-0.7,0-1.3-0.4-1.9h-0.2
		c-0.2,1.8-1.1,2.8-2.4,3c-0.1,0-0.1,0-0.1,0c0-0.1,0-0.2,0.1-0.2c0.5-1.2,0.6-2.3,0.3-3.4c-0.9,0.5-1.4,1.6-1.8,3.2c0,0,0,0,0,0.1
		c-1-0.2-1.9-0.2-3-0.2c-0.2,0.2-0.6,0.3-1,0.5c-0.8,0.4-1.3,1-1.7,1.9C48.426,42.186,48.325,42.286,48.226,42.286z M44.625,41.686
		c1.7,1.3,3.2,2.4,4.5,3.2c0.5-0.4,0.8-0.9,0.9-1.4c0.2-0.6,0.4-1.1,0.7-1.6c4.9-0.6,8.5,1.2,10.9,5.7c0.2,0.6,0.3,1.3,0.4,1.9
		c0.5,3-0.7,5.2-3.6,6.7c-3.9,1.2-7.1,0.5-9.7-2.3c-0.1,0-0.1,0-0.2,0c-6.8,5.8-11.8,5.1-14.8-2c0-0.1,0-0.2,0-0.3
		c0.8-4.8,3.6-8.2,8.4-10.2c0.6,0,1.2,0,1.9-0.1C44.226,41.486,44.426,41.586,44.625,41.686z"/>
	<path style="fill:#BE3689;" d="M53.426,49.686c-0.1-0.1-0.2-0.2-0.3-0.4c-0.4-0.7-1.1-1-2-0.9c-0.3,0.2-0.6,0.4-0.9,0.9
		c-0.2,0.3-0.3,0.6-0.2,1c0.6,1.2,1.6,1.6,3,1.1c0.2-0.3,0.3-0.6,0.4-1C53.525,50.186,53.426,49.886,53.426,49.686z"/>
	<path style="fill:#BE3689;" d="M44.025,50.886c0.6,1.5,1.6,1.8,3.1,0.9c0.2-0.3,0.2-0.7,0.2-1.1c-0.1-0.3-0.1-0.5-0.1-0.8
		c-0.1-0.1-0.2-0.2-0.4-0.2c-0.5-0.2-1.1-0.4-1.7-0.5c-0.3,0.1-0.6,0.4-0.9,0.8C44.125,50.186,44.025,50.586,44.025,50.886z"/>
	<path style="fill:#BE3689;" d="M61.025,65.786c0.1,0.2,0.2,0.3,0.4,0.4c0.1,0.1,0.2,0.3,0.3,0.4c1.1,0.2,1.6,0,1.4-0.8
		c-0.1-0.1-0.2-0.2-0.3-0.3c-0.5-0.6-1-0.9-1.7-1c-1.6-0.6-3-0.4-4.1,0.6c-0.9,0.9-1.8,1.6-2.8,2.3c-1.4,1.2-2.7,2.1-3.8,2.9
		c1,0.5,1.9,0.3,2.8-0.5c1.5-1.5,3.1-2.8,4.8-4C59.025,65.786,60.025,65.786,61.025,65.786z"/>
	<path style="fill:#BE3689;" d="M58.726,67.286c-0.1,0-0.2,0.1-0.3,0.1c-1.1,1-2.4,1.9-3.8,2.7c0.5,0.1,1,0.3,1.5,0.5
		c0.1-0.1,0.3-0.2,0.4-0.2C58.325,69.686,59.025,68.686,58.726,67.286z"/>
	<path style="fill:#BE3689;" d="M77.025,42.586c0,0,0,0.1,0.1,0.1c0,0,0.1-0.1,0.1-0.2C77.125,42.486,77.025,42.486,77.025,42.586z"
		/>
</g>
</svg>
