<?xml version="1.0" encoding="iso-8859-1"?>
<!-- Generator: Adobe Illustrator 12.0.1, SVG Export Plug-In . SVG Version: 6.00 Build 51448)  -->
<!DOCTYPE svg PUBLIC "-//W3C//DTD SVG 1.1//EN" "http://www.w3.org/Graphics/SVG/1.1/DTD/svg11.dtd" [
	<!ENTITY ns_svg "http://www.w3.org/2000/svg">
	<!ENTITY ns_xlink "http://www.w3.org/1999/xlink">
]>
<svg  version="1.1" id="Layer_1" xmlns="&ns_svg;" xmlns:xlink="&ns_xlink;" width="99.6" height="91.467"
	 viewBox="0 0 99.6 91.467" style="overflow:visible;enable-background:new 0 0 99.6 91.467;" xml:space="preserve">
<g>
	<path style="fill:#BE3689;" d="M81.8,36.386c1-0.2,1.9-0.6,2.6-1.3c1.1-1,1.8-2.7,2-4.9c-1.8-1.1-3.9-1.8-6.2-2
		c-0.3-0.3-0.7-0.6-1.1-1h-0.2c-0.4-0.4-0.8-0.6-1.3-0.8c-0.4,0-0.6,0-0.8,0c-1.9-1.8-4.6-2.6-8-2.5c-0.4,0.3-0.9,0.4-1.5,0.4
		c-0.3,0-0.5,0.1-0.7,0.1c-0.2-1.5-0.5-3-1.2-4.5c-0.1-0.1-0.2-0.1-0.4-0.2c-0.9-0.1-1.8-0.2-2.7-0.3c-4.2,0.5-7.4,2.5-9.3,5.9
		c-0.1,0-0.1-0.1-0.1-0.1c0-0.5,0.2-0.8,0.5-1.1c0-0.4,0-0.8,0-1.2c0-0.5,0-1,0-1.5c0.2-0.2,0.3-0.5,0.5-0.7c1.1-2.3,2.6-4.3,4.7-6
		c0.2-0.1,0.4-0.1,0.5-0.1c2.4,1.3,5,1.6,7.8,0.8c0.2-0.2,0.4-0.5,0.4-0.7c0.8-4-0.3-7.2-3.2-9.8c-0.5,0-0.9,0-1.3-0.1
		c0,0.1,0,0.1,0,0.1c-2.1,1.3-3.5,2.8-4.2,4.5c-0.4,0-0.5,0-0.5,0.3c0.1,0.2,0.1,0.4,0.2,0.6c-0.1,0.1-0.1,0.2-0.1,0.3
		c-0.3-0.1-0.6-0.1-0.9-0.2c-1.5,0.9-2.9,2.1-4.3,3.5c-1.9,2.1-3,4.2-3.4,6.3c-0.7-3.1-2.3-5.9-4.8-8.4c0.1-0.4,0.2-0.9,0.2-1.4
		c5.1-1.5,9.3-4.3,12.6-8.3c-0.1-0.2-0.2-0.3-0.2-0.3c-2.2-1.6-4.7-2.1-7.6-1.6c-5.5,0-11.1,0.8-16.6,2.2c-6.2,1.5-9.4,4.7-9.6,9.4
		c3.6,0.4,7.3,0.5,11,0.3c-0.1,0.9,0.1,2,0.5,3.2c2,0.9,4,0.9,6,0.1c0.5,0.4,1,0.8,1.5,1.2c0-0.2-0.1-0.3-0.1-0.4
		c-0.1,0-0.1,0-0.1-0.1c2.4,2.2,3.9,4.7,4.6,7.7c0,0-0.1,0-0.2,0c0,0.1,0,0.1-0.1,0.2c-2.9-3.1-6.5-4.6-10.9-4.6
		c-1,1.4-1.7,3-1.9,4.9c-2-1.4-4.5-1.3-7.5,0.4c-0.2-0.1-0.4-0.1-0.6-0.1c-0.1,0-0.2,0.1-0.3,0.2c-0.2,0-0.4,0-0.6,0
		c0,0,0,0-0.1-0.1c-1.4-0.8-2.9-1.2-4.5-1.3c-0.6,0.2-0.9,0.7-0.8,1.6c0,1.5,0.2,2.9,0.6,4.4c0.3,1.7,1.1,3.2,2.2,4.5
		c0.3,0.2,0.5,0.3,0.7,0.5c1.7,1.1,3.3,1.1,4.8,0c0.1-0.2,0.1-0.5,0.1-0.7c0-0.8,0.1-1.5,0.4-2.1c0,0,0-0.2,0.1-0.2
		c0.1,0.1,0.3,0.2,0.4,0.3c0,0.4,0,0.8,0,1.1c0,0.4,0,0.7,0,1.1c0,0,0,0,0,0.1c-0.2,0.1-0.3,0.2-0.5,0.3c-0.9,0.8-1.3,1.7-1.2,2.6
		c1.6-0.2,3.1-0.3,4.4-0.3c-0.4,0.5-0.9,0.9-1.3,1.5l0,0c-0.4,0.5-0.8,1-1.1,1.5c-2.8,3-4.9,6.5-6.3,10.4c-0.1-0.1-0.1-0.2-0.2-0.3
		c-0.1-0.2-0.3-0.4-0.5-0.5c-0.1,0.1-0.2,0.2-0.3,0.3c-0.3,0.2-0.5,0.3-0.7,0.3c-0.6,0-1.1,0-1.7-0.1c0-0.1-0.2-0.2-0.2-0.3
		c-0.3-0.2-0.5-0.4-0.8-0.7c-0.3-0.2-0.6-0.5-0.8-0.8c-0.3,0-0.5,0-0.8-0.1c-5-0.7-10-1.7-15-3c-0.1,0.1-0.3,0.2-0.5,0.3
		c-0.1,0.1-0.2,0.2-0.4,0.3c-0.1,0.2-0.2,0.3-0.3,0.5c0,0.1,0,0.2,0,0.3c0.2,1.2,0.8,2.2,1.8,3c1.3,1,2.7,1.9,4.2,2.6
		c-1.6,0.8-3.2,1.6-4.8,2.4c-1.1,0.5-1.7,1.4-1.8,2.5c0.1,0.2,0.1,0.4,0.3,0.5c3.2,1.6,6.3,2.2,9.1,1.6c-0.3,0.4-0.5,0.8-0.9,1.2
		c-0.3,0.5-0.6,1-0.8,1.5c-0.1,0.5-0.2,1,0,1.5c0.9,1.2,2.3,1.4,3.9,0.5c2.2-1.2,4-1.9,5.5-2.2c0,0.3,0,0.5,0,0.8c0,0.1,0,0.2,0,0.4
		c0,0.1,0,0.2,0,0.3c0.1,0.2,0.1,0.3,0.3,0.4c1.5-0.3,2.7-1,3.7-2.1c0.5,5,3.3,9,8.3,12c2.6,1.5,5.3,2.8,8,3.7
		c-0.1,0.1-0.2,0.2-0.2,0.3c0.1-0.1,0.2-0.1,0.4-0.1c0.1,0,0.1-0.1,0.2-0.1c0.3,0,0.6,0,0.9,0c0.8,0.5,1.8,0.8,2.9,1
		c0.7,0.3,1.3,0.6,2,0.9c1.1,0.9,2.1,2,3,3.4c-0.1,0.1-0.2,0.2-0.3,0.4c-0.6,0.9-1,1.9-1.2,3c0,0.9,0.4,1.7,1.2,2.2
		c6.2-0.5,12.2-0.9,18-1.1c0,0.1,0.2,0.2,0.3,0.4c0.5,0.8,0.8,1.7,1.1,2.6c0.5,0.6,1.1,1.1,1.7,1.5c3.3,0.7,5.6,0.1,7-1.9
		c-1.3,0-2.6-0.3-3.8-0.7c0-0.3,0-0.5-0.1-0.8c-0.2-1.3,0-2.6,0.6-3.7c-0.1-0.2-0.2-0.3-0.3-0.4c-0.2-0.4-0.4-0.9-0.4-1.5
		c-0.6-0.8-1.3-1.5-2-2.3c-3,0-4.8-0.7-5.3-2.1c0.1-0.1,0.2-0.2,0.4-0.3c5.7-2.1,9.7-5.7,12.1-10.8c-0.1,0-0.1,0-0.1,0
		c0.3-0.8,0.7-1.6,1-2.4c0.7-2.3,1.3-4.5,1.5-6.6c0.5,0.4,1.1,0.8,1.8,0.9h0.1c1.3,1,2.8,2,4.4,2.9c0.7,0.1,1.3,0,1.6-0.4
		c0.1-0.1,0.2-0.3,0.3-0.4c0.4-0.5,0.4-0.9,0.1-1.4c-0.2-0.5-0.4-1-0.4-1.6c2.8,1.8,5.8,2.6,9,2.5c0.3-0.4,0.6-0.8,0.9-1.2
		c0.2-0.2,0.3-0.4,0.4-0.7c-0.1-0.2-0.2-0.5-0.3-0.7c-0.8-1.5-1.8-2.9-3-4.2c-0.3-0.1-0.7-0.2-1.1-0.4c-0.3-0.1-0.6-0.2-0.9-0.3
		c2.8,0.1,5.5-0.4,8-1.5c0.4-0.4,0.6-0.9,0.7-1.4c0-0.3,0-0.7,0-1.1c-1.5-1.5-2.8-2.5-3.9-3c0.3-0.4,0.7-0.8,1.1-1.2
		c1.3-1.4,1.7-3.2,1.1-5.2c-0.1-0.1-0.2-0.2-0.4-0.2c-0.5-0.2-1.1-0.2-1.7-0.3c-4.5,2.1-9.4,3.7-14.5,4.8c-0.1,0.1-0.2,0.2-0.4,0.3
		c-1,0.9-1.9,1.9-2.7,3c-0.1-0.3-0.3-0.6-0.4-1c-0.1,0.4-0.2,0.8-0.2,1.2c-0.2,0.1-0.4,0.2-0.6,0.3c-0.2,0.1-0.2,0.2-0.3,0.3
		c-1.5-3.5-4.1-6.6-7.9-9.4c-0.2-0.2-0.4-0.5-0.6-0.8c1.3-1,2.8-0.9,4.5,0.3c0.6,0.5,1.1,0.4,1.6-0.2c-0.2-0.9-0.7-1.6-1.4-2.4
		c-0.2-0.3-0.4-0.6-0.6-1c0-0.4,0-0.8,0.1-1.1c0.1-0.2,0.2-0.2,0.3-0.3c1.1-0.3,2.1-0.6,3.1-0.8c0.1,0.1,0.2,0.3,0.4,0.4
		c0,0.4,0,0.8,0,1.2c0,0.2,0,0.5-0.1,0.7c-0.1,0.8,0.1,1.4,0.5,1.9C78.6,36.686,80.4,36.786,81.8,36.386z M84.6,31.986
		c-0.2,0.2-0.3,0.4-0.5,0.6c-0.6,0.7-1.2,1.3-1.8,2c-1.6,0.6-3.2,0.8-4.9,0.3c0-0.2,0-0.5,0-0.7c0-0.3,0-0.5,0-0.8c0-0.3,0-0.7,0-1
		c0.2,0.4,0.9,0.6,2.2,0.7c-0.1-0.2-0.2-0.3-0.3-0.4c-0.3-0.6-0.7-1.1-1.2-1.5c-0.1,0-0.2,0-0.2,0.1c-0.3,0.3-0.4,0.4-0.5,0.6
		c0-0.1,0-0.2,0-0.3c-3.2-3.5-6.9-4.5-11.1-3.3c0.2-0.9,0.3-1.7,0.3-2.6c4-0.5,7.7,0.4,11.1,2.7c0.2,0.4,0.5,0.8,0.7,1.3
		c0.4-0.1,0.8-0.1,1.1,0c0.5,0.5,1.1,0.9,1.8,0.9c0-0.2,0-0.3,0-0.4c-0.1-0.1-0.1-0.2-0.2-0.4c1.5,0.3,2.8,0.8,3.7,1.8
		C84.7,31.686,84.6,31.786,84.6,31.986z M96.4,41.486c-0.3,1.2-1,2.2-2.1,3.1c-2.5,0.4-4.8,1.1-6.7,2c3,0.9,6.3,1.6,10,2.2
		c-3.1,1.5-6.8,2.2-11.2,2.1c2.6,2.1,5.1,4.5,7.5,7.2c-4.3-0.9-8.4-2.4-12.2-4.7c-0.3,0.3-0.3,0.6-0.1,0.9c1.4,1.6,2.3,3.2,2.7,4.8
		c-0.2-0.1-0.4-0.2-0.6-0.3c-1.4-1-2.8-1.9-4.3-2.9c-0.4-0.2-0.7-0.2-1-0.1c-0.1,0-0.2-0.1-0.3-0.1c0.1-2.4-0.3-4.7-1-6.9
		c0,0,0,0,0.1,0c1.9-0.4,3.7-1.7,5.1-3.7c5.2-1.1,9.9-2.6,14.3-4.5C96.6,40.886,96.5,41.186,96.4,41.486z M63.2,6.686
		c0.5,0.2,0.9,0.6,1.2,1c1.3,1.7,1.9,3.7,1.7,6c-1.5,0-2.8,0-4.1,0c0.4-0.2,0.8-0.5,1.2-0.8c-0.1-0.1-0.2-0.2-0.3-0.2
		c-0.5-0.3-1-0.5-1.6-0.6c-0.2,0.1-0.6,0.3-1,0.4c-0.7,0.1-1.2,0.3-1.6,0.7c-0.1,0-0.1,0-0.2,0c-0.1,0.2-0.3,0.3-0.5,0.4
		c-0.1,0-0.2,0-0.3,0c0,0,0.1,0.1,0.2,0.1c-3.7,2.6-5.7,6.1-6.2,10.5c0,0.1,0,0.2,0.1,0.3c-0.5-0.3-1-0.4-1.5-0.5
		c0.2-0.6,0.3-1.2,0.5-1.9c0.9-4.4,3.2-7.6,6.8-9.6c0.3,0,0.5-0.1,0.8-0.2c0.3,0.1,0.5,0,0.8-0.2c1.9-0.6,2.6-1.5,2.1-2.5
		c-0.2,0.2-0.5,0.3-1,0.3l0,0C61,8.686,62,7.586,63.2,6.686z M44.6,7.886c-0.3-1-0.8-1.8-1.5-2.5c-0.8,0-1.5,0-2.3-0.1
		c-0.2,0.1-0.4,0.2-0.8,0.3c-2.7,1-4.4,2.4-5.1,4.3c-3.3,0.4-6.7,0.5-10.1,0.2c0.1-0.2,0.2-0.3,0.3-0.4c5.8-4.8,12.7-7.4,20.7-7.6
		c0.1-0.1,0.1-0.1,0.1-0.1c3.4-0.2,6.5,0.2,9.4,1.1C51.8,5.086,48.2,6.686,44.6,7.886z M42.6,7.286c0.1,0.4,0.3,0.7,0.4,1
		c-1.9,0.6-3.9,1-5.9,1.3C38.1,7.986,39.9,7.286,42.6,7.286z M41.1,14.186c-0.1-0.1-0.2-0.2-0.2-0.2c-0.1,0-0.1,0-0.2-0.1
		c-0.7-0.5-1.5-0.8-2.4-1.1l-0.1,0.1c0.3,0.3,0.6,0.6,1,0.9c-0.2,0.1-0.2,0.3-0.2,0.4c0.1,0.1,0.1,0.2,0.1,0.2
		c-0.9-0.2-1.9-0.3-2.9-0.5c-0.1-0.7,0-1.4,0.1-2c1.3-0.1,2.7-0.3,4.1-0.5c0.7-0.1,1.3-0.2,2-0.3c0.1,0.6,0.5,1.3,1,1.9
		c0.2,0.4,0.5,0.8,0.8,1.2c2.6,2.9,4.3,6.1,5,9.6c-0.5-0.1-1-0.1-1.6-0.1C47.4,19.386,45.2,16.186,41.1,14.186L41.1,14.186z
		 M43.4,11.386c-0.2-0.2-0.4-0.3-0.6-0.4c0.3-0.1,0.5-0.1,0.8-0.2C43.5,10.986,43.4,11.186,43.4,11.386z M59.3,25.686
		c-0.7-0.3-1.3-0.5-2-0.6c-0.1,0-0.3,0.1-0.5,0.1c-1.6,0.1-2.8,0.7-3.4,1.9c0,0,0,0-0.1,0c0,0-0.1,0-0.2,0.1
		c-0.1-0.4-0.1-0.8-0.1-1.2c0.1,0,0.1,0,0.1-0.1c-0.1,0-0.1,0-0.1,0c0-0.1,0-0.2,0-0.3c3.3-2.7,7.2-4.1,11.7-4.3
		c0.1,0.8,0.2,1.5,0.3,2.3c0.2,3-0.4,5.7-1.8,8.2c-0.4,0.3-0.8,0.5-1.1,0.8c-0.2,0.1-0.3,0.2-0.4,0.4c-0.8,0.1-1.6,0.3-2.4,0.7
		c-0.3-0.1-0.6-0.2-0.9-0.4c-2.1-0.9-3.9-2.3-5.3-4.1c-0.1,0-0.1,0-0.1,0c0-0.5,0-0.9,0-1.4c0.8,0.2,1.6,0.3,2.3,0.4
		c0.6,0.5,1.2,1,1.8,1.4c0.8,0.5,1.5,0.5,2.1-0.2c0.1-0.6-0.3-1-1.2-1.1c-0.8-0.1-1.4-0.5-1.9-1.1c-0.5,0-0.9,0-1.3-0.1
		c1.6-0.6,3.2-1,4.8-1.2C59.5,25.786,59.4,25.686,59.3,25.686z M53.4,31.386v-0.1c1.5,2.3,3.9,3.8,7.3,4.4c0.1-0.1,0.2-0.2,0.3-0.2
		c0.2-0.2,0.4-0.3,0.5-0.4c0.6,0.4,1.1,0.7,1.6,1.1c-0.3-0.1-0.5-0.1-0.8-0.1c3,1.7,6,4,8.9,6.9c4.3,4.3,6.1,9.2,5.3,14.8
		c-0.7,5.4-3.7,10.3-8.8,14.7c0.1,0.1,0.3,0.2,0.5,0.3c-1.6,1.1-3.4,2-5.3,2.6c-0.6,0.7-1.3,1.3-2,1.9c0,0.3,0,0.5,0,0.8
		c-0.2,0.8,0,1.6,0.4,2.2c1.8,0.7,3.8,1.2,5.9,1.4c0.8,0.6,1.5,1.4,1.9,2.2c0,0.2-0.1,0.3-0.1,0.4c-0.3,0.6-0.4,1.2-0.4,1.9
		c0,0.2,0.1,0.5,0.2,0.7c0.5,1.5,0.5,2.3-0.4,2.5c-0.9-1.6-2.1-3.1-3.3-4.5c-6.3,0.3-12.4,0.6-18.2,0.9c0-0.5,0.1-1.1,0.3-1.6
		c0.3-0.6,0.3-1.1,0.2-1.6c-1.4-4.7-4.2-7.1-8.5-7.2c-0.5-0.1-0.9-0.2-1.3-0.2c-0.2,0-0.3,0-0.4,0c-5.9-2.1-10.7-5.4-14.2-10.1
		c-0.6-1.7-0.8-3.5-0.7-5.4c0-0.2,0-0.4,0.1-0.6c0.2-0.5,0.3-1,0.3-1.4c0.4-0.7,0.4-1.3,0.1-1.8c1.4-8,5-14.3,10.9-19.1h0.1
		c0,0,0,0-0.1,0c0.1-0.1,0.2-0.2,0.2-0.2c1.3-0.7,2.5-1.3,3.8-1.9c1,0.9,2.3,1.4,4,1.5c0.1-0.1,0.2-0.1,0.3-0.2
		c3-0.9,4.9-2.4,5.7-4.3c2-0.4,4-0.5,5.9-0.1C53.5,31.586,53.5,31.486,53.4,31.386z M51.1,29.386v0.1c-1-0.1-1.9-0.2-2.9-0.2
		c-0.1,0-0.4-0.1-0.6-0.2v-0.2c0-0.3,0-0.7,0-1.1c0-0.5,0-1,0-1.5c0-0.1,0-0.2,0-0.4c0.3-1,1.1-1.1,2.4-0.3c0.5,0.3,1,0.6,1.6,0.8
		c0,0.4,0,0.8,0,1.2c0.1,0.5,0,1-0.3,1.5C51.2,29.186,51.1,29.286,51.1,29.386z M44.5,26.986c-0.3-0.1-0.7,0-1.2,0.1
		c-0.7,0.3-1.4,0.8-2.1,1.3c-0.1,0.2-0.2,0.3-0.3,0.5l0.1,0.2c1.7-0.7,3.4-1,4.9-0.8c0.1,0.4,0.1,0.8,0.2,1.1c-0.1,0-0.2,0-0.3,0
		c-0.1,0.1-0.2,0.1-0.2,0.2c0.2,0,0.4,0.1,0.6,0.2c0.1,0.4,0.2,0.8,0.2,1.1c0,0.2,0,0.3,0,0.4c-1.7,1.4-3.7,2.3-5.8,2.9
		c-1-0.5-1.9-1.1-2.7-1.9c-0.1,0-0.2,0-0.3,0c-0.1-0.1-0.2-0.1-0.3-0.2c-0.1,0-0.2-0.1-0.4-0.3c-1.1-1.9-1.6-4-1.5-6.4
		c0-1.4,0.4-2.8,0.9-4.1c0.1-0.1,0.1-0.2,0.1-0.2c0.8-0.1,1.5-0.2,2.3-0.3c1.4,0.7,2.7,1.5,4,2.5c1.3,1,2.5,1.6,3.5,1.6
		c-0.2,0.5-0.3,1.2-0.4,1.8c-1.7-1.5-3.9-2-6.5-1.6l-0.3,0.1C40.8,25.786,42.6,26.386,44.5,26.986z M72.3,31.386
		c-0.2,0.2-0.5,0.4-0.6,0.7c-0.2,0.1-0.3,0.2-0.4,0.3c0,0.7,0,1.3,0,1.9c0,0.1,0,0.1,0,0.1c-1.8-1.4-3.8-2.5-6.1-3
		c0-0.1,0-0.1,0-0.1c0.5-0.9,0.8-1.9,1.1-2.8c3.3-0.3,6.2,0.6,8.7,2.7c-0.8-0.1-1.5-0.1-2.2-0.1l0,0
		C72.6,31.186,72.5,31.286,72.3,31.386z M63.8,33.386c0.5-0.5,0.9-1,1.2-1.6c2,1.3,4.1,2.4,6.4,3.2c0.1,0.2,0.1,0.3,0.2,0.4
		c0,0.2,0.1,0.3,0.2,0.4c-0.3,0.1-0.6,0.1-1,0c-0.6-0.1-1.3-0.1-2-0.2c-0.3,0-0.5,0-0.7,0.1c-0.4,0.2-0.7,0.6-0.9,0.9
		c-1.1-1.1-2.4-2.1-3.7-3C63.6,33.586,63.7,33.486,63.8,33.386z M40.2,14.686c0.1,0,0.1,0,0.1,0H40.2L40.2,14.686z M33.6,27.086
		c-0.8-0.1-1.5-0.2-2.1-0.4c-0.4,0-0.8-0.1-1.2-0.3c-0.7,0.2-1.5,0.5-2.1,0.9c-0.1-0.1-0.2-0.2-0.4-0.2s-0.4,0.1-0.5,0.3
		c-1,0.7-1.6,1.7-2,2.7c0.6,0.2,1.1,0.2,1.7,0c0,0.1,0,0.2,0,0.3c-0.1,0-0.1,0.2-0.1,0.2H27c-0.1,0.4-0.2,0.8-0.2,1.1
		c-0.1,0.5-0.1,1-0.1,1.5c-0.4,0.1-0.8,0.2-1.2,0.1c-2.2-0.5-3.6-1.8-4.2-3.9c-0.4-1.4-0.5-2.9-0.4-4.6c0.6,0.2,1.2,0.4,1.7,0.7
		c0.3,0.2,0.7,0.4,1.1,0.6c-0.2,0.2-0.2,0.5-0.1,0.8c0.3,0,0.7-0.1,0.9-0.2s0.4-0.2,0.5-0.3c0.4,0.1,0.7,0.2,1.1,0.2
		c2.4-1.4,5-2,7.7-1.8c0,0.5-0.1,0.9-0.1,1.4c0,0.4,0,0.7,0.1,1C33.7,27.186,33.6,27.086,33.6,27.086z M33.4,29.086
		c0.2,0,0.4,0,0.5,0c0.5,1.8,1.4,3.1,2.7,3.9c-0.7,0.3-1.3,0.7-2,1.2c-0.8,0.5-1.5,1-2.2,1.6c-0.8-0.6-1.7-1-2.6-1.2
		c0-0.1,0-0.1,0-0.2c0.3-0.1,0.5-0.3,0.7-0.5c1.2-1.3,2.8-2,4.6-2.2c-0.1-0.1-0.2-0.1-0.2-0.2c-0.8-0.2-1.7-0.3-2.6-0.3
		c-0.9,0.4-1.7,0.9-2.5,1.6c0-0.6,0-1.1,0-1.6c0-0.1-0.1-0.2-0.2-0.3c-0.4-0.2-0.7-0.4-1.1-0.7c0-0.4,0-0.6-0.1-1
		c0.2-0.1,0.3-0.2,0.4-0.3c1.2-0.8,2.5-1,3.9-0.6c0,0.1,0.1,0.1,0.1,0.1c0.1,0.2,0.1,0.2,0.3,0.3
		C33.2,28.786,33.3,28.886,33.4,29.086z M22.3,51.486c-0.2,0.5-0.3,1-0.5,1.5c-0.3,1.2-0.5,2.3-0.6,3.4c-0.2,0.3-0.3,0.5-0.3,0.8
		c-0.2,0.6-0.4,1-0.8,1.4c0,0.4-0.1,0.9-0.3,1.4c-0.1,0.2-0.3,0.4-0.6,0.5c-0.2,0.2-0.4,0.5-0.6,0.6c0-0.2,0-0.4,0-0.6
		c0-0.3,0-0.5,0-0.8c0-0.5-0.1-1-0.2-1.5c0-0.2-0.2-0.5-0.3-0.8c-1,0.2-1.7,0.6-2.3,1.3c-1.8,2.4-4.1,3.4-6.7,3
		c0.3-0.2,0.5-0.5,0.8-0.8c0.4-0.6,1-1.2,1.5-1.7c0.9-0.7,1.4-1.5,1.5-2.4c-3.8-0.5-7.4-0.7-10.8-0.5c0.8-0.5,1.6-1,2.5-1.4
		c2.4-1,4.7-2,7-2.8c-1-1.2-2.4-1.9-4.1-2.2c-2.3-0.3-4-1.4-4.9-3.3c0.2-0.1,0.4-0.1,0.5,0c4.6,1.4,9.2,2.5,14,3.2
		c0,0.1,0.1,0.2,0.2,0.3s0.2,0.2,0.4,0.3c0.1,0.2,0.2,0.3,0.4,0.4c0.1,0.2,0.1,0.3,0.3,0.4c0.6,0.1,1.2,0.2,1.7,0.5
		C20.9,52.086,21.7,51.986,22.3,51.486z"/>
	<path style="fill:#BE3689;" d="M79.5,54.386c-0.1-0.6-0.1-1.2-0.2-1.8c0,0-0.1,0.1-0.2,0.2c0,0.5,0.1,0.9,0.2,1.2
		C79.4,54.086,79.4,54.186,79.5,54.386z"/>
	<path style="fill:#BE3689;" d="M42.9,40.186c-0.4-0.3-1.1-0.5-2-0.6c0-0.2,0-0.3,0-0.4c0.2-0.7,0.1-1.2-0.3-1.5
		c-0.4-0.1-0.6,0-0.7,0.3c-0.2,0.9-0.1,1.8,0.3,2.6c0.2,0.1,0.4,0.3,0.6,0.4c-0.3,0.2-0.6,0.4-1,0.7c-0.6-0.3-1.4-0.5-2-0.9
		c0-0.1,0-0.2,0-0.4c0.1-0.4-0.1-0.7-0.4-1.1c-0.1,0.1-0.2,0.1-0.3,0.2c-0.4,0.8-0.4,1.5,0.1,2.2c0.4,0.4,0.9,0.8,1.4,0.9
		c-0.2,0.1-0.2,0.2-0.4,0.4c-1,0-1.9-0.5-2.6-1.3c-0.5-0.2-0.7,0-0.7,0.4c0,0.9,0.5,1.5,1.5,1.8c0.3,0.1,0.5,0.1,0.7,0.2
		c-4.5,4.7-4.4,9.6,0.3,14.5c4.8,1.4,8.9,0.5,12.5-2.4c2.6,2.3,5.6,2.8,9.1,1.4c5.4-2,7.2-5.7,5.4-10.9c-0.1-0.1-0.2-0.3-0.3-0.4
		c-0.8-1.5-1.8-2.8-3-3.7c0.2-0.1,0.4-0.2,0.6-0.3c0.1-0.1,0.2-0.2,0.4-0.4c0.9-0.8,1-1.7,0.3-2.6l0,0c-0.7,1.1-1.6,1.8-2.7,2.2
		c-0.4-0.2-0.8-0.4-1.1-0.6c0.4-0.4,0.8-0.9,1.2-1.3c0-0.2,0-0.3,0-0.4c0.1-0.7,0-1.3-0.4-1.9h-0.2c-0.2,1.8-1.1,2.8-2.4,3
		c-0.1,0-0.1,0-0.1,0c0-0.1,0-0.2,0.1-0.2c0.5-1.2,0.6-2.3,0.3-3.4c-0.9,0.5-1.4,1.6-1.8,3.2c0,0,0,0,0,0.1c-1-0.2-1.9-0.2-3-0.2
		c-0.2,0.2-0.6,0.3-1,0.5c-0.8,0.4-1.3,1-1.7,1.9c0,0-0.1,0.1-0.2,0.1C47.3,40.386,45.1,39.686,42.9,40.186z M45.8,41.686
		c1.7,1.3,3.2,2.4,4.5,3.2c0.5-0.4,0.8-0.9,0.9-1.4c0.2-0.6,0.4-1.1,0.7-1.6c4.9-0.6,8.5,1.2,10.9,5.7c0.2,0.6,0.3,1.3,0.4,1.9
		c0.5,3-0.7,5.2-3.6,6.7c-3.9,1.2-7.1,0.5-9.7-2.3c-0.1,0-0.1,0-0.2,0c-6.8,5.8-11.8,5.1-14.8-2c0-0.1,0-0.2,0-0.3
		c0.8-4.8,3.6-8.2,8.4-10.2c0.6,0,1.2,0,1.9-0.1C45.4,41.486,45.6,41.586,45.8,41.686z"/>
	<path style="fill:#BE3689;" d="M54.6,49.686c-0.1-0.1-0.2-0.2-0.3-0.4c-0.4-0.7-1.1-1-2-0.9c-0.3,0.2-0.6,0.4-0.9,0.9
		c-0.2,0.3-0.3,0.6-0.2,1c0.6,1.2,1.6,1.6,3,1.1c0.2-0.3,0.3-0.6,0.4-1C54.7,50.186,54.6,49.886,54.6,49.686z"/>
	<path style="fill:#BE3689;" d="M45.2,50.886c0.6,1.5,1.6,1.8,3.1,0.9c0.2-0.3,0.2-0.7,0.2-1.1c-0.1-0.3-0.1-0.5-0.1-0.8
		c-0.1-0.1-0.2-0.2-0.4-0.2c-0.5-0.2-1.1-0.4-1.7-0.5c-0.3,0.1-0.6,0.4-0.9,0.8C45.3,50.186,45.2,50.586,45.2,50.886z"/>
	<path style="fill:#BE3689;" d="M62.2,65.786c0.1,0.2,0.2,0.3,0.4,0.4c0.1,0.1,0.2,0.2,0.3,0.4c1.1,0.2,1.6,0,1.4-0.8
		c-0.1-0.1-0.2-0.2-0.3-0.4c-0.5-0.5-1-0.8-1.7-0.9c-1.6-0.6-3-0.4-4.1,0.6c-0.9,0.8-1.8,1.6-2.8,2.3c-1.4,1.2-2.7,2.1-3.8,2.9
		c1,0.5,1.9,0.3,2.8-0.5c1.5-1.5,3.1-2.8,4.8-4C60.2,65.786,61.2,65.786,62.2,65.786z"/>
	<path style="fill:#BE3689;" d="M59.9,67.286c-0.1,0-0.2,0.1-0.3,0.1c-1.1,1-2.4,1.9-3.8,2.7c0.5,0.1,1,0.3,1.5,0.5
		c0.1-0.1,0.3-0.2,0.4-0.2C59.5,69.686,60.2,68.686,59.9,67.286z"/>
</g>
</svg>
