<?xml version="1.0" encoding="iso-8859-1"?>
<!-- Generator: Adobe Illustrator 12.0.1, SVG Export Plug-In . SVG Version: 6.00 Build 51448)  -->
<!DOCTYPE svg PUBLIC "-//W3C//DTD SVG 1.1//EN" "http://www.w3.org/Graphics/SVG/1.1/DTD/svg11.dtd" [
	<!ENTITY ns_svg "http://www.w3.org/2000/svg">
	<!ENTITY ns_xlink "http://www.w3.org/1999/xlink">
]>
<svg  version="1.1" id="Layer_1" xmlns="&ns_svg;" xmlns:xlink="&ns_xlink;" width="86.3" height="82.34" viewBox="0 0 86.3 82.34"
	 style="overflow:visible;enable-background:new 0 0 86.3 82.34;" xml:space="preserve">
<g>
	<path style="fill:#BE3689;" d="M82.8,77.8c1.1-0.3,2.3-0.8,3.5-1.2c0-0.1-1.5-1.5-4.5-4.4c-3-2.8-8.8-4.6-17.3-5.3
		c-2.5,0.5-5,1.1-7.6,2c-0.8,0.2-1.5,0.6-2,1.1c0,0,0,0-0.1,0c-0.2-1.1-0.7-2.1-1.5-2.8c0.9-0.3,1.8-0.5,2.7-0.8
		c5.9-2,10-6.1,12.2-12.4c3-8.8,1.8-16.3-3.5-22.2c0.1,0,0.1,0,0.2,0c0-0.2-0.1-0.3-0.1-0.3c-1.1-1.2-2.3-2.3-3.5-3.4
		c1-0.2,2,0.1,3.1,0.9c0.6,0.5,1.1,0.4,1.6-0.2c-0.2-0.9-0.7-1.6-1.4-2.4c-0.2-0.3-0.4-0.6-0.6-1c0-0.4,0-0.8,0.1-1.1
		c0.1-0.2,0.2-0.2,0.3-0.3c1.1-0.3,2.1-0.6,3.1-0.8c0.1,0.1,0.2,0.3,0.4,0.4c0,0.4,0,0.8,0,1.2c0,0.2,0,0.5-0.1,0.7
		c-0.1,0.8,0.1,1.4,0.5,1.9c5.9,1.4,9.2-0.6,9.8-6c-1.8-1.1-3.9-1.8-6.2-2c-0.3-0.3-0.7-0.6-1.1-1h-0.2c-0.4-0.4-0.8-0.6-1.3-0.8
		c-0.4,0-0.6,0-0.8,0c-1.9-1.8-4.6-2.6-8-2.5c-0.4,0.3-0.9,0.4-1.5,0.4c-0.3,0-0.5,0.1-0.7,0.1c-0.2-1.4-0.5-2.8-1.1-4.3
		c0.6,0,1.3-0.2,1.9-0.3c0.1-0.1,0.1-0.2,0.2-0.3c0.2-0.4,0.5-0.8,0.7-1.2c0.1-0.1,0.2-0.2,0.3-0.4c0-0.7-0.1-1.4-0.1-2.2
		C60,4.2,58.9,2,56.8,0.1c-0.8,0-1.5,0-2.3-0.1c-0.5,0.3-1.1,0.7-1.7,1.3c-1,0.9-1.7,1.9-2,3.1c-3.9,0.9-7,3-9.1,6.3
		C39.9,6.9,37,3.8,33,1.5c-0.6-0.8-1.6-1.3-2.9-1.5c-0.2,0-0.3,0-0.3,0.1c-0.6,0-1.2,0-1.8-0.1c-1.1,0.6-1.9,1.6-2.4,2.8
		c-0.3,1-0.6,2-0.8,3c0.1,0.9,0.3,1.8,0.7,2.7c0.4,1,1,1.8,1.8,2.4c-0.9,1.3-1.5,2.9-1.7,4.6c-2-1.4-4.5-1.3-7.5,0.4
		c-0.2-0.1-0.4-0.1-0.6-0.1c-0.1,0-0.2,0.1-0.3,0.2c-0.2,0-0.4,0-0.6,0c0,0,0,0-0.1-0.1c-1.4-0.8-2.9-1.2-4.5-1.3
		c-0.6,0.2-0.9,0.7-0.8,1.6c0,1.5,0.2,2.9,0.6,4.4c0.3,1.7,1.1,3.2,2.2,4.5c0.3,0.2,0.5,0.3,0.7,0.5c1.7,1.1,3.3,1.1,4.8,0
		c0.1-0.2,0.1-0.5,0.1-0.7c0-0.8,0.1-1.5,0.4-2.1c0-0.1,0-0.2,0.1-0.2c0.1,0.1,0.3,0.2,0.4,0.3c0,0.4,0,0.8,0,1.1c0,0.4,0,0.7,0,1.1
		c0,0,0,0,0,0.1c-0.2,0.1-0.3,0.2-0.5,0.3c-0.9,0.8-1.3,1.7-1.2,2.6c1.2-0.2,2.3-0.3,3.4-0.3C22.1,27.9,22,28,21.9,28
		c-0.1,0-0.1,0-0.2,0c-0.1,0.2-0.2,0.4-0.4,0.5c-0.6,0.6-1.2,1.2-1.8,1.8c0.1,0.1,0.2,0.2,0.2,0.1c0.1,0,0.1,0,0.2,0
		c-3,3.5-5.1,7.6-6.4,12.3c-2.3,9,0.2,15.7,7.6,20.1c2.6,1.5,5.3,2.8,8,3.7c-0.2,0.2-0.3,0.4-0.6,0.5c0,0.3,0,0.5-0.1,0.7
		c-0.3,0.7-0.5,1.4-0.4,2.3c-0.3-0.1-0.6-0.3-0.9-0.5c-0.2-0.1-0.3-0.1-0.2,0.1c0,0,0.1,0.1,0.2,0.3c-3.6-2.4-7.8-3.4-12.6-3.1
		c-1.3,0.4-2.6,0.7-3.9,1.1c-1.2,0.2-2.9,1.3-5,3.3c-2.2,2-3.5,3.4-4,4.1c-0.7,0.8-0.9,1.8-0.5,2.8c0.1,0.3,0.2,0.5,0.3,0.8
		c0.5,0.1,1.1,0.2,1.7,0.2c-1.4,0.3-2.5,1-3.1,2.2c0.1,0.1,0.2,0.2,0.2,0.1c2.6-0.2,4.1-0.9,4.3-2.1c1.1,0.2,2.2,0.3,3.4,0.4
		c-1.4,0.4-2.6,1-3.8,1.9c0.1,0.2,0.1,0.2,0.1,0.2c2.7-0.4,4.6-1,5.7-2c1.2,0.1,2.4,0.1,3.6,0.2c-1.2,0.4-2.4,1-3.5,1.8
		c0.4,0.6,1.1,0.7,1.9,0.3c0,0,0.2-0.1,0.3-0.1c2-0.6,3.5-1.2,4.5-2c1.3,0,2.6,0,3.9,0c-1,0.5-2,1-3,1.6c0.3,0.2,0.6,0.2,0.8,0.2
		c1.9-0.6,3.8-1.3,5.6-2c1.8-0.2,3.5-0.4,5.3-0.6c-1.7,0.8-3.2,1.7-4.8,2.6c0.1,0.1,0.2,0.2,0.3,0.2c0.4,0.2,0.8,0.3,1.2,0.3
		c0.1-0.2,0.3-0.3,0.4-0.3c2.7-1.3,5.5-2.5,8.3-3.7c0.8-0.1,1.7-0.3,2.6-0.5c0-0.2,0-0.4-0.1-0.6c1.9-0.8,3.7-1.6,5.6-2.4
		c-0.2-0.2-0.4-0.3-0.6-0.3l0,0c1.5-0.8,3-1.4,4.4-1.9c0.4-0.1,0.8-0.2,1.1-0.3c-0.3,0.4-0.6,0.9-0.8,1.5c-5.4,1.8-9.8,4.5-13.1,7.8
		c0.2,0.1,0.4,0.1,0.6,0c4.8-2.4,8.9-4.8,12.3-7.4c-0.1,0.5-0.3,1-0.3,1.6c0.6,0.4,1.2,0.8,1.9,1.1c-3.5,1-6.1,2.7-7.9,5.1
		c0.2,0.1,0.3,0.1,0.5,0c2.7-1.7,5.6-3.2,8.7-4.5c0.9,0.3,1.8,0.6,2.8,0.8c-1.9,1-3.6,2.1-5.3,3.3l0.1,0.2c2.4-0.8,4.7-1.9,6.8-3.3
		c1.3,0.5,2.6,0.8,4,1c-0.7,0.3-1.5,0.6-2.4,0.9c0,0.1-0.1,0.1-0.1,0.2c-0.8,0.4-1,0.9-0.7,1.5c0.8,0.2,1.6,0,2.4-0.4
		c1.7-0.8,2.7-1.5,3.1-2.1c0.7,0.1,1.4,0.1,2.1,0c0.7,0.1,1.5,0.2,2.3,0.2c-0.8,0.5-1.6,1.1-2.2,1.7v0.3c2.4-0.3,3.7-1,4-1.9
		c1.5,0,3,0,4.5-0.1c-0.5,0.4-1,0.8-1.2,1.3c0.2,0.1,0.4,0.2,0.7,0.1c1.7-0.3,2.9-0.9,3.8-1.7c1.4-0.2,2.9-0.4,4.4-0.7
		c-1.1,0.6-2,1.5-2.7,2.5c0.7,0.5,1.4,0.4,2.4-0.1C80.7,79.9,82.2,78.8,82.8,77.8z M76.3,23.2c-0.2,0.2-0.3,0.4-0.5,0.6
		c-0.6,0.7-1.2,1.3-1.8,2c-1.6,0.6-3.2,0.8-4.9,0.3c0-0.2,0-0.5,0-0.7c0-0.3,0-0.5,0-0.8c0-0.3,0-0.7,0-1c0.2,0.4,0.9,0.6,2.2,0.7
		c-0.1-0.2-0.2-0.3-0.3-0.4c-0.3-0.6-0.7-1.1-1.2-1.5c-0.1,0-0.2,0-0.3,0.1c-0.2,0.2-0.3,0.4-0.4,0.6c0-0.1,0-0.2,0-0.3
		c-3.2-3.5-6.9-4.5-11.1-3.3c0.2-0.9,0.3-1.7,0.3-2.6c4-0.5,7.7,0.4,11.1,2.7c0.2,0.4,0.5,0.8,0.7,1.3c0.4-0.1,0.8-0.1,1.1,0
		c0.5,0.5,1.1,0.9,1.8,0.9c0-0.2,0-0.3,0-0.4c-0.1-0.1-0.1-0.2-0.2-0.4c1.5,0.3,2.8,0.8,3.7,1.8C76.4,22.9,76.3,23,76.3,23.2z
		 M55.9,1.6c0.4,0.5,0.9,1,1.4,1.4c0.1,0.2,0.2,0.3,0.3,0.4c0.3,0.8,0.6,1.7,0.8,2.6c0.1,0.6,0.3,1.2,0.4,1.9c0,0.1-0.1,0.2-0.1,0.3
		c-0.2,0.4-0.4,0.8-0.5,1.2C58.1,9.5,58,9.6,58,9.8c-2-0.3-3.8-1.1-5.2-2.7c-5.6,0.5-8.6,2.7-9,6.7c-0.1,0-0.1,0-0.1,0
		c-0.2,0.5-0.3,1-0.3,1.6c0,0.1,0,0.2,0.1,0.3c-0.5-0.3-1-0.4-1.5-0.5c0.1-0.2,0.1-0.3,0.1-0.4c0.5-0.5,0.6-1.2,0.4-1.9
		c0-0.1-0.1-0.3-0.1-0.5c2-3.4,5.1-5.6,9.5-6.6c0.2-0.5,0.4-1,0.7-1.5C53.3,3,54.4,2.1,55.9,1.6z M48.5,9.3c1.1-0.5,2.3-0.7,3.5-0.5
		c0.4,0.2,0.7,0.4,1,0.7c0.7,0.4,1.4,0.8,2.1,1.3c-0.3-0.1-0.7-0.1-1.1-0.2c-3.9,0.5-6.9,2.2-8.8,5.2c0-0.3,0.1-0.5,0.1-0.8
		c0.2-1,0.3-2.1,0.6-3.1c0.5-0.5,1-1,1.5-1.5C47.7,10,48.1,9.6,48.5,9.3z M35.1,9.4c0.3,0.1,0.6,0.2,0.9,0.4c0.6,1,1,2,1.1,3
		c0,0.5,0.1,1,0.3,1.4c-1.9-1.7-4-2.7-6.3-3.2c1.2-0.5,2.4-1.1,3.4-2C34.7,9.2,34.9,9.3,35.1,9.4z M51.3,17.1
		c-0.1-0.1-0.2-0.2-0.3-0.2c-0.7-0.3-1.3-0.5-2-0.6c-0.1,0-0.3,0.1-0.5,0.1c-1.6,0.1-2.8,0.7-3.4,1.9c0,0,0,0-0.1,0
		c0,0-0.1,0-0.2,0.1c-0.1-0.4-0.1-0.8-0.1-1.2c0.1,0,0.1,0,0.1-0.1c-0.1,0-0.1,0-0.1,0c0-0.1,0-0.2,0-0.3c3.3-2.7,7.2-4.1,11.7-4.3
		c0.1,0.8,0.2,1.5,0.3,2.3c0.2,3-0.4,5.7-1.8,8.2c-0.4,0.3-0.8,0.5-1.1,0.8c-0.2,0.1-0.3,0.2-0.4,0.4c-0.8,0.1-1.6,0.3-2.4,0.7
		c-0.3-0.1-0.6-0.2-0.9-0.4c-2.1-0.9-3.9-2.3-5.3-4.1c-0.1,0-0.1,0-0.1,0c0-0.5,0-0.9,0-1.4c0.8,0.2,1.6,0.3,2.3,0.4
		c0.6,0.5,1.2,1,1.8,1.4c0.8,0.5,1.5,0.5,2.1-0.2c0.1-0.6-0.3-1-1.2-1.1c-0.8-0.1-1.4-0.5-1.9-1.1c-0.5,0-0.9,0-1.3-0.1
		C48.1,17.7,49.7,17.3,51.3,17.1z M45.1,22.6v-0.1c1.5,2.3,3.9,3.8,7.3,4.4c0.1-0.1,0.2-0.2,0.3-0.2c0.2-0.2,0.4-0.3,0.5-0.4
		c0.6,0.4,1.1,0.7,1.6,1.1c-0.3-0.1-0.5-0.1-0.8-0.1c1.8,1,3.5,2.2,5.2,3.6c0.7,0.1,1.3,0.1,2,0.2c0.6,0.5,1.1,1,1.7,1.6
		c4.3,4.3,6.1,9.2,5.3,14.8C67.5,53,64.4,58,59.1,62.4c-5.3,4.5-12.8,6-22.5,4.4c-9.7-1.6-17-5.5-21.9-12c-0.6-1.7-0.8-3.5-0.7-5.4
		c0.7-8,3.3-14.6,8-19.7c0.1-0.1,0.2-0.1,0.2-0.2c0.5,0.1,0.9,0.1,1.3,0.1c0.6-0.5,1.2-1.1,1.9-1.6h0.1c0,0,0,0-0.1,0
		c0.1-0.1,0.2-0.2,0.2-0.2c1.3-0.7,2.5-1.3,3.8-1.9c1,0.9,2.2,1.4,4,1.5c0.1-0.1,0.2-0.1,0.3-0.2c3-0.9,4.9-2.4,5.7-4.3
		c2-0.4,4-0.5,5.9-0.1C45.2,22.7,45.2,22.7,45.1,22.6z M40.8,12.9c-0.1,0.2-0.2,0.4-0.2,0.5c-0.3,0.8-0.2,1.3,0.3,1.5V15
		c-0.5-0.1-1-0.1-1.6-0.1c0-0.2,0-0.4,0-0.6c0.1-0.6,0.1-1.2-0.1-1.9c-0.7-3.4-2.7-5.1-5.9-4.9c-0.4,0.4-0.8,0.8-1.1,1.2
		c-1,1.1-2.1,1.4-3.4,0.9c-0.7-0.2-1.2-0.7-1.5-1.4c-0.2-0.3-0.3-0.6-0.5-0.8c-0.2-1-0.1-2,0.1-3c0.1-1.1,0.7-2,1.6-2.6
		c1.1-0.2,2.1,0,3.1,0.4c0.3,0.2,0.6,0.3,0.9,0.4c0.1,0.2,0.2,0.4,0.3,0.6c0.4,1.3,0.7,1.4,1.1,0.4c0,0,0-0.1,0-0.2
		C37.6,5.7,39.9,8.9,40.8,12.9z M39.3,17.1c0.3-1,1.1-1.1,2.4-0.3c0.5,0.3,1,0.6,1.6,0.8c0,0.4,0,0.8,0,1.2c0.1,0.5,0,1-0.3,1.5
		c-0.1,0.1-0.2,0.2-0.2,0.3v0.1c-1-0.1-1.9-0.2-2.9-0.2c-0.1,0-0.4-0.1-0.6-0.2v-0.2c0-0.3,0-0.7,0-1.1c0-0.5,0-1,0-1.5
		C39.3,17.4,39.3,17.3,39.3,17.1z M34.4,14.5c1.3,1,2.5,1.6,3.5,1.6c-0.2,0.5-0.3,1.2-0.4,1.8c-1.7-1.5-3.9-2-6.5-1.6l-0.4,0.1
		c1.9,0.6,3.7,1.2,5.6,1.8c-0.3-0.1-0.7,0-1.2,0.1c-0.7,0.3-1.4,0.8-2.1,1.3c-0.1,0.2-0.2,0.3-0.3,0.5l0.1,0.2
		c1.7-0.7,3.4-1,4.9-0.8c0.1,0.4,0.1,0.8,0.2,1.1c-0.1,0-0.2,0-0.3,0c-0.1,0.1-0.2,0.1-0.2,0.2c0.2,0,0.4,0.1,0.6,0.2
		c0.1,0.4,0.2,0.8,0.2,1.1c0,0.2,0,0.3,0,0.4c-1.7,1.4-3.7,2.3-5.8,2.9c-1-0.5-1.9-1.1-2.7-1.9c-0.1,0-0.2,0-0.3,0
		c-0.1-0.1-0.2-0.1-0.3-0.2c-0.1,0-0.2-0.1-0.4-0.3c-1.1-1.9-1.6-4-1.5-6.4c0-1.4,0.4-2.8,0.9-4.1c0.1-0.1,0.1-0.2,0.1-0.2
		c0.8-0.1,1.5-0.2,2.3-0.3C31.8,12.7,33.1,13.5,34.4,14.5z M66.7,22.4c-0.8-0.1-1.5-0.1-2.2-0.1l0,0c-0.2,0.1-0.3,0.2-0.5,0.3
		c-0.2,0.2-0.5,0.4-0.6,0.7c-0.2,0.1-0.3,0.2-0.4,0.3c0,0.7,0,1.3,0,1.9c0,0.1,0,0.1,0,0.1c-1.8-1.4-3.8-2.5-6.1-3
		c0-0.1,0-0.1,0-0.1c0.5-0.9,0.8-1.9,1.1-2.8C61.3,19.4,64.2,20.3,66.7,22.4z M60.5,26.8c-0.3,0-0.5,0-0.7,0.1
		c-0.4,0.2-0.7,0.6-0.9,0.9c-1.1-1.1-2.4-2.1-3.7-3c0.1,0,0.2-0.1,0.3-0.2c0.5-0.5,0.9-1,1.2-1.6c2,1.3,4.1,2.4,6.4,3.2
		c0.1,0.2,0.1,0.3,0.2,0.4c0,0.2,0.1,0.3,0.2,0.4c-0.3,0.1-0.6,0.1-1,0C61.9,26.9,61.2,26.9,60.5,26.8z M59.9,28.7
		c0.1-0.1,0.3-0.2,0.4-0.3c0.2,0.4,0.4,0.8,0.7,1.2c-0.2-0.1-0.3-0.1-0.4-0.1c-0.1,0-0.1,0-0.1,0C60.3,29.3,60.1,29,59.9,28.7z
		 M13,20.6c-0.4-1.4-0.6-2.9-0.4-4.6c0.6,0.2,1.2,0.4,1.7,0.7c0.3,0.2,0.7,0.4,1.1,0.6c-0.2,0.2-0.2,0.5-0.1,0.8
		c0.3,0,0.7-0.1,0.9-0.2s0.4-0.2,0.5-0.3c0.4,0.1,0.7,0.2,1.1,0.2c2.4-1.4,5-2,7.7-1.8c0,0.5-0.1,0.9-0.1,1.4c0,0.4,0,0.7,0.1,1
		c-0.1,0-0.2-0.1-0.2-0.1c-0.8-0.1-1.5-0.2-2.1-0.4c-0.4,0-0.8-0.1-1.2-0.3c-0.7,0.2-1.5,0.5-2.1,0.9c-0.1-0.1-0.2-0.2-0.4-0.2
		s-0.4,0.1-0.5,0.3c-1,0.7-1.6,1.7-2,2.7c0.6,0.2,1.1,0.2,1.7,0c0,0.1,0,0.2,0,0.3c-0.1,0-0.1,0.2-0.1,0.2h0.1
		c-0.1,0.4-0.2,0.8-0.2,1.1c-0.1,0.5-0.1,1-0.1,1.5c-0.4,0.1-0.8,0.2-1.2,0.1C15,24,13.6,22.7,13,20.6z M25.1,20.3
		c0.2,0,0.4,0,0.5,0c0.5,1.8,1.4,3.1,2.7,3.9c-0.7,0.3-1.3,0.7-2,1.2c-0.8,0.5-1.5,1-2.1,1.6c-0.9-0.6-1.8-1-2.7-1.2
		c0-0.1,0-0.1,0-0.2c0.3-0.1,0.5-0.3,0.7-0.5c1.2-1.3,2.8-2,4.6-2.2c-0.1-0.1-0.2-0.2-0.2-0.2c-0.8-0.2-1.7-0.3-2.6-0.3
		c-0.9,0.3-1.7,0.9-2.5,1.6c0-0.6,0-1.1,0-1.6c0-0.1-0.1-0.2-0.2-0.3c-0.4-0.2-0.7-0.4-1.1-0.7c0-0.4,0-0.6-0.1-1
		c0.2-0.1,0.3-0.2,0.4-0.3c1.2-0.8,2.5-1,3.9-0.6c0,0.1,0.1,0.1,0.1,0.1c0.1,0.2,0.2,0.2,0.3,0.3C24.9,20,25,20.1,25.1,20.3z
		 M2.1,77c0.3-0.8,0.7-1.5,1.4-2.1c7.4-7.5,15.7-8.7,25-3.6c0.8,0.7,1.7,1.1,2.8,1.5c0-0.2-0.1-0.3-0.2-0.3c-0.5-0.6-1-1.2-1.7-1.6
		c0.1-0.2,0.1-0.3,0.1-0.5c0-0.1-0.1-0.2,0-0.4c0.3-1.3,0.5-2.4,0.3-3.2c1.2,0.3,2.4,0.7,3.6,1C32.8,70.2,33,72.3,34,74
		c-0.2,0-0.3,0.1-0.5,0.1c0,0.5,0.2,0.8,0.5,1.2c0.4,0.3,0.7,0.7,1.1,1.1c0,0.1,0,0.1,0,0.1c-0.3,0.1-0.7,0.3-1,0.5
		c-2.1,0.2-4.2,0.5-6.3,0.6c-0.3-0.1-0.5-0.1-0.8-0.2c0,0.1,0,0.1,0,0.1c-0.4,0.1-0.6,0.2-1,0.3c-7,0.6-14.2,0.8-21.4,0.7
		C3.4,78.5,2.6,78,2.1,77z M48.1,70.6c-0.4,0.1-0.7,0.3-1,0.7c0,0,0,0-0.1,0c-0.4,0.2-0.8,0.5-1.3,0.6c-0.1,0-0.1,0-0.2,0
		c0,0,0,0-0.1,0.1c-0.8,0.2-1.8,0.3-2.9,0.2c-3-0.1-5.7-0.2-8.1-0.3c-0.3-1.3-0.4-2.7-0.4-4c4.4,1,8.9,1.1,13.5,0.5
		C47.6,69,47.8,69.7,48.1,70.6z M54,70.4c-0.8,0.4-1.5,1-2,1.9c0.1,0.1,0.2,0.2,0.2,0.1c0.7-0.1,1.2-0.2,1.7-0.3c0,0.1,0,0.2,0,0.3
		c11.3-5.9,21.2-4.6,29.9,3.6c-8.7,2.1-17.6,2.8-26.5,2c-3.7-0.7-6.7-1.8-9.2-3.1c0-0.1,0.1-0.2,0.1-0.3c1.8-2.4,1.9-4.5,0.3-6.4
		c1.3-0.2,2.7-0.5,4-0.8C52.7,68.7,53.2,69.7,54,70.4z M34.5,72.5c0,0,0,0,0-0.1c0.6,0.2,1.3,0.4,2,0.5c-0.5,0.3-0.9,0.6-1.3,1
		c-0.2-0.4-0.4-0.7-0.7-1C34.5,72.8,34.5,72.7,34.5,72.5z M42.2,73.3c-0.7,0.3-1.2,0.7-1.8,1.1c-0.4,0.2-0.9,0.4-1.4,0.5
		c-0.8,0.3-1.6,0.6-2.3,1c-0.3-0.5-0.6-0.8-0.9-1.1c-0.1-0.1-0.1-0.2-0.1-0.2c0.9-0.3,1.8-0.8,2.6-1.4
		C39.6,73.4,40.9,73.4,42.2,73.3z"/>
	<path style="fill:#BE3689;" d="M41.1,35c-2.1-1.9-4.3-2.6-6.5-2.1c-0.4-0.3-1.1-0.5-2-0.6c0-0.2,0-0.3,0-0.4
		c0.2-0.7,0.1-1.2-0.3-1.5c-0.4-0.1-0.7,0-0.7,0.3c-0.2,0.9-0.1,1.8,0.3,2.6c0.2,0.1,0.4,0.3,0.6,0.4c-0.3,0.2-0.6,0.4-1,0.7
		c-0.6-0.3-1.4-0.5-2-0.9c0-0.1,0-0.2,0-0.4c0.1-0.4-0.1-0.7-0.4-1.1c-0.1,0.1-0.2,0.1-0.3,0.2c-0.4,0.8-0.4,1.5,0.1,2.2
		c0.4,0.4,0.9,0.8,1.4,0.9c-0.2,0.1-0.2,0.2-0.4,0.4c-1,0-1.9-0.5-2.6-1.3c-0.5-0.2-0.7,0-0.7,0.4c0,0.9,0.5,1.5,1.5,1.8
		c0.3,0.1,0.5,0.1,0.7,0.2c-4.5,4.7-4.4,9.6,0.3,14.5c4.8,1.4,8.9,0.5,12.5-2.4c2.6,2.3,5.6,2.8,9.1,1.4c5.4-2,7.2-5.7,5.4-10.9
		c-0.1-0.1-0.2-0.3-0.3-0.4c-0.8-1.5-1.8-2.8-3-3.7c0.2-0.1,0.4-0.2,0.6-0.3c0.1-0.1,0.2-0.2,0.4-0.4c0.9-0.8,1-1.7,0.3-2.6l0,0
		c-0.7,1.1-1.6,1.8-2.7,2.2c-0.4-0.2-0.8-0.4-1.1-0.6c0.4-0.4,0.8-0.9,1.2-1.3c0-0.2,0-0.3,0-0.4c0.1-0.7,0-1.3-0.4-1.9h-0.2
		c-0.2,1.8-1.1,2.8-2.4,3c-0.1,0-0.1,0-0.1,0c0-0.1,0-0.2,0.1-0.2c0.5-1.2,0.6-2.3,0.3-3.4c-0.9,0.5-1.4,1.6-1.8,3.2c0,0,0,0,0,0.1
		c-1-0.2-1.9-0.2-3-0.2c-0.2,0.2-0.6,0.3-1,0.5c-0.8,0.4-1.3,1-1.7,1.9C41.3,34.9,41.2,35,41.1,35z M35,34.1c0.6,0,1.2,0,1.9-0.1
		c0.2,0.2,0.4,0.3,0.6,0.4c1.7,1.3,3.2,2.4,4.5,3.2c0.5-0.4,0.8-0.9,0.9-1.4c0.2-0.6,0.4-1.1,0.7-1.6c3.1-0.4,5.7,0.2,7.8,1.9
		c-1.2,0.3-2.5,0.7-3.9,1.1c-2,0.6-3.8,1.5-5.3,2.8c-0.2,0.1-0.4,0.2-0.5,0.4c-3.3-2.3-6.9-3.7-10.8-4.2C32,35.6,33.4,34.8,35,34.1z
		 M26.6,44.3c0.5-2.5,1.4-4.6,2.9-6.3c0.3,0.3,0.9,0.5,1.8,0.7c3.7,0.7,7,1.6,10.2,2.4c-0.2,0.2-0.3,0.3-0.5,0.4
		c0.1,0.4,0.2,0.6,0.4,0.7c1.1,1.7,2.4,1.7,3.7-0.1c0-0.1,0-0.2,0-0.3c-0.3-0.4-0.6-0.8-1-1.1c2.6-1.4,5.4-2.5,8.3-3.4
		c0.8,0.8,1.5,1.8,2.1,3c0.2,0.6,0.3,1.3,0.4,1.9c0.5,3-0.7,5.2-3.6,6.7c-3.9,1.3-7.1,0.5-9.8-2.4c-6.8,5.9-11.9,5.2-14.9-1.9
		C26.6,44.5,26.6,44.4,26.6,44.3z"/>
	<path style="fill:#BE3689;" d="M40.6,41.9c0-0.1-0.1-0.2-0.1-0.4c-0.6-0.8-1.4-1.1-2.5-0.9c-0.4,0.2-0.6,0.5-0.8,1
		c-0.2,0.9,0.1,1.6,0.9,2.2c0.6,0,1.1-0.1,1.6-0.2c0.2,0,0.3-0.1,0.4-0.2c0.4-0.3,0.6-0.7,0.6-1.1C40.6,42.1,40.6,42,40.6,41.9z"/>
	<path style="fill:#BE3689;" d="M32.6,55.8c-0.8,0.5-1.1,1.1-0.8,1.8c6.7-4.1,13.4-3.9,19.8,0.7c0.4,0,0.8-0.1,1.1-0.2
		c0.2,0,0.3-0.1,0.3-0.2c0.1-0.1,0.1-0.2,0-0.4c-0.1-0.1-0.2-0.2-0.4-0.3c-3.8-3.2-8.4-4.5-13.6-4C36.8,53.7,34.7,54.5,32.6,55.8z"
		/>
	<path style="fill:#BE3689;" d="M39.5,56.8l-0.2,0.1c2,1.7,4,2,5.8,0.7c0-0.1-0.1-0.1-0.1-0.2C43.2,57.2,41.4,56.9,39.5,56.8z"/>
</g>
</svg>
