<?xml version="1.0" encoding="iso-8859-1"?>
<!-- Generator: Adobe Illustrator 12.0.1, SVG Export Plug-In . SVG Version: 6.00 Build 51448)  -->
<!DOCTYPE svg PUBLIC "-//W3C//DTD SVG 1.1//EN" "http://www.w3.org/Graphics/SVG/1.1/DTD/svg11.dtd" [
	<!ENTITY ns_svg "http://www.w3.org/2000/svg">
	<!ENTITY ns_xlink "http://www.w3.org/1999/xlink">
]>
<svg  version="1.1" id="Layer_1" xmlns="&ns_svg;" xmlns:xlink="&ns_xlink;" width="88.117" height="92.3"
	 viewBox="0 0 88.117 92.3" style="overflow:visible;enable-background:new 0 0 88.117 92.3;" xml:space="preserve">
<g>
	<g>
		<path style="fill:#BE3689;" d="M87.917,69.1c-1.9-3.1-4.8-4.5-8.7-4.4c-3,0.4-5.8,1.3-8.5,2.8c2.4-9.5-0.5-17.2-8.5-23.1
			c-0.2-0.2-0.4-0.5-0.6-0.8c1.3-1,2.8-0.9,4.5,0.3c0.6,0.5,1.1,0.4,1.6-0.2c-0.2-0.9-0.7-1.6-1.4-2.4c-0.2-0.3-0.4-0.6-0.6-1
			c0-0.4,0-0.8,0.1-1.1c0.1-0.2,0.2-0.2,0.3-0.3c1.1-0.3,2.1-0.6,3.1-0.8c0.1,0.1,0.2,0.3,0.4,0.4c0,0.4,0,0.8,0,1.2
			c0,0.2,0,0.5-0.1,0.7c-0.1,0.8,0.1,1.4,0.5,1.9c5.9,1.4,9.2-0.6,9.8-6c-1.8-1.2-3.9-1.8-6.2-2c-0.3-0.3-0.7-0.7-1.1-1h-0.2
			c-0.4-0.4-0.8-0.6-1.3-0.8c-0.4,0-0.6,0-0.8,0c-1.9-1.8-4.6-2.6-8-2.5c-0.4,0.3-0.9,0.4-1.5,0.4c-0.3,0-0.5,0.1-0.7,0.1
			c-0.2-1.5-0.5-3-1.2-4.5c-0.1-0.1-0.2-0.1-0.4-0.2c-0.9-0.1-1.8-0.2-2.7-0.3c-4.2,0.5-7.4,2.5-9.3,5.9c-0.1,0-0.1-0.1-0.1-0.1
			c0-0.1,0-0.3,0.1-0.4c0.3,0.1,0.4-0.2,0.4-0.6v-0.1l0,0c0-0.4,0-0.8,0-1.2v-0.1c0.1-0.5,0.3-1,0.5-1.4c0.2-0.3,0.4-0.6,0.7-1
			c3-3.1,6.7-4,11.2-2.7c0.1,0.1,0.3,0.2,0.4,0.4c1.3,1,2.6,1.8,4.1,2.6c0.6-0.2,1.2-0.6,1.6-1c0.8-0.8,1.4-1.6,2-2.6
			c0-0.8,0-1.5-0.1-2.3c-0.1-2-0.8-3.8-2.2-5.2c-0.8-0.1-1.5-0.1-2.3-0.2c-2.5,0.7-4.5,1.7-6.1,3.3c0.1-0.1,0.2-0.1,0.3-0.1
			c0,0.1,0,0.1-0.1,0.2c-0.7-0.2-1.4-0.2-2.1-0.2c-3,0.6-5.8,2-8.2,3.8c-1.6,1.3-2.6,2.7-3,4.1c-0.1-0.2-0.2-0.4-0.3-0.6
			c-2.5-4.6-6.5-7.2-12-7.7c-0.2-0.2-0.5-0.4-0.7-0.6c-1.2-1-2.4-2-3.5-3c-0.5-0.1-0.9-0.1-1.3-0.2c-0.4,0.2-0.7,0.5-1,1
			c-0.5,0.8-1.1,1.5-1.9,2.2c-0.6,1.2-0.7,2.6-0.5,4.1c0.4,2.4,1.7,4,3.9,5c0.2-0.1,0.4-0.2,0.7-0.3c2.7-1.3,3.8-2.7,3.4-4.1
			c0.5,0.1,1,0.3,1.4,0.5c1.1,0.5,2.2,0.9,3.1,1.1c1.9,1.2,3.7,2.8,5.3,4.9c0.1,0.2,0.1,0.3,0.2,0.5c-0.2,0.3-0.2,0.5-0.1,0.6
			l-0.1,0.1c-2.9-3.1-6.5-4.6-10.9-4.6c-0.9,1.1-1.4,2.3-1.7,3.8c-0.7-0.3-1.4-0.3-2.3-0.1c-0.2,0-0.5,0.1-0.7,0.2
			c-1.4,0-3,0.4-4.7,1.4c-0.2-0.1-0.4-0.1-0.6-0.1c-0.1,0-0.2,0.1-0.3,0.2c-0.2,0-0.4,0-0.6,0c0,0,0,0-0.1-0.1
			c-1.4-0.8-2.9-1.2-4.5-1.3c-0.6,0.2-0.9,0.7-0.8,1.6c0,1.5,0.2,2.9,0.6,4.4c0.3,1.6,1.1,3.2,2.2,4.5c0.3,0.2,0.5,0.3,0.7,0.5
			c1.7,1.1,3.3,1.1,4.8,0c0.1-0.2,0.1-0.5,0.1-0.7c0-0.8,0.1-1.5,0.4-2.1c0-0.1,0-0.2,0.1-0.2c0.1,0.1,0.3,0.2,0.4,0.3
			c0,0.4,0,0.8,0,1.1c0,0.4,0,0.7,0,1.1c0,0,0,0,0,0.1c-0.2,0.1-0.3,0.2-0.5,0.3c-0.9,0.8-1.3,1.7-1.2,2.6c1.6-0.2,3.1-0.3,4.4-0.3
			c-0.4,0.5-0.9,0.9-1.3,1.5l0,0c-0.4,0.5-0.8,1-1.1,1.5c-3.4,3.7-5.9,8.2-7.3,13.4c-0.8,3.3-1.1,6.3-0.6,8.9
			c-3.8-2.1-7.9-3.6-12.4-4.6c-2.8,4.2-3,8.9-0.3,14c2.5,5,6,8.6,10.2,10.7c-0.2,0.1-0.5,0.1-0.8,0.2c-2.1,0.3-3.9,1.1-5.3,2.5
			c0.2,0,0.4,0,0.6-0.1c1.8-1,3.8-1.8,6-2.4c0.6,0.3,1.3,0.6,2,0.8c-1.1,0.4-2,1.1-2.8,1.9c0.3,0.5,0.7,0.5,1.5,0.1
			c0.6-0.4,1.3-0.8,1.9-1.3c0.4-0.1,0.7-0.1,1.1-0.2c1.1,0.2,2.3,0.5,3.6,0.6c-0.8,0.4-1.4,0.8-1.9,1.3c0.1,0,0.3,0,0.5,0
			c1.4-0.3,2.7-0.7,4.1-1.1c0.6,0,1.3,0,2.1-0.1c-0.3,0.2-0.6,0.4-0.9,0.6l0.1,0.2c0.6-0.3,1.3-0.6,2-0.9c0.2,0,0.5,0,0.7-0.1
			c1.7-0.2,3-0.8,3.7-1.8c2.8-1.2,5.6-2.3,8.5-3.3c0.2,0.1,0.4,0.2,0.5,0.4c-3.5,1.4-6.6,3.2-9.5,5.5v0.2c3.7-1.6,7.4-3.2,10.9-4.9
			c0.4,0.2,0.8,0.3,1.2,0.5c-2.8,1-5.1,2.6-6.9,4.7c1.2-0.3,2.5-0.7,3.8-1.2c2.7-1.1,4.8-2.1,6.2-3.2c2-0.1,4-0.9,6.2-2.3
			c-0.1-0.2-0.1-0.2-0.2-0.2c-0.2,0.1-0.5,0.2-0.7,0.3c-0.1-0.1-0.1-0.1-0.1-0.2c0.5-0.1,1-0.2,1.5-0.2c0.3-0.2,0.7-0.3,1-0.5
			c0.1,0,0.2,0,0.2,0c0.9-0.4,1.8-0.7,2.7-0.9c-0.2,1.4-0.1,3,0.3,4.6c-3.1,0.8-5.4,2.3-6.9,4.7c0.2-0.1,0.4-0.3,0.7-0.4
			c1.9-1.6,4-2.8,6.4-3.6c0.2,0.6,0.4,1.3,0.7,2c0.2,0,0.3,0.1,0.4,0.1c-0.6,0.4-1.1,0.9-1.5,1.5v0.2c1.5-0.1,2.6-0.5,3.5-1.1
			c3.3,0.8,6.7,0.6,10.2-0.5c-0.5,0.2-1,0.5-1.4,0.8c0.7,0.1,1.5,0.2,2.2,0.2c0,0,0.2,0,0.3-0.1c3.8-1.8,7.4-3.8,10.8-5.9
			c0,0,0,0-0.1,0.1c-1.5,0.4-3.1,1-4.6,1.5c6.4-4,10.2-9.9,11.5-17.7C88.017,69.3,88.017,69.2,87.917,69.1z M78.217,37.7
			c-0.1,0.1-0.2,0.2-0.2,0.4c-0.2,0.2-0.3,0.4-0.5,0.6c-0.6,0.7-1.2,1.3-1.8,2c-1.6,0.6-3.2,0.8-4.9,0.3c0-0.2,0-0.5,0-0.7
			c0-0.3,0-0.5,0-0.8c0-0.3,0-0.7,0-1c0.2,0.4,0.9,0.6,2.2,0.7c-0.1-0.2-0.2-0.3-0.3-0.4c-0.3-0.6-0.7-1.1-1.2-1.5
			c-0.1,0-0.2,0-0.3,0.1l0,0c-1.1-1.1-2.4-1.9-3.8-2.4c-2.4-1.3-4.9-1.5-7.7-0.6c0.2-0.9,0.3-1.7,0.3-2.6c3.6-0.5,6.9,0.2,10,2
			l0.2-0.1c1.8,0.6,3.2,1.6,4.5,3l0,0c0-0.2,0-0.3,0-0.4c-0.1-0.1-0.1-0.2-0.2-0.4C76.017,36.2,77.317,36.7,78.217,37.7z M80.717,67
			c3,0.2,4.8,1.6,5.6,4.3c-0.3,2-1.1,4-2.3,5.7c-6.5,9.6-15.3,13.5-26.4,11.5c-0.2-0.1-0.4-0.4-0.5-0.6c0.1,0,0.2,0,0.4-0.1
			c-0.1-0.1-0.1-0.1-0.2-0.2c-0.1,0-0.3,0-0.5-0.1c-0.3-0.6-0.4-1.2-0.2-1.9c0.1-0.9,0.2-1.8,0.4-2.7c0.4-0.6,0.8-1.3,1.2-1.9
			c2.9-5,7-8.6,12.5-10.6c0,0,0,0,0.1-0.1c2.7-1.8,5.7-2.9,9-3.4C80.117,67,80.417,67,80.717,67z M60.117,20
			c-0.1-0.1-0.2-0.2-0.4-0.2c-0.5-0.3-1.1-0.5-1.8-0.7c0.6-0.2,0.8-0.4,0.8-0.7c1.9-0.3,3.7-0.8,5.6-1.2c0.6,0.3,0.8,0.8,0.8,1.5
			c0,0.1,0.1,0.2,0.1,0.3c0.3,0.3,0.5,0.6,0.7,0.8c0.1,0.1,0.1,0.2,0.2,0.4c0,0.6-0.1,1.2-0.2,1.8c-0.3,1.5-1.1,2.5-2.4,3.2
			c-0.8-0.1-1.4-0.4-1.9-0.8c-0.4-0.4-0.9-0.7-1.2-1.2c0.3,0,0.6-0.1,0.8-0.3c-0.1-0.1-0.2-0.2-0.4-0.2c-0.8-0.1-1.6-0.2-2.5-0.3
			c-6.5-1.1-10.8,1.1-12.7,6.9c-0.2,0-0.3,0.1-0.4,0.1c0,0.3-0.1,0.6-0.1,0.9c0,0.1,0,0.2,0.1,0.3c-0.5-0.2-0.9-0.4-1.4-0.5
			c0.4-0.9,0.8-1.9,1.4-2.9C49.017,21.6,53.917,19.2,60.117,20z M46.417,32c0-0.1,0-0.2,0-0.3c3.3-2.7,7.2-4.1,11.7-4.3
			c0.1,0.8,0.2,1.5,0.3,2.3c0.2,3-0.4,5.7-1.8,8.2c-0.4,0.3-0.8,0.5-1.1,0.8c-0.2,0.1-0.3,0.2-0.4,0.4c-0.8,0.1-1.6,0.3-2.4,0.7
			c-0.3-0.1-0.6-0.2-0.9-0.4c-2.1-0.9-3.9-2.3-5.3-4.1c-0.1,0-0.1,0-0.1,0c0-0.5,0-0.9,0-1.4c0.8,0.2,1.6,0.3,2.3,0.4
			c0.6,0.5,1.2,1,1.8,1.4c0.8,0.5,1.5,0.5,2.1-0.2c0.1-0.6-0.3-1-1.2-1.1c-0.8-0.1-1.4-0.5-1.9-1.1c-0.5,0-0.9,0-1.3-0.1
			c1.6-0.6,3.2-1,4.8-1.2c-0.1-0.1-0.2-0.2-0.3-0.2c-0.7-0.3-1.3-0.5-2-0.6c-0.1,0-0.3,0.1-0.5,0.1c-1.6,0.1-2.8,0.7-3.4,1.9
			c0,0,0,0-0.1,0c0,0-0.1,0-0.2,0.1c-0.1-0.4-0.1-0.8-0.1-1.2c0.1,0,0.1,0,0.1-0.1C46.417,32,46.417,32,46.417,32z M37.917,33.1
			c-0.3-0.1-0.7,0-1.2,0.1c-0.7,0.3-1.4,0.8-2.1,1.3c-0.1,0.1-0.2,0.3-0.3,0.5l0.1,0.2c1.7-0.7,3.4-1,4.9-0.8
			c0.1,0.4,0.1,0.8,0.2,1.1c-0.1,0-0.2,0-0.3,0c-0.1,0.1-0.2,0.1-0.2,0.1c0.2,0.1,0.4,0.2,0.6,0.3c0.1,0.4,0.2,0.8,0.2,1.1
			c0,0.2,0,0.3,0,0.4c-1.7,1.4-3.7,2.3-5.8,2.9c-1-0.5-1.9-1.1-2.7-1.9c-0.1,0-0.2,0-0.3,0c-0.1-0.1-0.2-0.1-0.3-0.2
			c-0.1,0-0.2-0.1-0.4-0.3c-1.1-1.9-1.6-4-1.5-6.4c0-1.4,0.4-2.8,0.9-4.1c0.1-0.1,0.1-0.2,0.1-0.2c0.8-0.1,1.5-0.2,2.3-0.3
			c1.4,0.7,2.7,1.5,4,2.5c1.3,1,2.5,1.6,3.5,1.6c-0.2,0.5-0.3,1.2-0.4,1.8c-1.7-1.5-3.9-2-6.5-1.6l-0.4,0.1
			C34.217,31.9,36.017,32.5,37.917,33.1z M40.717,28.4c-0.2,0-0.3,0-0.4,0c-1.7-3.7-4.5-5.9-8.5-6.5c-1-0.3-2-0.5-3.1-0.6v0.1
			c-0.1,0-0.2,0-0.2,0.1c-0.1,0-0.2,0.1-0.2,0.2c-0.1,0-0.1,0-0.1,0l-0.4,0.1c0.1,0,0.2,0,0.2,0c-0.2,0.1-0.4,0.2-0.5,0.2
			c0,0.2,0,0.2,0,0.2c0.3,0.1,0.8,0.3,1.2,0.3c0.1,0,0.1-0.1,0.3-0.1c0.2-0.1,0.5-0.2,0.7-0.2c0.1,0,0.1,0,0.1,0
			c-0.1,0.1-0.2,0.2-0.3,0.3c-0.8,1.4-2.1,2.3-3.8,2.4c-0.2-0.2-0.5-0.5-0.8-0.7c-0.4-0.5-0.8-1-1.1-1.5c0-0.4,0-0.8-0.1-1.1
			c-0.1-0.3-0.2-0.6-0.4-0.8c0.1-0.4,0.2-0.8,0.4-1.2c0.1-0.2,0.1-0.4,0.1-0.7c0.4-0.3,0.6-0.7,0.9-1.2c0.2-0.5,0.6-1,1.1-1.4
			c0.4,0.1,0.7,0.3,1,0.5c1.3,0.7,2.5,1.7,3.5,2.9c2.1,0,4.1,0.5,5.8,1.5c3.7,2.1,6,4.8,7.2,8.1c-0.3-0.1-0.6-0.1-0.9-0.3
			c0.1,0.3,0.2,0.6,0.2,0.9c-0.5-0.1-1-0.1-1.6-0.1c0-0.4-0.1-0.9-0.1-1.3C40.817,28.4,40.717,28.4,40.717,28.4z M41.017,32.4
			c0-0.1,0-0.2,0-0.4c0.3-1,1.1-1.1,2.4-0.3c0.5,0.3,1,0.6,1.6,0.8c0,0.4,0,0.8,0,1.2c0.1,0.5,0,1-0.3,1.5c-0.1,0.1-0.2,0.2-0.2,0.3
			v0.1c-1-0.1-1.9-0.2-2.9-0.2c-0.1,0-0.4-0.1-0.6-0.2V35c0-0.3,0-0.7,0-1.1C41.017,33.4,41.017,32.9,41.017,32.4z M47.017,37.7
			c-0.1-0.1-0.1-0.1-0.2-0.2v-0.1c1.5,2.3,3.9,3.8,7.3,4.4c0.1-0.1,0.2-0.2,0.3-0.2c0.2-0.2,0.4-0.3,0.5-0.4
			c0.6,0.4,1.1,0.7,1.6,1.1c-0.3-0.1-0.5-0.1-0.8-0.1c3,1.7,6,4,8.9,6.9c4.3,4.3,6.1,9.2,5.3,14.8c-0.2,1.6-0.7,3.3-1.3,4.9
			c-1.9,1.1-3.8,2.4-5.6,3.6c-4,2.9-6.4,6-7.2,9.5c-1.1,0.4-2.2,0.8-3.3,1c-0.1,0.1-0.2,0.1-0.3,0.1c-4,1-8.6,1-13.9,0.2
			c-2.7-0.4-5.1-1-7.5-1.8c-0.6-0.4-1.3-0.6-2.1-0.7l-0.2,0.1c-0.1,0-0.1-0.2-0.2-0.2c-0.2-0.5-0.5-0.9-0.6-1.4
			c-0.1-0.2-0.2-0.3-0.4-0.4c-3.4-4.2-7.2-7.5-11.5-10.1c-0.2-0.9-0.2-1.9-0.1-2.9c0.8-9.8,4.6-17.4,11.4-22.9h0.1c0,0,0,0-0.1,0
			c0.1-0.1,0.2-0.2,0.2-0.2c1.3-0.7,2.5-1.3,3.8-1.9c1,0.9,2.2,1.4,4,1.5c0.1-0.1,0.2-0.1,0.3-0.2c3-0.9,4.9-2.4,5.7-4.3
			C43.117,37.4,45.117,37.3,47.017,37.7z M65.117,38.2c-0.2,0.1-0.3,0.2-0.4,0.3c0,0.7,0,1.3,0,1.9c0,0.1,0,0.1,0,0.1
			c-1.8-1.4-3.8-2.5-6.1-3c0-0.1,0-0.1,0-0.1c0.4-0.7,0.6-1.5,0.9-2.2c2.7,0,5.3,0.5,7.9,1.3c0.3,0.3,0.6,0.5,1,0.8
			c-0.8-0.1-1.5-0.1-2.2-0.1l0,0c-0.2,0.1-0.3,0.2-0.5,0.3C65.517,37.7,65.217,37.9,65.117,38.2z M57.217,39.5
			c0.5-0.5,0.9-1,1.2-1.6c2,1.3,4.1,2.4,6.4,3.2c0.1,0.2,0.1,0.3,0.2,0.4c0,0.2,0.1,0.3,0.2,0.4c-0.3,0.1-0.6,0.1-1,0
			c-0.6-0.1-1.3-0.1-2-0.2c-0.3,0-0.5,0-0.7,0.1c-0.4,0.2-0.7,0.6-0.9,0.9c-1.1-1.1-2.4-2.1-3.7-3
			C57.017,39.7,57.117,39.6,57.217,39.5z M60.117,34.6c-0.2,0-0.4,0.1-0.5,0.2c0,0,0-0.1,0.1-0.2
			C59.817,34.6,59.917,34.6,60.117,34.6z M70.817,37.9h0.1c-0.1,0.1-0.1,0.1-0.1,0.1S70.817,38,70.817,37.9z M14.717,35.5
			c-0.4-1.4-0.6-2.9-0.4-4.6c0.6,0.2,1.2,0.4,1.7,0.7c0.3,0.2,0.7,0.4,1.1,0.6c-0.2,0.2-0.2,0.5-0.1,0.8c0.3,0,0.7-0.1,0.9-0.2
			s0.4-0.2,0.5-0.3c0.4,0.1,0.7,0.2,1.1,0.2c2.4-1.4,5-2,7.7-1.8c0,0.5-0.1,0.9-0.1,1.4c0,0.4,0,0.7,0.1,1c-0.1,0-0.2-0.1-0.2-0.1
			c-0.8-0.1-1.5-0.2-2.1-0.4c-0.4,0-0.8-0.1-1.2-0.3c-0.7,0.2-1.5,0.5-2.1,0.9c-0.1-0.1-0.2-0.2-0.4-0.2s-0.4,0.1-0.5,0.3
			c-1,0.7-1.6,1.6-2,2.7c0.6,0.2,1.1,0.2,1.7,0c0,0.1,0,0.2,0,0.3c-0.1,0-0.1,0.1-0.1,0.2h0.1c-0.1,0.4-0.2,0.8-0.2,1.1
			c-0.1,0.5-0.1,1-0.1,1.5c-0.4,0.1-0.8,0.2-1.2,0.1C16.717,38.9,15.317,37.6,14.717,35.5z M21.817,35.3c0.2-0.1,0.3-0.2,0.4-0.3
			c1.2-0.8,2.5-1,3.9-0.6c0,0.1,0.1,0.1,0.1,0.1c0.1,0.1,0.2,0.2,0.3,0.3c0.1,0.1,0.2,0.2,0.3,0.4c0.2,0,0.4,0,0.5,0
			c0.5,1.8,1.4,3.1,2.7,3.9c-0.7,0.3-1.3,0.7-2,1.2c-0.8,0.5-1.5,1-2.1,1.6c-0.9-0.6-1.8-1-2.7-1.2c0-0.1,0-0.1,0-0.2
			c0.3-0.1,0.5-0.3,0.7-0.5c1.2-1.3,2.8-2,4.6-2.2c-0.1-0.1-0.2-0.2-0.2-0.2c-0.8-0.2-1.7-0.3-2.6-0.3c-0.9,0.3-1.7,0.9-2.5,1.6
			c0-0.6,0-1.1,0-1.6c0-0.1-0.1-0.2-0.2-0.3c-0.4-0.2-0.7-0.4-1.1-0.7C21.917,35.9,21.917,35.6,21.817,35.3z M1.317,69.7
			c0-0.2,0-0.3,0.1-0.4c0.1-1.2,0.3-2.3,0.6-3.4c0.1-0.1,0.2-0.2,0.3-0.4c0.2-0.1,0.3-0.2,0.4-0.3c12.3,3,21.2,10.1,26.8,21.3
			c-0.3,0.5-0.5,0.9-0.8,1.3c-0.7,0.3-1.4,0.7-1.9,1.1c-1.4,0.1-2.7,0.1-4,0C10.517,87.9,3.417,81.5,1.317,69.7z M29.817,82.2
			c0,0.2,0,0.3,0,0.4c0.4,0.1,0.7,0.2,1,0.3c1.4,0.2,2.8,0.6,4.1,1.2c0.1,0,0.2,0,0.2,0.1l0,0c0.2,0.1,0.4,0.2,0.6,0.3
			c0-0.1,0-0.2,0-0.2c0.5,0.1,0.9,0.2,1.4,0.2c-2.2,0.6-4.3,1.3-6.3,2.2c0.1-0.6,0.1-1.2,0-1.9c-0.4-0.3-0.7-0.7-0.9-1.1
			c-0.3-0.8-0.6-1.6-1.1-2.4C29.217,81.7,29.517,82,29.817,82.2z M42.617,85.4c0.1-0.1,0.3-0.2,0.5-0.3c2,0.1,4-0.1,6.1-0.3
			c0,0,0,0.1,0,0.3c-0.8,0.2-1.7,0.3-2.5,0.4c0,0,0,0,0-0.1c0,0.1-0.1,0.1-0.1,0.1C45.217,85.6,43.917,85.6,42.617,85.4z"/>
		<path style="fill:#BE3689;" d="M35.317,46.1c-0.3-0.1-0.6,0-0.7,0.3c-0.3,0.9-0.2,1.8,0.1,2.6c0.2,0.2,0.4,0.3,0.6,0.5
			c-0.3,0.1-0.7,0.3-1,0.5c-0.7-0.2-1.3-0.6-2-0.9c0-0.2,0-0.3,0-0.4c0.1-0.4,0-0.8-0.2-1.2c-0.3,0.1-0.3,0.1-0.4,0.2
			c-0.5,0.8-0.5,1.5-0.1,2.2c0.4,0.4,0.9,0.8,1.4,1c-0.2,0.1-0.3,0.2-0.5,0.3c-1,0-1.8-0.5-2.5-1.5c-0.4-0.1-0.7,0-0.7,0.4
			c-0.1,0.9,0.4,1.5,1.4,1.9c0.2,0.1,0.4,0.2,0.6,0.2c-4.8,4.4-5.1,9.3-0.8,14.5c4.6,1.7,8.8,1.3,12.7-1.4c2.3,2.5,5.3,3.2,8.9,2.2
			c5.6-1.6,7.6-5.1,6.3-10.5c-0.2-0.1-0.2-0.3-0.3-0.4c-0.7-1.6-1.6-2.9-2.7-4c0.2,0,0.4-0.1,0.6-0.2c0.1-0.1,0.3-0.2,0.4-0.3
			c1-0.8,1.2-1.7,0.6-2.6h-0.1c-0.7,1-1.7,1.6-2.9,2c-0.3-0.3-0.7-0.5-1-0.7c0.4-0.4,0.9-0.8,1.4-1.3c0-0.1,0-0.2,0-0.4
			c0.1-0.6,0.1-1.3-0.3-1.8h-0.2c-0.4,1.7-1.3,2.6-2.6,2.7c-0.1,0-0.1,0-0.1,0c0-0.1,0-0.1,0.1-0.2c0.6-1.1,0.8-2.2,0.6-3.4
			c-0.9,0.5-1.6,1.5-2,3.1c-0.1,0-0.1,0-0.1,0.1c-1-0.2-1.9-0.3-2.9-0.4c-0.3,0.1-0.7,0.3-1.1,0.4c-0.8,0.4-1.4,0.9-1.8,1.7
			c-0.1,0.1-0.1,0.1-0.2,0.2c-2-2.1-4.1-3-6.4-2.7c-0.4-0.3-1-0.6-1.9-0.7c0-0.2,0-0.3,0.1-0.4C35.817,47,35.717,46.5,35.317,46.1z
			 M28.617,59.9c0-0.1,0-0.2,0.1-0.3c1.1-4.8,4.1-7.9,9.1-9.5c0.6,0,1.2,0,1.8,0c0.2,0.2,0.4,0.3,0.6,0.5c1.1,1,2.2,1.9,3.1,2.6
			c0.1,0,0.2,0,0.2,0c0.5,0.2,1,0.4,1.4,0.5c0.2-0.2,0.4-0.6,0.6-0.9c0.2-0.6,0.5-1.1,0.8-1.5c4.9-0.3,8.4,1.8,10.4,6.5
			c0.1,0.6,0.2,1.3,0.2,1.9c0.3,3-1.1,5.1-4.1,6.4c-3.9,0.9-7.1-0.1-9.5-3.1C36.017,68.2,31.117,67.2,28.617,59.9z"/>
		<path style="fill:#BE3689;" d="M42.717,57.7c0,0.1,0,0.1-0.1,0.1c-3.4,1.2-6.5,1.4-9.4,0.6c0.7,1.3,2.1,1.9,4.3,1.7
			C41.917,59.8,43.717,59,42.717,57.7z"/>
		<path style="fill:#BE3689;" d="M53.617,58.6c-0.4,0.3-0.9,0.5-1.4,0.6c-3.1,0.6-5.8,0.2-8.3-1.1c0,0.6,0.3,1.1,1,1.3
			C49.517,61.2,52.417,60.9,53.617,58.6z"/>
		<path style="fill:#BE3689;" d="M44.717,76.5c0-0.1,0-0.2,0-0.3c-0.5-1.6-1.7-2.5-3.5-2.5c-0.3,0.1-0.7,0.4-1,0.8
			c-0.6,0.6-0.9,1.4-1,2.3c0.3,0.2,0.5,0.3,0.8,0.5C41.917,78.4,43.517,78.1,44.717,76.5z M42.017,75c0.4,0.1,0.7,0.3,1.1,0.6
			c-0.5-0.4-1.1-0.6-1.6-0.6c0,0,0,0,0.1,0C41.717,75,41.817,75,42.017,75z"/>
		<path style="fill:#BE3689;" d="M39.217,78.9l-0.1,0.1c1.7,2,3.9,2.3,6.5,0.7c-0.1-0.2-0.1-0.3-0.2-0.4c-0.3-0.4-0.6-0.3-1.1,0.4
			c-1.1,0.1-2.2-0.1-3.2-0.3C40.517,79.3,39.917,79.1,39.217,78.9z"/>
		<path style="fill:#BE3689;" d="M85.017,87.8c-0.1-0.1-0.2-0.2-0.2-0.2c-0.7-0.2-1.4-0.3-2.1-0.3c-1,0.3-2.1,0.7-3.1,1.3
			c-0.8,0.3-1.3,0.9-1.6,1.7c0.7,0.1,1.3-0.1,1.9-0.5C81.317,88.6,83.017,88,85.017,87.8z"/>
		<path style="fill:#BE3689;" d="M49.017,0.2c-1-0.1-1.9-0.1-2.8-0.2c-5.1,0.3-9.2,2.2-12.5,5.8c-0.6,5.9,2.1,9.2,8,9.7
			c0.4,0.9,0.7,1.9,1,3c0.1,0.6,0.1,1.2,0,1.9c0.4,0.3,0.7,0.6,1,1c0.1,0.1,0.3,0.3,0.5,0.3c0.6-1,0.9-2.1,0.9-3.3
			c0.1-1,0.3-2,0.6-3c0.8-0.3,1.5-0.7,2.1-1.1c0.6-0.3,1.2-0.6,1.8-0.8c0.4-0.7,0.8-1.5,1.2-2.2C53.217,6.9,52.617,3.2,49.017,0.2z
			 M49.817,2.4c0.9,1.1,1.3,2.3,1.3,3.7c0.1,2.2-0.5,4.2-1.9,5.9c-0.4,0.4-0.9,0.8-1.3,1.1c-0.9,0.7-1.9,0.9-2.9,0.7
			c-0.3,1-0.4,2-0.5,3c0,1-0.2,1.8-0.8,2.5c0-0.8-0.1-1.6-0.2-2.4c-0.1-0.8-0.4-1.6-0.8-2.2c-1.1-0.2-2.2-0.5-3.3-0.9
			c-3.5-1.2-5.1-3.7-4.7-7.5c0.1-0.1,0.2-0.2,0.4-0.4c2.6-2.2,5.6-3.7,9.1-4.5C46.217,1.2,48.117,1.5,49.817,2.4z"/>
		<path style="fill:#BE3689;" d="M42.217,9.5c1.1-0.5,2.1-1.2,3.1-1.9c0.5-0.3,0.7-0.7,0.5-1.2c-0.2-0.1-0.4-0.1-0.6-0.1
			c-1.3-0.1-2.6-0.1-4-0.1c-1,0.2-1,0.5,0.1,0.8c0.7,0.2,1.4,0.3,2.2,0.4c-0.1,0.1-0.2,0.2-0.3,0.2c-0.9,0.5-1.7,1.2-2.3,2.1
			c0,0.1-0.1,0.2-0.1,0.3c0.1,0.2,0.1,0.2,0.2,0.3c2,0.8,3.8,0.7,5.2-0.1c-1.1-0.8-2.5-0.9-4.1-0.6L42.217,9.5z"/>
		<path style="fill:#BE3689;" d="M1.517,90.3c0.3,0,0.6-0.1,0.8-0.2c1.9-1,3.9-1.7,6.2-2.3c-0.1-0.1-0.1-0.1-0.2-0.2
			c-0.5-0.1-1-0.1-1.6-0.2c-0.2,0.3-0.5,0.5-1,0.6C3.817,88.5,2.417,89.3,1.517,90.3z"/>
		<path style="fill:#BE3689;" d="M41.017,91.8c0.3,0,0.7-0.1,1-0.2c2.6-0.9,5.2-2,7.7-3c2-0.9,3.4-1.8,4.4-2.7
			c0.7-0.7,1.1-1.4,1.1-2.1c0,0.1,0,0.1,0,0.1c-0.6,0.2-1.2,0.5-1.8,0.8c-0.1,0-0.1,0-0.2,0C48.917,86.7,44.817,89,41.017,91.8z"/>
	</g>
</g>
</svg>
