<?xml version="1.0" encoding="iso-8859-1"?>
<!-- Generator: Adobe Illustrator 12.0.1, SVG Export Plug-In . SVG Version: 6.00 Build 51448)  -->
<!DOCTYPE svg PUBLIC "-//W3C//DTD SVG 1.1//EN" "http://www.w3.org/Graphics/SVG/1.1/DTD/svg11.dtd" [
	<!ENTITY ns_svg "http://www.w3.org/2000/svg">
	<!ENTITY ns_xlink "http://www.w3.org/1999/xlink">
]>
<svg  version="1.1" id="Layer_1" xmlns="&ns_svg;" xmlns:xlink="&ns_xlink;" width="89.924" height="94.34"
	 viewBox="0 0 89.924 94.34" style="overflow:visible;enable-background:new 0 0 89.924 94.34;" xml:space="preserve">
<g>
	<path style="fill:#BE3689;" d="M82.8,89.8c1.1-0.3,2.3-0.8,3.5-1.2c0-0.1-1.5-1.5-4.5-4.4c-3-2.8-8.8-4.6-17.3-5.3
		c-2.5,0.5-5,1.1-7.6,2c-0.8,0.2-1.5,0.6-2,1.1c0,0,0,0-0.1,0c-0.2-1.1-0.7-2.1-1.5-2.8c0.9-0.3,1.8-0.5,2.7-0.8
		c5.9-2,10-6.1,12.2-12.4c3.7-10.8,1.2-19.5-7.7-26c-0.2-0.2-0.4-0.5-0.6-0.8c1.3-1,2.8-0.9,4.5,0.3c0.6,0.5,1.1,0.4,1.6-0.2
		c-0.2-0.9-0.7-1.6-1.4-2.4c-0.2-0.3-0.4-0.6-0.6-1c0-0.4,0-0.8,0.1-1.1c0.1-0.2,0.2-0.2,0.3-0.3c1.1-0.3,2.1-0.6,3.1-0.8
		c0.1,0.1,0.2,0.3,0.4,0.4c0,0.4,0,0.8,0,1.2c0,0.2,0,0.5-0.1,0.7c-0.1,0.8,0.1,1.4,0.5,1.9c5.9,1.4,9.2-0.6,9.8-6
		c-1.8-1.1-3.9-1.8-6.2-2c-0.3-0.3-0.7-0.6-1.1-1h-0.2c-0.4-0.4-0.8-0.6-1.3-0.8c-0.4,0-0.6,0-0.8,0c-1.9-1.8-4.6-2.6-8-2.5
		C60.1,25.9,59.6,26,59,26c-0.3,0-0.5,0.1-0.7,0.1c-0.2-1.5-0.5-3-1.2-4.5c-0.1-0.1-0.2-0.1-0.4-0.2c-0.9-0.1-1.8-0.2-2.7-0.3
		c-4.2,0.5-7.4,2.5-9.3,5.9c-0.1,0-0.1-0.1-0.1-0.1c0-0.5,0.2-0.8,0.5-1.1c0-0.4,0-0.8,0-1.2c0-0.5,0-1,0-1.5
		c0.2-0.2,0.3-0.5,0.5-0.7c1.1-2.3,2.6-4.3,4.7-6c0.2-0.1,0.4-0.1,0.5-0.1c2.4,1.3,5,1.6,7.8,0.8c0.2-0.2,0.4-0.5,0.4-0.7
		c0.8-4-0.3-7.2-3.2-9.8c-0.5,0-0.9,0-1.3-0.1c0,0.1,0,0.1,0,0.1c-2.1,1.3-3.5,2.8-4.2,4.5c-0.4,0-0.5,0-0.5,0.3
		c0.1,0.2,0.1,0.4,0.2,0.6c-0.1,0.1-0.1,0.2-0.1,0.3c-0.3-0.1-0.6-0.1-0.9-0.2c-1.5,0.9-2.9,2.1-4.3,3.5c-1.9,2.1-3,4.2-3.4,6.3
		c-0.7-3.1-2.3-5.9-4.8-8.4c0.2-0.7,0.2-1.5,0.1-2.2c-0.1-1.7-0.7-3-1.8-4.2c-0.8,0-1.5,0-2.3-0.1c-0.2,0.1-0.4,0.2-0.8,0.3
		c-4.8,1.7-6.4,5-4.9,9.7c2,0.9,4,0.9,6,0.1c0.5,0.4,1,0.8,1.5,1.2c0-0.2-0.1-0.3-0.1-0.4c-0.1,0-0.1,0-0.1-0.1
		c2.4,2.2,3.9,4.7,4.6,7.7c0,0-0.1,0-0.2,0c0,0.1,0,0.1-0.1,0.2c-2.9-3.1-6.5-4.6-10.9-4.6c-1,1.4-1.7,3-1.9,4.9
		c-2-1.4-4.5-1.3-7.5,0.4c-0.2-0.1-0.4-0.1-0.6-0.1c-0.1,0-0.2,0.1-0.3,0.2c-0.2,0-0.4,0-0.6,0c0,0,0,0-0.1-0.1
		c-1.4-0.8-2.9-1.2-4.5-1.3c-0.6,0.2-0.9,0.7-0.8,1.6c0,1.5,0.2,2.9,0.6,4.4c0.3,1.7,1.1,3.2,2.2,4.5c0.3,0.2,0.5,0.3,0.7,0.5
		c1.7,1.1,3.3,1.1,4.8,0c0.1-0.2,0.1-0.5,0.1-0.7c0-0.8,0.1-1.5,0.4-2.1c0,0,0-0.2,0.1-0.2c0.1,0.1,0.3,0.2,0.4,0.3
		c0,0.4,0,0.8,0,1.1c0,0.4,0,0.7,0,1.1c0,0,0,0,0,0.1c-0.2,0.1-0.3,0.2-0.5,0.3c-0.9,0.8-1.3,1.7-1.2,2.6c1.6-0.2,3.1-0.3,4.4-0.3
		c-0.4,0.5-0.9,0.9-1.3,1.5l0,0c-0.4,0.5-0.8,1-1.1,1.5c-3.4,3.7-5.9,8.2-7.3,13.4c-2.3,9,0.2,15.7,7.6,20.1c2.6,1.5,5.3,2.8,8,3.7
		c-0.2,0.2-0.3,0.4-0.6,0.5c0,0.3,0,0.5-0.1,0.7c-0.3,0.7-0.5,1.4-0.4,2.3c-0.3-0.1-0.6-0.3-0.9-0.5c-0.2-0.1-0.3-0.1-0.2,0.1
		c0,0,0.1,0.1,0.2,0.3c-3.6-2.4-7.8-3.4-12.6-3.1c-1.3,0.4-2.6,0.7-3.9,1.1c-1.2,0.2-2.9,1.3-5,3.3c-2.2,2-3.5,3.4-4,4.1
		c-0.7,0.8-0.9,1.8-0.5,2.8c0.1,0.3,0.2,0.5,0.3,0.8c0.5,0.1,1.1,0.2,1.7,0.2c-1.4,0.3-2.5,1-3.1,2.2c0.1,0.1,0.2,0.2,0.2,0.1
		c2.6-0.2,4.1-0.9,4.3-2.1c1.1,0.2,2.2,0.3,3.4,0.4c-1.4,0.4-2.6,1-3.8,1.9c0.1,0.2,0.1,0.2,0.1,0.2c2.7-0.4,4.6-1,5.7-2
		c1.2,0.1,2.4,0.1,3.6,0.2c-1.2,0.4-2.4,1-3.5,1.8c0.4,0.6,1.1,0.7,1.9,0.3c0,0,0.2-0.1,0.3-0.1c2-0.6,3.5-1.2,4.5-2
		c1.3,0,2.6,0,3.9,0c-1,0.5-2,1-3,1.6c0.3,0.2,0.6,0.2,0.8,0.2c1.9-0.6,3.8-1.3,5.6-2c1.8-0.2,3.5-0.4,5.3-0.6
		c-1.7,0.8-3.2,1.7-4.8,2.6c0.1,0.1,0.2,0.2,0.3,0.2c0.4,0.2,0.8,0.3,1.2,0.3c0.1-0.2,0.3-0.3,0.4-0.3c2.7-1.3,5.5-2.5,8.3-3.7
		c0.8-0.1,1.7-0.3,2.6-0.5c0-0.2,0-0.4-0.1-0.6c1.9-0.8,3.7-1.6,5.6-2.4c-0.2-0.2-0.4-0.3-0.6-0.3l0,0c1.5-0.8,3-1.4,4.4-1.9
		c0.4-0.1,0.8-0.2,1.1-0.3c-0.3,0.4-0.6,0.9-0.8,1.5c-5.4,1.8-9.8,4.5-13.1,7.8c0.2,0.1,0.4,0.1,0.6,0c4.8-2.4,8.9-4.8,12.3-7.4
		c-0.1,0.5-0.3,1-0.3,1.6c0.6,0.4,1.2,0.8,1.9,1.1c-3.5,1-6.1,2.7-7.9,5.1c0.2,0.1,0.3,0.1,0.5,0c2.7-1.7,5.6-3.2,8.7-4.5
		c0.9,0.3,1.8,0.6,2.8,0.8c-1.9,1-3.6,2.1-5.3,3.3l0.1,0.2c2.4-0.8,4.7-1.9,6.8-3.3c1.3,0.5,2.6,0.8,4,1c-0.7,0.3-1.5,0.6-2.4,0.9
		c0,0.1-0.1,0.1-0.1,0.2c-0.8,0.4-1,0.9-0.7,1.5c0.8,0.2,1.6,0,2.4-0.4c1.7-0.8,2.7-1.5,3.1-2.1c0.7,0.1,1.4,0.1,2.1,0
		c0.7,0.1,1.5,0.2,2.3,0.2c-0.8,0.5-1.6,1.1-2.2,1.7v0.3c2.4-0.3,3.7-1,4-1.9c1.5,0,3,0,4.5-0.1c-0.5,0.4-1,0.8-1.2,1.3
		c0.2,0.1,0.4,0.2,0.7,0.1c1.7-0.3,2.9-0.9,3.8-1.7c1.4-0.2,2.9-0.4,4.4-0.7c-1.1,0.6-2,1.5-2.7,2.5c0.7,0.5,1.4,0.4,2.4-0.1
		C80.7,91.9,82.2,90.8,82.8,89.8z M76.5,33.3c-0.1,0.1-0.2,0.2-0.2,0.4c-0.2,0.2-0.3,0.4-0.5,0.6c-0.6,0.7-1.2,1.3-1.8,2
		c-1.6,0.6-3.2,0.8-4.9,0.3c0-0.2,0-0.5,0-0.7c0-0.3,0-0.5,0-0.8c0-0.3,0-0.7,0-1c0.2,0.4,0.9,0.6,2.2,0.7c-0.1-0.2-0.2-0.3-0.3-0.4
		c-0.3-0.6-0.7-1.1-1.2-1.5c-0.1,0-0.2,0-0.3,0.1c-0.2,0.3-0.3,0.4-0.4,0.6c0-0.1,0-0.2,0-0.3c-3.2-3.5-6.9-4.5-11.1-3.3
		c0.2-0.9,0.3-1.7,0.3-2.6c4-0.5,7.7,0.4,11.1,2.7c0.2,0.4,0.5,0.8,0.7,1.3c0.4-0.1,0.8-0.1,1.1,0c0.5,0.5,1.1,0.9,1.8,0.9
		c0-0.2,0-0.3,0-0.4c-0.1-0.1-0.1-0.2-0.2-0.4C74.3,31.8,75.6,32.3,76.5,33.3z M54.9,8.4c0.5,0.2,0.9,0.6,1.2,1
		c1.3,1.7,1.9,3.7,1.7,6c-1.5,0-2.8,0-4.1,0c0.4-0.2,0.8-0.5,1.2-0.8c-0.1-0.1-0.2-0.2-0.3-0.2c-0.5-0.3-1-0.5-1.6-0.6
		c-0.2,0.1-0.6,0.3-1,0.4c-0.7,0.1-1.2,0.3-1.6,0.7c-0.1,0-0.1,0-0.2,0c-0.1,0.2-0.3,0.3-0.5,0.4c-0.1,0-0.2,0-0.3,0
		c0,0,0.1,0.1,0.2,0.1c-3.7,2.6-5.7,6.1-6.2,10.5c0,0.1,0,0.2,0.1,0.3c-0.5-0.3-1-0.4-1.5-0.5c0.2-0.6,0.3-1.2,0.5-1.9
		c0.9-4.4,3.2-7.6,6.8-9.6c0.3,0,0.5-0.1,0.8-0.2c0.3,0.1,0.5,0,0.8-0.2c1.9-0.6,2.6-1.5,2.1-2.5c-0.2,0.2-0.5,0.3-1,0.3l0,0
		C52.7,10.4,53.7,9.3,54.9,8.4z M35.1,14.7c0.2,0.4,0.5,0.8,0.8,1.2c2.6,2.9,4.3,6.1,5,9.6c-0.5-0.1-1-0.1-1.6-0.1
		c-0.2-4.3-2.4-7.5-6.5-9.5l0,0c-0.1-0.1-0.2-0.2-0.2-0.2c-0.1,0-0.1,0-0.2-0.1c-0.7-0.5-1.5-0.8-2.4-1.1l-0.1,0.1
		c0.3,0.3,0.6,0.6,1,0.9c-0.2,0.1-0.3,0.3-0.2,0.4c0.1,0.1,0.1,0.2,0.1,0.2c-0.9-0.2-1.9-0.3-2.9-0.5c-0.2-4.5,1.9-6.7,6.4-6.6
		c0.3,0.8,0.6,1.5,0.8,2.3c0.1,0.2,0.2,0.5,0.3,0.7c-0.1,0.4-0.2,0.7-0.3,1.1c-0.4-0.3-0.7-0.5-1.1-0.7v0.1
		C34.1,13.2,34.5,14,35.1,14.7z M51.3,27.6c-0.1-0.1-0.2-0.2-0.3-0.2c-0.7-0.3-1.3-0.5-2-0.6c-0.1,0-0.3,0.1-0.5,0.1
		c-1.6,0.1-2.8,0.7-3.4,1.9c0,0,0,0-0.1,0c0,0-0.1,0-0.2,0.1c-0.1-0.4-0.1-0.8-0.1-1.2c0.1,0,0.1,0,0.1-0.1c-0.1,0-0.1,0-0.1,0
		c0-0.1,0-0.2,0-0.3c3.3-2.7,7.2-4.1,11.7-4.3c0.1,0.8,0.2,1.5,0.3,2.3c0.2,3-0.4,5.7-1.8,8.2c-0.4,0.3-0.8,0.5-1.1,0.8
		c-0.2,0.1-0.3,0.2-0.4,0.4c-0.8,0.1-1.6,0.3-2.4,0.7c-0.3-0.1-0.6-0.2-0.9-0.4c-2.1-0.9-3.9-2.3-5.3-4.1c-0.1,0-0.1,0-0.1,0
		c0-0.5,0-0.9,0-1.4c0.8,0.2,1.6,0.3,2.3,0.4c0.6,0.5,1.2,1,1.8,1.4c0.8,0.5,1.5,0.5,2.1-0.2c0.1-0.6-0.3-1-1.2-1.1
		c-0.8-0.1-1.4-0.5-1.9-1.1c-0.5,0-0.9,0-1.3-0.1C48.1,28.2,49.7,27.8,51.3,27.6z M45.1,33.1V33c1.5,2.3,3.9,3.8,7.3,4.4
		c0.1-0.1,0.2-0.2,0.3-0.2c0.2-0.2,0.4-0.3,0.5-0.4c0.6,0.4,1.1,0.7,1.6,1.1c-0.3-0.1-0.5-0.1-0.8-0.1c3,1.7,6,4,8.9,6.9
		c4.3,4.3,6.1,9.2,5.3,14.8C67.5,65,64.4,70,59.1,74.4c-5.3,4.5-12.8,6-22.5,4.4c-9.7-1.6-17-5.5-21.9-12c-0.6-1.7-0.8-3.5-0.7-5.4
		c0.8-9.8,4.6-17.4,11.4-22.9h0.1c0,0,0,0-0.1,0c0.1-0.1,0.2-0.2,0.2-0.2c1.3-0.7,2.5-1.3,3.8-1.9c0.4,0.4,0.9,0.7,1.4,1
		c0.7,0.2,1.4,0.4,2.3,0.5c0.1,0,0.2,0,0.3,0c0.1-0.1,0.2-0.1,0.3-0.2c3-0.9,4.9-2.4,5.7-4.3c2-0.4,4-0.5,5.9-0.1
		C45.2,33.3,45.2,33.2,45.1,33.1z M39.3,28c0-0.1,0-0.2,0-0.4c0.3-1,1.1-1.1,2.4-0.3c0.5,0.3,1,0.6,1.6,0.8c0,0.4,0,0.8,0,1.2
		c0.1,0.5,0,1-0.3,1.5c-0.1,0.1-0.2,0.2-0.2,0.3v0.1c-1-0.1-1.9-0.2-2.9-0.2c-0.1,0-0.4-0.1-0.6-0.2v-0.2c0-0.3,0-0.7,0-1.1
		C39.3,29,39.3,28.5,39.3,28z M37.9,26.6c-0.2,0.5-0.3,1.2-0.4,1.8c-1.7-1.5-3.9-2-6.5-1.6l-0.4,0.1c1.9,0.6,3.7,1.2,5.6,1.8
		c-0.3-0.1-0.7,0-1.2,0.1c-0.7,0.3-1.4,0.8-2.1,1.3c-0.1,0.2-0.2,0.3-0.3,0.5l0.1,0.2c1.7-0.7,3.4-1,4.9-0.8
		c0.1,0.4,0.1,0.8,0.2,1.1c-0.1,0-0.2,0-0.3,0c-0.1,0.1-0.2,0.1-0.2,0.2c0.2,0,0.4,0.1,0.6,0.2c0.1,0.4,0.2,0.8,0.2,1.1
		c0,0.2,0,0.3,0,0.4c-1.7,1.4-3.7,2.3-5.8,2.9c-1-0.5-1.9-1.1-2.7-1.9c-0.1,0-0.2,0-0.3,0c-0.1-0.1-0.2-0.1-0.3-0.2
		c-0.1,0-0.2-0.1-0.4-0.3c-1.1-1.9-1.6-4-1.5-6.4c0-1.4,0.4-2.8,0.9-4.1c0.1-0.1,0.1-0.2,0.1-0.2c0.8-0.1,1.5-0.2,2.3-0.3
		c1.4,0.7,2.7,1.5,4,2.5C35.7,26,36.9,26.6,37.9,26.6z M64.5,32.8L64.5,32.8c-0.2,0.1-0.3,0.2-0.5,0.3c-0.2,0.2-0.5,0.4-0.6,0.7
		c-0.2,0.1-0.3,0.2-0.4,0.3c0,0.7,0,1.3,0,1.9c0,0.1,0,0.1,0,0.1c-1.8-1.4-3.8-2.5-6.1-3c0-0.1,0-0.1,0-0.1c0.5-0.9,0.8-1.9,1.1-2.8
		c3.3-0.3,6.2,0.6,8.7,2.7C65.9,32.8,65.2,32.8,64.5,32.8z M55.5,35.1c0.5-0.5,0.9-1,1.2-1.6c2,1.3,4.1,2.4,6.4,3.2
		c0.1,0.2,0.1,0.3,0.2,0.4c0,0.2,0.1,0.3,0.2,0.4c-0.3,0.1-0.6,0.1-1,0c-0.6-0.1-1.3-0.1-2-0.2c-0.3,0-0.5,0-0.7,0.1
		c-0.4,0.2-0.7,0.6-0.9,0.9c-1.1-1.1-2.4-2.1-3.7-3C55.3,35.3,55.4,35.2,55.5,35.1z M32,16.4h-0.1l0,0C32,16.4,32,16.4,32,16.4z
		 M13,31.1c-0.4-1.4-0.6-2.9-0.4-4.6c0.6,0.2,1.2,0.4,1.7,0.7c0.3,0.2,0.7,0.4,1.1,0.6c-0.2,0.2-0.2,0.5-0.1,0.8
		c0.3,0,0.7-0.1,0.9-0.2s0.4-0.2,0.5-0.3c0.4,0.1,0.7,0.2,1.1,0.2c2.4-1.4,5-2,7.7-1.8c0,0.5-0.1,0.9-0.1,1.4c0,0.4,0,0.7,0.1,1
		c-0.1,0-0.2-0.1-0.2-0.1c-0.8-0.1-1.5-0.2-2.1-0.4c-0.4,0-0.8-0.1-1.2-0.3c-0.7,0.2-1.5,0.5-2.1,0.9c-0.1-0.1-0.2-0.2-0.4-0.2
		s-0.4,0.1-0.5,0.3c-1,0.7-1.6,1.7-2,2.7c0.6,0.2,1.1,0.2,1.7,0c0,0.1,0,0.2,0,0.3c-0.1,0-0.1,0.2-0.1,0.2h0.1
		c-0.1,0.4-0.2,0.8-0.2,1.1c-0.1,0.5-0.1,1-0.1,1.5C18,35,17.6,35.1,17.2,35C15,34.5,13.6,33.2,13,31.1z M25.1,30.8
		c0.2,0,0.4,0,0.5,0c0.5,1.8,1.4,3.1,2.7,3.9c-0.7,0.3-1.3,0.7-2,1.2c-0.8,0.5-1.5,1-2.1,1.6c-0.9-0.6-1.8-1-2.7-1.2
		c0-0.1,0-0.1,0-0.2c0.3-0.1,0.5-0.3,0.7-0.5c1.2-1.3,2.8-2,4.6-2.2c-0.1-0.1-0.2-0.1-0.2-0.2c-0.8-0.2-1.7-0.3-2.6-0.3
		c-0.9,0.4-1.7,0.9-2.5,1.6c0-0.6,0-1.1,0-1.6c0-0.1-0.1-0.2-0.2-0.3c-0.4-0.2-0.7-0.4-1.1-0.7c0-0.4,0-0.6-0.1-1
		c0.2-0.1,0.3-0.2,0.4-0.3c1.2-0.8,2.5-1,3.9-0.6c0,0.1,0.1,0.1,0.1,0.1c0.1,0.2,0.2,0.2,0.3,0.3C24.9,30.5,25,30.6,25.1,30.8z
		 M2.1,89c0.3-0.8,0.7-1.5,1.4-2.1c7.4-7.5,15.7-8.7,25-3.6c0.8,0.7,1.7,1.1,2.8,1.5c0-0.2-0.1-0.3-0.2-0.3c-0.5-0.6-1-1.2-1.7-1.6
		c0.1-0.2,0.1-0.3,0.1-0.5c0-0.1-0.1-0.2,0-0.4c0.3-1.3,0.5-2.4,0.3-3.2c1.2,0.3,2.4,0.7,3.6,1C32.8,82.2,33,84.3,34,86
		c-0.2,0-0.3,0.1-0.5,0.1c0,0.5,0.2,0.8,0.5,1.2c0.4,0.3,0.7,0.7,1.1,1.1c0,0.1,0,0.1,0,0.1c-0.3,0.1-0.7,0.3-1,0.5
		c-2.1,0.2-4.2,0.5-6.3,0.6c-0.3-0.1-0.5-0.1-0.8-0.2c0,0.1,0,0.1,0,0.1c-0.4,0.1-0.6,0.2-1,0.3c-7,0.6-14.2,0.8-21.4,0.7
		C3.4,90.5,2.6,90,2.1,89z M47,83.3c-0.4,0.2-0.8,0.5-1.3,0.6c-0.1,0-0.1,0-0.2,0c0,0,0,0-0.1,0.1c-0.8,0.2-1.8,0.3-2.9,0.2
		c-3-0.1-5.7-0.2-8.1-0.3c-0.3-1.3-0.4-2.7-0.4-4c4.4,1,8.9,1.1,13.5,0.5c0.1,0.6,0.3,1.3,0.6,2.2c-0.4,0.1-0.7,0.3-1,0.7
		C47.1,83.3,47.1,83.3,47,83.3z M54,82.4c-0.8,0.4-1.5,1-2,1.9c0.1,0.1,0.2,0.2,0.2,0.1c0.7-0.1,1.2-0.2,1.7-0.3c0,0.1,0,0.2,0,0.3
		c11.3-5.9,21.2-4.6,29.9,3.6c-8.7,2.1-17.6,2.8-26.5,2c-3.7-0.7-6.7-1.8-9.2-3.1c0-0.1,0.1-0.2,0.1-0.3c1.8-2.4,1.9-4.5,0.3-6.4
		c1.3-0.2,2.7-0.5,4-0.8C52.7,80.7,53.2,81.7,54,82.4z M34.5,84.5c0,0,0,0,0-0.1c0.6,0.2,1.3,0.4,2,0.5c-0.5,0.3-0.9,0.6-1.3,1
		c-0.2-0.4-0.4-0.7-0.7-1C34.5,84.8,34.5,84.7,34.5,84.5z M42.2,85.3c-0.7,0.3-1.2,0.7-1.8,1.1c-0.4,0.2-0.9,0.4-1.4,0.5
		c-0.8,0.3-1.6,0.6-2.3,1c-0.3-0.5-0.6-0.8-0.9-1.1c-0.1-0.1-0.1-0.2-0.1-0.2c0.9-0.3,1.8-0.8,2.6-1.4
		C39.6,85.4,40.9,85.4,42.2,85.3z"/>
	<path style="fill:#BE3689;" d="M44,41c-0.2,0.2-0.6,0.3-1,0.5c-0.8,0.4-1.3,1-1.7,1.9c0,0-0.1,0.1-0.2,0.1
		c-2.1-1.9-4.3-2.6-6.5-2.1c-0.4-0.3-1.1-0.5-2-0.6c0-0.2,0-0.3,0-0.4c0.2-0.7,0.1-1.2-0.3-1.5c-0.4-0.1-0.7,0-0.7,0.3
		c-0.2,0.9-0.1,1.8,0.3,2.6c0.2,0.1,0.4,0.3,0.6,0.4c-0.3,0.2-0.6,0.4-1,0.7c-0.6-0.3-1.4-0.5-2-0.9c0-0.1,0-0.2,0-0.4
		c0.1-0.4-0.1-0.7-0.4-1.1c-0.1,0.1-0.2,0.1-0.3,0.2c-0.4,0.8-0.4,1.5,0.1,2.2c0.4,0.4,0.9,0.8,1.4,0.9c-0.2,0.1-0.2,0.2-0.4,0.4
		c-1,0-1.9-0.5-2.6-1.3c-0.5-0.2-0.7,0-0.7,0.4c0,0.9,0.5,1.5,1.5,1.8c0.3,0.1,0.5,0.1,0.7,0.2c-4.5,4.7-4.4,9.6,0.3,14.5
		c0.4,0.1,0.8,0.2,1.2,0.3c0.3,0.1,0.7,0.1,1,0.2c3.9,0.5,7.3-0.5,10.3-2.9c2.6,2.2,5.6,2.8,9.1,1.4c5.4-2,7.2-5.7,5.4-10.9
		c-0.1-0.1-0.2-0.3-0.3-0.4c-0.8-1.5-1.8-2.8-3-3.7c0.2-0.1,0.4-0.2,0.6-0.3c0.1-0.1,0.2-0.2,0.4-0.4c0.9-0.8,1-1.7,0.3-2.6l0,0
		c-0.7,1.1-1.6,1.8-2.7,2.2c-0.4-0.2-0.8-0.4-1.1-0.6c0.4-0.4,0.8-0.9,1.2-1.3c0-0.2,0-0.3,0-0.4c0.1-0.7,0-1.3-0.4-1.9h-0.2
		c-0.2,1.8-1.1,2.8-2.4,3c-0.1,0-0.1,0-0.1,0c0-0.1,0-0.2,0.1-0.2c0.5-1.2,0.6-2.3,0.3-3.4c-0.9,0.5-1.4,1.6-1.8,3.2c0,0,0,0,0,0.1
		C46,41,45.1,41,44,41z M36.9,42.5c0.2,0.2,0.4,0.3,0.6,0.4c1.2,0.9,2.3,1.7,3.3,2.4c0.1,0,0.2,0,0.2,0c0.5,0.1,1,0.3,1.4,0.4
		c0.3-0.3,0.4-0.7,0.5-1c0.2-0.6,0.4-1.1,0.7-1.6c4.9-0.6,8.5,1.2,10.9,5.7c0.2,0.6,0.3,1.3,0.4,1.9c0.5,3-0.7,5.2-3.6,6.7
		c-3.7,1.2-6.8,0.5-9.4-2c-0.3,0.1-0.6,0.2-1,0.1c-6.5,5.3-11.3,4.5-14.3-2.4c0-0.1,0-0.2,0-0.3c0.8-4.8,3.6-8.2,8.4-10.2
		C35.6,42.6,36.2,42.6,36.9,42.5z"/>
	<path style="fill:#BE3689;" d="M45.5,47.5c-0.1,0-0.2,0.1-0.4,0.1c-0.5,0.6-0.9,1.2-1.2,2c-0.4,1.4-0.3,2.8,0.5,4
		c1.1,0.7,2.3,1.1,3.6,1c0.4-0.2,0.8-0.5,1.3-0.7c0.3-0.3,0.7-0.5,1.1-0.8c0.4-0.7,0.7-1.6,0.7-2.6c0.1-0.6,0-1.2-0.2-1.9
		c-0.1-0.1-0.2-0.2-0.3-0.3c-1-0.9-2.2-1.3-3.6-1C46.5,47.3,46,47.4,45.5,47.5z M49.9,49.3c0,0.2,0.1,0.5,0.1,0.7
		c0.1,0.5,0.1,1,0.1,1.5c0,0.2-0.1,0.3-0.2,0.4c-0.1,0.3-0.2,0.5-0.3,0.7c-0.8,0.5-1.8,0.9-2.7,1.2c-0.7-0.2-1.3-0.5-1.9-0.9
		c0-0.1-0.1-0.2-0.2-0.3c-0.3-0.5-0.5-1-0.4-1.6c0-0.1,0-0.2,0-0.3c0.2-0.9,0.7-1.7,1.4-2.3C47.3,48,48.7,48.3,49.9,49.3z"/>
	<path style="fill:#BE3689;" d="M46.8,51.6c0.1,0.2,0.3,0.2,0.4,0.2c1.8-0.2,1.7-0.9-0.2-2c-0.2,0-0.3,0.1-0.4,0.4
		C46.5,50.7,46.5,51.2,46.8,51.6z"/>
	<path style="fill:#BE3689;" d="M35.5,49.8c-0.1,0-0.2,0.1-0.3,0.3c-0.6,0.6-0.7,1.1-0.3,1.7c0.6,0.1,1.2,0.2,1.9,0.3
		c0-0.1,0.1-0.2,0.1-0.3C37.1,50.6,36.7,49.9,35.5,49.8z"/>
	<path style="fill:#BE3689;" d="M33.1,64.3c-1.5,1.2-2.7,2.6-3.7,4.1c-0.7,2.1-0.3,4,1,5.7c0.7,0.8,1.5,1.6,2.4,2.4
		c0.1,0.1,0.2,0.2,0.3,0.3c0.2,0,0.3,0,0.4-0.1c0.2,0,0.4,0,0.5-0.1c0.5,0,1-0.1,1.5-0.2c0.9-0.7,1.9-1.2,3.1-1.6
		c2.6-0.7,5.2-0.5,7.8,0.7c0,0.1,0.1,0.1,0.1,0.1c0.1,0.1,0.2,0.2,0.3,0.3c0.1,0.1,0.2,0.2,0.3,0.4c1.2,0,2.3,0,3.4,0
		c0.2,0,0.4-0.1,0.5-0.2c0.6-0.2,1.1-0.6,1.5-1.1c0.3-0.2,0.5-0.5,0.8-0.7c0.1-0.2,0.2-0.3,0.3-0.4c0-0.1,0-0.2,0.1-0.4
		c0.7-1.9,0.5-3.8-0.5-5.6c-0.4-0.6-0.6-1.2-0.7-1.9c-0.1-0.1-0.2-0.2-0.4-0.3c-3.3-3.5-7.5-5-12.6-4.5C37.2,61.6,35,62.7,33.1,64.3
		z M30.8,68.8c0.1-0.2,0.2-0.3,0.3-0.4c2.2-2.9,5-4.7,8.4-5.7c7.3-0.7,11.8,2.3,13.4,8.8c-0.1,0.3-0.2,0.5-0.3,0.8
		c-0.7,1.9-2.2,2.8-4.5,2.7c-0.3-0.2-0.7-0.4-1.1-0.6c0.1-0.2,0.1-0.5,0.1-0.9C47,73.3,47,73,47,72.8c-0.1-0.3-0.1-0.5-0.1-0.8
		c-0.2-0.1-0.3-0.2-0.5-0.4c-1.3-1.2-2.9-1.8-4.9-1.8c-0.9,0.1-1.7,0.4-2.5,0.9c-1.3,0.7-2.1,1.8-2.2,3.2c-0.6,0.3-1.2,0.6-1.8,1
		c-0.4,0-0.8,0-1.2-0.1c-0.5,0-0.9-0.1-1.3-0.2c-0.1,0-0.2-0.1-0.3-0.2c-0.2-0.1-0.6-0.3-0.8-0.4c-0.2-0.1-0.4-0.2-0.5-0.4
		c-0.2-0.2-0.3-0.5-0.3-0.7c0-0.4-0.1-0.8-0.3-1.2c-0.2-0.2-0.2-0.4-0.3-0.7c0.1-0.1,0.1-0.2,0.3-0.3c0.3-0.4,0.4-0.7,0.3-1.2
		C30.6,69.3,30.7,69,30.8,68.8z M45.9,72.8c0,0.2,0,0.5,0.1,0.7c0,0.2,0,0.3,0,0.4c-2.6-1.3-5.3-1.4-8-0.5c0.2-0.3,0.3-0.7,0.4-1
		C41,70.7,43.5,70.8,45.9,72.8z"/>
	<path style="fill:#BE3689;" d="M44.9,77.3c-0.2-0.2-0.3-0.3-0.4-0.4c-1.1-0.9-2.4-1.3-4-1c-0.2,0.1-0.3,0.3-0.3,0.5
		c0.3,0.7,1.1,0.8,2.4,0.4c0.6,0.6,1.3,0.8,2.1,0.6C44.8,77.4,44.8,77.3,44.9,77.3z"/>
	<g>
		<path style="fill:#BE3689;" d="M89.6,5.6c-0.1-0.1-0.2-0.2-0.3-0.3C86.4,1.9,82.6,0.2,78,0c-0.9,0.4-2,0.8-3.3,1
			c-2.7,0.6-4.8,1.9-6.3,4c-0.5,1.6-0.7,3.2-0.7,4.9c-0.2,4.1,1.6,7.3,5.2,9.4c-0.7,1-1.5,2-2.4,3c-0.5,0.5-0.6,1.2-0.2,1.8
			c6.2-2.5,12.5-5.5,18.7-9.1c0.8-1.8,1-3.6,0.9-5.6C89.8,8.2,89.7,6.9,89.6,5.6z M77.6,18.3c0,0.1-0.1,0.2-0.3,0.3
			c-1.4,1.2-2.4,1.7-3.2,1.5c0.2-0.2,0.4-0.4,0.6-0.7c0.1-0.1,0.2-0.3,0.2-0.4c0.1-0.3,0.2-0.5,0.2-0.7c-0.3-0.5-0.8-1-1.5-1.3
			c-5.3-3.2-6.3-7.4-3-12.6c0.2-0.1,0.4-0.2,0.6-0.3c2.2-1.2,4.5-2,6.9-2.5c4.1,0.2,7.5,1.8,10.3,5C89.5,14,85.9,17.9,77.6,18.3z"/>
		<path style="fill:#BE3689;" d="M80.7,4.6c-1-0.4-2.1-0.6-3.2-0.8c-0.9,0.4-1.2,1.2-0.8,2.3c0.5,1.4,0.8,2.9,0.8,4.4
			c0.1,0.5,0.3,0.8,0.8,1c0.2,0,0.4,0.1,0.6,0c0.5-0.8,1-1.6,1.3-2.5c0.5-1.5,0.7-2.9,0.6-4.2C80.8,4.6,80.8,4.6,80.7,4.6z"/>
		<path style="fill:#BE3689;" d="M79.7,14.4c-0.1-0.3-0.1-0.5-0.1-0.8c-0.1-0.1-0.2-0.2-0.4-0.2c-0.4-0.1-0.8-0.2-1.2-0.3
			c-0.4,0.1-0.7,0.3-0.8,0.7c-0.1,0.4-0.2,0.7-0.2,1.1c0.5,1.2,1.3,1.5,2.5,0.6C79.7,15.2,79.7,14.8,79.7,14.4z"/>
	</g>
</g>
</svg>
