<?xml version="1.0" encoding="iso-8859-1"?>
<!-- Generator: Adobe Illustrator 12.0.1, SVG Export Plug-In . SVG Version: 6.00 Build 51448)  -->
<!DOCTYPE svg PUBLIC "-//W3C//DTD SVG 1.1//EN" "http://www.w3.org/Graphics/SVG/1.1/DTD/svg11.dtd" [
	<!ENTITY ns_svg "http://www.w3.org/2000/svg">
	<!ENTITY ns_xlink "http://www.w3.org/1999/xlink">
]>
<svg  version="1.1" id="Layer_1" xmlns="&ns_svg;" xmlns:xlink="&ns_xlink;" width="94.532" height="83.549"
	 viewBox="0 0 94.532 83.549" style="overflow:visible;enable-background:new 0 0 94.532 83.549;" xml:space="preserve">
<g>
	<g>
		<path style="fill:#BE3689;" d="M80.464,9.35c-0.2-0.3-0.3-0.5-0.4-0.8c-0.1-0.4-0.2-0.9-0.3-1.4c0-0.2,0-0.3-0.1-0.4
			c-0.7-1-1.4-2.1-2.2-3.1c-0.4-0.6-0.8-1.2-1.3-1.8c-0.3-0.1-0.6-0.3-0.8-0.5c-1.5-1.1-3.2-1.5-5.2-1.3c-1.2,0.2-2.5,0.7-3.7,1.4
			c-2.2,1.2-3.1,3-2.9,5.4c0.1,0.1,0.1,0.2,0.3,0.3c0.3,0.5,0.7,1,1,1.5c0.2,0.3,0.3,0.6,0.6,0.8c-0.3,0.4-0.5,0.7-0.5,1.1
			c0.1,0.5,0.1,1,0.2,1.5c0,0.3,0.1,0.5,0.3,0.8c0.1,0.1,0.2,0.2,0.4,0.2c0.8,0.2,1.8,0.3,2.7,0.4c0.1,0.2,0.2,0.3,0.4,0.4
			c0.1,0.1,0.2,0.2,0.3,0.4c0.7,0,1.3,0.1,1.9,0.1c0.1,0.1,0.2,0.1,0.4,0.1c0.1,0.2,0.2,0.3,0.4,0.4c0.1,0.1,0.2,0.2,0.3,0.4
			c0.6,0,1.1,0,1.6-0.2c0.2,0,0.3-0.1,0.4-0.2c0.2-0.1,0.3-0.3,0.3-0.4c0.2-0.4,0.4-0.7,0.7-1.2c0,0,0-0.1,0-0.3
			c0-0.1,0-0.2,0.1-0.2c1.2-0.2,2.4-0.4,3.7-0.5c0-0.1,0.1-0.2,0.1-0.3c0.3-0.2,0.5-0.5,0.8-0.7c0.1-0.2,0.2-0.3,0.3-0.4
			c0-0.1,0-0.2,0-0.4c0-0.1,0-0.2,0.1-0.3c0-0.2,0-0.3,0-0.4C80.464,9.549,80.464,9.45,80.464,9.35z M64.764,5.85
			c0-0.1,0.1-0.2,0.1-0.3c1-2.3,2.8-3.6,5.3-4c0.8,0,1.5,0,2.4-0.1c0.4,0.3,0.7,0.6,1.1,0.9c0.1,0.2,0.2,0.4,0.3,0.6
			c-0.1,0.7,0.2,1.1,0.8,1.5c2.6,1.5,3.9,3.5,3.8,6c-1.6,0.2-3.1,0.4-4.5,0.5c0,0.2,0,0.3,0,0.4c0,0.4,0,0.8-0.1,1.1
			c0,0.3-0.1,0.5-0.2,0.8c-0.7,0.6-1.1,0.5-1-0.4c0-0.3,0-0.5,0-0.8c-0.4-0.5-0.9-0.5-1.3,0.1c-0.5,0.8-1.1,0.9-1.8,0.3
			c-0.3-0.4-0.5-0.9-0.2-1.6c0.2-0.6,0-0.8-0.8-0.8c-0.5,0.4-0.8,0.8-1.2,1.4c-0.3,0.6-0.8,0.6-1.2,0c0-0.1,0-0.2,0-0.4
			c0.1-0.5,0.2-1,0.5-1.4c0.2-0.3,0.4-0.6,0.5-0.8c-0.4-0.6-0.9-1.1-1.5-1.6C65.364,6.85,65.064,6.35,64.764,5.85z"/>
		<path style="fill:#BE3689;" d="M67.164,4.549c0,0.5,0,1-0.1,1.5c0,0.5,0.1,0.9,0.5,1.2c1.2,1,2.4,0.9,3.4-0.2
			c0.2-0.4,0.4-0.9,0.3-1.5c0-0.6-0.2-1.3-0.6-1.8c-0.1-0.2-0.2-0.2-0.3-0.3c-0.5-0.1-1.2-0.2-1.7-0.2c-0.4,0.2-0.8,0.5-1.1,1
			C67.364,4.35,67.264,4.45,67.164,4.549z M68.164,5.75c0-0.2,0-0.3,0-0.3c0.3-0.3,0.5-0.6,0.8-0.9l0,0c0.1,0,0.2,0.1,0.2,0.1
			c0.5,0.3,0.9,0.7,1,1.1C69.464,6.85,68.864,6.85,68.164,5.75z"/>
		<path style="fill:#BE3689;" d="M71.964,5.45c-0.1,0.3-0.3,0.5-0.4,0.7c-0.4,0.3-0.4,0.7-0.3,1.2c0.2,0.9,0.8,1.7,1.7,2.2
			c0.5,0,1,0,1.6,0v-0.1c0.9-0.6,1.3-1.4,1.2-2.4c0-0.1,0-0.2,0-0.3c-0.3-0.6-0.8-1.1-1.3-1.5C73.564,5.149,72.664,5.25,71.964,5.45
			z M74.464,7.35c0,0.1-0.1,0.2-0.1,0.2c-1.6,0.9-2.2,0.5-1.9-1.2c0-0.1,0-0.1,0.1-0.1C73.364,6.149,73.964,6.45,74.464,7.35z"/>
		<path style="fill:#BE3689;" d="M89.664,74.25c-0.2,0.1-0.6,0.3-1,0.5c-2.9,1-5.2,2.6-7,4.7c0.8,0.2,1.8,0,3-0.6
			C87.664,77.25,89.364,75.75,89.664,74.25z"/>
		<path style="fill:#BE3689;" d="M80.064,78.049c2.9-1.1,4-2.1,3.1-2.7c-3.7,1.3-7.2,3.3-10.2,6
			C75.064,80.149,77.464,79.149,80.064,78.049z"/>
		<path style="fill:#BE3689;" d="M87.164,69.149c7.2-8.5,9.1-17.5,5.8-27.1c-0.6,0-1.2,0-1.8-0.1c-7.7,3.7-13.8,9-18.3,15.8
			c0.2-0.6,0.3-1.2,0.3-1.9c1.3-11.3-3.1-19.2-13.1-23.6c-0.3-0.3-0.6-0.5-0.9-0.6c1.1-1.4,2.6-1.6,4.5-0.8c0.8,0.3,1.3,0.1,1.5-0.6
			c-0.4-0.7-1-1.4-1.8-1.9c-0.3-0.3-0.6-0.6-0.8-0.9c-0.2-0.4-0.2-0.7-0.2-1.1c0.1-0.2,0.2-0.3,0.3-0.3c0.9-0.6,1.8-1.1,2.7-1.5
			c0.2,0.1,0.3,0.2,0.5,0.3c0.1,0.4,0.2,0.8,0.3,1.1c0,0.3,0,0.5,0,0.8c0.1,0.7,0.4,1.3,0.9,1.7c6.1,0,8.9-2.6,8.3-8
			c-2.1-0.7-4.3-0.9-6.5-0.6c-0.4-0.3-0.9-0.5-1.3-0.7l-0.2,0.1c-0.5-0.3-0.9-0.5-1.4-0.5c-0.4,0-0.7,0-0.8,0.1
			c-2.2-1.3-5-1.5-8.3-0.6c-0.4,0.3-0.8,0.5-1.4,0.7c-0.3,0-0.5,0.1-0.7,0.3c-0.5-1.5-1.2-2.8-2.1-4.2c-0.2,0-0.3-0.1-0.4-0.1
			c-1,0.1-1.9,0.2-2.7,0.3c-4.1,1.5-6.7,4.1-7.9,7.8v-0.1h-0.1c0-0.4,0.1-0.8,0.3-1.2c-0.1-0.3-0.2-0.7-0.2-1.1
			c-0.2-0.4-0.3-0.9-0.4-1.4c0.1-0.3,0.2-0.6,0.3-0.9c0.6-2.5,1.6-4.8,3.3-6.9c0.1,0,0.3-0.1,0.4-0.2c2.6,0.7,5.2,0.5,7.9-0.9
			c0.1-0.3,0.2-0.6,0.2-0.8c-0.2-4-2-6.9-5.3-8.8c-0.5,0.1-0.9,0.1-1.3,0.2c0,0,0,0,0,0.1c-1.7,1.7-2.7,3.5-3.1,5.3
			c-0.3,0-0.5,0.1-0.4,0.4c0.1,0.2,0.2,0.4,0.3,0.6c0,0,0,0.1,0,0.2c-0.3,0-0.6,0-0.9,0.1c-1.3,1.1-2.5,2.6-3.4,4.3
			c-1.4,2.5-2.1,4.8-1.9,6.9c-0.2-0.2-0.3-0.4-0.4-0.6c-0.4-0.9-0.9-1.6-1.4-2.3c-0.1-0.1-0.1-0.1-0.2-0.2v0.1
			c-0.6-0.4-1.2-0.6-2-0.9c-5.4-1.2-11-2-16.6-2.1c0,0.1,0,0.1-0.1,0.1c-0.6,0.3-0.9,0.8-1.2,1.5c-0.3,0.4-0.6,0.9-0.9,1.3
			c0,2.4,0.4,4.7,1.3,7c0.5,1.3,1.5,2.2,2.8,2.8c0.5,0,1-0.1,1.4-0.1c0.7-0.7,1.4-1.2,2.2-1.6c0.2-0.2,0.5-0.4,0.8-0.6
			c-0.1,0.5-0.2,0.9-0.2,1.3c-0.1,0.2-0.2,0.4-0.3,0.6c0,0.2,0,0.5,0.1,0.7c0.1,1.3,0.4,2.5,0.8,3.6c-0.7,0.1-1.3,0.2-1.9,0.4
			c-0.5,0.6-1.4,1.2-2.5,1.6c-1.3,0.7-2.5,1.5-3.5,2.7c-2.8,0.2-5.1,1.1-6.7,2.9c-0.1,0.7,0.1,1.3,0.4,1.9c0.6,0.9,1.4,1.7,2.4,2.4
			c0.9,0.8,2,1.5,3.3,2c2.3,0.8,4,0.4,4.9-1.2c-0.3-0.7-0.4-1.4-0.2-2.1c0,0.2,0,0.4,0.1,0.6c0,0,0,0,0,0.1l0,0
			c0.2,1.3,0.1,2.5-0.2,3.8c0.9-0.9,1.7-2,2.3-3.3c0.1,0,0.1,0,0.2-0.1c-0.2,0.4-0.3,0.8-0.4,1.1c-2.3,3.9-3.6,8.1-4,12.8
			c-3.8-1.9-8.1-3.1-13-3.6c0,0.1,0,0.1,0,0.1c-0.2,0.1-0.3,0.1-0.5,0.2c-0.5,0-1,0.1-1.5,0.2c-0.1,0.1-0.2,0.1-0.4,0.2
			c-2,2-2.7,4.5-2,7.4c2.2,9.3,7.1,15.6,15,19.2c-3.1,0.4-5.9,1.4-8.3,3.1c0.2,0,0.4,0,0.6-0.1c2.8-1.1,5.7-1.9,8.7-2.6
			c0.6,0.3,1.3,0.5,1.9,0.8c-0.4,0.2-0.9,0.4-1.5,0.5c-1.5,0.4-2.7,1-3.7,1.9c0.4,0.1,0.8,0.1,1.1-0.1c2-0.6,3.8-1.2,5.5-1.9
			c0.3,0.1,0.6,0.2,1,0.3c1.8,0.4,3.4,0.6,5,0.5c-1.7,0.6-3.4,1.3-5.1,1.9c0.4,0.2,0.8,0.4,1.2,0.5c4.1-1.3,8.1-2.6,12.1-4
			c2.5-0.7,4.1-1.6,4.9-2.5c0-0.1,0-0.1,0.1,0c0-0.1,0-0.1,0-0.2c0,0,0,0,0-0.1c0.9,0.1,1.7,0.1,2.6,0.2c-3.1,1.7-6.1,3.4-9.1,5.1
			v0.2c4.4-1.4,8.7-3.2,12.8-5.4c1.2-0.1,2.4-0.3,3.6-0.4c0.3,0.1,0.7,0.2,1.1,0.3c-3.4,1.4-6.6,3.1-9.5,5.3c2,0,4.2-0.5,6.5-1.6
			c2.4-1,3.9-2.2,4.8-3.3c1.8,0.3,3.8,0.1,5.8-0.4c-2.4,1.5-4.7,2.9-7.1,4.5c0,0.1,0,0.2-0.1,0.3c-0.5,0.6-0.3,1,0.5,1
			c0.3-0.2,0.5-0.3,0.7-0.4c5.2-3.5,10.3-6.7,15.4-9.6c-0.2,0-0.4-0.1-0.6-0.2c-0.3,0-0.6-0.1-1-0.1c-0.6,0.2-1.2,0.6-2,1
			c-1,0.6-2,1.2-3,1.8c0.5-0.5,1.1-1.1,1.6-1.7c0-0.1,0.1-0.2,0.1-0.3c0.2-0.2,0.3-0.4,0.3-0.6v-0.1l0,0c0-0.2,0.1-0.5,0.1-0.7
			c0.1-0.1,0.2-0.1,0.4-0.2c0,0.1,0.3,0,0.7-0.3c0-0.1,0.1-0.1,0.1-0.2c0.2-0.1,0.4-0.2,0.6-0.3c0.1-0.2,0.4-0.3,0.5-0.3
			c0.4-0.1,0.6-0.2,1-0.3c0.3,0,0.6,0,0.9,0c0.6,0.3,1.1,0.6,1.6,1c0.1,0.1,0.1,0.2,0.1,0.3c0,0.7,0,1.4,0.3,2
			c0.1,0.1,0.1,0.4,0.1,0.6c0,0.2,0.1,0.4,0.1,0.5l0,0c-4.3,2-8.3,4.1-11.7,6.5c2.3-0.1,4.8-0.8,7.5-2.2c2.6-1.3,4.2-2.6,4.6-3.6
			c0.5,0.8,1.1,1.5,1.9,2.1c-1.9,0.8-3.3,2-4.2,3.3c0.2,0.9,0.7,1.1,1.7,0.6c2.2-1.1,3.4-2.2,3.7-3.3c1.1,0.5,2.4,0.6,3.9,0.5
			C80.264,75.95,83.964,72.85,87.164,69.149z M92.264,43.95c1.3,2.7,1.5,5.5,0.6,8.5c-2.9,10.7-9.1,18.9-18.6,24.5
			c-3.4-1-5.1-3.2-5.1-6.7c-0.8-0.8-1.7-1.2-2.6-1.4c0.5-0.4,1-0.8,1.4-1.3c0.7,0.5,1.7,0.4,2.8-0.1
			C74.164,55.85,81.364,48.049,92.264,43.95z M46.964,8.35c-0.3,0.2-0.6,0.4-1,0.6c-0.6,0.3-1,0.6-1.4,1l-0.1,0.1
			c-0.2,0.2-0.3,0.3-0.4,0.5c-0.2,0-0.3,0-0.4,0.1c0.1,0,0.2,0,0.2,0c-2.9,3.4-4.1,7.3-3.7,11.6c0.1,0.1,0.1,0.2,0.2,0.3
			c-0.5-0.2-1-0.2-1.5-0.2c0-0.6,0-1.3,0-1.9c0-4.5,1.5-8.2,4.5-10.9c0.3-0.1,0.5-0.2,0.7-0.3c0.3,0,0.6-0.2,0.8-0.4
			c1.7-1.1,2.2-2.1,1.5-3c-0.2,0.3-0.5,0.5-0.9,0.6l0,0c0.4-1.3,1.1-2.6,2.1-3.8c0.5,0.1,1,0.4,1.4,0.8c1.7,1.3,2.6,3.1,2.9,5.4
			c-1.3,0.3-2.7,0.6-4,0.9c0.4-0.3,0.7-0.6,1.1-1c-0.1-0.1-0.2-0.1-0.4-0.2C48.064,8.45,47.464,8.35,46.964,8.35z M55.364,22.95
			c0-0.8-0.1-1.7-0.3-2.5c3.8-1.4,7.6-1.4,11.4,0.1c0.3,0.4,0.7,0.8,1,1.2c0.4-0.2,0.7-0.3,1.1-0.3c0.5,0.4,1.1,0.6,1.9,0.5
			c0-0.2,0-0.2-0.1-0.3c-0.1-0.2-0.2-0.3-0.2-0.4c1.5-0.1,2.8,0.2,4,0.9c-0.1,0.1-0.1,0.3-0.2,0.4c-0.1,0.3-0.2,0.5-0.3,0.8
			c-0.5,0.7-0.9,1.5-1.3,2.3c-1.5,1-3,1.4-4.7,1.4c-0.1-0.3-0.1-0.5-0.2-0.7c0-0.3-0.1-0.5-0.1-0.8c-0.2-0.3-0.2-0.7-0.3-1
			c0.3,0.3,1,0.4,2.3,0.2c-0.2-0.1-0.3-0.2-0.4-0.3c-0.4-0.5-0.9-0.9-1.5-1.2c-0.1,0-0.1,0.1-0.2,0.1c-0.1,0.3-0.2,0.5-0.3,0.7
			c0-0.1,0-0.2,0-0.3C63.064,21.149,59.164,20.85,55.364,22.95z M52.264,16.649c0.3,0.7,0.5,1.4,0.8,2.1c0.8,2.8,0.9,5.7,0,8.4
			c-0.3,0.3-0.6,0.7-0.9,1c-0.1,0.2-0.2,0.3-0.3,0.5c-0.7,0.3-1.4,0.7-2.1,1.2c-0.3-0.1-0.6-0.1-1-0.2c-2.3-0.4-4.3-1.4-6.1-2.8
			c0-0.1,0-0.1-0.1,0c-0.1-0.5-0.2-0.9-0.2-1.3c0.7-0.1,1.5-0.1,2.3-0.2c0.6,0.4,1.3,0.7,2,1c0.9,0.3,1.6,0.1,2-0.6
			c0-0.7-0.5-1-1.4-0.9c-0.8,0.1-1.5-0.1-2.1-0.6c-0.5,0-0.9,0.1-1.3,0.2c1.4-1,2.9-1.7,4.4-2.2c-0.1-0.1-0.2-0.2-0.3-0.2
			c-0.7-0.1-1.4-0.2-2.1-0.2c-0.1,0.1-0.3,0.2-0.4,0.3c-1.6,0.4-2.6,1.2-2.9,2.5c-0.1,0-0.1,0-0.1,0.1c-0.1,0-0.2,0.1-0.3,0.1
			c-0.1-0.4-0.2-0.8-0.2-1.1c0,0,0,0,0-0.1c-0.1,0-0.1,0-0.1-0.1c0,0,0-0.1-0.1-0.2C44.464,19.95,47.964,17.75,52.264,16.649z
			 M38.864,23.95c0.5,0.2,1.1,0.4,1.7,0.5c0.1,0.4,0.2,0.8,0.3,1.1c0.2,0.6,0.2,1.1,0.1,1.6c-0.1,0.1-0.1,0.2-0.2,0.3v0.1
			c-0.9,0.1-1.9,0.2-2.8,0.5c-0.2-0.1-0.4-0.1-0.7-0.1v-0.2c-0.1-0.3-0.2-0.7-0.2-1c-0.2-0.5-0.3-1-0.4-1.5c0-0.1,0-0.2-0.1-0.4
			C36.764,23.85,37.464,23.549,38.864,23.95z M43.464,28.95c0-0.1,0-0.1,0-0.2c1.9,2,4.6,2.9,8,2.7c0.1-0.1,0.2-0.2,0.3-0.2
			c0.1-0.2,0.3-0.4,0.4-0.5c0.6,0.2,1.2,0.4,1.8,0.6c-0.3,0.1-0.5,0.1-0.8,0.2c3.3,0.9,6.7,2.5,10.2,4.7c5.1,3.3,7.9,7.7,8.4,13.2
			c0.5,5.6-1.3,11.1-5.6,16.6c-4.1,5.5-11.1,8.6-20.9,9.2c-4.5,0.3-8.6,0-12.4-0.9c-0.1-0.2-0.1-0.3-0.1-0.4
			c-2.5-8.3-7.1-14.4-13.7-18.1c0.3-6.6,2.4-12.3,6.4-17.3c0,0,0.1,0,0.2,0c-0.1-0.1-0.1-0.1-0.2-0.1c0.1-0.1,0.2-0.2,0.2-0.2
			c1.1-1,2.1-1.8,3.3-2.6c1.1,0.6,2.5,0.8,4.2,0.5c0-0.1,0.1-0.2,0.2-0.2c2.7-1.6,4.2-3.5,4.6-5.5c1.9-0.9,3.8-1.3,5.7-1.4
			C43.564,28.95,43.564,28.95,43.464,28.95z M54.964,26.25L54.964,26.25c0.2-1.1,0.3-2.1,0.4-3c3.2-1,6.2-0.9,9.1,0.7
			c-0.8,0.1-1.5,0.2-2.1,0.3c0,0.1,0,0.1-0.1,0.1c-0.1,0.1-0.2,0.2-0.3,0.4c-0.3,0.2-0.4,0.5-0.5,0.8c-0.1,0.1-0.2,0.3-0.3,0.4
			c0.2,0.6,0.3,1.2,0.4,1.8c0,0.1,0,0.1,0,0.1C59.464,26.85,57.264,26.35,54.964,26.25z M54.064,28.549c0.4-0.6,0.6-1.2,0.8-1.9
			c2.2,0.9,4.5,1.5,7,1.8c0,0.1,0.1,0.2,0.2,0.4c0.1,0.1,0.1,0.2,0.3,0.3c-0.3,0.1-0.7,0.2-0.9,0.2c-0.7,0.1-1.4,0.1-2.1,0.3
			c-0.2,0-0.4,0.1-0.6,0.2c-0.3,0.3-0.5,0.7-0.7,1.1c-1.4-0.9-2.8-1.6-4.3-2.1C53.864,28.75,53.964,28.649,54.064,28.549z
			 M17.664,36.35c0.1,0.2,0.1,0.5,0.2,0.7c0.1,0.5,0.2,1,0.3,1.5c0.1,0.3,0.1,0.7,0.1,1c-0.2,0.6-0.1,1.1,0.1,1.6c0,0.2,0,0.2,0,0.2
			c-0.6,0.3-1.3,0.6-2.1,0.8c-1.7-0.2-3-0.9-4.1-1.9c-0.7-0.7-1.3-1.5-1.6-2.4c1.7-0.6,3.8-1.4,6.1-2.6c0.4-0.5,0.9-1,1.5-1.3
			c2.3-1.3,4.1-2.6,5.6-3.7c0.3,0.7,0.6,1.4,1.1,2.1C21.864,32.45,19.564,33.75,17.664,36.35z M16.564,20.549
			c-0.1-0.8-0.2-1.7-0.3-2.6c0-1.1,0.3-2.2,1.2-3.3c0.4-0.1,0.8,0,1.1,0.1c1,0,1.9,0.3,2.8,0.7c3-0.6,6-0.5,8.9,0.2
			c1.9,0.4,3.5,1.1,4.8,2.1c0,0.1,0,0.2-0.1,0.4c0.1,0.1,0.2,0.1,0.2,0.3c1,1.2,1.9,2.5,2.5,3.9c-0.5,0.1-1,0.2-1.5,0.4
			c-0.1-0.2-0.1-0.4-0.2-0.5c-0.9-0.3-1.4-1.2-1.6-2.6c-0.1-0.2-0.2-0.3-0.4-0.4c0,0.1,0,0.1-0.1,0.1c-0.2-0.3-0.5-0.6-0.8-0.9
			c0,0,0,0-0.1-0.1c-2.5-2.3-5.3-2.8-8.4-1.4c-0.1-0.1-0.1-0.2-0.1-0.3c-0.1-0.3-0.2-0.4-0.3-0.7c-0.1,0-0.2,0-0.2,0
			c0,0.4,0,0.8-0.1,1.3l0,0c-0.1,0.3-0.1,0.6-0.2,0.8c-0.2,0.7-0.4,1.3-0.7,2c-0.8,1.9-2.2,3.1-4.2,3.5
			C17.464,22.85,16.764,21.85,16.564,20.549z M31.664,20.549c0.3,0.4,0.5,0.8,0.8,1.1c-2.5-1-5.3-1.2-8.2-0.6c0.3-1,0.6-1.8,0.9-2.8
			C28.064,17.35,30.264,18.25,31.664,20.549z M35.264,23.149c-0.1-0.1-0.3-0.2-0.5-0.3c0-0.1,0-0.1,0-0.1c0.3,0,0.5,0.1,0.7,0.2
			c0,0,0,0-0.1,0C35.264,23.049,35.264,23.049,35.264,23.149z M31.264,23.35c1.5,0.8,2.8,1,3.7,0.8c0,0.6,0,1.2,0.1,1.8
			c-2-1-4.3-1-6.7-0.1l-0.3,0.2c1.9,0.2,3.8,0.3,5.7,0.5c-0.3,0-0.7,0.2-1.1,0.4c-0.6,0.5-1.1,1.1-1.7,1.8c-0.2,0.1-0.2,0.3-0.2,0.5
			l0.1,0.2c1.6-1.2,3.1-1.8,4.6-1.9c0.1,0.3,0.3,0.7,0.4,1c-0.1,0.1-0.1,0.1-0.2,0.1c-0.1,0.1-0.2,0.1-0.2,0.1
			c0.2,0.1,0.4,0.1,0.6,0.2c0.2,0.3,0.4,0.7,0.5,1c0,0.2,0,0.3,0.1,0.4c-1.5,1.7-3.1,3-5.1,4.1c-0.5-0.2-0.9-0.3-1.4-0.5
			c0,0,0,0,0-0.1c-0.1-0.1-0.3-0.2-0.4-0.3c-2-1.2-3.5-2.5-4.4-4c-0.4-0.8-0.6-1.6-0.8-2.5c-0.2-1.4-0.2-2.8,0.1-4.2
			c0-0.1,0-0.2,0.1-0.2c0.6-0.4,1.3-0.6,2-0.8C28.364,22.25,29.764,22.75,31.264,23.35z M19.364,36.85c0-0.1,0.2-0.3,0.3-0.4
			c1.8-1.2,3.6-2.1,5.7-2.9c-0.8,0.7-1.5,1.4-2.2,2.2c-1,1.1-1.9,2.3-2.6,3.6c-0.1-0.5-0.2-0.9-0.3-1.3c-0.1-0.1-0.2-0.1-0.4-0.2
			c-0.1,0-0.2,0-0.3,0C19.464,37.45,19.364,37.149,19.364,36.85z M26.464,33.95c0.2,0.1,0.4,0.3,0.6,0.5c-0.4,0.4-0.8,0.9-1.3,1.3
			c-0.6,0.7-1.2,1.3-1.7,2c-0.1,0-0.2,0-0.3-0.1c-0.3,0.4-0.5,0.8-0.7,1.2c0,0,0.1,0,0.2,0c-0.1,0.2-0.3,0.5-0.4,0.8
			c-0.7,0.1-1.3,0.5-2,1.2c0-0.1-0.1-0.3-0.1-0.4c0.2-0.1,0.3-0.3,0.4-0.6C22.264,37.25,24.064,35.25,26.464,33.95z M3.164,53.75
			c0.4-0.1,0.7-0.2,1-0.3c0.2-0.1,0.4-0.2,0.5-0.2c4.8-0.1,9.2,1.1,13.4,3.7c8.2,4.7,12.6,11.3,13.1,19.9c-3.7,2.7-7.9,3.4-12.8,1.9
			c-5.2-1.6-9.3-4.7-12.4-9.3C2.464,64.25,1.564,59.049,3.164,53.75z M31.564,78.45c0.8-0.8,1.3-1.7,1.4-2.6
			c1.7,0.3,3.3,0.6,4.9,0.8c0,0,0,0-0.1,0c-2.5,0.9-4.8,1.8-7.3,2.6C30.764,79.049,31.164,78.75,31.564,78.45z M57.464,74.35
			c-0.1-0.1-0.2-0.2-0.3-0.3c1-0.4,2.1-0.9,3.1-1.4c-2.2,2.2-5,3.4-8.2,3.6c0-0.1,0.1-0.3,0.1-0.5c-0.3,0.2-0.7,0.4-1.1,0.6
			c-0.6,0-1.1,0-1.6-0.1c2.3-0.4,4.5-1,6.7-1.8c0.1,0.1,0.1,0.2,0.2,0.3c0.2-0.1,0.5-0.2,0.7-0.3
			C57.264,74.35,57.364,74.35,57.464,74.35z"/>
		<path style="fill:#BE3689;" d="M47.264,36.75c-0.1,0.1-0.1,0.1-0.1,0.1c-0.9,0-1.9,0.2-2.9,0.5c-0.2,0.2-0.5,0.4-0.8,0.7
			c-0.7,0.6-1.1,1.3-1.3,2.2c0,0-0.1,0.1-0.1,0.2c-2.6-1.4-4.9-1.6-6.9-0.6c-0.5-0.3-1.2-0.3-2-0.2c-0.1-0.2-0.1-0.3-0.1-0.4
			c0-0.7-0.3-1.1-0.7-1.4c-0.4,0-0.6,0.1-0.6,0.5c0,0.9,0.3,1.8,0.9,2.4c0.2,0.1,0.4,0.2,0.6,0.3c-0.2,0.2-0.5,0.5-0.7,0.8
			c-0.8,0-1.5-0.2-2.2-0.3c-0.1-0.2-0.1-0.3-0.1-0.4c0-0.4-0.2-0.7-0.6-1c-0.1,0.1-0.2,0.1-0.2,0.3c-0.3,0.8-0.1,1.5,0.5,2.1
			c0.5,0.3,1,0.5,1.6,0.6c-0.1,0.1-0.3,0.2-0.3,0.4c-1.1,0.2-2,0-2.9-0.7c-0.4,0-0.6,0.1-0.5,0.5c0.1,0.9,0.8,1.4,1.9,1.5
			c0.2,0,0.4,0,0.6,0c-3.3,5.7-2.1,10.3,3.6,14.1c4.9,0.2,8.8-1.5,11.6-5.1c3,1.6,6,1.4,9.2-0.6c4.8-3.2,5.7-7.2,2.8-11.9
			c-0.1-0.1-0.2-0.2-0.3-0.3c-1.2-1.3-2.5-2.3-3.8-3c0.1-0.1,0.3-0.2,0.5-0.3c0.1-0.2,0.2-0.4,0.3-0.5c0.7-1.1,0.6-1.9-0.2-2.6h-0.1
			c-0.4,1.1-1.2,2.1-2.2,2.7c-0.4-0.1-0.8-0.2-1.2-0.3c0.4-0.5,0.7-1,1-1.6c-0.1-0.1-0.1-0.2-0.1-0.4c-0.1-0.7-0.4-1.3-0.8-1.7h-0.2
			c0.1,1.8-0.5,2.9-1.7,3.5c-0.1,0-0.1,0-0.1,0c0-0.1,0-0.2,0-0.2c0.3-1.3,0.1-2.4-0.4-3.4C47.564,33.85,47.164,35.049,47.264,36.75
			z M35.864,40.85c0.6-0.1,1.2-0.3,1.8-0.5c0.2,0.1,0.4,0.2,0.7,0.3c1.4,0.6,2.7,1.2,3.9,1.6c0.5,0.1,1,0.1,1.4,0.2
			c0.2-0.4,0.3-0.9,0.4-1.3c0-0.6,0.1-1.2,0.3-1.7c4.6-1.7,8.5-0.7,11.9,3.1c0.2,0.7,0.5,1.3,0.7,1.9c1.2,2.7,0.5,5.2-2,7.2
			c-3.4,2.1-6.8,2-10-0.1c-5.4,7.2-10.4,7.7-14.9,1.4c-0.1-0.1-0.1-0.2-0.1-0.3C29.664,47.75,31.664,43.85,35.864,40.85z"/>
		<path style="fill:#BE3689;" d="M34.564,45.75l-0.3,0.1c0.7,1.3,1.5,2.5,2.5,3.3c-0.5,1.4-0.7,2.7-0.5,4.1c0.7-0.6,1.5-1.5,2.1-2.5
			c0.1-0.1,0.2-0.3,0.2-0.4c1.2,0.5,2.4,0.8,3.9,0.8c0,0-0.1-0.1-0.1-0.2c-1-0.7-2-1.3-3-2c1-2.1,1.3-3.7,0.8-4.9v0.1
			c-0.4,0.3-0.8,0.6-1.2,0.8c-0.1,0.5-0.2,0.8-0.5,1.2c-0.3,0.5-0.7,1-1,1.5C36.564,47.049,35.564,46.35,34.564,45.75z"/>
		<path style="fill:#BE3689;" d="M51.664,40.549c-0.1,0-0.2,0.1-0.2,0.3c-0.7,1.3-1.3,2.6-1.8,4c-0.9-0.5-1.9-1-2.9-1.4l-0.3,0.1
			c0.9,0.8,1.8,1.6,2.8,2.4c-0.6,1.4-1.1,2.8-1.5,4.3c1.1-0.8,2.1-2,2.9-3.4c1.3,0.8,2.7,1.5,4.3,2c-0.1,0-0.1-0.1-0.1-0.2
			c-1.2-1.1-2.4-2.1-3.7-2.9c0-0.1,0-0.2,0.1-0.2C52.264,43.049,52.364,41.35,51.664,40.549z"/>
		<path style="fill:#BE3689;" d="M65.664,61.549c0-0.1,0-0.2-0.1-0.3c-2.4-2-5.2-2.5-8.5-1.6c-1.3,0.8-2.3,1.9-3,3.4
			c-1.3,2.3-1.4,4.7-0.5,7.1c0.2-0.1,0.3-0.2,0.4-0.3c0.2-0.5,0.1-0.9,0-1.4c0.2-0.7,0.4-1.5,0.4-2.3c0.1-2.5,1.3-4.3,3.7-5.4
			c0.1,0.1,0.3,0.1,0.4,0.1C61.264,61.049,63.664,61.25,65.664,61.549z"/>
		<path style="fill:#BE3689;" d="M62.164,11.549l0.1-0.1c-0.3-0.2-0.7-0.5-1.1-0.6c-0.1,0.1-0.2,0.2-0.4,0.5
			c-0.2,0.4-0.6,0.7-1.1,0.7c-0.3-0.1-0.7-0.2-1-0.2c-0.1-0.1-0.2-0.1-0.4,0c-0.1,0.4-0.2,0.7-0.4,1c-0.2,0.5-0.2,1-0.2,1.5
			c-0.1,0.1-0.3,0.2-0.5,0.4c-0.5,0.2-0.6,0.5-0.5,1.1c0.2,0.1,0.3,0.1,0.5,0.1c1-0.2,1.6-0.9,1.5-2c0.1-1.1,0.9-1.4,2.5-0.7
			c0.2-0.2,0.3-0.4,0.2-0.6C61.364,12.049,61.564,11.75,62.164,11.549z"/>
		<path style="fill:#BE3689;" d="M4.564,82.25h-0.1c-0.1,0.1-0.2,0.3-0.3,0.5c0.1,0.1,0.2,0.2,0.2,0.1c0.3,0,0.5,0,0.8-0.1
			C4.964,82.649,4.764,82.45,4.564,82.25z"/>
		<path style="fill:#BE3689;" d="M1.464,80.85c0.2,0,0.4,0,0.7,0c2.7-0.8,5.5-1.7,8.3-2.5c-0.1-0.1-0.1-0.1-0.2-0.2
			c-0.5-0.1-1-0.1-1.6-0.2c-0.1,0.1-0.2,0.1-0.3,0.2C5.864,78.75,3.464,79.649,1.464,80.85z"/>
	</g>
</g>
</svg>
