<?xml version="1.0" encoding="iso-8859-1"?>
<!-- Generator: Adobe Illustrator 12.0.1, SVG Export Plug-In . SVG Version: 6.00 Build 51448)  -->
<!DOCTYPE svg PUBLIC "-//W3C//DTD SVG 1.1//EN" "http://www.w3.org/Graphics/SVG/1.1/DTD/svg11.dtd" [
	<!ENTITY ns_svg "http://www.w3.org/2000/svg">
	<!ENTITY ns_xlink "http://www.w3.org/1999/xlink">
]>
<svg  version="1.1" id="Layer_1" xmlns="&ns_svg;" xmlns:xlink="&ns_xlink;" width="77.7" height="94.044"
	 viewBox="0 0 77.7 94.044" style="overflow:visible;enable-background:new 0 0 77.7 94.044;" xml:space="preserve">
<g>
	<path style="fill:#BE3689;" d="M73.7,43c-0.1-0.1-0.3-0.2-0.5-0.2c-1.6-0.2-3.1-0.4-4.7-0.5c0.4-0.7,0.5-1.3,0.5-2
		c-0.1-0.2-0.2-0.3-0.2-0.3c-2.1-1.8-4.4-2.9-7.1-3.3c0-1.1-0.2-2.1-0.5-3.2c-0.9-2.5-2.4-4.6-4.5-6.4c-0.2-0.1-0.5-0.1-0.8-0.2
		c-1.4-0.1-2.8-0.2-4.2-0.3c0,0.1,0,0.2,0,0.2c-1.5,0.3-2.4,1.2-2.9,2.5c-1.8-2.5-4.3-3.8-7.6-3.8c-1.5,0.4-2.7,1.3-3.6,2.6
		c-1,1.5-1.6,2.9-1.8,4.3c-1.7-2-4.1-3.1-7.1-3.4c-0.5,0.4-1.1,0.6-2,0.6c-0.1,0-0.4,0.1-0.5,0.2c-0.7,1.5-1.1,3.2-1.4,4.8
		c-0.2,2.6,0.4,4.6,1.9,6.1c-4.9,1.7-8.8,4.7-11.6,9.2c-2.4,0-4.4,0.8-6.1,2.2c0,0.2,0,0.3,0,0.4c1.3,5,4.1,7.2,8.2,6.8
		c-0.2,0.7-0.3,1.5-0.5,2.2c-3.4-2.6-7.4-3.6-12-3c-0.5,0.4-1.1,0.5-2,0.6c-0.1,0-0.2,0-0.4,0c-0.2,0.3-0.4,0.5-0.6,0.7
		c-0.3,0.4-0.7,0.7-1.1,1.1c-0.1,0.1-0.1,0.3-0.1,0.4c-1.1,8.1,2,14.7,9.1,19.6c1.3,0.8,2.6,1.5,3.9,2.1c-2.7,0.4-5.2,1.2-7.7,2.1
		c0.3,0.3,0.6,0.4,0.9,0.3c1.7,0,3.4,0,5.1-0.2c2.5-0.2,4.3-0.5,5.5-1c3.9,0.7,7.5-0.3,11-3c1.2,0.5,2.3,1,3.5,1.4
		C25.2,83.2,19,84.7,13,87.1c0.5,0.2,1.1,0.4,1.7,0.5c5.9-2.4,12.1-3.8,18.5-4.2c0.1,0.1,0.2,0.2,0.4,0.2c-0.1,0-0.1-0.1-0.1-0.2
		c0.2,0,0.3,0,0.4,0c0.4,0.1,0.8,0.2,1.3,0.4c-4.8,0.5-9.3,2.2-13.4,4.8c2.4-0.4,5-0.8,8.1-1.4c3.4-0.5,5.9-1.4,7.4-2.5
		c0.2,0.1,0.3,0.2,0.4,0.2c0-0.1,0-0.3,0-0.5c0,0,0,0,0.1,0c1.3,0.3,2.7,0.5,4,0.7c-3.9,1-7.7,2.6-11.3,4.5c0.5,0.2,1.1,0.2,1.5,0
		c3.4-1.2,6.8-2.2,10.3-2.8c2.4-0.4,4-0.8,5-1.3c0.7,0,1.5,0,2.3-0.1c0.2,1.4,1,2.9,2.6,4.4c-0.3,0.2-0.5,0.2-0.9,0.3
		c-1.6,0.7-2.7,1.6-3.3,2.8c0.1-0.1,0.3-0.1,0.4-0.2c1.4-0.9,2.8-1.7,4.4-2.3c0.1,0.1,0.2,0.2,0.3,0.3c0.7,0.5,1.3,1,2,1.3
		c-0.3,0.1-0.6,0.2-0.9,0.3c-0.1,0-0.3,0.1-0.4,0.3C53.3,93,53,93.5,53,94c0.2,0.1,0.4,0,0.7,0c1.5-0.5,2.5-0.9,3.2-1.3
		c1.6,0.4,3.3,0.3,5.2-0.3c-0.5,0.2-0.9,0.5-1.3,0.7c0.5,0.5,1.2,0.6,1.9,0.2c3.9-1.9,7.7-3.6,11.5-5c-0.1-0.2-0.2-0.2-0.3-0.3
		c-0.7-0.1-1.4-0.2-2.2-0.2c-0.5,0.2-1.1,0.4-1.7,0.6c-1.1,0.5-2.2,0.9-3.3,1.4C68,89,69.1,88.1,70,87c2.6-1.1,5.1-2.4,7.7-3.7
		c-0.1-0.2-0.2-0.2-0.3-0.3c-0.5-0.1-1.1-0.2-1.7-0.2c-0.7,0.2-1.4,0.5-2.2,0.8c-0.5,0.2-1,0.5-1.4,0.7c0.3-0.5,0.6-1.1,0.9-1.8
		c1.2-0.3,2.1-0.9,2.8-1.9c-0.2,0-0.3,0-0.5,0c-0.6,0-1.2,0.1-1.6,0.3c0.9-2.7,1.2-5.8,0.9-9.2c0.1,0.1,0.2,0.1,0.4,0.2
		c0.5-0.3,0.8-0.6,0.9-1.1c0.8-2.8,1.4-5.7,1.8-8.6c0-0.5,0-0.9,0-1.2c-0.2-1.7-0.9-3.1-2.2-4.1c-0.5-0.1-0.9-0.2-1.3-0.3
		c-0.1-0.1-0.2-0.1-0.2-0.2c-0.3,0-0.5,0.1-0.7,0.2c-0.1,0.1-0.2,0.1-0.3,0.2c-0.5-2.3-1.5-4.4-2.8-6.4c1.2-0.5,2.2-1.4,2.9-2.7
		C73.9,46.3,74.1,44.7,73.7,43z M75.2,58.4c0.4,0.3,0.7,0.6,0.8,1c0.2,0.8,0.4,1.8,0.5,2.8c-0.3,0.3-0.5,0.6-0.5,1.1
		c-0.1,2.4-0.7,4.5-1.6,6.7c-0.1-0.3-0.1-0.6-0.2-1c-0.3-1-0.6-2-1-3c-0.1-0.1-0.1-0.2-0.2-0.3c0.1,0,0.1,0,0.1,0
		c0.6-2.8,0.6-5.5,0.1-8C73.8,57.9,74.5,58.1,75.2,58.4z M50.9,29c0.1-0.2,0.3-0.3,0.4-0.5c1.3-0.7,2.5-0.7,3.9-0.3
		c0.2,0.1,0.4,0.1,0.5,0.2c1.3,0.8,2.2,1.8,2.8,3c0.1,0.1,0.2,0.2,0.3,0.4c0.7,1.3,1.1,2.6,1.3,4.1c0.1,1.2,0.7,1.8,1.6,1.7
		c0,0,0,0,0-0.1c1.8,1.2,3.6,2.5,5.5,3.8c-0.4,0.3-0.7,0.7-1.1,1.1c-0.4,0.6-1,1.1-1.6,1.5c-3.1,0.4-6,0.6-8.6,0.4
		c0.5-0.9,0.8-2,0.9-3.2c0.1-0.1,0.1-0.2,0.2-0.3c0.9-1,1.2-2,1-2.8c0.1-0.5,0-0.9,0-1.3c0-0.3-0.1-0.6-0.1-0.8
		c-0.5-1.8-1.4-3.4-2.7-4.8c-0.2-0.1-0.5-0.2-0.8-0.2c-0.4-0.1-0.8-0.2-1.2-0.3c-0.1,0.2-0.3,0.2-0.5,0.3c-0.5,0.2-1.1,0.5-1.6,0.7
		c-0.3,0.5-0.4,1-0.6,1.5v0.1c-0.2-0.8-0.4-1.6-0.7-2.3c-0.1-0.1-0.2-0.3-0.3-0.4c0-0.1,0-0.2-0.1-0.2C50,30.1,50.5,29.8,50.9,29z
		 M45.2,32.8c-0.1-0.2-0.2-0.3-0.3-0.3c-0.2-0.2-0.4-0.2-0.6-0.4c-0.4-0.4-0.8-0.8-1.3-1.3c-0.6,0-1.2-0.1-1.8-0.2
		c-0.6,0.3-1.2,0.9-1.6,1.7c-0.8,1.7-0.8,3.1,0,4.3c-0.9,0-1.6,0.1-2.4,0.1c0.9-0.6,0.9-1,0-1.3c0-0.1,0-0.2,0-0.3l0,0
		c0.1-0.1,0.1-0.2,0-0.3c0,0,0,0,0-0.1c0-4.4,2.1-6.9,6.4-7.6c1.3,0.8,2.3,1.9,3.1,3.3c1.6,3.1,2.8,6.4,3.6,9.7h-0.1
		c-0.1,0-0.2,0.1-0.2,0.2c-0.3,0.4-0.2,0.7,0.2,1c0.1,0.1,0.2,0.2,0.4,0.3c0,0.3,0.1,0.5,0.1,0.8c0.1-0.2,0.2-0.3,0.3-0.4
		c1.9,1.5,3.1,3.4,3.8,5.5c-3.9,2.7-7.6,2.4-11-1c0-0.4,0-0.9,0.3-1.3c0.2-0.3,0.5-0.7,0.8-1.1c0.5-0.6,1.1-1.2,1.8-1.7
		c0.1-0.1,0.3-0.2,0.5-0.4c0.1-0.3,0.2-0.7,0.2-1c0-0.1,0-0.2,0.1-0.2c-0.1,0-0.1,0-0.1,0c0-0.1,0-0.2,0-0.3
		c0.1-2.9-0.7-5.4-2.4-7.6C45.1,32.9,45.2,32.8,45.2,32.8z M42,32c0.2,0.1,0.5,0.2,0.7,0.3c-0.1,0.3-0.2,0.5-0.4,0.8
		c-0.5,1-0.7,2.1-0.5,3.3c-0.5,0.1-1,0.1-1.5,0.1c0.1-0.3,0.2-0.8,0.1-1.2C40.3,33.8,40.8,32.8,42,32z M43.9,33.9
		c0.4,0.5,0.7,1,1.1,1.5c0,0.1,0,0.2,0.1,0.4c-0.4,0.2-0.8,0.3-1.4,0.4c-0.3,0-0.6,0-0.8,0.1c0-0.1,0-0.1,0-0.1
		C43,35.3,43.4,34.6,43.9,33.9z M50.9,34.5c0.3,0.1,0.5,0.1,0.8,0.1c0.2-0.3,0.3-0.7,0.4-1c0.3-1.1,0.9-1.5,1.7-1.3
		c0.3,0.2,0.5,0.5,0.6,0.8c0.5,1.2,1.1,2.2,1.7,3c0.1,0.5,0.3,1,0.6,1.5c-0.1,0-0.1,0.1-0.2,0.2c-0.4,0.5-0.8,1-1,1.5
		c-0.1,0-0.2,0-0.3-0.1c-1-0.6-2.2-0.9-3.4-0.9c-0.1-0.3-0.1-0.6-0.2-0.8C51.4,36.5,51.2,35.5,50.9,34.5z M33.7,33.3
		c0.7,0.7,1.3,1.3,2,1.6c0.1,0.4,0.2,0.8,0.3,1.2c-0.1,0.2-0.2,0.4-0.3,0.6c-0.2-0.1-0.3-0.1-0.5-0.1c0.1,0.1,0.2,0.2,0.4,0.3
		c-0.1,0.1-0.1,0.2-0.1,0.2c-1.5-1.4-3.2-2.2-5.3-2.3L30,34.9c1.8,1.5,3.5,2.5,5.3,2.9c0,0.2-0.1,0.4-0.1,0.7
		c-1-0.5-2.2-0.6-3.5-0.4c-0.6,0.1-1.1,0.3-1.7,0.4c-0.1,0.1-0.2,0.1-0.3,0.3c1.9,0.6,3.7,0.9,5.5,0.8c0,0.1,0,0.3,0.1,0.5
		c-1.5-0.2-3-0.3-4.6-0.5c-0.3,0.1-0.7,0.3-1,0.4c-0.1,0-0.4,0-0.5,0c-0.6,0.2-1.2,0.3-1.8,0.5c0.2-1-0.1-2.3-0.6-3.6
		c-0.5-1.8-0.4-3.5,0.5-5.3c0.5-0.2,0.9-0.3,1.4-0.6c0.9-0.5,1.9-0.5,2.8,0.1C32.3,31.8,33.1,32.4,33.7,33.3z M37,40.8
		c-0.1-0.3-0.1-0.5-0.2-0.8c0-0.4-0.2-0.8-0.5-1.1c0.2-0.3,0.3-0.5,0.4-0.8c0-0.1,0-0.3,0.1-0.4c1.5,0.7,3.4,0.9,5.4,0.5
		c1.7-0.3,2.8-0.7,3.3-1.1c0,0.2,0.1,0.4,0.2,0.5c0.4,1,0.5,2.1,0.4,3.2c-0.6,0.2-1.1,0.7-1.5,1.3c-2.2,0.7-4.4,0.7-6.5,0
		c-0.1,0-0.2-0.1-0.2-0.2C37.7,41.4,37.4,41.1,37,40.8z M35.7,41.6c0.1,0.2,0.2,0.3,0.3,0.5c0.4,0.5,0.7,1.1,1.1,1.8
		c2.2,0.8,4.2,1.1,5.7,0.9c-0.3,0.8-0.4,1.6-0.2,2.6c5.5,5.1,10.3,4.9,14.4-0.5c-0.2-0.4-0.4-0.8-0.6-1.1S56.2,45.3,56,45
		c2,1.7,4.4,2.1,7.4,1.2c1,0.9,2.1,1.9,3.2,3c4.2,4.2,6,9.1,5.3,14.5c-0.7-0.9-1.6-1.8-2.7-2.4c-1.1,0-2.3,0-3.5,0
		c-0.2,0-0.5,0.2-0.9,0.4c-5.2,3-9.1,7-11.4,12.3c-0.8-0.4-1.7-0.6-2.7-0.4c-1.3,0.5-2.6,1.3-3.7,2.3c-1.4,1.3-1.8,2.8-1.3,4.7
		c0.4,0.4,0.8,0.8,1.2,1c0.3,0.2,0.5,0.3,0.8,0.3c0.5-0.4,1.1-0.5,1.7-0.7c0.1,0,0.3,0.1,0.4,0.2c0.1,0.1,0.1,0.2,0.1,0.4
		C50,82,50,82.3,50,82.5c0,0.2,0,0.3,0,0.4V83c-0.2,0.3-0.3,0.5-0.3,0.8c-0.6,0-1.2,0-1.9,0.1c0-0.1,0-0.1-0.1-0.1
		c0,0-0.1,0-0.2,0.1c-2.3,0-4.7-0.2-7.2-0.6c-9.7-1.6-17-5.5-21.9-12c-0.6-1.7-0.8-3.5-0.7-5.4c0.2-2.4,0.6-4.7,1.2-6.9
		c0.2-0.1,0.4-0.2,0.6-0.2c-0.1-0.3-0.2-0.5-0.4-0.6c1.5-5.1,3.9-9.3,7.4-12.9c-0.5,0-1-0.1-1.5-0.2c-0.2,0.3-0.3,0.5-0.5,0.7
		c-3.2,3.4-5.5,7.5-6.9,12.3c-0.3,0-0.5,0.1-0.8,0.3c-0.5-0.2-1-0.4-1.5-0.5c-2.4-0.9-3.9-2.5-4.3-4.8c1.3-0.8,3.1-1.3,5.2-1.3
		c0.1-0.3,0.2-0.5,0.3-0.7c3.1-4.6,7.2-7.7,12.3-9.4c0.1,0.1,0.4,0.1,0.7,0.1c2.1-0.4,4-0.7,5.9-1C35.5,41,35.6,41.3,35.7,41.6z
		 M51.8,40.1L51.8,40.1c0-0.2,0-0.4,0-0.6c1.1,1,2.2,1.1,3.4,0.4c-0.3,0.7-0.5,1.3-0.5,1.9c0,0.4-0.1,0.8-0.1,1.2
		C53.8,42,52.9,41,51.8,40.1z M65.4,45.4c1-0.8,1.8-1.6,2.7-2.5c0-0.1,0-0.1,0.1-0.1c1.2,0.5,2.7,1.1,4.4,1.6
		c-0.4,1.6-1.3,2.9-2.6,4c-0.4,0.2-0.6,0.5-0.8,0.7C68.1,47.8,66.9,46.6,65.4,45.4z M1.5,64.5c0-0.1,0-0.2,0.1-0.3
		C1.8,63.9,2,63.5,1.9,63c0-0.3,0.1-0.7,0.2-1.1c0.1-0.1,0.2-0.2,0.2-0.4c5.2-1.9,9.9-1.5,14.2,1.4c-0.8,7.1,1.9,12.6,8.3,16.4
		c0.6,0.3,1.3,0.7,1.9,1.1c-0.1,0.2-0.3,0.5-0.4,0.7c-0.1,0.2-0.2,0.3-0.3,0.4c-2.5,0.9-4.9,1.2-7.3,0.9c0,0,0,0,0-0.1
		c-0.1,0-0.3,0-0.5,0.1c-2.7-0.4-5.4-1.5-8-3.4C5.2,75.4,2.2,70.6,1.5,64.5z M68.5,63.7c0.2,0,0.4,0.1,0.6,0.3
		c0.2,0.1,0.4,0.2,0.5,0.4c0.6,0.5,0.9,1.3,1.1,2c0.1,0.1,0.1,0.2,0.1,0.4c0.2,0.1,0.3,0.2,0.4,0.3c0.1,0.2,0.2,0.3,0.4,0.4
		c0.7,3.1,1,6.4,0.8,9.8c-0.3,3.6-1.7,6.6-4.3,9.1c-7,6.6-12.7,6.2-17.1-1.1c0.1-0.6,0.2-1.1,0.5-1.7c0.2-0.5,0.5-1,0.9-1.5
		c0.5-0.6,0.6-1.3,0.4-2.1c-0.5,0.4-1,0.8-1.4,1.2c0-0.1,0-0.1,0-0.2c-0.1-0.5-0.3-1-0.6-1.5c-0.1-0.1-0.2-0.1-0.4-0.2
		c-0.5-0.1-1-0.2-1.6-0.2c-0.6,0.7-1.2,0.9-1.8,0.6c-0.1-0.1-0.1-0.2-0.2-0.3c0-0.4,0.1-0.7,0.3-1c1-2,2.7-3.1,5-3.4
		c0.2,0.3,0.4,0.4,0.7,0.5c0,0,0,0.1-0.1,0.1c0,0.2,0,0.3,0,0.4c-0.2,1.1,0.2,1.7,1.1,2c0.1,0.1,0.3,0.1,0.4,0
		c0.3-0.3,0.5-0.7,0.7-1c1.8-5.5,5.2-9.9,10.1-13.1C66.1,63.7,67.3,63.7,68.5,63.7z"/>
	<path style="fill:#BE3689;" d="M30.5,47.9c-0.1,0-0.2,0.1-0.2,0.4s0.1,0.6,0.2,0.9C30.5,48.7,30.5,48.3,30.5,47.9z"/>
	<path style="fill:#BE3689;" d="M46.9,83.4c-1.1-0.1-2-0.4-2.8-0.8H44c0,0.1,0,0.2,0,0.2C45,83.1,45.9,83.4,46.9,83.4z"/>
	<path style="fill:#BE3689;" d="M58.5,9.9c-1-1.6-2.4-2.8-4.3-3.5c-1.2-0.1-2.3,0-3.4,0.4c-0.3,0.1-0.5,0-0.7-0.2
		c-0.2-0.2-0.4-0.5-0.6-0.7c-1.7-2.4-4.1-3.1-7-2.4c-0.2-0.1-0.3-0.2-0.4-0.4c-1.8-1.8-3.9-2.9-6.4-3.1c-0.6,0.4-1.3,0.8-2.3,1
		c-1.7,0.5-3.1,1.5-3.9,3c-1.7-0.4-3.4-0.5-5.2-0.4c-0.6,0.8-1.2,1.5-1.9,2.1c-0.3,0.4-0.8,0.8-1.3,1.2C21,7,21,7.1,21,7.3
		c-0.3,0.9-0.5,1.7-0.8,2.6c-0.2,0.5-0.2,1,0,1.5c0.1,0,0.2,0,0.4,0c-0.5,0.2-0.9,0.3-1.4,0.4c1.6,0.2,3.1,0.4,4.5,0.6
		c0.1,0.2,0.1,0.3,0.2,0.5c0.2,0,0.3,0,0.4,0c1.2,4.3,3.6,8,7.2,11.2c0-0.1,0.1-0.2,0-0.2c-2.2-4-4.7-7.8-7.2-11.4
		c1.5,0.2,2.9,0.4,4.2,0.5c0,0.1,0,0.2,0,0.2c0.3,0.1,0.5,0.1,0.8,0.1c-0.1-0.1-0.1-0.2-0.1-0.2c0.1,0,0.3,0,0.5,0
		c0.5,2.1,1.6,3.8,3.3,5c0-0.1,0.1-0.2,0-0.3c-0.6-1.7-1.4-3.2-2.6-4.6c1.4,0.2,2.6,0.3,3.9,0.4c1.4,3.6,3.3,6.9,5.5,9.9
		c0.1-0.1,0.2-0.2,0.1-0.2c-1.4-3.4-3.1-6.6-5.2-9.7c0.9,0.1,1.7,0.2,2.5,0.2c0,0.1,0,0.1,0,0.1c0.1,0,0.2,0,0.4,0
		c-0.1,0-0.1,0-0.1-0.1c0.4,0.1,0.8,0.1,1.2,0.1c0,0.1,0,0.1,0.1,0.2C38.7,14,38.7,14,38.7,14c-0.1,0.1-0.1,0.2-0.1,0.2
		c0.2,0.4,0.4,0.8,0.6,1.2c0.5,1.3,1.2,2.3,2.1,3.2c0.7,0.9,1.6,1.6,2.5,2.3c0-0.1-0.1-0.2-0.1-0.4c-0.8-1.4-1.7-2.8-2.6-4
		c-0.5-0.9-1-1.8-1.5-2.5c0.9,0,1.8,0,2.6,0.1c0.1,0,0.1,0.1,0.1,0.2c0.2,0,0.3,0,0.5,0c-0.1-0.1-0.1-0.2-0.2-0.2c0.7,0,1.4,0,2,0
		c0.1,2.3,1,3.8,3,4.7c0-0.2,0-0.3-0.1-0.4c-0.6-1.5-1.4-3-2.4-4.3c0.5,0,1,0,1.5,0c0,0.2,0.1,0.4,0.1,0.6c0.2,0,0.4,0,0.6,0
		c-0.2-0.2-0.3-0.4-0.4-0.6c0.4,0,0.8,0,1.2,0c1.4,2.7,2.9,5.5,4.4,8.2c0,0.1,0.1,0.2,0.1,0.4c0.1,1.5,0.8,2.2,2,2.2
		c0-0.3-0.1-0.5-0.2-0.6c-1.5-3.5-3.1-6.8-4.9-9.9c-0.3-0.1-0.5-0.2-0.7-0.3c0,0-0.1,0-0.1-0.1c1.3,0,2.6-0.1,3.8-0.3
		c0.1,0,0.2-0.1,0.3-0.1c0,2.6,1,4.8,3.2,6.7c0-0.2,0-0.3-0.1-0.4c-0.5-2.3-1.6-4.4-3-6.3c0.4-0.2,0.8-0.3,1.3-0.3
		c0.7-0.1,1.3-0.1,1.9-0.2c0.1,0,0.1,0,0.2,0c0.4,1.9,1.1,3.9,1.9,5.9c0.3,0.3,0.5,0.5,0.8,0.8c0.6,2.6,1.6,4.2,3.1,4.7
		c0-0.1,0-0.2,0-0.3c-1.7-3.8-3.4-7.6-5.4-11.2c0.5-0.2,0.9-0.3,1.3-0.4c0,0,0,0.1,0,0.2c0-0.1,0.1-0.2,0.2-0.3c0,0,0.2-0.1,0.3-0.1
		c-0.1-0.1-0.1-0.2-0.2-0.2C58.7,11.3,58.8,10.5,58.5,9.9z M52,8.2c1.1-0.8,2.5-0.6,4.2,0.6c1.4,1,2,2.2,1.9,3.5
		c-0.6,0-1.1,0-1.6,0.1c-0.1-0.1-0.1-0.2-0.2-0.3l-0.1,0.1c0,0.1,0,0.1,0,0.2c-11.4,0.7-22.8,0.4-34.3-1.2c-0.1-0.1-0.3-0.2-0.4-0.3
		c-0.1-0.1-0.1-0.2-0.2-0.4c0.5-0.8,0.9-1.7,1.3-2.6c0.4-0.9,1-1.6,1.7-2.3c1.5-0.6,2.9-0.6,4.3,0c0,0.1,0.1,0.1,0.1,0.2
		c0.2,0.2,0.4,0.3,0.6,0.5c0.2,0,0.4,0.1,0.7,0.1c0.3-0.3,0.5-0.7,0.8-1.1c1.3-2,3.1-3.2,5.5-3.7c0.2,0.1,0.4,0.2,0.5,0.2
		c0.5,0.2,0.9,0.3,1.3,0.3c0.2,0.3,0.5,0.5,0.8,0.6c0.7,0.4,1.4,0.8,1.9,1.3c0.2,0.3,0.3,0.5,0.4,0.8c0,0.2,0.1,0.5,0.2,0.7
		c0,0.2,0.1,0.3,0.2,0.4c0.5,0.1,1,0,1.5-0.1c1.4-0.5,2.7-0.6,3.9-0.3c0.7,0.7,1.3,1.4,1.7,2.3c0.1,0.4,0.4,0.8,0.6,1.1
		C49.9,9.2,50.8,8.9,52,8.2z M24.3,12.5L24.3,12.5c-0.1,0-0.1,0-0.1,0H24.3z"/>
	<path style="fill:#BE3689;" d="M52.1,14c0.1-0.1,0.1-0.1,0.1-0.1h-0.1C52.1,13.9,52.1,13.9,52.1,14z"/>
	<path style="fill:#BE3689;" d="M33.1,13.6c0.1,0,0.2,0,0.3,0c0,0,0,0-0.1-0.1C33.2,13.5,33.1,13.5,33.1,13.6z"/>
	<path style="fill:#BE3689;" d="M8.8,82.2c-0.4-0.2-0.7-0.3-1.1-0.3C7.6,82,7.5,82,7.3,82C4,81.8,1.6,82.6,0,84.4
		c0.1-0.1,0.3-0.1,0.5-0.1c2.9-0.5,5.7-1.2,8.5-1.9C8.9,82.3,8.8,82.2,8.8,82.2z"/>
	<path style="fill:#BE3689;" d="M45,89.5c3.7-1.1,5.1-2.2,4.2-3.2c-0.1,0-0.3,0.1-0.5,0.1c-4.1,0.7-7,2.2-8.7,4.7
		C41.3,90.6,43,90,45,89.5z"/>
</g>
</svg>
