<?xml version="1.0" encoding="iso-8859-1"?>
<!-- Generator: Adobe Illustrator 12.0.1, SVG Export Plug-In . SVG Version: 6.00 Build 51448)  -->
<!DOCTYPE svg PUBLIC "-//W3C//DTD SVG 1.1//EN" "http://www.w3.org/Graphics/SVG/1.1/DTD/svg11.dtd" [
	<!ENTITY ns_svg "http://www.w3.org/2000/svg">
	<!ENTITY ns_xlink "http://www.w3.org/1999/xlink">
]>
<svg  version="1.1" id="Layer_1" xmlns="&ns_svg;" xmlns:xlink="&ns_xlink;" width="85.8" height="90.24" viewBox="0 0 85.8 90.24"
	 style="overflow:visible;enable-background:new 0 0 85.8 90.24;" xml:space="preserve">
<g>
	<g>
		<path style="fill:#BE3689;" d="M83,68c0.1-0.1,0.2-0.2,0.3-0.3c0.1-0.2,0.2-0.3,0.3-0.4c0.2-1.9,0.6-3.7,1.1-5.4
			c0.3-0.8,0.4-1.6,0.4-2.5c0.2-0.1,0.3-0.3,0.5-0.4c0-0.1,0.1-0.2,0.2-0.3c0-0.1,0-0.3-0.1-0.4c-0.5-4.9-3.6-7.2-9.2-6.9
			c-2.9,0.8-5.7,1.9-8.1,3.5c0.9-8.4-1.7-15-7.9-19.6c-1.1-1.7-1.7-3.5-1.9-5.5c0.4-0.5,0.7-1,1-1.5c1.6-0.5,2.8-1.1,3.4-1.9
			c-0.9-0.7-1.6-1.4-2.2-2.2c-0.1-0.3-0.1-0.5-0.1-0.8c-0.1-0.7-0.1-1.5-0.1-2.2c0.1-0.2,0.2-0.2,0.3-0.3c0.1,0,0.1,0,0.3-0.1
			c1.6,2,3.5,3.2,5.7,3.6c0.4-0.2,0.7-0.6,0.9-1c1.7-3.5,1.6-7,0-10.6c-0.3-0.3-0.6-0.5-0.9-0.8c-0.2-0.2-0.4-0.5-0.6-0.7
			c-0.5-0.1-0.9-0.1-1.3-0.1l0,0c-2,1-3.5,2.4-4.5,4.3c-4.1-0.4-7.1,0.6-9.1,3.2c-0.4-1.3-0.9-2.4-1.7-3.6C49.6,15,49.4,15,49.3,15
			c-0.9,0-1.8,0.1-2.7,0.2c-4.1,1.2-6.9,3.6-8.2,7.3c-0.1-0.1-0.1-0.2-0.1-0.3c-0.1-0.3,0-0.6,0.3-0.9c-0.1-0.4-0.1-0.8-0.2-1.1
			c0-0.2,0-0.3,0-0.4c-0.2,0.1-0.4,0.3-0.6,0.4c0-0.5,0.1-1,0.2-1.5c0.4-1.5,0.8-2.9,1.1-4.3c0.6-0.6,1.1-1.2,1.6-1.7
			c0.4-0.6,0.9-1.1,1.4-1.7c3.6,1,6.5,0.4,8.5-1.8c0-0.2,0-0.3,0-0.4c-1-4.9-4-7.8-9.1-8.8c-1.1,0.6-1.8,1.7-1.9,3.1
			c-0.2,1.1-0.3,2.3-0.3,3.4c-1.8,1.1-3.1,2.6-3.8,4.4c-1.4,3.1-1.8,6-1.3,8.7c-0.4-0.7-0.7-1.3-1.1-1.9c-0.3-0.4-0.7-0.7-1.1-1
			c-2.8-2-5.9-3.3-9.4-3.8c-0.1-0.1-0.3-0.2-0.5-0.4c-1.3-1-2.9-1.7-4.6-2c-1.7,1.5-2.7,3.4-2.9,5.8c-0.4,2.7,0.7,4.8,3,6.4
			c0.4,0,0.8,0,1.2,0c0.3-0.3,0.6-0.5,0.9-0.8c-0.2,0.7-0.3,1.4-0.3,2.3c0.4,0.8,0.7,1.8,0.9,3c-0.1-0.1-0.2-0.1-0.3-0.2
			c-0.1,0.2-0.3,0.2-0.5,0.2c-3.4,0.8-6.4,2.3-9,4.6c-1.8-0.3-3.6-0.1-5.4,0.4c-0.5,0.7-0.7,1.5-0.6,2.5c0.7,5.8,4.1,8.4,10.1,7.6
			c0-0.9,0-1.8,0.1-2.6c0.1-1.2,0-2.4-0.4-3.4c0-0.1,0-0.2,0.1-0.3c0.1-0.2,0.3-0.3,0.4-0.5c0.4,0.2,0.8,0.4,1.2,0.5
			c0,0.5-0.1,1-0.3,1.4c-0.6,1-0.7,2.1-0.4,3.1c0.9-0.7,1.9-1.4,3.1-2c-0.1,0.2-0.2,0.3-0.3,0.5l0,0c-0.3,0.5-0.6,1.1-0.8,1.7
			c-2.8,4.2-4.4,9-4.9,14.4c-0.8,9.3,2.8,15.4,10.9,18.5c0.2,0,0.4,0.1,0.6,0.2c-0.4,0.3-0.6,0.7-0.8,1.2c0.1,0.3,0.1,0.6,0.2,0.8
			c0,0-0.1,0-0.2,0c-2.6-0.9-5.4-1.3-8.6-1.1c-1.3,0.4-2.6,0.7-3.9,1.1c-1.2,0.2-2.9,1.3-5,3.3c-2.2,2-3.5,3.4-4,4.1
			C0.9,84,0.7,85,1.1,86c0.1,0.3,0.2,0.5,0.3,0.8C1.9,86.9,2.5,87,3.1,87c-1.4,0.3-2.5,1-3.1,2.2c0.1,0.1,0.2,0.2,0.2,0.1
			c2.6-0.2,4.1-0.9,4.3-2.1c1.1,0.2,2.2,0.3,3.4,0.4c-1.4,0.4-2.6,1-3.8,1.9c0.1,0.2,0.1,0.2,0.1,0.2c2.7-0.4,4.6-1,5.7-2
			c1.2,0.1,2.4,0.1,3.6,0.2c-1.2,0.4-2.4,1-3.5,1.8c0.4,0.6,1.1,0.7,1.9,0.3c0,0,0.2-0.1,0.3-0.1c2-0.6,3.5-1.2,4.5-2
			c1.3,0,2.6,0,3.9,0c-1,0.5-2,1-3,1.6c0.3,0.2,0.6,0.2,0.8,0.2c1.9-0.6,3.8-1.3,5.6-2c1.8-0.2,3.5-0.4,5.3-0.6
			c-1.7,0.8-3.2,1.7-4.8,2.6c0.1,0.1,0.2,0.2,0.3,0.2c0.4,0.2,0.8,0.3,1.2,0.3c0.1-0.2,0.3-0.3,0.4-0.3c2.7-1.3,5.5-2.5,8.3-3.7
			c0.8-0.1,1.7-0.3,2.6-0.5c0-0.2,0-0.4-0.1-0.6c1.9-0.8,3.7-1.6,5.6-2.4c-0.2-0.2-0.4-0.3-0.6-0.3l0,0c1-0.6,2.1-1,3.1-1.4
			c0.7,0,1.4,0,2.1-0.1c-1.2,0.6-2.3,1.2-3.3,1.9c-4.1,1.7-7.6,4-10.3,6.7c0.2,0.1,0.4,0.1,0.6,0c4.4-2.2,8.3-4.4,11.5-6.8
			c0-0.1,0-0.2,0-0.3c1.6-0.8,3.2-1.3,4.7-1.6c0.1-0.1,0.1-0.2,0-0.2c0-0.1-0.1-0.1-0.1-0.1c1.3-0.4,2.6-0.8,3.9-1.3
			c0.2-0.2,0.3-0.5,0.5-0.7c0.2-0.5,0.4-1,0.7-1.5c-0.3-0.2-0.5-0.6-0.5-1.1c-0.1-0.9-0.3-1.8-0.6-2.6c-0.1-0.1-0.2-0.2-0.3-0.3
			c0.1,0,0.2,0,0.4,0c0.1-0.1,0.3-0.2,0.4-0.3c0,0.1,0,0.1,0.1,0.2c0.3-0.1,0.7-0.1,1.1-0.1c-0.1-0.2-0.3-0.3-0.4-0.4
			c0.6-0.3,1.2-0.6,1.9-0.9c0.1,1.3,0.3,2.7,0.8,4c0.9,0.9,1.8,1.8,2.6,2.7c0.4,0.1,0.9,0.2,1.3,0.4c0.6,0.3,1.3,0.5,2.1,0.6
			c7.9,0.8,14-2.4,18-9.7c0.1-0.1,0.1-0.2,0.1-0.3c0-0.2,0-0.3,0-0.4s0-0.2,0-0.4C82.8,68.3,82.9,68.2,83,68z M76.5,53.2
			c1.5-0.3,2.9-0.2,4.4,0.3c0.8,0.6,1.5,1.3,2,2.1c0.6,0.8,1.1,1.8,1.4,2.8c-0.3,1.2-0.5,2.3-0.8,3.4c-0.4,1.6-0.8,3.3-1.4,4.9
			c-0.1,0.1-0.2,0.2-0.3,0.3c-0.2,0.2-0.3,0.3-0.4,0.4c-1,3.1-2.8,5.6-5.6,7.6c0,0-0.1,0-0.2,0c-4.2,2.6-8.7,3.2-13.5,1.9
			c-0.2-0.1-0.4-0.4-0.6-0.6c-0.9-0.9-1.6-2.1-2.3-3.5c-0.2-1-0.4-1.9-0.4-2.8c1.1-5.1,3.5-9.1,7-11.9c0,0,0,0,0,0.1
			c0.7-0.6,1.5-1.1,2.4-1.7c0-0.1,0-0.1,0-0.1C70.6,54.9,73.3,53.9,76.5,53.2z M61,16.8c0.7,0.8,1.7,0.7,2.9-0.1
			c-0.2-0.2-0.3-0.2-0.4-0.3c-0.6-0.1-1.2-0.3-1.8-0.4c1-1.9,2.3-3,4.2-3.3c0.1,0.2,0.4,0.4,0.6,0.7c0.2,0.1,0.4,0.3,0.5,0.4
			c-0.2,0.7-0.2,1.2,0,1.7c0.4,0.9,0.7,1.8,1,2.8c0.2,0.5,0.2,0.9,0,1.3c-0.3,1.3-0.9,2.5-1.6,3.6c-0.2,0-0.4,0-0.5-0.2
			c-1.2-0.8-2.2-1.9-2.9-3.2c0.4,0,0.8,0,1.3,0c-0.1-0.1-0.2-0.1-0.3-0.2c-0.4-0.2-0.8-0.4-1.3-0.5c-0.2-0.2-0.3-0.3-0.7-0.4l0,0
			c-0.1,0.1-0.2,0.1-0.3,0.1c-0.2,0-0.2,0-0.3,0l-0.1-0.1c-3.7-0.8-6.8,0-9.4,2.3c-0.2-0.6-0.3-1.1-0.2-1.7c-0.1,0-0.1,0-0.1,0.1
			c0-0.1,0-0.1,0-0.1C53.8,18.2,57,17.3,61,16.8z M48.1,5.7c0.1,0.2,0.2,0.5,0.3,0.7c0.1,0.5,0.3,1,0.4,1.5c0.1,0.2,0.1,0.3,0.1,0.4
			c-1.6,0.6-3.5,1-5.7,1.1c-0.1,0-0.2-0.1-0.4-0.1c0.5-0.6,0.9-1.2,1.3-1.8c-0.1,0-0.2,0.1-0.3,0.1c-0.9,0.3-1.6,0.7-2.1,1.3
			c0-0.1-0.1-0.1-0.2-0.1C41.4,8.9,41.3,9,41.3,9c0,0.1,0,0.2,0.1,0.3c-0.2,0.1-0.3,0.3-0.4,0.6c-0.5,0.4-1,1-1.3,1.6
			c-0.4,0.6-0.9,1.2-1.6,1.7c-0.3,1.3-0.7,2.6-1.1,3.9c-0.6,1.6-0.6,2.9-0.1,3.9c0,0.2,0,0.4,0,0.7c0,0,0.1,0.1,0.1,0.2
			c-0.5-0.1-1-0.2-1.5-0.2c0.1-0.2,0.1-0.4,0.1-0.5c-0.3,0-0.5,0-0.7,0c0.3-1.1,0.4-2.3,0.5-3.5c0.4-3.3,1.5-6.1,3.5-8.6
			c0,0.1,0,0.1,0,0.1c2.5-1.7,3.2-2.9,2.1-3.5c-0.1,0-0.2,0.1-0.3,0.2c0-0.7,0.1-1.4,0.2-2.1c0.2-0.9,0.5-1.6,1.1-2.3
			c0.9-0.1,1.7,0.1,2.4,0.6C45.7,3.2,47,4.3,48.1,5.7z M49.2,16.6c0.3,0.8,0.5,1.5,0.7,2.2c0.7,2.9,0.6,5.7-0.4,8.4
			c-0.3,0.3-0.7,0.6-1,1c-0.1,0.1-0.2,0.3-0.3,0.5c-0.7,0.2-1.4,0.5-2.2,1c-0.3,0-0.6-0.1-0.9-0.2c-2.3-0.6-4.3-1.6-6-3.2
			c0,0,0,0-0.1,0c0-0.4-0.1-0.9-0.2-1.3c0.8,0.1,1.6,0,2.4,0c0.6,0.4,1.3,0.7,1.9,1c1,0.4,1.6,0.2,2.1-0.5c-0.1-0.6-0.5-0.8-1.3-0.8
			c-0.9,0-1.6-0.3-2.2-0.8c-0.4,0-0.8,0.1-1.3,0.1c1.5-0.8,3-1.5,4.6-2c-0.2-0.1-0.3-0.1-0.4-0.2c-0.6-0.1-1.3-0.1-2-0.2
			c-0.1,0.1-0.3,0.1-0.5,0.2c-1.6,0.4-2.6,1.1-3,2.4c0,0,0,0-0.1,0c-0.1,0.1-0.2,0.1-0.2,0.2c-0.1-0.4-0.2-0.8-0.3-1.2h0.1
			c-0.1-0.1-0.1-0.1-0.1-0.1c0-0.1-0.1-0.2-0.1-0.3C41.3,19.6,44.9,17.5,49.2,16.6z M52,23.2c0-0.1,0-0.2,0-0.3c0,0,0,0,0.1-0.1
			c0.4-0.2,0.8-0.6,1.2-1.1c2-1.4,4.2-1.9,6.5-1.6c-0.1,0.1-0.3,0.3-0.4,0.4c0,0.5-0.1,1-0.1,1.5c-0.2,1.3,0,2.4,0.6,3.4l0.1,0.3
			c-0.2,0.2-0.5,0.5-0.7,0.8c-2-0.6-4.1-0.8-6.3-0.7c-0.1,0.1-0.2,0.1-0.4,0.1c-0.4,0.1-0.8,0.2-1.1,0.4c0.2-1,0.4-2,0.5-2.9
			c0.2-0.1,0.4-0.1,0.6-0.2c-0.1,0-0.1-0.2-0.2-0.2C52.3,23,52.1,23.1,52,23.2z M48,31.2c0.1-0.2,0.3-0.3,0.4-0.5
			c0.6,0.3,1.2,0.5,1.8,0.8c-0.3,0-0.6,0-0.8,0.1c3.2,1.1,6.5,2.9,9.9,5.2c4.9,3.5,7.5,8.1,7.7,13.7c0,1.9-0.1,3.9-0.6,5.9
			c-1.4,1-2.7,2.2-3.9,3.6c-1.8,1.9-3,3.9-3.6,5.9c-0.1,0-0.1,0-0.1,0c-0.3,0.2-0.5,0.4-0.8,0.6c-0.1,0.3-0.1,0.6-0.2,0.8
			c-0.1,0.8-0.2,1.6-0.2,2.3c-1.3,1-2.8,1.9-4.4,2.6C53,72.1,52.8,72,52.5,72c-0.1,0.1-0.1,0.2-0.2,0.4c0,0,0,0.1,0,0.2
			c-3.7,1.4-8,2.2-13.1,2.3c-5,0-9.6-0.6-13.6-2c0-0.1,0-0.1-0.1-0.1l0,0c-3.7-1.3-7-3.3-9.9-6c-0.9-1.6-1.4-3.3-1.6-5.2
			c-0.8-9.8,1.6-17.9,7.3-24.5c0.1,0,0.1,0,0.2,0c-0.1,0-0.1,0-0.1,0c0-0.1,0.1-0.2,0.2-0.3c1-0.8,2.2-1.6,3.4-2.4
			c1,0.7,2.4,1,4.1,0.8c0-0.1,0.2-0.2,0.3-0.2c2.7-1.5,4.4-3.3,4.8-5.3c2-0.7,3.9-1,5.8-1.1c-0.1-0.1-0.1-0.1-0.1-0.1
			c-0.1-0.1-0.1-0.1-0.1-0.2c1.8,2.1,4.5,3.1,7.9,3.1C47.8,31.4,47.9,31.3,48,31.2z M50.4,28.7c0.4-0.5,0.6-1,0.8-1.5
			c0.1,0,0.1,0,0.2,0c0.1,0,0.3,0,0.5-0.1c0.2,0.1,0.4,0.2,0.6,0.3c0-0.2,0-0.2,0-0.4c2.4-0.1,4.6-0.2,6.5-0.1
			c-0.6,0.7-1.2,1.4-1.6,2.3c0,0.2,0,0.5,0,0.7c-0.1,1.4,0,2.6,0.5,3.6c-0.6-0.3-1.1-0.6-1.7-0.9c-0.2-0.2-0.5-0.4-0.8-0.6
			c0.2-0.2,0.4-0.4,0.6-0.6c-0.6-0.2-1-0.4-1.5-0.7c-0.1,0.2-0.1,0.4-0.2,0.5c-1.3-0.9-2.7-1.6-4.2-2.3
			C50.2,28.8,50.3,28.7,50.4,28.7z M38.4,22.5l-0.1,0.1v-0.1H38.4z M37.2,23.9c0,0.4,0.1,0.8,0.2,1.1c0.2,0.6,0.2,1.1,0,1.5
			c-0.1,0.2-0.2,0.3-0.2,0.4l0,0c-0.9,0.1-1.9,0.3-2.8,0.4c-0.2,0-0.4-0.1-0.7-0.1V27c-0.1-0.3-0.2-0.7-0.2-1.1
			c-0.1-0.5-0.2-1-0.3-1.4c0-0.2,0-0.3,0-0.4c0.1-1.1,0.9-1.3,2.3-0.8C36,23.6,36.6,23.7,37.2,23.9z M19.4,12.4
			c0.1,0.1,0.2,0.2,0.4,0.3c0.6,0.9,1.7,1.5,3.1,2c0-0.2,0-0.3-0.1-0.4c-0.1-0.2-0.2-0.5-0.4-0.7c3.6,1.2,7,2.9,10.1,5.2
			c0.4,0.6,0.7,1.3,0.8,1.9c0.1,0.5,0.3,0.8,0.4,1c-0.1,0-0.2,0-0.4,0.1c-2.2-4-5.9-5.5-11.2-4.6c-0.5,0.5-1.1,1.1-1.7,1.8
			c-0.7,0.7-1.4,1.4-2.3,1.9c-0.1-0.1-0.2-0.2-0.3-0.2c-0.5-0.5-1-1-1.4-1.6c-0.5-0.6-0.7-1.2-0.8-1.8c0-0.1,0.1-0.2,0.1-0.3
			c0.4-0.7,0.7-1.4,0.9-2.3c0.2-1,0.7-1.9,1.5-2.5C18.6,12.2,19,12.3,19.4,12.4z M12.8,35.3c0,0.2,0,0.5-0.1,0.7
			c-0.1,0.7,0,1.4,0.2,2c0.3,1,0.4,1.9,0.5,2.9c-1,0.7-2.2,0.6-3.7-0.2c-2.5-1.5-3.8-3.6-4.1-6.4c1.6-1.3,3.5-1.7,5.8-1.1
			c0.2-0.2,0.4-0.4,0.6-0.6c2.7-2.1,5.4-3.5,8.4-4.3c0,0.5,0,0.9,0,1.4c0.2,0.5,0.4,0.8,0.6,1.2C17.9,30.3,15.1,31.8,12.8,35.3z
			 M31.6,23.3c-0.1,0.6-0.1,1.2,0,1.9c-2-1.2-4.2-1.4-6.7-0.5l-0.3,0.1c1.8,0.3,3.8,0.5,5.7,0.8c-0.3,0.1-0.7,0.2-1.2,0.3
			c-0.6,0.5-1.2,1.1-1.8,1.8c-0.2,0-0.2,0.2-0.2,0.5l0.1,0.1c1.6-1,3.2-1.6,4.7-1.6c0.1,0.3,0.2,0.7,0.4,1c-0.1,0.1-0.2,0.1-0.3,0.1
			c-0.1,0.1-0.2,0.1-0.2,0.1c0.2,0.1,0.4,0.1,0.6,0.3c0.2,0.3,0.4,0.6,0.4,1c0,0.1,0.1,0.2,0.1,0.4c-1.5,1.6-3.3,2.8-5.3,3.8
			c-1-0.4-2-0.8-2.9-1.4c-0.1,0-0.2,0-0.3,0c-0.1-0.1-0.2-0.1-0.3-0.1c-0.1,0-0.3-0.1-0.4-0.2c-1-1.1-1.6-2.3-2.1-3.6
			c0.1-0.1,0.1-0.1,0.2-0.1c0-0.1-0.1-0.1-0.1-0.2c-0.1,0-0.1,0-0.2-0.1c-0.2-0.6-0.4-1.3-0.4-2c-0.2-1.5-0.1-2.9,0.2-4.2
			c0-0.2,0.1-0.3,0.1-0.3c0.7-0.3,1.4-0.5,2.1-0.6c1.6,0.4,3,0.9,4.4,1.7C29.4,23.2,30.6,23.5,31.6,23.3z M32,21.5
			c0.1,0.2,0.2,0.4,0.2,0.6c0,0-0.1,0-0.1,0.1c-0.1,0-0.1,0-0.1,0.1c-3-2.3-6.4-3.1-10-2.8c0.4-0.3,0.7-0.7,1-1c1.1,0.1,2,0.3,3,0.6
			C28.4,19.9,30.4,20.7,32,21.5z M22.4,32.3c-0.2,0-0.5,0-0.9,0c-0.4,0.4-0.9,0.8-1.3,1.2c-0.5,0.4-1,0.7-1.6,1
			c-0.1,0.6-0.3,1-0.7,1.5c-0.3,0.4-0.6,0.9-0.8,1.3c0,0,0,0-0.1,0c0-0.5,0-1-0.1-1.5c-0.1-0.2-0.1-0.5-0.3-0.8
			c-0.1-0.1-0.3-0.2-0.5-0.2c-0.1-0.1-0.3-0.1-0.4-0.2c1.3-1.2,2.8-2,4.5-2.6v0.1c0,0.1,0,0.3,0.1,0.4c0.4-0.3,1-0.5,1.5-0.6
			c0-0.1-0.1-0.2-0.1-0.2c-0.1,0-0.2,0-0.3,0c0.1-0.1,0.2-0.1,0.3-0.1C21.9,31.9,22.2,32.1,22.4,32.3z M23.6,32.9
			c-0.6,0.4-1.2,0.9-1.8,1.5c-0.7,0.6-1.3,1.3-1.9,1.9C19.6,36.2,19.3,36,19,36c-0.2,0.3-0.4,0.6-0.5,0.8c-0.1,0-0.2,0-0.2,0
			c-0.1,0-0.1,0-0.1,0.1c1.3-1.9,2.9-3.4,4.6-4.4C23,32.7,23.3,32.8,23.6,32.9z M2.1,84.9c0.3-0.8,0.7-1.5,1.4-2.1
			c5-5.2,10.5-7.3,16.5-6.5c2.5,0.7,5,1.5,7.4,2.3c0.4,0.2,0.7,0.4,1.1,0.6c0.8,0.7,1.7,1.1,2.8,1.5c0-0.2-0.1-0.3-0.2-0.3
			c-0.1-0.2-0.2-0.3-0.3-0.5c0.2,0.1,0.5,0.2,0.8,0.4c0-0.1-0.1-0.2-0.2-0.3c-0.9-1-2-1.8-3.1-2.4c-0.2-0.2-0.2-0.3-0.3-0.4
			c0,0.1,0,0.1,0,0.2c-1-0.5-2.1-1-3.2-1.3c-0.7-0.5-0.9-1.1-0.4-1.8c0.2-0.1,0.4-0.1,0.6-0.1h0.1c2.2,0.7,4.4,1.3,6.7,1.7
			c-0.1,0.1-0.2,0.2-0.2,0.3l1,0.4c-0.2,0-0.5,0-0.7,0c-0.8-0.3-1.5-0.7-2.4-0.9l-0.2,0.1c1.2,1.5,2.5,2.9,4,4.3
			c0.1,0.6,0.3,1.2,0.7,1.8c-0.2,0-0.3,0.1-0.5,0.1c0,0.5,0.2,0.8,0.5,1.2c0.4,0.3,0.7,0.7,1.1,1.1c0,0.1,0,0.1,0,0.1
			c-0.3,0.1-0.7,0.3-1,0.5c-2.1,0.2-4.2,0.5-6.3,0.6c-0.3-0.1-0.5-0.1-0.8-0.2c0,0.1,0,0.1,0,0.1c-0.4,0.1-0.6,0.2-1,0.3
			c-7,0.6-14.2,0.8-21.4,0.7C3.4,86.4,2.6,85.9,2.1,84.9z M32.7,76.6c-0.1-0.2-0.1-0.4-0.2-0.6c0.9,0.1,1.7,0.3,2.5,0.3
			C34.2,76.4,33.4,76.5,32.7,76.6z M51.6,73.7c0.3-0.1,0.6-0.2,0.8-0.2c0.2,0.3,0.5,0.6,1,0.9c-0.1,0.4,0,0.7,0.2,1.1
			c0.4,0.5,0.4,1.2,0.3,1.9c-2.4,1.1-4.9,1.9-7.5,2.4c0.1-0.1,0.1-0.2,0.2-0.3c-0.3,0.1-0.6,0.2-0.9,0.3c-0.1,0-0.1,0-0.2,0
			c0,0,0,0-0.1,0.1c-0.8,0.2-1.8,0.3-2.9,0.2c-2.9,0-5.4-0.1-7.7-0.2c-0.5-1-1-1.8-1.8-2.4c1.8,0.4,3.5,0,5.1-1.1
			c3.9,0,7.7-0.5,11.5-1.6C50.2,74.2,50.9,73.9,51.6,73.7z M42.2,81.2c-0.7,0.3-1.2,0.7-1.8,1.1c-0.4,0.2-0.9,0.4-1.4,0.5
			c-0.8,0.3-1.6,0.6-2.3,1c-0.3-0.5-0.6-0.8-0.9-1.1c-0.1-0.1-0.1-0.2-0.1-0.2c0.9-0.3,1.8-0.8,2.6-1.4
			C39.6,81.3,40.9,81.3,42.2,81.2z M36.5,80.8c-0.5,0.3-0.9,0.6-1.3,1c0-0.1,0-0.2-0.1-0.2c0.1,0,0.1,0,0.2,0.1c0-0.2,0-0.3-0.1-0.4
			c0-0.3-0.1-0.6-0.2-0.8C35.5,80.6,36,80.7,36.5,80.8z"/>
		<path style="fill:#BE3689;" d="M43.1,36.6c-1,0-1.9,0.1-2.9,0.3c-0.3,0.2-0.6,0.4-0.9,0.7c-0.7,0.5-1.2,1.2-1.4,2.1
			c0,0.1-0.1,0.1-0.1,0.2c-2.5-1.6-4.8-1.9-6.9-1c-0.4-0.2-1.1-0.3-2-0.3c0-0.1-0.1-0.2,0-0.3c0-0.8-0.2-1.2-0.6-1.5
			c-0.4,0-0.7,0.1-0.7,0.4c0,1,0.2,1.8,0.8,2.5c0.2,0.2,0.4,0.3,0.7,0.4c-0.3,0.2-0.6,0.5-0.9,0.8c-0.7-0.2-1.4-0.3-2.1-0.5
			C26,40.2,26,40.1,26,40c0-0.4-0.2-0.8-0.6-1c-0.1,0-0.2,0.1-0.2,0.2c-0.3,0.9-0.2,1.6,0.4,2.1c0.5,0.4,1,0.6,1.5,0.7
			c-0.1,0.2-0.2,0.3-0.3,0.4c-1,0.2-1.9-0.1-2.8-0.8c-0.4,0-0.6,0.1-0.5,0.5c0.1,0.9,0.7,1.4,1.7,1.6c0.3,0,0.4,0,0.7,0
			c-3.6,5.5-2.6,10.2,2.8,14.2c4.9,0.5,8.9-1,11.9-4.5c2.9,1.8,6,1.8,9.2-0.1c5-2.9,6.1-6.8,3.5-11.7c-0.2-0.1-0.3-0.2-0.4-0.3
			c-1.1-1.3-2.3-2.4-3.6-3.1c0.2-0.2,0.4-0.3,0.5-0.4c0.1-0.1,0.2-0.3,0.4-0.5c0.7-1,0.7-1.8-0.1-2.6H50c-0.5,1.2-1.3,2-2.3,2.7
			c-0.4-0.2-0.8-0.3-1.2-0.4c0.4-0.6,0.7-1.1,1-1.6c0-0.1,0-0.3,0-0.4c-0.1-0.7-0.3-1.3-0.7-1.7h-0.2c0,1.8-0.6,2.9-1.9,3.3
			c-0.1,0-0.1,0-0.1,0s0-0.1,0-0.2c0.3-1.2,0.2-2.3-0.3-3.4c-0.7,0.7-1.1,1.8-1.1,3.5C43.1,36.5,43.1,36.5,43.1,36.6z M37.8,41.7
			c0-0.1,0.1-0.1,0.2-0.1c0.5,0.1,1,0.1,1.4,0.1c0.2-0.3,0.3-0.6,0.3-1c0.1-0.6,0.2-1.1,0.5-1.6c4.6-1.5,8.5-0.3,11.7,3.7
			c0.2,0.6,0.4,1.2,0.6,1.8c1,2.9,0.2,5.2-2.4,7.2c-3.5,1.9-6.9,1.7-10-0.7c-5.7,7-10.7,7.2-15,0.7c0-0.1,0-0.2,0-0.3
			c0-4.9,2.1-8.7,6.5-11.5c0.6-0.1,1.2-0.2,1.8-0.4c0.2,0.1,0.4,0.2,0.7,0.3C35.4,40.6,36.6,41.2,37.8,41.7z"/>
		<path style="fill:#BE3689;" d="M31.6,48.7c-0.2,0.7,0,1.1,0.7,1.4c0.6-0.6,1-1.2,1.2-1.9c0.1-0.3,0.2-0.5,0.4-0.8
			c0.1-0.1,0.2-0.2,0.4-0.3c0.3-0.1,0.6-0.2,1-0.3c0.4,0.1,0.8,0.3,1.1,0.4c0.2,0.1,0.4,0.2,0.6,0.3c0.3,0.5,0.8,0.8,1.3,1.1
			c0.2,0.1,0.4,0.1,0.7,0c0-0.1,0-0.2,0-0.3c-1.1-2.2-2.9-3-5.4-2.4c-0.1,0.1-0.3,0.2-0.4,0.4c-0.3,0.1-0.5,0.3-0.7,0.4
			C32.2,47.4,31.9,48,31.6,48.7z"/>
		<path style="fill:#BE3689;" d="M49,46.3c0-0.1-0.1-0.2-0.2-0.4c-1.2-2.1-3-3-5.5-2.7c-0.5,0.3-1,0.7-1.5,1.3
			c-1.1,1.1-1.5,2.3-0.9,3.6c0.5-0.1,0.9-0.5,1-1.1c0.3-1,0.8-1.8,1.6-2.5c0.4-0.1,0.7-0.2,1-0.3c0.4,0.1,0.8,0.4,1.1,0.7
			C47,46.3,48.1,46.7,49,46.3z"/>
		<path style="fill:#BE3689;" d="M24.5,60c-0.1,0.4,0.1,0.6,0.5,0.8c0.3,0.5,0.4,1.1,0.4,1.9c3.5,7.1,9.5,10.5,17.9,10
			c1.7-0.2,3.2-0.6,4.6-1.3c8.1-4.3,11.3-10.6,9.5-19.1c0.1-0.1,0.4-0.3,0.6-0.4c-0.2-0.2-0.3-0.2-0.4-0.2c-0.1-0.1-0.3-0.1-0.4-0.1
			v-0.1v0.1c-0.3,0-0.5,0-0.8,0c-0.3,0.2-0.6,0.4-1,0.6c-9.3,5.5-19.2,8-29.8,7.6c0,0,0,0,0-0.1C24.9,59.1,24.6,59.1,24.5,60z
			 M53.9,64.9c-0.7,1.3-1.5,2.4-2.4,3.2c-2-2.4-4.7-3-8.2-1.5c-1.3,0.4-2.4,1.1-3.4,2.2c-0.1,0.1-0.2,0.3-0.3,0.4
			c-0.2,0.2-0.2,0.3-0.2,0.5c-0.1,0.5-0.1,1-0.1,1.5c-6-0.5-10.4-3.9-13.2-10.3c11.7,1,22-1.8,31-8.4C56.9,56.6,55.8,60.7,53.9,64.9
			z M51,68.5c-0.9,0.7-1.9,1.2-3.1,1.6c-2.9,0.8-5.5,1.1-7.8,1.1c1.3-3,3.9-4.3,7.8-4.2C49.1,67.7,50.1,68.1,51,68.5z"/>
		<path style="fill:#BE3689;" d="M50.6,72c-0.1-0.1-0.2-0.1-0.3-0.2c-0.5,0-1-0.1-1.5,0c-0.5,0.6-1.3,1-2.4,1.2
			c-1.2,0.1-2.4,0.3-3.7,0.6c0.1,0.1,0.1,0.1,0.1,0.1C45.6,74.3,48.2,73.7,50.6,72z"/>
		<path style="fill:#BE3689;" d="M47.7,77.1v0.1V77.1z"/>
		<path style="fill:#BE3689;" d="M81.1,84.5c-0.1,0.1-0.3,0.1-0.5,0.2c-2.8,0.9-5.4,2.2-8,3.8c0.1,0.2,0.1,0.2,0.1,0.2
			C75.9,88,78.7,86.6,81.1,84.5z"/>
		<path style="fill:#BE3689;" d="M50.1,10.6c0.1-0.1,0.2-0.1,0.3-0.2c0.2-0.2,0.2-0.5,0.3-0.7C50.5,10,50.3,10.3,50.1,10.6z"/>
		<path style="fill:#BE3689;" d="M40.4,89.9c0.2,0.1,0.3,0.1,0.5,0c1.7-1,3.5-2,5.3-3v-0.1c0.3,0.1,0.7,0,1.1-0.4
			c0.2-0.1,0.4-0.3,0.7-0.5c0.3-0.1,0.7-0.2,1-0.4c0.1-0.1,0.3-0.1,0.4-0.3c1.5-0.9,3.1-1.6,4.9-1.9c-0.1-0.1-0.1-0.1-0.2-0.2
			c-0.4-0.1-0.9-0.2-1.3-0.3c1.5-0.8,3.1-1.5,4.7-2.1c-0.1-0.2-0.2-0.2-0.3-0.3c-0.5-0.1-1.1-0.2-1.7-0.2c-0.6,0.3-1.3,0.6-2,0.8
			c-3.1,1-5.4,2.5-7.2,4.6c-0.1,0.1-0.2,0.2-0.3,0.3c-0.1-0.1-0.1-0.2-0.1-0.3C43.6,86.7,41.7,88.1,40.4,89.9z"/>
		<path style="fill:#BE3689;" d="M47.2,89.7c0.2,0,0.4-0.1,0.6-0.2c-0.1-0.1-0.2-0.2-0.3-0.3c-0.1,0.1-0.2,0.2-0.4,0.3L47.2,89.7z"
			/>
		<path style="fill:#BE3689;" d="M62.5,85.4c-1.9,0.9-3.5,1.9-4.9,3.1c0.3,0.5,0.7,0.5,1.4,0.1c2.8-1.8,5.5-3.1,8.1-4.1
			c-0.2,0-0.4-0.1-0.6-0.1c-0.5-0.1-1-0.1-1.5-0.1C64.3,84.6,63.4,84.9,62.5,85.4z"/>
		<path style="fill:#BE3689;" d="M61.1,82c-0.7,0.5-1.5,1-2.1,1.5c-4.5,1.4-8.2,3.4-11.4,6.2c2.4-1,5.4-2.2,9.1-3.5
			c2.8-1.1,4.1-1.9,3.7-2.4c0.6-0.7,1-1.4,1.1-2C61.4,81.9,61.3,82,61.1,82z"/>
		<path style="fill:#BE3689;" d="M72,84.7c-2.1,1.3-4.4,2.3-6.9,3.1C65,87.9,65,87.9,65,88c-0.8,0.4-1,0.9-0.7,1.5
			c0.9,0,1.9-0.2,2.9-0.5C71.3,87.5,72.9,86,72,84.7z"/>
	</g>
</g>
</svg>
