<?xml version="1.0" encoding="iso-8859-1"?>
<!-- Generator: Adobe Illustrator 12.0.1, SVG Export Plug-In . SVG Version: 6.00 Build 51448)  -->
<!DOCTYPE svg PUBLIC "-//W3C//DTD SVG 1.1//EN" "http://www.w3.org/Graphics/SVG/1.1/DTD/svg11.dtd" [
	<!ENTITY ns_svg "http://www.w3.org/2000/svg">
	<!ENTITY ns_xlink "http://www.w3.org/1999/xlink">
]>
<svg  version="1.1" id="Layer_1" xmlns="&ns_svg;" xmlns:xlink="&ns_xlink;" width="86.3" height="87.84" viewBox="0 0 86.3 87.84"
	 style="overflow:visible;enable-background:new 0 0 86.3 87.84;" xml:space="preserve">
<g>
	<g>
		<path style="fill:#BE3689;" d="M82.8,83.3c1.1-0.3,2.3-0.8,3.5-1.2c0-0.1-1.5-1.5-4.5-4.4c-3-2.8-8.8-4.6-17.3-5.3
			c-2.5,0.5-5,1.1-7.6,2c-0.8,0.2-1.5,0.6-2,1.1c0,0,0,0-0.1,0c-0.2-1.1-0.7-2.1-1.5-2.8c0.9-0.3,1.8-0.5,2.7-0.8
			c5.9-2,10-6.1,12.2-12.4c3.7-10.8,1.2-19.5-7.7-26c-0.2-0.2-0.4-0.5-0.6-0.8c1.3-1,2.8-0.9,4.5,0.3c0.6,0.5,1.1,0.4,1.6-0.2
			c-0.2-0.9-0.7-1.6-1.4-2.4c-0.2-0.3-0.4-0.6-0.6-1c0-0.4,0-0.8,0.1-1.1c0.1-0.2,0.2-0.2,0.3-0.3c1.1-0.3,2.1-0.6,3.1-0.8
			c0.1,0.1,0.2,0.3,0.4,0.4c0,0.4,0,0.8,0,1.2c0,0.2,0,0.5-0.1,0.7c-0.1,0.8,0.1,1.4,0.5,1.9c5.9,1.4,9.2-0.6,9.8-6
			c-1.8-1.1-3.9-1.8-6.2-2c-0.3-0.3-0.7-0.6-1.1-1h-0.2c-0.4-0.4-0.8-0.6-1.3-0.8c-0.4,0-0.6,0-0.8,0c-1.9-1.8-4.6-2.6-8-2.5
			c-0.4,0.3-0.9,0.4-1.5,0.4c-0.3,0-0.5,0.1-0.7,0.1c-0.2-1.5-0.5-3-1.2-4.5C57,15,56.9,15,56.7,14.9c-0.9-0.1-1.8-0.2-2.7-0.3
			c-4.2,0.5-7.4,2.5-9.3,5.9c-0.1,0-0.1-0.1-0.1-0.1c0-0.5,0.2-0.8,0.5-1.1c0-0.4,0-0.8,0-1.2c0-0.5,0-1,0-1.5
			c0.2-0.2,0.3-0.5,0.5-0.7c1.1-2.3,2.6-4.3,4.7-6c0.2-0.1,0.4-0.1,0.5-0.1c2.4,1.3,5,1.6,7.8,0.8c0.2-0.2,0.4-0.5,0.4-0.7
			c0.8-4-0.3-7.2-3.2-9.8c-0.5,0-0.9,0-1.3-0.1c0,0.1,0,0.1,0,0.1c-2.1,1.3-3.5,2.8-4.2,4.5c-0.4,0-0.5,0-0.5,0.3
			c0.1,0.2,0.1,0.4,0.2,0.6c-0.1,0.1-0.1,0.2-0.1,0.3c-0.3-0.1-0.6-0.1-0.9-0.2c-1.5,0.9-2.9,2.1-4.3,3.5c-1.9,2.1-3,4.2-3.4,6.3
			C40.6,12.3,39,9.5,36.5,7c0.2-0.7,0.2-1.5,0.1-2.2c-0.1-1.7-0.7-3-1.8-4.2c-0.8,0-1.5,0-2.3-0.1c-0.2,0.1-0.4,0.2-0.8,0.3
			c-4.8,1.7-6.4,5-4.9,9.7c2,0.9,4,0.9,6,0.1c0.5,0.4,1,0.8,1.5,1.2c0-0.2-0.1-0.3-0.1-0.4c-0.1,0-0.1,0-0.1-0.1
			c2.4,2.2,3.9,4.7,4.6,7.7c0,0-0.1,0-0.2,0c0,0.1,0,0.1-0.1,0.2c-2.9-3.1-6.5-4.6-10.9-4.6c-1,1.4-1.7,3-1.9,4.9
			c-2-1.4-4.5-1.3-7.5,0.4c-0.2-0.1-0.4-0.1-0.6-0.1c-0.1,0-0.2,0.1-0.3,0.2c-0.2,0-0.4,0-0.6,0c0,0,0,0-0.1-0.1
			c-1.4-0.8-2.9-1.2-4.5-1.3c-0.6,0.2-0.9,0.7-0.8,1.6c0,1.5,0.2,2.9,0.6,4.4c0.3,1.7,1.1,3.2,2.2,4.5c0.3,0.2,0.5,0.3,0.7,0.5
			c1.7,1.1,3.3,1.1,4.8,0c0.1-0.2,0.1-0.5,0.1-0.7c0-0.8,0.1-1.5,0.4-2.1c0,0,0-0.2,0.1-0.2c0.1,0.1,0.3,0.2,0.4,0.3
			c0,0.4,0,0.8,0,1.1c0,0.4,0,0.7,0,1.1c0,0,0,0,0,0.1c-0.2,0.1-0.3,0.2-0.5,0.3c-0.9,0.8-1.3,1.7-1.2,2.6c1.6-0.2,3.1-0.3,4.4-0.3
			c-0.4,0.5-0.9,0.9-1.3,1.5l0,0c-0.4,0.5-0.8,1-1.1,1.5c-3.4,3.7-5.9,8.2-7.3,13.4c-2.3,9,0.2,15.7,7.6,20.1c2.6,1.5,5.3,2.8,8,3.7
			c-0.2,0.2-0.3,0.4-0.6,0.5c0,0.3,0,0.5-0.1,0.7c-0.3,0.7-0.5,1.4-0.4,2.3c-0.3-0.1-0.6-0.3-0.9-0.5c-0.2-0.1-0.3-0.1-0.2,0.1
			c0,0,0.1,0.1,0.2,0.3c-3.6-2.4-7.8-3.4-12.6-3.1c-1.3,0.4-2.6,0.7-3.9,1.1c-1.2,0.2-2.9,1.3-5,3.3c-2.2,2-3.5,3.4-4,4.1
			c-0.7,0.8-0.9,1.8-0.5,2.8c0.1,0.3,0.2,0.5,0.3,0.8c0.5,0.1,1.1,0.2,1.7,0.2c-1.4,0.3-2.5,1-3.1,2.2c0.1,0.1,0.2,0.2,0.2,0.1
			c2.6-0.2,4.1-0.9,4.3-2.1c1.1,0.2,2.2,0.3,3.4,0.4c-1.4,0.4-2.6,1-3.8,1.9c0.1,0.2,0.1,0.2,0.1,0.2c2.7-0.4,4.6-1,5.7-2
			c1.2,0.1,2.4,0.1,3.6,0.2c-1.2,0.4-2.4,1-3.5,1.8c0.4,0.6,1.1,0.7,1.9,0.3c0,0,0.2-0.1,0.3-0.1c2-0.6,3.5-1.2,4.5-2
			c1.3,0,2.6,0,3.9,0c-1,0.5-2,1-3,1.6c0.3,0.2,0.6,0.2,0.8,0.2c1.9-0.6,3.8-1.3,5.6-2c1.8-0.2,3.5-0.4,5.3-0.6
			c-1.7,0.8-3.2,1.7-4.8,2.6c0.1,0.1,0.2,0.2,0.3,0.2c0.4,0.2,0.8,0.3,1.2,0.3c0.1-0.2,0.3-0.3,0.4-0.3c2.7-1.3,5.5-2.5,8.3-3.7
			c0.8-0.1,1.7-0.3,2.6-0.5c0-0.2,0-0.4-0.1-0.6c1.9-0.8,3.7-1.6,5.6-2.4c-0.2-0.2-0.4-0.3-0.6-0.3l0,0c1.5-0.8,3-1.4,4.4-1.9
			c0.4-0.1,0.8-0.2,1.1-0.3c-0.3,0.4-0.6,0.9-0.8,1.5c-5.4,1.8-9.8,4.5-13.1,7.8c0.2,0.1,0.4,0.1,0.6,0c4.8-2.4,8.9-4.8,12.3-7.4
			c-0.1,0.5-0.3,1-0.3,1.6c0.6,0.4,1.2,0.8,1.9,1.1c-3.5,1-6.1,2.7-7.9,5.1c0.2,0.1,0.3,0.1,0.5,0c2.7-1.7,5.6-3.2,8.7-4.5
			c0.9,0.3,1.8,0.6,2.8,0.8c-1.9,1-3.6,2.1-5.3,3.3l0.1,0.2c2.4-0.8,4.7-1.9,6.8-3.3c1.3,0.5,2.6,0.8,4,1c-0.7,0.3-1.5,0.6-2.4,0.9
			c0,0.1-0.1,0.1-0.1,0.2c-0.8,0.4-1,0.9-0.7,1.5c0.8,0.2,1.6,0,2.4-0.4c1.7-0.8,2.7-1.5,3.1-2.1c0.7,0.1,1.4,0.1,2.1,0
			c0.7,0.1,1.5,0.2,2.3,0.2c-0.8,0.5-1.6,1.1-2.2,1.7v0.3c2.4-0.3,3.7-1,4-1.9c1.5,0,3,0,4.5-0.1c-0.5,0.4-1,0.8-1.2,1.3
			c0.2,0.1,0.4,0.2,0.7,0.1c1.7-0.3,2.9-0.9,3.8-1.7c1.4-0.2,2.9-0.4,4.4-0.7c-1.1,0.6-2,1.5-2.7,2.5c0.7,0.5,1.4,0.4,2.4-0.1
			C80.7,85.4,82.2,84.3,82.8,83.3z M76.5,26.8c-0.1,0.1-0.2,0.2-0.2,0.4c-0.2,0.2-0.3,0.4-0.5,0.6c-0.6,0.7-1.2,1.3-1.8,2
			c-1.6,0.6-3.2,0.8-4.9,0.3c0-0.2,0-0.5,0-0.7c0-0.3,0-0.5,0-0.8c0-0.3,0-0.7,0-1c0.2,0.4,0.9,0.6,2.2,0.7
			c-0.1-0.2-0.2-0.3-0.3-0.4c-0.3-0.6-0.7-1.1-1.2-1.5c-0.1,0-0.2,0-0.3,0.1c-0.2,0.3-0.3,0.4-0.4,0.6c0-0.1,0-0.2,0-0.3
			c-3.2-3.5-6.9-4.5-11.1-3.3c0.2-0.9,0.3-1.7,0.3-2.6c4-0.5,7.7,0.4,11.1,2.7c0.2,0.4,0.5,0.8,0.7,1.3c0.4-0.1,0.8-0.1,1.1,0
			c0.5,0.5,1.1,0.9,1.8,0.9c0-0.2,0-0.3,0-0.4c-0.1-0.1-0.1-0.2-0.2-0.4C74.3,25.3,75.6,25.8,76.5,26.8z M54.9,1.9
			c0.5,0.2,0.9,0.6,1.2,1c1.3,1.7,1.9,3.7,1.7,6c-1.5,0-2.8,0-4.1,0c0.4-0.2,0.8-0.5,1.2-0.8c-0.1-0.1-0.2-0.2-0.3-0.2
			c-0.5-0.3-1-0.5-1.6-0.6c-0.2,0.1-0.6,0.3-1,0.4c-0.7,0.1-1.2,0.3-1.6,0.7c-0.1,0-0.1,0-0.2,0c-0.1,0.2-0.3,0.3-0.5,0.4
			c-0.1,0-0.2,0-0.3,0c0,0,0.1,0.1,0.2,0.1c-3.7,2.6-5.7,6.1-6.2,10.5c0,0.1,0,0.2,0.1,0.3c-0.5-0.3-1-0.4-1.5-0.5
			c0.2-0.6,0.3-1.2,0.5-1.9c0.9-4.4,3.2-7.6,6.8-9.6c0.3,0,0.5-0.1,0.8-0.2c0.3,0.1,0.5,0,0.8-0.2c1.9-0.6,2.6-1.5,2.1-2.5
			c-0.2,0.2-0.5,0.3-1,0.3l0,0C52.7,3.9,53.7,2.8,54.9,1.9z M34,6c0.1,0.7,0.5,1.5,1.1,2.2c0.2,0.4,0.5,0.8,0.8,1.2
			c2.6,2.9,4.3,6.1,5,9.6c-0.5-0.1-1-0.1-1.6-0.1c-0.2-4.3-2.4-7.5-6.5-9.5l0,0c-0.1-0.1-0.2-0.2-0.2-0.2c-0.1,0-0.1,0-0.2-0.1
			C31.7,8.6,30.9,8.3,30,8l-0.1,0.1c0.3,0.3,0.6,0.6,1,0.9c-0.2,0.1-0.3,0.3-0.2,0.4c0.1,0.1,0.1,0.2,0.1,0.2
			c-0.9-0.2-1.9-0.3-2.9-0.5c-0.2-4.5,1.9-6.7,6.4-6.6c0.3,0.8,0.6,1.5,0.8,2.3c0.1,0.2,0.2,0.5,0.3,0.7c-0.1,0.4-0.2,0.7-0.3,1.1
			c-0.4-0.3-0.7-0.5-1.1-0.7V6z M51.3,21.1c-0.1-0.1-0.2-0.2-0.3-0.2c-0.7-0.3-1.3-0.5-2-0.6c-0.1,0-0.3,0.1-0.5,0.1
			c-1.6,0.1-2.8,0.7-3.4,1.9c0,0,0,0-0.1,0c0,0-0.1,0-0.2,0.1c-0.1-0.4-0.1-0.8-0.1-1.2c0.1,0,0.1,0,0.1-0.1c-0.1,0-0.1,0-0.1,0
			c0-0.1,0-0.2,0-0.3c3.3-2.7,7.2-4.1,11.7-4.3c0.1,0.8,0.2,1.5,0.3,2.3c0.2,3-0.4,5.7-1.8,8.2c-0.4,0.3-0.8,0.5-1.1,0.8
			c-0.2,0.1-0.3,0.2-0.4,0.4c-0.8,0.1-1.6,0.3-2.4,0.7c-0.3-0.1-0.6-0.2-0.9-0.4c-2.1-0.9-3.9-2.3-5.3-4.1c-0.1,0-0.1,0-0.1,0
			c0-0.5,0-0.9,0-1.4c0.8,0.2,1.6,0.3,2.3,0.4c0.6,0.5,1.2,1,1.8,1.4c0.8,0.5,1.5,0.5,2.1-0.2c0.1-0.6-0.3-1-1.2-1.1
			c-0.8-0.1-1.4-0.5-1.9-1.1c-0.5,0-0.9,0-1.3-0.1C48.1,21.7,49.7,21.3,51.3,21.1z M45.1,26.6v-0.1c1.5,2.3,3.9,3.8,7.3,4.4
			c0.1-0.1,0.2-0.2,0.3-0.2c0.2-0.2,0.4-0.3,0.5-0.4c0.6,0.4,1.1,0.7,1.6,1.1c-0.3-0.1-0.5-0.1-0.8-0.1c3,1.7,6,4,8.9,6.9
			c4.3,4.3,6.1,9.2,5.3,14.8c-0.7,5.5-3.8,10.5-9.1,14.9c-5.3,4.5-12.8,6-22.5,4.4c-9.7-1.6-17-5.5-21.9-12
			c-0.6-1.7-0.8-3.5-0.7-5.4c0.8-9.8,4.6-17.4,11.4-22.9h0.1c0,0,0,0-0.1,0c0.1-0.1,0.2-0.2,0.2-0.2c1.3-0.7,2.5-1.3,3.8-1.9
			c1,0.9,2.2,1.4,4,1.5c0.1-0.1,0.2-0.1,0.3-0.2c3-0.9,4.9-2.4,5.7-4.3c2-0.4,4-0.5,5.9-0.1C45.2,26.8,45.2,26.7,45.1,26.6z
			 M39.3,21.5c0-0.1,0-0.2,0-0.4c0.3-1,1.1-1.1,2.4-0.3c0.5,0.3,1,0.6,1.6,0.8c0,0.4,0,0.8,0,1.2c0.1,0.5,0,1-0.3,1.5
			c-0.1,0.1-0.2,0.2-0.2,0.3v0.1c-1-0.1-1.9-0.2-2.9-0.2c-0.1,0-0.4-0.1-0.6-0.2v-0.2c0-0.3,0-0.7,0-1.1
			C39.3,22.5,39.3,22,39.3,21.5z M37.9,20.1c-0.2,0.5-0.3,1.2-0.4,1.8c-1.7-1.5-3.9-2-6.5-1.6l-0.4,0.1c1.9,0.6,3.7,1.2,5.6,1.8
			c-0.3-0.1-0.7,0-1.2,0.1c-0.7,0.3-1.4,0.8-2.1,1.3c-0.1,0.2-0.2,0.3-0.3,0.5l0.1,0.2c1.7-0.7,3.4-1,4.9-0.8
			c0.1,0.4,0.1,0.8,0.2,1.1c-0.1,0-0.2,0-0.3,0c-0.1,0.1-0.2,0.1-0.2,0.2c0.2,0,0.4,0.1,0.6,0.2c0.1,0.4,0.2,0.8,0.2,1.1
			c0,0.2,0,0.3,0,0.4c-1.7,1.4-3.7,2.3-5.8,2.9c-1-0.5-1.9-1.1-2.7-1.9c-0.1,0-0.2,0-0.3,0c-0.1-0.1-0.2-0.1-0.3-0.2
			c-0.1,0-0.2-0.1-0.4-0.3c-1.1-1.9-1.6-4-1.5-6.4c0-1.4,0.4-2.8,0.9-4.1c0.1-0.1,0.1-0.2,0.1-0.2c0.8-0.1,1.5-0.2,2.3-0.3
			c1.4,0.7,2.7,1.5,4,2.5C35.7,19.5,36.9,20.1,37.9,20.1z M66.7,26.4c-0.8-0.1-1.5-0.1-2.2-0.1l0,0c-0.2,0.1-0.3,0.2-0.5,0.3
			c-0.2,0.2-0.5,0.4-0.6,0.7c-0.2,0.1-0.3,0.2-0.4,0.3c0,0.7,0,1.3,0,1.9c0,0.1,0,0.1,0,0.1c-1.8-1.4-3.8-2.5-6.1-3
			c0-0.1,0-0.1,0-0.1c0.5-0.9,0.8-1.9,1.1-2.8C61.3,23.4,64.2,24.3,66.7,26.4z M55.2,28.8c0.1,0,0.2-0.1,0.3-0.2
			c0.5-0.5,0.9-1,1.2-1.6c2,1.3,4.1,2.4,6.4,3.2c0.1,0.2,0.1,0.3,0.2,0.4c0,0.2,0.1,0.3,0.2,0.4c-0.3,0.1-0.6,0.1-1,0
			c-0.6-0.1-1.3-0.1-2-0.2c-0.3,0-0.5,0-0.7,0.1c-0.4,0.2-0.7,0.6-0.9,0.9C57.8,30.7,56.5,29.7,55.2,28.8z M31.9,9.9
			c0.1,0,0.1,0,0.1,0H31.9L31.9,9.9z M13,24.6c-0.4-1.4-0.6-2.9-0.4-4.6c0.6,0.2,1.2,0.4,1.7,0.7c0.3,0.2,0.7,0.4,1.1,0.6
			c-0.2,0.2-0.2,0.5-0.1,0.8c0.3,0,0.7-0.1,0.9-0.2s0.4-0.2,0.5-0.3c0.4,0.1,0.7,0.2,1.1,0.2c2.4-1.4,5-2,7.7-1.8
			c0,0.5-0.1,0.9-0.1,1.4c0,0.4,0,0.7,0.1,1c-0.1,0-0.2-0.1-0.2-0.1c-0.8-0.1-1.5-0.2-2.1-0.4c-0.4,0-0.8-0.1-1.2-0.3
			c-0.7,0.2-1.5,0.5-2.1,0.9c-0.1-0.1-0.2-0.2-0.4-0.2s-0.4,0.1-0.5,0.3c-1,0.7-1.6,1.7-2,2.7c0.6,0.2,1.1,0.2,1.7,0
			c0,0.1,0,0.2,0,0.3c-0.1,0-0.1,0.2-0.1,0.2h0.1c-0.1,0.4-0.2,0.8-0.2,1.1c-0.1,0.5-0.1,1-0.1,1.5c-0.4,0.1-0.8,0.2-1.2,0.1
			C15,28,13.6,26.7,13,24.6z M24.8,23.9c0.1,0.1,0.2,0.2,0.3,0.4c0.2,0,0.4,0,0.5,0c0.5,1.8,1.4,3.1,2.7,3.9c-0.7,0.3-1.3,0.7-2,1.2
			c-0.8,0.5-1.5,1-2.1,1.6c-0.9-0.6-1.8-1-2.7-1.2c0-0.1,0-0.1,0-0.2c0.3-0.1,0.5-0.3,0.7-0.5c1.2-1.3,2.8-2,4.6-2.2
			c-0.1-0.1-0.2-0.1-0.2-0.2c-0.8-0.2-1.7-0.3-2.6-0.3c-0.9,0.4-1.7,0.9-2.5,1.6c0-0.6,0-1.1,0-1.6c0-0.1-0.1-0.2-0.2-0.3
			c-0.4-0.2-0.7-0.4-1.1-0.7c0-0.4,0-0.6-0.1-1c0.2-0.1,0.3-0.2,0.4-0.3c1.2-0.8,2.5-1,3.9-0.6c0,0.1,0.1,0.1,0.1,0.1
			C24.6,23.8,24.7,23.8,24.8,23.9z M2.1,82.5c0.3-0.8,0.7-1.5,1.4-2.1c7.4-7.5,15.7-8.7,25-3.6c0.8,0.7,1.7,1.1,2.8,1.5
			c0-0.2-0.1-0.3-0.2-0.3c-0.5-0.6-1-1.2-1.7-1.6c0.1-0.2,0.1-0.3,0.1-0.5c0-0.1-0.1-0.2,0-0.4c0.3-1.3,0.5-2.4,0.3-3.2
			c1.2,0.3,2.4,0.7,3.6,1c-0.6,2.4-0.4,4.5,0.6,6.2c-0.2,0-0.3,0.1-0.5,0.1c0,0.5,0.2,0.8,0.5,1.2c0.4,0.3,0.7,0.7,1.1,1.1
			c0,0.1,0,0.1,0,0.1c-0.3,0.1-0.7,0.3-1,0.5c-2.1,0.2-4.2,0.5-6.3,0.6C27.5,83,27.3,83,27,82.9c0,0.1,0,0.1,0,0.1
			c-0.4,0.1-0.6,0.2-1,0.3c-7,0.6-14.2,0.8-21.4,0.7C3.4,84,2.6,83.5,2.1,82.5z M47,76.8c-0.4,0.2-0.8,0.5-1.3,0.6
			c-0.1,0-0.1,0-0.2,0c0,0,0,0-0.1,0.1c-0.8,0.2-1.8,0.3-2.9,0.2c-3-0.1-5.7-0.2-8.1-0.3c-0.3-1.3-0.4-2.7-0.4-4
			c4.4,1,8.9,1.1,13.5,0.5c0.1,0.6,0.3,1.3,0.6,2.2c-0.4,0.1-0.7,0.3-1,0.7C47.1,76.8,47.1,76.8,47,76.8z M52.5,72.9
			c0.2,1.3,0.7,2.3,1.5,3c-0.8,0.4-1.5,1-2,1.9c0.1,0.1,0.2,0.2,0.2,0.1c0.7-0.1,1.2-0.2,1.7-0.3c0,0.1,0,0.2,0,0.3
			c11.3-5.9,21.2-4.6,29.9,3.6c-8.7,2.1-17.6,2.8-26.5,2c-3.7-0.7-6.7-1.8-9.2-3.1c0-0.1,0.1-0.2,0.1-0.3c1.8-2.4,1.9-4.5,0.3-6.4
			C49.8,73.5,51.2,73.2,52.5,72.9z M34.5,78c0,0,0,0,0-0.1c0.6,0.2,1.3,0.4,2,0.5c-0.5,0.3-0.9,0.6-1.3,1c-0.2-0.4-0.4-0.7-0.7-1
			C34.5,78.3,34.5,78.2,34.5,78z M42.2,78.8c-0.7,0.3-1.2,0.7-1.8,1.1c-0.4,0.2-0.9,0.4-1.4,0.5c-0.8,0.3-1.6,0.6-2.3,1
			c-0.3-0.5-0.6-0.8-0.9-1.1c-0.1-0.1-0.1-0.2-0.1-0.2c0.9-0.3,1.8-0.8,2.6-1.4C39.6,78.9,40.9,78.9,42.2,78.8z"/>
		<path style="fill:#BE3689;" d="M41.3,37.4c0,0-0.1,0.1-0.2,0.1c-2.1-1.9-4.3-2.6-6.5-2.1c-0.4-0.3-1.1-0.5-2-0.6
			c0-0.2,0-0.3,0-0.4c0.2-0.7,0.1-1.2-0.3-1.5c-0.4-0.1-0.7,0-0.7,0.3c-0.2,0.9-0.1,1.8,0.3,2.6c0.2,0.1,0.4,0.3,0.6,0.4
			c-0.3,0.2-0.6,0.4-1,0.7c-0.6-0.3-1.4-0.5-2-0.9c0-0.1,0-0.2,0-0.4c0.1-0.4-0.1-0.7-0.4-1.1c-0.1,0.1-0.2,0.1-0.3,0.2
			c-0.4,0.8-0.4,1.5,0.1,2.2c0.4,0.4,0.9,0.8,1.4,0.9c-0.2,0.1-0.2,0.2-0.4,0.4c-1,0-1.9-0.5-2.6-1.3c-0.5-0.2-0.7,0-0.7,0.4
			c0,0.9,0.5,1.5,1.5,1.8c0.3,0.1,0.5,0.1,0.7,0.2c-4.5,4.7-4.4,9.6,0.3,14.5c4.8,1.4,8.9,0.5,12.5-2.4c2.6,2.3,5.6,2.8,9.1,1.4
			c5.4-2,7.2-5.7,5.4-10.9c-0.1-0.1-0.2-0.3-0.3-0.4c-0.8-1.5-1.8-2.8-3-3.7c0.2-0.1,0.4-0.2,0.6-0.3c0.1-0.1,0.2-0.2,0.4-0.4
			c0.9-0.8,1-1.7,0.3-2.6l0,0c-0.7,1.1-1.6,1.8-2.7,2.2c-0.4-0.2-0.8-0.4-1.1-0.6c0.4-0.4,0.8-0.9,1.2-1.3c0-0.2,0-0.3,0-0.4
			c0.1-0.7,0-1.3-0.4-1.9h-0.2c-0.2,1.8-1.1,2.8-2.4,3c-0.1,0-0.1,0-0.1,0c0-0.1,0-0.2,0.1-0.2c0.5-1.2,0.6-2.3,0.3-3.4
			c-0.9,0.5-1.4,1.6-1.8,3.2c0,0,0,0,0,0.1C46,35,45.1,35,44,35c-0.2,0.2-0.6,0.3-1,0.5C42.2,35.9,41.7,36.5,41.3,37.4z M36.9,36.5
			c0.2,0.2,0.4,0.3,0.6,0.4c1.2,0.9,2.3,1.7,3.3,2.4c0.1,0,0.2,0,0.2,0c0.5,0.1,1,0.2,1.5,0.3c0.2-0.2,0.3-0.6,0.4-0.9
			c0.2-0.6,0.4-1.1,0.7-1.6c4.9-0.6,8.5,1.2,10.9,5.7c0.2,0.6,0.3,1.3,0.4,1.9c0.5,3-0.7,5.2-3.6,6.7c-3.9,1.2-7.1,0.5-9.8-2.4
			c-6.8,5.9-11.9,5.2-14.9-1.9c0-0.1,0-0.2,0-0.3c0.8-4.8,3.6-8.2,8.4-10.2C35.6,36.6,36.2,36.6,36.9,36.5z"/>
		<path style="fill:#BE3689;" d="M51.1,45.8c0-0.2,0-0.3-0.1-0.4c-0.8-2.3-2.5-3.5-5-3.6c-0.5,0.2-1.1,0.5-1.7,0.9
			c-1.3,1-1.8,2.1-1.5,3.4c0.6,0,1-0.3,1.2-0.8c0.4-1,1.1-1.7,2-2.3c0.4,0,0.7-0.1,1-0.1c0.4,0.2,0.8,0.6,1,0.9
			C49.2,45.4,50.2,46,51.1,45.8z"/>
		<path style="fill:#BE3689;" d="M40.9,46.4c0-0.1,0-0.2,0-0.3c-0.7-2.4-2.3-3.5-4.9-3.3c-0.1,0-0.3,0.1-0.5,0.2
			c-0.2,0.2-0.5,0.3-0.7,0.4c-0.4,0.6-0.8,1.2-1.2,1.7c-0.4,0.7-0.3,1.2,0.4,1.5c0.7-0.4,1.2-0.9,1.5-1.6c0.1-0.3,0.3-0.5,0.5-0.7
			c0.1-0.1,0.3-0.2,0.4-0.2c0.4-0.1,0.7-0.2,1.1-0.2c0.4,0.2,0.7,0.4,1,0.6c0.2,0.2,0.4,0.3,0.5,0.4c0.3,0.5,0.7,1,1.1,1.3
			C40.3,46.3,40.6,46.4,40.9,46.4z"/>
		<path style="fill:#BE3689;" d="M25.8,55.2c0-0.1,0-0.1,0-0.2c-0.6-0.8-1-0.7-1.1,0.2c-0.2,0.3-0.1,0.6,0.3,0.8
			c0.2,0.6,0.2,1.2,0,1.9c2.3,7.7,7.7,12,16,12.9c1.7,0.2,3.3,0,4.7-0.4c8.8-2.9,13-8.6,12.6-17.2c0.2-0.2,0.5-0.3,0.7-0.4
			c-0.1-0.2-0.2-0.2-0.3-0.3c-0.2,0-0.3,0-0.4-0.1v-0.1v0.1c-0.3,0-0.5-0.1-0.8-0.1c-0.3,0.1-0.6,0.3-1.1,0.4
			C46.3,56.5,36.1,57.3,25.8,55.2z M49.3,68c-1,0.6-2.1,0.9-3.4,1c-2.9,0.3-5.5,0.3-7.8-0.2c1.8-2.7,4.6-3.6,8.4-2.8
			C47.6,66.9,48.5,67.5,49.3,68z M38.3,66.4c-0.2,0.1-0.3,0.2-0.4,0.4c-0.2,0.1-0.2,0.2-0.3,0.4c-0.1,0.5-0.2,1-0.3,1.4
			c-5.9-1.4-9.7-5.5-11.2-12.3c11.3,3,21.9,1.9,31.9-3c-0.9,3.9-2.6,7.8-5.3,11.6c-0.8,1.2-1.8,2.1-2.8,2.8C48.4,65,45.8,64,42,64.8
			C40.7,65,39.4,65.5,38.3,66.4z"/>
		<path style="fill:#BE3689;" d="M48.1,71.2c-0.5-0.2-1-0.3-1.6-0.3c-0.5,0.5-1.4,0.8-2.5,0.7c-1.2,0-2.5,0-3.7,0c0,0.1,0,0.2,0,0.2
			c2.7,1,5.3,0.8,8-0.4C48.2,71.3,48.1,71.2,48.1,71.2z"/>
	</g>
</g>
</svg>
