<?xml version="1.0" encoding="iso-8859-1"?>
<!-- Generator: Adobe Illustrator 12.0.1, SVG Export Plug-In . SVG Version: 6.00 Build 51448)  -->
<!DOCTYPE svg PUBLIC "-//W3C//DTD SVG 1.1//EN" "http://www.w3.org/Graphics/SVG/1.1/DTD/svg11.dtd" [
	<!ENTITY ns_svg "http://www.w3.org/2000/svg">
	<!ENTITY ns_xlink "http://www.w3.org/1999/xlink">
]>
<svg  version="1.1" id="Layer_1" xmlns="&ns_svg;" xmlns:xlink="&ns_xlink;" width="86.3" height="87.84" viewBox="0 0 86.3 87.84"
	 style="overflow:visible;enable-background:new 0 0 86.3 87.84;" xml:space="preserve">
<g>
	<path style="fill:#BE3689;" d="M76,86.8c0.7,0.5,1.4,0.4,2.4-0.1c2.3-1.3,3.8-2.4,4.4-3.4c1.1-0.3,2.3-0.8,3.5-1.2
		c0-0.1-1.5-1.5-4.5-4.4c-3-2.8-8.8-4.6-17.3-5.3c-0.8,0.1-1.7,0.3-2.5,0.5c0-0.2,0-0.4,0-0.6s0-0.3-0.1-0.4
		c-0.1-0.4-0.4-0.8-0.8-1.1c3.2-2.3,5.6-5.5,7.1-9.8c3.4-10,1.5-18.2-5.8-24.5c0.1-0.1,0.1-0.2,0.2-0.2c-0.1-0.3-0.1-0.5-0.2-0.7
		c-0.2-0.4-0.4-0.8-0.6-1.2c0-0.4,0-0.8,0-1.1c0-0.8,0-1.5,0-2.3c1.6-0.8,3.4-1.3,5.3-1.4c0-0.2-0.1-0.4-0.1-0.6
		c-0.5-1.2-1-2.6-1.4-3.9c0.1-0.2,0.2-0.5,0.2-0.7c0.2-0.5,0.3-1,0.6-1.5c0.1-0.1,0.1-0.1,0.3-0.1c0.1,0,0.2,0,0.3,0
		c1.5,1.7,3.2,3.1,5,4.1c0.4-0.2,0.7-0.5,1-0.8c2.6-3.1,3.2-6.5,1.6-10.3c-0.1-0.2-0.2-0.2-0.4-0.3c-0.4-0.1-0.8-0.2-1.2-0.2
		c-1.9,0.3-3.5,1.2-5,2.7c-4-0.6-7.2-0.1-10,1.6c-0.2-1-0.5-2-0.9-3c-0.1-0.1-0.2-0.1-0.4-0.2c-0.9-0.1-1.8-0.2-2.7-0.3
		c-4,0.5-7.1,2.3-9.1,5.5c0.9-3.5,2.1-6.9,3.6-10.2c0.1-0.1,0.3-0.2,0.4-0.3c1.2-0.5,2-1,2.4-1.5c1.6,0.9,3.6,1.1,5.7,0.7
		c0.4-0.3,0.6-0.7,0.8-1.1c1-3.6,0-6.6-3-9.1c-0.6,0-1.2,0-1.8-0.1c-0.1,0.1-0.3,0.2-0.5,0.3c-0.1,0.1-0.2,0.2-0.4,0.3
		c-0.2,0.6-0.6,1-1.1,1.4c-1,1-1.7,2.1-2,3.3c-0.5,0.2-1,0.5-1.4,0.9c-3.7,3.2-5.6,7-5.9,11.4C41,13,38.2,9.8,33.5,8.1
		C33.2,7.7,33.1,7.3,33,7c-0.6-1.7-1.2-3.3-1.9-5c-0.1-0.1-0.2-0.2-0.4-0.2c-0.7-0.2-1.4-0.2-2.2-0.3c-0.5,0.3-1,0.6-1.6,1.1
		c-3.7,2.8-4.2,6.1-1.6,9.9c2.9,1,5,0.8,6.2-0.5c3.4,1.7,5.5,4.4,6.5,8.1c0.1,0,0.2-0.1,0.3-0.2c-0.1,0.1-0.1,0.4-0.2,0.5
		c-2.8-2.9-6.4-4.3-10.6-4.3c-0.6,0.8-1.1,1.7-1.4,2.7c-1.5-1.4-3.3-2.1-5.6-2l0,0c-1.3-2.3-3.2-4-5.5-5.2c-0.1,0.1-0.2,0.3-0.4,0.4
		c-0.7,0.6-1.5,1.2-2.2,1.6c-0.5,0.9-0.8,1.8-1,2.7c-0.2,2.2,0.2,4.4,1.1,6.3c0.1,0.2,0.2,0.3,0.4,0.4c0.2,0.3,0.5,0.5,0.7,0.8
		c1.9-0.5,3.5-1.3,4.7-2.5c0.2,0.7,0.5,1.3,0.7,2c-0.8,1.5-1.8,2.8-3.1,4.1c2.2,0.6,3.9,1.8,5,3.6c0,0,0-0.1,0-0.2s0.1-0.1,0.2-0.2
		c0.1,0.3,0.1,0.5,0.1,0.8c0.1,0.1,0.1,0.2,0.1,0.3c0,0,0,0.1,0.1,0.2c0,0.1,0,0.2,0,0.4c-0.1,0.2-0.1,0.5-0.1,0.7
		c-0.2,0.1-0.3,0.1-0.5,0.2c0,0,0,0.1,0,0.2c0.1,0,0.2,0,0.4,0c-0.3,1.1-0.9,2.1-1.8,3c0.3,0.1,0.7,0.2,1.1,0.3
		c-3.3,3.6-5.6,7.9-7,13c-2.3,9,0.2,15.7,7.6,20.1c0.4,0.2,0.8,0.4,1.2,0.7c-0.1,0-0.2,0-0.3,0.1c-0.3,0.2-0.6,0.4-0.9,0.8
		c0,0-0.1,0.1-0.1,0.2c0,0.3,0,0.5,0,0.8c0,0.1,0.1,0.2,0.1,0.3c0.1,0,0.2,0.2,0.3,0.2c-2.2-0.6-4.4-0.8-6.9-0.6
		c-1.3,0.4-2.6,0.7-3.9,1.1c-1.2,0.2-2.9,1.3-5,3.3c-2.2,2-3.5,3.4-4,4.1c-0.7,0.8-0.9,1.8-0.5,2.8c0.1,0.3,0.2,0.5,0.3,0.8
		c0.5,0.1,1.1,0.2,1.7,0.2c-1.4,0.3-2.5,1-3.1,2.2c0.1,0.1,0.2,0.2,0.2,0.1c2.6-0.2,4.1-0.9,4.3-2.1c1.1,0.2,2.2,0.3,3.4,0.4
		c-1.4,0.4-2.6,1-3.8,1.9c0.1,0.2,0.1,0.2,0.1,0.2c2.7-0.4,4.6-1,5.7-2c1.2,0.1,2.4,0.1,3.6,0.2c-1.2,0.4-2.4,1-3.5,1.8
		c0.4,0.6,1.1,0.7,1.9,0.3c0,0,0.2-0.1,0.3-0.1c2-0.6,3.5-1.2,4.5-2c1.3,0,2.6,0,3.9,0c-1,0.5-2,1-3,1.6c0.3,0.2,0.6,0.2,0.8,0.2
		c1.9-0.6,3.8-1.3,5.6-2c1.8-0.2,3.5-0.4,5.3-0.6c-1.7,0.8-3.2,1.7-4.8,2.6c0.1,0.1,0.2,0.2,0.3,0.2c0.4,0.2,0.8,0.3,1.2,0.3
		c0.1-0.2,0.3-0.3,0.4-0.3c2.7-1.3,5.5-2.5,8.3-3.7c0.8-0.1,1.7-0.3,2.6-0.5c0-0.2,0-0.4-0.1-0.6c1.9-0.8,3.7-1.6,5.6-2.4
		c-0.2-0.2-0.4-0.3-0.6-0.3l0,0c1.5-0.8,3-1.4,4.4-1.9c0.4-0.1,0.8-0.2,1.1-0.3c-0.3,0.4-0.6,0.9-0.8,1.5c-5.4,1.8-9.8,4.5-13.1,7.8
		c0.2,0.1,0.4,0.1,0.6,0c4.8-2.4,8.9-4.8,12.3-7.4c-0.1,0.5-0.3,1-0.3,1.6c0.6,0.4,1.2,0.8,1.9,1.1c-3.5,1-6.1,2.7-7.9,5.1
		c0.2,0.1,0.3,0.1,0.5,0c2.7-1.7,5.6-3.2,8.7-4.5c0.9,0.3,1.8,0.6,2.8,0.8c-1.9,1-3.6,2.1-5.3,3.3l0.1,0.2c2.4-0.8,4.7-1.9,6.8-3.3
		c1.3,0.5,2.6,0.8,4,1c-0.7,0.3-1.5,0.6-2.4,0.9c0,0.1-0.1,0.1-0.1,0.2c-0.8,0.4-1,0.9-0.7,1.5c0.8,0.2,1.6,0,2.4-0.4
		c1.7-0.8,2.7-1.5,3.1-2.1c0.7,0.1,1.4,0.1,2.1,0c0.7,0.1,1.5,0.2,2.3,0.2c-0.8,0.5-1.6,1.1-2.2,1.7v0.3c2.4-0.3,3.7-1,4-1.9
		c1.5,0,3,0,4.5-0.1c-0.5,0.4-1,0.8-1.2,1.3c0.2,0.1,0.4,0.2,0.7,0.1c1.7-0.3,2.9-0.9,3.8-1.7c1.4-0.2,2.9-0.4,4.4-0.7
		C77.6,84.9,76.7,85.8,76,86.8z M55.4,3.2c1.1,1.7,1.4,3.3,0.9,4.9c-1.7,1.2-3.4,1.2-5.2,0c0,0,0,0-0.1-0.1c-0.1,0-0.2-0.1-0.2-0.1
		c-0.4,0.1-0.7,0.4-1,0.7L50,8.8h0.1c-3.5,3.2-5.5,7-6.1,11.5c-0.4,0.2-0.7,0.4-1,0.5c0,0.1,0,0.1,0.1,0.2c-0.1-0.1-0.2-0.1-0.3-0.1
		c-0.4,0.1-0.8,0.1-1.1,0c0-0.1,0.1-0.1,0.2-0.3c0.2-0.1,0.3-0.2,0.3-0.3c0.4-6.7,3.4-11.6,8.9-14.7c-0.1-0.1-0.2-0.2-0.4-0.2
		c-0.1-0.1-0.2-0.1-0.3-0.1c1-1.4,2.2-2.6,3.6-3.5C54.6,2.2,55,2.7,55.4,3.2z M51.3,22.6c-0.1-0.1-0.2-0.2-0.3-0.2
		c-0.7-0.3-1.3-0.5-2-0.6c-0.1,0-0.3,0.1-0.5,0.1c-1.6,0.1-2.8,0.7-3.4,1.9c0,0,0,0-0.1,0c0,0-0.1,0-0.2,0.1
		c-0.1-0.4-0.1-0.8-0.1-1.2c0.1,0,0.1,0,0.1-0.1c-0.1,0-0.1,0-0.1,0c0-0.1,0-0.2,0-0.3l0,0c3.4-2.7,7.3-4.1,11.7-4.3
		c0.1,0.8,0.2,1.5,0.3,2.3c0.1,1.2,0,2.3-0.1,3.5c-0.1,0.1-0.1,0.2-0.1,0.4c-0.3,1.5-0.8,2.9-1.6,4.3c-0.4,0.3-0.8,0.5-1.1,0.8
		c-0.2,0.1-0.3,0.2-0.4,0.4c-0.8,0.1-1.6,0.3-2.4,0.7c-0.3-0.1-0.6-0.2-0.9-0.4c-2.1-0.9-3.9-2.3-5.3-4.1c-0.1,0-0.1,0-0.1,0
		c0-0.5,0-0.9,0-1.4c0.8,0.2,1.6,0.3,2.3,0.4c0.6,0.5,1.2,1,1.8,1.4c0.8,0.5,1.5,0.5,2.1-0.2c0.1-0.6-0.3-1-1.2-1.1
		c-0.8-0.1-1.4-0.5-1.9-1.1c-0.5,0-0.9,0-1.3-0.1C48.1,23.2,49.7,22.8,51.3,22.6z M45.1,28.1V28c1.5,2.3,3.9,3.8,7.3,4.4
		c0.1-0.1,0.2-0.2,0.3-0.2c0.2-0.2,0.4-0.3,0.5-0.4c0.6,0.4,1.1,0.7,1.6,1.1c-0.3-0.1-0.5-0.1-0.8-0.1c3,1.7,6,4,8.9,6.9
		c4.3,4.3,6.1,9.2,5.3,14.8C67.5,60,64.4,65,59.1,69.4c-1.9,1.6-4.1,2.8-6.6,3.7c0.5-0.6,1-1.1,1.5-1.7c-0.8,0.7-1.6,1.3-2.4,2
		c-1.6,1.3-3.5,2-5.7,2C37,76.1,30.2,74.3,25.6,70c0.2,0.3,0.5,0.6,0.7,0.9c-0.2-0.1-0.2-0.1-0.3-0.2s-0.2-0.1-0.3-0.1
		c-0.4-0.2-0.9-0.4-1.3-0.7c-3.9-2-7.1-4.7-9.7-8.1c-0.6-1.7-0.8-3.5-0.7-5.4c0.8-9.8,4.6-17.4,11.4-22.9h0.1c0,0,0,0-0.1,0
		c0.1-0.1,0.2-0.2,0.2-0.2c1.3-0.7,2.5-1.3,3.8-1.9c1,0.9,2.2,1.4,4,1.5c0.1-0.1,0.2-0.1,0.3-0.2c3-0.9,4.9-2.4,5.7-4.3
		c2-0.4,4-0.5,5.9-0.1C45.2,28.2,45.2,28.2,45.1,28.1z M40.9,18.6c-0.1,0.4,0,0.7,0.1,1c0,0,0,0,0,0.1c0,0.3,0,0.7-0.1,1.1
		c-0.2-0.2-0.4-0.3-0.5-0.4c-0.1,0-0.2,0-0.3,0H40c0-0.1,0.1-0.4,0.2-0.6c0-0.1,0-0.2,0.1-0.4c-0.7-0.1-1.3-0.2-1.8-0.4
		c0-0.2,0-0.4,0-0.6c0-0.1,0-0.2,0-0.4c0.1-0.1,0.1-0.2,0.1-0.4c-0.1-0.1-0.2-0.2-0.2-0.3c-1.1-3.3-3.2-5.3-6.3-6c0-0.1,0-0.1,0-0.1
		c0.1-0.2,0.1-0.3,0.2-0.4c0.1-0.5-0.1-0.9-0.8-1l0,0c-0.6,0.4-1.1,0.8-1.5,1.2c-1.5,0.1-2.9,0-4.2-0.2c-0.6-0.5-0.9-1.2-0.8-1.9
		c0.2-1.2,0.4-2.3,0.8-3.4c0.1-0.1,0.2-0.2,0.3-0.4c1.3-1.4,2.5-1.9,3.8-1.6c0.3,0.5,0.6,1,0.9,1.6c0.5,1,0.8,2.1,1.1,3.3
		c0.4,0.1,0.9,0.2,1.3,0.2C36.8,10.9,39.4,14.3,40.9,18.6z M39.3,22.6c0.3-1,1.1-1.1,2.4-0.3c0.5,0.3,1,0.6,1.6,0.8
		c0,0.4,0,0.8,0,1.2c0.1,0.5,0,1-0.3,1.5c-0.1,0.1-0.2,0.2-0.2,0.3v0.1c-1-0.1-1.9-0.2-2.9-0.2c-0.1,0-0.4-0.1-0.6-0.2v-0.2
		c0-0.3,0-0.7,0-1.1c0-0.5,0-1,0-1.5C39.3,22.9,39.3,22.8,39.3,22.6z M34.4,20c1.3,1,2.5,1.6,3.5,1.6c-0.2,0.5-0.3,1.2-0.4,1.8
		c-1.7-1.5-3.9-2-6.5-1.6l-0.4,0.1c1.9,0.6,3.7,1.2,5.6,1.8c-0.3-0.1-0.7,0-1.2,0.1c-0.7,0.3-1.4,0.8-2.1,1.3
		c-0.1,0.2-0.2,0.3-0.3,0.5l0.1,0.2c1.7-0.7,3.4-1,4.9-0.8c0.1,0.4,0.1,0.8,0.2,1.1c-0.1,0-0.2,0-0.3,0c-0.1,0.1-0.2,0.1-0.2,0.2
		c0.2,0,0.4,0.1,0.6,0.2c0.1,0.4,0.2,0.8,0.2,1.1c0,0.2,0,0.3,0,0.4c-1.7,1.4-3.7,2.3-5.8,2.9c-1-0.5-1.9-1.1-2.7-1.9
		c-0.1,0-0.2,0-0.3,0c-0.1-0.1-0.2-0.1-0.3-0.2c-0.1,0-0.2-0.1-0.4-0.3c-1.1-1.9-1.6-4-1.5-6.4c0-1.4,0.4-2.8,0.9-4.1
		c0.1-0.1,0.1-0.2,0.1-0.2c0.8-0.1,1.5-0.2,2.3-0.3C31.8,18.2,33.1,19,34.4,20z M73.8,16.6c0,0.2,0.1,0.3,0.1,0.4
		c1,3.1,0.4,5.8-1.5,8.3c-0.9-0.3-1.7-0.8-2.5-1.5c-0.1-0.2-0.1-0.3-0.2-0.4c-0.4-0.9-1.1-1.6-1.9-2.3c-3,0.2-5.9,0.5-8.8,0.9
		c-0.1,0.1-0.3,0.1-0.5,0.2c0-0.4,0.1-0.8,0.2-1.2c-0.2,0-0.3,0.1-0.4,0.1c-0.1-0.3-0.1-0.8-0.2-1.2c2.9,0.3,6.7-0.1,11-1.1
		C70.4,17.5,71.9,16.8,73.8,16.6z M65.3,22.5c-1,1.7-1.1,3.5-0.4,5.4c-2-1.6-4.4-2.2-7.1-2.1c0-0.2,0.1-0.4,0.2-0.6
		c0.2-0.1,0.4-0.1,0.6-0.1c0,0,0,0,0-0.1c0,0,0-0.1,0-0.2c-0.2,0.1-0.4,0.1-0.6,0.2c0-0.2,0-0.5,0.1-0.7c0.3-0.3,0.6-0.7,0.9-1
		C61,22.5,63.2,22.3,65.3,22.5z M57.2,27.4c0.2-0.4,0.3-0.7,0.4-1.1c2.3,0.3,4.4,1,6.4,1.8c-0.8,0.2-1.8,0.6-3,1.2
		c-0.2,0.3-0.4,0.7-0.5,1.1c-0.1,0.9-0.2,1.8-0.2,2.7c-0.3-0.2-0.5-0.4-0.6-0.6c-0.4,0.2-0.7,0.5-0.8,0.8c-1.1-1.1-2.4-2.1-3.7-3
		c0.1,0,0.2-0.1,0.3-0.2c0.4-0.3,0.7-0.7,0.9-1.1C56.4,28.4,56.7,27.8,57.2,27.4z M59.9,34.2c0.1-0.1,0.2-0.2,0.4-0.2
		c0,0.2,0,0.5,0,0.7C60.2,34.6,60,34.4,59.9,34.2z M15.1,13.4c0.3,0.2,0.6,0.4,0.8,0.5c1.3,0.8,2.3,1.9,2.9,3.1
		c-0.2,0-0.5,0.1-0.8,0.1s-0.6,0.1-0.6,0.2h0.1c1.9,0,3.5,0.5,4.9,1.4c0.2-0.1,0.3-0.1,0.5-0.2c0.9,0.8,1.9,1.3,2.8,1.6
		c-0.1,0.3-0.1,0.7-0.1,0.9c-0.1,0-0.2-0.1-0.3-0.2c0,0.3,0,0.5,0,0.7c0,0,0.1,0,0.2,0c0,0.3,0,0.5,0,0.8c-1.1-1.3-2.5-2.1-4.2-2.5
		c-1,0-2,0-3.1-0.1c0,0,0,0-0.1,0c0,0.1,0,0.1,0,0.1H18c-0.1,0-0.2,0.1-0.2,0.2l0,0c-1.3,1-2.7,1.5-4.2,1.6
		c-0.2-0.7-0.5-1.4-0.7-2.2c-0.6-1.6-0.4-3.3,0.6-4.9C14.1,14.2,14.6,13.8,15.1,13.4z M25.1,28.8c0.4-0.2,0.8-0.3,1.2-0.3
		c0.7,0.3,1.3,0.7,2,1.2c-0.7,0.4-1.3,0.8-2,1.2c-0.4,0.2-0.8,0.5-1.1,0.8c-0.7,0.7-1.3,1.3-2,1.6c-0.4,0.4-0.8,0.8-1.1,1.2
		c0.1-0.4,0.3-0.8,0.4-1.2c0,0,0.1,0,0.2,0c0-0.3-0.1-0.6-0.1-0.9c0-2.1-1.2-4-3.8-5.5c2.4-0.1,4.6,0.3,6.6,1.1
		C25.3,28.3,25.2,28.5,25.1,28.8z M24.9,24.4c-0.1,0.2-0.1,0.4-0.1,0.5c0.2,0.2,0.4,0.5,0.5,0.9c0.2,0,0.3,0,0.3,0
		c0.2,0.7,0.5,1.5,0.9,2c-2.1-1.5-4.6-2.2-7.5-2c1.3-1.9,1.4-3.5,0.2-5c0.5,0.2,1.1,0.3,1.7,0.2c1.2,0.6,2.3,1.5,3.1,2.6
		C24.3,24,24.6,24.3,24.9,24.4z M2.1,82.5c0.3-0.8,0.7-1.5,1.4-2.1c7.4-7.5,15.7-8.7,25-3.6c0.8,0.7,1.7,1.1,2.8,1.5
		c0-0.2-0.1-0.3-0.2-0.3c-0.5-0.6-1-1.2-1.7-1.6c0.1-0.1,0.1-0.1,0.1-0.2c-0.7-0.2-1.4-0.6-2.1-1.1c-0.1,0-0.3,0-0.3-0.1
		c-0.2-0.1-0.3-0.1-0.2,0.1c0,0,0.1,0.1,0.2,0.3c-1.7-1.1-3.4-1.9-5.3-2.4c0,0,0.1-0.1,0.2-0.2c-0.1-0.6,0-0.9,0.5-0.9
		c0.7-0.1,1.2-0.2,1.8-0.4c1.6,0.8,3.2,1.5,4.8,2c0.4,0.2,0.9,0.4,1.4,0.5c0.1,0.2,0.3,0.4,0.5,0.6c0.3,0.3,0.6,0.7,0.8,1.1
		c-1.3-1.2-2.9-1.9-4.8-2.3v0.1c0.1,0.4,0.3,0.6,0.6,0.9c0.2,0.1,0.5,0.2,0.8,0.3c0.3,0.2,0.7,0.4,1.2,0.4c0,0.1,0,0.1,0,0.1
		c0.2,0,0.3,0,0.4,0.1c0.3,0.2,0.5,0.5,0.6,0.8c0,0,0,0,0.1,0c0.1,0.1,0.2,0.1,0.4,0.2c0,0,0.1,0.1,0.2,0.2c-0.2,0-0.2,0-0.3,0
		c0.8,1.2,1.8,2,2.7,2.5c0.1,0.1,0.2,0.3,0.3,0.5c-0.2,0-0.3,0.1-0.5,0.1c0,0.5,0.2,0.8,0.5,1.2c0.4,0.3,0.7,0.7,1.1,1.1
		c0,0.1,0,0.1,0,0.1c-0.3,0.1-0.7,0.3-1,0.5c-2.1,0.2-4.2,0.5-6.3,0.6C27.5,83,27.3,83,27,82.9c0,0.1,0,0.1,0,0.1
		c-0.4,0.1-0.6,0.2-1,0.3c-7,0.6-14.2,0.8-21.4,0.7C3.4,84,2.6,83.5,2.1,82.5z M32.8,74.6c0.2,0.1,0.4,0.1,0.6,0.2
		c0,0.1,0,0.3-0.1,0.4c0.3,0.2,0.5,0.2,0.7,0.4c0-0.2,0-0.5,0-0.7c4.2,0.9,8.5,1.1,12.9,0.5c0.5-0.1,0.9-0.2,1.5-0.2
		c0,0,0.1,0,0.2,0c0,0,0,0,0.1,0c0.2,0,0.5,0,0.8-0.1c0.2-0.1,0.3-0.1,0.4-0.1c0.3-0.1,0.7-0.2,1.1-0.3c-0.7,0.7-1.2,1.4-1.6,2.2
		c-0.7,0-1.5,0-2.2-0.2c-0.1,0.1-0.1,0.1-0.1,0.1s0,0-0.1,0c-0.4,0.2-0.8,0.5-1.3,0.6c-0.1,0-0.1,0-0.2,0c0,0,0,0-0.1,0.1
		c-0.8,0.2-1.8,0.3-2.9,0.2c-3-0.1-5.7-0.2-8.1-0.3c-0.1-0.3-0.2-0.7-0.2-1.1c-0.2,0.1-0.3,0.1-0.4,0.1c-0.1-0.2-0.2-0.4-0.3-0.6
		C33.3,75.4,33.1,75,32.8,74.6z M54,75.9c-0.8,0.4-1.5,1-2,1.9c0.1,0.1,0.2,0.2,0.2,0.1c0.7-0.1,1.2-0.2,1.7-0.3c0,0.1,0,0.2,0,0.3
		c11.3-5.9,21.2-4.6,29.9,3.6c-8.7,2.1-17.6,2.8-26.5,2c-3.7-0.7-6.7-1.8-9.2-3.1c0-0.1,0.1-0.2,0.1-0.3c0.2-0.3,0.4-0.5,0.6-0.8
		c0.2,0.4,0.5,0.2,0.8-0.5c0.6-1.4,1.5-2.4,2.8-2.9c1-1.5,2.4-2.5,4.3-3.2c0.1-0.1,0.2-0.1,0.3-0.2c-0.1,0.4-0.4,0.8-0.8,1.2
		c0.2-0.2,0.3-0.3,0.5-0.5c1.2-0.5,2.3-1,3.3-1.7c0.2,0.3,0.5,0.5,0.9,0.8c0,0.1,0,0.2,0,0.2c-0.3,0.3-0.5,0.6-0.6,0.9
		c-1.2,0.2-2.3,0.6-3.4,1c-0.8,0.2-1.5,0.6-2,1.1c0,0,0,0-0.1,0c0-0.1,0-0.3-0.1-0.5c-0.3,0.2-0.6,0.4-0.9,0.7
		C53.9,75.7,54,75.8,54,75.9z M34.5,78c0,0,0,0,0-0.1c0.6,0.2,1.3,0.4,2,0.5c-0.5,0.3-0.9,0.6-1.3,1c-0.2-0.4-0.4-0.7-0.7-1
		C34.5,78.3,34.5,78.2,34.5,78z M42.2,78.8c-0.7,0.3-1.2,0.7-1.8,1.1c-0.4,0.2-0.9,0.4-1.4,0.5c-0.8,0.3-1.6,0.6-2.3,1
		c-0.3-0.5-0.6-0.8-0.9-1.1c-0.1-0.1-0.1-0.2-0.1-0.2c0.9-0.3,1.8-0.8,2.6-1.4C39.6,78.9,40.9,78.9,42.2,78.8z"/>
	<path style="fill:#BE3689;" d="M18.8,33.6L18.8,33.6c0,0,0-0.1,0-0.2C18.8,33.5,18.8,33.6,18.8,33.6z"/>
	<g>
		<path style="fill:#BE3689;" d="M44,40.5c-0.2,0.2-0.6,0.3-1,0.5c-0.8,0.4-1.3,1-1.7,1.9c0,0-0.1,0.1-0.2,0.1
			c-2.1-1.9-4.3-2.6-6.5-2.1c-0.4-0.3-1.1-0.5-2-0.6c0-0.2,0-0.3,0-0.4c0.1-0.2,0.1-0.4,0.1-0.6c0-0.4-0.2-0.7-0.4-0.9
			c-0.4-0.1-0.7,0-0.7,0.3c-0.1,0.4-0.2,0.8-0.1,1.2c0,0.5,0.1,0.9,0.4,1.4c0.2,0.1,0.4,0.3,0.6,0.4c-0.3,0.2-0.6,0.4-1,0.7
			c-0.6-0.3-1.4-0.5-2-0.9c0-0.1,0-0.2,0-0.4c0,0,0-0.1,0-0.2c0-0.3-0.1-0.6-0.4-0.9c-0.1,0.1-0.2,0.1-0.3,0.2
			c-0.2,0.5-0.3,0.9-0.3,1.3c0.1,0.3,0.1,0.6,0.4,0.9c0.4,0.4,0.9,0.8,1.4,0.9c-0.2,0.1-0.2,0.2-0.4,0.4c-1,0-1.9-0.5-2.6-1.3
			c-0.5-0.2-0.7,0-0.7,0.4c0,0.9,0.5,1.5,1.5,1.8c0.3,0.1,0.5,0.1,0.7,0.2c-4.5,4.7-4.4,9.6,0.3,14.5c4.8,1.3,8.9,0.5,12.5-2.4
			c1.4,1.2,2.9,1.9,4.5,2.1c0.3,0,0.6,0,0.9,0c1.2,0.1,2.4-0.2,3.7-0.7c5.4-2,7.2-5.7,5.4-10.9c-0.1-0.1-0.2-0.3-0.3-0.4
			c0-0.1,0-0.1,0-0.1c-0.9-1.5-1.9-2.7-3-3.6c0.2-0.1,0.4-0.2,0.6-0.3c0.1-0.1,0.2-0.2,0.4-0.4c0.9-0.8,1-1.7,0.3-2.6l0,0
			c-0.7,1.1-1.6,1.8-2.7,2.2c-0.4-0.2-0.8-0.4-1.1-0.6c0.4-0.4,0.8-0.9,1.2-1.3c0-0.2,0-0.3,0-0.4c0.1-0.7,0-1.3-0.4-1.9h-0.2
			c-0.2,1.8-1.1,2.8-2.4,3c-0.1,0-0.1,0-0.1,0c0-0.1,0-0.2,0.1-0.2c0.5-1.2,0.6-2.3,0.3-3.4c-0.9,0.5-1.4,1.6-1.8,3.2c0,0,0,0,0,0.1
			C46,40.5,45.1,40.5,44,40.5z M31.1,44.6c-0.1,0-0.2,0-0.2,0c1.1-1,2.5-1.8,4.1-2.5c0.6,0,1.2,0,1.9-0.1c0.2,0.2,0.4,0.3,0.6,0.4
			c0.9,0.7,1.7,1.3,2.5,1.8c0.9,0.1,1.9,0.2,2.8,0.3c0.1-0.1,0.1-0.2,0.1-0.3c0.2-0.6,0.4-1.1,0.7-1.6c3.1-0.4,5.7,0.2,7.8,1.9h-0.1
			c1.2,0.7,2,1.4,2.5,2.3c-0.2-0.1-0.3-0.1-0.3,0c0.1,0.1,0.2,0.3,0.3,0.5c0.1,0,0.2,0,0.2,0c0.1,0,0.1,0.1,0.1,0.3
			c0.1,0,0.1,0.1,0.1,0.2c-0.2,0.1-0.4,0.2-0.6,0.3c-4.5,2-8.2,4.5-11.2,7.4c-0.1,0-0.3,0-0.5,0c0-0.7,0-1.3-0.3-2
			c-0.2,0-0.3,0-0.3,0.2c-0.2,0.6-0.2,1.2-0.2,1.7c-0.2,0-0.4,0-0.6,0c-0.1,0-0.2,0.1-0.3,0.2c-3.9-2.7-7.9-5.3-11.9-7.9
			c0.1-0.2,0.3-0.5,0.4-0.7c0.1,0,0.1,0,0.1,0c0.3-0.4,0.6-0.7,0.9-1.1C30.1,45.4,30.6,45,31.1,44.6z M26.6,52.6c0-0.1,0-0.2,0-0.3
			c0.3-1.6,0.8-3,1.5-4.3c1.8,2.2,4,4,6.5,5.5c-0.2,0.9-0.2,1.8-0.1,2.7c0.8,0.8,1.7,1.2,2.9,1.2C32.6,59.8,29,58.2,26.6,52.6z
			 M54.7,49.1c0,0.4,0.1,0.8,0.2,1.1c0.5,3-0.7,5.2-3.6,6.7c-2.2,0.7-4.1,0.8-5.8,0.3c0.5-0.1,1-0.3,1.5-0.7
			c0.2-0.1,0.3-0.3,0.4-0.4c0.8-1.2,0.9-2.1,0.4-2.8C50.2,52,52.4,50.6,54.7,49.1z M42.9,55.8c0.2-0.1,0.4-0.2,0.7-0.3
			c-0.1,0.2-0.2,0.3-0.2,0.5c0,0.1,0.1,0.2,0.2,0.2C43.3,56.1,43.1,55.9,42.9,55.8z M39.2,55.8c0.2,0.1,0.3,0.1,0.5,0.2
			c-0.2,0.2-0.4,0.2-0.6,0.4c0.1-0.2,0.1-0.3,0.2-0.5C39.2,55.8,39.2,55.8,39.2,55.8z"/>
		<path style="fill:#BE3689;" d="M24.4,67c0.2,1.2,0.6,2.2,1.2,3c4.6,4.3,11.4,6.1,20.3,5.4c2.2,0,4.1-0.7,5.7-2
			c0.8-0.7,1.6-1.3,2.4-2l0,0c0.2-0.3,0.3-0.5,0.5-0.7c1.1-1.4,1.8-3.1,2.3-4.8c0-0.1,0-0.2-0.1-0.4c0-0.8-0.1-1.7-0.4-2.6
			c-0.3-1.1-1-2-2-2.6c-1.7,0.1-3.4,0.2-5,0.3c-0.2,0.2-0.3,0.3-0.5,0.3C41.9,64.6,35,64.2,28,59.7C24.8,60.9,23.6,63.4,24.4,67z
			 M26.6,62c0.5-0.2,1.1-0.5,1.7-0.7c0.1-0.1,0.3-0.2,0.5-0.3c7.4,5.4,14.6,5.6,21.7,0.6c1.6-0.5,2.9-0.3,4.1,0.7
			c0.3,0.3,0.4,0.7,0.5,1.1c0,0.2,0.1,0.5,0.2,0.8c0.1,0.1,0.1,0.2,0.1,0.3c-0.1,0.3-0.1,0.5-0.2,0.8c-0.4,1.6-1.2,3.1-2.2,4.5
			c-1.3,1.7-2.8,3.1-4.5,4.2c-3.5,0.6-7.5,0.5-11.9-0.2c-2.5-0.4-4.7-0.9-6.9-1.6c0-0.3-0.2-0.6-0.6-0.8c-1.5-1.1-2.6-2.4-3.2-4.2
			C25.3,65.3,25.5,63.6,26.6,62z"/>
		<path style="fill:#BE3689;" d="M28.1,62.1c0.2,0.1,0.4,0.2,0.5,0.3c0-0.1,0.1-0.1,0.2-0.2C28.6,62.2,28.4,62.2,28.1,62.1z"/>
		<path style="fill:#BE3689;" d="M30,68.7c-0.6,0-1.3,0.1-2,0.3c-0.1,0-0.2,0.1-0.4,0.1c8.1-0.1,16.1,0.3,23.9,1.2
			c-0.1-0.2-0.2-0.2-0.3-0.3c-5.6-2-11.5-2.7-17.7-2.2C32.7,68.3,31.5,68.6,30,68.7z"/>
		<path style="fill:#BE3689;" d="M58.9,61.2c-0.1,0.1-0.1,0.1,0,0.1l0,0C58.9,61.2,58.9,61.2,58.9,61.2z"/>
	</g>
</g>
</svg>
