<?xml version="1.0" encoding="iso-8859-1"?>
<!-- Generator: Adobe Illustrator 12.0.1, SVG Export Plug-In . SVG Version: 6.00 Build 51448)  -->
<!DOCTYPE svg PUBLIC "-//W3C//DTD SVG 1.1//EN" "http://www.w3.org/Graphics/SVG/1.1/DTD/svg11.dtd" [
	<!ENTITY ns_svg "http://www.w3.org/2000/svg">
	<!ENTITY ns_xlink "http://www.w3.org/1999/xlink">
]>
<svg  version="1.1" id="Layer_1" xmlns="&ns_svg;" xmlns:xlink="&ns_xlink;" width="80.325" height="87.696"
	 viewBox="0 0 80.325 87.696" style="overflow:visible;enable-background:new 0 0 80.325 87.696;" xml:space="preserve">
<g>
	<path style="fill:#BE3689;" d="M78.5,77.3c-0.1-0.2-0.2-0.3-0.4-0.4c-3.6-4.4-8.5-6.1-14.6-5.4c-1.7,0.6-3.5,1.1-5.2,1.6
		c-0.6-0.4-1.3-0.8-2-1.2c1.5-1,2-2.4,1.6-4c4.1-2.3,7-5.9,8.8-10.9c3.7-10.8,1.2-19.5-7.7-26c-0.2-0.2-0.4-0.5-0.6-0.8
		c1.3-1,2.8-0.9,4.5,0.3c0.6,0.5,1.1,0.4,1.6-0.2c-0.2-0.9-0.7-1.6-1.4-2.4c-0.2-0.3-0.4-0.6-0.6-1c0-0.4,0-0.8,0.1-1.1
		c0.1-0.2,0.2-0.2,0.3-0.3c1.1-0.3,2.1-0.6,3.1-0.8c0.1,0.1,0.2,0.3,0.4,0.4c0,0.4,0,0.8,0,1.2c0,0.2,0,0.5-0.1,0.7
		c-0.1,0.8,0.1,1.4,0.5,1.9c5.9,1.4,9.2-0.6,9.8-6c-1.8-1.1-3.9-1.8-6.2-2c-0.3-0.3-0.7-0.6-1.1-1h-0.2c-0.4-0.4-0.8-0.6-1.3-0.8
		c-0.4,0-0.6,0-0.8,0c-1.9-1.8-4.6-2.6-8-2.5c-0.4,0.3-0.9,0.4-1.5,0.4c-0.3,0-0.5,0.1-0.7,0.1c-0.2-1.5-0.5-3-1.2-4.5
		c-0.1-0.1-0.2-0.1-0.4-0.2c-0.9-0.1-1.8-0.2-2.7-0.3c-4.2,0.5-7.4,2.5-9.3,5.9c-0.1,0-0.1-0.1-0.1-0.1c0-0.1,0-0.1,0-0.1
		c0.5-0.5,0.9-1.2,1.2-2c0.9-2.2,2.2-4,4-5.6c0.6-0.1,1-0.2,1.5-0.3c0.2-0.1,0.4-0.1,0.7-0.2c0.1,0,0.2,0,0.3,0
		c1.9,1.4,4.3,1.7,7.1,1.1c0.1-0.3,0.3-0.6,0.4-1c0.6-2.3,0.5-4.7-0.2-7.2c-0.1-0.1-0.2-0.2-0.3-0.4c-0.6-0.8-1.3-1.3-2.3-1.6
		c-2.9,1-4.8,2.7-5.9,5.1c-0.4,0.2-0.8,0.3-1.2,0.5c-0.1-0.1-0.2-0.1-0.4-0.1c-1.3,0.3-2.5,1-3.6,1.9c-1.5,1.4-2.9,2.9-4,4.5
		c0,0.4-0.1,0.7-0.2,1.1c-0.3,0.6-0.4,1.3-0.5,2.2c0-0.5-0.1-1.1-0.3-1.7C38,10.7,36,7.8,33.3,5.4c0-1.2-0.2-2.3-0.6-3.4
		c-0.3-0.8-0.8-1.4-1.4-1.9c-1.3,0-2.5,0-3.8-0.1c-1.2,0.5-2.2,1.3-2.9,2.4c-1,2.1-1.2,4.2-0.3,6.5c0.1,0.1,0.2,0.2,0.3,0.3
		c1.6,0.6,3.3,0.9,4.9,0.8c0.5-0.2,0.8-0.5,1-1l0,0c1.4,1.5,2.7,3,3.7,4.8c0,0.2,0,0.5,0.2,0.7c-2.4-1.6-5.3-2.4-8.4-2.4
		c-1,1.4-1.7,3-1.9,4.9c-2-1.4-4.5-1.3-7.5,0.4c-0.2-0.1-0.4-0.1-0.6-0.1c-0.1,0-0.2,0.1-0.3,0.2c-0.2,0-0.4,0-0.6,0
		c0,0,0,0-0.1-0.1c-1.4-0.8-2.9-1.2-4.5-1.3c-0.6,0.2-0.9,0.7-0.8,1.6c0,1.5,0.2,2.9,0.6,4.4c0.3,1.7,1.1,3.2,2.2,4.5
		c0.3,0.2,0.5,0.3,0.7,0.5c1.7,1.1,3.3,1.1,4.8,0c0.1-0.2,0.1-0.5,0.1-0.7c0-0.8,0.1-1.5,0.4-2.1c0,0,0-0.2,0.1-0.2
		c0.1,0.1,0.3,0.2,0.4,0.3c0,0.4,0,0.8,0,1.1c0,0.4,0,0.8,0,1.1c0,0,0,0,0,0.1c-0.2,0.1-0.3,0.2-0.5,0.3c-0.9,0.8-1.3,1.7-1.2,2.6
		c1.6-0.2,3.1-0.3,4.4-0.3c-0.4,0.5-0.9,0.9-1.3,1.5l0,0c-0.4,0.5-0.8,1-1.1,1.5c-3.4,3.7-5.9,8.2-7.3,13.4
		c-2.3,9,0.2,15.7,7.6,20.1c1.1,0.6,2.2,1.2,3.3,1.8c-0.1,0.1-0.3,0.4-0.3,0.7c-0.3,1.1-0.2,2,0,3c0.7,0.7,1.3,1.3,2,1.7
		c-1.9,0.4-3.7,0.6-5.5,0.5c-1-0.4-2-0.6-3.1-0.7c-3,0-6.1,0.6-8.9,2c-4,1.7-5.9,4.8-5.8,9.1c0.2,0,0.3,0,0.4,0
		C1,84.3,0.4,84.7,0,85.3c0.1,0.1,0.2,0.2,0.2,0.1c2.2-0.2,3.5-0.5,4-1c0.5,0.1,1.1,0.2,1.7,0.3c-1,0.3-2,0.8-2.8,1.4
		c0.1,0.2,0.1,0.2,0.2,0.2c2.3-0.1,3.6-0.5,3.7-1.4c1.4,0.2,2.9,0.4,4.3,0.6c-0.1,0-0.2,0-0.2,0c-1,0.4-1.7,0.9-1.8,1.5
		c0.3,0,0.6-0.1,1-0.2c1.1-0.4,2.1-0.8,3.2-1.1c1.4,0.1,2.9,0.2,4.3,0.3c-0.8,0.4-1.5,1-2.2,1.6c1,0.2,2.2,0.1,3.6-0.4
		c1.1-0.4,2-0.8,2.7-1.1c0.9,0,1.9-0.1,2.7-0.2c-0.1,0-0.3,0.1-0.5,0.2c0.3,0.8,0.8,0.9,1.7,0.5c4-1.8,8-3.6,12-5.3
		c2.3-0.9,3.7-2,4.1-3.1c1.1-0.1,2.1-0.3,3-0.7c0.1,0.3,0.2,0.5,0.4,0.7c-0.3-0.1-0.5-0.2-0.8-0.3c0.3,0.2,0.6,0.4,1,0.7
		c-4.6,2.3-8.6,4.9-12.2,7.8c0.1-0.1,0.3-0.1,0.4-0.2c4.7-2,8.7-4.4,12.1-7.4c0.6,0.4,1.2,0.8,1.8,1.2c0.6,0.4,1.2,0.7,1.8,1.1
		c-0.1,0-0.3,0.1-0.5,0.2c-3.1,1.6-5.9,3.3-8.3,5.3c2.2-0.1,4.4-0.7,6.7-1.9c2.1-1.1,3.1-2.1,3-3.2c0.9,0.5,1.8,0.9,2.7,1.2
		c-1.7,0.8-2.9,1.9-3.7,3.3c1.6-0.1,2.9-0.8,3.8-2c0.3-0.1,0.6-0.2,0.9-0.3s0.5-0.2,0.7-0.3c1,0.3,2,0.6,3.1,0.8
		c-1.1,0.7-2,1.5-2.7,2.4c0.7,0.5,1.4,0.4,2.4-0.2c1.2-0.7,2-1.3,2.3-1.8c1.4,0.2,2.7,0.4,4.1,0.4c-0.4,0.4-0.6,0.8-0.9,1.3
		c0.4,0.1,0.6,0.2,0.9,0.1c1.2-0.4,2.4-0.9,3.5-1.5c1.3-0.1,2.6-0.2,3.9-0.5c-0.6,0.5-1.2,0.9-1.8,1.4c0.9,0.3,1.9,0.2,3.1-0.2
		c2.2-0.9,3.9-1.9,5-2.8c0.9-0.3,1.8-0.7,2.7-1c0.1-0.8-0.1-1.4-0.5-1.9c-0.6-0.7-1-1.4-1.1-2.2C78.6,77.5,78.6,77.4,78.5,77.3z
		 M75,24.3c-0.1,0.1-0.2,0.2-0.2,0.4c-0.2,0.2-0.3,0.4-0.5,0.6c-0.6,0.7-1.2,1.3-1.8,2c-1.6,0.6-3.2,0.8-4.9,0.3c0-0.2,0-0.5,0-0.7
		c0-0.3,0-0.5,0-0.8c0-0.3,0-0.7,0-1c0.2,0.4,0.9,0.7,2.2,0.7c-0.1-0.2-0.2-0.3-0.3-0.4c-0.3-0.6-0.7-1.1-1.2-1.5
		c-0.1,0-0.2,0-0.3,0.1c-0.2,0.3-0.3,0.4-0.4,0.6c0-0.1,0-0.2,0-0.3c-3.2-3.5-6.9-4.5-11.1-3.3c0.2-0.9,0.3-1.7,0.3-2.6
		c4-0.5,7.7,0.4,11.1,2.7c0.2,0.4,0.5,0.8,0.7,1.3c0.4-0.1,0.8-0.1,1.1,0c0.5,0.5,1.1,0.9,1.8,0.9c0-0.2,0-0.3,0-0.4
		c-0.1-0.1-0.1-0.2-0.2-0.4C72.8,22.8,74.1,23.3,75,24.3z M78.3,80.9c-1,0.3-1.9,0.7-2.7,1.1c-7.7,1.4-15.2,1.1-22.7-1.2
		c-1.6-0.4-3-0.9-4.2-1.3c-1-0.8-1.8-1.6-2.4-2.7c0.3-0.2,0.6-0.4,1-0.7C47.1,76,47,76,46.8,76c-0.3,0-0.6,0.1-0.9,0.2
		c-0.1-0.3-0.2-0.6-0.3-0.8c0.2-0.2,0.4-0.3,0.7-0.4c0.6-0.3,1.1-0.6,1.6-1.1c0.5-0.1,1-0.4,1.6-0.8c0.5-0.4,0.8-0.9,1-1.5
		c0-0.1,0-0.2,0-0.3c0.1-0.3,0.1-0.5,0-0.8c0.2,0,0.4-0.1,0.5-0.1c0,0,0,0.1,0.1,0.2c0.3-0.1,0.6-0.2,0.9-0.2c0-0.1-0.1-0.2-0.2-0.2
		c0.4-0.1,0.8-0.2,1.2-0.3l1.2-0.4c0.1-0.1,0.2-0.1,0.3-0.1l0.9-0.4c0.6-0.2,1.3-0.5,1.9-0.8c0,0.1,0.1,0.2,0.2,0.3
		c-1,1.1-1.9,2-2.9,2.8c0,0,0,0-0.1,0c-0.3,0-0.4,0.2-0.3,0.3c-0.9,0.8-1.9,1.4-2.9,1.9c0.2,0.1,0.4,0.1,0.7,0.1
		c1.2-0.3,2.3-0.7,3.1-1c0.6,0.5,1.3,0.8,1.9,1c-1.3,0.5-2.2,1.3-2.7,2.4c0.1,0.2,0.2,0.2,0.2,0.2C64.8,70.9,72.7,72.4,78.3,80.9z
		 M57.2,4.1c0.4,1.7,0.3,3.3-0.3,4.9c-1.7,0-3.2,0-4.8-0.1c0.5-0.4,0.3-0.8-0.6-1.1c-0.1,0-0.3,0.1-0.5,0.1
		c-0.9,0.2-1.6,0.5-2.2,0.9c-0.1,0-0.2,0-0.3,0c-1.4,0.6-2.7,1.6-3.7,2.9c-1.1,1.5-1.9,2.9-2.4,4.4c-0.2,0-0.3,0-0.4,0
		c0,0.2-0.1,0.5-0.1,0.8c0,0.1,0,0.2,0.1,0.3c-0.3-0.2-0.6-0.3-0.8-0.4c0.2-0.3,0.3-0.7,0.4-1.1c1.3-4.9,4.4-7.9,9.4-8.9
		c-0.1-0.2-0.2-0.2-0.3-0.2c-0.1-0.1-0.2-0.1-0.2-0.1c0.6-0.2,1.2-0.4,1.8-0.6c-0.1-0.1-0.2-0.2-0.2-0.2c-0.5-0.1-1-0.2-1.5-0.2
		c1.8-1.4,3.7-2.2,5.8-2.5C56.8,3.3,57,3.6,57.2,4.1z M36.9,15c-0.4-0.8-0.9-1.5-1.4-2.2C34.2,10.2,32.1,8.3,29,7l-0.5,0.2
		c0.3,0.2,0.6,0.5,0.8,0.7c-0.2,0-0.2,0-0.4,0.1c-1.3,0.4-2.6,0.2-3.8-0.5c-0.1-1.2,0-2.3,0.5-3.4c0.3-0.6,0.7-1.2,1.2-1.8
		c1.1-0.6,2.3-0.8,3.6-0.6c0.1,0.1,0.2,0.1,0.2,0.2c0.5,0.8,0.8,1.7,0.8,2.6c0-0.1-0.1-0.1-0.1-0.1c-1.7,0.3-1.7,0.9,0,1.7
		C32,6.7,33.2,7.8,35,9.5c1.7,1.6,3.1,3.9,4.2,6.9c-0.4,0-0.9,0-1.4,0c0-0.4,0-0.8-0.1-1.1C37.5,15.2,37.2,15.1,36.9,15z M49.4,22.1
		c0.1-0.6-0.3-1-1.2-1.1c-0.8-0.1-1.4-0.5-1.9-1.1c-0.5,0-0.9,0-1.3-0.1c1.6-0.6,3.2-1,4.8-1.2c-0.1-0.1-0.2-0.2-0.3-0.2
		c-0.7-0.3-1.3-0.5-2-0.6c-0.1,0-0.3,0.1-0.5,0.1c-1.6,0.1-2.8,0.7-3.4,1.9c0,0,0,0-0.1,0c0,0-0.1,0-0.2,0.1
		c-0.1-0.4-0.1-0.8-0.1-1.2c0.1,0,0.1,0,0.1-0.1c-0.1,0-0.1,0-0.1,0c0-0.1,0-0.2,0-0.3c3.3-2.7,7.2-4.1,11.7-4.3
		c0.1,0.8,0.2,1.5,0.3,2.3c0.2,3-0.4,5.7-1.8,8.2c-0.4,0.3-0.8,0.5-1.1,0.8c-0.2,0.1-0.3,0.2-0.4,0.4c-0.8,0.1-1.6,0.3-2.4,0.7
		c-0.3-0.1-0.6-0.2-0.9-0.4c-2.1-0.9-3.9-2.3-5.3-4.1c-0.1,0-0.1,0-0.1,0c0-0.5,0-0.9,0-1.4c0.8,0.2,1.6,0.3,2.3,0.4
		c0.6,0.5,1.2,1,1.8,1.4C48.1,22.8,48.8,22.8,49.4,22.1z M43.6,24.1V24c1,1.6,2.5,2.8,4.5,3.6c0.8,0.4,1.7,0.6,2.8,0.8
		c0.1-0.1,0.2-0.2,0.3-0.2c0.1-0.1,0.3-0.2,0.5-0.3c0-0.1,0-0.1,0-0.1c0.6,0.4,1.1,0.7,1.6,1.1c-0.2-0.1-0.4-0.1-0.5-0.1h-0.3
		c0.3,0.2,0.6,0.3,0.8,0.5c2.7,1.6,5.4,3.7,8.1,6.4c4.3,4.3,6.1,9.2,5.3,14.8c-0.7,5.2-3.5,10-8.4,14.3c0,0,0,0,0,0.1
		c0-0.2,0-0.3,0-0.4c0,0.1,0,0.1,0,0.1c0-0.1,0-0.1,0-0.2c-0.2,0.1-0.4,0.2-0.6,0.3c0.1,0.2,0.1,0.4,0.1,0.5s-0.1,0.2-0.2,0.2
		c-0.1,0-0.1,0-0.1,0.1L56.9,66c-0.3,0.2-0.5,0.3-0.7,0.5c-0.2-2.9-0.7-5.6-1.6-8.2c-1.5-2.1-3.1-4.1-4.8-6c-3.2-1.6-7.1-2.3-11.8-2
		c-3.4,0.2-6.4,1.3-9.2,3.4c-4,3.1-5.9,7.2-5.5,12.3c0.2-0.2,0.4-0.4,0.5-0.6c0,0.4,0.1,0.7,0.1,1.1c-0.3-0.2-0.6-0.3-0.9-0.5
		c-3.9-2-7.2-4.8-9.8-8.2c-0.6-1.7-0.8-3.5-0.7-5.4c0.8-9.8,4.6-17.4,11.4-22.9H24c0,0,0,0-0.1,0c0.1-0.1,0.2-0.2,0.2-0.2
		c1.3-0.7,2.5-1.3,3.8-1.9c0.5,0.5,1.1,0.8,1.7,1.1l1.5,0.3c0.2,0.1,0.5,0.1,0.8,0.1c0.1-0.1,0.2-0.1,0.3-0.2c3-0.9,4.9-2.4,5.7-4.3
		c2-0.4,4-0.5,5.9-0.1C43.7,24.3,43.7,24.2,43.6,24.1z M37.8,19c0-0.1,0-0.2,0-0.4c0.3-1,1.1-1.1,2.4-0.3c0.5,0.3,1,0.6,1.6,0.8
		c0,0.4,0,0.8,0,1.2c0.1,0.5,0,1-0.3,1.5c-0.1,0.1-0.2,0.2-0.2,0.3v0.1c-1-0.1-1.9-0.2-2.9-0.2c-0.1,0-0.4-0.1-0.6-0.2v-0.2
		c0-0.3,0-0.7,0-1.1C37.8,20,37.8,19.5,37.8,19z M35.3,17.4c0.1,0.5,0.4,0.6,1,0.5c-0.1,0.4-0.2,0.9-0.3,1.5c-1.7-1.5-3.9-2-6.5-1.6
		l-0.4,0.1c1.9,0.6,3.7,1.2,5.6,1.8c-0.3-0.1-0.7,0-1.2,0.1c-0.7,0.3-1.4,0.8-2.1,1.3c-0.1,0.2-0.2,0.3-0.3,0.5l0.1,0.2
		c1.7-0.7,3.4-1,4.9-0.8c0.1,0.4,0.1,0.8,0.2,1.1c-0.1,0-0.2,0-0.3,0c-0.1,0.1-0.2,0.1-0.2,0.2c0.2,0,0.4,0.1,0.6,0.2
		c0.1,0.4,0.2,0.8,0.2,1.1c0,0.2,0,0.3,0,0.4c-1.7,1.4-3.7,2.3-5.8,2.9c-1-0.5-1.9-1.1-2.7-1.9c-0.1,0-0.2,0-0.3,0
		c-0.1-0.1-0.2-0.1-0.3-0.2c-0.1,0-0.2-0.1-0.4-0.3c-1.1-1.9-1.6-4-1.5-6.4c0-1.4,0.4-2.8,0.9-4.1c0.1-0.1,0.1-0.2,0.1-0.2
		c0.8-0.1,1.5-0.2,2.3-0.3c1.4,0.7,2.7,1.5,4,2.5C33.8,16.7,34.6,17.2,35.3,17.4z M63,23.8L63,23.8c-0.2,0.1-0.3,0.2-0.5,0.3
		c-0.2,0.2-0.5,0.4-0.6,0.7c-0.2,0.1-0.3,0.2-0.4,0.3c0,0.7,0,1.3,0,1.9c0,0.1,0,0.1,0,0.1c-1.8-1.4-3.8-2.5-6.1-3
		c0-0.1,0-0.1,0-0.1c0.5-0.9,0.8-1.9,1.1-2.8c3.3-0.3,6.2,0.6,8.7,2.7C64.4,23.8,63.7,23.8,63,23.8z M54,26.1c0.5-0.5,0.9-1,1.2-1.6
		c2,1.3,4.1,2.4,6.4,3.2c0.1,0.2,0.1,0.3,0.2,0.4c0,0.2,0.1,0.3,0.2,0.4c-0.3,0.1-0.6,0.1-1,0c-0.6-0.1-1.3-0.1-2-0.2
		c-0.3,0-0.5,0-0.7,0.1c-0.4,0.2-0.7,0.6-0.9,0.9c-1.1-1.1-2.4-2.1-3.7-3C53.8,26.3,53.9,26.2,54,26.1z M11.5,22.1
		c-0.4-1.4-0.6-2.9-0.4-4.6c0.6,0.2,1.2,0.4,1.7,0.7c0.3,0.2,0.7,0.4,1.1,0.6c-0.2,0.2-0.2,0.5-0.1,0.8c0.3,0,0.7-0.1,0.9-0.2
		s0.4-0.2,0.5-0.3c0.4,0.1,0.7,0.2,1.1,0.2c2.4-1.4,5-2,7.7-1.8c0,0.5-0.1,0.9-0.1,1.4c0,0.4,0,0.7,0.1,1c-0.1,0-0.2-0.1-0.2-0.1
		c-0.8-0.1-1.5-0.2-2.1-0.4c-0.4,0-0.8-0.1-1.2-0.3c-0.7,0.2-1.5,0.5-2.1,0.9c-0.1-0.1-0.2-0.2-0.4-0.2s-0.4,0.1-0.5,0.3
		c-1,0.7-1.6,1.7-2,2.7c0.6,0.2,1.1,0.2,1.7,0c0,0.1,0,0.2,0,0.3c-0.1,0-0.1,0.2-0.1,0.2h0.1c-0.1,0.4-0.2,0.8-0.2,1.1
		c-0.1,0.5-0.1,1-0.1,1.5c-0.4,0.1-0.8,0.2-1.2,0.1C13.5,25.5,12.1,24.2,11.5,22.1z M22.9,21c0,0.1,0.1,0.1,0.1,0.1
		c0.1,0.2,0.2,0.2,0.3,0.3c0.1,0.1,0.2,0.2,0.3,0.4c0.2,0,0.4,0,0.5,0c0.5,1.8,1.4,3.1,2.7,3.9c-0.7,0.3-1.3,0.7-2,1.2
		c-0.8,0.5-1.5,1-2.1,1.6c-0.9-0.6-1.8-1-2.7-1.2c0,0,0-0.1,0-0.2c0.3-0.1,0.5-0.3,0.7-0.5c1.2-1.3,2.8-2,4.6-2.2
		c-0.1-0.1-0.2-0.1-0.2-0.2c-0.8-0.2-1.7-0.3-2.6-0.3c-0.9,0.4-1.7,0.9-2.5,1.6c0-0.6,0-1.1,0-1.6c0-0.1-0.1-0.2-0.2-0.3
		c-0.4-0.2-0.7-0.4-1.1-0.7c0-0.4,0-0.6-0.1-1c0.2-0.1,0.3-0.2,0.4-0.3C20.2,20.8,21.5,20.6,22.9,21z M28.8,55.4
		c0.6,1.3,1.6,1.9,3,2c0.1-0.1,0.2-0.2,0.2-0.4c0.4-0.8,0.6-1.5,0.9-2.2c2.7-0.3,5.4-0.6,8.1-0.9c1.6,0.2,3.2,0.5,4.6,0.9
		c0,0,0,0.1,0.1,0.2c0.2,1,0.5,1.8,1.1,2.7c0.3,0,0.6-0.1,0.8-0.3c1.1-0.7,1.9-1.5,2.3-2.3c3,3.6,4.9,7.5,5.7,11.8
		c-0.6,0.4-1.2,0.7-1.8,1c-0.5-2-1.6-3.6-3.3-4.6c-0.2,0-0.3,0.1-0.5,0.4c-0.5,0.8-0.8,1.8-1,2.9c-0.6,0.3-1.2,0.5-1.8,0.7
		c0-0.2-0.1-0.3-0.1-0.4c-0.3-0.5-0.4-1.1-0.4-1.6c0-0.2,0-0.3-0.1-0.4c-0.1-0.1-0.2-0.2-0.3-0.4c-2.2-2.2-5-3-8.3-2.5
		c-1.5-0.1-2.9,0.3-4,1.4c-0.4,0.3-0.7,0.8-1,1.4c0,0.5,0,1-0.1,1.5c0,0.1,0,0.2,0,0.4c0,0-0.1,0-0.1,0.1c-0.1,0-0.1,0.1,0,0.2
		c0,0,0.1,0,0.2,0.1c0,0.1,0,0.2,0.1,0.4c-0.6-0.2-1.2-0.4-1.8-0.6c-0.1-0.1-0.2-0.2-0.2-0.4c-0.6-1.2-1.3-2.1-2.3-2.6
		c-0.2,0.1-0.2,0.2-0.3,0.3c-1,1.1-1.5,2.2-1.7,3.5c-0.2-0.1-0.3-0.1-0.5-0.2l-0.8-0.3c-0.4-0.2-0.6-0.3-0.9-0.4
		c0-1.4,0.3-2.8,0.7-4c0-0.1,0-0.2,0-0.3c0-0.1,0-0.1,0-0.2C26,59.5,27.2,57.2,28.8,55.4z M32.1,54.4c0,0.1-0.1,0.3-0.1,0.3
		c-0.3,0.5-0.5,1-0.5,1.6c-0.8-0.7-1.5-1.2-2.1-1.5c3.2-2.9,7.7-3.8,13.8-2.7c2.1,0.4,4,1.1,5.8,1.9c-0.8,0.7-1.5,1.5-2.1,2.3
		c0-0.1,0-0.3,0-0.4c-0.1-0.6-0.3-1.1-0.5-1.5c-1.6-1-3.3-1.5-5.4-1.6C37.8,52.8,34.8,53.3,32.1,54.4z M2.6,82.9
		c0.2-0.8,0.4-1.5,0.8-2.1c2.8-4.6,7.2-6.9,13.2-6.9c0.1,0.1,0.3,0.2,0.4,0.2c0.6,0.1,1.2,0.2,1.7,0.3c0.3,0,0.6,0.1,0.8,0.2
		c0.2,0.2,0.3,0.3,0.4,0.5c0.1,0,0.1,0.1,0.2,0.2c0.1,0.1,0.3,0.1,0.4,0.1s0.1,0.1,0.1,0.1c0.9,1,1.9,1.3,3.2,1.1
		c0-0.2-0.1-0.4-0.2-0.6c-0.2-0.2-0.5-0.5-0.8-0.6V75c1.3,0,2.6-0.5,3.6-1.2c0.7,0.1,1.5,0.1,2.2-0.2c-2-1.1-3.7-2.4-5-4.1
		c0.1-0.2,0.2-0.4,0.3-0.5c0.3-0.1,0.6-0.4,0.8-0.6l1.7,0.7c0.4,0.1,0.7,0.3,1.2,0.4c-0.1,0.1-0.1,0.2-0.2,0.2
		c0.3,0.1,0.6,0.2,0.9,0.3c0-0.1,0-0.2,0-0.2c0.6,0.1,1.2,0.3,1.7,0.5c0,0.2-0.1,0.5-0.1,0.8c-0.3-0.2-0.6-0.4-0.9-0.6
		c-0.1,0.1-0.1,0.1-0.1,0.2c0.3,0.4,0.7,0.9,1,1.3c0,0.4,0.1,0.9,0.2,1.3c0.7,1.1,1.6,1.6,2.6,1.7c0.5,0.5,0.9,1,1.2,1.5
		c-0.1,0.6-0.6,1.4-1.5,2.3c-0.6,0.7-1.2,1.2-2,1.6C22,84.8,12.7,85.6,2.6,82.9z M31.1,71.4c0-0.1,0.1-0.2,0.1-0.3
		c0.2-0.2,0.3-0.3,0.4-0.4c0,0,0.1,0,0.2,0l0.1,0.1l0,0c0,0,0,0,0,0.1c0,0,0,0,0.1,0c-0.1,0.1-0.2,0.2-0.2,0.4
		c-0.1,0.4-0.2,0.9-0.2,1.3C31.4,72.3,31.3,71.8,31.1,71.4z M31.8,69.2c-0.1-0.3-0.4-0.5-0.8-0.7c-0.1,0.1-0.3,0.2-0.4,0.4
		c-1.2-0.4-2.3-0.7-3.5-1.1l0,0c0.8-0.8,1.4-1.6,1.8-2.5c0,0.2,0.1,0.3,0.2,0.5c0.7,0.7,1.2,1.5,1.7,2.3c5.6,1.8,11.1,1.9,16.6,0.4
		c0.6-0.2,1.3-0.4,2-0.6c0.2-0.3,0.3-0.5,0.4-0.8c0.2-1.1,0.7-1.8,1.2-2.2c0.1,0.1,0.2,0.2,0.2,0.4c0.3,0.5,0.6,1,1.1,1.5
		c0,0.1,0.1,0.2,0.1,0.3c0,0.6,0.1,1,0.5,1.2c-1,0.5-2,0.8-3.1,1.1l0,0c-0.3,0-0.4,0-0.4,0c0,0.1,0,0.1,0,0.1
		c-0.6,0.2-1.3,0.3-1.9,0.4c-0.2,0-0.3-0.1-0.5-0.1c-0.1,0-0.2,0.1-0.2,0.2c-3.4,0.5-7.4,0.4-11.7-0.2C34,69.6,32.9,69.4,31.8,69.2z
		 M34.3,65.1c0.1-0.1,0.2-0.2,0.4-0.3c3.2-2.1,6.6-2,10.1,0.5c0.1,0.3,0.3,0.7,0.3,1.1c0.1,0.2,0.1,0.4,0.2,0.6
		c0.2,0.2,0.4,0.5,0.6,0.6c-4,1.1-8,1.1-11.9,0.1c0.1-0.2,0.1-0.5,0.1-0.8h0.1c0-0.1-0.1-0.1-0.1-0.1s0-0.1,0-0.2
		c-0.1-0.3,0-0.7,0-1.1C34.1,65.4,34.2,65.3,34.3,65.1z M48.8,71.4c0-0.2-0.1-0.3-0.2-0.5c0.1,0,0.3,0,0.5-0.1
		C49,71,48.9,71.2,48.8,71.4z M46,71.4c0,0,0,0.1,0,0.2c0.2-0.2,0.4-0.3,0.7-0.4c0.1,0,0.2,0,0.3,0c0.1,0.7,0.5,1.1,1.1,1.1
		c-0.1,0.1-0.3,0.3-0.5,0.4c-0.4-0.1-0.7-0.1-1.1-0.2c-0.1,0.1-0.2,0.2-0.4,0.4c-0.7,0.5-1.3,1-1.8,1.6c0,0.2,0,0.3,0,0.4
		c0,0.5,0.1,1,0.2,1.5c-3,0.4-6,0.2-9-0.6c0-0.2-0.1-0.3-0.2-0.4c-0.1-0.3-0.4-0.7-0.8-1c-0.3-0.1-0.6-0.3-0.8-0.4
		c-0.3-0.2-0.6-0.4-0.8-0.6c-0.1-0.8,0-1.5,0.5-2.1l0.2-0.2c3.8,0.7,7.8,0.8,11.8,0.3C45.6,71.4,45.8,71.4,46,71.4z M35.6,77.8
		c0.1-0.3,0.1-0.6,0.1-0.8c1.6,0.6,3.1,1,4.5,1.2c-2.8,1.3-5.7,2.6-8.5,4c1-0.9,1.8-2,2.4-3.3c0.2-0.1,0.4-0.2,0.5-0.4
		C35,78.3,35.3,78,35.6,77.8z"/>
	<path style="fill:#BE3689;" d="M41.5,31.5c-0.8,0.4-1.3,1-1.7,1.9c0,0-0.1,0.1-0.2,0.1c-2.1-1.9-4.3-2.6-6.5-2.1
		c-0.4-0.3-1.1-0.5-2-0.6c0-0.2,0-0.3,0-0.4c0.1-0.2,0.1-0.4,0.1-0.6c0-0.4-0.2-0.7-0.4-0.9c-0.4-0.1-0.7,0-0.7,0.3
		C30,29.6,29.9,30,30,30.4c0,0.5,0.1,0.9,0.4,1.4c0.2,0.1,0.4,0.3,0.6,0.4c-0.3,0.2-0.6,0.4-1,0.7c-0.6-0.3-1.4-0.5-2-0.9
		c0-0.1,0-0.2,0-0.4c0,0,0-0.1,0-0.2c0-0.3-0.1-0.6-0.4-0.9c-0.1,0.1-0.2,0.1-0.3,0.2C27.1,31.2,27,31.6,27,32
		c0.1,0.3,0.1,0.6,0.4,0.9c0.4,0.4,0.9,0.8,1.4,0.9c-0.2,0.1-0.2,0.2-0.4,0.4c-1,0-1.9-0.5-2.6-1.3c-0.5-0.2-0.7,0-0.7,0.4
		c0,0.9,0.5,1.5,1.5,1.8c0.3,0.1,0.5,0.1,0.7,0.2c-4.5,4.7-4.4,9.6,0.3,14.5c4.8,1.3,8.9,0.5,12.5-2.4c1.4,1.2,2.9,1.9,4.5,2.1
		c0.3,0,0.6,0,0.9,0c1.2,0.1,2.4-0.2,3.7-0.7c5.4-2,7.2-5.7,5.4-10.9c-0.1-0.1-0.2-0.3-0.3-0.4c0-0.1,0-0.1,0-0.1
		c-0.9-1.5-1.9-2.7-3-3.6c0.2-0.1,0.4-0.2,0.6-0.3c0.1-0.1,0.2-0.2,0.4-0.4c0.9-0.8,1-1.7,0.3-2.6l0,0c-0.7,1.1-1.6,1.8-2.7,2.2
		c-0.4-0.2-0.8-0.4-1.1-0.6c0.4-0.4,0.8-0.9,1.2-1.3c0-0.2,0-0.3,0-0.4c0.1-0.7,0-1.3-0.4-1.9h-0.2c-0.2,1.8-1.1,2.8-2.4,3
		c-0.1,0-0.1,0-0.1,0c0-0.1,0-0.2,0.1-0.2c0.5-1.2,0.6-2.3,0.3-3.4c-0.9,0.5-1.4,1.6-1.8,3.2c0,0,0,0,0,0.1c-1-0.2-1.9-0.2-3-0.2
		C42.3,31.2,41.9,31.3,41.5,31.5z M33.5,32.6c0.6,0,1.2,0,1.9-0.1c0.2,0.2,0.4,0.3,0.6,0.4c0.9,0.7,1.7,1.3,2.5,1.8
		c0.9,0.1,1.9,0.2,2.8,0.3c0.1-0.1,0.1-0.2,0.1-0.3c0.2-0.6,0.4-1.1,0.7-1.6c3.1-0.4,5.7,0.2,7.8,1.9h-0.1c1.2,0.7,2,1.4,2.5,2.3
		c-0.2-0.1-0.3-0.1-0.3,0c0.1,0.1,0.2,0.3,0.3,0.5c0.1,0,0.2,0,0.2,0c0.1,0,0.1,0.1,0.1,0.3c0.1,0,0.1,0.1,0.1,0.2
		c-0.2,0.1-0.4,0.2-0.6,0.3c-4.5,2-8.2,4.5-11.2,7.4c-0.1,0-0.3,0-0.5,0c0-0.7,0-1.4-0.3-2c-0.2,0-0.3,0-0.3,0.2
		c-0.2,0.6-0.2,1.2-0.2,1.7c-0.2,0-0.4,0-0.6,0c-0.1,0-0.2,0.1-0.3,0.2c-3.9-2.7-7.9-5.3-11.9-7.9c0.1-0.2,0.3-0.5,0.4-0.7
		c0.1,0,0.1,0,0.1,0c0.3-0.4,0.6-0.7,0.9-1.1c0.4-0.5,0.9-0.9,1.4-1.3c-0.1,0-0.2,0-0.2,0C30.5,34.1,31.9,33.3,33.5,32.6z
		 M53.2,39.6c0,0.4,0.1,0.8,0.2,1.1c0.5,3-0.7,5.2-3.6,6.7c-1.6,0.5-3.1,0.7-4.5,0.5c-1.2,0.1-2-0.4-2.4-1.3c0.3-0.5,0.6-1,1-1.3
		c0,0,0,0.1,0,0.2c0.1,0.8,0.6,1.2,1.6,1.1c0.1,0,0.2-0.1,0.4-0.2c0.9-0.8,1-1.6,0.5-2.5l0,0c0-0.1,0-0.1-0.1-0.1
		C48.7,42.5,50.9,41.1,53.2,39.6z M25.1,43.1c0-0.1,0-0.2,0-0.3c0.3-1.6,0.8-3,1.5-4.3c1.7,2,3.6,3.7,5.9,5.1l0,0
		c0.2,0.2,0.4,0.3,0.6,0.4c-0.1,0.1-0.2,0.3-0.3,0.5c-0.1,1.1,0.3,1.8,1.3,2.3c0.5,0,0.9-0.1,1.2-0.2c0.3-0.1,0.5-0.2,0.7-0.5
		c0.1-0.1,0.1-0.2,0-0.3c0-0.1,0-0.1,0-0.2c0.5,0.3,1,0.6,1.6,0.9c0,0.1,0.1,0.1,0.1,0.1s0-0.1,0.1-0.2c-0.1-0.1-0.1-0.1-0.1-0.1
		c0.2,0.1,0.3,0.1,0.5,0.2c-0.2,0.1-0.3,0.2-0.4,0.3c-0.8,0.5-1.4,0.8-2,1.1h0.1C31.1,50.3,27.5,48.7,25.1,43.1z M41.9,46.5
		c0,0.1,0.1,0.2,0.2,0.2c-0.3-0.1-0.5-0.3-0.7-0.4c0.2-0.1,0.4-0.2,0.7-0.3C42,46.1,41.9,46.3,41.9,46.5z"/>
</g>
</svg>
