<?xml version="1.0" encoding="iso-8859-1"?>
<!-- Generator: Adobe Illustrator 12.0.1, SVG Export Plug-In . SVG Version: 6.00 Build 51448)  -->
<!DOCTYPE svg PUBLIC "-//W3C//DTD SVG 1.1//EN" "http://www.w3.org/Graphics/SVG/1.1/DTD/svg11.dtd" [
	<!ENTITY ns_svg "http://www.w3.org/2000/svg">
	<!ENTITY ns_xlink "http://www.w3.org/1999/xlink">
]>
<svg  version="1.1" id="Layer_1" xmlns="&ns_svg;" xmlns:xlink="&ns_xlink;" width="101" height="100" viewBox="0 0 101 100"
	 style="overflow:visible;enable-background:new 0 0 101 100;" xml:space="preserve">
<g>
	<g>
		<path style="fill:#FFFFFF;" d="M101,100V0H0v100H101z"/>
	</g>
</g>
<g>
	<path style="fill:#BE3689;" d="M23.3,38.5c0,0.2,0,0.4,0,0.7c0.1-0.3,0.1-0.5,0.2-0.8C23.4,38.5,23.4,38.5,23.3,38.5z"/>
	<path style="fill:#BE3689;" d="M8.3,87.1c0.2,0.1,0.4,0.1,0.6,0c5.3-2.6,10.8-4.7,16.2-6.3C18.9,81.5,13.3,83.6,8.3,87.1z"/>
	<path style="fill:#BE3689;" d="M8.1,90.3l0.1,0.2c8.2-2.1,16.1-5,23.8-8.6C23.6,84.2,15.6,87,8.1,90.3z"/>
	<path style="fill:#BE3689;" d="M10.3,94.2c0.1,0.2,0.3,0.2,0.4,0.1c8.6-3.1,17.1-6.4,25.6-9.7c-0.1,0-0.2-0.1-0.2-0.2
		c-0.7-0.1-1.4-0.2-2.1-0.3c-0.2,0.2-0.5,0.5-0.9,0.6C25.1,87.9,17.5,91,10.3,94.2z"/>
	<path style="fill:#BE3689;" d="M17.6,97.8l0.1,0.2c10.2-3.9,20-8.3,29.3-13.1C36.8,88.2,27,92.5,17.6,97.8z"/>
	<path style="fill:#BE3689;" d="M66.4,93c-0.4-0.1-0.6-0.2-0.9-0.2c-3.3,1.4-6.5,2.8-9.7,4.2C59.6,97.1,63.2,95.8,66.4,93z"/>
	<path style="fill:#BE3689;" d="M82.6,20.1h-0.2c-0.3-0.3-0.8-0.6-1.3-0.7c-0.3-0.1-0.6-0.1-0.7,0c-1.3-1.3-3.1-2.1-5.2-2.4
		c-0.1-0.2-0.2-0.4-0.3-0.6c-0.1,0-0.2-0.1-0.4-0.1l-3,0.2c0.1,0.2,0.3,0.4,0.5,0.6c-0.4,0.1-0.7,0.2-1.1,0.2c-0.4,0-0.6,0-0.8,0.1
		c-0.1-1.2-0.3-2.3-0.7-3.4c0.1,0,0.1,0.1,0.2,0.2c-0.2-0.4-0.4-0.8-0.6-1.2l-1-0.4c0,0,0,0,0.1,0c-0.7-0.1-1.5-0.2-2.2-0.2
		C62.6,12.8,60,14,58,16.2c0.2-0.3,0.3-0.6,0.5-0.9c0-0.1,0.1-0.2,0.1-0.3c0-0.3,0-0.5,0-0.8c0.2-0.1,0.3-0.3,0.5-0.4
		c0-0.1,0.1-0.2,0.2-0.3c0-0.2,0-0.3,0-0.4c-0.1-5.6-2.8-8.5-8.2-8.9c-1.4-2-3.2-3.3-5.6-4c-0.6,0.2-1.1,0.6-1.7,1.1
		c-1.2,1.2-2,2.5-2.4,4.1c-0.6-0.5-1.2-0.9-1.9-1.3c-0.6,0-1.3,0-2,0c-0.6,0.2-1.1,0.6-1.5,1.3c-0.4,0.7-0.9,1.3-1.4,1.8
		c0,0.9,0,1.8,0,2.6c0.1,1,0.2,2,0.3,3c0.3,0.4,0.7,0.8,1.1,1.2c0.4,0.3,0.8,0.7,1.1,1.1c0.3,0,0.6,0,0.8,0.1
		c-0.2,0.6-0.4,1.3-0.5,2.1c-2-1.5-4.5-1.4-7.5,0.3c-0.2,0-0.4-0.1-0.5-0.1c-0.1,0.1-0.2,0.2-0.3,0.2c-0.2,0.1-0.4,0.1-0.6,0.1
		c-0.1-0.1-0.1-0.1-0.1-0.1c-1.4-0.8-2.9-1.3-4.5-1.3c-0.6,0.2-0.9,0.7-0.9,1.5c0.1,1.5,0.3,3,0.6,4.4c0.4,1.7,1.1,3.2,2.3,4.6
		c0.2,0.1,0.4,0.3,0.7,0.4c1.6,1.2,3.2,1.2,4.8,0.1c0-0.3,0-0.5,0-0.8c0.1-0.7,0.2-1.4,0.4-2.1c0.1,0,0.1-0.1,0.1-0.2
		c0.2,0.2,0.3,0.2,0.5,0.3c0,0.4,0,0.9,0,1.2c0,0.3,0,0.7,0,1c-0.1,0.1-0.1,0.1-0.1,0.2c-0.2,0-0.3,0.1-0.4,0.3
		c-1,0.8-1.4,1.7-1.3,2.6c1.6-0.3,3.1-0.4,4.5-0.3c-0.5,0.4-1,0.9-1.3,1.4h-0.1c-0.4,0.5-0.7,1-1.1,1.6c-1.5,1.6-2.7,3.4-3.9,5.2
		c0,0-0.1-0.1-0.2-0.1c-0.4-0.2-0.8-0.2-1.2-0.3c-0.9,0.4-1.7,1-2.3,1.8c-1.1,1.2-2,2.5-2.6,3.9c0-0.4,0.1-0.8,0.3-1.2
		c-0.4,0.7-0.9,1.4-1.6,1.9c-0.1,0.2-0.3,0.3-0.5,0.5c-0.1,0.2-0.2,0.5-0.4,0.8c-0.1,0.4-0.2,0.8-0.1,1.2c0,0.4,0,0.8,0,1.1
		c0,0.2,0,0.3,0,0.4c0,0.1-0.1,0.2-0.2,0.4c-0.1,0.1-0.2,0.2-0.3,0.3c-0.1,0.2-0.2,0.3-0.3,0.5c0,0.1,0,0.2,0,0.3c0,0.1,0,0.2,0,0.3
		c0.1,0.3,0.2,0.6,0.2,0.8c0.1,0.2,0.1,0.4,0.1,0.6c-0.4,0-0.9,0-1.3-0.1c-0.3,0.1-0.4,0.3-0.5,0.6c-0.2,0.6-0.3,1.2-0.3,1.8
		c0,0.4,0,0.8,0,1.1c0.7,0.3,1.3,0.4,1.9,0.5c0.2,0,0.4,0,0.6,0.1c0.3,0,0.7,0,1.1,0c0.2,0.7,0.4,1.4,0.7,2.2c1.4,1,2.8,1.8,4.2,2.5
		c0,0.1-0.1,0.3,0,0.5c0.6,6.2,3.3,11.4,8.1,15.8c0.2,0.1,0.4,0.1,0.5,0.2c0.2,3.1,1.8,5.9,4.8,8.4c1.3,0.5,2.7,0.7,4.1,0.5
		c1.3-0.2,2.5-0.7,3.3-1.5c0.6-0.5,1.1-1,1.5-1.6l0.8-1c0.6-0.8,1.1-1.7,1.6-2.5c0.4,0.8,0.9,1.6,1.3,2.5c0.3,0.3,0.5,0.6,0.6,0.9
		c0.4,0.7,0.7,1.6,0.8,2.4c0.3,0.4,0.6,0.8,0.9,1.1c-7.8,4.4-15.5,9-23,13.7c0.3,0,0.6,0,0.8-0.1c8-4.1,15.7-8.3,23.1-12.6
		c1,1,2,1.9,3,2.7c-5.2,2.4-10,5.3-14.3,8.6c4.3-1.7,8.7-3.6,13.3-5.5c1.2-0.5,2.3-1.1,3.3-1.6c4.9,2.9,10.8,3.8,17.4,2.5
		c1.6-0.2,3-0.6,4.3-1.1c0,0,0,0,0,0.1c-3.8,1.9-7.3,4.2-10.6,6.9c6.8-4.1,14.1-7.3,22.1-9.7c3.1-0.9,4.5-2,4.3-3.2
		c-0.1,0.1-0.2,0.1-0.4,0.2c-3.7,0.9-7.2,2-10.6,3.5c4.1-2.6,7.1-6.5,9-11.5c4.7-12.7,1.7-22.4-9-29c0-0.2,0-0.4,0-0.5v-0.2
		c0-0.1,0-0.2,0-0.3c0-0.5,0-0.9-0.1-1.4c-0.2-0.1-0.3-0.2-0.4-0.2h-0.1c0.1-0.1,0.1-0.2,0.1-0.2c0.1-0.1,0.1-0.2,0.2-0.3
		c-0.9-0.6-1.6-1.3-2.3-2c0.1,0.8,0.3,1.5,0.5,2.2c-0.4,0-0.8-0.1-1.2-0.1c-0.4-1.9-1.4-3.7-2.9-5.4L80.4,41c-1.5-3.6-4.1-6.9-8-9.7
		c-0.2-0.3-0.4-0.6-0.7-0.8c1.3-1,2.8-1,4.6,0.3c0.6,0.4,1.1,0.4,1.6-0.3c-0.2-0.5-0.4-0.9-0.7-1.4C77.1,29,77,28.9,77,28.8
		c-0.2-0.2-0.3-0.4-0.5-0.6c-0.3-0.3-0.4-0.7-0.6-1.1c-0.1-0.3-0.1-0.7,0.1-1.1c0.1-0.1,0.2-0.2,0.3-0.2l0,0l1.7-1.3l1.5,0.9v-0.9
		l1,1.5l-1-0.6v3.1c0.9,0.5,1.7,1,2.6,1.5c0-0.2-0.1-0.4-0.2-0.5c0.2,0,0.3,0,0.5,0c4.5,0.5,7-1.6,7.6-6.4c-1.9-1.1-4-1.8-6.3-1.9
		C83.4,20.8,83.1,20.5,82.6,20.1z M84.8,23.2c0-0.2-0.1-0.3-0.1-0.4c1.5,0.2,2.7,0.8,3.7,1.7c-0.1,0.2-0.2,0.3-0.3,0.5
		s-0.3,0.4-0.4,0.6c-0.6,0.6-1.2,1.3-1.8,1.9c-1.4,0.6-2.8,0.8-4.2,0.6V28c-0.2,0-0.4,0-0.5,0c-0.1,0-0.1,0-0.1,0
		C81,27.9,81,27.9,81,27.9c0-0.3,0-0.5,0-0.8c0-0.2,0-0.4,0-0.6v-0.1c0-0.4,0-0.7,0-1.1c0.2,0.4,0.9,0.7,2.1,0.7
		c-0.1-0.1-0.2-0.2-0.2-0.4c-0.4-0.5-0.8-1-1.3-1.5c-0.1,0-0.1,0.1-0.2,0.1c-0.2,0.3-0.4,0.5-0.4,0.7c0-0.2,0-0.3,0-0.4
		c-0.6-0.6-1.2-1.2-1.8-1.6c-1.1-0.9-2.3-1.4-3.4-1.8c-1.9-0.5-3.9-0.5-5.9,0.1c0.1-0.8,0.2-1.7,0.3-2.5c1.3-0.2,2.7-0.2,4-0.1
		l2.3,0.5c1.7,0.4,3.2,1.2,4.8,2.2c0.2,0.5,0.4,0.9,0.7,1.3c0.3,0,0.7,0,1.1,0c0.4,0.6,1,0.9,1.8,0.9C84.9,23.4,84.9,23.3,84.8,23.2
		z M87.4,62.3c-0.1,0.4-0.3,0.7-0.5,1.1c-4.8,6.2-10.3,11.5-16.5,15.9c-0.2-0.1-0.4-0.2-0.5-0.4c-0.3-0.3-0.4-0.6-0.5-0.9
		c-0.2-0.5-0.2-0.9-0.3-1.3c-0.1-0.9,0-1.7,0.3-2.6c0.1-0.1,0.2-0.2,0.4-0.4c0.1-0.1,0.2-0.2,0.3-0.4c0-0.4,0.1-0.7,0.3-1.1
		c0.1-0.3,0.1-0.7,0.1-1.1c-0.9-1.4-1.9-2.1-3-2.1c0.7,0,1.4,0,2.2-0.1c0.5-0.2,1-0.5,1.5-0.8c0.2,0.4,0.4,0.7,0.7,1
		c0.1,0.1,0.1,0.2,0.3,0.2c0,0.1,0.1,0.1,0.1,0.1c-0.2,0.3-0.4,0.7-0.5,1.1c-0.1,0.2-0.1,0.4,0,0.7c0.2,0.5,0.6,0.8,1.2,0.6
		c1.4-2.8,3.1-5,5-6.7c1.4-1.2,2.8-2.1,4.5-2.8c1.6-0.6,3.3-1.1,5.1-1.2C87.6,61.5,87.6,61.9,87.4,62.3z M68.2,14.3
		c0.2,0.7,0.3,1.5,0.3,2.2c0.3,3-0.3,5.8-1.8,8.3c-0.4,0.2-0.7,0.5-1.1,0.8c-0.1,0.1-0.2,0.2-0.4,0.4c-0.7,0.1-1.5,0.3-2.3,0.6
		c-0.3-0.1-0.6-0.1-0.9-0.3c-2.2-1-4-2.4-5.4-4.2c0,0,0,0-0.1,0c0.1-0.4,0.1-0.9,0.1-1.3c0.7,0.1,1.5,0.3,2.3,0.3
		c0.5,0.6,1.1,1,1.7,1.4c0.9,0.6,1.6,0.5,2.1-0.1c0.1-0.7-0.3-1-1.1-1.1c-0.8-0.2-1.5-0.5-2-1.2c-0.4,0-0.8,0-1.3,0
		c1.6-0.7,3.2-1.1,4.8-1.2c-0.1-0.1-0.2-0.2-0.3-0.3c-0.6-0.2-1.3-0.4-1.9-0.6c-0.2,0.1-0.4,0.1-0.5,0.2c-1.7,0-2.8,0.6-3.4,1.8
		c-0.1,0-0.1,0-0.1,0c-0.1,0.1-0.2,0.1-0.3,0.1c0-0.4,0-0.8,0-1.2l0,0c0-0.1,0-0.1,0-0.1c-0.1-0.1-0.1-0.2-0.1-0.3
		C59.9,15.8,63.8,14.4,68.2,14.3z M68.8,24.3c0.4-1,0.7-1.9,1-2.9c2.6-0.2,4.9,0.3,7,1.5c0.6,0.3,1.2,0.8,1.7,1.2h-0.4
		c-0.2,0-0.4,0-0.7,0c-0.3-0.1-0.7-0.1-1-0.1c0,0.1,0,0.1-0.1,0.1c-0.1,0.1-0.2,0.2-0.4,0.3c-0.2,0.1-0.5,0.4-0.7,0.6
		s-0.2,0.3-0.3,0.4c0,0.6,0,1.2,0,1.9c0,0,0,0,0,0.1C73,26,71,24.9,68.8,24.3L68.8,24.3z M55.5,10.6c-0.1-0.1-0.3-0.3-0.4-0.4
		c-1.5-1.7-3.3-2.5-5.6-2.4v0.1c-0.7-0.1-1.2,0-1.6,0.5c-1.2-0.7-2.7-1.2-4.2-1.5c-0.1,0-0.1-0.1-0.1-0.2c-0.2-0.3-0.5-0.7-0.8-1
		c0.3-0.3,0.6-0.6,0.7-1.1c0.4-1.1,1.1-1.9,2.1-2.5c1.1,0.8,2.2,1.6,3.2,2.1c-0.1,0-0.2,0-0.3,0c-0.2,0.1-0.4,0.2-0.7,0.4
		c-0.3,0.1-0.5,0.3-0.7,0.4c-0.2,0.1-0.2,0.2-0.3,0.4c0,0.1,0,0.2,0,0.3c0.1,0.2,0.2,0.2,0.3,0.2c8.7-0.4,11.8,2.9,9.5,10.1
		c-0.2,0.1-0.4,0.2-0.6,0.3c-0.2,0.2-0.4,0.3-0.5,0.5c-0.1,0-0.1,0.1-0.1,0.2h-0.1c-0.1,0-0.1,0.1-0.1,0.1c0.1,0.1,0.1,0.2,0.1,0.3
		c-0.4-0.2-0.8-0.3-1.2-0.4C54,16.9,54,16.9,54,16.9c0-0.2,0.1-0.4,0.1-0.6c0.1,0.1,0.3,0.1,0.4,0.2c0.8-0.9,1.2-1.9,1.2-3.3
		C55.7,12.3,55.7,11.4,55.5,10.6z M42.9,11.7c0.7,0.2,1.7,0.3,3,0.4c0.3,0.2,0.6,0.4,0.9,0.6c0.7,0.5,1.4,0.9,2.1,1.3
		c0.2,0.2,0.4,0.5,0.5,0.8c0.1,0.1,0.1,0.2,0.2,0.3c0.1,0.2,0.3,0.5,0.4,0.7c0,0.3-0.1,0.5-0.1,0.7c-2.2-2.1-4.8-3.5-7.8-3.9
		C42.3,12.3,42.6,12,42.9,11.7z M42.3,8.7c1,0.3,2,0.6,3,0.8c3.5,0.9,6,2.9,7.6,6c0,0.4,0,0.8,0.2,1.2c-0.2-0.1-0.3-0.1-0.4-0.2
		c0,0.1,0,0.2,0.1,0.2c-0.6,0-1.1-0.1-1.6,0c-0.1-0.4-0.1-0.7-0.1-1c-0.1,0-0.1,0-0.1,0c0-0.2-0.1-0.4-0.2-0.6
		c-0.2-0.5-0.4-1-0.5-1.5c-0.2-0.1-0.3-0.2-0.4-0.3c-2.6-1.9-5.3-3-8.4-3.3c0,0,0,0,0,0.1c0,0.4,0.2,0.8,0.6,1.2
		c-0.8,0.4-1.6,0.8-2.3,1.1c-0.2,0-0.3,0-0.4,0c-0.1,0-0.1,0.1-0.2,0.2c-0.6,0.3-1.3,0.5-1.9,0.6c-0.7-0.6-1-1.4-1-2.2
		c0-0.9,0-1.8,0.1-2.7c0.5-0.4,0.8-0.9,1.1-1.4C37.7,6.3,38.1,6,38.8,6c0.5,0.4,1.1,0.8,1.7,1.2c0.2,0,0.3,0.1,0.4,0.2
		c-0.1,0-0.2,0-0.4,0.1C39.8,8,39.9,8.4,41,8.6C41.5,8.6,41.9,8.7,42.3,8.7z M42.2,13.8c1.5,0.6,2.8,1.5,4,2.4
		c1.4,1.1,2.6,1.6,3.5,1.7c-0.2,0.5-0.3,1.1-0.3,1.7c-1.8-1.4-3.9-2-6.5-1.6l-0.4,0.1c1.8,0.6,3.7,1.2,5.6,1.8c-0.4,0-0.8,0-1.2,0.1
		c-0.7,0.4-1.4,0.8-2.1,1.4c-0.2,0.1-0.3,0.2-0.3,0.5v0.2c1.8-0.8,3.4-1.1,5-0.9c0,0.4,0.1,0.8,0.1,1.2c-0.1,0-0.2,0-0.2,0
		c-0.1,0-0.2,0-0.3,0.1c0.2,0,0.4,0.1,0.6,0.3c0.2,0.3,0.2,0.7,0.2,1.1c0,0.1,0,0.2,0.1,0.4c-1.8,1.3-3.7,2.3-5.9,2.8
		c-0.9-0.5-1.8-1.1-2.6-1.8c-0.1-0.1-0.2-0.1-0.3-0.1c-0.1,0-0.2-0.1-0.3-0.1c-0.2-0.1-0.3-0.1-0.4-0.3c-1.2-1.9-1.7-4.1-1.6-6.4
		c0.1-1.5,0.4-2.8,1-4c0-0.1,0.1-0.1,0.1-0.2c0.1,0,0.2-0.1,0.4-0.2C41,13.9,41.6,13.8,42.2,13.8z M51.1,20.8c0-0.5,0-1,0-1.5
		c0-0.2,0-0.3,0-0.4c0.4-1,1.1-1.1,2.2-0.5c0,0.1,0,0.1,0,0.1s0,0,0.1,0h0.1c0.5,0.4,1.1,0.6,1.6,0.9c0,0.4,0,0.8,0.1,1.1
		c0,0.6-0.1,1.1-0.3,1.5c-0.1,0.2-0.2,0.3-0.3,0.4l0,0c-0.9-0.1-1.9-0.1-2.8-0.1c-0.2-0.1-0.4-0.2-0.7-0.2v-0.2
		C51.1,21.5,51.1,21.1,51.1,20.8z M54,14.9c-0.2-0.4-0.4-0.8-0.6-1.2c-1.1-1.9-2.5-3.4-4.2-4.6c2.2-0.1,4,0.9,5.2,3
		C54.4,13,54.3,14,54,14.9z M56.5,18.1c0-0.2,0-0.4,0.1-0.6c0.1,0,0.2,0,0.4,0c-0.2,0.3-0.3,0.5-0.5,0.8
		C56.5,18.2,56.5,18.2,56.5,18.1z M54.4,34.9c0.6-0.1,1.2-0.1,1.8-0.1c0.2,0.2,0.4,0.2,0.6,0.4c1.8,1.3,3.3,2.3,4.6,3.2
		c0.4-0.4,0.7-0.9,0.9-1.4c0.1-0.6,0.4-1.2,0.7-1.6c4.8-0.7,8.5,1.2,10.9,5.6c0.1,0.7,0.2,1.3,0.3,2c0.5,2.9-0.7,5.2-3.6,6.6
		c-3.8,1.3-7.1,0.5-9.7-2.3C54,53.1,49,52.5,46,45.4c0-0.1,0-0.2,0-0.4C46.8,40.3,49.6,36.9,54.4,34.9z M74.4,28.8
		c-0.7-0.1-1.4-0.2-2.1-0.2c-0.3-0.1-0.4,0-0.7,0c-0.3,0.3-0.6,0.6-0.8,1c-1.2-1.1-2.4-2.1-3.8-3c0.1-0.1,0.2-0.1,0.4-0.2
		c0.5-0.5,0.9-1.1,1.1-1.7c2,1.4,4.2,2.4,6.5,3.3c0,0.1,0,0.2,0.1,0.4c0.1,0.1,0.2,0.2,0.3,0.4C75,28.8,74.7,28.8,74.4,28.8z
		 M70.9,33c0-0.1,0-0.2,0-0.4v-0.1c0.6,0.5,1.1,0.9,1.6,1.4c-0.5,0.4-1.1,0.8-1.8,1.1c-0.3-0.3-0.7-0.5-1.1-0.6
		C70,34,70.5,33.5,70.9,33z M70,31.8c-0.4,1.2-1.1,1.8-2.2,1.9c0,0,0,0-0.1,0c0.1,0,0.1-0.1,0.1-0.2c0.5-1,0.6-2,0.4-3
		C68.8,31,69.4,31.4,70,31.8z M24.5,17.8c0.6,0.1,1.1,0.4,1.6,0.6c0.4,0.2,0.8,0.4,1.2,0.6c-0.2,0.2-0.3,0.5-0.2,0.9
		c0.4,0,0.7-0.1,1-0.3c0.1-0.1,0.3-0.2,0.5-0.2c0.3,0,0.7,0.1,1,0.1c2.5-1.4,5-2,7.8-1.7c-0.1,0.4-0.1,0.9-0.1,1.3s0,0.7,0,1.1
		c0-0.1-0.2-0.1-0.2-0.2c-0.7-0.1-1.5-0.2-2.1-0.3c-0.4-0.1-0.8-0.2-1.1-0.3c-0.8,0.1-1.5,0.4-2.2,0.9c-0.1-0.1-0.2-0.2-0.3-0.3
		c-0.3,0.1-0.4,0.2-0.6,0.3c-0.9,0.8-1.6,1.7-1.9,2.7c0.5,0.3,1.1,0.3,1.7,0c-0.1,0.1-0.1,0.2-0.1,0.3c0,0.1,0,0.2,0,0.2v0.1
		c-0.1,0.3-0.1,0.7-0.2,1.1c0,0.4-0.1,0.9-0.1,1.4c-0.4,0.2-0.8,0.2-1.1,0.2c-2.2-0.6-3.6-1.8-4.3-4C24.4,20.9,24.3,19.4,24.5,17.8z
		 M36.2,21.3c0.1,0,0.1,0,0.2,0.1c0,0.1,0.1,0.2,0.2,0.2c0.1,0.2,0.2,0.3,0.4,0.4c0.1,0,0.4,0,0.5,0c0.4,1.9,1.3,3.2,2.7,4
		c-0.7,0.3-1.4,0.7-2,1.1c-0.8,0.5-1.6,1.1-2.2,1.6c-0.9-0.6-1.8-1-2.6-1.2c0,0,0,0,0-0.1c0.2-0.2,0.4-0.4,0.6-0.6
		c1.3-1.2,2.8-2,4.6-2.2c0-0.1-0.1-0.1-0.1-0.1c-0.9-0.2-1.8-0.3-2.6-0.4c-1,0.4-1.8,0.9-2.5,1.6c0-0.5,0-1,0-1.6
		c-0.1-0.1-0.2-0.2-0.3-0.2c-0.3-0.2-0.7-0.5-1-0.8c0-0.3-0.1-0.6-0.1-1c0.1-0.1,0.2-0.2,0.4-0.3C33.5,21.1,34.8,20.9,36.2,21.3z
		 M26.7,60L26.7,60c0-0.1,0-0.1,0-0.1S26.7,59.9,26.7,60z M73,68.1c-0.1-0.3-0.2-0.6-0.4-0.7c0.7-0.5,1.4-1.1,2.1-1.7
		C74,66.4,73.5,67.3,73,68.1z M31.7,65.9c0.6,0,1.2,0,1.8,0.1l1.1,0.9c0,0.1,0.1,0.1,0.2,0.1c-0.1,0-0.1,0-0.1,0.1l1.4,1.3
		c0.1-0.1,0.2-0.2,0.3-0.2c-0.3,1-0.5,1.9-0.9,2.9c-0.4,1.1-0.6,2.1-0.8,3.2c-4.1-4.1-6.7-8.7-8-14.1c1.3,2.1,3.2,3.9,5.6,5.5
		C32.1,65.7,31.9,65.8,31.7,65.9z M82.5,46.8v0.1c-0.3,0-0.5,0.2-0.6,0.3c-0.2,0.2-0.3,0.3-0.4,0.5c-0.1-0.3-0.1-0.5,0.2-0.8
		c-0.2-2-0.6-3.9-1.2-5.7c1,1.6,1.7,3.3,1.9,5.1C82.4,46.5,82.4,46.7,82.5,46.8z M82.5,48.6c0,0.1,0,0.1,0,0.1
		c-0.2,1.7-0.6,3.4-1.4,5.2C81.1,54,81,54,81,54c0.4-2,0.7-4,0.7-5.8C81.9,48.3,82.2,48.5,82.5,48.6z M84.3,49.6
		c-0.1,0.1-0.2,0.1-0.3,0.2c0,0,0,0-0.1,0c0-0.1,0-0.2,0.1-0.4C84.1,49.5,84.2,49.6,84.3,49.6z M57,24.4c0-0.1,0-0.1,0-0.2
		c1.4,2.4,3.8,3.8,7.2,4.4c0.1,0,0.2-0.1,0.3-0.1c0.2-0.2,0.4-0.3,0.5-0.4c0.6,0.4,1.1,0.7,1.6,1c-0.2,0-0.5,0-0.7,0
		c0.6,0.4,1.3,0.8,2,1.2c-0.7,0.6-1.2,1.6-1.5,3.1c-0.1,0-0.1,0-0.1,0.1c-0.9-0.2-1.9-0.3-2.9-0.2c-0.3,0.2-0.6,0.3-1,0.5
		c-0.8,0.4-1.4,1-1.7,1.8c-0.1,0.1-0.1,0.1-0.2,0.2c-2.2-2-4.4-2.7-6.6-2.1c-0.4-0.4-1-0.6-1.9-0.7c-0.1-0.1-0.1-0.2,0-0.3
		c0.1-0.7,0-1.2-0.4-1.6c-0.3-0.1-0.6,0-0.7,0.4c-0.2,0.9-0.1,1.8,0.3,2.5c0.3,0.2,0.5,0.3,0.7,0.5c-0.4,0.1-0.7,0.4-1,0.6
		c-0.7-0.2-1.4-0.5-2-0.8c0-0.2,0-0.3,0-0.4c0-0.4-0.1-0.8-0.4-1.1c-0.2,0-0.3,0.1-0.3,0.2c-0.5,0.8-0.4,1.5,0,2.1
		c0.5,0.5,1,0.9,1.5,1c-0.2,0.1-0.3,0.2-0.4,0.4c-1.1,0-2-0.5-2.7-1.4c-0.4-0.1-0.6,0-0.6,0.4c-0.1,1,0.4,1.5,1.5,1.9
		c0.2,0,0.4,0.1,0.6,0.1c-4.5,4.8-4.4,9.6,0.4,14.5c4.7,1.4,8.9,0.6,12.5-2.4c2.5,2.3,5.5,2.8,9,1.5c5.5-2.1,7.3-5.7,5.5-11
		c-0.2-0.1-0.3-0.2-0.3-0.4c-0.9-1.5-1.9-2.7-3-3.7c0.1,0,0.3-0.1,0.5-0.2c0.2-0.2,0.3-0.3,0.4-0.4c0.2-0.2,0.4-0.4,0.4-0.6
		c0.4,0.4,0.8,0.8,1.2,1.2c3.3,3.2,5.1,6.8,5.5,10.8v0.1c0.1,1.2,0,2.5-0.1,3.8c-0.8,5.5-3.8,10.5-9.1,15
		c-4.6,3.8-10.8,5.4-18.6,4.8c-0.1-2.6-0.9-5.5-2.3-8.4c-0.1-0.1-0.2-0.3-0.2-0.4c-1.7-3.8-4.6-5.5-8.9-5.1c-1,0.2-1.9,0.8-2.7,1.7
		c0,0.1,0,0.1-0.1,0.2c-0.1,0.1-0.3,0.3-0.4,0.5l-0.5,0.5c-0.1,0.1-0.1,0.3-0.2,0.5c0,0.1,0,0.2,0,0.4c-0.6-0.5-1.2-0.9-1.8-1.2
		c-0.1-0.2-0.2-0.3-0.2-0.5c0-0.1,0-0.2,0-0.3l-0.2-1c-0.1-0.3-0.1-0.5-0.1-0.7c-0.3-3.6,0-7.2,1.1-10.7c-2.8-0.9-5.4-2.2-7.7-3.9
		c1.9-4.9,4.9-9,9-12.3c0.1,0,0.1,0,0.2,0c-0.1-0.1-0.1-0.1-0.1-0.1c0.1-0.1,0.2-0.1,0.2-0.2c1.2-0.6,2.5-1.3,3.8-1.8
		c0.9,0.9,2.2,1.4,3.9,1.4c0.1,0,0.2-0.1,0.3-0.1c3-1,4.9-2.4,5.7-4.4c2.1-0.4,4-0.4,5.9-0.1C57.1,24.5,57,24.5,57,24.4z M28.5,38.2
		c-0.4,0.8-0.9,1.6-1.3,2.5c-0.1,0.2-0.2,0.3-0.3,0.6c0,0.1-0.1,0.3-0.1,0.5c-0.1,0.1-0.2,0.3-0.2,0.5c0,0,0.1,0,0.1,0.1
		s0,0.2,0.1,0.4c2.1,1.9,4.6,3.3,7.3,4.4c-0.1,1.2-0.2,2.5-0.3,3.7c-0.2,2.3-0.2,4.6,0.1,6.7v0.5c0,0,0,0.1,0,0.2c0,0,0,0,0.1,0.1
		c-1.6-1-3.3-1.8-5-2.5c0-0.2,0-0.4,0-0.6c0-0.2,0-0.5,0-0.8c-0.1,0-0.1-0.1-0.1-0.2c-0.2-2.2-0.6-4.4-1.1-6.4c0-0.1,0-0.2,0-0.2
		c-0.9-0.8-1.9-1.2-3-1.3c0,0.1,0,0.1-0.1,0.1c-1.1,0.6-2,1.3-2.6,2.1C22.5,44.3,24.6,40.8,28.5,38.2z M34.6,61.2
		c0.3,0,0.5,0,0.9-0.1c0.4,0.3,0.8,0.6,1.1,1l-0.1,0.8c0,0.1,0,0.2-0.1,0.3c0,0.2,0,0.3-0.1,0.4c-0.2,0.9-0.2,1.8,0,2.6
		c-2.9-1.5-5.4-3.3-7.6-5.6C30.7,61.2,32.6,61.4,34.6,61.2z M39.4,60.4l0.1-0.2c0.2-0.2,0.4-0.4,0.6-0.6c0.3-0.4,0.6-0.7,1-1
		c1.5-0.5,2.8-0.4,4,0.4c2.8,2.7,4.5,6,5.2,9.7c0.2,1.1,0.3,2.3,0.3,3.5c0,0.1,0,0.2,0,0.3s-0.1,0.2-0.2,0.4
		c-0.1,0.2-0.2,0.4-0.3,0.7c0,0.2,0,0.4,0.1,0.6c-3.3-5.1-7.2-9.3-11.5-12.6C38.9,61.2,39.1,60.8,39.4,60.4z M27.5,54.8
		c-0.1,0.1-0.1,0.3-0.1,0.5c-1.1-0.5-2.3-0.8-3.4-1.2l0.4-0.2c0.1-0.1,0.1-0.1,0.1-0.1c0-0.1,0-0.2,0-0.4c0-0.1,0-0.2,0-0.4
		s0.1-0.4,0.1-0.7c0.1-0.2,0.1-0.5,0.3-0.8c-0.2-0.1-0.3-0.1-0.4-0.2c-0.6,0-1.2,0-1.8-0.1c0.1-0.8,0.5-1.7,1.2-2.7
		c1-0.1,1.8,0.3,2.5,1.3c0,0.1,0.1,0.2,0.1,0.4c0.7,1.2,1,2.5,1,3.9C27.5,54.3,27.5,54.5,27.5,54.8z M23.8,55.1
		c-0.1-0.1-0.1-0.1-0.1-0.2c0.9,0.5,1.9,0.9,2.9,1.4c-0.3,0.1-0.5,0.2-0.7,0.2c-0.2,0.1-0.3,0.1-0.4,0
		C24.8,56.1,24.2,55.6,23.8,55.1z M26.9,58.1c0.6-0.2,1.1-0.5,1.4-0.9c1.5,0.7,3,1.5,4.5,2.3c-2.1-0.2-4-0.6-5.9-1.3
		C26.9,58.1,26.9,58.1,26.9,58.1z M38,63.7c0-0.2,0-0.3,0.1-0.5c4.7,4.1,8.7,8.7,11.9,14c-0.9,4.6-4.3,6.4-10.2,5.3
		c-1.3-1.5-1.9-3-1.9-4.8c-0.1-4.1-0.1-8.3,0-12.5c0-0.3,0-0.7,0-1c0-0.1,0-0.2,0-0.3S37.9,63.7,38,63.7z M20.8,53.2
		c-0.2,0-0.3,0-0.4,0c-0.4-0.1-0.7-0.2-1-0.2c0.1,0,0.2,0.1,0.4,0.2c-0.1-0.1-0.2-0.1-0.2-0.1c-0.2,0-0.4,0-0.5-0.1
		C19,53,19,52.9,19,52.7c0-0.1,0-0.1,0-0.1c0.1-0.1,0.1-0.1,0.1,0c0.1,0,0.2,0,0.3,0.1C19.8,52.8,20.3,53,20.8,53.2z M85.9,51
		c0.1,0,0.2-0.1,0.3-0.1c9.2,6.4,12,15.2,8.6,26.4c-0.2,0.2-0.3,0.3-0.4,0.4c-0.2,0.2-0.3,0.3-0.4,0.4c-3.2,7.4-9.1,11.6-17.6,12.8
		c-2.3,0.3-4.4,0.4-6.5,0.2c0.1,0,0.2,0,0.3-0.1c3.5-1.1,4.6-2.3,3.3-3.5c-2.5,0.7-4.8,1.8-7.1,3.2c-1.7-0.4-3.4-1-4.8-1.8
		c2.2-1.1,4.3-2.3,6-3.7c-0.1,0-0.1,0-0.1,0c-2.7,0.7-5.2,1.7-7.5,2.9c-3.7-2.5-6.6-6.3-8.5-11.6c0.2-0.4,0.3-0.8,0.4-1.1
		c0.3-1.2,0.5-2.3,0.5-3.5c0.2,0,0.3,0,0.4,0.1c1.9,0,3.9-0.1,5.8-0.3c1.1-0.3,2.1-0.6,3.2-1c-0.1,0.1,0,0.3,0.1,0.4
		c1-0.3,2.1-0.6,3.1-0.9c0.8,0.3,1.5,0.2,2.5-0.1c0.4,0.3,0.7,0.5,1,0.7c0.3,0.2,0.5,0.3,0.6,0.5c-0.1,0.5-0.3,0.8-0.7,1.1
		c-0.4,0.3-0.6,0.7-0.6,1.2s0,1-0.1,1.5c0,1,0,2,0.2,2.9c0.1,0.7,0.4,1.3,0.6,2c0,0,0.2,0.1,0.2,0.2c0.2,0.1,0.3,0.3,0.6,0.5
		c0.1,0.2,0.2,0.3,0.3,0.4c0.9-0.1,1.9-0.2,2.8-0.4c2.5-1.7,4.9-3.5,7.1-5.3c5.3-4.6,8.5-9.9,9.8-15.9c-0.1-0.2-0.2-0.3-0.3-0.4
		c-0.9-0.8-1.8-1.2-3-1.1c-0.6,0.2-1.3,0.4-1.9,0.7c-1.2,0.4-2.3,1-3.3,1.6c-1.4,0.8-2.7,1.8-3.9,2.9c1.3-1.7,2.3-3.7,3.1-5.9
		c0.1-0.4,0.2-0.7,0.4-1.1c0.6,0,1.3-0.3,2-0.9c0-0.1,0-0.2,0.1-0.3c0.7-1.5,1.1-2.9,1.3-4.3c0.1-0.2,0.1-0.3,0.1-0.4
		c0.3,0.5,0.7,0.7,1.1,0.8c0.2,0.1,0.5,0,0.7,0c0.1,0,0.1,0,0.1,0C85.8,51,85.8,51,85.9,51z"/>
	<path style="fill:#BE3689;" d="M59.3,46.8c-0.5-0.9-1.4-1.2-2.4-0.9c-0.4,0.1-0.7,0.4-0.8,1c-0.3,0.8,0,1.6,0.9,2.1
		c0.5,0,1,0,1.6-0.1c0.1-0.1,0.2-0.1,0.4-0.3c0.4-0.2,0.6-0.6,0.5-1.1c0-0.1,0-0.2,0-0.4C59.4,47,59.4,46.9,59.3,46.8z"/>
	<path style="fill:#BE3689;" d="M68,47.4c0-0.1,0-0.2-0.1-0.3c-0.4-0.8-0.9-1.3-1.8-1.6c-0.3,0-0.6,0-0.8,0c-0.9,0.4-1.3,1-1.1,1.9
		C65.4,49.2,66.6,49.2,68,47.4z"/>
	<path style="fill:#BE3689;" d="M70,56.8c-0.2,0-0.4,0-0.5,0.1c-4.6,5.4-9.6,5.8-15.1,1.1c2.6,4.3,6.8,5.5,12.7,3.5
		c0,0,0-0.1,0.1-0.1C68.9,59.9,69.9,58.4,70,56.8z"/>
	<path style="fill:#BE3689;" d="M65,64.3c0-0.1-0.1-0.2-0.1-0.2c-1.5,0.1-2.8-0.1-4-0.6c-0.4,0-0.4,0.1-0.1,0.5
		C62.1,65.1,63.5,65.2,65,64.3z"/>
</g>
</svg>
