<?xml version="1.0" encoding="iso-8859-1"?>
<!-- Generator: Adobe Illustrator 12.0.1, SVG Export Plug-In . SVG Version: 6.00 Build 51448)  -->
<!DOCTYPE svg PUBLIC "-//W3C//DTD SVG 1.1//EN" "http://www.w3.org/Graphics/SVG/1.1/DTD/svg11.dtd" [
	<!ENTITY ns_svg "http://www.w3.org/2000/svg">
	<!ENTITY ns_xlink "http://www.w3.org/1999/xlink">
]>
<svg  version="1.1" id="Layer_1" xmlns="&ns_svg;" xmlns:xlink="&ns_xlink;" width="86.964" height="88.14"
	 viewBox="0 0 86.964 88.14" style="overflow:visible;enable-background:new 0 0 86.964 88.14;" xml:space="preserve">
<g>
	<g>
		<path style="fill:#BE3689;" d="M82.064,30.6c-1.8-1.3-3.7-2.3-6-2.7c-0.2-0.5-0.6-0.8-0.9-1.2h-0.3c-0.3-0.4-0.7-0.6-1.1-0.9
			c-0.4-0.2-0.6-0.2-0.7-0.2c-1.7-2-4.3-3.2-7.7-3.5c-0.4,0.2-0.9,0.3-1.5,0.2c-0.3,0-0.5,0-0.8,0c0.1-1.5-0.1-3-0.5-4.6
			c-0.2-0.1-0.3-0.1-0.4-0.2c-0.9-0.3-1.8-0.5-2.6-0.7c-4.3,0-7.7,1.5-10.1,4.6v-0.1l0,0c0-0.5,0.3-0.7,0.7-1c0-0.4,0.1-0.8,0.1-1.2
			c0.1-0.5,0.2-1,0.2-1.5c0.2-0.2,0.4-0.4,0.6-0.6c1.3-2.2,3.1-4,5.4-5.4c0.2,0,0.4,0,0.5,0c2.2,1.6,4.7,2.2,7.7,1.9
			c0.2-0.3,0.3-0.5,0.5-0.7c1.2-3.8,0.5-7.2-2-10.1c-0.5-0.1-0.8-0.2-1.2-0.3c0,0.1,0,0.1-0.1,0.1c-2.2,1-3.7,2.3-4.7,3.9
			c-0.4-0.1-0.5,0-0.5,0.2c0,0.3,0,0.5,0,0.7c0,0,0,0.1-0.1,0.2c-0.2-0.1-0.5-0.2-0.8-0.3c-1.6,0.7-3.2,1.7-4.7,3
			c-2.2,1.8-3.6,3.7-4.2,5.7c-0.3-3.2-1.5-6.2-3.7-8.9c0.3-0.7,0.4-1.5,0.4-2.2c0.2-1.7-0.3-3.1-1.2-4.4c-0.8-0.1-1.5-0.2-2.3-0.4
			c-0.2,0.1-0.4,0.1-0.8,0.2c-5,1.1-7,4-6.2,9c1.9,1.1,3.9,1.4,6,0.8c0.4,0.5,0.8,1,1.3,1.4c0-0.1,0-0.3-0.1-0.4c0,0,0,0,0-0.1
			c2,2.4,3.2,5.2,3.5,8.2h-0.1c-0.1,0.1-0.1,0.1-0.2,0.2c-2.4-3.5-5.8-5.4-10.2-6c-1.2,1.2-2,2.8-2.6,4.6c-1.7-1.7-4.2-1.8-7.4-0.6
			c-0.2-0.1-0.4-0.1-0.6-0.2c-0.1,0.1-0.2,0.1-0.3,0.2c-0.2,0-0.4,0-0.6,0c0-0.1,0-0.1-0.1-0.1c-1.3-1-2.7-1.6-4.3-1.9
			c-0.6,0.1-1,0.5-1,1.4c-0.2,1.5-0.1,3,0,4.4c0.2,1.7,0.7,3.3,1.6,4.8c0.3,0.2,0.5,0.4,0.7,0.6c1.4,1.3,3,1.6,4.7,0.7
			c0.1-0.3,0.1-0.5,0.2-0.8c0.1-0.7,0.3-1.3,0.7-2c0-0.1,0-0.1,0.1-0.2c0.1,0.1,0.2,0.2,0.4,0.4c-0.1,0.3-0.1,0.7-0.2,1.1
			c0,0.4-0.1,0.7-0.1,1c-0.1,0.1-0.1,0.1-0.1,0.1c-0.1,0.1-0.3,0.3-0.5,0.3c-1,0.7-1.5,1.5-1.5,2.4c1.6,0,3,0.1,4.4,0.3
			c-0.6,0.4-1,0.8-1.5,1.3l0,0c-0.5,0.4-0.9,0.9-1.3,1.4c-3.9,3.2-6.9,7.3-9,12.3c-3.5,8.6-1.9,15.5,4.9,20.9
			c1.9,1.4,3.8,2.7,5.7,3.8c0.6,0.3,1.2,0.6,1.7,0.9c0,0,0,0.1-0.1,0.1c0.3,0.1,0.5,0.2,0.8,0.3v-0.1c0.1,0.1,0.2,0.1,0.3,0.2
			c0.5,0.1,1,0.3,1.5,0.4c-0.7,1.5-1.1,2.9-1.3,4.4c-0.2-0.2-0.4-0.3-0.7-0.4c-0.2-0.1-0.3-0.1-0.2,0.1c0,0,0.1,0.1,0.2,0.3
			c-3.6-2.4-7.8-3.4-12.6-3.1c-1.3,0.4-2.6,0.7-3.9,1.1c-1.2,0.2-2.9,1.3-5,3.3c-2.2,2-3.5,3.4-4,4.1c-0.7,0.8-0.9,1.8-0.5,2.8
			c0.1,0.3,0.2,0.5,0.3,0.8c0.5,0.1,1.1,0.2,1.7,0.2c-1.4,0.3-2.5,1-3.1,2.2c0.1,0.1,0.2,0.2,0.2,0.1c2.6-0.2,4.1-0.9,4.3-2.1
			c1.1,0.2,2.2,0.3,3.4,0.4c-1.4,0.4-2.6,1-3.8,1.9c0.1,0.2,0.1,0.2,0.1,0.2c2.7-0.4,4.6-1,5.7-2c1.2,0.1,2.4,0.1,3.6,0.2
			c-1.2,0.4-2.4,1-3.5,1.8c0.4,0.6,1.1,0.7,1.9,0.3c0,0,0.2-0.1,0.3-0.1c2-0.6,3.5-1.2,4.5-2c1.3,0,2.6,0,3.9,0c-1,0.5-2,1-3,1.6
			c0.3,0.2,0.6,0.2,0.8,0.2c1.9-0.6,3.8-1.3,5.6-2c1.8-0.2,3.5-0.4,5.3-0.6c-1.7,0.8-3.2,1.7-4.8,2.6c0.1,0.1,0.2,0.2,0.3,0.2
			c0.4,0.2,0.8,0.3,1.2,0.3c0.1-0.2,0.3-0.3,0.4-0.3c2.7-1.3,5.5-2.5,8.3-3.7c0.8-0.1,1.7-0.3,2.6-0.5c0-0.2,0-0.4-0.1-0.6
			c1.9-0.8,3.7-1.6,5.6-2.4c-0.2-0.2-0.4-0.3-0.6-0.3l0,0c1.5-0.8,3-1.4,4.4-1.9c0.4-0.1,0.8-0.2,1.1-0.3c-0.3,0.4-0.6,0.9-0.8,1.5
			c-5.4,1.8-9.8,4.5-13.1,7.8c0.2,0.1,0.4,0.1,0.6,0c4.8-2.4,8.9-4.8,12.3-7.4c-0.1,0.5-0.3,1-0.3,1.6c0.6,0.4,1.2,0.8,1.9,1.1
			c-3.5,1-6.1,2.7-7.9,5.1c0.2,0.1,0.3,0.1,0.5,0c2.7-1.7,5.6-3.2,8.7-4.5c0.9,0.3,1.8,0.6,2.8,0.8c-1.9,1-3.6,2.1-5.3,3.3l0.1,0.2
			c2.4-0.8,4.7-1.9,6.8-3.3c1.3,0.5,2.6,0.8,4,1c-0.7,0.3-1.5,0.6-2.4,0.9c0,0.1-0.1,0.1-0.1,0.2c-0.8,0.4-1,0.9-0.7,1.5
			c0.8,0.2,1.6,0,2.4-0.4c1.7-0.8,2.7-1.5,3.1-2.1c0.7,0.1,1.4,0.1,2.1,0c0.7,0.1,1.5,0.2,2.3,0.2c-0.8,0.5-1.6,1.1-2.2,1.7v0.3
			c2.4-0.3,3.7-1,4-1.9c1.5,0,3,0,4.5-0.1c-0.5,0.4-1,0.8-1.2,1.3c0.2,0.1,0.4,0.2,0.7,0.1c1.7-0.3,2.9-0.9,3.8-1.7
			c1.4-0.2,2.9-0.4,4.4-0.7c-1.1,0.6-2,1.5-2.7,2.5c0.7,0.5,1.4,0.4,2.4-0.1c2.3-1.3,3.8-2.4,4.4-3.4c1.1-0.3,2.3-0.8,3.5-1.2
			c0-0.1-1.5-1.5-4.5-4.4c-3-2.8-8.8-4.6-17.3-5.3c-2.5,0.5-5,1.1-7.6,2c-0.8,0.2-1.5,0.6-2,1.1c0,0,0,0-0.1,0
			c-0.2-0.8-0.5-1.5-0.9-2.1c5.8-1.3,10.1-4.8,13.1-10.6c5.1-10.2,3.8-19.1-4.1-26.7c-0.2-0.3-0.4-0.6-0.6-0.9
			c1.4-0.8,2.9-0.5,4.5,0.9c0.5,0.6,1.1,0.5,1.6,0c-0.2-0.9-0.5-1.7-1.1-2.5c-0.2-0.4-0.3-0.7-0.4-1.1c0-0.4,0-0.8,0.2-1.1
			c0.1-0.2,0.2-0.2,0.3-0.2c1.1-0.2,2.1-0.4,3.1-0.5c0.2,0.1,0.3,0.3,0.4,0.5c0,0.4-0.1,0.8-0.1,1.2c-0.1,0.2-0.1,0.4-0.2,0.7
			c-0.2,0.7-0.1,1.3,0.2,1.9C77.164,37.5,80.664,35.9,82.064,30.6z M75.264,29.2c0.3,0.6,0.9,1,1.7,1.2c0-0.2,0-0.3-0.1-0.4
			c0-0.1,0-0.3,0-0.4c1.4,0.4,2.5,1.2,3.4,2.2c-0.1,0.1-0.2,0.2-0.3,0.4c-0.2,0.2-0.4,0.4-0.5,0.6c-0.7,0.5-1.4,1.1-2.1,1.7
			c-1.7,0.4-3.3,0.3-4.9-0.3c0-0.3,0.1-0.5,0.1-0.8c0-0.2,0.1-0.5,0.1-0.7c0.1-0.4,0.1-0.7,0.2-1.1c0.1,0.4,0.7,0.8,2,1
			c-0.1-0.1-0.2-0.3-0.2-0.4c-0.3-0.6-0.6-1.1-1-1.7c-0.2,0-0.2,0.1-0.3,0.1c-0.2,0.2-0.4,0.4-0.5,0.6c0-0.2,0-0.3,0.1-0.4
			c-2.8-3.8-6.3-5.4-10.6-4.7c0.2-0.9,0.5-1.7,0.6-2.5c4.1,0,7.6,1.3,10.7,4.1c0.1,0.4,0.3,0.9,0.5,1.4
			C74.464,29.1,74.864,29.2,75.264,29.2z M61.164,10.5c0-0.1-0.1-0.2-0.2-0.3c-0.4-0.3-0.9-0.5-1.4-0.8c-0.4,0.1-0.7,0.2-1.1,0.3
			c-0.7,0-1.3,0.1-1.7,0.4c-0.1,0-0.1,0-0.2,0.1c-0.2,0.1-0.4,0.2-0.5,0.3c-0.2-0.1-0.3-0.1-0.4-0.1c0.1,0.1,0.2,0.1,0.2,0.2
			c-3.9,2.1-6.4,5.3-7.5,9.5c0,0.1,0,0.2,0,0.3c-0.4-0.3-0.8-0.5-1.3-0.7c0.3-0.5,0.5-1.1,0.7-1.7c1.5-4.3,4.2-7.2,8-8.7
			c0.3,0,0.6,0,0.8,0c0.3,0,0.6,0,0.8-0.2c2-0.3,2.8-1.1,2.5-2.2c-0.3,0.2-0.7,0.3-1,0.2h-0.1c0.9-1.1,2-2,3.3-2.8
			c0.5,0.3,0.8,0.7,1.1,1.2c1,1.9,1.3,3.9,0.9,6.1c-1.5-0.2-2.9-0.4-4.1-0.6C60.364,10.9,60.764,10.7,61.164,10.5z M40.864,5.7
			c0,0.7,0.3,1.4,0.8,2.3c0.2,0.4,0.3,0.8,0.6,1.2c2.2,3.3,3.4,6.6,3.7,10.2c-0.5-0.2-1-0.2-1.6-0.3c0.4-4.3-1.3-7.7-5.2-10.2V8.8
			c0-0.1-0.1-0.1-0.2-0.2c0,0-0.1,0-0.1-0.1c-0.6-0.6-1.4-1-2.2-1.4l-0.2,0.1c0.3,0.3,0.6,0.6,0.9,1c-0.2,0.1-0.3,0.3-0.2,0.4
			c0,0.1,0,0.2,0.1,0.2c-0.9-0.3-1.9-0.6-2.9-0.9c0.4-4.4,2.8-6.3,7.2-5.7c0.3,0.8,0.4,1.6,0.6,2.4c0,0.2,0.1,0.5,0.1,0.8
			c-0.1,0.3-0.3,0.6-0.5,1c-0.2-0.3-0.5-0.6-0.9-0.9C40.864,5.6,40.864,5.6,40.864,5.7z M38.264,9.2c0,0,0,0,0.1,0.1
			C38.264,9.2,38.264,9.2,38.264,9.2L38.264,9.2z M53.864,21.8c-0.2,0-0.4,0-0.5,0c-1.7-0.1-2.9,0.3-3.6,1.4c-0.1,0-0.1,0-0.1,0
			c-0.1,0-0.2,0-0.3,0.1c0-0.4,0.1-0.8,0.1-1.2c0,0,0,0,0.1,0c-0.1-0.1-0.1-0.1-0.1-0.1c0-0.1,0-0.2,0-0.3c3.7-2.3,7.7-3.1,12.2-2.6
			c0,0.7,0,1.5,0,2.2c-0.2,3-1.1,5.6-2.9,7.9c-0.4,0.2-0.9,0.4-1.2,0.6c-0.2,0.1-0.3,0.2-0.4,0.4c-0.8,0-1.6,0.1-2.5,0.3
			c-0.3-0.1-0.6-0.3-0.8-0.4c-2.1-1.3-3.6-2.9-4.8-4.8c0-0.1,0-0.1-0.1-0.1c0.1-0.4,0.2-0.8,0.3-1.3c0.7,0.3,1.5,0.5,2.2,0.7
			c0.5,0.6,1,1.1,1.6,1.6c0.7,0.6,1.4,0.7,2.1,0.1c0.1-0.6-0.2-1-1-1.2c-0.8-0.3-1.4-0.7-1.8-1.4c-0.5-0.1-0.9-0.1-1.3-0.2
			c1.7-0.4,3.3-0.6,4.9-0.6c-0.1-0.1-0.2-0.2-0.3-0.3C55.064,22.3,54.464,22.1,53.864,21.8z M46.464,21.3c0.5,0.4,1,0.8,1.5,1
			c0,0.4-0.1,0.8-0.1,1.2c0,0.6-0.2,1.1-0.5,1.4c-0.1,0.2-0.2,0.3-0.3,0.4c-0.9-0.2-1.9-0.4-2.8-0.5c-0.2-0.1-0.4-0.2-0.6-0.3v-0.2
			c0.1-0.4,0.1-0.7,0.2-1.1c0-0.5,0.1-1,0.2-1.5c0-0.1,0-0.2,0-0.4C44.564,20.4,45.364,20.4,46.464,21.3z M49.264,27.7
			c0-0.1-0.1-0.1-0.1-0.1c0-0.1,0-0.2,0-0.2c1.1,2.5,3.3,4.3,6.6,5.3c0.1,0,0.2-0.1,0.3-0.2c0.2-0.1,0.4-0.2,0.6-0.3
			c0.5,0.5,1,0.9,1.4,1.3c-0.2-0.1-0.5-0.1-0.7-0.2c2.7,2.1,5.3,4.8,7.8,8c3.7,4.9,4.9,10,3.4,15.4c-1.4,5.3-5.1,9.9-11,13.6
			c-2.6,1.6-5.5,2.6-8.8,3c-4.2,0.4-8.8-0.1-14.1-1.6c-1.3-0.4-2.6-0.9-3.8-1.3c-7.4-3-12.8-7.4-16.3-13.4c-0.4-1.9-0.4-3.7,0-5.5
			c2.1-9.6,6.9-16.7,14.3-21.2c0.1,0,0.1,0,0.2,0c-0.1,0-0.1,0-0.1-0.1c0,0,0.1-0.1,0.2-0.1c1.3-0.5,2.6-1,4-1.3
			c0.8,1,2.1,1.6,3.7,1.9c0.1,0,0.2-0.1,0.3-0.1c3.1-0.6,5.2-1.8,6.2-3.5C45.464,26.9,47.464,27.1,49.264,27.7z M42.864,20.2
			c-0.3,0.4-0.5,1-0.6,1.6c-1.6-1.6-3.6-2.4-6.2-2.4l-0.4,0.1c1.7,0.8,3.4,1.6,5.2,2.4c-0.3,0-0.7,0-1.1,0c-0.8,0.3-1.6,0.7-2.3,1.1
			c-0.2,0.1-0.3,0.2-0.4,0.4l0.1,0.2c1.8-0.5,3.5-0.5,5-0.2c-0.1,0.4-0.1,0.8,0,1.2c-0.1,0-0.2,0-0.3,0c-0.1,0-0.2,0-0.3,0
			c0.2,0.1,0.4,0.3,0.6,0.5c0.1,0.3,0.1,0.7,0.1,1c-0.1,0.1-0.1,0.2-0.1,0.4c-1.9,1.1-3.9,1.8-6.1,2.1c-0.9-0.7-1.7-1.4-2.4-2.2
			c-0.1,0-0.2-0.1-0.3-0.1c-0.1-0.1-0.2-0.1-0.3-0.2c-0.1,0-0.2-0.2-0.3-0.3c-0.9-2.1-1.1-4.2-0.7-6.6c0.2-1.4,0.7-2.7,1.5-3.9
			c0-0.2,0.1-0.2,0.2-0.2c0.7,0,1.4,0,2.2,0c1.3,0.9,2.5,1.8,3.6,3C40.764,19.3,41.864,20.1,42.864,20.2z M60.864,29L60.864,29
			c0.5-0.9,1-1.8,1.3-2.7c3.5,0.1,6.2,1.4,8.4,3.8c-0.8-0.1-1.5-0.3-2.1-0.4c-0.1,0.1-0.1,0.1-0.1,0.1c-0.2,0-0.3,0.1-0.4,0.2
			c-0.3,0.2-0.6,0.3-0.8,0.6c-0.2,0.1-0.3,0.2-0.4,0.3c-0.1,0.6-0.2,1.2-0.2,1.9c-0.1,0-0.1,0-0.1,0
			C64.864,31.2,62.964,29.9,60.864,29z M63.864,33.7c-0.3,0-0.5-0.1-0.7,0c-0.5,0.2-0.8,0.4-1,0.8c-1.1-1.3-2.2-2.4-3.3-3.5
			c0.1,0,0.2-0.1,0.3-0.1c0.5-0.5,1-1,1.4-1.5c1.8,1.6,3.8,2.9,6,4.1c0,0.1,0,0.2,0.1,0.4c0,0.1,0,0.3,0.1,0.4
			c-0.3,0-0.6-0.1-0.9-0.1C65.164,34,64.464,33.8,63.864,33.7z M29.664,22.6c0.1,0,0.4,0,0.5,0.1c0.1,1.9,0.9,3.2,2.1,4.2
			c-0.7,0.2-1.4,0.6-2.1,0.9c-0.9,0.4-1.6,0.8-2.4,1.3c-0.8-0.7-1.6-1.2-2.4-1.5c0,0,0-0.1,0-0.2c0.3-0.1,0.5-0.3,0.7-0.4
			c1.5-1.1,3.1-1.7,4.9-1.6c-0.1-0.1-0.2-0.2-0.2-0.2c-0.8-0.3-1.6-0.5-2.5-0.6c-1,0.2-1.8,0.6-2.7,1.2c0.1-0.6,0.2-1.1,0.2-1.6
			c0-0.1-0.1-0.2-0.1-0.3c-0.4-0.2-0.7-0.5-1-0.8c0-0.4,0-0.7,0-1c0.2-0.2,0.3-0.3,0.5-0.3c1.2-0.6,2.5-0.6,3.8-0.1
			c0.1,0.1,0.1,0.1,0.2,0.2c0,0.1,0.1,0.2,0.1,0.2C29.464,22.3,29.564,22.4,29.664,22.6z M30.564,18.4c-0.1,0.5-0.2,0.9-0.3,1.4
			c0,0.3,0,0.6-0.1,1c0-0.1-0.1-0.1-0.1-0.2c-0.8-0.2-1.4-0.4-2-0.5c-0.4-0.2-0.8-0.4-1.1-0.5c-0.8,0-1.6,0.2-2.3,0.6
			c-0.1-0.1-0.2-0.3-0.3-0.3c-0.2,0-0.4,0-0.6,0.2c-1,0.6-1.8,1.4-2.3,2.5c0.5,0.2,1.1,0.3,1.7,0.1c0,0.1-0.1,0.2-0.1,0.4
			c0,0,0,0-0.1,0.1l0.1,0.1c-0.2,0.3-0.3,0.7-0.4,1c-0.1,0.5-0.2,1-0.2,1.5c-0.5,0.1-0.9,0.1-1.2,0c-2.1-0.9-3.3-2.4-3.7-4.5
			c-0.2-1.5-0.1-3,0.3-4.6c0.5,0.3,1.1,0.5,1.5,0.9c0.4,0.2,0.7,0.5,1.1,0.7c-0.3,0.3-0.3,0.5-0.3,0.9c0.4,0,0.7,0,1-0.1
			c0.1-0.1,0.3-0.2,0.5-0.3c0.3,0.2,0.7,0.3,1,0.3C25.264,18.1,27.964,17.8,30.564,18.4z M2.764,82.8c0.3-0.8,0.7-1.5,1.4-2.1
			c7.2-7.4,15.3-8.7,24.3-4c0,0.1,0,0.2,0,0.2c0.1,0,0.2,0,0.3,0c0.1,0,0.3,0.1,0.4,0.2c0.8,0.7,1.7,1.1,2.8,1.5
			c0-0.2-0.1-0.3-0.2-0.3c-0.5-0.6-1-1.2-1.7-1.6c0.1-0.2,0.1-0.3,0.1-0.5c0-0.1-0.1-0.2,0-0.4c0.2-0.9,0.3-1.6,0.4-2.3
			c0-0.2,0-0.3,0-0.3c-0.1-0.2-0.1-0.3-0.1-0.4c0,0,0-0.1,0-0.2c0-0.4,0-0.8-0.1-1.1c0.4,0.1,0.8,0.2,1.2,0.3
			c0.2,0.2,0.5,0.4,0.7,0.7c0.6,0.2,1.2,0.4,1.9,0.6c-1.2-0.1-2.3-0.3-3.4-0.4c0.5,0.1,1,0.2,1.4,0.4c0.7,0.1,1.3,0.3,1.9,0.5
			c0,0.2-0.1,0.4-0.1,0.6c-0.5,2.2-0.2,4,0.7,5.6c-0.2,0-0.3,0.1-0.5,0.1c0,0.5,0.2,0.8,0.5,1.2c0.4,0.3,0.7,0.7,1.1,1.1
			c0,0.1,0,0.1,0,0.1c-0.3,0.1-0.7,0.3-1,0.5c-2.1,0.2-4.2,0.5-6.3,0.6c-0.3-0.1-0.5-0.1-0.8-0.2c0,0.1,0,0.1,0,0.1
			c-0.4,0.1-0.6,0.2-1,0.3c-7,0.6-14.2,0.8-21.4,0.7C4.064,84.3,3.264,83.8,2.764,82.8z M47.564,74.2h-0.1c0.1,0,0.2,0,0.3,0
			c0.1,0,0.2,0,0.4,0c0.1,0.6,0.3,1.3,0.6,2.2c-0.4,0.1-0.7,0.3-1,0.7c0,0,0,0-0.1,0c-0.4,0.2-0.8,0.5-1.3,0.6c-0.1,0-0.1,0-0.2,0
			c0,0,0,0-0.1,0.1c-0.8,0.2-1.8,0.3-2.9,0.2c-3-0.1-5.7-0.2-8.1-0.3c-0.3-1.1-0.4-2.3-0.4-3.4c0-0.2,0-0.4,0-0.6c0.1,0,0.2,0,0.3,0
			c-0.2-0.2-0.5-0.4-0.7-0.5c2.3,0.6,4.7,1,7.2,1.3c1,0.1,2.1,0.2,3.2,0.2c0.1-0.1,0.2-0.1,0.4-0.2c0.5-0.1,1.1-0.2,1.6-0.2
			C46.964,74.2,47.264,74.2,47.564,74.2z M52.664,74c0.1,0,0.2,0,0.3,0c0.1-0.1,0.2-0.1,0.4-0.1c0.2,1,0.7,1.8,1.3,2.3
			c-0.8,0.4-1.5,1-2,1.9c0.1,0.1,0.2,0.2,0.2,0.1c0.7-0.1,1.2-0.2,1.7-0.3c0,0.1,0,0.2,0,0.3c11.3-5.9,21.2-4.6,29.9,3.6
			c-8.7,2.1-17.6,2.8-26.5,2c-3.7-0.7-6.7-1.8-9.2-3.1c0-0.1,0.1-0.2,0.1-0.3c1.7-2.3,1.9-4.3,0.5-6.1c0.3,0,0.6,0,0.9,0.1
			c0-0.1,0.1-0.1,0.2-0.1l-0.1,0.1c0.4,0,0.8,0.1,1.1,0.3c-0.1-0.2-0.2-0.3-0.2-0.4C51.664,74.2,52.164,74.1,52.664,74z
			 M35.164,78.3c0,0,0,0,0-0.1c0.6,0.2,1.3,0.4,2,0.5c-0.5,0.3-0.9,0.6-1.3,1c-0.2-0.4-0.4-0.7-0.7-1
			C35.164,78.6,35.164,78.5,35.164,78.3z M42.864,79.1c-0.7,0.3-1.2,0.7-1.8,1.1c-0.4,0.2-0.9,0.4-1.4,0.5c-0.8,0.3-1.6,0.6-2.3,1
			c-0.3-0.5-0.6-0.8-0.9-1.1c-0.1-0.1-0.1-0.2-0.1-0.2c0.9-0.3,1.8-0.8,2.6-1.4C40.264,79.2,41.564,79.2,42.864,79.1z"/>
		<path style="fill:#BE3689;" d="M35.764,33.6c0.2-0.6,0.2-1.2-0.2-1.6c-0.3-0.1-0.5,0-0.7,0.3c-0.3,0.9-0.3,1.7,0,2.6
			c0.1,0.2,0.3,0.3,0.6,0.5c-0.4,0.1-0.8,0.3-1.1,0.5c-0.7-0.3-1.3-0.7-1.9-1.1c0-0.1,0-0.2,0.1-0.4c0-0.4,0-0.8-0.3-1.1
			c-0.2,0-0.3,0-0.3,0.1c-0.6,0.8-0.7,1.5-0.3,2.2c0.4,0.5,0.9,0.8,1.3,1.1c-0.1,0.1-0.3,0.2-0.4,0.3c-1.1-0.2-1.9-0.7-2.4-1.6
			c-0.5-0.2-0.7-0.1-0.7,0.3c-0.2,0.8,0.2,1.5,1.2,2c0.2,0.1,0.4,0.2,0.6,0.2c-5,4.2-5.6,9-1.5,14.4c4.5,2,8.7,1.7,12.7-0.7
			c2.2,2.6,5.2,3.5,8.8,2.6c5.6-1.3,7.9-4.7,6.8-10.1c-0.2-0.1-0.2-0.3-0.3-0.4c-0.6-1.6-1.5-3-2.5-4.1c0.2-0.1,0.4-0.1,0.6-0.2
			c0.2-0.1,0.3-0.2,0.5-0.3c1-0.8,1.2-1.6,0.7-2.5l-0.1-0.1c-0.8,1-1.8,1.6-3,1.9c-0.3-0.3-0.6-0.5-1-0.8c0.5-0.3,1-0.7,1.5-1.1
			c0-0.2,0-0.3,0-0.4c0.2-0.7,0.1-1.3-0.1-1.9h-0.2c-0.5,1.7-1.5,2.5-2.8,2.6c-0.1-0.1-0.1-0.1-0.1-0.1s0-0.1,0.1-0.1
			c0.6-1.1,0.9-2.2,0.7-3.4c-0.9,0.4-1.6,1.4-2.1,3c-0.1,0-0.1,0-0.1,0c-0.9-0.2-1.9-0.4-2.9-0.5c-0.3,0.1-0.6,0.2-1.1,0.4
			c-0.8,0.3-1.4,0.8-1.9,1.6c0,0-0.1,0.1-0.2,0.1c-1.9-2.2-4-3.2-6.2-2.9c-0.4-0.4-1-0.7-1.9-0.9
			C35.664,33.8,35.664,33.7,35.764,33.6z M37.864,36.1c0.6,0.1,1.2,0.1,1.8,0.2c0.2,0.1,0.4,0.3,0.6,0.4c1.2,1.2,2.3,2.2,3.3,3.1
			c0.4,0.2,0.8,0.3,1.1,0.4c0.3-0.3,0.6-0.6,0.7-1c0.3-0.6,0.6-1,0.9-1.4c4.9-0.1,8.3,2.3,10.1,7c0,0.6,0,1.3,0.1,2
			c0.1,3-1.4,5-4.5,6.1c-3.9,0.7-7.1-0.5-9.3-3.6c-7.6,4.8-12.4,3.6-14.5-3.9c0-0.1,0-0.2,0.1-0.3
			C29.564,40.4,32.764,37.5,37.864,36.1z"/>
		<path style="fill:#BE3689;" d="M42.264,40.4c-0.1-0.1-0.2-0.2-0.3-0.3c-2.9,0-5,1.2-6.4,3.6c0,0.1,0,0.2,0,0.4
			c-0.1,1.1,0,2.2,0.1,3.3c0.4,0.4,0.8,0.8,1.1,1.2c1.1,0,2.1,0,3.1,0c0.6-0.3,1-0.6,1.4-0.9c0.1,0,0.1,0,0.1-0.1
			c1.5-1.9,2-4.1,1.3-6.8C42.564,40.7,42.464,40.6,42.264,40.4z M41.264,41.6c-0.3,0.5-0.4,1.1-0.3,1.8c-1.1,0.9-1.8,0.8-2.3-0.2
			c0.4-0.5,0.6-0.9,0.6-1.2c0.5-0.3,0.9-0.5,1.4-0.7C40.964,41.1,41.064,41.2,41.264,41.6L41.264,41.6z"/>
		<path style="fill:#BE3689;" d="M47.464,40.9c-0.8,0-1.5,0-2.3-0.1c-0.7,0.4-1.3,1.1-1.7,2c-0.3,0.6-0.5,1.2-0.5,1.9
			c0.1,0.8,0.4,1.6,0.7,2.4c0.2,0.3,0.4,0.6,0.6,1c0.4,0.4,0.9,0.8,1.4,1.1c0.2,0.1,0.4,0.2,0.6,0.4c0.9,0,1.8,0,2.7,0
			c0.2-0.3,0.5-0.5,0.8-0.8c0.2-0.1,0.4-0.2,0.5-0.4c0.1-0.1,0.1-0.2,0.1-0.3c0.2-0.7,0.3-1.3,0.5-1.9c0.1-0.1,0.1-0.2,0.1-0.4
			c0-0.1-0.1-0.2-0.1-0.3c-0.4-0.4-0.6-1-0.6-1.6c0-0.1,0-0.2-0.1-0.3c-0.5-0.5-1-1-1.4-1.6C48.364,41.6,47.964,41.2,47.464,40.9z
			 M47.464,43.9c-0.3,1.3-1.1,1.6-2.4,1c-0.1-0.1-0.1-0.2,0-0.3c0.3-0.7,0.7-1.3,1.2-1.9c0.2-0.1,0.3-0.1,0.4,0
			C47.264,43,47.564,43.4,47.464,43.9z"/>
		<path style="fill:#BE3689;" d="M25.664,43.8c-0.1,0.1-0.2,0.2-0.2,0.3c-1.8,1.7-3.3,3.5-4.7,5.5c0.2,0,0.2,0.1,0.3,0.1
			C23.564,47.6,25.064,45.6,25.664,43.8z"/>
		<path style="fill:#BE3689;" d="M22.664,43.8c-0.1,0.1-0.2,0.2-0.2,0.3c-1.9,1.5-3.3,3.4-4,5.6c0.1-0.1,0.3-0.1,0.3-0.2
			C20.664,47.1,21.964,45.3,22.664,43.8z"/>
		<path style="fill:#BE3689;" d="M21.764,42.9c0,0,0,0-0.1,0.1c-1.9,1.4-3.7,3.1-5.4,5.1c0,0.2,0,0.5,0,0.7c0,0.6,0.1,1,0.4,1.4
			c0.1-0.2,0.2-0.4,0.2-0.6c0.2-0.7,0.4-1.4,0.7-1.9c0.2-0.1,0.4-0.2,0.5-0.3C19.564,46,20.764,44.5,21.764,42.9z"/>
		<path style="fill:#BE3689;" d="M23.764,51.8c-0.5,2.7,0.8,4.9,4,6.8c11.4,6.7,22.2,6.3,32.4-1.1c0-0.2,0.1-0.3,0.2-0.4
			c1.2-1.5,1.9-3.1,2.1-4.9c-3,4.8-7.4,7.8-13.4,9C37.564,63.8,29.164,60.6,23.764,51.8z"/>
		<path style="fill:#BE3689;" d="M65.264,45.4c-0.1,0-0.1,0-0.1,0.1c-2.6,2-4,3.8-4,5.4c0,0,0.2-0.1,0.3-0.2
			C63.164,49.1,64.464,47.4,65.264,45.4z"/>
		<path style="fill:#BE3689;" d="M67.164,46.8c-0.1,0.3-0.4,0.5-0.7,0.7c-1.3,1.1-2.3,2.2-3.2,3.3l0.1,0.2
			C65.664,49.7,67.064,48.3,67.164,46.8z"/>
		<path style="fill:#BE3689;" d="M58.464,50.8c0.2,0,0.4,0,0.6-0.2c1.3-1.5,2.4-3.1,3.2-4.7c-0.2,0-0.4,0-0.4,0.1
			C60.164,47.4,59.064,49,58.464,50.8z"/>
		<path style="fill:#BE3689;" d="M37.964,64.7h-0.2c0.6,2.5,3.2,2.9,7.7,1.2l0.1-0.1C42.864,66,40.364,65.6,37.964,64.7z"/>
		<path style="fill:#BE3689;" d="M2.264,14.6c-0.7,0.6-1.2,1.3-1.7,2.1c-0.6,1.1-0.7,2.4-0.4,3.7c2.2,3.3,5.2,5,9,5.2
			c0.5-0.5,1-1,1.5-1.5c2.4-2.2,3.3-5,2.6-8.3c0-0.1-0.2-0.2-0.2-0.3c-1-1.3-2.3-1.8-3.9-1.7c-0.6,0.2-1.2,0.6-1.7,1
			c-0.3,0.2-0.5,0.4-0.8,0.6c-0.1,0-0.2-0.1-0.3-0.1c-0.2-0.1-0.4-0.2-0.5-0.4c-0.2-0.1-0.3-0.2-0.4-0.3
			C4.364,14.6,3.364,14.6,2.264,14.6z M9.764,15.6c0.8,0.1,1.5,0.5,2,1.1c0.2,0.4,0.2,0.7,0.2,1.1c-0.3,2.7-1.6,4.8-3.9,6.4
			c-3.3-0.7-5.6-2.5-6.8-5.3c0.2-0.2,0.3-0.5,0.3-0.7c0.1-0.8,0.5-1.4,1.1-1.9c1-0.7,1.9-0.6,2.9,0.1c0,0.4,0,0.8-0.1,1.2
			c-0.2,0.5,0,0.8,0.3,1.1c0.3-0.1,0.5-0.1,0.6-0.3c0.8-1.3,1.9-2.2,3.3-2.8C9.764,15.6,9.764,15.6,9.764,15.6z"/>
		<path style="fill:#BE3689;" d="M8.964,23.3c-0.1-0.1-0.2-0.2-0.2-0.2c-2.7-0.9-4.8-2.3-6.6-4.3c-0.1,0.1-0.2,0.2-0.1,0.3
			c0.3,0.5,0.6,1,0.9,1.6c0.2,0.1,0.4,0.2,0.7,0.4c0.8,0.4,1.6,1,2.3,1.6C7.064,23.4,8.064,23.7,8.964,23.3z"/>
	</g>
</g>
</svg>
