<?xml version="1.0" encoding="iso-8859-1"?>
<!-- Generator: Adobe Illustrator 12.0.1, SVG Export Plug-In . SVG Version: 6.00 Build 51448)  -->
<!DOCTYPE svg PUBLIC "-//W3C//DTD SVG 1.1//EN" "http://www.w3.org/Graphics/SVG/1.1/DTD/svg11.dtd" [
	<!ENTITY ns_svg "http://www.w3.org/2000/svg">
	<!ENTITY ns_xlink "http://www.w3.org/1999/xlink">
]>
<svg  version="1.1" id="Layer_1" xmlns="&ns_svg;" xmlns:xlink="&ns_xlink;" width="88.117" height="95.008"
	 viewBox="0 0 88.117 95.008" style="overflow:visible;enable-background:new 0 0 88.117 95.008;" xml:space="preserve">
<g>
	<g>
		<path style="fill:#BE3689;" d="M86.617,60.508c-0.1-0.1-0.2-0.2-0.2-0.2c-0.9,0.3-1.9,0.5-2.8,0.6c-0.2-0.2-0.3-0.3-0.4-0.4
			s-0.2-0.2-0.4-0.4c-0.3,0-0.7-0.1-1.1-0.1c-0.2,0.2-0.5,0.5-0.9,0.7c-0.5,0.4-1.1,0.6-1.7,0.7c-0.3-1-1-1.2-2.1-0.7
			c-0.1,0.1-0.2,0.2-0.2,0.2c-0.8,0.4-1.4,0.9-1.8,1.6c0.3,0,0.6-0.1,0.7-0.2c1.2-1.2,2.2-1.2,3.3-0.2c0.2,0.1,0.4,0,0.6,0
			c0.9-0.3,1.8-0.8,2.6-1.2c0.1,0.1,0.2,0.2,0.4,0.3c0.1,0.2,0.2,0.3,0.4,0.4C84.817,62.208,86.017,61.808,86.617,60.508z"/>
		<path style="fill:#BE3689;" d="M83.517,51.108c-0.6,0.7-1.4,0.8-2.3,0.4c-0.5,0.2-1,0.5-1.4,0.9c-0.2,0.7-0.5,1.3-1,1.8
			c-0.7,0-1.5,0-2.3-0.1c-0.8,0.9-1.3,1.8-1.7,2.9c-1.5,0.2-1.6,0.6-0.1,1.1c0.1,0,0.2-0.1,0.2-0.1c0.7-1,1.4-2.1,2.2-3.1
			c1,0.7,1.8,0.7,2.5-0.2c0.2-0.9,0.7-1.6,1.5-2.2c0.7,0,1.5,0.1,2.4,0.1c0-0.1,0.1-0.1,0.1-0.2c0.9-0.8,1.1-1.7,0.7-2.7
			c-0.1,0-0.2,0-0.2,0.1C84.017,50.308,83.817,50.708,83.517,51.108z"/>
		<path style="fill:#BE3689;" d="M80.717,66.408c-0.9-0.1-1.9-0.4-2.9-0.5c0-0.1-0.1-0.4-0.1-0.5c-0.1-0.1-0.2-0.3-0.2-0.4
			c-0.5-0.1-0.9-0.1-1.3-0.1l0,0c-0.1,0.1-0.2,0.1-0.3,0.2c-0.1,0-0.2,0.2-0.3,0.2c-0.2,0.2-0.4,0.3-0.6,0.5v0.1
			c0.2,0.2,0.4,0.2,0.7,0.1c0.8-0.2,1.2,0.1,1,0.9c0.1,0.1,0.2,0.2,0.3,0.2c0.9,0.1,1.9,0.1,2.7,0c0,0.1,0,0.2,0.1,0.2v0.1
			c-0.2,0-0.4,0-0.6,0c-3,0.4-5.8,1.3-8.5,2.8c2.1-8.3,0.2-15.2-5.7-20.8c0-0.2,0-0.5-0.2-0.8c-0.1-0.3-0.1-0.5-0.1-0.7
			c0-0.3,0-0.4,0.2-0.5s0.5-0.2,0.8-0.3c0.1,0.4,0.2,0.9,0.4,1.3c0.3,1.1,1,2,1.8,2.7c0.2,0.2,0.3,0.3,0.4,0.4
			c4.5-0.6,6.7-3.1,6.7-7.5c0-1-0.1-2-0.3-3c-0.3-0.3-0.6-0.5-0.9-0.8c-0.1-0.1-0.2-0.2-0.3-0.3c-2-0.7-3.8-0.5-5.4,0.4
			c-0.2,0.2-0.4,0.3-0.7,0.3c-0.1,0-0.2,0-0.2,0c-0.1-0.1-0.2-0.1-0.3-0.2c-2.2-0.8-4.6-1-7-0.7c0-0.1,0-0.1,0-0.2
			c0,0-0.2,0-0.2,0.1c0.2-0.9,0.3-1.7,0.3-2.6c0,0,0,0,0.1,0c0-0.4,0-0.9,0-1.3h-0.1c-0.1,0-0.1-0.1-0.1-0.2c0.3,0.2,0.6,0.4,1,0.4
			c0.2,0.1,0.5,0.2,0.8,0.2c1.7-0.7,3-1.9,3.9-3.5c1.4-2.6,1.6-5.2,0.7-8c-0.1-0.1-0.2-0.2-0.4-0.2c-1.7-0.1-3.4-0.2-5.2-0.3
			c-0.9,0.5-1.9,0.9-2.9,1.4c-0.7-0.3-1.5-0.5-2.3-0.6c-0.1,0-0.2,0-0.3,0c-1.1,0-2,0-2.9,0.3c0-0.1,0-0.1-0.1-0.1
			c-0.9,0.4-1.9,0.8-2.7,1.2c-4.4,2.1-6.5,4.6-6.4,7.8c-0.3-0.2-0.5-0.5-0.7-0.7s-1.2-1-3.2-2.5c-2-1.4-5.3-2.9-10-4.5
			c-0.5-0.5-1-1-1.6-1.3c-0.6-0.4-1.1-0.8-1.6-1.4c-1,0-1.9,0-2.8-0.1c-2,1.8-2.8,4.1-2.3,7.2c0.2,2.1,1.2,3.8,2.9,5.2
			c1.5,0.4,2.9,0.1,4-0.8c0,0,0,0,0.1,0c0.1,0.9-0.1,2-0.2,3.2c-5.5,1.5-10.9,2.4-16.4,2.8c-0.5,1.4-0.4,2.9,0.2,4.4
			c1.5,4.2,4.5,5.9,8.8,5.1c0.6-0.4,1-1,1-1.8c0.1-0.5,0.1-1,0.1-1.5c0-0.8,0-1.5,0.1-2.3c1.8-1,3.9-1.7,6.1-1.9v0.1
			c-0.4,0.2-0.7,0.5-1.1,0.7c-0.5,0.8-1.2,1.4-2,1.9c-0.3,0.3-0.6,0.6-0.9,1l0,0c-0.4,0.5-0.8,1-1.1,1.5c-3.4,3.7-5.9,8.2-7.3,13.4
			c-0.8,3.3-1.1,6.3-0.6,8.9c-3.8-2.1-7.9-3.6-12.4-4.6c-2.8,4.2-3,8.9-0.3,14c2.5,5,6,8.6,10.2,10.7c-0.2,0.1-0.5,0.1-0.8,0.2
			c-2.1,0.3-3.9,1.1-5.3,2.5c0.2,0,0.4,0,0.6-0.1c1.8-1,3.8-1.8,6-2.4c0.6,0.3,1.3,0.6,2,0.8c-1.1,0.4-2,1.1-2.8,1.9
			c0.3,0.5,0.7,0.5,1.5,0.1c0.6-0.4,1.3-0.8,1.9-1.3c0.4-0.1,0.7-0.1,1.1-0.2c1.1,0.2,2.3,0.5,3.6,0.6c-0.8,0.4-1.4,0.8-1.9,1.3
			c0.1,0,0.3,0,0.5,0c1.4-0.3,2.7-0.7,4.1-1.1c0.6,0,1.3,0,2.1-0.1c-0.3,0.2-0.6,0.4-0.9,0.6l0.1,0.2c0.6-0.3,1.3-0.6,2-0.9
			c0.2,0,0.5,0,0.7-0.1c1.7-0.2,3-0.8,3.7-1.8c2.8-1.2,5.6-2.3,8.5-3.3c0.2,0.1,0.4,0.2,0.5,0.4c-3.5,1.4-6.6,3.2-9.5,5.5v0.2
			c3.7-1.6,7.4-3.2,10.9-4.9c0.4,0.2,0.8,0.3,1.2,0.5c-2.8,1-5.1,2.6-6.9,4.7c1.2-0.3,2.5-0.7,3.8-1.2c2.7-1.1,4.8-2.1,6.2-3.2
			c2-0.1,4-0.9,6.2-2.3c-0.1-0.2-0.1-0.2-0.2-0.2c-0.2,0.1-0.5,0.2-0.7,0.3c-0.1-0.1-0.1-0.1-0.1-0.2c0.5-0.1,1-0.2,1.5-0.2
			c0.3-0.2,0.7-0.3,1-0.5c0.1,0,0.2,0,0.2,0c0.9-0.4,1.8-0.7,2.7-0.9c-0.2,1.4-0.1,3,0.3,4.6c-3.1,0.8-5.4,2.3-6.9,4.7
			c0.2-0.1,0.4-0.3,0.7-0.4c1.9-1.6,4-2.8,6.4-3.6c0.2,0.6,0.4,1.3,0.7,2c0.2,0,0.3,0.1,0.4,0.1c-0.6,0.4-1.1,0.9-1.5,1.5v0.2
			c1.5-0.1,2.6-0.5,3.5-1.1c3.3,0.8,6.7,0.6,10.2-0.5c-0.5,0.2-1,0.5-1.4,0.8c0.7,0.1,1.5,0.2,2.2,0.2c0,0,0.2,0,0.3-0.1
			c3.8-1.8,7.4-3.8,10.8-5.9c0,0,0,0-0.1,0.1c-1.5,0.4-3.1,1-4.6,1.5c6.4-4,10.2-9.9,11.5-17.7c-0.1-0.1-0.1-0.2-0.2-0.3
			c-1.6-2.6-3.8-4-6.7-4.3C81.017,67.108,80.817,66.808,80.717,66.408z M79.817,69.608c0.3,0.1,0.6,0.1,0.9,0.1
			c3,0.2,4.8,1.6,5.6,4.3c-0.3,2-1.1,4-2.3,5.7c-6.5,9.6-15.3,13.5-26.4,11.5c-0.2-0.1-0.4-0.4-0.5-0.6c0.1,0,0.2,0,0.4-0.1
			c-0.1-0.1-0.1-0.1-0.2-0.2c-0.1,0-0.3,0-0.5-0.1c-0.3-0.6-0.4-1.2-0.2-1.9c0.1-0.9,0.2-1.8,0.4-2.7c0.4-0.6,0.8-1.3,1.2-1.9
			c2.9-5,7-8.6,12.5-10.6c0,0,0,0,0.1-0.1C73.517,71.208,76.517,70.108,79.817,69.608z M53.717,28.908c-0.6-0.1-1.3-0.2-2-0.2
			c-1.4,0.6-2.7,1.4-3.7,2.7c-1,1.1-1.6,2.2-1.9,3.5c-0.4,0.1-0.7,0.2-1,0.3c0,0.1,0,0.2,0,0.3s0,0.2,0.1,0.3
			c-0.4-0.2-0.8-0.3-1.1-0.4c-0.1-0.1-0.1-0.2-0.2-0.2c0-0.3,0-0.5,0-0.7c-0.1-0.1-0.1-0.2-0.1-0.4c1-1.3,1.9-2.7,2.8-4.1
			c0.1-0.1,0.2-0.2,0.4-0.4c1-0.6,2-1.2,2.9-2c0.2-0.1,0.3-0.2,0.4-0.4c0.8-0.1,1.6-0.2,2.4-0.2c1.5-0.1,2.8-0.1,4.2-0.2
			c0.1,0.1,0.3,0.1,0.4,0.1c0.3,0.2,0.5,0.5,0.8,0.7c0.2,0.3,0.5,0.5,0.7,0.8c0.4,0,0.8,0,1.1-0.2c0.2,0,0.3-0.1,0.3-0.2
			s0-0.2,0-0.4c-0.1-0.1-0.2-0.2-0.3-0.4c-0.2-0.1-0.3-0.3-0.5-0.5c2.2-1.7,4.1-1.6,5.9,0.3c0,1.1,0,2.1,0,3.1
			c-0.1,0.9-1.4,2.4-4.1,4.5c-0.6-0.9-1.1-1.2-1.6-1.1c-0.2-0.7-0.4-1.5-0.8-2.3c-0.1-0.1-0.2-0.1-0.4-0.2c-0.2,0-0.4,0-0.6-0.1
			c-0.2-0.3-0.5-0.5-0.7-0.8c-0.3-0.2-0.5-0.5-0.8-0.7c-0.1-0.2-0.2-0.3-0.3-0.4C55.217,28.908,54.517,28.908,53.717,28.908z
			 M40.217,35.208l-0.1,0.1c-2.8-2.9-6.3-4.5-10.4-4.6c-0.3,0.2-0.5,0.3-0.8,0.5c-0.1,0.2-0.2,0.3-0.3,0.5c-0.8,0.2-1.3,0.7-1.6,1.4
			c-0.4,0.9-1.2,1.4-2.3,1.3c-0.3-0.4-0.7-0.8-1-1.2c-0.9-1.2-1.4-2.6-1.3-4.1c0-1.2,0.4-2.3,1.1-3.4c0-0.1,0.1-0.1,0.2-0.2
			c0.5-0.1,1-0.1,1.5-0.1c0.7,0.5,1.3,1,2,1.5c0.1,0.2,0.4,0.4,0.5,0.5l0,0c-0.5,0.2-0.9,0.5-1.2,1c-0.1,0-0.1,0.1,0,0.2
			c0.2,0.1,0.5,0.1,0.7,0.2c1.8,0.1,3.5,0.1,5.1,0.2c1.2,0.4,2.2,0.9,3.3,1.6c2.2,1.4,4.1,2.6,5.8,3.5c0.2,0.5,0.5,0.9,0.9,1.1
			c-0.3,0-0.6-0.1-0.8-0.2c-0.2,0-0.3,0-0.5,0v-0.1c-0.2-0.2-0.5-0.3-0.8-0.4c0,0,0,0,0.1,0.1
			C40.117,34.908,40.117,35.108,40.217,35.208z M43.417,36.908c0.5,0.3,1,0.6,1.6,0.8c0,0.4,0,0.8,0,1.2c0.1,0.5,0,1-0.3,1.5
			c-0.1,0.1-0.2,0.2-0.2,0.3v0.1c-1-0.1-1.9-0.2-2.9-0.2c-0.1,0-0.4-0.1-0.6-0.2v-0.2c0-0.3,0-0.7,0-1.1c0-0.5,0-1,0-1.5
			c0-0.1,0-0.2,0-0.4C41.317,36.208,42.117,36.108,43.417,36.908z M39.517,40.708c-0.1,0-0.2,0-0.3,0c-0.1,0.1-0.2,0.1-0.2,0.1
			c0.2,0.1,0.4,0.2,0.6,0.3c0.1,0.4,0.2,0.8,0.2,1.1c0,0.2,0,0.3,0,0.4c-1.7,1.4-3.7,2.3-5.8,2.9c-1-0.5-1.9-1.1-2.7-1.9
			c-0.1,0-0.2,0-0.3,0c-0.1-0.1-0.2-0.1-0.3-0.2c-0.1,0-0.2-0.1-0.4-0.3c-1.1-1.9-1.6-4-1.5-6.4c0-1.3,0.3-2.7,0.9-3.9
			c0-0.1,0.1-0.2,0.1-0.3s0-0.1,0-0.1c0.8-0.1,1.5-0.2,2.3-0.3c1.4,0.7,2.7,1.5,4,2.5c1.3,1,2.5,1.6,3.5,1.6
			c-0.2,0.5-0.3,1.1-0.4,1.8c-1.7-1.5-3.9-2-6.5-1.6l-0.4,0.1c1.9,0.6,3.7,1.2,5.6,1.8c-0.3-0.1-0.7,0-1.2,0.1
			c-0.7,0.3-1.4,0.8-2.1,1.3c-0.1,0.1-0.2,0.3-0.3,0.5l0.1,0.2c1.7-0.7,3.4-1,4.9-0.8C39.417,40.008,39.417,40.408,39.517,40.708z
			 M35.417,47.308c3-0.9,4.9-2.4,5.7-4.3c2-0.4,4-0.5,5.9-0.1c-0.1-0.1-0.1-0.1-0.2-0.2v-0.1c1.5,2.3,3.9,3.8,7.3,4.4
			c0.1-0.1,0.2-0.2,0.3-0.2c0.2-0.2,0.4-0.3,0.5-0.4c0.1,0,0.1,0,0.1,0.1c0.5-0.4,1-0.8,1.5-1.1c2.7,1.6,5.4,3.7,8.1,6.4
			c4.3,4.3,6.1,9.2,5.3,14.8c-0.2,1.6-0.7,3.3-1.3,4.9c-1.9,1.1-3.8,2.4-5.6,3.6c-4,2.9-6.4,6-7.2,9.5c-1.1,0.4-2.2,0.8-3.3,1
			c-0.1,0.1-0.2,0.1-0.3,0.1c-4,1-8.6,1-13.9,0.2c-2.7-0.4-5.1-1-7.5-1.8c-0.6-0.4-1.3-0.6-2.1-0.7l-0.2,0.1c-0.1,0-0.1-0.2-0.2-0.2
			c-0.2-0.5-0.5-0.9-0.6-1.4c-0.1-0.2-0.2-0.3-0.4-0.4c-3.4-4.2-7.2-7.5-11.5-10.1c-0.2-0.9-0.2-1.9-0.1-2.9
			c0.8-9.8,4.6-17.4,11.4-22.9h0.1c0,0,0,0-0.1,0c0.1-0.1,0.2-0.2,0.2-0.2c0.9-0.5,1.7-0.9,2.5-1.3c0,0.1,0.2,0.1,0.2,0.2
			c-0.3,0.1-0.6,0.3-0.8,0.5c0.5,0.5,1.1,0.9,1.6,1.4c0.1-0.1,0.2-0.1,0.3-0.2c1,0.9,2.2,1.4,4,1.5
			C35.217,47.408,35.317,47.408,35.417,47.308z M50.517,40.908c0.8,0.5,1.5,0.5,2.1-0.2c0.1-0.6-0.3-1-1.2-1.1
			c-0.8-0.1-1.4-0.5-1.9-1.1c-0.5,0-0.9,0-1.3-0.1c1.6-0.6,3.2-1,4.8-1.2c-0.1-0.1-0.2-0.2-0.3-0.2c-0.7-0.3-1.3-0.5-2-0.6
			c-0.1,0-0.3,0.1-0.5,0.1c-1.6,0.1-2.8,0.7-3.4,1.9c0,0,0,0-0.1,0c0,0-0.1,0-0.2,0.1c-0.1-0.4-0.1-0.8-0.1-1.2c0.1,0,0.1,0,0.1-0.1
			c0.5-0.2,1-0.7,1.3-1.3c3-2,6.4-3.2,10.3-3.3c0.1,0.8,0.2,1.5,0.3,2.3c0.2,2.7-0.3,5.2-1.5,7.6c-0.6,0.5-1.2,1-1.9,1.5
			c0.1,0,0.2,0.1,0.2,0.1c0,0.1-0.1,0.1-0.1,0.2c-0.8,0.1-1.6,0.3-2.4,0.7c-0.3-0.1-0.6-0.2-0.9-0.4c-2.1-0.9-3.9-2.3-5.3-4.1
			c-0.1,0-0.1,0-0.1,0c0-0.5,0-0.9,0-1.4c0.8,0.2,1.6,0.3,2.3,0.4C49.317,40.008,49.917,40.508,50.517,40.908z M56.117,30.808
			c-0.1-0.1-0.2-0.1-0.4-0.1c-2.7,0.4-5,1.3-6.7,2.8c1.6-2.4,3.9-3.4,7-3C56.017,30.608,56.117,30.708,56.117,30.808z
			 M58.817,42.208h0.1c1.2-1.4,3.6-1.6,7.2-0.5c0.4,0.2,0.9,0.3,1.5,0.4c0,0.1,0.1,0.1,0.1,0.1c0,0.1,0.2,0.2,0.3,0.3
			c0.1,0.1,0.2,0.2,0.3,0.4c0.4,0,0.7,0.1,1,0.1c0.3,0.1,0.5,0,0.7-0.1c0.1-0.1,0.2-0.1,0.2-0.3c0-0.1-0.1-0.2-0.2-0.3
			c-0.3-0.2-0.6-0.5-0.8-0.7c1.2-0.1,2.5-0.1,3.8-0.1c0.5,0.7,0.8,1.6,0.6,2.6c-0.1,1.4-0.6,2.6-1.5,3.7c-0.4,0.5-0.9,1.1-1.4,1.6
			c-0.5,0-1,0.1-1.4,0.1c-0.1,0.1-0.3,0-0.5,0c-0.1-0.1-0.2-0.3-0.3-0.4c-0.4-0.5-0.6-1-0.9-1.6c-0.1-0.3-0.2-0.6-0.4-1
			c0.1,0,0.1,0,0.2,0c0.5,0.2,1.1,0.3,1.7,0.4c-0.1-0.2-0.1-0.3-0.2-0.4c-0.5-0.7-1.2-1.3-2.1-1.8v-0.1c-0.5,0.1-1.4,0-2.7-0.2
			c-1.4-0.3-2.6-0.5-3.9-0.7c-1.2-0.2-1.9-0.3-1.9-0.3c0-0.1,0.1-0.2,0.1-0.3c0.1,0,0.2,0.1,0.3,0.2c0.1-0.2,0.2-0.3,0.4-0.5
			c-0.2,0-0.3-0.1-0.5-0.1c0-0.1,0-0.1,0-0.1C58.717,42.508,58.817,42.308,58.817,42.208z M62.217,47.108c-0.2-0.2-0.4-0.5-0.6-0.8
			c0,0,0,0,0.1,0c-0.5-0.3-0.9-0.6-1.2-0.8c0.7,0,1.5,0,2.4-0.1c0.9-0.1,1.7,0.1,2.3,0.5c-0.3,0-0.6,0-1,0c-0.5,0.1-0.6,0.4-0.6,1
			c0.1,0.4,0.1,0.9,0.1,1.3C63.217,47.808,62.717,47.508,62.217,47.108z M13.217,46.208c-0.6-1.1-0.9-2.2-0.7-3.5
			c2.2-0.3,4.6-0.4,7.2-0.3c0.1-0.2,0.2-0.3,0.3-0.4c0.2-0.2,0.5-0.5,0.7-0.8c0.4,0,0.7-0.1,1-0.1c2.9-0.3,4.8-0.8,5.6-1.3
			c0,0.1,0,0.2,0,0.3c0,0.1,0,0.2,0,0.3c0.2,0.6,0.4,1.2,0.7,1.7c-3.1-0.7-5.7-0.1-7.6,2c0-0.1-0.1-0.1-0.2-0.1v0.1
			c-1.3,0.2-2.1,1-2.4,2.3c0.2,0,0.3,0.1,0.3,0c0.6-0.2,1.1-0.4,1.5-0.6c0.2,0.4,0.2,0.9,0.2,1.3c0,0.2-0.1,0.3-0.2,0.4
			c-0.1,0.5-0.2,1-0.1,1.5c-0.8,0.1-1.5,0.3-2.2,0.5c-0.2-0.1-0.4-0.2-0.6-0.3C15.217,48.508,14.017,47.508,13.217,46.208z
			 M2.017,68.608c0.1-0.1,0.2-0.2,0.3-0.4c0.2-0.1,0.3-0.2,0.4-0.3c12.3,3,21.2,10.1,26.8,21.3c-0.3,0.5-0.5,0.9-0.8,1.3
			c-0.7,0.3-1.4,0.7-1.9,1.1c-1.4,0.1-2.7,0.1-4,0c-12.3-1-19.4-7.4-21.5-19.2c0-0.2,0-0.3,0.1-0.4
			C1.517,70.808,1.717,69.708,2.017,68.608z M28.817,84.008c0.4,0.4,0.7,0.7,1,0.9c0,0.2,0,0.3,0,0.4c0.4,0.1,0.7,0.2,1,0.3
			c1.4,0.2,2.8,0.6,4.1,1.2c0.1,0,0.2,0,0.2,0.1l0,0c0.2,0.1,0.4,0.2,0.6,0.3c0-0.1,0-0.2,0-0.2c0.5,0.1,0.9,0.2,1.4,0.2
			c-2.2,0.6-4.3,1.3-6.3,2.2c0.1-0.6,0.1-1.2,0-1.9c-0.4-0.3-0.7-0.7-0.9-1.1C29.617,85.608,29.317,84.808,28.817,84.008z
			 M42.617,88.108c0.1-0.1,0.3-0.2,0.5-0.3c2,0.1,4-0.1,6.1-0.3c0,0,0,0.1,0,0.3c-0.8,0.2-1.7,0.3-2.5,0.4c0,0,0,0,0-0.1
			c0,0.1-0.1,0.1-0.1,0.1C45.217,88.308,43.917,88.308,42.617,88.108z"/>
		<path style="fill:#BE3689;" d="M32.117,50.208c-0.3,0.1-0.3,0.1-0.4,0.2c-0.5,0.8-0.5,1.5-0.1,2.2c0.4,0.4,0.9,0.8,1.4,1
			c-0.2,0.1-0.3,0.2-0.5,0.3c-1,0-1.8-0.5-2.5-1.5c-0.4-0.1-0.7,0-0.7,0.4c-0.1,0.9,0.4,1.5,1.4,1.9c0.2,0.1,0.4,0.2,0.6,0.2
			c-4.8,4.4-5.1,9.3-0.8,14.5c4.6,1.7,8.8,1.3,12.7-1.4c2.3,2.5,5.3,3.2,8.9,2.2c5.6-1.6,7.6-5.1,6.3-10.5c-0.2-0.1-0.2-0.3-0.3-0.4
			c-0.7-1.6-1.6-2.9-2.7-4c0.2,0,0.4-0.1,0.6-0.2c0.1-0.1,0.3-0.2,0.4-0.3c1-0.8,1.2-1.7,0.6-2.6h-0.1c-0.7,1-1.7,1.6-2.9,2
			c-0.3-0.3-0.7-0.5-1-0.7c0.4-0.4,0.9-0.8,1.4-1.3c0-0.1,0-0.2,0-0.4c0.1-0.6,0.1-1.3-0.3-1.8h-0.2c-0.4,1.7-1.3,2.6-2.6,2.7
			c-0.1,0-0.1,0-0.1,0c0-0.1,0-0.1,0.1-0.2c0.6-1.1,0.8-2.2,0.6-3.4c-0.9,0.5-1.6,1.5-2,3.1c-0.1,0-0.1,0-0.1,0.1
			c-1-0.2-1.9-0.3-2.9-0.4c-0.3,0.1-0.7,0.3-1.1,0.4c-0.8,0.4-1.4,0.9-1.8,1.7c-0.1,0.1-0.1,0.1-0.2,0.2c-2-2.1-4.1-3-6.4-2.7
			c-0.4-0.3-1-0.6-1.9-0.7c0-0.2,0-0.3,0.1-0.4c0.2-0.7,0.1-1.2-0.3-1.6c-0.3-0.1-0.6,0-0.7,0.3c-0.3,0.9-0.2,1.8,0.1,2.6
			c0.2,0.2,0.4,0.3,0.6,0.5c-0.3,0.1-0.7,0.3-1,0.5c-0.7-0.2-1.3-0.6-2-0.9c0-0.2,0-0.3,0-0.4
			C32.417,51.008,32.317,50.608,32.117,50.208z M28.717,62.308c0-0.1,0-0.2,0-0.3c0.1,0,0.1,0,0.2,0c5.9-0.9,10.9-2.7,15.3-5.3
			c0.7,0.8,1.4,1.6,2.2,2.3c-0.3,0-0.7,0.1-1.2,0.2c-0.6,0.3-1,0.8-1.1,1.6c-0.1,0.5,0,1,0.5,1.2c0.5,0.1,1.1,0.3,1.6,0.4
			c0.7,0.2,1.2,0,1.5-0.4c0.5-0.2,0.7-0.6,0.6-1.1c0-0.2,0-0.3-0.1-0.4c0-0.1-0.1-0.1-0.1-0.1c2.6,1.9,5.5,3.2,8.8,3.9
			c-0.4,2-1.7,3.5-4.1,4.5c-3.9,0.9-7.1-0.1-9.5-3.1c-7.3,5.2-12.2,4.2-14.7-3.1C28.617,62.508,28.617,62.408,28.717,62.308z
			 M56.917,62.408c0.1,0.5,0.1,0.9,0,1.3c-4.3-2.1-8.2-4.6-11.9-7.4c0.2-0.3,0.3-0.5,0.5-0.8c0.2-0.6,0.5-1.1,0.8-1.5
			c4.9-0.3,8.4,1.8,10.4,6.5C56.817,61.108,56.917,61.808,56.917,62.408z M39.617,52.808c0.2,0.2,0.4,0.3,0.6,0.5
			c1.1,1,2.2,1.9,3.1,2.6c0.1,0,0.1,0,0.2,0c0,0.1,0,0.1,0.1,0.1c0.1,0.1,0.2,0.2,0.3,0.4c-0.1-0.1-0.1-0.1-0.2-0.1
			c-0.5,0-1-0.1-1.5-0.1c0,0.1,0,0.1,0,0.1c-4.9,1.7-9.4,3.5-13.4,5.3c1.3-4.3,4.2-7.3,9-8.8
			C38.417,52.808,39.017,52.808,39.617,52.808z"/>
		<path style="fill:#BE3689;" d="M43.317,60.508c0-0.1-0.1-0.2-0.1-0.4c-0.5-0.9-1.3-1.2-2.5-0.9c-0.3,0.2-0.6,0.4-0.7,0.9
			c-0.6,1.5,0,2.3,1.7,2.4c0.6-0.1,1-0.4,1.3-0.9C43.217,61.208,43.317,60.908,43.317,60.508z"/>
		<path style="fill:#BE3689;" d="M31.817,79.108c0.3-0.1,0.6-0.2,0.9-0.2c0.5-0.1,0.9-0.2,1.4-0.2c0.2,0.2,0.4,0.3,0.6,0.4
			c1.5,1,3,1,4.5,0.3c0.5-0.5,1-0.8,1.7-1c1-0.3,2.1-0.5,3.2-0.7c0.7,0.5,1.4,0.9,2.1,1.4c0.2,0.2,0.4,0.3,0.6,0.4
			c0.5-0.1,1-0.1,1.4-0.1c1.1,0,2.1,0,3.1,0.1c0.2,0.1,0.3,0.2,0.4,0.4c0.9,0.8,1.8,1.1,2.9,1c0.1,0,0.2-0.1,0.4-0.2
			c0-0.2-0.1-0.4-0.2-0.5c-0.6-0.7-1.3-1.2-1.9-1.7c-0.4-0.3-0.7-0.5-0.9-0.8c-1.3,0-2.5,0-3.8,0c-0.9,0-1.8-0.4-2.5-1.1
			c-0.2-0.1-0.5-0.2-0.8-0.2c-1.2-0.2-2.4-0.2-3.7-0.3c0,0.1,0,0.1,0,0.1c-1,0.3-1.8,0.7-2.6,1.3c-0.1,0.1-0.3,0.2-0.4,0.4
			c-0.6,0-1.2,0-1.9,0.1c-0.6-0.5-1.3-0.8-2.1-0.8c-0.6,0-1.4,0-2,0c-0.2,0.2-0.4,0.3-0.6,0.4c-1.1,0.5-1.9,1.2-2.4,2
			c0,0,0,0.1,0,0.3c0.8,0.4,1.5,0.3,2.1-0.4C31.517,79.408,31.717,79.308,31.817,79.108z"/>
		<path style="fill:#BE3689;" d="M39.017,81.108c0.2,0.2,0.5,0.3,0.7,0.4c2.1,0.8,3.9,0.6,5.5-0.6c-0.1-0.2-0.2-0.2-0.3-0.3
			c-0.5-0.1-1.1-0.2-1.7-0.2l0,0C41.117,80.108,39.717,80.408,39.017,81.108z"/>
		<path style="fill:#BE3689;" d="M79.617,91.308c-0.8,0.3-1.3,0.9-1.6,1.7c0.7,0.1,1.3-0.1,1.9-0.5c1.4-1.2,3.1-1.8,5.1-2
			c-0.1-0.1-0.2-0.2-0.2-0.2c-0.7-0.2-1.4-0.3-2.1-0.3C81.717,90.308,80.617,90.708,79.617,91.308z"/>
		<path style="fill:#BE3689;" d="M56.817,8.508c-0.1-0.1-0.2-0.2-0.3-0.3c-4.1-6.1-10.1-8.8-17.8-8.1c-5.9-0.1-10,2.1-12.3,6.9
			c-1.3,2.8-1.2,5.4,0.4,8c2.7,4,6.3,6.5,10.8,7.3c0,1.2,0.5,2.2,1.4,2.9c2.9,0.7,4.8-0.3,5.7-2.8c0.1,0,0.2,0,0.2-0.1
			c-0.1,0-0.2,0-0.3,0c0.3-0.1,0.7-0.2,1.1-0.2C53.917,20.608,57.617,16.108,56.817,8.508z M38.717,22.608c0-0.1,0-0.1,0-0.2
			c1.5,0.2,3.1,0.2,4.8,0v0.1c-0.3,0.2-0.5,0.6-0.8,1.1c-1.2,0.7-2.4,0.7-3.5,0.1c0-0.1,0-0.2-0.1-0.3
			C39.017,23.108,38.817,22.808,38.717,22.608z M39.217,1.708c8.5-0.8,14.1,2.6,16.8,9.9c-0.4,1.8-1.2,3.3-2.6,4.5
			c-5.9,5.6-13.1,6.7-21.6,3.4c-1.6-1.1-2.8-2.3-3.8-3.7c-0.8-1.2-1.4-2.5-1.9-3.9c0-0.2,0-0.3,0.1-0.4
			C27.117,4.608,31.417,1.308,39.217,1.708z"/>
		<path style="fill:#BE3689;" d="M46.217,9.008c0.1-0.5,0.1-0.9,0.1-1.4c-0.1-0.5-0.1-1.1-0.2-1.6c0-0.1-0.1-0.2-0.2-0.3
			c0-0.2-0.1-0.3-0.2-0.3c-2.8-1.6-5.9-2.1-9.2-1.7c-1.9,0-3.8,0.4-5.7,1c-1.6,0.6-2.7,1.5-3.5,2.9c0,0.2,0,0.4,0.2,0.6
			c0.2,0.4,0.3,0.7,0.3,1.1c0,0.1,0.1,0.2,0.2,0.3c0.5,0.5,1,0.7,1.5,0.8c0,0,0,0,0.1,0.1c0,0.6,0,1.1,0,1.7
			c-0.1,0.6-0.2,1.1-0.4,1.7c-0.1,0.1-0.1,0.2-0.1,0.3c0,0.1,0.1,0.2,0.1,0.3c0.2,0.3,0.3,0.6,0.4,1c0,0.1,0,0.2,0,0.3
			c1.1,0.6,2.3,1.1,3.6,1.7c1.7,0.8,3.2,0.8,4.3,0c0-0.1,0-0.1,0-0.2c2.5-1,5-1.9,7.7-2.7c-0.9-1.1-1.6-2.3-2.1-3.6
			c0-0.2,0-0.2,0.1-0.3c0.5-0.3,0.7-0.8,0.7-1.2C44.617,9.308,45.417,9.108,46.217,9.008z M39.417,7.608c0-0.1,0-0.2-0.1-0.3
			c0-0.1-0.1-0.2-0.1-0.3c-0.2-0.1-0.3-0.2-0.4-0.4c-0.1-0.1-0.2-0.2-0.3-0.3c-0.2-0.1-0.3-0.2-0.4-0.3c-0.7-0.1-1.3-0.1-2,0
			c-0.1,0-0.3,0-0.5,0.1c-0.2,0-0.5,0-0.7,0.1c-0.1-0.1-0.2-0.1-0.4-0.1c-0.5-0.2-1-0.3-1.5-0.4c1.2-0.1,2.4-0.2,3.5-0.4
			c0.2,0,0.3,0,0.5-0.1c1.4,0,2.8-0.1,4.2-0.1c0.2,0.1,0.4,0.1,0.6,0.2c1.4,0.2,2.5,0.9,3.2,1.9c0.1,0.2,0.2,0.3,0.2,0.5
			c-0.1,0.2-0.1,0.2-0.1,0.2c-1.2,0.3-2.5,0.6-3.6,1.1c-1,0.3-1.5,0.2-1.7-0.4c-0.1-0.2-0.2-0.4-0.4-0.6
			C39.417,7.908,39.417,7.808,39.417,7.608z M38.117,8.608c-0.2,0.8-1.1,1.3-2.6,1.6c0,0.5,0,1.1,0,1.7c-0.2,1.8,0.1,3.4,0.8,4.9
			c-2.2-0.2-4.2-0.8-5.9-2c-0.2-0.4-0.2-0.9-0.2-1.3c0.1-1.6,0.3-3,0.3-4.3c-0.2-0.1-0.2-0.2-0.3-0.1c-1,0.1-1.5-0.1-1.5-0.8
			c-0.1-0.1-0.2-0.2-0.1-0.3c0.1-0.8,0.6-1.3,1.4-1.7c2.3,1,4.8,1.3,7.4,1.1c0.2,0.2,0.3,0.4,0.5,0.6
			C37.917,8.208,38.017,8.408,38.117,8.608z M38.617,11.008c1.4-0.5,2.8-0.9,4.2-1.2c-0.9,1.1-0.7,2.5,0.3,4
			c-2.4,0.6-4.3,1.6-5.7,2.9c-0.1-0.4-0.2-0.8-0.3-1.2c-0.5-1.1-0.6-2.4-0.4-3.6c0-0.2,0-0.3,0.1-0.4
			C37.417,11.408,38.017,11.208,38.617,11.008z"/>
		<path style="fill:#BE3689;" d="M51.217,5.708c-0.5-0.1-1-0.4-1.3-0.6c-0.4-0.1-0.7,0-0.8,0.4c-1.4,3.1-1.2,5.6,0.6,7.5
			c0.1-0.3,0.3-0.5,0.3-0.7c0.5-2.1,1-4.2,1.5-6.3C51.417,5.908,51.317,5.808,51.217,5.708z"/>
		<path style="fill:#BE3689;" d="M49.817,15.608c0.3-1,0-1.6-1-1.8c-0.2,0.1-0.3,0.1-0.4,0.2c-0.7,0.1-1.1,0.6-1.1,1.3
			c0.4,1.2,1.2,1.4,2.5,0.6C49.717,15.808,49.717,15.708,49.817,15.608z"/>
		<path style="fill:#BE3689;" d="M42.017,26.008c-0.3,0-0.5,0-0.8,0c-0.2,0.1-0.5,0.1-0.7,0.1c-0.1,0.1-0.2,0.2-0.3,0.3
			c-0.7,0.5-1,1.3-1,2.2c0.7,1.6,1.8,1.8,3.4,0.9c0.1-0.1,0.3-0.3,0.3-0.4c0.3-0.7,0.4-1.5,0.3-2.2c-0.1-0.2-0.2-0.3-0.3-0.3
			C42.617,26.408,42.317,26.108,42.017,26.008z M41.517,27.008c0.6,0.1,0.8,0.4,0.7,0.9c0,0.1,0,0.2-0.1,0.2
			c-1.9,0.8-2.3,0.4-1.1-1.1c0-0.1,0-0.1,0.1-0.1C41.217,26.908,41.417,26.908,41.517,27.008z"/>
		<path style="fill:#BE3689;" d="M1.517,93.008c0.3,0,0.6-0.1,0.8-0.2c1.9-1,3.9-1.7,6.2-2.3c-0.1-0.1-0.1-0.1-0.2-0.2
			c-0.5-0.1-1-0.1-1.6-0.2c-0.2,0.3-0.5,0.5-1,0.6C3.817,91.208,2.417,92.008,1.517,93.008z"/>
		<path style="fill:#BE3689;" d="M41.017,94.508c0.3,0,0.7-0.1,1-0.2c2.6-0.9,5.2-2,7.7-3c2-0.9,3.4-1.8,4.4-2.7
			c0.7-0.7,1.1-1.4,1.1-2.1c0,0.1,0,0.1,0,0.1c-0.6,0.2-1.2,0.5-1.8,0.8c-0.1,0-0.1,0-0.2,0
			C48.917,89.408,44.817,91.708,41.017,94.508z"/>
	</g>
</g>
</svg>
