<?xml version="1.0" encoding="iso-8859-1"?>
<!-- Generator: Adobe Illustrator 12.0.1, SVG Export Plug-In . SVG Version: 6.00 Build 51448)  -->
<!DOCTYPE svg PUBLIC "-//W3C//DTD SVG 1.1//EN" "http://www.w3.org/Graphics/SVG/1.1/DTD/svg11.dtd" [
	<!ENTITY ns_svg "http://www.w3.org/2000/svg">
	<!ENTITY ns_xlink "http://www.w3.org/1999/xlink">
]>
<svg  version="1.1" id="Layer_1" xmlns="&ns_svg;" xmlns:xlink="&ns_xlink;" width="82.8" height="72.831"
	 viewBox="0 0 82.8 72.831" style="overflow:visible;enable-background:new 0 0 82.8 72.831;" xml:space="preserve">
<g>
	<g>
		<path style="fill:#3172A1;" d="M80.5,68.9V69c-3.1,0.5-5.8,1.7-8.2,3.4c0.2,0.1,0.4,0.1,0.6,0c2.9-1.1,5.9-2.1,8.9-3
			c-0.1-0.1-0.2-0.1-0.2-0.2C81.2,69.1,80.9,69,80.5,68.9z"/>
		<path style="fill:#3172A1;" d="M80.1,68.5c0.1-0.1,0.2-0.2,0.3-0.2c0.2-0.2,0.5-0.4,0.7-0.7c0.6-0.1,1.1-0.1,1.7-0.2
			c-0.1-0.1-0.1-0.1-0.2-0.1c-0.3-0.1-0.7-0.1-1.1-0.2c0.3-0.3,0.4-0.7,0.5-1.1c-6.9-4.2-14.6-6.4-23-6.5c0-0.1,0-0.2,0-0.4
			c0.1-2.3-0.5-4.2-1.8-5.7c8.1-4.9,11.2-12.4,9.5-22.3c-0.4-2.4-1.2-4.5-2.2-6.5c0.2,0.2,0.5,0.5,0.8,0.8c-0.1-0.1-0.2-0.2-0.3-0.3
			c-0.4-0.7-0.9-1.4-1.5-2c-0.7-1.3-1.6-2.5-2.6-3.5c0.1-0.1,0.1-0.1,0.1-0.1c0-0.1-0.1-0.2-0.1-0.3c0.2,0.1,0.5,0.1,0.9,0.2
			c-0.3-0.3-0.5-0.5-0.8-0.7c-0.1-0.2-0.2-0.3-0.4-0.4c-0.1-0.1-0.3-0.1-0.6-0.1c-0.4-0.6-0.9-1.1-1.4-1.7c0.9-0.3,2.1-0.7,3.5-1.1
			c-0.2-0.5-0.6-0.9-1.1-1.2c-1.3-0.8-2.2-1.9-2.5-3.3c0.4-0.2,0.7-0.4,1-0.5c0.8-0.1,1.4-0.4,2-0.8c-0.2,0.9,0,1.7,0.4,2.4
			c0.1,0,0.1,0.1,0.1,0.3c0.5,0.6,1.2,0.6,2,0c3.5-2.4,5-5.8,4.6-10.2C68.5,2,68.4,2,68.2,1.9c-0.9-0.1-1.8-0.2-2.7-0.3
			c-0.6,0.4-1.2,0.8-1.8,1.5c-0.7,0.7-1.1,1.4-1.3,2.3l0,0C60,4.7,57.5,4.3,55,4.3c-0.1,0-0.3,0.1-0.5,0.1c-3.4,0.2-6,1.4-7.7,3.8
			c-0.6,0.8-1,1.6-1,2.4c-0.1,0-0.2-0.1-0.3-0.1c0,0.3,0.1,0.8,0.2,1.1c-3.3-1.2-6.8-1.7-10.4-1.3c-0.4,0.2-0.8,0.3-1.3,0.5
			c0-0.3,0-0.5-0.1-0.8c0-0.1,0-0.2,0-0.2c-0.1,0-0.2,0-0.2,0.1c-0.1-0.1-0.2-0.2-0.2-0.3C29.8,4.3,24.6,2.1,18,2.8
			c-0.2-0.5-0.5-1-1-1.5c-0.4-0.5-0.8-0.8-1.2-1.2c-0.8,0-1.5,0-2.3-0.1c-1.9,1.7-2.3,3.9-1.3,6.8c0.9,2.1,2.3,3.7,4.4,5
			c0.8,0,1.6,0,2.4,0c0.2,0,0.4-0.1,0.5-0.3c0.2-0.8,0.2-1.7,0.2-2.6c-0.1-0.4-0.1-0.8-0.1-1.1c0.2,0,0.4,0.2,0.5,0.3
			c0.2,0.3,0.3,0.5,0.5,0.7c0.4,0.5,0.6,1,0.4,1.6c0,0.1-0.1,0.2-0.2,0.4C20,11.7,19,12.6,18,13.4c0.6,0.8,1.1,1.3,1.6,1.4
			c-0.8,1.4-1.9,2.6-3.3,3.6c0.1,0.2,0.3,0.4,0.6,0.5c-4.3,4.4-6.5,10.2-6.8,17.5c0,2.1,0.2,4.2,0.7,6.1c1.5,5.2,4.2,9.1,8.3,11.8
			c-1,1.7-1.5,3.6-1.3,5.7c-6.2-0.5-11.6,1.1-16.3,4.7c0,0.2,0,0.3,0,0.4c-0.1,0.8,0,1.6,0.3,2.3c0,0.1,0,0.1,0.1,0.1
			C1.1,67.8,0.5,68.4,0,69c1.2,0.1,2.2-0.1,3.2-0.4C4.1,68.7,5,68.9,5.8,69c-1.3,0.5-2.6,1.2-3.7,2.1c0.1,0.2,0.1,0.2,0.1,0.2
			c2.2-0.5,4.3-1.1,6.6-1.9c1,0.1,2,0.2,2.9,0.3c-1.6,0.4-3.1,1-4.4,1.7c2.5-0.1,5.1-0.6,7.6-1.6c2,0,4-0.1,6.1-0.3
			c-2.3,0.8-4.5,1.5-6.7,2.4c0.2,0,0.4,0,0.7,0c8.4-1.9,16.7-4.1,24.8-6.5c1.6-0.1,3.2-0.2,4.8-0.5c-0.4,0.2-0.9,0.4-1.5,0.5
			c-5.7,1.3-11,3.2-16.1,5.6c6-1.1,12.4-2.8,19-5.2c1.5,0.7,3,1.3,4.5,1.9c-0.8-0.2-1.6-0.4-2.5-0.4c-0.5,0.3-1.1,0.5-2,0.7
			c-3.2,0.3-6.1,1.3-8.7,2.9c0.3,0,0.7-0.1,1.1-0.1c4.4-0.9,8.5-1.8,12.4-2.9c-0.1-0.1-0.1-0.1-0.2-0.2c0.9,0.3,1.7,0.6,2.6,0.8
			c-1.9,0.4-3.4,1.1-4.6,2.1c0.3,0.6,0.7,0.8,1.5,0.7c3.5-0.6,5.3-1.3,5.3-2.2c1.9,0.4,3.7,0.7,5.6,1C60.9,70,60.7,70,60.5,70
			c-0.9,0.3-2,0.6-3.2,0.9c-0.4,0.1-0.7,0.3-0.7,0.7c0.3,0.7,0.7,0.8,1.3,0.5c1.5-0.9,3.1-1.4,4.9-1.7c-0.1-0.1-0.1-0.1-0.2-0.1
			c-0.3-0.1-0.6-0.1-0.9-0.2c1.5,0.2,3.1,0.2,4.7,0.2c-1.4,0.7-2.5,1.4-3.6,2.2c0.5,0.4,1.1,0.4,1.7,0.2c2.1-0.9,4.4-1.8,6.6-2.6
			C74.1,69.8,77.1,69.3,80.1,68.5z M45.9,12.5h0.3c0.4,0,0.8,0,1.2,0c-0.1-0.1-0.1-0.2-0.2-0.2c-0.3-0.2-0.6-0.3-0.9-0.4
			c0.1-0.3,0.2-0.6,0.3-0.8V11c0.3-0.4,0.6-0.8,0.8-1.2C47.5,9.4,47.7,9,48,8.6c0.1-0.2,0.2-0.5,0.4-0.7c0.6-0.5,1.4-0.8,2.1-1
			c4.1-1.3,8.2-1.6,12.2-1.1c0.3,0.1,0.6,0,0.9-0.4C64.3,4.5,65,3.8,66,3.1c0.5,0,0.9,0.1,1.4,0.2v0.1c0.1,0.4,0.2,0.7,0.1,1.1
			c-0.3,3.5-1.9,5.6-4.7,6.4c-0.3-0.6-0.4-1.3-0.3-2.1l0,0l0,0c0-0.1,0-0.1,0-0.2c0-0.1,0-0.2,0-0.3c-4.7-2.4-9-1.7-13,1.8
			c0,0.7-0.1,1.4-0.4,1.9c-0.3,0.5-0.4,0.8-0.3,1.1c-0.2,0.1-0.1,0.3,0.2,0.7h0.1c-0.1,0.1-0.1,0.1-0.2,0.1C49,14,49.2,14,49.3,14
			c4.7,2.4,8.8,5.1,12.5,8.2c0,0.1,0,0.3,0.1,0.4l-0.2,0.2c2.4,3.4,3.7,7.9,3.7,13.3c0,4.3-1.5,7.9-4.5,11
			c-9.3,9.8-21.1,12.4-35.3,8c-3.9-1.2-7-3.4-9.5-6.5c-5.2-6.5-6.1-13.9-2.6-22c0.1-0.1,0.2-0.2,0.4-0.4c0.1-0.1,0.2-0.2,0.4-0.3
			c0-0.2,0.1-0.3,0.2-0.4c0-0.1,0-0.2,0-0.4c0-0.1,0-0.2,0.1-0.3c0-0.2,0.1-0.3,0.2-0.4c0.8-0.7,1.5-1.5,2.1-2.4
			c3-4.4,6.9-7.3,11.7-8.7v-0.1c0-0.3,0-0.6,0-0.8c0.1-0.1,0.2-0.1,0.3-0.3c-0.1,0-0.1-0.1-0.2-0.2c0-0.1,0-0.2,0-0.3
			c-0.1,0-0.1,0-0.2,0c0.1-0.5,0.1-1.1-0.2-1.7c-0.3-0.4-0.5-0.8-0.7-1.1c-0.1-0.2-0.2-0.3-0.4-0.4c-2-1.4-4.2-2.3-6.7-2.6l0,0
			C20.3,5.9,20.2,6,20,6.1c-0.4,0.2-0.8,0.4-1.2,0.7c0.2,0,0.4,0,0.7,0c-0.2,0-0.3,0.1-0.5,0.1c0,0,0,0-0.1,0.1
			c-0.1-0.1-0.3-0.1-0.4-0.1c-0.2-0.1-0.4,0-0.6,0.1c0.1,0.8,0.2,1.5,0.4,2.3c0,0.3,0.1,0.7,0.1,1.1c-2.1-0.4-3.6-1.6-4.5-3.6
			c-0.6-1.5-0.7-2.9-0.4-4.3c0-0.8,0.4-1.1,1.4-0.7c0.1,0,0.2,0,0.2,0.1c0.6,0.5,1.1,1.1,1.4,1.9c0.1,0.5,0.4,0.8,0.6,1.1
			c2.4-1,5-1,7.9,0c2.9,0.9,5.5,2.7,7.8,5.5c-0.2,0-0.4,0.1-0.5,0.2c0,0.1,0.1,0.2,0.1,0.2c-0.2,0-0.4,0-0.6,0.1
			c-0.2,0-0.3,0.1-0.5,0.3c-0.1,0.1-0.2,0.2-0.3,0.3c-0.1,0.1-0.1,0.3-0.1,0.4s0,0.2,0.1,0.4c0.2,0.1,0.4,0.2,0.5,0.2
			c0.2,0.1,0.3,0,0.4-0.1c0.1,0,0.2-0.1,0.3-0.1c0.2-0.2,0.3-0.3,0.6-0.3c0.8,0,1.6,0,2.5,0.1C39.4,12.3,42.9,12.4,45.9,12.5z
			 M50.5,11.3c0-0.2,0-0.3,0-0.4c3.1-2.6,6.3-3.4,9.4-2.3c-0.8,0.2-1.5,0.7-2.1,1.3c-0.3,0.4-0.4,0.7-0.4,1.1c0.1,0.5,0.1,1,0.1,1.5
			c0.2,0.2,0.3,0.3,0.5,0.4c0.3,0.5,0.8,0.9,1.2,1.3c-2.4-1-5-1.7-7.7-1.9l0,0c-0.5,0.2-0.9,0.3-1.3,0.4c-0.1,0.1-0.1,0.1-0.2,0.1
			C50.2,12.3,50.4,11.8,50.5,11.3z M58,14.6c-0.5,0.2-0.8,0.6-1.1,1c-0.1,0.4,0,0.8,0.1,1.2c-1.7-1.2-3.6-2.3-5.5-3.2
			C53.8,13.9,56,14.3,58,14.6z M23,10.8c-0.5,0.2-0.9,0.3-1.3,0.5c0.3-0.8,0.4-1.6,0.3-2.5c-0.1-0.2-0.2-0.3-0.2-0.4
			c-0.5-0.9-1.2-1.4-2.1-1.6c3.2,0.2,5.7,1.5,7.6,3.8c0,0.2,0.1,0.3,0.1,0.4c-0.1,0-0.1,0.1-0.1,0.2C26,10.6,24.6,10.5,23,10.8
			L23,10.8z M22.7,12c0.1-0.1,0.1-0.2,0.2-0.2c1.1,0.1,2.2,0.3,3.2,0.7c0,0,0.2,0,0.3,0.1c-2.1,0.8-3.9,1.8-5.6,3
			c0.1-0.3,0.1-0.5,0.2-0.7c0-0.1,0-0.2,0-0.3c0.1-0.2,0.2-0.4,0.3-0.6c-0.1-0.3-0.2-0.5-0.3-0.7c-0.1,0-0.2,0-0.3,0
			c-0.1-0.1-0.2-0.2-0.3-0.3c0.1,0,0.2-0.1,0.3-0.1C21.4,12.8,22.1,12.5,22.7,12z M21.8,55.9c-1,2.2-1,4.4-0.3,6.7
			c3.1,1,6.3,2,9.4,3.3C21.3,68.8,12,68.8,3,66c4.4-3.3,9.7-4.9,15.8-4.9c0-0.1,0-0.2,0-0.4c0.2-2.1,0.4-4.2,0.8-6
			C20.3,55.1,21,55.5,21.8,55.9z M30.7,58.5c-2.3,0.1-4.3,1-6.1,2.7c3.2-0.4,6.7-0.9,10.5-1.6c0-0.1,0-0.2,0.1-0.3
			c0-0.2,0-0.3,0.1-0.4c2.4,0.1,4.9,0,7.3-0.3l0,0c2.1,1,4.5,1.8,7.3,2.5C48.3,61.7,47,62.7,46,64c-5.4,0.1-10.9-0.2-16.4-0.9
			c-1.5-0.9-3.1-1.5-5-1.9c-0.6-0.1-1.3-0.2-2.1-0.3c0.5-1.9,0.6-3.4,0.3-4.6c1.8,0.8,3.7,1.3,5.7,1.8C29.3,58.2,30,58.4,30.7,58.5z
			 M31.2,64.1c1.6,0.5,3.3,0.9,5,1.1c-1,0.2-2,0.5-3,0.8c-0.1-0.1-0.1-0.2-0.1-0.3C32.5,65.1,31.8,64.6,31.2,64.1z M53.9,55.2
			c0.5-0.3,1-0.5,1.5-0.8c0.2-0.1,0.4-0.2,0.6-0.3c1.1,2.2,1.8,4.6,2,7c8.2,0.3,15.4,2,21.6,5.4c-11,3.3-21.8,2.7-32.3-1.6
			c2.4-1.8,5-2.8,8-3.3c0-0.1,0-0.2,0.1-0.4C55.9,58.5,55.4,56.4,53.9,55.2z M54.1,60.2c-0.9,0.1-1.8,0.2-2.6,0.4
			c-2.1-1-4-1.8-5.9-2.6c2.6-0.6,5.2-1.4,7.7-2.6C54.3,56.8,54.5,58.4,54.1,60.2z"/>
		<path style="fill:#009659;" d="M45.9,12.5h0.3l0,0H45.9z"/>
		<path d="M46.2,12.5h-0.3c0,0.1,0.1,0.3,0.1,0.5C46.1,12.8,46.1,12.7,46.2,12.5z"/>
		<path d="M61.7,22.8l0.2-0.2c-0.5-0.4-0.9-0.8-1.4-1.2C60.9,21.8,61.3,22.3,61.7,22.8z"/>
		<path d="M28.6,13.3L28.6,13.3v-0.1V13.3z"/>
	</g>
	<g>
		<path style="fill:#3172A1;" d="M36,19.9c-1.6-0.1-3.2-0.1-4.7-0.2c-3.4,0.8-5.8,2.8-7.2,6c-3.8,8.7-1.2,14.3,7.7,16.8
			c1.3-0.5,2.7-0.8,4.2-1.3c0.8-0.2,1.5-0.7,2-1.3c0.7,0.9,1.7,1.6,2.9,2c1.9,0.7,3.7,0.6,5.5-0.2c6.5-2.9,8.4-7.8,5.6-14.7
			c-0.9-1.2-1.9-2.3-3-3.4c-3.2-3-6.9-3.7-11-2.2c-0.4-0.4-0.9-0.7-1.5-1.2C36.4,20.1,36.2,20,36,19.9z M37.4,22.5
			c0,0.4,0.1,0.7,0.2,1c0.2,0.3,0.4,0.5,0.7,0.7c0.5,0,0.9-0.3,1.2-0.8c0.2-0.3,0.5-0.7,0.9-0.9c3-0.2,5.6,0.7,7.9,2.6
			c0.2,0.3,0.4,0.5,0.6,0.8c0.2,0.2,0.4,0.5,0.5,0.8c-3.1-0.4-6.6-0.1-10.4,0.9c-0.1,0-0.2-0.1-0.3-0.1c-3.2-1.8-6.5-3.4-9.7-4.7
			c0.8-0.5,1.7-1.1,2.8-1.6C34,20.6,35.8,21,37.4,22.5z M27.5,39.5c-0.8-0.3-1.3-0.8-1.6-1.5C23,31.9,23.6,27.1,28,23.6
			c7.3,5.3,14.5,6.6,21.8,3.7c3,5.2,2.1,9.5-2.8,13.2c-3.4,0.8-6.3,0.1-8.7-2.3C34.9,40.9,31.3,41.4,27.5,39.5z"/>
		<path style="fill:#3172A1;" d="M41.8,32.6c0.1-0.5,0.2-1,0.1-1.5c0-0.1,0-0.2,0-0.4c-0.2-0.1-0.3-0.1-0.4-0.2
			c-0.8-0.1-1.5-0.2-2.2-0.3v0.1c-0.6,0.1-0.9,0.4-0.7,1.1c0,0.1,0,0.2,0,0.3c0,0.2,0.1,0.3,0.1,0.4C39.6,33.2,40.6,33.4,41.8,32.6z
			"/>
		<path style="fill:#3172A1;" d="M37.8,31.4c0-0.5-0.1-0.8-0.4-1.2C37.2,30.1,37.1,30,37,30c-0.4-0.1-0.8-0.2-1.2-0.3
			c-0.3,0.1-0.5,0.3-0.8,0.5c-0.4,0.4-0.5,0.9-0.4,1.5c0.7,1.3,1.5,1.6,2.6,1.1c0.1-0.1,0.1-0.1,0.2-0.1c0-0.1,0.1-0.2,0.2-0.2
			C37.8,32.1,37.8,31.8,37.8,31.4z"/>
		<path style="fill:#3172A1;" d="M57,45.5c0-0.1,0-0.2,0-0.2c-1.8-1.6-4-2.2-6.5-2c-2.9,0.2-5.7,1.1-8.3,2.7
			c-2.8,1.6-4.6,3.7-5.4,6.1c0.9-0.1,1.8-0.6,2.6-1.6C44.3,45.1,50.2,43.5,57,45.5z"/>
	</g>
</g>
</svg>
