<?xml version="1.0" encoding="iso-8859-1"?>
<!-- Generator: Adobe Illustrator 12.0.1, SVG Export Plug-In . SVG Version: 6.00 Build 51448)  -->
<!DOCTYPE svg PUBLIC "-//W3C//DTD SVG 1.1//EN" "http://www.w3.org/Graphics/SVG/1.1/DTD/svg11.dtd" [
	<!ENTITY ns_svg "http://www.w3.org/2000/svg">
	<!ENTITY ns_xlink "http://www.w3.org/1999/xlink">
]>
<svg  version="1.1" id="Layer_1" xmlns="&ns_svg;" xmlns:xlink="&ns_xlink;" width="97.864" height="81.108"
	 viewBox="0 0 97.864 81.108" style="overflow:visible;enable-background:new 0 0 97.864 81.108;" xml:space="preserve">
<g>
	<path style="fill:#3172A1;" d="M84.405,26.909c-0.6-0.6-1.3-1-2.1-1c-1.6,0.6-2.8,1.7-3.4,3c-4.7-3.6-10.1-4.8-16.1-3.8
		c-1.7,0.1-3.3,0.6-4.7,1.5c-0.2-0.1-0.3-0.2-0.4-0.2c0,0.1,0,0.3-0.1,0.5c-0.4,0.3-0.7,0.6-1.1,1c-2.8-1.3-5.8-2-9-2
		c-0.4,0.2-0.8,0.3-1.3,0.3c0-0.2,0-0.5,0-0.7c-1.2-8.4-6.2-13.2-15-14.7c0.1-0.6,0.1-1.3,0-1.9c0-0.6-0.3-1.1-0.7-1.6
		c-0.2-0.1-0.5-0.2-0.7-0.3c-0.6-0.2-1.2-0.3-1.7-0.5c-2.5,0.9-3.7,2.9-3.8,5.8c-0.1,2.3,0.4,4.3,1.5,6.2c1.1,0.1,2.2,0.3,3.2,0.4
		c0.4-0.3,0.7-0.6,1-0.9c0.2-0.2,0.3-0.2,0.4-0.4c0-0.1,0-0.2,0.1-0.3c0-0.4,0.1-0.8,0.3-1.1c0-0.2,0.1-0.3,0.2-0.4
		c0.3,0,0.6-0.1,0.8-0.1c0.1,0.2,0.5,0.3,1,0.4c0,0.2,0.1,0.3,0.1,0.4c0.7,0.8,1.1,1.6,1.3,2.4c-1.3,1.5-2.9,2.6-4.9,3.4
		c-0.2,0-0.4,0-0.4,0.1c-0.1,0-0.1,0-0.1,0.1c-0.1,0.1,0,0.2,0,0.3c0.5,0.6,1.1,1.1,1.9,1.5c0.1,0.2,0.2,0.4,0.3,0.7
		c0.5,0.8,0.9,1.8,1,2.8c-1.1,1.7-2.4,3-4.3,4c0.1,0.2,0.3,0.4,0.5,0.5c-4.7,3.9-7.6,9.5-8.7,16.7c-0.3,2.1-0.3,4.2,0,6.1
		c0.6,3.8,2,7.1,4.1,9.8c-1-0.1-1.8-0.2-2.7-0.1c-0.9-2.4-1.6-4.8-2.1-7.2c-2-9.8-7.5-16.3-16.5-19.6c-3.2,8.6-3.1,17.3,0.5,26.3
		c2.2,5.1,5.3,8.7,9.4,10.6c-0.2,0-0.3,0-0.4,0v0.1c-1.9,0.1-3.6,0.7-4.9,1.6c0.3,0.2,0.6,0.3,0.9,0.2c2-0.3,3.9-0.8,5.5-1.4
		c1.6,0.6,3.3,0.9,5.1,1.1c-2.3,0.6-4.7,1.4-7,2.1c0.5,0.2,0.9,0.2,1.3,0.2c6.5-1.2,12.8-2.7,19.1-4.5c-0.1-0.2-0.2-0.2-0.3-0.3
		c-0.6-0.1-1.1-0.2-1.7-0.2c-0.9,0.2-1.9,0.5-3,0.7c-1.4,0.3-2.8,0.6-4.2,0.9c0.5-0.9,0.6-1.9,0.4-3c-0.2-0.9-0.6-1.8-1.1-2.6
		c2.5,0.5,4.6,0.3,6.2-0.7c0.3,0.2,0.5,0.4,0.8,0.5c-0.1,0.1-0.1,0.2-0.1,0.2c0.3,0.1,0.7,0.3,1,0.5l0.1-0.1c1.6,1,3.4,1.8,5.4,2.4
		c0.7,0.3,1.4,0.5,2.2,0.7c-0.1-0.1-0.2-0.1-0.3,0c1.1,0.2,1.9,0.6,2.6,1c-0.3,0-0.6,0.1-1,0.1c-5.4,0.5-10.5,1.6-15.5,3.4
		c4.4-0.1,8.9-0.5,13.6-1.3c2.4-0.5,3.7-1,4.2-1.6c0.2,0,0.4,0,0.6,0c0-0.1,0-0.2,0.1-0.2c0.5,0.4,1,0.8,1.5,1.1
		c-0.2,0.1-0.3,0.2-0.5,0.2c-3.4,0.8-6.6,1.9-9.7,3.1c2,0.6,4.4,0.5,7-0.2c3.3-1,4.7-1.9,4-2.7c1.1,0.6,2.3,0.9,3.5,0.9
		c-0.9,0.6-1.8,1.3-2.5,2c0.2,0.1,0.4,0.1,0.6,0c5-2.1,9.9-4,14.8-5.8c0.1,0.3,0.2,0.5,0.3,0.7c0.2-0.1,0.5-0.3,0.7-0.5
		c-0.1-0.1-0.2-0.3-0.2-0.4c0.2-0.1,0.5-0.2,0.8-0.3c-0.2-0.2-0.4-0.2-0.6-0.3c-0.1,0-0.2,0-0.2,0c0.2-0.1,0.5-0.2,0.7-0.3
		c0.7,0.2,1.3,0.3,2.1,0.4c2.6,0.3,5,0.6,7.4,0.9c-0.2,0.5-0.2,1.1,0,1.6c-0.4-0.2-0.8-0.3-1.2-0.5c-0.3,0.3-0.8,0.5-1.5,0.6
		c-3.2,0.4-5.7,1.8-7.4,4.1c0.2,0,0.3,0.1,0.3,0c3.4-1.3,6.6-2.5,9.9-3.7c0.3,1.1,0.4,2.3,0.3,3.5c0.4,0.5,0.8,0.9,1.3,1.2
		c1.6,0.8,3.2,1,4.9,0.6c1-0.3,2.1-0.7,3.1-1.1c-0.1,0.1-0.2,0.2-0.3,0.2c0.1,0.2,0.1,0.2,0.1,0.2c4.6-1.3,7.7-2.9,9.3-4.8
		c-0.8,0.1-1.5,0.4-2.3,0.6c5.2-4,8.4-9.7,9.6-17.3c1.1-6.9-1.3-11.2-7.3-12.7c-9.2,4.9-15,12.5-17.2,22.8c-1.3-0.4-2.5-0.6-3.8-0.7
		c5.2-4.1,7.5-10.1,7-17.9c-0.1-2.5-0.7-4.9-1.6-7c-0.9-2.1-1.9-4-3.2-5.7c0.3,0.2,0.8,0.3,1.3,0.5c-0.2-0.3-0.5-0.6-0.6-0.8
		c-0.2-0.2-0.3-0.3-0.4-0.4c1.4,0.1,2.5,0.2,3.6,0.3c-0.1-0.7-0.6-1.4-1.3-1.8c-0.3-0.2-0.4-0.3-0.6-0.4c0.4,0.2,0.8,0.4,1.2,0.6
		c0-0.1-0.1-0.2-0.1-0.3c-0.6-0.6-1.1-1.1-1.7-1.6c0-0.1,0-0.2,0-0.2c0.3-0.6,0.8-0.9,1.4-0.9c0.9-0.1,1.5-0.2,2-0.4
		c0,0.2,0,0.4-0.1,0.6c-0.2,1.3-0.1,2.6,0.4,3.7c0.7,0.6,1.6,0.8,2.6,0.5c2.3-1.3,4.1-3,5.4-5.1c0-0.4,0-0.8,0-1.2
		c0-1.1,0-2.2,0-3.3C84.505,27.108,84.405,27.009,84.405,26.909z M94.405,49.208c0.2,0.2,0.4,0.5,0.5,0.7c1,4.5,1,8.9-0.1,13.2
		c-0.7,2.9-2,5.7-3.8,8.3c-4.7,6.8-10.4,8.9-17.3,6.4c0-0.3,0-0.5,0-0.8c0.1-0.6,0-1.3-0.3-1.9c-0.1-0.2-0.1-0.5-0.2-0.7
		c0-0.1,0.1-0.2,0.1-0.4c0.1-0.2,0.2-0.5,0.3-0.8c0.1-0.1,0.1-0.2,0.1-0.3c-0.1-0.3-0.2-0.4-0.4-0.5c-0.3-0.2-0.6-0.3-1-0.3h-0.1
		c-0.2,0.2-0.4,0.5-0.5,0.7c-1.9-1.1-4-1.9-6.2-2.1c0.8-0.5,1.7-1,2.5-1.5c2.6,0.9,5,1.1,7.1,0.6c-0.1-0.2-0.2-0.2-0.3-0.3
		c-0.3-0.1-0.6-0.3-1-0.4c2-3.3,3.8-6.6,5.4-10.2c2.9-6.2,7.4-9.9,13.6-10.9C93.405,48.409,93.905,48.809,94.405,49.208z
		 M44.805,27.309c0.8,0.1,1.6,0.2,2.5,0.4c4,0.6,7.5,1.1,10.5,1.6h0.3c0.4,0.1,0.8,0.1,1.2,0.2c-0.1-0.1-0.1-0.2-0.2-0.2
		c-0.3-0.2-0.6-0.4-0.8-0.5c0.1-0.4,0.3-0.8,0.6-1.2c0,0,0,0,0-0.1c1.3-0.2,2.6-0.5,3.7-1.1c3.1-1.3,6-1.2,8.8,0.4
		c3.2,1.7,5.8,2.6,8,2.7c0-0.1,0-0.2,0-0.2c1.1-0.2,2.3-0.6,3.5-1.3c0.4,3.9-1.4,6.3-5.3,7.3c-0.2-0.4-0.2-0.8-0.2-1.2
		c0.2-0.8,0.3-1.7,0.5-2.6c-1.4-1.9-3.4-3.3-5.9-4c-4.6-1.2-7.8-0.6-9.8,2c-0.1,0-0.1,0-0.1,0l0,0c-0.1,0.1-0.2,0.2-0.2,0.3
		c-0.1,0-0.1,0-0.2-0.1c-0.2,0.3-0.3,0.7-0.4,1c-0.3,0.1-0.5,0.2-0.7,0.4c0.2,0,0.4,0.1,0.5,0.2c0,0,0,0,0,0.1c0-0.1,0-0.1,0.1-0.1
		c1.7,0.8,3.4,1.7,5,2.8c0.3,0.1,0.6,0.3,1,0.5c0.3,0.3,0.6,0.6,1,0.9c-0.1,0.8,0.3,1.2,1.1,1.2c0,0,0.1,0,0.2,0
		c1.2,1.1,2.2,2.3,2.8,3.8c0.1,0.2,0.2,0.4,0.2,0.7l-0.2,0.1c2,3.8,2.8,8.4,2.1,13.7c-0.5,4.2-2.4,7.7-5.6,10.4
		c-10.5,8.6-22.5,9.9-36,3.9c-3.7-1.7-6.6-4.1-8.7-7.5c-4.5-7.1-4.5-14.5-0.1-22.1c0.2-0.2,0.3-0.3,0.4-0.4c0.2-0.1,0.3-0.2,0.5-0.3
		c0-0.1,0.1-0.2,0.2-0.4c0.1-0.1,0.1-0.2,0.1-0.3c0-0.2,0-0.3,0.1-0.4c0-0.1,0.1-0.2,0.2-0.3c0.9-0.6,1.7-1.3,2.4-2.1
		c3.5-4.1,7.7-6.5,12.6-7.3v-0.2c0.3-1.2,0.5-2.3,0.4-3.6c-0.2-5.8-3-9.1-8.3-10c-0.1-0.1-0.1-0.1-0.2-0.1c-0.2,0-0.3,0-0.5,0
		c-0.7-0.1-1.5-0.2-2.3-0.2c-0.1,0.8-0.3,1.5-0.4,2.2c-0.1,0.3-0.3,0.5-0.5,0.8c-0.5,0.1-1.1,0.2-1.7,0.2c-0.1,0-0.1,0-0.1-0.1
		c-0.4-0.5-0.6-1.1-0.6-1.8c0-0.7-0.1-1.4-0.1-2c-0.2-1.5,0-3,0.4-4.4c0.3-0.2,0.6-0.4,0.9-0.6c0.8-0.5,1.5-0.4,2.1,0.2
		c0.6,0.5,0.7,1.2,0.5,2c-0.1,0.4-0.2,0.9-0.3,1.4c2.8,0.7,5.4,1.8,8,3.1c2.8,1.4,4.5,3.7,5.1,6.6c0.4,1.9,1,3.4,1.7,4.4
		c-0.2,0-0.4,0-0.6,0c-0.2,0.1-0.4,0.1-0.5,0.3c-0.2,0-0.3,0.1-0.4,0.2c-0.1,0.1-0.1,0.2-0.2,0.4c0,0.1,0.1,0.2,0.2,0.4
		c0.1,0.1,0.3,0.2,0.4,0.3c0.2,0.1,0.3,0,0.4,0c0.1-0.1,0.2-0.2,0.3-0.2C44.405,27.409,44.605,27.409,44.805,27.309z M39.705,22.708
		c-0.2,0.5-0.2,0.9-0.2,1.1c-0.1,1.2,0,2.1,0.3,3c-0.1,0-0.1,0-0.1,0c-2.8,0.7-5.3,1.7-7.6,2.9c0.4-0.5,0.8-1.1,1.1-1.7
		c-0.4-1.5-0.8-2.7-1.1-3.7c0.9,0.2,2.1,0.2,3.3,0.1c1.3,1.4,2.6,2.1,3.9,2c0.1,0,0.1-0.1,0.1-0.2s-0.1-0.2-0.1-0.4
		c-0.4-0.7-0.9-1.3-1.7-1.7c-0.1-0.2-0.3-0.3-0.4-0.4c-0.3-0.2-0.5-0.3-0.8-0.3c-1.6-0.3-3.3-0.6-5-0.8c1.5-0.5,2.7-1.3,3.7-2.5
		c0-0.3,0-0.5,0.1-0.8c0.1-0.5,0.1-1,0-1.5c-0.2-0.1-0.3-0.3-0.3-0.5c-0.1-0.4-0.3-0.8-0.5-1.1c0.2,0.1,0.5,0.3,0.7,0.4
		c2.1,1.4,3.6,3.2,4.7,5.4C39.705,22.208,39.705,22.409,39.705,22.708z M57.605,28.409L57.605,28.409L57.605,28.409z M63.505,30.409
		c-0.2,0-0.2-0.1-0.3-0.2c3,1,5.8,2.2,8.5,3.6c0,0.1,0,0.2,0,0.2v0.2c-1.1-0.1-1.9,0-2.5,0.3c0,0,0,0-0.1,0c0,0,0,0,0.1,0.1
		c-0.1,0-0.1,0-0.2,0c-0.2-0.2-0.4-0.4-0.7-0.6c-0.6-0.4-1.3-0.9-2-1.4c-0.6-0.5-1.3-1-2.1-1.6c-0.4-0.2-0.6-0.4-1-0.5
		C63.305,30.409,63.305,30.409,63.505,30.409z M64.805,29.809L64.805,29.809c-0.5,0.1-1,0.2-1.5,0.3c3.5-1.7,7.3-1.5,11.3,0.5
		c-0.1,0-0.3,0-0.3,0c-0.3,0.3-0.8,0.5-1.5,0.6c-0.1,0.1-0.3,0.1-0.5,0.2c-0.1,0.2-0.2,0.5-0.4,0.6c-0.1,0.2-0.2,0.4-0.2,0.5
		C69.705,31.108,67.305,30.208,64.805,29.809z M3.105,39.809c1.1-0.1,2.2,0.4,3.2,1.3c7.2,6.9,11.6,15.3,13.4,25.3
		c1.3,0.6,3,0.6,5-0.1c0-0.1,0-0.1,0-0.1c0.2,0.3,0.4,0.5,0.7,0.7c-1.8-0.2-3.6,0.4-5.5,1.6c0,1.4,0.3,2.7,1.1,3.8
		c0.6,0.7,0.6,1.5-0.1,2.2c-4.4,1.4-8.3,0.1-11.6-3.8C1.705,61.509-0.395,51.208,3.105,39.809z M49.305,74.708v0.1
		c0.3,0.1,0.6,0.3,0.9,0.5c-2.6,0.7-5.2,0.4-7.7-1C44.805,74.608,47.005,74.809,49.305,74.708z M52.405,74.608
		c-0.1-0.1-0.1-0.1-0.1-0.1c0.1,0,0.2,0,0.2,0S52.405,74.509,52.405,74.608z"/>
	<path style="fill:#3172A1;" d="M47.905,33.009c-0.1-0.2-0.3-0.3-0.4-0.4c-1.6-0.3-3.2-0.5-4.7-0.7c-3.5,0.4-6.1,2.1-7.8,5.1
		c-4.7,8.2-2.9,14,5.7,17.5c1.4-0.3,2.8-0.5,4.3-0.8c0.9-0.1,1.6-0.5,2.2-1c0.6,0.9,1.5,1.7,2.6,2.3c1.1,0.5,2.1,0.8,3.2,0.8
		c0.6,0,1.2-0.1,1.8-0.2c0.2-0.1,0.3-0.1,0.5-0.2c6.7-2.1,9.2-6.8,7.3-14c-0.8-1.3-1.7-2.5-2.6-3.6c-2.9-3.4-6.4-4.6-10.7-3.5
		C48.905,33.909,48.405,33.409,47.905,33.009z M36.805,51.009c-0.7-0.4-1.2-1-1.4-1.6c-2.8-7.9-0.2-13.2,7.7-16
		c2.3-0.4,4.1,0.2,5.4,1.9c0,0.4,0,0.7,0.2,1.1c0.1,0.2,0.3,0.5,0.5,0.7c0.6,0,1-0.2,1.3-0.6c0.3-0.4,0.6-0.7,1-0.9
		c3,0.2,5.5,1.4,7.6,3.6c0.1,0.2,0.3,0.5,0.5,0.8c3.3,6.2,2.2,10.9-3.5,14.3c-3.5,0.4-6.3-0.7-8.5-3.4
		C44.005,53.309,40.405,53.409,36.805,51.009z"/>
	<path style="fill:#3172A1;" d="M38.605,38.809c-0.3,0-0.4,0-0.4,0.1c-0.1,1.8,0.4,3.6,1.5,5.2c0,0.1,0,0.1,0.1,0.1
		c-1.2,1-2.2,2-3.1,3.2c1.2-0.5,2.6-1,4-1.7c0.4,1.1,0.8,2.2,1.4,3.3c0.6,0.7,1.2,0.7,1.8-0.1c0-0.1-0.1-0.2-0.1-0.4
		c-0.5-1.2-1.1-2.4-1.6-3.6c0.3-0.2,0.7-0.4,1.1-0.6c3-1.6,4-3.2,3-4.7c-0.1,0.1-0.2,0.1-0.3,0.2c-1.8,1-3.4,2.1-4.8,3.2
		C40.405,41.608,39.505,40.108,38.605,38.809z"/>
	<path style="fill:#3172A1;" d="M50.705,41.009c0.6,1.4,1.3,2.7,2.1,3.7c-1.4,1.3-2.7,2.6-3.6,4.2c0.9,0.4,1.9,0.3,3.1-0.5
		c0.8-0.6,1.5-1.2,2.1-1.8c1,0.9,2,1.6,3,2.2c0-0.1,0-0.3,0-0.4c-0.6-0.9-1.3-1.9-1.9-2.8c1.2-1.3,2.1-2.6,2.6-3.8
		c-0.3-0.1-0.6-0.1-0.8,0c-1.2,0.6-2.3,1.3-3.3,2c-0.9-1-1.9-2-2.9-2.9L50.705,41.009z"/>
	<path style="fill:#3172A1;" d="M52.405,70.309c1.6,0.5,3.2,0.6,4.8,0.2c5-1.1,7-3.5,5.8-7.2c1,0.2,2,0.5,2.9,0.8
		c0-0.1-0.1-0.2-0.1-0.2c-1-0.7-2.1-1.3-3.2-1.8c-0.2-0.3-0.4-0.6-0.5-1c-0.1,0-0.2,0.1-0.2,0.1c-0.2,0.2-0.3,0.3-0.4,0.5
		c-3-1.1-6.2-1.4-9.7-0.9c-3,0.6-5.8,1.7-8.5,3.4c-1.3,0.9-2.1,1.9-2.5,3.1c0.5,0.6,1.1,0.6,1.7,0c1.9-1.7,3.9-2.9,6.3-3.5
		C48.805,66.409,50.105,68.509,52.405,70.309z M57.105,66.108c0-0.1,0.1-0.2,0.1-0.3c-0.2-1.1-0.5-2.2-0.9-3.1
		c1.6-0.1,3.3,0,4.9,0.3c0,0.5,0.3,1.1,0.9,1.8c-0.1,0.1-0.2,0.2-0.2,0.3c-0.3,0.4-0.5,0.9-0.5,1.5c-0.6,0.8-1.3,1.3-2.1,1.8
		c-2.1,1.2-4.1,1.1-5.8-0.5c-1.7-1.5-3-2.9-3.9-4.3c1.8-0.5,3.6-0.8,5.4-0.9C55.005,64.409,55.705,65.509,57.105,66.108z"/>
	<path d="M40.505,28.208c0,0,0,0,0.1,0c-0.1-0.1-0.1-0.2-0.1-0.2V28.208z"/>
	<path style="fill:#009659;" d="M58.005,29.409c0-0.1,0-0.1,0.1-0.1h-0.3L58.005,29.409z"/>
	<path d="M57.805,29.309c0,0.1,0,0.3,0.1,0.5c0-0.1,0.1-0.3,0.1-0.4L57.805,29.309z"/>
	<path d="M72.305,41.309l0.2-0.1c-0.4-0.5-0.8-1-1.2-1.4C71.605,40.309,72.005,40.809,72.305,41.309z"/>
	<path style="fill:#3172A1;" d="M88.305,78.409c-1.3,0.2-2.2,0.8-2.7,2c2.7-0.6,5.2-1.7,7.5-3.5c-0.1-0.1-0.2-0.2-0.2-0.3
		c-0.4-0.1-0.7-0.3-1.1-0.5c0,0.1,0,0.1,0,0.1C90.405,76.608,89.305,77.309,88.305,78.409z"/>
	<path style="fill:#3172A1;" d="M52.605,3.909c-0.2,1.6-0.1,3.1,0.5,4.4c0.5,1.4,1.5,2.5,3,3.1c0,0.1,0,0.2,0,0.4s0,0.5-0.1,0.7
		c0,0.4,0.1,0.8,0.3,1.1c0,0.2,0.1,0.3,0.3,0.4c0.8,0.3,1.7,0.5,2.6,0.8c2.1,0.6,4.3,1,6.5,1c0.4-0.5,0.7-1,1.1-1.5
		c0.1-0.3,0.3-0.7,0.5-1c0-0.4,0.1-0.8,0.1-1.2c0.1-0.4,0.5-0.7,1.4-1c0.6-0.1,1.2-0.4,1.6-1c0.1-0.1,0.1-0.2,0.1-0.3
		c-0.4-6.8-4.4-10-12.2-9.8c-1.5,0.4-2.9,1.1-4.2,2C53.305,2.608,52.805,3.208,52.605,3.909z M67.805,5.309c1.3,1.2,1.5,2.6,0.9,4.1
		c-0.9,0.5-1.8,0.8-2.9,0.7c-0.2,0.3-0.4,0.5-0.5,0.7s-0.1,0.5-0.1,0.7c0,0.5,0.1,0.9,0.3,1.3c0.4,0.8,0.1,1.3-1.1,1.3
		c-0.4-0.3-0.6-0.8-0.6-1.5c0-0.6-0.2-1.1-0.7-1.5c-0.9,0-1.2,0.3-1.1,1.2c0,0.5,0.1,1,0.1,1.5c-0.9,0.1-1.2,0-1-0.6
		c0.1-0.5,0.1-1.1-0.2-1.7c-0.5-0.5-1-0.5-1.5,0.1c-0.2,0.4-0.4,0.7-0.6,1.2c-0.7,0.3-1.1,0.1-1.2-0.5c0-0.5,0.1-1,0.5-1.5
		c-0.1-0.3-0.2-0.4-0.3-0.5c-3-1-4.2-3.1-3.5-6c0.3-0.3,0.5-0.5,0.8-0.8c0.2-0.2,0.5-0.5,0.7-0.7c0.4-0.1,0.7-0.2,1-0.3
		c0.7-0.3,1.4-0.5,2-0.7c2.1-0.4,4,0.1,5.6,1.5c0.7,0.1,1.3,0.3,1.9,0.5C66.805,4.309,67.305,4.809,67.805,5.309z"/>
	<path style="fill:#3172A1;" d="M60.705,3.809c-0.1-0.1-0.2-0.2-0.3-0.2c-0.5-0.1-1-0.3-1.6-0.3c-0.3,0.1-0.6,0.4-0.9,0.8
		c-0.6,0.9-0.8,1.8-0.6,2.9c0.9,1.1,2,1.4,3.4,1.1c0.1-0.3,0.4-0.7,0.8-1c0.1-0.1,0.1-0.1,0.2-0.1c-0.1,0.6,0,1.3,0.5,1.9
		c1.1,1.4,2.5,1.5,4.1,0.6c0.6-0.4,0.9-1,0.8-1.9c-0.1-0.3-0.1-0.7-0.3-1.1c-0.3-0.4-0.7-0.8-1.1-1.1c-0.1-0.1-0.2-0.2-0.3-0.4
		c-0.7-0.1-1.4-0.2-2.1-0.2c-0.6,0.2-1.1,0.6-1.4,1.3c-0.1,0.1-0.1,0.1-0.1,0.2c0-0.4,0-0.7-0.1-1
		C61.605,4.509,61.205,4.009,60.705,3.809z M63.705,5.909c0.3-0.1,0.6,0,0.6,0.1c0.4,0.6,0.8,1.3,1.4,2c-1.3,1-2.2,0.9-2.9-0.2
		c0-0.2,0.1-0.3,0.2-0.4C63.205,6.909,63.405,6.409,63.705,5.909z M58.305,5.909c0.1-0.6,0.4-1.1,0.9-1.5c0.7-0.1,1.2,0.3,1.5,1.1
		c-0.3,1.7-1.1,1.9-2.4,0.8C58.305,6.108,58.305,6.009,58.305,5.909z"/>
	<path style="fill:#3172A1;" d="M58.605,15.909c-0.1,0-0.2,0-0.3,0c-1.1,0-2,0.5-2.5,1.4c0,0.1,0,0.2,0.1,0.3c0.1,0.5,0.5,1,0.9,1.5
		c-0.4,0.5-1.3,0.8-2.5,0.9c0,0.4,0,0.8,0,1.1c0.1,0.6,0,1.1-0.1,1.5c-0.3,0.3-0.6,0.5-0.9,0.8c-0.5,0.4-0.7,0.9-0.6,1.5
		c0.1,0.1,0.2,0.2,0.2,0.2c1.1-0.2,2-0.8,2.5-1.8c0-0.3,0-0.5-0.1-0.8c0-0.3,0-0.7,0-1.1c1-0.1,1.8-0.5,2.5-1.3c0-0.2,0-0.5,0-0.7
		c0-0.6-0.1-1.1-0.5-1.5l-0.1-0.1C58.705,17.409,59.205,16.809,58.605,15.909z"/>
	<path style="fill:#3172A1;" d="M66.105,75.309c-0.2-0.2-0.4-0.3-0.6-0.3c-0.4-0.2-0.8-0.3-1.2-0.4c-0.1,0.1-0.3,0.2-0.5,0.2
		c-4.1,0.9-7.7,2.3-10.9,4.2C57.205,78.708,61.605,77.509,66.105,75.309z"/>
	<path style="fill:#3172A1;" d="M67.405,79.108c0.1,0.2,0.1,0.2,0.1,0.2c3.7-0.4,4.9-1.3,3.8-2.5
		C69.805,77.309,68.605,78.108,67.405,79.108z"/>
</g>
</svg>
