<?xml version="1.0" encoding="iso-8859-1"?>
<!-- Generator: Adobe Illustrator 12.0.1, SVG Export Plug-In . SVG Version: 6.00 Build 51448)  -->
<!DOCTYPE svg PUBLIC "-//W3C//DTD SVG 1.1//EN" "http://www.w3.org/Graphics/SVG/1.1/DTD/svg11.dtd" [
	<!ENTITY ns_svg "http://www.w3.org/2000/svg">
	<!ENTITY ns_xlink "http://www.w3.org/1999/xlink">
]>
<svg  version="1.1" id="Layer_1" xmlns="&ns_svg;" xmlns:xlink="&ns_xlink;" width="82.8" height="77.731"
	 viewBox="0 0 82.8 77.731" style="overflow:visible;enable-background:new 0 0 82.8 77.731;" xml:space="preserve">
<g>
	<path style="fill:#3172A1;" d="M80.4,73.2c0.2-0.2,0.5-0.4,0.7-0.7c0.6-0.1,1.1-0.1,1.7-0.2c-0.1-0.1-0.1-0.1-0.2-0.1
		c-0.3-0.1-0.7-0.1-1.1-0.2c0.3-0.3,0.4-0.7,0.5-1.1c-5.7-3.5-11.9-5.6-18.6-6.3c1.1-0.7,2-1.8,2.5-3.4c-0.1-0.2-0.1-0.3-0.2-0.4
		c-0.9-0.9-1.9-1.4-3-1.6c3.9-4.5,5.3-10.5,4-17.7c-0.5-2.5-1.2-4.7-2.4-6.8c-1-1.7-2.1-3.3-3.4-4.8c0-0.1-0.1-0.2-0.1-0.3
		c0.2,0,0.6,0.1,1,0.2c-0.3-0.3-0.5-0.5-0.8-0.7c-0.2-0.3-0.5-0.5-0.7-0.8c-1-3.2-1-6.6,0.2-10c0.5-0.2,1-0.4,1.6-0.6
		c-0.3-0.4-0.6-0.6-1.1-0.9c0.1-0.1,0.2-0.4,0.3-0.5c-0.1,0.1-0.3,0.4-0.3,0.5c-0.4-0.3-0.8-0.5-1.2-0.6c-0.1-0.3-0.3-0.5-0.4-0.7
		c-0.4-0.3-0.4-0.7-0.3-1.2c0-0.1,0.1-0.2,0.1-0.3c0.3-0.5,0.7-0.9,0.9-1.3c1.4,2.5,3.6,3.5,6.7,3.1c0.4-0.3,0.8-0.6,1.2-1.1
		c0.1-0.2,0.2-0.3,0.3-0.4c0-0.8-0.1-1.5-0.1-2.3C67.9,7.7,66,4.2,62.3,1.5c-0.8,0-1.5,0-2.3-0.1c-0.3,0.3-0.8,0.5-1.3,0.7
		c-0.2,0.1-0.3,0.2-0.4,0.3c0,0.2,0,0.3,0,0.4c0,0.7,0,1.5,0,2.2c0,0.3,0,0.5,0,0.8c-7.1,2.5-11.2,7.3-12.4,14.1
		c-0.2,0.2-0.3,0.4-0.4,0.6l0,0c0,0.1,0,0.1,0,0.2c-0.1,0.1-0.1,0.2-0.1,0.3c0,0.2,0,0.3,0,0.4c0,0.2,0,0.4,0,0.6
		c-3.2-1.2-6.6-1.7-10.1-1.4c-0.4,0.3-0.8,0.4-1.3,0.6c0-0.2,0-0.4,0-0.6c-0.3,0-0.5,0-0.7,0.1c0-0.2,0-0.4,0-0.7
		c-0.3-3.1-1-5.9-2.3-8.3c-0.9-0.8-1.6-1.7-2.4-2.7c-1.5-2.2-3.5-3.7-5.9-4.6c-0.5-0.2-1-0.4-1.5-0.6c0-0.1,0-0.2,0-0.2
		c0-0.5,0-1-0.1-1.6c0.1-0.4,0-0.8-0.4-1.2c0,0-0.1-0.1-0.1-0.3c-0.1-0.1-0.2-0.1-0.4-0.2C19.5,0.2,18.8,0.1,18,0
		c-0.7,0.5-1.3,1.1-1.9,1.8c-2.4,3-3.3,6.4-2.7,10.5c0.9,0.2,1.8,0.3,2.6,0.2c-0.1,0.1-0.2,0.2-0.3,0.2c0.2,0,0.5,0,0.8,0
		c0.1-0.1,0.2-0.2,0.4-0.3c0.9-0.3,1.6-0.9,2.1-1.7c0.1,0.1,0.2,0.2,0.4,0.3c0,0.2,0,0.3,0,0.4c0,1.7-0.6,3.2-1.6,4.5
		c-1.3,0.3-2.1,0.9-2.4,1.9c1.4,0.3,2.8,0.6,4.1,1c1.5,2.7,1.6,5.2,0.1,7.6c-0.2,0.2-0.4,0.4-0.6,0.6c0,0.1,0,0.1,0.1,0.1
		c-0.9,0.8-1.8,1.5-2.6,2c0.1,0.1,0.2,0.1,0.4,0.2c-4.3,4.4-6.5,10.2-6.8,17.5c0,2.1,0.2,4.2,0.7,6.1c0.7,2.3,1.6,4.3,2.7,6.2
		c-0.8,0.1-1.6,0.5-2.1,1.2c-0.2,0.5-0.2,1-0.3,1.5c0,0.6,0.1,1.1,0.5,1.5c0.2,0,0.4,0.1,0.6,0.1c0,0.2,0.1,0.4,0.1,0.5
		c0.1,0.1,0.2,0.3,0.3,0.4c0.4,0.1,0.8,0.3,1.3,0.6c-4.6,0.3-8.7,1.9-12.4,4.7c0,0.2,0,0.3,0,0.4c-0.1,0.8,0,1.6,0.3,2.3
		c0,0.1,0,0.1,0.1,0.1c-0.8,0.3-1.4,0.9-1.9,1.5c1.2,0.1,2.2-0.1,3.2-0.4c0.9,0.1,1.8,0.3,2.6,0.4c-1.3,0.5-2.6,1.2-3.7,2.1
		c0.1,0.2,0.1,0.2,0.1,0.2c2.2-0.5,4.3-1.1,6.6-1.9c1,0.1,2,0.2,2.9,0.3c-1.6,0.4-3.1,1-4.4,1.7c2.5-0.1,5.1-0.6,7.6-1.6
		c2,0,4-0.1,6.1-0.3c-2.3,0.8-4.5,1.5-6.7,2.4c0.2,0,0.4,0,0.7,0c8.4-1.9,16.7-4.1,24.8-6.5c1.6-0.1,3.2-0.2,4.8-0.5
		c-0.4,0.2-0.9,0.4-1.5,0.5c-5.7,1.3-11,3.2-16.1,5.6c6-1.1,12.4-2.8,19-5.2c1.5,0.7,3,1.3,4.5,1.9c-0.8-0.2-1.6-0.4-2.5-0.4
		c-0.5,0.3-1.1,0.5-2,0.7c-3.2,0.3-6.1,1.3-8.7,2.9c0.3,0,0.7-0.1,1.1-0.1c4.4-0.9,8.5-1.8,12.4-2.9c-0.1-0.1-0.1-0.1-0.2-0.2
		c0.9,0.3,1.7,0.6,2.6,0.8c-1.9,0.4-3.4,1.1-4.6,2.1c0.3,0.6,0.7,0.8,1.5,0.7c3.5-0.6,5.3-1.3,5.3-2.2c1.9,0.4,3.7,0.7,5.6,1
		c-0.1-0.1-0.3-0.1-0.5-0.1c-0.9,0.3-2,0.6-3.2,0.9c-0.4,0.1-0.7,0.3-0.7,0.7c0.3,0.7,0.7,0.8,1.3,0.5c1.5-0.9,3.1-1.4,4.9-1.7
		c-0.1-0.1-0.1-0.1-0.2-0.1c-0.3-0.1-0.6-0.1-0.9-0.2c1.5,0.2,3.1,0.2,4.7,0.2c-1.4,0.7-2.5,1.4-3.6,2.2c0.5,0.4,1.1,0.4,1.7,0.2
		c2.1-0.9,4.4-1.8,6.6-2.6c3-0.3,6-0.8,9-1.6C80.2,73.3,80.3,73.2,80.4,73.2z M59.8,5.3c0,0,0-0.1,0-0.3c0-0.1,0-0.2,0-0.3
		c0-0.3,0-0.5,0-0.8c0-0.1,0-0.2,0-0.4c0-0.1,0.1-0.1,0.2-0.2c0.5-0.1,1-0.1,1.5-0.1c0.7,0.4,1.3,0.9,1.7,1.5c0.8,1,1.6,2,2.3,3
		c0.3,1,0.6,2,1,3.1c0.4,1.2,0.3,2.3-0.4,3.2c-0.9,0.1-1.7-0.2-2.5-0.8C62.2,12,61,10.7,60,9.3c-5.1,0.7-8.4,3.4-10,8.1
		c-1,2.7-1,4.6-0.3,5.7c-0.1,0.3-0.1,0.5-0.2,0.8c-0.2,0.1-0.4,0.3-0.6,0.4c2.1,0.6,4,1.4,5.9,2.3c0.4,0.2,0.7,0.3,1.1,0.4
		c0.7,0.6,1.5,1.2,2.3,1.7c0.7,0.5,1.3,1.1,1.9,1.7c0.4,0.7,1.1,1.5,1.7,2.3c0.1,0.1,0.1,0.2,0.1,0.3l-0.2,0.2
		c2.4,3.4,3.7,7.9,3.7,13.4c0,4.2-1.5,7.8-4.5,10.9c-9.3,9.8-21.1,12.4-35.3,8c-3.9-1.2-7-3.4-9.5-6.5c-5.2-6.5-6.1-13.9-2.6-22
		c0.1-0.1,0.2-0.2,0.4-0.4c0.1-0.1,0.2-0.2,0.4-0.3c0-0.2,0.1-0.3,0.2-0.4c0-0.1,0-0.2,0-0.4c0-0.1,0-0.2,0.1-0.3
		c0-0.2,0.1-0.3,0.2-0.4c0.8-0.7,1.5-1.5,2.1-2.4c3-4.4,6.9-7.3,11.7-8.7v-0.1c0-0.2,0-0.3,0-0.5c0,0,0.2-0.2,0.3-0.3
		c0.1-0.1,0.2-0.2,0.2-0.4c0-0.3,0-0.6,0-1c0,0.5,0.1,0.9,0.2,1.4c1.6-8.3-1.5-13-9.5-14.4V8.3c-0.2,0-0.3,0-0.4,0
		c-0.2,0-0.3,0-0.5,0c0,0.1,0,0.2,0,0.3c-0.3,0.1-0.5,0.4-0.6,0.7C18,10,17.6,10.5,17,10.9c-0.5,0.2-1,0.3-1.5,0.3
		c-0.3,0-0.6-0.1-0.9-0.3c0-0.3,0-0.7,0-1.1c0-4.1,1.6-6.8,4.8-8.1c-0.1,0.7-0.2,1.5-0.3,2.2C19,4.7,19.3,5.2,20,5.3
		c0.1-0.1,0.2-0.1,0.3-0.1c0.3,0.1,0.6,0.3,0.9,0.5c6.4,3.2,10,8.3,10.7,15.2c-0.2,0.2-0.3,0.4-0.3,0.6c-0.1,0-0.2,0-0.2,0.1h-0.1
		c-0.1,0.1-0.2,0.2-0.3,0.3c-0.1,0.1-0.1,0.2-0.1,0.4c0,0.1,0,0.2,0.1,0.3c0.2,0.2,0.4,0.3,0.5,0.3c0.2,0.1,0.3,0,0.4-0.1
		c0.1,0,0.2-0.1,0.3-0.2c0.2-0.1,0.3-0.2,0.6-0.2c0.8,0,1.6,0,2.5,0.1c4,0.1,7.5,0.3,10.4,0.4c0.1,0,0.1,0,0.1,0l0,0h0.1h0.3
		c0.4,0,0.8,0,1.2,0c-0.1-0.1-0.1-0.2-0.2-0.2c-0.3-0.2-0.6-0.3-0.9-0.4c0.2-0.4,0.3-0.8,0.4-1.2c-0.1,0-0.2-0.1-0.3-0.2
		c2.2-6.7,6.9-11.4,14.2-14C60.7,6.3,60.4,5.8,59.8,5.3z M50.8,22.2c0,0,0-0.1,0-0.3c0.1-0.2,0.2-0.5,0.3-0.8
		c0.6-4.7,3.1-7.8,7.4-9.2c-0.8,1.5-0.8,3.3-0.1,5C55.4,18,52.9,19.8,50.8,22.2z M57.9,27.1c-0.1-0.1-0.2-0.2-0.4-0.3
		c-2-1.1-4.1-2.2-6.2-3.3c0-0.3-0.1-0.6-0.2-0.9c2.7-1.5,5.6-2.8,8.8-4.1c-1.6,3.1-1.9,6.1-1,9c-0.4-0.2-0.7-0.4-1-0.5V27.1z
		 M19,16.5c0.2-0.2,0.4-0.5,0.6-0.7c1-1.8,1.3-3.8,1-5.9c2,0.4,3.5,1.5,4.8,3.4c1.2,1.9,2.2,3.8,2.9,5.6c-0.4,0.9-0.5,1.9-0.3,3.1
		c-0.1,0.1-0.2,0.1-0.3,0.1C25.2,18.9,22.3,17.1,19,16.5z M21.2,19.4c2.2,0.7,4.3,1.7,6.2,2.8c-2.3,0.5-4.2,1.3-5.8,2.5
		C22.2,23,22,21.3,21.2,19.4z M21.1,66.2h0.1c0.1,0.4,0.2,0.9,0.3,1.3c3.1,1,6.3,2,9.4,3.3C21.3,73.7,12,73.7,3,70.9
		c3.9-3,8.6-4.6,13.8-4.8c0.1,0,0.2,0,0.3,0c0.5-0.1,1.1-0.1,1.7-0.1c0-0.1,0-0.2,0-0.4c0-0.2,0-0.4,0.1-0.5c-1-0.3-1.9-0.8-2.9-1.2
		c-0.7-0.1-1.3-0.5-1.8-0.9c-0.2-0.1-0.4-0.2-0.7-0.4c-0.1-0.1-0.2-0.2-0.4-0.3C13,62,12.9,61.9,13,61.9c0.6-0.3,1.2-0.7,1.8-1.1
		v0.1c2.8,2.4,6.1,4.3,9.8,5.6c0.9,0.4,1.8,0.7,2.7,1c-2-0.4-4.1-1-6.1-1.6c-0.2-0.1-0.4-0.1-0.6-0.2C20.8,65.9,21,66,21.1,66.2z
		 M33.1,70.6c-0.6-0.6-1.3-1.1-1.9-1.6c1.6,0.5,3.3,0.9,5,1.1c-1,0.2-2,0.5-3,0.8C33.1,70.8,33.1,70.7,33.1,70.6z M45.9,68.9
		c0-0.1,0.1-0.1,0.2-0.1c-0.1,0-0.1,0-0.1,0.1C45.9,68.9,45.9,68.9,45.9,68.9z M46.2,68.7c-0.2-0.1-0.4-0.2-0.6-0.3
		c0.3,0,0.6-0.1,1-0.2C46.4,68.4,46.3,68.5,46.2,68.7z M63.8,61.7c-0.4,0.3-0.8,0.6-1.3,0.8c-1.1,0.6-2.2,1.1-3.4,1.5
		C59,64.1,59,64.2,59,64.3c-0.2,0-0.4,0-0.5,0c-0.2,0.1-0.5,0.2-0.7,0.3C57.9,65,58,65.5,58,66c8.2,0.3,15.4,2,21.6,5.4
		c-11,3.3-21.8,2.7-32.3-1.6c2.4-1.8,5-2.8,8-3.3c0-0.1,0-0.2,0.1-0.4c0-0.3,0.1-0.6,0.1-0.9c0.5-0.2,0.9-0.6,1.2-0.9
		c-0.4-0.1-0.8-0.1-1.2-0.2c1.8-1,3.5-2.1,5.3-3.2h0.1C61.3,61.4,62.3,61.7,63.8,61.7z M53.5,65.2c0.1-0.1,0.1-0.1,0.1-0.1v0.1
		C53.6,65.2,53.6,65.2,53.5,65.2z"/>
	<path style="fill:#3172A1;" d="M36,25.3c-1.6-0.1-3.2-0.1-4.7-0.2c-3.4,0.8-5.8,2.8-7.2,6c-2.9,6.8-2,11.7,2.7,14.7
		c1.9,0.8,3.9,1.4,5.8,1.8c1.1-0.3,2.2-0.6,3.4-1c0.8-0.2,1.5-0.7,2-1.3c0.7,0.9,1.7,1.6,2.9,2c1.9,0.7,3.7,0.6,5.5-0.2
		c6.5-2.9,8.4-7.8,5.6-14.7c-0.9-1.2-1.9-2.3-3-3.4c-3.2-3-6.9-3.7-11-2.2c-0.4-0.4-0.9-0.7-1.5-1.2C36.4,25.5,36.2,25.4,36,25.3z
		 M37.6,28.9c0.2,0.3,0.4,0.5,0.7,0.7c0.5,0,0.9-0.3,1.2-0.8c0.2-0.3,0.5-0.7,0.9-0.9c3-0.2,5.6,0.7,7.9,2.6
		c0.2,0.3,0.4,0.5,0.6,0.8c4,5.7,3.4,10.6-1.9,14.6c-3.4,0.8-6.3,0.1-8.7-2.3c-3.4,2.7-7,3.2-10.8,1.3c-0.8-0.3-1.3-0.8-1.6-1.5
		c-3.6-7.5-1.7-13.1,5.9-16.8c2.2-0.6,4-0.2,5.6,1.3C37.4,28.3,37.5,28.6,37.6,28.9z"/>
	<path style="fill:#3172A1;" d="M29.8,33.7c-0.6,0.6-1.2,1.3-1.5,2.1c0,0.7,0,1.5-0.1,2.2c-0.1,1,0.4,1.3,1.3,1
		c0.3-0.6,0.4-1.2,0.4-1.8c0-1.5,0.7-2.5,2.1-3c0.8-0.2,1.4,0,1.8,0.7c0.1,0.1,0.2,0.3,0.3,0.4c0.1,0.7,0.1,1.3,0.1,1.9
		c0,1.6,0.6,2.4,1.8,2.5c0.3-0.6,0.4-1.2,0.4-1.9c0.1-2.2-0.8-4-2.6-5.3c-0.8,0-1.5,0-2.3-0.1C30.9,32.6,30.3,33,29.8,33.7z"/>
	<path style="fill:#3172A1;" d="M44.8,33c-1,0-1.9,0-2.8-0.1c0,0.1,0,0.1,0,0.1c-0.7,0.2-1.2,0.7-1.6,1.3c0,0.1-0.1,0.2-0.1,0.4
		c-0.1,1-0.1,2-0.2,3c0,0.9,0.3,1.4,1.2,1.5c0.4-0.9,0.5-1.9,0.4-3c-0.1-0.5,0.1-0.9,0.4-1.2c0.7-0.1,1.3-0.1,1.9-0.1
		c0.1,0,0.2,0,0.4,0.1c0.6,0.7,1,1.4,1,2.3c0,1.1,0.6,1.6,1.6,1.4c0.3-0.9,0.3-1.7,0-2.6C46.6,34.9,45.8,33.8,44.8,33z"/>
	<path style="fill:#3172A1;" d="M16.1,41c-0.3,0-0.4,0.2-0.1,0.5c0.6,0.9,1.3,1.7,2,2.4c0.9,1.2,2,2.2,3.4,3.2
		c12.2,7.6,24,7,35.4-1.8c0.2-0.2,0.4-0.4,0.6-0.5c-0.4,0.9-0.6,1.8-0.8,2.9c-1.1,5.7-4.3,9.8-9.6,12.2c-0.9-1-1.8-1.7-3-2.1
		c-0.1,0-0.1,0.1-0.1,0.2c-2.4-1.1-5-1.4-7.9-0.8c-2.3,0.5-4.5,1.6-6.6,3c-0.1,0.1-0.3,0.3-0.3,0.4c-4-1.8-7-5.3-9.2-10.6
		c-1.4-3.5-2.7-6.2-3.8-8c0.3,3.4,1.1,6.6,2.4,9.8c1.6,2.8,3.5,5.3,5.9,7.4c1.2,1,2.4,1.9,3.7,2.6c0.3,0.1,0.5,0.2,0.8,0.2
		c3.3,1,6.5,1.6,9.4,1.8c0.9-0.1,1.9-0.3,3-0.5c12.1-2.9,18.3-10.1,18.5-21.6c0.3-1,0.2-2-0.3-2.9C55,46.2,48.2,50.1,39,50.5
		c-7.5,0.3-13.9-1.6-19-5.7C18.7,43.6,17.4,42.4,16.1,41z M30.5,61.2c0.1-0.1,0.2-0.1,0.4-0.2c0.1-0.4,0.5-0.8,1.1-1
		c4.6-1.5,8.7-1.8,12.4-0.8c0.4,0.5,0.9,0.9,1.4,1.1c-0.5,0.2-1,0.4-1.5,0.5C38.9,62.4,34.3,62.6,30.5,61.2L30.5,61.2z"/>
	<path style="fill:#009659;" d="M46.2,22.9h-0.3H46.2L46.2,22.9z"/>
	<path d="M46.2,22.9h-0.3c0,0.1,0.1,0.3,0.1,0.5C46.1,23.2,46.1,23.1,46.2,22.9z"/>
	<path d="M28.6,23.7L28.6,23.7v-0.1V23.7z"/>
	<path d="M61.7,33.2l0.2-0.2c-0.5-0.4-0.9-0.8-1.4-1.2C60.9,32.2,61.3,32.7,61.7,33.2z"/>
	<path style="fill:#3172A1;" d="M81.6,74.1c-0.4-0.1-0.7-0.2-1.1-0.3v0.1c-3.1,0.5-5.8,1.7-8.2,3.4c0.2,0.1,0.4,0.1,0.6,0
		c2.9-1.1,5.9-2.1,8.9-3C81.7,74.2,81.6,74.2,81.6,74.1z"/>
</g>
</svg>
