<?xml version="1.0" encoding="iso-8859-1"?>
<!-- Generator: Adobe Illustrator 12.0.1, SVG Export Plug-In . SVG Version: 6.00 Build 51448)  -->
<!DOCTYPE svg PUBLIC "-//W3C//DTD SVG 1.1//EN" "http://www.w3.org/Graphics/SVG/1.1/DTD/svg11.dtd" [
	<!ENTITY ns_svg "http://www.w3.org/2000/svg">
	<!ENTITY ns_xlink "http://www.w3.org/1999/xlink">
]>
<svg  version="1.1" id="Layer_1" xmlns="&ns_svg;" xmlns:xlink="&ns_xlink;" width="84.203" height="88.24"
	 viewBox="0 0 84.203 88.24" style="overflow:visible;enable-background:new 0 0 84.203 88.24;" xml:space="preserve">
<g>
	<path style="fill:#3172A1;" d="M76.503,26.409L76.503,26.409c-2.2-1.1-4.6-1.9-7.1-2.4c-0.1,0-0.3,0-0.5,0.1
		c-3.3-0.5-6.1,0.2-8.3,2.3c-0.7,0.6-1.2,1.4-1.4,2.2c-0.1-0.1-0.2-0.2-0.3-0.2c0,0.3,0,0.7,0,1.2c-3-1.9-6.3-2.9-9.9-3.3
		c-0.4,0.2-0.8,0.3-1.3,0.4c0-0.4,0-0.6,0-0.9v-0.1c-0.1,0-0.2,0-0.2,0c1.3-3.9,0.7-7.4-1.9-10.4c0.1-0.1,0.2-0.1,0.3-0.1
		c1-0.7,1.9-1.5,2.6-2.4c0-0.3,0-0.5,0-0.8c0-0.6,0-1.2,0-1.8c0-0.2,0-0.3-0.1-0.4s-0.3-0.2-0.5-0.4c-1-0.8-2.1-1.1-3.5-0.9
		c-0.5,0.3-1.1,0.6-1.8,0.8c-3.6,1.3-5.1,3.4-4.4,6.5c1.1,0.1,2.2,0.3,3.3,0.4c0,0.3-0.1,0.6-0.1,0.8c-2.6,2.2-5.7,3.6-9.1,4
		c0,0.5,0.3,0.9,0.7,1.2c0.4,0.8,0.6,1.7,0.8,2.6c0,0.1,0,0.2-0.1,0.4c-0.3,0.6-0.7,1.2-1,1.8c-0.3,0-0.6,0-0.9,0
		c0.1,0.3,0.3,0.5,0.6,0.8c-0.3,0.4-0.5,0.9-0.6,1.3c-0.9,0.8-1.9,1.4-2.9,1.9c0.1,0.2,0.2,0.4,0.4,0.6c-4.9,3.5-8.1,8.9-9.7,16
		c-0.4,2-0.6,4.1-0.4,6.1c0.2,2.3,0.7,4.4,1.5,6.4c-0.1-0.1-0.2-0.1-0.3-0.1c0,0.1-0.1,0.1-0.1,0.1c-0.1,0-0.1,0-0.1-0.1
		c-0.5-1-1.2-1.9-2.1-2.5c-3.6-6.5-9.2-10.6-16.7-12.6c-3,8.5-1.2,16.4,5.5,23.8c4.8,5.3,10.4,6.7,16.6,4.2c0.3-1.8,0.3-3.5,0-5.2
		c-0.3-1.2-0.6-2.1-1-2.6c0,0,0,0,0-0.1c0.5-0.2,0.8-0.2,1.1,0c0,0.1,0.1,0.2,0.2,0.3c0.3,0.4,0.6,0.7,0.9,1
		c0.2,0.2,0.3,0.3,0.5,0.5c-0.2,0.2-0.4,0.4-0.5,0.7c0.2,0.1,0.4,0.3,0.7,0.5c0.1-0.3,0.1-0.5,0.3-0.8c0.6,0.6,1.2,1.1,1.8,1.6
		c0,0.1-0.1,0.2-0.1,0.3c0.3,0.2,0.7,0.4,1.1,0.6c0-0.1,0-0.2,0-0.3c0.7,0.5,1.5,0.9,2.2,1.3c2,0.8,4.1,1.5,6.4,2.1
		c-0.1,0.1-0.1,0.2-0.2,0.4c-0.3-0.1-0.6-0.1-1-0.2c-1.2,0.5-2.5,0.8-4,1c-2.5,0.3-4.2,1.5-5.1,3.5c2.7,1.6,5.7,2.6,8.8,3.1
		c-4.1,0.9-8,2.1-11.6,3.4c0,0.2,0,0.2,0.1,0.2c4.4-0.4,8.7-1.3,12.8-2.5c0,0.1,0,0.2,0,0.4c1.3-0.4,2.7-0.8,4-1.3
		c0.8,0,1.6-0.1,2.4-0.1l0.7-0.1c0.7-0.1,1.4-0.2,2-0.3c-0.4,0.2-0.9,0.4-1.5,0.5c-2.7,0.7-5.4,1.4-7.9,2.3
		c-0.2,0.6-0.5,1.2-0.7,1.7c3.7-1,7.5-2.2,11.5-3.6c1.5,0.7,3,1.3,4.5,1.9c-0.8-0.2-1.6-0.4-2.5-0.4c-0.5,0.3-1.1,0.5-2,0.7
		c-3.2,0.3-6.1,1.3-8.7,2.9c0.3,0,0.7-0.1,1.1-0.1c4.4-0.9,8.5-1.8,12.4-2.9c-0.1-0.1-0.1-0.1-0.2-0.2c0.9,0.3,1.7,0.6,2.6,0.8
		c-1.9,0.4-3.4,1.1-4.6,2.1c0.3,0.6,0.7,0.8,1.5,0.7c3.5-0.6,5.3-1.3,5.3-2.2c1.9,0.4,3.7,0.7,5.6,1c-0.1-0.1-0.3-0.1-0.5-0.1
		c-0.9,0.3-2,0.6-3.2,0.9c-0.4,0.1-0.7,0.3-0.7,0.7c0.3,0.7,0.7,0.8,1.3,0.5c1.5-0.9,3.1-1.4,4.9-1.7c-0.1-0.1-0.1-0.1-0.2-0.1
		c-0.3-0.1-0.6-0.1-0.9-0.2c1.5,0.2,3.1,0.2,4.7,0.2c-1.4,0.7-2.5,1.4-3.6,2.2c0.5,0.4,1.1,0.4,1.7,0.2c2.1-0.9,4.4-1.8,6.6-2.6
		c3-0.3,6-0.8,9-1.6c0.1-0.1,0.2-0.2,0.3-0.2c0.2-0.2,0.5-0.4,0.7-0.7c0.6-0.1,1.1-0.1,1.7-0.2c-0.1-0.1-0.1-0.1-0.2-0.1
		c-0.3-0.1-0.7-0.1-1.1-0.2c0.3-0.3,0.4-0.7,0.5-1.1c-5.4-3.3-11.3-5.3-17.6-6.1c1.4-0.8,2.5-1.9,3.2-3.4c0-0.1,0-0.2-0.1-0.2
		c-0.6-0.5-1.4-0.8-2.2-0.9c6.3-3.8,9.4-9.9,9.4-18.4c0-2.3-0.3-4.6-1-6.8c0.2,0.3,0.4,0.6,0.7,1c-0.1-0.2-0.1-0.3-0.2-0.4
		c-0.3-0.7-0.7-1.5-1.1-2.2c-0.5-1.4-1.2-2.7-2-3.9c0.1-0.1,0.1-0.1,0.1,0c0-0.2,0-0.3-0.1-0.4c0.3,0.1,0.6,0.2,0.9,0.3
		c-0.2-0.3-0.4-0.5-0.6-0.8c-0.1-0.1-0.2-0.3-0.3-0.4c-0.2-0.1-0.4-0.2-0.6-0.2c-0.3-0.7-0.7-1.3-1.1-1.9c0.9-0.2,2.1-0.4,3.6-0.5
		c-0.1-0.5-0.4-1-0.8-1.4c-1.2-1-1.8-2.3-1.9-3.7c0.4-0.1,0.7-0.2,1.1-0.2c0.7-0.1,1.4-0.3,2-0.5c-0.3,0.8-0.3,1.6,0.1,2.4
		c0,0,0,0.2,0,0.3c0.4,0.7,1.1,0.8,2,0.4c3.8-1.7,5.9-4.8,6.3-9.2c-0.1-0.1-0.2-0.2-0.4-0.3c-0.8-0.3-1.7-0.5-2.6-0.7
		c-0.6,0.2-1.3,0.5-2,1.1C77.403,24.909,76.803,25.709,76.503,26.409z M76.703,26.809c0.3,0.2,0.6,0.2,1-0.1
		c0.8-0.8,1.7-1.4,2.8-1.9c0.4,0.1,0.8,0.2,1.3,0.4l-0.1,0.1c0.1,0.4,0.1,0.8,0,1.2c-1,3.3-2.9,5.1-5.8,5.4c-0.2-0.7-0.2-1.4,0-2.1
		c0.1,0,0.1,0,0.1,0c0-0.1,0-0.1,0-0.1c0-0.1,0-0.1,0-0.1c0-0.1,0.1-0.2,0.1-0.3c-4.2-3.1-8.6-3.3-13.1-0.5
		c-0.1,0.6-0.4,1.2-0.8,1.8c-0.3,0.3-0.5,0.7-0.5,0.9c-0.2,0.1-0.1,0.4,0.2,0.8c-0.1,0-0.1,0-0.2,0.1c0.1,0,0.2,0.1,0.4,0.2l0,0
		c4.2,3.1,7.7,6.5,10.8,10.2c0,0.1,0,0.3,0,0.5l-0.2,0.1c1.8,3.8,2.2,8.4,1.2,13.7c-0.7,4.2-2.8,7.5-6.3,10
		c-6.3,4.6-13,6.7-20.1,6.4c-0.5-0.2-1-0.2-1.6-0.3l-0.2,0.1c-0.1-0.2-0.1-0.3-0.2-0.4c0,0,0,0-0.1,0c-0.1,0.1-0.3,0.2-0.4,0.4
		c-4.4-0.7-8.9-2.2-13.5-4.6c-3.5-1.8-6.2-4.4-8-7.7c0.1-0.1,0.3-0.2,0.4-0.3c-0.1-0.2-0.2-0.2-0.3-0.2c-0.1-0.1-0.3-0.1-0.4-0.1
		c-3.9-7.3-3.4-14.6,1.5-21.8c0.1-0.2,0.2-0.3,0.3-0.4c0.2,0,0.4-0.1,0.5-0.2c0.1-0.2,0.2-0.3,0.3-0.4c0.1-0.1,0.1-0.2,0.1-0.3
		c0.1-0.2,0.1-0.3,0.1-0.4c0-0.1,0.2-0.2,0.3-0.3c1-0.6,1.7-1.2,2.5-1.9c3.7-3.8,8.1-6,13.1-6.5l-0.1-0.2c0.1-0.2,0.2-0.5,0.3-0.7
		c0.1-0.1,0.2-0.1,0.3-0.2c-0.1-0.1-0.1-0.1-0.1-0.2c0.1-0.1,0.2-0.2,0.3-0.4c1.9-3.7,2.1-7.4,0.7-11.1c0-0.1,0.1-0.2,0.1-0.2
		c-0.1,0-0.2-0.1-0.3-0.2c-0.2-0.3-0.3-0.6-0.4-0.8h-0.2c0.1,0.2,0.1,0.5,0.1,0.8c0,0,0,0-0.1,0c-0.1,0-0.3,0-0.4,0.1
		c0-0.1,0-0.1-0.1-0.2c-0.1,0-0.2,0-0.2,0.1c0,0,0,0.1,0,0.2c-1.2,0-2.1-0.3-2.8-0.9c1.5-2.6,3.7-4,6.8-4.4c0,0.1,0.1,0.1,0.1,0.1
		c0.6,0.2,1,0.6,1.3,1.1c0.1,0.1,0.1,0.2,0.1,0.3c-0.1,0.6-0.4,1.1-1.1,1.4c-0.7,0.4-1.2,0.8-1.6,1.4c0-0.1-0.1-0.1-0.2-0.2
		l-0.2,0.2c0,0.1,0.1,0.2,0.2,0.3c0,0.1-0.1,0.2-0.1,0.3c0.1,0.2,0.3,0.4,0.5,0.5c1.8,3.1,2.2,6.5,1.5,10.1c-0.1,0-0.1,0-0.1,0v0.1
		c0,0.2-0.1,0.4-0.1,0.7c-0.1,0-0.1,0-0.2,0c0.1,0,0.1,0.1,0.1,0.2l0,0c-0.2,0-0.4,0-0.6-0.1c-0.2,0.1-0.3,0.1-0.5,0.3
		c-0.1,0.1-0.2,0.1-0.3,0.2c-0.2,0.1-0.2,0.2-0.2,0.4c-0.1,0.1,0,0.2,0,0.3c0.2,0.2,0.3,0.3,0.5,0.4c0.1,0.1,0.3,0,0.4,0
		c0.1-0.1,0.2-0.1,0.3-0.1c0.1-0.1,0.3-0.1,0.4-0.1c0.1,0,0.3,0,0.5,0c0.7,0.1,1.4,0.2,2.1,0.4c4,0.9,7.5,1.7,10.3,2.3l0.4,0.1
		c0.4,0,0.8,0.1,1.1,0.2c0-0.1,0-0.2-0.1-0.2c-0.2-0.2-0.5-0.4-0.8-0.6c0.2-0.2,0.3-0.5,0.4-0.7v-0.1c0.4-0.3,0.8-0.7,1-1.1
		c0.3-0.3,0.5-0.7,0.8-1c0.2-0.2,0.4-0.4,0.6-0.6c0.7-0.4,1.5-0.6,2.3-0.6C68.803,25.309,72.903,25.709,76.703,26.809z
		 M42.403,16.209c0.1-0.2,0.2-0.3,0.3-0.3c0.2,2.8,0,5.8-0.5,9.3c-0.4,0.3-0.7,0.6-1,0.9c-1.2-2.2-3-3.7-5.3-4.4
		c2.6-0.7,4.8-2.1,6.5-4.2c0-0.1,0-0.2,0-0.3C42.403,16.809,42.403,16.509,42.403,16.209z M34.603,27.509c-0.1-0.1-0.1-0.3-0.1-0.5
		c0.7-1.5,0.8-3.2,0.2-5c2.2,1.5,4.1,3,6,4.5h-0.1c-0.4,0.1-0.9,0.2-1.4,0.2c0.1,0.1,0.2,0.1,0.4,0.2c0,0.1,0.1,0.1,0.2,0.1
		c-2.2,0.5-4.2,1.1-6,2c0.1-0.2,0.2-0.4,0.3-0.6c0-0.1,0-0.2,0.1-0.3C34.303,27.909,34.403,27.709,34.603,27.509z M71.203,30.009
		c-0.4,0.2-0.5,0.6-0.6,1.1c0,0.5-0.1,1-0.2,1.5c0.2,0.1,0.3,0.3,0.4,0.4c0.3,0.6,0.6,1.1,1,1.5c-2.2-1.5-4.6-2.6-7.2-3.3
		c0,0.1,0,0.1-0.1,0.1c-0.4,0-0.9,0.1-1.3,0.1c-0.1,0-0.2,0-0.3,0.1c0.4-0.5,0.6-1,0.8-1.4c0.1-0.2,0.1-0.3,0.1-0.4
		c3.5-2,6.7-2.3,9.7-0.6C72.603,29.209,71.903,29.509,71.203,30.009z M69.203,35.509c-0.1,0.4-0.1,0.8-0.1,1.2
		c-1.4-1.6-3.1-2.9-4.8-4.2c2.2,0.8,4.3,1.5,6.3,2.2C70.103,34.809,69.603,35.109,69.203,35.509z M21.003,61.909c0,0,0-0.1,0-0.2
		c0.1,0,0.3,0,0.4,0c0.4,0.6,0.7,1.3,1.1,1.9c-0.2,0-0.4,0-0.6-0.1c-0.4,0.2-0.7,0.6-0.8,1.1c-0.2,0-0.3,0-0.4,0.1
		c0,0.2,0.1,0.4,0.1,0.6v0.1c0,0.2,0.1,0.3,0.2,0.4c0.3,1.3,0.6,2.5,0.9,3.8c0.2,0.9,0.3,1.7,0.3,2.6c-2,0.8-4,1.1-6.2,0.6
		c-1.3-0.7-2.7-1.5-4-2.3c-3.6-2.1-6.3-4.9-8.2-8.5c-0.8-2.1-1.3-4.2-1.6-6.3c-0.3-2-0.7-3.8-1-5.7c0-0.5,0.1-1,0.3-1.5
		c0.1-0.4,0.2-0.7,0.2-1.1c0.1-0.2,0.1-0.5,0.2-0.7c3.1,0.5,5.7,2,7.9,4.4c2.7,3,5.3,5.7,7.9,8.1c0.6,1.5,1.8,2.7,3.6,3.5
		C21.203,62.409,21.103,62.209,21.003,61.909z M45.703,73.309L45.703,73.309c0.1,0,0.1,0,0.2,0
		C45.803,73.309,45.803,73.309,45.703,73.309z M45.303,75.809c0.5-0.5,0.7-1.1,0.6-1.7c0.6,0,1.2,0,1.8,0.1c0.5,0.3,1.1,0.6,1.7,0.9
		c-0.5,0.2-0.9,0.3-1.4,0.4c-0.1,0-0.1,0-0.1,0.1c1,0.3,2.2,0.6,3.4,0.9c-1.6,0.6-2.9,1.6-3.9,2.9c-1.8,0-3.6,0-5.4,0
		c-0.3-0.1-0.7-0.2-1.1-0.2c-0.1,0-0.2,0.1-0.3,0.1c-1.2,0-2.3-0.1-3.4-0.2c0,0.1,0,0.1,0,0.2c-2.9-0.6-5.6-1.5-8.2-2.5
		c2.7-0.8,5.3-1.7,7.7-2.5c0,0.2,0,0.5,0.1,0.7c0.2,0.1,0.3,0.1,0.4,0.1c1-0.7,1.5-1.3,1.6-2c1.7,0.4,3.6,0.7,5.6,0.8
		c-0.4,0.7-0.2,1.4,0.5,2.3C45.103,76.109,45.203,76.009,45.303,75.809z M66.903,72.309v0.2c-2,0.8-3.7,1.8-5.1,2.8
		c-0.5,0.2-1.2,0.4-1.9,0.5c-0.2,0-0.4,0-0.5,0.1c0,0.2,0,0.4,0,0.6c0.3,0,0.5,0,0.9,0.1c0.1,0,0.4,0.1,0.6,0c0,0,0.2,0,0.3,0
		c7.5,0.4,14.1,2.2,19.8,5.3c-11,3.3-21.8,2.7-32.3-1.6c2.4-1.8,5-2.8,8-3.3c0-0.1,0-0.2,0.1-0.4c0-0.2,0-0.4,0.1-0.6
		c-0.2,0-0.3,0-0.4,0c1.7-0.3,2.1-1,1.2-2.1c1.2-0.1,2.2-0.4,3.4-0.6c0.1,0,0.3-0.1,0.5-0.2c0,0,0,0,0,0.1c0.5-0.1,0.8-0.2,1.3-0.3
		c-0.1-0.1-0.1-0.1-0.1-0.2c0.9-0.4,1.9-0.8,2.7-1.2C65.903,71.709,66.403,72.009,66.903,72.309z M54.903,75.909
		c-0.3-0.1-0.6-0.1-0.9-0.1c-0.3,0-0.5,0-0.7,0.1c-1-0.6-2-1.1-3.1-1.6c2.2,0,4.3,0,6.3-0.3
		C56.203,74.709,55.603,75.309,54.903,75.909z"/>
	<path style="fill:#3172A1;" d="M48.403,36.409c-0.1-0.2-0.3-0.3-0.4-0.5c-1.6-0.3-3.1-0.6-4.6-0.9c-3.5,0.1-6.2,1.7-8.1,4.6
		c-5.3,7.8-3.8,13.8,4.5,17.8c1.4-0.2,2.9-0.3,4.3-0.5c0.9-0.1,1.7-0.3,2.3-0.9c0.5,1.1,1.3,1.8,2.5,2.5c1.7,0.9,3.5,1.2,5.4,0.8
		c6.9-1.7,9.6-6.3,8.1-13.5c-0.7-1.4-1.5-2.7-2.3-3.9c-2.7-3.5-6.1-4.9-10.4-4.1C49.303,37.409,48.903,36.909,48.403,36.409z
		 M40.803,37.809c-0.1-0.1-0.2-0.2-0.3-0.2c1-0.4,2-0.8,3.1-1.1c2.2-0.2,4,0.5,5.3,2.2c-0.1,0.4-0.1,0.8,0,1.1
		c0.1,0.2,0.2,0.4,0.4,0.7c-0.3,0.9-0.4,2-0.4,3.2c0.1,0,0.2,0,0.2-0.1c0.4-1,0.7-2,0.9-3c0.3-0.1,0.5-0.3,0.8-0.5
		c0.2-0.4,0.6-0.6,1-0.8c3,0.3,5.4,1.7,7.3,4c0.2,0.2,0.3,0.5,0.5,0.8c0.1,0.3,0.2,0.6,0.3,0.9c0,0-0.1,0-0.2,0
		c0.2,0.2,0.4,0.4,0.5,0.7c0.2,0.7,0.5,1.4,0.6,2.2c0.1,0.1,0.1,0.2,0.1,0.3c-5.6,0.6-10.2,2.8-13.8,6.4c0-0.2-0.1-0.3-0.1-0.3
		c-0.1,0-0.2,0-0.3,0.1c-3.1-4.5-6.9-8.6-11.4-12.4c0.9-1.5,2.3-2.8,4.2-3.9c0.1,0.2,0.2,0.3,0.3,0.4
		C40.103,38.209,40.503,37.909,40.803,37.809z M54.003,52.209c2.8-1.1,5.2-2.3,6.9-3.5c0.5,4.1-1.4,7.2-5.8,9.5
		c-3.2,0.2-5.8-1-7.8-3.4c0.5-0.2,1-0.4,1.5-0.6c0,0,0,0.1-0.1,0.1c0.9,1.5,2,1.8,3.3,0.6c0.1-0.1,0.1-0.2,0.2-0.3
		c0.2-0.6,0.3-1.3,0.2-1.8C52.903,52.609,53.403,52.409,54.003,52.209z M42.403,50.909c-0.3,0.8-0.5,1.6-0.5,2.5
		c1,1.2,2.1,1.3,3.2,0.4c0.1-0.1,0.1-0.1,0.1-0.2c0.3,0.3,0.7,0.7,1.1,1c-3.5,1.8-6.9,1.5-10.2-0.9c-0.6-0.5-1.1-1.1-1.3-1.8
		c-1.1-3.8-1-7,0.4-9.5C37.403,45.409,39.803,48.309,42.403,50.909z"/>
	<path style="fill:#3172A1;" d="M26.803,58.509c-0.3,0.6-0.4,1.2-0.2,1.9c1.4,5.9,5.7,9,12.7,9.5c1,0.1,2-0.1,2.8-0.5
		c3.4-1.7,6.7-1.9,9.8-0.4c0.2,0,0.3,0,0.5,0c0.1,0,0.1,0,0.2,0c0.1,0,0.1,0,0.1-0.1c0.1,0,0.1-0.1,0.2-0.1c-1-1.3-2.3-2-3.7-2.1
		c-0.1-0.4-0.2-0.8-0.2-1.1c0-0.1,0.1-0.1,0.1-0.2h0.1c1.2,0.4,2.6,0.7,3.9,1c2.3,0.4,4-0.2,5.2-1.7l-0.1-0.1
		c-2.7,1.1-5.6,1.2-8.7,0.3c-0.1-0.2-0.2-0.3-0.6-0.4c-0.1,0-0.1,0-0.1,0.1c-0.1,0-0.1,0-0.1,0c-0.1,0-0.2,0-0.2-0.1
		c-0.5-0.2-1-0.4-1.4-0.8c-4.4-3.7-9.2-6.6-14.5-8.8C29.803,54.809,27.803,56.009,26.803,58.509z M27.503,59.809
		c0.3-1.1,0.9-1.9,2-2.5c2.9-1.5,5.6-1,8.3,1.4c3.1,2.9,6.6,5.1,10.5,6.4c-0.3,0.6-0.4,1.1-0.1,1.6c-0.5,0.1-0.9,0.2-1.3,0.3
		c-1.7,0.5-3.4,0.9-5.1,1.2c-6.9,1-11.8-1.4-14.6-7.2C27.303,60.609,27.403,60.209,27.503,59.809z"/>
	<path style="fill:#3172A1;" d="M28.603,59.509l-0.2-0.1c4.1,5.1,10.2,7.4,18.4,7l0.1-0.1
		C40.303,65.609,34.203,63.309,28.603,59.509z"/>
	<path d="M41.803,28.009l0.1,0.2l0,0C41.903,28.109,41.903,28.109,41.803,28.009z"/>
	<path d="M58.903,30.409c0,0.2,0.1,0.4,0.2,0.5c0-0.1,0.1-0.2,0.2-0.4L58.903,30.409z"/>
	<path style="fill:#009659;" d="M59.303,30.509l-0.4-0.1L59.303,30.509L59.303,30.509z"/>
	<path d="M72.703,43.409l0.2-0.1c-0.3-0.6-0.7-1.1-1.1-1.5C72.103,42.309,72.403,42.809,72.703,43.409z"/>
	<path style="fill:#3172A1;" d="M81.903,84.309v0.1c-3.1,0.5-5.8,1.7-8.2,3.4c0.2,0.1,0.4,0.1,0.6,0c2.9-1.1,5.9-2.1,8.9-3
		c-0.1-0.1-0.2-0.1-0.2-0.2C82.604,84.509,82.303,84.409,81.903,84.309z"/>
	<path style="fill:#3172A1;" d="M68.003,4.009c0-0.1,0-0.2,0-0.3c0-0.2,0-0.3,0-0.4s0-0.2,0-0.4c0-0.1,0-0.2,0-0.4
		c-0.1-0.1-0.2-0.2-0.3-0.3c-2-1.9-4.4-2.6-7.3-2c-0.3,0.1-0.5,0.3-0.7,0.6c-0.2,0.3-0.3,0.5-0.5,0.7c-0.1,0.2-0.2,0.3-0.3,0.4
		c0,0.4,0,0.8,0,1.1c-0.1,0.5-0.2,1-0.3,1.5c0,0.2-0.1,0.3-0.2,0.4c-0.1,0.2-0.3,0.3-0.5,0.3c-0.2,0.2-0.5,0.3-0.9,0.5
		c-0.1,0.2-0.3,0.4-0.4,0.6c-0.5,0.5-0.7,1.1-0.8,1.6c0,0.2,0,0.3,0,0.4c0,0.2,0.1,0.5,0.2,0.7c0.2,0.3,0.4,0.5,0.7,0.8
		c0.1,0.1,0.2,0.2,0.3,0.4c0.7,0.2,1.4,0.5,2.1,0.8c0.1,0.1,0.1,0.2,0.2,0.3c-0.4,0.2-0.6,0.5-0.9,0.7c-0.7,0.5-1.2,1.1-1.6,1.9
		c0,0.2,0,0.3,0,0.4c0.1,0.5,0.1,1.1,0.3,1.5c0.1,0.6,0.2,1.2,0.2,1.9c0,0.1,0,0.2,0,0.3c0,0.2-0.1,0.2-0.1,0.3
		c-0.3,0.2-0.7,0.4-1,0.5c-0.2,0.2-0.3,0.5-0.5,0.7c-0.4,0.4-0.8,1-1,1.5c-0.1,0.2-0.2,0.3-0.3,0.4c0,0.4,0,0.8-0.1,1.1
		c0,0.5,0.1,0.9,0.5,1.2c0.1,0.1,0.2,0.2,0.4,0.3c0.4,0,0.7-0.1,1-0.2c0.5-0.3,0.3-0.6-0.4-1c-0.1,0-0.3-0.1-0.4-0.3
		c0.1-0.2,0.1-0.4,0.3-0.6c0.3-0.5,0.6-1,0.9-1.6c0-0.1,0.1-0.2,0.2-0.4c0.3,0,0.6,0,0.7,0.2c0.3,0.3,0.8,0.2,1.3-0.2
		c0.1,0,0.1-0.1,0.2-0.2c0.1-0.5,0-0.9-0.2-1.3c-0.2-0.2-0.3-0.6-0.3-1c0-0.1,0-0.2,0-0.4c1.2,0.3,2.4,0.2,3.6-0.3
		c0.1,0,0.2-0.1,0.3-0.3c0-0.2,0.2-0.5,0.2-0.7c0.1-0.5,0.1-0.9-0.2-1.2l0.4-0.1c0.3,0.2,0.7,0.2,1.1,0.2c0.4-0.1,0.7-0.2,1-0.6
		c0-0.1,0-0.2,0.1-0.3c0-0.3,0-0.5,0-0.8c-0.1-0.6-0.4-1-1.1-1.3c0,0,0,0,0-0.2c0.2-0.1,0.4-0.3,0.5-0.4c0.3-0.4,0.6-0.8,1-1.1
		c0-0.1,0-0.2,0.1-0.4c0-0.3,0-0.7,0.1-1.1c0-0.4-0.1-0.7-0.3-1c-0.1-0.2-0.2-0.3-0.4-0.5c0-0.1,0-0.2,0-0.2c1.3-0.3,2.3-1.1,3-2.3
		C67.903,4.309,67.903,4.209,68.003,4.009z M62.203,2.709c-0.5-0.1-0.9-0.1-1.3-0.2c-0.1,0.1-0.3,0.2-0.5,0.2
		c-0.7,0-0.6-0.4,0.4-1.3c2.6-0.7,4.6-0.1,6,2c-0.4,1.1-1.3,1.7-2.6,1.9C63.803,4.209,63.103,3.309,62.203,2.709z M62.703,9.209
		c-0.1-0.2-0.3-0.3-0.3-0.4c-0.5-0.5-1-1.1-1.4-1.9c0.8-0.6,1.4-0.6,2,0.3c0.1,0.2,0.1,0.4,0.3,0.6
		C63.903,8.809,63.703,9.209,62.703,9.209z M58.703,6.309c0.2-0.2,0.2-0.2,0.2,0c-0.5,1.3-1,2-1.4,2.2c-0.1-0.1-0.2-0.2-0.1-0.3
		C57.503,7.509,57.903,6.809,58.703,6.309z M59.503,13.009c0.3-0.1,0.5,0,0.7,0.1c0.5,0.4,1,0.8,1.6,1.2c-1.1,0-2.1-0.1-3-0.5
		c-0.4-0.1-0.2-0.4,0.6-0.8C59.403,13.009,59.403,13.009,59.503,13.009z"/>
	<path style="fill:#3172A1;" d="M3.203,84.409c0.2,0.1,0.4,0.1,0.7,0.1c4.4-1.2,8.9-2.5,13.3-3.7c-0.1-0.1-0.2-0.2-0.2-0.2
		c-0.7-0.2-1.4-0.4-2.1-0.4l0,0C10.403,81.109,6.503,82.509,3.203,84.409z"/>
	<path style="fill:#3172A1;" d="M29.503,81.009c-0.2,0-0.4-0.1-0.6-0.1c-0.5-0.1-1-0.2-1.5-0.2c-0.1,0-0.4,0.1-0.5,0.1
		c-4.9,0.8-9.3,2.4-13.2,5C19.103,84.509,24.403,82.909,29.503,81.009z"/>
	<path style="fill:#3172A1;" d="M19.003,82.509c4.6-0.9,5.9-1.9,3.9-2.8c-0.7,0.2-1.6,0.4-2.5,0.6c-5.4,0.7-10.2,2.5-14.4,5.1
		C10.003,84.509,14.303,83.509,19.003,82.509z"/>
</g>
</svg>
