<?xml version="1.0" encoding="iso-8859-1"?>
<!-- Generator: Adobe Illustrator 12.0.1, SVG Export Plug-In . SVG Version: 6.00 Build 51448)  -->
<!DOCTYPE svg PUBLIC "-//W3C//DTD SVG 1.1//EN" "http://www.w3.org/Graphics/SVG/1.1/DTD/svg11.dtd" [
	<!ENTITY ns_svg "http://www.w3.org/2000/svg">
	<!ENTITY ns_xlink "http://www.w3.org/1999/xlink">
]>
<svg  version="1.1" id="Layer_1" xmlns="&ns_svg;" xmlns:xlink="&ns_xlink;" width="101" height="100" viewBox="0 0 101 100"
	 style="overflow:visible;enable-background:new 0 0 101 100;" xml:space="preserve">
<g>
	<path style="fill:#FFFFFF;" d="M101,100V0H0v100H101z M59.5,79.5c4.5,0.4,7.4,2.5,8.9,6.1c0.1,0.1,0.1,0.2,0.1,0.4
		c4.4,6.4,2.8,10.6-4.5,12.6c-2.1,0.5-4.1,0.7-6.2,0.6c-0.7,0-1.4-0.2-2-0.5c-6.5,2.1-9.4-0.2-8.8-6.8C47.8,84.2,52,80.1,59.5,79.5z
		"/>
</g>
<g>
	<path style="fill:#3172A1;" d="M90.2,47.7c-0.7,0.1-1.4,0.2-2,0.4C84.6,48,81.1,48,77.6,48c-1.4,0.1-2.7,0.3-4.1,0.6
		c0-0.1,0-0.1,0-0.2c-0.5-0.1-0.8-0.1-1.2-0.2c0,0.1,0,0.1,0,0.1c-1.5,0.2-2.9,0.5-4.3,0.8c1.5-3.7,1.8-7.9,0.9-12.8
		c-0.4-2.4-1.2-4.7-2.4-6.7c-1.1-2-2.3-3.7-3.8-5.3c0.4,0.2,0.8,0.3,1.3,0.3c-0.2-0.2-0.5-0.5-0.7-0.7c-1.5-1.3-2.4-3-2.8-4.9
		c0.1-0.1,0.1-0.2,0.2-0.3c1.2-1.2,1.8-2.1,1.8-2.8c0.4,0,0.9,0,1.4,0.1c-0.1-0.1-0.2-0.2-0.4-0.3c-0.1-0.2-0.3-0.3-0.5-0.3
		c0.3-0.1,0.5-0.2,0.8-0.4c-1-0.6-1.8-1.2-2.4-2c0-0.1,0.1-0.2,0.2-0.3c1.1-0.8,1.8-1.5,1.9-2c0.2,0,0.3,0,0.4,0
		c0,0.3,0,0.5,0.1,0.8c0.2,1,0.8,1.9,1.6,2.6c0.8,0,1.6-0.1,2.4-0.1c0.4-0.3,0.7-0.6,0.9-0.9c1.3-2.5,2.1-5.2,2.4-8.1
		c-0.1-0.1-0.2-0.2-0.3-0.4c-0.3-1.9-1.5-3.3-3.2-4.1c-0.1,0-0.3,0-0.3,0c-2.3,1-3.6,2.7-3.9,5.2c-3.1-0.1-6,0.4-8.9,1.6
		c-5.3,2.1-7.6,5.3-6.8,9.5c-0.3-0.1-0.5-0.1-0.8-0.2c-3-1-6.2-1.4-9.6-1.1c-0.2,0.1-0.4,0.2-0.7,0.4c0,0.1,0,0.2-0.1,0.4
		C34.4,9.1,29,5.3,20.6,4.9c0-0.7,0-1.3-0.2-1.9c-0.1-0.6-0.4-1.1-0.9-1.5c-0.2-0.1-0.5-0.2-0.8-0.3C18.2,1.1,17.6,1,17,1
		c-2.3,1.2-3.3,3.2-3.1,6.2c0.2,2.2,0.9,4.2,2.2,5.9c1.1,0,2.2,0,3.3,0c0.3-0.3,0.6-0.6,0.9-1c0.1-0.1,0.2-0.2,0.3-0.4
		c0-0.1,0-0.2,0-0.3c0-0.4,0.1-0.8,0.2-1.1c0-0.2,0.1-0.3,0.2-0.4c0.3-0.1,0.5-0.2,0.8-0.3c0.2,0.2,0.5,0.3,1,0.4
		c0,0.1,0.1,0.2,0.2,0.3c0.8,0.7,1.3,1.5,1.5,2.3c-1.1,1.6-2.6,2.9-4.5,3.9c-0.2,0-0.3,0.1-0.4,0.2c0,0,0,0-0.1,0
		c0,0.2,0.1,0.3,0.1,0.3c0.6,0.6,1.2,1.1,2,1.4c0.2,0.2,0.3,0.4,0.4,0.6c0.6,0.7,1,1.5,1.3,2.4c-1.2,0.4-2.2,0.9-2.9,1.6
		c-0.8,0.4-1.4,1-1.8,1.7c-3.9,4.3-6,10-6.2,16.9c-0.1,2.2,0.1,4.2,0.7,6.2c0.2,1,0.6,1.9,1,2.9c-3.7,1.2-6.3,3.7-7.7,7.4
		c-1.2,2.9-1.2,5.8,0,8.8c1.6,4.3,4.3,5.5,8.2,3.5c3.5-1.9,5.5-4,5.9-6.3c1.5-0.3,2.9-1,4.2-2.1c0.1,0.1,0.3,0.3,0.5,0.4
		c0-0.3-0.1-0.5-0.1-0.8l0,0c1.7,0.7,3.6,1.3,5.7,1.8c0.7,0.1,1.4,0.2,2.2,0.3c-0.4,0.1-0.6,0.1-0.9,0.2c1.3,0.1,2.5,0.5,3.5,0.9
		c0.2-0.1,0.3-0.1,0.4-0.1s0.1,0,0.1,0.1c0.2-0.1,0.3-0.1,0.4-0.1c0.3,0.1,0.5,0.2,0.8,0.2c0,0,0,0,0.1,0c0,0,0,0,0-0.1
		c1.4,1.3,2.7,2.8,3.7,4.4c-0.1,0.1-0.1,0.3-0.2,0.5c-0.2,1.2-0.3,2.3-0.3,3.4c-1.1,0.1-2.3,0.1-3.5,0.2l-0.2,0.1
		c0.4,0.1,0.8,0.2,1.2,0.2c-1.6,0-3.1-0.1-4.6-0.1c-6.1,0.6-12.2,1.5-18.3,2.8c-2.5,0.5-4.7,1.2-6.9,2.1c-0.3,0-0.7,0-1.1-0.1
		c0,0.1,0,0.1,0,0.1c-0.5,0.2-1,0.3-1.5,0.5c-0.3,0.1-0.6,0.2-0.8,0.3c-0.4,0.3-0.8,0.5-1.2,0.8c-0.2,0.2-0.2,0.5-0.2,0.7
		c-0.1,0.3-0.1,0.5-0.1,0.8c0,0.2,0,0.5,0,0.7c0,0.5,0.1,0.9,0.3,1.2c0.2,0.4,0.5,0.8,1,1.1c0.4,0.1,0.8,0.2,1.1,0.3
		c-0.9,0.4-1.7,0.8-2.5,1.3c0.2,0,0.5,0,0.7-0.1c0.9-0.3,1.9-0.6,2.9-1c1,0.3,2,0.5,3.1,0.8c-0.9,0.2-1.6,0.6-2,1.3
		C8.3,87,8.7,87,9,86.8c0.7-0.3,1.5-0.5,2.2-0.7c1.6,0.3,3.1,0.7,4.7,1c0.3,0.1,0.6,0.2,1,0.3c-1,0.4-1.9,1-2.6,1.7
		c0.3,0,0.5,0,0.7-0.1c1.4-0.5,2.4-1,2.9-1.4c2.2,0.4,4.4,0.9,6.5,1.3c-1.5,0.3-2.8,0.8-3.8,1.7c0.3,0,0.5,0,0.7,0
		c1.6-0.5,3.2-0.9,4.9-1.3c1.4,0.2,2.8,0.5,4.2,0.8c-0.3,0.1-0.6,0.2-0.9,0.3c-0.9,0.2-1.6,0.6-2.1,1.2c0.3,0.1,0.5,0.1,0.7-0.1
		c1.2-0.4,2.5-0.8,3.8-1.1c1.4,0.2,2.9,0.5,4.4,0.8c-1.7,0.5-3.2,1.2-4.7,2c0,0.7,0.6,0.8,1.6,0.4l-0.1-0.1c2.2-0.8,3.7-1.5,4.5-2.1
		c1.7,0.3,3.4,0.6,5.1,0.9c-0.1,0.2-0.3,0.4-0.6,0.5c0.3,0.1,0.6,0.2,0.9,0.3c-1.1,0.3-1.9,0.8-2.4,1.5c0.2,0,0.4,0.1,0.7,0
		c1.3-0.1,2.3-0.5,2.9-1.1c1.5,0.4,3.1,0.9,4.7,1.2c-1.2,0.3-2.3,0.6-3.3,1.1c0,0.2,0.1,0.2,0.1,0.2c1.5,0.2,2.9-0.1,4.4-0.9
		c0.5,0.1,0.6,0.1,0.5,0c2.1,0.5,4.3,0.9,6.5,1.2c2.7,0.3,5.5,0.6,8.4,0.7c-0.5,0.2-0.9,0.4-1.3,0.6c0.1-0.1,0.3-0.1,0.5-0.2
		c0.3-0.1,0.8-0.2,1.2-0.3c0.3,0,0.6,0,0.9,0c0-0.1,0-0.2,0-0.3c8.1-2.7,16-5.6,23.6-8.9c5.7-0.2,8.4-2.5,8.1-6.9
		c-0.1-0.2-0.2-0.3-0.3-0.4c-0.4-0.9-1.1-1.6-1.9-2.2c-0.1,0-0.1,0-0.1-0.1c-0.1,0-0.2-0.1-0.3-0.1c-0.1-0.1-0.2-0.1-0.2-0.2
		c-0.1-0.1-0.1-0.2-0.2-0.3c-0.2-0.2-0.4-0.5-0.6-0.8c-0.3-0.3-0.5-0.7-0.8-1c-0.4-0.5-0.7-1-1.1-1.6c-0.3,0-0.5,0-0.8,0
		c-1.8-0.1-3.6-0.1-5.4-0.2c0.2-4.7,0.1-9.3-0.5-13.9c1.1-0.3,2.2-0.6,3.3-0.9c0.2-0.2,0.4-0.4,0.7-0.7c0.1-0.1,0.2-0.2,0.4-0.4
		c0.4-1.5,1.2-2.9,2.2-4.1c0.1-0.1,0.2-0.2,0.4-0.4c0-0.2,0.1-0.5,0.2-0.7c-0.1-0.2,0-0.3,0.1-0.4c0.6-0.6,1.1-1.2,1.3-1.9
		c0.1-0.1,0.1-0.2,0.1-0.4c-0.1,0-0.2-0.1-0.3-0.1c0.1-0.1,0.3-0.1,0.5-0.2c0,0,0,0,0-0.2c-0.4-0.4-0.9-0.8-1.4-1.1
		c-0.3-0.3-0.5-0.5-0.8-0.7c-0.3-0.1-0.6-0.2-0.8-0.2C91.5,47.8,90.8,47.7,90.2,47.7z M92.5,49.6c0.1,0.1,0.3,0.2,0.4,0.3
		S93,50,93,50c-0.7,0-1.5-0.1-2.2-0.1C91.3,49.8,91.9,49.7,92.5,49.6z M88.7,50.2c-0.1,0-0.2,0-0.3,0c-1.5-0.2-3-0.3-4.5-0.5
		c-2.2,0.5-4.5,0.9-6.9,1.1c-2.5,0.1-5,0.6-7.3,1.2c-0.2-0.1-0.3-0.3-0.4-0.4c-0.3-0.5-0.7-1-1.1-1.5c-0.2-0.1-0.3-0.2-0.5-0.3
		c0.2,0,0.3,0,0.5,0c5.1-0.1,10.3-0.2,15.6-0.2c0.3,0,0.6,0,1,0c1.1,0.3,2.3,0.5,3.6,0.5C88.5,50.1,88.6,50.1,88.7,50.2z M82.6,61
		c1-0.2,2-0.4,2.9-0.7c-0.3,4.8-0.1,9.4,0.7,13.8c-1.3-0.1-2.5-0.2-3.7-0.3C82.8,69.4,82.8,65.1,82.6,61z M90.2,55.9
		c-0.4,0.9-1,1.6-1.6,2.2c-8.4,1.2-16.4,2.8-24.1,4.8c0-0.6,0-1.1,0-1.5c2.1-2.9,3.9-5.8,5.3-8.8c5.8,0,11.5-0.4,17.1-1.4
		c0.3,0.2,0.6,0.3,1.1,0.2c1.9-0.2,3.4-0.1,4.5,0.3C91.6,53.1,90.8,54.5,90.2,55.9z M92.2,76.5c0.1,0,0.2,0.1,0.3,0.2
		c0.3,0.3,0.5,0.5,0.7,0.8c-5.6-0.5-11.3-0.9-17-1.1c0-0.1,0.1-0.3,0.2-0.5c0.1-0.2,0.1-0.4,0.1-0.7c0.1-0.1,0.1-0.2,0.3-0.2
		C81.9,75.2,87.1,75.6,92.2,76.5z M94.2,78.7c0,0.1,0,0.1,0.1,0.2c0.3,0.4,0.7,0.6,1.2,0.7c0,0.9,0.5,1.9,1.7,3
		C97.1,82.7,97,82.8,97,83c-0.3,0.4-0.5,0.8-0.8,1.1C87.1,85.7,78.4,88,70,91.2c0-0.1,0-0.2-0.1-0.2c-0.1,0-0.2,0-0.2,0.1
		c0.1-0.5,0.1-1,0.1-1.5c-0.1-1-0.4-1.9-1.1-2.6c-0.2-0.2-0.2-0.3-0.4-0.3c-1.4-0.6-2.8-1.1-4.3-1.6c0.1-0.5,0.2-1.1,0.3-1.7
		c0.1-1.2,0.2-2.3,0.2-3.4c0.7-0.1,1.4-0.3,2.2-0.7c1.2-0.6,1.8-1.1,1.8-1.4c-1.4,0.4-2.7,1-4,1.7c0-0.2,0-0.4,0.1-0.6
		c1.3-0.6,2.4-1.2,3.2-1.8l0,0c-1.2,0.3-2.3,0.8-3.2,1.5c0.1-0.7,0.1-1.3,0.1-1.9v-0.1c0.1,0.1,0.2,0.1,0.3,0.1
		c0.2,0.1,0.3,0.1,0.5,0.1c0.3,0.1,0.7,0.1,0.9,0.1C75.5,77.8,84.7,78.4,94.2,78.7z M68.5,3.3c0.4,0.9,0.8,1.8,1.3,2.6
		c-0.4,0.4-0.6,0.9-0.5,1.5c0,1.4-0.2,2.7-0.5,4.1c-0.8,1-1.8,1.3-2.8,1c-0.3-0.3-0.6-0.6-0.8-1c-0.3-0.5-0.2-1.1,0.3-1.6V9.7
		c-2.1-0.3-4.2-0.2-6.3,0.2c-5.3,1.2-7.6,3.7-6.7,7.5c-0.1,0.1-0.2,0.2-0.2,0.4c-0.1-0.1-0.1-0.1-0.2-0.1c-0.1,0.3-0.3,0.7-0.3,1
		c-0.2,0.2-0.4,0.3-0.6,0.5c2,0.5,4,1.3,5.9,2.3c0.3,0.1,0.7,0.3,1,0.4c0.8,0.6,1.5,1.1,2.3,1.7c1.5,0.9,2.6,2.1,3.5,3.6
		c0.1,0.1,0.1,0.3,0.1,0.4c0.2,0.4,0.4,0.6,0.5,1c0,0,0,0.1,0,0.2c0,0,0,0.1,0,0.2c2,3.2,3.1,7.4,3.1,12.4c0,3.6-1.1,6.8-3.2,9.5
		c-2.5,1.9-4.7,4.1-6.7,6.6c0-0.1-0.1-0.2-0.1-0.4c-8.3,5.8-18.3,6.9-29.8,3.2c-3.8-1.2-7-3.3-9.4-6.4c-5.3-6.6-6.2-13.9-2.6-22
		c0.1-0.2,0.1-0.3,0.3-0.4c0.2-0.1,0.3-0.2,0.4-0.4c0.1-0.1,0.2-0.2,0.2-0.4c0.1-0.1,0.1-0.2,0.1-0.3c0-0.2,0-0.3,0-0.4
		c0.1-0.1,0.1-0.2,0.2-0.4c0.9-0.6,1.6-1.5,2.2-2.3c0.2-0.3,0.4-0.6,0.6-0.8c0.1,0,0.2,0.1,0.3,0.1c-0.1,0.1-0.2,0.2-0.2,0.3
		c0.3,0.2,0.7,0.4,1,0.6c0.1,0,0.1,0.1,0.1,0.2l0.6,0.2c2.8-3.4,6.2-5.6,10.3-6.8l-0.1-0.2c0.2-1.2,0.2-2.4,0-3.6
		c-0.9-5.7-4-8.7-9.4-9c-0.1-0.1-0.1-0.1-0.1-0.1c-0.3,0-0.4,0-0.5,0.1c-0.8-0.1-1.6,0-2.4,0.1c0,0.7-0.1,1.4-0.2,2.2
		c0,0.2-0.2,0.5-0.3,0.8c-0.6,0.1-1.2,0.3-1.8,0.4c0,0,0,0-0.1-0.1c-0.4-0.4-0.7-1-0.7-1.7c-0.1-0.7-0.2-1.4-0.4-1.9
		c-0.3-1.6-0.3-3,0-4.5c0.2-0.2,0.5-0.5,0.8-0.7c0.7-0.5,1.4-0.6,2.1,0c0.6,0.4,0.8,1,0.7,1.9c-0.1,0.4-0.1,0.9-0.1,1.4
		c2.8,0.4,5.5,1.1,8.3,2.2c2.9,1.1,4.8,3.1,5.8,5.9c0.6,1.9,1.3,3.3,2.1,4.3c-0.2,0-0.4,0-0.6,0c-0.1,0.1-0.3,0.2-0.4,0.3
		c-0.2,0.1-0.3,0.2-0.3,0.3c-0.2,0.2-0.2,0.3-0.2,0.4c0,0.2,0,0.3,0.2,0.4c0.1,0.1,0.3,0.2,0.5,0.3c0.1,0,0.3,0,0.3-0.1
		c0.2-0.1,0.3-0.2,0.4-0.2c0.1-0.1,0.3-0.2,0.5-0.3c0.5,0,1,0,1.5,0.1c0.1-0.5,0.2-1,0.3-1.4c-0.1,0-0.3,0.1-0.5,0.1
		c0-0.3-0.1-0.5-0.2-0.8c0-0.1,0-0.2,0-0.4c0.1,0,0.3,0,0.4,0c4,0.2,7.4,0.3,10.3,0.4c0.1,0,0.2,0,0.3,0.1c0.1,0,0.2,0,0.3,0
		c1.1,0.3,1.9,0.3,2.5,0c-0.1-0.1-0.2-0.2-0.3-0.2c-0.7-0.3-1.3-0.5-1.9-0.6C51,9.7,56.5,6.4,65.1,7c0.2-0.4,0.3-0.7,0.3-1.1
		c0.1-0.8,0.4-1.5,0.6-2.3c0.1-0.1,0.2-0.2,0.3-0.4c0.4-0.6,0.9-0.8,1.6-0.7C68.1,2.7,68.3,3,68.5,3.3z M61,10.9
		c-0.1,0.1-0.2,0.2-0.2,0.4c-0.3,0.5-0.6,1-0.8,1.4c0,0.2,0,0.3,0.1,0.4c0.2,0.6,0.5,1.1,0.9,1.5c-0.9-0.2-1.9-0.2-3,0
		c-1.1,0.3-2.3,0.7-3.5,1.2c-0.5,0.3-1,0.6-1.3,0.9c1.2-4.2,4.1-6.3,8.6-6.1C61.6,10.7,61.3,10.8,61,10.9z M61,16
		c-0.6,0.6-1.1,1.2-1.5,1.9c0,0.1,0,0.2,0,0.3c0,1.5,0.2,2.8,0.7,3.8c-2-1.6-4.1-2.8-6.5-3.7c0.3-0.1,0.7-0.2,1-0.4
		C56.9,16.8,59,16.2,61,16z M24.4,9.9c0.2,0.1,0.5,0.2,0.8,0.3c2.2,1.2,3.9,2.7,5.2,4.8c0,0.2,0,0.5,0,0.7c-0.1,0.5-0.1,0.9-0.1,1.2
		c0.1,1.1,0.3,2.1,0.6,2.9l0,0c-2.7,1-5.1,2.3-7.2,3.8c0.3-0.6,0.6-1.2,0.8-1.9c-0.5-1.4-1-2.5-1.5-3.5c1,0.1,2.1,0,3.4-0.3
		c1.4,1.3,2.7,1.8,4.1,1.5c0,0,0,0,0-0.2c0-0.1-0.1-0.2-0.2-0.3c-0.4-0.7-1-1.2-1.8-1.6c-0.1-0.1-0.3-0.2-0.5-0.3s-0.5-0.2-0.7-0.2
		c-1.7-0.1-3.4-0.2-5.1-0.2c1.4-0.7,2.5-1.7,3.3-3c0-0.2,0-0.5,0-0.7c0.1-0.6,0-1.1-0.1-1.5c-0.2-0.2-0.3-0.3-0.4-0.5
		C24.8,10.5,24.6,10.2,24.4,9.9z M20.7,25.2c0,0.1-0.1,0.1-0.1,0.2h-0.1C20.6,25.3,20.7,25.3,20.7,25.2z M22.5,60.7
		c0.2,0,0.3-0.1,0.4-0.2c0.2,0.2,0.5,0.3,0.7,0.4c-2.7,1-5.5,2-8.3,2.7c0,0.1,0,0.2,0,0.2c1.6,0.4,3,0.6,4.3,0.4
		c-2.3,3.5-5.4,5.4-9.5,5.8C6,66.3,5.6,62.1,9,57.5c1.4-2,2.8-3.8,4.3-5.2c0.5-0.1,1-0.2,1.3-0.4c1.6,3.2,3.8,5.7,6.7,7.7l0,0
		c-1.7,0.6-3.5,0.9-5.4,0.9c0,0.2,0.2,0.3,0.3,0.4c1.9,0.2,3.9,0.2,5.8,0.2C22.2,61,22.4,60.9,22.5,60.7z M16.1,77.4
		c3.4-0.4,6.6-0.9,9.7-1.5c-1.3,0.1-2.6,0.2-3.9,0.3c5.5-0.9,11-1.4,16.6-1.3c-4.3,1-8.5,2.1-12.7,3.3h0.1c4.7-0.4,9.1-1.5,13-3.3
		c0.6,0,1.2,0,1.9,0c0.1,0.7,0.2,1.4,0.5,2c-3.5,0.6-6.9,1.4-10.2,2.5c3.3-0.5,6.8-1.2,10.3-2.2c0.2,0.6,0.5,1.1,0.8,1.7
		C42,79,41.8,79,41.5,79.1c-1.9,0.2-3.6,0.9-5,2c0.1,0.1,0.1,0.1,0.2,0.1c1.9-0.8,3.8-1.4,5.7-2c0.2,0.4,0.5,0.7,0.7,1
		c3.3,0,6.3-1.1,9-3.4c0.3-0.2,0.5-0.5,0.8-0.7c1.7,0.3,3.5,0.6,5.2,1c0.2-0.1,0.4-0.1,0.6-0.1c0,1.5,0,2.9,0,4.3
		c-0.2,0-0.3,0-0.3,0.2c0.1,0.3,0.1,0.7,0.2,1.1c-1.6-0.3-3.1-0.5-4.5-0.8C54,81.7,54,81.6,54,81.6l0,0c0,0.1-0.1,0.1-0.2,0.1
		c-1.3-0.3-2.7-0.6-4.1-1c-0.5,0.4-1,0.8-1.5,1.3c0-0.1-0.1-0.2-0.2-0.2l0,0c-1.2,0.3-2.2,0.8-3.1,1.5c0.5-0.1,1.1-0.1,1.6-0.2
		c0.3-0.2,0.6-0.3,0.8-0.3c-0.3,0.3-0.6,0.6-0.9,1c-1.2-0.2-2.3-0.5-3.5-0.7l-0.1,0.1c0,0,0.1,0,0.2,0.1c-0.1-0.1-0.2-0.1-0.2-0.1
		c-10.2-2.3-20.6-3.9-31.3-4.6C13.1,78.1,14.6,77.8,16.1,77.4z M15.9,82.8c0,0.7,0,1.3,0,1.9c0.4,0.4,0.7,0.7,1,1
		c-2.1-0.6-4.3-1.2-6.4-1.9c0.2-0.2,0.4-0.6,0.6-0.9c0.3-0.4,0.4-0.8,0.3-1.2c-0.3-0.4-0.5-0.9-0.7-1.4c0-0.3-0.2-0.6-0.3-0.8
		c-0.1-0.1-0.2-0.1-0.3-0.1c0.1,0,0.2,0,0.3,0c2.6,0,5.1,0.2,7.7,0.5c-0.7,0.3-1.3,0.6-1.8,1.1C15.9,81.5,15.9,82.2,15.9,82.8z
		 M18.8,81.3c0,0,0,0,0.1,0c1.2,0,2.3,0.5,3.3,1.3c0,0.2,0,0.5,0,0.7c0.1,0.8,0,1.4-0.4,1.9c-0.6,0.2-1.2,0.4-1.9,0.5
		c-0.3-0.1-0.7-0.3-1-0.4c-0.5-0.4-1-0.7-1.4-1.2c-0.1,0-0.1,0-0.1-0.1c0-0.2-0.1-0.3,0-0.4C17,82.4,17.5,81.6,18.8,81.3z M4.9,81.6
		c0-0.1,0.1-0.2,0.2-0.3c0,0.3,0,0.5,0.1,0.8l0,0c-0.1,0-0.2,0-0.3-0.1C4.8,81.8,4.8,81.7,4.9,81.6z M9.7,82.2c0,0.2,0,0.2-0.1,0.2
		C7.2,83.1,6.3,82.6,7,81c0.7-0.1,1.4-0.1,2.2-0.2c0.1,0.3,0.3,0.5,0.4,0.7C9.6,81.7,9.7,82,9.7,82.2z M36.2,84.9
		c-0.3-0.7-0.8-1.3-1.2-1.7c2.1,0.4,4,0.7,5.9,1.1c0.1,0,0.2,0,0.4,0c-0.2,0.1-0.3,0.2-0.5,0.3c-0.1,0-0.3,0.1-0.4,0.2
		c-0.5,0.6-0.7,1.2-0.8,1.9c-0.2,2.3,0.4,3.7,1.6,4.4c-1.5-0.3-3-0.5-4.6-0.8c-0.8-0.2-1.6-0.3-2.4-0.5c1.6-0.6,2.3-2.1,2.2-4.6
		C36.3,85.1,36.2,85,36.2,84.9z M33.7,85c0.1,0.1,0.2,0.2,0.3,0.3c0.4,0.6,0.6,1.3,0.6,1.9c-0.7,0.9-1.8,1.3-3.1,1.4
		c-0.8-0.4-1.5-0.9-2-1.5c0-0.1,0-0.2,0-0.4c0.2-0.9,0.6-1.6,1.3-2.2C31.9,84.2,32.9,84.4,33.7,85z M23.5,81.5
		c-0.1-0.2-0.3-0.3-0.4-0.4c-0.3-0.2-0.5-0.4-0.8-0.6c0.3,0.1,0.6,0.1,0.9,0.2c1.6,0.2,3.2,0.6,4.9,1c0.9,0.2,1.8,0.4,2.7,0.6
		c-1.1,0.8-2.1,1.9-2.8,3.2c0,0.3,0,0.7-0.1,1.1c-0.1,0.7,0,1.3,0.3,1.9c0,0,0,0,0.1,0.1c-0.1-0.1-0.1-0.1-0.1-0.1
		c-2.3-0.5-4.6-1.1-6.9-1.6c0.6-0.2,1.3-0.5,1.9-0.9c0.5-0.7,0.7-1.4,0.7-2.3C23.9,82.9,23.8,82.1,23.5,81.5z M41.1,88.2
		c0-0.1,0-0.2-0.1-0.4c0-0.4,0.1-0.8,0.4-1.1c0-0.1,0.1-0.2,0.2-0.4c0.8-0.1,1.6-0.1,2.5-0.1h0.1c0,0.1,0,0.1,0,0.1
		c-0.5,0.6-1,1.1-1.5,1.7c0,0.1,0,0.2,0,0.3c-0.1,0.5,0,1,0.1,1.5c0,0.1,0,0.1,0,0.2c-0.1,0-0.2,0-0.3,0s-0.1,0-0.1,0
		c-0.5-0.5-0.9-0.9-1.3-1.5C41.1,88.5,41.1,88.4,41.1,88.2z M68.1,53.5c-0.3,0.2-0.6,0.5-0.8,0.7c-1.4,1.4-2.4,2.8-3.1,4.3
		c0-0.8-0.2-1.5-0.2-2.2c-0.1-0.1-0.3-0.1-0.5-0.2c-0.6-0.1-1.3-0.2-1.9-0.3c1.5-1.7,3.2-3.2,5-4.6c0.2,0.3,0.4,0.5,0.7,0.8
		C67.8,52.5,68,53,68.1,53.5z M62.7,57.4v0.2c0,1.9,0.1,3.7,0.3,5.6l0,0l0,0l0,0c0.7,5.7,0.5,11.2-0.5,16.8
		c-0.2,1.1-0.3,2.1-0.2,3.1c-0.9-0.2-1.9-0.3-2.8-0.4c-0.1-0.3-0.2-0.5-0.3-0.8c0.1-0.5,0.3-1.1,0.3-1.8c0.1-1.1,0.2-2.2,0.3-3.3
		c0-0.1,0.1-0.1,0.1-0.1c0.1,0,0.2-0.1,0.3-0.2c-0.1-0.2-0.2-0.2-0.3-0.3c0,0,0,0-0.1,0c0.5-6.1,0.6-12.3,0.4-18.6v-0.2
		C61,57.3,61.9,57.3,62.7,57.4z M64.5,63.2c0.8-0.1,1.5-0.1,2.2-0.1c-0.9,1-1.5,2.1-2,3.3C64.7,65.4,64.6,64.3,64.5,63.2z
		 M64.8,67.9c0,0,0,0,0.1,0c0.2,0.1,0.4,0,0.4-0.4c0.3-1.7,1.1-3.2,2.4-4.5c1.5-0.1,3-0.3,4.6-0.4c-1.2,4.8-3.6,9.1-7.3,12.9
		c-0.1,0-0.2,0-0.2,0C64.8,73,64.8,70.4,64.8,67.9z M76,73.8c-0.1,0.1-0.2,0.2-0.3,0.3c-0.2,0.2-0.2,0.5-0.2,0.8
		c0,0.1,0,0.2-0.1,0.3c-0.2,0.4-0.4,0.8-0.6,1.2c-0.2,0-0.3,0-0.4,0c-2.9-0.4-5.6-0.7-8.4-0.8c1-0.5,2-1.3,3-2.5
		c2.5-3.4,3.7-6.9,3.6-10.6c3.1-0.3,6.1-0.8,9.2-1.4c-0.5,3.3-0.6,6.5-0.2,9.7c-0.1,0-0.1,0.1-0.2,0.2c-0.2,1.1-0.2,2,0.2,2.8
		c-1.6-0.2-3.1-0.3-4.6-0.5c0,0.1,0,0.1,0,0.1C76.7,73.5,76.4,73.7,76,73.8z M82,73.8c0-0.2,0-0.5,0-0.7c0.1,0.2,0.1,0.5,0.2,0.7
		C82.1,73.8,82.1,73.8,82,73.8z M58.7,59.1c0,0.1,0,0.2,0,0.4c0-0.1-0.1-0.2-0.1-0.2C58.6,59.2,58.7,59.2,58.7,59.1z M58.2,59.8
		c0-0.1,0.1-0.2,0.2-0.3c0.1,0.1,0.1,0.2,0.1,0.3c0.1-0.1,0.2-0.1,0.2-0.1c0,0.2,0,0.4,0,0.6C58.5,60.2,58.3,60,58.2,59.8z
		 M43.1,66.6c0,0.1,0,0.3,0,0.4c0.1,0.5,0.2,0.9,0.5,1.4c0.1,0.1,0.2,0.2,0.4,0.3c3.7-4.7,8.2-7,13.5-6.6l0,0
		c-0.7,4.5-2.4,8.2-5.1,11.1v0.1c0,0.1,0,0.2-0.1,0.2c-0.9,1-1.9,1.9-3,2.6c-0.1,0-0.2,0-0.3,0c-1.6,1.1-3.3,1.9-5.2,2.6
		c-0.7-0.5-1.1-1.1-1.2-1.9c-0.1-0.6-0.2-1.2-0.2-1.8h0.1c-0.1-0.7-0.2-1.3-0.3-1.9c-0.1-1.7-0.1-3.3,0.1-4.9
		c-0.3,0.1-0.5,0.2-0.6,0.3c-0.5-1.9-1.6-3.3-3.2-4.3c2.1,0.1,4.3-0.1,6.4-0.3l0,0c0.2,0.1,0.4,0.2,0.6,0.3
		C44.7,64.9,43.9,65.7,43.1,66.6z M57.1,70c0.1-0.5,0.4-1.1,0.8-1.6c0.4-0.9,0.6-1.8,0.8-2.7c0,2.9,0,5.7,0,8.4
		C58.2,72.8,57.7,71.4,57.1,70z M57,71.5c0-0.2,0-0.4,0.1-0.5c0.1,1.3,0.5,2.5,1,3.8c-1.1-0.3-2.3-0.6-3.4-0.8c0.8-1,1.5-2,2.1-3.1
		C56.8,71.1,56.9,71.3,57,71.5z M59.5,84.3L59.5,84.3c0.7,0.1,1.4,0.3,2,0.4c0.1,0.3,0.2,0.5,0.4,0.7c0.8,1.8,2,3.4,3.3,4.9
		c0,0.7,0,1.3,0,1.9c0,0.2,0,0.3,0,0.5c-0.4,0.4-0.7,0.8-0.9,1.4c0.1,0.1,0.1,0.2,0.2,0.2c0.2-0.1,0.5-0.1,0.7-0.2
		c0,0.6,0,1.2,0,1.9c-7.5-1.1-14.6-2.6-21.2-4.5c0-0.1,0-0.1,0-0.1c0.4-0.1,0.8-0.2,1.3-0.3c-0.2-0.6-0.6-0.9-1-1.1
		c0.8-2.8,2.7-5.2,5.5-7.2c3.2,0.3,6.3,0.8,9.2,1.4c0.1,0.1,0.2,0.4,0.3,0.5C59.4,84.6,59.5,84.5,59.5,84.3z M45.1,84.9
		C45,84.8,45,84.8,45,84.8c0.1,0,0.3,0,0.4,0.1L45.3,85C45.2,85,45.1,84.9,45.1,84.9z M64,86c0-0.1,0-0.1,0-0.1c0-0.1,0-0.2,0-0.2
		c0.8,0.9,2.2,1.7,4.1,2.4c-0.1,0.1,0,0.2,0.1,0.3c0.3,0.4,0.4,0.8,0.4,1.2s0,0.8,0,1.1c-0.1,0.2-0.3,0.2-0.6,0.3s-0.7,0.2-1,0.4
		c0-0.3,0.2-0.5,0.3-0.7c0-0.1,0-0.2-0.1-0.3C66.2,88.9,65.1,87.4,64,86z M66.8,96.5c0,0,0-0.1,0-0.2c0-0.7,0-1.4,0-2.1
		c0.7,0,1.5-0.3,2.4-0.7c0-0.1,0.1-0.2,0.3-0.3c0-0.1,0.1-0.2,0.2-0.3c3.7-1.2,7.6-2.4,11.5-3.5c2.7-0.8,5.5-1.3,8.4-1.4
		C81.6,90.7,74,93.5,66.8,96.5z"/>
	<path style="fill:#FFFFFF;" d="M83.9,49.7l-0.1-0.1c-5.3,0-10.5,0.1-15.6,0.2v0.3c0.4,0.5,0.8,1,1.1,1.5c0.1,0.1,0.2,0.3,0.4,0.4
		c2.3-0.6,4.8-1.1,7.3-1.2C79.4,50.6,81.7,50.2,83.9,49.7z"/>
	<path style="fill:#FFFFFF;" d="M85.5,60.3c-0.9,0.3-1.9,0.5-2.9,0.7c0.2,4.1,0.2,8.4-0.1,12.8c1.2,0.1,2.4,0.2,3.7,0.3
		C85.4,69.7,85.2,65.1,85.5,60.3z"/>
	<path style="fill:#FFFFFF;" d="M88.6,58.1c0.6-0.6,1.2-1.3,1.6-2.2c0.6-1.4,1.4-2.8,2.3-4.2c-1.1-0.4-2.6-0.5-4.5-0.3
		c-0.5,0.1-0.8,0-1.1-0.2c-5.6,1-11.3,1.4-17.1,1.4c-1.4,3-3.2,5.9-5.3,8.8c0,0.4,0,0.9,0,1.5C72.2,60.9,80.2,59.3,88.6,58.1z"/>
	<path style="fill:#FFFFFF;" d="M92.5,76.7c-0.1-0.1-0.2-0.2-0.3-0.2c-5.1-0.9-10.3-1.3-15.4-1.5c-0.2,0-0.2,0.1-0.3,0.2
		c0,0.3,0,0.5-0.1,0.7c-0.1,0.2-0.2,0.4-0.2,0.5c5.7,0.2,11.4,0.6,17,1.1C93,77.2,92.8,77,92.5,76.7z"/>
	<path style="fill:#FFFFFF;" d="M94.3,78.9c-0.1-0.1-0.1-0.1-0.1-0.2c-9.5-0.3-18.7-0.9-27.8-1.7c-0.2,0-0.6,0-0.9-0.1
		c-0.2,0-0.3,0-0.5-0.1h-0.3c0,0.6,0,1.2-0.1,1.9c0.9-0.7,2-1.2,3.2-1.5l0,0c-0.8,0.6-1.9,1.2-3.2,1.8c-0.1,0.2-0.1,0.4-0.1,0.6
		c1.3-0.7,2.6-1.3,4-1.7c0,0.3-0.6,0.8-1.8,1.4c-0.8,0.4-1.5,0.6-2.2,0.7c0,1.1-0.1,2.2-0.2,3.4c-0.1,0.6-0.2,1.2-0.3,1.7
		c1.5,0.5,2.9,1,4.3,1.6c0.2,0,0.2,0.1,0.4,0.3c0.7,0.7,1,1.6,1.1,2.6c0,0.5,0,1-0.1,1.5c0-0.1,0.1-0.1,0.2-0.1
		c0.1,0,0.1,0.1,0.1,0.2c8.4-3.2,17.1-5.5,26.2-7.1c0.3-0.3,0.5-0.7,0.8-1.1c0-0.2,0.1-0.3,0.2-0.4c-1.2-1.1-1.7-2.1-1.7-3
		C95,79.5,94.6,79.3,94.3,78.9z"/>
	<path style="fill:#3172A1;" d="M48.3,25.5c-0.2-0.1-0.4-0.2-0.5-0.4c-1.6,0-3.2-0.1-4.8-0.1c-3.4,0.8-5.8,2.8-7.1,6
		c-3.8,8.6-1.3,14.2,7.6,16.7c1.4-0.4,2.8-0.8,4.2-1.2c0.9-0.3,1.5-0.7,2.1-1.4c0.7,1,1.6,1.6,2.9,2.1c1.8,0.6,3.6,0.6,5.4-0.2
		c6.5-3,8.4-7.9,5.7-14.8c-1-1.2-2-2.2-3-3.3c-3.3-3-6.9-3.8-11-2.3C49.3,26.3,48.8,26,48.3,25.5z M52.1,27.7c3-0.1,5.7,0.8,7.9,2.7
		c0.2,0.2,0.4,0.5,0.6,0.7c4.1,5.8,3.4,10.7-1.8,14.6c-3.4,0.9-6.3,0.1-8.8-2.3c-3.3,2.8-6.9,3.2-10.8,1.3c-0.7-0.3-1.2-0.8-1.5-1.5
		C34,35.7,36,30.1,43.5,26.5c2.2-0.7,4.1-0.2,5.6,1.2c0,0.4,0.1,0.8,0.3,1.1c0.1,0.2,0.3,0.5,0.6,0.7c0.6,0,1-0.4,1.2-0.8
		C51.4,28.3,51.7,28,52.1,27.7z"/>
	<path style="fill:#3172A1;" d="M53.5,37v0.1c-0.6,0-0.8,0.4-0.7,1c0.1,0.2,0.1,0.3,0.1,0.4s0,0.2,0.1,0.3c0.9,1.2,1.9,1.4,3,0.6
		c0.2-0.5,0.2-1,0.2-1.5c-0.1-0.2-0.1-0.3-0.1-0.4c-0.1-0.1-0.2-0.2-0.4-0.2C55,37.1,54.3,37,53.5,37z"/>
	<path style="fill:#3172A1;" d="M48.2,36.7c-0.4-0.1-0.8-0.2-1.2-0.2c-0.2,0-0.5,0.2-0.7,0.5c-0.4,0.4-0.6,0.9-0.4,1.5
		c0.6,1.2,1.5,1.6,2.6,1c0,0,0.1,0,0.1-0.1c0.1,0,0.2-0.1,0.3-0.2c0.1-0.3,0.2-0.7,0.2-1.1s-0.2-0.8-0.5-1.1
		C48.5,36.9,48.4,36.8,48.2,36.7z"/>
	<path d="M62.8,26.6c0,0.1,0.1,0.2,0.1,0.2l0,0C62.9,26.7,62.8,26.7,62.8,26.6z"/>
	<path style="fill:#3172A1;" d="M39.8,50.3c-0.6-0.1-0.7,0-0.5,0.3c5.7,6.5,12,7.2,18.8,1.9v-0.2C51.7,55.8,45.6,55.1,39.8,50.3z"/>
	<path d="M30.5,52.1l-0.3,0.1c0.1,0,0.2,0.1,0.3,0.1V52.1z"/>
	<path d="M65.5,9.7v0.2V9.7z"/>
	<path d="M48.4,17.8c-0.1,0-0.2,0-0.3,0c0.1,0.1,0.1,0.3,0.2,0.4C48.3,18.1,48.3,18,48.4,17.8z"/>
	<path d="M31.8,20.9l0.1,0.2l0,0C31.9,21,31.9,21,31.8,20.9z"/>
	<path style="fill:#FFFFFF;" d="M16.1,77.4c-1.5,0.4-3,0.7-4.6,1.2c10.7,0.7,21.1,2.3,31.3,4.6l0,0l0.1-0.1c1.2,0.2,2.3,0.5,3.5,0.7
		c0.3-0.4,0.6-0.7,0.9-1c-0.2,0-0.5,0.1-0.8,0.3c-0.5,0.1-1.1,0.1-1.6,0.2c0.9-0.7,1.9-1.2,3.1-1.5l0,0c0.1,0,0.2,0.1,0.2,0.2
		c0.5-0.5,1-0.9,1.5-1.3c1.4,0.4,2.8,0.7,4.1,1c0.1,0,0.2,0,0.2-0.1l0,0c0,0,0,0.1,0.1,0.2c1.4,0.3,2.9,0.5,4.5,0.8
		c-0.1-0.4-0.1-0.8-0.2-1.1c0-0.2,0.1-0.2,0.3-0.2c0-1.4,0-2.8,0-4.3c-0.2,0-0.4,0-0.6,0.1c-1.7-0.4-3.5-0.7-5.2-1
		c-0.3,0.2-0.5,0.5-0.8,0.7c-2.7,2.3-5.7,3.4-9,3.4c-0.2-0.3-0.5-0.6-0.7-1c-1.9,0.6-3.8,1.2-5.7,2c-0.1,0-0.1,0-0.2-0.1
		c1.4-1.1,3.1-1.8,5-2c0.3-0.1,0.5-0.1,0.7-0.2c-0.3-0.6-0.6-1.1-0.8-1.7c-3.5,1-7,1.7-10.3,2.2c3.3-1.1,6.7-1.9,10.2-2.5
		c-0.3-0.6-0.4-1.3-0.5-2c-0.7,0-1.3,0-1.9,0c-3.9,1.8-8.3,2.9-13,3.3h-0.1c4.2-1.2,8.4-2.3,12.7-3.3c-5.6-0.1-11.1,0.4-16.6,1.3
		c1.3-0.1,2.6-0.2,3.9-0.3C22.7,76.5,19.5,77,16.1,77.4z M20.9,77.7L20.9,77.7c3-0.6,6.1-1.1,9.1-1.7c0.1-0.1,0.2-0.1,0.3-0.1
		C27.4,77,24.2,77.6,20.9,77.7z M58.1,78.2c0,0,0,0,0,0.1C56,78.7,54,79.4,52,80.1c-0.2,0.1-0.4,0.1-0.6,0.2
		c0.9-0.7,2.2-1.2,3.7-1.6c0.6-0.2,1.1-0.4,1.7-0.7C57.2,78.1,57.6,78.1,58.1,78.2z M54.3,77.8c0.3,0,0.6-0.1,0.7-0.3
		c0.3,0,0.5,0,0.8,0.1c0.1,0,0.2,0,0.3,0.1c-4.4,1.1-8.7,2.6-13.2,4.5c-0.1,0-0.2,0-0.3,0C46,80.1,49.9,78.6,54.3,77.8z"/>
	<path style="fill:#3172A1;" d="M20.9,77.7L20.9,77.7c3.3-0.1,6.5-0.7,9.4-1.8c-0.1,0-0.2,0-0.3,0.1C27,76.6,23.9,77.1,20.9,77.7z"
		/>
	<path style="fill:#3172A1;" d="M58.1,78.3c0-0.1,0-0.1,0-0.1c-0.5-0.1-0.9-0.1-1.3-0.2c-0.6,0.3-1.1,0.5-1.7,0.7
		c-1.5,0.4-2.8,0.9-3.7,1.6c0.2-0.1,0.4-0.1,0.6-0.2C54,79.4,56,78.7,58.1,78.3z"/>
	<path style="fill:#3172A1;" d="M55,77.5c-0.1,0.2-0.4,0.3-0.7,0.3c-4.4,0.8-8.3,2.3-11.7,4.4c0.1,0,0.2,0,0.3,0
		c4.5-1.9,8.8-3.4,13.2-4.5c-0.1-0.1-0.2-0.1-0.3-0.1C55.5,77.5,55.3,77.5,55,77.5z"/>
	<path style="fill:#FFFFFF;" d="M15.9,84.7c0-0.6,0-1.2,0-1.9c0-0.6,0-1.3,0.4-1.8c0.5-0.5,1.1-0.8,1.8-1.1
		c-2.6-0.3-5.1-0.5-7.7-0.5v0.1c0.1,0.2,0.3,0.5,0.3,0.8c0.2,0.5,0.4,1,0.7,1.4c0.1,0.4,0,0.8-0.3,1.2c-0.2,0.3-0.4,0.7-0.6,0.9
		c2.1,0.7,4.3,1.3,6.4,1.9C16.6,85.4,16.3,85.1,15.9,84.7z"/>
	<path style="fill:#FFFFFF;" d="M18.9,81.3c-0.1,0-0.1,0-0.1,0c-1.3,0.3-1.8,1.1-1.4,2.3c-0.1,0.1,0,0.2,0,0.4c0,0.1,0,0.1,0.1,0.1
		c0.4,0.5,0.9,0.8,1.4,1.2c0.3,0.1,0.7,0.3,1,0.4c0.7-0.1,1.3-0.3,1.9-0.5c0.4-0.5,0.5-1.1,0.4-1.9c0-0.2,0-0.5,0-0.7
		C21.2,81.8,20.1,81.3,18.9,81.3z M20.1,82.7L20,82.8c-1.3,0.4-1.4,0.9-0.4,1.5c0.2,0.1,0.3,0.2,0.4,0.3c-0.2,0.7-0.8,0.5-1.8-0.7
		c0-0.1-0.1-0.2-0.1-0.3c-0.1-0.5,0.1-0.9,0.4-1.1c0.2-0.2,0.4-0.3,0.5-0.4C19.4,82.2,19.8,82.5,20.1,82.7z M21.1,82.3L21.1,82.3
		c1,1.1,0.9,2.1-0.2,2.8c-0.2,0.1-0.4,0.2-0.6,0.1C20.8,84.2,21.1,83.2,21.1,82.3z"/>
	<path style="fill:#3172A1;" d="M20,82.8l0.1-0.1c-0.3-0.2-0.7-0.5-1.1-0.6c-0.1,0.1-0.3,0.2-0.5,0.4c-0.3,0.2-0.5,0.6-0.4,1.1
		c0,0.1,0.1,0.2,0.1,0.3c1,1.2,1.6,1.4,1.8,0.7c-0.1-0.1-0.2-0.2-0.4-0.3C18.6,83.7,18.7,83.2,20,82.8z"/>
	<path style="fill:#3172A1;" d="M21.1,82.3L21.1,82.3c0,0.9-0.3,1.9-0.8,2.9c0.2,0.1,0.4,0,0.6-0.1C22,84.4,22.1,83.4,21.1,82.3z"/>
	<path style="fill:#FFFFFF;" d="M9.6,82.4c0.1,0,0.1,0,0.1-0.2c0-0.2-0.1-0.5-0.1-0.7c-0.1-0.2-0.3-0.4-0.4-0.7
		C8.4,80.9,7.7,80.9,7,81C6.3,82.6,7.2,83.1,9.6,82.4z"/>
	<path style="fill:#FFFFFF;" d="M35,83.2c0.4,0.4,0.9,1,1.2,1.7c0,0.1,0.1,0.2,0.2,0.3c0.1,2.5-0.6,4-2.2,4.6
		c0.8,0.2,1.6,0.3,2.4,0.5c1.6,0.3,3.1,0.5,4.6,0.8c-1.2-0.7-1.8-2.1-1.6-4.4c0.1-0.7,0.3-1.3,0.8-1.9c0.1-0.1,0.3-0.2,0.4-0.2
		l0.1-0.3C39,83.9,37.1,83.6,35,83.2z"/>
	<path style="fill:#FFFFFF;" d="M34,85.3c-0.1-0.1-0.2-0.2-0.3-0.3c-0.8-0.6-1.8-0.8-2.9-0.5c-0.7,0.6-1.1,1.3-1.3,2.2
		c0,0.2,0,0.3,0,0.4c0.5,0.6,1.2,1.1,2,1.5c1.3-0.1,2.4-0.5,3.1-1.4C34.6,86.6,34.4,85.9,34,85.3z M30.3,85.6
		c0.2-0.3,0.4-0.5,0.7-0.6c1.5,0.2,1.5,0.7,0.1,1.5c0,0.1,0,0.1-0.1,0.2c0.4,0.1,0.7,0.4,1,0.8c0.1,0.1,0.1,0.2,0.3,0.3
		c-0.8,0.7-1.5,0.6-2.3-0.3C29.9,86.8,30,86.2,30.3,85.6z M32.6,85.2c0.8,0.2,1.2,0.6,1.3,1.3c0,0.1,0,0.2,0,0.3
		c-0.8,1.3-1.1,1.2-0.8-0.2c-1.1-0.4-1.3-0.8-0.6-1.4C32.6,85.2,32.6,85.2,32.6,85.2z"/>
	<path style="fill:#3172A1;" d="M31,85c-0.3,0.1-0.5,0.3-0.7,0.6c-0.3,0.6-0.4,1.2-0.3,1.9c0.8,0.9,1.5,1,2.3,0.3
		c-0.2-0.1-0.2-0.2-0.3-0.3c-0.3-0.4-0.6-0.7-1-0.8c0.1-0.1,0.1-0.1,0.1-0.2C32.5,85.7,32.5,85.2,31,85z"/>
	<path style="fill:#3172A1;" d="M33.9,86.5c-0.1-0.7-0.5-1.1-1.3-1.3c0,0,0,0-0.1,0c-0.7,0.6-0.5,1,0.6,1.4c-0.3,1.4,0,1.5,0.8,0.2
		C33.9,86.7,33.9,86.6,33.9,86.5z"/>
	<path style="fill:#FFFFFF;" d="M23.1,81.1c0.1,0.1,0.3,0.2,0.4,0.4c0.3,0.6,0.4,1.4,0.4,2.2c0,0.9-0.2,1.6-0.7,2.3
		c-0.6,0.4-1.3,0.7-1.9,0.9c2.3,0.5,4.6,1.1,6.9,1.6l0,0c-0.3-0.6-0.4-1.2-0.3-1.9c0.1-0.4,0.1-0.8,0.1-1.1c0.7-1.3,1.7-2.4,2.8-3.2
		c-0.9-0.2-1.8-0.4-2.7-0.6c-1.7-0.4-3.3-0.8-4.9-1L23.1,81.1z"/>
	<path style="fill:#FFFFFF;" d="M41,87.8c0.1,0.2,0.1,0.3,0.1,0.4c0,0.2,0,0.3,0,0.3c0.4,0.6,0.8,1,1.3,1.5c0,0,0,0,0.1,0
		s0.2,0,0.3,0c0-0.1,0-0.1,0-0.2c-0.1-0.5-0.2-1-0.1-1.5c0-0.1,0-0.2,0-0.3c0.5-0.6,1-1.1,1.5-1.7l-0.1-0.1c-0.9,0-1.7,0-2.5,0.1
		c-0.1,0.2-0.2,0.3-0.2,0.4C41.1,87,41,87.4,41,87.8z"/>
	<path style="fill:#FFFFFF;" d="M67.3,54.2c0.2-0.2,0.5-0.5,0.8-0.7c-0.1-0.5-0.3-1-0.8-1.5c-0.3-0.3-0.5-0.5-0.7-0.8
		c-1.8,1.4-3.5,2.9-5,4.6c0.6,0.1,1.3,0.2,1.9,0.3c0.2,0.1,0.4,0.1,0.5,0.2c0,0.7,0.2,1.4,0.2,2.2C64.9,57,65.9,55.6,67.3,54.2z"/>
	<path style="fill:#FFFFFF;" d="M62.7,57.6v-0.2c-0.8-0.1-1.7-0.1-2.5,0v0.2c0.2,6.3,0.1,12.5-0.4,18.6c0.1,0,0.1,0,0.1,0
		c0.1,0.1,0.2,0.1,0.3,0.3c-0.1,0.1-0.2,0.2-0.3,0.2c0,0-0.1,0-0.1,0.1c-0.1,1.1-0.2,2.2-0.3,3.3c0,0.7-0.2,1.3-0.3,1.8
		c0.1,0.3,0.2,0.5,0.3,0.8c0.9,0.1,1.9,0.2,2.8,0.4c-0.1-1,0-2,0.2-3.1c1-5.6,1.2-11.1,0.5-16.8l0,0l0,0l0,0
		C62.8,61.3,62.7,59.5,62.7,57.6z"/>
	<path style="fill:#3172A1;" d="M45.1,73.1L45.1,73.1c0,0,0,0-0.1,0.1c0,0-0.1,0.1-0.2,0.1c0.2,0.9,0.1,1.6-0.4,2.1
		c-0.1,0.7-0.3,1.4-0.4,2.1c0.5-0.2,0.8-0.6,0.9-1c0.1-0.5,0.2-0.9,0.3-1.3c0.1,0,0.2,0,0.3,0c0.1-0.8,0.3-1.4,0.7-2.1
		c-0.1,0-0.2,0-0.2,0c1.9-4.6,5.3-7.8,10.3-9.7c-0.1-0.2-0.1-0.2-0.2-0.3c-0.5-0.1-1-0.2-1.6-0.2C53.6,63,52.8,63.4,52,64
		c-3.1,2.4-5.3,5.3-6.7,8.6c0,0.1,0,0.1,0,0.2C45.3,72.9,45.2,73,45.1,73.1L45.1,73.1z"/>
	<path style="fill:#FFFFFF;" d="M49,76.1c-0.4,0.1-0.8,0-1.2-0.2c-0.1,0.1-0.3,0.2-0.4,0.4c-0.7,0.1-1.2,0.1-1.8-0.2
		c0-0.3-0.1-0.5-0.1-0.8v-0.1c-0.1,0-0.2,0-0.3,0c-0.1,0.4-0.2,0.8-0.3,1.3c-0.1,0.4-0.4,0.8-0.9,1c0.1-0.7,0.3-1.4,0.4-2.1
		c-0.2,0.3-0.5,0.5-0.9,0.6c-0.4-0.1-0.7-0.3-0.9-0.8c-0.1,0-0.1-0.1-0.1-0.2h-0.1c0,0.6,0.1,1.2,0.2,1.8c0.1,0.8,0.5,1.4,1.2,1.9
		C45.7,78,47.4,77.2,49,76.1z"/>
	<path style="fill:#FFFFFF;" d="M59.5,84.3L59.5,84.3c0,0.2-0.1,0.3-0.2,0.4c-0.1-0.1-0.2-0.4-0.3-0.5c-2.9-0.6-6-1.1-9.2-1.4
		c-2.8,2-4.7,4.4-5.5,7.2c0.4,0.2,0.8,0.5,1,1.1c-0.5,0.1-0.9,0.2-1.3,0.3c0,0,0,0,0,0.1c6.6,1.9,13.7,3.4,21.2,4.5
		c0-0.7,0-1.3,0-1.9c-0.2,0.1-0.5,0.1-0.7,0.2c-0.1,0-0.1-0.1-0.2-0.2c0.2-0.6,0.5-1,0.9-1.4c0-0.2,0-0.3,0-0.5c0-0.6,0-1.2,0-1.9
		c-1.3-1.5-2.5-3.1-3.3-4.9c-0.2-0.2-0.3-0.4-0.4-0.7C60.9,84.6,60.2,84.4,59.5,84.3z"/>
	<path style="fill:#FFFFFF;" d="M64,85.9c0,0,0,0,0,0.1c1.1,1.4,2.2,2.9,3.2,4.4c0.1,0.1,0.1,0.2,0.1,0.3c-0.1,0.2-0.3,0.4-0.3,0.7
		c0.3-0.2,0.7-0.3,1-0.4s0.5-0.1,0.6-0.3c0-0.3,0-0.7,0-1.1s-0.1-0.8-0.4-1.2c-0.1-0.1-0.2-0.2-0.1-0.3c-1.9-0.7-3.3-1.5-4.1-2.4
		C64,85.7,64,85.8,64,85.9z"/>
	<path style="fill:#3172A1;" d="M57,96.3c-1.7,0.3-3.3,0.8-4.9,1.5V98c3.2-0.1,4.9-0.7,5-1.7H57z"/>
	<path style="fill:#3172A1;" d="M95.7,89c0.5-0.1,1-0.2,1.5-0.4c0-0.1-0.1-0.1-0.1-0.2c-0.8-0.1-1.5-0.2-2.2-0.2
		C87.4,91,80.2,93.9,73,97.1c0.3,0,0.5,0,0.8-0.1c7.2-2.7,14.3-5.5,21.3-8.2C95.3,88.9,95.5,89,95.7,89z"/>
	<path style="fill:#3172A1;" d="M15.2,25.3c0.1-0.1,0.2-0.2,0.3-0.3c-0.1-0.2-0.2-0.2-0.3-0.3c-0.4-0.1-0.8-0.2-1.2-0.2
		c-0.5,0.2-1.1,0.6-1.6,1.2c-3,3.3-3.7,6.7-2.1,10.1c0.3-0.5,0.5-1.1,0.5-1.8c0.1-3.2,1.2-6,3.3-8.3C14.5,25.6,14.9,25.5,15.2,25.3z
		"/>
	<path style="fill:#3172A1;" d="M8.5,25c-0.2,0-0.3,0.1-0.5,0.3c-2,1.5-2.6,3.2-2,5c0.2,0,0.4-0.2,0.5-0.3C7.8,28,8.5,26.3,8.5,25z"
		/>
	<path style="fill:#3172A1;" d="M4.7,76.1c-0.1,0.1-0.2,0.2-0.3,0.3c0,0.1,0,0.2,0.1,0.2c0.3-0.1,0.6-0.2,0.9-0.2
		C5.1,76.3,4.9,76.2,4.7,76.1z"/>
</g>
</svg>
