<?xml version="1.0" encoding="iso-8859-1"?>
<!-- Generator: Adobe Illustrator 12.0.1, SVG Export Plug-In . SVG Version: 6.00 Build 51448)  -->
<!DOCTYPE svg PUBLIC "-//W3C//DTD SVG 1.1//EN" "http://www.w3.org/Graphics/SVG/1.1/DTD/svg11.dtd" [
	<!ENTITY ns_svg "http://www.w3.org/2000/svg">
	<!ENTITY ns_xlink "http://www.w3.org/1999/xlink">
]>
<svg  version="1.1" id="Layer_1" xmlns="&ns_svg;" xmlns:xlink="&ns_xlink;" width="82.8" height="91.731"
	 viewBox="0 0 82.8 91.731" style="overflow:visible;enable-background:new 0 0 82.8 91.731;" xml:space="preserve">
<g>
	<path style="fill:#3172A1;" d="M80.5,87.8v0.1c-3.1,0.5-5.8,1.7-8.2,3.4c0.2,0.1,0.4,0.1,0.6,0c2.9-1.1,5.9-2.1,8.9-3
		c-0.1-0.1-0.2-0.1-0.2-0.2C81.2,88,80.9,87.9,80.5,87.8z"/>
	<path style="fill:#3172A1;" d="M80.1,87.4c0.1-0.1,0.2-0.2,0.3-0.2c0.2-0.2,0.5-0.4,0.7-0.7c0.6-0.1,1.1-0.1,1.7-0.2
		c-0.1-0.1-0.1-0.1-0.2-0.1c-0.3-0.1-0.7-0.1-1.1-0.2c0.3-0.3,0.4-0.7,0.5-1.1c-6.9-4.2-14.6-6.4-23-6.5c0-0.1,0-0.2,0-0.4
		c0.1-2.3-0.5-4.2-1.8-5.7c8.1-4.9,11.2-12.4,9.5-22.3c-0.5-2.5-1.2-4.7-2.4-6.8c-0.6-1.1-1.4-2.2-2.1-3.2c-0.4-0.7-0.8-1.3-1.3-1.9
		c0.3,0.1,0.6,0.1,0.9,0.2c-0.3-0.3-0.5-0.5-0.8-0.7c-0.1-0.2-0.2-0.3-0.3-0.4c-0.2,0-0.3,0-0.4,0c-0.5-0.7-1-1.3-1.5-1.9h-0.4
		c0.1,0.6,0.4,1.2,0.6,1.8c-0.5,0-0.8-0.1-1.2-0.1c0.1,0.1,0.2,0.2,0.4,0.2c0.3,0.3,0.6,0.5,1,0.8c0.1,0.1,0.2,0.2,0.3,0.3
		c0.6,1.1,1.3,2,2,2.9c0.1,0.1,0.2,0.2,0.4,0.3l-0.2,0.2c1.7,2.3,2.8,5.2,3.3,8.5c0,0,0,0,0,0.1c0.3,1.5,0.4,3.1,0.4,4.7
		c0,4.3-1.5,7.9-4.5,11c-9.3,9.8-21.1,12.4-35.3,8c-3.9-1.2-7-3.4-9.5-6.5c-5.2-6.5-6.1-13.9-2.6-22c0.1-0.1,0.2-0.2,0.4-0.4
		c0.1-0.1,0.2-0.2,0.4-0.3c0-0.2,0.1-0.3,0.2-0.4c0-0.1,0-0.2,0-0.4c0-0.1,0-0.2,0.1-0.3c0-0.2,0.1-0.3,0.2-0.4
		c0.8-0.7,1.5-1.5,2.1-2.4c0.6-0.8,1.3-1.7,1.9-2.4c0-0.1,0-0.1,0-0.1c0.7-0.5,1.5-1.1,2.2-1.7c-0.1-0.2-0.2-0.2-0.3-0.3
		c-0.4-0.1-0.8-0.2-1.2-0.2c-0.2,0.1-0.6,0.3-1,0.5c-0.5,0.2-0.9,0.5-1.3,0.8c-0.3-0.2-0.5-0.3-0.7-0.4c-0.1,0.1-0.2,0.1-0.2,0.2
		c0,0,0,0.1,0.1,0.1c0.1,0.2,0.3,0.3,0.4,0.4c-0.7,0.5-1.3,1.1-1.8,1.9c0.1,0,0.1,0,0.2,0.1c-3.2,4.1-4.8,9.2-5.1,15.5
		c0,2.1,0.2,4.2,0.7,6.1c1.5,5.2,4.2,9.1,8.3,11.8c-1,1.7-1.5,3.6-1.3,5.7C11.6,78.4,6.2,80,1.5,83.6c0,0.2,0,0.3,0,0.4
		c-0.1,0.8,0,1.6,0.3,2.3c0,0.1,0,0.1,0.1,0.1c-0.8,0.3-1.4,0.9-1.9,1.5c1.2,0.1,2.2-0.1,3.2-0.4c0.9,0.1,1.8,0.3,2.6,0.4
		c-1.3,0.5-2.6,1.2-3.7,2.1c0.1,0.2,0.1,0.2,0.1,0.2c2.2-0.5,4.3-1.1,6.6-1.9c1,0.1,2,0.2,2.9,0.3c-1.6,0.4-3.1,1-4.4,1.7
		c2.5-0.1,5.1-0.6,7.6-1.6c2,0,4-0.1,6.1-0.3c-2.3,0.8-4.5,1.5-6.7,2.4c0.2,0,0.4,0,0.7,0c8.4-1.9,16.7-4.1,24.8-6.5
		c1.6-0.1,3.2-0.2,4.8-0.5c-0.4,0.2-0.9,0.4-1.5,0.5c-5.7,1.3-11,3.2-16.1,5.6c6-1.1,12.4-2.8,19-5.2c1.5,0.7,3,1.3,4.5,1.9
		c-0.8-0.2-1.6-0.4-2.5-0.4c-0.5,0.3-1.1,0.5-2,0.7c-3.2,0.3-6.1,1.3-8.7,2.9c0.3,0,0.7-0.1,1.1-0.1c4.4-0.9,8.5-1.8,12.4-2.9
		c-0.1-0.1-0.1-0.1-0.2-0.2c0.9,0.3,1.7,0.6,2.6,0.8c-1.9,0.4-3.4,1.1-4.6,2.1c0.3,0.6,0.7,0.8,1.5,0.7c3.5-0.6,5.3-1.3,5.3-2.2
		c1.9,0.4,3.7,0.7,5.6,1c-0.1-0.1-0.3-0.1-0.5-0.1c-0.9,0.3-2,0.6-3.2,0.9c-0.4,0.1-0.7,0.3-0.7,0.7c0.3,0.7,0.7,0.8,1.3,0.5
		c1.5-0.9,3.1-1.4,4.9-1.7c-0.1-0.1-0.1-0.1-0.2-0.1c-0.3-0.1-0.6-0.1-0.9-0.2c1.5,0.2,3.1,0.2,4.7,0.2c-1.4,0.7-2.5,1.4-3.6,2.2
		c0.5,0.4,1.1,0.4,1.7,0.2c2.1-0.9,4.4-1.8,6.6-2.6C74.1,88.7,77.1,88.2,80.1,87.4z M28.5,77c0.8,0.1,1.5,0.3,2.2,0.4
		c-2.3,0.1-4.3,1-6.1,2.7c3.2-0.4,6.7-0.9,10.5-1.6c0-0.1,0-0.2,0.1-0.3c0-0.2,0-0.3,0.1-0.4c2.4,0.1,4.9,0,7.3-0.3l0,0
		c2.1,1,4.5,1.8,7.3,2.5c-1.6,0.6-2.9,1.6-3.9,2.9C40.6,83,35.1,82.7,29.6,82c-1.5-0.9-3.1-1.5-5-1.9c-0.6-0.1-1.3-0.2-2.1-0.3
		c0.5-1.9,0.6-3.4,0.3-4.6C24.6,76,26.5,76.5,28.5,77z M21.8,74.8c-1,2.2-1,4.4-0.3,6.7c3.1,1,6.3,2,9.4,3.3
		C21.3,87.7,12,87.7,3,84.9c4.4-3.3,9.7-4.9,15.8-4.9c0-0.1,0-0.2,0-0.4c0.2-2.1,0.4-4.2,0.8-6C20.3,74,21,74.4,21.8,74.8z
		 M33.2,84.9c-0.1-0.1-0.1-0.2-0.1-0.3c-0.6-0.6-1.3-1.1-1.9-1.6c1.6,0.5,3.3,0.9,5,1.1C35.2,84.3,34.2,84.6,33.2,84.9z M55.4,73.3
		c0.2-0.1,0.4-0.2,0.6-0.3c1.1,2.2,1.8,4.6,2,7c8.2,0.3,15.4,2,21.6,5.4c-11,3.3-21.8,2.7-32.3-1.6c2.4-1.8,5-2.8,8-3.3
		c0-0.1,0-0.2,0.1-0.4c0.5-2.7,0-4.8-1.5-6C54.4,73.8,54.9,73.6,55.4,73.3z M54.1,79.1c-0.9,0.1-1.8,0.2-2.6,0.4
		c-2.1-1-4-1.8-5.9-2.6c2.6-0.6,5.2-1.4,7.7-2.6C54.3,75.7,54.5,77.3,54.1,79.1z"/>
	<path d="M61.9,41.5c-0.2-0.1-0.3-0.2-0.4-0.3c-0.3-0.4-0.6-0.7-1-0.9c0.4,0.4,0.8,0.9,1.2,1.4L61.9,41.5z"/>
	<path style="fill:#3172A1;" d="M45,1.4c-0.8,0.4-1.6,0.8-2.4,1.1c-0.1,0.1-0.3,0.1-0.5,0.2c-0.7-0.7-1.3-1.4-2-2.1
		c-0.1-0.2-0.2-0.3-0.3-0.4C38.5,0.1,37.3,0.1,36,0c-0.4,0.2-0.9,0.5-1.5,0.8c-0.1,0.1-0.2,0.2-0.4,0.4c-0.8,2-0.8,4.1,0.1,6.3
		c1,2.5,2.3,4.9,3.9,7.2c0.7,0,1.4,0,2.2,0c1.5-1,3.1-2.1,4.6-3.1C50.9,7.3,51,4,45,1.4z M47,3.7c0.4,0.4,0.8,0.9,1,1.5
		c-1.7,4-4.8,6.7-9.2,8c-0.1-0.2-0.2-0.3-0.3-0.4c-0.8-1.7-1.8-3.3-2.9-4.9c0.1-0.4,0.1-0.8,0-1.1c-0.3-1-0.6-2-1-3
		c0.2-0.1,0.2-0.2,0.2-0.4c0.1-1,0.7-1.6,1.7-1.9c0.8,0,1.6,0,2.4-0.1c0.1,0.1,0.2,0.2,0.3,0.2c1.2,0.7,2,1.7,2.4,3.1
		c1.7-1,3.3-1.4,5-1.4C46.8,3.4,46.9,3.5,47,3.7z"/>
	<path style="fill:#3172A1;" d="M36.4,4.9c0.1-0.5,0-1-0.3-1.5h-0.2c-0.1,3.8,1.2,6.7,3.9,8.5c-1.1-2.1-2.2-4.3-3.4-6.6
		C36.4,5.2,36.4,5.1,36.4,4.9z"/>
	<path style="fill:#009659;" d="M46.2,31.4L46.2,31.4h-0.3H46.2z"/>
	<path d="M45.9,31.4c0,0.1,0.1,0.3,0.1,0.5c0.1-0.1,0.1-0.2,0.1-0.3s0-0.1,0.1-0.2H45.9z"/>
	<path style="fill:#3172A1;" d="M45.7,30.5c-0.1,0-0.2,0-0.3-0.1c-3.2-1.1-6.6-1.6-10.1-1.2c-0.4,0.2-0.7,0.3-1.2,0.5c0,0,0,0-0.1,0
		c0-0.3,0-0.5-0.1-0.8c-0.1-0.5-0.2-1-0.4-1.4c0,0.6-0.1,1.2-0.2,1.6c-0.2,0.6-0.4,1.2-0.7,1.8c0.1,0,0.1,0,0.2,0c0.3,0,0.6,0,0.9,0
		c0.5,0,1,0,1.6,0.1c4.1,0.2,7.6,0.3,10.6,0.4h0.3c0.1,0,0.2,0,0.3,0c-0.4-0.4-0.7-0.8-0.9-1.2C45.6,30.3,45.6,30.4,45.7,30.5z"/>
	<path style="fill:#3172A1;" d="M36,38.8c-1.6-0.1-3.2-0.1-4.7-0.2c-3.4,0.8-5.8,2.8-7.2,6c-3.8,8.7-1.2,14.3,7.7,16.8
		c1.3-0.5,2.7-0.8,4.2-1.3c0.8-0.2,1.5-0.7,2-1.3c0.7,0.9,1.7,1.6,2.9,2c1.9,0.7,3.7,0.6,5.5-0.2c5.3-2.4,7.5-6.1,6.7-11.1
		c0.1-0.1,0.3-0.1,0.4-0.1c-0.1-0.1-0.3-0.2-0.5-0.3c-0.2-1-0.5-2.1-1-3.2c-0.9-1.2-1.9-2.3-3-3.4c-3.2-3-6.9-3.7-11-2.2
		c-0.4-0.4-0.9-0.7-1.5-1.2C36.4,39,36.2,38.9,36,38.8z M37.6,42.4c0.2,0.3,0.4,0.5,0.7,0.7c0.5,0,0.9-0.3,1.2-0.8
		c0.2-0.3,0.5-0.7,0.9-0.9c3-0.2,5.6,0.7,7.9,2.6c0.2,0.3,0.4,0.5,0.6,0.8c0.8,1.2,1.5,2.3,1.9,3.4c-4.4-1.7-8.8-3.1-13.3-4.2
		c-4.4,1-8.8,2-12.9,3.2c0.9-2.8,3.3-5.2,7.2-7.1c2.2-0.6,4-0.2,5.6,1.3C37.4,41.8,37.5,42.1,37.6,42.4z M25.9,56.9
		c-1.8-3.6-2.3-6.8-1.4-9.4c5,0,9.9-0.6,14.9-2.1c0,0.1,0.1,0.1,0.1,0.1c4.2,2.3,8.1,3.6,11.7,3.9c1,3.8-0.3,7.1-4.2,10
		c-3.4,0.8-6.3,0.1-8.7-2.3c-3.4,2.7-7,3.2-10.8,1.3C26.7,58.1,26.2,57.6,25.9,56.9z"/>
	<path style="fill:#3172A1;" d="M41.9,49.6c-0.2-0.1-0.3-0.1-0.4-0.2c-0.8-0.1-1.5-0.2-2.2-0.3v0.1c-0.6,0.1-0.9,0.4-0.7,1.1
		c0,0.1,0,0.2,0,0.3c0,0.2,0.1,0.3,0.1,0.4c0.9,1.1,1.9,1.3,3.1,0.5c0.1-0.5,0.2-1,0.1-1.5C41.9,49.9,41.9,49.8,41.9,49.6z"/>
	<path style="fill:#3172A1;" d="M37.4,49.1c-0.2-0.1-0.3-0.2-0.4-0.2c-0.4-0.1-0.8-0.2-1.2-0.3c-0.3,0.1-0.5,0.3-0.8,0.5
		c-0.4,0.4-0.5,0.9-0.4,1.5c0.7,1.3,1.5,1.6,2.6,1.1c0.1-0.1,0.1-0.1,0.2-0.1c0-0.1,0.1-0.2,0.2-0.2c0.2-0.4,0.2-0.7,0.2-1.1
		C37.8,49.8,37.7,49.5,37.4,49.1z"/>
	<path style="fill:#3172A1;" d="M21.6,53.4c0,0,0,0-0.1,0c-1.7,1.6-2.3,2.9-2,4.2c0.1-0.1,0.2-0.2,0.2-0.2
		C20.9,56.1,21.5,54.8,21.6,53.4z"/>
	<path style="fill:#3172A1;" d="M20,51.4c-0.1,0.1-0.2,0.2-0.2,0.3c-1.3,2.2-2.4,4.4-3.3,6.6c0.2-0.1,0.3-0.2,0.4-0.3
		C19,55.6,20,53.5,20,51.4z"/>
	<path style="fill:#3172A1;" d="M17.5,50.8c-0.1,0.1-0.2,0.2-0.3,0.3c-1.3,1.7-2.2,3.6-2.8,5.6c0.1,0.2,0.1,0.4,0.2,0.6
		C16.7,55,17.7,52.8,17.5,50.8z"/>
	<path style="fill:#3172A1;" d="M17.8,59.8c-1,0.7-0.9,1.8,0.3,3.4c3.9,4.9,8.4,8,13.6,9.3c2.6,0.6,5.5,0.8,8.5,0.5
		c2.7-0.2,5.5-0.9,8.5-1.9c6.1-2.2,9.6-5.7,10.4-10.7c-2.8,4.1-6.6,7-11.6,8.8C34.3,74,24.3,70.9,17.8,59.8z"/>
	<path style="fill:#3172A1;" d="M14.4,57.7c0,0.3-0.1,0.5-0.1,0.7c0.1,0,0.2,0,0.2-0.1c0,0,0,0,0.1,0C14.5,58.1,14.5,57.9,14.4,57.7
		z"/>
	<path style="fill:#3172A1;" d="M63.3,52.3c-0.3,0-0.4,0-0.5,0.1c-0.1,0.1-0.2,0.2-0.3,0.2c0.1,0.5,0.2,1,0.3,1.4
		C63,53.5,63.2,52.9,63.3,52.3z"/>
	<path style="fill:#3172A1;" d="M62.8,56c-0.1-0.4-0.2-0.9-0.3-1.4c-1.7,1.5-2.6,3.1-2.7,5c0.1,0,0.2-0.1,0.4-0.2
		C61.4,58.4,62.2,57.2,62.8,56z"/>
	<path style="fill:#3172A1;" d="M58.6,55c0,0.2-0.1,0.3-0.1,0.3c-1.5,1.3-2.3,2.8-2.2,4.6c0.1,0,0.2-0.1,0.3-0.2
		c1.6-2.3,3.1-4.5,4.5-6.7c-0.1,0.1-0.2,0.2-0.3,0.2C60,53.9,59.4,54.5,58.6,55z"/>
	<path style="fill:#3172A1;" d="M56.8,55.6c1.6-1.5,2.1-2.7,1.2-3.4c-0.1,0-0.2,0.1-0.3,0.2c-2.7,2.4-3.5,4.5-2.7,6.4
		c0.2-0.2,0.4-0.4,0.4-0.7c0.3-0.7,0.6-1.5,1-2.2C56.5,55.8,56.6,55.7,56.8,55.6z"/>
	<g>
		<path style="fill:#3172A1;" d="M63.8,20.3c0.1-0.1,0.2-0.3,0.2-0.4c0.5-0.6,1-0.9,1.6-0.7c0.3,0.2,0.4,0.5,0.6,0.8
			c0.4,0.9,0.8,1.7,1.3,2.5C67.2,23,67,23.5,67,24c0,1.4-0.1,2.8-0.5,4.2c-0.7,1-1.7,1.3-2.7,1c-0.4-0.3-0.6-0.7-0.8-1
			c-0.4-0.5-0.3-1.1,0.3-1.7v-0.2C61.2,26,59,26.2,57,26.6c-5.4,1.1-7.6,3.6-6.8,7.5c0,0.1-0.1,0.2-0.2,0.3h-0.1
			c-0.2,0.3-0.3,0.6-0.4,1c-0.2,0.1-0.4,0.3-0.6,0.4c2.1,0.6,4,1.4,5.9,2.3c0.4,0.2,0.7,0.3,1.1,0.4c0.6,0.5,1.3,1,1.9,1.5
			c0.7,0.1,1.5,0.1,2.2,0.2c0.2,0,0.4,0,0.7,0c-0.2-0.1-0.2-0.2-0.3-0.3c-1.1-1.2-1.9-2.6-2.1-4.3c0-0.1,0.1-0.2,0.1-0.3
			c1.2-1.2,1.8-2.1,1.8-2.7c0.5-0.1,1,0,1.4,0c-0.1-0.1-0.1-0.2-0.3-0.3c-0.1-0.1-0.3-0.2-0.5-0.3c0.2,0,0.5-0.2,0.7-0.4
			c-1-0.5-1.7-1.2-2.4-1.9c0.1-0.2,0.1-0.3,0.2-0.3c1.2-0.9,1.8-1.5,2-2.1c0.1,0.1,0.2,0.1,0.3,0.1c0,0.3,0.1,0.5,0.1,0.8
			c0.3,1,0.8,1.8,1.7,2.6c0.8-0.1,1.6-0.1,2.4-0.1c0.3-0.3,0.6-0.6,0.8-1c1.4-2.5,2.2-5.2,2.4-8c-0.1-0.2-0.1-0.3-0.2-0.4
			c-0.4-1.9-1.5-3.3-3.3-4.2c-0.1,0-0.2,0-0.2,0.1c-2.3,0.9-3.6,2.6-3.9,5.2c-3.1-0.2-6.1,0.4-8.9,1.5c-5.3,2.1-7.6,5.2-6.9,9.2
			c0.2,0.5,0.5,0.9,0.9,1.3c0.3,0,0.6,0,0.9,0c-0.1-0.1-0.1-0.2-0.2-0.2c-0.3-0.2-0.6-0.3-0.9-0.4c2.3-7.3,7.8-10.7,16.6-10.1
			c0.1-0.4,0.2-0.8,0.3-1.2C63.3,21.8,63.5,21,63.8,20.3z M59.5,27.2c-0.2,0.1-0.5,0.2-0.7,0.3c-0.1,0.2-0.3,0.3-0.3,0.4
			c-0.3,0.5-0.5,1-0.7,1.5c0,0.1,0,0.3,0,0.3c0.2,0.7,0.6,1.2,1,1.6c-1-0.2-2-0.2-3,0c-1.2,0.2-2.4,0.6-3.6,1.2
			c-0.5,0.2-0.9,0.5-1.3,0.8C52.2,29.2,55,27.1,59.5,27.2z M51.4,34.9c0.4,0,0.7-0.2,1.1-0.4c2.2-1,4.3-1.7,6.2-1.9
			c-0.5,0.6-1,1.3-1.4,1.9c0,0.2,0,0.3,0,0.4c-0.1,1.5,0.2,2.7,0.6,3.7C56,37.1,53.8,35.8,51.4,34.9z"/>
		<path d="M63.3,26.3v0.2V26.3z"/>
		<path style="fill:#3172A1;" d="M33.3,32.1c0.1-0.5,0.2-1,0.2-1.6c-1.1-3.6-3-6.3-5.6-8.2c-1-0.7-2.1-1.3-3.3-1.8
			c-2-0.8-4.5-1.3-7.2-1.5c0-0.6-0.1-1.2-0.2-1.8c-0.2-0.6-0.5-1.1-0.9-1.6c-0.3-0.1-0.6-0.2-0.8-0.2c-0.6-0.1-1.2-0.2-1.7-0.3
			c-2.4,1.2-3.4,3.3-3.1,6.2c0.1,2.3,0.9,4.2,2.2,6c1.1,0,2.2,0,3.2,0c0.3-0.4,0.6-0.6,0.9-1c0.1-0.1,0.2-0.3,0.4-0.4
			c0-0.1,0-0.2,0-0.4c0-0.3,0-0.7,0.1-1.1c0.1-0.1,0.1-0.2,0.3-0.4c0.2-0.1,0.5-0.2,0.7-0.2c0.2,0.2,0.6,0.3,1,0.4
			c0.1,0.1,0.2,0.2,0.3,0.3c0.7,0.7,1.2,1.4,1.5,2.3c-1.2,1.6-2.7,2.9-4.5,3.9c-0.3,0-0.4,0.1-0.4,0.2c-0.1,0-0.1,0-0.1,0
			c0,0.1,0,0.3,0.1,0.3c0.5,0.6,1.2,1,2,1.3c0.1,0.2,0.2,0.4,0.4,0.6c0.6,0.8,1,1.7,1.3,2.7c-0.8,1.7-2,3.2-3.6,4.3
			c0.8,0.5,1.6,0.9,2.3,1.4c0.1-0.1,0.2-0.2,0.2-0.3c2.7-2.9,5.9-4.9,9.6-6v-0.1c0.2-1.2,0.2-2.4,0-3.7c-1-5.7-4.1-8.7-9.5-9
			c0,0,0,0-0.1,0c-0.2-0.1-0.4,0-0.5,0c-0.7,0-1.5,0-2.4,0.1c0,0.8,0,1.5-0.1,2.2c-0.1,0.3-0.2,0.6-0.4,0.8
			c-0.5,0.2-1.1,0.3-1.7,0.4c-0.1,0.1-0.1,0-0.1,0c-0.5-0.5-0.7-1.1-0.8-1.7c-0.1-0.8-0.2-1.4-0.3-2c-0.3-1.5-0.3-3-0.1-4.4
			c0.3-0.3,0.6-0.5,0.8-0.7c0.7-0.6,1.4-0.6,2.1-0.1c0.6,0.5,0.9,1.1,0.7,1.9c0,0.5-0.1,1-0.1,1.5c2.8,0.3,5.6,1.1,8.3,2.1
			c3,1.2,4.9,3.2,5.8,6c0.6,1.8,1.4,3.3,2.2,4.2c-0.2,0-0.4,0-0.6,0.1c-0.2,0-0.3,0.1-0.5,0.3c-0.1,0.1-0.2,0.2-0.3,0.3
			c-0.1,0.1-0.1,0.2-0.1,0.4c0,0.1,0,0.2,0.1,0.3c0.2,0.2,0.4,0.3,0.5,0.3c0.2,0.1,0.3,0,0.4-0.1c0.1,0,0.2-0.1,0.3-0.2
			c0.1,0,0.3-0.1,0.4-0.2C32.9,33.3,33.1,32.7,33.3,32.1z M22.3,27.8c0-0.3,0-0.5,0-0.8c0-0.5,0-1-0.2-1.5c-0.1-0.1-0.3-0.3-0.3-0.4
			c-0.2-0.4-0.4-0.8-0.7-1.1c0.3,0.2,0.6,0.2,0.8,0.4c2.2,1.1,4,2.7,5.2,4.8c0,0.2,0,0.5,0,0.7c0,0.5-0.1,0.9,0,1.1
			c0,1.2,0.2,2.1,0.5,2.9c0,0,0,0,0,0.1c-2.7,1-5.1,2.2-7.2,3.7c0.4-0.6,0.6-1.2,0.9-1.8c-0.6-1.4-1.1-2.6-1.5-3.5
			c1,0,2.1-0.1,3.3-0.4c1.4,1.3,2.8,1.8,4.1,1.6c0.1,0,0.1-0.1,0.1-0.2c-0.1-0.1-0.2-0.2-0.2-0.4c-0.5-0.6-1.1-1.2-1.8-1.5
			c-0.2-0.1-0.4-0.2-0.5-0.3C24.5,31,24.3,31,24,30.9c-1.7-0.1-3.4-0.1-5-0.2C20.3,30,21.4,29,22.3,27.8z"/>
		<path d="M28.6,35.1v0.1l0,0V35.1z"/>
	</g>
</g>
</svg>
