<?xml version="1.0" encoding="iso-8859-1"?>
<!-- Generator: Adobe Illustrator 12.0.1, SVG Export Plug-In . SVG Version: 6.00 Build 51448)  -->
<!DOCTYPE svg PUBLIC "-//W3C//DTD SVG 1.1//EN" "http://www.w3.org/Graphics/SVG/1.1/DTD/svg11.dtd" [
	<!ENTITY ns_svg "http://www.w3.org/2000/svg">
	<!ENTITY ns_xlink "http://www.w3.org/1999/xlink">
]>
<svg  version="1.1" id="Layer_1" xmlns="&ns_svg;" xmlns:xlink="&ns_xlink;" width="82.8" height="79.631"
	 viewBox="0 0 82.8 79.631" style="overflow:visible;enable-background:new 0 0 82.8 79.631;" xml:space="preserve">
<g>
	<g>
		<path style="fill:#3172A1;" d="M80.1,75.3c0.1-0.1,0.2-0.2,0.3-0.2c0.2-0.2,0.5-0.4,0.7-0.7c0.6-0.1,1.1-0.1,1.7-0.2
			c-0.1-0.1-0.1-0.1-0.2-0.1c-0.3-0.1-0.7-0.1-1.1-0.2c0.3-0.3,0.4-0.7,0.5-1.1c-6.9-4.2-14.6-6.4-23-6.5c0-0.1,0-0.2,0-0.4
			c0.1-2.3-0.5-4.2-1.8-5.7c8.1-4.9,11.2-12.4,9.5-22.3c-0.5-2.5-1.2-4.7-2.4-6.8c-1.1-1.9-2.4-3.7-3.8-5.2c0.4,0.1,0.8,0.2,1.3,0.3
			c-0.3-0.3-0.5-0.5-0.8-0.7c-1.5-1.4-2.4-3-2.7-5c0-0.1,0.1-0.2,0.1-0.3c1.2-1.1,1.8-2.1,1.8-2.7c0.5-0.1,1,0,1.4,0.1
			c-0.1-0.2-0.1-0.3-0.3-0.4c-0.1-0.1-0.3-0.2-0.5-0.3c0.2,0,0.5-0.2,0.7-0.3c-1-0.6-1.7-1.3-2.4-2c0.1-0.2,0.1-0.3,0.2-0.3
			c1.2-0.9,1.8-1.5,2-2.1c0.1,0.1,0.2,0.1,0.3,0.1c0,0.3,0.1,0.5,0.1,0.8c0.3,1,0.8,1.8,1.7,2.6c0.8-0.1,1.6-0.1,2.4-0.1
			c0.3-0.3,0.6-0.6,0.8-1c1.4-2.5,2.2-5.2,2.4-8c-0.1-0.2-0.1-0.3-0.2-0.4c-0.4-1.9-1.5-3.3-3.3-4.2c-0.1,0-0.2,0-0.2,0.1
			C63,3,61.7,4.7,61.4,7.3c-3.1-0.2-6.1,0.4-8.9,1.5c-5.4,2.2-7.7,5.4-6.8,9.6c-3.3-1.2-6.8-1.7-10.4-1.3c-0.4,0.2-0.8,0.3-1.3,0.5
			c0-0.3,0-0.5-0.1-0.8C31.8,8.6,26.3,4.4,17.4,3.9c0-0.6-0.1-1.2-0.2-1.8C17,1.5,16.7,1,16.3,0.5c-0.3-0.1-0.6-0.2-0.8-0.2
			c-0.6-0.1-1.2-0.2-1.7-0.3c-2.4,1.2-3.4,3.3-3.1,6.2c0.1,2.3,0.9,4.2,2.2,6c1.1,0,2.2,0,3.2,0c0.3-0.4,0.6-0.6,0.9-1
			c0.1-0.1,0.2-0.3,0.4-0.4c0-0.1,0-0.2,0-0.4c0-0.3,0-0.7,0.1-1.1c0.1-0.1,0.1-0.2,0.3-0.4c0.2-0.1,0.5-0.2,0.7-0.2
			c0.2,0.2,0.6,0.3,1,0.4c0.1,0.1,0.2,0.2,0.3,0.3c0.7,0.7,1.2,1.4,1.5,2.3c-1.2,1.6-2.7,2.9-4.5,3.9c-0.3,0-0.4,0.1-0.4,0.2
			c-0.1,0-0.1,0-0.1,0c0,0.1,0,0.3,0.1,0.3c0.5,0.6,1.2,1,2,1.3c0.1,0.2,0.2,0.4,0.4,0.7c0.6,0.7,1,1.6,1.3,2.6
			c-0.8,1.8-2.1,3.3-3.8,4.5c0.1,0.2,0.3,0.4,0.6,0.5c-4.3,4.4-6.5,10.2-6.8,17.5c0,2.1,0.2,4.2,0.7,6.1c1.5,5.2,4.2,9.1,8.3,11.8
			c-1,1.7-1.5,3.6-1.3,5.7c-6.2-0.5-11.6,1.1-16.3,4.7c0,0.2,0,0.3,0,0.4c-0.1,0.8,0,1.6,0.3,2.3c0,0.1,0,0.1,0.1,0.1
			c-0.8,0.3-1.4,0.9-1.9,1.5c1.2,0.1,2.2-0.1,3.2-0.4c0.9,0.1,1.8,0.3,2.6,0.4c-1.3,0.5-2.6,1.2-3.7,2.1c0.1,0.2,0.1,0.2,0.1,0.2
			c2.2-0.5,4.3-1.1,6.6-1.9c1,0.1,2,0.2,2.9,0.3c-1.6,0.4-3.1,1-4.4,1.7c2.5-0.1,5.1-0.6,7.6-1.6c2,0,4-0.1,6.1-0.3
			c-2.3,0.8-4.5,1.5-6.7,2.4c0.2,0,0.4,0,0.7,0c8.4-1.9,16.7-4.1,24.8-6.5c1.6-0.1,3.2-0.2,4.8-0.5c-0.4,0.2-0.9,0.4-1.5,0.5
			c-5.7,1.3-11,3.2-16.1,5.6c6-1.1,12.4-2.8,19-5.2c1.5,0.7,3,1.3,4.5,1.9c-0.8-0.2-1.6-0.4-2.5-0.4c-0.5,0.3-1.1,0.5-2,0.7
			c-3.2,0.3-6.1,1.3-8.7,2.9c0.3,0,0.7-0.1,1.1-0.1c4.4-0.9,8.5-1.8,12.4-2.9c-0.1-0.1-0.1-0.1-0.2-0.2c0.9,0.3,1.7,0.6,2.6,0.8
			c-1.9,0.4-3.4,1.1-4.6,2.1c0.3,0.6,0.7,0.8,1.5,0.7c3.5-0.6,5.3-1.3,5.3-2.2c1.9,0.4,3.7,0.7,5.6,1c-0.1-0.1-0.3-0.1-0.5-0.1
			c-0.9,0.3-2,0.6-3.2,0.9c-0.4,0.1-0.7,0.3-0.7,0.7c0.3,0.7,0.7,0.8,1.3,0.5c1.5-0.9,3.1-1.4,4.9-1.7c-0.1-0.1-0.1-0.1-0.2-0.1
			C62.3,77,62,77,61.7,76.9c1.5,0.2,3.1,0.2,4.7,0.2c-1.4,0.7-2.5,1.4-3.6,2.2c0.5,0.4,1.1,0.4,1.7,0.2c2.1-0.9,4.4-1.8,6.6-2.6
			C74.1,76.6,77.1,76.1,80.1,75.3z M66.2,4.9c0.4,0.9,0.8,1.7,1.3,2.5c-0.3,0.5-0.5,1-0.5,1.5c0,1.4-0.1,2.8-0.5,4.2
			c-0.7,1-1.7,1.3-2.7,1c-0.4-0.3-0.6-0.7-0.8-1c-0.4-0.5-0.3-1.1,0.3-1.7v-0.2c-2.1-0.3-4.3-0.1-6.3,0.3c-5.4,1.1-7.6,3.6-6.8,7.5
			c0,0.1-0.1,0.2-0.2,0.3h-0.1c-0.2,0.3-0.3,0.6-0.4,1c-0.2,0.1-0.4,0.3-0.6,0.4c2.1,0.6,4,1.4,5.9,2.3c0.4,0.2,0.7,0.3,1.1,0.4
			c0.7,0.6,1.5,1.2,2.3,1.7c1.4,1,2.6,2.2,3.4,3.6c0.2,0.2,0.2,0.5,0.3,0.7l-0.2,0.2c2.4,3.4,3.7,7.9,3.7,13.3c0,4.3-1.5,7.9-4.5,11
			c-9.3,9.8-21.1,12.4-35.3,8c-3.9-1.2-7-3.4-9.5-6.5c-5.2-6.5-6.1-13.9-2.6-22c0.1-0.1,0.2-0.2,0.4-0.4c0.1-0.1,0.2-0.2,0.4-0.3
			c0-0.2,0.1-0.3,0.2-0.4c0-0.1,0-0.2,0-0.4c0-0.1,0-0.2,0.1-0.3c0-0.2,0.1-0.3,0.2-0.4c0.8-0.7,1.5-1.5,2.1-2.4
			c3-4.4,6.9-7.3,11.7-8.7V20c0.2-1.2,0.2-2.4,0-3.7c-1-5.7-4.1-8.7-9.5-9c0,0,0,0-0.1,0c-0.2-0.1-0.4,0-0.5,0c-0.7,0-1.5,0-2.4,0.1
			c0,0.8,0,1.5-0.1,2.2c-0.1,0.3-0.2,0.6-0.4,0.8c-0.5,0.2-1.1,0.3-1.7,0.4c-0.1,0.1-0.1,0-0.1,0c-0.5-0.5-0.7-1.1-0.8-1.7
			c-0.1-0.8-0.2-1.4-0.3-2c-0.3-1.5-0.3-3-0.1-4.4c0.3-0.3,0.6-0.5,0.8-0.7c0.7-0.6,1.4-0.6,2.1-0.1c0.6,0.5,0.9,1.1,0.7,1.9
			c0,0.5-0.1,1-0.1,1.5c2.8,0.3,5.6,1.1,8.3,2.1c3,1.2,4.9,3.2,5.8,6c0.6,1.8,1.4,3.3,2.2,4.2c-0.2,0-0.4,0-0.6,0.1
			c-0.2,0-0.3,0.1-0.5,0.3c-0.1,0.1-0.2,0.2-0.3,0.3c-0.1,0.1-0.1,0.3-0.1,0.4s0,0.2,0.1,0.4c0.2,0.1,0.4,0.2,0.5,0.2
			c0.2,0.1,0.3,0,0.4-0.1c0.1,0,0.2-0.1,0.3-0.1c0.2-0.2,0.3-0.3,0.6-0.3c0.8,0,1.6,0,2.5,0.1c4.1,0.2,7.6,0.3,10.6,0.4h0.3
			c0.4,0,0.8,0,1.2,0c-0.1-0.1-0.1-0.2-0.2-0.2c-0.3-0.2-0.6-0.3-0.9-0.4C48.6,11.4,54.1,8,62.9,8.6c0.1-0.4,0.2-0.8,0.3-1.2
			c0.1-0.7,0.3-1.5,0.6-2.2C63.9,5,64,4.9,64,4.8c0.5-0.6,1-0.9,1.6-0.8C65.9,4.3,66,4.6,66.2,4.9z M58.8,12.4
			c-0.1,0.2-0.3,0.3-0.3,0.4c-0.3,0.5-0.5,1-0.7,1.5c0,0.1,0,0.3,0,0.3c0.2,0.7,0.6,1.2,1,1.6c-1-0.2-2-0.2-3,0
			c-1.2,0.2-2.4,0.6-3.6,1.2c-0.5,0.2-0.9,0.5-1.3,0.8c1.3-4.1,4.1-6.2,8.6-6.1C59.3,12.2,59,12.3,58.8,12.4z M51.4,19.8
			c0.4,0,0.7-0.2,1.1-0.4c2.2-1,4.3-1.7,6.2-1.8c-0.5,0.5-1,1.2-1.4,1.8c0,0.2,0,0.3,0,0.4c-0.1,1.5,0.2,2.7,0.6,3.7
			C56,22,53.8,20.7,51.4,19.8z M21.1,8.9c0.3,0.2,0.6,0.2,0.8,0.4c2.2,1.1,4,2.7,5.2,4.8c0,0.2,0,0.5,0,0.7c0,0.5-0.1,0.9,0,1.1
			c0,1.2,0.2,2.2,0.5,2.9c0,0,0,0,0,0.1c-2.7,1-5.1,2.2-7.2,3.7c0.4-0.6,0.6-1.2,0.9-1.8c-0.6-1.4-1.1-2.6-1.5-3.5
			c1,0,2.1-0.1,3.3-0.4c1.4,1.3,2.8,1.8,4.1,1.6c0.1,0,0.1-0.1,0.1-0.2c-0.1-0.1-0.2-0.2-0.2-0.4c-0.5-0.6-1.1-1.2-1.8-1.5
			c-0.2-0.1-0.4-0.2-0.5-0.3c-0.3-0.2-0.5-0.2-0.8-0.3c-1.7-0.1-3.4-0.1-5-0.2c1.3-0.7,2.4-1.7,3.3-2.9c0-0.3,0-0.5,0-0.8
			c0-0.5,0-1-0.2-1.5c-0.1-0.1-0.3-0.3-0.3-0.4C21.6,9.6,21.4,9.2,21.1,8.9z M24.6,68c-0.6-0.1-1.3-0.2-2.1-0.3
			c0.5-1.9,0.6-3.4,0.3-4.6c1.8,0.8,3.7,1.3,5.7,1.8c0.8,0.1,1.5,0.3,2.2,0.4C28.4,65.4,26.4,66.3,24.6,68c3.2-0.4,6.7-0.9,10.5-1.6
			c0-0.1,0-0.2,0.1-0.3c0-0.2,0-0.3,0.1-0.4c2.4,0.1,4.9,0,7.3-0.3l0,0c2.1,1,4.5,1.8,7.3,2.5c-1.6,0.6-2.9,1.6-3.9,2.9
			c-5.4,0.1-10.9-0.2-16.4-0.9C28.1,69,26.5,68.4,24.6,68z M21.8,62.7c-1,2.2-1,4.4-0.3,6.7c3.1,1,6.3,2,9.4,3.3
			C21.3,75.6,12,75.6,3,72.8c4.4-3.3,9.7-4.9,15.8-4.9c0-0.1,0-0.2,0-0.4c0.2-2.1,0.4-4.2,0.8-6C20.3,61.9,21,62.3,21.8,62.7z
			 M33.2,72.8c-0.1-0.1-0.1-0.2-0.1-0.3c-0.6-0.6-1.3-1.1-1.9-1.6c1.6,0.5,3.3,0.9,5,1.1C35.2,72.2,34.2,72.5,33.2,72.8z M55.4,61.2
			c0.2-0.1,0.4-0.2,0.6-0.3c1.1,2.2,1.8,4.6,2,7c8.2,0.3,15.4,2,21.6,5.4c-11,3.3-21.8,2.7-32.3-1.6c2.4-1.8,5-2.8,8-3.3
			c0-0.1,0-0.2,0.1-0.4c0.5-2.7,0-4.8-1.5-6C54.4,61.7,54.9,61.5,55.4,61.2z M54.1,67c-0.9,0.1-1.8,0.2-2.6,0.4
			c-2.1-1-4-1.8-5.9-2.6c2.6-0.6,5.2-1.4,7.7-2.6C54.3,63.6,54.5,65.2,54.1,67z"/>
		<path style="fill:#009659;" d="M46.2,19.3h-0.3H46.2L46.2,19.3z"/>
		<path d="M45.9,19.3c0,0.1,0.1,0.3,0.1,0.5c0.1-0.2,0.1-0.3,0.2-0.5H45.9z"/>
		<path d="M63.3,11.2v0.2V11.2z"/>
		<path d="M61.7,29.6l0.2-0.2c-0.5-0.4-0.9-0.8-1.4-1.2C60.9,28.6,61.3,29.1,61.7,29.6z"/>
		<path d="M28.6,20v0.1l0,0V20z"/>
		<path style="fill:#3172A1;" d="M80.5,75.7v0.1c-3.1,0.5-5.8,1.7-8.2,3.4c0.2,0.1,0.4,0.1,0.6,0c2.9-1.1,5.9-2.1,8.9-3
			c-0.1-0.1-0.2-0.1-0.2-0.2C81.2,75.9,80.9,75.8,80.5,75.7z"/>
	</g>
	<g>
		<path style="fill:#3172A1;" d="M36.5,24c-0.1-0.1-0.3-0.2-0.5-0.3c-1.6-0.1-3.2-0.1-4.7-0.2c-3.4,0.8-5.8,2.8-7.2,6
			c-3.8,8.7-1.2,14.3,7.7,16.8c1.3-0.5,2.7-0.8,4.2-1.3c0.8-0.2,1.5-0.7,2-1.3c0.7,0.9,1.7,1.6,2.9,2c1.9,0.7,3.7,0.6,5.5-0.2
			c6.5-2.9,8.4-7.8,5.6-14.7c-0.9-1.2-1.9-2.3-3-3.4c-3.2-3-6.9-3.7-11-2.2C37.6,24.8,37.1,24.5,36.5,24z M37.4,26.3
			c0,0.4,0.1,0.7,0.2,1c0.2,0.3,0.4,0.5,0.7,0.7c0.5,0,0.9-0.3,1.2-0.8c0.2-0.3,0.5-0.7,0.9-0.9c3-0.2,5.6,0.7,7.9,2.6
			c0.2,0.3,0.4,0.5,0.6,0.8c4,5.7,3.4,10.6-1.9,14.6c-3.4,0.8-6.3,0.1-8.7-2.4c-3.4,2.8-7,3.3-10.8,1.4c-0.8-0.4-1.3-0.9-1.6-1.5
			c-3.6-7.5-1.7-13.1,5.9-16.8C34,24.4,35.8,24.8,37.4,26.3z"/>
		<path style="fill:#3172A1;" d="M41.9,34.9c0-0.1,0-0.2,0-0.4c-0.2-0.1-0.3-0.1-0.4-0.2c-0.8-0.1-1.5-0.2-2.2-0.3v0.1
			c-0.6,0.1-0.9,0.4-0.7,1.1c0,0.1,0,0.2,0,0.3c0,0.2,0.1,0.3,0.1,0.4c0.9,1.1,1.9,1.3,3.1,0.5C41.9,35.9,42,35.4,41.9,34.9z"/>
		<path style="fill:#3172A1;" d="M37.4,34c-0.2-0.1-0.3-0.2-0.4-0.2c-0.4-0.1-0.8-0.2-1.2-0.3c-0.3,0.1-0.5,0.3-0.8,0.5
			c-0.4,0.4-0.5,0.9-0.4,1.5c0.7,1.3,1.5,1.6,2.6,1.1c0.1-0.1,0.1-0.1,0.2-0.1c0-0.1,0.1-0.2,0.2-0.2c0.2-0.4,0.2-0.7,0.2-1.1
			C37.8,34.7,37.7,34.4,37.4,34z"/>
		<path d="M28.2,53.9l0.1-0.2H28C28,53.8,28.1,53.8,28.2,53.9z"/>
		<path style="fill:#3172A1;" d="M28.3,53.7l-0.1,0.2c5.4,2.6,11.7,3.1,19.1,1.5v-0.2C40.9,55.1,34.5,54.5,28.3,53.7z"/>
	</g>
</g>
</svg>
