<?xml version="1.0" encoding="iso-8859-1"?>
<!-- Generator: Adobe Illustrator 12.0.1, SVG Export Plug-In . SVG Version: 6.00 Build 51448)  -->
<!DOCTYPE svg PUBLIC "-//W3C//DTD SVG 1.1//EN" "http://www.w3.org/Graphics/SVG/1.1/DTD/svg11.dtd" [
	<!ENTITY ns_svg "http://www.w3.org/2000/svg">
	<!ENTITY ns_xlink "http://www.w3.org/1999/xlink">
]>
<svg  version="1.1" id="Layer_1" xmlns="&ns_svg;" xmlns:xlink="&ns_xlink;" width="82.8" height="70.231"
	 viewBox="0 0 82.8 70.231" style="overflow:visible;enable-background:new 0 0 82.8 70.231;" xml:space="preserve">
<g>
	<g>
		<path style="fill:#3172A1;" d="M80.5,66.3v0.1c-3.1,0.5-5.8,1.7-8.2,3.4c0.2,0.1,0.4,0.1,0.6,0c2.9-1.1,5.9-2.1,8.9-3
			c-0.1-0.1-0.2-0.1-0.2-0.2C81.2,66.5,80.9,66.4,80.5,66.3z"/>
		<path style="fill:#3172A1;" d="M80.1,65.9c0.1-0.1,0.2-0.2,0.3-0.2c0.2-0.2,0.5-0.4,0.7-0.7c0.6-0.1,1.1-0.1,1.7-0.2
			c-0.1-0.1-0.1-0.1-0.2-0.1c-0.3-0.1-0.7-0.1-1.1-0.2c0.3-0.3,0.4-0.7,0.5-1.1c-6.5-4-13.8-6.1-21.7-6.5l0,0c1-1.1,1.4-2.3,1.3-3.7
			c-0.1-0.2-0.1-0.3-0.2-0.3c-0.5-0.4-1-0.7-1.6-0.9c6.2-4.9,8.4-11.7,6.9-20.5c-0.5-2.5-1.2-4.7-2.4-6.8c-0.9-1.7-2-3.3-3.3-4.6
			c0-0.1,0-0.1,0.1-0.1c0-0.1-0.1-0.2-0.1-0.2c-0.1-0.1-0.2-0.1-0.2-0.2l0,0c0.2,0,0.6,0.1,1,0.2c-0.3-0.3-0.5-0.5-0.8-0.7
			c-0.2-0.3-0.5-0.5-0.7-0.8c0,0,0,0,0-0.1c-0.4,0-0.8-0.1-1.2-0.2c-0.3-0.6-0.6-1.1-0.8-1.7c1.5-0.6,2.8-1.1,4.1-1.5
			c0-0.1-0.1-0.2-0.1-0.3c-0.4-0.2-0.8-0.5-1-0.7c-0.1-0.1-0.2-0.2-0.3-0.2c0-0.1-0.1-0.1-0.1-0.2c-0.3-0.2-0.5-0.4-0.6-0.6
			c-0.3-0.3-0.5-0.7-0.8-1c0-0.1,0-0.2,0-0.4c0-0.4,0-0.8-0.1-1.1c0-0.1,0.1-0.2,0.1-0.2c0.8-0.4,1.5-0.8,1.9-1.2c0,0.1,0,0.2,0,0.3
			c0.1,1.2,0.6,2.2,1.7,3c0.6,0,1.1-0.1,1.6-0.2c0.2,0,0.3-0.1,0.4-0.2c0.4-0.4,0.8-0.9,0.9-1.4c0.3-1.9,0.7-3.8,1.1-5.7
			C67,4.2,67,3.7,67,3.2c0-1-0.3-1.9-0.9-2.7c-0.1-0.1-0.2-0.1-0.4-0.2C65.2,0.2,64.5,0.1,64,0c-0.1,0.2-0.3,0.2-0.5,0.3
			c-0.1,0.1-0.2,0.2-0.4,0.4c-0.3,0.5-0.6,1-0.7,1.5c-0.4,0.6-0.7,1.2-1,1.8c-0.1,0.2-0.1,0.4,0,0.6c-1.8-0.9-3.7-1-5.9-0.6
			c-1.9,0.3-3.7,0.8-5.5,1.7c-1.9,0.8-3.2,2.1-4.1,3.8c0,0.2,0,0.3,0,0.4c-0.1,0.4,0,0.7,0,1.1c-0.1-0.1-0.3-0.2-0.4-0.3
			c-0.1,0.1-0.1,0.2-0.1,0.3c0,0.2,0,0.3,0,0.4c0,0.2,0,0.4,0,0.6c-3.2-1.2-6.6-1.7-10.1-1.4c-0.4,0.3-0.8,0.4-1.3,0.6
			c0-0.2,0-0.4,0-0.6c-0.2,0-0.3,0-0.4,0.1c0-0.2,0-0.4-0.1-0.6c0-0.4-0.3-0.7-0.6-1.1c-0.3-0.2-0.5-0.4-0.8-0.7
			c-4.6-4.4-10.2-5.6-16.6-3.6c-0.1-0.2-0.2-0.3-0.2-0.4c-1-1.5-2.4-2.3-4.3-2.4C11,2,11,2,11,2c-0.5,0.2-0.9,0.5-1.2,0.9
			C9.6,3.2,9.4,3.4,9.3,3.7c0,0.1,0,0.2,0,0.3c0,0.2,0,0.3,0,0.4c0,0.7,0,1.3,0,1.9c0.1,0.9,0.2,1.8,0.5,2.6
			c0.1,0.2,0.2,0.3,0.3,0.4c0.2,0.3,0.4,0.5,0.5,0.8c0.7,1.6,1.9,2.8,3.5,3.7c0.9-0.1,1.8-0.2,2.7-0.4c0,0,0-0.1,0.1-0.1
			c1.1,0.3,2.2,0.4,3.4,0.2c0.1,0.1,0.2,0.1,0.3,0.2c-0.1,0.9-0.4,1.8-1,2.7c-0.2,0.2-0.4,0.4-0.6,0.6c0,0.1,0,0.1,0.1,0.1
			c-0.9,0.8-1.8,1.5-2.6,2c0.1,0.1,0.2,0.1,0.4,0.2c-4.3,4.4-6.5,10.2-6.8,17.5c0,2.1,0.2,4.2,0.7,6.1c0.9,3.2,2.3,5.8,4.1,8.1
			c-1,0.3-1.9,1-2.6,2.1c-0.4,0.5-0.6,1.2-0.5,1.8c0.1,0.5,0.3,1,0.5,1.5c0.1,0.1,0.2,0.3,0.3,0.4c0.4,0.1,0.8,0.3,1.3,0.6
			c-4.6,0.3-8.7,1.9-12.4,4.7c0,0.2,0,0.3,0,0.4c-0.1,0.8,0,1.6,0.3,2.3c0,0.1,0,0.1,0.1,0.1c-0.8,0.3-1.4,0.9-1.9,1.5
			c1.2,0.1,2.2-0.1,3.2-0.4c0.9,0.1,1.8,0.3,2.6,0.4c-1.3,0.5-2.6,1.2-3.7,2.1c0.1,0.2,0.1,0.2,0.1,0.2c2.2-0.5,4.3-1.1,6.6-1.9
			c1,0.1,2,0.2,2.9,0.3c-1.6,0.4-3.1,1-4.4,1.7c2.5-0.1,5.1-0.6,7.6-1.6c2,0,4-0.1,6.1-0.3c-2.3,0.8-4.5,1.5-6.7,2.4
			c0.2,0,0.4,0,0.7,0c8.4-1.9,16.7-4.1,24.8-6.5c1.6-0.1,3.2-0.2,4.8-0.5c-0.4,0.2-0.9,0.4-1.5,0.5c-5.7,1.3-11,3.2-16.1,5.6
			c6-1.1,12.4-2.8,19-5.2c1.5,0.7,3,1.3,4.5,1.9c-0.8-0.2-1.6-0.4-2.5-0.4c-0.5,0.3-1.1,0.5-2,0.7c-3.2,0.3-6.1,1.3-8.7,2.9
			c0.3,0,0.7-0.1,1.1-0.1c4.4-0.9,8.5-1.8,12.4-2.9c-0.1-0.1-0.1-0.1-0.2-0.2c0.9,0.3,1.7,0.6,2.6,0.8c-1.9,0.4-3.4,1.1-4.6,2.1
			c0.3,0.6,0.7,0.8,1.5,0.7c3.5-0.6,5.3-1.3,5.3-2.2c1.9,0.4,3.7,0.7,5.6,1c-0.1-0.1-0.3-0.1-0.5-0.1c-0.9,0.3-2,0.6-3.2,0.9
			c-0.4,0.1-0.7,0.3-0.7,0.7c0.3,0.7,0.7,0.8,1.3,0.5c1.5-0.9,3.1-1.4,4.9-1.7c-0.1-0.1-0.1-0.1-0.2-0.1c-0.3-0.1-0.6-0.1-0.9-0.2
			c1.5,0.2,3.1,0.2,4.7,0.2c-1.4,0.7-2.5,1.4-3.6,2.2c0.5,0.4,1.1,0.4,1.7,0.2c2.1-0.9,4.4-1.8,6.6-2.6
			C74.1,67.2,77.1,66.7,80.1,65.9z M31.9,10.9V11c-0.2,0.1-0.3,0.3-0.3,0.5c-0.1,0-0.2,0-0.2,0.1h-0.1c-0.1,0.1-0.2,0.2-0.3,0.3
			c-0.1,0.1-0.1,0.2-0.1,0.4c0,0.1,0,0.2,0.1,0.3c0.2,0.2,0.4,0.3,0.5,0.3c0.2,0.1,0.3,0,0.4-0.1c0.1,0,0.2-0.1,0.3-0.2
			c0.2-0.1,0.3-0.2,0.6-0.2c0.8,0,1.6,0,2.5,0.1c4,0.1,7.5,0.3,10.4,0.4c0.1,0,0.1,0,0.1,0l0,0h0.1h0.3c0.4,0,0.8,0,1.2,0
			c-0.1-0.1-0.1-0.2-0.2-0.2c-0.2-0.1-0.4-0.2-0.5-0.2c0-0.1,0.1-0.1,0.2-0.1c0-1.8,0.8-3.1,2.4-4c4.3-2.3,8.7-3.3,13.2-3
			c0-0.1,0-0.2,0-0.2c-0.1,0-0.2,0-0.2-0.1c0,0,0.1,0,0.2-0.1c0.2-0.2,0.3-0.5,0.4-0.7c0.2-1.8,1-2.6,2.4-2.5
			c0.1,0.6,0.2,1.2,0.2,1.9c0,0.2,0.1,0.5,0.3,0.7c-0.4,0.5-0.6,1-0.6,1.5c0,2.3-0.7,3.8-1.7,4.4c-0.6-0.3-1-0.8-0.9-1.5
			c0-0.8,0-1.5,0-2.3C56.2,5.8,51.9,8,49.8,13.2h-0.1c0,0,0,0,0,0.1c-0.1,0-0.1,0-0.1,0c0,0.1,0,0.1,0,0.2c0,0.1,0,0.1,0,0.2
			c-0.1,0-0.1,0-0.1,0.1h0.1c-0.1,0-0.1,0-0.1,0.1c-0.2,0.1-0.4,0.3-0.6,0.4c2.1,0.6,4,1.4,5.9,2.3c0.4,0.2,0.7,0.3,1.1,0.4
			c0.5,0.4,1,0.8,1.5,1.2c0.5,1.1,1.4,1.8,2.5,1.9c0,0.1,0.1,0.2,0.2,0.3c0.4,0.7,1.1,1.5,1.7,2.3c0.1,0.1,0.1,0.2,0.1,0.3l-0.2,0.2
			c2.4,3.4,3.7,7.9,3.7,13.4c0,4.2-1.5,7.8-4.5,10.9c-9.3,9.8-21.1,12.4-35.3,8c-3.9-1.2-7-3.4-9.5-6.5c-5.2-6.5-6.1-13.9-2.6-22
			c0.1-0.1,0.2-0.2,0.4-0.4c0.1-0.1,0.2-0.2,0.4-0.3c0-0.2,0.1-0.3,0.2-0.4c0-0.1,0-0.2,0-0.4c0-0.1,0-0.2,0.1-0.3
			c0-0.2,0.1-0.3,0.2-0.4c0.8-0.7,1.5-1.5,2.1-2.4c3-4.4,6.9-7.3,11.7-8.7v-0.1c0-0.2,0-0.3,0-0.5c0,0,0.2-0.2,0.3-0.3
			c0.1-0.1,0.2-0.2,0.2-0.2c0.1,0,0.1,0,0.2,0c0,0,0,0.1,0,0.2c0-0.1,0-0.2,0-0.3h0.1c0.1,0.1,0.3,0.1,0.5,0.2
			c-0.1-0.2-0.2-0.3-0.3-0.3c-0.1,0-0.1,0-0.1-0.1c0.1,0,0.1-0.1,0.1-0.3c0-0.7-0.2-1.2-0.6-1.7c-3.9-3.8-8.3-4.4-13.2-1.9
			c-0.2,0.8-0.2,1.6,0,2.3c0,0.4,0,0.9,0,1.5c-1.2-0.1-2.2-0.7-2.9-1.9c-0.4-0.6-0.8-1.1-1.2-1.7c-1-1.5-1.2-3-0.6-4.6
			c0.2,0,0.4-0.1,0.5-0.1c0.5,0.1,1,0.3,1.5,0.4c0.4,0.5,0.8,1,1.1,1.5s0.8,0.9,1.3,1c2.8-1.3,5.7-1.7,8.9-1.3
			c0.2,0.2,0.4,0.3,0.6,0.4c0.6,0.3,1.2,0.4,1.9,0.6c0.2,0.3,0.5,0.5,0.8,0.7c1.7,0.7,3.1,2,4.2,3.5C31.9,10.8,31.9,10.9,31.9,10.9z
			 M51,12.4c-0.1,0.1-0.3,0.2-0.4,0.3c2.6-2.6,5.8-4.1,9.4-4.5c-0.9,0.5-1.5,1.3-2,2.3c0.2,0.3,0.3,0.6,0.4,0.8
			c0.1,0.4,0.1,0.8,0.1,1.1c0,0.1,0.1,0.2,0.2,0.2c-0.2,0-0.4,0-0.7,0c-2.1-0.2-4.3-0.3-6.5-0.4C51.4,12.2,51.2,12.3,51,12.4z
			 M46.5,12.4c-0.1-0.1-0.1-0.1-0.2-0.1c0,0,0-0.1,0.1-0.1C46.4,12.2,46.4,12.3,46.5,12.4z M57.5,14.8c-0.1,0.2-0.2,0.5-0.4,0.6
			c-0.3,0.4-0.4,0.8-0.2,1.3c0,0.1,0.1,0.3,0.1,0.5c-0.5-0.3-1-0.5-1.5-0.8c-1.7-0.9-3.3-1.8-5-2.7c2.9-0.4,5.8-0.5,8.7-0.2
			c0.1,0.2,0.2,0.3,0.3,0.4C58.9,14.3,58.2,14.6,57.5,14.8z M18.3,9.4c0.3,0.3,0.7,0.5,1.1,0.8c0,0.1,0,0.2,0,0.2
			c-0.7,0.9-1.4,1.6-2.2,2.3c0.1-0.4,0.3-0.8,0.5-1.1c0.2-0.6,0.1-1.1-0.3-1.6c-0.1-0.1-0.1-0.1-0.1-0.2C17.7,9.7,18,9.5,18.3,9.4z
			 M20.5,9.9c0-0.1-0.1-0.2-0.2-0.3C20.2,9.3,20,9.2,19.8,9c2.6-0.6,5.3-0.1,7.8,1.7c0.3,0.3,0.5,0.7,0.8,1.1
			c-1.7-0.8-3.5-1.1-5.4-1c-0.9,0.2-1.9,0.6-2.8,1.1c-0.1,0-0.2-0.1-0.3-0.1c0.5-0.2,0.7-0.6,0.7-1.1C20.5,10.4,20.5,10.2,20.5,9.9z
			 M27.9,12.1c-0.5,0.1-1,0.2-1.5,0.3c-1.6,0.5-3,1.1-4.3,1.9c0-0.3-0.1-0.5-0.2-0.7c0-0.1,0-0.1,0-0.1s0-0.1,0-0.2
			c0,0-0.1,0-0.1,0.1c-0.2-0.4-0.5-0.7-0.8-1C23.3,11.8,25.6,11.7,27.9,12.1z M21.1,58.7h0.1c0.1,0.4,0.2,0.9,0.3,1.3
			c3.1,1,6.3,2,9.4,3.3C21.3,66.2,12,66.2,3,63.4c3.9-3,8.6-4.6,13.8-4.8c0.1,0,0.2,0,0.3,0c0.5-0.1,1.1-0.1,1.7-0.1
			c0-0.1,0-0.2,0-0.4c0.1-0.3,0.1-0.6,0.1-0.9c-0.4-0.1-0.8-0.1-1.1-0.2l0,0c-0.5-0.2-1-0.5-1.8-0.6c-1.2-0.3-2-0.9-2.4-1.9
			c0.1-0.4,0.3-0.8,0.6-1.1c0.2-0.1,0.3-0.2,0.4-0.4c0.3-0.1,0.6-0.1,0.9-0.1c0.4,0,0.8,0,1.2-0.1c0.5,0.5,1.1,1,1.8,1.5
			c-0.1,0.1-0.2,0.1-0.2,0.2c0,0.3,0,0.5,0,0.8c0,0.4,0,0.8,0,1.1C19.3,57.1,20.3,57.8,21.1,58.7z M23,58.3c-0.1,0-0.1,0-0.1,0
			c-0.1-0.2-0.2-0.3-0.3-0.4c0-0.2,0.1-0.4,0.2-0.6h-0.1c-0.2,0-0.4,0-0.6,0c-0.5-0.5-1-1-1.6-1.6l-0.1-0.2c0.1-0.1,0.2-0.1,0.2-0.2
			c0.7,0.3,1.4,0.5,2.1,0.8c0.6,0.2,0.9,0.5,0.9,0.9c0.5,0.3,1,0.4,1.5,0.6c0.2,0.1,0.4,0.1,0.5,0.1c-0.3,0.3-0.6,0.6-1,0.9
			c1-0.1,2.1-0.3,3.2-0.4c3.1,0.6,6.2,1,9.4,1.2c1.8,0,3.6-0.2,5.4-0.4l0,0c0.3,0.2,0.6,0.3,0.8,0.4c1-0.1,1.9-0.1,2.8-0.2
			c0.2-0.1,0.4-0.2,0.7-0.2c-0.5-0.2-0.9-0.4-1.3-0.6c1.3-0.3,2.6-0.6,3.8-1c-0.4,0.2-0.8,0.5-1.2,0.7c0.5,0.1,1.1,0.2,1.7,0.4
			c-1.6,0.6-2.9,1.6-3.9,2.9c-5.4,0.1-10.9-0.2-16.4-0.9c-1.5-0.9-3.1-1.5-5-1.9C24.1,58.5,23.5,58.4,23,58.3z M31.2,61.5
			c1.6,0.5,3.3,0.9,5,1.1c-1,0.2-2,0.5-3,0.8c-0.1-0.1-0.1-0.2-0.1-0.3C32.5,62.5,31.8,62,31.2,61.5z M57.2,53.8
			c0.3-0.2,0.7-0.4,1-0.7c0.6,0.5,1.3,0.8,2.3,1.1c-0.1,0.2-0.3,0.4-0.5,0.7c-0.7,0.7-1.2,1.4-1.5,1.9c-0.2,0.1-0.5,0.2-0.7,0.3
			c0.1,0.4,0.2,0.9,0.2,1.4c8.2,0.3,15.4,2,21.6,5.4c-11,3.3-21.8,2.7-32.3-1.6c2.4-1.8,5-2.8,8-3.3c0-0.1,0-0.2,0.1-0.4
			c0-0.3,0.1-0.6,0.1-0.9c1-0.4,1.5-1.3,1.6-2.4C57,55.2,57,55.1,57,55c-0.3-0.4-0.6-0.6-0.9-0.8c0.4-0.1,0.9-0.1,1.3-0.1
			C57.3,54,57.2,53.9,57.2,53.8z M54.3,56.8c-0.6,0.2-0.8,0.5-0.7,0.9c-0.7,0-1.5,0.1-2.1,0.3c-0.6-0.3-1.1-0.5-1.7-0.7
			c1.2-0.5,2.4-0.9,3.5-1.5c0.1,0.1,0.2,0.2,0.3,0.4l0.2-0.6c0.3,0.3,0.9,0.3,1.7,0.2C55.1,56.2,54.7,56.5,54.3,56.8z"/>
		<path style="fill:#3172A1;" d="M36,17.3c-1.6-0.1-3.2-0.1-4.7-0.2c-3.4,0.8-5.8,2.8-7.2,6c-3.8,8.7-1.2,14.3,7.7,16.8
			c1.3-0.5,2.7-0.8,4.2-1.3c0.8-0.2,1.5-0.7,2-1.3c0.7,0.9,1.7,1.6,2.9,2c1.9,0.7,3.7,0.6,5.5-0.2c6.5-2.9,8.4-7.8,5.6-14.7
			c-0.9-1.2-1.9-2.3-3-3.4c-3.2-3-6.9-3.7-11-2.2c-0.4-0.4-0.9-0.7-1.5-1.2C36.4,17.5,36.2,17.4,36,17.3z M40.4,19.9
			c0.1,0,0.3,0,0.4,0c-0.2,0-0.4,0-0.5,0.1C40.3,19.9,40.3,19.9,40.4,19.9z M37.2,19.7c0,0.1,0.1,0.1,0.2,0.2c0,0.4,0.1,0.7,0.2,1
			c0.2,0.3,0.4,0.5,0.7,0.7c0.5,0,0.9-0.3,1.2-0.8c0.1-0.2,0.3-0.4,0.5-0.6c4.8,2.3,8.6,5.4,11.5,9.2c0.3,3.2-1.2,6-4.5,8.5
			c-3.4,0.8-6.3,0.1-8.7-2.3c-3.4,2.7-7,3.2-10.8,1.3c-0.8-0.3-1.3-0.8-1.6-1.5c-1.3-2.9-1.9-5.4-1.8-7.7c0.4-1.4,1.2-2.7,2.4-3.8
			C29.6,21.3,33.2,19.9,37.2,19.7z M31.8,18.6c1.9-0.5,3.6-0.3,5,0.8c-1.4-0.1-2.8-0.2-4.3-0.2c-1.9,0.4-3.6,1.2-5.1,2.3
			C28.5,20.5,30,19.5,31.8,18.6z M43.8,20.3c-0.4-0.1-0.8-0.2-1.2-0.3c-0.1,0-0.2,0-0.4-0.1c2.3,0.2,4.3,1.1,6.1,2.6
			c0.2,0.3,0.4,0.5,0.6,0.8c1.1,1.6,1.9,3.2,2.3,4.7C49.3,25,46.8,22.4,43.8,20.3z"/>
		<path style="fill:#3172A1;" d="M41.8,30c0.1-0.5,0.2-1,0.1-1.5c0-0.1,0-0.2,0-0.4c-0.2-0.1-0.3-0.1-0.4-0.2
			c-0.8-0.1-1.5-0.2-2.2-0.3v0.1c-0.6,0.1-0.9,0.4-0.7,1.1c0,0.1,0,0.2,0,0.3c0,0.2,0.1,0.3,0.1,0.4C39.6,30.6,40.6,30.8,41.8,30z"
			/>
		<path style="fill:#3172A1;" d="M37.4,27.6c-0.2-0.1-0.3-0.2-0.4-0.2c-0.4-0.1-0.8-0.2-1.2-0.3c-0.3,0.1-0.5,0.3-0.8,0.5
			c-0.4,0.4-0.5,0.9-0.4,1.5c0.7,1.3,1.5,1.6,2.6,1.1c0.1-0.1,0.1-0.1,0.2-0.1c0-0.1,0.1-0.2,0.2-0.2c0.2-0.4,0.2-0.7,0.2-1.1
			C37.8,28.3,37.7,28,37.4,27.6z"/>
		<path style="fill:#3172A1;" d="M27.1,46.3c-1,0.6-1.3,1.4-1,2.4c5.4-3.5,11.2-4.1,17.2-1.7c2.9,1.1,5.2,1.6,6.8,1.4
			c0-0.6-0.4-1-1-1.3c-0.4-0.1-0.7-0.3-1-0.6c-0.1-0.1-0.2-0.2-0.3-0.3c-0.4-0.1-0.8-0.2-1.1-0.4c-4-1.6-8.2-2.4-12.7-2.3
			C31.6,44,29.3,44.9,27.1,46.3z"/>
		<path style="fill:#009659;" d="M46.2,12.9h-0.3H46.2L46.2,12.9z"/>
		<path d="M46.2,12.9h-0.3c0,0.1,0.1,0.3,0.1,0.5C46.1,13.2,46.1,13.1,46.2,12.9z"/>
		<path d="M61.9,23c-0.5-0.4-0.9-0.8-1.4-1.2c0.4,0.4,0.8,0.9,1.2,1.4L61.9,23z"/>
		<path d="M28.6,13.6v0.1l0,0V13.6z"/>
	</g>
</g>
</svg>
