<?xml version="1.0" encoding="iso-8859-1"?>
<!-- Generator: Adobe Illustrator 12.0.1, SVG Export Plug-In . SVG Version: 6.00 Build 51448)  -->
<!DOCTYPE svg PUBLIC "-//W3C//DTD SVG 1.1//EN" "http://www.w3.org/Graphics/SVG/1.1/DTD/svg11.dtd" [
	<!ENTITY ns_svg "http://www.w3.org/2000/svg">
	<!ENTITY ns_xlink "http://www.w3.org/1999/xlink">
]>
<svg  version="1.1" id="Layer_1" xmlns="&ns_svg;" xmlns:xlink="&ns_xlink;" width="82.8" height="83.464"
	 viewBox="0 0 82.8 83.464" style="overflow:visible;enable-background:new 0 0 82.8 83.464;" xml:space="preserve">
<g>
	<path style="fill:#3172A1;" d="M80.4,78.933c0.2-0.2,0.5-0.4,0.7-0.7c0.6-0.1,1.1-0.1,1.7-0.2c-0.1-0.1-0.1-0.1-0.2-0.1
		c-0.3-0.1-0.7-0.1-1.1-0.2c0.3-0.3,0.4-0.7,0.5-1.1c-6.9-4.2-14.6-6.4-23-6.5c0-0.1,0-0.2,0-0.4c0.1-2.3-0.5-4.2-1.8-5.7
		c8.1-4.9,11.2-12.4,9.5-22.3c-0.5-2.5-1.2-4.7-2.4-6.8c-1.1-1.9-2.4-3.7-3.8-5.2c0.4,0.1,0.8,0.2,1.3,0.3c-0.3-0.3-0.5-0.5-0.8-0.7
		c-0.6-0.6-1.1-1.3-1.6-1.9c0-0.1-0.1-0.1-0.1,0c-0.6-0.8-1.1-1.5-1.7-2.3c0-1,0-2-0.1-3c0-2.7,0.5-5.2,1.5-7.5c-3.5-1-6.1-3-7.9-6
		c0-0.1,0-0.2,0.1-0.3c0.1-0.5,0.1-0.8,0-1.1c1.8,0.5,3.6,0.5,5.4-0.1c0.2-0.5,0.2-1,0.2-1.5s0-1,0-1.5c0-0.1,0-0.2-0.1-0.3
		c0-0.2-0.2-0.3-0.2-0.4c-0.1-0.2-0.2-0.3-0.4-0.4c-3.2-2.5-6.9-3.4-11.1-2.9c-0.8,0.1-1.2,0.6-1.2,1.5c0.1,0.7,0.1,1.3,0.1,1.9
		c0,0.1,0,0.2,0,0.4c0,0.1,0.1,0.2,0.1,0.3c0.3,0.3,0.6,0.5,0.9,0.8c0.2,0.1,0.4,0.3,0.6,0.4c0.1,0.1,0.2,0.2,0.3,0.3
		c-0.4,0.4-0.7,0.9-0.8,1.5c-0.4,2.3-0.6,4.7-0.5,7.2c0,2.5,0.4,4.7,1.2,6.8c-0.1,0-0.1,0-0.2,0c0,0.3,0.1,0.7,0.2,1
		c-3.3-1.2-6.8-1.7-10.4-1.3c-0.4,0.2-0.8,0.3-1.3,0.5c0-0.3,0-0.5,0-0.6c-0.4,0.1-0.7,0.2-1,0.2c2-5,1.6-10-1.1-14.7
		c0.5-0.5,0.9-0.9,1.4-1.4c0.1-0.2,0.2-0.3,0.3-0.4c0-0.8,0-1.5,0-2.3c0-0.2,0-0.5-0.1-0.7c-0.3-0.3-0.6-0.5-0.9-0.8
		c-0.1-0.1-0.2-0.2-0.3-0.3c-0.8-0.1-1.5-0.1-2.3-0.2c-0.7,0.7-1.5,1.3-2.2,2.1c-2,1.9-3.2,4.2-3.4,6.8c0.9,1.2,2.1,1.4,3.6,0.7
		c-1.6,2.7-4.4,4.4-8.5,5.2c1.3,1.5,2,3.4,2.4,5.6c-0.2,0.2-0.2,0.3-0.3,0.4c-1.1,2.8-2.7,5.1-4.7,7.1c0.2,0,0.4-0.1,0.7-0.1
		c-0.4,0.3-0.9,0.7-1.3,1c0.1,0.2,0.3,0.4,0.6,0.5c-4.3,4.4-6.5,10.2-6.8,17.5c0,2.1,0.2,4.2,0.7,6.1c1.5,5.2,4.2,9.1,8.3,11.8
		c-1,1.7-1.5,3.6-1.3,5.7c-6.2-0.5-11.6,1.1-16.3,4.7c0,0.2,0,0.3,0,0.4c-0.1,0.8,0,1.6,0.3,2.3c0,0.1,0,0.1,0.1,0.1
		c-0.8,0.3-1.4,0.9-1.9,1.5c1.2,0.1,2.2-0.1,3.2-0.4c0.9,0.1,1.8,0.3,2.6,0.4c-1.3,0.5-2.6,1.2-3.7,2.1c0.1,0.2,0.1,0.2,0.1,0.2
		c2.2-0.5,4.3-1.1,6.6-1.9c1,0.1,2,0.2,2.9,0.3c-1.6,0.4-3.1,1-4.4,1.7c2.5-0.1,5.1-0.6,7.6-1.6c2,0,4-0.1,6.1-0.3
		c-2.3,0.8-4.5,1.5-6.7,2.4c0.2,0,0.4,0,0.7,0c8.4-1.9,16.7-4.1,24.8-6.5c1.6-0.1,3.2-0.2,4.8-0.5c-0.4,0.2-0.9,0.4-1.5,0.5
		c-5.7,1.3-11,3.2-16.1,5.6c6-1.1,12.4-2.8,19-5.2c1.5,0.7,3,1.3,4.5,1.9c-0.8-0.2-1.6-0.4-2.5-0.4c-0.5,0.3-1.1,0.5-2,0.7
		c-3.2,0.3-6.1,1.3-8.7,2.9c0.3,0,0.7-0.1,1.1-0.1c4.4-0.9,8.5-1.8,12.4-2.9c-0.1-0.1-0.1-0.1-0.2-0.2c0.9,0.3,1.7,0.6,2.6,0.8
		c-1.9,0.4-3.4,1.1-4.6,2.1c0.3,0.6,0.7,0.8,1.5,0.7c3.5-0.6,5.3-1.3,5.3-2.2c1.9,0.4,3.7,0.7,5.6,1c-0.1-0.1-0.3-0.1-0.5-0.1
		c-0.9,0.3-2,0.6-3.2,0.9c-0.4,0.1-0.7,0.3-0.7,0.7c0.3,0.7,0.7,0.8,1.3,0.5c1.5-0.9,3.1-1.4,4.9-1.7c-0.1-0.1-0.1-0.1-0.2-0.1
		c-0.3-0.1-0.6-0.1-0.9-0.2c1.5,0.2,3.1,0.2,4.7,0.2c-1.4,0.7-2.5,1.4-3.6,2.2c0.5,0.4,1.1,0.4,1.7,0.2c2.1-0.9,4.4-1.8,6.6-2.6
		c3-0.3,6-0.8,9-1.6C80.2,79.033,80.3,78.933,80.4,78.933z M32.1,2.232c0,0.2,0.1,0.3,0.3,0.4c0.1,0.8-0.2,1.5-0.9,1.9
		c-0.6,0.4-1,0.9-1.1,1.5c0.1,0.1,0.2,0.2,0.3,0.2c0.1,0.1,0.3,0.1,0.6,0.2c1.5,4.9,1.9,9.8,1.1,14.6c-0.2,0-0.3,0-0.4,0
		c0.1,0.1,0.2,0.2,0.3,0.4l0,0c-0.2,0-0.4,0-0.5,0.1c-0.2,0-0.3,0.1-0.5,0.3c-0.1,0.1-0.2,0.2-0.3,0.3c-0.1,0.1-0.1,0.3-0.1,0.4
		s0,0.2,0.1,0.4c0.2,0.1,0.4,0.2,0.5,0.2c0.2,0.1,0.3,0,0.4-0.1c0.1,0,0.2-0.1,0.3-0.1c0.2-0.2,0.3-0.3,0.6-0.3c0.8,0,1.6,0,2.5,0.1
		c4.1,0.2,7.6,0.3,10.6,0.4h0.3c0.4,0,0.8,0,1.2,0c-0.1-0.1-0.1-0.2-0.2-0.2c-0.2-0.1-0.4-0.2-0.6-0.3c0.8-0.1,0.9-0.6,0.5-1.5
		c-1.2-2.5-1.6-5.2-1.4-8.1c0.3-2.8,0.9-5.6,1.9-8.3c-0.3-0.2-0.7-0.4-1.1-0.5c-0.5-0.2-0.9-0.6-1.3-1.1c0-0.1-0.1-0.2-0.1-0.4
		c0-0.1,0-0.2,0-0.3c0-0.2,0-0.2,0.1-0.2c1.4-0.2,2.8-0.3,4.2-0.3c2.6,0.1,4.5,1.2,5.9,3.2c-1.2,1.2-2.9,1.2-5.1,0.2
		c-0.7-0.3-1.2-0.2-1.4,0.5c-0.4,0.2-0.6,0.5-0.7,1c-0.5,2.8-0.9,5.6-1.2,8.3c0.1,0.3,0.1,0.5,0.1,0.8c0,3,0.9,5.5,2.6,7.8
		c0,0.1,0,0.2-0.1,0.4c-0.2,0.1-0.4,0.3-0.6,0.4c2.1,0.6,4,1.4,5.9,2.3c0.4,0.2,0.7,0.3,1.1,0.4c0.7,0.6,1.5,1.2,2.3,1.7
		c1.4,1,2.6,2.2,3.4,3.6c0.2,0.2,0.2,0.5,0.3,0.7l-0.2,0.2c2.4,3.4,3.7,7.9,3.7,13.3c0,4.3-1.5,7.9-4.5,11
		c-9.3,9.8-21.1,12.4-35.3,8c-3.9-1.2-7-3.4-9.5-6.5c-5.2-6.5-6.1-13.9-2.6-22c0.1-0.1,0.2-0.2,0.4-0.4c0.1-0.1,0.2-0.2,0.4-0.3
		c0-0.2,0.1-0.3,0.2-0.4c0-0.1,0-0.2,0-0.4c0-0.1,0-0.2,0.1-0.3c0-0.2,0.1-0.3,0.2-0.4c0.8-0.7,1.5-1.5,2.1-2.4
		c2.8-4.1,6.4-6.9,10.8-8.4c0.1,0,0.2,0,0.3,0c0,0,0,0,0.1-0.1c0.1,0,0.3-0.1,0.5-0.2v-0.1c0-0.5,0-1,0.1-1.4c1.7-2.1,2.5-4.8,2.4-8
		c0-0.2,0-0.3,0-0.4c-0.3-2-0.9-3.9-1.8-5.6c-0.1-0.1-0.2-0.1-0.2-0.1v-0.1c0.1-0.2,0.2-0.5,0.2-0.7c-0.8-0.2-1.4,0-2,0.6
		c-0.6,0.7-1,0.7-1.2,0c-0.1-0.7,0-1.4,0.3-1.9c0.5-0.9,1.1-1.8,1.6-2.6c0.6-0.3,1.1-0.7,1.6-1.1c0.3-0.3,0.6-0.5,0.9-0.8
		C31.2,1.533,31.7,1.633,32.1,2.232z M50.2,21.232v0.1c-2-4.4-2.2-8.9-0.6-13.8c0.6,2.4,1.7,4.4,3.4,6c1.3,0.4,2.4,0.9,3.4,1.4
		c-0.3,0-0.6-0.1-0.9-0.2c0,0.1,0,0.2,0,0.2c-0.2,0-0.3,0.1-0.5,0.1c-0.4,0.2-0.8,0.4-1.1,0.6c-0.1,0.6-0.4,1.2-0.9,1.6
		c-1,0.9-1.9,1.9-2.6,2.9C50.4,20.533,50.4,20.933,50.2,21.232z M57.1,15.433c0.1,0,0.2,0,0.3,0.1c-0.5,0.9-0.8,1.7-0.9,2.6
		c-0.8,4-0.3,7,1.4,9.1v0.1c-0.1-0.1-0.2-0.1-0.2-0.2c-1.5-0.4-3.2-1.2-4.9-2.5c-0.3-0.2-0.7-0.5-1.1-0.7c-0.1-0.2-0.3-0.4-0.4-0.7
		l0,0C52.1,19.933,54.1,17.232,57.1,15.433z M29.1,10.633c0,0,0-0.1,0-0.2c0.8,4,0.5,7.7-0.9,11.3c-0.2,0.1-0.5,0.2-0.7,0.3
		c0,0.1,0,0.2,0,0.3c-0.4-0.8-0.7-1.7-0.9-2.6c-0.1-0.1-0.2-0.2-0.3-0.3c-1.2-1.4-2.6-2.5-4.1-3.3
		C25.3,15.433,27.6,13.633,29.1,10.633z M25.4,20.633c0,0.3,0,0.5,0.1,0.8c0.1,0.7,0.3,1.4,0.6,1.8c-2.1,0.9-4,2-5.7,3.2
		c0.1-0.1,0.1-0.2,0.2-0.2c0.5-0.6,1.1-1.4,1.5-2.2c0-0.4,0.1-0.8,0.2-1.1c0.8-1.7,0.9-3.3,0.5-5
		C23.6,18.833,24.4,19.732,25.4,20.633z M21.8,66.533c-1,2.2-1,4.4-0.3,6.7c3.1,1,6.3,2,9.4,3.3c-9.6,2.9-18.9,2.9-27.9,0.1
		c4.4-3.3,9.7-4.9,15.8-4.9c0-0.1,0-0.2,0-0.4c0.2-2.1,0.4-4.2,0.8-6C20.3,65.732,21,66.133,21.8,66.533z M30.7,69.133
		c-2.3,0.1-4.3,1-6.1,2.7c3.2-0.4,6.7-0.9,10.5-1.6c0-0.1,0-0.2,0.1-0.3c0-0.2,0-0.3,0.1-0.4c2.4,0.1,4.9,0,7.3-0.3l0,0
		c2.1,1,4.5,1.8,7.3,2.5c-1.6,0.6-2.9,1.6-3.9,2.9c-5.4,0.1-10.9-0.2-16.4-0.9c-1.5-0.9-3.1-1.5-5-1.9c-0.6-0.1-1.3-0.2-2.1-0.3
		c0.5-1.9,0.6-3.4,0.3-4.6c1.8,0.8,3.7,1.3,5.7,1.8C29.3,68.833,30,69.033,30.7,69.133z M36.2,75.833c-1,0.2-2,0.5-3,0.8
		c-0.1-0.1-0.1-0.2-0.1-0.3c-0.6-0.6-1.3-1.1-1.9-1.6C32.8,75.232,34.5,75.633,36.2,75.833z M55.4,65.033c0.2-0.1,0.4-0.2,0.6-0.3
		c1.1,2.2,1.8,4.6,2,7c8.2,0.3,15.4,2,21.6,5.4c-11,3.3-21.8,2.7-32.3-1.6c2.4-1.8,5-2.8,8-3.3c0-0.1,0-0.2,0.1-0.4
		c0.5-2.7,0-4.8-1.5-6C54.4,65.533,54.9,65.333,55.4,65.033z M54.1,70.833c-0.9,0.1-1.8,0.2-2.6,0.4c-2.1-1-4-1.8-5.9-2.6
		c2.6-0.6,5.2-1.4,7.7-2.6C54.3,67.433,54.5,69.033,54.1,70.833z"/>
	<path style="fill:#3172A1;" d="M36.5,26.333c-0.1-0.1-0.3-0.2-0.5-0.3c-1.6-0.1-3.2-0.1-4.7-0.2c-3.4,0.8-5.8,2.8-7.2,6
		c-3.8,8.7-1.2,14.3,7.7,16.8c1.3-0.5,2.7-0.9,4.2-1.3c0.8-0.2,1.5-0.7,2-1.3c0.7,0.9,1.7,1.6,2.9,2c1.9,0.7,3.7,0.6,5.5-0.2
		c6.5-2.9,8.4-7.8,5.6-14.7c-0.9-1.2-1.9-2.3-3-3.4c-3.2-3-6.9-3.7-11-2.2C37.6,27.133,37.1,26.833,36.5,26.333z M37.6,29.633
		c0.2,0.3,0.4,0.5,0.7,0.7c0.5,0,0.9-0.3,1.2-0.8c0.2-0.3,0.5-0.7,0.9-0.9c3-0.2,5.6,0.7,7.9,2.6c0.2,0.3,0.4,0.5,0.6,0.8
		c4,5.7,3.4,10.6-1.9,14.6c-3.4,0.8-6.3,0.1-8.7-2.4c-3.4,2.8-7,3.3-10.8,1.4c-0.8-0.4-1.3-0.9-1.6-1.5c-3.6-7.5-1.7-13.1,5.9-16.8
		c2.2-0.6,4-0.2,5.6,1.3C37.4,29.033,37.5,29.333,37.6,29.633z"/>
	<path style="fill:#3172A1;" d="M46,34.232c-0.1-0.1-0.2-0.1-0.2-0.2c-1,0.5-0.8,1.3,0.6,2.4c0,0.2,0.1,0.5,0.1,0.7
		c0.1,0.7,0,1.3-0.2,1.9c-1.1,0.8-2.3,1.5-3.4,2.1c0.6,0.8,1.7,0.7,3.2-0.2c0.5-0.5,1-1,1.4-1.5c0-0.3,0-0.5,0.1-0.8
		c0.1-1.5-0.1-2.9-0.8-4.1C46.5,34.433,46.3,34.333,46,34.232z"/>
	<path style="fill:#3172A1;" d="M41.9,36.633c-0.4,0.3-0.6,0.7-0.5,1.1c1,1.7,1.9,1.8,2.7,0.3c0-0.1,0-0.2,0-0.4
		c0.1-1-0.5-1.4-1.6-1.4C42.4,36.333,42.1,36.433,41.9,36.633z"/>
	<path style="fill:#3172A1;" d="M35.2,37.533c-0.1-0.3-0.1-0.5-0.1-0.8c-0.1-0.1-0.2-0.2-0.4-0.2c-0.4-0.1-0.8-0.2-1.2-0.3
		c-0.3,0.2-0.6,0.4-0.9,0.9c-0.1,0.2-0.2,0.4-0.2,0.6c0.1,1.6,1,1.9,2.6,0.9C35.2,38.333,35.2,37.933,35.2,37.533z"/>
	<path style="fill:#3172A1;" d="M26.9,58.232c0,0.2,0,0.3,0,0.4c6.5,0.3,13.1,0.7,19.7,1.1h0.1c0.1-0.1,0.1-0.2,0.1-0.3
		c0-6.6-4.1-9.5-12.3-8.6c-1.7,0.3-3.4,1-4.9,2.1c-0.7,0.4-1.5,0.9-2.2,1.2c-0.4,0.8-0.6,1.7-0.6,2.6
		C26.9,57.232,26.9,57.732,26.9,58.232z M28.1,56.633c0-0.4,0-0.8,0.2-1.1c0-0.1,0.1-0.2,0.3-0.3c1.7-1.4,3.7-2.4,5.9-2.9
		c5.7-1,9.4,1,11.3,5.7c-1.3-0.2-2.6-0.3-3.9-0.3c-0.1-0.1-0.1-0.1-0.2-0.2c-1.4-1.8-3.3-2.7-5.7-2.6c-0.6,0.2-1.2,0.5-2,0.8
		c-0.9,0.3-1.5,1-1.8,1.8c-1.4,0.1-2.7,0.1-4.1,0.2c0-0.1,0-0.2,0-0.3C28.1,57.133,28.1,56.933,28.1,56.633z M33.7,57.433
		c0.3-0.3,0.5-0.5,0.8-0.8c0.5-0.1,1-0.2,1.5-0.3s1-0.2,1.5-0.3c0.4,0.2,0.8,0.5,1.2,0.8c0.3,0.3,0.6,0.6,1,0.8c-2-0.1-4-0.1-6-0.1
		C33.7,57.533,33.7,57.533,33.7,57.433z"/>
	<path style="fill:#3172A1;" d="M46.7,61.232h-0.1l0,0C46.7,61.232,46.7,61.232,46.7,61.232z"/>
	<path style="fill:#009659;" d="M45.9,23.133h0.3l0,0H45.9z"/>
	<path d="M46.2,23.133h-0.3c0,0.1,0.1,0.3,0.1,0.5C46.1,23.433,46.1,23.333,46.2,23.133z"/>
	<path d="M61.7,33.433l0.2-0.2c-0.5-0.4-0.9-0.8-1.4-1.2C60.9,32.433,61.3,32.933,61.7,33.433z"/>
	<path d="M28.6,23.933L28.6,23.933v-0.1V23.933z"/>
	<path style="fill:#3172A1;" d="M81.6,79.833c-0.4-0.1-0.7-0.2-1.1-0.3v0.1c-3.1,0.5-5.8,1.7-8.2,3.4c0.2,0.1,0.4,0.1,0.6,0
		c2.9-1.1,5.9-2.1,8.9-3C81.7,79.933,81.6,79.933,81.6,79.833z"/>
</g>
</svg>
