<?xml version="1.0" encoding="iso-8859-1"?>
<!-- Generator: Adobe Illustrator 12.0.1, SVG Export Plug-In . SVG Version: 6.00 Build 51448)  -->
<!DOCTYPE svg PUBLIC "-//W3C//DTD SVG 1.1//EN" "http://www.w3.org/Graphics/SVG/1.1/DTD/svg11.dtd" [
	<!ENTITY ns_svg "http://www.w3.org/2000/svg">
	<!ENTITY ns_xlink "http://www.w3.org/1999/xlink">
]>
<svg  version="1.1" id="Layer_1" xmlns="&ns_svg;" xmlns:xlink="&ns_xlink;" width="82.8" height="87.073"
	 viewBox="0 0 82.8 87.073" style="overflow:visible;enable-background:new 0 0 82.8 87.073;" xml:space="preserve">
<g>
	<g>
		<path style="fill:#3172A1;" d="M81.6,83.441c-0.4-0.1-0.7-0.2-1.1-0.3v0.1c-3.1,0.5-5.8,1.7-8.2,3.4c0.2,0.1,0.4,0.1,0.6,0
			c2.9-1.1,5.9-2.1,8.9-3C81.7,83.542,81.6,83.542,81.6,83.441z"/>
		<path style="fill:#3172A1;" d="M80.1,82.742c0.1-0.1,0.2-0.2,0.3-0.2c0.2-0.2,0.5-0.4,0.7-0.7c0.6-0.1,1.1-0.1,1.7-0.2
			c-0.1-0.1-0.1-0.1-0.2-0.1c-0.3-0.1-0.7-0.1-1.1-0.2c0.3-0.3,0.4-0.7,0.5-1.1c-6.9-4.2-14.6-6.4-23-6.5c0-0.1,0-0.2,0-0.4
			c0.1-2.3-0.5-4.2-1.8-5.7c8.1-4.9,11.2-12.4,9.5-22.3c-0.5-2.5-1.2-4.7-2.4-6.8c-0.2-0.3-0.4-0.7-0.6-1.1c0.2-0.1,0.3-0.4,0.1-0.8
			c-1.9-2.7-3.5-5.4-4.9-8.3c0-0.1,0.1-0.2,0.1-0.3c0.2-0.6,0.3-1.3,0.4-1.9c1.2-1.1,2.3-2.3,3.1-3.4c-0.1-0.1-0.3-0.2-0.5-0.2
			c-4.2-2.5-6-6-5.4-10.6c1.4,0.4,2.8,0.3,4.2-0.4c0.4-0.5,0.5-1.2,0.4-1.9c0-0.4-0.1-0.8-0.2-1.1c0-0.3,0-0.5,0-0.8
			c-0.1-0.1-0.2-0.2-0.4-0.4c-2.2-2.1-4.9-3.1-8.1-3c0,0.1,0,0.1,0,0.1c-0.5,0.2-0.9,0.4-1.3,0.7c-0.3,0.1-0.6,0.4-0.8,0.6
			c0,0.4,0,0.8,0,1.1c0,0.3,0,0.5,0,0.8c0,0.2,0.1,0.5,0.1,0.7c0.4,0.4,0.8,0.8,1.1,1.2c0.3,0.2,0.5,0.5,0.8,0.7
			c0.2,0.2,0.4,0.4,0.6,0.6c-0.1,0.1-0.2,0.2-0.3,0.3c-4.1,3.9-6.2,8.3-6.3,13.1c-0.3-0.2-0.6-0.4-0.9-0.6c0,0.7,0,1.5,0.2,2.2
			c-3.3-1.2-6.8-1.7-10.4-1.3c-0.4,0.2-0.8,0.3-1.3,0.5c0-0.3,0-0.5-0.1-0.8c0-0.4-0.1-0.7-0.2-0.9c-0.2,0.2-0.3,0.2-0.4,0.4
			c-0.7-6-3.5-10.8-8.5-14.5c0.2-0.3,0.3-0.7,0.3-1.1c0.3-1.4,0-2.6-0.5-3.8c-0.1-0.1-0.2-0.1-0.4-0.2c-0.6-0.1-1.1-0.2-1.7-0.3
			c0,0.1,0,0.1,0,0.1c-2.7,1.5-4.9,3.4-6.6,5.9c0,0.7,0,1.3,0,1.9c0,0.7,0,1.3,0,1.9c2.8,0.9,4.8,0.4,6.1-1.5
			c0.2,0.1,0.3,0.2,0.5,0.3c0.5,1.6,0.4,3.4-0.2,5.3c-1.2,1.3-2.4,2.3-3.4,3.4c3,2.4,3.4,5.1,1.2,8.1c-0.2,0.1-0.4,0.2-0.7,0.2
			c0,0.1-0.1,0.2-0.2,0.3c0,0,0,0-0.1,0c-0.6,0.2-1,0.5-1,1.1c0.1,0.1,0.1,0.1,0.1,0.2c-0.6,0.6-1.2,1.1-1.9,1.6
			c0.1,0.2,0.3,0.4,0.6,0.5c-4.3,4.4-6.5,10.2-6.8,17.5c0,2.1,0.2,4.2,0.7,6.1c1.5,5.2,4.2,9.1,8.3,11.8c-1,1.7-1.5,3.6-1.3,5.7
			c-6.2-0.5-11.6,1.1-16.3,4.7c0,0.2,0,0.3,0,0.4c-0.1,0.8,0,1.6,0.3,2.3c0,0.1,0,0.1,0.1,0.1c-0.8,0.3-1.4,0.9-1.9,1.5
			c1.2,0.1,2.2-0.1,3.2-0.4c0.9,0.1,1.8,0.3,2.6,0.4c-1.3,0.5-2.6,1.2-3.7,2.1c0.1,0.2,0.1,0.2,0.1,0.2c2.2-0.5,4.3-1.1,6.6-1.9
			c1,0.1,2,0.2,2.9,0.3c-1.6,0.4-3.1,1-4.4,1.7c2.5-0.1,5.1-0.6,7.6-1.6c2,0,4-0.1,6.1-0.3c-2.3,0.8-4.5,1.5-6.7,2.4
			c0.2,0,0.4,0,0.7,0c8.4-1.9,16.7-4.1,24.8-6.5c1.6-0.1,3.2-0.2,4.8-0.5c-0.4,0.2-0.9,0.4-1.5,0.5c-5.7,1.3-11,3.2-16.1,5.6
			c6-1.1,12.4-2.8,19-5.2c1.5,0.7,3,1.3,4.5,1.9c-0.8-0.2-1.6-0.4-2.5-0.4c-0.5,0.3-1.1,0.5-2,0.7c-3.2,0.3-6.1,1.3-8.7,2.9
			c0.3,0,0.7-0.1,1.1-0.1c4.4-0.9,8.5-1.8,12.4-2.9c-0.1-0.1-0.1-0.1-0.2-0.2c0.9,0.3,1.7,0.6,2.6,0.8c-1.9,0.4-3.4,1.1-4.6,2.1
			c0.3,0.6,0.7,0.8,1.5,0.7c3.5-0.6,5.3-1.3,5.3-2.2c1.9,0.4,3.7,0.7,5.6,1c-0.1-0.1-0.3-0.1-0.5-0.1c-0.9,0.3-2,0.6-3.2,0.9
			c-0.4,0.1-0.7,0.3-0.7,0.7c0.3,0.7,0.7,0.8,1.3,0.5c1.5-0.9,3.1-1.4,4.9-1.7c-0.1-0.1-0.1-0.1-0.2-0.1c-0.3-0.1-0.6-0.1-0.9-0.2
			c1.5,0.2,3.1,0.2,4.7,0.2c-1.4,0.7-2.5,1.4-3.6,2.2c0.5,0.4,1.1,0.4,1.7,0.2c2.1-0.9,4.4-1.8,6.6-2.6
			C74.1,84.042,77.1,83.542,80.1,82.742z M52.2,8.042c-0.5-0.4-0.7-1-0.4-1.5c0.4-0.3,0.9-0.4,1.4-0.5c3.5-0.2,5.7,1.1,6.7,3.8
			c0,0.2,0,0.2-0.1,0.3c-0.6,0.2-1.2,0.4-1.8,0.5c-0.5-0.3-0.8-0.5-1.3-0.6c-0.4-0.2-0.8-0.2-1.2-0.1c-0.2,0.1-0.5,0.2-0.7,0.4
			c-0.1,0.6,0.2,1,0.6,1.2c-3.5,4.7-5.2,9.6-5,15c-0.1,0-0.1,0-0.2-0.1c0,0.1-0.1,0.2-0.2,0.3h-0.1c-0.2,0.3-0.3,0.6-0.4,1
			c-0.2,0.1-0.4,0.3-0.6,0.4c2.1,0.6,4,1.4,5.9,2.3c0.4,0.2,0.7,0.3,1.1,0.4c0.7,0.6,1.5,1.2,2.3,1.7c0.5,0.4,1,0.8,1.4,1.2
			c0.8,0.9,1.4,1.9,2.2,2.8c0.1,0.1,0.1,0.2,0.1,0.3l-0.2,0.2c2.4,3.4,3.7,7.9,3.7,13.3c0,4.3-1.5,7.9-4.5,11
			c-9.3,9.8-21.1,12.4-35.3,8c-3.9-1.2-7-3.4-9.5-6.5c-5.2-6.5-6.1-13.9-2.6-22c0.1-0.1,0.2-0.2,0.4-0.4c0.1-0.1,0.2-0.2,0.4-0.3
			c0-0.2,0.1-0.3,0.2-0.4c0-0.1,0-0.2,0-0.4c0-0.1,0-0.2,0.1-0.3c0-0.2,0.1-0.3,0.2-0.4c0.8-0.7,1.5-1.5,2.1-2.4
			c3-4.4,6.9-7.3,11.7-8.7v-0.1c0-0.2,0-0.3,0-0.4c0.1-0.1,0.3-0.1,0.4-0.2c0.1-0.1,0.1-0.2,0.2-0.3c1-6.7-1.1-12-6.4-15.8
			c0-0.1,0-0.1,0-0.1c-0.1,0-0.1,0-0.2,0c-0.3-0.3-0.7-0.5-1.1-0.8c-0.2,0.1-0.4,0.3-0.7,0.5c-0.3,0.2-0.3,0.4-0.3,0.8
			c0.1,0,0.1,0,0.1,0c-0.5,0.3-1.1,0.8-1.6,1.4c-0.6,0-1.2,0-1.8-0.2c0,0-0.1-0.1-0.1-0.3c1.1-3.8,3.3-5.8,6.8-6.2c0,0.5,0,1,0,1.5
			c0,0.2,0,0.3,0,0.4c-0.2,0.2-0.3,0.4-0.4,0.6c-0.4-0.2-0.9-0.5-1.2-0.7c-0.4-0.1-0.5-0.1-0.5-0.1c0.5,0.5,0.9,0.9,1.3,1.4
			c0,0.1-0.1,0.2-0.1,0.4c-0.1,0.1-0.1,0.2-0.1,0.3c0.4,0.1,0.7,0.1,1.2,0.2c3.7,4,6.5,8.8,8.3,14.2c-0.1,0.1-0.1,0.2-0.1,0.4
			c-0.1,0.1-0.2,0.1-0.2,0.2c0,0,0.1,0.1,0.2,0.2c0,0.1,0,0.2,0,0.2c-0.2,0.1-0.4,0.1-0.5,0.1c-0.2,0-0.3,0.1-0.5,0.3
			c-0.1,0.1-0.2,0.2-0.3,0.3c-0.1,0.1-0.1,0.3-0.1,0.4s0,0.2,0.1,0.4c0.2,0.1,0.4,0.2,0.5,0.2c0.2,0.1,0.3,0,0.4-0.1
			c0.1,0,0.2-0.1,0.3-0.1c0.2-0.2,0.3-0.3,0.6-0.3c0.8,0,1.6,0,2.5,0.1c4.1,0.2,7.6,0.3,10.6,0.4h0.3c0.1,0,0.2,0,0.3,0v0.1
			c0.1,0,0.1-0.1,0.2-0.1c0.2,0,0.4,0,0.7,0c-0.1-0.1-0.1-0.2-0.2-0.2c-0.1,0-0.2-0.1-0.3-0.2c0.1-0.3,0.3-0.8,0.3-1.2
			c0.3-2.1,0.8-4.1,1.6-6c0.2-0.3,0.5-0.5,0.7-0.8c0.1-0.1,0.1-0.2,0.2-0.3c1.7-2.5,3.3-4.9,4.7-7.2c0-0.1,0.1-0.2,0.1-0.2
			c0-0.1,0-0.1,0-0.1c0.1-0.2,0.2-0.3,0.3-0.4c-0.1,0-0.3,0-0.3,0s0,0-0.1,0C53.7,9.441,53,8.742,52.2,8.042z M46.5,26.242
			c-0.1-0.1-0.1-0.1-0.2-0.1c0.1-0.1,0.1-0.2,0.1-0.3C46.4,26.042,46.4,26.042,46.5,26.242z M53.6,16.841c0.1-0.1,0.2-0.2,0.3-0.3
			c0.8-0.9,1.4-1.8,1.9-2.7c-0.4,3.2,0.7,6,3.5,8.2c-0.1,0-0.3,0-0.3,0c-0.2,0.1-0.6,0.3-1,0.5c-2.3,1.2-4.5,2.7-6.5,4.3
			c0,0.1,0,0.2-0.1,0.3c0-0.1-0.1-0.1-0.1-0.1C51.8,23.542,52.6,20.142,53.6,16.841z M59.5,23.142c-0.5,0.7-1.1,1.5-1.7,2.4
			c-0.5,1.7-0.4,3.5,0.1,5.1c0,0-0.1,0-0.1-0.1c0,0.2,0.1,0.3,0.1,0.4c-0.4-0.3-0.7-0.6-1.1-0.8c-0.2-0.1-0.4-0.2-0.5-0.3
			c-1.2-0.7-2.3-1.3-3.5-1.9C54.7,26.042,56.9,24.441,59.5,23.142z M21.3,21.341c0-0.1,0-0.1,0-0.1c2.7-2.7,3.5-5.2,2.6-7.7
			c3.2,3.1,4.6,7,4.1,11.7c-1-2.3-2.9-3.7-5.5-4.1C22.1,21.142,21.7,21.242,21.3,21.341z M27.4,25.841c0,0.3,0.2,0.6,0.3,0.8
			c-1.4,0.5-2.8,1-4.2,1.5c-0.7,0.4-1.4,0.8-2,1.2c1.6-2.6,1.5-5.2-0.4-7.8c0,0,0,0,0.1-0.1C23.8,21.841,25.9,23.341,27.4,25.841z
			 M28.5,72.341c0.8,0.1,1.5,0.3,2.2,0.4c-2.3,0.1-4.3,1-6.1,2.7c3.2-0.4,6.7-0.9,10.5-1.6c0-0.1,0-0.2,0.1-0.3c0-0.2,0-0.3,0.1-0.4
			c2.4,0.1,4.9,0,7.3-0.3l0,0c2.1,1,4.5,1.8,7.3,2.5c-1.6,0.6-2.9,1.6-3.9,2.9c-5.4,0.1-10.9-0.2-16.4-0.9c-1.5-0.9-3.1-1.5-5-1.9
			c-0.6-0.1-1.3-0.2-2.1-0.3c0.5-1.9,0.6-3.4,0.3-4.6C24.6,71.341,26.5,71.841,28.5,72.341z M21.8,70.142c-1,2.2-1,4.4-0.3,6.7
			c3.1,1,6.3,2,9.4,3.3c-9.6,2.9-18.9,2.9-27.9,0.1c4.4-3.3,9.7-4.9,15.8-4.9c0-0.1,0-0.2,0-0.4c0.2-2.1,0.4-4.2,0.8-6
			C20.3,69.341,21,69.742,21.8,70.142z M31.2,78.341c1.6,0.5,3.3,0.9,5,1.1c-1,0.2-2,0.5-3,0.8c-0.1-0.1-0.1-0.2-0.1-0.3
			C32.5,79.341,31.8,78.841,31.2,78.341z M55.4,68.642c0.2-0.1,0.4-0.2,0.6-0.3c1.1,2.2,1.8,4.6,2,7c8.2,0.3,15.4,2,21.6,5.4
			c-11,3.3-21.8,2.7-32.3-1.6c2.4-1.8,5-2.8,8-3.3c0-0.1,0-0.2,0.1-0.4c0.5-2.7,0-4.8-1.5-6C54.4,69.142,54.9,68.941,55.4,68.642z
			 M54.1,74.441c-0.9,0.1-1.8,0.2-2.6,0.4c-2.1-1-4-1.8-5.9-2.6c2.6-0.6,5.2-1.4,7.7-2.6C54.3,71.042,54.5,72.642,54.1,74.441z"/>
		<path style="fill:#3172A1;" d="M36.5,31.441c-0.1-0.1-0.3-0.2-0.5-0.3c-1.6-0.1-3.2-0.1-4.7-0.2c-3.4,0.8-5.8,2.8-7.2,6
			c-3.8,8.7-1.2,14.3,7.7,16.8c1.3-0.5,2.7-0.8,4.2-1.3c0.8-0.2,1.5-0.7,2-1.3c0.7,0.9,1.7,1.6,2.9,2c1.9,0.7,3.7,0.6,5.5-0.2
			c6.5-2.9,8.4-7.8,5.6-14.7c-0.9-1.2-1.9-2.3-3-3.4c-3.2-3-6.9-3.7-11-2.2C37.6,32.242,37.1,31.941,36.5,31.441z M31.8,32.441
			c2.2-0.6,4-0.2,5.6,1.3c0,0.4,0.1,0.7,0.2,1c0.2,0.3,0.4,0.5,0.7,0.7c0.5,0,0.9-0.3,1.2-0.8c0.2-0.3,0.5-0.7,0.9-0.9
			c3-0.2,5.6,0.7,7.9,2.6c0.2,0.3,0.4,0.5,0.6,0.8c4,5.7,3.4,10.6-1.9,14.6c-3.4,0.8-6.3,0.1-8.7-2.4c-3.4,2.8-7,3.3-10.8,1.4
			c-0.8-0.4-1.3-0.9-1.6-1.5C22.3,41.742,24.2,36.142,31.8,32.441z"/>
		<path style="fill:#3172A1;" d="M44,42.341c0-1-0.7-1.3-2-0.8c-0.3,0-0.5,0.2-0.4,0.7c0.4,1.6,1.1,1.8,2.3,0.5
			C43.9,42.642,43.9,42.542,44,42.341z"/>
		<path style="fill:#3172A1;" d="M35.1,42.742c-0.1-0.9-0.8-1.2-2.1-0.9c-0.4,0.2-0.6,0.5-0.4,1c0.7,1.6,1.5,1.7,2.5,0.3
			C35.1,43.042,35.1,42.941,35.1,42.742z"/>
		<path style="fill:#3172A1;" d="M38.8,60.542c-0.1,0-0.2,0-0.3,0c-0.7,0.3-1.4,0.9-1.9,1.8c0,0.2,0,0.3,0,0.4c0,0.9,0,1.8,0,2.6
			c1.3,1.1,2.5,1.1,3.4,0c0-0.1,0-0.2,0-0.3c-0.1-1.1-0.4-2.1-1-3c0-0.2,0-0.3,0.1-0.4C39.2,61.142,39.1,60.742,38.8,60.542z"/>
		<path style="fill:#3172A1;" d="M36.3,68.341c0.9,0.1,1.8,0.1,2.7-0.1c1.9-0.3,2.9-1.2,2.8-2.6c-1.5,0.9-3.1,1.5-4.9,1.6
			c-0.8-1-1.6-1.2-2.4-0.7C35,67.242,35.6,67.841,36.3,68.341z"/>
		<path style="fill:#009659;" d="M46.2,26.742L46.2,26.742h-0.3H46.2z"/>
		<path d="M45.9,26.742c0,0.1,0.1,0.3,0.1,0.5c0.1-0.2,0.1-0.3,0.2-0.5H45.9z"/>
		<path d="M61.7,37.042l0.2-0.2c-0.5-0.4-0.9-0.8-1.4-1.2C60.9,36.042,61.3,36.542,61.7,37.042z"/>
		<path d="M28.6,27.542L28.6,27.542v-0.1V27.542z"/>
		<path style="fill:#3172A1;" d="M40.3,0.042c-0.3-0.1-0.5,0-0.5,0.1c-0.2,5.8-0.2,11.2,0.2,16.2c0.1-0.2,0.2-0.3,0.3-0.6
			c0.8-4.9,1.1-9.9,0.8-15c-0.1-0.1-0.2-0.2-0.4-0.3C40.6,0.242,40.4,0.142,40.3,0.042z"/>
		<path style="fill:#3172A1;" d="M34,9.242c-0.1,0.1-0.2,0.1-0.2,0.1c0,3,0.9,5.7,2.7,8.2c0.2-0.1,0.3-0.2,0.3-0.3
			C36.7,14.042,35.8,11.441,34,9.242z"/>
		<path style="fill:#3172A1;" d="M48,4.242c0,0.2,0,0.3,0,0.4c-1.5,4.1-3.1,8.1-5,12c0.2,0.1,0.3,0.1,0.3,0.1
			c3.3-4.3,5.3-8.6,5.7-13.1c0,0.1,0,0.1,0,0.1C48.7,3.941,48.4,4.142,48,4.242z"/>
	</g>
</g>
</svg>
