<?xml version="1.0" encoding="iso-8859-1"?>
<!-- Generator: Adobe Illustrator 12.0.1, SVG Export Plug-In . SVG Version: 6.00 Build 51448)  -->
<!DOCTYPE svg PUBLIC "-//W3C//DTD SVG 1.1//EN" "http://www.w3.org/Graphics/SVG/1.1/DTD/svg11.dtd" [
	<!ENTITY ns_svg "http://www.w3.org/2000/svg">
	<!ENTITY ns_xlink "http://www.w3.org/1999/xlink">
]>
<svg  version="1.1" id="Layer_1" xmlns="&ns_svg;" xmlns:xlink="&ns_xlink;" width="101" height="100" viewBox="0 0 101 100"
	 style="overflow:visible;enable-background:new 0 0 101 100;" xml:space="preserve">
<g>
	<path style="fill:#FFFFFF;" d="M101,100V0H0v100H101z"/>
</g>
<g>
	<path style="fill:#3172A1;" d="M90.9,92c0.2-0.2,0.5-0.4,0.7-0.7c0.6-0.1,1.1-0.2,1.7-0.2C93.2,91,93.2,91,93.1,91
		c-0.3-0.1-0.7-0.1-1.1-0.2c0.3-0.3,0.4-0.7,0.5-1.1c-6.5-4-13.8-6.1-21.7-6.5l0,0c1-1.1,1.4-2.3,1.3-3.7c-0.1-0.2-0.1-0.3-0.2-0.3
		c-0.5-0.4-1-0.7-1.6-0.9c6.2-4.9,8.4-11.7,6.9-20.5c-0.5-2.5-1.2-4.7-2.4-6.8c-1-1.7-2.1-3.3-3.4-4.8c0-0.1-0.1-0.2-0.1-0.3
		c0.2,0,0.6,0.1,1,0.2c-0.3-0.3-0.5-0.5-0.8-0.7c-0.2-0.3-0.5-0.5-0.7-0.8c-1-3.2-1-6.6,0.2-10c0.5-0.2,1-0.4,1.6-0.6
		c-0.3-0.4-0.6-0.6-1.1-0.9c0.1-0.1,0.2-0.4,0.3-0.5c-0.1,0.1-0.3,0.4-0.3,0.5c-0.4-0.3-0.8-0.5-1.2-0.6c-0.1-0.3-0.3-0.5-0.4-0.7
		c-0.4-0.3-0.4-0.7-0.3-1.2c0-0.1,0.1-0.2,0.1-0.3c0.3-0.5,0.7-0.9,0.9-1.3c1.4,2.5,3.6,3.5,6.7,3.1c0.4-0.3,0.8-0.6,1.2-1.1
		c0.1-0.2,0.2-0.3,0.3-0.4c0-0.8-0.1-1.5-0.1-2.3c-0.3-4.3-2.2-7.8-5.9-10.5c-0.8,0-1.5,0-2.3-0.1c-0.3,0.3-0.8,0.5-1.3,0.7
		c-0.2,0.1-0.3,0.2-0.4,0.3c0,0.2,0,0.3,0,0.4c0,0.7,0,1.5,0,2.2c0,0.3,0,0.5,0,0.8c-7.1,2.5-11.2,7.3-12.4,14.1
		c-0.2,0.3-0.3,0.4-0.4,0.6l0,0c0,0.1,0,0.2,0,0.2c-0.1,0.1-0.1,0.2-0.1,0.3c0,0.2,0,0.3,0,0.4c0,0.2,0,0.4,0,0.6
		c-3.2-1.2-6.6-1.7-10.1-1.3c-0.4,0.2-0.8,0.3-1.3,0.5c0-0.2,0-0.4,0-0.5c-0.3,0-0.5,0-0.7,0c0-0.2,0-0.4,0-0.7
		c-0.3-3.1-1-5.9-2.3-8.3c-0.9-0.8-1.6-1.7-2.4-2.7c-1.4-2.2-3.5-3.7-5.9-4.6c-0.6-0.2-1.1-0.4-1.6-0.6c0-0.1,0-0.2,0-0.2
		c0.1-0.5,0-1,0-1.6c0-0.4,0-0.8-0.4-1.2c-0.1,0-0.1-0.1-0.1-0.3c-0.1-0.1-0.2-0.1-0.4-0.2c-0.7-0.1-1.4-0.2-2.2-0.3
		c-0.7,0.5-1.3,1.1-1.9,1.8c-2.4,3-3.3,6.4-2.7,10.5c0.9,0.2,1.8,0.3,2.6,0.2c-0.1,0.1-0.2,0.2-0.3,0.2c0.2,0,0.5,0,0.8,0
		c0.1-0.1,0.2-0.2,0.4-0.3c0.9-0.3,1.6-0.9,2.1-1.7c0.1,0.1,0.2,0.2,0.4,0.3c0,0.2,0,0.3,0,0.4c0,1.7-0.6,3.2-1.6,4.5
		c-1.3,0.3-2.1,0.9-2.4,1.9c1.4,0.3,2.8,0.6,4.1,1c1.5,2.7,1.6,5.2,0.1,7.6c-0.2,0.2-0.4,0.4-0.6,0.6c0,0.1,0,0.1,0.1,0.1
		c-0.9,0.8-1.8,1.5-2.6,2c0.1,0.1,0.2,0.1,0.4,0.2c-4.3,4.4-6.5,10.2-6.8,17.5c0,2.1,0.2,4.2,0.7,6.1c0.9,3.2,2.3,5.8,4.1,8.1
		c-1,0.3-1.9,1-2.6,2.1c-0.4,0.5-0.6,1.2-0.5,1.8c0.1,0.5,0.3,1,0.5,1.5c0.1,0.1,0.2,0.3,0.3,0.4c0.4,0.1,0.8,0.3,1.3,0.6
		c-4.6,0.3-8.7,1.9-12.4,4.7c0,0.2,0,0.3,0,0.4c-0.1,0.8,0,1.6,0.3,2.3c0,0,0,0,0.1,0.1c-0.8,0.3-1.4,0.9-1.9,1.5
		c1.2,0.1,2.2,0,3.2-0.4c0.9,0.1,1.7,0.3,2.6,0.4c-1.3,0.5-2.6,1.2-3.7,2.1c0.1,0.2,0.1,0.2,0.1,0.2c2.2-0.5,4.3-1.1,6.6-1.9
		c1,0.1,2,0.2,2.9,0.3c-1.6,0.4-3.1,1-4.4,1.7c2.5-0.1,5.1-0.6,7.6-1.6c2,0,4-0.1,6.1-0.3c-2.3,0.8-4.5,1.5-6.7,2.4
		c0.2,0,0.4,0,0.7,0c8.4-1.9,16.7-4.1,24.8-6.5c1.6-0.1,3.2-0.2,4.8-0.5c-0.4,0.2-0.9,0.4-1.5,0.5c-5.7,1.3-11,3.2-16.1,5.6
		c6-1.1,12.4-2.8,19-5.2c1.5,0.7,3,1.3,4.5,1.9c-0.8-0.2-1.6-0.4-2.5-0.4c-0.5,0.3-1.1,0.5-2,0.7c-3.2,0.3-6.1,1.3-8.7,2.9
		c0.3,0,0.7-0.1,1.1-0.1c4.4-0.9,8.5-1.8,12.4-2.9c-0.1-0.1-0.1-0.1-0.2-0.2c0.9,0.3,1.7,0.6,2.6,0.8c-1.9,0.4-3.4,1.1-4.6,2.1
		c0.3,0.6,0.7,0.8,1.5,0.7c3.4-0.6,5.3-1.3,5.3-2.2c1.9,0.4,3.7,0.7,5.6,1c-0.1-0.1-0.3-0.1-0.5-0.1c-0.9,0.3-2,0.6-3.2,0.9
		c-0.4,0.1-0.7,0.3-0.7,0.7c0.3,0.7,0.7,0.8,1.3,0.5c1.5-0.9,3.1-1.4,4.9-1.7C73.2,94,73.2,94,73.1,94c-0.3-0.1-0.6-0.1-0.9-0.2
		c1.5,0.2,3.1,0.2,4.7,0.2c-1.4,0.7-2.5,1.4-3.6,2.2c0.5,0.4,1.1,0.4,1.7,0.2c2.1-1,4.4-1.8,6.6-2.6c3-0.3,6-0.8,9-1.6
		C90.7,92.2,90.8,92,90.9,92z M70.3,19.8c0-0.1,0.1-0.1,0.2-0.2c0.5-0.1,1-0.1,1.5-0.1c0.7,0.4,1.3,0.9,1.7,1.5c0.8,1,1.6,2,2.3,3
		c0.3,1,0.6,2,1,3.1c0.4,1.2,0.3,2.3-0.4,3.2c-0.9,0.1-1.7-0.2-2.5-0.8c-1.4-1.2-2.6-2.5-3.6-3.9c-5.1,0.7-8.4,3.4-10,8.1
		c-1,2.7-1,4.6-0.3,5.7c-0.1,0.3-0.1,0.5-0.2,0.8c-0.2,0.1-0.4,0.3-0.6,0.4c2.1,0.6,4,1.4,5.9,2.3c0.4,0.2,0.7,0.3,1.1,0.4
		c0.7,0.6,1.5,1.2,2.3,1.7c0.7,0.5,1.3,1.1,1.9,1.7c0.4,0.7,1.1,1.5,1.7,2.3c0.1,0.1,0.1,0.2,0.1,0.3l-0.2,0.2
		c2.4,3.4,3.7,7.9,3.7,13.4c0,4.2-1.5,7.8-4.5,10.9c-9.3,9.8-21.1,12.4-35.3,8c-3.9-1.2-7-3.4-9.5-6.5c-5.2-6.5-6.1-13.9-2.6-22
		c0.1-0.1,0.2-0.2,0.4-0.4c0.1-0.1,0.2-0.2,0.4-0.3c0-0.2,0.1-0.3,0.2-0.4c0-0.1,0-0.2,0-0.4c0-0.1,0-0.2,0.1-0.3
		c0-0.2,0.1-0.3,0.2-0.4c0.8-0.7,1.5-1.5,2.1-2.4c3-4.4,6.9-7.3,11.7-8.7v-0.1c0-0.2,0-0.3,0-0.5c0.1,0,0.2-0.2,0.3-0.3
		c0.1-0.1,0.2-0.2,0.2-0.4c0-0.3,0-0.6,0-1c0,0.5,0.1,0.9,0.2,1.4c1.6-8.3-1.5-13-9.5-14.4v-0.1c-0.2,0-0.3,0-0.4,0
		c-0.2,0-0.3,0-0.5,0c0,0.1,0,0.2,0,0.3c-0.3,0.1-0.5,0.4-0.6,0.7c-0.3,0.7-0.7,1.2-1.3,1.6c-0.5,0.2-1,0.3-1.5,0.3
		c-0.3,0-0.6-0.1-0.9-0.3c0-0.3,0-0.7,0-1.1c0-4.1,1.6-6.8,4.8-8.1c-0.1,0.7-0.2,1.5-0.3,2.2c-0.1,0.8,0.2,1.2,0.9,1.4
		c0.1-0.1,0.2-0.1,0.3-0.2c0.3,0.2,0.6,0.4,0.8,0.6c6.5,3.2,10.1,8.3,10.8,15.2c-0.2,0.2-0.3,0.4-0.3,0.6c-0.1,0-0.2,0-0.2,0.1h-0.1
		c-0.1,0.1-0.2,0.2-0.3,0.3c-0.1,0.1-0.1,0.2-0.1,0.4c0,0.1,0,0.2,0.1,0.3c0.2,0.2,0.4,0.3,0.5,0.3c0.2,0.1,0.3,0,0.4-0.1
		c0.1,0,0.2-0.1,0.3-0.2c0.2-0.1,0.3-0.2,0.6-0.2c0.8,0,1.6,0,2.5,0.1c4,0.1,7.5,0.3,10.4,0.4c0.1,0,0.1,0,0.1,0l0,0h0.1h0.3
		c0.4,0,0.8,0,1.2,0c-0.1-0.1-0.1-0.2-0.2-0.2c-0.3-0.2-0.6-0.3-0.9-0.4c0.2-0.4,0.3-0.8,0.4-1.2c-0.1,0-0.2-0.1-0.3-0.2
		c2.2-6.7,6.9-11.4,14.2-14c0.1-0.6-0.2-1.1-0.8-1.6c0,0,0-0.1,0-0.3c0-0.1,0-0.2,0-0.3c0-0.3,0-0.5,0-0.8
		C70.3,20.1,70.3,20,70.3,19.8z M61.3,38.2c0.1-0.2,0.2-0.5,0.3-0.8c0.6-4.7,3.1-7.8,7.4-9.2c-0.8,1.5-0.8,3.3-0.1,5
		c-3,1.1-5.5,2.9-7.6,5.3C61.3,38.5,61.3,38.4,61.3,38.2z M68.4,43.4c-0.1-0.1-0.2-0.2-0.4-0.3c-2-1.1-4.1-2.2-6.2-3.3
		c0-0.3-0.1-0.6-0.2-0.9c2.7-1.5,5.6-2.8,8.8-4.1c-1.6,3.1-1.9,6.1-1,9c-0.4-0.2-0.7-0.4-1-0.5V43.4z M35.9,29.6
		c1.2,1.9,2.3,3.8,2.9,5.6c-0.4,0.9-0.5,1.9-0.3,3.1c-0.1,0.1-0.2,0.1-0.3,0.1c-2.5-3.2-5.4-5-8.7-5.6c0.2-0.2,0.4-0.5,0.6-0.7
		c1-1.8,1.3-3.8,1-5.9C33.1,26.6,34.6,27.7,35.9,29.6z M37.9,38.5c-2.3,0.5-4.2,1.3-5.8,2.5c0.5-1.7,0.4-3.4-0.5-5.3
		C33.9,36.5,36,37.4,37.9,38.5z M33.3,83.6h-0.1c-0.2,0-0.4,0-0.6,0c-0.5-0.5-1-1-1.6-1.6l-0.1-0.2c0.1-0.1,0.2-0.1,0.2-0.2
		c0.7,0.3,1.4,0.5,2.1,0.8c0.6,0.2,0.9,0.5,0.9,0.9c0.5,0.3,1,0.4,1.5,0.6c0.2,0.1,0.4,0.1,0.5,0.2c-0.3,0.2-0.6,0.5-1,0.8
		c1-0.1,2.1-0.3,3.2-0.4c3.1,0.6,6.2,1,9.4,1.2c1.8,0,3.6-0.2,5.4-0.4l0,0c0.3,0.2,0.6,0.3,0.8,0.4c1-0.1,1.9-0.1,2.8-0.2
		c0.2-0.1,0.4-0.2,0.7-0.2c-0.5-0.2-0.9-0.4-1.3-0.6c1.3-0.3,2.6-0.6,3.8-1c-0.4,0.2-0.8,0.5-1.2,0.7c0.5,0.2,1.1,0.2,1.7,0.4
		c-1.6,0.6-2.9,1.6-3.9,2.9c-5.4,0.1-10.9-0.2-16.4-0.9c-1.5-0.9-3.1-1.5-5-1.9c-0.5-0.1-1.1-0.2-1.6-0.3c-0.1,0-0.1,0-0.1,0
		c-0.1-0.2-0.2-0.3-0.3-0.4C33.1,84,33.2,83.8,33.3,83.6z M31.6,85L31.6,85c0.2,0.4,0.3,0.9,0.4,1.3c3.1,1,6.3,2,9.4,3.3
		c-9.6,2.9-18.9,2.9-27.9,0.1c3.9-3,8.6-4.6,13.8-4.8c0.1,0,0.2,0,0.3,0c0.5-0.1,1.1-0.1,1.7-0.1c0-0.1,0-0.2,0-0.4
		c0.1-0.3,0.1-0.6,0.1-0.9c-0.4-0.1-0.8-0.1-1.1-0.2l0,0c-0.5-0.2-1-0.5-1.8-0.6c-1.2-0.3-2-0.9-2.4-1.9c0.1-0.4,0.3-0.8,0.6-1.1
		c0.2-0.1,0.3-0.2,0.4-0.4c0.3-0.1,0.6-0.1,0.9-0.1c0.4,0,0.8,0,1.2-0.1c0.5,0.5,1.1,1,1.8,1.5c-0.1,0.1-0.2,0.1-0.2,0.2
		c0,0.3,0,0.5,0,0.8c0,0.4,0,0.8,0,1.1C29.8,83.4,30.8,84.1,31.6,85z M43.6,89.4c-0.6-0.6-1.3-1.1-1.9-1.6c1.6,0.5,3.3,0.9,5,1.1
		c-1,0.2-2,0.5-3,0.8C43.6,89.6,43.6,89.5,43.6,89.4z M67.7,80.1c0.3-0.2,0.7-0.4,1-0.7c0.6,0.5,1.3,0.8,2.3,1.1
		c-0.1,0.2-0.3,0.4-0.5,0.7c-0.7,0.7-1.2,1.4-1.5,1.9c-0.2,0.1-0.5,0.2-0.7,0.3c0.1,0.4,0.2,0.9,0.2,1.4c8.2,0.3,15.4,2,21.6,5.4
		c-11,3.3-21.8,2.7-32.3-1.6c2.4-1.8,5-2.8,8-3.3c0-0.1,0-0.2,0.1-0.4c0-0.3,0.1-0.6,0.1-0.8c1-0.5,1.5-1.4,1.6-2.5
		c-0.1-0.1-0.1-0.2-0.1-0.3c-0.3-0.4-0.6-0.6-0.9-0.8c0.4-0.1,0.9-0.1,1.3-0.1C67.8,80.3,67.7,80.2,67.7,80.1z M66,82.1
		c-0.4,0.4-0.8,0.7-1.2,1c-0.6,0.2-0.8,0.5-0.7,0.9c-0.7,0.1-1.5,0.1-2.1,0.3c-0.6-0.2-1.1-0.5-1.7-0.7c1.2-0.5,2.4-0.9,3.5-1.5
		c0.1,0.1,0.2,0.2,0.2,0.4l0.3-0.6C64.5,82.2,65.2,82.2,66,82.1z"/>
	<path style="fill:#3172A1;" d="M46.5,46.6c-1.6-0.1-3.2-0.1-4.7-0.2c-3.4,0.8-5.8,2.8-7.2,6c-3.8,8.7-1.2,14.3,7.7,16.8
		c1.3-0.5,2.7-0.8,4.2-1.3c0.8-0.2,1.5-0.7,2-1.3c0.7,0.9,1.7,1.6,2.9,2c1.9,0.7,3.7,0.6,5.5-0.2c6.5-2.9,8.4-7.8,5.6-14.7
		c-0.9-1.2-1.9-2.3-3-3.4c-3.2-3-6.9-3.7-11-2.2c-0.4-0.4-0.9-0.7-1.5-1.2C46.9,46.8,46.7,46.7,46.5,46.6z M42.3,47.9
		c1.2-0.3,2.4-0.4,3.5,0c-3,0.5-5.7,1.5-8,3C39,49.8,40.5,48.8,42.3,47.9z M50.9,49.2c0.1,0,0.2,0,0.3,0c3.1,3.3,6.4,5.6,10.1,6.8
		c1.7,4.3,0.5,8-3.8,11.2c-3.4,0.8-6.3,0.1-8.7-2.3c-3.4,2.7-7,3.2-10.8,1.3c-0.8-0.3-1.3-0.8-1.6-1.5c-2.3-4.8-2.4-8.7-0.2-12
		c1.5-0.7,3.1-1.3,4.8-1.9c2.7-0.8,4.6-1.7,5.5-2.6c0.5,0.3,0.9,0.6,1.4,1c0,0.4,0.1,0.7,0.2,1c0.2,0.3,0.4,0.5,0.7,0.7
		c0.5,0,0.9-0.3,1.2-0.8C50.2,49.8,50.5,49.4,50.9,49.2z M59.4,52.6c0.6,0.8,1.1,1.6,1.5,2.5c-3-2-6-4-9-5.9c2.6,0,4.9,0.9,6.9,2.6
		C59,52.1,59.2,52.3,59.4,52.6z"/>
	<path style="fill:#3172A1;" d="M52.4,57.8c0-0.1,0-0.2,0-0.4c-0.2-0.1-0.3-0.1-0.4-0.2c-0.8-0.1-1.5-0.2-2.2-0.3V57
		c-0.6,0.1-0.9,0.4-0.7,1.1c0,0.1,0,0.2,0,0.3c0,0.2,0.1,0.3,0.1,0.4c0.9,1.1,1.9,1.3,3.1,0.5C52.4,58.8,52.5,58.3,52.4,57.8z"/>
	<path style="fill:#3172A1;" d="M45.5,56.9c-0.4,0.4-0.5,0.9-0.4,1.5c0.7,1.3,1.5,1.6,2.6,1.1c0.1-0.1,0.1-0.1,0.2-0.1
		c0-0.1,0.1-0.2,0.2-0.2c0.2-0.4,0.2-0.7,0.2-1.1c0-0.5-0.1-0.8-0.4-1.2c-0.2-0.1-0.3-0.2-0.4-0.2c-0.4-0.1-0.8-0.2-1.2-0.3
		C46,56.5,45.8,56.7,45.5,56.9z"/>
	<path style="fill:#3172A1;" d="M47.5,73.8c-0.3,0.1-0.6,0.2-1,0.3c-0.1,0-0.3,0.1-0.5,0.2c-0.1,0.3-0.3,0.6-0.5,0.8
		c-0.6,1.2-0.7,2.4-0.2,3.7c2.2,1.1,4,1,5.3-0.3c0-0.2,0-0.3,0-0.4C50.1,76.2,49.1,74.7,47.5,73.8z M47,75.2
		c0.8,0.1,1.3,0.7,1.4,1.6c-0.2,1.7-1,1.7-2.4,0.3c0-0.1,0-0.2,0.1-0.4c0.2-0.5,0.5-1,0.8-1.5C46.9,75.2,46.9,75.2,47,75.2z"/>
	<path style="fill:#3172A1;" d="M48,82.5c0.1-0.1,0.3-0.2,0.4-0.2c1.3-0.3,2.2-1,2.7-2c-1.2-0.1-2.5,0.2-3.8,0.8
		c-0.3-0.1-0.5-0.2-0.7-0.3c-0.3-0.2-0.6-0.5-0.8-0.7C44.4,81.1,45.2,81.9,48,82.5z"/>
	<path style="fill:#3172A1;" d="M24.8,59.1c-0.4-0.1-0.5,0-0.6,0.1c-1,3.7-0.7,6.8,1.1,9.7c1.2,0.4,2.1,0.2,2.6-0.8
		c0-0.1,0-0.2,0.1-0.4c0-0.6,0-1.2-0.1-1.8c-0.1-0.2-0.2-0.3-0.3-0.4C26,63.6,25,61.5,24.8,59.1z M26,67.6c-1.2-0.9-1.6-2-1.2-3.2
		v-0.1c1.7,1.1,2.2,2.2,1.7,3.4C26.3,67.7,26.1,67.7,26,67.6z"/>
	<path style="fill:#3172A1;" d="M73.8,59c0-0.3,0.1-0.5,0.1-0.8c-0.2-2.1-0.6-4.1-1.4-6c-0.1-0.1-0.3-0.2-0.5-0.4
		c-0.3-0.2-0.6-0.4-0.9-0.6c-0.3-0.1-0.6,0-0.5,0.4c0.3,2.7,0.4,5.3,0.4,7.9C72,60.2,72.9,60,73.8,59z M72,55.6v-0.1
		c0.4,0.6,0.7,1.3,1,2c0,0.8-0.4,1.1-1.2,1.1c-0.1-0.1-0.2-0.2-0.2-0.4C71.7,57.3,71.8,56.4,72,55.6z"/>
	<path style="fill:#009659;" d="M56.7,39.2h-0.3H56.7L56.7,39.2z"/>
	<path d="M56.7,39.2h-0.3c0,0.1,0.1,0.3,0.1,0.5C56.6,39.5,56.6,39.4,56.7,39.2z"/>
	<path d="M72.4,49.3c-0.5-0.4-0.9-0.8-1.4-1.2c0.4,0.4,0.8,0.9,1.2,1.4L72.4,49.3z"/>
	<path d="M39.1,39.9V40c0,0,0,0,0.1,0C39.1,40,39.1,39.9,39.1,39.9z"/>
	<path style="fill:#3172A1;" d="M91,92.6c0,0.1,0,0.1,0,0.1c-3.1,0.5-5.8,1.7-8.2,3.4c0.2,0.1,0.4,0.1,0.6,0c2.9-1.1,5.9-2.1,8.9-3
		c-0.1-0.1-0.2-0.1-0.2-0.2C91.7,92.8,91.4,92.7,91,92.6z"/>
	<path style="fill:#3172A1;" d="M47,21.3c-0.1,0.1-0.3,0.3-0.4,0.5c-1.3,2.9-0.4,5.1,2.5,6.7c0.3,0.3,0.5,0.6,0.6,1
		c0.1,0.3,0.3,0.5,0.6,0.7c0.6-0.1,1-0.5,1.1-1.1c0.7-3.1-0.2-5.7-2.6-7.6C48.2,21.4,47.6,21.4,47,21.3z M49.1,23.5
		c0.1,0.2,0.2,0.4,0.4,0.7c0.5,0.8,0.6,1.6,0.3,2.5c-0.1,0-0.2,0-0.3-0.1c-2-0.9-2.6-2.1-1.9-3.8l0,0C48.2,22.9,48.7,23.1,49.1,23.5
		z"/>
	<path style="fill:#3172A1;" d="M68,18.7c0.2-0.1,0.3-0.1,0.4-0.1c0.1-0.2,0.3-0.4,0.5-0.6C68.6,18.2,68.4,18.4,68,18.7z"/>
	<path style="fill:#3172A1;" d="M42.5,16.2c0.4-0.3,0.6-0.7,0.6-1.4c-0.2-1.9-1-3.7-2.3-5.2c-0.3-0.1-0.5-0.2-0.8-0.2
		c-0.5-0.2-1-0.3-1.5-0.4c-0.3,0.1-0.6,0.4-0.7,0.9c-0.2,0.6-0.3,1.2-0.3,1.8c1,0.8,2,1.5,3,2c0.2,0.3,0.3,0.5,0.4,0.8
		C41.1,15.7,41.7,16.2,42.5,16.2z M40,10.6c0.1,0.1,0.1,0.2,0.1,0.2c0.4,0.7,0.8,1.2,1.3,1.8c-0.2-0.1-0.3-0.1-0.4-0.1
		c-1.6-0.4-2.3-1.1-2.2-2.2c0,0,0,0,0.1,0C39.2,10.4,39.6,10.5,40,10.6z"/>
	<path style="fill:#3172A1;" d="M65.8,16.5c-1.4-0.4-2.6-0.3-3.8,0.2c-0.1,0.2-0.2,0.3-0.3,0.3c-1.5,1.2-2.6,2.4-3.2,3.8
		c1,0.5,1.9,0.2,2.8-1c2,0.4,3.7,0.2,5.3-0.3c0-0.2,0-0.3,0-0.4c0.1-0.7,0.1-1.3-0.1-1.9c-0.1-0.1-0.2-0.2-0.4-0.4
		C66,16.7,65.9,16.6,65.8,16.5z M65.4,18.2c0,0.2,0,0.2-0.1,0.2c-1.8,0.5-2.6,0.2-2.4-0.7c0,0,0.1,0,0.1-0.1
		C64,17.2,64.9,17.4,65.4,18.2z"/>
</g>
</svg>
