<?xml version="1.0" encoding="iso-8859-1"?>
<!-- Generator: Adobe Illustrator 12.0.1, SVG Export Plug-In . SVG Version: 6.00 Build 51448)  -->
<!DOCTYPE svg PUBLIC "-//W3C//DTD SVG 1.1//EN" "http://www.w3.org/Graphics/SVG/1.1/DTD/svg11.dtd" [
	<!ENTITY ns_svg "http://www.w3.org/2000/svg">
	<!ENTITY ns_xlink "http://www.w3.org/1999/xlink">
]>
<svg  version="1.1" id="Layer_1" xmlns="&ns_svg;" xmlns:xlink="&ns_xlink;" width="83.147" height="92.372"
	 viewBox="0 0 83.147 92.372" style="overflow:visible;enable-background:new 0 0 83.147 92.372;" xml:space="preserve">
<g>
	<path style="fill:#3172A1;" d="M74.647,52.972c0,0.1,0,0.1,0,0.1c-0.9,0.1-1.7,0.3-2.5,0.7c-0.2,0.2-0.5,0.5-0.7,0.7
		c-0.2,0.3-0.4,0.5-0.5,0.8c0,0.6,0,1.2,0,1.8c0,0.6,0,1.1,0,1.6c-0.2,0.1-0.4,0.2-0.5,0.3c-0.3,0.2-0.5,0.4-0.8,0.7
		c0-0.9-0.2-1.8-0.3-2.6c-0.5-2.4-1.2-4.6-2.3-6.6c0.3-0.1,0.5-0.2,0.8-0.3c0.2-0.1,0.3-0.2,0.4-0.3c0.2-0.1,0.3-0.2,0.4-0.4
		c2.5-1.9,3.4-4.4,3-7.5c-0.1-0.8-0.5-1.6-1.2-2.2c-0.8,0-1.5,0-2.3,0.1c-0.1,0-0.3,0-0.5,0c-0.1-0.1-0.3-0.3-0.5-0.4
		c-1.5-1.4-3.1-2.5-4.9-3.2c0.3-0.7,0.4-1.5,0.7-2.3c-0.3-0.2-0.4-0.5-0.5-0.8c-0.6-1.2-1.3-2.1-2.3-2.9c-1.3-1-2.8-1.7-4.5-2
		c-1.2-0.1-2.2,0-3.1,0.3c0-0.3,0.1-0.6,0.2-0.8c0.3-0.9,0.4-1.7,0.2-2.6c0-0.2-0.1-0.3-0.2-0.4c-0.1-0.2-0.2-0.3-0.4-0.4
		c-2.6-2.4-5.9-3.2-9.7-2.5c-1.4,0-2.7,0.4-3.8,1.1c-0.2,0-0.3,0.1-0.4,0.3c-0.2,0.3-0.2,0.7-0.2,1.1c0,1.2,0.3,2.4,0.8,3.4
		c-0.3,0-0.6-0.2-0.9-0.3c-2.1,0.4-4.3,0.9-6.8,1.5c-2.5,0.7-4.3,2.2-5.4,4.5c-0.1,0.3,0,0.5,0,0.8c-2.2,0.6-4.4,1.2-6.6,1.9
		c-0.3,0-0.5,0.1-0.7,0.3c-0.7-1.6-2-2.6-4-3c-0.9,0.5-1.4,1.3-1.6,2.5c-0.7,3.6,0.4,6.7,3.2,9.3c0.8,0.2,1.6,0.4,2.4,0.6
		c-3.7,4.2-5.6,9.7-5.9,16.5c0,1.6,0.1,3.3,0.4,4.9c-3.1-1.4-6.6-2.3-10.5-2.8c-0.1,0.1-0.2,0.2-0.4,0.2c-0.3,0.2-0.7,0.4-1,0.6
		c-0.3,0.2-0.6,0.5-0.8,0.7c-0.5,1.9-0.6,3.9-0.2,6c1.2,6,3.6,10.4,7.4,13.2c-2,0.5-3.5,1.5-4.4,2.9c0.1,0.2,0.1,0.2,0.1,0.2
		c2.2-0.5,3.9-1.4,5-2.6c0.7,0.5,1.6,0.9,2.4,1.3c-1.8,0.5-3.1,1.4-4,2.8c0.2,0,0.3,0.1,0.4,0.1c2.9-0.7,4.4-1.5,4.6-2.4
		c1.1,0.3,2.2,0.6,3.4,0.9c-1.4,0.3-2.3,1-2.9,2.1c0.2,0.1,0.4,0.1,0.6,0.1c1.6-0.7,3.3-1.3,5-1.8c1.4,0.1,2.9,0.1,4.4,0.1
		c-1,0.7-2,1.4-3,2.2c3.5-0.9,7.2-2.3,11.3-4.1c1.9-0.9,3.1-1.7,3.6-2.6c1.2,0.2,2.3,0.3,3.5,0.4c-4.2,1.4-7.6,3.5-10.2,6.3
		c1.2,0.1,2.6-0.2,4-0.9c3.7-1.7,6.1-3.5,7.4-5.3c0.3,0,0.7,0,1,0.1c0.2,0,0.3,0,0.4,0c1.4-0.1,2.7-0.3,4.1-0.6
		c-3.5,1.5-6,3.6-7.4,6.5c0.2,0,0.4,0,0.6-0.1c3.4-2.5,7-4.9,10.8-7c0.4-0.1,0.7-0.1,1.1,0c0.2-0.1,0.5-0.2,0.8-0.2
		c-0.3,0.5-0.1,1,0.4,1.3c1.3,0.8,2.5,1.5,3.8,2c-1.9,0.8-3.5,1.8-4.7,3.2c0.8,0.6,1.7,0.6,2.9,0c1.9-1,3-1.8,3.3-2.6
		c1,0.4,2,0.7,3.1,1c-0.9,0.6-1.5,1.3-1.9,2.1c0.2,0.1,0.3,0.1,0.4,0.1c1.3-0.6,2.5-1.2,3.5-2c2.6,0.3,5.1,0.1,7.8-0.5
		c-1.9,0.9-3.7,2-5.4,3.2c3.1-1.2,6.4-2.4,9.9-3.6c4.7-1.5,7.9-3.3,9.8-5.3c-0.1,0.1-0.2,0.1-0.3,0.2c-2.3,0.6-4.5,1.3-6.7,2.1
		c1-0.6,1.9-1.3,2.9-2c1.7-1.6,2.7-3.5,3-5.7c0.2-1,0.1-2-0.1-3c-0.4-0.3-0.8-0.6-1.3-0.7c-4.4-0.9-8-1.7-11-2.3
		c-0.6,0.1-1.3,0.2-2,0.3c0.8-1.5,1.4-3.1,1.8-4.9c-0.4,0.1-0.7,0.2-1,0.4c1.6-1.1,3.2-2.2,4.8-3.4c1.9,1.3,3.8,1.4,5.9,0.3
		c0.3-0.3,0.5-0.5,0.8-0.8c0.3-0.3,0.7-0.7,1-1.1c0-0.1,0-0.2,0-0.4C80.847,57.172,78.747,54.272,74.647,52.972z M77.247,57.672
		c-0.9-0.6-1.9-0.9-3.1-0.8c-0.7,0.1-1,0.6-1,1.5c0.1,0.4,0.1,0.8,0.3,1.1c-0.4,0.3-0.8,0.5-1.1,0.7c-0.4,0.3-0.8,0.5-1.2,0.8
		c-0.7,0.4-1.3,0.9-1.9,1.5c-3.4,2.8-6.9,5.4-10.6,7.9c-0.6,0.4-1.2,0.7-1.9,1c5.9-4,11.3-8.4,16.2-13.1c-0.1-0.6-0.2-1.1-0.4-1.6
		c-0.1-0.2-0.1-0.4-0.1-0.7c0.1-0.1,0.2-0.2,0.4-0.3c0.6-0.2,1.2-0.5,1.8-0.7c0.2,0,0.4,0,0.5,0c0.3,0.1,0.6,0.1,0.9,0.1
		c0.4,0.5,0.7,0.9,1.1,1.4c1.1,1.4,1.8,3,2.1,4.7c-1.9,1.3-4.1,1.5-6.5,0.5c0.1-0.1,0.1-0.1,0.1-0.1c0.6-0.2,1.2-0.3,1.8-0.6
		c0.1,0.2,0.3,0.3,0.4,0.3c0.8,0.5,1.5,0.5,2.2,0.1c0.3-0.6,0.4-1.2,0.4-1.9c0-0.5-0.1-1-0.2-1.5
		C77.347,57.872,77.247,57.772,77.247,57.672z M79.547,74.972c0.7,0.8,0.8,1.6,0.1,2.5c-4.7,6.1-10.3,9.2-16.7,9.4
		c0.1-0.1,0.2-0.2,0.3-0.4c-0.2,0-0.4,0-0.6,0c-0.3,0.1-0.6,0.3-0.9,0.4c-3.2-0.1-6.7-1-10.3-2.5c0-0.1,0-0.2,0-0.3
		c3.3-5.1,7.7-8.3,13.4-9.5c0.1,0.1,0.3,0.2,0.4,0.3c0.2-0.2,0.3-0.4,0.4-0.5c2.4-0.5,4.9-0.6,7.6-0.4c1.9,0,3.8,0.2,5.6,0.6
		C79.147,74.672,79.347,74.772,79.547,74.972z M45.947,29.772c-0.7,0-1.5-0.2-2.1-0.5c-1.5-0.5-2.7-1.4-3.6-2.5
		c3.2,1.1,6.4,1.8,9.5,2.1c-0.8,0.7-1.9,1.1-3.1,1c-0.1,0-0.2,0-0.2,0C46.247,29.872,46.147,29.872,45.947,29.772z M43.947,31.872
		c-0.1,0.2-0.2,0.5-0.2,0.8c-0.1,0.2-0.1,0.4-0.2,0.7c-0.1,0.8,0.1,1.4,0.6,1.7c0.4-0.3,0.7-0.7,0.9-1.3c0.2-0.7,0.6-1.4,1-2
		c0.5,0,1-0.1,1.5-0.2c0.5,0.4,1,0.8,1.4,1.2c0.9,0.9,1.8,1.5,2.7,1.8c0.1,0,0.1-0.1,0.1-0.1c-0.8-1.3-1.7-2.4-2.9-3.2
		c0.9-0.3,1.8-0.7,2.6-1.4c1.8,0.8,3.8,1.5,6,2.3c1.5,0.4,2.7,1.3,3.6,2.7c-2,4.9-5.6,6.8-11.1,5.8c-1.7-0.3-3.4-0.2-5.1,0.1
		c-8.2,2-14.1-0.3-17.3-6.9c0.4-0.3,0.7-0.6,1.1-0.9c2.8-2.9,6.4-4.4,10.7-4.5c0.1,0.3,0.2,0.5,0.3,0.8c0.2,0,0.3,0.1,0.4,0.2
		c-2.4,0.5-4.3,1.8-5.6,3.6C37.347,32.572,40.447,32.172,43.947,31.872z M40.247,24.372c0.8-0.1,1.6-0.1,2.4-0.3
		c0.2-0.1,0.4-0.1,0.6-0.2c3.8-0.6,6.2,0.2,7.3,2.5C46.947,27.272,43.547,26.572,40.247,24.372z M40.247,42.372
		c2.1-0.4,4.2-0.3,6.2,0.3c5,1.4,8.9,1.2,11.7-0.7c1.5,1.1,2.9,2.2,4.2,3.4c-0.1,0.1-0.2,0.2-0.3,0.2c0.1,0.1,0.3,0.1,0.5,0.1
		c0,0.1,0.1,0.2,0.2,0.3c0.4,0.7,1.1,1.5,1.7,2.3c0.1,0.1,0.1,0.2,0.1,0.3l-0.2,0.2c2.3,3.2,3.5,7.2,3.7,12.1
		c-5.4,4.1-10.8,8.2-16,12.2c-0.4-0.1-0.9-0.1-1.4-0.1c-0.2,0.2-0.5,0.3-0.8,0.3c-0.5,0.2-1,0.4-1.6,0.6c-0.2-0.2-0.4-0.4-0.7-0.5
		c-0.6-0.3-1.1-0.7-1.6-1.3c-1.3-0.1-2.5,0.1-3.6,0.6c-0.6,0.2-1.1,0.3-1.5,0.1c-3.6-0.9-6.9-2.3-10.2-4.2c-0.5,0.3-1,0.7-1.7,1
		c-1.2,0.8-2.2,1.7-2.9,2.9c0,0.3,0.1,0.4,0.2,0.6c0.4,0.2,0.7,0.4,1.2,0.5c0.3-0.3,0.5-0.6,0.6-0.9c0.9-1.7,2.1-2.5,3.7-2.4
		c0.3,0.1,0.6,0.3,0.8,0.5c3.4,3.9,7.6,5,12.6,3.1c0.4,0.2,0.8,0.5,1.2,0.8c0.3,0.2,0.6,0.4,0.9,0.7c1.8,0,3.5-0.2,5-0.6
		c0.3,0.2,0.5,0.5,0.7,0.8c0.6,0.8,1.2,0.9,1.8,0.3c0-0.1,0-0.2,0-0.4c-0.2-0.3-0.3-0.6-0.4-0.9c4.2-1.9,8.4-4.2,12.7-6.9
		c-0.6,1.6-1.5,3.1-2.6,4.5c-5.4,1.5-9.8,4.7-13.1,9.5c0-0.1,0-0.2,0-0.3c-6.8,2.5-14.4,2.4-22.9-0.3c-3.3-5.8-7.7-10.1-13.3-12.9
		c-1.7-4.9-1.4-10,1-15.6c0.1-0.1,0.2-0.2,0.4-0.4c0.1-0.1,0.2-0.2,0.4-0.3c0-0.2,0.1-0.3,0.2-0.4c0-0.1,0-0.2,0-0.4
		c0-0.1,0-0.2,0.1-0.3c0-0.2,0.1-0.3,0.2-0.4c0.8-0.7,1.5-1.5,2.1-2.4c1.1-1.6,2.4-3,3.7-4.2c0.5-0.2,0.9-0.6,1.3-1
		c0.1-0.1,0.2-0.2,0.3-0.3c1.3-1,2.7-1.8,4.2-2.4c0,0-0.1,0-0.1-0.1c-0.9,0.5-1.7,0.8-2.6,1.2c0.9-0.7,2-1.2,3.2-1.5
		c0.1,0,0.2,0,0.2,0c0.7,0.5,1.4,1,2,1.7C34.447,42.572,37.347,42.872,40.247,42.372z M60.847,39.172c0.3-0.4,0.6-1,0.8-1.5
		c2,0.9,3.9,2.2,5.6,4.1c0.3-0.1,0.6-0.1,0.9-0.2c0.4-0.2,0.8-0.3,1.3-0.4c0.1,0,0.3,0.1,0.5,0.2c0.5,0.8,0.6,1.6,0.4,2.6
		c-0.3,1.6-1.2,3-2.4,4.2c-0.3,0.2-0.5,0.4-0.8,0.7c-0.3,0.1-0.6,0.2-0.9,0.3c-0.1-0.2-0.1-0.3-0.2-0.4c0.1-0.2,0.1-0.3,0.1-0.3
		c-0.6-1-1.2-2-1.8-2.8c0.5-0.4,1-0.9,1.4-1.3c0.2-0.1,0.3-0.3,0.3-0.4c0.1-0.3,0.1-0.5,0.2-0.7c0-0.2-0.1-0.3-0.1-0.3
		C64.547,41.272,62.747,40.072,60.847,39.172z M63.447,44.572c-1.2-1.4-2.4-2.5-3.9-3.5c1.6,0.8,3.2,1.6,4.9,2.4c0-0.1,0-0.1,0-0.1
		c-1.5-1.2-3-2.1-4.5-2.9c0-0.1,0-0.1,0-0.1c1.7,0.8,3.2,1.7,4.7,2.9c0,0.1-0.1,0.2-0.2,0.2c-0.2,0.2-0.3,0.3-0.5,0.5
		c-0.1,0.1-0.3,0.3-0.4,0.5l0,0C63.447,44.472,63.447,44.472,63.447,44.572z M19.047,37.572c0,0,0,0,0-0.1c2.6-0.8,5.1-1.2,7.6-1.4
		c-0.1-0.2-0.2-0.5-0.2-0.8c0,0.2,0.1,0.3,0.2,0.5c0.1,0.5,0.4,1.1,0.6,1.7c-1.5-0.2-3-0.2-4.6,0c-0.3,0.3-0.8,0.5-1.5,0.6
		c-1,0.1-1.9,0.6-2.5,1.5c-0.2-0.1-0.4,0-0.6,0c-0.5,0.7-0.4,1.3,0.1,2c0.6,0.7,0.8,1.5,0.6,2.4c-1.1,0.3-2.1,0-2.9-0.9
		c-2.1-2.3-2.5-4.8-1.2-7.3c0.2-0.1,0.3-0.1,0.4-0.1c0.9,0.7,1.8,1.2,2.7,1.6c-0.1,0.2-0.3,0.5-0.3,0.7c0.4-0.1,0.9-0.3,1.3-0.4
		C18.847,37.572,18.947,37.572,19.047,37.572z M20.747,39.472c0.8,0.1,1.5,0.1,2.2,0.1c-1.1,0.4-2,1.1-2.7,2
		c-0.1-0.5-0.2-0.9-0.4-1.3h0.1c0.1-0.2,0.2-0.3,0.3-0.4C20.447,39.772,20.647,39.672,20.747,39.472z M21.047,41.772
		c0.2,0,0.4,0,0.6-0.1c1.4-0.3,2.6-0.6,3.4-0.9c-0.4,0.3-0.7,0.7-1,1c-0.7,0.2-1.3,0.3-1.9,0.3c-0.2,0.2-0.3,0.4-0.5,0.5
		c0,0.1,0,0.1,0.1,0.1c-0.5,0.4-0.9,0.8-1.3,1.1c0-0.4,0-0.8-0.1-1.2c0-0.1,0-0.2,0-0.3C20.647,42.272,20.847,42.072,21.047,41.772z
		 M29.347,82.972L29.347,82.972c0.7,0.2,1.4,0.4,2,0.7c0.1,0,0.2,0,0.3,0.1c-0.8,0.3-1.5,0.6-2.3,1c0.1-0.5,0.1-0.9,0.2-1.4
		C29.447,83.272,29.447,83.172,29.347,82.972z M26.947,82.972c0.3,0.8,0.3,1.3-0.3,1.5c-7.7,4.4-14.7,3.2-20.9-3.5
		c-4.5-4.9-5.3-9.8-2.6-14.7c3.7,0.6,7.3,1.9,10.9,3.7C19.947,72.872,24.247,77.172,26.947,82.972z M69.947,63.672
		c0-0.1,0.1-0.2,0.2-0.4c0.2-0.1,0.5-0.1,0.7-0.3C70.547,63.172,70.247,63.372,69.947,63.672z"/>
	<path style="fill:#3172A1;" d="M39.647,44.172c-0.1-0.1-0.3-0.2-0.5-0.3c-1.6-0.1-3.2-0.1-4.7-0.2c-3.4,0.8-5.8,2.8-7.2,6
		c-3.8,8.7-1.2,14.3,7.7,16.8c1.3-0.5,2.7-0.9,4.2-1.3c0.8-0.2,1.5-0.7,2-1.3c0.7,0.9,1.7,1.6,2.9,2c1.9,0.7,3.7,0.6,5.5-0.2
		c3.1-1.4,5.2-3.3,6.2-5.7c0.2,0,0.3,0,0.4,0c0-0.2-0.1-0.3-0.2-0.3c0.8-2.5,0.6-5.4-0.8-8.7c-0.9-1.2-1.9-2.3-3-3.4
		c-3.2-3-6.9-3.7-11-2.2C40.747,44.972,40.247,44.672,39.647,44.172z M39.947,45.972c-0.5,0-1.1-0.1-1.7-0.1c0.4,0.1,0.7,0.3,1,0.5
		c0.4-0.1,0.7-0.1,1.1-0.1c0,0.1,0.1,0.1,0.2,0.2c0,0.3,0,0.6,0.1,0.8c0.4,0.3,0.7,0.6,0.9,0.9c0.5-0.1,0.8-0.3,1.1-0.8
		c0.1-0.2,0.3-0.4,0.5-0.6c0.1,0.1,0.2,0.1,0.3,0.2c0.6-0.5,1.4-0.7,2.2-0.7c0.3,0.1,0.6,0.2,0.8,0.4c1.8,0.3,3.5,1.2,5,2.4
		c0.2,0.3,0.4,0.5,0.6,0.8c0.6,0.9,1.2,1.8,1.6,2.8c1,1.1,1.3,2.3,1.1,3.6c0.1,0.6,0.1,1.2-0.2,2c0,0.3-0.1,0.6-0.2,0.9
		c0-0.1-0.1-0.1-0.2-0.1c-0.1,0.2-0.2,0.4-0.4,0.6c0.1,0,0.2,0,0.4,0.1c-0.2,0.4-0.4,0.6-0.5,1c-4-1.6-7.5-3.8-10.7-6.4
		c-0.5-0.1-0.9-0.2-1.3-0.3c-3.9,2.9-8.5,4.6-13.7,5.2c0-0.2-0.2-0.4-0.2-0.6c0.1,0,0.2,0,0.3,0c-0.1-0.1-0.1-0.2-0.2-0.3
		c-0.1,0-0.1,0-0.1,0c-0.1-0.2-0.1-0.4-0.2-0.6c-0.1-0.6-0.2-1.2-0.3-1.8c0-0.6,0-1.1,0-1.7c0.3-0.9,0.7-1.8,1.3-2.5
		c0.1-0.4,0.2-0.8,0.5-1.1c0.8-1.5,1.9-2.7,3.1-3.6c-0.5,0.3-1.1,0.7-1.6,1c1.1-1,2.6-2,4.4-2.9
		C36.847,44.672,38.547,44.872,39.947,45.972z M29.047,61.972c-0.4-0.8-0.8-1.7-1-2.4c3,0.6,6,0.2,8.9-0.9c0.1,0.1,0.1,0.2,0.1,0.3
		c-0.1,0.6,0.2,1,0.9,1.2c0.2,0,0.5,0,0.7,0.1c0.7-0.3,1.2-0.6,1.4-1.2c0.1-0.2,0.2-0.4,0.2-0.7c0-0.1-0.1-0.2-0.1-0.4
		c-0.2-0.2-0.4-0.5-0.6-0.6c0.8-0.5,1.6-1,2.4-1.6c0.6-0.1,1.1,0,1.5,0.4c2.9,2.8,6.2,4.5,9.8,5.2c-0.8,1.1-1.8,2.1-3.1,3.1
		c-1.9,0.5-3.7,0.4-5.4-0.2c0.3-0.1,0.5-0.4,0.8-0.5c0.5-0.4,0.8-0.9,0.7-1.5c0-0.1-0.1-0.3-0.1-0.4c-0.7-0.7-1.5-1.1-2.5-1.2
		c-0.3,0.1-0.5,0.3-0.8,0.6c-0.1,0.2-0.2,0.5-0.3,0.7c0,0.1,0,0.2,0,0.2c-0.4-0.3-0.8-0.5-1.2-0.7c-0.1,0-0.1,0.1-0.2,0.2
		c-0.3,0.3-0.6,0.6-0.9,1c0.4-0.1,0.6-0.2,0.9-0.3c-3.3,2.5-6.8,2.9-10.5,1.1C29.847,63.172,29.347,62.672,29.047,61.972z
		 M43.547,46.472c0.1,0,0.3,0,0.4,0c-0.2,0-0.4,0-0.5,0.1C43.447,46.472,43.447,46.472,43.547,46.472z M42.647,62.672
		c0,0.3,0.1,0.5,0.3,0.7c-0.5-0.4-1-0.7-1.5-1.2c0.1,0,0.1-0.1,0.1-0.2C41.847,62.272,42.147,62.572,42.647,62.672z"/>
	<path style="fill:#3172A1;" d="M47.347,47.172c-0.1-0.1-0.3-0.2-0.4-0.3c-0.1,0-0.1,0-0.1,0
		C46.947,46.972,47.147,47.072,47.347,47.172z"/>
	<path style="fill:#3172A1;" d="M30.547,80.872c0.1,0,0.1,0.1,0.1,0.2c0.1,0,0.1-0.1,0.1-0.1
		C30.747,80.872,30.647,80.872,30.547,80.872z"/>
	<path style="fill:#3172A1;" d="M50.347,80.672c-0.3,0.1-0.5,0.3-0.7,0.4c0.1,0.1,0.3,0.1,0.5,0
		C50.247,80.972,50.247,80.772,50.347,80.672z"/>
	<path d="M64.347,48.772l0.2-0.2c-0.5-0.4-0.9-0.8-1.4-1.2C63.547,47.772,63.947,48.272,64.347,48.772z"/>
	<path style="fill:#3172A1;" d="M80.947,86.272c-0.1,0-0.2,0-0.3,0c-3.8,1-6.9,3.1-9.2,6.1c0.2,0,0.4,0,0.6-0.1
		C75.947,90.472,78.847,88.472,80.947,86.272z"/>
	<path style="fill:#3172A1;" d="M38.147,9.072c0-0.1,0-0.2,0-0.3c-1.5-1.3-3.1-1.3-4.8,0.2c-1,0.8-1.8,1.8-2.4,2.9
		c-0.2,0-0.4,0-0.5,0c-1.3-0.2-2.2-0.8-2.9-1.8c-0.1-0.2-0.3-0.5-0.4-0.7c0-0.3,0-0.5,0.1-0.7c0-0.3,0-0.6,0.1-0.8
		c0.2-0.9,0.4-1.6,0.8-2.3c0.1-0.2,0.2-0.5,0.4-0.7c0.8-0.7,1.7-1.3,2.8-1.7c3.3-1.3,6.5-2,9.6-2.1c-0.1-0.1-0.2-0.2-0.3-0.2
		c-1.8-0.8-3.8-1-6-0.8c-1.6,0.5-3.2,1.1-4.7,2.1c-1.5,0.8-2.5,1.9-3.3,3.3c-0.1,1.5,0,2.9,0.3,4.3c0.5,1.8,1.8,3.1,3.7,3.7
		c0,0.5,0,1,0,1.5c0,0.2,0,0.3,0,0.4s0,0.2,0.1,0.4c0,0.1,0,0.2,0.2,0.3c0.2,0.3,0.5,0.5,0.7,0.7c0.4,0.3,0.8,0.6,1.1,0.9
		c0.2,0.1,0.3,0.2,0.4,0.3c0,0.5,0,1,0,1.5s0,1,0,1.5c0,0.3,0,0.5,0,0.8c0.1,0.1,0.2,0.2,0.3,0.3c0.1,0.2,0.3,0.3,0.5,0.3
		c0.2,0.1,0.4,0.1,0.7,0c0.1,0,0.2-0.1,0.3-0.1c-0.2-0.5-0.4-0.9-0.5-1.2c-0.2-0.5-0.3-1-0.3-1.5c0-0.2,0-0.5,0-0.7
		c0.6-0.4,1.5-0.8,2.5-1.4c0.2-0.1,0.4-0.2,0.5-0.5c0.1-0.4,0-0.7-0.3-0.8c-0.7-0.1-1.4-0.2-2.2-0.2c-0.1,0.2-0.2,0.3-0.4,0.4
		c-0.1,0.1-0.3,0.1-0.5,0.1c-0.2,0.1-0.4,0.1-0.6,0c-0.5-0.2-0.9-0.6-1.2-1.1c-0.1-0.3-0.2-0.5-0.2-0.8c-0.1-0.1-0.1-0.2-0.1-0.3
		c-0.2-1.3,0.6-1.9,2.6-1.7c1.7,0.1,3.1-0.6,4-2c0-0.2,0-0.5,0-0.7c0-0.1,0-0.2-0.1-0.4C38.147,9.372,38.147,9.272,38.147,9.072z
		 M35.647,8.972c0.3-0.2,0.6-0.2,0.8,0.1c0.2,0.2,0.4,0.4,0.6,0.5c-1.5,2.1-3,2.8-4.6,2.2c0.2-0.3,0.3-0.6,0.5-0.8
		c0.2-0.5,0.5-0.8,0.8-1.1c0.3-0.1,0.5-0.2,0.8-0.4C34.847,9.372,35.247,9.172,35.647,8.972z"/>
	<path style="fill:#3172A1;" d="M43.147,14.872c-0.1-0.1-0.2-0.2-0.4-0.4c-1,0.1-2,0.4-2.8,1c-0.8,0.7-0.8,1.4-0.2,2.3
		c1,1.2,2,1.4,3.3,0.5c0.1-0.2,0.2-0.3,0.2-0.4c0.3-0.9,0.3-1.7,0.3-2.6C43.347,15.072,43.247,14.972,43.147,14.872z M40.947,15.872
		c0-0.1,0-0.1,0.1-0.1c1.1-0.2,1.7,0.2,1.7,1.1c0,0.1-0.1,0.2-0.1,0.2C40.647,17.872,40.047,17.472,40.947,15.872z"/>
	<path style="fill:#3172A1;" d="M24.447,7.772c0.1-0.3,0.2-0.6,0.2-0.8c0.1-0.5,0.1-1,0-1.5c-0.1-0.1-0.2-0.2-0.4-0.3
		c-0.3-0.3-0.6-0.6-0.8-0.8c-1-0.1-1.9,0.2-2.7,0.9c0,0.2-0.1,0.5-0.1,0.7c-0.1,0.7-0.1,1.3-0.1,1.9
		C21.947,8.972,23.247,8.972,24.447,7.772z M22.247,6.072c0.7,1,0.7,1-0.1,0H22.247z"/>
	<path style="fill:#3172A1;" d="M5.647,91.572c-0.2,0-0.4-0.1-0.7-0.1c0,0-0.1,0.1-0.2,0.1c0.1,0.2,0.1,0.2,0.1,0.2
		C5.147,91.772,5.447,91.672,5.647,91.572z"/>
	<path style="fill:#3172A1;" d="M50.647,85.272L50.647,85.272c-2.7,1-5,2.5-7,4.5c1,0.4,2,0.3,3.2-0.3
		C49.847,87.972,51.147,86.472,50.647,85.272z"/>
</g>
</svg>
