<?xml version="1.0" encoding="iso-8859-1"?>
<!-- Generator: Adobe Illustrator 12.0.1, SVG Export Plug-In . SVG Version: 6.00 Build 51448)  -->
<!DOCTYPE svg PUBLIC "-//W3C//DTD SVG 1.1//EN" "http://www.w3.org/Graphics/SVG/1.1/DTD/svg11.dtd" [
	<!ENTITY ns_svg "http://www.w3.org/2000/svg">
	<!ENTITY ns_xlink "http://www.w3.org/1999/xlink">
]>
<svg  version="1.1" id="Layer_1" xmlns="&ns_svg;" xmlns:xlink="&ns_xlink;" width="85.449" height="91.367"
	 viewBox="0 0 85.449 91.367" style="overflow:visible;enable-background:new 0 0 85.449 91.367;" xml:space="preserve">
<g>
	<path style="fill:#3172A1;" d="M84.247,50.567c-0.1,0-0.3,0.1-0.4,0.1c-2.3,0.8-3.9,2.2-4.8,4.2c0.4,0.6,1,0.7,1.6,0.2
		c0.1-0.1,0.1-0.2,0.2-0.2C82.347,53.567,83.547,52.167,84.247,50.567z"/>
	<path style="fill:#3172A1;" d="M76.747,47.967c0,0,0,0-0.1,0c-1.6,2-1.7,3.6-0.5,4.9c0.1-0.1,0.2-0.1,0.2-0.2
		C77.047,50.967,77.147,49.467,76.747,47.967z"/>
	<path style="fill:#3172A1;" d="M74.247,54.067c0,0,0,0-0.1,0c-0.8,0.2-1.7,0.4-2.4,0.7c-0.3,0.3-0.5,0.5-0.8,0.8
		c-0.1,0.2-0.3,0.5-0.5,0.7c0,0.7,0,1.3,0.1,1.9c0,0.5,0,1-0.1,1.5c-0.1,0.1-0.3,0.2-0.5,0.4c-0.1,0.1-0.3,0.2-0.5,0.4
		c0.7-1.5,0.7-3.3,0.2-5.5c-0.1-0.1-0.2-0.2-0.4-0.4c-0.1-0.1-0.2-0.2-0.3-0.3c-0.3-1-0.6-1.9-0.9-2.8c0-0.1,0-0.2,0-0.3
		c-0.1-0.7-0.4-1.3-0.5-1.9h0.1c0.2,0,0.4,0,0.5,0.1c0.4-0.2,0.8-0.5,1.2-0.7c1-0.7,1.8-1.6,2.4-2.6c0-0.3,0-0.7,0.1-1.1
		c0-0.4,0-0.8-0.2-1.1c-0.1-0.1-0.3-0.3-0.5-0.4c-0.2-0.3-0.5-0.5-0.7-0.7c-1.4,0.2-2.7,0.1-3.8-0.3c-0.1-0.1-0.2-0.2-0.2-0.4
		c-1.3-1.8-2.9-3.2-4.8-4.3v-0.1c0,0,0.2,0,0.3,0.1c0.2-0.5,0.6-0.8,1.1-1.2c-0.2-0.1-0.3-0.1-0.4-0.2c-0.2,0-0.3-0.1-0.4-0.1
		c0.3-0.7,0.4-1.5,0.7-2.3c-0.3-0.2-0.4-0.5-0.5-0.8c-0.6-1.2-1.3-2.1-2.3-2.9c-1.3-1-2.8-1.7-4.5-2c-1.2-0.1-2.2,0-3.1,0.3
		c0-0.3,0.1-0.6,0.2-0.8c0.3-0.9,0.4-1.7,0.2-2.6c0-0.2-0.1-0.3-0.2-0.4c-0.1-0.2-0.2-0.3-0.4-0.4c-2.6-2.4-5.9-3.2-9.7-2.5
		c-0.1,0-0.2,0-0.2,0c-1.4,0.4-2.7,0.9-4,1.5c-0.2,0.4-0.2,0.6-0.2,1c0,1.2,0.3,2.4,0.8,3.4c-0.3,0-0.6-0.2-0.9-0.3
		c-2.1,0.4-4.3,0.9-6.8,1.5c-2.5,0.7-4.3,2.2-5.4,4.5c-0.1,0.3,0,0.5,0,0.8c-0.1,0-0.2,0-0.2,0c0.2,0.3,0.4,0.6,0.6,0.9
		c-0.9,0.2-1.6,0.6-2.3,1.2c-0.6,0.3-1.2,0.5-1.9,0.6c-2.5,0.7-4.3,2.1-5.5,4.3c-1.7-0.4-3.3-0.2-4.6,0.6c-0.2,0.3-0.2,0.7,0,1.1
		c0.9,2.6,2.2,4.4,4,5.6c-2,3.6-3.1,7.9-3.3,12.8c0,1.6,0.1,3.3,0.4,4.9c-3.1-1.4-6.6-2.3-10.5-2.8c-0.1,0.1-0.2,0.2-0.4,0.2
		c-0.3,0.2-0.7,0.4-1,0.6c-0.3,0.2-0.6,0.5-0.8,0.7c-0.5,1.9-0.6,3.9-0.2,6c1.2,6,3.6,10.4,7.4,13.2c-2,0.5-3.5,1.5-4.4,2.9
		c0.1,0.2,0.1,0.2,0.1,0.2c2.2-0.5,3.9-1.4,5-2.6c0.7,0.5,1.6,0.9,2.4,1.3c-1.8,0.5-3.1,1.4-4,2.8c0.2,0,0.3,0.1,0.4,0.1
		c2.9-0.7,4.4-1.5,4.6-2.4c1.1,0.3,2.2,0.6,3.4,0.9c-1.4,0.3-2.3,1-2.9,2.1c0.2,0.1,0.4,0.1,0.6,0.1c1.6-0.7,3.3-1.3,5-1.8
		c1.4,0.1,2.9,0.1,4.4,0.1c-1,0.7-2,1.4-3,2.2c3.5-0.9,7.2-2.3,11.3-4.1c1.9-0.9,3.1-1.7,3.6-2.6c1.2,0.2,2.3,0.3,3.5,0.4
		c-4.2,1.4-7.6,3.5-10.2,6.3c1.2,0.1,2.6-0.2,4-0.9c3.7-1.7,6.1-3.5,7.4-5.3c0.3,0,0.7,0,1,0.1c0.2,0,0.3,0,0.4,0
		c1.4-0.1,2.7-0.3,4.1-0.6c-3.5,1.5-6,3.6-7.4,6.5c0.2,0,0.4,0,0.6-0.1c3.4-2.5,7-4.9,10.8-7c0.4-0.1,0.7-0.1,1.1,0
		c0.2-0.1,0.5-0.2,0.8-0.2c-0.3,0.5-0.1,1,0.4,1.3c1.3,0.8,2.5,1.5,3.8,2c-1.9,0.8-3.5,1.8-4.7,3.2c0.8,0.6,1.7,0.6,2.9,0
		c1.9-1,3-1.8,3.3-2.6c1,0.4,2,0.7,3.1,1c-0.9,0.6-1.5,1.3-1.9,2.1c0.2,0.1,0.3,0.1,0.4,0.1c1.3-0.6,2.5-1.2,3.5-2
		c2.6,0.3,5.1,0.1,7.8-0.5c-1.9,0.9-3.7,2-5.4,3.2c3.1-1.2,6.4-2.4,9.9-3.6c4.7-1.5,7.9-3.3,9.8-5.3c-0.1,0.1-0.2,0.1-0.3,0.2
		c-2.3,0.6-4.5,1.3-6.7,2.1c1-0.6,1.9-1.3,2.9-2c1.7-1.6,2.7-3.5,3-5.7c0.2-1,0.1-2-0.1-3c-0.4-0.3-0.8-0.6-1.3-0.7
		c-4.4-0.9-8-1.7-11-2.3c-0.6,0.1-1.3,0.2-2,0.3c0.3-0.5,0.5-1,0.7-1.5c-0.9,0.5-1.8,0.6-2.6,0.4c-0.4,0.7-0.8,1.3-1.3,1.9
		c-5.4,1.5-9.8,4.7-13.1,9.5c0-0.1,0-0.2,0-0.3c-6.8,2.5-14.4,2.4-22.9-0.3c-3.3-5.8-7.7-10.1-13.3-12.9c-1.7-4.9-1.4-10,1-15.6
		c0.1-0.1,0.2-0.2,0.4-0.4c0.1-0.1,0.2-0.2,0.4-0.3c0-0.2,0.1-0.3,0.2-0.4c0-0.1,0-0.2,0-0.4c0-0.1,0-0.2,0.1-0.3
		c0-0.2,0.1-0.3,0.2-0.4c0-0.1,0-0.1,0.1-0.1c2,0.8,4.5,0.8,7.5,0.1c0.1-0.3,0.2-0.5,0.3-0.8c0.1-0.2,0.2-0.4,0.2-0.7
		c0.1-0.2,0.2-0.5,0.4-0.8c-0.2-0.1-0.2-0.2-0.3-0.3c-0.1-0.2-0.1-0.3-0.2-0.4c0-0.3-0.1-0.5-0.2-0.7c0-0.2,0-0.3-0.1-0.4
		c-0.4-0.3-0.7-0.5-1-0.7c-0.1,0-0.1,0-0.2-0.1c1.3-0.9,2.6-1.6,4-2.2c0.8-0.4,1.6-0.7,2.1-1c0.2,0.2,0.5,0.4,0.7,0.5
		c0.5-0.4,0.6-0.7,0.4-1c0.2,0.2,0.4,0.4,0.6,0.6c0.1,0,0.1,0,0.1,0c2.7,1.2,5.5,1.5,8.4,1c2.1-0.4,4.2-0.3,6.2,0.3
		c4.9,1.4,8.7,1.2,11.6-0.6c0-0.1,0.1-0.1,0.1-0.2c0.2-0.2,0.4-0.4,0.5-0.5c1.3,0.9,2.5,2,3.7,3c-0.1,0.1-0.2,0.2-0.3,0.2
		c0.1,0.1,0.3,0.1,0.5,0.1c0,0.1,0.1,0.2,0.2,0.3c0.4,0.7,1.1,1.5,1.7,2.3c0.1,0.1,0.1,0.2,0.1,0.3l-0.2,0.2c1.8,2.6,3,5.8,3.5,9.6
		c-0.2,0.8-0.2,1.6,0,2.4c-0.2,0.1-0.3,0.2-0.4,0.3c0.1,0.6,0.1,1.2,0.1,1.8c-5.4,4.1-10.7,8.2-16,12.3c-0.4-0.1-0.8-0.2-1.3-0.1
		c-0.3,0.1-0.6,0.2-0.8,0.3c-0.6,0.2-1.1,0.4-1.6,0.5c-0.2-0.2-0.5-0.3-0.7-0.5c-0.6-0.3-1.2-0.7-1.7-1.2c-1.2-0.1-2.4,0.1-3.6,0.5
		c-0.5,0.3-1,0.3-1.5,0.2c-3.5-0.9-6.9-2.3-10.1-4.2c-0.5,0.3-1.1,0.6-1.7,1c-1.3,0.7-2.3,1.7-3,2.9c0.1,0.2,0.2,0.4,0.3,0.5
		c0.3,0.3,0.7,0.5,1.1,0.6c0.3-0.3,0.5-0.6,0.7-1c0.8-1.6,2.1-2.4,3.7-2.4c0.3,0.2,0.5,0.3,0.7,0.5c3.5,4,7.7,5.1,12.7,3.1
		c0.4,0.3,0.8,0.6,1.2,0.8c0.3,0.3,0.6,0.5,0.9,0.7c1.8,0,3.4-0.2,5-0.6c0.2,0.3,0.5,0.5,0.7,0.8c0.5,0.8,1.1,0.9,1.8,0.3
		c0,0,0-0.2-0.1-0.3c-0.1-0.4-0.2-0.7-0.4-0.9c4.3-2,8.5-4.3,12.7-6.9v0.1c0.7-0.4,1.5-0.7,2.3-0.9c0.1-0.1,0.1-0.3,0.1-0.4
		c-0.3,0.1-0.6,0.2-1,0.3c1.6-1,3.2-2.2,4.9-3.3c1.8,1.2,3.8,1.3,5.9,0.2c0.2-0.2,0.5-0.5,0.7-0.7c0.4-0.4,0.7-0.7,1-1.2
		c0-0.1,0-0.2,0-0.3C80.447,58.167,78.347,55.367,74.247,54.067z M75.547,56.167c0.4,0.4,0.8,0.9,1.1,1.3c1.2,1.5,1.9,3,2.2,4.7
		c-1.9,1.3-3.9,1.5-6.1,0.6c0.5-0.3,1-0.8,1.4-1.3c1.1,0.9,2.2,0.8,3-0.3c0.1-0.2,0.1-0.3,0.1-0.4c-0.2-1.6-1-2.7-2.6-3.1
		c-0.2,0-0.4,0.2-0.6,0.5c-0.4,0.5-0.6,1-0.6,1.5c-1,0.4-1.8,1.1-2.4,2.1c-0.1,0-0.2,0.1-0.3,0.2c-0.1,0.1-0.1,0.1-0.2,0.2
		c-0.5,0.3-1,0.6-1.4,1.1c-0.1,0-0.2,0.1-0.3,0.2c-3.5,2.8-7,5.5-10.7,8c-0.6,0.3-1.2,0.6-1.8,0.9c5.8-4,11.3-8.3,16.1-13.1
		c0-0.5-0.1-1-0.4-1.5c0-0.3-0.1-0.5-0.1-0.7c0.1-0.2,0.3-0.3,0.4-0.3c0.6-0.3,1.2-0.5,1.9-0.7c0.1,0,0.3,0,0.5,0
		C74.947,56.067,75.247,56.067,75.547,56.167z M78.847,73.567c0.3,0.1,0.5,0.2,0.7,0.4c0.7,0.8,0.8,1.6,0.1,2.5
		c-4.7,6.1-10.3,9.2-16.7,9.4c0.1-0.1,0.2-0.2,0.3-0.4c-0.2,0-0.4,0-0.6,0c-0.3,0.1-0.6,0.3-0.9,0.4c-3.2-0.1-6.7-1-10.3-2.5
		c0-0.1,0-0.2,0-0.3c3.3-5.1,7.7-8.3,13.4-9.5c0.1,0.1,0.3,0.2,0.4,0.3c0.2-0.2,0.3-0.4,0.4-0.5c2.4-0.5,4.9-0.6,7.6-0.4
		C75.147,72.967,77.047,73.167,78.847,73.567z M43.947,31.867c-0.1,0.2-0.2,0.5-0.2,0.8c-0.1,0.2-0.1,0.4-0.2,0.7
		c-0.1,0.8,0.1,1.4,0.6,1.7c0.4-0.3,0.7-0.7,0.9-1.3c0.2-0.7,0.6-1.4,1-2c0.5,0,1-0.1,1.5-0.2c0.5,0.4,1,0.8,1.4,1.2
		c0.9,0.9,1.8,1.5,2.7,1.8c0.1,0,0.1-0.1,0.1-0.1c-0.8-1.3-1.7-2.4-2.9-3.2c0.9-0.3,1.8-0.7,2.6-1.4c1.8,0.8,3.8,1.5,6,2.3
		c1.5,0.4,2.7,1.3,3.6,2.7c-2,4.9-5.6,6.8-11.1,5.8c-1.7-0.3-3.4-0.2-5.1,0.1c-8.2,2-14.1-0.3-17.3-6.9c0.4-0.3,0.7-0.6,1.1-0.9
		c2.8-2.9,6.4-4.4,10.7-4.5c0.1,0.3,0.2,0.5,0.3,0.8c0.2,0,0.3,0.1,0.4,0.2c-2.4,0.5-4.3,1.8-5.6,3.6
		C37.347,32.567,40.447,32.167,43.947,31.867z M46.447,29.867c-0.2,0-0.3,0-0.5-0.1c-0.7,0-1.5-0.2-2.1-0.5
		c-1.5-0.5-2.7-1.4-3.6-2.5c3.2,1.1,6.4,1.8,9.5,2.1c-0.8,0.7-1.9,1.1-3.1,1C46.547,29.867,46.447,29.867,46.447,29.867z
		 M42.647,24.067c0.2-0.1,0.4-0.1,0.6-0.2c3.8-0.6,6.2,0.2,7.3,2.5c-3.6,0.9-7,0.2-10.3-2
		C41.047,24.267,41.847,24.267,42.647,24.067z M61.347,38.867c0.1-0.1,0.1-0.1,0.1-0.1c1.7,1.7,3.2,3.5,4.8,5.5
		c1.6-0.5,2.9-0.3,4,0.5c0.1,0.2,0.1,0.4,0,0.5c-1,1.2-2.1,2.2-3.1,3.1c-1.4-3.1-3.6-5.7-6.6-7.8c0.5,0.3,1,0.5,1.5,0.7
		c-0.2-0.3-0.3-0.6-0.4-0.8c-0.5-0.3-0.8-0.5-1.3-0.8c0.1,0,0.1,0,0.1-0.1c0.4,0.2,0.7,0.4,1.2,0.7
		C61.447,39.767,61.447,39.267,61.347,38.867z M17.947,42.467c0.3-0.3,0.6-0.5,0.9-0.8c1.8-1.6,3.9-3,6-4c0.8,0.2,1.7,0.3,2.6,0.1
		c0.7,0.5,1.3,1.1,1.7,1.7c-0.1,0-0.2,0-0.2-0.1c-0.4-0.3-0.8-0.6-1.2-1c-0.2,0.1-0.5,0.1-0.7,0.2c-3.1,0.9-5.2,2.8-6.1,5.5
		c0.2,0.7,0.8,1.2,1.6,1.5c1,0.3,1.5,1,1.4,1.9c-0.1,0.3-0.2,0.4-0.3,0.4c-4.9,0.8-8.3-0.8-10.2-4.9
		C14.747,42.867,16.247,42.667,17.947,42.467z M24.647,41.967c1-0.7,2-1.3,3.1-1.5c-1.8,0.9-3.2,2.1-4.2,3.7
		c-0.3-0.2-0.4-0.5-0.5-0.8C23.547,42.867,24.047,42.367,24.647,41.967z M29.647,39.667c0.1,0,0.1,0,0.1,0l0.2,0.1
		C29.847,39.767,29.747,39.667,29.647,39.667z M30.547,40.367c0,0,0,0,0.1-0.1c0.1,0.1,0.1,0.2,0.3,0.3
		C30.747,40.467,30.747,40.467,30.547,40.367z M29.547,82.367c-0.1-0.1-0.1-0.2-0.2-0.4l0,0c0.7,0.2,1.4,0.4,2,0.7
		c0.1,0,0.2,0,0.3,0.1c-0.8,0.3-1.5,0.6-2.3,1C29.447,83.267,29.447,82.867,29.547,82.367z M26.947,81.967c0.3,0.8,0.3,1.3-0.3,1.5
		c-7.7,4.4-14.7,3.2-20.9-3.5c-4.5-4.9-5.3-9.8-2.6-14.7c3.7,0.6,7.3,1.9,10.9,3.7C19.947,71.867,24.247,76.167,26.947,81.967z
		 M69.447,64.667c0.1-0.1,0.2-0.2,0.2-0.3c0.3-0.1,0.5-0.2,0.8-0.3C70.047,64.267,69.747,64.467,69.447,64.667z"/>
	<path style="fill:#3172A1;" d="M26.247,37.867c0.1,0,0.1,0,0.1,0.1c0.1-0.1,0.1-0.1,0.1-0.1S26.347,37.867,26.247,37.867z"/>
	<path d="M64.347,47.767l0.2-0.2c-0.5-0.4-0.9-0.8-1.4-1.2C63.547,46.767,63.947,47.267,64.347,47.767z"/>
	<path style="fill:#3172A1;" d="M81.547,59.867c0.1,0.1,0.2,0.2,0.2,0.2c3.2-0.3,4.3-1.1,3.4-2.4c-0.1,0-0.2,0.1-0.5,0.1
		C82.747,57.667,81.647,58.367,81.547,59.867z"/>
	<path style="fill:#3172A1;" d="M80.947,85.267c-0.1,0-0.2,0-0.3,0c-3.8,1-6.9,3.1-9.2,6.1c0.2,0,0.4,0,0.6-0.1
		C75.947,89.467,78.847,87.467,80.947,85.267z"/>
	<path style="fill:#3172A1;" d="M37.547,2.767c-0.2-0.2-0.3-0.3-0.4-0.4c-2.5-1.9-5.5-2.6-9-2.3c-0.1,0.1-0.4,0.2-0.5,0.3
		c-0.9,0.3-1.8,0.8-2.5,1.5c-0.2,0.3-0.4,0.5-0.6,0.7c0,0.2,0,0.3,0,0.4c-0.2,1.7,0.2,3.1,1.5,4.3c0.8,0.8,1.8,1.5,2.9,2.1
		c-0.5,0.6-0.7,1.4-0.7,2.3c0.1,0.3,0.2,0.7,0.2,1.1c0,0.2,0,0.5,0,0.7c0.3,0.3,0.6,0.7,0.8,1c0.4,0.6,0.9,1,1.5,1.4
		c0,0,0.1,0.1,0.2,0.2c0,0.9,0,1.8,0,2.7c0.1,0.8,0.3,1.5,0.8,2.2c0.1,0.3,0.3,0.5,0.4,0.8c0.3,0.1,0.5,0.2,0.8,0.2
		c0.4,0.1,0.8,0.1,1.3,0c0,0,0.1-0.1,0.2-0.2c-0.3-0.9-0.7-1.7-1.3-2.4c-0.5-0.6-0.8-1.3-0.7-2.1c0-0.3,0-0.5,0-0.8
		c0.4,0.2,0.8,0.2,1.2,0.1c1-0.2,1.8-0.7,2.5-1.6c0.1-0.1,0.1-0.4,0.1-0.6c-0.3-0.3-0.6-0.4-0.9-0.5c-0.8-0.2-1.7-0.3-2.6-0.3
		c-0.4,0.3-0.8,0.5-1.3,0.5c-0.2,0.1-0.5,0-0.8-0.1c-0.1-0.1-0.2-0.2-0.4-0.4c-0.3-0.5-0.5-1.1-0.5-1.8c0-0.5,0.1-0.9,0.5-1.2
		c0-0.1,0.1-0.2,0.2-0.3c2.5,0.9,4.6,0.7,6.2-0.6c0.1-0.1,0.1-0.3,0.1-0.6c0.3-0.5,0.1-0.9-0.6-1c-2.1-0.5-4.3-0.5-6.4,0
		c-0.3-0.2-0.7-0.5-1.1-0.7c-1.2-0.8-2-1.8-2.5-3c-0.1-0.2-0.2-0.5-0.4-0.8c0.2-0.4,0.5-0.7,1-0.8
		C30.447,1.667,34.047,1.667,37.547,2.767z"/>
	<path style="fill:#3172A1;" d="M40.147,6.767c-0.5,0.3-0.9,0.6-1,1.1c0,0.4,0,0.8,0,1.1c0,0.2,0,0.3,0,0.4c1,0.9,2.1,1.2,3.4,0.9
		c0.2-0.3,0.3-0.6,0.4-1c0.2-0.7,0-1.4-0.5-1.9c-0.1-0.1-0.2-0.2-0.2-0.3c-0.5-0.2-1-0.4-1.6-0.6
		C40.547,6.567,40.347,6.667,40.147,6.767z"/>
	<path style="fill:#3172A1;" d="M38.547,22.167c-0.1,0.1-0.1,0.1-0.1,0.1s0,0,0,0.1c0.1-0.1,0.3-0.1,0.5-0.2
		C38.747,22.167,38.647,22.167,38.547,22.167z"/>
	<path style="fill:#3172A1;" d="M25.147,16.767c-0.5,0.3-0.8,1-0.7,2c0,0.6,0.2,1.1,0.6,1.5c0.1,0.1,0.2,0.2,0.4,0.3
		c1.3,0.7,2.2,0.5,2.6-0.2c0.6-0.6,0.8-1.3,0.6-2.2c-0.1-0.3-0.2-0.6-0.2-0.8c-0.3-0.1-0.5-0.2-0.7-0.3
		C26.947,16.967,26.047,16.767,25.147,16.767z M25.747,18.967c0-0.3-0.1-0.7-0.1-1.1c1.1-0.5,1.8-0.2,2,0.9
		c-0.2,0.9-0.9,1.1-1.7,0.6C25.747,19.267,25.747,19.167,25.747,18.967z"/>
	<path style="fill:#3172A1;" d="M4.747,90.567c0.1,0.2,0.1,0.2,0.1,0.2c0.3,0,0.6-0.1,0.8-0.2c-0.2,0-0.4-0.1-0.7-0.1
		C4.947,90.467,4.847,90.567,4.747,90.567z"/>
	<path style="fill:#3172A1;" d="M30.747,79.967c0-0.1-0.1-0.1-0.2-0.1c0.1,0,0.1,0.1,0.1,0.2
		C30.747,80.067,30.747,79.967,30.747,79.967z"/>
	<path style="fill:#3172A1;" d="M56.747,61.467c0.2,0,0.3,0,0.4,0c0-0.2-0.1-0.3-0.2-0.3c0.8-2.5,0.6-5.4-0.8-8.7
		c-0.9-1.2-1.9-2.3-3-3.4c-3.2-3-6.9-3.7-11-2.2c-0.4-0.4-0.9-0.7-1.5-1.2c-0.1-0.1-0.3-0.2-0.5-0.3c-1.6-0.1-3.2-0.1-4.7-0.2
		c-3.4,0.8-5.8,2.8-7.2,6c-3.8,8.7-1.2,14.3,7.7,16.8c1.3-0.5,2.7-0.9,4.2-1.3c0.8-0.2,1.5-0.7,2-1.3c0.7,0.9,1.7,1.6,2.9,2
		c1.9,0.7,3.7,0.6,5.5-0.2C53.647,65.767,55.747,63.867,56.747,61.467z M33.147,48.567c-0.5,0.3-1.1,0.7-1.6,1c1.1-1,2.6-2,4.4-2.9
		c1.9-0.5,3.6-0.3,5,0.8c-0.5,0-1.1-0.1-1.7-0.1c0.4,0.1,0.7,0.3,1,0.5c0.4-0.1,0.7-0.1,1.1-0.1c0,0.1,0.1,0.1,0.2,0.2
		c0,0.3,0,0.6,0.1,0.8c0.4,0.3,0.7,0.6,0.9,0.9c0.5-0.1,0.8-0.3,1.1-0.8c0.1-0.2,0.3-0.4,0.5-0.6c0.1,0.1,0.2,0.1,0.3,0.2
		c0.6-0.5,1.4-0.7,2.2-0.7c0.3,0.1,0.6,0.2,0.8,0.4c1.8,0.3,3.5,1.2,5,2.4c0.2,0.3,0.4,0.5,0.6,0.8c0.6,0.9,1.2,1.8,1.6,2.8
		c1,1.1,1.3,2.3,1.1,3.6c0.1,0.6,0.1,1.2-0.2,2c0,0.3-0.1,0.6-0.2,0.9c0-0.1-0.1-0.1-0.2-0.1c-0.1,0.2-0.2,0.4-0.4,0.6
		c0.1,0,0.2,0,0.4,0.1c-0.2,0.4-0.4,0.6-0.5,1c-4-1.6-7.5-3.8-10.7-6.4c-0.5-0.1-0.9-0.2-1.3-0.3c-3.9,2.9-8.5,4.6-13.7,5.2
		c0-0.2-0.2-0.4-0.2-0.6c0.1,0,0.2,0,0.3,0c-0.1-0.1-0.1-0.2-0.2-0.3c-0.1,0-0.1,0-0.1,0c-0.1-0.2-0.1-0.4-0.2-0.6
		c-0.1-0.6-0.2-1.2-0.3-1.8c0-0.6,0-1.1,0-1.7c0.3-0.9,0.7-1.8,1.3-2.5c0.1-0.4,0.2-0.8,0.5-1.1
		C30.847,50.667,31.947,49.467,33.147,48.567z M30.047,63.467c-0.4-0.8-0.8-1.7-1-2.4c2.7,0.6,5.4,0.3,8.1-0.6
		c0-0.1,0.1-0.2,0.1-0.2c1.1-0.5,2.1-0.9,3.1-1.5c0.1,0,0.2-0.1,0.3-0.1s0.2,0,0.3,0c0.6-0.5,1.3-0.9,2-1.4c0.3-0.1,0.6-0.1,0.9,0
		c-0.3,0.2-0.4,0.5-0.5,0.9c-0.4,1.2,0,2,1.3,2.2c0.5,0.1,0.9,0.1,1.2-0.1c0.3-0.1,0.6-0.4,0.7-0.6c0.2,0.2,0.4,0.5,0.6,0.7
		c0-0.1,0-0.1,0.1-0.2c0,0,0-0.1,0-0.2c2.2,1.5,4.5,2.4,7,2.9c-0.8,1.1-1.8,2.1-3.1,3.1c-1.9,0.5-3.7,0.4-5.4-0.2
		c0.1,0,0.2-0.1,0.2-0.1c-0.3-0.1-0.7-0.3-1.2-0.4c-0.3-0.2-0.6-0.4-0.9-0.6c0,0,0,0.1,0.1,0.2c-0.5-0.4-1-0.8-1.5-1.2
		c0.1,0,0.1-0.1,0.1-0.2c0.2,0.2,0.3,0.3,0.5,0.5c0-0.1-0.1-0.2-0.2-0.3c-0.1-0.2-0.2-0.4-0.3-0.5c0,0-0.1-0.1-0.2-0.2
		c-0.1,0-0.1,0.1-0.2,0.2c-0.2,0.2-0.4,0.5-0.6,0.6c0-0.1,0-0.1,0-0.3c-0.1-0.1-0.2-0.2-0.3-0.2c-0.1,0-0.1,0-0.1-0.1
		c0-0.7-0.5-1.2-1.5-1.4l0,0c-1,0.4-1.4,1.1-1.5,2.1c0.1,0.3,0.2,0.5,0.3,0.7c0.2,0.3,0.4,0.6,0.7,0.8c-1,0.4-1.9,0.6-2.8,0.5
		c0.1,0.1,0.2,0.2,0.3,0.2c-1.6,0.1-3.3-0.3-5-1.1C30.847,64.567,30.347,64.067,30.047,63.467z M44.947,47.967c-0.2,0-0.4,0-0.5,0.1
		c0-0.1,0-0.1,0.1-0.1C44.647,47.967,44.847,47.967,44.947,47.967z M41.447,64.367c0-0.1,0-0.2,0.1-0.3c0.2,0,0.4-0.1,0.6-0.2
		C41.847,64.067,41.647,64.267,41.447,64.367z M39.247,65.367c0,0,0.1,0.1,0.2,0.1c-0.2,0.1-0.3,0.1-0.4,0.2
		C39.047,65.567,39.147,65.467,39.247,65.367z"/>
	<path style="fill:#3172A1;" d="M48.347,48.667c-0.1-0.1-0.3-0.2-0.4-0.3c-0.1,0-0.1,0-0.1,0
		C47.947,48.467,48.147,48.567,48.347,48.667z"/>
	<path style="fill:#3172A1;" d="M50.347,79.667c-0.3,0.1-0.5,0.3-0.7,0.4c0.1,0.1,0.3,0.1,0.5,0
		C50.247,79.967,50.247,79.767,50.347,79.667z"/>
	<path style="fill:#3172A1;" d="M50.647,84.267L50.647,84.267c-2.7,1-5,2.5-7,4.5c1,0.4,2,0.3,3.2-0.3
		C49.847,86.967,51.147,85.467,50.647,84.267z"/>
</g>
</svg>
